<svg width="205" height="50" fill="none" xmlns="http://www.w3.org/2000/svg"><path d="M23.579 3.167c.343-.816 1.498-.816 1.842 0l5.336 12.647a1 1 0 0 0 .827.607l13.468 1.275c.868.082 1.222 1.158.573 1.74l-10.19 9.14a1 1 0 0 0-.31.96l2.978 13.485c.19.86-.742 1.527-1.495 1.07l-11.59-7.024a1 1 0 0 0-1.036 0l-11.59 7.025c-.752.456-1.685-.212-1.495-1.071l2.977-13.486a1 1 0 0 0-.308-.96L3.375 19.436c-.65-.582-.295-1.658.573-1.74l13.468-1.275a1 1 0 0 0 .827-.607L23.58 3.167Zm52 0c.344-.816 1.499-.816 1.842 0l5.336 12.647a1 1 0 0 0 .827.607l13.468 1.275c.868.082 1.222 1.158.573 1.74l-10.19 9.14a1 1 0 0 0-.31.96l2.978 13.485c.19.86-.742 1.527-1.495 1.07l-11.59-7.024a1 1 0 0 0-1.036 0l-11.59 7.025c-.752.456-1.685-.212-1.495-1.071l2.977-13.486a1 1 0 0 0-.308-.96l-10.191-9.139c-.65-.582-.295-1.658.573-1.74l13.468-1.275a1 1 0 0 0 .827-.607L75.58 3.167Zm52 0c.343-.816 1.499-.816 1.842 0l5.336 12.647a1 1 0 0 0 .827.607l13.468 1.275c.868.082 1.222 1.158.573 1.74l-10.191 9.14a1 1 0 0 0-.308.96l2.977 13.485c.19.86-.743 1.527-1.495 1.07l-11.59-7.024a.999.999 0 0 0-1.036 0l-11.59 7.025c-.752.456-1.685-.212-1.495-1.071l2.977-13.486a1 1 0 0 0-.308-.96l-10.191-9.139c-.649-.582-.295-1.658.573-1.74l13.468-1.275a1 1 0 0 0 .827-.607l5.336-12.647Z" fill="#FFDF27"/><path d="M179.579 3.167c.343-.816 1.499-.816 1.842 0l5.336 12.647a1 1 0 0 0 .827.607l13.468 1.275c.868.082 1.222 1.158.573 1.74l-10.191 9.14a1 1 0 0 0-.308.96l2.977 13.485c.19.86-.743 1.527-1.495 1.07l-11.59-7.024a.999.999 0 0 0-1.036 0l-11.59 7.025c-.752.456-1.685-.212-1.495-1.071l2.977-13.486a1 1 0 0 0-.308-.96l-10.191-9.139c-.649-.582-.295-1.658.573-1.74l13.468-1.275a1 1 0 0 0 .827-.607l5.336-12.647Z" fill="#E1E1E1"/></svg>