<svg width="453" height="52" fill="none" xmlns="http://www.w3.org/2000/svg"><path fill-rule="evenodd" clip-rule="evenodd" d="M111.029.75c1.569.338 1.802 1.203 3.626 1.344.263-.51.658-1.273 1.647-1.006v.338c.843.314.372-.338.99.338h.333v1.344l.657.337v.668h.332c.109.338.217.668.333 1.006h-1.322v1.006c-.913.243-.735.094-.99 1.005-1.152.283-1.539.849-2.969 1.006.023.88.131 1.14.332 1.674-1.129-.087-2.59-.268-2.637-.338v.668h.333c1.044.007-.99.337-.99.337-.418-.526-.881-.817-1.647-1.005-.495.911-1.144 1.43-2.312 1.673v-.668l-.657.338c-.194.511-.255.55-.333 1.344-.696.055-1.995.298-2.312.668-.402.471.294.369-.657 1.005V12.49h-.333v1.343h-.989v-.668c-.503.197-.542.26-1.323.338v-.667l-.99.337c-.216.574-.316 1.053-.332 2.012h-1.647s-.332.534-.657.668v.337h-.333v-.667h-.657v-.338h-.333v.338h-.99v.338c-.572.518-.695 1.57-.989 2.349-1.214-.118-2.173-.59-2.97.338-.108.337-.216.667-.332 1.005-.881.11-1.763.22-2.637.338v.338l-.657.338v.668l-.99-.338-.332.668h-.99c-.054.031-.386.503-.657.668v.338c-.55-.11-1.098-.22-1.647-.338v-.338c-.193-.024-1.13.565-1.647.668-.224.636-.425 2.05-.657 2.679l-.99-.338v-.338c-.456-.086.131.244-.333.338-.788.157-.85-.252-1.322-.338l-.657 1.006h-1.322v.338l-.99.338v1.005h.657v.338h-.332c-.178.157-2.645.849-2.637 0h-.333v.668l-1.647-.338c.016 1.202-.077 2.114-.657 2.68v-.339h-.332v-1.343h-.658c-.023.88-.131 1.14-.332 1.674-.688-.205-1.346-.378-1.98.337v.668H65.5v.338l-1.98-.338c-.108.22-.216.448-.332.668-.441.11-.882.22-1.323.338v.668h-1.322v.668c-.788-.158-1.036-.385-1.647-.668v1.673c-.773.11-1.539.22-2.312.338v.338c-.967.228-1.083.37-1.322 1.344.464.023-.047-.055.332-.338.518-.385.31.825.333 1.005-.565.377-.449.212-.657 1.006.44-.11.881-.22 1.322-.338l.332-.668c.062-.008.773.315 1.322.338v-.668c.333.11.658.22.99.338l.333-.668c.402-.196.966-.18 1.322-.337V35.29c.781-.134 1.817-.636 2.97-.338v.338h1.322v-.338h.657V33.61h.657v.667c.99-.22 1.98-.448 2.97-.668l.332.338c.905-.644.301-1.147 1.98-1.343.378.385 0 .133.657.338v-1.006l1.647-.338v-.668c1.09.181 1.5.425 1.98 0h.332c.418-.518-.356-.675.332-1.005v.337h.333v-1.005c.727-.118 1.709-.44 2.636 0 .109.22.217.448.333.668h.657v-.668c.665.188.286-.04.658.338l.99-.338v-.338h.99c.216-.338.44-.668.656-1.006.55.11 1.099.22 1.647.338v.338c.24.047 1.215-.299 2.313-.338l-.333-1.006h.657v.338h1.322l.333.338v-.338l.99-.338c-.024-.88-.132-1.139-.333-1.673h1.98c.379-.385 0-.134.657-.338.255-1.006.201-.88 1.322-1.006.371.574.21.456.99.668.333-.84.68-1.752 1.322-1.343h.333v1.005h.657c.24-.927.093-.746.99-1.005v-.338l1.979-.338s.147.487.658.338l.332-.668h.99v-.668l.657.338v.338c.433.165.07-.157.333-.338.827-.228.533-.173.989-.668h.333v-.668l.657-.338c.387-.424.557-.974.99-1.343v.338h.99c.108.448.216.895.332 1.343h.333c.804-1.367 1.848-1.241 3.626-1.673.101-.024.085-.464.658-.338v.338c.657.22 1.322.447 1.979.667v-.337h.333l-.333-1.006c.217-.11.441-.22.657-.338.457-.7-.147-.471.658-1.006v-.338l1.647-.337c-.178.935-.256.031 0 1.005h.332v-.668c.657.11 1.322.22 1.98.338v-.338c.355-.306.062.055.332-.337h-.332v-.338h.989c.07.793.14.833.333 1.343.379-.385.131 0 .332-.668.379-.384.132 0 .333-.667.99-.338 1.98-.668 2.969-1.006l.333.338c.108-1.084.301-.982.657-1.674h.657v.338h.333v-.338h1.322l.333-1.005c.858.353 1.391.612 2.636.667-.108-.22-.216-.447-.332-.667.224-.37 1.856-.472 2.312-1.006l-.333-.668h.333v-.338c.874.393 1.245.644 2.637.668v-.338h-.333v-1.006c1.044.22.665.511.99.668.387-.023 1.175-.675 1.979-.338l.333.668h.657c-.317 1.108-.309 1.972.333 3.017h-.333c-.379.385 0 .134-.657.338v1.674h-.333c-.085.558.31.581.333.668v1.673c-1.183.047-1.871.48-2.637.668l-.657-.338c-.217.338-.441.668-.657 1.006-.186.078-1.802-.252-2.313-.338-.201.88-.935 1.776-1.979 1.674 0 0-.178-.425-.657-.338l.332.668h-1.322c-.108.557-.216 1.115-.332 1.673l-1.648-.338-.332.668c-.889.228-.866-.644-.99-.668l-.99.338.333.338c.015.134-.294.754-.333 1.344-1.098.11-2.196.22-3.301.337v-.667c-.781-.071-.82-.142-1.323-.338v1.005c-.069.142-2.265 1.69-.989 2.35h-.99v-.338c-.317-.62-.333.668-.333.668-.371.283-.046-.04-.332.338.928-.315.92-.354 1.979 0v.337l.99-.337-.332-.338.332-1.006c1.547.605 2.567.196 3.627-.668.108-.22.216-.448.332-.668h1.647s-.031-.196.657-.338v1.006h.333v-.668c1.407-.023 2.188-.07 2.969-.668l.333-.668c.549.11 1.098.22 1.647.338-.379-.385 0-.133-.657-.337v-.668c.332.11.657.22.989.337v-.667h.658v.668c1.91-.158 3.278-1.25 4.616-2.012v1.006h.657v-.668h2.312v-.338h.99v-.338c.657.11 1.322.22 1.979.338.279-.377-.038-.047.333-.338V20.19c.657-.11 1.322-.22 1.979-.338-.108.338-.216.668-.332 1.006h.332v.338c.372-.283.047.039.333-.338.379-.385.132 0 .333-.668.518.023 2.312.337 2.312.337v-.337h.332v-1.006c.363-.471 1.485-.346 2.312-.338v.338l1.98-.338v-.338h.657v-.338h.99l-.333 1.006h.333c.239-.927.092-.746.989-1.006v.668c.333-.11.658-.22.99-.337v-.338c.773-.11 1.539-.22 2.312-.338v-.338h.99l.332-.668c.279-.11 2.173.354 2.637.668v-.668l.99-.338v-.338c.449-.141-.131.244.333.338.549.11.587-.322.657-.338.603-.125 1.276.44 1.647.668v-.338c1.028-.95.077-1.422 1.979-1.673v.338h.99l-.332.668c.425.542.618-.37.989 1.005.433-.353.495-.683.99-1.005v1.005h.657c-.108-.668-.216-1.343-.332-2.011 1.546-.534 1.113.26 1.979-1.674h.333c-.039.715-.34 1.147-.333 1.344l.333.338c.603-.425.039-.456.332-.668.379-.283.209.306.333.338.332-.11.657-.22.99-.338v-.668c.742-.134 1.268-.55 2.312-.338 0 0 .015.44.657.338v-.338h1.647v.338c-.789.204-.611.11-.99.668h.658c.951-1.595 2.536-1.037 4.291-1.674l.333-1.005c.943 0 1.415.117 1.979.337v-1.343h.333c.216.338.44.668.657 1.006h.332l-.332.667h.332v.338c.944.692.851-.597 1.323 1.006h.657v.668h.657c-.108.338-.216.668-.332 1.006h.332c.224.502.232.557.333 1.343h.657v.668c.51.299.688.495.99 1.006 1.067-.59.626-.802 1.979-.338l-.332-1.006h.657v-.668h.657v.338h.333v-.338l.99.338-.333 1.006h.657c.24-.927.093-.747.99-1.006.495-.59.889-.636 1.98-.668v-.668c.657-.22 1.322-.447 1.979-.667.023.88.132 1.139.333 1.673.371-.283.046.04.332-.338h.333v-1.005c.989.11 1.979.22 2.969.337v-.667h.657l.333-1.006c.44.11.881.22 1.322.338.108-.22.216-.448.332-.668l1.647.338v.668c.843-.52 2.274-2.083 3.302-1.344h.657v.668h.333v-.668c1.585-.086 1.593-.236 2.969 0 .108-.558.217-1.116.333-1.674 1.523-.29 2.675-.29 3.626 0v-.667h1.98v.337h.99v.338c.332-.11.657-.22.989-.338v-.337c-.379-.385-.131 0-.332-.668 1.082.023.974.424 1.647 0l.332-.668 1.98.668v.668c.889 0 1.871.11 2.312-.338v-.668l.657.338v-.338c.657-.11 1.322-.22 1.98-.338.309.204-.116.48.332.338l.333-.668c.417 0 .843.597 1.647.338v-.338c.549-.11 1.098-.22 1.647-.338l-.333 1.006h.333c.734.81.618.471 1.647.338-.039 1.06-.642.628.332 1.005.147.833.302 1.234.333 2.35-.913.243-.735.094-.99 1.005h-.332v1.674c-.789.157-1.037.385-1.647.668v-1.006h-.333c-.487 1.878-.572.691-1.647 1.344v.338l-1.322 1.005c.108-.338.216-.668.332-1.005h-.332c-.201.534-.294.793-.333 1.673-1.245.267-1.848.652-3.626.668v-.668h-.658v.668h-1.647v.338h.333c-.209.479-.387.251-.657.667h-.658l.333-.667h-.333c-.324.455-.193.66-.989.667 0 0-.232-.479-.658-.337-.108.22-.216.448-.332.668h-.657l-.333 2.011-1.322.338v-1.344h-.657c-.24 1.077-.449 1.218-1.648 1.344l.333-1.006h-.333c-.123.385-.092 1.194-.657 1.006l-.332-1.006c-.333.11-.657.22-.99.338v.668c-.526-.204-.781-.299-1.647-.338v-1.006h-.333v1.006c.379.385.132 0 .333.668-.773.11-1.539.22-2.312.338v.668c-1.168.125-1.005.416-1.98.667v1.006c-.804-.188-.727-.354-1.322-.668v.668h-.332v1.006h.332v-.668h.657v.668c.549-.11 1.098-.22 1.647-.338v1.006h.658v-1.006c.549.11 1.098.22 1.647.338.154-.802.379-1.053.657-1.674 1.075.008 2.382-.149 2.969.338h.333c.108-.22.216-.448.332-.668h.658v-.338h.657v-.337l.657.337v-.337h3.302a49.058 49.058 0 0 0-.333-1.006h.658v-.338h.332v.338l.99.338c.023.471.077.094-.333.338.372.353 0 .149.658.337v-.337h.332v-1.006h.333c.286-.464.247-.582.332-1.344.781-.039.835-.102 1.322-.338v.338h.333v.338l-.333.668h.99V22.2c.774-.11 1.539-.22 2.312-.338v.338h.333c.371-.267-.124-.44.332-.338v.338h1.322v.668h.333c.108-.668.216-1.344.332-2.011h.658v.667h.332V20.52c.758.031.859.283 1.322.338l.333-.668s.905.314 1.322.337v-.667l.333.338c.441-.11.881-.22 1.322-.338v.338h1.647V19.19h.657v.338h.333v-.338l.657.338.333-1.006c.873-.33.688.73 1.322.668v-.338c1.446-.346 1.817-.825 3.302-1.006v.338h-.333c-.626.29.657.338.657.338.279.377-.038.047.333.338v-.668l1.647-.338c.108-.22.216-.448.332-.668l.333.338c1.956.126 2.211-.7 3.302-1.343v1.005h.332c.379-.385 0-.133.658-.338v-.667c.332.11.657.22.989.338l.333-.668h1.322v-.338h.332c.201.801.109.62.658 1.006v-1.006c1.732-.283 1.461-.04 2.969.668.17-.786.479-1.257.99-1.674.379.385 0 .134.657.338v-.668h.99v-.668c.549.11 1.098.22 1.647.338v.668h.657V13.51c.719.047 1.098.338 1.322.338v-.338l.99-.338c.108.22.217.448.333.668 1.051.315 2.629-.699 3.301-1.005l-.332-1.006h.99c.201.801.108.62.657 1.006.278.377-.039.047.333.337.023-.88.131-1.139.332-1.673.657-.11 1.322-.22 1.98-.338.278.377-.039.047.332.338-.255.338-.402.33-.657.668h.989l-.332-1.006.332-.338c.488.157.526.385 1.323.338v-.338h.332v.338c.441.11.882.22 1.323.338v.338c1.345.518 1.956-.244 2.636.338 1.029.691.155.432.658 1.343l.657.338v.668h.332c.302.456.248.59.333 1.343l-1.322-.338c.263 1.085.61 1.155.657 2.68-.371.283-.047-.04-.333.338h-.332c-.101-1.006-.047-.912-.657-1.344v.338h.332c-.217.448-.441.896-.657 1.343-.858.016-1.137.071-1.647.338v.338c-.565.197-.572-.314-.657-.338-1.184-.306-1.934.425-2.312 1.006h-.333c-.108.668-.217 1.344-.333 2.011h-.657l-.332-.667c-.441.11-.882.22-1.323.337.07.794.14.833.333 1.344-.766-.031-.843-.267-1.322-.338l-.333.668c-.441.11-.881.22-1.322.338-.24.927-.093.746-.99 1.006-1.16 1.06-2.134-.425-2.312-.338v.338c-.549.337-1.098.667-1.647 1.005.178 1.17.325.62 0 1.674h.333v-.338h1.322v.668l.99-.338v-.338l.989.338v-1.006c.333.11.658.22.99.338v-.338l-.332-.338h1.979c.108.338.217.668.333 1.006.216-.11.657-.668.657-.668.332.11.657.22.99.338v-.338c.487-.259.549-.251 1.322-.338v-.668h.657v-.667h1.323v.668c.742-.087.873-.032 1.322-.338v-.338h.657v-.338h.657v-.338c.588-.48.789-.754 1.647-1.006v1.006h1.323c.108-.558.216-1.116.332-1.673h.657a49.16 49.16 0 0 1-.332 1.005h.332c.472-.479 1.841-.856 2.637-1.005v-.668c.441-.11.882-.22 1.322-.338V20.55h.658v1.006h.657V20.55h1.647a49.27 49.27 0 0 1-.333 1.006h.658c.34-.385.611-.644 1.322-.668v.338h.332l.333-.338c.309-.605.456-.527.657-1.344l.99-.337v-.338l.332.338.99-.338v1.005h.658c.069-.793.139-.832.332-1.343l.657.338v-.338c.472-.416.511-.927.99-1.344.101.157.673 1.218.99 1.006l.332-1.006c1.431-.11 2.861-.22 4.292-.338v.338c-.913.244-.735.095-.99 1.006.82-.15 1.214-.306 2.312-.338v-.338h-.332v-1.673c.549.11 1.098.22 1.647.338.108-.338.216-.668.332-1.006.379.385.132 0 .333.668l.989.338v-.338c.681-.377.596-.519 1.647-.668V14.17c.704-.04 1.129-.345 1.323-.338l.332.338v-.668l1.647-.338v.668c.217-.11.441-.22.657-.338v-.337c.526-.063.41.581.658.668h1.322c.108-.558.217-1.116.333-1.674.549.11 1.098.22 1.647.338l.332-.668h.333v.338c.332-.11.657-.22.989-.338v-.668c.379.385.132 0 .333.668h.657c.155-.801.379-1.053.657-1.674 1.098.016 2.97.338 2.97.338v-.338h.657V9.81h.99c.108-.22.216-.448.332-.668.333.11.657.22.99.338v.337h1.647V9.15l1.322-.338v.668h.657c.209.919.434.762.658 1.673h.99c.239.927.092.747.989 1.006v.668c-1.971.408-1.709 1.343-2.312 3.017h1.98l.332-1.344c1.377-.212.936-.33 2.312-.668v.668c1.562-.668 1.33-.668 2.637 0v-.668c.441-.11.882-.22 1.322-.338v-.667h.658v.338h.332v-.338c.75-.15.889.172 1.322.338v-.338h-.332c-.611-.322.657-.338.657-.338v-.668h.657v-.668c1.037.197 1.47.542 2.637.668l.333-1.006s-.704-.055-.333-.338h.657v.338h1.98V9.81c1.052.22.65.495.99.667.549-.055.611-.66.657-.667.634-.181.456.22.657.337h.333V9.81c.44.11.881.22 1.322.337.24-.927.093-.746.99-1.005v.668h1.322c.309-.605.456-.527.657-1.344l.99.338v-.338c.217-.11.441-.22.657-.338v.668h.658l-.333-1.006c.789-.157 1.036-.385 1.647-.668v1.344c1.717-.456 1.175-.739 3.302-.338V7.122h.99v.338c-.14.197-.542.048-.333.668h.333c.533-2.074.703-.566 1.979-1.343.75-.456-.023-1.234 1.647-1.674v.338l.99-.338v.668h.333V5.11c1.167.126 1.005.417 1.979.668v.668c.309.526 2.359.62 1.322 1.673h.658v1.344l-.658.338c-.015.11.31.746.333 1.343h.657c-.155.802-.379 1.053-.657 1.674-.588.031-1.191.353-1.322.338v-.338h-1.323v.338l-1.979.338v.667c-.441.22-.882.448-1.322.668v-.338h-.333v1.006l-2.312.668c.379.385 0 .133.657.338v.338c.58.275 1.06-.197 1.323-.338v-.338h.989v-.668c1.539-.079 1.879-.487 2.97-1.006v-.338h2.312v.338h-.333c-.379.385 0 .134-.657.338v.668c1.345-.393.348-.306.99-1.006l.657.338v-.338h.657v-.338h.99c.348-.204.819-1.657 1.647-1.343v.338h.657v-1.006c.333.11.658.22.99.338v-.338c.657-.11 1.322-.22 1.979-.338v.668h.658c.108.338.216.668.332 1.006h.333v-.668h.657c.193-1.25.193-.77 0-2.011.1.039 3.178.73 3.302.667v-.337h.332V9.786h.333c.673.613 1.5.094 2.637 0v-.668c.665.189.286-.04.657.338 1.214-.354.905-.676 1.647-1.344v-.337c.835-.527 2.606-.024 3.959 0 .209-.92.433-.763.657-1.674 1.415-.055 1.129-.212 1.98-.668V6.44h1.322c.07-.794.139-.833.332-1.344l.99.338.333-.668h.657v-.338c.332-.11.657-.22.99-.337l.332 1.005c.835-.683.139-.809 1.647-1.005v.337c-.379.307-.386.244-.657.668h.333v.338c.688-.37.587-.542 1.647-.668.278.378-.039.048.332.338-.387.637-.278.322-.99.668v.338h.658c-.109.668-.217 1.343-.333 2.011h.333v.338h-.333v.668c.108.786.217 1.564.333 2.35h-.333c-.278.384-.17.47-.657.667v-.338h-.333c-.216.338-.441.668-.657 1.006h-.99l-.332.668c-.441.11-.882.22-1.322.338a53.69 53.69 0 0 1-.333 1.005l-.99.338-.332.668h-.333v-.338c-1.214-.29-1.593 1.14-2.312.338v.668h-.657c.108.448.216.896.332 1.344h-.332c-.371.573-.209.455-.99.667-.031-.07-.472-1.218-.657-1.005v.338l-.657.337c-.109.338-.217.668-.333 1.006h-.99c-1.105.55-.433.888-2.312 1.006.109.338.217.668.333 1.006.441-.11.881-.22 1.322-.338v1.005h.333v-.338h1.322c1.005-.385 1.469-.934 2.969-1.005v-.668c.936-.212.874-.62.99-.668h1.322v.338l1.322-.338s.147.416.658.338v-.338l1.322.338v-.338c.379-.385.131 0 .332-.668h-.332v.338c-.286.636-.333-.668-.333-.668 1.207.11 2.421.22 3.627.338l.333-.668c.332-.102.603.519 1.322.338v-.338h1.647v.338h.332v-.338h1.323l.332-1.006h.333l-.333-.667h.99c.379.385 0 .133.657.338v-.668c.789.157 1.036.385 1.647.668v-.338h-.332c-.611-.322.657-.338.657-.338v.338c.379.385.131 0 .332.668.704-.04 1.122-.338 1.323-.338v.337h.657c.093-.597.332-.667.332-.667a49.226 49.226 0 0 0-.332-1.006h.332v-.338c.936.424 1.361.864 2.637 1.006v-.668c1.926-.448.186-.849 1.98 0v-1.344h.332v.338c.441-.338.882-.668 1.323-1.005v1.343h.332c.162-.157-.093-.542.333-.338v.338h.332s-.093 1.202.333.668v-.338c.378-.385.131 0 .332-.668h-.99c.255-1.005.201-.88 1.322-1.005v.337l.99-.338v.338h.99v.338c.851.181 1.809-1.045 2.312-1.343l.99.338v-.338c.549-.362.549-.456 1.322-.668-.108.338-.216.668-.332 1.006h.332v.337c.333-.22.657-.447.99-.668v-.337h.657c.596-.267.719-.762.99-1.344l1.647 1.344c.201-.66.015-.817.657-1.006.108.04.101.629.657.668.704-.95.294-.676 1.323-.338.108-1.084.301-.982.657-1.674 1.152.181.611.33 1.647 0v2.012h.333c.371-.574.208-.456.989-.668.619 1.053 1.222.95 1.323 2.68.904.039 2.389.463 2.636 0h.333v.337c.912.22 1.948.935 2.312 1.674v1.005h.332c.457.621.766.778.99 1.674a50.33 50.33 0 0 1-.99-.338v.338h.333v1.006h.332c.302.495.294.825.333 1.673-.379.385-.132 0-.333.668-1.098.11-2.196.22-3.301.338v-.668c-.441.11-.882.22-1.323.338v-.668c-.216.11-.441.22-.657.338-.108-.22-.217-.448-.333-.668-.007 0-.974.456-1.646 0l-.333-1.006c-.387-.275-.565.982-1.322.668v-.338c-.379-.385-.132 0-.333-.668l-.99.338v-.338h-.332c.108-.337.216-.667.332-1.005 0 0-.409-.102-.332-.668 0 0 .549-.15.332-.668h-.332c-.379.385 0 .134-.657.338-.109.338-.217.668-.333 1.006-.773-.095-.819-.11-1.322-.338v-.338c-.557.04-.557.636-.657.668-.75.267-1.33-.417-1.647-.338v.338c-1.122.455-1.369 1.045-2.637 1.343.108-.338.216-.668.332-1.005h-.657c-.487.911-1.013 1.532-2.312 1.673v-1.006h-.332c-.256 1.006-.201.88-1.323 1.006v-.668c-1.376.762-1.562.684-3.301.338v-.668h-.333c-.023 1.297.054 1.383-.99 1.674v.338c-.317.62-.332-.668-.332-.668h-.657c-.109.22-.217.448-.333.668-.549-.11-1.098-.22-1.647-.338v.668h-.99v.338c-.379.385-.131 0-.332.667l-1.98.338v-.667l-3.302.337v.668h-.989v.338c-.294.628-.333-.668-.333-.668-1.059.26-.711.503-1.979.668v1.006c-1.949-.205-1.802-1.187-3.959-1.344-.008 1.116-.171 1.517-.333 2.35h-.657c.1-.291.634-.74.332-1.344h-.332v.338c-.379.385-.132 0-.333.668l-1.979.337v.668c-1.106-.204-2.08-.92-3.302-.338-.216.338-.441.668-.657 1.006-.897.267-1.021-.904-1.323-1.006-.595-.204-.239.377-.332.668a51.67 51.67 0 0 1-.99-.338v1.344h-.657l-.333.668c-.541.165-.611-.33-.657-.338-.796-.142-.858.338-1.322.338v-.338c-.657-.11-1.322-.22-1.98-.338v.668c-2.188.236-3.301.29-4.948 0l-.333 1.006c-.618-.165-1.577-.142-2.637-.338v-.338c.379-.385.132 0 .333-.668-.789.032-.82.22-1.323.338v-.338c-.549-.361-.541-.48-1.322-.668v-.668h-.657a49.253 49.253 0 0 0-.333-1.005l-1.979-.338v-.668c.263.11 1.036.684 1.647.338v-.338c-.974-.644-.804-1.336-.657-2.35.441-.22.448-.526.657-.667.216.11.441.22.657.338V20.88h.333c-.109-.668-.217-1.343-.333-2.011a50.33 50.33 0 0 1-.99-.338c.109.22.217.448.333.668l-.99-.338v.668h-.332c-.109.22-.217.448-.333.668h-.99c.078.777.364.204 0 1.005l-.657-.338v.668c-.356.59-.332-.668-.332-.668-.549.11-1.098.22-1.647.338 0 0-.155-.503-.658-.338-.108.22-.216.448-.332.668h-.99c-.108.338-.216.668-.332 1.006-.511-.275-1.462-1.21-2.312-1.006-.109.22-.217.448-.333.668-.634-.063-.549-.652-.657-.668h-.333v.338h-1.647v.338h.658c-.109.668-.217 1.344-.333 2.011h-.657c-.302-.133-.217-1.021-1.323-.667l-.332.667h-1.647v-.338c-.479-.267-.557-.235-1.322-.337v1.005c-.333-.11-.657-.22-.99-.337v.337c-.379.385-.131 0-.333.668-1.229.354-.889.692-1.646 1.344v.338h-.99v-1.006h-.658v.668h-1.647v-.338h-.332c-.217.448-.441.896-.657 1.344l-.658-.338v.338l-.989.667V27.23h-.333v.338l-.99-.338v.338c-.464-.024.132-.283-.332-.338l-1.98.338v1.005h-.332v-.338c-.897-.487-1.616.472-1.98.668-.185-1.053-.324-1.406-1.322-1.673.186.817.348.738.657 1.343h-.657c-.526.495-1.941.37-2.969.338v-.668h-.657v.668c-.658-.11-1.323-.22-1.98-.338-.162-.793-.309-.793-.657-1.343.448-.393.324.251.657-.338-.433-.275-.387-.236-.657-.668h.657c.07-.794.139-.833.332-1.344-.935-.22-1.244-.62-1.647-1.343h.99c.217-.896.441-1.792.657-2.68-.433-.274-.386-.235-.657-.667-.703.408-.719.754-1.647 1.006v-.669h-.332v1.006c-1.284.11-1.485.542-2.312 1.006-.07-.794-.139-.833-.333-1.343-.371.282-.046-.04-.332.337h-.333l.333.338-.333 1.006c-1.399-.244-1.585-.055-3.302 0l.333 1.005h-.333c-.27.44-.232.393-.657.668v-1.343c-1.678.094-1.454.597-3.302.668-.247 1.139-.703 1.548-1.979 1.673v-.668h-.333v.338c-.286.637-.332-.668-.332-.668-.333-.11-.658-.22-.99-.337l.333.667h-.658c-.526.495-.812 1.155-.99 2.012h-.989v-.668c-2.119.079-2.652 1.226-4.292 1.674.209-.92.433-.763.657-1.674-2.111.471-3.611 1.949-4.948-.338 1.484-.88.703-1.25.332-2.68h-1.322c-.278-.376.039-.046-.333-.337.101-.29.634-.739.333-1.344h-.333v-.337h-.989c-.557.927-1.415.675-1.98 1.343l-.332 1.006h-.99v.338c-.333.11-.657.22-.99.338v-.668c-1.028.228-1.5 1.005-2.312 1.343h-1.322v.338c-.333-.11-.657-.22-.99-.338v.668l-1.98.338v.338h-1.322c-.108.023-.085.463-.657.338v-.338h-.657v-.338l-2.312-.338c-.24.471-.596 1.014-.99 1.344v-1.344h-.333v.668c-.332-.11-.657-.22-.989-.338-.155.786-.549 1.037-.658 1.674h.333c.108.337.216.668.332 1.005-1.879.024-2.072-.353-3.301-.668-.488.912-1.013 1.533-2.312 1.674v-.668h-.658v1.344h-.657v.338h-2.312v.338h-.657v.337c-.217-.11-.441-.22-.658-.337v.337h-.332c-.487-.4.278-.243-.332-.668.038 1.061.641.629-.333 1.006v-.668c-1.856.228-1.067.833-1.979 1.344h-.658c-.108.338-.216.668-.332 1.006h-1.647v-.338c.819-.613.425-.26.332-1.344h-.657v1.006c-2.869.008-3.371.581-5.939.668v-.668c-.44.22-.881.448-1.322.668.108.448.217.895.333 1.343-.859-.055-1.129-.07-1.648-.338v-.337l-.989.337c-.054-.008-.116-.471-.657-.337v.337h-.658v.338h-.657v.338c-.456.307-.58.236-1.322.338v-1.006h-.333v.338h-1.647c-.224.102-.015.432-.99.668-.108.338-.216.668-.332 1.006h.332c.488.408-1.198.33-1.322.337v-.337c-1.322-.22-2.637-.448-3.959-.668.178-.935.255-.032 0-1.006-.356.189-.688.904-1.322.668v-.338h-.333l.333-.668h-.333c-.379-.385 0-.133-.657-.338a49.422 49.422 0 0 0-.332-1.005h.657a56.298 56.298 0 0 0-.333-1.006h.333v.338c.286.636.332-.668.332-.668h.333v-.338c-.217-.11-.441-.22-.658-.338.109-.337.217-.667.333-1.005h-.333v-.338h.99v-.338c-.433-.275-.386-.236-.657-.668.565-.377.448-.212.657-1.006l1.323-.338c.038-.023.51-1.24.657-1.005v.668h.99c.309-.605.456-.527.657-1.344-.449-.393-.503-.613-.657-1.343h.657v-.668h.657v-.338c-.657.11-1.322.22-1.979.338v-.338c-.433.023-.828.573-1.647.338v-.338c-.658-.11-1.323-.22-1.98-.338v1.344h-.657v.667c-.333-.22-.657-.448-.99-.668v-.667l-.333.337c-.378.386-.131 0-.332.668h-1.322v.668c-.657-.11-1.323-.22-1.98-.338-.108.558-.216 1.116-.332 1.674-.804.188-.727.346-1.322.668v-.338c-.341-.29-.457-.581-.658-1.006-.379.385-.131 0-.332.668-.658.11-1.323.22-1.98.338v.668c-.781.07-.819.141-1.322.338v-.668h.332l-.332-1.006h-.333v.668c-.216-.11-.44-.22-.657-.338-.379.267-.131.794-.99.668-.108-.22-.216-.448-.332-.668h-.333v.668l-.989.338c-.17-.047-.201-.849-.658-.668-.332.448-.657.896-.989 1.344-.333-.11-.658-.22-.99-.338v.668h-.657v.667c-.372-.282-.047.04-.333-.337-.356-.307-.062.055-.332-.338h.332v-.338h-.99v.338h-.332v-.338h-.99c-.108-.22-.216-.448-.332-.668-.217.11-.441.22-.658.338-.448.133.139.361-.332.338v-.338h-.657c-.008 1.037.092 1.728.332 2.35h-1.322v.667h-.333v-1.006h-.657l-.332 1.006c-.372-.283-.047.04-.333-.338h-.333l.333-1.006c-.333.11-.657.22-.99.338v.338h-.657c-.108.22-.216.448-.332.668h-1.323v.338h-.332c-.163-.15.093-.542-.333-.338l-.332.668-1.647.338v-.668h-.333l-.332.668h-.333l-.332-.668c-.457-.212-.928-.165-1.323-.338-.023 1.296.055 1.383-.989 1.674v-.668h-.658v.668h-1.647l-.657 1.673h-.657v-.338c-.108-.016-.758.299-1.323.338.186-.817.349-.739.658-1.344h-.658l-.332 1.006-2.312-.338c-.348.173-.24.755 0 1.006h-.657c-.286.346-.572.464-.99.668v-1.006c-1.477.126-.959.212-2.312 0v.338c.379.385.131 0 .333.668h-1.648c-.085-.016-.108-.432-.657-.338v.338h-.657c-.108.338-.217.668-.333 1.005-.371-.282-.046.04-.332-.337-.371-.283-.047.039-.333-.338.433-.275.387-.236.658-.668h-1.323c-.293.353-.579.44-.989.668v.338l-.99-.338v.338c.433.275.387.235.657.667h-.657c-.387-.455-.603-.51-1.322-.667v.667c-.619-.235-1.292-.33-2.312-.337-.364-.7-.534-.597-.658-1.674h-.657V33.9c-.371.283-.046-.039-.332.338h-.333v.668l-.657.338v1.005h-.333c-.332-.447-.657-.895-.989-1.343h-.333c-.433-.746.178-.935-.657-1.674.108-.447.216-.895.332-1.343 0 0-.425-.165-.332-.668h.332v-1.673s.201 0 .333-.668c.912-.244.734-.095.99-1.006h.657v.338l.99-.338v-.668l1.647.338c.239-.927.092-.746.989-1.006v-1.343h.333l-.333-.668h.333c.278-.377-.039-.047.332-.338v-.338c.317-.62.333.668.333.668l.99.338v-.338h-.333c.108-.338.217-.668.333-1.006h1.979v.338c.773-.11 1.539-.22 2.312-.338v-.668h1.322v-.667c-1.129-.016-2.281-.228-2.969-.338-.216.338-.441.668-.657 1.005l-1.98.338c.186-.817.348-.738.658-1.343h-1.323v.338h.333c.379.526-.812.314-.99.337v1.006h-.332v.338c-.549.11-1.098.22-1.647.338.108-.558.216-1.116.332-1.674-.804.189-.734.346-1.322.668v.338c-.657-.22-1.322-.448-1.98-.668v.338c-.379.385-.131 0-.332.668-.541.102-1.438.7-1.647.668v-.338h-.99c-.456-.095.124-.44-.332-.338l-.333.668h-.657l.332-.668h-.332c-.379.385 0 .133-.658.338v.668c-.549.11-1.098.22-1.647.337-.061-.015-.108-.479-.657-.337v.337h-.657v.338c-.325-.07-.387-.903-.657-.668-.542.456.363.645-.99 1.006v1.006h-.333v-.668h-.332c-.108.22-.217.448-.333.668h-1.322c-.394-.73-.727-1.108-1.647-1.344v.338h-1.322l-.333.668-.989-.338v1.006h-.658c-.812 1.406-.734.393-1.647 1.006.108.22.217.447.333.668-.657-.11-1.322-.22-1.98-.338-.031.008-.17.581-.657.668v-.338h-1.322l-.333-.338v.338c-.935.612-.966.966-2.636 1.005-.372-.573-.209-.455-.99-.668v.668h-.658v-.337c-.417-.134-.866.95-.989 1.005-.681.307-.944-.29-1.323-.338v.338c-.657.11-1.322.22-1.979.338l-.333-1.006c-.912.244-.734.095-.989 1.006-.99.11-1.98.22-2.97.338l-.332.668h-2.312v.338c-.859.259-1.539.031-2.312.337-.186-.817-.348-.738-.657-1.343-.372.283-.047-.04-.333.338-1.16.833-.077 1.194-1.647 1.673v.338h-1.647l-.333.668c-.734.299-.927-.416-1.322-.338v.338c-.657.134-.417-.15-.657-.338h-.333v.668c-.332-.11-.657-.22-.989-.338V33.9l-.99.338V33.9h-1.322l-.333-.668c-.464 0-.155-.102-.332.338-.41-.385-.124 0-.333-.668h1.322v-.667h-1.322c-.309-.605-.456-.527-.657-1.344h.657c-.193-1.383-.356-1.603-.99-3.017-.433.173.093.133-.332.338h-.99v.338c.665.188.286-.04.657.338-.943-.032-1.415-.063-1.979-.338v.338c.379.384.131 0 .332.667-1.616 0-1.879.385-2.969.668v-1.006h-.333v.338h-.332l-.657-.337v1.005h-.99v-.668h-.333v.668h.333v1.006c-1.098-.008-1.492-.173-2.312-.338v.668c-.781-.04-.835-.102-1.322-.338v.338c-.379.385-.132 0-.333.668-1.74-.197-.758-.723-2.312-.338v-.668c-.526-.078-.417.574-.657.668-1.237.471-2.258.189-3.302 0v1.006l-.657-.338v.338c-.665.573.031.51-.333 1.005h-.332c-.797-1.21-3.085-.204-4.616 0v1.006c-.619-.173-1.802-1.202-2.312-1.006v.338h-.333v1.006c-.99.11-1.98.22-2.969.338v.667h.332c-.108.338-.216.668-.332 1.006-.781-.04-.835-.102-1.323-.338v.338h-.332V36.25h-.657v1.005h-.333v-.338h-1.322v.338l-.657-.338v.338c-.727.228-1.091.102-1.647.338v1.006c-1.647.251-1.632.298-2.97-.668l-.332 1.006h-1.322v.337c-.441.11-.882.22-1.323.338v-.667h-.657c-.2 1.178-.356 1.54-1.647 1.673v-.338c.379-.385.132 0 .333-.668-.441-.11-.882-.22-1.323-.337v-.338c-.626-.197-.456.188-.657.337l-.99-.337v.337h.333v1.344h-.657v-.668c-.905.535-.596.825-1.98 1.006-.24.927-.093.746-.99 1.006-.889 1.068-1.925.809-3.302.667v-.667h1.323a50.285 50.285 0 0 0-.333-1.006c-.502.196-.541.26-1.322.338-.054-.912-.108-2.02-.657-2.35v-.337c.24-.354.255.29.657-.338h-.657c-.588-.354.657-.338.657-.338-.186-.817-.348-.739-.657-1.344h.99c.27.44.231.393.657.668-.804-1.76-1.214-3.386 1.647-3.355.379.385 0 .134.657.338.108-.558.216-1.116.332-1.673h-.657v.667h-.657l.332-1.005h-.332c-.248.636.232.346-.332.668-.433-.393.394-.511-.333-.668v.668l-.657-.338v.338h.332c-.216.448-.44.895-.657 1.343h-.333v-1.006h-.332v.338h-.99c-.216.338-.44.668-.657 1.006H86.2v.338h-.99v.338h-.657v.338c-1.33.479-2.328-.464-2.97 0-.897.589-1.043 1.854-1.322 2.011h-2.97c-.378-.385 0-.134-.656-.338v-.668h-.333c.108.448.216.896.332 1.344h-.332c-.626.55-1.748.353-2.637.668v.337c-.487.158-1.291-.361-1.322-.337v.667h-1.647c-.333.786-.657 1.564-.99 2.35h-.332v-1.006h-.658c-.07.794-.139.833-.332 1.344-.371-.283-.046.039-.332-.338-.38-.385-.132 0-.333-.668.564-.377.448-.212.657-1.006h-.99v2.012c-.549-.11-1.097-.22-1.646-.338v-.338c.378-.385.13 0 .332-.668h-.657l.332-.668h-.332c-.38.385 0 .134-.658.338-.085.652-.325.652-.332.668-.526 1.65.294 2.145-1.647 2.35v-.669c-.456.165-.727.134-1.322.338v.338c-.333-.11-.658-.22-.99-.338v.338h-.657l.332.668h-1.98v.338c.38.385.132 0 .333.668-.534-.024-2.312-.338-2.312-.338-.108.22-.217.448-.333.668-.896.494-1.051.086-1.647 0v.337h-.657l-.332.668c-.55.11-1.098.22-1.647.338v.338c-.441-.11-.882-.22-1.323-.338-.549.11-1.098.22-1.647.338v.338c-.982.283-1.337-.535-1.98-.668v.338c-.378.385-.13 0-.332.668h-1.322l-.332-.338c-.17.078-.093.597-.658.668v-.338l-.99-.338v.338c-.332.11-.657.22-.99.338v-.668c-.594.314-.517.463-1.322.668v.667h-.332v-1.005c-1.856-.024-3.27-.802-3.959-2.011l.657-.338c.023-.472-.325.141-.332-.338.108-.558.216-1.116.332-1.674h.658c-.727-2.09.811-3.253.99-5.366a19.568 19.568 0 0 1 3.626-.338v-1.006h.99c.224-.982.363-1.1 1.322-1.343v-.668c1.925-.448.185-.849 1.98 0v-.668c.734-.141 1.128-.322 1.646-.668v-.338c.658-.063.232.511.658 0 .379-.385.131 0 .332-.668h.657c.38-1.359.673-.667 1.323-1.673.657.22 1.322.448 1.98.668v-.338h.332v-1.344c-1.895.04-2.42.275-3.96 0-.185 1.053-.324 1.407-1.322 1.674v-.668h-.657v1.006c-.672.361-1.299.99-2.312 1.006l-.332-.338c-1.191.911.108 1.563-2.312 1.673l.332-1.343h-.657v.337h.332c.023.118-.564 1.21-.657 1.674h-.657v-.668h-.658v.668l-.332-.338c-.657.22-1.322.448-1.98.668-.108.22-.216.448-.332.668-.433.188.07-.252-.332-.338-.333.11-.658.22-.99.338v-.338h-.99v-.338h-.332v.338s-.913-.306-1.323-.338c-.216.558-.44 1.116-.657 1.674-.286-.102-.727-.645-1.322-.338v.338h-.333v1.005h-.332v-1.005h-.333v1.343c.054.472.348-.141.333.338l-.333.338c-.572-.29-.116-.04-.332-.668h-.333v.668l-1.647.338.333-.668h-.333c-.51.581-.595.33-1.322.668v.338c-.487.188-1.26.086-1.322-.338h-.333v1.006h-.332v-.338h-.333v.668h-.657v.667c-.835-.267-2.041-.023-3.627 0-.108.786-.216 1.564-.332 2.35h-.657v-.668c-.503.196-.542.259-1.323.338v1.005c-.657.22-1.322.448-1.98.668v.338h-.656v.338c-1.617.62-1.996-.519-2.97 1.006h-.332l.332.337c-.108.338-.216.668-.332 1.006-.44-.11-.882-.22-1.323-.338v1.006c-1.167.126-1.005.416-1.979.668v-.668h-.333v1.006c-.657.11-1.322.22-1.979.337l-.333 1.006H5.99c-.108.338-.216.668-.332 1.006h-.333v-1.006h-.332l-.333.668-.99-.338v-.338c-.641-.165-.44.189-.657.338l-1.322-.338.332-.337v-.338h-.332v-1.006h.332v-.338h-.657c-.008-1.116-.17-1.516-.332-2.35H.376c-.587-.353.658-.337.658-.337.108-.338.216-.668.332-1.006 1.701.079 1.632.637 1.647-1.343.55-.11 1.098-.22 1.647-.338V41.92l.99-.337c.379-.386 0-.134.657-.338v.667h.657v-.667c.333.11.658.22.99.337v-.667h-.332l.332-1.006h.333v-.338h.99c-.008-.471.069-.094-.333-.338v-.338h.99v-.337h.332l.333.667c1.098.22 2.196.448 3.302.668.03-1.257.301-1.54.657-2.35.332.11.657.221.99.339v-.668h.99l-.333.668h.332v-.338h.658c.363-.29.146-.81.657-1.006.294.299.124.566.657.668.217-.338.44-.668.657-1.006h.99v-.337h.333V34.52h.657v.668c1.407-.134 1.492-.692 2.637-1.006.263-1.084.61-1.155.657-2.68h2.97v.339l.989-.338v-.338c.495-.134.448.597.657.668l.99-.338v.668h.333v-.668c.37-.283.046.04.332-.338l-.657.338v-1.344h.332v-1.343h1.647l-.332 1.006h.99c.525-.652 1.198-.896 1.647-1.674.34.29.456.581.657 1.006.332-.22.657-.448.99-.668v-.338h.657l.332-.668c.217.11.441.22.658.338.44-.338-.402-.566.332-.668v.338c.333.11.657.22.99.338v-.668c-.379-.385-.132 0-.333-.668.851.157 1.462.322 2.637.338.472-.715.866-.676 1.647-1.006l-.332-1.005h1.322v-.338h.332v.338h.658v-.668c1.871-.055 1.23-.519 2.312-1.006h1.322v-.338c.379-.385.132 0 .333-.668h.99v.668h.657c.27-1.076.386-.974 1.647-1.005v.667c.773-.361 1.075-.77 1.98-1.005v-1.006h.656v-.668c1.74.008 2.606-.393 3.96-.668.24.928.092.747.99 1.006a51.176 51.176 0 0 0-.333-1.006h.332c.364-.471 1.152-.982 1.647-1.343v-.338h.99v.338h.332v1.005h.333c.108-1.335.34-1.547 1.647-1.673v.338c.44.157-.124-.212.332-.338 1.323-.22 2.637-.448 3.96-.668-.333-1.045-.186-.51 0-1.674.804-.188.726-.345 1.322-.667v.338h.332c.263.495-.332.667-.332.667l.332.668c.758-.644.418-1.005 1.647-1.343.109-.338.217-.668.333-1.006.943.393 1.554.636 2.97.668.332-.668.657-1.344.989-2.011h.657l.333.667 2.312-.668v-.337h2.312l.332-.668h.658c.208-.92.433-.762.657-1.674.44.11.881.22 1.322.338v-.338c.363-.298.07.055.333-.338h-.333c-.325-.558.472-.283.657-.338V8.38c.333.11.658.22.99.337-.108.22-.216.448-.332.668h.332c1.036-1.21 1.941 0 3.302.338.224-.44.41-.361.657-.668l-.332-.668h.657V8.05l.657-.338c.046-.472-.07.055-.332-.338l.332-.668c1.114.236 1.268.73 2.312 1.006V6.706c.905.212.75.44 1.647.668V6.368c.364.11.65.597 1.323.338v-.338h.99V6.03c.657-.558 1.322-1.115 1.979-1.673v-.668h.657v.338c.456.094-.062-.07.332-.338l.658.338-.333 1.005c1.841.142 2.776.598 3.959-.667-.649-.377-.773-.472-.989-1.344l.989-.338c.109.22.217.448.333.668h.657V2.008c.719.141.943.22 1.322.667l1.98-.667-.333-.668h1.647V.672l.163.078Zm-3.294 5.029v.668h.332v-.668h-.332Zm293.952.668v.668h.332v-.668h-.332ZM108.724 7.453v.667h.333v-.667h-.333Zm-4.616.667v.668h.333V8.12h-.333Zm289.328 1.006c.379.385 0 .134.657.338-.378-.385.001-.134-.657-.338Zm-26.059.338c.379.385.001.133.658.338-.379-.385 0-.134-.658-.338ZM89.262 10.47c.03 1.139 0 1.217.657 1.673v-.338h-.333v-1.343h-.332l.008.008Zm273.167.337c.379.385 0 .134.657.338-.379-.385 0-.133-.657-.338Zm-35.964.33v.668h.332v-.668h-.332Zm23.097.338-.333.668s.959-.534.658-.668h-.333.008Zm33.977 0h.657c-.279.377.038.047-.333.338v.338c-.379-.385-.131 0-.332-.668l.008-.008Zm-291.973.338c.379.385 0 .134.657.338-.379-.385 0-.134-.657-.338Zm185.086.33v.668h.332v-.668h-.332ZM95.2 13.487v.338h-.332c-.626.29.657.337.657.337.278-.377-.039-.047.333-.337-.38-.385 0-.134-.658-.338Zm253.372 0v.338h-.333c-.626.29.658.337.658.337.278-.377-.039-.047.332-.337-.379-.385 0-.134-.657-.338Zm84.455 0v.338h-.333c-.626.29.657.337.657.337.279-.377-.038-.047.333-.337-.379-.385 0-.134-.657-.338Zm-221.042.338v.667h.332v-.667h-.332Zm-81.486.33v.667h.333v-.667h-.333Zm84.455 0v.667h.332v-.667h-.332Zm61.033 0c.557.722.657.667.657.667.24-.322-.572-.589-.657-.667Zm84.462 0c.557.722.658.667.658.667.239-.322-.573-.589-.658-.667Zm23.422 0v.667h.332v-.667h-.332Zm61.033 0c.557.722.657.667.657.667.24-.322-.572-.589-.657-.667Zm-362.246.675h-.657v.338h.332v.338h.333v-.668l-.008-.008Zm4.292 2.012h.657a85.712 85.712 0 0 0-.333-1.344h-.332v1.344h.008Zm253.371 0h.658l-.333-1.344h-.332v1.344h.007Zm84.455 0h.657l-.332-1.344h-.333v1.344h.008Zm-341.453-.676v1.343h.333v-1.343h-.333Zm84.455 0v1.343h.332v-1.343h-.332Zm168.917 0v1.343h.332v-1.343h-.332Zm48.823.676v1.005h.333c.332-.605.726-.998 1.322-1.343v-.338h-.658c-.371.573-.208.456-.989.668l-.008.008Zm35.632-.676v1.343h.332v-1.343h-.332Zm-189.038.338v.668h.333v-.668h-.333Zm84.455.668h.657v-.338c-.371-.283-.046.04-.332-.338h-.333v.668l.008.008Zm-184.421-.33v1.005h.333v-1.005h-.333Zm84.455 0v1.005h.333v-1.005h-.333Zm144.506 1.335c.239.927.092.747.989 1.006.209-.92.433-.762.657-1.674h-.332c-.418.637-.332.558-1.322.668h.008Zm2.969-.668v.668c.866-.023 1.121-.133 1.647-.337v-.338h-1.647v.008Zm-174.191.338v1.006h.333v-.338c.371-.283.046.04.332-.338l-.657-.337-.008.007Zm84.455 0v1.006h.332v-.338c.371-.283.047.04.333-.338l-.657-.337-.008.007Zm84.455 0v1.006h.332v-.338c.371-.283.046.04.332-.338l-.657-.337-.007.007Zm84.462 0v1.006h.332v-.338c.371-.283.047.04.333-.338l-.657-.337-.008.007Zm-211.477.33v.668h.332v-.668h-.332Zm153.081 0c.557.723.657.668.657.668.24-.322-.572-.59-.657-.668Zm-174.523.676v1.006h-.658v.667l.658-.337.332-1.006c.371-.283.047.04.333-.338h-.658l-.007.008Zm13.856 0v.668h.333v-.668h-.333Zm84.455 0v.668h.332v-.668h-.332Zm51.8.668h-.99v.668h.658c.309-.605.456-.527.657-1.344h-.333v.668l.008.008Zm32.655-.668v.668h.332v-.668h-.332ZM182.957 20.19v-.668c-.371.283-.047-.04-.333.338h-.332c.379.385 0 .133.657.338l.008-.008Zm83.465-.668v1.005h.332c.379-.384 0-.133.657-.337v-.668h-.989Zm46.843.668v-.668h-.99v.338h.333c.379.385 0 .133.657.338v-.008Zm38.601 0v-.668c-.371.283-.046-.04-.332.338h-.333c.379.385 0 .133.657.338l.008-.008Zm26.067-.668v.668c.371-.283.046.039.332-.338h.332c-.378-.385.001-.134-.657-.338l-.007.008Zm46.843.338v.667h.333v-.667h-.333Zm-218.397 1.335h.657c-.278-.377.038-.047-.333-.337v-.668h-.332v1.006h.008Zm-93.038-.668v.669h.332v-.669h-.332Zm84.462 0v1.006h.333v-1.006h-.333Zm168.91 0v.669h.332v-.669h-.332Zm64.334 0c.379.386.132 0 .333.669h-.333v-.669Zm20.128 0v.669h.332v-.669h-.332Zm-384.02.338v.668h.332v-.668h-.333Zm84.454 0v.668h.333v-.668h-.333Zm168.917 0v.668h.333v-.668h-.333Zm84.455 0v.668h.332v-.668h-.332Zm-232.912.33c.031.071.472 1.218.658 1.006v-.338h.332c-.286-.345-.572-.463-.99-.667Zm85.112 1.682h.658v-.668h-.658l.333-.668c-.333-.11-.657-.22-.99-.338v.338c.449.393.503.613.657 1.344v-.008Zm-87.091-1.344.332 1.006h.333c-.201-.801-.108-.62-.657-1.006h-.008Zm84.455 0c.108.338.216.668.332 1.006h.333c-.201-.801-.109-.62-.658-1.006h-.007Zm6.271 0h-.658c.279.377-.038.047.333.338v.338h.332v-.668l-.007-.008Zm130.316 1.344h.657v-.668h.333c-.109-.22-.217-.448-.333-.668-.371.283-.046-.04-.332.338h-.333v1.006l.008-.008ZM115.653 21.87c.379.385 0 .134.657.338-.379-.385 0-.134-.657-.338Zm56.084 0v1.006h.332V21.87h-.332Zm84.454 0v1.006h.333V21.87h-.333Zm6.272 0h-.658c.279.377-.038.047.333.338v.338h.332v-.668l-.007-.008Zm38.268 0v1.006h.332V21.87h-.332Zm84.462 0v1.006h.333V21.87h-.333Zm-333.875.33v.668h.333V22.2h-.333Zm15.504 0v.668h.332V22.2h-.332Zm84.462 0v.668h.333V22.2h-.333Zm22.1.676v-.668c-.371.283-.046-.04-.333.338h-.332c.379.385 0 .133.657.338l.008-.008Zm62.355-.676v.668h.333V22.2h-.333Zm25.401 0v2.012h.333V22.2h-.333Zm42.228 0v.668h.332V22.2h-.332Zm1.322 0v.668h.332V22.2h-.332Zm15.504 0v.668h.332V22.2h-.332Zm67.636 0v.668h.333V22.2h-.333Zm1.322 0v.668h.333V22.2h-.333Zm15.504 0v.668h.333V22.2h-.333Zm-346.077.338c.379.385 0 .134.657.338-.379-.385 0-.134-.657-.338Zm84.455 0c.379.385 0 .134.657.338-.379-.385 0-.134-.657-.338Zm253.371 0c.379.385.001.134.658.338-.379-.385 0-.134-.658-.338Zm-229.949.668.332 1.006h.333c-.202-.802-.109-.621-.658-1.006h-.007Zm84.462 0c.108.338.216.668.332 1.006h.333c-.201-.802-.108-.621-.657-1.006h-.008Zm21.442.338v.668h.333v-.668h-.333ZM63.853 25.217c-.24-.927-.093-.746-.99-1.005.108.447.216.895.332 1.343h.99v.338c.464.063-.124-.236.333-.338h1.322v-1.343c-.371-.283-.047.039-.333-.338h-.657v.338h.333c.108.605-.82.88-1.323 1.005h-.007Zm42.892-1.335-.333.667s.959-.534.658-.668h-.333.008Zm253.372 0-.333.667s.959-.534.657-.668h-.332.008ZM50.328 25.554h.658v-.338c-.371-.283-.047.04-.333-.338h-.332v.668l.007.008Zm11.545-.668v.668c.371-.283.047.04.333-.338h.332c-.379-.385 0-.133-.657-.338l-.008.008Zm72.91.668h.657v-.338c-.371-.283-.046.04-.332-.338h-.333v.668l.008.008Zm11.553-.668v.668c.371-.283.046.04.332-.338H147c-.378-.385.001-.133-.657-.338l-.007.008Zm84.454 0v.668c.371-.283.047.04.333-.338h.332c-.379-.385 0-.133-.657-.338l-.008.008Zm157.373.668h.657v-.338c-.371-.283-.047.04-.333-.338h-.332v.668l.008.008Zm11.544-.668v.668c.371-.283.047.04.333-.338h.332c-.379-.385 0-.133-.657-.338l-.008.008ZM56.6 26.9v-.668l-.99.338.332 1.343h-.332v.338c-.773.11-1.539.22-2.312.338v.668c.433.063 2.049.408 2.312.338l.332-.668.99.338c.108-.558.217-1.116.333-1.674h.332c.379-.385 0-.134.657-.338v.668h1.647v-.668h.657c-.216-.668-.44-1.343-.657-2.011h-.332l-.333 1.006c-.471.337-1.902.605-2.636.667V26.9Zm37.278-1.682v1.006h.332v-1.006h-.332Zm-44.207.676v.668h.333v-.668h-.333Zm51.468 0v.668h.332v-.668h-.332Zm32.987 0v.668h.332v-.668h-.332Zm84.455 0v.668h.332v-.668h-.332Zm97.986 0c.379.385 0 .133.657.338-.378-.385 0-.134-.657-.338Zm37.944 0v.668h.332v-.668h-.332Zm32.987 0v.668h.332v-.668h-.332Zm-299.89.33c.378.385.13 0 .331.668h-.332v-.668Zm84.129.338c.371.573.209.456.99.668-.287-.346-.573-.464-.99-.668Zm37.611.668h.657v-.338c-.371-.283-.046.04-.332-.338h-.333v.668l.008.008ZM86.95 26.9h.657v.337c-.665-.188-.286.04-.657-.337Zm92.048 0c.379.385.131 0 .332.668h-.332V26.9Zm88.746 1.335h-.657v-1.343h-.333v.338c-.379.385-.131 0-.332.668.332.22.657.447.989.667.279.378-.038.047.333.338v-.668Zm-91.716-1.005v.668h.333v-.668h-.333Zm-108.216.675v.668h.332v-.668h-.332Zm84.462 0v.668h.333v-.668h-.333Zm72.91.33c.379.385 0 .134.657.338-.379-.385 0-.133-.657-.338ZM108.06 29.24v-.668c-.372.283-.047-.04-.333.338h-.333c.379.385.001.134.658.338l.008-.008Zm168.917 0v-.668c-.372.283-.047-.04-.333.338h-.332c.378.385 0 .134.657.338l.008-.008Zm-198.278.676v.668h.333v-.668h-.333Zm6.604 0v.668h.332v-.668h-.332Zm-24.744.33v.668h.332v-.668h-.332Zm26.39.676c-.015 1.359-.154 1.445.658 2.01v-.337c-.557-.723.255-1.618.657-2.35h-.332c-.371.574-.209.456-.99.669l.008.008Zm5.94-.676c.378.385 0 .133.657.338-.38-.385 0-.134-.658-.338Zm17.15 0a49.05 49.05 0 0 1-.333 1.005h.333v-.337c.139-.197.541-.048.333-.668h-.333Zm34.974 0v.668h.333v-.668h-.333Zm110.854.676c-.016 1.359-.155 1.445.657 2.01v-.337c-.557-.723.255-1.618.657-2.35h-.332c-.371.574-.209.456-.99.669l.008.008Zm5.938-.676c.379.385 0 .133.658.338-.379-.385 0-.134-.658-.338Zm-147.474.338v.667h.332v-.667h-.332Zm36.953.667h.658v-.337c-.372-.283-.047.039-.333-.338h-.332v.668l.007.007Zm47.509-.667v.667h.333v-.667h-.333Zm29.36 0c.379.385.132 0 .333.667h-.333v-.667Zm-72.585.338c-.108.22-.216.447-.332.667l.657.338c.24-.4-.696-.29 0-1.005h-.333.008Zm-40.58.33-.333 1.005h.333v-.668h.332v-.338h-.332Zm84.462 0-.332.667s.959-.534.657-.668h-.332.007ZM26.242 32.594h.657v-.338c-.371-.283-.047.04-.333-.338h-.332v.668l.008.008Zm185.743 0h-.657c.278.377-.039.047.332.338v.338h.332v-.668l-.007-.008Zm-174.524.668v.668h.333v-.668h-.332Zm47.51 0v1.343h.332v-.337h.332c-.108-.22-.216-.448-.332-.668h.332c-.379-.385 0-.134-.657-.338h-.008Zm121.408 0v.668h.332v-.668h-.332Zm49.812 0c-.378.385.001.133-.657.338v.338h.657c.109-.22.217-.448.333-.668h-.333v-.008Zm-153.738 1.006-.332.667s.959-.534.657-.667h-.332.007Zm-12.534.675v.668h.332v-.668h-.332Zm7.26 0v.668h.333v-.668h-.332Zm-15.51.668h.657c-.271.44-.232.393-.658.668v.338h-.332l.332-1.006Zm11.552 0-.333.668s.96-.534.658-.668h-.333.008Zm-25.41 1.344v.667h.333v-.667h-.332Zm-25.4 1.673v.668h.332v-.668h-.333Zm7.26.338v1.006h1.322v.668h.99c.27-.44.232-.393.657-.668v-1.006c-1.376.244-1.384.087-2.969 0Zm-26.723.668c.378.385 0 .133.657.338-.379-.385 0-.134-.657-.338Zm68.293.338v.668h.333v-.668h-.333ZM9.416 45.33a50.89 50.89 0 0 1-.333 1.006h.333v-.668h.332v-.338h-.332Zm42.56.338v.668h.332v-.668h-.333Z" fill="#FDE6AD"/></svg>