<svg width="282" height="196" viewBox="0 0 282 196" fill="none" xmlns="http://www.w3.org/2000/svg">
<path d="M101.946 60.0986C135.393 66.4803 190.879 42.1201 231.865 55.6713C266.07 66.9789 277.548 82.275 280.809 109.966C282.803 126.867 273.41 160.67 247.232 173.922C208.45 193.556 179.152 180.155 155.198 187.234C111.021 200.297 55.037 197.325 23.6842 175.119C-12.7145 149.343 -1.31622 97.6211 19.6455 78.3663C37.3762 62.0829 64.8497 53.0189 101.937 60.0886L101.946 60.0986Z" fill="#E4E4E4"/>
<path d="M49.3944 102.616C54.3606 99.8841 60.8027 98.6278 63.1661 102.497C65.6492 106.565 63.0364 109.895 62.9965 111.591C62.9367 114.243 61.1317 117.554 60.1245 120.625C59.576 122.29 58.519 125.86 59.4165 127.316C59.5063 127.455 59.5063 127.984 58.9179 128.083C58.3395 128.183 52.2465 127.445 52.5656 126.488C52.6952 126.099 52.5656 125.581 52.4858 125.142C52.1567 123.526 51.0398 121.113 51.8277 117.524C52.6254 113.934 50.0924 115.819 48.4869 116.108C46.0337 116.546 46.1534 112.867 45.9041 110.045C45.5651 106.246 46.3329 104.301 49.4043 102.616H49.3944Z" fill="#FFDBB0"/>
<path d="M58.9878 123.417C56.8438 123.247 53.5131 123.018 52.2566 122.649C51.0001 122.28 51.7878 123.746 52.2166 124.932C52.5457 125.87 52.3562 126.129 51.9573 127.166C51.5584 128.213 53.6427 128.881 56.1158 129.479C58.5889 130.078 61.1418 129.449 60.4937 128.612C59.8355 127.774 59.3867 127.305 59.297 125.82C59.2072 124.284 60.1845 123.516 58.9978 123.417H58.9878Z" fill="#A2A2A2"/>
<path d="M59.6648 127.306C61.0609 128.981 61.9883 128.433 62.7462 130.247C64.2819 133.957 61.011 135.472 57.431 134.745C54.9279 134.236 49.154 131.633 50.8293 129.061C51.5274 127.984 52.0659 126.089 52.3949 126.369C53.6814 127.306 55.965 128.263 57.5307 128.153C58.7672 128.074 59.4254 126.947 59.6648 127.296V127.306Z" fill="#003F67"/>
<path d="M52.9747 110.553C53.8223 106.545 53.5032 104.59 51.6783 103.214C51.08 102.766 49.6439 97.4508 49.4046 96.5933C47.3104 94.4694 24.7831 94.928 23.4967 97.5804C20.874 101.948 18.8097 104.64 19.5976 110.533C20.4651 116.945 25.8701 119.817 28.8518 120.136C38.4451 121.153 43.0523 118.231 45.1265 116.656C47.8489 114.582 52.2068 114.203 52.9747 110.553Z" fill="#A2A2A2"/>
<path d="M65.1085 86.3128C66.5545 87.3897 72.2985 92.7045 73.1063 92.6846C73.914 92.6646 76.9456 92.6546 77.9627 93.213C79.7478 94.1802 77.4143 95.2671 77.8231 96.0948C78.222 96.9224 79.8974 98.2685 80.2663 99.2059C80.6353 100.143 79.3589 100.313 78.611 100.811C77.863 101.3 79.4187 102.576 78.5611 103.035C77.9728 103.344 76.4769 102.806 76.0979 103.753C75.719 104.7 75.3899 104.8 74.4326 104.371C73.4752 103.942 73.1362 103.364 72.2686 103.563C71.3911 103.763 71.2315 103.523 70.713 102.885C70.1944 102.247 69.8055 100.073 69.3368 98.2287C68.8681 96.3939 64.1113 96.5634 59.7833 92.4253C58.2476 90.9495 63.0043 84.7473 65.1085 86.3128Z" fill="#FFDBB0"/>
<path d="M52.4849 102.865C53.4522 100.143 52.2555 98.9066 52.8838 97.4607C53.7713 95.4365 53.9707 88.1275 57.5508 92.0064C59.256 93.8511 62.3175 91.2286 63.1452 90.5007C67.9817 86.2628 65.1795 84.8768 63.5042 82.703C62.2078 81.0178 60.4826 79.4523 58.9968 76.4808C58.6278 75.743 57.0023 74.4666 54.7486 73.1903C53.9209 72.7316 48.7154 71.2358 46.5314 70.0293C44.4074 68.8626 41.2362 69.1718 37.2273 71.4852C33.8966 73.4096 30.6456 77.6774 29.7182 79.8212C27.7935 84.2785 28.1127 86.6916 25.4002 90.9194C23.7448 93.512 21.0523 95.965 20.075 99.0162C18.7387 103.184 37.1775 104.76 40.0993 102.476C42.8616 100.313 51.8865 104.8 52.4948 102.855L52.4849 102.865Z" fill="#EE8084"/>
<path d="M58.4967 95.8055C57.9881 96.324 57.2002 96.3838 56.7614 95.9451L55.834 95.0277C55.3952 94.5889 55.4551 93.8112 55.9637 93.2927L64.3304 84.8868C64.839 84.3683 65.6268 84.3084 66.0656 84.7472L66.993 85.6645C67.4318 86.1033 67.3719 86.8811 66.8633 87.3996L58.4967 95.8055Z" fill="#A2A2A2"/>
<path d="M74.7517 81.3468C73.7046 85.1061 68.6387 92.8139 65.8365 90.0319L61.698 85.9137C58.9057 83.1317 66.5843 78.0263 70.3439 76.9594L73.6248 76.0221C74.0536 75.9024 74.5622 76.072 74.8613 76.3711L75.3101 76.8198C75.6093 77.1189 75.7888 77.6275 75.6691 78.0563L74.7517 81.3369V81.3468Z" fill="#A2A2A2"/>
<path d="M57.8983 95.8256L55.9537 93.8912C55.4352 93.3826 54.5975 93.3826 54.0889 93.8912L52.6529 95.337C52.1443 95.8556 52.1443 96.6931 52.6529 97.2017L54.5975 99.1362C55.1161 99.6447 55.9537 99.6447 56.4623 99.1362L57.8983 97.6903C58.4069 97.1718 58.4069 96.3342 57.8983 95.8256ZM56.0036 98.1091C55.6945 98.4182 55.1759 98.4282 54.8668 98.1091L53.6801 96.9225C53.371 96.6134 53.361 96.0949 53.6801 95.7858L54.5577 94.9083C54.8668 94.5992 55.3853 94.5892 55.6945 94.9083L56.8812 96.0949C57.1903 96.404 57.2003 96.9225 56.8812 97.2316L56.0036 98.1091Z" fill="#A2A2A2"/>
<path d="M66.3143 86.9609C67.1519 86.1233 67.481 85.0962 67.0522 84.6774C66.6234 84.2586 65.6063 84.5876 64.7686 85.4352C64.629 85.5748 64.5093 85.7144 64.3996 85.864L63.0234 87.25L64.4993 88.7258L65.8755 87.3398C66.0151 87.2301 66.1647 87.1105 66.3043 86.9709L66.3143 86.9609Z" fill="#E4E4E4"/>
<path d="M45.0071 69.8504C46.7323 73.2906 49.7041 75.1951 52.3168 75.4345C54.9295 75.6738 57.4525 75.1154 59.8259 73.9288C61.7505 72.6424 63.2962 70.5584 63.6752 69.6311C64.0242 68.7835 64.1838 67.7465 64.1539 66.7493C64.0741 64.406 65.7694 64.6055 64.463 59.7693C64.0641 58.3035 61.4115 51.4831 54.401 50.456C48.2281 49.5586 41.3972 62.6411 45.0071 69.8504Z" fill="#FFDBB0"/>
<path d="M66.5268 57.8147C66.447 56.7876 65.1207 54.2449 63.0465 53.158C60.4736 51.8219 60.6631 49.9073 57.801 49.0897C53.8221 47.943 49.7833 48.5114 48.2974 49.2193C45.1163 50.725 44.5279 52.5597 43.2615 54.0056C40.9678 56.6281 31.8532 61.4942 41.8055 70.5083C42.7329 71.3459 44.2786 71.0767 45.4952 68.9927C46.7418 66.4001 45.1562 65.9813 44.5578 64.6252C43.9495 63.2392 45.3357 60.9557 46.7617 62.2021C47.9484 63.2292 48.5468 62.5611 50.3817 59.9984C52.6254 56.8674 65.3999 67.2875 66.5168 57.8147H66.5268Z" fill="#003F67"/>
<path d="M53.1534 58.9517C54.0409 59.1811 54.6691 59.7195 54.0808 60.2779C53.4924 60.8463 52.4254 61.8036 52.0365 62.013C51.6475 62.2323 51.1589 62.4916 51.0293 61.2352C50.8996 59.9788 50.8298 59.8691 50.5905 59.2608C50.3511 58.6526 50.2913 58.7423 49.1744 58.6426C48.0575 58.5529 47.16 58.5329 47.0005 58.0244C46.8509 57.5059 47.1999 56.9873 48.0376 56.1996C48.8753 55.4119 49.4836 54.4546 49.7728 55.1925C50.062 55.9304 50.2814 56.8278 50.3312 57.2665C50.3811 57.7053 50.6403 58.2238 51.2786 58.4332C51.9168 58.6426 52.5251 58.862 53.1434 58.9417L53.1534 58.9517Z" fill="#EE8084"/>
<path d="M51.6571 57.8943C51.7469 58.1835 51.8466 58.6222 51.2882 59.0809C50.7198 59.5595 50.3109 59.749 50.0716 59.6293C49.6129 59.4 49.6228 59.2804 49.6827 58.7818C49.7425 58.2832 50.0317 58.024 50.6201 57.7248C51.2084 57.4356 51.4178 57.5852 51.6571 57.8843V57.8943Z" fill="#EE8084"/>
<path d="M46.5195 81.9752C48.125 82.7829 54.7266 87.0008 55.5144 86.8412C56.3023 86.6817 59.284 86.1432 60.3909 86.5022C62.3255 87.1404 60.2114 88.6161 60.7599 89.364C61.2984 90.1019 63.1831 91.1389 63.7117 91.9965C64.2502 92.854 63.0136 93.2529 62.3654 93.8711C61.7172 94.4893 63.4723 95.4665 62.7045 96.0648C62.1759 96.4736 60.6103 96.2044 60.4109 97.2015C60.2014 98.1986 59.9022 98.3582 58.8751 98.1089C57.848 97.8597 57.4291 97.3412 56.6014 97.6902C55.7738 98.0392 55.5743 97.8397 54.956 97.3013C54.3278 96.7628 53.5699 94.6887 52.7821 92.9637C51.9942 91.2386 47.3472 92.2457 42.361 88.9352C40.586 87.7586 44.186 80.8085 46.5295 81.9852L46.5195 81.9752Z" fill="#FFDBB0"/>
<path d="M39.739 102.307C44.9345 100.044 51.4663 99.3758 53.4608 103.444C55.5649 107.722 52.653 110.803 52.4636 112.488C52.1544 115.121 50.0603 118.262 48.7739 121.213C48.0758 122.829 46.6996 126.279 47.4575 127.814C47.5273 127.964 47.4874 128.492 46.8891 128.532C46.3007 128.582 40.3074 127.286 40.7063 126.368C40.8658 125.99 40.796 125.471 40.7462 125.022C40.5667 123.377 39.6692 120.874 40.7961 117.374C41.913 113.874 39.2204 115.52 37.595 115.659C35.1119 115.869 35.5706 112.219 35.5805 109.387C35.5905 105.578 36.5279 103.703 39.739 102.307Z" fill="#FFDBB0"/>
<path d="M47.3874 123.895C45.2732 123.526 41.9724 122.998 40.7558 122.509C39.5392 122.02 40.1874 123.556 40.5065 124.783C40.7558 125.75 40.5364 125.979 40.0478 126.986C39.5492 127.983 41.5735 128.841 43.9768 129.669C46.3801 130.496 48.9929 130.097 48.4145 129.2C47.8361 128.302 47.4272 127.794 47.4771 126.308C47.5269 124.773 48.5741 124.095 47.3973 123.895H47.3874Z" fill="#A2A2A2"/>
<path d="M47.7074 127.834C48.9439 129.629 49.9212 129.17 50.4996 131.045C51.6863 134.884 48.2857 136.09 44.7954 135.043C42.3522 134.305 36.8375 131.194 38.7422 128.781C39.54 127.774 40.2381 125.929 40.5473 126.249C41.744 127.305 43.9278 128.462 45.4935 128.502C46.73 128.532 47.488 127.475 47.6974 127.844L47.7074 127.834Z" fill="#003F67"/>
<path d="M170.694 121.084C170.145 120.675 169.766 120.216 169.637 119.488C169.327 117.873 169.407 115.121 167.463 112.309C165.518 109.497 165.837 109.886 164.002 107.443C162.167 105 161.709 103.295 161.42 100.453C161.13 97.601 160.073 95.0782 157.83 92.8147C155.586 90.5512 153.771 90.7506 150.47 91.5284C147.169 92.3061 148.176 95.2577 148.854 99.1465C149.233 101.659 149.622 103.833 151.756 105.967C153.89 108.101 155.556 110.803 156.194 112.299C157.191 114.642 160.402 118.631 161.539 119.708C162.776 120.864 164.85 123.158 164.391 125.092C164.301 125.451 164.202 125.72 164.092 125.93C167.094 126.189 169.686 124.025 170.694 121.104V121.084Z" fill="#FFDBB0"/>
<path d="M170.695 121.083C169.678 124.015 167.095 126.169 164.093 125.909C163.605 126.837 162.946 126.767 162.857 129.35C162.717 133.498 166.177 133.149 168.92 130.656C170.834 128.911 174.744 123.616 172.42 122.16C171.752 121.741 171.173 121.432 170.705 121.073L170.695 121.083Z" fill="#003F67"/>
<path d="M134.226 125.122C132.751 126.219 132.461 124.873 130.517 127.226C127.964 130.337 130.936 132.72 134.575 132.89C137.128 133.01 143.361 131.893 142.364 128.981C141.945 127.764 141.546 126.837 141.496 125.99C138.864 127.057 136.54 126.458 134.217 125.122H134.226Z" fill="#003F67"/>
<path d="M148.015 95.0181C147.557 91.5381 138.362 93.2233 136.617 99.7745C135.759 102.985 135.271 106.475 134.902 108.131C134.313 110.723 135.171 115.3 135.41 118.521C135.54 120.276 135.779 123.945 134.264 125.092C134.254 125.092 134.244 125.112 134.224 125.122C136.547 126.458 138.861 127.056 141.503 125.989C141.483 125.581 141.543 125.182 141.733 124.773C142.441 123.277 144.126 121.213 144.226 117.534C144.326 113.854 144.355 114.413 144.336 111.102C144.316 107.802 144.944 106.126 146.39 103.693C147.836 101.26 148.484 98.4882 148.025 95.0082L148.015 95.0181Z" fill="#FFDBB0"/>
<path d="M136.52 69.5115C138.624 68.3848 146.144 69.2522 150.551 69.1625C154.829 69.0727 156.904 69.9702 161.64 69.2821C165.35 68.7437 163.974 72.8021 167.374 81.5769C169.628 87.3703 176.1 95.8361 173.757 97.5312C171.413 99.2263 165.819 101.261 162.857 100.144C159.895 99.0269 158.948 98.6979 155.238 100.114C152.007 101.35 146.901 99.3161 142.813 98.5682C139.402 97.95 137.198 98.0198 134.446 98.4187C129.171 99.1964 125.411 97.1324 124.613 96.3546C123.447 95.2278 123.925 90.272 128.911 84.3191C133.898 78.3661 133.838 71.8947 136.52 69.5015V69.5115Z" fill="#A2A2A2"/>
<path d="M137.178 30.7228C136.43 29.0875 129.37 20.9409 129.42 20.1431C129.47 19.3355 129.569 16.3141 129.051 15.2671C128.143 13.4423 126.986 15.7457 126.169 15.3169C125.351 14.8882 124.064 13.1731 123.137 12.7742C122.21 12.3654 122 13.6417 121.482 14.3796C120.963 15.1175 119.747 13.5122 119.258 14.3597C118.929 14.9381 119.427 16.4438 118.46 16.7928C117.503 17.1418 117.383 17.4608 117.782 18.438C118.181 19.4152 118.749 19.7642 118.52 20.6317C118.291 21.4992 118.52 21.6688 119.138 22.2072C119.757 22.7457 121.921 23.2043 123.745 23.7328C125.57 24.2613 127.266 30.9023 130.945 35.6387C132.152 37.1843 138.704 34.1231 137.158 30.7328L137.178 30.7228Z" fill="#FFDBB0"/>
<path d="M167.762 33.285C169.128 32.1184 179.399 27.1526 179.689 26.4047C179.988 25.6569 181.165 22.8649 182.082 22.137C183.678 20.8706 183.757 23.4433 184.675 23.3934C185.592 23.3436 187.487 22.3364 188.494 22.3663C189.501 22.3863 189.162 23.6327 189.322 24.5202C189.481 25.4076 191.266 24.4703 191.346 25.4375C191.406 26.1056 190.319 27.2623 191.037 27.9802C191.765 28.6982 191.725 29.0472 190.957 29.7552C190.189 30.4731 189.521 30.5429 189.362 31.4304C189.202 32.3079 188.923 32.3677 188.135 32.597C187.347 32.8264 185.193 32.3278 183.319 32.0386C181.444 31.7494 175.48 38.0913 170.145 40.8234C168.4 41.7209 164.94 35.6981 167.762 33.285Z" fill="#FFDBB0"/>
<path d="M163.435 51.3728C162.826 48.3913 167.643 45.8785 173.716 41.5409C176.399 39.6264 174.843 37.3529 173.457 35.6279C170.266 31.6393 169.976 30.1137 167.454 31.8986C165.688 33.145 163.834 33.853 160.174 34.6208C156.135 35.4684 154.839 34.9798 150.491 34.6208C148.417 34.4513 141.944 34.2219 138.713 30.2932C136.879 28.0596 137.168 27.2718 133.608 29.2063C129.948 31.1906 127.604 32.6066 127.525 33.2348C127.305 34.9399 128.771 36.2361 131.055 39.4968C134.695 44.6919 135.841 45.7189 135.532 48.6605C135.343 50.4554 135.084 53.5764 133.548 60.3769C131.982 67.317 132.471 70.2686 135.532 70.9965C141.945 72.5022 164.153 72.3826 165.668 70.4481C168.959 66.998 164.272 55.5109 163.435 51.3828V51.3728Z" fill="#EE8084"/>
<path d="M157.531 32.9759C155.048 35.6482 151.837 36.5756 149.393 36.1069C146.95 35.6283 144.806 34.4516 142.971 32.7366C141.565 31.0614 140.718 28.748 140.618 27.8007C140.528 26.9332 140.658 25.956 140.957 25.0486C141.655 22.9446 140.059 22.6654 142.532 18.617C143.28 17.3905 147.509 11.8963 154.16 12.8436C160.004 13.6712 162.726 27.3819 157.531 32.9659V32.9759Z" fill="#FFDBB0"/>
<path d="M141.176 16.3032C141.525 15.3858 143.399 13.4314 145.583 13.0027C148.276 12.4742 148.615 10.6893 151.427 10.6993C155.346 10.7192 158.866 12.3147 160.033 13.3517C162.526 15.5653 162.566 17.3901 163.334 19.0453C164.72 22.0368 164.042 28.1193 158.986 32.4469C158.089 33.2147 157.869 34.2817 157.321 32.068C156.882 29.3757 158.438 29.4156 159.335 28.3487C160.263 27.2518 159.604 24.8088 157.979 25.5567C156.633 26.1749 149.802 20.3715 148.645 18.7462C147.109 16.5824 139.69 25.2077 141.196 16.3032H141.176Z" fill="#003F67"/>
<path d="M122.008 20.741C121.5 21.2595 120.712 21.3194 120.273 20.8806L119.346 19.9633C118.907 19.5245 118.967 18.7468 119.475 18.2282L127.842 9.82228C128.351 9.30377 129.139 9.24399 129.577 9.68273L130.505 10.6001C130.943 11.0388 130.884 11.8166 130.375 12.3351L122.008 20.741Z" fill="#F8CED2"/>
<path d="M138.254 6.28234C137.207 10.0416 132.141 17.7495 129.338 14.9675L125.2 10.8493C122.408 8.06724 130.086 2.96189 133.846 1.89495L137.127 0.957633C137.556 0.837976 138.064 1.00747 138.363 1.30661L138.812 1.75533C139.111 2.05448 139.291 2.56301 139.171 2.99178L138.254 6.27236V6.28234Z" fill="#F8CED2"/>
<path d="M121.411 20.7612L119.466 18.8267C118.948 18.3182 118.11 18.3182 117.602 18.8267L116.166 20.2726C115.657 20.7911 115.657 21.6287 116.166 22.1372L118.11 24.0717C118.629 24.5802 119.466 24.5802 119.975 24.0717L121.411 22.6258C121.92 22.1073 121.92 21.2697 121.411 20.7612ZM119.516 23.0446C119.207 23.3537 118.689 23.3637 118.379 23.0446L117.193 21.858C116.884 21.5489 116.874 21.0304 117.193 20.7213L118.07 19.8438C118.379 19.5347 118.898 19.5247 119.207 19.8438L120.394 21.0304C120.703 21.3395 120.713 21.858 120.394 22.1671L119.516 23.0446Z" fill="#F8CED2"/>
<path d="M129.817 11.8964C130.655 11.0588 130.984 10.0317 130.555 9.61292C130.126 9.19412 129.109 9.52319 128.272 10.3708C128.132 10.5104 128.012 10.65 127.903 10.7995L126.526 12.1856L128.002 13.6613L129.378 12.2753C129.518 12.1656 129.668 12.0459 129.807 11.9063L129.817 11.8964Z" fill="#E4E4E4"/>
<path d="M161.46 17.72C161.959 16.9024 162.667 15.2072 163.355 14.5292C164.043 13.8511 164.781 13.1032 165.818 12.9038C167.434 12.5947 168.271 12.6944 169.099 13.2029C169.837 13.6616 170.894 15.7656 170.874 17.2314C171.073 19.1459 172.37 19.7442 173.237 20.1431C174.474 20.7114 176.638 20.3724 176.379 21.2897C175.631 23.9521 174.145 24.351 172.569 24.0917C167.513 23.2541 170.335 18.5975 167.244 17.9294C164.153 17.2613 163.903 17.7001 161.45 17.72H161.46Z" fill="#003F67"/>
<path d="M71.0226 128.502C73.4758 117.414 76.8065 111.81 84.6148 105.698C90.3388 101.21 92.6325 96.853 101.687 98.229C114.841 100.233 117.812 107.074 122.36 115.649C126.907 124.225 124.923 131.863 126.458 135.472C127.994 139.082 126.668 142.781 113.584 143.23C100.501 143.679 80.2769 140.338 72.8874 141.286C65.498 142.233 69.1079 137.118 71.0126 128.502H71.0226Z" fill="#EE8084"/>
<path d="M84.9842 139.87C86.4102 134.944 88.5542 129.34 92.942 128.672C96.7315 128.094 100.331 129.38 101.468 133C102.605 136.629 104.39 142.582 102.795 142.951C101.438 143.26 99.5636 142.771 96.9509 142.762C94.3381 142.752 87.4772 141.774 86.3004 141.834C84.8345 141.914 84.5254 141.395 84.9742 139.86L84.9842 139.87Z" fill="#003F67"/>
<path d="M187.02 84.1393C188.776 82.6535 178.385 82.6834 179.013 85.6748C179.322 87.1406 181.247 87.8686 183.321 86.7817C184.577 86.1236 185.654 85.2959 187.02 84.1393Z" fill="#A2A2A2"/>
<path d="M189.034 80.7787C191.338 80.7388 183.26 74.1876 181.864 76.8998C181.176 78.226 182.203 80.0109 184.497 80.4796C185.883 80.7588 187.239 80.8086 189.034 80.7687V80.7787Z" fill="#A2A2A2"/>
<path d="M219.6 131.942C221.644 132.72 224.376 133.877 225.693 134.076C227.009 134.285 226.481 134.285 225.344 135.931C225.025 136.399 224.526 137.337 224.436 138.473C224.347 139.61 222.133 139.311 219.6 138.792C217.057 138.274 214.973 136.569 215.95 136.08C216.917 135.592 217.545 135.362 218.273 134.026C219.031 132.65 218.463 131.513 219.6 131.952V131.942Z" fill="#A2A2A2"/>
<path d="M224.686 137.925C224.706 137.496 220.538 139.471 217.466 137.746C215.871 136.848 216.329 135.841 216.1 135.901C215.063 136.18 214.475 136.18 212.819 137.506C209.508 140.139 212.171 142.612 215.911 143.011C218.533 143.29 225.225 142.692 224.756 139.939C224.626 139.152 224.666 138.514 224.686 137.925Z" fill="#003F67"/>
<path d="M224.186 85.4559C227.467 84.4488 232.683 86.0043 236.991 86.6225C241.149 87.2108 241.418 88.4473 240.98 92.4459C240.341 98.3091 241.458 103.484 237.539 108.251C235.644 110.564 232.912 110.853 230.778 119.728C230.01 122.928 229.402 136.928 225.702 136.2C222.611 135.592 219.759 135.672 217.106 135.423C214.783 135.203 217.645 122.609 217.834 119.04C218.183 112.598 219.43 105.508 219.988 100.303C221.015 90.8803 221.015 86.4231 224.186 85.4559Z" fill="#E2C2BC"/>
<path d="M218.212 61.1747C216.417 61.5835 209.556 65.7915 208.758 65.5821C207.96 65.3727 206.255 65.1633 204.809 65.9709C203.383 66.7687 203.862 67.716 202.974 68.5137C201.907 69.471 201.289 71.5251 201.917 72.1932C202.545 72.8612 201.488 73.5194 202.236 74.1775C202.745 74.6262 203.413 74.2174 203.563 75.2544C203.712 76.2815 204.291 76.8698 205.348 76.6703C206.405 76.4709 206.185 76.1618 207.003 76.5607C207.821 76.9595 208.04 76.77 208.708 76.2615C209.376 75.7529 210.274 73.6888 211.181 71.9738C212.089 70.2686 217.813 71.8342 222.62 68.075C225.551 65.7815 221.922 60.3272 218.212 61.1648V61.1747Z" fill="#FFDBB0"/>
<path d="M235.523 64.6948C233.748 67.6164 230.587 67.8358 226.159 69.1121C221.731 70.3884 221.083 70.6676 220.076 68.4241C218.799 65.5722 218.44 63.0495 217.902 61.3144C216.955 58.2732 218.889 57.6849 221.103 57.0866C224.853 56.0595 224.783 54.0652 225.8 52.9085C228.901 49.3787 236.68 62.8102 235.533 64.6948H235.523Z" fill="#A2A2A2"/>
<path d="M243.87 132.082C245.954 131.394 248.786 130.566 249.943 129.888C251.09 129.21 250.691 129.549 250.841 131.543C250.891 132.111 251.09 133.148 251.748 134.086C252.396 135.023 250.492 136.19 248.198 137.386C245.904 138.583 243.212 138.583 243.651 137.586C244.089 136.599 244.428 136.02 244.159 134.524C243.88 132.979 242.713 132.46 243.87 132.072V132.082Z" fill="#A2A2A2"/>
<path d="M251.599 133.508C251.34 133.169 249.365 137.327 245.885 137.935C244.09 138.244 243.8 137.177 243.661 137.367C243.033 138.234 242.584 138.613 242.135 140.687C241.238 144.816 244.857 145.055 248.009 143.001C250.223 141.565 255.019 136.868 252.925 135.034C252.327 134.505 251.958 133.987 251.599 133.508Z" fill="#003F67"/>
<path d="M225.423 88.2869C228.145 85.8339 234.019 84.7271 238.546 83.2114C242.914 81.7556 243.781 82.7129 245.297 86.4522C247.531 91.9464 251.161 95.9848 249.645 102.067C248.917 105.019 246.384 106.574 248.618 115.439C249.426 118.64 255.668 131.304 251.679 132.42C248.349 133.358 245.596 134.794 242.874 135.831C240.481 136.748 237.14 124.254 235.584 120.993C232.782 115.13 230.538 108.27 228.554 103.394C224.954 94.5689 222.79 90.6302 225.423 88.267V88.2869Z" fill="#E2C2BC"/>
<path d="M253.445 70.967C253.316 61.3446 249.277 56.2392 243.224 51.5527C240.432 49.3988 234.089 48.4216 231.576 48.6211C229.293 48.8105 226.65 51.1139 225.174 53.8261C224.257 55.5113 221.654 61.9828 221.235 64.3859C220.726 67.2576 218.682 83.88 217.485 90.7703C215.95 99.6448 217.286 99.6648 226.979 99.6648C234.658 99.6648 255.849 103.314 253.435 95.8457C251.96 91.2888 253.475 73.8388 253.435 70.977L253.445 70.967Z" fill="#A2A2A2"/>
<path d="M242.094 46.1882C239.801 49.1597 236.6 50.436 234.057 50.2167C231.514 49.9873 229.21 49.0101 227.156 47.4745C225.56 45.919 224.463 43.6655 224.274 42.7182C224.104 41.8507 224.144 40.8436 224.364 39.8963C224.872 37.6826 223.217 37.5729 225.371 33.2054C226.019 31.8792 229.838 25.8665 236.739 26.1357C242.802 26.3651 246.891 39.986 242.094 46.1982V46.1882Z" fill="#FFDBB0"/>
<path d="M227.036 32.6668C225.112 33.1055 225.321 34.6311 224.663 33.3847C223.127 30.4431 228.103 25.0187 229.998 24.8891C231.673 24.7794 233.05 20.9404 240.459 22.9446C242.294 23.4432 245.465 24.1811 247.21 26.8734C250.152 31.4203 252.176 34.3918 249.953 40.265C248.906 43.0271 246.452 45.6197 241.706 47.4544C238.674 48.6211 239.113 50.017 237.368 49.9273C236.919 49.9074 236.141 49.1096 235.792 48.1623C235.393 47.0854 235.662 44.7222 236.32 44.3632C238.425 43.7749 238.734 41.9302 238.285 41.292C237.776 40.5641 236.35 40.9729 235.563 41.5613C231.604 44.4829 233.508 36.2764 231.215 35.6981C226.408 34.4915 228.073 32.2679 227.036 32.6767V32.6668Z" fill="#003F67"/>
<path d="M215.809 91.6277C215.71 91.6277 215.61 91.6078 215.52 91.5779C215.091 91.4183 214.882 90.9397 215.042 90.5109C215.62 89.0052 215.979 87.1505 216.208 84.5081C216.418 82.1548 215.68 77.548 212.818 75.2147C210.225 73.1008 205.857 71.4655 202.108 73.8188C199.226 75.6336 195.825 80.6791 195.127 84.199C195.037 84.6477 194.608 84.9369 194.16 84.8471C193.711 84.7574 193.422 84.3286 193.511 83.8799C194.229 80.3101 197.57 74.7261 201.23 72.4227C205.727 69.6008 210.843 71.4755 213.855 73.9284C217.245 76.6905 218.103 81.8457 217.854 84.6477C217.604 87.4497 217.216 89.4339 216.587 91.0892C216.458 91.4183 216.148 91.6177 215.819 91.6177L215.809 91.6277Z" fill="#E2C2BC"/>
<path d="M196.303 83.8501C199.225 83.7304 209.297 86.2133 213.296 86.6221C216.796 86.9811 217.514 87.1406 216.647 90.162C215.35 94.689 213.944 105.009 211.172 106.954C208.41 108.898 205.099 109.507 200.492 108.22C196.423 107.084 193.751 105.568 193.661 99.9839C193.571 94.3999 193.262 88.9654 193.511 84.7774C193.611 83.1621 194.209 83.9398 196.293 83.8501H196.303Z" fill="#E2C2BC"/>
<path d="M193.742 85.296C193.094 83.4314 194.55 81.8559 197.721 81.7761C200.244 81.7163 205.071 82.1351 208.451 82.9029C212.43 83.8004 216.259 86.004 216.808 87.1508C217.297 88.1778 217.047 89.504 215.581 89.9826C213.906 90.531 208.242 90.6707 202.428 89.0852C198.748 88.0881 194.141 86.4228 193.742 85.296Z" fill="#A2A2A2"/>
<path d="M215.5 88.2975C215.42 88.2975 215.33 88.2676 215.271 88.1978C214.582 87.4599 212.229 86.3631 209.367 86.3631H209.257C206.455 86.3631 205.637 86.2434 202.137 84.8574C198.836 83.5611 197.59 84.0298 195.924 84.9771C195.775 85.0569 195.585 85.0069 195.506 84.8574C195.426 84.7078 195.476 84.5184 195.625 84.4386C197.34 83.4714 198.826 82.8831 202.376 84.2791C205.847 85.6452 206.555 85.7249 209.367 85.7349H209.377C212.169 85.7349 214.802 86.7619 215.729 87.7591C215.849 87.8887 215.839 88.0782 215.709 88.1978C215.649 88.2577 215.57 88.2776 215.5 88.2776V88.2975Z" fill="white"/>
<path d="M225.483 69.5711C223.718 70.0697 218.393 72.3631 217.645 72.044C216.887 71.7249 215.222 71.2762 213.686 71.8645C212.17 72.4529 212.499 73.46 211.512 74.1181C210.315 74.9158 209.418 76.8503 209.936 77.6081C210.465 78.3559 209.328 78.8645 209.966 79.6124C210.405 80.1309 211.123 79.8217 211.123 80.8687C211.123 81.9057 211.612 82.5739 212.689 82.524C213.766 82.4741 213.586 82.1351 214.344 82.6536C215.092 83.1721 215.341 83.0126 216.069 82.6038C216.807 82.195 217.994 80.2804 219.131 78.7149C220.268 77.1494 223.897 79.6821 228.674 77.5383C230.34 76.7904 229.442 75.2648 228.674 72.5825C227.777 69.4415 227.777 68.923 225.493 69.5711H225.483Z" fill="#FFDBB0"/>
</svg>
