<svg width="6" height="11" viewBox="0 0 6 11" fill="none" xmlns="http://www.w3.org/2000/svg">
<path d="M4.3557 5.9189L0.109698 1.5554C0.0747404 1.52023 0.0471034 1.47849 0.0283861 1.43257C0.00966883 1.38665 0.000243187 1.33748 0.000655174 1.2879C0.00106716 1.23832 0.0113082 1.18931 0.0307856 1.14371C0.0502629 1.09811 0.0785899 1.05683 0.114127 1.02225C0.149664 0.987671 0.191707 0.960484 0.237821 0.94226C0.283935 0.924037 0.333206 0.91514 0.382781 0.916084C0.432356 0.917027 0.481252 0.927794 0.526639 0.947759C0.572026 0.967725 0.613002 0.996493 0.647198 1.0324L5.1472 5.6574C5.21531 5.72741 5.25342 5.82123 5.25342 5.9189C5.25342 6.01657 5.21531 6.11039 5.1472 6.1804L0.647198 10.8054C0.613002 10.8413 0.572026 10.8701 0.526639 10.89C0.481252 10.91 0.432356 10.9208 0.382781 10.9217C0.333206 10.9227 0.283935 10.9138 0.237821 10.8955C0.191707 10.8773 0.149664 10.8501 0.114127 10.8155C0.0785899 10.781 0.0502629 10.7397 0.0307856 10.6941C0.0113082 10.6485 0.00106716 10.5995 0.000655174 10.5499C0.000243187 10.5003 0.00966883 10.4511 0.0283861 10.4052C0.0471034 10.3593 0.0747404 10.3176 0.109698 10.2824L4.3557 5.9189Z" fill="#D8D8D8"/>
</svg>
