<svg width="125" height="14" viewBox="0 0 125 14" fill="none" xmlns="http://www.w3.org/2000/svg">
<path fill-rule="evenodd" clip-rule="evenodd" d="M30.7781 0.0922885C31.2087 0.178408 31.2724 0.398705 31.773 0.434755C31.8452 0.304575 31.9533 0.1103 32.2249 0.178394V0.264524C32.4561 0.344635 32.3267 0.178416 32.4964 0.350654H32.5876V0.693121L32.7679 0.779227V0.949482H32.8591C32.8888 1.0356 32.9185 1.1197 32.9503 1.20582H32.5876V1.46218C32.3373 1.52427 32.3861 1.48622 32.3161 1.71854C32 1.79064 31.8939 1.93485 31.5015 1.9749C31.5079 2.19921 31.5376 2.26531 31.5927 2.40149C31.283 2.37946 30.8821 2.33339 30.8694 2.31536V2.4856H30.9606C31.2469 2.4876 30.689 2.57173 30.689 2.57173C30.5745 2.43754 30.4472 2.36343 30.2372 2.31536C30.1014 2.54769 29.9233 2.67987 29.6029 2.74196V2.57173L29.4226 2.65783C29.3696 2.78801 29.3526 2.79804 29.3314 3.00032C29.1405 3.01434 28.7841 3.07642 28.6971 3.17055C28.5868 3.29072 28.7777 3.26469 28.5168 3.42692V3.08442H28.4256V3.42692H28.1541V3.25666C28.0162 3.30673 28.0056 3.32276 27.7913 3.34279V3.17256L27.5198 3.25866C27.4604 3.40487 27.4328 3.52705 27.4286 3.77139H26.9767C26.9767 3.77139 26.8855 3.90757 26.7964 3.94162V4.02775H26.7052V3.85749H26.5249V3.77139H26.4337V3.85749H26.1621V3.94362C26.0051 4.07581 25.9713 4.34418 25.8906 4.54245C25.5576 4.51241 25.2945 4.39225 25.076 4.62858C25.0463 4.7147 25.0167 4.7988 24.9848 4.88492C24.743 4.91296 24.5011 4.94101 24.2614 4.97105V5.05718L24.0812 5.14328V5.31351L23.8096 5.22741L23.7184 5.39764H23.4469C23.432 5.40565 23.3408 5.52581 23.2666 5.56787V5.654C23.1159 5.62596 22.9654 5.59791 22.8147 5.56787V5.48177C22.7617 5.47576 22.505 5.62596 22.3629 5.652C22.3014 5.81422 22.2462 6.1747 22.1825 6.33493L21.9111 6.24882V6.16269C21.7859 6.14066 21.9471 6.22479 21.8198 6.24882C21.6034 6.28887 21.5865 6.18472 21.4571 6.16269L21.2768 6.41905H20.914V6.50518L20.6425 6.59129V6.84765H20.8228V6.93378H20.7316C20.6828 6.97383 20.0061 7.15008 20.0082 6.93378H19.917V7.10401L19.4652 7.01788C19.4694 7.3243 19.4439 7.55663 19.2848 7.70083V7.6147H19.1936V7.27223H19.0133C19.0069 7.49655 18.9773 7.56264 18.9221 7.69883C18.7333 7.64675 18.553 7.6027 18.379 7.78496V7.95519H18.2878V8.04129L17.7448 7.95519C17.7151 8.01127 17.6854 8.06934 17.6536 8.12542C17.5327 8.15346 17.4117 8.18151 17.2908 8.21155V8.38178H16.9281V8.55201C16.7117 8.51196 16.6438 8.45388 16.4762 8.38178V8.80837C16.2641 8.83641 16.0541 8.86444 15.842 8.89448V8.98061C15.5768 9.03869 15.545 9.07473 15.4792 9.32308C15.6065 9.32908 15.4665 9.30907 15.5704 9.23697C15.7126 9.13883 15.6553 9.44724 15.6616 9.49331C15.5068 9.58944 15.5386 9.54739 15.4813 9.74967C15.6023 9.72163 15.7232 9.6936 15.8441 9.66356L15.9353 9.49331C15.9523 9.4913 16.1474 9.57343 16.298 9.57944V9.40921C16.3892 9.43724 16.4783 9.46527 16.5696 9.49531L16.6608 9.32508C16.7711 9.27501 16.926 9.27901 17.0235 9.23895V8.89648C17.2378 8.86244 17.522 8.73427 17.8381 8.81038V8.89648H18.2009V8.81038H18.3812V8.46789H18.5615V8.63812C18.833 8.58204 19.1045 8.52396 19.376 8.46789L19.4673 8.55402C19.7155 8.38979 19.55 8.26162 20.0103 8.21155C20.1143 8.30969 20.0103 8.24558 20.1907 8.29766V8.04129L20.6425 7.95519V7.78496C20.9416 7.83102 21.054 7.89311 21.1855 7.78496H21.2768C21.3913 7.65277 21.1792 7.61271 21.368 7.5286V7.6147H21.4592V7.35837C21.6586 7.32832 21.928 7.24621 22.1825 7.35837C22.2122 7.41444 22.242 7.47252 22.2738 7.5286H22.4541V7.35837C22.6365 7.40643 22.5326 7.34834 22.6344 7.44447L22.9059 7.35837V7.27223H23.1775C23.2369 7.18612 23.2984 7.10199 23.3578 7.01587C23.5084 7.04391 23.659 7.07196 23.8096 7.102V7.18811C23.8754 7.20013 24.1427 7.11202 24.4439 7.102L24.3527 6.84564H24.533V6.93177H24.8957L24.987 7.01788V6.93177L25.2584 6.84564C25.2521 6.62133 25.2224 6.55524 25.1672 6.41905H25.7103C25.8143 6.32091 25.7103 6.38502 25.8906 6.33294C25.9606 6.07659 25.9458 6.10863 26.2534 6.07658C26.3552 6.22279 26.3107 6.19274 26.5249 6.24681C26.6161 6.03252 26.7116 5.8002 26.8876 5.90435H26.9789V6.16068H27.1592C27.2249 5.92436 27.1846 5.97044 27.4307 5.90435V5.81822L27.9737 5.73211C27.9737 5.73211 28.0141 5.85627 28.1541 5.81822L28.2453 5.64799H28.5168V5.47776L28.6971 5.56386V5.64999C28.8159 5.69205 28.7162 5.60993 28.7883 5.56386C29.0153 5.50578 28.9347 5.51981 29.0599 5.39363H29.1511V5.2234L29.3314 5.13727C29.4375 5.02912 29.4841 4.88893 29.6029 4.7948V4.88093H29.8744C29.9041 4.99509 29.9339 5.10924 29.9657 5.2234H30.0569C30.2775 4.87492 30.5639 4.90696 31.0518 4.79681C31.0793 4.7908 31.0751 4.67863 31.2321 4.71068V4.79681C31.4124 4.85288 31.5948 4.91096 31.7752 4.96704V4.88093H31.8664L31.7752 4.62457C31.8346 4.59653 31.896 4.56848 31.9554 4.53844C32.0806 4.36019 31.9152 4.41827 32.1358 4.28208V4.19597L32.5876 4.10984C32.5388 4.34817 32.5176 4.11786 32.5876 4.36621H32.6788V4.19597C32.8592 4.22401 33.0415 4.25204 33.2219 4.28208V4.19597C33.3194 4.11787 33.2389 4.20998 33.3131 4.10984H33.2219V4.02374H33.4934C33.5125 4.22602 33.5316 4.23602 33.5846 4.36621C33.6885 4.26807 33.6207 4.36621 33.6758 4.19597C33.7798 4.09784 33.7119 4.19598 33.7671 4.02574C34.0386 3.93962 34.3101 3.8555 34.5817 3.76938L34.6729 3.85551C34.7026 3.57913 34.7556 3.60516 34.8532 3.42892H35.0335V3.51503H35.1247V3.42892H35.4875L35.5787 3.17256C35.8141 3.26268 35.9605 3.32877 36.302 3.34279C36.2723 3.28671 36.2426 3.22864 36.2108 3.17256C36.2723 3.07843 36.7199 3.05239 36.8451 2.9162L36.7539 2.74597H36.8451V2.65984C37.0848 2.75998 37.1866 2.82406 37.5684 2.83007V2.74396H37.4772V2.4876C37.7636 2.54368 37.6597 2.61778 37.7488 2.65783C37.8548 2.65182 38.0712 2.48561 38.2918 2.57173L38.383 2.74196H38.5634C38.4764 3.02435 38.4785 3.24465 38.6546 3.51102H38.5634C38.4594 3.60915 38.5633 3.54507 38.383 3.59715V4.02374H38.2918C38.2685 4.16594 38.3767 4.17194 38.383 4.19397V4.62056C38.0585 4.63258 37.8697 4.74273 37.6597 4.79079L37.4793 4.70469C37.42 4.79081 37.3584 4.8749 37.299 4.96102C37.2481 4.98105 36.8048 4.89695 36.6647 4.87492C36.6096 5.09923 36.4081 5.32755 36.1217 5.30151C36.1217 5.30151 36.0729 5.19335 35.9414 5.21538L36.0326 5.38561H35.6699C35.6402 5.52781 35.6105 5.67001 35.5787 5.8122L35.1268 5.7261L35.0356 5.89633C34.7916 5.95441 34.798 5.73211 34.7641 5.7261L34.4925 5.8122L34.5838 5.89833C34.588 5.93238 34.5031 6.09059 34.4925 6.2408C34.1913 6.26884 33.8901 6.29689 33.5867 6.32693V6.1567C33.3725 6.13867 33.3619 6.12064 33.224 6.07057V6.32693C33.2049 6.36298 32.6024 6.75753 32.9524 6.92576H32.681V6.83963C32.594 6.68141 32.5897 7.00988 32.5897 7.00988C32.4879 7.08198 32.577 6.99986 32.4985 7.09599C32.7531 7.01588 32.751 7.00586 33.0416 7.09599V7.18212L33.3131 7.09599L33.2219 7.00988L33.3131 6.75352C33.7374 6.90774 34.0174 6.8036 34.308 6.58329C34.3377 6.52721 34.3674 6.46911 34.3992 6.41304H34.8511C34.8511 6.41304 34.8425 6.36298 35.0313 6.32693V6.58329H35.1225V6.41304C35.5086 6.40703 35.7229 6.39502 35.9371 6.24281L36.0284 6.07257C36.179 6.10061 36.3296 6.12866 36.4802 6.1587C36.3763 6.06057 36.4802 6.12465 36.2999 6.07257V5.90234C36.3911 5.93038 36.4802 5.95841 36.5714 5.98845V5.81822H36.7518V5.98845C37.2757 5.94839 37.6512 5.67002 38.0182 5.47575V5.73211H38.1985V5.56186H38.8328V5.47575H39.1043V5.38962C39.2846 5.41766 39.467 5.44571 39.6473 5.47575C39.7237 5.37962 39.6367 5.46372 39.7385 5.38962V5.04715C39.9188 5.01912 40.1013 4.99107 40.2816 4.96102C40.2519 5.04714 40.2222 5.13127 40.1904 5.21738H40.2816V5.30352C40.3834 5.23142 40.2943 5.31352 40.3728 5.21738C40.4767 5.11925 40.4089 5.21739 40.464 5.04715C40.6062 5.05316 41.0983 5.13326 41.0983 5.13326V5.04715H41.1895V4.79079C41.2892 4.67063 41.5968 4.70268 41.8238 4.70469V4.79079L42.3669 4.70469V4.61856H42.5471V4.53243H42.8187L42.7275 4.78879H42.8187C42.8844 4.55246 42.8441 4.59852 43.0902 4.53243V4.70268C43.1814 4.67464 43.2705 4.64659 43.3617 4.61655V4.53045C43.5739 4.50241 43.7839 4.47436 43.996 4.44432V4.35819H44.2675L44.3588 4.18796C44.4351 4.15992 44.9549 4.27808 45.0822 4.35819V4.18796L45.3537 4.10185V4.01572C45.4767 3.97967 45.3176 4.07782 45.4449 4.10185C45.5955 4.12989 45.6061 4.01973 45.6252 4.01572C45.7906 3.98368 45.9752 4.12787 46.077 4.18595V4.09984C46.3592 3.85751 46.0983 3.73734 46.6201 3.67325V3.75936H46.8916L46.8004 3.92961C46.9171 4.06781 46.9701 3.83546 47.0719 4.18595C47.1907 4.09583 47.2077 4.01173 47.3435 3.92961V4.18595H47.5238C47.4941 4.01571 47.4644 3.84349 47.4325 3.67325C47.8568 3.53706 47.738 3.73934 47.9756 3.24666H48.0668C48.0562 3.42891 47.9735 3.53906 47.9756 3.58913L48.0668 3.67526C48.2323 3.56711 48.0774 3.5591 48.1581 3.50503C48.262 3.43293 48.2153 3.58312 48.2493 3.59113C48.3405 3.56309 48.4296 3.53507 48.5208 3.50503V3.33477C48.7244 3.30072 48.8687 3.19459 49.1551 3.24867C49.1551 3.24867 49.1593 3.36081 49.3353 3.33477V3.24867H49.7872V3.33477C49.5708 3.38684 49.6196 3.36283 49.5157 3.50503H49.696C49.9569 3.09846 50.3918 3.24066 50.8733 3.07843L50.9645 2.82207C51.2233 2.82207 51.3528 2.8521 51.5076 2.90818V2.56571H51.5988C51.6582 2.65183 51.7197 2.73595 51.7791 2.82207H51.8704L51.7791 2.9923H51.8704V3.07843C52.1292 3.25468 52.1037 2.9262 52.2331 3.33477H52.4134V3.50503H52.5937C52.564 3.59115 52.5343 3.67524 52.5025 3.76136H52.5937C52.6552 3.88954 52.6573 3.90358 52.6849 4.10385H52.8652V4.27409C53.0052 4.35019 53.054 4.40027 53.1368 4.53045C53.4295 4.38024 53.3086 4.32615 53.6798 4.44432L53.5886 4.18796H53.7689V4.01772H53.9492V4.10385H54.0405V4.01772L54.312 4.10385L54.2207 4.36019H54.4011C54.4668 4.12386 54.4265 4.16995 54.6726 4.10385C54.8084 3.95365 54.9166 3.94161 55.2157 3.9336V3.76337C55.396 3.70729 55.5784 3.64921 55.7587 3.59314C55.7651 3.81745 55.7948 3.88354 55.8499 4.01973C55.9518 3.94763 55.8627 4.02973 55.9411 3.9336H56.0323V3.67726C56.3039 3.7053 56.5754 3.73333 56.8469 3.76337V3.59314H57.0272L57.1185 3.33678C57.2394 3.36481 57.3603 3.39286 57.4812 3.42291C57.5109 3.36683 57.5406 3.30875 57.5724 3.25267L58.0243 3.33878V3.50901C58.2555 3.37683 58.648 2.97828 58.9301 3.16654H59.1104V3.33678H59.2016V3.16654C59.6364 3.14451 59.6386 3.10646 60.0162 3.16654C60.0459 3.02435 60.0756 2.88215 60.1074 2.73995C60.5253 2.66585 60.8414 2.66585 61.1023 2.73995V2.56972H61.6453V2.65583H61.9169V2.74196C62.0081 2.71392 62.0972 2.68587 62.1884 2.65583V2.56972C62.0845 2.47159 62.1524 2.56973 62.0972 2.39949C62.3942 2.4055 62.3645 2.50764 62.549 2.39949L62.6403 2.22923L63.1833 2.39949V2.56972C63.4272 2.56972 63.6966 2.59775 63.8176 2.48359V2.31336L63.9979 2.39949V2.31336C64.1782 2.28532 64.3606 2.2573 64.541 2.22725C64.6258 2.27933 64.5091 2.34941 64.6322 2.31336L64.7234 2.14313C64.8379 2.14313 64.9546 2.29533 65.1752 2.22923V2.14313C65.3258 2.11509 65.4764 2.08704 65.627 2.057L65.5358 2.31336H65.627C65.8286 2.51965 65.7968 2.43354 66.0789 2.39949C66.0683 2.66986 65.9028 2.55969 66.1701 2.65583C66.2104 2.86812 66.2528 2.97029 66.2613 3.25468C66.011 3.31677 66.0598 3.27869 65.9898 3.51102H65.8986V3.93761C65.6822 3.97766 65.6143 4.03574 65.4468 4.10784V3.8515H65.3555C65.2219 4.33017 65.1986 4.02774 64.9037 4.19397V4.2801L64.541 4.53644C64.5707 4.45032 64.6003 4.36622 64.6322 4.2801H64.541C64.4858 4.41629 64.4603 4.48238 64.4497 4.70669C64.1082 4.77479 63.9427 4.87292 63.4548 4.87692V4.70669H63.2745V4.87692H62.8227V4.96303H62.9139C62.8566 5.0852 62.8078 5.02711 62.7336 5.13326H62.5533L62.6445 4.96303H62.5533C62.4642 5.07919 62.5002 5.13126 62.2817 5.13326C62.2817 5.13326 62.2181 5.0111 62.1014 5.04715C62.0717 5.10323 62.042 5.16131 62.0102 5.21738H61.8299L61.7387 5.73011L61.3759 5.81621V5.47375H61.1956C61.1299 5.74813 61.0726 5.78417 60.7438 5.81621L60.835 5.55985H60.7438C60.7098 5.65799 60.7183 5.86428 60.5635 5.81621L60.4722 5.55985C60.381 5.58789 60.292 5.61594 60.2008 5.64598V5.81621C60.0565 5.76414 59.9865 5.74012 59.7489 5.73011V5.47375H59.6577V5.73011C59.7616 5.82824 59.6937 5.7301 59.7489 5.90034C59.5368 5.92838 59.3267 5.9564 59.1146 5.98644V6.1567C58.7943 6.18874 58.8388 6.26284 58.5715 6.32693V6.58329C58.3509 6.53523 58.3722 6.49315 58.2088 6.41304V6.58329H58.1176V6.83963H58.2088V6.6694H58.3891V6.83963C58.5398 6.81159 58.6903 6.78356 58.841 6.75352V7.00988H59.0213V6.75352C59.1719 6.78156 59.3225 6.80959 59.4731 6.83963C59.5155 6.63535 59.5771 6.57126 59.6534 6.41304C59.9483 6.41504 60.3068 6.37499 60.468 6.49917H60.5592C60.5889 6.44309 60.6186 6.38501 60.6504 6.32894H60.8308V6.24281H61.0111V6.1567L61.1914 6.24281V6.1567H62.0972C62.0675 6.07058 62.0378 5.98646 62.006 5.90034H62.1863V5.81421H62.2775V5.90034L62.549 5.98644C62.5554 6.10661 62.5702 6.01049 62.4578 6.07257C62.5596 6.1627 62.4578 6.11064 62.6381 6.1587V6.07257H62.7293V5.81621H62.8205C62.899 5.69805 62.8884 5.66802 62.9117 5.47375C63.126 5.46373 63.1409 5.4477 63.2745 5.38762V5.47375H63.3657V5.55985L63.2745 5.73011H63.5461V5.55985C63.7582 5.53181 63.9682 5.50379 64.1803 5.47375V5.55985H64.2715C64.3734 5.49176 64.2376 5.44771 64.3627 5.47375V5.55985H64.7255V5.73011H64.8167C64.8464 5.55987 64.8761 5.38762 64.9079 5.21738H65.0882V5.38762H65.1795V5.13128C65.3874 5.13929 65.4149 5.20337 65.5422 5.21738L65.6334 5.04715C65.6334 5.04715 65.8816 5.12725 65.9961 5.13326V4.96303L66.0874 5.04916C66.2083 5.02112 66.3292 4.99307 66.4501 4.96303V5.04916H66.9019V4.7928H67.0823V4.87893H67.1735V4.7928L67.3538 4.87893L67.445 4.62257C67.6847 4.53845 67.6338 4.80882 67.8078 4.7928V4.70669C68.2044 4.61857 68.3063 4.49639 68.7136 4.45033V4.53644H68.6224C68.4505 4.61054 68.8026 4.62257 68.8026 4.62257C68.879 4.7187 68.7921 4.63457 68.8939 4.70867V4.53844L69.3457 4.45234C69.3754 4.39626 69.4051 4.33816 69.4369 4.28208L69.5282 4.36821C70.0649 4.40025 70.1349 4.18997 70.434 4.02574V4.28208H70.5252C70.6291 4.18394 70.5252 4.24805 70.7055 4.19597V4.02574C70.7967 4.05378 70.8858 4.08181 70.977 4.11185L71.0682 3.94162H71.431V3.85551H71.5222C71.5773 4.0598 71.5519 4.01371 71.7025 4.11185V3.85551C72.1777 3.78341 72.1034 3.84549 72.5171 4.02574C72.5637 3.82547 72.6486 3.7053 72.7886 3.59915C72.8925 3.69729 72.7886 3.63318 72.9689 3.68526V3.51503H73.2405V3.34479C73.3911 3.37283 73.5417 3.40086 73.6923 3.4309V3.60116H73.8726V3.34479C74.0699 3.35681 74.1738 3.4309 74.2353 3.4309V3.34479L74.5069 3.25866C74.5366 3.31474 74.5663 3.37284 74.5981 3.42892C74.8866 3.50903 75.3193 3.25067 75.5039 3.17256L75.4127 2.9162H75.6842C75.7394 3.12048 75.7139 3.07442 75.8645 3.17256C75.9409 3.26869 75.8539 3.18456 75.9557 3.25866C75.9621 3.03435 75.9918 2.96826 76.047 2.83207C76.2273 2.80403 76.4097 2.77601 76.59 2.74597C76.6664 2.8421 76.5794 2.75797 76.6812 2.83207C76.6112 2.91819 76.5709 2.91621 76.5009 3.00233H76.7724L76.6812 2.74597L76.7724 2.65984C76.9061 2.69989 76.9167 2.75798 77.1352 2.74597V2.65984H77.2264V2.74597C77.3473 2.77401 77.4682 2.80203 77.5891 2.83207V2.9182C77.9583 3.05039 78.1258 2.85613 78.3125 3.00433C78.5946 3.18058 78.3549 3.11448 78.4928 3.3468L78.6731 3.4329V3.60316H78.7644C78.8471 3.71932 78.8322 3.75336 78.8556 3.94563L78.4928 3.8595C78.565 4.13588 78.6604 4.15391 78.6731 4.54245C78.5713 4.61455 78.6604 4.53245 78.5819 4.62858H78.4907C78.4631 4.37223 78.478 4.39624 78.3104 4.28609V4.37222H78.4016C78.3422 4.48638 78.2807 4.60053 78.2213 4.71469C77.9858 4.71869 77.9094 4.73272 77.7694 4.80082V4.88692C77.6146 4.93699 77.6125 4.80682 77.5891 4.80082C77.2646 4.72271 77.0588 4.90897 76.9549 5.05718H76.8636C76.8339 5.22741 76.8042 5.39964 76.7724 5.56988H76.5921L76.5009 5.39964C76.38 5.42768 76.2591 5.45571 76.1382 5.48575C76.1572 5.68803 76.1763 5.69806 76.2294 5.82824C76.0193 5.82023 75.9981 5.76014 75.8666 5.74211L75.7754 5.91234C75.6545 5.94038 75.5336 5.96843 75.4127 5.99847C75.3469 6.2348 75.3872 6.18874 75.1411 6.25483C74.8229 6.52521 74.5557 6.14667 74.5069 6.1687V6.25483C74.3563 6.34095 74.2056 6.42505 74.055 6.51117C74.1038 6.80958 74.1441 6.66939 74.055 6.93776H74.1463V6.85166H74.509V7.02189L74.7805 6.93576V6.84965L75.0521 6.93576V6.67942C75.1433 6.70746 75.2323 6.73549 75.3236 6.76553V6.67942L75.2323 6.59329H75.7754C75.8051 6.67941 75.8348 6.76353 75.8666 6.84965C75.926 6.82161 76.047 6.67942 76.047 6.67942C76.1382 6.70746 76.2273 6.73549 76.3185 6.76553V6.67942C76.4521 6.61333 76.4691 6.61532 76.6812 6.59329V6.42306H76.8615V6.25283H77.2243V6.42306C77.4279 6.40103 77.464 6.41504 77.587 6.33693V6.25082H77.7673V6.16469H77.9476V6.07859C78.1089 5.95642 78.164 5.88632 78.3995 5.82223V6.07859H78.7622C78.7919 5.93639 78.8216 5.79419 78.8534 5.652H79.0337C79.004 5.73812 78.9743 5.82224 78.9425 5.90836H79.0337C79.1631 5.78619 79.5386 5.69005 79.7571 5.652V5.48177C79.878 5.45373 79.9989 5.42568 80.1199 5.39563V5.13927H80.3002V5.39563H80.4805V5.13927H80.9323C80.9026 5.22539 80.8729 5.30952 80.8411 5.39563H81.0214C81.1148 5.2975 81.189 5.23141 81.3842 5.2254V5.31151H81.4754L81.5666 5.2254C81.6515 5.07119 81.6917 5.0912 81.7469 4.88291L82.0184 4.79681V4.71068L82.1096 4.79681L82.3812 4.71068V4.96704H82.5615C82.5806 4.76476 82.5997 4.75475 82.6527 4.62457L82.833 4.71068V4.62457C82.9624 4.51842 82.973 4.38823 83.1046 4.28208C83.1321 4.32214 83.2891 4.59252 83.3761 4.53844L83.4673 4.28208C83.8597 4.25404 84.2522 4.22602 84.6446 4.19597V4.28208C84.3943 4.34417 84.4431 4.30612 84.3731 4.53844C84.598 4.50039 84.7061 4.46035 85.0074 4.45234V4.36621H84.9162V3.93961C85.0668 3.96765 85.2174 3.9957 85.368 4.02574C85.3977 3.93962 85.4274 3.8555 85.4592 3.76938C85.5631 3.86752 85.4953 3.76938 85.5504 3.93961L85.8219 4.02574V3.93961C86.0086 3.84348 85.9853 3.80743 86.2738 3.76938V3.51302C86.4668 3.50301 86.5835 3.42491 86.6365 3.42692L86.7277 3.51302V3.34279L87.1796 3.25666V3.42692C87.239 3.39888 87.3005 3.37083 87.3599 3.34079V3.25468C87.5041 3.23866 87.4723 3.40288 87.5402 3.42491H87.9029C87.9326 3.28271 87.9624 3.14052 87.9942 2.99832C88.1448 3.02636 88.2954 3.05438 88.446 3.08442L88.5372 2.91419H88.6285V3.00032C88.7197 2.97228 88.8087 2.94423 88.9 2.91419V2.74396C89.0039 2.8421 88.9361 2.74396 88.9912 2.91419H89.1715C89.2139 2.70991 89.2755 2.64582 89.3518 2.4876C89.653 2.49161 90.1664 2.57373 90.1664 2.57373V2.4876H90.3467V2.40149H90.6182C90.6479 2.34542 90.6776 2.28732 90.7094 2.23124C90.8007 2.25928 90.8898 2.28733 90.981 2.31737V2.4035H91.4328V2.23324L91.7956 2.14714V2.31737H91.9759C92.0331 2.55169 92.0947 2.51164 92.1562 2.74396H92.4277C92.4935 2.98029 92.4532 2.93423 92.6993 3.00032V3.17055C92.1583 3.2747 92.2304 3.51302 92.065 3.93961H92.6081L92.6993 3.59715C93.0768 3.54307 92.9559 3.51303 93.3335 3.42692V3.59715C93.762 3.42691 93.6984 3.42691 94.0569 3.59715V3.42692C94.1778 3.39888 94.2987 3.37083 94.4196 3.34079V3.17055H94.5999V3.25666H94.6911V3.17055C94.8969 3.1325 94.9351 3.2146 95.0539 3.25666V3.17055H94.9627C94.7951 3.08844 95.143 3.08442 95.143 3.08442V2.91419H95.3233V2.74396C95.6075 2.79403 95.7264 2.88215 96.0467 2.91419L96.1379 2.65783C96.1379 2.65783 95.9449 2.64383 96.0467 2.57173H96.227V2.65783H96.77V2.40149C97.0585 2.45757 96.9482 2.52766 97.0416 2.57173C97.1922 2.55771 97.2092 2.4035 97.2219 2.40149C97.3959 2.35543 97.347 2.45756 97.4022 2.4876H97.4934V2.40149C97.6143 2.42953 97.7353 2.45756 97.8562 2.4876C97.9219 2.25127 97.8816 2.29733 98.1277 2.23124V2.40149H98.4905C98.5753 2.24728 98.6156 2.26729 98.6707 2.059L98.9423 2.14513V2.059C99.0017 2.03096 99.0632 2.00294 99.1226 1.9729V2.14313H99.3029L99.2117 1.88677C99.428 1.84671 99.4959 1.78864 99.6635 1.71654V2.059C100.134 1.94284 99.9859 1.87076 100.569 1.9729V1.71654H100.841V1.80267C100.803 1.85274 100.692 1.81468 100.75 1.9729H100.841C100.987 1.44417 101.034 1.82868 101.384 1.63041C101.59 1.51425 101.378 1.31597 101.836 1.20381V1.28994L102.107 1.20381V1.37407H102.199V1.20381C102.519 1.23586 102.474 1.30998 102.742 1.37407V1.5443C102.826 1.67849 103.389 1.70252 103.104 1.97089H103.285V2.31336L103.104 2.39949C103.1 2.42753 103.189 2.58975 103.196 2.74196H103.376C103.333 2.94624 103.272 3.01033 103.196 3.16855C103.034 3.17656 102.869 3.25868 102.833 3.25468V3.16855H102.47V3.25468L101.927 3.34079V3.51102C101.806 3.56709 101.685 3.62517 101.564 3.68125V3.59514H101.473V3.8515L100.839 4.02173C100.943 4.11987 100.839 4.05577 101.019 4.10784V4.19397C101.178 4.26407 101.31 4.14389 101.382 4.10784V4.02173H101.653V3.8515C102.075 3.83147 102.169 3.72732 102.468 3.59514V3.50901H103.102V3.59514H103.011C102.907 3.69328 103.011 3.62917 102.831 3.68125V3.8515C103.2 3.75136 102.926 3.77339 103.102 3.59514L103.282 3.68125V3.59514H103.463V3.50901H103.734C103.83 3.45694 103.959 3.08643 104.186 3.16654V3.25267H104.366V2.99631C104.458 3.02435 104.547 3.05238 104.638 3.08242V2.99631C104.818 2.96827 105.001 2.94022 105.181 2.91018V3.08041H105.361C105.391 3.16653 105.421 3.25066 105.453 3.33678H105.544V3.16654H105.724C105.777 2.8481 105.777 2.97029 105.724 2.65385C105.752 2.66386 106.596 2.8401 106.63 2.82408V2.73795H106.721V2.39548H106.812C106.997 2.5517 107.224 2.41951 107.536 2.39548V2.22525C107.718 2.27332 107.614 2.21522 107.716 2.31136C108.049 2.22123 107.964 2.13912 108.168 1.96889V1.88276C108.397 1.74857 108.883 1.87675 109.254 1.88276C109.311 1.64843 109.373 1.68849 109.434 1.45617C109.822 1.44215 109.744 1.4021 109.977 1.28594V1.5423H110.34C110.359 1.34002 110.378 1.33001 110.431 1.19983L110.703 1.28594L110.794 1.1157H110.974V1.02957C111.066 1.00154 111.155 0.97351 111.246 0.943468L111.337 1.19983C111.566 1.02559 111.375 0.993538 111.789 0.943468V1.02957C111.685 1.10768 111.683 1.09168 111.609 1.19983H111.7V1.28594C111.889 1.1918 111.861 1.14775 112.152 1.1157C112.228 1.21184 112.141 1.12773 112.243 1.20183C112.137 1.36406 112.167 1.28394 111.971 1.37207V1.45817H112.152C112.122 1.62841 112.092 1.80066 112.06 1.97089H112.152V2.057H112.06V2.22725C112.09 2.42753 112.12 2.6258 112.152 2.82608H112.06C111.984 2.92422 112.014 2.94624 111.88 2.99631V2.91018H111.789C111.73 2.9963 111.668 3.08043 111.609 3.16654H111.337L111.246 3.33678C111.125 3.36481 111.004 3.39286 110.883 3.42291C110.853 3.50903 110.824 3.59315 110.792 3.67927L110.52 3.76537L110.429 3.9356H110.338V3.8495C110.005 3.7754 109.901 4.13989 109.704 3.9356V4.10586H109.523C109.553 4.22002 109.583 4.33417 109.615 4.44833H109.523C109.422 4.59453 109.466 4.56448 109.252 4.61856C109.243 4.60053 109.122 4.30812 109.072 4.3622V4.44833L108.891 4.53443C108.862 4.62055 108.832 4.70467 108.8 4.79079H108.528C108.225 4.93099 108.41 5.01711 107.894 5.04715C107.924 5.13327 107.954 5.2174 107.985 5.30352C108.106 5.27548 108.227 5.24743 108.348 5.21738V5.47375H108.439V5.38762H108.802C109.078 5.28948 109.205 5.1493 109.617 5.13128V4.96102C109.873 4.90695 109.856 4.80281 109.888 4.79079H110.251V4.87692L110.614 4.79079C110.614 4.79079 110.654 4.89695 110.794 4.87692V4.79079L111.157 4.87692V4.79079C111.261 4.69266 111.193 4.7908 111.248 4.62056H111.157V4.70669C111.078 4.86892 111.066 4.53644 111.066 4.53644C111.396 4.56448 111.73 4.59252 112.06 4.62257L112.152 4.45234C112.243 4.4263 112.317 4.5845 112.514 4.53844V4.45234H112.966V4.53844H113.057V4.45234H113.42L113.511 4.19597H113.603L113.511 4.02574H113.783C113.887 4.12388 113.783 4.05978 113.963 4.11185V3.94162C114.18 3.98167 114.248 4.03975 114.415 4.11185V4.02574H114.324C114.156 3.94363 114.504 3.93961 114.504 3.93961V4.02574C114.608 4.12388 114.54 4.02574 114.595 4.19597C114.788 4.18596 114.903 4.10984 114.958 4.10984V4.19597H115.139C115.164 4.04376 115.23 4.02574 115.23 4.02574C115.2 3.93962 115.17 3.8555 115.139 3.76938H115.23V3.68325C115.486 3.7914 115.603 3.90356 115.953 3.93961V3.76938C116.481 3.65522 116.004 3.55308 116.496 3.76938V3.42692H116.587V3.51302C116.708 3.4269 116.829 3.34278 116.95 3.25666V3.59915H117.041C117.086 3.5591 117.016 3.46095 117.133 3.51302V3.59915H117.224C117.224 3.59915 117.198 3.90557 117.315 3.76938V3.68325C117.419 3.58512 117.351 3.68326 117.406 3.51302H117.135C117.205 3.25667 117.19 3.2887 117.497 3.25666V3.34279L117.769 3.25666V3.34279H118.04V3.42892C118.274 3.47498 118.537 3.16253 118.675 3.08643L118.946 3.17256V3.08643C119.097 2.9943 119.097 2.97027 119.309 2.9162C119.279 3.00232 119.25 3.08644 119.218 3.17256H119.309V3.25866C119.4 3.20259 119.489 3.14451 119.581 3.08843V3.00233H119.761C119.924 2.93423 119.958 2.80804 120.032 2.65984C120.183 2.77399 120.334 2.88817 120.484 3.00233C120.539 2.83409 120.488 2.79403 120.664 2.74597C120.694 2.75598 120.692 2.90618 120.845 2.9162C121.038 2.67386 120.925 2.74395 121.208 2.83007C121.237 2.55368 121.29 2.57974 121.388 2.4035C121.704 2.44956 121.555 2.48762 121.84 2.4035V2.9162H121.931C122.033 2.76999 121.988 2.80004 122.202 2.74597C122.372 3.01434 122.538 2.98831 122.565 3.42892C122.813 3.43893 123.221 3.54708 123.289 3.42892H123.38V3.51503C123.63 3.5711 123.914 3.75336 124.014 3.94162V4.19798H124.105C124.23 4.3562 124.315 4.39625 124.377 4.62457C124.286 4.59653 124.197 4.56848 124.105 4.53844V4.62457H124.197V4.88093H124.288C124.37 5.00711 124.368 5.09122 124.379 5.30752C124.275 5.40566 124.343 5.30752 124.288 5.47776C123.986 5.50579 123.685 5.53382 123.382 5.56386V5.39363C123.261 5.42167 123.14 5.44972 123.019 5.47976V5.3095C122.96 5.33754 122.898 5.36559 122.839 5.39563C122.809 5.33956 122.779 5.28148 122.748 5.2254C122.746 5.2254 122.48 5.34156 122.296 5.2254L122.205 4.96904C122.098 4.89895 122.05 5.21938 121.842 5.13927V5.05317C121.738 4.95503 121.806 5.05315 121.751 4.88291L121.479 4.96904V4.88291H121.388C121.418 4.79679 121.447 4.7127 121.479 4.62658C121.479 4.62658 121.367 4.60054 121.388 4.45634C121.388 4.45634 121.538 4.41827 121.479 4.28609H121.388C121.284 4.38423 121.388 4.32015 121.208 4.37222C121.178 4.45834 121.148 4.54246 121.116 4.62858C120.904 4.60455 120.892 4.60053 120.754 4.54245V4.45634C120.601 4.46636 120.601 4.61856 120.573 4.62658C120.368 4.69467 120.208 4.52042 120.121 4.54045V4.62658C119.814 4.74274 119.746 4.89294 119.398 4.96904C119.428 4.88292 119.458 4.7988 119.489 4.71268H119.309C119.175 4.945 119.031 5.10322 118.675 5.13927V4.88291H118.584C118.514 5.13927 118.528 5.10723 118.221 5.13927V4.96904C117.843 5.16331 117.792 5.14329 117.315 5.05517V4.88492H117.224C117.217 5.21538 117.239 5.23741 116.952 5.31151V5.39764C116.865 5.55586 116.861 5.22741 116.861 5.22741H116.681C116.651 5.28349 116.621 5.34156 116.589 5.39764C116.439 5.3696 116.288 5.34155 116.138 5.31151V5.48177H115.866V5.56787C115.762 5.66601 115.83 5.56787 115.775 5.7381L115.232 5.82423V5.654L114.326 5.74011V5.91034H114.054V5.99647C113.974 6.15669 113.963 5.82624 113.963 5.82624C113.673 5.89233 113.768 5.95441 113.42 5.99647V6.25283C112.886 6.20076 112.926 5.95039 112.334 5.91034C112.332 6.19473 112.287 6.2969 112.243 6.50919H112.063C112.09 6.43509 112.237 6.32091 112.154 6.1667H112.063V6.25283C111.959 6.35096 112.027 6.25282 111.971 6.42306L111.428 6.50919V6.67942C111.125 6.62735 110.858 6.44509 110.523 6.59329C110.463 6.67941 110.402 6.76353 110.342 6.84965C110.096 6.91775 110.062 6.61933 109.979 6.59329C109.816 6.54122 109.914 6.68942 109.888 6.76352C109.797 6.73548 109.708 6.70746 109.617 6.67742V7.01988H109.436L109.345 7.19011C109.197 7.23217 109.178 7.10601 109.165 7.10401C108.946 7.06796 108.929 7.19011 108.802 7.19011V7.10401C108.622 7.07597 108.439 7.04792 108.259 7.01788V7.18811C107.659 7.24819 107.353 7.26221 106.901 7.18811L106.81 7.44447C106.641 7.40241 106.377 7.40843 106.087 7.35837V7.27223C106.191 7.1741 106.123 7.27224 106.178 7.102C105.962 7.11001 105.953 7.15807 105.815 7.18811V7.102C105.665 7.00988 105.667 6.97984 105.453 6.93177V6.76152H105.272C105.243 6.6754 105.213 6.5913 105.181 6.50518L104.638 6.41905V6.24882C104.71 6.27686 104.922 6.42305 105.09 6.33493V6.24882C104.823 6.08459 104.869 5.90835 104.91 5.64999C105.03 5.59391 105.033 5.51581 105.09 5.47976C105.149 5.5078 105.211 5.53582 105.27 5.56587V5.2234H105.361C105.332 5.05316 105.302 4.88091 105.27 4.71068C105.179 4.68264 105.09 4.65461 104.999 4.62457C105.028 4.68065 105.058 4.73872 105.09 4.7948L104.818 4.70867V4.87893H104.727C104.697 4.93501 104.668 4.99308 104.636 5.04916H104.364C104.386 5.24743 104.464 5.10124 104.364 5.30552L104.184 5.21939V5.38962C104.086 5.53983 104.093 5.21939 104.093 5.21939C103.942 5.24743 103.792 5.27548 103.641 5.30552C103.641 5.30552 103.599 5.17733 103.461 5.21939C103.431 5.27547 103.401 5.33354 103.369 5.38962H103.098C103.068 5.47574 103.039 5.55986 103.007 5.64598C102.867 5.57588 102.606 5.33755 102.372 5.38962C102.343 5.4457 102.313 5.50377 102.281 5.55985C102.107 5.54383 102.131 5.39363 102.101 5.38962H102.01V5.47575H101.558V5.56186H101.738C101.708 5.73209 101.679 5.90434 101.647 6.07458H101.467C101.384 6.04053 101.407 5.81422 101.104 5.90435L101.013 6.07458H100.561V5.98845C100.429 5.92035 100.408 5.92838 100.198 5.90234V6.1587C100.107 6.13067 100.018 6.10262 99.9266 6.07257V6.1587C99.8226 6.25684 99.8905 6.1587 99.8353 6.32894C99.498 6.41906 99.5914 6.50517 99.3835 6.6714V6.75753H99.112V6.50117H98.9316V6.6714H98.4798V6.58527H98.3886C98.3292 6.69943 98.2677 6.81361 98.2083 6.92776L98.028 6.84163V6.92776L97.7564 7.09799V6.84163H97.6652V6.92776L97.3937 6.84163V6.92776C97.2664 6.92176 97.4298 6.85565 97.3025 6.84163L96.7594 6.92776V7.18412H96.6682V7.09799C96.4222 6.97382 96.2249 7.21816 96.1252 7.26823C96.0742 6.99985 96.0361 6.90973 95.7624 6.84163C95.8133 7.04992 95.8579 7.02991 95.9428 7.18412H95.7624C95.6182 7.3103 95.23 7.27824 94.9478 7.27023V7.1H94.7675V7.27023C94.5872 7.24219 94.4048 7.21417 94.2245 7.18412C94.1799 6.98184 94.1396 6.98183 94.0441 6.84163C94.1672 6.74149 94.1333 6.90574 94.2245 6.75553C94.1057 6.68543 94.1184 6.69542 94.0441 6.58527H94.2245C94.2436 6.38299 94.2626 6.37299 94.3157 6.24281C94.059 6.18673 93.9742 6.08459 93.8639 5.90034H94.1354C94.1948 5.67202 94.2563 5.4437 94.3157 5.21738C94.1969 5.14729 94.2096 5.15731 94.1354 5.04715C93.9423 5.1513 93.9381 5.23943 93.6835 5.30352V5.13326H93.5923V5.38962C93.2402 5.41766 93.185 5.52782 92.9581 5.64598C92.939 5.4437 92.9199 5.4337 92.8668 5.30352C92.765 5.37562 92.8541 5.29349 92.7756 5.38962H92.6844L92.7756 5.47575L92.6844 5.73211C92.3004 5.67003 92.2495 5.71809 91.7786 5.73211L91.8698 5.98845H91.7786C91.7043 6.1006 91.715 6.08861 91.5983 6.1587V5.81621C91.138 5.84025 91.1995 5.96842 90.6925 5.98644C90.6246 6.27685 90.4995 6.38099 90.1494 6.41304V6.24281H90.0582V6.32894C89.9797 6.49116 89.967 6.1587 89.967 6.1587C89.8758 6.13067 89.7867 6.10262 89.6954 6.07257L89.7867 6.24281H89.6064C89.4621 6.36898 89.3836 6.53722 89.3348 6.75553H89.0633V6.58527C88.4821 6.6053 88.3357 6.89771 87.886 7.01186C87.9433 6.77754 88.0048 6.81759 88.0663 6.58527C87.4872 6.70544 87.0757 7.08197 86.7087 6.49917C87.116 6.27486 86.9017 6.18072 86.7999 5.81621H86.4371C86.3608 5.72008 86.4478 5.80421 86.3459 5.73011C86.3735 5.656 86.5199 5.54183 86.4371 5.38762H86.3459V5.30151H86.0744C85.9217 5.53784 85.6862 5.47374 85.5313 5.64398L85.4401 5.90034H85.1686V5.98644C85.0774 6.01448 84.9883 6.04253 84.8971 6.07257V5.90234C84.6149 5.96042 84.4855 6.15869 84.2628 6.24481H83.9001V6.33094C83.8088 6.3029 83.7197 6.27485 83.6285 6.24481V6.41504L83.0855 6.50117V6.58728H82.7227C82.693 6.59329 82.6994 6.70545 82.5424 6.67341V6.58728H82.3621V6.50117L81.7278 6.41504C81.6621 6.53521 81.5645 6.67342 81.4563 6.75753V6.41504H81.3651V6.58527C81.2739 6.55723 81.1848 6.52921 81.0936 6.49917C81.0511 6.69944 80.9429 6.76353 80.9132 6.92576H81.0044C81.0341 7.01188 81.0639 7.096 81.0957 7.18212C80.5802 7.18813 80.5272 7.09198 80.1899 7.01186C80.0562 7.24419 79.912 7.40241 79.5556 7.43846V7.26823H79.3753V7.61072H79.1949V7.69682H78.5607V7.78295H78.3804V7.86906C78.321 7.84102 78.2595 7.81299 78.2001 7.78295V7.86906H78.1089C77.9752 7.76692 78.1852 7.80698 78.0177 7.69883C78.0283 7.9692 78.1937 7.85906 77.9264 7.95519V7.78496C77.4173 7.84304 77.6337 7.99724 77.3834 8.12742H77.2031C77.1734 8.21354 77.1437 8.29767 77.1119 8.38379H76.66V8.29766C76.8848 8.14144 76.7767 8.23157 76.7512 7.95519H76.5709V8.21155C75.7839 8.21355 75.646 8.35975 74.9418 8.38178V8.21155C74.8208 8.26763 74.6999 8.3257 74.579 8.38178C74.6087 8.49594 74.6384 8.61009 74.6702 8.72425C74.4348 8.71023 74.3605 8.70621 74.2184 8.63812V8.55201L73.9468 8.63812C73.932 8.63611 73.915 8.51796 73.7665 8.55201V8.63812H73.5862V8.72425H73.4059V8.81038C73.2808 8.88849 73.2468 8.87045 73.0431 8.89648V8.64012H72.9519V8.72625H72.5001C72.4386 8.75229 72.4959 8.8364 72.2286 8.89648C72.1989 8.9826 72.1692 9.06672 72.1374 9.15284H72.2286C72.3622 9.25699 71.8998 9.23695 71.8659 9.23895V9.15284C71.5031 9.09677 71.1425 9.03869 70.7797 8.98261C70.8285 8.74428 70.8497 8.9746 70.7797 8.72625C70.6821 8.77432 70.5909 8.95657 70.417 8.89648V8.81038H70.3258L70.417 8.64012H70.3258C70.2218 8.54199 70.3258 8.60609 70.1454 8.55402C70.1157 8.4679 70.0861 8.38377 70.0542 8.29766H70.2345C70.2048 8.21154 70.1751 8.12741 70.1433 8.04129H70.2345V8.12742C70.313 8.28965 70.3258 7.95719 70.3258 7.95719H70.417V7.87106C70.3576 7.84302 70.296 7.815 70.2366 7.78496C70.2663 7.69884 70.2961 7.61472 70.3279 7.5286H70.2366V7.44247H70.5082V7.35636C70.3894 7.28626 70.4021 7.29626 70.3279 7.1861C70.4828 7.08997 70.4509 7.13205 70.5082 6.92977L70.8709 6.84364C70.8815 6.83763 71.0109 6.52719 71.0512 6.58728V6.75753H71.3228C71.4076 6.60332 71.4479 6.62333 71.5031 6.41504C71.38 6.3149 71.3652 6.25883 71.3228 6.07257H71.5031V5.90234H71.6834V5.81621C71.5031 5.84425 71.3206 5.8723 71.1403 5.90234V5.81621C71.0215 5.82222 70.9134 5.96243 70.6885 5.90234V5.81621C70.5082 5.78817 70.3258 5.76015 70.1454 5.73011V6.07257H69.9651V6.24281C69.8739 6.18673 69.7848 6.12865 69.6936 6.07257V5.90234L69.6024 5.98845C69.4984 6.08658 69.5663 5.98847 69.5112 6.1587H69.1484V6.32894C68.9681 6.3009 68.7857 6.27285 68.6054 6.24281C68.5757 6.385 68.546 6.5272 68.5142 6.6694C68.2936 6.71746 68.3148 6.75751 68.1514 6.83963V6.75352C68.0581 6.67942 68.0263 6.60531 67.9711 6.49716C67.8672 6.5953 67.9351 6.49716 67.8799 6.66739C67.6996 6.69543 67.5171 6.72348 67.3368 6.75352V6.92375C67.1226 6.94178 67.112 6.95981 66.9741 7.00988V6.83963H67.0653L66.9741 6.58329H66.8829V6.75352C66.8235 6.72548 66.762 6.69743 66.7026 6.66739C66.5986 6.73549 66.6665 6.86967 66.431 6.83762C66.4013 6.78155 66.3716 6.72347 66.3398 6.66739H66.2486V6.83762L65.9771 6.92375C65.9304 6.91174 65.9219 6.70746 65.7968 6.75352C65.7055 6.86768 65.6164 6.98183 65.5252 7.09599C65.434 7.06795 65.3449 7.03993 65.2537 7.00988V7.18012H65.0734V7.35035C64.9716 7.27825 65.0606 7.36035 64.9822 7.26422C64.8846 7.18611 64.9652 7.27825 64.8909 7.17811H64.9822V7.09198H64.7107V7.17811H64.6194V7.09198H64.3479C64.3182 7.0359 64.2885 6.97783 64.2567 6.92175C64.1973 6.94979 64.1358 6.97784 64.0764 7.00788C63.9534 7.04193 64.1145 7.09999 63.9851 7.09398V7.00788H63.8049C63.8027 7.27225 63.8303 7.44849 63.8961 7.60671H63.5333V7.77694H63.4421V7.52058H63.2618L63.1706 7.77694C63.0688 7.70484 63.1578 7.78694 63.0793 7.69081H62.9881L63.0793 7.43447C62.9881 7.46251 62.899 7.49054 62.8078 7.52058V7.60671H62.6275C62.5978 7.66278 62.5681 7.72086 62.5363 7.77694H62.1735V7.86304H62.0823C62.0378 7.82499 62.1078 7.72487 61.9911 7.77694L61.8999 7.94717L61.4481 8.0333V7.86304H61.3569L61.2657 8.0333H61.1744L61.0832 7.86304C60.958 7.80897 60.8287 7.821 60.7205 7.77694C60.7141 8.1074 60.7353 8.12943 60.4489 8.20353V8.0333H60.2686V8.20353H59.8168L59.6365 8.63012H59.4562V8.54399C59.4265 8.53999 59.2482 8.62011 59.0934 8.63012C59.1443 8.42183 59.1889 8.44185 59.2737 8.28763H59.0934L59.0022 8.54399L58.3679 8.45789C58.2725 8.50195 58.3022 8.65013 58.3679 8.71422H58.1876C58.1091 8.80235 58.0306 8.83241 57.9161 8.88448V8.62812C57.5109 8.66016 57.6531 8.68219 57.2818 8.62812V8.71422C57.3858 8.81236 57.3179 8.71424 57.373 8.88448H56.9212C56.8978 8.88047 56.8915 8.77432 56.7409 8.79835V8.88448H56.5605C56.5309 8.9706 56.5012 9.0547 56.4693 9.14082C56.3675 9.06872 56.4566 9.15084 56.3781 9.05471C56.2763 8.98261 56.3654 9.06471 56.2869 8.96858C56.4057 8.89848 56.393 8.9085 56.4672 8.79835H56.1045C56.0239 8.88847 55.9454 8.9105 55.833 8.96858V9.05471L55.5614 8.96858V9.05471C55.6802 9.12481 55.6675 9.11479 55.7418 9.22494H55.5614C55.4554 9.10878 55.396 9.09477 55.1987 9.05471V9.22494C55.029 9.16486 54.8444 9.14081 54.5644 9.13881C54.4647 8.96056 54.418 8.98662 54.3841 8.71224H54.2038V8.54199C54.102 8.61409 54.191 8.53198 54.1125 8.62812H54.0213V8.79835L53.8411 8.88448V9.14082H53.7498C53.6586 9.02666 53.5695 8.91251 53.4783 8.79835H53.3871C53.2683 8.60809 53.4358 8.56002 53.2067 8.37176C53.2364 8.2576 53.2662 8.14345 53.298 8.02929C53.298 8.02929 53.1813 7.98724 53.2067 7.85906H53.298V7.43247C53.298 7.43247 53.3531 7.43245 53.3892 7.26221C53.6395 7.20013 53.5907 7.2382 53.6607 7.00587H53.8411V7.09198L54.1125 7.00587V6.83562L54.5644 6.92175C54.6302 6.68542 54.5899 6.73148 54.8359 6.66539V6.32292H54.9271L54.8359 6.15269H54.9271C55.0035 6.05656 54.9165 6.14066 55.0184 6.06656V5.98045C55.1053 5.82223 55.1096 6.15069 55.1096 6.15069L55.3811 6.23679V6.15069H55.2899C55.3196 6.06457 55.3493 5.98044 55.3811 5.89432H55.9242V5.98045C56.1363 5.95242 56.3463 5.92437 56.5584 5.89432V5.72409H56.9212V5.55386C56.6115 5.54986 56.2954 5.49577 56.1066 5.46773C56.0472 5.55385 55.9857 5.63797 55.9263 5.72409L55.3832 5.8102C55.4341 5.60191 55.4787 5.62195 55.5635 5.46773H55.2008V5.55386H55.292C55.396 5.68805 55.0693 5.63396 55.0205 5.63997V5.89633H54.9293V5.98246C54.7787 6.0105 54.6281 6.03852 54.4775 6.06856C54.5072 5.92637 54.5368 5.78417 54.5687 5.64197C54.348 5.69004 54.3671 5.73009 54.2059 5.8122V5.89833C54.0256 5.84226 53.8432 5.78418 53.6629 5.7281V5.81421C53.5589 5.91234 53.6268 5.8142 53.5716 5.98444C53.4232 6.01048 53.1771 6.16271 53.1198 6.15469V6.06856H52.8482C52.7231 6.04453 52.8822 5.95642 52.757 5.98246L52.6658 6.15269H52.4855L52.5767 5.98246H52.4855C52.3816 6.0806 52.4855 6.01649 52.3052 6.06856V6.2388C52.1546 6.26683 52.004 6.29488 51.8534 6.32493C51.8364 6.32092 51.8236 6.20275 51.673 6.2388V6.32493H51.4928V6.41103C51.4037 6.39301 51.3867 6.18072 51.3124 6.2408C51.1639 6.35696 51.4121 6.40503 51.0409 6.49716V6.75352H50.9497V6.58329H50.8585C50.8288 6.63937 50.799 6.69745 50.7672 6.75352H50.4045C50.2963 6.56726 50.2051 6.47111 49.9527 6.41103V6.49716H49.5899L49.4987 6.66739L49.2272 6.58129V6.83762H49.0469C48.8241 7.19612 48.8453 6.93777 48.595 7.09398C48.6247 7.15006 48.6544 7.20814 48.6863 7.26422C48.5059 7.23618 48.3235 7.20815 48.1432 7.17811C48.1347 7.18011 48.0965 7.32631 47.9629 7.34834V7.26221H47.6001L47.5089 7.17611V7.26221C47.2522 7.41843 47.2438 7.50856 46.7856 7.51857C46.6837 7.37237 46.7283 7.40242 46.514 7.34834V7.51857H46.3337V7.43247C46.2192 7.39842 46.0961 7.67478 46.0622 7.6888C45.8755 7.76691 45.8034 7.61471 45.6994 7.6027V7.6888C45.5191 7.71684 45.3367 7.74489 45.1564 7.77493L45.0652 7.51857C44.8148 7.58066 44.8636 7.54261 44.7936 7.77493C44.5221 7.80297 44.2506 7.83102 43.979 7.86106L43.8878 8.03129H43.2536V8.1174C43.0181 8.18349 42.8314 8.12542 42.6193 8.20353C42.5684 7.99524 42.5239 8.01528 42.439 7.86106C42.3372 7.93316 42.4262 7.85104 42.3478 7.94717C42.0296 8.15946 42.3266 8.25159 41.8959 8.37376V8.45989H41.4441L41.3529 8.63012C41.1513 8.70623 41.0983 8.52396 40.9901 8.54399V8.63012C40.8098 8.66417 40.8756 8.59206 40.8098 8.54399H40.7186V8.71422C40.6274 8.68618 40.5383 8.65816 40.4471 8.62812V8.54199L40.1755 8.62812V8.54199H39.8128L39.7216 8.37176C39.5943 8.37176 39.6791 8.34573 39.6303 8.45789C39.5179 8.35975 39.5964 8.45787 39.5391 8.28763H39.9019V8.1174H39.5391C39.4543 7.96319 39.414 7.98322 39.3589 7.77493H39.5391C39.4861 7.42245 39.4415 7.36637 39.2676 7.00587C39.1488 7.04994 39.2931 7.03991 39.1764 7.09198H38.9049V7.17811C39.0873 7.22618 38.9834 7.16808 39.0852 7.26422C38.8264 7.2562 38.697 7.24821 38.5421 7.17811V7.26422C38.6461 7.36235 38.5782 7.26424 38.6333 7.43447C38.19 7.43447 38.1179 7.5326 37.8188 7.6047V7.34834H37.7275V7.43447H37.6363L37.456 7.34834V7.6047H37.1845V7.43447H37.0933V7.6047H37.1845V7.86106C36.8833 7.85906 36.7751 7.81699 36.5502 7.77493V7.94516C36.336 7.93515 36.3211 7.91914 36.1874 7.85906V7.94516C36.0835 8.0433 36.1514 7.94516 36.0962 8.1154C35.619 8.06533 35.8884 7.93115 35.462 8.02929V7.85906C35.3177 7.83903 35.3474 8.00526 35.2816 8.02929C34.9422 8.14946 34.6623 8.07736 34.3759 8.02929V8.28565L34.1956 8.19952V8.28565C34.0131 8.43185 34.2041 8.41581 34.1044 8.54199H34.0131C33.7946 8.23356 33.1667 8.48992 32.7467 8.54199V8.79835C32.577 8.75429 32.2524 8.49192 32.1124 8.54199V8.62812H32.0212V8.88448C31.7497 8.91252 31.4781 8.94054 31.2066 8.97058V9.14082H31.2979C31.2682 9.22694 31.2384 9.31106 31.2066 9.39718C30.9924 9.38716 30.9775 9.37115 30.8439 9.31107V9.39718H30.7527V9.14082H30.5723V9.39718H30.4811V9.31107H30.1184V9.39718L29.9381 9.31107V9.39718C29.7387 9.45526 29.639 9.42322 29.4863 9.48331V9.73964C29.0344 9.80373 29.0386 9.81575 28.6717 9.56941L28.5805 9.82577H28.2177V9.9119C28.0968 9.93994 27.9759 9.96797 27.855 9.99801V9.82778H27.6746C27.6195 10.1282 27.577 10.2203 27.2228 10.2544V10.1682C27.3267 10.0701 27.2589 10.1682 27.314 9.99801C27.1931 9.96997 27.0722 9.94195 26.9513 9.9119V9.82577C26.7795 9.7757 26.8261 9.87385 26.771 9.9119L26.4994 9.82577V9.9119H26.5906V10.2544H26.4104V10.0841C26.1622 10.2203 26.247 10.2944 25.8673 10.3405C25.8015 10.5768 25.8418 10.5307 25.5958 10.5968C25.3518 10.8692 25.0675 10.8031 24.6899 10.7671V10.5968H25.0527C25.023 10.5107 24.9933 10.4266 24.9615 10.3405C24.8236 10.3905 24.813 10.4066 24.5987 10.4266C24.5839 10.1943 24.569 9.9119 24.4184 9.82778V9.74165C24.4842 9.65152 24.4884 9.81577 24.5987 9.65554H24.4184C24.2572 9.56542 24.5987 9.56941 24.5987 9.56941C24.5478 9.36112 24.5033 9.38116 24.4184 9.22695H24.6899C24.7642 9.3391 24.7536 9.32708 24.8703 9.39718C24.6497 8.94856 24.5372 8.53398 25.3221 8.54199C25.426 8.64012 25.3221 8.57605 25.5024 8.62812C25.5321 8.48592 25.5618 8.34372 25.5936 8.20153H25.4133V8.37176H25.233L25.3242 8.1154H25.233C25.1651 8.27762 25.2967 8.20354 25.1418 8.28565C25.023 8.18551 25.25 8.15545 25.0506 8.1154V8.28565L24.8703 8.19952V8.28565H24.9615C24.9021 8.39981 24.8405 8.51396 24.7811 8.62812H24.6899V8.37176H24.5987V8.45789H24.3272C24.2678 8.54401 24.2063 8.6281 24.1469 8.71422H23.9666V8.80035H23.6951V8.88648H23.5147V8.97259C23.1499 9.09476 22.8762 8.85443 22.7002 8.97259C22.4541 9.1228 22.4138 9.44526 22.3374 9.48531H21.5228C21.4189 9.38718 21.5228 9.45125 21.3425 9.39918V9.22895H21.2513C21.281 9.34311 21.3107 9.45726 21.3425 9.57142H21.2513C21.0795 9.71161 20.7719 9.66154 20.528 9.74165V9.82778C20.3943 9.86783 20.1737 9.73564 20.1652 9.74165V9.9119H19.7134C19.6221 10.1122 19.533 10.3105 19.4418 10.5107H19.3506V10.2544H19.1703C19.1512 10.4567 19.1321 10.4667 19.0791 10.5968C18.9773 10.5247 19.0664 10.6069 18.9879 10.5107C18.8839 10.4126 18.9518 10.5107 18.8966 10.3405C19.0515 10.2443 19.0197 10.2864 19.077 10.0841H18.8054V10.5968C18.6548 10.5688 18.5042 10.5408 18.3536 10.5107V10.4246C18.4576 10.3265 18.3897 10.4246 18.4448 10.2544H18.2645L18.3557 10.0841H18.2645C18.1605 10.1823 18.2645 10.1182 18.0842 10.1702C18.0609 10.3365 17.9951 10.3365 17.9929 10.3405C17.8487 10.7611 18.0736 10.8873 17.5411 10.9393V10.7691C17.416 10.8111 17.3417 10.8031 17.1784 10.8552V10.9413C17.0872 10.9133 16.9981 10.8852 16.9069 10.8552V10.9413H16.7265L16.8178 11.1116H16.2747V11.1977C16.3787 11.2958 16.3108 11.1977 16.3659 11.3679C16.2195 11.3619 15.7316 11.2818 15.7316 11.2818C15.7019 11.3379 15.6723 11.3959 15.6404 11.452C15.3944 11.5782 15.3519 11.4741 15.1886 11.452V11.5382H15.0083L14.917 11.7084C14.7664 11.7364 14.6158 11.7645 14.4652 11.7945V11.8806C14.3443 11.8526 14.2234 11.8245 14.1025 11.7945C13.9519 11.8225 13.8012 11.8506 13.6506 11.8806V11.9668C13.3812 12.0389 13.2837 11.8305 13.1076 11.7965V11.8826C13.0037 11.9808 13.0715 11.8826 13.0164 12.0529H12.6536L12.5624 11.9668C12.5157 11.9868 12.5369 12.119 12.3821 12.137V12.0509L12.1106 11.9647V12.0509C12.0193 12.0789 11.9303 12.1069 11.8391 12.137V11.9668C11.6757 12.0469 11.6969 12.0849 11.4763 12.137V12.3072H11.3851V12.0509C10.876 12.0448 10.4878 11.8466 10.299 11.5382L10.4793 11.452C10.4856 11.3319 10.3902 11.4881 10.3881 11.3659C10.4178 11.2237 10.4475 11.0815 10.4793 10.9393H10.6596C10.4602 10.4066 10.8823 10.1102 10.9311 9.57142C11.2112 9.52335 11.5357 9.48531 11.926 9.48531V9.22895H12.1976C12.2591 8.9786 12.2973 8.94857 12.5603 8.88648V8.71623C13.0885 8.60207 12.6112 8.49993 13.1034 8.71623V8.546C13.3049 8.50995 13.413 8.46389 13.5552 8.37577V8.28964C13.7355 8.27361 13.6188 8.41982 13.7355 8.28964C13.8395 8.1915 13.7716 8.28964 13.8267 8.11941H14.007C14.111 7.77292 14.1916 7.94917 14.3698 7.69281C14.5501 7.74889 14.7325 7.80697 14.9128 7.86304V7.77694H15.0041V7.43447C14.4843 7.44449 14.3401 7.50457 13.9179 7.43447C13.867 7.70284 13.8288 7.79297 13.5552 7.86106V7.69081H13.3749V7.94717C13.1903 8.0393 13.0185 8.19953 12.7406 8.20353L12.6494 8.1174C12.3227 8.34972 12.6791 8.51595 12.0151 8.54399L12.1063 8.20153H11.926V8.28763H12.0172C12.0236 8.31767 11.8624 8.59606 11.8369 8.71422H11.6566V8.54399H11.4763V8.71422L11.3851 8.62812C11.2048 8.6842 11.0223 8.74227 10.842 8.79835C10.8123 8.85443 10.7826 8.9125 10.7508 8.96858C10.632 9.01665 10.7699 8.90451 10.6596 8.88247C10.5684 8.91051 10.4793 8.93854 10.3881 8.96858V8.88247H10.1165V8.79634H10.0253V8.88247C10.0253 8.88247 9.77503 8.80436 9.6626 8.79634C9.6032 8.93854 9.54166 9.08074 9.48227 9.22294C9.40378 9.1969 9.28287 9.05872 9.11953 9.13683V9.22294H9.02833V9.4793H8.93708V9.22294H8.84587V9.5654C8.86072 9.68557 8.94132 9.52936 8.93708 9.65153L8.84587 9.73766C8.6889 9.66356 8.81407 9.72763 8.75467 9.56741H8.66342V9.73766L8.2116 9.82377L8.3028 9.65354H8.2116C8.0716 9.80174 8.04827 9.73765 7.84887 9.82377V9.9099C7.71522 9.95797 7.5031 9.93192 7.48613 9.82377H7.39488V10.0801H7.30367V9.994H7.21247V10.1643H7.03214V10.3345C6.80304 10.2664 6.47213 10.3285 6.03726 10.3345C6.00756 10.5348 5.97787 10.733 5.94606 10.9333H5.76572V10.7631C5.62784 10.8132 5.61724 10.8292 5.40299 10.8492V11.1056C5.22268 11.1616 5.04023 11.2197 4.85992 11.2758V11.3619H4.67964V11.448C4.23628 11.6062 4.13232 11.3158 3.86503 11.7044H3.77383L3.86503 11.7905C3.83534 11.8766 3.80565 11.9607 3.77383 12.0468C3.65292 12.0188 3.53196 11.9908 3.41104 11.9607V12.2171C3.09073 12.2491 3.13531 12.3232 2.86803 12.3873V12.2171H2.77677V12.4734C2.59646 12.5015 2.41407 12.5295 2.23376 12.5596L2.1425 12.8159H1.96222C1.93253 12.902 1.90279 12.9861 1.87097 13.0723H1.77977V12.8159H1.68857L1.59736 12.9862L1.32583 12.9V12.8139C1.14976 12.7719 1.20489 12.862 1.1455 12.9L0.782761 12.8139L0.873963 12.7278V12.6417H0.782761V12.3853H0.873963V12.2992H0.693683C0.691561 12.0148 0.646976 11.9127 0.602429 11.7004H0.422148C0.260929 11.6102 0.602429 11.6143 0.602429 11.6143C0.632127 11.5281 0.661863 11.444 0.693683 11.3579C1.16037 11.3779 1.14125 11.5201 1.1455 11.0154C1.29611 10.9874 1.44675 10.9593 1.59736 10.9293V10.5868L1.8689 10.5007C1.97284 10.4026 1.86887 10.4667 2.04918 10.4146V10.5848H2.22951V10.4146C2.32073 10.4426 2.40983 10.4707 2.50105 10.5007V10.3305H2.40979L2.50105 10.0741H2.59225V9.98801H2.86378C2.86166 9.86784 2.88284 9.96397 2.77253 9.90188V9.81575H3.04406V9.72964H3.13532L3.22652 9.89988C3.52774 9.95595 3.82897 10.014 4.13232 10.0701C4.14081 9.74966 4.21502 9.67756 4.3126 9.47128C4.40382 9.49932 4.49292 9.52737 4.58414 9.55741V9.38718H4.85567L4.76447 9.55741H4.85567V9.47128H5.036C5.13571 9.39718 5.07628 9.26499 5.21628 9.21492C5.29689 9.29102 5.25025 9.35914 5.39662 9.38517C5.45601 9.29905 5.51755 9.21493 5.57695 9.12881H5.84843V9.04268H5.93968V8.70022H6.11997V8.87045C6.50604 8.8364 6.52941 8.6942 6.84337 8.61408C6.91549 8.3377 7.01092 8.31969 7.02365 7.93116H7.83825V8.01726L8.10978 7.93116V7.84503C8.24555 7.81098 8.23279 7.99723 8.29006 8.01526L8.5616 7.92915V8.09938H8.65285V7.92915C8.75468 7.85705 8.66557 7.93915 8.74405 7.84302L8.56372 7.92915V7.58666H8.65498V7.24419H9.10679L9.01559 7.50055H9.28712C9.43137 7.33432 9.6159 7.27224 9.73894 7.07396C9.83228 7.14806 9.86412 7.22217 9.91927 7.33032C10.0105 7.27425 10.0996 7.21617 10.1908 7.16009V7.07396H10.3711L10.4623 6.90373C10.5217 6.93177 10.5832 6.9598 10.6426 6.98984C10.7635 6.90372 10.5323 6.84564 10.7338 6.81961V6.90574C10.825 6.93377 10.9141 6.9618 11.0054 6.99184V6.82161C10.9014 6.72347 10.9693 6.82162 10.9142 6.65138C11.1475 6.69143 11.3151 6.73348 11.6375 6.73748C11.7669 6.55523 11.8751 6.56526 12.0894 6.48115L11.9982 6.22479H12.3609V6.13866H12.4521V6.22479H12.6324V6.05456C13.1458 6.04054 12.9697 5.92237 13.2667 5.79819H13.6294V5.71206C13.7334 5.61393 13.6655 5.71207 13.7206 5.54183H13.9922V5.71206H14.1725C14.2468 5.43768 14.2786 5.46374 14.6243 5.45573V5.62596C14.8365 5.53383 14.9192 5.42968 15.1674 5.3696V5.11324H15.3477V4.94301C15.825 4.94501 16.0626 4.84287 16.4338 4.77277C16.4996 5.0091 16.4593 4.96304 16.7053 5.02914C16.6756 4.94302 16.6459 4.85889 16.6141 4.77277H16.7053C16.805 4.65261 17.0214 4.52244 17.1572 4.43031V4.34418H17.4287V4.43031H17.5199V4.68664H17.6112C17.6409 4.34617 17.7045 4.2921 18.063 4.26005V4.34618C18.1839 4.38624 18.029 4.2921 18.1542 4.26005C18.5169 4.20397 18.8776 4.1459 19.2403 4.08982C19.1491 3.82345 19.1894 3.95964 19.2403 3.66323C19.4609 3.61516 19.4397 3.57511 19.603 3.493V3.57913H19.6942C19.7664 3.7053 19.603 3.74936 19.603 3.74936L19.6942 3.91959C19.9021 3.75536 19.8088 3.66324 20.1461 3.57712C20.1758 3.491 20.2055 3.40688 20.2373 3.32076C20.4961 3.4209 20.6637 3.48298 21.0519 3.49099C21.1431 3.32076 21.2322 3.14853 21.3235 2.9783H21.5037L21.595 3.14853L22.2293 2.9783V2.89217H22.8635L22.9547 2.72193H23.1351C23.1923 2.48761 23.2538 2.52766 23.3153 2.29534C23.4363 2.32338 23.5572 2.35141 23.6781 2.38145V2.29534C23.7778 2.21924 23.6972 2.30935 23.7693 2.20921H23.6781C23.589 2.06701 23.8075 2.13713 23.8584 2.12311V2.03698C23.9496 2.06501 24.0387 2.09306 24.1299 2.12311C24.1002 2.17918 24.0705 2.23726 24.0387 2.29334H24.1299C24.4142 1.98491 24.6624 2.29332 25.0357 2.37944C25.0973 2.26729 25.1481 2.28732 25.216 2.20921L25.1248 2.03898H25.3052V1.95288L25.4854 1.86674C25.4982 1.74658 25.4664 1.88075 25.3942 1.78061L25.4854 1.61038C25.7909 1.67047 25.8333 1.79665 26.1197 1.86674V1.61038C26.3679 1.66446 26.3255 1.72253 26.5716 1.78061V1.52428C26.6713 1.55232 26.7498 1.67648 26.9343 1.61038V1.52428H27.2058V1.43815C27.3862 1.29595 27.5686 1.15375 27.7489 1.01156V0.841325H27.9292V0.92743C28.0544 0.951464 27.9122 0.909419 28.0204 0.841325L28.2007 0.92743L28.1095 1.18379C28.6144 1.21984 28.8711 1.33601 29.1956 1.01356C29.0174 0.917427 28.9835 0.893402 28.9241 0.671094L29.1956 0.584964C29.2253 0.641041 29.255 0.699117 29.2869 0.755195H29.4671V0.412728C29.6644 0.448778 29.7259 0.468801 29.8299 0.582959L30.373 0.412728L30.2817 0.242497H30.7336V0.0722656L30.7781 0.0922885ZM29.8744 1.37407V1.5443H29.9657V1.37407H29.8744ZM110.516 1.5443V1.71453H110.607V1.5443H110.516ZM30.146 1.80066V1.97089H30.2372V1.80066H30.146ZM28.8795 1.97089V2.14112H28.9707V1.97089H28.8795ZM108.253 2.22725C108.357 2.32539 108.253 2.26129 108.433 2.31336C108.329 2.21522 108.433 2.27933 108.253 2.22725ZM101.104 2.31336C101.208 2.4115 101.104 2.34742 101.284 2.39949C101.18 2.30135 101.284 2.36543 101.104 2.31336ZM24.8066 2.56972C24.8151 2.86012 24.8066 2.88015 24.987 2.99631V2.91018H24.8957V2.56772H24.8045L24.8066 2.56972ZM99.7463 2.65583C99.8502 2.75396 99.7463 2.68988 99.9266 2.74196C99.8226 2.64382 99.9266 2.7079 99.7463 2.65583ZM89.88 2.73995V2.91018H89.9712V2.73995H89.88ZM96.2164 2.82608L96.1252 2.99631C96.1252 2.99631 96.3882 2.86013 96.3055 2.82608H96.2143H96.2164ZM105.537 2.82608H105.718C105.641 2.92222 105.728 2.83809 105.627 2.91219V2.99832C105.523 2.90018 105.59 2.99832 105.535 2.82809L105.537 2.82608ZM25.4388 2.91219C25.5427 3.01032 25.4388 2.94625 25.6191 2.99832C25.5152 2.90018 25.6191 2.96426 25.4388 2.91219ZM76.2145 2.99631V3.16654H76.3057V2.99631H76.2145ZM26.4358 3.33878V3.42491H26.3446C26.1728 3.49901 26.5249 3.51102 26.5249 3.51102C26.6013 3.41488 26.5143 3.49901 26.6161 3.42491C26.5122 3.32677 26.6161 3.39085 26.4358 3.33878ZM95.9449 3.33878V3.42491H95.8536C95.6818 3.49901 96.034 3.51102 96.034 3.51102C96.1103 3.41488 96.0233 3.49901 96.1252 3.42491C96.0212 3.32677 96.1252 3.39085 95.9449 3.33878ZM119.114 3.33878V3.42491H119.023C118.851 3.49901 119.203 3.51102 119.203 3.51102C119.279 3.41488 119.192 3.49901 119.294 3.42491C119.19 3.32677 119.294 3.39085 119.114 3.33878ZM58.474 3.42491V3.59514H58.5652V3.42491H58.474ZM36.1196 3.50901V3.67927H36.2108V3.50901H36.1196ZM59.2886 3.50901V3.67927H59.3798V3.50901H59.2886ZM76.0321 3.50901C76.1848 3.69327 76.2124 3.67927 76.2124 3.67927C76.2782 3.59715 76.0554 3.52904 76.0321 3.50901ZM99.2032 3.50901C99.3559 3.69327 99.3835 3.67927 99.3835 3.67927C99.4493 3.59715 99.2265 3.52904 99.2032 3.50901ZM105.629 3.50901V3.67927H105.72V3.50901H105.629ZM122.372 3.50901C122.525 3.69327 122.552 3.67927 122.552 3.67927C122.618 3.59715 122.395 3.52904 122.372 3.50901ZM22.995 3.68125H22.8147V3.76738H22.9059V3.85351H22.9971V3.68325L22.995 3.68125ZM24.1724 4.19397H24.3527C24.323 4.07981 24.2933 3.96566 24.2614 3.8515H24.1702V4.19397H24.1724ZM93.6814 4.19397H93.8617L93.7705 3.8515H93.6793V4.19397H93.6814ZM116.85 4.19397H117.031L116.94 3.8515H116.848V4.19397H116.85ZM23.1775 4.02173V4.3642H23.2687V4.02173H23.1775ZM46.3464 4.02173V4.3642H46.4376V4.02173H46.3464ZM92.6865 4.02173V4.3642H92.7777V4.02173H92.6865ZM106.08 4.19397V4.45033H106.172C106.263 4.29612 106.371 4.19596 106.534 4.10784V4.02173H106.354C106.252 4.16794 106.297 4.13789 106.083 4.19196L106.08 4.19397ZM115.855 4.02173V4.3642H115.947V4.02173H115.855ZM63.9958 4.10784V4.27809H64.087V4.10784H63.9958ZM87.1647 4.27809H87.3451V4.19196C87.2432 4.11986 87.3323 4.20199 87.2538 4.10586H87.1626V4.27609L87.1647 4.27809ZM36.5714 4.19397V4.45033H36.6626V4.19397H36.5714ZM59.7404 4.19397V4.45033H59.8316V4.19397H59.7404ZM99.3835 4.53443C99.4493 4.77076 99.409 4.7247 99.655 4.79079C99.7123 4.55647 99.7738 4.59652 99.8353 4.3642H99.7441C99.6296 4.52643 99.6529 4.50639 99.3814 4.53443H99.3835ZM100.198 4.3642V4.53443C100.436 4.52842 100.506 4.5004 100.65 4.44833V4.3622H100.198V4.3642ZM52.4112 4.45033V4.70669H52.5025V4.62056C52.6043 4.54846 52.5152 4.63056 52.5937 4.53443L52.4134 4.44833L52.4112 4.45033ZM75.5803 4.45033V4.70669H75.6715V4.62056C75.7733 4.54846 75.6842 4.63056 75.7627 4.53443L75.5824 4.44833L75.5803 4.45033ZM98.7492 4.45033V4.70669H98.8404V4.62056C98.9423 4.54846 98.8532 4.63056 98.9316 4.53443L98.7514 4.44833L98.7492 4.45033ZM121.92 4.45033V4.70669H122.012V4.62056C122.113 4.54846 122.024 4.63056 122.103 4.53443L121.922 4.44833L121.92 4.45033ZM63.9046 4.53443V4.70469H63.9958V4.53443H63.9046ZM105.9 4.53443C106.053 4.71869 106.08 4.70469 106.08 4.70469C106.146 4.62257 105.924 4.55446 105.9 4.53443ZM58.0222 4.70669V4.96303H57.8418V5.13326L58.0222 5.04715L58.1134 4.79079C58.2152 4.71869 58.1261 4.80082 58.2046 4.70469H58.0243L58.0222 4.70669ZM61.8235 4.70669V4.87692H61.9147V4.70669H61.8235ZM84.9925 4.70669V4.87692H85.0837V4.70669H84.9925ZM99.2032 4.87692H98.9316V5.04715H99.112C99.1968 4.89294 99.2371 4.91298 99.2923 4.70469H99.2011V4.87492L99.2032 4.87692ZM108.161 4.70669V4.87692H108.253V4.70669H108.161ZM50.5106 5.04715V4.87692C50.4087 4.94902 50.4978 4.8669 50.4194 4.96303H50.3282C50.4321 5.06116 50.3281 4.99709 50.5084 5.04916L50.5106 5.04715ZM73.4081 4.87692V5.13326H73.4993C73.6032 5.03512 73.4992 5.09923 73.6795 5.04715V4.87692H73.4081ZM86.2589 5.04715V4.87692H85.9874V4.96303H86.0786C86.1826 5.06116 86.0786 4.99709 86.2589 5.04916V5.04715ZM96.8486 5.04715V4.87692C96.7467 4.94902 96.8358 4.8669 96.7573 4.96303H96.6661C96.77 5.06116 96.6661 4.99709 96.8464 5.04916L96.8486 5.04715ZM103.999 4.87692V5.04715C104.101 4.97505 104.012 5.05716 104.091 4.96102H104.182C104.078 4.86289 104.182 4.92699 104.002 4.87492L103.999 4.87692ZM116.85 4.96303V5.13326H116.942V4.96303H116.85ZM56.936 5.30352H57.1164C57.04 5.20738 57.1269 5.29149 57.0251 5.21738V5.04715H56.9339V5.30352H56.936ZM31.4124 5.13326V5.30352H31.5036V5.13326H31.4124ZM54.5835 5.13326V5.38962H54.6747V5.13326H54.5835ZM100.921 5.13326V5.30352H101.013V5.13326H100.921ZM118.571 5.13326C118.675 5.2314 118.607 5.13328 118.662 5.30352H118.571V5.13326ZM124.093 5.13326V5.30352H124.184V5.13326H124.093ZM18.7418 5.21939V5.38962H18.833V5.21939H18.7418ZM41.9107 5.21939V5.38962H42.002V5.21939H41.9107ZM88.2509 5.21939V5.38962H88.3421V5.21939H88.2509ZM111.42 5.21939V5.38962H111.511V5.21939H111.42ZM47.5238 5.30352C47.5323 5.32154 47.6532 5.61393 47.7041 5.55985V5.47375H47.7953C47.7168 5.38562 47.6383 5.35559 47.5238 5.30352ZM70.873 5.73211H71.0534V5.56186H70.873L70.9643 5.39163C70.8731 5.36359 70.784 5.33556 70.6928 5.30552V5.39163C70.8158 5.49176 70.8306 5.54783 70.873 5.73409V5.73211ZM46.9807 5.38962L47.0719 5.64598H47.1631C47.108 5.4417 47.1335 5.48776 46.9828 5.38962H46.9807ZM70.1497 5.38962C70.1794 5.47574 70.2091 5.55986 70.2409 5.64598H70.3321C70.277 5.4417 70.3024 5.48776 70.1518 5.38962H70.1497ZM71.8701 5.38962H71.6898C71.7661 5.48575 71.6791 5.40165 71.781 5.47575V5.56186H71.8722V5.39163L71.8701 5.38962ZM107.621 5.73211H107.801V5.56186H107.892C107.862 5.50578 107.833 5.4477 107.801 5.39163C107.699 5.46373 107.788 5.38162 107.71 5.47776H107.618V5.73409L107.621 5.73211ZM32.0466 5.47575C32.1506 5.57389 32.0467 5.50978 32.227 5.56186C32.123 5.46372 32.227 5.52782 32.0466 5.47575ZM47.4325 5.47575V5.73211H47.5238V5.47575H47.4325ZM70.6015 5.47575V5.73211H70.6928V5.47575H70.6015ZM72.3219 5.47575H72.1416C72.2179 5.57188 72.131 5.48775 72.2328 5.56186V5.64799H72.324V5.47776L72.3219 5.47575ZM82.8203 5.47575V5.73211H82.9115V5.47575H82.8203ZM105.991 5.47575V5.73211H106.083V5.47575H105.991ZM14.3973 5.55985V5.73011H14.4886V5.55985H14.3973ZM18.6506 5.55985V5.73011H18.7418V5.55985H18.6506ZM41.8217 5.55985V5.73011H41.9129V5.55985H41.8217ZM47.8844 5.73211V5.56186C47.7826 5.63396 47.8717 5.55185 47.7932 5.64799H47.7019C47.8059 5.74612 47.702 5.68202 47.8823 5.73409L47.8844 5.73211ZM64.9906 5.55985V5.73011H65.0819V5.55985H64.9906ZM71.9592 5.55985V6.07257H72.0504V5.55985H71.9592ZM83.5436 5.55985V5.73011H83.6349V5.55985H83.5436ZM83.9064 5.55985V5.73011H83.9976V5.55985H83.9064ZM88.1596 5.55985V5.73011H88.2509V5.55985H88.1596ZM106.715 5.55985V5.73011H106.806V5.55985H106.715ZM107.078 5.55985V5.73011H107.169V5.55985H107.078ZM111.331 5.55985V5.73011H111.422V5.55985H111.331ZM16.3893 5.64598C16.4932 5.74412 16.3892 5.68004 16.5696 5.73211C16.4656 5.63398 16.5696 5.69805 16.3893 5.64598ZM39.5582 5.64598C39.6622 5.74412 39.5582 5.68004 39.7385 5.73211C39.6346 5.63398 39.7386 5.69805 39.5582 5.64598ZM109.067 5.64598C109.171 5.74412 109.067 5.68004 109.248 5.73211C109.144 5.63398 109.248 5.69805 109.067 5.64598ZM45.9837 5.81621L46.0749 6.07257H46.1661C46.111 5.86829 46.1364 5.91435 45.9858 5.81621H45.9837ZM69.1548 5.81621C69.1845 5.90233 69.2142 5.98645 69.246 6.07257H69.3372C69.2821 5.86829 69.3075 5.91435 69.1569 5.81621H69.1548ZM75.0372 5.90234V6.07257H75.1284V5.90234H75.0372ZM17.836 6.32894C17.7702 6.09261 17.8106 6.13867 17.5645 6.07257C17.5942 6.18673 17.6239 6.30088 17.6557 6.41504H17.9272V6.50117C18.0545 6.51719 17.8933 6.44108 18.0184 6.41504H18.3812V6.07257C18.2793 6.00047 18.3685 6.08258 18.29 5.98644H18.1096V6.07257H18.2009C18.2306 6.22679 17.976 6.29689 17.8381 6.32894H17.836ZM29.6029 5.98845L29.5117 6.1587C29.5117 6.1587 29.7747 6.0225 29.692 5.98845H29.6008H29.6029ZM99.112 5.98845L99.0208 6.1587C99.0208 6.1587 99.2838 6.0225 99.2011 5.98845H99.1099H99.112ZM14.1258 6.41504H14.3061V6.32894C14.2043 6.25684 14.2934 6.33894 14.2149 6.24281H14.1237V6.41304L14.1258 6.41504ZM17.293 6.24481V6.41504C17.3948 6.34294 17.3057 6.42507 17.3842 6.32894H17.4754C17.3714 6.2308 17.4754 6.29488 17.2951 6.24281L17.293 6.24481ZM37.2948 6.41504H37.4751V6.32894C37.3733 6.25684 37.4624 6.33894 37.3839 6.24281H37.2927V6.41304L37.2948 6.41504ZM40.464 6.24481V6.41504C40.5659 6.34294 40.4768 6.42507 40.5553 6.32894H40.6465C40.5425 6.2308 40.6465 6.29488 40.4662 6.24281L40.464 6.24481ZM63.633 6.24481V6.41504C63.7348 6.34294 63.6457 6.42507 63.7242 6.32894H63.8154C63.7115 6.2308 63.8155 6.29488 63.6351 6.24281L63.633 6.24481ZM106.806 6.41504H106.986V6.32894C106.884 6.25684 106.974 6.33894 106.895 6.24281H106.804V6.41304L106.806 6.41504ZM109.973 6.24481V6.41504C110.075 6.34294 109.986 6.42507 110.064 6.32894H110.156C110.052 6.2308 110.156 6.29488 109.975 6.24281L109.973 6.24481ZM15.8462 6.75753V6.58728L15.5747 6.67341L15.6659 7.01587H15.5747V7.102C15.3625 7.13004 15.1525 7.15807 14.9404 7.18811V7.35837C15.0592 7.37439 15.5025 7.4625 15.5747 7.44447L15.6659 7.27424L15.9374 7.36037C15.9671 7.21817 15.9968 7.07597 16.0287 6.93378H16.1199C16.2238 6.83564 16.1198 6.89972 16.3001 6.84765V7.01788H16.752V6.84765H16.9323C16.8729 6.67741 16.8114 6.50516 16.752 6.33493H16.6608L16.5696 6.59129C16.4402 6.67741 16.0477 6.7455 15.8462 6.76152V6.75753ZM26.073 6.32894V6.58527H26.1642V6.32894H26.073ZM13.9455 6.50117V6.6714H14.0367V6.50117H13.9455ZM28.065 6.50117V6.6714H28.1562V6.50117H28.065ZM37.1145 6.50117V6.6714H37.2057V6.50117H37.1145ZM60.2835 6.50117V6.6714H60.3747V6.50117H60.2835ZM87.1647 6.50117C87.2687 6.59931 87.1648 6.5352 87.3451 6.58728C87.2411 6.48914 87.345 6.55324 87.1647 6.50117ZM97.574 6.50117V6.6714H97.6652V6.50117H97.574ZM106.624 6.50117V6.6714H106.715V6.50117H106.624ZM24.3527 6.58527C24.4566 6.68341 24.3887 6.58529 24.4439 6.75553H24.3527V6.58527ZM47.4325 6.6714C47.5344 6.8176 47.4898 6.78756 47.7041 6.84163C47.6256 6.75351 47.5471 6.72347 47.4325 6.6714ZM57.7506 6.84163H57.9309V6.75553C57.8291 6.68343 57.9182 6.76553 57.8397 6.6694H57.7485V6.83963L57.7506 6.84163ZM24.1724 6.75753H24.3527V6.84364C24.1703 6.79557 24.2742 6.85367 24.1724 6.75753ZM49.4245 6.75753C49.5284 6.85567 49.4605 6.75753 49.5157 6.92776H49.4245V6.75753ZM73.7708 7.09799H73.5905V6.75553H73.4993V6.84163C73.3953 6.93977 73.4632 6.84163 73.4081 7.01186C73.4993 7.06794 73.5883 7.12604 73.6795 7.18212C73.7559 7.27825 73.669 7.19412 73.7708 7.26823V7.09799ZM48.6099 6.84163V7.01186H48.7011V6.84163H48.6099ZM18.9221 7.01387V7.18412H19.0133V7.01387H18.9221ZM42.0932 7.01387V7.18412H42.1844V7.01387H42.0932ZM62.0951 7.09799C62.199 7.19613 62.095 7.13205 62.2754 7.18412C62.1714 7.08599 62.2754 7.15007 62.0951 7.09799ZM29.9636 7.35436V7.18412C29.8617 7.25622 29.9508 7.1741 29.8723 7.27023H29.7811C29.885 7.36837 29.7811 7.30429 29.9614 7.35636L29.9636 7.35436ZM76.3036 7.35436V7.18412C76.2018 7.25622 76.2909 7.1741 76.2124 7.27023H76.1212C76.2251 7.36837 76.1212 7.30429 76.3015 7.35636L76.3036 7.35436ZM21.9089 7.52659V7.69682H22.0001V7.52659H21.9089ZM23.7205 7.52659V7.69682H23.8117V7.52659H23.7205ZM16.9323 7.61072V7.78095H17.0235V7.61072H16.9323ZM24.1724 7.78295C24.1681 8.12943 24.13 8.15145 24.3527 8.29565V8.20954C24.2 8.02529 24.4227 7.79697 24.533 7.61072H24.4418C24.3399 7.75692 24.3845 7.72687 24.1702 7.78095L24.1724 7.78295ZM25.8015 7.61072C25.9055 7.70885 25.8015 7.64475 25.9818 7.69682C25.8779 7.59869 25.9818 7.66279 25.8015 7.61072ZM30.5066 7.61072C30.4769 7.69684 30.4472 7.78093 30.4154 7.86705H30.5066V7.78095C30.5448 7.73088 30.6551 7.76894 30.5978 7.61072H30.5066ZM40.1013 7.61072V7.78095H40.1925V7.61072H40.1013ZM70.5124 7.78295C70.5082 8.12943 70.47 8.15145 70.6928 8.29565V8.20954C70.54 8.02529 70.7627 7.79697 70.873 7.61072H70.7818C70.68 7.75692 70.7246 7.72687 70.5103 7.78095L70.5124 7.78295ZM72.1416 7.61072C72.2455 7.70885 72.1416 7.64475 72.3219 7.69682C72.218 7.59869 72.3219 7.66279 72.1416 7.61072ZM31.6839 7.69682V7.86705H31.7752V7.69682H31.6839ZM41.8217 7.86705H42.002V7.78095C41.9002 7.70885 41.9892 7.79095 41.9107 7.69482H41.8195V7.86505L41.8217 7.86705ZM54.855 7.69682V7.86705H54.9463V7.69682H54.855ZM62.9097 7.69682C63.0136 7.79496 62.9457 7.69682 63.0009 7.86705H62.9097V7.69682ZM42.9969 7.78295C42.9672 7.83903 42.9375 7.89711 42.9057 7.95318L43.086 8.03929C43.1517 7.93715 42.895 7.96521 43.086 7.78295H42.9948H42.9969ZM31.8642 7.86705L31.773 8.12341H31.8642V7.95318H31.9554V7.86705H31.8642ZM55.0353 7.86705L54.9441 8.03728C54.9441 8.03728 55.2071 7.9011 55.1244 7.86705H55.0332H55.0353ZM7.51793 8.20954H7.69826V8.12341C7.59644 8.05131 7.6855 8.13342 7.60701 8.03728H7.51581V8.20754L7.51793 8.20954ZM58.474 8.20954H58.2937C58.3701 8.30568 58.2831 8.22155 58.3849 8.29565V8.38178H58.4761V8.21155L58.474 8.20954ZM10.596 8.37978V8.55001H10.6872V8.37978H10.596ZM23.6293 8.37978V8.72224H23.7205V8.63614H23.8117C23.782 8.58006 23.7523 8.52196 23.7205 8.46588H23.8117C23.7078 8.36775 23.8117 8.43185 23.6314 8.37978H23.6293ZM56.936 8.37978V8.55001H57.0272V8.37978H56.936ZM70.6015 8.37978C70.4976 8.47791 70.6015 8.41381 70.4212 8.46588V8.55201H70.6015C70.6312 8.49593 70.6609 8.43786 70.6928 8.38178H70.6015V8.37978ZM28.4256 8.63614L28.3343 8.80637C28.3343 8.80637 28.5974 8.67018 28.5147 8.63614H28.4235H28.4256ZM24.987 8.80837V8.9786H25.0782V8.80837H24.987ZM26.9789 8.80837V8.9786H27.0701V8.80837H26.9789ZM22.7235 8.9786H22.9038C22.8296 9.09076 22.8402 9.07874 22.7235 9.14883V9.23496H22.6323L22.7235 8.9786ZM25.8928 8.9786L25.8015 9.14883C25.8015 9.14883 26.0646 9.01265 25.9818 8.9786H25.8906H25.8928ZM18.9221 9.32107V9.4913H19.0133V9.32107H18.9221ZM11.9536 9.74766V9.91789H12.0448V9.74766H11.9536ZM13.9455 9.83379V10.0901H14.3083V10.2604H14.5798C14.654 10.1482 14.6434 10.1602 14.7601 10.0901V9.83379C14.3825 9.89588 14.3804 9.85582 13.9455 9.83379ZM6.61425 10.004C6.71819 10.1022 6.61427 10.0381 6.79458 10.0901C6.69064 9.99199 6.79456 10.0561 6.61425 10.004ZM25.3497 10.0901V10.2604H25.4409V10.0901H25.3497ZM2.90195 11.456C2.87225 11.5422 2.84257 11.6263 2.81075 11.7124H2.90195V11.5421H2.99315V11.456H2.90195ZM14.5777 11.5421V11.7124H14.6689V11.5421H14.5777Z" fill="#9FCCB9"/>
</svg>
