<svg width="173" height="18" viewBox="0 0 173 18" fill="none" xmlns="http://www.w3.org/2000/svg">
<path fill-rule="evenodd" clip-rule="evenodd" d="M42.5455 0.0984494C43.1429 0.211067 43.2312 0.499148 43.9256 0.546291C44.0256 0.376055 44.1757 0.122003 44.5523 0.211049V0.323681C44.873 0.428441 44.6936 0.211077 44.929 0.436312H45.0555V0.884154L45.3056 0.996753V1.2194H45.4321C45.4733 1.33201 45.5145 1.44199 45.5586 1.5546H45.0555V1.88985C44.7083 1.97104 44.7759 1.92128 44.6788 2.22509C44.2404 2.31937 44.0933 2.50795 43.549 2.56033C43.5578 2.85366 43.599 2.94009 43.6755 3.11818C43.2459 3.08937 42.6898 3.02912 42.6721 3.00555V3.22816H42.7986C43.1959 3.23078 42.422 3.34079 42.422 3.34079C42.2631 3.16532 42.0866 3.06841 41.7953 3.00555C41.6069 3.30935 41.3598 3.48221 40.9155 3.5634V3.34079L40.6653 3.45339C40.5918 3.62363 40.5682 3.63674 40.5388 3.90126C40.274 3.9196 39.7797 4.00078 39.659 4.12387C39.506 4.28101 39.7708 4.24697 39.4089 4.45911V4.01124H39.2824V4.45911H38.9057V4.23647C38.7145 4.30195 38.6998 4.32291 38.4026 4.3491V4.12649L38.0259 4.23909C37.9436 4.43028 37.9053 4.59006 37.8994 4.90958H37.2727C37.2727 4.90958 37.1461 5.08766 37.0225 5.13219V5.24482H36.896V5.02218H36.6459V4.90958H36.5194V5.02218H36.1427V5.13481C35.925 5.30766 35.878 5.65861 35.7662 5.91789C35.3042 5.87861 34.9393 5.72148 34.6362 6.03052C34.595 6.14314 34.5539 6.25312 34.5097 6.36573C34.1743 6.4024 33.8388 6.43908 33.5063 6.47836V6.591L33.2562 6.7036V6.92621L32.8796 6.81361L32.7531 7.03622H32.3764C32.3558 7.04669 32.2293 7.20383 32.1263 7.25883V7.37146C31.9174 7.33479 31.7085 7.29811 31.4996 7.25883V7.14623C31.426 7.13837 31.0699 7.33479 30.8728 7.36884C30.7875 7.58098 30.7109 8.05238 30.6227 8.2619L30.2461 8.1493V8.03667C30.0725 8.00786 30.2961 8.11787 30.1195 8.1493C29.8194 8.20168 29.7958 8.06547 29.6164 8.03667L29.3663 8.37191H28.8631V8.48454L28.4865 8.59714V8.93238H28.7366V9.04501H28.6101C28.5424 9.09739 27.6037 9.32787 27.6066 9.04501H27.4801V9.26762L26.8534 9.15499C26.8593 9.5557 26.824 9.85951 26.6033 10.0481V9.93545H26.4768V9.48761H26.2266C26.2178 9.78094 26.1766 9.86737 26.1001 10.0455C25.8382 9.97737 25.5881 9.91976 25.3468 10.1581V10.3807H25.2203V10.4933L24.467 10.3807C24.4258 10.454 24.3847 10.53 24.3405 10.6033C24.1728 10.64 24.0051 10.6767 23.8374 10.7159V10.9386H23.3342V11.1612C23.0341 11.1088 22.9399 11.0328 22.7075 10.9386V11.4964C22.4132 11.5331 22.1219 11.5697 21.8277 11.609V11.7216C21.4598 11.7976 21.4157 11.8447 21.3245 12.1695C21.5011 12.1773 21.3068 12.1512 21.451 12.0569C21.6482 11.9285 21.5687 12.3319 21.5775 12.3921C21.3627 12.5178 21.4069 12.4628 21.3275 12.7273C21.4952 12.6907 21.6629 12.654 21.8306 12.6147L21.9571 12.3921C21.9806 12.3895 22.2513 12.4969 22.4603 12.5047V12.2821C22.5868 12.3188 22.7104 12.3554 22.8369 12.3947L22.9635 12.1721C23.1165 12.1066 23.3313 12.1118 23.4666 12.0595V11.6116C23.7638 11.5671 24.1581 11.3995 24.5965 11.499V11.6116H25.0997V11.499H25.3498V11.0512H25.5999V11.2738C25.9766 11.2004 26.3531 11.1245 26.7298 11.0512L26.8564 11.1638C27.2006 10.949 26.9711 10.7814 27.6096 10.7159C27.7538 10.8443 27.6096 10.7604 27.8597 10.8285V10.4933L28.4865 10.3807V10.1581C28.9014 10.2183 29.0573 10.2995 29.2397 10.1581H29.3663C29.5252 9.98524 29.2309 9.93285 29.4928 9.82285V9.93545H29.6193V9.60024C29.8959 9.56096 30.2696 9.45358 30.6227 9.60024C30.6639 9.67357 30.7051 9.74952 30.7492 9.82285H30.9993V9.60024C31.2524 9.6631 31.1082 9.58713 31.2494 9.71284L31.6261 9.60024V9.48761H32.0027C32.0851 9.37499 32.1704 9.26499 32.2528 9.15237C32.4617 9.18903 32.6707 9.22571 32.8796 9.265V9.3776C32.9708 9.39331 33.3415 9.27809 33.7594 9.265L33.6329 8.92976H33.8829V9.04239H34.3861L34.5127 9.15499V9.04239L34.8892 8.92976C34.8804 8.63643 34.8392 8.55 34.7627 8.37191H35.516C35.6602 8.24358 35.516 8.3274 35.7662 8.25931C35.8633 7.92407 35.8426 7.96597 36.2693 7.92407C36.4105 8.11525 36.3488 8.07596 36.6459 8.14668C36.7725 7.86644 36.9049 7.56265 37.1491 7.69883H37.2756V8.03404H37.5257C37.617 7.725 37.5611 7.78526 37.9024 7.69883V7.5862L38.6556 7.4736C38.6556 7.4736 38.7115 7.63596 38.9057 7.5862L39.0322 7.36359H39.4089V7.14098L39.659 7.25358V7.36621C39.8238 7.42121 39.6855 7.31382 39.7855 7.25358C40.1004 7.17763 39.9886 7.19597 40.1622 7.03097H40.2887V6.80836L40.5388 6.69573C40.6859 6.5543 40.7507 6.37098 40.9155 6.24789V6.36052H41.292C41.3332 6.50981 41.3745 6.65908 41.4186 6.80836H41.5451C41.8511 6.35265 42.2484 6.39456 42.9251 6.25051C42.9634 6.24265 42.9575 6.09598 43.1753 6.13788V6.25051C43.4254 6.32384 43.6784 6.39979 43.9286 6.47312V6.36052H44.0551L43.9286 6.02528C44.0109 5.98861 44.0962 5.95193 44.1786 5.91265C44.3522 5.67956 44.1227 5.7555 44.4288 5.57741V5.46481L45.0555 5.35218C44.9878 5.66384 44.9584 5.36266 45.0555 5.68742H45.182V5.46481C45.4322 5.50147 45.6852 5.53812 45.9353 5.57741V5.46481C46.0706 5.36267 45.9589 5.48313 46.0618 5.35218H45.9353V5.23958H46.3119C46.3384 5.5041 46.3648 5.51718 46.4384 5.68742C46.5826 5.55909 46.4885 5.68742 46.565 5.46481C46.7092 5.33648 46.615 5.46481 46.6915 5.2422C47.0681 5.12958 47.4448 5.01957 47.8214 4.90696L47.9479 5.01959C47.9891 4.65816 48.0627 4.69221 48.1981 4.46174H48.4481V4.57434H48.5746V4.46174H49.0779L49.2044 4.12649C49.531 4.24435 49.734 4.33077 50.2077 4.3491C50.1665 4.27577 50.1254 4.19983 50.0812 4.12649C50.1666 4.0034 50.7874 3.96935 50.961 3.79125L50.8345 3.56864H50.961V3.45601C51.2935 3.58696 51.4347 3.67076 51.9644 3.67862V3.56602H51.8379V3.23078C52.2351 3.30411 52.0909 3.40101 52.2145 3.45339C52.3616 3.44553 52.6618 3.22817 52.9678 3.34079L53.0943 3.5634H53.3444C53.2238 3.93268 53.2267 4.22076 53.4709 4.56909H53.3444C53.2003 4.69742 53.3444 4.61363 53.0943 4.68172V5.23958H52.9678C52.9354 5.42553 53.0855 5.43338 53.0943 5.46219V6.02004C52.6441 6.03575 52.3823 6.17979 52.0909 6.24265L51.8408 6.13005C51.7584 6.24266 51.6731 6.35264 51.5907 6.46526C51.5201 6.49145 50.9051 6.38147 50.7109 6.35266C50.6344 6.64599 50.3549 6.94456 49.9577 6.91051C49.9577 6.91051 49.89 6.76907 49.7075 6.79788L49.834 7.02049H49.3309C49.2897 7.20644 49.2485 7.39239 49.2044 7.57834L48.5776 7.46574L48.4511 7.68835C48.1127 7.7643 48.1215 7.4736 48.0744 7.46574L47.6978 7.57834L47.8244 7.69097C47.8303 7.73549 47.7125 7.94238 47.6978 8.13881C47.28 8.17548 46.8621 8.21216 46.4414 8.25144V8.02883C46.1442 8.00526 46.1295 7.98168 45.9382 7.9162V8.25144C45.9117 8.29858 45.0761 8.81453 45.5616 9.03453H45.185V8.92189C45.0643 8.71499 45.0584 9.14454 45.0584 9.14454C44.9172 9.23882 45.0408 9.13142 44.9319 9.25713C45.285 9.15237 45.2821 9.13928 45.6852 9.25713V9.36977L46.0618 9.25713L45.9353 9.14454L46.0618 8.80929C46.6503 9.01096 47.0387 8.87478 47.4418 8.58668C47.483 8.51335 47.5242 8.43737 47.5683 8.36404H48.1951C48.1951 8.36404 48.1833 8.29858 48.4452 8.25144V8.58668H48.5717V8.36404C49.1072 8.35619 49.4044 8.34048 49.7016 8.14143L49.8281 7.91882C50.0371 7.95549 50.246 7.99217 50.4549 8.03145C50.3107 7.90312 50.4549 7.98692 50.2048 7.91882V7.69621C50.3313 7.73288 50.4549 7.76953 50.5814 7.80881V7.5862H50.8316V7.80881C51.5584 7.75643 52.0792 7.39241 52.5882 7.13836V7.4736H52.8383V7.25096H53.7181V7.13836H54.0947V7.02573C54.3448 7.0624 54.5979 7.09908 54.848 7.13836C54.9539 7.01265 54.8333 7.12263 54.9745 7.02573V6.57789C55.2246 6.54122 55.4777 6.50454 55.7278 6.46526C55.6866 6.57787 55.6454 6.68788 55.6013 6.8005H55.7278V6.91313C55.869 6.81885 55.7454 6.92621 55.8543 6.8005C55.9985 6.67217 55.9044 6.8005 55.9809 6.57789C56.178 6.58575 56.8607 6.69049 56.8607 6.69049V6.57789H56.9872V6.24265C57.1255 6.08551 57.5521 6.12743 57.867 6.13005V6.24265L58.6203 6.13005V6.01742H58.8703V5.90478H59.247L59.1205 6.24003H59.247C59.3382 5.93098 59.2823 5.99121 59.6236 5.90478V6.12743C59.7501 6.09076 59.8737 6.05408 60.0003 6.01479V5.90219C60.2945 5.86553 60.5858 5.82885 60.8801 5.78956V5.67693H61.2567L61.3832 5.45432C61.4891 5.41765 62.2101 5.57217 62.3866 5.67693V5.45432L62.7633 5.34172V5.22909C62.9339 5.18195 62.7132 5.31029 62.8898 5.34172C63.0987 5.37839 63.1134 5.23433 63.1399 5.22909C63.3694 5.18719 63.6254 5.37575 63.7666 5.4517V5.3391C64.158 5.0222 63.7961 4.86506 64.5199 4.78125V4.89385H64.8966L64.77 5.11649C64.9318 5.2972 65.0054 4.99337 65.1466 5.4517C65.3114 5.33384 65.335 5.22387 65.5233 5.11649V5.4517H65.7734C65.7322 5.22908 65.691 5.00386 65.6468 4.78125C66.2353 4.60316 66.0706 4.86767 66.4001 4.2234H66.5266C66.5119 4.46173 66.3972 4.60576 66.4001 4.67124L66.5266 4.78387C66.7561 4.64244 66.5414 4.63197 66.6532 4.56126C66.7974 4.46698 66.7326 4.66338 66.7797 4.67386C66.9062 4.63719 67.0298 4.60055 67.1564 4.56126V4.33862C67.4388 4.2941 67.6389 4.15531 68.0362 4.22602C68.0362 4.22602 68.042 4.37267 68.2862 4.33862V4.22602H68.913V4.33862C68.6129 4.40671 68.6805 4.37531 68.5364 4.56126H68.7865C69.1484 4.0296 69.7516 4.21555 70.4195 4.00341L70.5461 3.66817C70.9051 3.66817 71.0846 3.70743 71.2994 3.78077V3.33293H71.4259C71.5083 3.44554 71.5936 3.55555 71.6759 3.66817H71.8025L71.6759 3.89078H71.8025V4.00341C72.1615 4.23388 72.1262 3.80434 72.3057 4.33862H72.5557V4.56126H72.8059C72.7647 4.67388 72.7235 4.78385 72.6794 4.89647H72.8059C72.8912 5.06409 72.8941 5.08244 72.9324 5.34434H73.1825V5.56695C73.3767 5.66648 73.4444 5.73196 73.5592 5.90219C73.9652 5.70577 73.7975 5.63504 74.3125 5.78956L74.1859 5.45432H74.436V5.23171H74.6861V5.34434H74.8127V5.23171L75.1893 5.34434L75.0627 5.67955H75.3129C75.4041 5.37051 75.3482 5.43077 75.6895 5.34434C75.8778 5.14792 76.0279 5.13218 76.4428 5.1217V4.89909C76.6929 4.82576 76.9459 4.74981 77.196 4.67648C77.2048 4.96981 77.2461 5.05624 77.3226 5.23433C77.4638 5.14005 77.3402 5.24741 77.4491 5.1217H77.5756V4.78649C77.9522 4.82316 78.3289 4.85981 78.7055 4.89909V4.67648H78.9556L79.0822 4.34124C79.2499 4.37791 79.4176 4.41459 79.5853 4.45387C79.6265 4.38054 79.6677 4.30459 79.7118 4.23126L80.3386 4.34386V4.56647C80.6594 4.39362 81.2037 3.87244 81.5951 4.11863H81.8451V4.34124H81.9716V4.11863C82.5748 4.08982 82.5778 4.04006 83.1016 4.11863C83.1428 3.93268 83.1839 3.74673 83.2281 3.56078C83.8077 3.46388 84.2462 3.46388 84.6081 3.56078V3.33817H85.3614V3.45077H85.738V3.5634C85.8645 3.52673 85.9881 3.49005 86.1147 3.45077V3.33817C85.9705 3.20984 86.0647 3.33818 85.9881 3.11556C86.4001 3.12342 86.3589 3.25699 86.6149 3.11556L86.7414 2.89292L87.4947 3.11556V3.33817C87.833 3.33817 88.2067 3.37482 88.3744 3.22554V3.00293L88.6246 3.11556V3.00293C88.8747 2.96626 89.1278 2.92961 89.3779 2.89033C89.4956 2.95842 89.3337 3.05007 89.5044 3.00293L89.6309 2.78032C89.7898 2.78032 89.9517 2.97934 90.2577 2.89292V2.78032C90.4666 2.74365 90.6755 2.70697 90.8844 2.66769L90.7579 3.00293H90.8844C91.1639 3.27269 91.1198 3.16008 91.5112 3.11556C91.4965 3.46913 91.2669 3.32506 91.6377 3.45077C91.6936 3.72838 91.7524 3.86198 91.7642 4.23388C91.417 4.31507 91.4846 4.26529 91.3875 4.56909H91.261V5.12694C90.9609 5.17932 90.8668 5.25527 90.6343 5.34955V5.01434H90.5077C90.3224 5.64029 90.29 5.24481 89.881 5.46219V5.57482L89.3779 5.91003C89.4191 5.79741 89.4602 5.68744 89.5044 5.57482H89.3779C89.3014 5.75291 89.266 5.83934 89.2513 6.13267C88.7776 6.22172 88.5481 6.35004 87.8713 6.35528V6.13267H87.6212V6.35528H86.9944V6.46788H87.121C87.0415 6.62764 86.9739 6.55168 86.8709 6.69049H86.6207L86.7473 6.46788H86.6207C86.4972 6.61978 86.5472 6.68787 86.2441 6.69049C86.2441 6.69049 86.1559 6.53075 85.994 6.57789C85.9528 6.65122 85.9116 6.72717 85.8675 6.8005H85.6174L85.4909 7.47098L84.9877 7.58358V7.13574H84.7376C84.6464 7.49454 84.5669 7.54168 84.1108 7.58358L84.2374 7.24834H84.1108C84.0637 7.37667 84.0756 7.64644 83.8608 7.58358L83.7342 7.24834C83.6076 7.28501 83.4841 7.32169 83.3576 7.36097V7.58358C83.1575 7.51549 83.0604 7.48408 82.7308 7.47098V7.13574H82.6043V7.47098C82.7485 7.59931 82.6543 7.47097 82.7308 7.69359C82.4366 7.73026 82.1453 7.76691 81.851 7.80619V8.02883C81.4067 8.07074 81.4685 8.16763 81.0977 8.25144V8.58668C80.7917 8.52383 80.8212 8.4688 80.5946 8.36404V8.58668H80.4681V8.92189H80.5946V8.69928H80.8447V8.92189C81.0536 8.88523 81.2625 8.84858 81.4714 8.80929V9.14454H81.7216V8.80929C81.9305 8.84596 82.1394 8.88261 82.3483 8.92189C82.4071 8.65475 82.4925 8.57094 82.5984 8.36404C83.0074 8.36666 83.5047 8.31429 83.7284 8.47667H83.8549C83.8961 8.40334 83.9372 8.3274 83.9814 8.25406H84.2315V8.14143H84.4816V8.02883L84.7317 8.14143V8.02883H85.9881C85.947 7.91621 85.9058 7.80621 85.8616 7.69359H86.1117V7.58096H86.2382V7.69359L86.6149 7.80619C86.6237 7.96333 86.6443 7.83763 86.4884 7.91882C86.6296 8.03668 86.4884 7.9686 86.7385 8.03145V7.91882H86.865V7.58358H86.9915C87.1004 7.42906 87.0856 7.38978 87.118 7.13574C87.4152 7.12264 87.4359 7.10168 87.6212 7.02311V7.13574H87.7477V7.24834L87.6212 7.47098H87.9979V7.24834C88.2921 7.21167 88.5834 7.17502 88.8777 7.13574V7.24834H89.0042C89.1454 7.15929 88.9571 7.10169 89.1307 7.13574V7.24834H89.6338V7.47098H89.7604C89.8016 7.24837 89.8428 7.02311 89.8869 6.8005H90.137V7.02311H90.2636V6.6879C90.5519 6.69837 90.5902 6.78217 90.7667 6.8005L90.8932 6.57789C90.8932 6.57789 91.2375 6.68263 91.3964 6.69049V6.46788L91.5229 6.58051C91.6907 6.54384 91.8584 6.50716 92.0261 6.46788V6.58051H92.6528V6.24527H92.9029V6.3579H93.0294V6.24527L93.2796 6.3579L93.4061 6.02266C93.7386 5.91266 93.668 6.26622 93.9092 6.24527V6.13267C94.4595 6.01743 94.6007 5.85766 95.1657 5.79743V5.91003H95.0392C94.8008 6.00693 95.2892 6.02266 95.2892 6.02266C95.3952 6.14837 95.2746 6.03835 95.4158 6.13526V5.91265L96.0425 5.80005C96.0837 5.72672 96.1249 5.65074 96.169 5.57741L96.2956 5.69004C97.0401 5.73194 97.1372 5.45696 97.5521 5.2422V5.57741H97.6786C97.8227 5.44908 97.6786 5.5329 97.9287 5.46481V5.2422C98.0552 5.27886 98.1787 5.31551 98.3053 5.3548L98.4318 5.13219H98.935V5.01959H99.0615C99.138 5.28673 99.1027 5.22647 99.3116 5.3548V5.01959C99.9708 4.9253 99.8677 5.00649 100.442 5.2422C100.506 4.9803 100.624 4.82315 100.818 4.68435C100.962 4.81268 100.818 4.72885 101.068 4.79695V4.57434H101.445V4.35173C101.654 4.38839 101.863 4.42504 102.072 4.46433V4.68697H102.322V4.35173C102.595 4.36744 102.74 4.46433 102.825 4.46433V4.35173L103.202 4.23909C103.243 4.31243 103.284 4.3884 103.328 4.46174C103.728 4.5665 104.329 4.22864 104.585 4.12649L104.458 3.79125H104.835C104.911 4.05839 104.876 3.99816 105.085 4.12649C105.191 4.25221 105.07 4.14219 105.211 4.23909C105.22 3.94576 105.261 3.85934 105.338 3.68124C105.588 3.64458 105.841 3.60793 106.091 3.56864C106.197 3.69436 106.076 3.58434 106.218 3.68124C106.121 3.79386 106.065 3.79127 105.967 3.90388H106.344L106.218 3.56864L106.344 3.45601C106.529 3.50839 106.544 3.58436 106.847 3.56864V3.45601H106.974V3.56864C107.142 3.60531 107.309 3.64196 107.477 3.68124V3.79387C107.989 3.96673 108.221 3.7127 108.48 3.90651C108.872 4.13698 108.539 4.05054 108.73 4.35435L108.981 4.46695V4.68959H109.107C109.222 4.84149 109.201 4.88601 109.234 5.13743L108.73 5.0248C108.831 5.38622 108.963 5.4098 108.981 5.91789C108.839 6.01218 108.963 5.90481 108.854 6.03052H108.728C108.689 5.69529 108.71 5.7267 108.477 5.58265V5.69528H108.604C108.522 5.84457 108.436 5.99384 108.354 6.14312C108.027 6.14836 107.921 6.16671 107.727 6.25575V6.36835C107.512 6.43383 107.509 6.26361 107.477 6.25575C107.027 6.15361 106.741 6.39719 106.597 6.591H106.471C106.429 6.81361 106.388 7.03883 106.344 7.26145H106.094L105.967 7.03884C105.8 7.0755 105.632 7.11215 105.464 7.15144C105.491 7.41596 105.517 7.42907 105.591 7.59931C105.3 7.58883 105.27 7.51025 105.088 7.48668L104.961 7.70929C104.793 7.74595 104.626 7.78264 104.458 7.82192C104.367 8.13096 104.423 8.07073 104.081 8.15716C103.64 8.51073 103.269 8.01572 103.202 8.04453V8.15716C102.993 8.26978 102.784 8.37975 102.575 8.49237C102.642 8.8826 102.698 8.69927 102.575 9.05022H102.701V8.93762H103.205V9.16023L103.581 9.0476V8.935L103.958 9.0476V8.71239C104.084 8.74906 104.208 8.78571 104.334 8.82499V8.71239L104.208 8.59976H104.961C105.002 8.71238 105.044 8.82238 105.088 8.935C105.17 8.89834 105.338 8.71239 105.338 8.71239C105.464 8.74906 105.588 8.78571 105.714 8.82499V8.71239C105.9 8.62596 105.923 8.62857 106.218 8.59976V8.37715H106.468V8.15454H106.971V8.37715C107.253 8.34834 107.303 8.36666 107.474 8.26452V8.15192H107.724V8.03929H107.974V7.92669C108.198 7.76693 108.274 7.67525 108.601 7.59145V7.92669H109.104C109.145 7.74074 109.187 7.55479 109.231 7.36884H109.481C109.44 7.48145 109.398 7.59146 109.354 7.70408H109.481C109.66 7.54432 110.181 7.4186 110.484 7.36884V7.14623C110.652 7.10956 110.82 7.07288 110.987 7.03359V6.69835H111.237V7.03359H111.488V6.69835H112.114C112.073 6.81097 112.032 6.92098 111.988 7.03359H112.238C112.367 6.90526 112.47 6.81884 112.741 6.81098V6.92358H112.868L112.994 6.81098C113.112 6.60932 113.168 6.63549 113.244 6.36311L113.621 6.25051V6.13788L113.747 6.25051L114.124 6.13788V6.47312H114.374C114.401 6.2086 114.427 6.19552 114.501 6.02528L114.751 6.13788V6.02528C114.93 5.88647 114.945 5.71621 115.127 5.57741C115.166 5.62979 115.383 5.98336 115.504 5.91265L115.631 5.57741C116.175 5.54074 116.719 5.50409 117.264 5.46481V5.57741C116.916 5.6586 116.984 5.60884 116.887 5.91265C117.199 5.86289 117.349 5.81052 117.767 5.80005V5.68742H117.64V5.12957C117.849 5.16623 118.058 5.20291 118.267 5.2422C118.308 5.12958 118.349 5.01957 118.393 4.90696C118.538 5.03529 118.444 4.90695 118.52 5.12957L118.897 5.2422V5.12957C119.156 5.00385 119.123 4.95672 119.523 4.90696V4.57171C119.791 4.55862 119.953 4.4565 120.027 4.45911L120.153 4.57171V4.3491L120.78 4.23647V4.45911C120.862 4.42245 120.948 4.38577 121.03 4.34648V4.23388C121.23 4.21293 121.186 4.42768 121.28 4.45649H121.783C121.824 4.27054 121.866 4.08459 121.91 3.89864C122.119 3.93531 122.328 3.97196 122.537 4.01124L122.663 3.78863H122.79V3.90126C122.916 3.8646 123.04 3.82792 123.166 3.78863V3.56602C123.31 3.69435 123.216 3.56602 123.293 3.78863H123.543C123.602 3.52149 123.687 3.43768 123.793 3.23078C124.211 3.23602 124.923 3.34341 124.923 3.34341V3.23078H125.173V3.11818H125.55C125.591 3.04485 125.632 2.96887 125.676 2.89554C125.803 2.93221 125.926 2.96889 126.053 3.00817V3.1208H126.68V2.89816L127.183 2.78556V3.00817H127.433C127.512 3.3146 127.598 3.26222 127.683 3.56602H128.06C128.151 3.87507 128.095 3.81484 128.436 3.90126V4.12387C127.686 4.26006 127.786 4.57172 127.556 5.12957H128.31L128.436 4.68172C128.96 4.61101 128.792 4.57173 129.316 4.45911V4.68172C129.91 4.45911 129.822 4.45911 130.319 4.68172V4.45911C130.487 4.42245 130.655 4.38577 130.822 4.34648V4.12387H131.073V4.23647H131.199V4.12387C131.485 4.07411 131.537 4.18147 131.702 4.23647V4.12387H131.576C131.343 4.01649 131.826 4.01124 131.826 4.01124V3.78863H132.076V3.56602C132.47 3.6315 132.635 3.74673 133.079 3.78863L133.206 3.45339C133.206 3.45339 132.938 3.43507 133.079 3.34079H133.329V3.45339H134.083V3.11818C134.483 3.19151 134.33 3.28317 134.459 3.34079C134.668 3.32246 134.692 3.1208 134.71 3.11818C134.951 3.05794 134.883 3.1915 134.96 3.23078H135.086V3.11818C135.254 3.15485 135.422 3.1915 135.589 3.23078C135.681 2.92174 135.625 2.98197 135.966 2.89554V3.11818H136.469C136.587 2.91652 136.643 2.94268 136.719 2.67031L137.096 2.78294V2.67031C137.178 2.63364 137.264 2.59699 137.346 2.55771V2.78032H137.596L137.47 2.44508C137.77 2.3927 137.864 2.31675 138.096 2.22247V2.67031C138.749 2.5184 138.543 2.42414 139.353 2.55771V2.22247H139.729V2.3351C139.676 2.40057 139.523 2.35081 139.603 2.55771H139.729C139.932 1.86629 139.997 2.36912 140.483 2.10983C140.768 1.95793 140.474 1.69865 141.109 1.55198V1.66461L141.486 1.55198V1.77462H141.613V1.55198C142.057 1.59389 141.995 1.69082 142.366 1.77462V1.99723C142.483 2.17271 143.263 2.20414 142.869 2.55509H143.119V3.00293L142.869 3.11556C142.863 3.15223 142.987 3.36436 142.995 3.5634H143.246C143.187 3.83054 143.101 3.91435 142.995 4.12125C142.772 4.13173 142.542 4.23912 142.492 4.23388V4.12125H141.989V4.23388L141.236 4.34648V4.56909C141.068 4.64243 140.9 4.71837 140.733 4.7917V4.6791H140.606V5.01434L139.726 5.23695C139.871 5.36529 139.726 5.28146 139.977 5.34955V5.46219C140.197 5.55385 140.38 5.3967 140.48 5.34955V5.23695H140.856V5.01434C141.442 4.98815 141.571 4.85196 141.986 4.6791V4.56647H142.866V4.6791H142.739C142.595 4.80743 142.739 4.72361 142.489 4.7917V5.01434C143.001 4.88339 142.622 4.9122 142.866 4.6791L143.116 4.7917V4.6791H143.366V4.56647H143.743C143.875 4.49838 144.055 4.01387 144.37 4.11863V4.23126H144.62V3.89602C144.746 3.93269 144.87 3.96933 144.996 4.00862V3.89602C145.246 3.85935 145.499 3.82267 145.75 3.78339V4.006H146C146.041 4.11862 146.082 4.22862 146.126 4.34124H146.253V4.11863H146.503C146.576 3.70221 146.576 3.86198 146.503 3.44818C146.541 3.46127 147.712 3.69174 147.759 3.67079V3.55816H147.886V3.11032H148.012C148.268 3.3146 148.583 3.14174 149.016 3.11032V2.88771C149.269 2.95056 149.125 2.87459 149.266 3.00031C149.728 2.88245 149.61 2.77508 149.893 2.55246V2.43983C150.21 2.26436 150.884 2.43198 151.399 2.43983C151.479 2.13341 151.564 2.18579 151.649 1.88198C152.188 1.86365 152.079 1.81127 152.403 1.65937V1.99461H152.906C152.932 1.73009 152.959 1.71701 153.032 1.54677L153.409 1.65937L153.535 1.43676H153.785V1.32413C153.912 1.28746 154.036 1.25082 154.162 1.21153L154.289 1.54677C154.606 1.31892 154.342 1.27701 154.915 1.21153V1.32413C154.771 1.42627 154.768 1.40535 154.665 1.54677H154.792V1.65937C155.054 1.53628 155.015 1.47867 155.419 1.43676C155.524 1.56247 155.404 1.45249 155.545 1.54939C155.398 1.76153 155.439 1.65677 155.168 1.772V1.8846H155.419C155.377 2.10722 155.336 2.33247 155.292 2.55509H155.419V2.66769H155.292V2.89033C155.333 3.15223 155.374 3.41151 155.419 3.67341H155.292C155.186 3.80174 155.227 3.83054 155.042 3.89602V3.78339H154.915C154.833 3.89601 154.748 4.00601 154.665 4.11863H154.289L154.162 4.34124C153.994 4.37791 153.827 4.41459 153.659 4.45387C153.618 4.56649 153.577 4.6765 153.532 4.78911L153.156 4.90171L153.029 5.12432H152.903V5.01172C152.441 4.91482 152.297 5.39146 152.023 5.12432V5.34696H151.773C151.814 5.49625 151.855 5.64552 151.899 5.79481H151.773C151.632 5.98599 151.693 5.9467 151.396 6.01742C151.384 5.99384 151.217 5.61146 151.146 5.68217V5.79481L150.896 5.90741C150.855 6.02002 150.814 6.13003 150.769 6.24265H150.393C149.972 6.42598 150.228 6.5386 149.513 6.57789C149.554 6.69051 149.595 6.80051 149.64 6.91313C149.807 6.87646 149.975 6.83978 150.143 6.8005V7.13574H150.269V7.02311H150.772C151.155 6.89478 151.331 6.71147 151.902 6.6879V6.46526C152.258 6.39454 152.235 6.25836 152.279 6.24265H152.782V6.35528L153.285 6.24265C153.285 6.24265 153.341 6.38147 153.535 6.35528V6.24265L154.039 6.35528V6.24265C154.183 6.11432 154.089 6.24265 154.165 6.02004H154.039V6.13267C153.93 6.34481 153.912 5.91003 153.912 5.91003C154.371 5.94669 154.833 5.98337 155.292 6.02266L155.419 5.80005C155.545 5.766 155.648 5.97289 155.922 5.91265V5.80005H156.549V5.91265H156.675V5.80005H157.178L157.305 5.46481H157.431L157.305 5.2422H157.681C157.825 5.37053 157.681 5.2867 157.931 5.3548V5.13219C158.232 5.18457 158.326 5.26051 158.558 5.3548V5.2422H158.432C158.199 5.13482 158.682 5.12957 158.682 5.12957V5.2422C158.826 5.37053 158.732 5.24219 158.808 5.46481C159.076 5.45171 159.235 5.35218 159.311 5.35218V5.46481H159.562C159.597 5.26576 159.688 5.2422 159.688 5.2422C159.647 5.12958 159.606 5.01957 159.562 4.90696H159.688V4.79432C160.044 4.93575 160.206 5.08242 160.691 5.12957V4.90696C161.424 4.75767 160.762 4.6241 161.445 4.90696V4.45911H161.571V4.57171C161.739 4.4591 161.907 4.34909 162.074 4.23647V4.68435H162.201C162.263 4.63197 162.166 4.50362 162.327 4.57171V4.68435H162.454C162.454 4.68435 162.419 5.08505 162.581 4.90696V4.79432C162.725 4.66599 162.631 4.79433 162.707 4.57171H162.33C162.428 4.23648 162.407 4.27838 162.834 4.23647V4.3491L163.21 4.23647V4.3491H163.587V4.46174C163.911 4.52197 164.275 4.11339 164.467 4.01386L164.843 4.12649V4.01386C165.052 3.89339 165.052 3.86197 165.346 3.79125C165.305 3.90387 165.264 4.01388 165.22 4.12649H165.346V4.23909C165.473 4.16576 165.597 4.08982 165.723 4.01648V3.90388H165.973C166.2 3.81484 166.247 3.64982 166.35 3.45601C166.559 3.6053 166.768 3.7546 166.977 3.90388C167.053 3.68389 166.982 3.6315 167.227 3.56864C167.268 3.58174 167.265 3.77816 167.477 3.79125C167.745 3.47435 167.589 3.566 167.98 3.67862C168.021 3.3172 168.095 3.35128 168.23 3.1208C168.669 3.18104 168.462 3.2308 168.857 3.1208V3.79125H168.983C169.125 3.60007 169.063 3.63936 169.36 3.56864C169.595 3.91959 169.825 3.88555 169.863 4.46174C170.207 4.47483 170.772 4.61626 170.867 4.46174H170.993V4.57434C171.34 4.64767 171.735 4.886 171.873 5.13219V5.46743H171.999C172.173 5.67433 172.291 5.72671 172.376 6.02528C172.249 5.98861 172.126 5.95193 171.999 5.91265V6.02528H172.126V6.36052H172.252C172.367 6.52552 172.364 6.63552 172.379 6.91837C172.235 7.0467 172.329 6.91837 172.252 7.14098C171.835 7.17765 171.417 7.2143 170.996 7.25358V7.03097C170.828 7.06764 170.661 7.10432 170.493 7.1436V6.92096C170.41 6.95763 170.325 6.99431 170.243 7.03359C170.201 6.96026 170.16 6.88432 170.116 6.81098C170.113 6.81098 169.745 6.96289 169.489 6.81098L169.363 6.47574C169.216 6.38408 169.148 6.80311 168.86 6.69835V6.58575C168.716 6.45742 168.81 6.58573 168.733 6.36311L168.357 6.47574V6.36311H168.23C168.271 6.25049 168.312 6.14052 168.357 6.0279C168.357 6.0279 168.201 5.99386 168.23 5.80529C168.23 5.80529 168.439 5.75551 168.357 5.58265H168.23C168.086 5.71098 168.23 5.62719 167.98 5.69528C167.939 5.8079 167.898 5.91791 167.853 6.03052C167.559 5.9991 167.542 5.99384 167.35 5.91789V5.80529C167.138 5.81839 167.138 6.01743 167.1 6.0279C166.815 6.11695 166.594 5.88908 166.473 5.91527V6.0279C166.047 6.1798 165.953 6.37622 165.47 6.47574C165.511 6.36313 165.552 6.25312 165.597 6.1405H165.346C165.161 6.44431 164.961 6.65121 164.467 6.69835V6.36311H164.34C164.243 6.69835 164.264 6.65645 163.837 6.69835V6.47574C163.313 6.72979 163.243 6.70361 162.581 6.58837V6.36573H162.454C162.445 6.79787 162.475 6.82668 162.077 6.92358V7.03622C161.957 7.24312 161.951 6.81361 161.951 6.81361H161.701C161.66 6.88694 161.618 6.96288 161.574 7.03622C161.365 6.99955 161.156 6.96287 160.947 6.92358V7.14623H160.571V7.25883C160.427 7.38716 160.521 7.25882 160.444 7.48144L159.691 7.59407V7.37146L158.435 7.48406V7.70667H158.058V7.8193C157.946 8.02882 157.931 7.59669 157.931 7.59669C157.528 7.68312 157.661 7.7643 157.178 7.8193V8.15454C156.437 8.08645 156.493 7.75905 155.672 7.70667C155.669 8.07857 155.607 8.21217 155.545 8.48978H155.295C155.333 8.39288 155.536 8.24357 155.422 8.04191H155.295V8.15454C155.151 8.28287 155.245 8.15453 155.168 8.37715L154.415 8.48978V8.71239C153.994 8.6443 153.624 8.40595 153.159 8.59976C153.076 8.71238 152.991 8.82238 152.909 8.935C152.567 9.02405 152.52 8.63381 152.405 8.59976C152.179 8.53167 152.314 8.72547 152.279 8.82237C152.152 8.7857 152.029 8.74906 151.902 8.70977V9.15761H151.652L151.526 9.38022C151.32 9.43522 151.293 9.27024 151.276 9.26762C150.972 9.22048 150.949 9.38022 150.772 9.38022V9.26762C150.522 9.23096 150.269 9.19427 150.019 9.15499V9.3776C149.186 9.45617 148.763 9.4745 148.136 9.3776L148.009 9.71284C147.774 9.65784 147.409 9.66572 147.006 9.60024V9.48761C147.15 9.35928 147.056 9.48762 147.133 9.265C146.832 9.27548 146.821 9.33831 146.629 9.3776V9.265C146.42 9.14453 146.423 9.10525 146.126 9.04239V8.81975H145.876C145.835 8.70713 145.794 8.59716 145.75 8.48454L144.996 8.37191V8.1493C145.096 8.18596 145.391 8.37713 145.623 8.2619V8.1493C145.252 7.93454 145.317 7.70407 145.373 7.36621C145.541 7.29288 145.544 7.19075 145.623 7.1436C145.705 7.18027 145.791 7.21692 145.873 7.2562V6.80836H146C145.959 6.58575 145.917 6.3605 145.873 6.13788C145.747 6.10121 145.623 6.06457 145.497 6.02528C145.538 6.09861 145.579 6.17456 145.623 6.24789L145.246 6.13526V6.3579H145.12C145.079 6.43123 145.038 6.50718 144.993 6.58051H144.617C144.646 6.83979 144.755 6.64861 144.617 6.91575L144.367 6.80312V7.02573C144.231 7.22216 144.24 6.80312 144.24 6.80312C144.031 6.83979 143.822 6.87647 143.613 6.91575C143.613 6.91575 143.555 6.74812 143.363 6.80312C143.322 6.87645 143.281 6.9524 143.237 7.02573H142.86C142.819 7.13835 142.778 7.24835 142.734 7.36097C142.539 7.26931 142.177 6.95764 141.854 7.02573C141.813 7.09906 141.771 7.17501 141.727 7.24834C141.486 7.22739 141.518 7.03097 141.477 7.02573H141.351V7.13836H140.724V7.25096H140.974C140.933 7.47358 140.892 7.69883 140.847 7.92144H140.597C140.483 7.87692 140.515 7.58098 140.094 7.69883L139.968 7.92144H139.341V7.80881C139.159 7.71977 139.129 7.73026 138.838 7.69621V8.03145C138.711 7.99479 138.588 7.95811 138.461 7.91882V8.03145C138.317 8.15979 138.411 8.03145 138.335 8.25406C137.867 8.37192 137.996 8.48453 137.708 8.70191V8.81454H137.331V8.4793H137.081V8.70191H136.454V8.58927H136.328C136.245 8.73856 136.16 8.88786 136.078 9.03715L135.828 8.92452V9.03715L135.451 9.25976V8.92452H135.324V9.03715L134.948 8.92452V9.03715C134.771 9.02929 134.998 8.94285 134.821 8.92452L134.068 9.03715V9.37239H133.942V9.25976C133.6 9.09738 133.327 9.41689 133.188 9.48237C133.118 9.13142 133.065 9.01356 132.685 8.92452C132.756 9.19689 132.818 9.17072 132.935 9.37239H132.685C132.485 9.53739 131.946 9.49546 131.555 9.48499V9.26238H131.305V9.48499C131.055 9.44832 130.802 9.41167 130.552 9.37239C130.49 9.10787 130.434 9.10785 130.302 8.92452C130.472 8.79356 130.425 9.00834 130.552 8.81192C130.387 8.72025 130.405 8.73332 130.302 8.58927H130.552C130.578 8.32475 130.605 8.31167 130.678 8.14143C130.322 8.0681 130.205 7.93454 130.052 7.69359H130.428C130.511 7.39502 130.596 7.09645 130.678 6.8005C130.514 6.70883 130.531 6.72193 130.428 6.57789C130.16 6.71408 130.155 6.82932 129.801 6.91313V6.69049H129.675V7.02573C129.186 7.0624 129.11 7.20645 128.795 7.36097C128.769 7.09645 128.742 7.08337 128.669 6.91313C128.527 7.00741 128.651 6.90002 128.542 7.02573H128.416L128.542 7.13836L128.416 7.4736C127.883 7.39241 127.812 7.45527 127.159 7.4736L127.286 7.80881H127.159C127.056 7.95548 127.071 7.93979 126.909 8.03145V7.58358C126.271 7.61501 126.356 7.78262 125.653 7.80619C125.558 8.18595 125.385 8.32214 124.899 8.36404V8.14143H124.773V8.25406C124.664 8.4662 124.646 8.03145 124.646 8.03145C124.52 7.99479 124.396 7.95811 124.27 7.91882L124.396 8.14143H124.146C123.946 8.30643 123.837 8.52644 123.769 8.81192H123.393V8.58927C122.587 8.61546 122.384 8.99784 121.76 9.14712C121.839 8.8407 121.924 8.89308 122.01 8.58927C121.207 8.74641 120.636 9.23881 120.127 8.47667C120.692 8.18334 120.394 8.06024 120.253 7.58358H119.75C119.644 7.45787 119.765 7.56788 119.623 7.47098C119.662 7.37408 119.865 7.22477 119.75 7.02311H119.623V6.91051H119.247C119.035 7.21955 118.708 7.13573 118.494 7.35835L118.367 7.69359H117.99V7.80619C117.864 7.84286 117.74 7.87954 117.614 7.91882V7.69621C117.222 7.77216 117.043 8.03144 116.734 8.14405H116.231V8.25669C116.104 8.22002 115.981 8.18334 115.854 8.14405V8.36666L115.101 8.4793V8.5919H114.598C114.557 8.59975 114.565 8.74643 114.348 8.70453V8.5919H114.098V8.4793L113.218 8.36666C113.127 8.5238 112.991 8.70454 112.841 8.81454V8.36666H112.715V8.58927C112.588 8.55261 112.464 8.51596 112.338 8.47667C112.279 8.73858 112.129 8.82239 112.088 9.03453H112.214C112.256 9.14714 112.297 9.25715 112.341 9.36977C111.626 9.37762 111.552 9.25189 111.084 9.14712C110.899 9.45093 110.699 9.65783 110.205 9.70498V9.48237H109.955V9.93024H109.704V10.0428H108.825V10.1555H108.575V10.2681C108.492 10.2314 108.407 10.1948 108.324 10.1555V10.2681H108.198C108.013 10.1345 108.304 10.1869 108.071 10.0455C108.086 10.399 108.316 10.255 107.945 10.3807V10.1581C107.239 10.234 107.539 10.4357 107.192 10.6059H106.941C106.9 10.7186 106.859 10.8286 106.815 10.9412H106.188V10.8285C106.5 10.6243 106.35 10.7421 106.315 10.3807H106.065V10.7159C104.973 10.7186 104.782 10.9097 103.805 10.9386V10.7159C103.637 10.7893 103.469 10.8652 103.302 10.9386C103.343 11.0878 103.384 11.2371 103.428 11.3864C103.102 11.3681 102.999 11.3628 102.801 11.2738V11.1612L102.425 11.2738C102.404 11.2711 102.381 11.1166 102.175 11.1612V11.2738H101.925V11.3864H101.674V11.499C101.501 11.6012 101.454 11.5776 101.171 11.6116V11.2764H101.045V11.389H100.418C100.333 11.4231 100.412 11.5331 100.041 11.6116C100 11.7242 99.959 11.8343 99.9149 11.9469H100.041C100.227 12.0831 99.5853 12.0568 99.5382 12.0595V11.9469C99.0351 11.8735 98.5348 11.7976 98.0316 11.7243C98.0993 11.4126 98.1287 11.7138 98.0316 11.389C97.8963 11.4519 97.7698 11.6902 97.5285 11.6116V11.499H97.402L97.5285 11.2764H97.402C97.2578 11.1481 97.402 11.2319 97.1518 11.1638C97.1107 11.0512 97.0695 10.9412 97.0253 10.8285H97.2754C97.2342 10.7159 97.193 10.6059 97.1489 10.4933H97.2754V10.6059C97.3843 10.8181 97.402 10.3833 97.402 10.3833H97.5285V10.2707C97.4461 10.234 97.3607 10.1974 97.2784 10.1581C97.3195 10.0455 97.3608 9.93547 97.4049 9.82285H97.2784V9.71022H97.655V9.59762C97.4902 9.50595 97.5079 9.51902 97.4049 9.37498C97.6197 9.24927 97.5756 9.30429 97.655 9.03977L98.1581 8.92714C98.1729 8.91928 98.3524 8.51332 98.4083 8.5919V8.81454H98.7849C98.9026 8.61287 98.9585 8.63904 99.035 8.36666C98.8643 8.23571 98.8438 8.16239 98.7849 7.91882H99.035V7.69621H99.2851V7.58358C99.035 7.62025 98.782 7.65693 98.5318 7.69621V7.58358C98.3671 7.59144 98.217 7.77478 97.9051 7.69621V7.58358C97.655 7.54691 97.402 7.51027 97.1518 7.47098V7.91882H96.9017V8.14143C96.7752 8.0681 96.6517 7.99215 96.5251 7.91882V7.69621L96.3986 7.80881C96.2544 7.93714 96.3486 7.80884 96.2721 8.03145H95.7689V8.25406C95.5188 8.2174 95.2657 8.18072 95.0156 8.14143C94.9744 8.32738 94.9332 8.51333 94.8891 8.69928C94.5831 8.76214 94.6125 8.81451 94.386 8.92189V8.80929C94.2565 8.71239 94.2123 8.61548 94.1358 8.47405C93.9916 8.60238 94.0858 8.47405 94.0093 8.69666C93.7592 8.73333 93.5061 8.77001 93.256 8.80929V9.0319C92.9588 9.05547 92.9441 9.07906 92.7529 9.14454V8.92189H92.8794L92.7529 8.58668H92.6264V8.80929C92.544 8.77263 92.4586 8.73595 92.3762 8.69666C92.232 8.78571 92.3262 8.96118 91.9996 8.91927C91.9584 8.84594 91.9172 8.76999 91.8731 8.69666H91.7466V8.91927L91.3699 9.0319C91.3052 9.01619 91.2934 8.74906 91.1198 8.80929C90.9933 8.95858 90.8697 9.10785 90.7431 9.25713C90.6166 9.22047 90.493 9.18382 90.3665 9.14454V9.36715H90.1164V9.58975C89.9752 9.49547 90.0987 9.60284 89.9899 9.47712C89.8545 9.37498 89.9663 9.49547 89.8634 9.36452H89.9899V9.25189H89.6133V9.36452H89.4867V9.25189H89.1101C89.0689 9.17856 89.0277 9.10261 88.9836 9.02928C88.9012 9.06595 88.8159 9.10263 88.7335 9.14191C88.5628 9.18644 88.7864 9.26237 88.6069 9.25451V9.14191H88.3568C88.3539 9.48762 88.3921 9.71809 88.4834 9.925H87.9802V10.1476H87.8536V9.81236H87.6036L87.4771 10.1476C87.3358 10.0533 87.4593 10.1607 87.3505 10.035H87.224L87.3505 9.69977C87.2239 9.73643 87.1004 9.77308 86.9738 9.81236V9.925H86.7238C86.6826 9.99833 86.6414 10.0743 86.5973 10.1476H86.094V10.2602H85.9675C85.9057 10.2104 86.0029 10.0795 85.841 10.1476L85.7145 10.3702L85.0877 10.4828V10.2602H84.9612L84.8347 10.4828H84.7081L84.5816 10.2602C84.408 10.1895 84.2286 10.2052 84.0785 10.1476C84.0697 10.5797 84.0991 10.6086 83.7018 10.7055V10.4828H83.4517V10.7055H82.825L82.5749 11.2633H82.3248V11.1507C82.2836 11.1454 82.0364 11.2502 81.8216 11.2633C81.8922 10.9909 81.954 11.0171 82.0717 10.8154H81.8216L81.6951 11.1507L80.8153 11.0381C80.6829 11.0957 80.7241 11.2895 80.8153 11.3733H80.5652C80.4563 11.4885 80.3475 11.5278 80.1886 11.5959V11.2607C79.6265 11.3026 79.8237 11.3314 79.3088 11.2607V11.3733C79.4529 11.5016 79.3588 11.3733 79.4353 11.5959H78.8085C78.7761 11.5907 78.7673 11.4519 78.5584 11.4833V11.5959H78.3083C78.2671 11.7085 78.2259 11.8185 78.1818 11.9311C78.0405 11.8369 78.1641 11.9443 78.0553 11.8185C77.914 11.7243 78.0376 11.8316 77.9287 11.7059C78.0935 11.6142 78.0758 11.6273 78.1788 11.4833H77.6757C77.5639 11.6012 77.455 11.63 77.299 11.7059V11.8185L76.9224 11.7059V11.8185C77.0872 11.9102 77.0695 11.8971 77.1725 12.0411H76.9224C76.7753 11.8892 76.6929 11.8709 76.4192 11.8185V12.0411C76.1838 11.9626 75.9278 11.9311 75.5394 11.9285C75.4011 11.6954 75.3364 11.7295 75.2893 11.3707H75.0392V11.1481C74.898 11.2423 75.0215 11.135 74.9127 11.2607H74.7862V11.4833L74.5361 11.5959V11.9311H74.4095C74.283 11.7819 74.1594 11.6326 74.0329 11.4833H73.9064C73.7416 11.2345 73.974 11.1716 73.6562 10.9254C73.6974 10.7762 73.7387 10.6269 73.7828 10.4776C73.7828 10.4776 73.6209 10.4226 73.6562 10.255H73.7828V9.69714C73.7828 9.69714 73.8593 9.69712 73.9093 9.4745C74.2565 9.39331 74.1888 9.4431 74.286 9.13929H74.5361V9.25189L74.9127 9.13929V8.91665L75.5394 9.02928C75.6307 8.72024 75.5748 8.78047 75.9161 8.69404V8.2462H76.0426L75.9161 8.02359H76.0426C76.1485 7.89788 76.0279 8.00786 76.1691 7.91096V7.79836C76.2897 7.59146 76.2957 8.02097 76.2957 8.02097L76.6723 8.13357V8.02097H76.5457C76.5869 7.90835 76.6281 7.79834 76.6723 7.68573H77.4255V7.79836C77.7198 7.76169 78.0111 7.72501 78.3053 7.68573V7.46312H78.8085V7.24051C78.3789 7.23527 77.9405 7.16454 77.6786 7.12788C77.5962 7.24049 77.5109 7.3505 77.4285 7.46312L76.6752 7.57572C76.7458 7.30334 76.8076 7.32954 76.9253 7.12788H76.4222V7.24051H76.5487C76.6929 7.41598 76.2397 7.34525 76.172 7.35311V7.68835H76.0455V7.80098C75.8366 7.83765 75.6277 7.87429 75.4188 7.91358C75.46 7.72763 75.5012 7.54168 75.5453 7.35573C75.2393 7.41858 75.2658 7.47096 75.0422 7.57834V7.69097C74.7921 7.61764 74.539 7.54169 74.2889 7.46836V7.58096C74.1447 7.70929 74.2389 7.58095 74.1624 7.80357C73.9564 7.83762 73.6151 8.03669 73.5356 8.02621V7.91358H73.159C72.9854 7.88215 73.2061 7.76693 73.0325 7.80098L72.906 8.02359H72.6558L72.7823 7.80098H72.6558C72.5116 7.92931 72.6558 7.84548 72.4057 7.91358V8.13619C72.1968 8.17286 71.9879 8.20954 71.779 8.24882C71.7554 8.24358 71.7377 8.08905 71.5288 8.13619V8.24882H71.2788V8.36142C71.1552 8.33785 71.1316 8.06024 71.0286 8.13881C70.8226 8.29071 71.1669 8.35358 70.652 8.47405V8.80929H70.5255V8.58668H70.399C70.3578 8.66002 70.3165 8.73596 70.2724 8.80929H69.7692C69.6192 8.56573 69.4927 8.43999 69.1425 8.36142V8.47405H68.6394L68.5128 8.69666L68.1362 8.58406V8.91927H67.8861C67.5771 9.38808 67.6065 9.05023 67.2593 9.25451C67.3005 9.32785 67.3417 9.40379 67.3859 9.47712C67.1358 9.44046 66.8827 9.40381 66.6326 9.36452C66.6208 9.36714 66.5678 9.55832 66.3825 9.58713V9.4745H65.8793L65.7528 9.3619V9.4745C65.3968 9.67878 65.385 9.79665 64.7494 9.80974C64.6082 9.61856 64.67 9.65785 64.3728 9.58713V9.80974H64.1227V9.69714C63.9638 9.65262 63.7931 10.014 63.746 10.0324C63.4871 10.1345 63.387 9.93547 63.2429 9.91975V10.0324C62.9928 10.069 62.7397 10.1057 62.4896 10.145L62.3631 9.80974C62.0159 9.89093 62.0835 9.84118 61.9864 10.145C61.6098 10.1817 61.2331 10.2183 60.8565 10.2576L60.73 10.4802H59.8502V10.5928C59.5236 10.6793 59.2646 10.6033 58.9704 10.7055C58.8998 10.4331 58.838 10.4593 58.7203 10.2576C58.5791 10.3519 58.7026 10.2445 58.5938 10.3702C58.1524 10.6478 58.5644 10.7683 57.967 10.9281V11.0407H57.3403L57.2138 11.2633C56.9342 11.3628 56.8607 11.1245 56.7106 11.1507V11.2633C56.4605 11.3078 56.5517 11.2135 56.4605 11.1507H56.334V11.3733C56.2074 11.3366 56.0838 11.3 55.9573 11.2607V11.1481L55.5807 11.2607V11.1481H55.0775L54.951 10.9254C54.7745 10.9254 54.8921 10.8914 54.8244 11.0381C54.6685 10.9097 54.7774 11.0381 54.6979 10.8154H55.2011V10.5928H54.6979C54.5802 10.3912 54.5244 10.4174 54.4479 10.145H54.6979C54.6244 9.68404 54.5626 9.61071 54.3213 9.13929C54.1565 9.19691 54.3566 9.1838 54.1948 9.25189H53.8181V9.36452C54.0712 9.42738 53.927 9.35141 54.0683 9.47712C53.7093 9.46665 53.5298 9.45619 53.315 9.36452V9.47712C53.4592 9.60545 53.365 9.47715 53.4415 9.69977C52.8265 9.69977 52.7265 9.82809 52.3116 9.92237V9.58713H52.1851V9.69977H52.0585L51.8084 9.58713V9.92237H51.4318V9.69977H51.3053V9.92237H51.4318V10.2576C51.014 10.255 50.8639 10.2 50.552 10.145V10.3676C50.2549 10.3545 50.2342 10.3336 50.0488 10.255V10.3676C49.9046 10.4959 49.9988 10.3676 49.9223 10.5902C49.2603 10.5247 49.634 10.3493 49.0425 10.4776V10.255C48.8424 10.2288 48.8836 10.4462 48.7924 10.4776C48.3216 10.6347 47.9332 10.5405 47.536 10.4776V10.8128L47.2859 10.7002V10.8128C47.0328 11.004 47.2977 10.9831 47.1594 11.1481H47.0328C46.7297 10.7447 45.8588 11.08 45.2762 11.1481V11.4833C45.0408 11.4257 44.5906 11.0826 44.3964 11.1481V11.2607H44.2699V11.5959C43.8932 11.6326 43.5166 11.6692 43.1399 11.7085V11.9311H43.2665C43.2253 12.0438 43.1841 12.1538 43.1399 12.2664C42.8427 12.2533 42.8221 12.2324 42.6368 12.1538V12.2664H42.5103V11.9311H42.2601V12.2664H42.1336V12.1538H41.6305V12.2664L41.3803 12.1538V12.2664C41.1037 12.3423 40.9655 12.3004 40.7536 12.379V12.7142C40.1269 12.798 40.1327 12.8138 39.6237 12.4916L39.4972 12.8269H38.994V12.9395C38.8263 12.9762 38.6586 13.0128 38.4909 13.0521V12.8295H38.2407C38.1642 13.2223 38.1054 13.3428 37.614 13.3873V13.2747C37.7581 13.1464 37.664 13.2747 37.7405 13.0521C37.5728 13.0154 37.4051 12.9788 37.2374 12.9395V12.8269C36.999 12.7614 37.0638 12.8897 36.9872 12.9395L36.6106 12.8269V12.9395H36.7371V13.3873H36.487V13.1647C36.1428 13.3428 36.2605 13.4397 35.7338 13.4999C35.6425 13.809 35.6984 13.7487 35.3571 13.8352C35.0187 14.1914 34.6244 14.1049 34.1007 14.0578V13.8352H34.6038C34.5626 13.7225 34.5215 13.6125 34.4773 13.4999C34.2861 13.5654 34.2714 13.5864 33.9742 13.6126C33.9536 13.3088 33.9329 12.9395 33.724 12.8295V12.7168C33.8152 12.599 33.8212 12.8138 33.9742 12.6042H33.724C33.5004 12.4864 33.9742 12.4916 33.9742 12.4916C33.9035 12.2192 33.8417 12.2454 33.724 12.0438H34.1007C34.2037 12.1904 34.189 12.1747 34.3508 12.2664C34.0448 11.6797 33.8888 11.1376 34.9775 11.1481C35.1217 11.2764 34.9776 11.1926 35.2277 11.2607C35.2689 11.0747 35.31 10.8888 35.3542 10.7028H35.1041V10.9254H34.854L34.9805 10.5902H34.854C34.7598 10.8023 34.9423 10.7055 34.7275 10.8128C34.5627 10.6819 34.8775 10.6426 34.6009 10.5902V10.8128L34.3508 10.7002V10.8128H34.4773C34.3949 10.9621 34.3096 11.1114 34.2272 11.2607H34.1007V10.9254H33.9742V11.0381H33.5975C33.5151 11.1507 33.4298 11.2607 33.3474 11.3733H33.0973V11.4859H32.7207V11.5986H32.4705V11.7112C31.9644 11.8709 31.5849 11.5566 31.3407 11.7112C30.9993 11.9076 30.9435 12.3293 30.8375 12.3816H29.7076C29.5634 12.2533 29.7076 12.3371 29.4575 12.269V12.0464H29.3309C29.3721 12.1957 29.4133 12.3449 29.4575 12.4942H29.3309C29.0926 12.6776 28.666 12.6121 28.3276 12.7168V12.8295C28.1422 12.8819 27.8362 12.709 27.8244 12.7168V12.9395H27.1977C27.0711 13.2014 26.9475 13.4607 26.821 13.7226H26.6945V13.3873H26.4444C26.4179 13.6518 26.3914 13.6649 26.3179 13.8352C26.1766 13.7409 26.3002 13.8483 26.1914 13.7226C26.0472 13.5942 26.1413 13.7225 26.0648 13.4999C26.2796 13.3742 26.2355 13.4292 26.3149 13.1647H25.9383V13.8352C25.7294 13.7985 25.5205 13.7619 25.3116 13.7226V13.6099C25.4557 13.4816 25.3616 13.6099 25.4381 13.3873H25.1879L25.3145 13.1647H25.1879C25.0437 13.293 25.188 13.2092 24.9379 13.2773C24.9055 13.4947 24.8142 13.4947 24.8113 13.4999C24.6112 14.0499 24.9231 14.2149 24.1846 14.283V14.0604C24.011 14.1154 23.908 14.1049 23.6814 14.173V14.2856C23.5549 14.249 23.4313 14.2123 23.3048 14.173V14.2856H23.0546L23.1812 14.5083H22.4279V14.6209C22.5721 14.7492 22.4779 14.6209 22.5544 14.8435C22.3514 14.8356 21.6746 14.7309 21.6746 14.7309C21.6334 14.8042 21.5923 14.8802 21.5481 14.9535C21.2068 15.1185 21.1479 14.9823 20.9214 14.9535V15.0661H20.6713L20.5447 15.2887C20.3358 15.3254 20.1269 15.362 19.918 15.4013V15.514C19.7503 15.4773 19.5826 15.4406 19.4148 15.4013C19.2059 15.438 18.997 15.4747 18.7881 15.514V15.6266C18.4144 15.7209 18.2791 15.4485 18.0348 15.404V15.5166C17.8907 15.6449 17.9848 15.5166 17.9083 15.7392H17.4051L17.2786 15.6266C17.2139 15.6528 17.2433 15.8256 17.0285 15.8492V15.7366L16.6518 15.624V15.7366C16.5253 15.7732 16.4018 15.8099 16.2753 15.8492V15.6266C16.0487 15.7314 16.0781 15.7811 15.772 15.8492V16.0718H15.6455V15.7366C14.9393 15.7287 14.4009 15.4695 14.139 15.0661L14.3891 14.9535C14.3979 14.7964 14.2655 15.0007 14.2626 14.8409C14.3038 14.6549 14.345 14.469 14.3891 14.283H14.6392C14.3626 13.5864 14.9482 13.1987 15.0159 12.4942C15.4043 12.4314 15.8545 12.3816 16.3959 12.3816V12.0464H16.7725C16.8579 11.719 16.9108 11.6797 17.2757 11.5986V11.3759C18.0083 11.2266 17.3463 11.0931 18.029 11.3759V11.1533C18.3085 11.1062 18.4585 11.0459 18.6557 10.9307V10.8181C18.9058 10.7971 18.744 10.9883 18.9058 10.8181C19.05 10.6897 18.9558 10.8181 19.0323 10.5954H19.2825C19.4266 10.1424 19.5384 10.3728 19.7856 10.0376C20.0357 10.1109 20.2888 10.1869 20.5389 10.2602V10.1476H20.6654V9.69977C19.9445 9.71286 19.7444 9.79143 19.1588 9.69977C19.0882 10.0507 19.0352 10.1686 18.6557 10.2576V10.035H18.4056V10.3702C18.1496 10.4907 17.9113 10.7002 17.5258 10.7055L17.3992 10.5928C16.9461 10.8966 17.4404 11.114 16.5194 11.1507L16.6459 10.7028H16.3959V10.8154H16.5224C16.5312 10.8547 16.3076 11.2188 16.2723 11.3733H16.0222V11.1507H15.772V11.3733L15.6455 11.2607C15.3954 11.334 15.1424 11.41 14.8922 11.4833C14.851 11.5566 14.8099 11.6326 14.7657 11.7059C14.601 11.7688 14.7922 11.6221 14.6392 11.5933C14.5127 11.63 14.3891 11.6666 14.2626 11.7059V11.5933H13.8859V11.4807H13.7594V11.5933C13.7594 11.5933 13.4122 11.4912 13.2563 11.4807C13.1739 11.6666 13.0885 11.8526 13.0061 12.0385C12.8973 12.0045 12.7296 11.8238 12.503 11.9259V12.0385H12.3765V12.3738H12.2499V12.0385H12.1234V12.4864C12.144 12.6435 12.2558 12.4392 12.2499 12.599L12.1234 12.7116C11.9057 12.6147 12.0793 12.6985 11.9969 12.489H11.8703V12.7116L11.2436 12.8242L11.3701 12.6016H11.2436C11.0494 12.7954 11.0171 12.7116 10.7405 12.8242V12.9369C10.5551 12.9997 10.2609 12.9657 10.2373 12.8242H10.1107V13.1595H9.98423V13.0468H9.85772V13.2695H9.60759V13.4921C9.2898 13.403 8.83079 13.4842 8.22759 13.4921C8.18639 13.754 8.14522 14.0133 8.10108 14.2752H7.85094V14.0526C7.65968 14.118 7.64498 14.139 7.34779 14.1652V14.5004C7.09768 14.5737 6.84461 14.6497 6.5945 14.723V14.8356H6.34444V14.9482C5.72946 15.1552 5.58525 14.7754 5.2145 15.2835H5.088L5.2145 15.3961C5.17331 15.5087 5.13214 15.6187 5.088 15.7313C4.92028 15.6947 4.7525 15.658 4.58478 15.6187V15.954C4.14046 15.9959 4.20231 16.0928 3.83156 16.1766V15.954H3.70498V16.2892C3.45487 16.3258 3.20187 16.3625 2.95176 16.4018L2.82519 16.7371H2.57512C2.53393 16.8497 2.49268 16.9596 2.44854 17.0723H2.32204V16.7371H2.19553L2.06902 16.9597L1.69238 16.847V16.7344C1.44816 16.6794 1.52463 16.7973 1.44224 16.847L0.939092 16.7344L1.0656 16.6218V16.5092H0.939092V16.174H1.0656V16.0613H0.815532C0.812589 15.6894 0.750746 15.5559 0.688954 15.2782H0.438887C0.21526 15.1604 0.688954 15.1656 0.688954 15.1656C0.730148 15.053 0.771395 14.943 0.815532 14.8304C1.46287 14.8566 1.43636 15.0426 1.44224 14.3826C1.65116 14.3459 1.86011 14.3092 2.06902 14.2699V13.8221L2.44567 13.7095C2.58985 13.5811 2.44563 13.665 2.69574 13.5969V13.8195H2.94587V13.5969C3.0724 13.6335 3.19599 13.6702 3.32252 13.7095V13.4868H3.19594L3.32252 13.1516H3.44902V13.039H3.82567C3.82273 12.8819 3.8521 13.0076 3.69909 12.9264V12.8137H4.07574V12.7011H4.20231L4.32882 12.9238C4.74665 12.9971 5.16449 13.073 5.58526 13.1464C5.59703 12.7273 5.69997 12.633 5.83532 12.3633C5.96185 12.3999 6.08544 12.4366 6.21197 12.4759V12.2533H6.58861L6.46211 12.4759H6.58861V12.3633H6.83875C6.97705 12.2664 6.89461 12.0935 7.08882 12.028C7.20063 12.1276 7.13593 12.2166 7.33896 12.2507C7.42135 12.1381 7.50671 12.0281 7.58909 11.9154H7.96567V11.8028H8.09224V11.355H8.34231V11.5776C8.87784 11.5331 8.91025 11.3471 9.34574 11.2423C9.44578 10.8809 9.57815 10.8574 9.5958 10.3493H10.7257V10.4619L11.1024 10.3493V10.2366C11.2907 10.1921 11.273 10.4357 11.3524 10.4593L11.7291 10.3467V10.5693H11.8557V10.3467C11.9969 10.2524 11.8733 10.3597 11.9822 10.234L11.732 10.3467V9.89878H11.8586V9.45094H12.4853L12.3588 9.78618H12.7355C12.9356 9.5688 13.1915 9.48761 13.3622 9.22833C13.4916 9.32523 13.5358 9.42214 13.6123 9.56357C13.7388 9.49024 13.8624 9.41429 13.989 9.34096V9.22833H14.239L14.3655 9.00572C14.4479 9.04239 14.5333 9.07903 14.6157 9.11832C14.7834 9.0057 14.4626 8.92976 14.7422 8.89571V9.00834C14.8687 9.04501 14.9923 9.08166 15.1188 9.12094V8.89833C14.9746 8.77 15.0688 8.89834 14.9923 8.67572C15.316 8.7281 15.5484 8.78308 15.9957 8.78832C16.1752 8.54999 16.3253 8.56311 16.6225 8.45311L16.4959 8.11787H16.9991V8.00524H17.1256V8.11787H17.3757V7.89526C18.0878 7.87693 17.8436 7.7224 18.2555 7.56002H18.7587V7.44739C18.9029 7.31906 18.8087 7.44739 18.8852 7.22478H19.2618V7.44739H19.512C19.615 7.08858 19.6591 7.12265 20.1387 7.11218V7.33479C20.4329 7.21431 20.5477 7.07812 20.892 6.99955V6.6643H21.142V6.44169C21.8041 6.44431 22.1337 6.31075 22.6486 6.21908C22.7398 6.52813 22.6839 6.4679 23.0253 6.55433C22.9841 6.44171 22.9428 6.3317 22.8987 6.21908H23.0253C23.1636 6.06194 23.4637 5.89172 23.652 5.77124V5.65861H24.0286V5.77124H24.1551V6.10645H24.2817C24.3229 5.66122 24.4111 5.59051 24.9084 5.5486V5.66123C25.0761 5.71361 24.8613 5.59051 25.0349 5.5486C25.5381 5.47527 26.0383 5.39932 26.5415 5.32599C26.415 4.97766 26.4709 5.15575 26.5415 4.76814C26.8475 4.70528 26.8181 4.65291 27.0446 4.54553V4.65816H27.1712C27.2712 4.82316 27.0446 4.88077 27.0446 4.88077L27.1712 5.10338C27.4595 4.88862 27.3301 4.76816 27.7979 4.65554C27.8391 4.54292 27.8803 4.43292 27.9244 4.3203C28.2834 4.45125 28.5159 4.53243 29.0544 4.54291C29.1809 4.32029 29.3045 4.09507 29.431 3.87246H29.6811L29.8077 4.09507L30.6875 3.87246V3.75983H31.5672L31.6938 3.53722H31.9439C32.0233 3.23079 32.1086 3.28317 32.194 2.97937C32.3617 3.01603 32.5294 3.05268 32.6971 3.09196V2.97937C32.8354 2.87984 32.7236 2.99768 32.8237 2.86673H32.6971C32.5735 2.68078 32.8766 2.77247 32.9472 2.75413V2.6415C33.0738 2.67817 33.1974 2.71485 33.3239 2.75413C33.2827 2.82747 33.2415 2.90341 33.1973 2.97674H33.3239C33.7182 2.57342 34.0625 2.97673 34.5803 3.08934C34.6657 2.94268 34.7362 2.96888 34.8304 2.86673L34.7039 2.64412H34.954V2.53152L35.2041 2.41889C35.2218 2.26175 35.1776 2.43721 35.0776 2.30626L35.2041 2.08365C35.6278 2.16222 35.6867 2.32723 36.0839 2.41889V2.08365C36.4282 2.15436 36.3693 2.23031 36.7107 2.30626V1.97105C36.849 2.00772 36.9578 2.17008 37.2138 2.08365V1.97105H37.5905V1.85842C37.8406 1.67247 38.0936 1.48652 38.3438 1.30057V1.07796H38.5938V1.19056C38.7674 1.22199 38.5703 1.167 38.7203 1.07796L38.9705 1.19056L38.844 1.5258C39.5443 1.57294 39.9003 1.72485 40.3505 1.30319C40.1033 1.17748 40.0562 1.14606 39.9738 0.855348L40.3505 0.742717C40.3917 0.816049 40.4329 0.891994 40.477 0.965327H40.7271V0.517485C41.0008 0.564628 41.0861 0.590811 41.2303 0.740095L41.9835 0.517485L41.857 0.294875H42.4838V0.0722656L42.5455 0.0984494ZM41.292 1.77462V1.99723H41.4186V1.77462H41.292ZM153.15 1.99723V2.21984H153.276V1.99723H153.15ZM41.6687 2.33248V2.55509H41.7953V2.33248H41.6687ZM39.912 2.55509V2.7777H40.0385V2.55509H39.912ZM150.01 2.89033C150.155 3.01866 150.01 2.93483 150.26 3.00293C150.116 2.8746 150.26 2.95842 150.01 2.89033ZM140.094 3.00293C140.238 3.13126 140.094 3.04746 140.344 3.11556C140.2 2.98723 140.344 3.07102 140.094 3.00293ZM34.2625 3.33817C34.2743 3.71793 34.2626 3.74412 34.5127 3.89602V3.78339H34.3861V3.33555H34.2596L34.2625 3.33817ZM138.211 3.45077C138.355 3.5791 138.211 3.49531 138.461 3.5634C138.317 3.43507 138.461 3.51886 138.211 3.45077ZM124.526 3.56078V3.78339H124.652V3.56078H124.526ZM133.315 3.67341L133.188 3.89602C133.188 3.89602 133.553 3.71793 133.438 3.67341H133.312H133.315ZM146.244 3.67341H146.494C146.388 3.79912 146.509 3.68911 146.368 3.78601V3.89864C146.223 3.77031 146.318 3.89865 146.241 3.67603L146.244 3.67341ZM35.1394 3.78601C35.2836 3.91434 35.1394 3.83055 35.3895 3.89864C35.2453 3.77031 35.3895 3.8541 35.1394 3.78601ZM105.57 3.89602V4.11863H105.697V3.89602H105.57ZM36.5223 4.34386V4.45649H36.3958C36.1575 4.5534 36.6459 4.56909 36.6459 4.56909C36.7519 4.44338 36.6312 4.5534 36.7725 4.45649C36.6283 4.32816 36.7724 4.41196 36.5223 4.34386ZM132.938 4.34386V4.45649H132.812C132.573 4.5534 133.062 4.56909 133.062 4.56909C133.168 4.44338 133.047 4.5534 133.188 4.45649C133.044 4.32816 133.188 4.41196 132.938 4.34386ZM165.076 4.34386V4.45649H164.949C164.711 4.5534 165.199 4.56909 165.199 4.56909C165.305 4.44338 165.185 4.5534 165.326 4.45649C165.182 4.32816 165.326 4.41196 165.076 4.34386ZM80.9624 4.45649V4.6791H81.0889V4.45649H80.9624ZM49.9547 4.56647V4.78911H50.0812V4.56647H49.9547ZM82.0923 4.56647V4.78911H82.2188V4.56647H82.0923ZM105.317 4.56647C105.529 4.80742 105.567 4.78911 105.567 4.78911C105.659 4.68173 105.35 4.59266 105.317 4.56647ZM137.458 4.56647C137.67 4.80742 137.708 4.78911 137.708 4.78911C137.799 4.68173 137.49 4.59266 137.458 4.56647ZM146.37 4.56647V4.78911H146.497V4.56647H146.37ZM169.595 4.56647C169.807 4.80742 169.845 4.78911 169.845 4.78911C169.937 4.68173 169.628 4.59266 169.595 4.56647ZM31.7496 4.7917H31.4996V4.90433H31.6261V5.01697H31.7526V4.79432L31.7496 4.7917ZM33.3827 5.46219H33.6329C33.5917 5.3129 33.5504 5.16363 33.5063 5.01434H33.3798V5.46219H33.3827ZM129.798 5.46219H130.049L129.922 5.01434H129.796V5.46219H129.798ZM161.936 5.46219H162.186L162.06 5.01434H161.933V5.46219H161.936ZM32.0027 5.23695V5.6848H32.1292V5.23695H32.0027ZM64.1403 5.23695V5.6848H64.2668V5.23695H64.1403ZM128.418 5.23695V5.6848H128.545V5.23695H128.418ZM146.997 5.46219V5.79743H147.124C147.25 5.59576 147.4 5.46479 147.627 5.34955V5.23695H147.377C147.236 5.42814 147.297 5.38885 147 5.45956L146.997 5.46219ZM160.556 5.23695V5.6848H160.683V5.23695H160.556ZM88.6216 5.34955V5.5722H88.7481V5.34955H88.6216ZM120.759 5.5722H121.009V5.45956C120.868 5.36528 120.992 5.47268 120.883 5.34696H120.756V5.56957L120.759 5.5722ZM50.5814 5.46219V5.79743H50.7079V5.46219H50.5814ZM82.719 5.46219V5.79743H82.8456V5.46219H82.719ZM137.708 5.90741C137.799 6.21645 137.743 6.15622 138.085 6.24265C138.164 5.93622 138.249 5.9886 138.335 5.6848H138.208C138.049 5.89694 138.082 5.87074 137.705 5.90741H137.708ZM138.838 5.6848V5.90741C139.167 5.89955 139.264 5.8629 139.465 5.79481V5.68217H138.838V5.6848ZM72.5528 5.79743V6.13267H72.6794V6.02004C72.8206 5.92575 72.697 6.03312 72.8059 5.90741L72.5557 5.79481L72.5528 5.79743ZM104.69 5.79743V6.13267H104.817V6.02004C104.958 5.92575 104.835 6.03312 104.943 5.90741L104.693 5.79481L104.69 5.79743ZM136.828 5.79743V6.13267H136.955V6.02004C137.096 5.92575 136.972 6.03312 137.081 5.90741L136.831 5.79481L136.828 5.79743ZM168.969 5.79743V6.13267H169.095V6.02004C169.236 5.92575 169.113 6.03312 169.222 5.90741L168.972 5.79481L168.969 5.79743ZM88.4951 5.90741V6.13005H88.6216V5.90741H88.4951ZM146.747 5.90741C146.959 6.14835 146.997 6.13005 146.997 6.13005C147.088 6.02267 146.779 5.9336 146.747 5.90741ZM80.3357 6.13267V6.46788H80.0855V6.69049L80.3357 6.57789L80.4622 6.24265C80.6034 6.14836 80.4798 6.25576 80.5887 6.13005H80.3386L80.3357 6.13267ZM85.6086 6.13267V6.35528H85.7351V6.13267H85.6086ZM117.746 6.13267V6.35528H117.873V6.13267H117.746ZM137.458 6.35528H137.081V6.57789H137.331C137.449 6.37622 137.505 6.40242 137.581 6.13005H137.455V6.35266L137.458 6.35528ZM149.884 6.13267V6.35528H150.01V6.13267H149.884ZM69.9164 6.57789V6.35528C69.7751 6.44956 69.8987 6.34217 69.7899 6.46788H69.6633C69.8075 6.59621 69.6633 6.51242 69.9134 6.58051L69.9164 6.57789ZM101.677 6.35528V6.69049H101.804C101.948 6.56216 101.804 6.64598 102.054 6.57789V6.35528H101.677ZM119.503 6.57789V6.35528H119.126V6.46788H119.253C119.397 6.59621 119.253 6.51242 119.503 6.58051V6.57789ZM134.192 6.57789V6.35528C134.05 6.44956 134.174 6.34217 134.065 6.46788H133.939C134.083 6.59621 133.939 6.51242 134.189 6.58051L134.192 6.57789ZM144.111 6.35528V6.57789C144.252 6.4836 144.128 6.59097 144.237 6.46526H144.364C144.22 6.33693 144.364 6.42075 144.114 6.35266L144.111 6.35528ZM161.936 6.46788V6.69049H162.063V6.46788H161.936ZM78.8291 6.91313H79.0792C78.9733 6.78742 79.0939 6.8974 78.9527 6.8005V6.57789H78.8262V6.91313H78.8291ZM43.4253 6.69049V6.91313H43.5519V6.69049H43.4253ZM75.566 6.69049V7.02573H75.6925V6.69049H75.566ZM139.841 6.69049V6.91313H139.968V6.69049H139.841ZM164.322 6.69049C164.467 6.81882 164.372 6.69051 164.449 6.91313H164.322V6.69049ZM171.982 6.69049V6.91313H172.108V6.69049H171.982ZM25.85 6.80312V7.02573H25.9766V6.80312H25.85ZM57.9876 6.80312V7.02573H58.1142V6.80312H57.9876ZM122.266 6.80312V7.02573H122.392V6.80312H122.266ZM154.403 6.80312V7.02573H154.53V6.80312H154.403ZM65.7734 6.91313C65.7852 6.9367 65.9529 7.31905 66.0235 7.24834V7.13574H66.1501C66.0412 7.0205 65.9323 6.98122 65.7734 6.91313ZM98.1611 7.4736H98.4112V7.25096H98.1611L98.2877 7.02835C98.1611 6.99168 98.0376 6.95504 97.911 6.91575V7.02835C98.0817 7.1593 98.1022 7.23262 98.1611 7.47619V7.4736ZM65.0201 7.02573L65.1466 7.36097H65.2731C65.1966 7.09383 65.232 7.15406 65.0231 7.02573H65.0201ZM97.1577 7.02573C97.1989 7.13835 97.2401 7.24835 97.2842 7.36097H97.4108C97.3343 7.09383 97.3696 7.15406 97.1607 7.02573H97.1577ZM99.5441 7.02573H99.294C99.3999 7.15144 99.2792 7.04146 99.4205 7.13836V7.25096H99.5471V7.02835L99.5441 7.02573ZM149.133 7.4736H149.384V7.25096H149.51C149.469 7.17763 149.428 7.10168 149.384 7.02835C149.242 7.12264 149.366 7.01527 149.257 7.14098H149.13V7.47619L149.133 7.4736ZM44.3051 7.13836C44.4493 7.26669 44.3052 7.18287 44.5553 7.25096C44.4111 7.12263 44.5552 7.20646 44.3051 7.13836ZM65.6468 7.13836V7.4736H65.7734V7.13836H65.6468ZM97.7844 7.13836V7.4736H97.911V7.13836H97.7844ZM100.171 7.13836H99.9207C100.027 7.26407 99.906 7.15406 100.047 7.25096V7.36359H100.174V7.14098L100.171 7.13836ZM114.733 7.13836V7.4736H114.86V7.13836H114.733ZM146.874 7.13836V7.4736H147V7.13836H146.874ZM19.8238 7.24834V7.47098H19.9504V7.24834H19.8238ZM25.7235 7.24834V7.47098H25.85V7.24834H25.7235ZM57.864 7.24834V7.47098H57.9905V7.24834H57.864ZM66.2736 7.4736V7.25096C66.1324 7.34525 66.256 7.23788 66.1471 7.36359H66.0205C66.1647 7.49192 66.0206 7.4081 66.2707 7.47619L66.2736 7.4736ZM90.0016 7.24834V7.47098H90.1282V7.24834H90.0016ZM99.6677 7.24834V7.91882H99.7942V7.24834H99.6677ZM115.736 7.24834V7.47098H115.863V7.24834H115.736ZM116.24 7.24834V7.47098H116.366V7.24834H116.24ZM122.139 7.24834V7.47098H122.266V7.24834H122.139ZM147.877 7.24834V7.47098H148.004V7.24834H147.877ZM148.38 7.24834V7.47098H148.507V7.24834H148.38ZM154.28 7.24834V7.47098H154.406V7.24834H154.28ZM22.5868 7.36097C22.731 7.4893 22.5868 7.40551 22.8369 7.4736C22.6927 7.34527 22.8369 7.42907 22.5868 7.36097ZM54.7244 7.36097C54.8686 7.4893 54.7244 7.40551 54.9745 7.4736C54.8303 7.34527 54.9746 7.42907 54.7244 7.36097ZM151.14 7.36097C151.284 7.4893 151.14 7.40551 151.39 7.4736C151.246 7.34527 151.39 7.42907 151.14 7.36097ZM63.6372 7.58358L63.7637 7.91882H63.8902C63.8137 7.65168 63.849 7.71191 63.6401 7.58358H63.6372ZM95.7777 7.58358C95.8189 7.6962 95.8601 7.8062 95.9042 7.91882H96.0308C95.9542 7.65168 95.9896 7.71191 95.7807 7.58358H95.7777ZM103.937 7.69621V7.91882H104.064V7.69621H103.937ZM24.5935 8.25406C24.5023 7.94502 24.5583 8.00525 24.217 7.91882C24.2582 8.06811 24.2993 8.21738 24.3435 8.36666H24.7201V8.4793C24.8967 8.50025 24.673 8.40071 24.8466 8.36666H25.3498V7.91882C25.2085 7.82454 25.3321 7.9319 25.2233 7.80619H24.9731V7.91882H25.0997C25.1409 8.12049 24.7878 8.21216 24.5965 8.25406H24.5935ZM40.9155 7.80881L40.7889 8.03145C40.7889 8.03145 41.1538 7.85334 41.039 7.80881H40.9125H40.9155ZM137.331 7.80881L137.205 8.03145C137.205 8.03145 137.57 7.85334 137.455 7.80881H137.328H137.331ZM19.4472 8.36666H19.6973V8.25406C19.5561 8.15978 19.6797 8.26714 19.5708 8.14143H19.4442V8.36404L19.4472 8.36666ZM23.8403 8.14405V8.36666C23.9816 8.27238 23.858 8.37978 23.9668 8.25406H24.0933C23.9492 8.12573 24.0934 8.20953 23.8433 8.14143L23.8403 8.14405ZM51.5849 8.36666H51.8349V8.25406C51.6937 8.15978 51.8173 8.26714 51.7084 8.14143H51.5819V8.36404L51.5849 8.36666ZM55.9809 8.14405V8.36666C56.1221 8.27238 55.9985 8.37978 56.1074 8.25406H56.2339C56.0897 8.12573 56.2339 8.20953 55.9838 8.14143L55.9809 8.14405ZM88.1185 8.14405V8.36666C88.2597 8.27238 88.1361 8.37978 88.245 8.25406H88.3715C88.2273 8.12573 88.3715 8.20953 88.1214 8.14143L88.1185 8.14405ZM148.004 8.36666H148.254V8.25406C148.112 8.15978 148.236 8.26714 148.127 8.14143H148.001V8.36404L148.004 8.36666ZM152.397 8.14405V8.36666C152.538 8.27238 152.414 8.37978 152.523 8.25406H152.65C152.506 8.12573 152.65 8.20953 152.4 8.14143L152.397 8.14405ZM21.8335 8.81454V8.5919L21.4569 8.70453L21.5834 9.15237H21.4569V9.265C21.1627 9.30167 20.8714 9.33831 20.5771 9.3776V9.60024C20.7419 9.62119 21.3569 9.73641 21.4569 9.71284L21.5834 9.49023L21.9601 9.60286C22.0012 9.41691 22.0425 9.23096 22.0866 9.04501H22.2131C22.3573 8.91668 22.2131 9.00047 22.4632 8.93238V9.15499H23.09V8.93238H23.3401C23.2577 8.70976 23.1724 8.48451 23.09 8.2619H22.9635L22.8369 8.59714C22.6574 8.70976 22.1131 8.7988 21.8335 8.81975V8.81454ZM36.0192 8.25406V8.58927H36.1457V8.25406H36.0192ZM19.1971 8.4793V8.70191H19.3236V8.4793H19.1971ZM38.7822 8.4793V8.70191H38.9087V8.4793H38.7822ZM51.3347 8.4793V8.70191H51.4612V8.4793H51.3347ZM83.4723 8.4793V8.70191H83.5988V8.4793H83.4723ZM120.759 8.4793C120.903 8.60763 120.759 8.5238 121.009 8.5919C120.865 8.46356 121.009 8.54739 120.759 8.4793ZM135.198 8.4793V8.70191H135.324V8.4793H135.198ZM147.75 8.4793V8.70191H147.877V8.4793H147.75ZM33.6329 8.58927C33.777 8.71761 33.6829 8.5893 33.7594 8.81192H33.6329V8.58927ZM65.6468 8.70191C65.7881 8.89309 65.7263 8.8538 66.0235 8.92452C65.9146 8.80928 65.8057 8.77 65.6468 8.70191ZM79.959 8.92452H80.2091V8.81192C80.0679 8.71763 80.1915 8.825 80.0826 8.69928H79.9561V8.92189L79.959 8.92452ZM33.3827 8.81454H33.6329V8.92714C33.3798 8.86428 33.524 8.94025 33.3827 8.81454ZM68.4099 8.81454C68.554 8.94287 68.4599 8.81453 68.5364 9.03715H68.4099V8.81454ZM102.181 9.25976H101.93V8.81192H101.804V8.92452C101.66 9.05285 101.754 8.92451 101.677 9.14712C101.804 9.22046 101.927 9.29643 102.054 9.36977C102.16 9.49548 102.039 9.38546 102.181 9.48237V9.25976ZM67.2799 8.92452V9.14712H67.4064V8.92452H67.2799ZM26.1001 9.14975V9.37239H26.2266V9.14975H26.1001ZM58.2407 9.14975V9.37239H58.3672V9.14975H58.2407ZM85.9852 9.25976C86.1294 9.38809 85.9852 9.30429 86.2353 9.37239C86.0911 9.24406 86.2353 9.32785 85.9852 9.25976ZM41.4157 9.595V9.37239C41.2744 9.46667 41.398 9.35928 41.2891 9.48499H41.1626C41.3068 9.61332 41.1626 9.52953 41.4127 9.59762L41.4157 9.595ZM105.694 9.595V9.37239C105.553 9.46667 105.676 9.35928 105.567 9.48499H105.441C105.585 9.61332 105.441 9.52953 105.691 9.59762L105.694 9.595ZM30.2431 9.82023V10.0428H30.3696V9.82023H30.2431ZM32.7559 9.82023V10.0428H32.8825V9.82023H32.7559ZM23.3401 9.93024V10.1528H23.4666V9.93024H23.3401ZM33.3827 10.1555C33.3768 10.6086 33.3239 10.6374 33.6329 10.8259V10.7133C33.421 10.4724 33.7299 10.1738 33.8829 9.93024H33.7564C33.6152 10.1214 33.677 10.0821 33.3798 10.1528L33.3827 10.1555ZM35.6425 9.93024C35.7867 10.0586 35.6426 9.97474 35.8927 10.0428C35.7485 9.91451 35.8926 9.99833 35.6425 9.93024ZM42.169 9.93024C42.1278 10.0429 42.0865 10.1528 42.0424 10.2654H42.169V10.1528C42.2219 10.0874 42.3749 10.1371 42.2955 9.93024H42.169ZM55.4777 9.93024V10.1528H55.6042V9.93024H55.4777ZM97.6609 10.1555C97.655 10.6086 97.6021 10.6374 97.911 10.8259V10.7133C97.6992 10.4724 98.0081 10.1738 98.1611 9.93024H98.0346C97.8933 10.1214 97.9551 10.0821 97.6579 10.1528L97.6609 10.1555ZM99.9207 9.93024C100.065 10.0586 99.9207 9.97474 100.171 10.0428C100.027 9.91451 100.171 9.99833 99.9207 9.93024ZM43.802 10.0428V10.2654H43.9286V10.0428H43.802ZM57.864 10.2654H58.1142V10.1528C57.9729 10.0586 58.0965 10.1659 57.9876 10.0402H57.8611V10.2628L57.864 10.2654ZM75.9425 10.0428V10.2654H76.0691V10.0428H75.9425ZM87.1151 10.0428C87.2593 10.1712 87.1651 10.0428 87.2416 10.2654H87.1151V10.0428ZM59.4942 10.1555C59.453 10.2288 59.4118 10.3047 59.3677 10.3781L59.6177 10.4907C59.7089 10.3571 59.3529 10.3938 59.6177 10.1555H59.4912H59.4942ZM44.0521 10.2654L43.9256 10.6007H44.0521V10.3781H44.1786V10.2654H44.0521ZM76.1927 10.2654L76.0662 10.4881C76.0662 10.4881 76.431 10.31 76.3162 10.2654H76.1897H76.1927ZM10.2814 10.7133H10.5316V10.6007C10.3903 10.5064 10.5139 10.6138 10.405 10.4881H10.2785V10.7107L10.2814 10.7133ZM80.9624 10.7133H80.7123C80.8183 10.839 80.6976 10.729 80.8388 10.8259V10.9386H80.9653V10.7159L80.9624 10.7133ZM14.5509 10.9359V11.1585H14.6774V10.9359H14.5509ZM32.6294 10.9359V11.3838H32.7559V11.2712H32.8825C32.8413 11.1978 32.8001 11.1219 32.7559 11.0485H32.8825C32.7383 10.9202 32.8825 11.004 32.6324 10.9359H32.6294ZM78.8291 10.9359V11.1585H78.9556V10.9359H78.8291ZM97.7844 10.9359C97.6403 11.0643 97.7845 10.9804 97.5344 11.0485V11.1612H97.7844C97.8256 11.0878 97.8669 11.0119 97.911 10.9386H97.7844V10.9359ZM39.2824 11.2712L39.1558 11.4938C39.1558 11.4938 39.5207 11.3157 39.4059 11.2712H39.2794H39.2824ZM34.5127 11.4964V11.719H34.6392V11.4964H34.5127ZM37.2756 11.4964V11.719H37.4021V11.4964H37.2756ZM31.373 11.719H31.6231C31.5202 11.8657 31.5348 11.85 31.373 11.9416V12.0543H31.2465L31.373 11.719ZM35.7691 11.719L35.6425 11.9416C35.6425 11.9416 36.0074 11.7635 35.8927 11.719H35.7662H35.7691ZM26.1001 12.1669V12.3895H26.2266V12.1669H26.1001ZM16.4341 12.7247V12.9473H16.5607V12.7247H16.4341ZM19.1971 12.8373V13.1725H19.7003V13.3952H20.0769C20.1799 13.2485 20.1651 13.2642 20.327 13.1725V12.8373C19.8032 12.9185 19.8003 12.8661 19.1971 12.8373ZM9.02793 13.0599C9.17211 13.1883 9.02796 13.1045 9.27807 13.1725C9.13389 13.0442 9.27804 13.128 9.02793 13.0599ZM35.0158 13.1725V13.3952H35.1423V13.1725H35.0158ZM3.87861 14.9587C3.83742 15.0714 3.79624 15.1814 3.75211 15.294H3.87861V15.0713H4.00512V14.9587H3.87861ZM20.074 15.0713V15.294H20.2005V15.0713H20.074Z" fill="#9FCCB9"/>
</svg>
