<svg width="86" height="152" fill="none" xmlns="http://www.w3.org/2000/svg"><path d="M50.089 148.228c-.01.383-.58.681-1.262.681s-1.243-.317-1.252-.7l-.673-32.165c-.028-1.14.944-2.083 2.159-2.073 1.215 0 2.168.961 2.121 2.101l-1.102 32.156h.009Zm33.26-18.694c-.01.383-.58.682-1.262.682s-1.243-.317-1.252-.7l-.673-32.166c-.028-1.139.944-2.082 2.159-2.073 1.215 0 2.168.962 2.121 2.101l-1.103 32.156h.01Z" fill="#282828"/><path d="m81.939 49.574-30.036-5.471c-2.131-.392-3.879 1.064-3.879 3.23v40.233c0 .27.028.55.075.822-.729.065-1.449.233-1.981.494L11.044 105.96c-1.046.504-.972 1.148.16 1.419l36.035 8.646c1.13.271 2.897.046 3.916-.504l31.391-16.77c1.551-.858 2.392-1.484 2.42-3.109l.776-41.418c.038-2.166-1.673-4.248-3.803-4.64v-.01Z" fill="#F8B3A7"/><path d="M48.21 109.367c-1.317 0-3.065-.392-4.897-.803a87.92 87.92 0 0 0-2.934-.616.37.37 0 1 1 .13-.728c1 .187 2 .401 2.963.616 1.972.439 3.832.85 5.075.766.888-.056 3.14-.794 8.794-3.95a.37.37 0 0 1 .364.645c-4.635 2.586-7.7 3.949-9.102 4.042-.122 0-.253.01-.383.01l-.01.018ZM75.49 90.9h-.046c-1.57-.234-4.692-.785-7.71-1.326a528.331 528.331 0 0 0-5.86-1.018.378.378 0 0 1-.309-.43.376.376 0 0 1 .43-.308c1.328.215 3.552.607 5.87 1.018 3.009.532 6.13 1.083 7.69 1.317a.362.362 0 0 1 .309.42.374.374 0 0 1-.383.317l.01.01Zm3.224 4.192a.37.37 0 0 1-.336-.215.376.376 0 0 1 .186-.495c1.71-.775 1.701-1.718 1.692-3.585v-.514c0-.906.056-3.314.13-6.116.104-4.07.225-8.692.188-10.037 0-.205.159-.373.364-.383.197-.018.374.16.383.365.038 1.363-.084 5.994-.186 10.083-.075 2.792-.131 5.201-.131 6.097v.514c.018 1.914.028 3.296-2.122 4.267a.442.442 0 0 1-.159.037l-.009-.018ZM76.06 51.665h-.046c-1.57-.233-4.692-.784-7.71-1.325a505.634 505.634 0 0 0-5.86-1.018.378.378 0 0 1-.308-.43.376.376 0 0 1 .43-.308c1.327.215 3.551.607 5.869 1.018 3.009.532 6.13 1.083 7.69 1.316a.362.362 0 0 1 .31.42.374.374 0 0 1-.384.318l.01.01Z" fill="#282828"/><path d="M30.744 141.617a6.158 6.158 0 0 1-.252-.934c-.28-2.017-.327-11.027-.449-12.39 0 0-5.953-1.242-6.187.681-.243 1.924 1.038 12.008-.112 13.511-.252.327-.794.719-1.514 1.148 2.935 1.214 5.776-.382 8.514-2.016Z" fill="#FFDBB0"/><path d="M30.744 141.617c-2.729 1.634-5.57 3.231-8.513 2.017-2.552 1.541-7.355 3.576-9.215 5.079-2.383 1.924 1.57 3.399 3.486 3.184 1.916-.215 12.261-2.119 14.635-3.949 2.037-1.578.308-4.314-.393-6.331Zm-20.578-1.065c-1.953 1.046-5.326 1.298-7.252 2.68-2.607 1.877-4.887 4.818 1.187 5.406 6.075.588 12.252-2.698 13.617-4.603 1.345-1.867-.972-2.558-1.047-3.576-2.168.476-4.42.588-6.514.084l.01.009Z" fill="#282828"/><path d="M17.382 128.984s-5.29-1.615-5.58-.569c-.289 1.055.552 8.086-.214 10.616-.206.663-.72 1.139-1.42 1.512 2.083.495 4.345.383 6.513-.084v-.065c.028-1.055 1.196-9.813.71-11.41h-.009Z" fill="#FFDBB0"/><path d="M64.594 72.488c.187.317 5.794 10.233.337 22.184-4.355 9.552-24.345 11.774-26.42 13.707-2.233 2.091-2.308 31.241-5.009 31.213-1.028 0-4.364 1.139-9.336.868-6.738-.364-3.15-3.118-5.14-3.239-1.42-.094-5.112.42-8.86-.094-1.541-.215-1.102-12.567-.971-16.928.14-4.472.29-16.302 1.308-24.2.626-4.875 13.906-11.373 17.719-12.979 3.888-1.643 8.448-8.842 10.813-9.953 3.243-1.531 25.56-.579 25.56-.579Z" fill="#A2A2A2"/><path d="M20.41 127.902a.295.295 0 0 1-.3-.299c0-2.661.636-14.901.935-20.793.065-1.288.121-2.269.14-2.773.13-2.642.243-4.93 2.42-6.414 1.888-1.289 8.346-5.481 13.103-7.787a.287.287 0 0 1 .392.14c.075.15.01.327-.14.392-4.729 2.297-11.149 6.47-13.018 7.75-1.841 1.26-2.019 3.081-2.159 5.956-.028.505-.075 1.485-.14 2.774-.3 5.882-.935 18.113-.935 20.755 0 .168-.13.299-.299.299Z" fill="#282828"/><path d="M52.8 20.668c.252 0 5.962.056 6.27.028.113.532-1.336 3.613-.448 5.593 1.131 2.511 7.047 3.968 6.224 6.414-2.56 6.134-14.037 4.118-16.429 1.251-.87-5.462 2.682-3.52 4.299-7.665 1.084-2.792.075-5.276.075-5.621h.009Z" fill="#FFDBB0"/><path d="M61.939 21.34c-1.57 3.23-4.103 4.892-6.271 4.976-2.168.075-4.224-.626-6.13-1.914-1.533-1.363-2.72-3.483-2.991-4.407-.253-.84-.337-1.858-.271-2.83.168-2.268-1.243-2.184.037-6.787.393-1.4.664-4.407 6.495-4.967 5.13-.495 16.467 5.667 9.121 15.938l.01-.01Z" fill="#FFDBB0"/><path d="M47.921 9.93c-1.327 1.083-1.514 4.5-2.626 3.39-2.14-2.139-1.663-8.217 1.337-9.16 3.084-.971.355-2.054 6.934-3.175C58.36.173 68.06 6.877 65.734 12.087c-1.542 3.445.046 6.89-4.197 10.037-.794.588-.476-3.156-.018-3.548 2.215-2.026 1.813-2.866 1.383-3.707-.44-.84-1.897-1.4-2.337-.644-2.158 3.772-1.317-.55-3.336-.168-4.224.803-8.672-4.855-9.317-4.127h.01Z" fill="#282828"/><path d="M52.033 31.134c-1.87-2.69-4.383-2.923-7.981.858-5.486 5.752-5.047 9.496-7.458 12.717-1.495 1.998-12.803 6.564-16.476 8.002-2.7 1.064-3.327 2.96-3.327 4.416 0 3.716 1.907 6.07 3.187 5.836 2.57-.467 23.55-11.68 24.055-14.07.626-2.923 9.047-16.247 7.99-17.769l.01.01Z" fill="#E2C2BC"/><path d="M39.735 48.8c1.122-10.158 7.7-19.29 8.803-19.635 2.944-.915.515 1.073 5.897 1.139 4.692.112 4.757-4.006 7.14-3.212 5.103 1.69 8.495 3.604 10.738 5.453 2.262 1.867-5.336 8.29-2.869 13.473.14.298.234 9.944 0 20.037-.084 3.482-.43 13.968-2.065 14.453-1.3.392-7.093-.523-9.392-.69-1.29-.094-18.439-.664-19.486-1.336-3.326-2.138-.644-4.93-.86-8.627-.513-8.74.655-8.16 2.085-21.036l.01-.019Z" fill="#E2C2BC"/><path d="M45.464 38.4c3.58.373 13.625.439 16.102 1.148 2.486.71.56 7.871 2.523 13.053 1.178 3.119 1.907 10.028 5.972 10.467 1.411.15.028 5.891-.785 12.408-.813 6.517-.673 13.585-1.981 17.834-1.309 4.248-12.14 13.043-15.187 12.362-3.046-.682-13.027-3.688-16.036-4.753-3.01-1.064-12.86-7.441-17.943-8.132-5.084-.691-7.15-1.513-3.01-5.369 3.253-3.025 12.495-7.19 17.41-10.99 4.692-3.622 8.131-24.135 9.028-29.616.888-5.48.421-8.758 3.898-8.403l.009-.01Z" fill="#EE8084"/><path d="M61.136 28.155c-.552 1.979-1.86 9.355-1.953 11.83-.094 2.474-.626 1.858 1.196 1.858s.981.354 1.757-3.007c.775-3.361 1.56-8.711 1.962-9.701.402-.99.346-1.307-.897-1.755-1.243-.458-1.691-.542-2.065.784v-.01Zm-14.691 2.539c-.551 1.98-1.271 8.151-1.365 10.626-.093 2.474-.626 1.858 1.197 1.858 1.822 0 1.261.355 2.028-3.007.766-3.361 1.42-8.216 1.56-9.28.271-2.13.084-2.428-1.224-2.148-1.29.27-1.813.616-2.187 1.942l-.01.01Z" fill="#EE8084"/><path d="M18.998 41.693c5.308.533 9.402 1.111 13.43 3.502 3.065 1.82 2.7.71 9.448.205 4.869-.364 15.878 1.756 17.28 3.193.654.682-.561 8.73-.916 12.82-.346 3.959-1.795 12.875-2.15 16.05-.336 3.081-1.888 1.96-5.075 1.018-5.018-1.476-9.541-2.661-15.438-2.783-4.514-.093-5.364-.261-9.57-2.549-3.028-1.643-8.513-3.043-10.513-3.258-1.664-.187-1.103-1.167-.907-4.911.234-4.492.71-13.698 1.13-17.432.421-3.735-.26-6.219 3.29-5.864l-.009.01Z" fill="#EBA193"/><path d="M18.204 42.907c5.308.532 10.298 1.148 14.186 3.763 2.682 1.801 2.888 0 8.691-.047 4.888-.047 15.168 1.736 16.57 3.184.654.681-.701 8.618-1.056 12.707-.346 3.959-1.542 11.382-1.748 14.472-.206 3.09-1.178 3.221-4.364 2.278-5.019-1.475-9.794-2.222-15.691-2.343-4.514-.093-5.365-.262-9.57-2.549-3.028-1.643-8.514-3.044-10.514-3.259-1.663-.186-1.102-1.167-.906-4.91.234-4.492.71-13.698 1.13-17.433.421-3.735-.26-6.218 3.29-5.863h-.018Z" fill="#E2C2BC"/><path d="M31.549 74.325a.247.247 0 0 1-.243-.243c0-4.043.86-11.624 1.551-17.721.28-2.493.533-4.65.683-6.265a.234.234 0 0 1 .261-.215c.131.01.234.13.215.261-.15 1.616-.402 3.773-.682 6.266-.692 6.087-1.551 13.66-1.551 17.665 0 .13-.113.243-.243.243l.009.009Z" fill="#EBA193"/><path d="M11.222 63.506c.448-1.578-.318-2.147 1.439-4.332.243-.308 2.215-2.727 2.626-1.055.364 1.494 1.355.747 1.383 2.24.019 1.233-.645 1.168-.271 1.84.626 1.14-.551 1.064-.58 2.157.225.97-.626 2.596-2.065 2.287-.86-.186-2.981-1.55-2.532-3.127v-.01Zm38.26 4.19c.523-.794 1.047-1.028.72-1.69-.337-.663-1.3-.869-1.262-1.56.037-.812.888-.784 1.729-.793.84 0 2.617.588 3.345.821.393.122 1.757.364 1.29-.616-.832-1.727-.533-2.11-.29-2.652.197-.448 1.122-.382 1.701.775.58 1.158 1.552 3.007 2.224 3.623.402.364 4.056-1.083 6.888-1.858 3.551-.962 3.785-1.998 3.243-5.173-.337-1.988-.355-5.49-.336-7.077.018-1.578 8.233-2.596 8.579-1.372.439 1.54-.066 3.669.261 7.124.374 3.837.552 10.167-4.046 11.344-4.178 1.064-10.29 1.727-13.28 1.793-.44 0-3.252 1.633-3.794 1.727-1.533.28-3.28.784-3.963.504-.682-.28-.925-.345-1.159-1.344-.233-.99-.41-.831-1.14-1.653-.72-.822-1.243-1.14-.71-1.923Z" fill="#FFDBB0"/><path d="M66.687 31.649c2.234-1.083 4-1.4 7.57 2.838 1.626 1.933 3.981 8.058 4.439 14.491.318 4.426 1.112 9.365.262 12.343-.243.86-3.075 1.625-7.449.785-2.757-.532-4.953-.486-5.943-1.214-1.234-.906.925-7.414.925-9.813 0-2.017-1.449-8.002-1.56-9.02-.169-1.475-.646-4.724-.608-6.106.028-1.456 1.243-3.763 2.364-4.304Z" fill="#E2C2BC"/></svg>