<svg width="191" height="21" fill="none" xmlns="http://www.w3.org/2000/svg"><path fill-rule="evenodd" clip-rule="evenodd" d="M46.869.921c.66.133.757.472 1.525.527.11-.2.276-.499.692-.394v.132c.354.124.156-.132.416.133h.14v.527l.276.132v.262h.14c.045.133.09.262.14.395h-.556v.394c-.384.095-.31.037-.417.394-.484.111-.646.333-1.248.395.01.345.056.447.14.656-.474-.034-1.089-.105-1.108-.132v.261h.14c.438.004-.416.133-.416.133-.176-.206-.371-.32-.693-.394-.208.357-.48.56-.972.656v-.262l-.276.132c-.081.2-.107.216-.14.527-.292.022-.838.117-.972.262-.169.185.124.145-.276.395v-.527h-.14v.527h-.416V5.79c-.211.077-.227.101-.556.132V5.66l-.416.133c-.09.225-.133.413-.14.789h-.692s-.14.21-.276.261v.133h-.14v-.262h-.276v-.132h-.14v.132h-.416v.133c-.24.203-.292.616-.416.92-.51-.045-.913-.23-1.248.133-.046.133-.091.262-.14.395-.37.043-.741.086-1.108.132v.133l-.276.132v.262l-.416-.132-.14.262h-.416c-.023.012-.163.197-.277.261v.133c-.23-.043-.461-.086-.692-.133v-.132c-.081-.01-.475.222-.692.262-.095.25-.18.804-.277 1.05l-.416-.132v-.133c-.191-.033.056.096-.14.133-.331.062-.357-.099-.555-.133l-.277.395h-.555v.132l-.416.133v.394h.276v.133h-.14c-.075.061-1.112.333-1.108 0h-.14v.262l-.692-.133c.006.472-.033.829-.277 1.05v-.132h-.14v-.527h-.276c-.01.346-.055.447-.14.657-.289-.08-.565-.148-.832.132v.262h-.14v.133l-.832-.133c-.045.086-.09.176-.14.262-.184.043-.37.086-.555.133v.261h-.556v.262c-.331-.061-.435-.15-.692-.261v.656c-.325.043-.647.086-.972.132v.133c-.406.09-.455.145-.556.527.195.009-.02-.022.14-.133.218-.15.13.324.14.394-.238.148-.189.084-.277.395.186-.043.37-.086.556-.133l.14-.262c.026-.002.325.124.556.133v-.262c.14.043.276.086.416.133l.14-.262c.169-.077.406-.071.555-.133v-.527c.329-.052.764-.25 1.248-.132v.132h.556v-.132h.277v-.527h.276v.262c.416-.086.832-.176 1.248-.262l.14.133c.38-.253.127-.45.832-.527.16.15 0 .052.276.132v-.394l.693-.133v-.262c.458.071.63.167.832 0h.14c.175-.203-.15-.265.14-.394v.132h.139V12.1c.305-.046.718-.172 1.108 0 .046.086.091.176.14.262h.276V12.1c.28.074.12-.015.277.133l.416-.133v-.133h.416c.09-.132.185-.261.276-.394.23.043.462.086.692.133v.132c.101.019.51-.117.972-.132l-.14-.395h.277v.133h.556l.14.132v-.132l.415-.133c-.01-.345-.055-.447-.14-.656h.833c.16-.151 0-.052.276-.133.107-.394.085-.345.556-.394.156.225.088.179.416.262.14-.33.286-.687.556-.527h.14v.394h.276c.1-.363.039-.292.416-.394v-.132l.832-.133s.062.191.276.133l.14-.262h.416v-.262l.276.132v.133c.182.064.03-.062.14-.133.348-.09.224-.068.416-.262h.14v-.262l.276-.132c.163-.166.234-.382.416-.527v.133h.416c.046.175.091.35.14.526h.14c.338-.536.777-.486 1.524-.656.043-.01.036-.182.277-.132v.132c.276.086.555.176.832.262v-.132h.14l-.14-.395c.09-.043.185-.086.276-.132.192-.275-.062-.185.276-.395v-.132l.693-.133c-.075.367-.108.013 0 .395h.14v-.262c.276.043.555.086.831.132v-.132c.15-.12.026.021.14-.133h-.14V6.97h.416c.03.311.059.326.14.527.16-.151.056 0 .14-.262.16-.151.055 0 .14-.262.416-.133.832-.262 1.248-.394l.14.132c.045-.425.127-.385.276-.656h.276v.132h.14v-.132h.556l.14-.395c.36.139.585.24 1.108.262-.045-.086-.091-.175-.14-.262.095-.145.78-.185.972-.394l-.14-.262h.14v-.132c.367.154.523.252 1.108.261v-.132h-.14v-.394c.44.086.28.2.417.261.162-.009.494-.265.832-.132l.14.262h.276c-.133.434-.13.773.14 1.183h-.14c-.16.151 0 .052-.276.133v.656h-.14c-.036.219.13.228.14.262v.656c-.498.018-.787.188-1.109.262l-.276-.133c-.091.133-.185.262-.276.395-.078.03-.758-.099-.972-.133-.085.345-.393.697-.832.657 0 0-.075-.167-.276-.133l.14.262h-.557c-.045.219-.09.438-.14.656l-.692-.132-.14.262c-.373.09-.364-.253-.416-.262l-.416.132.14.133c.007.052-.123.296-.14.527-.461.043-.923.086-1.388.132v-.262c-.328-.027-.344-.055-.555-.132v.394c-.03.056-.953.663-.416.921h-.416v-.132c-.134-.243-.14.262-.14.262-.156.11-.02-.015-.14.132.39-.123.387-.138.832 0v.133l.416-.133-.14-.132.14-.395c.65.238 1.08.077 1.525-.261.045-.087.09-.176.14-.262h.692s-.013-.077.276-.133v.395h.14v-.262c.591-.01.92-.028 1.248-.262l.14-.262c.23.043.461.086.692.132-.16-.15 0-.052-.276-.132V9.86c.14.043.276.086.416.132v-.261h.276v.261c.803-.061 1.378-.49 1.94-.788v.394h.277v-.262h.972v-.132h.416V9.07c.276.043.556.086.832.133.117-.148-.016-.019.14-.133v-.527c.276-.043.556-.086.832-.132-.046.132-.091.262-.14.394h.14v.133c.156-.111.02.015.14-.133.159-.15.055 0 .14-.262.217.01.971.133.971.133v-.133h.14V8.15c.153-.185.624-.136.972-.133v.133l.832-.133v-.132h.276v-.133h.416l-.14.395h.14c.101-.364.04-.293.416-.395v.262c.14-.043.277-.086.416-.132v-.133c.325-.043.647-.086.972-.132v-.133h.416l.14-.262c.117-.043.913.14 1.109.262v-.262l.415-.132v-.133c.189-.055-.055.096.14.133.231.043.247-.126.276-.133.254-.049.537.173.693.262v-.132c.432-.373.032-.558.832-.656v.132h.416l-.14.262c.179.213.26-.145.416.394.182-.138.208-.268.416-.394v.394h.277c-.046-.262-.091-.526-.14-.788.65-.21.468.101.832-.657h.14c-.016.28-.143.45-.14.527l.14.133c.253-.167.016-.179.14-.262.159-.111.087.12.14.132.139-.043.276-.086.415-.132V5.91c.312-.053.533-.216.972-.133 0 0 .007.173.276.133v-.133h.693v.133c-.332.08-.257.043-.416.262h.276c.4-.626 1.066-.407 1.804-.656l.14-.395c.396 0 .595.046.832.133v-.527h.14c.09.132.185.262.276.394h.14l-.14.262h.14v.133c.396.27.357-.235.555.394h.277v.262h.276c-.045.132-.09.262-.14.394h.14c.094.197.098.219.14.527h.276v.262a.93.93 0 0 1 .416.394c.449-.23.263-.314.832-.132l-.14-.395h.277v-.261h.276v.132h.14v-.132l.416.132-.14.394h.276c.101-.363.04-.292.416-.394.209-.231.374-.25.833-.262V6.57l.832-.262c.01.345.055.447.14.657.156-.111.019.015.14-.133h.139v-.394c.416.043.832.086 1.248.132v-.262h.276l.14-.394c.186.043.37.086.556.132.046-.086.091-.175.14-.261l.692.132v.262c.354-.203.956-.817 1.388-.527h.276v.262h.14V5.65c.666-.034.67-.092 1.248 0 .046-.219.091-.437.14-.656.64-.114 1.125-.114 1.525 0v-.262h.831v.132h.417v.133c.14-.043.276-.086.416-.133v-.132c-.16-.151-.056 0-.14-.262.455.01.41.166.692 0l.14-.262.832.262v.262c.374 0 .787.043.972-.133v-.262l.276.133v-.133c.276-.043.556-.086.832-.132.13.08-.048.188.14.132l.14-.261c.175 0 .354.234.692.132v-.132c.231-.044.462-.087.693-.133l-.14.394h.14c.308.318.26.185.692.133-.016.416-.27.246.14.394.061.327.126.484.139.922-.383.095-.308.037-.416.394h-.139v.656c-.332.062-.436.151-.693.262v-.394h-.14c-.204.736-.24.271-.692.527v.132l-.556.395c.046-.133.091-.262.14-.395h-.14c-.084.21-.123.311-.14.657-.523.104-.776.255-1.524.261V8.02h-.276v.261h-.693v.133h.14c-.087.188-.162.098-.276.262h-.276l.14-.262h-.14c-.137.179-.082.259-.416.262 0 0-.098-.188-.277-.133-.045.087-.09.176-.14.262h-.276l-.14.789-.555.132V9.2h-.276c-.101.422-.19.477-.693.526l.14-.394h-.14c-.052.151-.039.468-.276.394l-.14-.394c-.14.043-.276.086-.416.133v.261c-.221-.08-.328-.117-.692-.132V9.2h-.14v.394c.16.151.055 0 .14.262-.325.043-.647.086-.972.132v.262c-.491.05-.423.164-.832.262v.395c-.338-.074-.306-.14-.556-.262v.262h-.14v.394h.14v-.262h.276v.262c.231-.043.462-.086.692-.133v.395h.277v-.395c.23.044.461.087.692.133.065-.314.16-.413.276-.656.452.003 1.002-.059 1.249.132h.14c.045-.086.09-.176.14-.262h.275v-.132h.277v-.133l.276.133v-.133h1.388a19.326 19.326 0 0 0-.14-.394h.276v-.133h.14v.133l.416.132c.01.185.033.037-.14.133.157.139 0 .058.277.132v-.132h.14v-.395h.14c.12-.181.103-.228.139-.526.328-.016.351-.04.556-.133V9.2h.14v.132l-.14.262h.416v-.262c.325-.043.647-.086.972-.132v.132h.14c.156-.105-.052-.172.14-.132v.132h.555v.262h.14c.045-.262.09-.527.14-.789h.276v.262h.14v-.394c.318.012.36.11.556.132l.139-.262s.381.124.556.133v-.262l.14.132c.185-.043.37-.086.556-.132v.132h.692v-.394h.276v.132h.14v-.132l.276.132.14-.394c.367-.13.289.287.556.262V8.02c.608-.136.764-.324 1.388-.395v.133h-.14c-.263.114.276.132.276.132.117.148-.016.019.14.133v-.262l.692-.133c.046-.086.091-.175.14-.262l.14.133c.822.05.93-.274 1.388-.527v.394h.14c.159-.15 0-.052.276-.132v-.262c.14.043.276.086.416.132l.14-.262h.556V6.71h.139c.085.314.046.243.277.394V6.71c.728-.11.614-.015 1.248.262.071-.308.201-.493.416-.656.159.15 0 .052.276.132v-.262h.416v-.262c.231.043.462.087.693.133v.262h.276v-.395c.302.019.461.133.556.133v-.133l.416-.132c.045.086.091.175.139.262.443.123 1.106-.275 1.388-.395l-.139-.394h.416c.084.314.045.243.276.394.117.148-.016.019.14.133.01-.345.055-.447.14-.657.276-.043.555-.086.832-.132.117.148-.017.018.139.132-.107.133-.169.13-.276.262h.416l-.14-.394.14-.132c.205.061.221.15.556.132v-.132h.14v.132c.185.043.37.086.556.132v.133c.565.203.822-.096 1.108.133.432.27.065.169.276.526l.276.133v.262h.14c.127.178.104.23.14.527l-.556-.133c.111.425.257.453.276 1.05-.156.112-.019-.015-.139.133h-.14c-.042-.394-.02-.357-.276-.527v.133h.139c-.091.176-.185.351-.276.527-.361.006-.478.028-.692.132v.133c-.237.077-.241-.123-.276-.133-.498-.12-.813.167-.972.395h-.14c-.046.262-.091.527-.14.788h-.276l-.14-.261c-.185.043-.37.086-.556.132.03.311.059.327.14.527-.322-.012-.354-.105-.556-.133l-.14.262c-.185.043-.37.087-.555.133-.101.363-.039.293-.416.394-.488.416-.898-.166-.972-.132v.132c-.231.133-.462.262-.693.395.075.459.137.243 0 .656h.14v-.133h.556v.262l.416-.132v-.133l.416.133v-.394c.14.043.276.086.416.132v-.133l-.14-.132h.832c.046.133.091.262.14.394.091-.043.277-.261.277-.261.139.043.276.086.416.132v-.133c.204-.101.23-.098.555-.132v-.262h.277v-.26h.556v.262c.312-.034.367-.012.555-.132v-.133h.277v-.132h.276v-.133c.247-.188.331-.296.692-.394v.394h.556c.046-.219.091-.437.14-.656h.276c-.045.132-.091.262-.14.394h.14c.198-.188.774-.336 1.108-.394v-.262c.186-.043.371-.086.556-.133v-.394h.277v.394h.276v-.394h.692c-.045.133-.091.262-.14.394h.277c.143-.15.256-.252.555-.261v.132h.14l.14-.132c.13-.238.192-.207.276-.527l.416-.133v-.132l.14.132.416-.132v.394h.276c.03-.311.059-.327.14-.527l.277.133v-.133c.198-.163.214-.363.416-.527.042.062.282.478.416.395l.139-.395c.602-.043 1.203-.086 1.804-.132v.132c-.383.096-.308.037-.416.395.345-.059.511-.12.972-.133v-.132h-.14V6.84c.231.044.462.087.693.133.045-.133.091-.262.14-.394.159.15.055 0 .139.261l.416.133V6.84c.286-.148.251-.203.693-.261v-.395c.295-.015.474-.135.555-.132l.14.132v-.262l.693-.132v.262c.091-.044.185-.087.276-.133v-.132c.221-.025.172.228.276.262h.556c.045-.22.091-.438.14-.657.231.043.461.087.692.133l.14-.262h.14v.132c.139-.043.276-.086.416-.132V5c.159.15.055 0 .139.262h.277c.065-.314.159-.413.276-.656.462.006 1.248.132 1.248.132v-.132h.276v-.133h.416c.046-.086.091-.176.14-.262.14.043.277.086.416.133v.132h.693v-.262l.555-.132v.262h.277c.087.36.182.299.276.656h.416c.101.364.039.293.416.394v.262c-.829.16-.718.527-.972 1.183h.832l.14-.526c.579-.084.393-.13.972-.262v.262c.657-.262.559-.262 1.108 0v-.262c.186-.044.371-.087.556-.133v-.262h.276v.133h.14v-.133c.316-.058.374.068.556.133v-.133h-.14c-.256-.126.277-.132.277-.132v-.262h.276V5c.435.077.617.213 1.108.262l.14-.395s-.296-.021-.14-.132h.277v.132h.832v-.394c.442.086.273.194.416.262.23-.022.257-.259.276-.262.267-.07.192.086.276.133h.14v-.133c.185.043.371.086.556.133.101-.364.039-.293.416-.395v.262h.556c.13-.237.191-.206.276-.527l.416.133v-.133c.091-.043.185-.086.276-.132v.262h.277l-.14-.395c.331-.061.435-.15.692-.262v.527c.722-.179.494-.29 1.388-.132V3.42h.416v.133c-.058.077-.227.018-.14.262h.14c.224-.814.296-.222.832-.527.316-.179-.009-.484.693-.657v.133l.416-.133v.262h.139v-.262c.491.05.423.164.832.262v.262c.131.207.992.244.556.657h.277v.526l-.277.133c-.006.043.13.293.14.527h.276c-.065.314-.159.413-.276.656-.247.012-.5.139-.556.133v-.133h-.555v.133l-.833.132v.262c-.185.086-.37.176-.555.262V6.31h-.14v.395l-.972.262c.159.15 0 .052.276.132v.133c.244.108.445-.077.556-.133v-.132h.416v-.262c.647-.031.79-.191 1.248-.395v-.132h.972v.132h-.14c-.159.151 0 .053-.276.133v.262c.566-.154.146-.12.416-.395l.276.133V6.31h.277v-.132h.416c.146-.08.344-.65.692-.527v.133h.276v-.395c.14.043.277.086.416.133v-.133c.277-.043.556-.086.832-.132v.262h.277c.045.132.091.261.14.394h.139V5.65h.277c.081-.49.081-.302 0-.789.042.016 1.335.287 1.387.262v-.132h.14v-.527h.14c.283.24.631.037 1.108 0v-.262c.28.074.121-.016.277.132.51-.138.38-.265.692-.526v-.133c.351-.206 1.095-.01 1.664 0 .088-.36.182-.299.277-.656.594-.022.474-.083.832-.262v.394h.555c.03-.311.059-.326.14-.527l.416.133.14-.262h.276v-.133c.14-.043.277-.086.416-.132l.14.394c.351-.268.059-.317.692-.394v.132c-.159.12-.162.096-.276.262h.14v.133c.289-.145.247-.213.692-.262.117.148-.016.018.14.132-.162.25-.117.127-.416.262v.133h.276a72.38 72.38 0 0 1-.139.789h.139v.132h-.139v.262c.045.308.091.613.139.921h-.139c-.117.151-.072.185-.277.262v-.132h-.14c-.091.132-.185.262-.276.394h-.416l-.14.262c-.185.043-.37.086-.555.132-.046.133-.091.262-.14.395l-.416.132-.14.262h-.14v-.132c-.51-.114-.669.447-.972.132v.262h-.276c.046.176.091.351.14.527h-.14c-.156.225-.088.179-.416.262-.013-.028-.198-.478-.276-.394v.132l-.277.132c-.045.133-.091.262-.139.395h-.416c-.465.216-.182.348-.972.394.045.133.091.262.14.395.185-.043.37-.087.555-.133V9.2h.14v-.133h.556c.422-.15.618-.367 1.248-.394v-.262c.393-.083.367-.244.416-.262h.556v.132l.556-.132s.062.163.276.132V8.15l.556.132V8.15c.159-.151.055 0 .14-.262h-.14v.133c-.12.25-.14-.262-.14-.262.507.043 1.017.086 1.525.132l.139-.262c.14-.04.254.204.556.133v-.133h.692v.133h.14v-.133h.556l.14-.394h.14l-.14-.262h.416c.159.15 0 .052.276.132v-.262c.332.062.436.151.692.262v-.132h-.139c-.257-.126.276-.133.276-.133v.133c.159.15.055 0 .14.262.296-.016.471-.133.556-.133v.133h.276c.039-.234.14-.262.14-.262a20.651 20.651 0 0 0-.14-.394h.14v-.133c.393.166.572.339 1.108.394v-.26c.809-.176.078-.333.832 0v-.527h.14v.132l.556-.394v.527h.139c.069-.062-.039-.213.14-.133v.133h.14s-.039.471.14.261v-.132c.159-.151.055 0 .14-.262h-.417c.108-.394.085-.345.556-.394v.132l.416-.132v.132h.416v.133c.358.07.761-.41.972-.527l.416.132v-.132c.231-.142.231-.179.556-.262-.045.132-.091.262-.14.394h.14v.133c.14-.087.276-.176.416-.262v-.133h.277c.25-.104.302-.298.415-.526l.693.526c.084-.258.006-.32.276-.394.046.015.042.247.276.262.296-.373.124-.265.556-.133.046-.425.127-.385.277-.656.484.071.256.13.692 0v.789h.14c.156-.225.087-.179.416-.262.26.413.513.373.556 1.05.38.016 1.004.183 1.108 0h.14v.133c.383.086.819.367.971.656v.395h.14c.192.243.322.305.416.656a24.061 24.061 0 0 1-.416-.132v.132h.14v.395h.14c.127.194.123.323.14.656-.16.15-.056 0-.14.262-.462.043-.923.086-1.388.132v-.262c-.185.043-.371.087-.556.133v-.262c-.091.043-.185.086-.276.132-.046-.086-.091-.175-.14-.261-.003 0-.409.178-.692 0l-.14-.395c-.163-.108-.237.385-.556.262v-.132c-.159-.151-.055 0-.14-.262l-.416.132v-.132h-.139c.045-.133.091-.262.139-.395 0 0-.172-.04-.139-.262 0 0 .23-.058.139-.262h-.139c-.16.151 0 .053-.277.133-.045.132-.091.262-.14.394-.325-.037-.344-.043-.555-.132v-.133c-.234.016-.234.25-.277.262-.315.105-.559-.163-.692-.132v.132c-.471.179-.575.41-1.108.527.045-.132.091-.262.139-.394h-.276c-.205.357-.426.6-.972.656v-.394h-.139c-.108.394-.085.345-.556.394v-.262c-.579.299-.657.268-1.388.133v-.262h-.14c-.01.508.023.542-.416.656v.133c-.133.243-.14-.262-.14-.262h-.276c-.046.086-.091.175-.14.262a54.702 54.702 0 0 1-.692-.133v.262h-.416v.132c-.16.151-.055 0-.14.262l-.832.133v-.262l-1.388.132v.262h-.416v.133c-.124.246-.14-.262-.14-.262-.445.102-.299.197-.832.262v.394c-.819-.08-.757-.465-1.664-.527-.003.438-.072.595-.14.922h-.276c.042-.114.266-.29.14-.527h-.14v.132c-.159.151-.056 0-.14.262l-.832.133v.261c-.465-.08-.874-.36-1.388-.132-.091.133-.185.262-.276.394-.377.105-.429-.354-.556-.394-.25-.08-.101.148-.14.262-.14-.043-.276-.086-.416-.133v.527h-.276l-.14.262c-.228.065-.257-.13-.276-.132-.335-.056-.361.132-.556.132v-.132a79.881 79.881 0 0 1-.832-.133v.262c-.92.093-1.388.114-2.08 0l-.14.395c-.26-.065-.663-.056-1.109-.133v-.133c.16-.15.056 0 .14-.261-.331.012-.344.086-.556.132v-.132c-.23-.142-.227-.188-.555-.262v-.262h-.277a15.489 15.489 0 0 0-.14-.395l-.832-.132v-.262c.111.043.436.268.693.132v-.132c-.41-.253-.338-.524-.277-.921.186-.087.189-.207.277-.262.091.043.185.086.276.132v-.527h.14c-.046-.261-.091-.526-.14-.788a21.58 21.58 0 0 1-.416-.133c.045.086.091.176.14.262l-.416-.132v.261h-.14c-.046.087-.091.176-.14.262h-.416c.033.305.153.08 0 .395l-.276-.133v.262c-.15.231-.14-.262-.14-.262a52.8 52.8 0 0 0-.692.133s-.065-.197-.277-.133c-.045.087-.091.176-.139.262h-.416c-.046.133-.091.262-.14.395-.215-.108-.615-.475-.972-.395-.046.086-.091.176-.14.262-.266-.025-.231-.256-.276-.262h-.14v.133h-.692v.132h.276c-.045.262-.091.527-.14.789h-.276c-.127-.052-.091-.4-.556-.262l-.14.262h-.692v-.133c-.201-.104-.234-.092-.556-.132v.394c-.14-.043-.276-.086-.416-.132v.132c-.159.151-.055 0-.14.262-.516.139-.373.271-.692.527v.133h-.416v-.395h-.276v.262h-.693v-.132h-.139c-.091.175-.186.35-.277.527l-.276-.133v.133l-.416.261v-.394h-.14v.133l-.416-.133v.133c-.195-.01.056-.111-.139-.133l-.833.133v.394h-.139V11.7c-.377-.19-.68.185-.832.262-.078-.412-.137-.551-.556-.656.078.32.146.29.276.527h-.276c-.221.194-.816.145-1.248.132v-.261h-.277v.261c-.276-.043-.556-.086-.832-.132-.068-.311-.13-.311-.276-.527.188-.154.136.099.276-.132-.182-.108-.162-.093-.276-.262h.276c.029-.312.059-.327.14-.527-.393-.087-.523-.244-.692-.527h.416c.091-.351.185-.703.276-1.05-.182-.109-.163-.093-.276-.263-.296.16-.303.296-.693.395v-.262h-.139v.394c-.54.043-.625.213-.972.395-.03-.312-.059-.327-.14-.527-.156.11-.02-.016-.14.132h-.14l.14.133-.14.394c-.588-.095-.666-.021-1.388 0l.14.394h-.14c-.113.173-.097.154-.276.262v-.527c-.705.037-.611.235-1.388.262-.104.447-.296.607-.832.657v-.262h-.14v.132c-.12.25-.139-.262-.139-.262-.14-.043-.277-.086-.416-.132l.139.262h-.276c-.221.194-.341.453-.416.789h-.416v-.262c-.891.03-1.115.48-1.804.656.088-.36.182-.299.276-.656-.887.184-1.518.764-2.08-.133.624-.345.296-.49.14-1.05h-.556c-.117-.148.016-.019-.14-.133.042-.114.267-.29.14-.527h-.14v-.132h-.416c-.234.363-.595.265-.832.526l-.14.395h-.416v.132c-.14.043-.276.087-.416.133V9.86c-.432.09-.63.394-.972.527h-.555v.132c-.14-.043-.277-.086-.417-.132v.262l-.832.132v.133h-.555c-.046.009-.036.181-.277.132v-.132h-.276v-.133l-.972-.132c-.101.185-.25.397-.416.527v-.527h-.14v.262a23.967 23.967 0 0 1-.416-.133c-.065.308-.231.407-.276.656h.14c.045.133.091.262.139.395-.789.01-.871-.139-1.387-.262-.205.357-.426.6-.972.656v-.262h-.277v.527h-.276v.133h-.972v.132h-.276v.133c-.091-.043-.185-.087-.276-.133v.133h-.14c-.205-.157.117-.096-.14-.262.016.416.27.246-.14.394v-.262c-.78.09-.448.327-.832.527h-.276c-.046.133-.091.262-.14.395h-.692v-.133c.344-.24.179-.102.14-.527h-.277v.395c-1.206.003-1.417.228-2.496.261v-.261l-.556.261c.046.176.091.352.14.527-.361-.021-.475-.027-.692-.132v-.133l-.416.133c-.023-.003-.049-.185-.277-.133v.133h-.276v.132h-.276v.133c-.192.12-.244.092-.556.132v-.394h-.14v.133h-.692c-.094.04-.007.169-.416.261a20.41 20.41 0 0 1-.14.395h.14c.205.16-.504.13-.556.132v-.132c-.556-.087-1.108-.176-1.664-.262.075-.367.107-.013 0-.395-.15.074-.29.355-.556.262v-.132h-.14l.14-.262h-.14c-.159-.151 0-.052-.276-.132a20.651 20.651 0 0 0-.14-.395h.276a20.602 20.602 0 0 0-.139-.394h.139v.132c.121.25.14-.262.14-.262h.14v-.132c-.091-.043-.185-.086-.276-.133.045-.132.091-.262.139-.394h-.139v-.133h.416v-.132c-.182-.108-.163-.092-.277-.262.238-.148.189-.083.277-.394l.556-.133c.016-.01.214-.487.276-.394v.262h.416c.13-.238.192-.207.276-.527-.188-.154-.211-.24-.276-.527h.276V9.86h.276v-.133c-.276.044-.555.087-.832.133v-.133c-.182.01-.347.225-.692.133v-.133c-.276-.043-.556-.086-.832-.132v.527h-.276v.262c-.14-.087-.277-.176-.416-.262V9.86l-.14.132c-.159.151-.055 0-.14.262h-.556v.262c-.276-.043-.556-.086-.832-.132a40.5 40.5 0 0 1-.14.656c-.338.074-.305.136-.555.262v-.133c-.143-.114-.192-.228-.277-.394-.159.151-.055 0-.14.262-.276.043-.555.086-.832.132v.262c-.328.028-.344.056-.555.133v-.262h.139l-.139-.394h-.14v.261c-.091-.043-.185-.086-.276-.132-.16.105-.056.311-.417.262-.045-.086-.091-.176-.139-.262h-.14v.262l-.416.132c-.072-.018-.085-.332-.276-.261-.14.175-.277.35-.416.526-.14-.043-.277-.086-.416-.132v.262h-.277v.262c-.156-.111-.02.015-.14-.133-.15-.12-.026.022-.14-.132h.14v-.133h-.416v.133h-.14v-.133h-.415c-.046-.086-.091-.175-.14-.262-.091.043-.185.087-.276.133-.189.052.058.142-.14.132v-.132h-.276c-.004.406.038.678.14.921h-.557v.262h-.14v-.394h-.276l-.14.394c-.155-.111-.019.015-.14-.133h-.139l.14-.394c-.14.043-.276.086-.416.133v.132h-.276c-.046.086-.092.176-.14.262h-.556v.132h-.14c-.068-.058.04-.212-.14-.132l-.14.262-.692.132v-.262h-.14l-.14.262h-.14l-.139-.262c-.192-.083-.39-.064-.556-.132-.01.508.023.542-.416.656v-.262h-.276v.262h-.692l-.277.657h-.276v-.133c-.045-.006-.318.117-.556.133.078-.32.147-.29.277-.527h-.277l-.14.394-.971-.132c-.147.067-.101.295 0 .394h-.277c-.12.136-.24.182-.416.262v-.395c-.62.05-.403.084-.971 0v.133c.159.15.055 0 .14.262h-.693c-.036-.006-.046-.17-.276-.133v.133h-.277c-.045.132-.09.262-.14.394-.155-.11-.019.016-.14-.132-.155-.111-.019.015-.139-.133.182-.108.163-.092.276-.262h-.555c-.124.139-.244.173-.416.262v.133l-.417-.133v.133c.182.108.163.092.277.262h-.277c-.162-.179-.253-.2-.555-.262v.262c-.26-.093-.543-.13-.972-.133-.153-.274-.225-.234-.277-.656h-.276v-.262c-.156.11-.02-.015-.14.133h-.14v.261l-.276.133v.394h-.14c-.14-.175-.276-.351-.415-.527h-.14c-.182-.292.075-.366-.277-.656.046-.176.091-.351.14-.527 0 0-.179-.064-.14-.262h.14v-.656s.085 0 .14-.262c.383-.095.309-.037.416-.394h.276v.132l.416-.132v-.262l.693.132c.1-.363.039-.292.416-.394v-.527h.14l-.14-.262h.14c.117-.148-.017-.018.14-.132V9.98c.132-.243.14.262.14.262l.415.132v-.132h-.14c.046-.133.091-.262.14-.394h.832v.132c.325-.043.647-.086.972-.132v-.262h.556v-.262c-.475-.006-.959-.09-1.248-.133-.091.133-.186.262-.276.395l-.833.132c.078-.32.147-.29.277-.527h-.556v.133h.14c.159.206-.342.123-.416.132v.395h-.14v.132c-.231.043-.462.086-.692.133.045-.22.09-.438.14-.657-.339.074-.31.136-.557.262v.133c-.276-.086-.555-.176-.832-.262v.132c-.159.151-.055 0-.14.262-.227.04-.604.274-.692.262v-.132h-.416c-.192-.037.052-.173-.14-.133l-.14.262h-.276l.14-.262h-.14c-.159.151 0 .053-.276.133v.262c-.23.043-.462.086-.692.132-.026-.006-.046-.188-.277-.132v.132h-.276v.133c-.136-.028-.162-.355-.276-.262-.228.178.153.252-.416.394v.394h-.14v-.261h-.14c-.045.086-.09.175-.14.261h-.555c-.166-.286-.306-.434-.693-.526v.132h-.555l-.14.262-.416-.133v.395h-.277c-.34.551-.308.154-.692.394.046.087.091.176.14.262-.276-.043-.556-.086-.832-.132-.013.003-.072.228-.277.262v-.133h-.555l-.14-.132v.132c-.393.24-.406.38-1.108.395-.157-.225-.088-.18-.416-.262v.261h-.277v-.132c-.175-.052-.364.373-.416.394-.286.12-.396-.114-.556-.132v.132c-.276.043-.555.087-.832.133l-.14-.394c-.383.095-.308.037-.416.394-.416.043-.832.086-1.248.132l-.14.262h-.971v.133c-.361.101-.647.012-.972.132-.078-.32-.147-.29-.276-.527-.156.111-.02-.015-.14.133-.488.326-.033.468-.693.656v.133h-.692l-.14.262c-.309.117-.39-.164-.556-.133v.133c-.276.052-.175-.059-.276-.133h-.14v.262c-.14-.043-.276-.086-.416-.133v-.132l-.416.133v-.133h-.556l-.14-.262c-.194 0-.064-.04-.14.133-.171-.151-.051 0-.139-.262h.556v-.262h-.556c-.13-.238-.192-.207-.276-.527h.276c-.081-.542-.15-.629-.416-1.183-.182.068.04.052-.14.132h-.416v.133c.28.074.12-.016.277.132-.397-.012-.595-.024-.832-.132v.132c.159.151.055 0 .14.262-.68 0-.79.151-1.249.262v-.394h-.14v.132h-.14l-.276-.132v.394h-.416v-.262h-.14v.262h.14v.394c-.461-.003-.627-.067-.972-.132v.262c-.328-.016-.35-.04-.556-.133v.133c-.159.15-.055 0-.14.262-.73-.077-.318-.284-.971-.133v-.262c-.221-.03-.176.225-.276.262-.52.185-.95.074-1.388 0v.395l-.277-.133v.133c-.28.225.013.2-.14.394h-.14c-.334-.474-1.296-.08-1.94 0v.394c-.26-.067-.757-.471-.971-.394v.133h-.14v.394c-.416.043-.832.086-1.248.132v.262h.14a19.14 19.14 0 0 1-.14.395c-.329-.016-.352-.04-.556-.133v.133h-.14v-.395h-.276v.395h-.14v-.133h-.556v.133l-.276-.133v.133c-.306.089-.458.04-.693.132v.395c-.692.098-.685.117-1.248-.262l-.14.394h-.555v.133c-.185.043-.37.086-.556.132v-.262h-.276c-.085.462-.15.604-.693.656v-.132c.16-.151.056 0 .14-.262-.185-.043-.37-.086-.556-.133v-.132c-.263-.077-.192.074-.276.133l-.416-.133v.133h.14v.526h-.277v-.261c-.38.209-.25.323-.832.394-.1.364-.039.293-.416.394-.373.42-.81.318-1.388.262v-.262h.556a18.76 18.76 0 0 0-.14-.394c-.21.077-.227.102-.555.132-.023-.357-.046-.791-.277-.92v-.133c.101-.14.108.114.277-.133h-.277c-.247-.139.277-.132.277-.132-.078-.32-.147-.29-.277-.527h.416c.114.172.098.154.277.262-.338-.69-.51-1.328.692-1.316.16.15 0 .052.276.133.046-.22.091-.438.14-.657h-.276v.262h-.276l.14-.394h-.14c-.105.25.097.135-.14.262-.182-.154.165-.2-.14-.262v.262l-.276-.133v.133h.14c-.092.175-.186.35-.277.527h-.14v-.395h-.14v.133h-.416c-.09.132-.185.261-.276.394h-.276v.133h-.416v.132h-.276v.132c-.56.188-.979-.181-1.248 0-.377.232-.44.728-.556.79h-1.248c-.16-.152 0-.053-.277-.133v-.262h-.14c.046.175.091.351.14.527h-.14c-.263.215-.734.138-1.108.262v.132c-.205.062-.543-.142-.556-.132v.262h-.692c-.14.308-.276.613-.416.92h-.14v-.394h-.276c-.03.312-.059.327-.14.527-.156-.11-.02.016-.14-.132-.159-.151-.055 0-.14-.262.238-.148.189-.083.277-.394h-.416v.788c-.231-.043-.462-.086-.693-.132v-.133c.16-.15.056 0 .14-.262h-.276l.14-.261h-.14c-.16.15 0 .052-.276.132-.036.256-.137.256-.14.262-.221.647.123.841-.692.921v-.262c-.192.065-.306.053-.556.133v.132c-.14-.043-.277-.086-.416-.132v.132h-.277l.14.262h-.832v.133c.16.15.055 0 .14.261-.225-.009-.972-.132-.972-.132-.046.086-.091.176-.14.262-.377.194-.442.034-.692 0v.133h-.276l-.14.261c-.231.043-.462.087-.693.133v.132c-.185-.043-.37-.086-.555-.132-.231.043-.462.086-.693.132v.133c-.413.11-.562-.21-.832-.262v.132c-.16.151-.055 0-.14.262h-.555l-.14-.132c-.072.03-.04.234-.276.262v-.133l-.416-.132v.132c-.14.043-.277.087-.416.133v-.262c-.25.123-.218.182-.556.262v.262h-.14v-.395c-.78-.009-1.375-.314-1.664-.788l.276-.133c.01-.185-.137.055-.14-.133.046-.218.091-.437.14-.656h.276c-.305-.82.341-1.276.416-2.104a8.803 8.803 0 0 1 1.525-.133v-.394h.416c.094-.385.152-.431.556-.527v-.262c.809-.176.078-.333.832 0v-.262c.309-.055.474-.126.692-.262v-.132c.276-.025.098.2.276 0 .16-.151.056 0 .14-.262h.276c.16-.533.283-.262.556-.657l.832.262v-.132h.14v-.527c-.796.015-1.017.108-1.664 0-.078.413-.137.552-.556.656v-.261h-.276v.394c-.283.142-.546.388-.972.394l-.14-.132c-.5.357.046.613-.972.656l.14-.527h-.276v.133h.14c.01.046-.238.474-.277.656h-.276v-.262h-.276v.262l-.14-.133-.832.262c-.046.087-.091.176-.14.262-.182.074.03-.098-.14-.132-.14.043-.276.086-.416.132v-.132h-.416v-.133h-.14v.133s-.383-.12-.555-.133c-.091.219-.186.438-.277.657-.12-.04-.305-.253-.556-.133v.133h-.14v.394h-.14v-.394h-.139v.527c.023.184.146-.056.14.132l-.14.133c-.24-.114-.049-.016-.14-.262h-.14v.261l-.692.133.14-.262h-.14c-.214.228-.25.13-.556.262v.132c-.204.074-.53.034-.555-.132h-.14v.394h-.14v-.132h-.14v.262h-.276v.262c-.351-.105-.858-.01-1.524 0-.046.308-.091.613-.14.92h-.276v-.261c-.212.077-.228.102-.556.133v.394c-.277.086-.556.176-.832.262v.132h-.277v.133c-.679.243-.838-.204-1.248.394h-.14l.14.133c-.045.132-.09.262-.14.394-.185-.043-.37-.086-.555-.132v.394c-.491.05-.423.163-.832.262v-.262h-.14v.394a75.84 75.84 0 0 0-.832.133l-.14.394h-.276c-.046.133-.091.262-.14.395h-.14v-.395h-.14l-.14.262-.416-.132v-.133c-.27-.064-.185.074-.276.133l-.556-.133.14-.132v-.133h-.14v-.394h.14V19.7H.772c-.003-.437-.072-.594-.14-.921H.356c-.247-.139.276-.133.276-.133.046-.132.091-.261.14-.394.715.031.686.25.692-.527.23-.043.462-.086.693-.132v-.527l.416-.133c.159-.15 0-.052.276-.132v.262h.276v-.262c.14.043.276.086.416.132v-.262h-.14l.14-.394h.14v-.132h.416c-.003-.185.03-.037-.14-.133v-.132h.416v-.133h.14l.14.262c.461.086.923.176 1.388.262.013-.493.126-.604.276-.921.14.043.276.086.416.132v-.262h.416l-.14.262h.14v-.132h.276c.153-.114.062-.318.277-.395.123.117.052.222.276.262.091-.132.185-.262.276-.394h.416v-.133h.14v-.527h.276v.262c.592-.052.628-.27 1.109-.394.11-.425.256-.453.276-1.05h1.248v.132l.416-.133v-.132c.208-.053.189.234.277.262l.415-.133v.262h.14v-.262c.156-.11.02.015.14-.132l-.276.132v-.527h.14v-.527h.692l-.14.395h.416c.221-.256.504-.352.693-.657.143.114.191.228.276.395.14-.086.276-.176.416-.262v-.133h.276l.14-.261c.09.043.185.086.276.132.186-.132-.169-.222.14-.262v.133c.14.043.276.086.416.132v-.262c-.16-.15-.055 0-.14-.262.358.062.615.127 1.109.133.198-.28.364-.265.692-.395l-.14-.394h.556v-.133h.14v.133h.276v-.262c.787-.021.517-.203.972-.394h.556v-.133c.16-.15.055 0 .14-.262h.416v.262h.276c.114-.422.162-.382.692-.394v.262c.325-.142.452-.302.832-.395v-.394h.277v-.262c.73.003 1.095-.154 1.664-.262.1.364.039.293.416.395a18.77 18.77 0 0 0-.14-.395h.14c.153-.185.484-.385.692-.527v-.132h.416v.132h.14v.395h.14c.045-.524.143-.607.692-.657v.133c.185.062-.052-.083.14-.133.556-.086 1.108-.175 1.664-.262-.14-.41-.078-.2 0-.656.338-.074.306-.135.556-.262v.133h.14c.11.194-.14.262-.14.262l.14.262c.318-.253.175-.395.692-.527.046-.133.091-.262.14-.395.396.154.653.25 1.248.262.14-.262.276-.527.416-.789h.276l.14.262.972-.262v-.13h.972l.14-.262h.276c.088-.36.182-.299.276-.656.185.043.37.086.556.132v-.132c.153-.117.03.021.14-.133h-.14c-.137-.219.198-.11.276-.132v-.133c.14.043.276.087.416.133-.045.086-.09.175-.14.262h.14c.436-.475.816 0 1.388.132.094-.172.172-.142.276-.262l-.14-.262h.277v-.132l.276-.133c.02-.185-.029.022-.14-.132l.14-.262c.468.092.533.287.972.394v-.394c.38.083.315.172.692.262v-.395c.153.044.273.235.556.133v-.133h.416v-.132l.832-.656v-.262h.277v.132c.192.037-.026-.027.14-.132l.276.132-.14.395c.774.055 1.167.234 1.664-.262-.273-.148-.325-.185-.416-.527l.416-.133c.046.087.091.176.14.262h.276v-.527c.303.056.397.087.556.262l.832-.262-.14-.261h.693V.89l.068.03Zm-1.385 1.972v.262h.14v-.262h-.14Zm123.564.262v.262h.14v-.262h-.14ZM45.9 3.55v.262h.14V3.55h-.14Zm-1.94.262v.261h.14v-.261h-.14Zm121.62.394c.159.151 0 .052.276.132-.159-.15 0-.052-.276-.132Zm-10.954.132c.159.151 0 .053.277.133-.16-.151-.001-.052-.277-.133Zm-116.907.395c.013.447 0 .477.276.656v-.132h-.14V4.73h-.14l.004.003Zm114.827.132c.159.151 0 .053.276.133-.159-.151 0-.053-.276-.133Zm-15.118.13v.262h.14v-.262h-.14Zm9.709.132-.139.262s.403-.21.276-.262h-.14.003Zm14.283 0h.276c-.117.148.016.019-.14.133v.132c-.159-.15-.055 0-.14-.262l.004-.003ZM38.688 5.26c.159.15 0 .052.276.132-.16-.15 0-.052-.276-.132Zm77.801.13v.261h.14v-.262h-.14Zm-76.274.526v.133h-.14c-.263.114.277.132.277.132.117-.148-.016-.018.14-.132-.16-.151 0-.053-.277-.133Zm106.506 0v.133h-.14c-.263.114.277.132.277.132.117-.148-.017-.018.14-.132-.16-.151 0-.053-.277-.133Zm35.501 0v.133h-.14c-.263.114.277.132.277.132.117-.148-.017-.018.139-.132-.159-.151 0-.053-.276-.133Zm-92.916.133v.261h.14v-.26h-.14Zm-34.252.129v.262h.14v-.262h-.14Zm35.5 0v.262h.14v-.262h-.14Zm25.656 0c.234.283.276.262.276.262.101-.126-.24-.231-.276-.262Zm35.504 0c.234.283.276.262.276.262.101-.126-.24-.231-.276-.262Zm9.845 0v.262h.14v-.262h-.14Zm25.656 0c.234.283.276.262.276.262.101-.126-.241-.231-.276-.262Zm-152.272.265h-.276v.132h.14v.133h.14v-.262l-.004-.003Zm1.804.789h.277a31.997 31.997 0 0 0-.14-.527h-.14v.527h.003Zm106.506 0h.276l-.139-.527h-.14v.527h.003Zm35.501 0h.276l-.14-.527h-.139v.527h.003ZM35.223 6.967v.527h.14v-.527h-.14Zm35.5 0v.527h.14v-.527h-.14Zm71.006 0v.527h.139v-.527h-.139Zm20.523.265v.394h.139a1.34 1.34 0 0 1 .556-.527v-.132h-.276c-.156.225-.088.178-.416.262l-.003.003Zm14.977-.265v.527h.14v-.527h-.14Zm-79.462.132v.262h.14V7.1h-.14Zm35.501.262h.276V7.23c-.156-.111-.019.015-.14-.133h-.139v.262l.003.003Zm-77.522-.13v.395h.14v-.394h-.14Zm35.5 0v.395h.14v-.394h-.14Zm60.744.524c.101.364.039.293.416.395.088-.36.182-.299.276-.656h-.139c-.176.25-.14.218-.556.261h.003Zm1.248-.261v.261c.364-.009.472-.052.693-.132v-.132h-.693v.003Zm-73.222.132v.395h.14v-.133c.156-.11.02.015.14-.133l-.276-.132-.004.003Zm35.501 0v.395h.14v-.133c.156-.11.02.015.14-.133l-.276-.132-.004.003Zm35.501 0v.395h.14v-.133c.156-.11.02.015.14-.133l-.276-.132-.004.003Zm35.504 0v.395h.14v-.133c.156-.11.02.015.14-.133l-.276-.132-.004.003Zm-88.895.13v.261h.14v-.261h-.14Zm64.348 0c.234.283.277.261.277.261.1-.126-.241-.23-.277-.261Zm-73.361.265v.394h-.276v.262l.276-.133.14-.394c.156-.111.02.015.14-.133h-.277l-.003.004Zm5.825 0v.261h.14v-.261h-.14Zm35.5 0v.261h.14v-.261h-.14Zm21.775.261h-.416v.262h.276c.13-.237.192-.206.276-.527h-.139v.262l.003.003Zm13.726-.261v.261h.14v-.261h-.14Zm-88.336.523v-.262c-.156.111-.02-.015-.14.133h-.14c.16.15 0 .052.277.132l.003-.003Zm35.085-.262v.395h.14c.159-.151 0-.053.276-.133v-.262h-.416Zm19.691.262v-.262h-.416v.133h.14c.159.15 0 .052.276.132v-.003Zm16.226 0v-.262c-.156.111-.02-.015-.14.133h-.14c.16.15 0 .052.277.132l.003-.003Zm10.957-.262v.262c.156-.11.02.016.14-.132h.14c-.16-.151 0-.053-.277-.133l-.003.003Zm19.691.133v.262h.14v-.262h-.14Zm-91.804.524h.276c-.117-.148.016-.019-.14-.133v-.262h-.14v.395h.004Zm-39.11-.262v.262h.14v-.262h-.14Zm35.505 0v.394h.14v-.394h-.14Zm71.002 0v.262h.139v-.262h-.139Zm27.043 0c.159.15.055 0 .14.262h-.14v-.262Zm8.461 0v.262h.14v-.262h-.14Zm-161.425.132v.262h.14V8.81h-.14Zm35.501 0v.262h.14V8.81h-.14Zm71.005 0v.262h.14V8.81h-.14Zm35.501 0v.262h.14V8.81h-.14Zm-97.905.13c.013.027.198.477.276.394v-.132h.14c-.12-.136-.24-.182-.416-.262Zm35.777.66h.276v-.263h-.276l.14-.262c-.14-.043-.277-.086-.416-.132v.132c.188.154.211.24.276.527v-.003Zm-36.61-.528.14.395h.14c-.084-.315-.045-.244-.276-.395h-.003Zm35.501 0c.046.133.091.262.14.395h.14c-.085-.315-.046-.244-.276-.395h-.004Zm2.637 0h-.277c.117.148-.016.019.14.133v.132h.14v-.262l-.003-.003Zm54.778.527h.277v-.262h.139c-.045-.086-.091-.175-.139-.262-.156.111-.02-.015-.14.133h-.14V9.6l.003-.003ZM48.813 9.204c.159.15 0 .052.276.132-.16-.15 0-.052-.276-.132Zm23.575 0v.394h.14v-.394h-.14Zm35.501 0v.394h.14v-.394h-.14Zm2.636 0h-.277c.118.148-.016.018.14.132v.133h.14v-.262l-.003-.003Zm16.086 0v.394h.14v-.394h-.14Zm35.504 0v.394h.14v-.394h-.14Zm-140.346.13v.261h.14v-.262h-.14Zm6.518 0v.261h.14v-.262h-.14Zm35.504 0v.261h.14v-.262h-.14Zm9.29.264v-.262c-.157.111-.02-.015-.14.133h-.14c.159.15 0 .052.276.132l.003-.003Zm26.21-.265v.262h.14v-.262h-.14Zm10.678 0v.789h.14v-.789h-.14Zm17.75 0v.262h.14v-.262h-.14Zm.556 0v.262h.14v-.262h-.14Zm6.517 0v.262h.14v-.262h-.14Zm28.432 0v.262h.139v-.262h-.139Zm.555 0v.262h.14v-.262h-.14Zm6.517 0v.262h.14v-.262h-.14Zm-145.474.133c.159.15 0 .052.276.132-.16-.15 0-.052-.276-.132Zm35.5 0c.16.15 0 .052.277.132-.16-.15 0-.052-.277-.132Zm106.506 0c.159.15 0 .052.277.132-.16-.15-.001-.052-.277-.132Zm-96.66.261.14.395h.14c-.085-.314-.046-.244-.277-.395h-.003Zm35.504 0c.045.133.091.262.14.395h.139c-.084-.314-.045-.244-.276-.395h-.003Zm9.013.133v.262h.14V9.86h-.14Zm-87.647.656c-.1-.363-.039-.293-.416-.394.046.175.091.351.14.527h.416v.132c.195.025-.052-.092.14-.132h.556v-.527c-.156-.111-.02.015-.14-.133h-.276v.133h.14c.045.237-.345.345-.556.394h-.004Zm18.03-.524-.14.262s.404-.21.277-.262h-.14.003Zm106.506 0-.14.262s.403-.21.277-.262h-.14.003Zm-130.22.657h.276v-.133c-.156-.11-.02.016-.14-.132h-.14v.262l.003.003Zm4.852-.262v.262c.156-.111.02.015.14-.133h.14c-.16-.15 0-.052-.277-.132l-.003.003Zm30.648.262h.276v-.133c-.156-.11-.019.016-.14-.132h-.139v.262l.003.003Zm4.856-.262v.262c.156-.111.02.015.14-.133h.14c-.16-.15 0-.052-.276-.132l-.004.003Zm35.501 0v.262c.156-.111.02.015.14-.133h.14c-.16-.15 0-.052-.277-.132l-.003.003Zm66.152.262h.277v-.133c-.156-.11-.02.016-.14-.132h-.14v.262l.003.003Zm4.853-.262v.262c.156-.111.02.015.14-.133h.14c-.16-.15 0-.052-.277-.132l-.003.003Zm-144.227.789v-.262l-.416.132.14.527h-.14v.133c-.325.043-.646.086-.971.132v.262c.181.025.86.16.971.133l.14-.262.416.132c.046-.219.091-.437.14-.656h.14c.159-.151 0-.053.276-.133v.262h.692v-.262h.277l-.277-.789h-.14l-.14.395c-.198.132-.799.237-1.108.262v-.006Zm15.67-.66v.395h.14v-.395h-.14Zm-18.582.265v.262h.14v-.262h-.14Zm21.635 0v.262h.14v-.262h-.14Zm13.866 0v.262h.14v-.262h-.14Zm35.5 0v.262h.14v-.262h-.14Zm41.19 0c.159.151 0 .053.276.133-.159-.151 0-.053-.276-.133Zm15.95 0v.262h.139v-.262h-.139Zm13.866 0v.262h.14v-.262h-.14Zm-126.06.13c.159.15.055 0 .14.262h-.14v-.262Zm35.364.132c.156.225.088.179.416.262-.12-.136-.24-.182-.416-.262Zm15.81.262h.276v-.132c-.156-.111-.02.015-.14-.133h-.14v.262l.004.003Zm-51.45-.13h.276v.133c-.28-.074-.12.015-.277-.132Zm38.692 0c.16.152.055 0 .14.262h-.14v-.261Zm37.305.524h-.276v-.526h-.14v.132c-.159.151-.055 0-.14.262.14.086.276.176.416.262.117.148-.016.018.14.132V11.7Zm-38.553-.394v.262h.14v-.262h-.14Zm-45.49.265v.262h.14v-.262h-.14Zm35.505 0v.262h.14v-.262h-.14Zm30.648.13c.159.15 0 .052.276.132-.16-.151 0-.053-.276-.133Zm-49.234.394v-.262c-.156.11-.02-.016-.14.132h-.14c.16.151 0 .053.277.133l.003-.003Zm71.005 0v-.262c-.156.11-.02-.016-.14.132h-.14c.16.151 0 .053.277.133l.003-.003Zm-83.347.265v.262h.14v-.262h-.14Zm2.776 0v.262h.14v-.262h-.14Zm-10.401.13v.261h.14v-.262h-.14Zm11.093.264c-.006.533-.065.567.277.789v-.133c-.235-.283.107-.634.276-.92h-.14c-.156.224-.088.178-.416.261l.003.003Zm2.496-.265c.16.151 0 .053.277.133-.16-.151 0-.053-.277-.133Zm7.21 0c-.046.133-.091.262-.14.395h.14v-.133c.058-.077.227-.018.14-.262h-.14Zm14.701 0v.262h.14v-.262h-.14Zm46.598.265c-.006.533-.065.567.277.789v-.133c-.235-.283.107-.634.276-.92h-.14c-.156.224-.088.178-.416.261l.003.003Zm2.496-.265c.16.151.001.053.277.133-.159-.151 0-.053-.277-.133Zm-61.991.133v.262h.14v-.262h-.14Zm15.534.262h.276v-.133c-.156-.11-.02.015-.14-.132h-.14v.261l.004.004Zm19.97-.262v.262h.14v-.262h-.14Zm12.342 0c.16.15.055 0 .14.262h-.14v-.262Zm-30.512.132c-.045.086-.09.176-.14.262l.277.133c.1-.158-.293-.114 0-.395h-.14.003Zm-17.058.13-.14.394h.14v-.262h.14v-.132h-.14Zm35.504 0-.14.262s.404-.21.277-.262h-.14.003Zm-72.809.527h.277v-.133c-.156-.11-.02.015-.14-.132h-.14v.261l.003.003Zm78.078 0h-.276c.117.147-.016.018.14.132v.133h.14v-.262l-.004-.004Zm-73.361.261v.262h.14v-.262h-.14Zm19.97 0v.527h.14v-.132h.14c-.046-.087-.091-.176-.14-.262h.14c-.16-.151 0-.053-.277-.133h-.003Zm51.035 0v.262h.14v-.262h-.14Zm20.939 0c-.16.151 0 .053-.277.133v.132h.277c.045-.086.091-.175.14-.261h-.14v-.004Zm-64.625.395-.14.262s.404-.21.277-.262h-.14.003Zm-5.269.265v.262h.14v-.262h-.14Zm3.053 0v.262h.14v-.262h-.14Zm-6.52.262h.276c-.114.172-.098.154-.277.262v.132h-.14l.14-.394Zm4.855 0-.14.262s.404-.21.277-.262h-.14.003Zm-10.68.527v.261h.14v-.261h-.14Zm-10.678.656v.262h.14v-.262h-.14Zm3.052.132v.395h.556v.262h.416c.114-.173.097-.154.276-.262v-.395c-.578.096-.582.034-1.248 0Zm-11.233.262c.159.151 0 .053.276.133-.16-.151 0-.053-.276-.133Zm28.707.133v.262h.14v-.262h-.14ZM4.156 18.404c-.046.133-.091.262-.14.395h.14v-.262h.14v-.133h-.14Zm17.89.133v.262h.14v-.262h-.14Z" fill="#FDE6AD"/></svg>