<svg width="351" height="40" viewBox="0 0 351 40" fill="none" xmlns="http://www.w3.org/2000/svg">
<path fill-rule="evenodd" clip-rule="evenodd" d="M86.0498 0.680186C87.2688 0.938544 87.449 1.59944 88.8661 1.70759C89.0703 1.31705 89.3765 0.73422 90.1451 0.938503V1.19689C90.7996 1.43723 90.4333 0.938567 90.9137 1.45528H91.1718V2.48268L91.6823 2.741V3.25177H91.9404C92.0245 3.51013 92.1085 3.76242 92.1986 4.02078H91.1718V4.78986C90.4633 4.97612 90.6014 4.86198 90.4032 5.55894C89.5085 5.77524 89.2084 6.20786 88.0975 6.32803C88.1155 7.00096 88.1995 7.19924 88.3557 7.60781C87.479 7.54171 86.3442 7.40349 86.3081 7.34941V7.86011H86.5663C87.3769 7.86612 85.7977 8.1185 85.7977 8.1185C85.4734 7.71594 85.1132 7.49361 84.5187 7.34941C84.1344 8.04638 83.6301 8.44293 82.7233 8.62919V8.1185L82.2129 8.37682C82.0628 8.76736 82.0148 8.79745 81.9547 9.40429C81.4143 9.44635 80.4055 9.63259 80.1593 9.91498C79.8471 10.2755 80.3875 10.1974 79.6489 10.6841V9.65659H79.3907V10.6841H78.6221V10.1733C78.2318 10.3235 78.2018 10.3716 77.5953 10.4317V9.921L76.8267 10.1793C76.6586 10.6179 76.5806 10.9845 76.5686 11.7175H75.2895C75.2895 11.7175 75.0312 12.126 74.779 12.2282V12.4866H74.5209V11.9758H74.0106V11.7175H73.7522V11.9758H72.9836V12.2342C72.5393 12.6307 72.4433 13.4358 72.2152 14.0307C71.2724 13.9405 70.5278 13.5801 69.9093 14.2891C69.8252 14.5474 69.7412 14.7997 69.6511 15.0581C68.9666 15.1422 68.282 15.2263 67.6035 15.3165V15.5749L67.0931 15.8332V16.3439L66.3245 16.0855L66.0664 16.5962H65.2978C65.2557 16.6203 64.9975 16.9808 64.7873 17.1069V17.3653C64.361 17.2812 63.9347 17.1971 63.5084 17.1069V16.8486C63.3582 16.8306 62.6316 17.2812 62.2293 17.3593C62.0552 17.846 61.899 18.9274 61.7188 19.4081L60.9504 19.1498V18.8914C60.5961 18.8253 61.0523 19.0777 60.6921 19.1498C60.0796 19.2699 60.0316 18.9575 59.6653 18.8914L59.155 19.6605H58.128V19.9189L57.3596 20.1772V20.9463H57.8699V21.2047H57.6117C57.4736 21.3248 55.558 21.8536 55.564 21.2047H55.3059V21.7153L54.0269 21.457C54.039 22.3762 53.9668 23.0732 53.5165 23.5058V23.2474H53.2583V22.22H52.7479C52.7299 22.893 52.6458 23.0912 52.4897 23.4998C51.9553 23.3436 51.4449 23.2114 50.9525 23.7582V24.2689H50.6943V24.5272L49.1571 24.2689C49.073 24.4371 48.989 24.6113 48.8989 24.7796C48.5567 24.8637 48.2144 24.9478 47.8721 25.038V25.5487H46.8454V26.0594C46.2329 25.9392 46.0407 25.765 45.5663 25.5487V26.8284C44.9658 26.9126 44.3714 26.9966 43.7709 27.0868V27.3451C43.0203 27.5194 42.9303 27.6275 42.7441 28.3725C43.1044 28.3906 42.7081 28.3305 43.0023 28.1142C43.4046 27.8198 43.2424 28.745 43.2604 28.8832C42.8221 29.1716 42.9123 29.0455 42.7501 29.6523C43.0924 29.5682 43.4346 29.4841 43.7769 29.394L44.0351 28.8832C44.0831 28.8772 44.6355 29.1236 45.0619 29.1416V28.6309C45.3201 28.7151 45.5723 28.7991 45.8305 28.8893L46.0888 28.3786C46.401 28.2284 46.8393 28.2403 47.1156 28.1202V27.0928C47.722 26.9906 48.5266 26.6061 49.4213 26.8345V27.0928H50.4482V26.8345H50.9585V25.807H51.4689V26.3177C52.2375 26.1494 53.0061 25.9752 53.7747 25.807L54.033 26.0654C54.7355 25.5727 54.267 25.1882 55.57 25.038C55.8643 25.3324 55.5701 25.1401 56.0805 25.2963V24.5272L57.3596 24.2689V23.7582C58.2062 23.8964 58.5244 24.0826 58.8967 23.7582H59.155C59.4792 23.3616 58.8787 23.2415 59.4131 22.9891V23.2474H59.6713V22.4784C60.2357 22.3883 60.9983 22.1419 61.7188 22.4784C61.8029 22.6466 61.8871 22.8209 61.9771 22.9891H62.4875V22.4784C63.0039 22.6226 62.7097 22.4483 62.9979 22.7367L63.7665 22.4784V22.22H64.5351C64.7033 21.9617 64.8773 21.7093 65.0455 21.4509C65.4718 21.5351 65.8982 21.6192 66.3245 21.7093V21.9676C66.5107 22.0037 67.2673 21.7394 68.1199 21.7093L67.8618 20.9402H68.3721V21.1986H69.3988L69.6572 21.457V21.1986L70.4256 20.9402C70.4076 20.2673 70.3236 20.069 70.1675 19.6605H71.7047C71.9989 19.3661 71.7048 19.5584 72.2152 19.4022C72.4133 18.6331 72.3713 18.7292 73.2419 18.6331C73.5302 19.0717 73.4041 18.9815 74.0106 19.1438C74.2688 18.5009 74.5389 17.8039 75.0373 18.1164H75.2955V18.8854H75.8059C75.9921 18.1764 75.878 18.3146 76.5746 18.1164V17.858L78.1116 17.5997C78.1116 17.5997 78.2258 17.9721 78.6221 17.858L78.8803 17.3473H79.6489V16.8366L80.1593 17.0949V17.3533C80.4956 17.4795 80.2133 17.2331 80.4175 17.0949C81.06 16.9207 80.8318 16.9627 81.1861 16.5842H81.4443V16.0735L81.9547 15.8151C82.255 15.4907 82.3871 15.0701 82.7233 14.7877V15.0461H83.4918C83.5759 15.3886 83.6601 15.731 83.7501 16.0735H84.0083C84.6328 15.0281 85.4434 15.1242 86.8244 14.7937C86.9025 14.7757 86.8906 14.4392 87.3349 14.5354V14.7937C87.8453 14.962 88.3617 15.1362 88.8721 15.3044V15.0461H89.1303L88.8721 14.277C89.0403 14.1929 89.2143 14.1088 89.3824 14.0186C89.7367 13.4839 89.2684 13.6581 89.8929 13.2496V12.9912L91.1718 12.7329C91.0337 13.4478 90.9737 12.7569 91.1718 13.5019H91.4301V12.9912C91.9405 13.0754 92.4568 13.1594 92.9672 13.2496V12.9912C93.2434 12.7569 93.0154 13.0333 93.2255 12.7329H92.9672V12.4745H93.7358C93.7899 13.0814 93.8439 13.1114 93.994 13.5019C94.2882 13.2075 94.0962 13.502 94.2523 12.9912C94.5465 12.6968 94.3544 12.9913 94.5105 12.4806C95.2791 12.2222 96.0477 11.9698 96.8163 11.7115L97.0745 11.9699C97.1585 11.1407 97.3087 11.2188 97.5849 10.6901H98.0953V10.9484H98.3534V10.6901H99.3803L99.6385 9.921C100.305 10.1914 100.719 10.3896 101.686 10.4317C101.602 10.2635 101.518 10.0892 101.428 9.921C101.602 9.63861 102.869 9.56048 103.223 9.15191L102.965 8.64122H103.223V8.38283C103.902 8.68325 104.19 8.8755 105.271 8.89352V8.63521H105.013V7.86612C105.823 8.03436 105.529 8.25665 105.781 8.37682C106.082 8.35879 106.694 7.86014 107.319 8.1185L107.577 8.62919H108.087C107.841 9.47637 107.847 10.1373 108.345 10.9364H108.087C107.793 11.2308 108.087 11.0385 107.577 11.1948V12.4745H107.319C107.252 12.9011 107.559 12.9191 107.577 12.9852V14.265C106.658 14.3011 106.124 14.6315 105.529 14.7757L105.019 14.5174C104.851 14.7757 104.676 15.028 104.508 15.2864C104.364 15.3465 103.109 15.0942 102.713 15.0281C102.557 15.701 101.986 16.386 101.176 16.3079C101.176 16.3079 101.038 15.9834 100.665 16.0495L100.923 16.5602H99.8967C99.8126 16.9867 99.7286 17.4133 99.6385 17.8399L98.3594 17.5816L98.1013 18.0923C97.4107 18.2665 97.4287 17.5996 97.3326 17.5816L96.564 17.8399L96.8223 18.0983C96.8343 18.2005 96.5941 18.6751 96.564 19.1257C95.7114 19.2098 94.8587 19.294 94 19.3841V18.8734C93.3935 18.8193 93.3635 18.7652 92.9732 18.615V19.3841C92.9192 19.4923 91.2138 20.6759 92.2046 21.1806H91.4362V20.9222C91.19 20.4475 91.1778 21.433 91.1778 21.433C90.8896 21.6493 91.1419 21.4029 90.9197 21.6913C91.6402 21.451 91.6343 21.4209 92.4569 21.6913V21.9497L93.2255 21.6913L92.9672 21.433L93.2255 20.6639C94.4265 21.1265 95.2191 20.8141 96.0417 20.1532C96.1258 19.985 96.2098 19.8107 96.2999 19.6424H97.5789C97.5789 19.6424 97.5548 19.4923 98.0892 19.3841V20.1532H98.3474V19.6424C99.4403 19.6244 100.047 19.5884 100.653 19.1317L100.911 18.621C101.338 18.7052 101.764 18.7893 102.19 18.8794C101.896 18.585 102.19 18.7773 101.68 18.621V18.1104C101.938 18.1945 102.19 18.2785 102.449 18.3687V17.858H102.959V18.3687C104.442 18.2485 105.505 17.4134 106.544 16.8306V17.5997H107.054V17.0889H108.85V16.8306H109.618V16.5722C110.129 16.6563 110.645 16.7404 111.155 16.8306C111.372 16.5422 111.125 16.7945 111.414 16.5722V15.5448C111.924 15.4607 112.44 15.3765 112.951 15.2864C112.867 15.5448 112.783 15.7971 112.693 16.0555H112.951V16.3139C113.239 16.0976 112.987 16.3439 113.209 16.0555C113.503 15.7611 113.311 16.0555 113.467 15.5448C113.87 15.5628 115.263 15.8031 115.263 15.8031V15.5448H115.521V14.7757C115.803 14.4152 116.674 14.5114 117.316 14.5174V14.7757L118.853 14.5174V14.259H119.364V14.0006H120.132L119.874 14.7697H120.132C120.319 14.0607 120.204 14.1989 120.901 14.0006V14.5114C121.159 14.4273 121.411 14.3431 121.67 14.253V13.9947C122.27 13.9105 122.865 13.8264 123.465 13.7363V13.4779H124.234L124.492 12.9672C124.708 12.8831 126.179 13.2375 126.54 13.4779V12.9672L127.308 12.7089V12.4505C127.656 12.3423 127.206 12.6368 127.566 12.7089C127.993 12.793 128.023 12.4625 128.077 12.4505C128.545 12.3543 129.067 12.7869 129.356 12.9612V12.7029C130.154 11.9758 129.416 11.6153 130.893 11.4231V11.6814H131.662L131.403 12.1922C131.733 12.6067 131.884 11.9097 132.172 12.9612C132.508 12.6908 132.556 12.4385 132.94 12.1922V12.9612H133.451C133.367 12.4505 133.283 11.9338 133.193 11.4231C134.394 11.0145 134.057 11.6214 134.73 10.1433H134.988C134.958 10.6901 134.724 11.0205 134.73 11.1707L134.988 11.4291C135.456 11.1046 135.018 11.0806 135.246 10.9184C135.541 10.7021 135.408 11.1527 135.504 11.1767C135.763 11.0926 136.015 11.0085 136.273 10.9184V10.4076C136.85 10.3055 137.258 9.98709 138.068 10.1493C138.068 10.1493 138.08 10.4857 138.579 10.4076V10.1493H139.858V10.4076C139.245 10.5638 139.383 10.4918 139.089 10.9184H139.6C140.338 9.69871 141.569 10.1253 142.932 9.63862L143.19 8.86954C143.923 8.86954 144.289 8.95962 144.728 9.12786V8.10046H144.986C145.154 8.35881 145.328 8.61118 145.496 8.86954H145.754L145.496 9.38023H145.754V9.63862C146.487 10.1674 146.415 9.18193 146.781 10.4076H147.292V10.9184H147.802C147.718 11.1768 147.634 11.4291 147.544 11.6874H147.802C147.976 12.0719 147.982 12.1141 148.06 12.7149H148.571V13.2256C148.967 13.4539 149.105 13.6041 149.339 13.9947C150.168 13.544 149.826 13.3818 150.877 13.7363L150.618 12.9672H151.129V12.4565H151.639V12.7149H151.897V12.4565L152.666 12.7149L152.408 13.4839H152.918C153.104 12.7749 152.99 12.9132 153.687 12.7149C154.071 12.2643 154.377 12.2282 155.224 12.2041V11.6934C155.734 11.5252 156.251 11.351 156.761 11.1827C156.779 11.8557 156.863 12.0539 157.019 12.4625C157.308 12.2462 157.055 12.4925 157.277 12.2041H157.536V11.4351C158.304 11.5192 159.073 11.6033 159.841 11.6934V11.1827H160.352L160.61 10.4136C160.952 10.4978 161.295 10.5819 161.637 10.672C161.721 10.5038 161.805 10.3296 161.895 10.1613L163.174 10.4197V10.9304C163.829 10.5338 164.939 9.33817 165.738 9.90295H166.248V10.4136H166.507V9.90295C167.738 9.83686 167.744 9.7227 168.812 9.90295C168.896 9.47636 168.981 9.04977 169.071 8.62318C170.254 8.40087 171.148 8.40087 171.887 8.62318V8.11248H173.424V8.3708H174.193V8.62919C174.451 8.54507 174.703 8.46093 174.961 8.3708V8.11248C174.667 7.81808 174.859 8.1125 174.703 7.60179C175.544 7.61982 175.46 7.92624 175.982 7.60179L176.24 7.09102L177.777 7.60179V8.11248C178.468 8.11248 179.231 8.19657 179.573 7.85409V7.3434L180.083 7.60179V7.3434C180.594 7.25928 181.11 7.17521 181.62 7.08508C181.861 7.2413 181.53 7.45155 181.879 7.3434L182.137 6.83271C182.461 6.83271 182.791 7.2893 183.416 7.09102V6.83271C183.842 6.74859 184.268 6.66444 184.695 6.57432L184.437 7.3434H184.695C185.265 7.96226 185.175 7.70393 185.974 7.60179C185.944 8.41292 185.475 8.0824 186.232 8.3708C186.346 9.00768 186.466 9.31418 186.49 10.1674C185.782 10.3536 185.92 10.2394 185.722 10.9364H185.463V12.2161C184.851 12.3363 184.659 12.5105 184.184 12.7268V11.9578H183.926C183.548 13.3938 183.482 12.4865 182.647 12.9852V13.2436L181.62 14.0126C181.705 13.7543 181.789 13.502 181.879 13.2436H181.62C181.464 13.6522 181.392 13.8505 181.362 14.5234C180.395 14.7277 179.927 15.0221 178.546 15.0341V14.5234H178.036V15.0341H176.757V15.2924H177.015C176.853 15.6589 176.715 15.4847 176.504 15.8031H175.994L176.252 15.2924H175.994C175.742 15.6409 175.844 15.7971 175.225 15.8031C175.225 15.8031 175.045 15.4366 174.715 15.5448C174.631 15.713 174.547 15.8872 174.457 16.0555H173.946L173.688 17.5936L172.661 17.852V16.8246H172.151C171.965 17.6477 171.803 17.7558 170.872 17.852L171.13 17.0829H170.872C170.776 17.3773 170.8 17.9962 170.362 17.852L170.103 17.0829C169.845 17.167 169.593 17.2511 169.335 17.3413V17.852C168.927 17.6957 168.728 17.6237 168.056 17.5936V16.8246H167.798V17.5936C168.092 17.8881 167.9 17.5936 168.056 18.1043C167.455 18.1885 166.861 18.2725 166.26 18.3627V18.8734C165.354 18.9696 165.48 19.1918 164.723 19.3841V20.1532C164.099 20.009 164.159 19.8828 163.696 19.6424V20.1532H163.438V20.9222H163.696V20.4115H164.207V20.9222C164.633 20.8381 165.059 20.754 165.486 20.6639V21.433H165.996V20.6639C166.423 20.748 166.849 20.8321 167.275 20.9222C167.395 20.3094 167.569 20.1171 167.786 19.6424C168.62 19.6484 169.635 19.5283 170.092 19.9008H170.35C170.434 19.7326 170.518 19.5584 170.608 19.3901H171.118V19.1317H171.629V18.8734L172.139 19.1317V18.8734H174.703C174.619 18.6151 174.535 18.3627 174.445 18.1043H174.955V17.8459H175.213V18.1043L175.982 18.3627C176 18.7232 176.042 18.4348 175.724 18.621C176.012 18.8914 175.724 18.7352 176.234 18.8794V18.621H176.492V17.852H176.751C176.973 17.4975 176.943 17.4074 177.009 16.8246C177.615 16.7945 177.657 16.7464 178.036 16.5662V16.8246H178.294V17.0829L178.036 17.5936H178.804V17.0829C179.405 16.9988 179.999 16.9147 180.6 16.8246V17.0829H180.858C181.146 16.8786 180.762 16.7465 181.116 16.8246V17.0829H182.143V17.5936H182.401C182.485 17.0829 182.569 16.5662 182.659 16.0555H183.17V16.5662H183.428V15.7972C184.016 15.8212 184.094 16.0134 184.455 16.0555L184.713 15.5448C184.713 15.5448 185.415 15.7851 185.74 15.8031V15.2924L185.998 15.5508C186.34 15.4667 186.682 15.3825 187.025 15.2924V15.5508H188.304V14.7817H188.814V15.0401H189.072V14.7817L189.583 15.0401L189.841 14.271C190.519 14.0187 190.375 14.8298 190.868 14.7817V14.5234C191.99 14.259 192.279 13.8925 193.432 13.7543V14.0126H193.173C192.687 14.2349 193.684 14.271 193.684 14.271C193.9 14.5594 193.654 14.307 193.942 14.5293V14.0186L195.221 13.7603C195.305 13.5921 195.389 13.4178 195.479 13.2496L195.737 13.508C197.257 13.6041 197.455 12.9732 198.301 12.4806V13.2496H198.56C198.854 12.9552 198.56 13.1475 199.07 12.9912V12.4806C199.328 12.5647 199.58 12.6487 199.839 12.7389L200.097 12.2282H201.124V11.9699H201.382C201.538 12.5827 201.466 12.4445 201.892 12.7389V11.9699C203.237 11.7536 203.027 11.9398 204.198 12.4806C204.33 11.8797 204.57 11.5192 204.967 11.2008C205.261 11.4952 204.967 11.3029 205.477 11.4591V10.9484H206.246V10.4377C206.672 10.5218 207.098 10.6059 207.525 10.696V11.2068H208.035V10.4377C208.593 10.4738 208.888 10.696 209.062 10.696V10.4377L209.83 10.1793C209.915 10.3475 209.999 10.5218 210.089 10.6901C210.905 10.9304 212.13 10.1553 212.653 9.921L212.394 9.15191H213.163C213.319 9.76476 213.247 9.62659 213.673 9.921C213.89 10.2094 213.643 9.95701 213.932 10.1793C213.95 9.50638 214.034 9.3081 214.19 8.89954C214.7 8.81542 215.217 8.73134 215.727 8.64122C215.943 8.92962 215.697 8.67723 215.985 8.89954C215.787 9.15789 215.673 9.15195 215.475 9.4103H216.243L215.985 8.64122L216.243 8.38283C216.622 8.503 216.652 8.67727 217.27 8.64122V8.38283H217.528V8.64122C217.871 8.72534 218.213 8.80941 218.555 8.89954V9.15793C219.6 9.55448 220.074 8.9717 220.603 9.41632C221.401 9.94505 220.723 9.74675 221.113 10.4437L221.624 10.702V11.2128H221.882C222.116 11.5613 222.074 11.6634 222.14 12.2402L221.113 11.9818C221.317 12.811 221.588 12.8651 221.624 14.0307C221.335 14.247 221.588 14.0007 221.365 14.2891H221.107C221.029 13.52 221.071 13.592 220.597 13.2616V13.52H220.855C220.687 13.8625 220.513 14.2049 220.345 14.5474C219.678 14.5594 219.462 14.6015 219.066 14.8058V15.0641C218.627 15.2143 218.621 14.8238 218.555 14.8058C217.637 14.5714 217.054 15.1302 216.76 15.5749H216.502C216.418 16.0856 216.333 16.6022 216.243 17.1129H215.733L215.475 16.6023C215.133 16.6864 214.79 16.7704 214.448 16.8606C214.502 17.4674 214.556 17.4975 214.706 17.888C214.112 17.864 214.052 17.6837 213.679 17.6297L213.421 18.1403C213.079 18.2245 212.737 18.3086 212.394 18.3987C212.208 19.1077 212.322 18.9695 211.626 19.1678C210.725 19.9789 209.969 18.8433 209.83 18.9094V19.1678C209.404 19.4262 208.978 19.6785 208.551 19.9368C208.689 20.8321 208.804 20.4115 208.551 21.2166H208.81V20.9583H209.836V21.469L210.605 21.2106V20.9523L211.374 21.2106V20.4416C211.632 20.5257 211.884 20.6098 212.142 20.6999V20.4416L211.884 20.1832H213.421C213.505 20.4416 213.589 20.6939 213.679 20.9523C213.848 20.8682 214.19 20.4416 214.19 20.4416C214.448 20.5257 214.7 20.6098 214.958 20.6999V20.4416C215.337 20.2433 215.385 20.2493 215.985 20.1832V19.6725H216.496V19.1618H217.522V19.6725C218.099 19.6064 218.201 19.6484 218.549 19.4141V19.1558H219.06V18.8974H219.57V18.6391C220.026 18.2726 220.182 18.0623 220.849 17.87V18.6391H221.876C221.96 18.2125 222.044 17.7859 222.134 17.3593H222.644C222.56 17.6177 222.476 17.87 222.386 18.1284H222.644C223.011 17.7619 224.074 17.4735 224.692 17.3593V16.8486C225.034 16.7645 225.377 16.6804 225.719 16.5902V15.8211H226.229V16.5902H226.74V15.8211H228.019C227.935 16.0795 227.85 16.3319 227.76 16.5902H228.271C228.535 16.2958 228.745 16.0976 229.298 16.0795V16.3378H229.556L229.814 16.0795C230.054 15.6169 230.168 15.6769 230.324 15.0521L231.093 14.7937V14.5354L231.351 14.7937L232.12 14.5354V15.3044H232.63C232.684 14.6976 232.738 14.6676 232.888 14.277L233.399 14.5354V14.277C233.765 13.9586 233.795 13.568 234.167 13.2496C234.246 13.3697 234.69 14.1809 234.936 14.0186L235.194 13.2496C236.305 13.1654 237.416 13.0814 238.527 12.9912V13.2496C237.818 13.4358 237.956 13.3217 237.758 14.0186C238.395 13.9045 238.701 13.7844 239.554 13.7603V13.5019H239.295V12.2222C239.722 12.3063 240.148 12.3904 240.574 12.4806C240.658 12.2222 240.742 11.9698 240.833 11.7115C241.127 12.0059 240.935 11.7115 241.091 12.2222L241.859 12.4806V12.2222C242.388 11.9338 242.322 11.8256 243.138 11.7115V10.9424C243.685 10.9123 244.015 10.6781 244.165 10.6841L244.423 10.9424V10.4317L245.702 10.1733V10.6841C245.871 10.5999 246.045 10.5158 246.213 10.4257V10.1674C246.621 10.1193 246.531 10.612 246.723 10.6781H247.75C247.834 10.2515 247.918 9.82487 248.008 9.39828C248.435 9.48239 248.861 9.56647 249.287 9.65659L249.545 9.1459H249.804V9.40429C250.062 9.32017 250.314 9.23602 250.572 9.1459V8.63521C250.866 8.92961 250.674 8.63519 250.83 9.1459H251.341C251.461 8.53305 251.635 8.34078 251.851 7.86612C252.704 7.87814 254.157 8.12451 254.157 8.12451V7.86612H254.667V7.60781H255.436C255.52 7.43957 255.604 7.26527 255.694 7.09704C255.952 7.18116 256.205 7.2653 256.463 7.35543V7.61382H257.742V7.10305L258.769 6.84474V7.35543H259.279C259.441 8.0584 259.615 7.93824 259.789 8.63521H260.558C260.744 9.34419 260.63 9.20601 261.327 9.40429V9.91498C259.795 10.2274 260 10.9424 259.531 12.2222H261.068L261.327 11.1948C262.395 11.0325 262.053 10.9424 263.122 10.6841V11.1948C264.335 10.6841 264.155 10.6841 265.17 11.1948V10.6841C265.512 10.5999 265.854 10.5158 266.196 10.4257V9.91498H266.707V10.1733H266.965V9.91498C267.547 9.80082 267.655 10.0471 267.992 10.1733V9.91498H267.734C267.259 9.66864 268.244 9.65659 268.244 9.65659V9.1459H268.754V8.63521C269.559 8.78541 269.895 9.04977 270.802 9.1459L271.06 8.37682C271.06 8.37682 270.514 8.3348 270.802 8.1185H271.312V8.37682H272.85V7.60781C273.666 7.77604 273.354 7.98632 273.618 8.1185C274.045 8.07644 274.093 7.61381 274.129 7.60781C274.621 7.46961 274.483 7.776 274.639 7.86612H274.897V7.60781C275.239 7.69192 275.582 7.776 275.924 7.86612C276.11 7.15714 275.996 7.29531 276.693 7.09704V7.60781H277.719C277.96 7.14516 278.074 7.2052 278.23 6.58033L278.998 6.83872V6.58033C279.166 6.49621 279.341 6.41214 279.509 6.32201V6.83271H280.019L279.761 6.06362C280.373 5.94346 280.566 5.76923 281.04 5.55293V6.58033C282.373 6.23185 281.953 6.01559 283.604 6.32201V5.55293H284.373V5.81132C284.264 5.96153 283.952 5.84736 284.114 6.32201H284.373C284.787 4.73582 284.919 5.88936 285.91 5.29454C286.492 4.94606 285.892 4.35123 287.189 4.01476V4.27315L287.957 4.01476V4.52553H288.216V4.01476C289.122 4.1109 288.996 4.33326 289.753 4.52553V5.03622C289.993 5.43878 291.584 5.51088 290.78 6.316H291.29V7.3434L290.78 7.60179C290.768 7.68591 291.02 8.17256 291.038 8.62919H291.548C291.428 9.24204 291.254 9.43431 291.038 9.90897C290.581 9.933 290.113 10.1794 290.011 10.1674V9.90897H288.984V10.1674L287.447 10.4257V10.9364C287.105 11.1046 286.762 11.2788 286.42 11.4471V11.1887H286.162V11.9578L284.367 12.4685C284.661 12.7629 284.367 12.5706 284.877 12.7268V12.9852C285.327 13.1955 285.7 12.835 285.904 12.7268V12.4685H286.672V11.9578C287.867 11.8977 288.132 11.5853 288.978 11.1887V10.9304H290.774V11.1887H290.515C290.221 11.4832 290.515 11.2908 290.005 11.4471V11.9578C291.05 11.6574 290.275 11.7235 290.774 11.1887L291.284 11.4471V11.1887H291.794V10.9304H292.563C292.833 10.7741 293.199 9.66262 293.842 9.90295V10.1613H294.352V9.39226C294.611 9.47638 294.863 9.56045 295.121 9.65058V9.39226C295.631 9.30814 296.148 9.224 296.658 9.13387V9.64456H297.169C297.253 9.90292 297.337 10.1553 297.427 10.4136H297.685V9.90295H298.195C298.345 8.94763 298.345 9.31418 298.195 8.36486C298.273 8.3949 300.663 8.92362 300.759 8.87555V8.61716H301.017V7.58976H301.276C301.798 8.05841 302.441 7.66186 303.323 7.58976V7.07907C303.84 7.22327 303.546 7.04899 303.834 7.33739C304.777 7.06701 304.536 6.82069 305.113 6.30999V6.0516C305.761 5.64904 307.136 6.03357 308.187 6.0516C308.349 5.34862 308.523 5.46878 308.698 4.77182C309.796 4.72976 309.574 4.60961 310.235 4.26113V5.03021H311.262C311.316 4.42337 311.37 4.39335 311.52 4.00281L312.288 4.26113L312.547 3.75043H313.057V3.49204C313.315 3.40793 313.567 3.32385 313.826 3.23373L314.084 4.00281C314.732 3.48008 314.192 3.38393 315.363 3.23373V3.49204C315.069 3.72637 315.062 3.67836 314.852 4.00281H315.111V4.26113C315.645 3.97873 315.567 3.84657 316.39 3.75043C316.606 4.03883 316.359 3.78651 316.648 4.00882C316.347 4.4955 316.432 4.25515 315.879 4.51952V4.77783H316.39C316.305 5.28854 316.221 5.80529 316.131 6.316H316.39V6.57432H316.131V7.08508C316.215 7.68592 316.299 8.28073 316.39 8.88157H316.131C315.915 9.17598 315.999 9.24205 315.621 9.39226V9.13387H315.363C315.195 9.39223 315.02 9.6446 314.852 9.90295H314.084L313.826 10.4136C313.483 10.4978 313.141 10.5819 312.799 10.672C312.715 10.9304 312.631 11.1828 312.541 11.4411L311.772 11.6994L311.514 12.2101H311.256V11.9518C310.313 11.7295 310.019 12.823 309.46 12.2101V12.7209H308.95C309.034 13.0634 309.118 13.4058 309.208 13.7483H308.95C308.662 14.1869 308.788 14.0968 308.181 14.259C308.157 14.2049 307.815 13.3277 307.671 13.4899V13.7483L307.16 14.0066C307.076 14.265 306.992 14.5173 306.902 14.7757H306.133C305.275 15.1963 305.797 15.4547 304.338 15.5448C304.422 15.8031 304.506 16.0555 304.596 16.3139C304.939 16.2297 305.281 16.1456 305.623 16.0555V16.8246H305.881V16.5662H306.908C307.689 16.2718 308.049 15.8512 309.214 15.7972V15.2864C309.941 15.1242 309.893 14.8117 309.983 14.7757H311.009V15.0341L312.036 14.7757C312.036 14.7757 312.15 15.0942 312.547 15.0341V14.7757L313.573 15.0341V14.7757C313.868 14.4813 313.675 14.7757 313.832 14.265H313.573V14.5234C313.351 15.0101 313.315 14.0126 313.315 14.0126C314.252 14.0967 315.195 14.1809 316.131 14.271L316.39 13.7603C316.648 13.6822 316.858 14.1568 317.416 14.0186V13.7603H318.695V14.0186H318.954V13.7603H319.98L320.238 12.9912H320.497L320.238 12.4806H321.007C321.301 12.775 321.007 12.5827 321.518 12.7389V12.2282C322.13 12.3483 322.322 12.5226 322.796 12.7389V12.4806H322.538C322.064 12.2342 323.049 12.2222 323.049 12.2222V12.4806C323.343 12.775 323.151 12.4805 323.307 12.9912C323.853 12.9612 324.178 12.7329 324.334 12.7329V12.9912H324.844C324.916 12.5346 325.102 12.4806 325.102 12.4806C325.018 12.2222 324.934 11.9698 324.844 11.7115H325.102V11.4531C325.829 11.7775 326.159 12.114 327.15 12.2222V11.7115C328.645 11.369 327.294 11.0626 328.687 11.7115V10.6841H328.945V10.9424C329.288 10.684 329.63 10.4317 329.972 10.1733V11.2008H330.23C330.356 11.0806 330.158 10.7862 330.489 10.9424V11.2008H330.747C330.747 11.2008 330.675 12.12 331.005 11.7115V11.4531C331.299 11.1587 331.107 11.4531 331.263 10.9424H330.495C330.693 10.1733 330.651 10.2694 331.521 10.1733V10.4317L332.29 10.1733V10.4317H333.059V10.6901C333.719 10.8283 334.464 9.89092 334.854 9.66261L335.623 9.921V9.66261C336.049 9.38622 336.049 9.31414 336.649 9.15191C336.565 9.41027 336.481 9.66264 336.391 9.921H336.649V10.1793C336.908 10.0111 337.16 9.83685 337.418 9.66862V9.4103H337.928C338.391 9.20602 338.487 8.82745 338.697 8.38283C339.123 8.7253 339.55 9.06783 339.976 9.4103C340.132 8.9056 339.988 8.78542 340.486 8.64122C340.57 8.67126 340.564 9.12187 340.997 9.15191C341.543 8.42491 341.225 8.63516 342.024 8.89352C342.108 8.06437 342.258 8.14255 342.534 7.61382C343.429 7.75201 343.008 7.86617 343.813 7.61382V9.15191H344.071C344.359 8.71331 344.233 8.80344 344.84 8.64122C345.32 9.44634 345.789 9.36825 345.867 10.6901C346.569 10.7201 347.722 11.0446 347.914 10.6901H348.172V10.9484C348.881 11.1166 349.685 11.6634 349.968 12.2282V12.9973H350.226C350.58 13.4719 350.82 13.5921 350.994 14.277C350.736 14.1929 350.484 14.1088 350.226 14.0186V14.277H350.484V15.0461H350.742C350.976 15.4246 350.97 15.677 351 16.3259C350.706 16.6203 350.898 16.3259 350.742 16.8366C349.89 16.9207 349.037 17.0048 348.178 17.0949V16.5842C347.836 16.6683 347.494 16.7525 347.152 16.8426V16.3318C346.983 16.416 346.809 16.5001 346.641 16.5902C346.557 16.422 346.473 16.2478 346.383 16.0795C346.377 16.0795 345.626 16.428 345.104 16.0795L344.846 15.3104C344.545 15.1002 344.407 16.0615 343.819 15.8211V15.5628C343.525 15.2684 343.717 15.5628 343.561 15.0521L342.792 15.3104V15.0521H342.534C342.618 14.7937 342.702 14.5414 342.792 14.283C342.792 14.283 342.474 14.205 342.534 13.7724C342.534 13.7724 342.96 13.6581 342.792 13.2616H342.534C342.24 13.556 342.534 13.3638 342.024 13.52C341.939 13.7783 341.855 14.0307 341.765 14.2891C341.165 14.217 341.129 14.2049 340.739 14.0307V13.7724C340.306 13.8024 340.306 14.259 340.228 14.283C339.646 14.4873 339.195 13.9646 338.949 14.0247V14.283C338.078 14.6315 337.886 15.0821 336.901 15.3104C336.986 15.0521 337.07 14.7997 337.16 14.5414H336.649C336.271 15.2383 335.863 15.713 334.854 15.8211V15.0521H334.596C334.398 15.8211 334.44 15.725 333.569 15.8211V15.3104C332.5 15.8933 332.356 15.8332 331.005 15.5688V15.0581H330.747C330.729 16.0494 330.789 16.1155 329.978 16.3378V16.5962C329.732 17.0709 329.72 16.0855 329.72 16.0855H329.21C329.126 16.2538 329.041 16.428 328.951 16.5962C328.525 16.5121 328.099 16.428 327.672 16.3378V16.8486H326.904V17.1069C326.61 17.4013 326.802 17.1069 326.646 17.6176L325.108 17.876V17.3653L322.544 17.6236V18.1343H321.776V18.3927C321.548 18.8734 321.518 17.882 321.518 17.882C320.695 18.0803 320.965 18.2665 319.98 18.3927V19.1618C318.467 19.0056 318.581 18.2545 316.906 18.1343C316.9 18.9875 316.774 19.294 316.648 19.9309H316.137C316.215 19.7086 316.63 19.3661 316.396 18.9034H316.137V19.1618C315.843 19.4562 316.035 19.1618 315.879 19.6725L314.342 19.9309V20.4416C313.483 20.2854 312.727 19.7386 311.778 20.1832C311.61 20.4416 311.436 20.6939 311.268 20.9523C310.571 21.1566 310.475 20.2613 310.241 20.1832C309.778 20.027 310.055 20.4716 309.983 20.6939C309.724 20.6098 309.472 20.5257 309.214 20.4356V21.463H308.704L308.445 21.9737C308.025 22.0998 307.971 21.7214 307.935 21.7153C307.316 21.6072 307.268 21.9737 306.908 21.9737V21.7153C306.398 21.6312 305.881 21.5471 305.371 21.457V21.9676C303.672 22.1479 302.807 22.19 301.528 21.9676L301.27 22.7367C300.789 22.6106 300.045 22.6286 299.222 22.4784V22.22C299.516 21.9256 299.324 22.22 299.48 21.7093C298.868 21.7334 298.844 21.8775 298.453 21.9676V21.7093C298.027 21.4329 298.033 21.3428 297.427 21.1986V20.6879H296.916C296.832 20.4295 296.748 20.1772 296.658 19.9189L295.121 19.6605V19.1498C295.325 19.2339 295.926 19.6725 296.4 19.4081V19.1498C295.643 18.6571 295.776 18.1284 295.89 17.3533C296.232 17.1851 296.238 16.9508 296.4 16.8426C296.568 16.9267 296.742 17.0108 296.91 17.1009V16.0735H297.169C297.084 15.5628 297 15.0461 296.91 14.5354C296.652 14.4512 296.4 14.3672 296.142 14.277C296.226 14.4453 296.31 14.6195 296.4 14.7877L295.631 14.5293V15.0401H295.373C295.289 15.2083 295.205 15.3826 295.115 15.5508H294.346C294.406 16.1456 294.629 15.707 294.346 16.3199L293.836 16.0615V16.5722C293.56 17.0228 293.578 16.0615 293.578 16.0615C293.151 16.1456 292.725 16.2298 292.299 16.3199C292.299 16.3199 292.179 15.9353 291.788 16.0615C291.704 16.2297 291.62 16.4039 291.53 16.5722H290.762C290.678 16.8305 290.593 17.0829 290.503 17.3413C290.107 17.131 289.368 16.416 288.708 16.5722C288.624 16.7404 288.54 16.9146 288.45 17.0829C287.957 17.0348 288.023 16.5842 287.939 16.5722H287.681V16.8306H286.402V17.0889H286.912C286.828 17.5996 286.744 18.1163 286.654 18.6271H286.144C285.91 18.5249 285.976 17.846 285.117 18.1164L284.859 18.6271H283.58V18.3687C283.208 18.1644 283.148 18.1885 282.553 18.1104V18.8794C282.295 18.7953 282.043 18.7112 281.785 18.621V18.8794C281.49 19.1738 281.682 18.8794 281.526 19.3901C280.572 19.6605 280.836 19.9188 280.247 20.4175V20.6759H279.479V19.9068H278.968V20.4175H277.689V20.1591H277.431C277.263 20.5016 277.089 20.8441 276.921 21.1866L276.41 20.9282V21.1866L275.642 21.6973V20.9282H275.384V21.1866L274.615 20.9282V21.1866C274.255 21.1686 274.717 20.9703 274.357 20.9282L272.82 21.1866V21.9557H272.561V21.6973C271.865 21.3248 271.306 22.0578 271.024 22.208C270.88 21.4029 270.772 21.1325 269.997 20.9282C270.141 21.5531 270.268 21.4931 270.508 21.9557H269.997C269.589 22.3342 268.49 22.238 267.692 22.214V21.7033H267.181V22.214C266.671 22.1299 266.154 22.0458 265.644 21.9557C265.518 21.3489 265.404 21.3488 265.134 20.9282C265.482 20.6278 265.386 21.1205 265.644 20.6699C265.308 20.4596 265.344 20.4896 265.134 20.1591H265.644C265.698 19.5523 265.752 19.5223 265.902 19.1317C265.176 18.9635 264.935 18.6571 264.623 18.1043H265.392C265.56 17.4194 265.734 16.7344 265.902 16.0555C265.566 15.8452 265.602 15.8752 265.392 15.5448C264.845 15.8572 264.833 16.1216 264.113 16.3139V15.8031H263.855V16.5722C262.858 16.6563 262.702 16.9868 262.059 17.3413C262.005 16.7344 261.951 16.7044 261.801 16.3139C261.513 16.5302 261.765 16.2838 261.543 16.5722H261.285L261.543 16.8306L261.285 17.5997C260.198 17.4134 260.054 17.5576 258.721 17.5997L258.979 18.3687H258.721C258.51 18.7051 258.54 18.6691 258.21 18.8794V17.852C256.907 17.9241 257.081 18.3086 255.646 18.3627C255.454 19.2339 255.1 19.5463 254.109 19.6424V19.1317H253.851V19.3901C253.629 19.8768 253.593 18.8794 253.593 18.8794C253.334 18.7953 253.082 18.7112 252.824 18.621L253.082 19.1317H252.572C252.163 19.5103 251.941 20.015 251.803 20.6699H251.035V20.1591C249.389 20.2192 248.975 21.0964 247.702 21.4389C247.864 20.7359 248.038 20.8561 248.212 20.1591C246.573 20.5196 245.408 21.6492 244.369 19.9008C245.522 19.2279 244.916 18.9455 244.628 17.852H243.601C243.385 17.5636 243.631 17.816 243.343 17.5936C243.421 17.3713 243.835 17.0288 243.601 16.5662H243.343V16.3079H242.574C242.142 17.0168 241.475 16.8245 241.037 17.3353L240.779 18.1043H240.01V18.3627C239.752 18.4468 239.5 18.5309 239.241 18.621V18.1104C238.443 18.2846 238.076 18.8794 237.446 19.1378H236.419V19.3961C236.161 19.312 235.909 19.2279 235.651 19.1378V19.6484L234.113 19.9068V20.1652H233.087C233.003 20.1832 233.02 20.5197 232.576 20.4235V20.1652H232.066V19.9068L230.27 19.6484C230.084 20.0089 229.808 20.4236 229.502 20.6759V19.6484H229.244V20.1591C228.985 20.075 228.733 19.9909 228.475 19.9008C228.355 20.5017 228.049 20.6939 227.965 21.1806H228.223C228.307 21.439 228.391 21.6913 228.481 21.9497C227.022 21.9677 226.872 21.6792 225.917 21.4389C225.539 22.1359 225.13 22.6105 224.122 22.7187V22.208H223.611V23.2355H223.101V23.4938H221.305V23.7522H220.795V24.0105C220.627 23.9264 220.453 23.8423 220.285 23.7522V24.0105H220.026C219.648 23.7041 220.243 23.8243 219.768 23.4998C219.798 24.3109 220.267 23.9805 219.51 24.2689V23.7582C218.069 23.9324 218.681 24.3951 217.973 24.7856H217.462C217.378 25.044 217.294 25.2963 217.204 25.5547H215.925V25.2963C216.562 24.8276 216.256 25.098 216.183 24.2689H215.673V25.038C213.445 25.044 213.055 25.4826 211.061 25.5487V25.038C210.719 25.2062 210.377 25.3804 210.035 25.5487C210.119 25.8911 210.203 26.2336 210.293 26.5761C209.626 26.534 209.416 26.522 209.014 26.3177V26.0594L208.245 26.3177C208.203 26.3117 208.155 25.9572 207.735 26.0594V26.3177H207.224V26.5761H206.714V26.8345C206.36 27.0688 206.264 27.0147 205.687 27.0928V26.3237H205.429V26.5821H204.15C203.976 26.6602 204.138 26.9125 203.381 27.0928C203.297 27.3511 203.213 27.6035 203.123 27.8619H203.381C203.76 28.1743 202.451 28.1142 202.355 28.1202V27.8619C201.328 27.6936 200.307 27.5194 199.28 27.3512C199.418 26.6362 199.478 27.3271 199.28 26.5821C199.004 26.7263 198.746 27.273 198.253 27.0928V26.8345H197.995L198.253 26.3237H197.995C197.701 26.0293 197.995 26.2216 197.485 26.0654C197.401 25.807 197.317 25.5546 197.227 25.2963H197.737C197.653 25.0379 197.569 24.7856 197.479 24.5272H197.737V24.7856C197.959 25.2723 197.995 24.2749 197.995 24.2749H198.253V24.0165C198.085 23.9324 197.911 23.8483 197.743 23.7582C197.827 23.4998 197.911 23.2475 198.001 22.9891H197.743V22.7307H198.512V22.4724C198.175 22.2621 198.211 22.2921 198.001 21.9616C198.44 21.6732 198.349 21.7995 198.512 21.1926L199.538 20.9342C199.568 20.9162 199.935 19.9849 200.049 20.1652V20.6759H200.817C201.058 20.2133 201.172 20.2733 201.328 19.6484C200.979 19.348 200.938 19.1798 200.817 18.621H201.328V18.1104H201.838V17.852C201.328 17.9361 200.811 18.0202 200.301 18.1104V17.852C199.965 17.87 199.659 18.2906 199.022 18.1104V17.852C198.512 17.7678 197.995 17.6838 197.485 17.5936V18.621H196.974V19.1317C196.716 18.9635 196.464 18.7893 196.206 18.621V18.1104L195.948 18.3687C195.653 18.6631 195.846 18.3687 195.689 18.8794H194.663V19.3901C194.152 19.306 193.636 19.2219 193.125 19.1317C193.041 19.5583 192.957 19.9849 192.867 20.4115C192.243 20.5557 192.303 20.6759 191.84 20.9222V20.6639C191.576 20.4416 191.486 20.2193 191.33 19.8948C191.036 20.1892 191.228 19.8948 191.072 20.4055C190.561 20.4896 190.045 20.5738 189.535 20.6639V21.1746C188.928 21.2287 188.898 21.2828 188.508 21.433V20.9222H188.766L188.508 20.1532H188.25V20.6639C188.082 20.5798 187.907 20.4956 187.739 20.4055C187.445 20.6098 187.637 21.0123 186.971 20.9162C186.887 20.748 186.802 20.5737 186.712 20.4055H186.454V20.9162L185.686 21.1746C185.554 21.1385 185.529 20.5257 185.175 20.6639C184.917 21.0064 184.665 21.3488 184.407 21.6913C184.148 21.6072 183.896 21.5231 183.638 21.433V21.9437H183.128V22.4544C182.839 22.2381 183.092 22.4844 182.869 22.196C182.593 21.9616 182.821 22.2381 182.611 21.9377H182.869V21.6793H182.101V21.9377H181.843V21.6793H181.074C180.99 21.511 180.906 21.3368 180.816 21.1686C180.648 21.2527 180.474 21.3368 180.305 21.427C179.957 21.5291 180.413 21.7033 180.047 21.6853V21.427H179.537C179.531 22.2201 179.609 22.7488 179.795 23.2234H178.768V23.7341H178.51V22.9651H178L177.741 23.7341C177.453 23.5178 177.705 23.7641 177.483 23.4757H177.225L177.483 22.7067C177.225 22.7909 176.973 22.8749 176.715 22.9651V23.2234H176.204C176.12 23.3917 176.036 23.5659 175.946 23.7341H174.919V23.9925H174.661C174.535 23.8783 174.733 23.5779 174.403 23.7341L174.145 24.2448L172.866 24.5032V23.9925H172.607L172.349 24.5032H172.091L171.833 23.9925C171.479 23.8302 171.112 23.8663 170.806 23.7341C170.788 24.7255 170.848 24.7916 170.037 25.0139V24.5032H169.527V25.0139H168.248L167.738 26.2937H167.227V26.0353C167.143 26.0233 166.639 26.2636 166.2 26.2937C166.344 25.6688 166.471 25.7289 166.711 25.2662H166.2L165.942 26.0353L164.147 25.777C163.877 25.9092 163.961 26.3537 164.147 26.546H163.636C163.414 26.8104 163.192 26.9005 162.868 27.0568V26.2877C161.721 26.3838 162.123 26.4499 161.072 26.2877V26.546C161.367 26.8404 161.174 26.5461 161.331 27.0568H160.052C159.985 27.0447 159.968 26.7263 159.541 26.7984V27.0568H159.031C158.947 27.3151 158.863 27.5674 158.773 27.8258C158.484 27.6095 158.737 27.8559 158.514 27.5675C158.226 27.3512 158.478 27.5975 158.256 27.3091C158.592 27.0988 158.556 27.1288 158.767 26.7984H157.74C157.512 27.0687 157.289 27.1348 156.971 27.3091V27.5675L156.203 27.3091V27.5675C156.539 27.7777 156.503 27.7477 156.713 28.0781H156.203C155.902 27.7297 155.734 27.6876 155.176 27.5675V28.0781C154.695 27.8979 154.173 27.8258 153.38 27.8198C153.098 27.285 152.966 27.3632 152.87 26.5401H152.36V26.0293C152.071 26.2456 152.324 25.9993 152.101 26.2877H151.843V26.7984L151.333 27.0568V27.8258H151.075C150.816 27.4833 150.564 27.1408 150.306 26.7984H150.048C149.712 26.2276 150.186 26.0834 149.537 25.5186C149.621 25.1761 149.706 24.8337 149.796 24.4912C149.796 24.4912 149.465 24.365 149.537 23.9805H149.796V22.7007C149.796 22.7007 149.952 22.7007 150.054 22.19C150.762 22.0037 150.624 22.1179 150.822 21.4209H151.333V21.6793L152.101 21.4209V20.9102L153.38 21.1686C153.567 20.4596 153.452 20.5978 154.149 20.3995V19.3721H154.407L154.149 18.8614H154.407C154.623 18.573 154.377 18.8253 154.665 18.603V18.3447C154.912 17.87 154.924 18.8554 154.924 18.8554L155.692 19.1137V18.8554H155.434C155.518 18.597 155.602 18.3447 155.692 18.0863H157.229V18.3447C157.83 18.2606 158.424 18.1764 159.025 18.0863V17.5756H160.052V17.0649C159.175 17.0529 158.28 16.8906 157.746 16.8065C157.578 17.0649 157.404 17.3172 157.235 17.5756L155.698 17.8339C155.842 17.2091 155.968 17.2692 156.209 16.8065H155.182V17.0649H155.44C155.734 17.4675 154.809 17.3052 154.671 17.3232V18.0923H154.413V18.3507C153.987 18.4348 153.561 18.5189 153.134 18.609C153.218 18.1824 153.302 17.7558 153.392 17.3292C152.768 17.4734 152.822 17.5936 152.366 17.8399V18.0983C151.855 17.9301 151.339 17.7559 150.828 17.5876V17.8459C150.534 18.1404 150.726 17.8459 150.57 18.3566C150.15 18.4347 149.453 18.8914 149.291 18.8674V18.609H148.523C148.168 18.5369 148.619 18.2726 148.264 18.3507L148.006 18.8614H147.496L147.754 18.3507H147.496C147.202 18.6451 147.496 18.4528 146.985 18.609V19.1197C146.559 19.2038 146.133 19.288 145.706 19.3781C145.658 19.3661 145.622 19.0116 145.196 19.1197V19.3781H144.686V19.6364C144.433 19.5823 144.385 18.9455 144.175 19.1257C143.755 19.4742 144.457 19.6184 143.407 19.8948V20.6639H143.148V20.1532H142.89C142.806 20.3214 142.722 20.4957 142.632 20.6639H141.605C141.299 20.1051 141.041 19.8167 140.326 19.6364V19.8948H139.299L139.041 20.4055L138.273 20.1472V20.9162H137.762C137.132 21.9917 137.192 21.2166 136.483 21.6853C136.567 21.8535 136.651 22.0277 136.741 22.196C136.231 22.1119 135.715 22.0278 135.204 21.9377C135.18 21.9437 135.072 22.3823 134.694 22.4483V22.19H133.667L133.409 21.9316V22.19C132.682 22.6586 132.658 22.929 131.361 22.959C131.073 22.5204 131.199 22.6106 130.593 22.4483V22.959H130.082V22.7007C129.758 22.5986 129.41 23.4277 129.314 23.4697C128.785 23.7041 128.581 23.2475 128.287 23.2114V23.4697C127.776 23.5538 127.26 23.638 126.75 23.7281L126.491 22.959C125.783 23.1453 125.921 23.0312 125.723 23.7281C124.954 23.8122 124.186 23.8964 123.417 23.9865L123.159 24.4972H121.363V24.7555C120.697 24.9538 120.168 24.7796 119.568 25.0139C119.424 24.389 119.298 24.4492 119.058 23.9865C118.769 24.2028 119.022 23.9564 118.799 24.2448C117.899 24.8817 118.739 25.1581 117.52 25.5246V25.783H116.241L115.983 26.2937C115.413 26.522 115.263 25.9752 114.956 26.0353V26.2937C114.446 26.3958 114.632 26.1795 114.446 26.0353H114.188V26.546C113.93 26.4619 113.677 26.3778 113.419 26.2877V26.0293L112.651 26.2877V26.0293H111.624L111.366 25.5186C111.005 25.5186 111.245 25.4405 111.107 25.777C110.789 25.4826 111.011 25.7769 110.849 25.2662H111.876V24.7555H110.849C110.609 24.2929 110.495 24.353 110.339 23.7281H110.849C110.699 22.6707 110.573 22.5024 110.081 21.4209C109.744 21.5531 110.153 21.523 109.822 21.6793H109.054V21.9377C109.57 22.0819 109.276 21.9076 109.564 22.196C108.832 22.1719 108.465 22.1479 108.027 21.9377V22.196C108.321 22.4904 108.129 22.196 108.285 22.7067C107.03 22.7067 106.826 23.0011 105.979 23.2174V22.4483H105.721V22.7067H105.463L104.953 22.4483V23.2174H104.184V22.7067H103.926V23.2174H104.184V23.9865C103.331 23.9805 103.025 23.8543 102.389 23.7281V24.2388C101.782 24.2088 101.74 24.1607 101.362 23.9805V24.2388C101.068 24.5332 101.26 24.2388 101.104 24.7495C99.7525 24.5993 100.515 24.1968 99.3082 24.4912V23.9805C98.8999 23.9204 98.9839 24.4191 98.7978 24.4912C97.837 24.8517 97.0445 24.6354 96.2339 24.4912V25.2603L95.7234 25.0019V25.2603C95.207 25.6989 95.7475 25.6508 95.4653 26.0293H95.207C94.5885 25.104 92.8111 25.8731 91.6222 26.0293V26.7984C91.1418 26.6662 90.2231 25.8791 89.8268 26.0293V26.2877H89.5686V27.0568C88.8 27.1409 88.0314 27.225 87.2628 27.3151V27.8258H87.5211C87.437 28.0841 87.3528 28.3365 87.2628 28.5949C86.6563 28.5648 86.6143 28.5168 86.236 28.3365V28.5949H85.9778V27.8258H85.4674V28.5949H85.2092V28.3365H84.1824V28.5949L83.672 28.3365V28.5949C83.1075 28.7691 82.8254 28.673 82.3931 28.8532V29.6223C81.1141 29.8145 81.126 29.8506 80.0872 29.1116L79.8291 29.8806H78.8023V30.139C78.46 30.2232 78.1178 30.3072 77.7755 30.3974V29.8867H77.265C77.1089 30.7879 76.9888 31.0643 75.986 31.1664V30.908C76.2802 30.6136 76.0882 30.9081 76.2443 30.3974C75.902 30.3132 75.5598 30.2292 75.2175 30.139V29.8806C74.7311 29.7304 74.8632 30.0249 74.707 30.139L73.9384 29.8806V30.139H74.1966V31.1664H73.6863V30.6557C72.9837 31.0643 73.2239 31.2866 72.149 31.4248C71.9629 32.1337 72.077 31.9956 71.3804 32.1938C70.6899 33.011 69.8852 32.8127 68.8164 32.7045V32.1938H69.8432C69.7591 31.9355 69.6751 31.6831 69.585 31.4248C69.1947 31.575 69.1647 31.6231 68.5583 31.6831C68.5162 30.9862 68.4741 30.139 68.0478 29.8867V29.6283C68.2339 29.3579 68.246 29.8506 68.5583 29.37H68.0478C67.5914 29.0996 68.5583 29.1116 68.5583 29.1116C68.4141 28.4867 68.288 28.5468 68.0478 28.0842H68.8164C69.0266 28.4206 68.9966 28.3846 69.3269 28.5949C68.7024 27.249 68.3841 26.0053 70.6058 26.0293C70.9 26.3237 70.6059 26.1315 71.1163 26.2877C71.2003 25.8611 71.2843 25.4345 71.3744 25.0079H70.8641V25.5186H70.3536L70.6118 24.7495H70.3536C70.1615 25.2362 70.5338 25.0139 70.0955 25.2603C69.7592 24.9599 70.4016 24.8697 69.8372 24.7495V25.2603L69.3269 25.0019V25.2603H69.585C69.4169 25.6027 69.2427 25.9452 69.0746 26.2877H68.8164V25.5186H68.5583V25.777H67.7896C67.6215 26.0353 67.4473 26.2876 67.2792 26.546H66.7689V26.8044H66.0003V27.0628H65.4898V27.3211C64.457 27.6876 63.6825 26.9666 63.1841 27.3211C62.4875 27.7717 62.3735 28.7391 62.1573 28.8593H59.8515C59.5572 28.5648 59.8514 28.7571 59.341 28.6009V28.0902H59.0828C59.1669 28.4326 59.2509 28.7751 59.341 29.1176H59.0828C58.5965 29.5382 57.7258 29.3879 57.0353 29.6283V29.8867C56.657 30.0068 56.0325 29.6102 56.0085 29.6283V30.139H54.7294C54.4712 30.7399 54.219 31.3347 53.9608 31.9355H53.7027V31.1664H53.1922C53.1382 31.7733 53.0842 31.8033 52.9341 32.1938C52.6458 31.9775 52.8981 32.2239 52.6759 31.9355C52.3817 31.6411 52.5737 31.9355 52.4176 31.4248C52.8559 31.1364 52.7659 31.2626 52.928 30.6557H52.1594V32.1938C51.7331 32.1097 51.3068 32.0256 50.8805 31.9355V31.6771C51.1747 31.3827 50.9825 31.6771 51.1387 31.1664H50.6282L50.8865 30.6557H50.6282C50.334 30.9501 50.6283 30.7578 50.1179 30.9141C50.0518 31.4127 49.8656 31.4127 49.8596 31.4248C49.4513 32.6865 50.0878 33.0651 48.5807 33.2213V32.7105C48.2264 32.8367 48.0162 32.8127 47.5539 32.9689V33.2272C47.2957 33.1431 47.0435 33.0591 46.7853 32.9689V33.2272H46.2748L46.5331 33.738H44.9959V33.9963C45.2901 34.2907 45.0979 33.9963 45.254 34.507C44.8397 34.489 43.4586 34.2487 43.4586 34.2487C43.3746 34.4169 43.2906 34.5912 43.2005 34.7594C42.5039 35.1379 42.3838 34.8255 41.9214 34.7594V35.0178H41.4111L41.1528 35.5285C40.7265 35.6126 40.3002 35.6967 39.8739 35.7868V36.0452C39.5316 35.9611 39.1894 35.8769 38.8471 35.7868C38.4208 35.8709 37.9943 35.9551 37.568 36.0452V36.3036C36.8054 36.5199 36.5293 35.895 36.0309 35.7928V36.0512C35.7367 36.3456 35.9287 36.0512 35.7726 36.5619H34.7458L34.4877 36.3036C34.3556 36.3637 34.4156 36.7602 33.9772 36.8143V36.5559L33.2086 36.2976V36.5559C32.9504 36.64 32.6983 36.7242 32.4401 36.8143V36.3036C31.9778 36.5439 32.0377 36.6581 31.4132 36.8143V37.325H31.1551V36.5559C29.7139 36.5379 28.6151 35.9431 28.0807 35.0178L28.591 34.7594C28.6091 34.3989 28.3389 34.8676 28.3329 34.5011C28.4169 34.0745 28.501 33.6479 28.591 33.2213H29.1015C28.5371 31.6231 29.732 30.7338 29.8701 29.1176C30.6627 28.9734 31.5814 28.8593 32.6863 28.8593V28.0902H33.4549C33.629 27.3391 33.7371 27.249 34.4817 27.0628V26.552C35.9768 26.2095 34.6258 25.9031 36.0189 26.552V26.0413C36.5894 25.9332 36.8955 25.795 37.2978 25.5306V25.2722C37.8082 25.2242 37.478 25.6628 37.8083 25.2722C38.1025 24.9778 37.9103 25.2722 38.0665 24.7615H38.5769C38.8711 23.7221 39.0993 24.2508 39.6037 23.4818C40.1141 23.65 40.6305 23.8242 41.1409 23.9925V23.7341H41.3991V22.7067C39.9279 22.7368 39.5195 22.917 38.3246 22.7067C38.1805 23.5119 38.0724 23.7822 37.2978 23.9865V23.4757H36.7875V24.2448C36.2651 24.5212 35.7787 25.0019 34.9921 25.0139L34.7338 24.7555C33.8091 25.4525 34.8179 25.9512 32.9384 26.0353L33.1966 25.0079H32.6863V25.2662H32.9444C32.9625 25.3563 32.5062 26.1915 32.4341 26.546H31.9237V26.0353H31.4132V26.546L31.1551 26.2877C30.6447 26.4559 30.1282 26.6301 29.6178 26.7984C29.5338 26.9666 29.4497 27.1408 29.3597 27.3091C29.0234 27.4533 29.4137 27.1168 29.1015 27.0507C28.8433 27.1349 28.5911 27.2189 28.3329 27.3091V27.0507H27.5643V26.7924H27.3061V27.0507C27.3061 27.0507 26.5976 26.8164 26.2793 26.7924C26.1112 27.2189 25.937 27.6455 25.7689 28.0721C25.5467 27.994 25.2045 27.5795 24.7421 27.8138V28.0721H24.4839V28.8412H24.2256V28.0721H23.9675V29.0995C24.0095 29.46 24.2376 28.9914 24.2256 29.3579L23.9675 29.6163C23.5231 29.394 23.8774 29.5862 23.7093 29.1055H23.451V29.6163L22.1721 29.8746L22.4302 29.3639H22.1721C21.7758 29.8086 21.7097 29.6163 21.1453 29.8746V30.133C20.767 30.2772 20.1666 30.1991 20.1185 29.8746H19.8602V30.6437H19.602V30.3853H19.3439V30.8961H18.8334V31.4068C18.1849 31.2025 17.2482 31.3888 16.0173 31.4068C15.9332 32.0076 15.8492 32.6024 15.7591 33.2033H15.2487V32.6926C14.8583 32.8428 14.8283 32.8908 14.2219 32.9509V33.72C13.7115 33.8882 13.195 34.0624 12.6846 34.2307V34.4891H12.1743V34.7474C10.9194 35.222 10.6251 34.3508 9.86848 35.5165H9.61032L9.86848 35.7748C9.78442 36.0332 9.70039 36.2855 9.61032 36.5439C9.26805 36.4597 8.92566 36.3757 8.5834 36.2855V37.0546C7.67669 37.1508 7.8029 37.3731 7.04631 37.5653V37.0546H6.788V37.8236C6.2776 37.9078 5.76131 37.9919 5.25091 38.082L4.99261 38.8511H4.4823C4.39823 39.1095 4.31406 39.3618 4.22399 39.6201H3.96583V38.8511H3.70767L3.44951 39.3618L2.68089 39.1034V38.8451C2.1825 38.7189 2.33857 38.9893 2.17044 39.1034L1.14366 38.8451L1.40182 38.5867V38.3284H1.14366V37.5593H1.40182V37.3009H0.891509C0.885504 36.4477 0.7593 36.1413 0.633202 35.5044H0.122891C-0.333464 35.2341 0.633202 35.2461 0.633202 35.2461C0.717267 34.9878 0.801438 34.7354 0.891509 34.477C2.21254 34.5371 2.15843 34.9637 2.17044 33.4496C2.59677 33.3655 3.02318 33.2814 3.44951 33.1912V32.1638L4.21813 31.9054C4.51236 31.611 4.21804 31.8033 4.72844 31.6471V32.1578H5.23889V31.6471C5.49709 31.7312 5.74931 31.8153 6.00751 31.9054V31.3948H5.7492L6.00751 30.6257H6.26567V30.3674H7.03429C7.02828 30.0069 7.08822 30.2952 6.77598 30.109V29.8506H7.5446V29.5923H7.8029L8.06107 30.1029C8.91373 30.2712 9.76641 30.4454 10.6251 30.6136C10.6491 29.6523 10.8592 29.436 11.1354 28.8172C11.3936 28.9013 11.6458 28.9854 11.904 29.0755V28.5649H12.6726L12.4145 29.0755H12.6726V28.8172H13.1831C13.4653 28.5948 13.2971 28.1983 13.6934 28.0481C13.9216 28.2764 13.7895 28.4807 14.2038 28.5588C14.372 28.3005 14.5462 28.0481 14.7143 27.7898H15.4828V27.5314H15.7411V26.504H16.2514V27.0147C17.3442 26.9125 17.4104 26.4859 18.2991 26.2456C18.5032 25.4164 18.7734 25.3624 18.8094 24.1968H21.1152V24.4551L21.8839 24.1968V23.9384C22.2682 23.8363 22.232 24.395 22.3942 24.4491L23.1628 24.1908V24.7015H23.4211V24.1908C23.7093 23.9745 23.4571 24.2208 23.6793 23.9324L23.1688 24.1908V23.1633H23.4271V22.1359H24.706L24.4479 22.905H25.2165C25.6248 22.4063 26.1471 22.22 26.4954 21.6252C26.7596 21.8475 26.8497 22.0698 27.0059 22.3943C27.2641 22.2261 27.5163 22.0518 27.7745 21.8836V21.6252H28.2848L28.543 21.1145C28.7111 21.1986 28.8853 21.2827 29.0534 21.3728C29.3957 21.1145 28.7411 20.9402 29.3116 20.8621V21.1205C29.5698 21.2046 29.822 21.2887 30.0802 21.3788V20.8682C29.786 20.5737 29.9782 20.8682 29.822 20.3575C30.4825 20.4776 30.9569 20.6038 31.8696 20.6158C32.2359 20.069 32.5422 20.0991 33.1486 19.8468L32.8905 19.0777H33.9173V18.8193H34.1754V19.0777H34.6859V18.567C36.139 18.5249 35.6406 18.1704 36.4813 17.7979H37.5081V17.5395C37.8023 17.2451 37.6101 17.5395 37.7662 17.0288H38.5348V17.5395H39.0453C39.2555 16.7164 39.3455 16.7945 40.3242 16.7705V17.2812C40.9247 17.0048 41.1589 16.6924 41.8615 16.5121V15.743H42.3718V15.2323C43.7228 15.2383 44.3954 14.9319 45.4462 14.7216C45.6324 15.4306 45.5183 15.2925 46.2148 15.4907C46.1308 15.2324 46.0466 14.98 45.9565 14.7216H46.2148C46.4971 14.3611 47.1095 13.9706 47.4938 13.6942V13.4359H48.2624V13.6942H48.5206V14.4633H48.7789C48.8629 13.4418 49.043 13.2796 50.0578 13.1835V13.4419C50.4001 13.562 49.9617 13.2796 50.3159 13.1835C51.3427 13.0152 52.3636 12.841 53.3904 12.6728C53.1322 11.8737 53.2463 12.2822 53.3904 11.393C54.0149 11.2488 53.9548 11.1287 54.4172 10.8823V11.1407H54.6754C54.8795 11.5192 54.4172 11.6514 54.4172 11.6514L54.6754 12.1621C55.2638 11.6694 54.9997 11.393 55.9544 11.1347C56.0385 10.8763 56.1225 10.624 56.2126 10.3656C56.9452 10.666 57.4196 10.8523 58.5184 10.8763C58.7766 10.3656 59.0289 9.84891 59.2871 9.33821H59.7974L60.0557 9.8489L61.8511 9.33821V9.07982H63.6465L63.9046 8.56912H64.4151C64.5772 7.86615 64.7513 7.98631 64.9254 7.28935C65.2677 7.37346 65.6099 7.45754 65.9522 7.54766V7.28935C66.2344 7.06103 66.0063 7.33137 66.2105 7.03096H65.9522C65.7 6.60436 66.3185 6.8147 66.4626 6.77264V6.51425C66.7208 6.59837 66.973 6.68251 67.2312 6.77264C67.1472 6.94087 67.063 7.1151 66.9729 7.28333H67.2312C68.0359 6.35805 68.7384 7.28329 69.7953 7.54165C69.9694 7.20518 70.1134 7.26528 70.3056 7.03096L70.0474 6.52026H70.5579V6.26195L71.0682 6.00356C71.1042 5.64306 71.0142 6.04558 70.81 5.74516L71.0682 5.23447C71.9328 5.41472 72.0529 5.79326 72.8636 6.00356V5.23447C73.5661 5.3967 73.4461 5.57092 74.1426 5.74516V4.97615C74.4249 5.06027 74.647 5.43275 75.1694 5.23447V4.97615H75.938V4.71776C76.4484 4.29117 76.9649 3.86458 77.4753 3.43799V2.92729H77.9856V3.18561C78.3398 3.25771 77.9375 3.13158 78.2437 2.92729L78.7542 3.18561L78.496 3.9547C79.9251 4.06284 80.6516 4.41134 81.5703 3.444C81.066 3.1556 80.9699 3.08353 80.8017 2.4166L81.5703 2.15821C81.6544 2.32644 81.7386 2.50067 81.8287 2.6689H82.339V1.6415C82.8974 1.74965 83.0715 1.80972 83.3657 2.1522L84.903 1.6415L84.6448 1.13081H85.9237V0.620117L86.0498 0.680186ZM83.4918 4.52553V5.03622H83.7501V4.52553H83.4918ZM311.76 5.03622V5.54692H312.018V5.03622H311.76ZM84.2604 5.80531V6.316H84.5187V5.80531H84.2604ZM80.6757 6.316V6.82669H80.9338V6.316H80.6757ZM305.353 7.08508C305.647 7.37949 305.353 7.18718 305.863 7.3434C305.569 7.04899 305.863 7.2413 305.353 7.08508ZM285.117 7.3434C285.411 7.63781 285.117 7.44557 285.628 7.60179C285.333 7.30738 285.628 7.49962 285.117 7.3434ZM69.1467 8.11248C69.1707 8.98369 69.1468 9.04378 69.6572 9.39226V9.13387H69.3988V8.10647H69.1407L69.1467 8.11248ZM281.274 8.3708C281.568 8.66521 281.274 8.47297 281.785 8.62919C281.49 8.33478 281.785 8.52702 281.274 8.3708ZM253.346 8.62318V9.13387H253.605V8.62318H253.346ZM271.282 8.88157L271.024 9.39226C271.024 9.39226 271.769 8.98371 271.535 8.88157H271.276H271.282ZM297.667 8.88157H298.177C297.961 9.16997 298.207 8.91758 297.919 9.13988V9.39828C297.625 9.10387 297.817 9.39829 297.661 8.88758L297.667 8.88157ZM70.9361 9.13988C71.2303 9.43429 70.9361 9.24206 71.4465 9.39828C71.1523 9.10387 71.4465 9.2961 70.9361 9.13988ZM214.664 9.39226V9.90295H214.922V9.39226H214.664ZM73.7583 10.4197V10.6781H73.5001C73.0137 10.9004 74.0106 10.9364 74.0106 10.9364C74.2267 10.648 73.9805 10.9004 74.2687 10.6781C73.9745 10.3836 74.2687 10.5759 73.7583 10.4197ZM270.514 10.4197V10.6781H270.256C269.769 10.9004 270.766 10.9364 270.766 10.9364C270.982 10.648 270.736 10.9004 271.024 10.6781C270.73 10.3836 271.024 10.5759 270.514 10.4197ZM336.097 10.4197V10.6781H335.839C335.352 10.9004 336.349 10.9364 336.349 10.9364C336.565 10.648 336.319 10.9004 336.607 10.6781C336.313 10.3836 336.607 10.5759 336.097 10.4197ZM164.447 10.6781V11.1887H164.705V10.6781H164.447ZM101.17 10.9304V11.4411H101.428V10.9304H101.17ZM166.753 10.9304V11.4411H167.011V10.9304H166.753ZM214.148 10.9304C214.58 11.4831 214.658 11.4411 214.658 11.4411C214.844 11.1948 214.214 10.9904 214.148 10.9304ZM279.737 10.9304C280.169 11.4831 280.247 11.4411 280.247 11.4411C280.434 11.1948 279.803 10.9904 279.737 10.9304ZM297.925 10.9304V11.4411H298.183V10.9304H297.925ZM345.32 10.9304C345.752 11.4831 345.831 11.4411 345.831 11.4411C346.017 11.1948 345.386 10.9904 345.32 10.9304ZM64.0187 11.4471H63.5084V11.7055H63.7665V11.9638H64.0247V11.4531L64.0187 11.4471ZM67.3513 12.9852H67.8618C67.7777 12.6428 67.6935 12.3003 67.6035 11.9578H67.3453V12.9852H67.3513ZM264.107 12.9852H264.617L264.359 11.9578H264.101V12.9852H264.107ZM329.69 12.9852H330.2L329.942 11.9578H329.684V12.9852H329.69ZM64.5351 12.4685V13.4959H64.7933V12.4685H64.5351ZM130.118 12.4685V13.4959H130.376V12.4685H130.118ZM261.291 12.4685V13.4959H261.549V12.4685H261.291ZM299.204 12.9852V13.7543H299.462C299.721 13.2917 300.027 12.9912 300.489 12.7268V12.4685H299.979C299.69 12.9071 299.817 12.817 299.21 12.9792L299.204 12.9852ZM326.874 12.4685V13.4959H327.132V12.4685H326.874ZM180.077 12.7268V13.2376H180.335V12.7268H180.077ZM245.66 13.2376H246.171V12.9792C245.883 12.7629 246.135 13.0093 245.913 12.7209H245.654V13.2316L245.66 13.2376ZM102.449 12.9852V13.7543H102.707V12.9852H102.449ZM168.032 12.9852V13.7543H168.29V12.9852H168.032ZM280.247 14.0066C280.434 14.7156 280.319 14.5774 281.016 14.7757C281.178 14.0727 281.352 14.1929 281.526 13.4959H281.268C280.944 13.9826 281.01 13.9225 280.241 14.0066H280.247ZM282.553 13.4959V14.0066C283.226 13.9886 283.424 13.9045 283.832 13.7483V13.4899H282.553V13.4959ZM147.286 13.7543V14.5234H147.544V14.265C147.832 14.0487 147.58 14.295 147.802 14.0066L147.292 13.7483L147.286 13.7543ZM212.869 13.7543V14.5234H213.127V14.265C213.415 14.0487 213.163 14.295 213.385 14.0066L212.875 13.7483L212.869 13.7543ZM278.452 13.7543V14.5234H278.71V14.265C278.998 14.0487 278.746 14.295 278.968 14.0066L278.458 13.7483L278.452 13.7543ZM344.041 13.7543V14.5234H344.299V14.265C344.588 14.0487 344.335 14.295 344.557 14.0066L344.047 13.7483L344.041 13.7543ZM179.819 14.0066V14.5174H180.077V14.0066H179.819ZM298.694 14.0066C299.126 14.5594 299.204 14.5174 299.204 14.5174C299.39 14.271 298.76 14.0667 298.694 14.0066ZM163.168 14.5234V15.2924H162.658V15.8031L163.168 15.5448L163.426 14.7757C163.714 14.5594 163.462 14.8058 163.684 14.5174H163.174L163.168 14.5234ZM173.928 14.5234V15.0341H174.187V14.5234H173.928ZM239.512 14.5234V15.0341H239.77V14.5234H239.512ZM279.737 15.0341H278.968V15.5448H279.479C279.719 15.0821 279.833 15.1422 279.989 14.5174H279.731V15.0281L279.737 15.0341ZM305.095 14.5234V15.0341H305.353V14.5234H305.095ZM141.905 15.5448V15.0341C141.617 15.2504 141.869 15.004 141.647 15.2924H141.389C141.683 15.5868 141.389 15.3946 141.899 15.5508L141.905 15.5448ZM206.72 15.0341V15.8031H206.978C207.272 15.5087 206.978 15.701 207.489 15.5448V15.0341H206.72ZM243.096 15.5448V15.0341H242.328V15.2924H242.586C242.88 15.5868 242.586 15.3946 243.096 15.5508V15.5448ZM273.072 15.5448V15.0341C272.784 15.2504 273.036 15.004 272.814 15.2924H272.555C272.85 15.5868 272.555 15.3946 273.066 15.5508L273.072 15.5448ZM293.314 15.0341V15.5448C293.602 15.3285 293.35 15.5748 293.572 15.2864H293.83C293.536 14.992 293.83 15.1843 293.32 15.0281L293.314 15.0341ZM329.69 15.2924V15.8031H329.948V15.2924H329.69ZM160.094 16.3139H160.604C160.388 16.0255 160.634 16.2778 160.346 16.0555V15.5448H160.088V16.3139H160.094ZM87.8452 15.8031V16.3139H88.1035V15.8031H87.8452ZM153.435 15.8031V16.5722H153.693V15.8031H153.435ZM284.601 15.8031V16.3139H284.859V15.8031H284.601ZM334.56 15.8031C334.854 16.0975 334.662 15.8032 334.818 16.3139H334.56V15.8031ZM350.19 15.8031V16.3139H350.448V15.8031H350.19ZM51.9793 16.0615V16.5722H52.2376V16.0615H51.9793ZM117.562 16.0615V16.5722H117.821V16.0615H117.562ZM248.735 16.0615V16.5722H248.993V16.0615H248.735ZM314.318 16.0615V16.5722H314.576V16.0615H314.318ZM133.451 16.3139C133.475 16.3679 133.817 17.2451 133.961 17.0829V16.8246H134.22C133.997 16.5602 133.775 16.4701 133.451 16.3139ZM199.544 17.5997H200.055V17.0889H199.544L199.803 16.5782C199.544 16.4941 199.292 16.41 199.034 16.3199V16.5782C199.382 16.8786 199.424 17.0468 199.544 17.6056V17.5997ZM131.914 16.5722L132.172 17.3413H132.43C132.274 16.7284 132.346 16.8666 131.92 16.5722H131.914ZM197.497 16.5722C197.581 16.8305 197.665 17.0829 197.755 17.3413H198.013C197.857 16.7284 197.929 16.8666 197.503 16.5722H197.497ZM202.367 16.5722H201.856C202.072 16.8606 201.826 16.6083 202.114 16.8306V17.0889H202.373V16.5782L202.367 16.5722ZM303.563 17.5997H304.074V17.0889H304.332C304.248 16.9207 304.164 16.7464 304.074 16.5782C303.786 16.7945 304.038 16.5482 303.816 16.8366H303.557V17.6056L303.563 17.5997ZM89.6406 16.8306C89.9348 17.125 89.6407 16.9327 90.1511 17.0889C89.8568 16.7945 90.151 16.9868 89.6406 16.8306ZM133.193 16.8306V17.5997H133.451V16.8306H133.193ZM198.776 16.8306V17.5997H199.034V16.8306H198.776ZM203.646 16.8306H203.135C203.351 17.119 203.105 16.8666 203.393 17.0889V17.3473H203.652V16.8366L203.646 16.8306ZM233.363 16.8306V17.5997H233.621V16.8306H233.363ZM298.952 16.8306V17.5997H299.21V16.8306H298.952ZM39.6817 17.0829V17.5936H39.94V17.0829H39.6817ZM51.7211 17.0829V17.5936H51.9793V17.0829H51.7211ZM117.31 17.0829V17.5936H117.568V17.0829H117.31ZM134.472 17.5997V17.0889C134.183 17.3052 134.436 17.0589 134.214 17.3473H133.955C134.249 17.6417 133.955 17.4494 134.466 17.6056L134.472 17.5997ZM182.893 17.0829V17.5936H183.152V17.0829H182.893ZM202.619 17.0829V18.621H202.877V17.0829H202.619ZM235.41 17.0829V17.5936H235.669V17.0829H235.41ZM236.437 17.0829V17.5936H236.695V17.0829H236.437ZM248.477 17.0829V17.5936H248.735V17.0829H248.477ZM301 17.0829V17.5936H301.258V17.0829H301ZM302.026 17.0829V17.5936H302.285V17.0829H302.026ZM314.066 17.0829V17.5936H314.324V17.0829H314.066ZM45.3202 17.3413C45.6144 17.6357 45.3201 17.4434 45.8305 17.5997C45.5362 17.3052 45.8306 17.4975 45.3202 17.3413ZM110.903 17.3413C111.198 17.6357 110.903 17.4434 111.414 17.5997C111.119 17.3052 111.414 17.4975 110.903 17.3413ZM307.659 17.3413C307.953 17.6357 307.659 17.4434 308.169 17.5997C307.875 17.3052 308.169 17.4975 307.659 17.3413ZM129.091 17.852L129.35 18.621H129.608C129.452 18.0082 129.524 18.1464 129.098 17.852H129.091ZM194.681 17.852C194.765 18.1103 194.849 18.3627 194.939 18.621H195.197C195.041 18.0082 195.113 18.1464 194.687 17.852H194.681ZM211.332 18.1104V18.621H211.59V18.1104H211.332ZM49.4152 19.3901C49.2291 18.6811 49.3433 18.8193 48.6468 18.621C48.7308 18.9635 48.8149 19.306 48.9049 19.6484H49.6736V19.9068C50.0338 19.9549 49.5774 19.7266 49.9317 19.6484H50.9585V18.621C50.6703 18.4047 50.9225 18.6511 50.7003 18.3627H50.1899V18.621H50.4482C50.5322 19.0837 49.8116 19.294 49.4213 19.3901H49.4152ZM82.7233 18.3687L82.465 18.8794C82.465 18.8794 83.2097 18.4708 82.9755 18.3687H82.7173H82.7233ZM279.479 18.3687L279.221 18.8794C279.221 18.8794 279.965 18.4708 279.731 18.3687H279.473H279.479ZM38.9131 19.6484H39.4235V19.3901C39.1353 19.1738 39.3875 19.4201 39.1654 19.1317H38.907V19.6424L38.9131 19.6484ZM47.8782 19.1378V19.6484C48.1664 19.4321 47.9141 19.6785 48.1363 19.3901H48.3945C48.1002 19.0957 48.3946 19.288 47.8842 19.1317L47.8782 19.1378ZM104.496 19.6484H105.007V19.3901C104.718 19.1738 104.971 19.4201 104.748 19.1317H104.49V19.6424L104.496 19.6484ZM113.467 19.1378V19.6484C113.756 19.4321 113.503 19.6785 113.725 19.3901H113.984C113.689 19.0957 113.984 19.288 113.473 19.1317L113.467 19.1378ZM179.05 19.1378V19.6484C179.339 19.4321 179.086 19.6785 179.309 19.3901H179.567C179.273 19.0957 179.567 19.288 179.056 19.1317L179.05 19.1378ZM301.258 19.6484H301.768V19.3901C301.48 19.1738 301.732 19.4201 301.51 19.1317H301.252V19.6424L301.258 19.6484ZM310.223 19.1378V19.6484C310.511 19.4321 310.259 19.6785 310.481 19.3901H310.739C310.445 19.0957 310.739 19.288 310.229 19.1317L310.223 19.1378ZM43.7829 20.6759V20.1652L43.0143 20.4235L43.2725 21.4509H43.0143V21.7093C42.4138 21.7934 41.8194 21.8775 41.2189 21.9676V22.4784C41.5552 22.5265 42.8101 22.7908 43.0143 22.7367L43.2725 22.226L44.0411 22.4844C44.1251 22.0578 44.2093 21.6312 44.2994 21.2047H44.5576C44.8518 20.9102 44.5575 21.1025 45.0679 20.9463V21.457H46.3469V20.9463H46.8572C46.6891 20.4356 46.5151 19.9188 46.3469 19.4081H46.0888L45.8305 20.1772C45.4642 20.4355 44.3534 20.6398 43.7829 20.6879V20.6759ZM72.7315 19.3901V20.1591H72.9896V19.3901H72.7315ZM38.4027 19.9068V20.4175H38.6609V19.9068H38.4027ZM78.37 19.9068V20.4175H78.6281V19.9068H78.37ZM103.986 19.9068V20.4175H104.244V19.9068H103.986ZM169.569 19.9068V20.4175H169.827V19.9068H169.569ZM245.66 19.9068C245.955 20.2012 245.66 20.0089 246.171 20.1652C245.877 19.8707 246.171 20.0631 245.66 19.9068ZM275.125 19.9068V20.4175H275.384V19.9068H275.125ZM300.741 19.9068V20.4175H301V19.9068H300.741ZM67.8618 20.1591C68.156 20.4535 67.9638 20.1592 68.1199 20.6699H67.8618V20.1591ZM133.193 20.4175C133.481 20.8561 133.355 20.766 133.961 20.9282C133.739 20.6639 133.517 20.5737 133.193 20.4175ZM162.399 20.9282H162.91V20.6699C162.622 20.4536 162.874 20.6999 162.652 20.4115H162.393V20.9222L162.399 20.9282ZM67.3513 20.6759H67.8618V20.9342C67.3454 20.79 67.6395 20.9643 67.3513 20.6759ZM138.831 20.6759C139.125 20.9703 138.933 20.6759 139.089 21.1866H138.831V20.6759ZM207.747 21.6973H207.236V20.6699H206.978V20.9282C206.684 21.2226 206.876 20.9282 206.72 21.4389C206.978 21.6071 207.23 21.7814 207.489 21.9497C207.705 22.2381 207.459 21.9857 207.747 22.208V21.6973ZM136.525 20.9282V21.4389H136.783V20.9282H136.525ZM52.4897 21.4449V21.9557H52.7479V21.4449H52.4897ZM118.079 21.4449V21.9557H118.337V21.4449H118.079ZM174.697 21.6973C174.991 21.9917 174.697 21.7995 175.207 21.9557C174.913 21.6613 175.207 21.8535 174.697 21.6973ZM83.7441 22.4664V21.9557C83.4559 22.172 83.708 21.9256 83.4858 22.214H83.2276C83.5219 22.5084 83.2277 22.3162 83.7381 22.4724L83.7441 22.4664ZM214.916 22.4664V21.9557C214.628 22.172 214.88 21.9256 214.658 22.214H214.4C214.694 22.5084 214.4 22.3162 214.91 22.4724L214.916 22.4664ZM60.9444 22.9831V23.4938H61.2025V22.9831H60.9444ZM66.0722 22.9831V23.4938H66.3305V22.9831H66.0722ZM46.8572 23.2355V23.7462H47.1156V23.2355H46.8572ZM67.3513 23.7522C67.3393 24.7916 67.2313 24.8577 67.8618 25.2903V25.032C67.4294 24.4792 68.0598 23.7942 68.3721 23.2355H68.1139C67.8257 23.6741 67.9518 23.5839 67.3453 23.7462L67.3513 23.7522ZM71.9629 23.2355C72.2571 23.5299 71.9629 23.3376 72.4733 23.4938C72.1791 23.1994 72.4733 23.3917 71.9629 23.2355ZM85.2813 23.2355C85.1973 23.4938 85.1131 23.7461 85.023 24.0045H85.2813V23.7462C85.3894 23.596 85.7016 23.7101 85.5395 23.2355H85.2813ZM112.441 23.2355V23.7462H112.699V23.2355H112.441ZM198.524 23.7522C198.512 24.7916 198.404 24.8577 199.034 25.2903V25.032C198.602 24.4792 199.232 23.7942 199.544 23.2355H199.286C198.998 23.6741 199.124 23.5839 198.518 23.7462L198.524 23.7522ZM203.135 23.2355C203.429 23.5299 203.135 23.3376 203.646 23.4938C203.351 23.1994 203.646 23.3917 203.135 23.2355ZM88.6138 23.4938V24.0045H88.8721V23.4938H88.6138ZM117.31 24.0045H117.821V23.7462C117.532 23.5299 117.785 23.7762 117.562 23.4878H117.304V23.9985L117.31 24.0045ZM154.203 23.4938V24.0045H154.461V23.4938H154.203ZM177.003 23.4938C177.297 23.7882 177.105 23.4938 177.261 24.0045H177.003V23.4938ZM120.637 23.7522C120.553 23.9204 120.469 24.0946 120.379 24.2629L120.889 24.5212C121.075 24.2148 120.349 24.2989 120.889 23.7522H120.631H120.637ZM89.1243 24.0045L88.8661 24.7736H89.1243V24.2629H89.3824V24.0045H89.1243ZM154.713 24.0045L154.455 24.5152C154.455 24.5152 155.2 24.1066 154.966 24.0045H154.707H154.713ZM20.2085 25.032H20.719V24.7736C20.4308 24.5573 20.6829 24.8036 20.4607 24.5152H20.2025V25.0259L20.2085 25.032ZM164.447 25.032H163.937C164.153 25.3204 163.907 25.068 164.195 25.2903V25.5487H164.453V25.038L164.447 25.032ZM28.9213 25.5426V26.0533H29.1795V25.5426H28.9213ZM65.8141 25.5426V26.57H66.0722V26.3117H66.3305C66.2465 26.1435 66.1623 25.9692 66.0722 25.801H66.3305C66.0363 25.5066 66.3305 25.6989 65.8201 25.5426H65.8141ZM160.094 25.5426V26.0533H160.352V25.5426H160.094ZM198.776 25.5426C198.482 25.8371 198.776 25.6447 198.265 25.801V26.0594H198.776C198.86 25.8911 198.944 25.7169 199.034 25.5487H198.776V25.5426ZM79.3907 26.3117L79.1324 26.8224C79.1324 26.8224 79.8771 26.4139 79.6429 26.3117H79.3847H79.3907ZM69.6572 26.8284V27.3391H69.9153V26.8284H69.6572ZM75.2955 26.8284V27.3391H75.5536V26.8284H75.2955ZM63.2501 27.3391H63.7605C63.5504 27.6756 63.5803 27.6395 63.2501 27.8498V28.1082H62.9919L63.2501 27.3391ZM72.2212 27.3391L71.9629 27.8498C71.9629 27.8498 72.7075 27.4413 72.4733 27.3391H72.2152H72.2212ZM52.4897 28.3665V28.8772H52.7479V28.3665H52.4897ZM32.7643 29.6463V30.157H33.0226V29.6463H32.7643ZM38.4027 29.9047V30.6737H39.4295V31.1845H40.1981C40.4083 30.848 40.3782 30.884 40.7085 30.6737V29.9047C39.6396 30.091 39.6337 29.9708 38.4027 29.9047ZM17.6505 30.4154C17.9448 30.7098 17.6506 30.5175 18.161 30.6737C17.8668 30.3793 18.1609 30.5716 17.6505 30.4154ZM70.6839 30.6737V31.1845H70.9421V30.6737H70.6839ZM7.14233 34.7714C7.05827 35.0298 6.97424 35.2822 6.88417 35.5405H7.14233V35.0297H7.40049V34.7714H7.14233ZM40.1921 35.0297V35.5405H40.4503V35.0297H40.1921Z" fill="#FDE6AD"/>
</svg>
