<svg width="334" height="249" fill="none" xmlns="http://www.w3.org/2000/svg"><path d="M66.927 235.676c1.908 2.177 5.931 4.032 7.66 6.596 2.333 3.491 3.777 8.142-3.934 6.081-7.71-2.062-13.771-8.902-14.584-11.865-.786-2.899 2.373-2.68 2.927-3.904 2.438 1.572 5.145 2.744 7.944 3.092h-.013Z" fill="#003F67"/><path d="M62.12 217.434s8.394 2.177 8.278 3.607c-.129 1.417-4.28 8.67-4.513 12.136-.065.914.361 1.726 1.044 2.499-2.785-.348-5.506-1.52-7.943-3.092 0-.026.026-.052.039-.077.451-1.314 1.754-13.347 3.095-15.073Zm35.326 16.709c2.669 1.133 7.092 1.056 9.761 2.628 3.623 2.138 6.937 5.694-.903 7.188-7.84 1.495-16.273-2.061-18.285-4.38-1.972-2.267.968-3.44.942-4.779 2.875.36 5.828.244 8.497-.657h-.012Z" fill="#003F67"/><path d="M85.201 219.791s8.51-1.675 9.014-.335c.503 1.34-.103 9.675 1.199 12.896.348.85 1.07 1.404 2.024 1.804-2.656.901-5.622 1.017-8.497.657v-.091c-.155-1.378-4.204-12.78-3.753-14.931h.013Z" fill="#003F67"/><path d="M55.468 108.225c-1.676.36-5.635 9.198-5.029 24.516.245 6.158 1.986 16.593 2.476 19.35 1.677 9.469.864 81.858 1.457 82.039 6.486 1.984 11.85 1.494 15.19 1.687 3.34.194 3.52-53.206 3.882-59.557.27-4.625.257-29.992 3.172-30.275 2.282-.219 3.907 35.75 4.384 42.23.49 6.712 3.391 43.312 3.572 45.077.245 2.435 14.326 2.822 14.842.426 1.702-7.808.283-51.519-.684-63.127-.773-9.34-.928-61.194-3.61-60.872-1.38.167-39.665-1.494-39.665-1.494h.013Z" fill="#A2A2A2"/><path d="M81.046 33.026c-.336 0-5.726.051-6.138 0-.168.695-.477 3.491-.813 4.367-.838 2.255-2.617 4.896-4.087 6.738-3.74 5.063 17.408 3.8 15.345 1.443-1.909-2.139-3.624-5.54-4.268-8.915-.245-1.237-.04-3.195-.04-3.659v.026Z" fill="#FFDBB0"/><path d="M69.933 31.545c1.56 3.917 4.552 6.197 7.285 6.622 2.734.425 5.416-.052 8.008-1.224 2.115-1.314 3.894-3.543 4.358-4.547.426-.928.671-2.062.71-3.17.09-2.602 1.856-2.28.838-7.717-.31-1.649-2.605-9.366-9.903-10.912-6.422-1.352-14.558 12.755-11.296 20.948Z" fill="#FFDBB0"/><path d="M83.572 19.358c2.605-3.556 7.286 6.44 8.24 4.148 2.54-6.107-4.436-12.432-7.311-13.67-3.056-1.313-5.816-1.957-10.058-.927-3.74.915-3.559 2.255-5.08 3.44-3.92 3.053-5.21 7.292-5.378 11.26-.077 1.816 1.406 6.467 3.147 8.657.67.838 3.52 2.796 5.17 3.62 1.303.657.09-5.192-1.547-6.377-2.244-2.602-1.676-3.504-1.07-4.393.606-.902 2.347-1.34 2.733-.412 1.935 4.573.942.116 2.257-.721 3.559-2.28 1.612 2.267 8.885-4.638l.012.013Z" fill="#003F67"/><path d="M71.543 14.333c-.773-1.262-1.87-3.865-2.927-4.921S66.412 7.209 64.813 6.9c-2.502-.477-3.792-.322-5.068.464-1.135.695-2.773 3.955-2.747 6.21-.31 2.962-2.308 3.864-3.649 4.482-1.908.877-5.248.361-4.848 1.765 1.16 4.11 3.455 4.728 5.88 4.33 7.801-1.302 3.455-8.478 8.214-9.496 4.77-1.03 5.157-.36 8.936-.322h.012Z" fill="#003F67"/><path d="M102.76 43.99c3.559-1.61 12.573-9.43 15.796-12.819 6.448-6.776 9.272-13.656 10.033-14.39 1.16-1.147 4.074-4.47 5.944-6.609.761-.863 1.006-2.628 1.38-6.12.167-1.545-1.844.09-2.424-1.648-.98-2.912-2.205-1.224-2.992-1.74-1.354-.889-1.715-1.16-2.54.838-.826 1.997-1.122 3.375-1.29 4.354-.155.98-.722 2.384-1.56.773-.838-1.61-1.393-2.448-2.643-2.692-1.251-.245-1.715.605-.478 2.435.968 2.434.568 5.887.774 7.369.09.644-4.887 7.214-8.278 10.847-1.78 1.907-15.538 11.195-16.802 11.943-5.17 3.066 1.599 9.03 5.093 7.446l-.013.013ZM50.59 68.454c-2.45 3.04-11.72 6.545-17.085 9.083-8.459 4.006-15.55 5.552-16.467 6.093-1.392.838-5.35 2.822-7.891 4.084-1.032.516-2.798.31-6.267-.193-1.534-.232.542-1.765-.98-2.757-2.579-1.675-.632-2.435-.928-3.324-.516-1.533-.697-1.945 1.444-2.242 2.14-.296 3.546-.244 4.539-.154.993.09 2.489-.103 1.135-1.314-1.354-1.211-2.012-1.958-1.947-3.234.077-1.275 1.005-1.507 2.475.142 2.115 1.546 5.558 2.023 6.95 2.602.594.245 8.214-2.924 12.586-5.295 2.295-1.236 15.886-10.138 16.918-11.17 4.255-4.225 7.917 4.703 5.519 7.666v.013Z" fill="#FFDBB0"/><path d="M95.066 35.951c-3.649 2.706-9.929 7.343-10.522 6.055-.812-1.765.361-2.074-4.268-2.396-3.443-.245-5.21-.232-6.563-.193-2.424.051-3.198 1.25-4.127 1.468-3.043.722-3.314 1.907-9.903 5.54-4.603 2.538-8.678 6.313-13.165 9.495-4.1 2.911-3.443 3.465 0 10.435 2.772 5.617 4.539 5.63 6.68 5.153 3.274-.734-.994 10.474-.994 20.42 0 4.586-.76 14.3-.877 22.558-.051 3.491 15.706 3.311 18.698 2.898 2.514-.348 12.907-.824 16.35.194 2.36.695 12.56.399 12.702-3.479.412-10.474-2.773-15.743-2.773-20.896 0-5.282-.425-25.74 1.212-34.745 1.6-8.748 7.144-11.105 10.058-14.184 2.489-2.629.4-3.028-2.966-7.408-4.061-5.27-4.177-4.857-9.542-.89v-.025Z" fill="#6B6B6B"/><path d="M89.273 48.976c-7.724.554-15.06.27-18.246.27-4.513 0-6.434-2.125-6.963 3.711-.529 5.836-3.185 18.822-9.026 27.041-5.841 8.22-5.57 8.748-5.57 15.383 0 6.634-3.547 40.684-4.101 49.406-.8 12.458-.232 13.128 5.609 13.128s22.385.566 33.797.038c11.412-.528 21.857.116 21.057-6.789-.799-6.905-3.52-16.039-3.778-25.058-.193-6.634-2.785-35.286-4.539-41.341-2.386-8.22-4.771-21.218-4.771-28.368 0-7.15.27-7.691-3.456-7.42h-.013Z" fill="#E2C2BC"/><path d="M90.159 42.238c1.16 3.723 2.166 6.647 2.205 9.842.026 1.817-.387 3.067-2.36 2.95-1.973-.115-2.863-.012-2.901-2.28-.039-2.254-2.244-9.224-2.166-10.422.064-1.185 1.65-2.126 3.262-1.997 1.019.077 1.534.503 1.973 1.894l-.013.013Zm-20.517-.76c0-1.726-5.467.451-5.467 2.706 0 2.254-.117 4.38.025 6.905.13 2.525.787 1.984 2.786 1.855 1.057-.065 2.346.348 2.45-3.118.129-4.045.193-7.949.193-8.348h.013Z" fill="#E2C2BC"/><path d="M52.775 112.837h11.94c1.07 0 1.819-.245 2.296-.735.58-.605.619-1.481.606-2.074-.026-.914 0-5.411.026-9.031.013-2.061.025-3.929.025-4.882a.369.369 0 0 0-.36-.361.369.369 0 0 0-.362.36c0 .954 0 2.822-.025 4.883-.026 3.814-.052 8.129-.026 9.057.026.747-.103 1.25-.4 1.559-.335.348-.915.515-1.78.515h-11.94a.37.37 0 0 0-.36.361.37.37 0 0 0 .36.361v-.013Zm-1.395-1.444a.369.369 0 0 0 .361-.361v-1.868c-.025-3.195-.064-9.146 0-10.847a.369.369 0 0 0-.348-.374.388.388 0 0 0-.374.348c-.077 1.714-.038 7.678 0 10.886v1.868c0 .194.168.361.361.361v-.013Zm44.294 1.508c1.418 0 2.901-.025 3.533-.051.193 0 .348-.18.348-.374a.354.354 0 0 0-.374-.348c-1.29.052-4.655.104-6.086 0-1.328-.09-1.805-.566-1.805-1.829 0-2.834 0-12.239.051-14.261a.378.378 0 0 0-.348-.374.37.37 0 0 0-.374.348c-.052 1.984-.052 10.641-.052 14.274 0 1.649.761 2.435 2.476 2.551.645.039 1.612.064 2.618.064h.013Z" fill="#003F67"/><path d="M229.249 172.043a.993.993 0 0 1-.993-.889c-.361-3.298-1.805-6.596-3.611-10.77-.864-1.997-1.856-4.265-2.836-6.815a1.002 1.002 0 0 1 .567-1.302 1.004 1.004 0 0 1 1.302.567c.98 2.512 1.947 4.754 2.811 6.738 1.883 4.329 3.379 7.756 3.766 11.35a1.002 1.002 0 0 1-.89 1.108h-.116v.013Z" fill="#F2A096"/><path d="M195.849 202.988c-3.482-1.495-7.556 2.654-8.201 4.651-1.135 3.53-1.586 7.472-2.012 9.314-.683 2.886.22 8.013.452 11.608.116 1.958.245 6.119-1.122 7.433-.129.129-.284.696.322.979.593.271 7.402 1.198 7.337.077-.025-.463.245-.979.465-1.43.812-1.661 2.707-3.955 2.862-8.051.155-4.11.181-3.492.194-7.189.012-3.697 1.766-8.503 2.824-11.479 1.431-4.006.477-4.38-3.121-5.926v.013Zm29.568 33.392c-.477-.593-.76-1.198-.722-2.01.116-1.842.942-4.792-.399-8.374-1.342-3.581-1.097-3.066-2.425-6.222-1.315-3.156-1.547-6.777-1.083-9.933.967-6.609-5.184-9.147-8.975-9.018-5.441.18-4.539 11.131-2.811 14.017 1.741 2.885 2.798 6.274 3.082 8.064.439 2.822 2.837 8.014 3.778 9.482 1.019 1.585 2.657 4.638 1.625 6.609a4.322 4.322 0 0 1-.554.825c3.185 1.095 6.576-.541 8.484-3.44Zm-34.842-104.236c-.787-1.675-9.633-11.595-9.594-12.419.039-.825.116-3.93-.425-4.999-.955-1.855-2.115.515-2.953.077-.838-.425-2.179-2.177-3.134-2.576-.954-.4-1.16.902-1.689 1.662-.529.76-1.792-.876-2.282 0-.336.592.193 2.138-.787 2.499-.98.361-1.096.696-.67 1.688.425.992 1.005 1.352.786 2.241-.219.889.013 1.057.658 1.611s2.863.992 4.745 1.52c1.87.528 5.339 9.649 9.155 14.455 1.251 1.571 7.827-2.319 6.203-5.772l-.013.013Zm37.044-1.932c.864-1.623 5.623-6.338 5.623-7.163 0-.824.09-3.929.696-4.96 1.044-1.803 2.089.619 2.953.232.864-.386 2.295-2.061 3.262-2.409.98-.348 1.109.966 1.599 1.752.477.786 1.831-.773 2.27.116.296.618-.31 2.126.657 2.538.967.412 1.058.76.58 1.726-.477.966-1.07 1.289-.902 2.19.18.902-.065 1.057-.735 1.572-.671.515-2.914.837-4.81 1.263-1.895.425-2.592 5.655-6.667 10.254-1.341 1.508-6.331-3.749-4.526-7.111Z" fill="#FFDBB0"/><path d="M188.566 179.914c2.076-1.468 11.915-1.649 16.608-1.906 9.001-.503 11.76-1.946 14.584 3.079 4.81 8.541 2.747 10.873 3.727 13.81 1.792 5.308 2.992 10.539-.168 11.75-3.017 1.159-11.179.824-15.409 1.043-4.345.232-3.249-6.171-4.088-5.913-1.121.348-.954 2.087-.863 5.05.077 2.461-4.694 1.043-11.593-.245-8.73-1.636-6.202-2.409-5.622-12.11.503-8.258.284-11.672 2.811-14.558h.013Z" fill="#A2A2A2"/><path d="M224.218 152.048c1.741-3.337 12.302-15.369 14.056-18.397 1.147-1.997-4.617-4.509-7.969-6.854-3.598-2.512-8.949 6.996-12.637 10.616-2.489 2.435-9.852 1.855-12.521 1.765-1.986-.065-3.069-.734-5.957-1.662-2.115-.683-6.1-8.219-10.136-12.587-1.65-1.79-3.739-2.744-9.09.889-1.509 1.031-5.829 3.543-4.062 5.965 1.225 1.662 12.495 17.031 12.263 21.025-.181 3.092-5.803 23.834-6.435 29.309-1.109 9.495 6.048 10.074 16.299 8.889 8.111-.94 34.61 5.862 32.353-2.151-1.38-4.896-7.543-34.089-6.138-36.794l-.026-.013Z" fill="#E2C2BC"/><path d="M201.229 148.016c-.439.323-1.006.812-.658 1.611.348.799.761 1.198 1.238 1.146.915-.103 1.018-.257 1.431-.889.413-.644.258-1.069-.322-1.661-.581-.593-1.045-.477-1.702-.207h.013Zm-1.049 12.097c-.439.322-1.006.812-.658 1.61.348.799.761 1.199 1.238 1.147.915-.103 1.019-.258 1.431-.889.413-.644.258-1.069-.322-1.662-.58-.592-1.045-.476-1.702-.206h.013Zm-1.12 12.098c-.439.322-1.006.811-.658 1.61s.761 1.198 1.238 1.147c.915-.103 1.019-.258 1.431-.889.413-.644.258-1.069-.322-1.662-.58-.593-1.045-.477-1.702-.206h.013Z" fill="#fff"/><path d="M211.617 153.143c-1.186.67-1.469 2.513-.786 4.6.683 2.1 2.089 3.13 3.933 3.182 1.663.051 3.185-.825 4.023-2.551.696-1.404.658-3.646-.696-5.205-.284-.322-1.277.786-1.638.851-.335.064-1.07-1.456-1.534-1.469-.503-.013-1.251 1.623-1.664 1.662-.387.038-1.328-1.237-1.625-1.057l-.013-.013Z" fill="#F2A096"/><path d="M215.626 155.386c1.329.025 1.509-.039 1.522 1.365 0 .941.258 1.649-.825 1.752-1.083.103-1.715.09-2.682.065-.967-.026-1.135-.116-1.212-1.082-.039-.503 0-1.65.283-1.881.387-.335 1.96-.232 2.902-.207l.012-.012Zm-19.092-17.367c-.567 1.739.155 4.097 1.638 4.87 1.573.811 3.623.734 4.9-.451.696-.644 1.392-2.126 1.715-.335.309 1.765 1.702 3.156 4.01 3.517 2.05.335 5.029-1.945 5.171-4.174.129-2.177.283-3.002-2.27-2.5-2.463.49-5.145 1.16-6.46.773-1.857-.541-3.675-1.004-5.145-2.215-1.895-1.572-2.914-1.456-3.546.502l-.013.013Z" fill="#fff"/><path d="M212.3 139.126c-3.443 2.049-7.105 2.036-9.529.786-2.424-1.249-4.32-3.156-5.725-5.527-.967-2.203-1.148-4.895-.954-5.913.167-.94.606-1.932 1.199-2.795 1.379-2.01-.207-2.783 3.649-6.274 1.173-1.057 7.311-5.54 14.029-2.5 5.906 2.68 4.539 17.933-2.669 22.21v.013Z" fill="#FFDBB0"/><path d="M200.224 116.556c.645-.851 3.237-2.332 5.661-2.113 3.005.27 3.907-1.508 6.873-.619 4.126 1.237 7.337 3.994 8.24 5.437 1.934 3.105 1.418 5.037 1.715 7.008.528 3.582-.206 10.332-6.912 11.479-1.276.219-3.378 1.688-3.262 1.005.387-1.804 1.805-3.079 3.082-3.929 1.315-.876 1.379-3.646-.568-3.35-1.612.232-1.766-.683-1.934-3.955-.206-3.994-17.227-2.048-12.895-10.951v-.012Z" fill="#003F67"/><path d="M224.295 128.756c3.392-5.011 1.2-12.432-4.9-16.555-6.099-4.122-13.81-3.414-17.201 1.611-.052.077-.103.167-.155.245l21.986 15.073c.09-.129.18-.245.27-.374Z" fill="#F2A096"/><path d="M226.837 131.861c-1.147 1.7-8.459-1.237-16.324-6.558-7.866-5.32-13.308-11.002-12.16-12.702 1.148-1.701 8.459 1.236 16.325 6.557 7.865 5.321 13.307 11.002 12.159 12.703Zm-6.671-18.938c-.283.412-.889.477-1.379.155-.477-.323-.645-.928-.361-1.34.283-.413.889-.477 1.379-.155.477.322.645.928.361 1.34Z" fill="#F2A096"/><path d="M212.501 122.456c-.207-.142-.4-.271-.593-.412-2.567-1.804-6.19-4.896-7.789-6.919-.077-.103-.064-.231.026-.283.09-.064.232-.026.309.077 1.574 1.984 5.145 5.025 7.673 6.803 3.056 2.151 7.556 4.534 10.225 5.436.116.039.207.168.181.271-.026.103-.142.167-.258.129-2.592-.864-6.68-3.002-9.774-5.089v-.013Zm-3.858-5.617s-.013 0-.026-.013c-.103-.077-.116-.219-.051-.296.632-.696 2.604-2.1 3.997-2.744 1.315-.605 3.533-1.185 5.235-1.146a.25.25 0 0 1 .245.219c.013.115-.064.206-.193.206-1.638-.039-3.791.528-5.055 1.108-1.328.605-3.288 1.996-3.881 2.666-.065.078-.194.078-.297.013l.026-.013Zm10.425 7.047c-.103-.064-.142-.18-.09-.27.387-.812.954-3.131 1.031-4.6.065-1.391-.193-3.594-.851-5.101-.051-.116 0-.232.116-.258a.27.27 0 0 1 .297.155c.67 1.571.954 3.852.877 5.282-.078 1.533-.645 3.877-1.058 4.728-.051.103-.18.128-.296.064 0 0-.013 0-.026-.013v.013Z" fill="#003F67"/><path d="M186.528 231.923c2.373.425 6.035 1.121 7.505 1.069 1.47-.051.194 1.315-.593 2.487-.632.928-.49 1.25-.348 2.486.142 1.237-2.308 1.379-5.158 1.327-2.85-.051-5.442-1.455-4.487-2.177.941-.721 1.573-1.108 2.089-2.68.541-1.636-.31-2.744 1.005-2.512h-.013Z" fill="#E2C2BC"/><path d="M184.679 235.93c-1.986 1.417-2.837.567-4.165 2.306-2.721 3.581.399 6.145 4.474 6.377 2.85.154 9.839-1.018 8.756-4.277-.452-1.366-.49-3.569-.929-3.35-1.65.657-4.397 1.031-6.06.477-1.315-.438-1.702-1.83-2.063-1.533h-.013Z" fill="#003F67"/><path d="M217.358 233.971c2.334-.567 5.519-1.199 6.834-1.83 1.316-.631.852-.296.839 1.894 0 .618.129 1.778.748 2.86.631 1.082-1.561 2.19-4.191 3.285-2.631 1.095-5.571.85-4.991-.193.581-1.044.993-1.636.839-3.298-.168-1.714-1.393-2.383-.091-2.706l.013-.012Z" fill="#E2C2BC"/><path d="M225.674 236.226c-.245-.399-2.798 3.968-6.654 4.303-1.998.167-2.218-1.018-2.385-.825-.774.889-1.29 1.263-1.986 3.479-1.367 4.432 2.566 5.024 6.215 3.066 2.553-1.366 8.24-6.042 6.112-8.245-.606-.631-.967-1.237-1.302-1.778Z" fill="#003F67"/><path d="M212.922 187.309c-.193-4.355-1.096-10.191.336-12.973.877-1.688 3.997-3.44 6.228-4.149 6.241-1.996 8.124-1.752 10.432-1.301 1.225.232 4.513 1.057 5.041 3.157.71 2.769.452 4.869.465 5.9 0 2.074.09 3.517.154 6.145.026 1.069-.219 2.422-2.759 4.29-1.947 1.43-7.724 4.045-11.386 4.084-1.973.026-4.758.142-6.138-.386-1.754-.683-2.295-2.912-2.385-4.767h.012Z" fill="#F2A096"/><path d="M220.831 176.436c-1.947 0-4.435-.386-5.815-.876a.379.379 0 0 1-.232-.477c.077-.193.296-.296.477-.231 1.779.631 5.609 1.082 7.234.682 1.728-.425 6.989-2.538 9.091-3.736a.378.378 0 0 1 .374.657c-2.192 1.25-7.492 3.376-9.285 3.814-.477.116-1.121.167-1.844.167Zm.845 14.171a.38.38 0 0 1-.373-.361l-.284-5.952c-.116-2.383-.219-4.754-.271-5.784 0-.206.142-.387.361-.4.258 0 .387.155.4.361.051 1.031.167 3.401.271 5.797.116 2.422.219 4.857.283 5.939 0 .207-.142.387-.361.4h-.026Z" fill="#003F67"/><path d="M221.293 182.491h-.168c-1.315-.052-5.325-.206-7.195-.979a.376.376 0 0 1 .284-.696c1.754.721 5.661.876 6.937.928h.103c.903.025 5.016-1.083 6.654-1.804 1.625-.721 4.642-2.242 5.88-2.963a.378.378 0 0 1 .374.657c-1.251.721-4.32 2.267-5.957 2.989-1.612.721-5.738 1.881-6.925 1.881l.013-.013Z" fill="#003F67"/><path d="M228.891 178.356c.541-.322 1.16-.696 1.328-.258.167.438.361 2.01.387 2.718.025.709.141.838-.774 1.121-.916.296-.851.593-1.019-.721-.167-1.314-.683-2.397.091-2.86h-.013Z" fill="#003F67"/><path d="M214.506 178.922a.989.989 0 0 1-.606-.206c-3.946-2.989-17.305-31.757-17.627-41.535a.996.996 0 0 1 .967-1.031h.039c.541 0 .98.426 1.005.967.323 9.739 13.604 37.553 16.828 40.001a1.004 1.004 0 0 1-.606 1.804Z" fill="#F2A096"/><path d="M295.625 206.762c-3.353-1.507-7.363 2.448-8.021 4.38-1.147 3.414-1.65 7.215-2.101 8.992-.71 2.783.09 7.769.245 11.26.09 1.907.141 5.926-1.213 7.189-.129.129-.283.67.297.953.567.271 7.157 1.288 7.105.193-.026-.451.258-.953.477-1.378.812-1.598 2.695-3.788 2.914-7.769.22-3.98.232-3.375.31-6.956.077-3.582 1.844-8.22 2.927-11.08 1.457-3.865.541-4.225-2.927-5.784h-.013Z" fill="#FFDBB0"/><path d="M286.121 234.654c2.282.451 5.828 1.185 7.247 1.159 1.418-.025.167 1.276-.619 2.397-.619.888-.503 1.198-.387 2.409.116 1.211-2.257 1.288-5.016 1.198-2.76-.09-5.248-1.495-4.32-2.19.928-.683 1.534-1.044 2.063-2.564.542-1.572-.258-2.667 1.019-2.409h.013Z" fill="#E2C2BC"/><path d="M284.284 238.506c-1.947 1.34-2.759.502-4.074 2.177-2.695 3.427.296 5.965 4.229 6.248 2.76.194 9.555-.824 8.549-4.006-.412-1.327-.412-3.466-.851-3.26-1.612.606-4.281.928-5.88.374-1.263-.438-1.625-1.804-1.973-1.52v-.013Z" fill="#003F67"/><path d="M317.182 236.702c-.464-.58-.748-1.159-.696-1.958.103-1.778.916-4.651-.4-8.116-1.302-3.466-1.07-2.976-2.359-6.029-1.29-3.054-1.496-6.558-1.058-9.637.929-6.403-5.042-8.863-8.717-8.735-5.274.168-4.397 10.783-2.708 13.592 1.69 2.796 2.721 6.081 2.992 7.82.438 2.731 2.759 7.755 3.675 9.185.993 1.534 2.579 4.497 1.573 6.403-.18.361-.361.606-.541.799 3.094 1.056 6.383-.528 8.214-3.337l.025.013Z" fill="#FFDBB0"/><path d="M309.367 234.383c2.27-.554 5.352-1.172 6.628-1.778 1.277-.605.825-.296.812 1.829 0 .606.129 1.727.735 2.77.607 1.044-1.521 2.113-4.061 3.182-2.541 1.07-5.39.825-4.836-.193.555-1.005.967-1.584.812-3.195-.154-1.662-1.341-2.319-.09-2.615Z" fill="#E2C2BC"/><path d="M317.422 236.56c-.245-.386-2.708 3.852-6.448 4.174-1.934.168-2.14-.992-2.308-.799-.748.864-1.251 1.224-1.921 3.376-1.316 4.29 2.488 4.869 6.022 2.976 2.475-1.327 7.981-5.862 5.918-8.001-.593-.618-.928-1.198-1.263-1.726Z" fill="#003F67"/><path d="M284.457 178.819c2.166-1.391 10.341-1.121 15.074-1.597 4.603-.464 6.911.309 11.953-.838 3.946-.902 2.811 3.582 7.247 12.729 2.927 6.042 10.638 14.57 8.265 16.606-2.372 2.035-8.226 4.702-11.514 3.762-3.289-.941-4.333-1.211-8.202.631-3.378 1.61-9.052-.142-13.513-.58-3.727-.374-6.099-.103-9.014.567-5.609 1.288-9.838-.593-10.767-1.366-1.354-1.108-1.276-6.493 3.585-13.321 4.848-6.84 4.217-13.797 6.899-16.606l-.013.013Z" fill="#6B6B6B"/><path d="M289.309 143.21c-.323-.708-6.654.58-8.24-1.404-2.398-3.002-5.171-6.403-5.145-6.918.052-.876.155-4.148-.426-5.282-.992-1.971-2.243.528-3.12.064-.877-.464-2.295-2.306-3.301-2.744-1.006-.438-1.238.954-1.792 1.752-.555.799-1.896-.927-2.412-.013-.361.632.194 2.268-.851 2.641-1.044.387-1.16.735-.722 1.791.439 1.057 1.058 1.43.813 2.371-.245.94-.001 1.12.683 1.7.67.58 3.03 1.069 5.003 1.636 1.341.387 2.643 3.839 4.603 7.614.916 1.778 4.862 4.355 8.137 4.805 1.921.258 5.106.735 5.687-1.314.515-1.803 1.856-4.985 1.083-6.686v-.013Z" fill="#FFDBB0"/><path d="M323.471 161.775c1.612-3.401-5.093-14.442-13.707-20.897-2.992-2.254-10.69-1.816-13.372-1.932-4.294-.167-6.95 2.01-9.851 2.95-1.935.619-2.889-1.314-5.545-4.238-1.638-1.804-2.914-1.314-6.783 2.035-1.379 1.198-5.235 3.234-3.378 5.579.606.773 3.095 3.298 5.519 6.17 2.682 3.17 8.149 2.577 8.111 4.677-.065 3.092-3.598 18.822-6.332 24.555-4.113 8.632-2.527 12.857 13.14 10.332 8.059-1.301 34.803 4.535 32.237-3.401-1.573-4.844-1.341-23.073-.039-25.83Z" fill="#E2C2BC"/><path d="M292.826 147.939c-.425.335-.98.85-.606 1.623.387.786.8 1.172 1.29 1.095.915-.142 1.005-.296 1.405-.953.387-.657.219-1.07-.387-1.637-.593-.566-1.057-.438-1.702-.141v.013Zm-.582 12.123c-.425.347-.98.85-.606 1.623.387.786.8 1.172 1.29 1.095.915-.142 1.005-.296 1.405-.953.387-.657.219-1.07-.387-1.637-.606-.566-1.057-.438-1.702-.141v.013Zm-.654 12.135c-.426.335-.98.851-.606 1.624.387.785.799 1.172 1.289 1.095.916-.142 1.006-.297 1.406-.954.387-.657.219-1.069-.387-1.636-.593-.567-1.057-.438-1.702-.142v.013Z" fill="#fff"/><path d="M300.519 150.373c-1.238.58-1.664 2.384-1.161 4.522.503 2.152 1.818 3.285 3.649 3.492 1.651.193 3.237-.567 4.23-2.216.799-1.34.954-3.569-.271-5.257-.245-.347-1.328.683-1.702.722-.335.038-.954-1.546-1.406-1.598-.503-.051-1.379 1.508-1.805 1.521-.387 0-1.225-1.34-1.534-1.199v.013Z" fill="#F2A096"/><path d="M304.329 152.95c1.315.142 1.509.09 1.406 1.494-.078.941.116 1.662-.967 1.675-1.084.013-1.715-.051-2.67-.154-.967-.103-1.121-.207-1.121-1.186 0-.502.141-1.636.438-1.855.413-.296 1.973-.064 2.914.026Zm-14.906-11.221c.168.786 1.122 1.662 2.141 1.997 1.354.451 3.288.064 4.461-1.456.658-.85.723-1.829 1.277-.721.799 1.597 2.592 2.834 4.539 2.834 1.315 0 3.636-1.147 4.462-2.796.954-1.893.876-2.228-1.909-2.718-2.489-.438-4.939-.167-6.125-.155-1.934 0-3.146-.27-5.235.426-2.347.773-3.985.824-3.611 2.589Z" fill="#fff"/><path d="M306.019 186.742c-.361-4.341-1.495-10.151-.167-12.973.812-1.726 3.868-3.594 6.06-4.38 6.164-2.229 8.047-2.061 10.381-1.713 1.225.193 4.551.876 5.17 2.95.813 2.744.645 4.844.684 5.887.077 2.075.219 3.517.387 6.133.064 1.069-.129 2.422-2.592 4.393-1.883 1.507-7.569 4.341-11.219 4.522-1.972.103-4.745.322-6.15-.155-1.78-.605-2.412-2.821-2.566-4.664h.012Z" fill="#F2A096"/><path d="M312.872 175.598c-1.831 0-3.959-.27-5.21-.657a.38.38 0 0 1-.245-.476.38.38 0 0 1 .477-.245c1.806.567 5.648.863 7.247.399 1.702-.489 6.886-2.808 8.949-4.084a.373.373 0 0 1 .516.116.372.372 0 0 1-.116.516c-2.141 1.327-7.35 3.658-9.142 4.174-.619.18-1.496.257-2.476.257Zm2.017 14.107a.37.37 0 0 1-.374-.348c-.103-1.095-.309-3.53-.515-5.952-.207-2.383-.4-4.741-.49-5.758a.376.376 0 0 1 .335-.413c.232 0 .387.129.412.335.091 1.031.297 3.389.49 5.772.207 2.409.413 4.857.516 5.939a.375.375 0 0 1-.335.412h-.039v.013Z" fill="#003F67"/><path d="M314.145 181.615h-.116c-1.316 0-5.313 0-7.221-.696a.376.376 0 0 1-.22-.489c.078-.193.284-.297.477-.219 1.78.657 5.674.657 6.964.657h.116c.915 0 4.964-1.276 6.576-2.061 1.599-.786 4.552-2.422 5.764-3.183a.362.362 0 0 1 .516.116.373.373 0 0 1-.116.516c-1.225.773-4.23 2.422-5.829 3.22-1.612.799-5.802 2.139-6.911 2.139Z" fill="#003F67"/><path d="M321.648 177.183c.528-.348 1.134-.747 1.315-.309.18.425.438 1.997.49 2.706.051.708.168.824-.735 1.159-.903.335-.825.618-1.045-.67-.219-1.288-.773-2.37-.012-2.873l-.013-.013Z" fill="#003F67"/><path d="M307.257 178.316c-.193 0-.399-.064-.58-.18-3.933-2.757-17.511-26.629-18.246-36.923a.999.999 0 0 1 .929-1.069.984.984 0 0 1 1.07.928c.696 9.829 14.287 33.238 17.395 35.415.451.322.567.94.245 1.391a.981.981 0 0 1-.825.425l.012.013Z" fill="#F2A096"/><path d="M314.214 164.004c.774 1.791 6.512 8.155 6.435 9.018-.065.876-.245 4.148.296 5.295.942 1.997 2.257-.477 3.121 0 .877.477 2.231 2.37 3.237 2.821.992.464 1.25-.914 1.831-1.7.58-.786 1.869.979 2.411.077.374-.618-.129-2.267.915-2.615 1.045-.361 1.174-.709.774-1.765-.412-1.069-1.019-1.456-.761-2.383.258-.928.026-1.121-.644-1.727-.658-.605-3.005-1.146-4.965-1.752-1.96-.618-1.418-6.892-6.292-11.195-2.966-2.615-7.969 2.229-6.37 5.939l.012-.013Z" fill="#FFDBB0"/><path d="M292.476 130.263c-.412-.747-.98-2.28-1.56-2.924-.58-.631-1.212-1.327-2.14-1.546-1.432-.335-2.18-.283-2.94.142-.671.373-1.702 2.216-1.741 3.517-.258 1.7-1.432 2.177-2.218 2.499-1.122.464-3.043.064-2.85.889.568 2.409 1.87 2.821 3.288 2.654 4.539-.554 2.218-4.805 4.991-5.282 2.772-.477 2.991-.077 5.17.039v.012Z" fill="#003F67"/><path d="M304.283 137.722c-3.263 2.216-6.86 2.422-9.323 1.34s-4.423-2.847-5.957-5.089c-1.071-2.1-1.419-4.741-1.29-5.759.116-.927.49-1.932 1.019-2.808 1.238-2.048-.374-2.718 3.21-6.39 1.084-1.108 6.861-5.875 13.643-3.285 5.958 2.28 5.519 17.353-1.302 21.991Z" fill="#FFDBB0"/><path d="M291.36 116.452c.812-1.223 2.747-2.615 5.119-2.963 2.205-.309 3.224-1.404 6.77-.657 4.152.863 7.453 3.492 8.42 4.857 2.089 2.937 1.702 4.857 2.102 6.777.735 3.478-.877 10.976-8.639 13.102-1.225.335-.98-.361-.839-.851.774-2.847 1.806-2.512 3.018-3.427 1.238-.94 1.135-3.658-.761-3.259-1.573.322-.903.399-3.211-1.855-1.65-1.61-2.862-4.071-5.377-7.988-1.122-1.765-5.222 1.559-7.891 1.199-1.367-.181-.349-2.422 1.302-4.935h-.013Z" fill="#003F67"/><path d="M310.497 131.191c.8-.464 2.192-1.572 3.095-1.843.902-.27 1.87-.554 2.85-.245 1.521.49 2.192.954 2.656 1.778.412.722.348 3.015-.348 4.252-.722 1.726.103 2.821.657 3.568.787 1.057 2.786 1.765 2.154 2.422-1.883 1.92-3.327 1.572-4.539.619-3.92-3.054.645-5.707-1.676-7.704-2.322-1.997-2.734-1.752-4.836-2.86l-.013.013Z" fill="#003F67"/><path d="M312.799 127.455c-.452.309-1.032.786-.71 1.584.323.812.723 1.224 1.2 1.186.915-.078 1.031-.219 1.47-.851.438-.631.296-1.056-.271-1.662-.567-.605-1.032-.515-1.689-.257Z" fill="#6B6B6B"/><path d="M311.3 129.336c-.452.309-1.032.786-.71 1.584.323.812.723 1.224 1.2 1.186.915-.078 1.031-.22 1.47-.851.438-.631.296-1.056-.271-1.662-.568-.605-1.032-.515-1.689-.257Z" fill="#6B6B6B"/><path d="M316.808 149.704c3.455 1.12 4.461 4.328 6.872 8.593 2.412 4.264 3.289 6.016 1.213 7.613-2.644 2.023-6.074 3.814-8.008 3.955-1.934.142-5.854-6.415-6.396-8.786-.735-3.195-.232-6.776.361-8.309.593-1.533 3.727-3.801 5.958-3.079v.013Z" fill="#E2C2BC"/><path d="M315.36 126.295c3.004-5.256.257-12.483-6.138-16.142-6.396-3.659-14.03-2.358-17.034 2.899-.052.09-.091.167-.142.257l23.069 13.373c.077-.129.167-.258.245-.4v.013Z" fill="#F2A096"/><path d="M318.127 129.207c-1.019 1.777-8.524-.606-16.777-5.308-8.239-4.715-14.106-9.972-13.088-11.749 1.019-1.778 8.524.605 16.776 5.307 8.253 4.716 14.107 9.972 13.089 11.75Zm-8.072-18.384c-.245.425-.851.541-1.367.257-.516-.283-.709-.876-.464-1.301.245-.425.851-.541 1.366-.258.516.284.71.876.465 1.302Z" fill="#F2A096"/><path d="M303.129 120.911c-.22-.116-.426-.245-.632-.361-2.695-1.611-6.538-4.406-8.291-6.313-.091-.09-.078-.219 0-.283.09-.065.232-.039.322.051 1.715 1.855 5.506 4.612 8.162 6.21 3.211 1.919 7.866 3.955 10.613 4.651a.236.236 0 0 1 .193.257c-.013.116-.129.181-.258.142-2.656-.67-6.886-2.486-10.135-4.342l.026-.012Zm-4.273-5.321s-.013 0-.026-.013c-.103-.077-.142-.206-.065-.296.581-.748 2.438-2.293 3.779-3.041 1.263-.695 3.43-1.455 5.132-1.546.129 0 .245.078.271.194.025.116-.052.206-.181.219-1.638.09-3.74.811-4.952 1.494-1.276.709-3.12 2.242-3.675 2.95-.064.078-.18.09-.283.039Zm10.943 6.248c-.103-.065-.155-.168-.116-.271.335-.837.722-3.195.683-4.663-.038-1.392-.464-3.569-1.225-5.025-.051-.103 0-.232.103-.257.116-.039.246.025.31.129.787 1.52 1.238 3.761 1.277 5.204.038 1.533-.349 3.917-.71 4.793-.038.103-.167.141-.283.09h-.039Z" fill="#003F67"/></svg>