<svg width="359" height="42" fill="none" xmlns="http://www.w3.org/2000/svg"><path fill-rule="evenodd" clip-rule="evenodd" d="M88.201.626c1.243.271 1.427.966 2.872 1.08.209-.41.52-1.024 1.305-.809v.272c.667.253.294-.272.784.271h.263v1.08l.52.272v.537h.264c.086.272.171.537.263.809h-1.047v.808c-.723.196-.582.076-.784.809-.912.227-1.219.682-2.352.808.019.708.105.916.264 1.346-.894-.07-2.052-.215-2.089-.272v.537h.264c.827.006-.784.271-.784.271-.33-.423-.698-.657-1.305-.808-.392.733-.906 1.15-1.83 1.345v-.537l-.522.272c-.153.41-.202.442-.263 1.08-.551.044-1.58.24-1.831.537-.319.379.233.297-.52.809v-1.08h-.264v1.08h-.784v-.537c-.398.158-.429.208-1.047.271v-.537l-.784.272c-.172.461-.251.846-.263 1.617h-1.305s-.263.43-.52.537v.271h-.264V12.5h-.52v-.271h-.264v.272h-.784v.271c-.453.417-.55 1.263-.784 1.889-.961-.095-1.72-.474-2.351.271-.086.272-.172.537-.264.809-.698.088-1.396.177-2.088.271v.272l-.52.272v.537l-.785-.272-.263.537h-.784c-.043.025-.306.404-.52.537v.271a100.8 100.8 0 0 1-1.305-.271v-.272c-.153-.019-.894.455-1.305.537-.177.512-.337 1.649-.52 2.154l-.784-.272v-.271c-.361-.07.104.196-.264.271-.624.127-.673-.202-1.047-.271l-.52.808h-1.048v.272l-.783.271v.809h.52v.272h-.263c-.141.126-2.095.682-2.089 0h-.263v.537l-1.305-.272c.013.966-.06 1.699-.52 2.154v-.272h-.264v-1.08h-.52c-.018.707-.104.916-.263 1.346-.546-.165-1.066-.304-1.568.271v.537h-.264v.272l-1.568-.272c-.085.177-.171.36-.263.537-.349.088-.698.177-1.047.272v.536h-1.047v.537c-.625-.126-.821-.31-1.305-.537v1.346c-.612.088-1.219.177-1.831.271v.272c-.766.183-.858.297-1.047 1.08.367.02-.037-.044.263-.271.41-.31.245.663.263.808-.447.303-.355.17-.52.809.349-.089.698-.177 1.047-.272l.263-.537c.05-.006.613.253 1.048.272v-.537c.263.088.52.177.783.271l.264-.537c.318-.157.766-.145 1.047-.271v-1.08c.619-.108 1.44-.512 2.352-.272v.272h1.047v-.272h.52v-1.08h.521v.537c.784-.177 1.568-.36 2.352-.537l.264.272c.716-.518.238-.922 1.567-1.08.3.31 0 .107.521.271v-.808l1.305-.272v-.537c.863.145 1.188.341 1.567 0h.264c.33-.417-.282-.543.263-.808v.271h.263v-.808c.576-.095 1.354-.354 2.089 0 .086.177.171.36.263.537h.52v-.537c.527.151.227-.032.521.271l.784-.271v-.272h.784c.172-.271.35-.537.52-.808.436.088.87.177 1.305.271v.272c.19.038.962-.24 1.832-.272l-.264-.808h.52v.271h1.048l.263.272v-.272l.784-.271c-.018-.708-.104-.916-.263-1.346h1.568c.3-.31 0-.107.52-.271.203-.809.16-.708 1.048-.809.294.461.165.367.784.537.263-.676.538-1.409 1.047-1.08h.263v.808h.52c.19-.745.074-.6.785-.808v-.272l1.567-.271s.117.391.521.271l.263-.537h.784v-.536l.521.271v.272c.343.132.055-.127.263-.272.656-.183.423-.139.784-.537h.264v-.537l.52-.271c.306-.341.441-.783.784-1.08v.271h.784c.086.36.171.72.263 1.08h.264c.637-1.099 1.463-.998 2.872-1.345.08-.019.067-.373.52-.272v.272c.521.177 1.048.36 1.569.537v-.272h.263l-.263-.808c.171-.089.349-.177.52-.272.361-.562-.116-.379.52-.808v-.272l1.305-.272c-.14.752-.202.026 0 .809h.264v-.537c.52.088 1.047.177 1.567.272v-.272c.282-.246.05.044.264-.272h-.264v-.271h.784c.055.638.11.67.264 1.08.3-.31.104 0 .263-.537.3-.31.104 0 .263-.537.784-.271 1.568-.537 2.352-.808l.263.271c.086-.871.24-.79.521-1.345h.521v.271h.263v-.271h1.047l.264-.809c.679.285 1.102.493 2.088.537-.086-.177-.171-.36-.263-.537.177-.296 1.47-.379 1.831-.808l-.263-.537h.263v-.272c.692.316.986.518 2.088.537v-.27h-.263v-.81c.827.177.527.41.784.537.306-.019.931-.543 1.568-.272l.263.537h.521c-.251.89-.245 1.586.263 2.426h-.263c-.3.31 0 .107-.521.271v1.346h-.263c-.068.448.245.467.263.537v1.345c-.937.038-1.482.385-2.088.537l-.521-.272c-.171.272-.349.537-.521.809-.147.063-1.427-.202-1.831-.272-.159.708-.741 1.428-1.567 1.346 0 0-.141-.341-.521-.272l.263.537h-1.047c-.086.448-.171.897-.263 1.345l-1.305-.271-.263.537c-.705.183-.686-.518-.784-.537l-.784.271.263.272c.013.107-.233.606-.263 1.08-.87.088-1.74.177-2.615.272v-.537c-.619-.057-.65-.114-1.047-.272v.809c-.056.113-1.795 1.358-.785 1.888h-.783v-.271c-.251-.5-.264.537-.264.537-.294.227-.036-.032-.263.271.735-.252.729-.284 1.568 0v.272l.784-.272-.264-.271.264-.809c1.225.486 2.033.158 2.872-.537.086-.177.172-.36.263-.537h1.305s-.025-.158.52-.271v.808h.264v-.537c1.114-.019 1.733-.056 2.352-.537l.263-.537c.435.089.87.177 1.305.272-.301-.31-.001-.107-.521-.271v-.537c.263.088.52.177.784.271v-.537h.52v.537c1.513-.126 2.597-1.004 3.657-1.617v.809h.52v-.537h1.832v-.272h.783v-.271c.521.088 1.048.177 1.568.271.221-.303-.03-.038.264-.271v-1.08c.52-.089 1.047-.177 1.567-.272-.085.272-.171.537-.263.808h.263v.272c.294-.227.037.032.264-.272.3-.31.104 0 .263-.537.411.02 1.831.272 1.831.272v-.271h.264v-.809c.288-.379 1.176-.278 1.831-.272v.272l1.568-.272v-.271h.52v-.272h.784l-.263.809h.263c.19-.746.074-.6.784-.809v.537c.264-.088.521-.177.784-.271v-.272c.613-.088 1.219-.177 1.831-.272v-.271h.784l.264-.537c.22-.089 1.721.284 2.088.537v-.537l.784-.272V13c.355-.113-.104.196.263.272.435.089.466-.259.521-.272.478-.1 1.01.354 1.304.537v-.271c.815-.764.062-1.143 1.568-1.346v.272h.784l-.263.537c.337.436.49-.297.784.808.343-.284.392-.549.784-.808v.808h.52c-.085-.537-.171-1.08-.263-1.617 1.225-.43.882.209 1.568-1.345h.263c-.031.575-.269.922-.263 1.08l.263.272c.478-.341.031-.367.264-.537.3-.227.165.246.263.272.263-.089.52-.177.784-.272v-.537c.588-.107 1.004-.442 1.831-.272 0 0 .012.354.521.272v-.272h1.304v.272c-.625.164-.484.088-.784.537h.521c.753-1.282 2.008-.834 3.399-1.345l.263-.809c.747 0 1.121.095 1.568.272v-1.08h.263c.172.271.349.536.521.808h.263l-.263.537h.263v.271c.748.556.674-.48 1.048.809h.52v.537h.521a40.05 40.05 0 0 1-.264.808h.264c.177.405.183.449.263 1.08h.521v.537c.404.24.545.398.784.809.845-.474.496-.644 1.567-.272l-.263-.808h.521v-.537h.52v.271h.264v-.271l.784.271-.264.809h.521c.19-.745.073-.6.784-.809.392-.473.704-.511 1.568-.536v-.537c.52-.177 1.047-.36 1.567-.537.019.707.105.916.264 1.345.294-.227.036.032.263-.271h.263v-.809c.784.088 1.568.177 2.352.272v-.537h.521l.263-.809c.349.089.698.177 1.047.272.086-.177.172-.36.264-.537l1.304.272v.537c.668-.417 1.801-1.674 2.615-1.08h.521v.536h.263v-.537c1.256-.07 1.262-.19 2.352 0 .086-.448.172-.897.263-1.345 1.207-.234 2.12-.234 2.873 0V8.44h1.568v.272h.784v.271c.263-.088.52-.177.784-.271V8.44c-.301-.31-.105 0-.264-.537.858.02.772.341 1.305 0l.263-.537 1.568.537v.537c.704 0 1.482.088 1.831-.272v-.536l.521.271v-.271c.52-.089 1.047-.177 1.568-.272.245.164-.092.385.263.272l.263-.537c.331 0 .668.48 1.305.271v-.271c.435-.089.869-.177 1.304-.272l-.263.809h.263c.582.65.49.379 1.305.271-.031.853-.509.505.263.809.116.67.239.991.263 1.888-.722.196-.581.076-.784.809h-.263v1.345c-.625.127-.82.31-1.304.537v-.808h-.264c-.386 1.51-.453.556-1.304 1.08v.271l-1.047.809c.085-.272.171-.537.263-.809h-.263c-.16.43-.233.638-.264 1.346-.986.214-1.464.524-2.872.537v-.537h-.521v.537h-1.304v.271h.263c-.165.385-.306.202-.52.537h-.521l.263-.537h-.263c-.257.367-.153.53-.784.537 0 0-.184-.385-.521-.271-.085.176-.171.36-.263.536h-.52l-.264 1.617-1.047.272v-1.08h-.521c-.19.865-.355.979-1.304 1.08l.263-.809h-.263c-.098.31-.074.96-.521.809l-.263-.809a36.54 36.54 0 0 0-.784.272v.537c-.416-.164-.619-.24-1.305-.271v-.81h-.263v.81c.3.309.104 0 .263.536-.612.089-1.218.177-1.831.272v.537c-.925.1-.796.335-1.568.537v.808c-.637-.151-.575-.284-1.047-.537v.537h-.263v.809h.263v-.537h.521v.537c.435-.089.869-.177 1.304-.272v.809h.521v-.809c.435.089.869.177 1.304.272.123-.645.3-.847.521-1.346.851.007 1.886-.12 2.352.272h.263c.086-.177.171-.36.263-.537h.521v-.272h.52v-.271l.521.271v-.271h2.615a42.47 42.47 0 0 0-.263-.809h.52v-.271h.264v.271l.784.272c.018.379.061.076-.264.271.294.285 0 .12.521.272v-.271h.263v-.809h.264c.226-.373.196-.467.263-1.08.618-.032.661-.082 1.047-.272v.272h.264v.271l-.264.538h.784v-.538c.613-.088 1.219-.176 1.831-.271v.271h.264c.294-.214-.098-.353.263-.271v.271h1.047v.538h.264c.086-.537.171-1.08.263-1.618h.521v.537h.263v-.808c.6.025.68.227 1.047.271l.264-.537s.716.253 1.047.272v-.537l.263.272c.349-.089.698-.177 1.048-.272v.272h1.304v-.809h.521v.272h.263v-.272l.521.272.263-.809c.692-.265.545.588 1.047.537v-.271c1.145-.278 1.439-.664 2.615-.809v.272h-.263c-.496.234.52.271.52.271.221.304-.03.038.264.272v-.537l1.304-.271c.086-.177.172-.36.264-.537l.263.271c1.55.101 1.752-.562 2.615-1.08v.809h.264c.3-.31 0-.108.52-.272v-.537c.264.089.521.177.784.272l.263-.537h1.048v-.272h.263c.159.645.086.5.521.809v-.809c1.372-.227 1.157-.031 2.351.537.135-.632.38-1.01.784-1.345.3.31 0 .107.521.271v-.537h.784v-.536c.435.088.869.176 1.304.271v.537h.521v-.808c.57.037.87.271 1.047.271v-.271l.784-.272c.086.177.172.36.263.537.833.253 2.083-.562 2.616-.809l-.264-.808h.784c.159.644.086.499.521.808.22.303-.031.038.263.272.019-.708.104-.916.264-1.345.52-.089 1.047-.177 1.567-.272.221.303-.03.038.264.272-.202.271-.319.265-.521.536h.784l-.263-.808.263-.272c.386.127.416.31 1.047.272v-.272h.264v.272c.349.088.698.177 1.047.272v.271c1.066.417 1.549-.196 2.088.272.815.556.123.347.521 1.08l.52.271v.537h.264c.239.367.196.474.263 1.08l-1.047-.271c.208.872.484.928.52 2.154-.293.227-.036-.032-.263.271h-.263c-.08-.808-.037-.732-.521-1.08v.272h.264c-.172.36-.349.72-.521 1.08-.68.013-.9.057-1.305.272v.271c-.447.158-.453-.252-.52-.271-.937-.247-1.531.34-1.831.808h-.264c-.085.537-.171 1.08-.263 1.617h-.52l-.264-.537c-.349.089-.698.177-1.047.272.055.638.11.67.263 1.08-.606-.025-.667-.215-1.047-.272l-.263.537c-.35.089-.699.177-1.048.272-.19.745-.073.6-.784.808-.918.853-1.69-.34-1.831-.271v.271c-.435.272-.87.537-1.304.809.14.941.257.499 0 1.345h.263v-.271h1.047v.537l.784-.272v-.272l.784.272v-.81c.264.088.521.176.784.271V21.4l-.263-.272h1.568c.085.271.171.537.263.808.171-.088.521-.537.521-.537.263.089.52.177.783.272V21.4c.386-.209.435-.203 1.048-.272v-.537h.52v-.537h1.048v.537c.588-.07.692-.025 1.047-.272v-.271h.52v-.272h.521v-.271c.465-.386.625-.607 1.304-.809v.809h1.048c.086-.449.171-.897.263-1.346h.521c-.086.272-.172.537-.264.809h.264c.373-.386 1.457-.689 2.088-.809v-.537c.349-.088.698-.177 1.047-.271v-.809h.521v.809h.521v-.809h1.304a42.23 42.23 0 0 1-.263.809h.52c.27-.31.484-.518 1.048-.537v.271h.263l.263-.271c.245-.487.362-.424.521-1.08l.784-.272v-.272l.263.272.784-.272V16h.521c.055-.638.11-.67.263-1.08l.521.271v-.271c.373-.335.404-.746.784-1.08.079.126.532.979.783.808l.264-.808c1.133-.089 2.266-.177 3.399-.272v.272c-.723.195-.582.075-.784.808.649-.12.961-.246 1.831-.271v-.272h-.263v-1.346c.435.089.869.177 1.304.272.086-.271.172-.537.264-.808.3.31.104 0 .263.536l.784.272v-.272c.539-.303.471-.416 1.304-.536v-.809c.558-.031.895-.278 1.048-.271l.263.271v-.537l1.305-.271v.537c.171-.089.349-.177.52-.272v-.272c.416-.05.325.468.521.537h1.047c.086-.448.172-.897.263-1.345.435.088.87.177 1.305.271l.263-.537h.264v.272c.263-.088.52-.177.783-.272V8.99c.3.31.105 0 .264.536h.52c.123-.644.3-.846.521-1.345.87.013 2.352.272 2.352.272V8.18h.52v-.27h.784c.086-.177.172-.36.264-.537.263.088.52.176.783.271v.272h1.305v-.537l1.047-.272v.537h.521c.165.74.343.613.52 1.346h.784c.19.745.074.6.784.808v.537c-1.561.329-1.353 1.08-1.831 2.425h1.568l.263-1.08c1.09-.17.741-.265 1.832-.537v.537c1.237-.537 1.053-.537 2.088 0v-.537c.349-.088.698-.176 1.047-.271v-.537h.521v.272h.263v-.272c.594-.12.704.139 1.047.272v-.272h-.263c-.484-.259.521-.272.521-.272v-.537h.52V8.99c.821.158 1.164.435 2.089.536l.263-.808s-.557-.044-.263-.272h.52v.272h1.568V7.91c.833.176.515.397.784.536.435-.044.484-.53.521-.536.502-.146.361.176.52.271h.263V7.91c.35.088.699.176 1.048.271.19-.745.073-.6.784-.808v.537h1.047c.245-.487.361-.424.521-1.08l.783.271v-.272c.172-.088.35-.176.521-.271v.537h.521l-.264-.809c.625-.126.821-.31 1.305-.537v1.08c1.359-.366.931-.593 2.615-.271v-.809h.784v.272c-.11.158-.429.038-.263.537h.263c.422-1.668.557-.455 1.568-1.08.594-.367-.019-.992 1.304-1.346v.272l.784-.272v.537h.264v-.537c.924.101.796.335 1.567.537v.537c.245.423 1.868.5 1.048 1.345h.52v1.08l-.52.272c-.013.089.245.6.263 1.08h.521c-.123.645-.301.847-.521 1.346-.465.025-.943.284-1.047.271v-.271h-1.047v.271l-1.568.272v.537c-.349.177-.699.36-1.048.537v-.272h-.263v.809l-1.831.537c.3.309 0 .107.52.271v.272c.46.22.839-.158 1.048-.272v-.271h.784v-.537c1.218-.063 1.488-.392 2.351-.809v-.271h1.832v.271h-.264c-.3.31 0 .107-.52.272v.537c1.065-.316.275-.247.784-.809l.52.272v-.272h.521v-.271h.784c.275-.165.649-1.333 1.304-1.08v.271h.521v-.809c.263.089.52.177.784.272v-.271c.52-.089 1.047-.177 1.567-.272v.537h.521c.086.271.171.537.263.808h.264v-.537h.52c.153-1.004.153-.619 0-1.617.08.032 2.517.588 2.615.537V8.97h.264V7.89h.263c.533.492 1.188.075 2.089 0v-.537c.526.151.226-.032.52.271.962-.284.717-.543 1.305-1.08v-.271c.661-.424 2.064-.02 3.135 0 .166-.74.343-.613.521-1.346 1.121-.044.894-.17 1.568-.537v.81h1.047c.055-.638.11-.67.263-1.08l.784.271.264-.537h.52v-.271c.264-.089.521-.177.784-.272l.264.809c.661-.55.11-.65 1.304-.809v.272c-.3.246-.306.196-.521.537h.264v.271c.545-.297.465-.436 1.304-.537.221.304-.03.038.264.272-.307.512-.221.259-.784.537v.271h.52c-.085.537-.171 1.08-.263 1.617h.263v.272h-.263v.537c.086.632.171 1.257.263 1.889h-.263c-.22.31-.135.379-.521.537v-.272h-.263c-.171.271-.349.537-.521.808h-.783l-.264.537c-.349.089-.698.177-1.047.272a42.23 42.23 0 0 1-.263.808l-.784.272-.264.537h-.263v-.272c-.962-.233-1.262.916-1.831.272v.537h-.521c.086.36.172.72.264 1.08h-.264c-.294.461-.165.366-.784.537-.024-.057-.373-.98-.52-.809v.272l-.521.271a42.23 42.23 0 0 1-.263.809h-.784c-.876.442-.343.714-1.831.809.085.271.171.536.263.808.349-.088.698-.177 1.047-.272v.809h.264v-.272h1.047c.796-.31 1.164-.751 2.352-.808v-.537c.741-.17.692-.5.784-.537h1.047v.272l1.047-.272s.117.335.521.272v-.272l1.047.272v-.272c.3-.31.104 0 .263-.537h-.263v.272c-.227.511-.263-.537-.263-.537.955.088 1.917.177 2.872.271l.263-.536c.264-.083.478.416 1.048.271v-.271h1.304v.271h.264v-.271h1.047l.263-.809h.264l-.264-.537h.784c.3.31 0 .107.521.272v-.537c.624.126.82.31 1.304.537v-.272h-.263c-.484-.259.52-.272.52-.272v.272c.301.31.104 0 .264.537.557-.031.888-.272 1.047-.272v.272h.521c.073-.48.263-.537.263-.537a50.686 50.686 0 0 0-.263-.808h.263v-.272c.741.341 1.078.695 2.088.808v-.536c1.525-.36.147-.683 1.568 0v-1.08h.264v.271c.349-.271.698-.537 1.047-.808v1.08h.263c.129-.127-.073-.436.264-.272v.272h.263s-.074.966.263.537v-.272c.3-.31.104 0 .264-.537h-.784c.202-.808.159-.707 1.047-.808v.271l.784-.271v.271h.784v.272c.673.145 1.433-.84 1.831-1.08l.784.271v-.271c.435-.29.435-.367 1.047-.537-.086.271-.171.537-.263.808h.263v.272c.264-.177.521-.36.784-.537v-.272h.521c.471-.214.569-.612.784-1.08l1.304 1.08c.159-.53.012-.656.521-.808.085.032.079.505.52.537.558-.764.233-.543 1.048-.272.085-.871.238-.79.52-1.345.913.145.484.265 1.305 0v1.617h.263c.294-.461.165-.367.784-.537.49.846.968.764 1.047 2.154.717.032 1.893.373 2.089 0h.263v.271c.723.177 1.543.752 1.831 1.346v.808h.264c.361.5.606.626.783 1.346a40.41 40.41 0 0 1-.783-.272v.272h.263v.808h.263c.239.398.233.664.264 1.346-.301.31-.105 0-.264.537-.869.088-1.739.176-2.615.271v-.537c-.349.089-.698.177-1.047.272v-.537c-.172.088-.349.177-.521.272-.086-.177-.171-.36-.263-.537-.006 0-.772.366-1.305 0l-.263-.809c-.306-.22-.447.79-1.047.537v-.271c-.3-.31-.104 0-.264-.537l-.784.271v-.271h-.263c.086-.272.172-.537.263-.809 0 0-.324-.082-.263-.537 0 0 .435-.12.263-.537h-.263c-.3.31 0 .108-.52.272-.086.271-.172.537-.264.808-.612-.075-.649-.088-1.047-.271v-.272c-.441.032-.441.512-.521.537-.594.215-1.053-.335-1.304-.271v.271c-.888.366-1.084.84-2.089 1.08.086-.271.172-.537.264-.808h-.521c-.386.732-.802 1.231-1.831 1.345v-.808h-.263c-.202.808-.16.707-1.048.808v-.537c-1.09.613-1.237.55-2.615.272v-.537h-.263c-.019 1.042.043 1.112-.784 1.345v.272c-.251.499-.263-.537-.263-.537h-.521c-.086.177-.172.36-.263.537a86.44 86.44 0 0 1-1.305-.272v.537h-.784v.272c-.3.31-.104 0-.263.537l-1.568.271v-.537l-2.615.272v.537h-.784v.271c-.233.506-.263-.536-.263-.536-.839.208-.564.404-1.568.537v.808c-1.544-.164-1.427-.954-3.136-1.08-.006.897-.135 1.219-.263 1.889h-.521c.08-.234.502-.594.263-1.08h-.263v.271c-.3.31-.104 0-.263.537l-1.568.272v.537c-.876-.165-1.648-.74-2.615-.272-.172.271-.349.537-.521.808-.71.215-.808-.726-1.047-.808-.472-.164-.19.303-.263.537a35.999 35.999 0 0 1-.784-.272v1.08h-.521l-.263.537c-.429.133-.484-.265-.521-.271-.631-.114-.68.271-1.047.271v-.271c-.521-.089-1.047-.177-1.568-.272v.537c-1.733.19-2.615.233-3.92 0l-.263.808c-.49-.132-1.249-.113-2.088-.271v-.272c.3-.31.104 0 .263-.537-.625.026-.649.177-1.047.272v-.272c-.435-.29-.429-.385-1.048-.537v-.537h-.52a42.276 42.276 0 0 0-.264-.808l-1.567-.272v-.537c.208.089.82.55 1.304.272v-.272c-.772-.518-.637-1.073-.52-1.888.349-.177.355-.423.52-.537.172.088.349.177.521.271v-1.08h.263c-.086-.537-.171-1.08-.263-1.617a36.537 36.537 0 0 1-.784-.271c.086.177.171.36.263.537l-.784-.272v.537h-.263c-.086.177-.172.36-.263.537h-.784c.061.625.287.164 0 .808l-.521-.271v.537c-.282.473-.263-.537-.263-.537-.435.088-.87.177-1.305.271 0 0-.122-.404-.52-.271-.086.177-.172.36-.264.537h-.784a36.16 36.16 0 0 1-.263.808c-.404-.22-1.158-.973-1.831-.808-.086.177-.172.36-.264.537-.502-.051-.434-.525-.52-.537h-.264v.271h-1.304v.272h.52c-.085.537-.171 1.08-.263 1.617h-.52c-.239-.107-.172-.821-1.048-.537l-.263.537h-1.304v-.272c-.38-.215-.442-.19-1.048-.271v.808a42.92 42.92 0 0 1-.784-.271v.271c-.3.31-.104 0-.263.537-.974.284-.704.556-1.305 1.08v.272h-.784v-.809h-.52v.537h-1.305v-.271h-.263c-.171.36-.349.72-.521 1.08l-.52-.272v.272l-.784.537v-.809h-.263v.272l-.784-.272v.272c-.368-.02.104-.228-.264-.272l-1.568.272v.808h-.263v-.271c-.71-.392-1.28.378-1.568.536-.147-.846-.257-1.13-1.047-1.345.147.657.276.594.521 1.08h-.521c-.416.398-1.537.297-2.352.272v-.537h-.52v.537c-.521-.089-1.048-.177-1.568-.272-.129-.638-.245-.638-.521-1.08.355-.316.257.202.521-.271-.343-.222-.307-.19-.521-.537h.521c.055-.638.11-.67.263-1.08-.741-.177-.986-.5-1.304-1.08h.784c.171-.72.349-1.44.52-2.155-.343-.22-.306-.19-.52-.537-.558.329-.57.607-1.305.81v-.538h-.263v.809c-1.017.088-1.176.436-1.832.808-.055-.638-.11-.67-.263-1.08-.294.227-.037-.032-.263.272h-.264l.264.271-.264.809c-1.108-.196-1.255-.044-2.615 0l.264.808h-.264c-.214.354-.183.316-.52.537v-1.08c-1.329.076-1.152.48-2.615.537-.196.916-.558 1.244-1.568 1.345v-.537h-.264v.272c-.226.512-.263-.537-.263-.537a37.951 37.951 0 0 1-.784-.271l.263.536h-.52c-.417.398-.643.929-.784 1.617h-.784v-.537c-1.678.064-2.101.986-3.399 1.346.165-.74.343-.613.521-1.346-1.672.38-2.861 1.567-3.92-.271 1.176-.707.557-1.004.263-2.154h-1.047c-.221-.303.031-.038-.263-.271.079-.234.502-.594.263-1.08h-.263v-.272h-.784c-.441.745-1.121.543-1.568 1.08l-.263.808h-.784v.272a36.54 36.54 0 0 0-.784.271v-.536c-.815.183-1.189.808-1.832 1.08h-1.047v.271a36.47 36.47 0 0 1-.784-.271v.537l-1.568.271v.272h-1.047c-.086.019-.067.373-.521.271v-.271h-.52v-.272l-1.831-.271c-.19.379-.472.814-.784 1.08v-1.08h-.263v.537a36.537 36.537 0 0 1-.784-.272c-.123.632-.435.834-.521 1.345h.263c.086.272.172.537.264.809-1.489.019-1.642-.284-2.615-.537-.386.733-.803 1.232-1.832 1.345v-.537h-.52v1.08h-.521v.272h-1.831v.272h-.521v.271c-.171-.088-.349-.176-.52-.271v.271h-.264c-.385-.322.221-.195-.263-.537.031.853.508.506-.263.809v-.537c-1.47.183-.845.67-1.568 1.08h-.521c-.085.272-.171.537-.263.809h-1.305v-.272c.65-.493.337-.208.264-1.08h-.521v.809c-2.272.006-2.67.467-4.703.536v-.536c-.349.176-.699.36-1.048.536.086.36.172.72.264 1.08-.68-.044-.894-.056-1.305-.271v-.272l-.784.272c-.043-.006-.092-.38-.52-.272v.272h-.521v.271h-.52v.272c-.362.247-.46.19-1.048.272v-.809h-.263v.272h-1.305c-.177.082-.012.347-.783.537-.086.271-.172.537-.264.808h.264c.385.329-.95.265-1.048.272V29.2c-1.047-.177-2.088-.36-3.136-.537.141-.751.203-.025 0-.808-.281.151-.545.726-1.047.537v-.272h-.263l.263-.537h-.263c-.3-.31 0-.107-.521-.271a36.197 36.197 0 0 0-.263-.809h.52a36.197 36.197 0 0 0-.263-.808h.263v.271c.227.512.264-.537.264-.537h.263v-.271c-.171-.089-.349-.177-.52-.272.085-.271.171-.537.263-.808h-.263v-.272h.784v-.272c-.343-.22-.307-.19-.521-.537.447-.303.355-.17.521-.808l1.047-.272c.03-.019.404-.998.52-.808v.537h.784c.245-.487.362-.423.521-1.08-.355-.316-.398-.493-.521-1.08h.521v-.537h.521v-.272c-.521.088-1.048.177-1.568.272v-.272c-.343.019-.656.461-1.305.272v-.272c-.52-.088-1.047-.177-1.568-.271v1.08h-.52v.536c-.264-.176-.521-.36-.784-.537v-.536l-.264.271c-.3.31-.104 0-.263.537h-1.047v.537c-.521-.088-1.047-.177-1.568-.272-.086.449-.172.897-.263 1.346-.637.151-.576.278-1.048.537v-.272c-.269-.234-.361-.467-.52-.808-.3.31-.104 0-.264.537-.52.088-1.047.176-1.567.271v.537c-.619.057-.65.114-1.048.272v-.537h.264l-.264-.809h-.263v.537c-.172-.088-.349-.177-.521-.271-.3.214-.104.637-.784.536-.085-.177-.171-.36-.263-.537h-.263v.537l-.784.272c-.135-.038-.159-.682-.521-.537-.263.36-.52.72-.784 1.08a42.92 42.92 0 0 1-.784-.271v.537h-.52v.536c-.294-.227-.037.032-.264-.271-.281-.247-.049.044-.263-.272h.263v-.271h-.783v.271h-.264v-.271h-.784c-.086-.177-.171-.36-.263-.537-.172.088-.349.177-.521.271-.355.108.11.29-.263.272v-.272h-.521c-.006.834.074 1.39.264 1.889h-1.048v.537h-.263v-.809h-.52l-.264.809c-.294-.227-.037.031-.263-.272h-.264l.264-.808c-.264.088-.521.177-.784.271v.272h-.521c-.085.177-.171.36-.263.537h-1.047v.271h-.264c-.128-.12.074-.435-.263-.271l-.263.537-1.305.271v-.537h-.263l-.264.537h-.263l-.263-.537c-.362-.17-.735-.132-1.048-.271-.018 1.042.043 1.112-.783 1.345v-.537h-.521v.537h-1.305l-.52 1.346h-.521v-.272c-.085-.013-.6.24-1.047.272.147-.657.276-.594.521-1.08h-.521l-.263.808-1.832-.271c-.275.138-.189.606 0 .808h-.52c-.227.278-.453.373-.784.537v-.809c-1.17.101-.759.17-1.831 0v.272c.3.31.104 0 .263.537h-1.304c-.068-.013-.086-.348-.521-.272v.272h-.521a36.19 36.19 0 0 1-.263.808c-.294-.227-.037.032-.263-.271-.294-.228-.037.031-.264-.272.343-.221.307-.19.521-.537h-1.047c-.233.285-.46.354-.784.537v.272l-.784-.272v.272c.343.22.306.19.52.537h-.52c-.306-.367-.478-.41-1.047-.537v.537c-.49-.19-1.023-.266-1.832-.272-.288-.562-.422-.48-.52-1.345h-.521v-.537c-.294.227-.037-.032-.263.271h-.264v.537l-.52.272v.808h-.264c-.263-.36-.52-.72-.783-1.08h-.264c-.343-.6.141-.751-.52-1.345.085-.36.171-.72.263-1.08 0 0-.337-.133-.263-.537h.263v-1.346s.159 0 .263-.537c.723-.195.582-.075.784-.808h.521v.272l.784-.272v-.537l1.304.272c.19-.746.074-.6.784-.809v-1.08h.264l-.264-.537h.264c.22-.303-.031-.038.263-.271v-.272c.251-.499.263.537.263.537l.784.271v-.271h-.263c.086-.272.171-.537.263-.809h1.568v.272a164.96 164.96 0 0 0 1.831-.272v-.537h1.048v-.536c-.895-.013-1.807-.184-2.352-.272-.172.272-.349.537-.521.808l-1.568.272c.147-.657.276-.594.521-1.08h-1.047v.272h.263c.3.423-.643.252-.784.271v.809h-.263v.271c-.435.089-.87.177-1.305.272.086-.449.172-.897.264-1.346-.637.152-.582.278-1.048.537v.272c-.52-.177-1.047-.36-1.568-.537v.272c-.3.31-.104 0-.263.537-.429.082-1.139.562-1.304.537v-.272h-.784c-.362-.076.098-.354-.264-.272l-.263.537h-.521l.264-.537h-.264c-.3.31 0 .108-.52.272v.537c-.435.088-.87.177-1.305.271-.049-.012-.086-.385-.52-.271v.271h-.521v.272c-.257-.057-.306-.726-.52-.537-.429.367.287.518-.784.809v.808h-.264v-.537h-.263c-.086.177-.172.36-.263.537h-1.048c-.312-.587-.575-.89-1.304-1.08v.272h-1.047l-.264.537-.784-.272v.808h-.52c-.643 1.131-.582.316-1.305.809.086.177.172.36.264.537-.521-.089-1.048-.177-1.568-.272-.025.007-.135.468-.521.537v-.272h-1.047l-.264-.271v.271c-.741.493-.765.777-2.088.809-.294-.461-.165-.366-.784-.537v.537h-.521v-.272c-.33-.107-.685.765-.783.809-.539.246-.748-.234-1.048-.272v.272c-.52.088-1.047.177-1.568.271l-.263-.808c-.723.196-.582.076-.784.808-.784.089-1.568.177-2.352.272l-.263.537h-1.831v.272c-.68.208-1.219.025-1.831.271-.147-.657-.276-.594-.521-1.08-.294.228-.037-.031-.263.272-.919.67-.062.96-1.305 1.345v.272h-1.304l-.264.537c-.581.24-.735-.335-1.047-.272v.272c-.52.107-.331-.12-.521-.272h-.263v.537a36.52 36.52 0 0 1-.784-.272v-.271l-.784.271v-.271h-1.047l-.263-.537c-.368 0-.123-.082-.264.271-.324-.309-.098 0-.263-.537h1.047v-.536h-1.047c-.245-.487-.361-.424-.521-1.08h.521c-.153-1.112-.282-1.289-.784-2.426-.343.139.074.107-.263.272h-.784v.271c.526.152.226-.031.52.272-.747-.026-1.12-.05-1.568-.272v.272c.301.31.105 0 .264.537-1.28 0-1.488.31-2.352.537v-.809h-.263v.272h-.264l-.52-.272v.809h-.784v-.537h-.264v.537h.264v.808c-.87-.006-1.182-.139-1.831-.271v.536c-.619-.031-.662-.082-1.048-.271v.271c-.3.31-.104 0-.263.537-1.378-.158-.6-.58-1.831-.271v-.537c-.417-.063-.331.46-.521.537-.98.379-1.788.151-2.615 0v.808l-.52-.271v.271c-.527.461.024.41-.264.809h-.263c-.631-.973-2.444-.165-3.656 0v.808c-.49-.139-1.428-.966-1.832-.808v.271h-.263v.809c-.784.088-1.568.177-2.352.271v.537h.264a41.56 41.56 0 0 1-.264.809c-.618-.032-.661-.082-1.047-.272v.272h-.264v-.809h-.52v.809h-.263V29.7h-1.048v.272l-.52-.272v.272c-.576.183-.864.082-1.305.271v.809c-1.304.202-1.292.24-2.352-.537l-.263.809H80.81v.271c-.35.089-.698.177-1.047.272v-.537h-.521c-.16.947-.282 1.238-1.305 1.345v-.271c.3-.31.105 0 .264-.537-.35-.089-.698-.177-1.047-.272v-.271c-.497-.158-.362.151-.521.271l-.784-.271v.271h.263v1.08h-.52v-.537c-.717.43-.472.664-1.568.809-.19.745-.073.6-.784.808-.704.86-1.525.651-2.615.537v-.537h1.047a40.881 40.881 0 0 0-.263-.808c-.398.158-.429.208-1.047.271-.043-.732-.086-1.623-.521-1.888v-.272c.19-.284.202.234.52-.271h-.52c-.466-.285.52-.272.52-.272-.146-.657-.275-.594-.52-1.08h.784c.214.354.184.316.52.537-.636-1.415-.961-2.723 1.305-2.697.3.31 0 .107.52.271.086-.448.172-.897.264-1.345h-.52v.537h-.521l.263-.809h-.263c-.196.512.184.278-.263.537-.344-.316.312-.41-.264-.537v.537l-.52-.271v.271h.263c-.172.36-.35.72-.52 1.08h-.264v-.808h-.263v.271h-.784c-.172.272-.35.537-.521.809h-.52v.271h-.785v.272h-.52v.272c-1.053.385-1.843-.373-2.352 0-.71.474-.827 1.49-1.047 1.617H61.48c-.3-.31 0-.108-.52-.272v-.537h-.264c.086.36.172.72.264 1.08h-.264c-.496.442-1.384.285-2.088.537v.272c-.386.126-1.023-.29-1.047-.272v.537h-1.305c-.263.632-.52 1.257-.784 1.889h-.263v-.809h-.52c-.056.638-.111.67-.264 1.08-.294-.227-.037.032-.264-.271-.3-.31-.104 0-.263-.537.447-.303.355-.17.52-.809h-.783v1.617c-.435-.088-.87-.176-1.305-.271v-.272c.3-.31.104 0 .264-.537h-.521l.263-.537h-.263c-.3.31 0 .108-.52.272-.068.524-.258.524-.264.537-.416 1.326.233 1.724-1.304 1.889v-.537c-.362.132-.576.107-1.048.271v.272a42.98 42.98 0 0 1-.784-.272v.272h-.52l.263.537h-1.568v.271c.3.31.104 0 .264.537-.423-.019-1.832-.271-1.832-.271-.085.177-.171.36-.263.537-.71.397-.833.069-1.304 0v.271h-.521l-.263.537c-.435.088-.87.177-1.305.272v.271a67.123 67.123 0 0 1-1.047-.271c-.435.088-.87.176-1.305.271v.272c-.778.227-1.06-.43-1.568-.537v.272c-.3.31-.104 0-.263.536h-1.047l-.264-.271c-.134.063-.073.48-.52.537v-.272l-.784-.271v.271c-.263.089-.52.177-.784.272v-.537c-.471.252-.41.373-1.047.537v.537h-.264v-.809c-1.47-.019-2.59-.644-3.135-1.617l.52-.271c.019-.38-.257.113-.263-.272.086-.448.171-.897.263-1.345h.52c-.575-1.68.644-2.615.785-4.315a15.276 15.276 0 0 1 2.872-.271v-.809h.784c.178-.79.288-.884 1.047-1.08v-.537c1.525-.36.147-.682 1.568 0v-.537c.582-.113.894-.259 1.305-.537v-.271c.52-.05.184.41.52 0 .3-.31.104 0 .264-.537h.52c.3-1.093.533-.537 1.048-1.346.52.177 1.047.36 1.567.537v-.271h.264v-1.08c-1.5.031-1.917.22-3.136 0-.147.846-.257 1.13-1.047 1.345v-.537h-.52v.809c-.534.29-1.03.796-1.832.808l-.263-.271c-.944.732.085 1.257-1.832 1.345l.264-1.08h-.52v.271h.262c.019.095-.447.973-.52 1.346h-.52v-.537h-.521v.537l-.264-.272c-.52.177-1.047.36-1.567.537-.086.177-.172.36-.264.537-.343.152.055-.202-.263-.271-.263.088-.52.176-.784.271v-.271h-.784v-.272h-.263v.271s-.723-.246-1.048-.271c-.171.448-.349.897-.52 1.345-.227-.082-.576-.518-1.047-.271v.271h-.264v.809h-.263v-.809h-.263v1.08c.042.38.275-.113.263.272l-.263.272c-.454-.234-.092-.032-.264-.537h-.263v.537l-1.305.271.264-.537h-.264c-.404.468-.471.266-1.047.537v.272c-.386.152-.998.07-1.047-.272h-.264v.809h-.263v-.272h-.263v.537h-.52v.537c-.662-.215-1.618-.019-2.873 0-.086.632-.172 1.257-.264 1.889h-.52v-.537c-.398.158-.429.208-1.047.271v.809c-.521.177-1.048.36-1.568.537v.271h-.52v.272c-1.28.499-1.581-.417-2.353.808h-.263l.263.272c-.085.272-.171.537-.263.808-.35-.088-.698-.176-1.047-.271v.808c-.925.102-.796.335-1.568.537v-.537h-.264v.809c-.52.088-1.047.177-1.567.272l-.264.808h-.52c-.086.272-.172.537-.264.809H4.48v-.809h-.263l-.264.537-.784-.272v-.271c-.508-.133-.349.151-.52.271l-1.047-.271.263-.272v-.271h-.263v-.809h.263v-.272h-.52c-.007-.897-.136-1.219-.264-1.888H.56c-.466-.284.52-.272.52-.272.086-.271.171-.537.263-.808 1.348.063 1.293.511 1.305-1.08.435-.089.87-.177 1.304-.272v-1.08l.784-.272c.3-.31 0-.107.52-.271v.537h.521v-.537c.264.088.521.177.784.271v-.537H6.3l.263-.808h.264v-.272h.784c-.006-.379.055-.076-.264-.271v-.272h.784v-.272h.264l.263.537c.87.177 1.74.36 2.615.537.024-1.01.239-1.238.52-1.889.264.089.521.177.784.272v-.537h.784l-.263.537h.263v-.271h.521c.288-.234.116-.651.52-.809.233.24.099.455.521.537.172-.272.35-.537.52-.809h.785v-.271h.263v-1.08h.52v.537c1.115-.108 1.183-.556 2.09-.809.207-.872.483-.928.52-2.154h2.351v.272l.784-.272v-.271c.392-.108.355.48.52.536l.785-.271v.537h.263v-.537c.294-.227.037.032.264-.272l-.521.272v-1.08h.263v-1.08h1.305l-.264.808h.784c.417-.524.95-.72 1.305-1.345.27.233.361.467.52.808.264-.177.521-.36.784-.537v-.271h.52l.264-.537c.172.088.35.177.52.271.35-.271-.318-.454.264-.536v.271c.264.089.52.177.784.272v-.537c-.3-.31-.104 0-.263-.537.674.126 1.157.259 2.088.272.374-.575.686-.544 1.305-.809l-.264-.808h1.048v-.272h.263v.272h.52v-.537c1.483-.044.974-.417 1.832-.809h1.047v-.271c.3-.31.104 0 .263-.537h.784v.537h.521c.214-.866.306-.784 1.304-.809v.537c.613-.29.852-.619 1.568-.808v-.81h.52v-.536c1.379.006 2.065-.316 3.137-.537.19.745.073.6.784.809a41.56 41.56 0 0 0-.264-.809h.264c.287-.379.912-.79 1.304-1.08v-.271h.784v.271h.263v.809h.264c.086-1.074.27-1.245 1.304-1.346v.272c.35.126-.098-.17.264-.272 1.047-.177 2.088-.36 3.135-.537-.263-.84-.147-.41 0-1.345.637-.152.576-.278 1.047-.537v.272h.264c.208.398-.264.537-.264.537l.264.536c.6-.518.33-.808 1.304-1.08.086-.271.172-.537.264-.808.747.316 1.23.511 2.352.537.263-.537.52-1.08.783-1.617h.521l.263.537 1.832-.537v-.272h1.83l.264-.537h.52c.166-.739.344-.613.521-1.345.35.088.698.177 1.047.271v-.271c.288-.24.056.044.264-.272h-.263c-.258-.448.373-.227.52-.271v-.272c.264.088.52.177.784.272-.086.176-.172.36-.263.536h.263c.82-.972 1.537 0 2.615.272.178-.354.325-.29.52-.537l-.263-.537h.521v-.271l.52-.272c.037-.379-.055.044-.263-.272l.264-.537c.881.19 1.004.588 1.83.809v-.809c.717.171.595.354 1.305.537v-.808c.288.088.515.48 1.048.271v-.271h.784V4.87c.52-.448 1.047-.897 1.567-1.345v-.537h.52v.272c.362.075-.048-.057.264-.272l.52.272-.263.808c1.458.114 2.2.48 3.136-.537-.514-.303-.612-.379-.784-1.08l.784-.272c.086.177.172.36.264.537h.52v-1.08c.57.114.747.177 1.047.537l1.568-.537-.263-.537h1.304V.563l.129.063Zm-2.61 4.042v.537h.264v-.537h-.263Zm232.821.537v.537h.264v-.537h-.264Zm-232.036.809v.536h.263v-.536h-.263Zm-3.656.536v.537h.263V6.55h-.263Zm229.158.809c.3.31 0 .107.52.272-.3-.31 0-.108-.52-.272Zm-20.64.272c.3.31 0 .107.521.271-.3-.31 0-.107-.521-.271Zm-220.277.808c.024.916 0 .98.52 1.345v-.271h-.263v-1.08h-.263l.006.006Zm216.358.272c.3.31 0 .107.52.271-.3-.31 0-.107-.52-.271Zm-28.485.265v.537h.263v-.537h-.263Zm18.294.272-.264.537s.76-.43.521-.537h-.263.006Zm26.91 0h.521c-.221.303.031.037-.263.271v.272c-.301-.31-.104 0-.264-.537l.006-.006Zm-231.252.271c.3.31 0 .108.52.272-.3-.31 0-.108-.52-.272Zm146.594.265v.537h.264v-.537h-.264Zm-143.716 1.08v.272h-.263c-.496.234.52.272.52.272.221-.303-.03-.038.264-.272-.3-.31 0-.107-.52-.271Zm200.68 0v.272h-.264c-.496.234.521.272.521.272.22-.303-.031-.038.263-.272-.3-.31 0-.107-.52-.271Zm66.891 0v.272h-.264c-.496.234.521.272.521.272.22-.303-.031-.038.263-.272-.3-.31 0-.107-.52-.271Zm-175.073.272v.537h.263v-.537h-.263Zm-64.54.266v.536h.264v-.537h-.264Zm66.891 0v.536h.264v-.537h-.264Zm48.341 0c.441.58.52.536.52.536.19-.258-.453-.473-.52-.537Zm66.897 0c.441.58.52.536.52.536.19-.258-.453-.473-.52-.537Zm18.551 0v.536h.263v-.537h-.263Zm48.34 0c.441.58.52.536.52.536.19-.258-.453-.473-.52-.537Zm-286.911.543h-.521v.271h.263v.272h.264v-.537l-.006-.006Zm3.398 1.617h.521c-.086-.36-.171-.72-.263-1.08h-.264v1.08h.006Zm200.68 0h.521l-.264-1.08h-.263v1.08h.006Zm66.891 0h.521l-.264-1.08h-.263v1.08h.006Zm-270.443-.543v1.08h.263v-1.08h-.263Zm66.891 0v1.08h.264v-1.08h-.264Zm133.789 0v1.08h.263v-1.08h-.263Zm38.669.543v.808h.264a2.611 2.611 0 0 1 1.047-1.08v-.271h-.521c-.294.46-.165.366-.784.536l-.006.007Zm28.222-.543v1.08h.263v-1.08h-.263Zm-149.724.271v.537h.263v-.537h-.263Zm66.891.537h.52v-.272c-.294-.227-.037.032-.263-.271h-.264v.537l.007.006Zm-146.068-.265v.808h.263v-.808h-.263Zm66.891 0v.808h.263v-.808h-.263Zm114.453 1.074c.19.745.074.6.784.808.166-.739.343-.613.521-1.345h-.263c-.331.511-.264.448-1.048.537h.006Zm2.352-.537v.537c.686-.02.888-.108 1.305-.272v-.272h-1.305v.007Zm-137.965.271v.809h.263v-.272c.294-.227.037.032.264-.271l-.521-.272-.006.006Zm66.891 0v.809h.263v-.272c.294-.227.037.032.264-.271l-.521-.272-.006.006Zm66.891 0v.809h.264v-.272c.294-.227.036.032.263-.271l-.521-.272-.006.006Zm66.897 0v.809h.264v-.272c.294-.227.036.032.263-.271l-.52-.272-.007.006Zm-167.497.266v.536h.264v-.537h-.264Zm121.246 0c.441.58.52.536.52.536.19-.258-.453-.473-.52-.537Zm-138.229.543v.808h-.52v.537l.52-.271.264-.809c.293-.227.036.032.263-.272h-.521l-.006.007Zm10.975 0v.537h.263v-.537h-.263Zm66.891 0v.537h.264v-.537h-.264Zm41.028.537h-.784v.537h.52c.245-.487.362-.424.521-1.08h-.263v.536l.006.007Zm25.863-.537v.537h.264v-.537h-.264ZM145.17 16.253v-.537c-.294.227-.036-.032-.263.271h-.263c.3.31 0 .108.52.272l.006-.006Zm66.108-.537v.808h.263c.3-.31 0-.107.521-.271v-.537h-.784Zm37.101.537v-.537h-.783v.271h.263c.3.31 0 .108.52.272v-.006Zm30.574 0v-.537c-.294.227-.037-.032-.264.271h-.263c.3.31 0 .108.521.272l.006-.006Zm20.645-.537v.537c.294-.228.037.031.264-.272h.263c-.3-.31 0-.107-.521-.272l-.006.007Zm37.102.271v.537h.263v-.537h-.263Zm-172.979 1.074h.521c-.22-.303.031-.038-.263-.272v-.537h-.264v.81h.006Zm-73.689-.537v.537h.264v-.537h-.264Zm66.898 0v.809h.263v-.809h-.263Zm133.782 0v.537h.263v-.537h-.263Zm50.955 0c.3.31.104 0 .263.537h-.263v-.537Zm15.942 0v.537h.263v-.537h-.263Zm-304.158.272v.537h.263v-.537h-.263Zm66.891 0v.537h.263v-.537h-.263Zm133.788 0v.537h.264v-.537h-.264Zm66.891 0v.537h.264v-.537h-.264Zm-184.474.265c.025.057.374.979.521.808v-.271h.263c-.226-.278-.453-.373-.784-.537Zm67.412 1.352h.521v-.537h-.521l.263-.537a36.52 36.52 0 0 1-.784-.272v.272c.356.316.398.493.521 1.08v-.006Zm-68.98-1.08.264.808h.263c-.159-.644-.086-.499-.52-.808h-.007Zm66.892 0c.085.271.171.537.263.808h.263c-.159-.644-.085-.499-.52-.808h-.006Zm4.967 0h-.521c.22.303-.031.038.263.271v.272h.264v-.537l-.006-.006Zm103.215 1.08h.52v-.537h.263c-.085-.177-.171-.36-.263-.537-.294.227-.037-.032-.263.272h-.264v.808l.007-.006Zm-218.19-.809c.3.31 0 .108.521.272-.3-.31 0-.108-.52-.272Zm44.421 0v.809h.263v-.809h-.263Zm66.891 0v.809h.263v-.809h-.263Zm4.967 0h-.521c.221.303-.03.038.264.272v.271h.263v-.536l-.006-.007Zm30.31 0v.809h.263v-.809h-.263Zm66.897 0v.809h.263v-.809h-.263Zm-264.44.265v.538h.263v-.538h-.264Zm12.279 0v.538h.263v-.538h-.263Zm66.897 0v.538h.263v-.538h-.263Zm17.503.544v-.537c-.293.227-.036-.032-.263.271h-.263c.3.31 0 .108.52.272l.006-.006Zm49.388-.544v.538h.263v-.538h-.263Zm20.119 0v1.617h.263V17.87h-.263Zm33.445 0v.538h.264v-.538h-.264Zm1.048 0v.538h.263v-.538h-.263Zm12.279 0v.538h.263v-.538h-.263Zm53.571 0v.538h.263v-.538h-.263Zm1.047 0v.538h.263v-.538h-.263Zm12.279 0v.538h.264v-.538h-.264Zm-274.105.272c.3.31 0 .108.52.272-.3-.31 0-.108-.52-.272Zm66.891 0c.3.31 0 .108.521.272-.301-.31 0-.108-.521-.272Zm200.679 0c.301.31 0 .108.521.272-.3-.31 0-.108-.521-.272Zm-182.128.537.263.808h.264c-.16-.644-.086-.498-.521-.808h-.006Zm66.897 0c.086.272.172.537.264.808h.263c-.159-.644-.086-.498-.521-.808h-.006Zm16.983.272v.537h.264v-.537h-.264ZM50.836 20.295c-.19-.745-.074-.6-.784-.809.086.36.171.72.263 1.08h.784v.272c.368.05-.098-.19.264-.271h1.047v-1.08c-.294-.228-.037.031-.263-.272h-.521v.271h.263c.086.487-.649.708-1.047.81h-.006Zm33.972-1.074-.263.537s.76-.43.52-.537h-.263.006Zm200.679 0-.263.537s.76-.43.521-.537h-.264.006ZM40.124 20.567h.52v-.272c-.293-.227-.036.032-.262-.272h-.264v.537l.006.007Zm9.144-.537v.537c.294-.228.037.031.263-.272h.264c-.3-.31 0-.107-.52-.272l-.007.007Zm57.747.537h.521v-.272c-.294-.227-.037.032-.263-.272h-.264v.537l.006.007Zm9.15-.537v.537c.294-.228.037.031.264-.272h.263c-.3-.31 0-.107-.521-.272l-.006.007Zm66.891 0v.537c.294-.228.037.031.264-.272h.263c-.3-.31 0-.107-.521-.272l-.006.007Zm124.645.537h.52v-.272c-.294-.227-.036.032-.263-.272h-.263v.537l.006.007Zm9.144-.537v.537c.294-.228.036.031.263-.272h.263c-.3-.31 0-.107-.52-.272l-.006.007ZM45.091 21.647v-.537l-.784.271.264 1.08h-.264v.272c-.612.089-1.219.177-1.831.272v.537c.343.05 1.623.328 1.831.271l.264-.537.783.272c.086-.448.172-.897.264-1.345h.263c.3-.31 0-.108.52-.272v.537h1.305v-.537h.52c-.17-.537-.348-1.08-.52-1.617h-.263l-.264.808c-.373.272-1.506.487-2.088.537v-.012Zm29.526-1.352v.808h.263v-.808h-.263Zm-35.013.543v.537h.263v-.537h-.263Zm40.764 0v.537h.263v-.537h-.263Zm26.127 0v.537h.263v-.537h-.263Zm66.891 0v.537h.263v-.537h-.263Zm77.609 0c.3.31 0 .108.52.272-.3-.31 0-.107-.52-.272Zm30.052 0v.537h.264v-.537h-.264Zm26.127 0v.537h.264v-.537h-.264Zm-237.524.265c.3.31.104 0 .263.537h-.263v-.537Zm66.634.272c.294.461.165.366.784.537-.227-.278-.453-.373-.784-.537Zm29.789.537h.521v-.271c-.294-.228-.037.031-.264-.272h-.263v.537l.006.006Zm-96.944-.265h.521v.271c-.526-.151-.227.032-.52-.271Zm72.906 0c.3.31.104 0 .263.537h-.263v-.537Zm70.29 1.074h-.521v-1.08h-.263v.271c-.3.31-.104 0-.263.537.263.177.52.36.784.537.22.303-.031.038.263.271v-.536Zm-72.642-.809v.537h.263v-.537h-.263Zm-85.711.543v.537h.263v-.537h-.263Zm66.897 0v.537h.263v-.537h-.263Zm57.747.266c.3.31 0 .107.521.271-.301-.31 0-.107-.521-.271Zm-92.767.808v-.537c-.294.228-.037-.031-.263.272h-.263c.3.31 0 .107.52.271l.006-.006Zm133.789 0v-.537c-.294.228-.037-.031-.264.272h-.263c.3.31 0 .107.52.271l.007-.006Zm-157.043.543v.537h.263v-.537h-.263Zm5.23 0v.537h.263v-.537h-.263Zm-19.598.266v.537h.263v-.537h-.263Zm20.902.543c-.012 1.093-.122 1.162.521 1.617v-.272c-.44-.58.202-1.301.52-1.888h-.263c-.294.46-.165.366-.784.537l.006.006Zm4.704-.543c.3.31 0 .107.52.271-.3-.31 0-.107-.52-.271Zm13.584 0a41.56 41.56 0 0 1-.263.808h.263v-.271c.11-.158.429-.038.263-.537h-.263Zm27.701 0v.537h.263v-.537h-.263Zm87.8.543c-.012 1.093-.123 1.162.52 1.617v-.272c-.441-.58.202-1.301.521-1.888h-.263c-.294.46-.166.366-.784.537l.006.006Zm4.703-.543c.3.31 0 .107.521.271-.3-.31 0-.107-.521-.271Zm-116.805.271v.537h.264v-.537h-.264Zm29.269.537h.52v-.271c-.294-.228-.036.031-.263-.272h-.263v.537l.006.006Zm37.628-.537v.537h.264v-.537h-.264Zm23.255 0c.3.31.104 0 .263.537h-.263v-.537Zm-57.49.272c-.086.177-.172.36-.264.537l.521.271c.19-.322-.551-.233 0-.808h-.263.006Zm-32.141.265-.264.809h.264v-.537h.263v-.272h-.263Zm66.897 0-.263.537s.759-.43.52-.537h-.263.006Zm-137.187 1.08h.52v-.271c-.294-.228-.037.031-.263-.272h-.263v.537l.006.006Zm147.115 0h-.521c.221.303-.031.038.263.272v.271h.264v-.536l-.006-.007Zm-138.229.537v.537h.264v-.537h-.264Zm37.629 0v1.08h.263v-.271h.263c-.085-.177-.171-.36-.263-.537h.263c-.3-.31 0-.108-.52-.272h-.006Zm96.159 0v.537h.264v-.537h-.264Zm39.454 0c-.3.31 0 .107-.521.272v.271h.521c.086-.177.172-.36.263-.537h-.263v-.006Zm-121.766.809-.263.537s.76-.43.52-.537h-.263.006Zm-9.928.543v.537h.264v-.537h-.264Zm5.751 0v.537h.264v-.537h-.264Zm-12.285.537h.52c-.214.353-.184.316-.52.537v.271h-.264l.263-.808Zm9.15 0-.264.537s.76-.43.52-.537h-.263.007Zm-20.125 1.08v.537h.263v-.537h-.263Zm-20.12 1.345v.537h.264v-.537h-.263Zm5.752.272v.808h1.047v.537h.784c.214-.354.183-.316.52-.537v-.808c-1.09.196-1.096.07-2.351 0Zm-21.166.537c.3.31 0 .107.52.271-.3-.31 0-.107-.52-.271Zm54.09.271v.537h.264v-.537h-.263ZM7.72 36.465a50.73 50.73 0 0 1-.263.809h.263v-.537h.263v-.272H7.72Zm33.709.272v.537h.263v-.537h-.263Z" fill="#FDE6AD"/></svg>