<svg width="364" height="42" viewBox="0 0 364 42" fill="none" xmlns="http://www.w3.org/2000/svg">
<path fill-rule="evenodd" clip-rule="evenodd" d="M89.4248 0.112954C90.6854 0.384561 90.8718 1.07935 92.3374 1.19304C92.5485 0.782472 92.8652 0.169759 93.66 0.384518V0.656159C94.3369 0.908817 93.9581 0.384586 94.4549 0.9278H94.7219V2.00789L95.2498 2.27945V2.81641H95.5168C95.6037 3.08802 95.6906 3.35325 95.7838 3.62486H94.7219V4.43338C93.9891 4.62919 94.1319 4.5092 93.927 5.24191C93.0017 5.4693 92.6913 5.9241 91.5425 6.05043C91.5611 6.75787 91.648 6.96632 91.8095 7.39584C90.9028 7.32635 89.7292 7.18104 89.6919 7.12419V7.66108H89.9589C90.7973 7.66739 89.164 7.93272 89.164 7.93272C88.8287 7.50952 88.4562 7.27579 87.8414 7.12419C87.4439 7.8569 86.9223 8.27379 85.9846 8.4696V7.93272L85.4567 8.20428C85.3014 8.61485 85.2518 8.64649 85.1897 9.28445C84.6308 9.32866 83.5875 9.52446 83.3329 9.82133C83.01 10.2003 83.5688 10.1182 82.805 10.6299V9.54969H82.538V10.6299H81.7431V10.0929C81.3395 10.2508 81.3085 10.3014 80.6812 10.3645V9.82765L79.8864 10.0992C79.7125 10.5603 79.6318 10.9457 79.6194 11.7163H78.2966C78.2966 11.7163 78.0295 12.1458 77.7687 12.2531V12.5248H77.5017V11.9878H76.9739V11.7163H76.7068V11.9878H75.9119V12.2595C75.4523 12.6764 75.3531 13.5228 75.1171 14.1481C74.1422 14.0533 73.3721 13.6744 72.7325 14.4197C72.6455 14.6913 72.5586 14.9566 72.4655 15.2282C71.7575 15.3166 71.0495 15.4051 70.3478 15.4998V15.7714L69.82 16.043V16.5799L69.0251 16.3083L68.7581 16.8452H67.9632C67.9198 16.8705 67.6527 17.2495 67.4353 17.3821V17.6537C66.9944 17.5653 66.5536 17.4768 66.1127 17.3821V17.1105C65.9574 17.0916 65.2059 17.5653 64.7899 17.6474C64.6098 18.159 64.4483 19.296 64.262 19.8013L63.4672 19.5297V19.2581C63.1008 19.1886 63.5727 19.4539 63.2001 19.5297C62.5667 19.656 62.517 19.3275 62.1382 19.2581L61.6105 20.0666H60.5484V20.3382L59.7537 20.6098V21.4183H60.2814V21.69H60.0144C59.8716 21.8163 57.8905 22.3721 57.8968 21.69H57.6298V22.2268L56.3071 21.9552C56.3195 22.9216 56.245 23.6543 55.7792 24.1091V23.8375H55.5122V22.7574H54.9843C54.9657 23.4648 54.8788 23.6733 54.7173 24.1028C54.1646 23.9386 53.6368 23.7997 53.1275 24.3744V24.9113H52.8605V25.1829L51.2708 24.9113C51.1838 25.0882 51.0969 25.2714 51.0038 25.4482C50.6498 25.5366 50.2959 25.6251 49.9419 25.7199V26.2567H48.88V26.7936C48.2466 26.6673 48.0478 26.4841 47.5572 26.2567V27.6021C46.9362 27.6906 46.3214 27.779 45.7004 27.8737V28.1453C44.9242 28.3285 44.8311 28.4422 44.6386 29.2254C45.0112 29.2444 44.6013 29.1813 44.9055 28.9539C45.3216 28.6444 45.1539 29.617 45.1725 29.7623C44.7192 30.0655 44.8124 29.9329 44.6448 30.5708C44.9987 30.4824 45.3527 30.394 45.7066 30.2993L45.9736 29.7623C46.0233 29.756 46.5946 30.015 47.0355 30.034V29.4971C47.3025 29.5855 47.5634 29.6739 47.8304 29.7686L48.0975 29.2318C48.4205 29.0738 48.8738 29.0864 49.1594 28.9601V27.88C49.7866 27.7726 50.6187 27.3684 51.544 27.6085V27.88H52.606V27.6085H53.1338V26.5283H53.6617V27.0652C54.4565 26.8883 55.2513 26.7052 56.0462 26.5283L56.3133 26.7999C57.0399 26.282 56.5554 25.8778 57.903 25.7199C58.2073 26.0294 57.903 25.8272 58.4309 25.9914V25.1829L59.7537 24.9113V24.3744C60.6293 24.5197 60.9583 24.7155 61.3433 24.3744H61.6105C61.9458 23.9576 61.3248 23.8312 61.8774 23.5659V23.8375H62.1444V23.029C62.7282 22.9343 63.5168 22.6753 64.262 23.029C64.3489 23.2059 64.436 23.3891 64.5291 23.5659H65.0569V23.029C65.5909 23.1806 65.2867 22.9974 65.5848 23.3006L66.3797 23.029V22.7574H67.1746C67.3484 22.4858 67.5284 22.2205 67.7023 21.9489C68.1432 22.0373 68.5842 22.1258 69.0251 22.2205V22.4921C69.2176 22.53 70.0001 22.2521 70.8819 22.2205L70.6149 21.412H71.1427V21.6836H72.2046L72.4717 21.9552V21.6836L73.2664 21.412C73.2478 20.7046 73.1609 20.4961 72.9994 20.0666H74.5892C74.8935 19.7571 74.5893 19.9593 75.1171 19.795C75.3221 18.9865 75.2786 19.0876 76.179 18.9865C76.4771 19.4476 76.3467 19.3528 76.9739 19.5234C77.2409 18.8475 77.5204 18.1148 78.0358 18.4433H78.3028V19.2517H78.8307C79.0232 18.5064 78.9052 18.6517 79.6256 18.4433V18.1717L81.2152 17.9001C81.2152 17.9001 81.3333 18.2917 81.7431 18.1717L82.0101 17.6348H82.805V17.0979L83.3329 17.3695V17.6411C83.6807 17.7737 83.3888 17.5147 83.5999 17.3695C84.2644 17.1863 84.0284 17.2305 84.3948 16.8326H84.6618V16.2957L85.1897 16.024C85.5002 15.683 85.6368 15.2408 85.9846 14.944V15.2156H86.7793C86.8663 15.5756 86.9533 15.9356 87.0465 16.2957H87.3135C87.9593 15.1966 88.7976 15.2977 90.2259 14.9503C90.3066 14.9313 90.2943 14.5776 90.7538 14.6786V14.9503C91.2817 15.1271 91.8157 15.3103 92.3436 15.4872V15.2156H92.6106L92.3436 14.4071C92.5175 14.3186 92.6975 14.2302 92.8714 14.1354C93.2377 13.5733 92.7534 13.7564 93.3993 13.3269V13.0553L94.7219 12.7837C94.5791 13.5354 94.517 12.809 94.7219 13.5922H94.989V13.0553C95.5169 13.1438 96.0508 13.2322 96.5787 13.3269V13.0553C96.8643 12.809 96.6285 13.0995 96.8458 12.7837H96.5787V12.5121H97.3736C97.4295 13.1501 97.4853 13.1817 97.6406 13.5922C97.9449 13.2827 97.7462 13.5922 97.9077 13.0553C98.212 12.7458 98.0132 13.0554 98.1747 12.5185C98.9696 12.2469 99.7645 11.9815 100.559 11.7099L100.826 11.9816C100.913 11.1099 101.069 11.192 101.354 10.6362H101.882V10.9077H102.149V10.6362H103.211L103.478 9.82765C104.167 10.1119 104.596 10.3203 105.596 10.3645C105.509 10.1877 105.422 10.0045 105.329 9.82765C105.509 9.53078 106.819 9.44865 107.185 9.01913L106.918 8.48225H107.185V8.2106C107.887 8.52643 108.185 8.72854 109.303 8.74749V8.47592H109.036V7.6674C109.874 7.84426 109.57 8.07795 109.831 8.20428C110.141 8.18533 110.775 7.66111 111.421 7.93272L111.688 8.4696H112.216C111.961 9.36022 111.967 10.055 112.482 10.8951H112.216C111.911 11.2046 112.215 11.0025 111.688 11.1667V12.5121H111.421C111.352 12.9606 111.669 12.9795 111.688 13.049V14.3944C110.737 14.4323 110.185 14.7797 109.57 14.9313L109.042 14.6597C108.868 14.9314 108.688 15.1966 108.514 15.4682C108.365 15.5314 107.067 15.2661 106.657 15.1966C106.496 15.9041 105.906 16.6242 105.068 16.542C105.068 16.542 104.925 16.2009 104.54 16.2704L104.807 16.8073H103.745C103.658 17.2557 103.571 17.7042 103.478 18.1527L102.155 17.8811L101.888 18.418C101.174 18.6012 101.193 17.9001 101.093 17.8811L100.298 18.1527L100.566 18.4243C100.578 18.5317 100.33 19.0307 100.298 19.5044C99.4166 19.5928 98.5348 19.6813 97.6468 19.7761V19.2392C97.0196 19.1823 96.9886 19.1254 96.5849 18.9675V19.7761C96.529 19.8898 94.7654 21.1341 95.79 21.6647H94.9953V21.393C94.7407 20.894 94.7281 21.93 94.7281 21.93C94.43 22.1574 94.6909 21.8984 94.4611 22.2015C95.2063 21.9489 95.2002 21.9173 96.0509 22.2015V22.4732L96.8458 22.2015L96.5787 21.93L96.8458 21.1215C98.0878 21.6078 98.9075 21.2794 99.7583 20.5846C99.8452 20.4077 99.9321 20.2245 100.025 20.0476H101.348C101.348 20.0476 101.323 19.8898 101.876 19.7761V20.5846H102.143V20.0476C103.273 20.0287 103.9 19.9908 104.527 19.5107L104.794 18.9739C105.235 19.0623 105.676 19.1507 106.117 19.2455C105.813 18.936 106.117 19.1381 105.589 18.9739V18.437C105.856 18.5254 106.117 18.6138 106.384 18.7085V18.1717H106.912V18.7085C108.446 18.5822 109.545 17.7043 110.619 17.0916V17.9001H111.147V17.3631H113.004V17.0916H113.799V16.8199C114.327 16.9084 114.861 16.9968 115.389 17.0916C115.612 16.7884 115.358 17.0536 115.656 16.8199V15.7398C116.184 15.6514 116.718 15.5629 117.245 15.4682C117.159 15.7398 117.072 16.0051 116.979 16.2767H117.245V16.5484C117.544 16.321 117.283 16.5799 117.512 16.2767C117.817 15.9672 117.618 16.2767 117.78 15.7398C118.196 15.7588 119.636 16.0114 119.636 16.0114V15.7398H119.903V14.9313C120.195 14.5523 121.096 14.6534 121.76 14.6597V14.9313L123.35 14.6597V14.3881H123.878V14.1165H124.673L124.406 14.925H124.673C124.865 14.1796 124.747 14.3249 125.467 14.1165V14.6534C125.735 14.565 125.995 14.4765 126.262 14.3818V14.1102C126.883 14.0218 127.498 13.9333 128.119 13.8386V13.5669H128.914L129.181 13.0301C129.405 12.9416 130.926 13.3143 131.299 13.5669V13.0301L132.094 12.7585V12.4869C132.454 12.3732 131.988 12.6827 132.361 12.7585C132.802 12.8469 132.832 12.4995 132.888 12.4869C133.373 12.3858 133.913 12.8406 134.211 13.0237V12.7522C135.037 11.9879 134.273 11.6089 135.801 11.4068V11.6783H136.596L136.329 12.2153C136.67 12.6511 136.826 11.9184 137.124 13.0237C137.471 12.7395 137.521 12.4743 137.919 12.2153V13.0237H138.446C138.359 12.4868 138.272 11.9437 138.179 11.4068C139.421 10.9772 139.074 11.6152 139.769 10.0614H140.036C140.005 10.6362 139.763 10.9835 139.769 11.1414L140.036 11.4131C140.52 11.072 140.067 11.0467 140.303 10.8762C140.607 10.6488 140.471 11.1225 140.57 11.1478C140.837 11.0593 141.098 10.971 141.365 10.8762V10.3392C141.961 10.2319 142.384 9.89714 143.222 10.0677C143.222 10.0677 143.234 10.4214 143.75 10.3392V10.0677H145.072V10.3392C144.439 10.5035 144.582 10.4277 144.278 10.8762H144.805C145.569 9.59396 146.842 10.0424 148.252 9.5308L148.519 8.72227C149.277 8.72227 149.655 8.81698 150.109 8.99384V7.91375H150.376C150.55 8.18536 150.73 8.45067 150.904 8.72227H151.171L150.904 9.25916H151.171V9.5308C151.928 10.0866 151.854 9.05069 152.233 10.3392H152.76V10.8762H153.288C153.201 11.1478 153.114 11.413 153.021 11.6847H153.288C153.468 12.0889 153.474 12.1332 153.555 12.7648H154.083V13.3017C154.493 13.5417 154.636 13.6997 154.878 14.1102C155.735 13.6365 155.381 13.4659 156.468 13.8386L156.201 13.0301H156.729V12.4932H157.256V12.7648H157.523V12.4932L158.318 12.7648L158.051 13.5733H158.579C158.772 12.8279 158.654 12.9733 159.374 12.7648C159.771 12.2911 160.088 12.2531 160.964 12.2279V11.691C161.492 11.5141 162.026 11.331 162.553 11.1541C162.572 11.8615 162.659 12.07 162.821 12.4995C163.119 12.2721 162.858 12.531 163.088 12.2279H163.355V11.4194C164.149 11.5078 164.944 11.5962 165.739 11.691V11.1541H166.267L166.534 10.3456C166.888 10.434 167.242 10.5225 167.596 10.6172C167.683 10.4403 167.77 10.2572 167.863 10.0803L169.186 10.3519V10.8888C169.863 10.4719 171.012 9.21494 171.837 9.80868H172.365V10.3456H172.632V9.80868C173.905 9.7392 173.912 9.61919 175.017 9.80868C175.104 9.36022 175.191 8.91175 175.284 8.46328C176.507 8.22957 177.433 8.22957 178.196 8.46328V7.9264H179.786V8.19796H180.581V8.4696C180.848 8.38117 181.109 8.29271 181.376 8.19796V7.9264C181.072 7.61689 181.27 7.92641 181.109 7.38951C181.978 7.40846 181.891 7.7306 182.432 7.38951L182.699 6.85255L184.288 7.38951V7.9264C185.002 7.9264 185.791 8.01479 186.145 7.65475V7.11787L186.673 7.38951V7.11787C187.201 7.02944 187.735 6.94105 188.263 6.84631C188.511 7.01054 188.17 7.23157 188.53 7.11787L188.797 6.58099C189.132 6.58099 189.474 7.061 190.12 6.85255V6.58099C190.56 6.49256 191.001 6.40409 191.442 6.30935L191.175 7.11787H191.442C192.032 7.76847 191.939 7.49689 192.765 7.38951C192.734 8.24223 192.25 7.89477 193.032 8.19796C193.15 8.8675 193.274 9.18971 193.299 10.0866C192.566 10.2825 192.709 10.1624 192.504 10.8951H192.237V12.2405C191.604 12.3668 191.405 12.55 190.914 12.7774V11.9689H190.647C190.256 13.4786 190.188 12.5248 189.325 13.049V13.3207L188.263 14.1291C188.35 13.8575 188.437 13.5923 188.53 13.3207H188.263C188.101 13.7502 188.027 13.9586 187.996 14.6661C186.996 14.8808 186.512 15.1903 185.083 15.203V14.6661H184.555V15.203H183.233V15.4745H183.5C183.332 15.8598 183.189 15.6766 182.972 16.0114H182.444L182.711 15.4745H182.444C182.183 15.8409 182.289 16.0051 181.649 16.0114C181.649 16.0114 181.463 15.6261 181.121 15.7398C181.034 15.9167 180.947 16.0999 180.854 16.2767H180.326L180.059 17.8938L178.997 18.1653V17.0852H178.47C178.277 17.9506 178.109 18.0643 177.147 18.1653L177.414 17.3568H177.147C177.048 17.6663 177.072 18.3169 176.619 18.1653L176.352 17.3568C176.085 17.4452 175.824 17.5337 175.557 17.6284V18.1653C175.135 18.0011 174.93 17.9253 174.234 17.8938V17.0852H173.967V17.8938C174.272 18.2033 174.073 17.8938 174.234 18.4306C173.613 18.5191 172.999 18.6075 172.378 18.7022V19.2392C171.44 19.3402 171.57 19.5739 170.788 19.7761V20.5846C170.142 20.433 170.204 20.3003 169.726 20.0476V20.5846H169.459V21.393H169.726V20.8561H170.254V21.393C170.695 21.3046 171.136 21.2162 171.577 21.1215V21.93H172.104V21.1215C172.545 21.2099 172.986 21.2983 173.427 21.393C173.551 20.7487 173.731 20.5466 173.955 20.0476C174.818 20.0539 175.868 19.9276 176.34 20.3193H176.607C176.694 20.1424 176.781 19.9592 176.874 19.7824H177.402V19.5107H177.929V19.2392L178.457 19.5107V19.2392H181.109C181.022 18.9676 180.935 18.7023 180.842 18.4306H181.37V18.159H181.637V18.4306L182.432 18.7022C182.45 19.0812 182.494 18.778 182.165 18.9739C182.463 19.2581 182.165 19.0939 182.692 19.2455V18.9739H182.959V18.1653H183.226C183.456 17.7927 183.425 17.6979 183.493 17.0852C184.121 17.0537 184.164 17.0031 184.555 16.8136V17.0852H184.822V17.3568L184.555 17.8938H185.35V17.3568C185.971 17.2684 186.586 17.18 187.207 17.0852V17.3568H187.474C187.772 17.142 187.375 17.0031 187.741 17.0852V17.3568H188.803V17.8938H189.07C189.157 17.3569 189.244 16.8136 189.337 16.2767H189.865V16.8136H190.132V16.0052C190.741 16.0304 190.821 16.2325 191.194 16.2767L191.461 15.7398C191.461 15.7398 192.187 15.9925 192.523 16.0114V15.4745L192.79 15.7462C193.144 15.6577 193.498 15.5693 193.852 15.4745V15.7462H195.174V14.9376H195.702V15.2093H195.969V14.9376L196.497 15.2093L196.764 14.4008C197.466 14.1355 197.317 14.9882 197.826 14.9376V14.6661C198.987 14.3881 199.285 14.0028 200.478 13.8575V14.1291H200.211C199.708 14.3628 200.739 14.4008 200.739 14.4008C200.962 14.7039 200.708 14.4386 201.006 14.6723V14.1354L202.328 13.8639C202.415 13.687 202.502 13.5038 202.595 13.3269L202.862 13.5986C204.434 13.6996 204.639 13.0364 205.514 12.5185V13.3269H205.781C206.085 13.0174 205.781 13.2196 206.309 13.0553V12.5185C206.576 12.6069 206.837 12.6953 207.104 12.79L207.371 12.2531H208.433V11.9816H208.7C208.861 12.6259 208.787 12.4805 209.228 12.79V11.9816C210.619 11.7542 210.401 11.95 211.612 12.5185C211.749 11.8868 211.997 11.5078 212.407 11.1731C212.711 11.4826 212.407 11.2804 212.935 11.4446V10.9077H213.73V10.3709C214.171 10.4593 214.612 10.5477 215.053 10.6424V11.1794H215.58V10.3709C216.158 10.4088 216.462 10.6424 216.642 10.6424V10.3709L217.437 10.0992C217.524 10.2761 217.611 10.4593 217.704 10.6362C218.549 10.8888 219.816 10.074 220.356 9.82765L220.089 9.01913H220.884C221.045 9.66341 220.971 9.51815 221.412 9.82765C221.635 10.1308 221.381 9.86551 221.679 10.0992C221.697 9.39177 221.784 9.18333 221.946 8.75381C222.474 8.66538 223.008 8.57699 223.535 8.48225C223.759 8.78543 223.504 8.5201 223.802 8.75381C223.598 9.02542 223.479 9.01916 223.275 9.29077H224.069L223.802 8.48225L224.069 8.2106C224.461 8.33693 224.492 8.52014 225.131 8.48225V8.2106H225.398V8.48225C225.752 8.57068 226.106 8.65906 226.46 8.75381V9.02545C227.541 9.44234 228.031 8.82967 228.578 9.29709C229.404 9.85294 228.702 9.64447 229.106 10.3772L229.634 10.6487V11.1857H229.901C230.143 11.5521 230.099 11.6594 230.168 12.2658L229.106 11.9941C229.317 12.8658 229.596 12.9227 229.634 14.1481C229.335 14.3755 229.596 14.1165 229.367 14.4197H229.1C229.019 13.6112 229.062 13.687 228.572 13.3396V13.6112H228.839C228.665 13.9712 228.485 14.3312 228.311 14.6913C227.622 14.7039 227.398 14.7482 226.988 14.9629V15.2345C226.535 15.3924 226.529 14.9819 226.46 14.9629C225.51 14.7166 224.908 15.304 224.604 15.7714H224.336C224.249 16.3083 224.163 16.8515 224.069 17.3884H223.542L223.275 16.8515C222.921 16.94 222.567 17.0284 222.213 17.1231C222.269 17.7611 222.324 17.7927 222.48 18.2033C221.865 18.178 221.803 17.9885 221.418 17.9316L221.151 18.4685C220.797 18.5569 220.443 18.6454 220.089 18.7401C219.896 19.4855 220.014 19.3402 219.294 19.5487C218.363 20.4014 217.58 19.2076 217.437 19.277V19.5487C216.996 19.8203 216.555 20.0855 216.114 20.3571C216.257 21.2983 216.375 20.8561 216.114 21.7025H216.382V21.431H217.443V21.9678L218.238 21.6962V21.4246L219.033 21.6962V20.8878C219.3 20.9762 219.561 21.0646 219.828 21.1593V20.8878L219.561 20.6161H221.151C221.238 20.8877 221.325 21.153 221.418 21.4246C221.592 21.3362 221.946 20.8878 221.946 20.8878C222.213 20.9762 222.474 21.0646 222.741 21.1593V20.8878C223.132 20.6793 223.181 20.6856 223.802 20.6161V20.0792H224.33V19.5423H225.392V20.0792C225.988 20.0098 226.094 20.0539 226.454 19.8076V19.536H226.982V19.2644H227.51V18.9928C227.982 18.6075 228.143 18.3864 228.832 18.1843V18.9928H229.894C229.981 18.5444 230.068 18.0959 230.161 17.6474H230.689C230.602 17.919 230.515 18.1843 230.422 18.4559H230.689C231.068 18.0706 232.167 17.7674 232.807 17.6474V17.1105C233.161 17.0221 233.515 16.9336 233.869 16.8389V16.0304H234.397V16.8389H234.924V16.0304H236.247C236.16 16.302 236.073 16.5673 235.98 16.8389H236.508C236.781 16.5294 236.999 16.321 237.57 16.302V16.5736H237.837L238.104 16.302C238.352 15.8156 238.47 15.8788 238.632 15.2218L239.427 14.9503V14.6786L239.694 14.9503L240.489 14.6786V15.4872H241.016C241.072 14.8492 241.128 14.8176 241.283 14.4071L241.811 14.6786V14.4071C242.19 14.0723 242.221 13.6617 242.606 13.3269C242.687 13.4532 243.147 14.306 243.401 14.1354L243.668 13.3269C244.817 13.2385 245.966 13.1501 247.115 13.0553V13.3269C246.382 13.5227 246.525 13.4027 246.32 14.1354C246.978 14.0154 247.295 13.8891 248.177 13.8639V13.5922H247.91V12.2468C248.351 12.3353 248.791 12.4237 249.232 12.5185C249.319 12.2469 249.406 11.9815 249.499 11.7099C249.804 12.0194 249.605 11.7099 249.766 12.2468L250.561 12.5185V12.2468C251.108 11.9436 251.039 11.83 251.884 11.7099V10.9014C252.449 10.8698 252.791 10.6235 252.946 10.6299L253.213 10.9014V10.3645L254.536 10.0929V10.6299C254.709 10.5414 254.889 10.453 255.063 10.3582V10.0866C255.486 10.0361 255.393 10.554 255.591 10.6235H256.653C256.74 10.1751 256.827 9.72659 256.92 9.27812C257.361 9.36655 257.802 9.45494 258.243 9.54969L258.51 9.01281H258.777V9.28445C259.044 9.19602 259.305 9.10755 259.572 9.01281V8.47592C259.876 8.78543 259.677 8.47591 259.839 9.01281H260.367C260.491 8.36853 260.671 8.1664 260.895 7.6674C261.776 7.68003 263.279 7.93904 263.279 7.93904V7.6674H263.807V7.39584H264.602C264.689 7.21897 264.776 7.03574 264.869 6.85888C265.136 6.94731 265.397 7.03577 265.664 7.13052V7.40216H266.987V6.8652L268.049 6.59363V7.13052H268.576C268.744 7.86954 268.924 7.74322 269.104 8.47592H269.899C270.092 9.22126 269.974 9.076 270.694 9.28445V9.82133C269.11 10.1498 269.322 10.9014 268.837 12.2468H270.427L270.694 11.1667C271.799 10.9962 271.445 10.9015 272.551 10.6299V11.1667C273.805 10.6298 273.619 10.6298 274.668 11.1667V10.6299C275.022 10.5414 275.376 10.453 275.73 10.3582V9.82133H276.258V10.0929H276.525V9.82133C277.127 9.70132 277.239 9.96025 277.587 10.0929V9.82133H277.32C276.829 9.56235 277.848 9.54969 277.848 9.54969V9.01281H278.376V8.47592C279.208 8.63383 279.556 8.91174 280.493 9.01281L280.76 8.20428C280.76 8.20428 280.195 8.16011 280.493 7.93272H281.021V8.20428H282.611V7.39584C283.455 7.5727 283.133 7.79376 283.406 7.93272C283.847 7.8885 283.896 7.40215 283.934 7.39584C284.443 7.25056 284.3 7.57265 284.461 7.6674H284.728V7.39584C285.082 7.48427 285.436 7.57265 285.79 7.6674C285.983 6.92206 285.865 7.06732 286.585 6.85888V7.39584H287.647C287.896 6.90947 288.014 6.97258 288.175 6.31567L288.97 6.58731V6.31567C289.144 6.22724 289.324 6.13885 289.498 6.04411V6.58099H290.026L289.759 5.77247C290.392 5.64614 290.591 5.46297 291.081 5.23558V6.31567C292.46 5.94932 292.025 5.72197 293.733 6.04411V5.23558H294.528V5.50722C294.416 5.66514 294.093 5.54511 294.261 6.04411H294.528C294.956 4.37656 295.093 5.58927 296.118 4.96394C296.72 4.59759 296.099 3.97226 297.44 3.61854V3.89018L298.235 3.61854V4.1555H298.502V3.61854C299.44 3.7196 299.309 3.95337 300.092 4.1555V4.69238C300.34 5.11558 301.986 5.19138 301.154 6.03778H301.682V7.11787L301.154 7.38951C301.141 7.47794 301.402 7.98955 301.421 8.4696H301.949C301.824 9.11388 301.644 9.31601 301.421 9.81501C300.949 9.84027 300.465 10.0993 300.359 10.0866V9.81501H299.297V10.0866L297.707 10.3582V10.8951C297.353 11.072 296.999 11.2551 296.645 11.432V11.1604H296.378V11.9689L294.522 12.5058C294.826 12.8153 294.522 12.6132 295.049 12.7774V13.049C295.515 13.2701 295.9 12.8911 296.111 12.7774V12.5058H296.906V11.9689C298.142 11.9058 298.415 11.5773 299.291 11.1604V10.8888H301.148V11.1604H300.881C300.576 11.4699 300.881 11.2677 300.353 11.432V11.9689C301.433 11.6531 300.632 11.7226 301.148 11.1604L301.675 11.432V11.1604H302.203V10.8888H302.998C303.278 10.7245 303.656 9.55603 304.321 9.80868V10.0803H304.849V9.2718C305.116 9.36023 305.377 9.44862 305.644 9.54337V9.2718C306.172 9.18337 306.705 9.09491 307.233 9.00016V9.53704H307.761C307.848 9.80865 307.935 10.074 308.028 10.3456H308.295V9.80868H308.823C308.978 8.80437 308.978 9.18971 308.823 8.19171C308.904 8.2233 311.375 8.77913 311.475 8.7286V8.45696H311.742V7.37687H312.009C312.549 7.86955 313.214 7.45266 314.126 7.37687V6.83998C314.661 6.99158 314.356 6.80836 314.654 7.11155C315.629 6.82731 315.381 6.56836 315.977 6.03146V5.75982C316.648 5.33662 318.07 5.74087 319.157 5.75982C319.324 5.0208 319.504 5.14712 319.684 4.41441C320.821 4.3702 320.591 4.24389 321.274 3.87753V4.68605H322.336C322.392 4.04809 322.448 4.01654 322.603 3.60597L323.398 3.87753L323.665 3.34065H324.193V3.06901C324.46 2.98058 324.721 2.89219 324.988 2.79744L325.255 3.60597C325.925 3.05644 325.367 2.95535 326.577 2.79744V3.06901C326.273 3.31535 326.267 3.26488 326.05 3.60597H326.317V3.87753C326.869 3.58066 326.789 3.44171 327.639 3.34065C327.863 3.64384 327.608 3.37858 327.906 3.61229C327.596 4.12392 327.683 3.87125 327.111 4.14917V4.42074H327.639C327.552 4.95763 327.466 5.50089 327.372 6.03778H327.639V6.30935H327.372V6.84631C327.459 7.47795 327.546 8.10327 327.639 8.73492H327.372C327.149 9.04442 327.236 9.11389 326.844 9.2718V9.00016H326.577C326.404 9.27177 326.223 9.53708 326.05 9.80868H325.255L324.988 10.3456C324.634 10.434 324.28 10.5225 323.926 10.6172C323.839 10.8888 323.752 11.1541 323.659 11.4257L322.864 11.6973L322.597 12.2342H322.33V11.9626C321.355 11.7289 321.051 12.8785 320.473 12.2342V12.7711H319.945C320.032 13.1312 320.119 13.4912 320.212 13.8512H319.945C319.647 14.3123 319.778 14.2176 319.15 14.3881C319.126 14.3313 318.772 13.409 318.622 13.5796V13.8512L318.095 14.1228C318.008 14.3944 317.921 14.6597 317.828 14.9313H317.033C316.145 15.3735 316.685 15.6451 315.176 15.7398C315.263 16.0114 315.35 16.2768 315.443 16.5484C315.797 16.4599 316.151 16.3715 316.505 16.2767V17.0852H316.772V16.8136H317.834C318.641 16.5041 319.014 16.062 320.218 16.0052V15.4682C320.97 15.2977 320.92 14.9692 321.013 14.9313H322.075V15.203L323.137 14.9313C323.137 14.9313 323.255 15.2661 323.665 15.203V14.9313L324.727 15.203V14.9313C325.031 14.6218 324.832 14.9313 324.994 14.3944H324.727V14.6661C324.497 15.1777 324.46 14.1291 324.46 14.1291C325.429 14.2175 326.404 14.306 327.372 14.4008L327.639 13.8639C327.906 13.7818 328.124 14.2807 328.701 14.1354V13.8639H330.024V14.1354H330.291V13.8639H331.353L331.62 13.0553H331.887L331.62 12.5185H332.415C332.719 12.828 332.415 12.6258 332.943 12.79V12.2531C333.576 12.3795 333.775 12.5626 334.265 12.79V12.5185H333.998C333.508 12.2595 334.526 12.2468 334.526 12.2468V12.5185C334.831 12.828 334.632 12.5184 334.793 13.0553C335.358 13.0238 335.694 12.7837 335.855 12.7837V13.0553H336.383C336.458 12.5753 336.65 12.5185 336.65 12.5185C336.563 12.2469 336.476 11.9815 336.383 11.7099H336.65V11.4383C337.401 11.7794 337.743 12.1331 338.768 12.2468V11.7099C340.314 11.3499 338.917 11.0278 340.357 11.7099V10.6299H340.624V10.9014C340.978 10.6298 341.332 10.3645 341.686 10.0929V11.1731H341.953C342.084 11.0467 341.879 10.7372 342.22 10.9014V11.1731H342.487C342.487 11.1731 342.413 12.1395 342.755 11.7099V11.4383C343.059 11.1288 342.86 11.4383 343.021 10.9014H342.227C342.432 10.0929 342.388 10.194 343.288 10.0929V10.3645L344.083 10.0929V10.3645H344.878V10.6362C345.561 10.7815 346.331 9.79604 346.735 9.55601L347.53 9.82765V9.55601C347.971 9.26545 347.971 9.18967 348.592 9.01913C348.505 9.29074 348.418 9.55604 348.325 9.82765H348.592V10.0992C348.859 9.92236 349.12 9.73919 349.387 9.56233V9.29077H349.915C350.393 9.07601 350.492 8.67802 350.709 8.2106C351.15 8.57064 351.591 8.93073 352.032 9.29077C352.194 8.76019 352.044 8.63384 352.56 8.48225C352.647 8.51383 352.641 8.98755 353.088 9.01913C353.653 8.25484 353.324 8.47588 354.15 8.74749C354.237 7.87582 354.392 7.95801 354.678 7.40216C355.603 7.54744 355.168 7.66745 356 7.40216V9.01913H356.267C356.565 8.55803 356.435 8.65279 357.062 8.48225C357.559 9.32865 358.043 9.24656 358.124 10.6362C358.851 10.6678 360.043 11.0088 360.242 10.6362H360.509V10.9077C361.241 11.0846 362.074 11.6594 362.365 12.2531V13.0617H362.633C362.999 13.5607 363.247 13.687 363.427 14.4071C363.16 14.3186 362.9 14.2302 362.633 14.1354V14.4071H362.9V15.2156H363.167C363.409 15.6135 363.403 15.8788 363.434 16.561C363.129 16.8705 363.328 16.561 363.167 17.0979C362.285 17.1863 361.403 17.2747 360.515 17.3695V16.8326C360.161 16.921 359.807 17.0095 359.453 17.1042V16.5673C359.279 16.6557 359.099 16.7441 358.925 16.8389C358.838 16.662 358.751 16.4789 358.658 16.302C358.652 16.302 357.876 16.6684 357.336 16.302L357.068 15.4935C356.758 15.2724 356.615 16.283 356.006 16.0304V15.7588C355.702 15.4493 355.901 15.7587 355.74 15.2218L354.945 15.4935V15.2218H354.678C354.765 14.9502 354.851 14.685 354.945 14.4134C354.945 14.4134 354.616 14.3313 354.678 13.8765C354.678 13.8765 355.118 13.7564 354.945 13.3396H354.678C354.373 13.6491 354.678 13.447 354.15 13.6112C354.063 13.8828 353.976 14.1481 353.883 14.4197C353.262 14.3439 353.224 14.3313 352.821 14.1481V13.8765C352.374 13.9081 352.374 14.3881 352.293 14.4134C351.691 14.6282 351.225 14.0786 350.97 14.1418V14.4134C350.07 14.7798 349.871 15.2535 348.853 15.4935C348.94 15.2219 349.027 14.9566 349.12 14.685H348.592C348.201 15.4177 347.778 15.9167 346.735 16.0304V15.2218H346.468C346.263 16.0303 346.307 15.9293 345.406 16.0304V15.4935C344.301 16.1062 344.152 16.0431 342.755 15.7651V15.2282H342.487C342.469 16.2704 342.531 16.3399 341.692 16.5736V16.8452C341.438 17.3442 341.425 16.3083 341.425 16.3083H340.898C340.811 16.4852 340.724 16.6684 340.631 16.8452C340.19 16.7568 339.749 16.6683 339.308 16.5736V17.1105H338.513V17.3821C338.209 17.6916 338.408 17.3821 338.246 17.919L336.656 18.1906V17.6537L334.005 17.9253V18.4622H333.21V18.7338C332.974 19.2391 332.943 18.1969 332.943 18.1969C332.092 18.4054 332.371 18.6012 331.353 18.7338V19.5423C329.788 19.3781 329.906 18.5885 328.174 18.4622C328.167 19.3591 328.037 19.6813 327.906 20.3509H327.379C327.459 20.1172 327.888 19.7571 327.646 19.2707H327.379V19.5423C327.074 19.8519 327.273 19.5423 327.111 20.0792L325.522 20.3509V20.8878C324.634 20.7235 323.851 20.1487 322.87 20.6161C322.696 20.8877 322.516 21.153 322.342 21.4246C321.622 21.6394 321.523 20.6982 321.28 20.6161C320.802 20.4519 321.088 20.9193 321.013 21.153C320.746 21.0646 320.486 20.9762 320.218 20.8814V21.9615H319.691L319.424 22.4984C318.989 22.631 318.933 22.2332 318.896 22.2268C318.256 22.1131 318.206 22.4984 317.834 22.4984V22.2268C317.306 22.1384 316.772 22.0499 316.244 21.9552V22.4921C314.487 22.6816 313.592 22.7258 312.27 22.4921L312.003 23.3006C311.506 23.168 310.736 23.187 309.885 23.029V22.7574C310.189 22.4479 309.991 22.7574 310.152 22.2205C309.519 22.2458 309.494 22.3973 309.09 22.4921V22.2205C308.649 21.93 308.655 21.8352 308.028 21.6836V21.1467H307.5C307.414 20.8751 307.326 20.6098 307.233 20.3382L305.644 20.0666V19.5297C305.855 19.6181 306.476 20.0792 306.966 19.8013V19.5297C306.184 19.0118 306.321 18.4559 306.439 17.6411C306.793 17.4642 306.799 17.2179 306.966 17.1042C307.14 17.1926 307.32 17.281 307.494 17.3758V16.2957H307.761C307.674 15.7588 307.587 15.2155 307.494 14.6786C307.227 14.5902 306.966 14.5018 306.699 14.4071C306.786 14.5839 306.873 14.7671 306.966 14.944L306.171 14.6723V15.2093H305.904C305.818 15.3861 305.731 15.5693 305.637 15.7462H304.843C304.905 16.3715 305.134 15.9104 304.843 16.5547L304.315 16.283V16.8199C304.029 17.2937 304.048 16.283 304.048 16.283C303.607 16.3715 303.166 16.4599 302.725 16.5547C302.725 16.5547 302.601 16.1504 302.197 16.283C302.11 16.4599 302.023 16.6431 301.93 16.8199H301.135C301.048 17.0915 300.961 17.3568 300.868 17.6284C300.458 17.4074 299.694 16.6557 299.011 16.8199C298.924 16.9968 298.838 17.1799 298.744 17.3568C298.235 17.3063 298.304 16.8326 298.217 16.8199H297.949V17.0916H296.627V17.3631H297.155C297.068 17.9 296.981 18.4433 296.888 18.9802H296.36C296.117 18.8728 296.186 18.1591 295.298 18.4433L295.031 18.9802H293.708V18.7085C293.323 18.4938 293.261 18.5191 292.646 18.437V19.2455C292.379 19.1571 292.118 19.0686 291.851 18.9739V19.2455C291.547 19.555 291.746 19.2455 291.584 19.7824C290.597 20.0666 290.87 20.3382 290.262 20.8625V21.1341H289.467V20.3256H288.939V20.8625H287.616V20.5908H287.349C287.175 20.9509 286.995 21.311 286.821 21.671L286.293 21.3993V21.671L285.498 22.2079V21.3993H285.231V21.671L284.437 21.3993V21.671C284.064 21.652 284.542 21.4436 284.17 21.3993L282.58 21.671V22.4795H282.313V22.2079C281.592 21.8163 281.015 22.5868 280.723 22.7448C280.574 21.8984 280.462 21.6141 279.661 21.3993C279.81 22.0563 279.941 21.9931 280.189 22.4795H279.661C279.239 22.8774 278.102 22.7763 277.276 22.7511V22.2142H276.749V22.7511C276.221 22.6626 275.687 22.5743 275.159 22.4795C275.028 21.8416 274.91 21.8415 274.631 21.3993C274.991 21.0835 274.892 21.6015 275.159 21.1278C274.811 20.9067 274.848 20.9382 274.631 20.5908H275.159C275.215 19.9529 275.271 19.9213 275.426 19.5107C274.674 19.3339 274.426 19.0118 274.103 18.4306H274.898C275.072 17.7106 275.252 16.9905 275.426 16.2767C275.078 16.0556 275.115 16.0872 274.898 15.7398C274.333 16.0683 274.321 16.3462 273.575 16.5484V16.0114H273.308V16.8199C272.277 16.9084 272.116 17.2558 271.452 17.6284C271.396 16.9905 271.34 16.9589 271.185 16.5484C270.886 16.7758 271.147 16.5167 270.917 16.8199H270.65L270.917 17.0916L270.65 17.9001C269.526 17.7043 269.377 17.8559 267.999 17.9001L268.266 18.7085H267.999C267.781 19.0623 267.813 19.0244 267.471 19.2455V18.1653C266.123 18.2411 266.304 18.6454 264.819 18.7022C264.621 19.6181 264.254 19.9466 263.23 20.0476V19.5107H262.963V19.7824C262.733 20.294 262.695 19.2455 262.695 19.2455C262.428 19.1571 262.168 19.0686 261.901 18.9739L262.168 19.5107H261.64C261.218 19.9087 260.988 20.4393 260.845 21.1278H260.05V20.5908C258.348 20.654 257.92 21.5762 256.604 21.9362C256.771 21.1972 256.951 21.3235 257.131 20.5908C255.436 20.9698 254.231 22.1573 253.157 20.3193C254.349 19.6118 253.722 19.3149 253.424 18.1653H252.362C252.139 17.8621 252.393 18.1275 252.095 17.8938C252.176 17.6601 252.604 17.3 252.362 16.8136H252.095V16.542H251.3C250.853 17.2874 250.164 17.0852 249.71 17.6221L249.443 18.4306H248.649V18.7022C248.382 18.7906 248.121 18.8791 247.854 18.9739V18.437C247.028 18.6201 246.649 19.2455 245.997 19.5171H244.935V19.7887C244.668 19.7003 244.407 19.6118 244.14 19.5171V20.0539L242.55 20.3256V20.5971H241.488C241.402 20.6161 241.42 20.9699 240.961 20.8688V20.5971H240.433V20.3256L238.576 20.0539C238.384 20.4329 238.098 20.8688 237.781 21.1341V20.0539H237.514V20.5908C237.247 20.5024 236.986 20.414 236.719 20.3193C236.595 20.9509 236.278 21.153 236.191 21.6647H236.458C236.545 21.9363 236.632 22.2016 236.725 22.4732C235.216 22.4921 235.061 22.1889 234.074 21.9362C233.683 22.6689 233.26 23.1679 232.217 23.2816V22.7448H231.689V23.8249H231.161V24.0965H229.304V24.3681H228.777V24.6397C228.603 24.5513 228.423 24.4629 228.249 24.3681V24.6397H227.982C227.591 24.3175 228.205 24.4439 227.715 24.1028C227.746 24.9555 228.23 24.6081 227.448 24.9113V24.3744C225.957 24.5576 226.591 25.044 225.858 25.4545H225.33C225.243 25.7261 225.156 25.9915 225.063 26.2631H223.74V25.9914C224.399 25.4987 224.082 25.783 224.007 24.9113H223.48V25.7199C221.176 25.7262 220.772 26.1873 218.71 26.2567V25.7199C218.356 25.8967 218.002 26.0799 217.648 26.2567C217.735 26.6168 217.822 26.9768 217.915 27.3368C217.226 27.2926 217.009 27.2799 216.593 27.0652V26.7936L215.798 27.0652C215.754 27.0589 215.705 26.6862 215.27 26.7936V27.0652H214.742V27.3368H214.214V27.6085C213.848 27.8548 213.748 27.7979 213.152 27.88V27.0715H212.885V27.3431H211.563C211.383 27.4253 211.55 27.6905 210.768 27.88C210.681 28.1516 210.594 28.4169 210.501 28.6886H210.768C211.159 29.017 209.805 28.9538 209.706 28.9601V28.6886C208.644 28.5117 207.588 28.3285 206.526 28.1517C206.669 27.4 206.731 28.1264 206.526 27.3431C206.241 27.4947 205.974 28.0695 205.464 27.88V27.6085H205.197L205.464 27.0715H205.197C204.893 26.762 205.197 26.9642 204.67 26.7999C204.583 26.5283 204.496 26.263 204.403 25.9914H204.93C204.843 25.7198 204.756 25.4545 204.663 25.1829H204.93V25.4545C205.16 25.9662 205.197 24.9177 205.197 24.9177H205.464V24.646C205.291 24.5576 205.11 24.4692 204.936 24.3744C205.023 24.1028 205.11 23.8375 205.204 23.5659H204.936V23.2943H205.731V23.0227C205.384 22.8016 205.421 22.8332 205.204 22.4858C205.657 22.1826 205.564 22.3153 205.731 21.6773L206.793 21.4057C206.824 21.3867 207.203 20.4077 207.321 20.5971V21.1341H208.116C208.364 20.6477 208.482 20.7109 208.644 20.0539C208.284 19.7381 208.24 19.5613 208.116 18.9739H208.644V18.437H209.172V18.1653C208.644 18.2538 208.11 18.3422 207.582 18.437V18.1653C207.234 18.1843 206.918 18.6265 206.259 18.437V18.1653C205.731 18.0769 205.197 17.9885 204.67 17.8938V18.9739H204.142V19.5107C203.875 19.3339 203.614 19.1507 203.347 18.9739V18.437L203.08 18.7085C202.775 19.018 202.974 18.7086 202.813 19.2455H201.751V19.7824C201.223 19.6939 200.689 19.6055 200.161 19.5107C200.074 19.9592 199.987 20.4077 199.894 20.8561C199.248 21.0077 199.31 21.1341 198.832 21.393V21.1215C198.559 20.8878 198.466 20.654 198.304 20.3129C198 20.6224 198.199 20.3129 198.037 20.8498C197.509 20.9383 196.975 21.0267 196.448 21.1215V21.6583C195.82 21.7152 195.789 21.7721 195.386 21.93V21.393H195.653L195.386 20.5846H195.119V21.1215C194.945 21.033 194.765 20.9446 194.591 20.8498C194.286 21.0646 194.485 21.4878 193.796 21.3867C193.709 21.2098 193.622 21.0267 193.529 20.8498H193.262V21.3867L192.467 21.6583C192.33 21.6204 192.305 20.9762 191.939 21.1215C191.672 21.4815 191.411 21.8415 191.144 22.2015C190.877 22.1131 190.616 22.0247 190.349 21.93V22.4669H189.822V23.0038C189.523 22.7764 189.784 23.0353 189.554 22.7321C189.269 22.4858 189.505 22.7764 189.287 22.4605H189.554V22.1889H188.76V22.4605H188.492V22.1889H187.698C187.611 22.012 187.524 21.8289 187.431 21.652C187.257 21.7405 187.077 21.8289 186.903 21.9237C186.543 22.031 187.015 22.2142 186.636 22.1952V21.9237H186.108C186.102 22.7574 186.182 23.3133 186.375 23.8123H185.313V24.3492H185.046V23.5406H184.518L184.251 24.3492C183.953 24.1218 184.214 24.3807 183.984 24.0775H183.717L183.984 23.2691C183.717 23.3575 183.456 23.4459 183.189 23.5406V23.8123H182.661C182.574 23.9891 182.488 24.1723 182.394 24.3492H181.332V24.6207H181.065C180.935 24.5007 181.14 24.1849 180.798 24.3492L180.531 24.886L179.209 25.1577V24.6207H178.942L178.675 25.1577H178.408L178.141 24.6207C177.774 24.4502 177.395 24.4881 177.079 24.3492C177.06 25.3914 177.122 25.4609 176.284 25.6946V25.1577H175.756V25.6946H174.433L173.905 27.04H173.378V26.7683C173.291 26.7557 172.769 27.0084 172.315 27.04C172.465 26.3831 172.595 26.4462 172.843 25.9598H172.315L172.049 26.7683L170.192 26.4968C169.912 26.6357 169.999 27.1031 170.192 27.3052H169.664C169.434 27.5831 169.204 27.6779 168.869 27.8422V27.0336C167.683 27.1347 168.099 27.2042 167.012 27.0336V27.3052C167.317 27.6147 167.118 27.3053 167.279 27.8422H165.956C165.888 27.8295 165.87 27.4947 165.429 27.5705V27.8422H164.901C164.814 28.1138 164.727 28.379 164.634 28.6506C164.336 28.4232 164.597 28.6822 164.367 28.3791C164.069 28.1517 164.329 28.4106 164.1 28.1074C164.447 27.8863 164.41 27.9179 164.628 27.5705H163.566C163.33 27.8548 163.1 27.9242 162.771 28.1074V28.3791L161.976 28.1074V28.3791C162.324 28.6001 162.287 28.5685 162.504 28.9159H161.976C161.665 28.5496 161.492 28.5054 160.914 28.3791V28.9159C160.417 28.7264 159.877 28.6506 159.057 28.6443C158.765 28.0821 158.629 28.1643 158.529 27.299H158.002V26.762C157.704 26.9894 157.964 26.7305 157.734 27.0336H157.467V27.5705L156.94 27.8422V28.6506H156.673C156.406 28.2906 156.145 27.9306 155.878 27.5705H155.611C155.263 26.9705 155.753 26.8189 155.083 26.2251C155.17 25.8651 155.257 25.5051 155.35 25.145C155.35 25.145 155.008 25.0124 155.083 24.6082H155.35V23.2627C155.35 23.2627 155.511 23.2627 155.617 22.7258C156.35 22.53 156.207 22.65 156.412 21.9173H156.94V22.1889L157.734 21.9173V21.3804L159.057 21.652C159.25 20.9067 159.132 21.0519 159.852 20.8435V19.7634H160.119L159.852 19.2265H160.119C160.343 18.9233 160.088 19.1886 160.386 18.9549V18.6833C160.641 18.1843 160.653 19.2202 160.653 19.2202L161.448 19.4918V19.2202H161.181C161.268 18.9486 161.355 18.6833 161.448 18.4117H163.038V18.6833C163.659 18.5949 164.274 18.5064 164.895 18.4117V17.8748H165.956V17.3379C165.05 17.3253 164.125 17.1547 163.572 17.0663C163.398 17.3379 163.218 17.6032 163.044 17.8748L161.454 18.1464C161.603 17.4895 161.734 17.5526 161.982 17.0663H160.92V17.3379H161.187C161.492 17.7611 160.535 17.5905 160.392 17.6095V18.418H160.125V18.6896C159.684 18.7781 159.244 18.8665 158.803 18.9612C158.89 18.5127 158.977 18.0643 159.07 17.6158C158.424 17.7674 158.48 17.8937 158.008 18.1527V18.4243C157.48 18.2475 156.946 18.0643 156.418 17.8874V18.159C156.114 18.4685 156.313 18.159 156.151 18.6959C155.716 18.778 154.996 19.2581 154.828 19.2329V18.9612H154.033C153.667 18.8854 154.133 18.6075 153.766 18.6896L153.499 19.2265H152.971L153.238 18.6896H152.971C152.667 18.9992 152.971 18.797 152.444 18.9612V19.4981C152.003 19.5865 151.562 19.675 151.121 19.7697C151.071 19.7571 151.034 19.3844 150.593 19.4981V19.7697H150.065V20.0413C149.804 19.9844 149.755 19.3149 149.537 19.5044C149.103 19.8708 149.829 20.0224 148.742 20.3129V21.1215H148.475V20.5846H148.208C148.122 20.7614 148.034 20.9446 147.941 21.1215H146.879C146.563 20.534 146.296 20.2308 145.557 20.0413V20.3129H144.495L144.228 20.8498L143.433 20.5783V21.3867H142.905C142.253 22.5173 142.315 21.7025 141.582 22.1952C141.669 22.3721 141.756 22.5552 141.849 22.7321C141.322 22.6437 140.788 22.5553 140.26 22.4605C140.235 22.4669 140.123 22.9279 139.732 22.9974V22.7258H138.67L138.403 22.4542V22.7258C137.652 23.2185 137.627 23.5027 136.285 23.5343C135.987 23.0732 136.118 23.168 135.49 22.9974V23.5343H134.963V23.2627C134.627 23.1554 134.267 24.027 134.168 24.0712C133.621 24.3175 133.41 23.8375 133.106 23.7996V24.0712C132.578 24.1596 132.044 24.2481 131.516 24.3428L131.249 23.5343C130.516 23.7301 130.659 23.6101 130.454 24.3428C129.659 24.4313 128.864 24.5197 128.069 24.6145L127.802 25.1514H125.946V25.4229C125.256 25.6314 124.71 25.4482 124.089 25.6946C123.94 25.0377 123.81 25.1008 123.561 24.6145C123.263 24.8419 123.524 24.5828 123.294 24.886C122.363 25.5556 123.232 25.8461 121.971 26.2314V26.5031H120.649L120.382 27.04C119.792 27.28 119.636 26.7052 119.32 26.7683V27.04C118.792 27.1473 118.984 26.9199 118.792 26.7683H118.525V27.3052C118.258 27.2168 117.997 27.1284 117.73 27.0336V26.762L116.935 27.0336V26.762H115.873L115.606 26.2251C115.234 26.2251 115.482 26.143 115.339 26.4968C115.01 26.1873 115.24 26.4967 115.072 25.9598H116.134V25.4229H115.072C114.824 24.9366 114.706 24.9997 114.544 24.3428H115.072C114.917 23.2311 114.786 23.0543 114.277 21.9173C113.929 22.0563 114.352 22.0247 114.01 22.1889H113.215V22.4605C113.749 22.6121 113.445 22.4289 113.743 22.7321C112.986 22.7068 112.607 22.6816 112.153 22.4605V22.7321C112.458 23.0416 112.259 22.7322 112.42 23.2691C111.122 23.2691 110.911 23.5786 110.036 23.806V22.9974H109.769V23.2691H109.502L108.974 22.9974V23.806H108.179V23.2691H107.912V23.806H108.179V24.6145C107.297 24.6082 106.981 24.4755 106.322 24.3428V24.8797C105.695 24.8481 105.651 24.7976 105.26 24.6082V24.8797C104.956 25.1892 105.155 24.8797 104.993 25.4166C103.596 25.2587 104.385 24.8355 103.136 25.145V24.6082C102.714 24.545 102.801 25.0692 102.609 25.145C101.615 25.524 100.795 25.2966 99.957 25.145V25.9536L99.4291 25.6819V25.9536C98.8951 26.4147 99.454 26.3641 99.1621 26.762H98.895C98.2554 25.7893 96.4172 26.5978 95.1877 26.762V27.5705C94.6909 27.4316 93.7407 26.6041 93.3309 26.762V27.0336H93.0639V27.8422C92.269 27.9306 91.4741 28.019 90.6792 28.1137V28.6506H90.9464C90.8594 28.9222 90.7724 29.1875 90.6792 29.4591C90.052 29.4276 90.0086 29.3771 89.6173 29.1876V29.4591H89.3503V28.6506H88.8224V29.4591H88.5555V29.1876H87.4936V29.4591L86.9657 29.1876V29.4591C86.3819 29.6423 86.0901 29.5413 85.643 29.7308V30.5392C84.3203 30.7414 84.3327 30.7793 83.2583 30.0023L82.9913 30.8109H81.9295V31.0825C81.5755 31.1709 81.2215 31.2593 80.8676 31.3541V30.8172H80.3397C80.1782 31.7647 80.0539 32.0552 79.0169 32.1626V31.891C79.3212 31.5815 79.1226 31.891 79.284 31.3541C78.93 31.2656 78.5761 31.1773 78.2221 31.0825V30.8109C77.7191 30.653 77.8557 30.9625 77.6942 31.0825L76.8993 30.8109V31.0825H77.1663V32.1626H76.6386V31.6257C75.912 32.0552 76.1604 32.2889 75.0488 32.4342C74.8563 33.1795 74.9742 33.0342 74.2539 33.2427C73.5397 34.1017 72.7076 33.8933 71.6022 33.7796V33.2427H72.6641C72.5771 32.9711 72.4902 32.7058 72.3971 32.4342C71.9934 32.5921 71.9624 32.6426 71.3352 32.7058C71.2917 31.9731 71.2482 31.0825 70.8073 30.8172V30.5456C70.9998 30.2613 71.0123 30.7793 71.3352 30.274H70.8073C70.3353 29.9897 71.3352 30.0023 71.3352 30.0023C71.1862 29.3454 71.0557 29.4086 70.8073 28.9223H71.6022C71.8196 29.276 71.7886 29.2381 72.1301 29.4591C71.4843 28.0443 71.1551 26.7367 73.4528 26.762C73.757 27.0715 73.4528 26.8694 73.9807 27.0336C74.0676 26.5852 74.1545 26.1367 74.2477 25.6882H73.7199V26.2251H73.192L73.459 25.4166H73.192C72.9933 25.9282 73.3783 25.6946 72.925 25.9536C72.5772 25.6377 73.2416 25.5429 72.6579 25.4166V25.9536L72.1301 25.6819V25.9536H72.3971C72.2232 26.3136 72.0431 26.6736 71.8692 27.0336H71.6022V26.2251H71.3352V26.4968H70.5403C70.3664 26.7684 70.1863 27.0336 70.0124 27.3052H69.4847V27.5769H68.6898V27.8485H68.1619V28.1201C67.0937 28.5054 66.2927 27.7474 65.7773 28.1201C65.057 28.5938 64.939 29.6108 64.7154 29.7371H62.3308C62.0265 29.4276 62.3307 29.6297 61.8028 29.4655V28.9286H61.5359C61.6228 29.2886 61.7097 29.6486 61.8028 30.0087H61.5359C61.0329 30.4508 60.1325 30.2929 59.4183 30.5456V30.8172C59.0271 30.9435 58.3813 30.5266 58.3564 30.5456V31.0825H57.0336C56.7666 31.7142 56.5058 32.3395 56.2387 32.9711H55.9718V32.1626H55.4438C55.388 32.8006 55.3321 32.8321 55.1769 33.2427C54.8788 33.0153 55.1396 33.2743 54.9099 32.9711C54.6056 32.6616 54.8042 32.9711 54.6427 32.4342C55.0961 32.131 55.003 32.2637 55.1706 31.6257H54.3757V33.2427C53.9348 33.1543 53.494 33.0659 53.0531 32.9711V32.6995C53.3574 32.39 53.1586 32.6995 53.3201 32.1626H52.7922L53.0593 31.6257H52.7922C52.4879 31.9352 52.7923 31.7331 52.2644 31.8973C52.1961 32.4215 52.0035 32.4215 51.9973 32.4342C51.575 33.7606 52.2333 34.1586 50.6746 34.3229V33.7859C50.3082 33.9185 50.0909 33.8933 49.6127 34.0575V34.3291C49.3457 34.2407 49.0849 34.1523 48.8179 34.0575V34.3291H48.2899L48.5571 34.8661H46.9673V35.1376C47.2716 35.4471 47.0728 35.1376 47.2343 35.6745C46.8058 35.6556 45.3775 35.4029 45.3775 35.4029C45.2906 35.5798 45.2037 35.763 45.1105 35.9398C44.3902 36.3378 44.2659 36.0093 43.7877 35.9398V36.2115H43.26L42.9928 36.7483C42.5519 36.8368 42.1111 36.9252 41.6702 37.0199V37.2915C41.3162 37.2031 40.9623 37.1147 40.6083 37.0199C40.1674 37.1083 39.7264 37.1968 39.2855 37.2915V37.5632C38.4968 37.7906 38.2113 37.1336 37.6958 37.0262V37.2979C37.3916 37.6074 37.5902 37.2979 37.4287 37.8348H36.3668L36.0998 37.5632C35.9632 37.6264 36.0253 38.0432 35.5719 38.1001V37.8284L34.777 37.5569V37.8284C34.51 37.9169 34.2493 38.0053 33.9823 38.1001V37.5632C33.5041 37.8158 33.5661 37.9358 32.9203 38.1001V38.637H32.6533V37.8284C31.1629 37.8095 30.0265 37.1842 29.4738 36.2115L30.0016 35.9398C30.0202 35.5608 29.7408 36.0536 29.7346 35.6683C29.8216 35.2198 29.9085 34.7713 30.0016 34.3229H30.5295C29.9458 32.6427 31.1816 31.7078 31.3244 30.0087C32.1441 29.8571 33.0942 29.7371 34.2368 29.7371V28.9286H35.0317C35.2118 28.139 35.3236 28.0443 36.0936 27.8485V27.3115C37.6399 26.9515 36.2427 26.6294 37.6834 27.3115V26.7747C38.2734 26.661 38.59 26.5157 39.0061 26.2378V25.9661C39.5339 25.9156 39.1924 26.3767 39.534 25.9661C39.8383 25.6566 39.6395 25.9661 39.801 25.4292H40.3289C40.6332 24.3365 40.8691 24.8923 41.3907 24.0838C41.9186 24.2607 42.4527 24.4439 42.9805 24.6207V24.3492H43.2475V23.2691C41.7261 23.3007 41.3037 23.4901 40.0679 23.2691C39.9189 24.1155 39.8071 24.3997 39.0061 24.6145V24.0775H38.4783V24.886C37.938 25.1766 37.435 25.6819 36.6215 25.6946L36.3544 25.4229C35.3981 26.1556 36.4413 26.6799 34.4976 26.7683L34.7646 25.6882H34.2368V25.9598H34.5038C34.5225 26.0546 34.0506 26.9325 33.9761 27.3052H33.4482V26.7683H32.9203V27.3052L32.6533 27.0336C32.1254 27.2105 31.5913 27.3937 31.0635 27.5705C30.9765 27.7474 30.8896 27.9306 30.7965 28.1074C30.4487 28.259 30.8524 27.9053 30.5295 27.8358C30.2625 27.9243 30.0016 28.0127 29.7346 28.1074V27.8358H28.9397V27.5642H28.6727V27.8358C28.6727 27.8358 27.94 27.5895 27.6109 27.5642C27.437 28.0127 27.2568 28.4611 27.0829 28.9096C26.8532 28.8275 26.4992 28.3917 26.0211 28.638V28.9096H25.7541V29.7181H25.4869V28.9096H25.22V29.9897C25.2634 30.3687 25.4994 29.876 25.4869 30.2613L25.22 30.533C24.7604 30.2993 25.1268 30.5013 24.953 29.996H24.6858V30.533L23.3632 30.8045L23.6302 30.2677H23.3632C22.9533 30.7351 22.885 30.5329 22.3013 30.8045V31.0762C21.9101 31.2278 21.2891 31.1456 21.2394 30.8045H20.9723V31.6131H20.7053V31.3414H20.4383V31.8784H19.9104V32.4153C19.2397 32.2005 18.271 32.3963 16.998 32.4153C16.911 33.0469 16.8241 33.6722 16.731 34.3039H16.2031V33.767C15.7994 33.9249 15.7684 33.9754 15.1412 34.0386V34.8471C14.6133 35.0239 14.0792 35.2071 13.5514 35.384V35.6556H13.0236V35.9272C11.7258 36.4262 11.4214 35.5103 10.639 36.7357H10.372L10.639 37.0073C10.552 37.2789 10.4651 37.5442 10.372 37.8158C10.018 37.7274 9.6639 37.639 9.30993 37.5442V38.3527C8.37223 38.4538 8.50275 38.6875 7.7203 38.8896V38.3527H7.45316V39.1612C6.92531 39.2496 6.39137 39.3381 5.86352 39.4328L5.59638 40.2414H5.06863C4.98169 40.513 4.89464 40.7782 4.80149 41.0498H4.5345V40.2414H4.26752L4.00053 40.7782L3.20564 40.5066V40.235C2.69021 40.1024 2.85161 40.3866 2.67773 40.5066L1.61585 40.235L1.88283 39.9634V39.6918H1.61585V38.8833H1.88283V38.6117H1.35508C1.34887 37.7147 1.21835 37.3926 1.08794 36.7231H0.560182C0.0882238 36.4388 1.08794 36.4515 1.08794 36.4515C1.17488 36.1799 1.26193 35.9146 1.35508 35.643C2.72127 35.7061 2.66531 36.1546 2.67773 34.5629C3.11864 34.4744 3.55962 34.386 4.00053 34.2912V33.2111L4.79542 32.9395C5.09971 32.63 4.79533 32.8322 5.32318 32.6679V33.2048H5.85109V32.6679C6.11812 32.7564 6.37896 32.8448 6.64598 32.9395V32.4026H6.37885L6.64598 31.5941H6.91297V31.3225H7.70787C7.70166 30.9436 7.76365 31.2467 7.44073 31.0509V30.7793H8.23562V30.5077H8.50276L8.76975 31.0446C9.65156 31.2214 10.5334 31.4046 11.4214 31.5815C11.4463 30.5708 11.6635 30.3434 11.9492 29.6928C12.2162 29.7813 12.477 29.8697 12.7441 29.9645V29.4276H13.539L13.272 29.9645H13.539V29.6928H14.0669C14.3587 29.4591 14.1848 29.0422 14.5946 28.8843C14.8306 29.1243 14.694 29.3392 15.1225 29.4213C15.2964 29.1497 15.4766 28.8844 15.6504 28.6128H16.4452V28.3411H16.7123V27.261H17.2401V27.7979C18.3703 27.6905 18.4387 27.242 19.3578 26.9894C19.5689 26.1177 19.8483 26.0609 19.8855 24.8355H22.2702V25.1071L23.0651 24.8355V24.5639C23.4626 24.4565 23.4252 25.0439 23.5929 25.1008L24.3878 24.8292V25.3661H24.6549V24.8292C24.953 24.6018 24.6921 24.8608 24.9219 24.5576L24.394 24.8292V23.749H24.6611V22.669H25.9838L25.7168 23.4775H26.5117C26.934 22.9532 27.4742 22.7574 27.8343 22.1321C28.1076 22.3658 28.2008 22.5995 28.3622 22.9406C28.6293 22.7637 28.8901 22.5806 29.1571 22.4037V22.1321H29.6849L29.9519 21.5952C30.1258 21.6836 30.3059 21.772 30.4798 21.8668C30.8338 21.5952 30.1568 21.412 30.7468 21.3299V21.6015C31.0138 21.6899 31.2746 21.7783 31.5417 21.8731V21.3362C31.2374 21.0267 31.4361 21.3362 31.2747 20.7993C31.9578 20.9256 32.4483 21.0582 33.3922 21.0709C33.771 20.4961 34.0878 20.5277 34.715 20.2624L34.448 19.4539H35.5099V19.1823H35.7769V19.4539H36.3048V18.917C37.8076 18.8728 37.2922 18.5001 38.1616 18.1085H39.2235V17.8369C39.5278 17.5274 39.329 17.8369 39.4905 17.3H40.2854V17.8369H40.8133C41.0306 16.9715 41.1237 17.0537 42.1359 17.0284V17.5653C42.7569 17.2747 42.9991 16.9463 43.7257 16.7568V15.9483H44.2535V15.4114C45.6507 15.4177 46.3463 15.0956 47.433 14.8745C47.6255 15.6198 47.5076 15.4746 48.2279 15.683C48.141 15.4114 48.0539 15.1461 47.9608 14.8745H48.2279C48.5198 14.4955 49.1531 14.085 49.5506 13.7944V13.5228H50.3455V13.7944H50.6125V14.6028H50.8796C50.9665 13.529 51.1528 13.3585 52.2023 13.2574V13.5291C52.5562 13.6554 52.1029 13.3585 52.4692 13.2574C53.5311 13.0806 54.5869 12.8974 55.6488 12.7206C55.3818 11.8805 55.4998 12.31 55.6488 11.3752C56.2947 11.2236 56.2325 11.0972 56.7107 10.8383V11.1099H56.9777C57.1888 11.5078 56.7107 11.6468 56.7107 11.6468L56.9777 12.1837C57.5863 11.6657 57.3131 11.3752 58.3005 11.1036C58.3874 10.832 58.4743 10.5667 58.5675 10.2951C59.3251 10.6109 59.8157 10.8067 60.9522 10.8319C61.2192 10.295 61.48 9.75187 61.7471 9.21497H62.2748L62.5419 9.75186L64.3987 9.21497V8.94333H66.2555L66.5225 8.40645H67.0504C67.2181 7.66743 67.3981 7.79375 67.5782 7.06105C67.9321 7.14948 68.2861 7.23786 68.64 7.33261V7.06105C68.9319 6.82102 68.696 7.10523 68.9072 6.7894H68.64C68.3792 6.34094 69.0189 6.56206 69.1679 6.51784V6.2462C69.435 6.33463 69.6958 6.42309 69.9628 6.51784C69.8759 6.6947 69.7888 6.87786 69.6957 7.05472H69.9628C70.795 6.08199 71.5216 7.05468 72.6145 7.32629C72.7946 6.97257 72.9435 7.03575 73.1423 6.7894L72.8753 6.25252H73.4032V5.98096L73.9309 5.70932C73.9682 5.33033 73.8751 5.7535 73.664 5.43768L73.9309 4.90079C74.8252 5.09029 74.9494 5.48824 75.7877 5.70932V4.90079C76.5143 5.07134 76.3902 5.2545 77.1105 5.43768V4.62923C77.4024 4.71766 77.6321 5.10924 78.1724 4.90079V4.62923H78.9673V4.35759C79.4951 3.90912 80.0292 3.46065 80.5571 3.01218V2.4753H81.0848V2.74686C81.4512 2.82266 81.0351 2.69006 81.3518 2.4753L81.8797 2.74686L81.6127 3.55539C83.0907 3.66908 83.842 4.03545 84.7922 3.0185C84.2705 2.71531 84.1712 2.63954 83.9973 1.93842L84.7922 1.66677C84.8791 1.84364 84.9662 2.0268 85.0593 2.20366H85.5871V1.12357C86.1646 1.23727 86.3447 1.30041 86.6489 1.66045L88.2387 1.12357L87.9717 0.586687H89.2944V0.0498047L89.4248 0.112954ZM86.7793 4.1555V4.69238H87.0465V4.1555H86.7793ZM322.852 4.69238V5.22926H323.119V4.69238H322.852ZM87.5742 5.5009V6.03778H87.8414V5.5009H87.5742ZM83.8669 6.03778V6.57467H84.1339V6.03778H83.8669ZM316.226 6.84631C316.53 7.15581 316.225 6.95364 316.753 7.11787C316.449 6.80837 316.753 7.01054 316.226 6.84631ZM295.298 7.11787C295.602 7.42738 295.298 7.22529 295.826 7.38951C295.521 7.08001 295.826 7.2821 295.298 7.11787ZM71.9438 7.9264C71.9686 8.84228 71.9438 8.90545 72.4717 9.2718V9.00016H72.2046V7.92007H71.9376L71.9438 7.9264ZM291.323 8.19796C291.628 8.50747 291.324 8.30537 291.851 8.4696C291.547 8.16009 291.851 8.36219 291.323 8.19796ZM262.441 8.46328V9.00016H262.708V8.46328H262.441ZM280.99 8.73492L280.723 9.2718C280.723 9.2718 281.493 8.8423 281.251 8.73492H280.984H280.99ZM308.277 8.73492H308.804C308.581 9.03811 308.836 8.77277 308.537 9.00648V9.27812C308.233 8.96862 308.432 9.27814 308.271 8.74124L308.277 8.73492ZM73.7943 9.00648C74.0986 9.31599 73.7944 9.1139 74.3222 9.27812C74.018 8.96862 74.3222 9.17071 73.7943 9.00648ZM222.436 9.2718V9.80868H222.703V9.2718H222.436ZM76.713 10.3519V10.6235H76.446C75.943 10.8572 76.9739 10.8951 76.9739 10.8951C77.1975 10.5919 76.9428 10.8572 77.2409 10.6235C76.9366 10.314 77.2408 10.5161 76.713 10.3519ZM280.195 10.3519V10.6235H279.928C279.425 10.8572 280.456 10.8951 280.456 10.8951C280.68 10.5919 280.425 10.8572 280.723 10.6235C280.419 10.314 280.723 10.5161 280.195 10.3519ZM348.021 10.3519V10.6235H347.753C347.25 10.8572 348.281 10.8951 348.281 10.8951C348.505 10.5919 348.25 10.8572 348.548 10.6235C348.244 10.314 348.548 10.5161 348.021 10.3519ZM170.502 10.6235V11.1604H170.769V10.6235H170.502ZM105.062 10.8888V11.4257H105.329V10.8888H105.062ZM172.887 10.8888V11.4257H173.154V10.8888H172.887ZM221.902 10.8888C222.349 11.4699 222.43 11.4257 222.43 11.4257C222.623 11.1668 221.97 10.9519 221.902 10.8888ZM289.734 10.8888C290.181 11.4699 290.262 11.4257 290.262 11.4257C290.454 11.1668 289.802 10.9519 289.734 10.8888ZM308.544 10.8888V11.4257H308.811V10.8888H308.544ZM357.559 10.8888C358.006 11.4699 358.087 11.4257 358.087 11.4257C358.279 11.1668 357.627 10.9519 357.559 10.8888ZM66.6404 11.432H66.1127V11.7036H66.3797V11.9753H66.6467V11.4383L66.6404 11.432ZM70.087 13.049H70.6149C70.528 12.689 70.4409 12.329 70.3478 11.9689H70.0808V13.049H70.087ZM273.569 13.049H274.097L273.83 11.9689H273.563V13.049H273.569ZM341.394 13.049H341.922L341.655 11.9689H341.388V13.049H341.394ZM67.1746 12.5058V13.5859H67.4416V12.5058H67.1746ZM135 12.5058V13.5859H135.267V12.5058H135ZM270.657 12.5058V13.5859H270.924V12.5058H270.657ZM309.866 13.049V13.8575H310.134C310.401 13.3712 310.717 13.0553 311.195 12.7774V12.5058H310.667C310.369 12.9669 310.5 12.8722 309.873 13.0427L309.866 13.049ZM338.482 12.5058V13.5859H338.749V12.5058H338.482ZM186.667 12.7774V13.3143H186.934V12.7774H186.667ZM254.492 13.3143H255.02V13.0427C254.722 12.8153 254.983 13.0743 254.753 12.7711H254.486V13.308L254.492 13.3143ZM106.384 13.049V13.8575H106.651V13.049H106.384ZM174.21 13.049V13.8575H174.477V13.049H174.21ZM290.262 14.1228C290.454 14.8681 290.336 14.7229 291.056 14.9313C291.224 14.1923 291.404 14.3186 291.584 13.5859H291.317C290.982 14.0975 291.05 14.0344 290.255 14.1228H290.262ZM292.646 13.5859V14.1228C293.342 14.1038 293.547 14.0155 293.969 13.8512V13.5796H292.646V13.5859ZM152.754 13.8575V14.6661H153.021V14.3944C153.319 14.167 153.058 14.426 153.288 14.1228L152.76 13.8512L152.754 13.8575ZM220.58 13.8575V14.6661H220.847V14.3944C221.145 14.167 220.884 14.426 221.113 14.1228L220.586 13.8512L220.58 13.8575ZM288.405 13.8575V14.6661H288.672V14.3944C288.97 14.167 288.709 14.426 288.939 14.1228L288.411 13.8512L288.405 13.8575ZM356.236 13.8575V14.6661H356.503V14.3944C356.801 14.167 356.541 14.426 356.77 14.1228L356.243 13.8512L356.236 13.8575ZM186.4 14.1228V14.6597H186.667V14.1228H186.4ZM309.339 14.1228C309.786 14.7039 309.866 14.6597 309.866 14.6597C310.059 14.4008 309.407 14.186 309.339 14.1228ZM169.18 14.6661V15.4745H168.652V16.0114L169.18 15.7398L169.447 14.9313C169.745 14.7039 169.484 14.9629 169.714 14.6597H169.186L169.18 14.6661ZM180.308 14.6661V15.203H180.575V14.6661H180.308ZM248.133 14.6661V15.203H248.4V14.6661H248.133ZM289.734 15.203H288.939V15.7398H289.467C289.715 15.2535 289.833 15.3167 289.994 14.6597H289.727V15.1966L289.734 15.203ZM315.958 14.6661V15.203H316.226V14.6661H315.958ZM147.19 15.7398V15.203C146.892 15.4303 147.153 15.1713 146.923 15.4745H146.656C146.96 15.784 146.656 15.5819 147.184 15.7462L147.19 15.7398ZM214.221 15.203V16.0114H214.488C214.792 15.7019 214.487 15.9041 215.015 15.7398V15.203H214.221ZM251.84 15.7398V15.203H251.046V15.4745H251.313C251.617 15.784 251.313 15.5819 251.84 15.7462V15.7398ZM282.841 15.7398V15.203C282.543 15.4303 282.803 15.1713 282.574 15.4745H282.307C282.611 15.784 282.307 15.5819 282.834 15.7462L282.841 15.7398ZM303.774 15.203V15.7398C304.073 15.5124 303.812 15.7714 304.041 15.4682H304.308C304.004 15.1587 304.309 15.3609 303.781 15.1966L303.774 15.203ZM341.394 15.4745V16.0114H341.662V15.4745H341.394ZM166 16.5484H166.528C166.304 16.2452 166.559 16.5104 166.261 16.2767V15.7398H165.994V16.5484H166ZM91.2816 16.0114V16.5484H91.5487V16.0114H91.2816ZM159.113 16.0114V16.8199H159.38V16.0114H159.113ZM294.764 16.0114V16.5484H295.031V16.0114H294.764ZM346.431 16.0114C346.735 16.3209 346.536 16.0115 346.698 16.5484H346.431V16.0114ZM362.595 16.0114V16.5484H362.862V16.0114H362.595ZM54.1894 16.283V16.8199H54.4566V16.283H54.1894ZM122.015 16.283V16.8199H122.282V16.283H122.015ZM257.672 16.283V16.8199H257.939V16.283H257.672ZM325.497 16.283V16.8199H325.764V16.283H325.497ZM138.446 16.5484C138.471 16.6052 138.825 17.5274 138.974 17.3568V17.0852H139.241C139.012 16.8073 138.782 16.7126 138.446 16.5484ZM206.799 17.9001H207.327V17.3631H206.799L207.067 16.8262C206.8 16.7378 206.539 16.6494 206.272 16.5547V16.8262C206.632 17.1421 206.675 17.3189 206.799 17.9063V17.9001ZM136.857 16.8199L137.124 17.6284H137.391C137.229 16.9842 137.304 17.1294 136.863 16.8199H136.857ZM204.682 16.8199C204.769 17.0915 204.856 17.3568 204.949 17.6284H205.216C205.055 16.9842 205.129 17.1294 204.688 16.8199H204.682ZM209.718 16.8199H209.19C209.414 17.1231 209.159 16.8579 209.457 17.0916V17.3631H209.725V16.8262L209.718 16.8199ZM314.375 17.9001H314.903V17.3631H315.17C315.083 17.1863 314.996 17.0031 314.903 16.8262C314.605 17.0536 314.866 16.7947 314.636 17.0979H314.369V17.9063L314.375 17.9001ZM93.1383 17.0916C93.4426 17.4011 93.1384 17.1989 93.6662 17.3631C93.362 17.0536 93.6662 17.2558 93.1383 17.0916ZM138.179 17.0916V17.9001H138.446V17.0916H138.179ZM206.005 17.0916V17.9001H206.272V17.0916H206.005ZM211.041 17.0916H210.513C210.737 17.3948 210.482 17.1294 210.78 17.3631V17.6348H211.047V17.0979L211.041 17.0916ZM241.774 17.0916V17.9001H242.041V17.0916H241.774ZM309.606 17.0916V17.9001H309.873V17.0916H309.606ZM41.4714 17.3568V17.8938H41.7385V17.3568H41.4714ZM53.9224 17.3568V17.8938H54.1894V17.3568H53.9224ZM121.754 17.3568V17.8938H122.021V17.3568H121.754ZM139.502 17.9001V17.3631C139.204 17.5905 139.465 17.3316 139.235 17.6348H138.968C139.272 17.9443 138.968 17.7421 139.496 17.9063L139.502 17.9001ZM189.579 17.3568V17.8938H189.846V17.3568H189.579ZM209.979 17.3568V18.9739H210.246V17.3568H209.979ZM243.892 17.3568V17.8938H244.159V17.3568H243.892ZM244.954 17.3568V17.8938H245.221V17.3568H244.954ZM257.405 17.3568V17.8938H257.672V17.3568H257.405ZM311.723 17.3568V17.8938H311.99V17.3568H311.723ZM312.785 17.3568V17.8938H313.052V17.3568H312.785ZM325.236 17.3568V17.8938H325.503V17.3568H325.236ZM47.3027 17.6284C47.6069 17.938 47.3026 17.7359 47.8304 17.9001C47.5261 17.5906 47.8305 17.7927 47.3027 17.6284ZM115.128 17.6284C115.432 17.938 115.128 17.7359 115.656 17.9001C115.351 17.5906 115.656 17.7927 115.128 17.6284ZM318.61 17.6284C318.914 17.938 318.61 17.7359 319.138 17.9001C318.834 17.5906 319.138 17.7927 318.61 17.6284ZM133.938 18.1653L134.205 18.9739H134.472C134.31 18.3296 134.385 18.4748 133.944 18.1653H133.938ZM201.769 18.1653C201.856 18.4369 201.943 18.7022 202.036 18.9739H202.303C202.142 18.3296 202.217 18.4748 201.776 18.1653H201.769ZM218.99 18.437V18.9739H219.257V18.437H218.99ZM51.5377 19.7824C51.3452 19.037 51.4634 19.1823 50.743 18.9739C50.8299 19.3339 50.9168 19.6939 51.01 20.0539H51.8049V20.3256C52.1775 20.3761 51.7055 20.1361 52.0719 20.0539H53.1338V18.9739C52.8357 18.7465 53.0965 19.0054 52.8668 18.7022H52.3389V18.9739H52.606C52.6929 19.4602 51.9476 19.6813 51.544 19.7824H51.5377ZM85.9846 18.7085L85.7175 19.2455C85.7175 19.2455 86.4875 18.8159 86.2454 18.7085H85.9784H85.9846ZM289.467 18.7085L289.2 19.2455C289.2 19.2455 289.97 18.8159 289.727 18.7085H289.46H289.467ZM40.6765 20.0539H41.2044V19.7824C40.9063 19.555 41.1672 19.8139 40.9374 19.5107H40.6703V20.0476L40.6765 20.0539ZM49.9481 19.5171V20.0539C50.2462 19.8265 49.9853 20.0856 50.2151 19.7824H50.4821C50.1778 19.4729 50.4822 19.675 49.9543 19.5107L49.9481 19.5171ZM108.502 20.0539H109.03V19.7824C108.732 19.555 108.992 19.8139 108.763 19.5107H108.496V20.0476L108.502 20.0539ZM117.78 19.5171V20.0539C118.078 19.8265 117.817 20.0856 118.047 19.7824H118.314C118.009 19.4729 118.314 19.675 117.786 19.5107L117.78 19.5171ZM185.605 19.5171V20.0539C185.903 19.8265 185.642 20.0856 185.872 19.7824H186.139C185.835 19.4729 186.139 19.675 185.611 19.5107L185.605 19.5171ZM311.99 20.0539H312.518V19.7824C312.22 19.555 312.481 19.8139 312.251 19.5107H311.984V20.0476L311.99 20.0539ZM321.262 19.5171V20.0539C321.56 19.8265 321.299 20.0856 321.529 19.7824H321.796C321.492 19.4729 321.796 19.675 321.268 19.5107L321.262 19.5171ZM45.7129 21.1341V20.5971L44.918 20.8688L45.185 21.9489H44.918V22.2205C44.297 22.3089 43.6822 22.3973 43.0612 22.4921V23.029C43.409 23.0796 44.7068 23.3575 44.918 23.3006L45.185 22.7637L45.9799 23.0354C46.0668 22.5869 46.1538 22.1384 46.247 21.69H46.514C46.8183 21.3805 46.5139 21.5825 47.0417 21.4183V21.9552H48.3645V21.4183H48.8923C48.7184 20.8814 48.5384 20.3382 48.3645 19.8013H48.0975L47.8304 20.6098C47.4516 20.8814 46.3028 21.0961 45.7129 21.1467V21.1341ZM75.6511 19.7824V20.5908H75.9181V19.7824H75.6511ZM40.1488 20.3256V20.8625H40.4157V20.3256H40.1488ZM81.4824 20.3256V20.8625H81.7493V20.3256H81.4824ZM107.974 20.3256V20.8625H108.241V20.3256H107.974ZM175.799 20.3256V20.8625H176.066V20.3256H175.799ZM254.492 20.3256C254.796 20.6351 254.492 20.4329 255.02 20.5971C254.716 20.2876 255.02 20.4898 254.492 20.3256ZM284.964 20.3256V20.8625H285.231V20.3256H284.964ZM311.456 20.3256V20.8625H311.723V20.3256H311.456ZM70.6149 20.5908C70.9192 20.9003 70.7204 20.5909 70.8819 21.1278H70.6149V20.5908ZM138.179 20.8625C138.477 21.3236 138.347 21.2288 138.974 21.3993C138.744 21.1214 138.515 21.0267 138.179 20.8625ZM168.385 21.3993H168.912V21.1278C168.614 20.9004 168.875 21.1593 168.645 20.8561H168.378V21.393L168.385 21.3993ZM70.087 21.1341H70.6149V21.4057C70.0809 21.2541 70.3851 21.4373 70.087 21.1341ZM144.011 21.1341C144.315 21.4436 144.116 21.1341 144.278 21.671H144.011V21.1341ZM215.282 22.2079H214.754V21.1278H214.488V21.3993C214.183 21.7089 214.382 21.3993 214.221 21.9362C214.488 22.1131 214.748 22.2963 215.015 22.4732C215.239 22.7764 214.984 22.511 215.282 22.7448V22.2079ZM141.626 21.3993V21.9362H141.893V21.3993H141.626ZM54.7173 21.9426V22.4795H54.9843V21.9426H54.7173ZM122.549 21.9426V22.4795H122.816V21.9426H122.549ZM181.103 22.2079C181.407 22.5174 181.103 22.3153 181.63 22.4795C181.326 22.17 181.631 22.3721 181.103 22.2079ZM87.0403 23.0164V22.4795C86.7422 22.7069 87.0029 22.4479 86.7731 22.7511H86.5061C86.8104 23.0606 86.5062 22.8585 87.034 23.0227L87.0403 23.0164ZM222.697 23.0164V22.4795C222.399 22.7069 222.66 22.4479 222.43 22.7511H222.163C222.467 23.0606 222.163 22.8585 222.691 23.0227L222.697 23.0164ZM63.461 23.5596V24.0965H63.728V23.5596H63.461ZM68.7642 23.5596V24.0965H69.0313V23.5596H68.7642ZM48.8923 23.8249V24.3618H49.1594V23.8249H48.8923ZM70.087 24.3681C70.0746 25.4609 69.9629 25.5303 70.6149 25.9851V25.7135C70.1678 25.1324 70.8198 24.4123 71.1427 23.8249H70.8757C70.5776 24.286 70.708 24.1913 70.0808 24.3618L70.087 24.3681ZM74.8562 23.8249C75.1605 24.1344 74.8563 23.9323 75.3841 24.0965C75.0798 23.787 75.3841 23.9891 74.8562 23.8249ZM88.63 23.8249C88.5431 24.0965 88.4561 24.3618 88.3629 24.6334H88.63V24.3618C88.7418 24.2039 89.0647 24.3239 88.897 23.8249H88.63ZM116.718 23.8249V24.3618H116.985V23.8249H116.718ZM205.744 24.3681C205.731 25.4609 205.62 25.5303 206.272 25.9851V25.7135C205.825 25.1324 206.477 24.4123 206.799 23.8249H206.532C206.234 24.286 206.365 24.1913 205.738 24.3618L205.744 24.3681ZM210.513 23.8249C210.817 24.1344 210.513 23.9323 211.041 24.0965C210.737 23.787 211.041 23.9891 210.513 23.8249ZM92.0765 24.0965V24.6334H92.3436V24.0965H92.0765ZM121.754 24.6334H122.282V24.3618C121.984 24.1344 122.244 24.3934 122.015 24.0902H121.748V24.627L121.754 24.6334ZM159.908 24.0965V24.6334H160.175V24.0965H159.908ZM183.487 24.0965C183.792 24.406 183.593 24.0965 183.754 24.6334H183.487V24.0965ZM125.194 24.3681C125.107 24.545 125.02 24.7281 124.927 24.905L125.455 25.1766C125.648 24.8544 124.896 24.9429 125.455 24.3681H125.188H125.194ZM92.6044 24.6334L92.3374 25.4419H92.6044V24.905H92.8714V24.6334H92.6044ZM160.436 24.6334L160.169 25.1702C160.169 25.1702 160.939 24.7407 160.697 24.6334H160.43H160.436ZM21.3325 25.7135H21.8604V25.4419C21.5623 25.2145 21.823 25.4734 21.5933 25.1702H21.3263V25.7072L21.3325 25.7135ZM170.502 25.7135H169.974C170.198 26.0167 169.943 25.7514 170.241 25.9851V26.2567H170.508V25.7199L170.502 25.7135ZM30.3432 26.2504V26.7873H30.6102V26.2504H30.3432ZM68.4972 26.2504V27.3305H68.7642V27.0589H69.0313C68.9444 26.8821 68.8574 26.6988 68.7642 26.522H69.0313C68.7271 26.2125 69.0313 26.4146 68.5034 26.2504H68.4972ZM166 26.2504V26.7873H166.267V26.2504H166ZM206.005 26.2504C205.7 26.5599 206.005 26.3577 205.477 26.522V26.7936H206.005C206.092 26.6168 206.179 26.4336 206.272 26.2567H206.005V26.2504ZM82.538 27.0589L82.2709 27.5958C82.2709 27.5958 83.041 27.1663 82.7988 27.0589H82.5318H82.538ZM72.4717 27.6021V28.139H72.7387V27.6021H72.4717ZM78.3028 27.6021V28.139H78.5698V27.6021H78.3028ZM65.8455 28.139H66.3735C66.1561 28.4927 66.1871 28.4548 65.8455 28.6759V28.9475H65.5786L65.8455 28.139ZM75.1234 28.139L74.8562 28.6759C74.8562 28.6759 75.6263 28.2464 75.3841 28.139H75.1171H75.1234ZM54.7173 29.2191V29.756H54.9843V29.2191H54.7173ZM34.3175 30.5645V31.1014H34.5846V30.5645H34.3175ZM40.1488 30.8362V31.6446H41.2106V32.1816H42.0055C42.2229 31.8278 42.1917 31.8657 42.5333 31.6446V30.8362C41.4279 31.032 41.4218 30.9056 40.1488 30.8362ZM18.6871 31.373C18.9913 31.6825 18.6871 31.4804 19.215 31.6446C18.9107 31.3351 19.2149 31.5373 18.6871 31.373ZM73.5336 31.6446V32.1816H73.8006V31.6446H73.5336ZM7.8196 35.9525C7.73266 36.2241 7.64577 36.4894 7.55262 36.761H7.8196V36.224H8.08659V35.9525H7.8196ZM41.9993 36.224V36.761H42.2663V36.224H41.9993Z" fill="#FDE6AD"/>
</svg>
