<svg width="161" height="159" viewBox="0 0 161 159" fill="none" xmlns="http://www.w3.org/2000/svg">
<path d="M95.8475 145.821C94.1083 146.998 93.8407 145.46 91.5262 148.04C88.4624 151.449 91.7268 154.322 95.8743 154.683C98.7775 154.937 105.935 153.975 104.932 150.607C104.517 149.203 104.102 148.134 104.089 147.158C101.038 148.254 98.4296 147.452 95.8341 145.821H95.8475Z" fill="#003F67"/>
<path d="M108.317 112.618C104.825 110.988 100.53 115.078 99.8078 117.096C98.5368 120.665 97.9481 124.662 97.4397 126.52C96.6504 129.434 97.3996 134.7 97.5066 138.376C97.5601 140.381 97.6537 144.565 95.8877 145.808C95.8743 145.808 95.861 145.821 95.8476 145.835C98.4297 147.465 101.039 148.267 104.102 147.171C104.102 146.703 104.183 146.249 104.423 145.808C105.306 144.15 107.313 141.865 107.608 137.694C107.902 133.51 107.902 134.139 108.049 130.383C108.183 126.613 110.123 121.775 111.314 118.767C112.906 114.73 111.942 114.329 108.33 112.632L108.317 112.618Z" fill="#FFDBB0"/>
<path d="M137.348 147.613C136.879 146.998 136.612 146.37 136.679 145.541C136.853 143.669 137.803 140.689 136.545 137C135.287 133.31 135.528 133.832 134.284 130.584C133.04 127.322 132.933 123.633 133.508 120.425C134.712 113.728 128.518 110.935 124.651 110.935C119.099 110.935 119.647 122.122 121.32 125.13C122.992 128.137 123.969 131.613 124.196 133.457C124.558 136.345 126.819 141.718 127.742 143.242C128.732 144.899 130.297 148.054 129.173 150.032C128.959 150.393 128.772 150.66 128.585 150.847C131.795 152.077 135.314 150.513 137.348 147.626V147.613Z" fill="#FFDBB0"/>
<path d="M137.348 147.612C135.314 150.499 131.809 152.063 128.585 150.834C127.755 151.702 127.059 151.408 126.15 154.215C124.691 158.707 128.598 159.415 132.384 157.544C135.033 156.234 140.973 151.649 138.886 149.337C138.284 148.668 137.749 148.147 137.348 147.612Z" fill="#003F67"/>
<path d="M105.908 41.241C105.253 39.4766 95.1518 24.3455 95.2588 23.5168C95.3658 22.6881 95.7003 19.5335 95.232 18.4107C94.4159 16.4459 93.0379 18.7583 92.2218 18.2504C91.4057 17.7424 90.1748 15.8711 89.2383 15.3766C88.3018 14.882 87.9807 16.2053 87.392 16.9271C86.8034 17.6622 85.6394 15.8978 85.0775 16.7399C84.6895 17.3147 85.1043 18.9321 84.0741 19.2262C83.0439 19.5202 82.9102 19.8544 83.2446 20.897C83.5925 21.9396 84.1543 22.354 83.86 23.2362C83.5657 24.1184 83.7931 24.3188 84.3952 24.9203C84.9972 25.5352 87.2315 26.1634 89.0912 26.8451C90.9508 27.5268 95.8876 43.4866 99.3795 48.6862C100.53 50.3838 107.273 44.8901 105.908 41.2544V41.241Z" fill="#FFDBB0"/>
<path d="M134.645 47.1085C135.581 45.4778 148.023 32.2047 148.05 31.3626C148.077 30.5205 148.278 27.3527 148.92 26.3234C150.044 24.5189 151.034 27.0319 151.917 26.6576C152.8 26.2967 154.325 24.6392 155.328 24.3051C156.332 23.9709 156.425 25.3209 156.894 26.1363C157.362 26.9517 158.793 25.4011 159.208 26.3367C159.489 26.965 158.833 28.4888 159.797 28.9566C160.76 29.4111 160.854 29.7587 160.332 30.7344C159.824 31.7102 159.195 32.0176 159.342 32.9399C159.489 33.8622 159.235 34.0092 158.539 34.5171C157.843 35.025 155.542 35.279 153.589 35.6399C151.636 36.0142 145.963 49.3274 141.655 53.8854C140.25 55.3825 132.691 50.4636 134.645 47.0952V47.1085Z" fill="#FFDBB0"/>
<path d="M101.651 88.84C103.819 87.4098 113.853 87.5568 118.642 87.4499C127.834 87.236 130.697 85.8459 133.413 91.0723C138.028 99.9344 135.848 102.247 136.757 105.268C138.403 110.748 139.46 116.108 136.195 117.231C133.078 118.313 124.77 117.699 120.462 117.792C116.034 117.886 117.358 111.403 116.488 111.63C115.338 111.938 115.445 113.729 115.445 116.75C115.445 119.249 110.628 117.659 103.645 116.121C94.8013 114.17 97.3968 113.461 98.3199 103.597C99.0959 95.1892 99.0022 91.7138 101.665 88.84H101.651Z" fill="#A2A2A2"/>
<path d="M138.913 61.6251C140.799 58.2835 143.435 55.7171 145.322 52.6828C146.566 50.6912 143.02 49.0604 139.676 46.5609C136.09 43.8742 136.585 42.9252 132.705 46.4941C130.096 48.9001 125.24 49.6219 122.711 48.5793C120.932 47.8441 119.474 48.8333 116.557 47.7907C114.43 47.0288 111.66 43.2861 107.7 38.688C106.081 36.8167 101.934 40.693 97.7597 43.8207C96.2613 44.9435 94.5756 47.5634 96.3015 50.0763C97.4922 51.814 102.496 57.1205 102.121 61.184C101.84 64.3251 99.5658 79.5898 98.7364 85.1637C97.2914 94.8144 107.299 93.0367 117.788 92.1678C126.083 91.4861 139.395 95.3759 137.361 87.1287C136.117 82.0894 137.401 64.3252 138.926 61.6117L138.913 61.6251Z" fill="#F2A096"/>
<path d="M127.18 48.0582C123.608 50.0231 119.862 49.9028 117.44 48.5394C115.005 47.176 113.145 45.1844 111.781 42.7249C110.871 40.4526 110.777 37.6991 111.005 36.6565C111.219 35.7074 111.687 34.7049 112.329 33.8494C113.801 31.8578 112.209 31.0024 116.249 27.5672C117.48 26.5246 123.889 22.167 130.632 25.4953C136.558 28.4226 134.659 43.9279 127.18 48.0582Z" fill="#FFDBB0"/>
<path d="M115.634 24.6394C116.316 23.784 119.005 22.3671 121.467 22.6745C124.517 23.0488 125.507 21.271 128.491 22.2735C132.652 23.6636 135.836 26.5909 136.719 28.088C138.592 31.3093 138.003 33.2609 138.244 35.2792C138.672 38.9417 137.696 45.7988 130.819 46.7612C129.508 46.9483 127.314 48.3786 127.461 47.6835C127.916 45.8523 129.401 44.5958 130.739 43.7805C132.103 42.9384 132.264 40.118 130.27 40.3452C128.625 40.5324 128.491 39.5833 128.437 36.2417C128.357 32.1648 110.951 33.5817 115.661 24.6528L115.634 24.6394Z" fill="#003F67"/>
<path d="M52.43 128.605C51.9617 128.017 51.6807 127.429 51.7342 126.614C51.8547 124.809 52.6975 121.895 51.4132 118.367C50.1154 114.825 50.3562 115.332 49.0719 112.218C47.8009 109.104 47.7741 107.165 48.2558 104.051C48.7374 100.937 48.3093 97.9424 46.5433 94.9216C44.7773 91.9007 42.7972 91.5933 39.0645 91.5131C35.3318 91.4329 35.586 94.8547 35.2248 99.1855C34.9305 101.966 34.7432 104.385 36.4289 107.259C38.1147 110.119 39.1314 113.461 39.399 115.239C39.8137 118.019 42.1282 123.152 43.0514 124.609C44.0414 126.186 45.6335 129.194 44.6034 131.132C44.4161 131.493 44.2287 131.747 44.0548 131.934C47.1854 133.043 50.5436 131.453 52.4434 128.619L52.43 128.605Z" fill="#FFDBB0"/>
<path d="M52.4315 128.605C50.5318 131.439 47.1736 133.03 44.043 131.92C43.267 132.776 42.5848 132.509 41.7687 135.235C40.4709 139.606 44.2571 140.208 47.8694 138.31C50.398 136.986 56.0305 132.415 53.9568 130.236C53.3681 129.608 52.8329 129.113 52.4315 128.605Z" fill="#003F67"/>
<path d="M19.8124 129.54C18.1802 130.743 17.8592 129.273 15.7319 131.866C12.9224 135.288 16.1868 137.921 20.2005 138.095C23.01 138.228 29.8867 136.999 28.7763 133.791C28.308 132.454 27.8665 131.438 27.8264 130.502C24.9232 131.679 22.3678 131.024 19.8124 129.553V129.54Z" fill="#003F67"/>
<path d="M35.0124 96.4044C34.504 92.5815 24.3763 94.4261 22.4498 101.644C21.5132 105.173 20.9646 109.022 20.5499 110.84C19.9077 113.687 20.8443 118.727 21.1119 122.282C21.2457 124.207 21.5132 128.257 19.8543 129.513C19.8409 129.513 19.8275 129.527 19.8141 129.54C22.3694 131.011 24.9248 131.679 27.828 130.489C27.8012 130.035 27.8681 129.594 28.0822 129.153C28.8582 127.509 30.7179 125.236 30.8249 121.186C30.932 117.136 30.972 117.751 30.9453 114.102C30.9185 110.466 31.6142 108.621 33.2063 105.948C34.7984 103.275 35.5074 100.214 35.0124 96.391V96.4044Z" fill="#FFDBB0"/>
<path d="M22.0873 68.7088C24.2814 67.2652 32.6164 67.439 37.4462 66.891C42.1288 66.3563 44.4969 67.1182 49.621 65.8885C53.6346 64.9127 52.5375 69.5109 57.18 78.7739C60.2437 84.8959 68.2041 93.5039 65.8093 95.6025C63.4145 97.7011 57.4877 100.495 54.1162 99.5858C50.7448 98.6769 49.6745 98.3962 45.7545 100.334C42.3295 102.019 36.5231 100.308 31.9743 99.92C28.1747 99.5858 25.7531 99.8932 22.783 100.615C17.0703 102.005 12.7488 100.134 11.7856 99.3585C10.3942 98.2491 10.4076 92.7555 15.2641 85.7246C20.1206 78.6938 19.3848 71.6094 22.0873 68.7088Z" fill="#E2C2BC"/>
<path d="M27.2522 32.1648C26.9177 31.443 20.4692 32.7663 18.8503 30.7345C16.4154 27.6736 13.579 24.2116 13.6058 23.6769C13.6593 22.7947 13.753 19.4397 13.1777 18.2902C12.1609 16.2852 10.8899 18.8248 9.99356 18.357C9.09718 17.8892 7.65224 16.0044 6.62207 15.5633C5.59189 15.1222 5.36446 16.5258 4.78917 17.3411C4.21388 18.1565 2.86258 16.3921 2.32743 17.3278C1.9662 17.9694 2.51478 19.6402 1.45785 20.0278C0.400925 20.4155 0.267153 20.7763 0.722034 21.8457C1.17691 22.915 1.79233 23.3026 1.55152 24.265C1.3107 25.2274 1.55146 25.4012 2.24716 26.0027C2.92948 26.6042 5.33767 27.0854 7.34449 27.6602C8.72251 28.0478 10.047 31.5766 12.0405 35.4262C12.977 37.2307 17.004 39.8773 20.3354 40.3184C22.2887 40.5857 25.5398 41.0669 26.1418 38.9817C26.6636 37.1371 28.0416 33.8891 27.2388 32.1648H27.2522Z" fill="#FFDBB0"/>
<path d="M30.4746 18.9589C30.0599 18.197 29.4712 16.633 28.8825 15.9781C28.2939 15.3365 27.6383 14.6147 26.7018 14.4008C25.2435 14.0533 24.4809 14.1068 23.7049 14.5479C23.0226 14.9355 21.9656 16.8068 21.9255 18.1434C21.6713 19.8811 20.4672 20.3623 19.6511 20.6965C18.5005 21.1643 16.5472 20.7633 16.7479 21.6054C17.3232 24.0649 18.6611 24.4793 20.0926 24.3055C24.7217 23.7441 22.3536 19.3999 25.19 18.9187C28.0263 18.4375 28.2403 18.8386 30.4746 18.9589Z" fill="#003F67"/>
<path d="M51.9217 61.6647C50.9049 56.6656 55.4403 56.2244 55.5206 48.8193C55.5875 42.8845 51.8415 36.2146 47.4666 32.5387C43.9881 29.6114 40.2821 26.0292 35.2784 26.7243C33.004 27.0451 27.7595 31.1753 25.6055 30.8813C21.4849 30.3199 21.9263 31.0818 20.9095 35.426C20.0533 39.1285 16.9494 42.2696 19.7991 43.1518C22.2073 43.9004 21.7524 48.1509 21.3243 50.3163C20.9363 52.2679 20.2808 55.5561 20.5082 64.1375C20.6019 67.6529 18.5148 71.0881 21.9531 70.6069C36.8438 68.5484 44.9915 72.0238 51.4267 69.9653C56.4304 68.3613 52.8448 66.1826 51.9217 61.6379V61.6647Z" fill="#A2A2A2"/>
<path d="M42.5306 26.5778C39.1992 28.8368 35.5334 29.0506 33.0182 27.9412C30.5163 26.8317 28.5095 25.0406 26.9442 22.7549C25.8471 20.6029 25.4993 17.9162 25.6331 16.887C25.7535 15.938 26.1281 14.9087 26.6766 14.0132C27.9476 11.928 26.302 11.2329 29.9544 7.50362C31.0649 6.36745 36.9516 1.51537 43.8685 4.16196C49.9425 6.48775 49.5009 21.8593 42.5439 26.5911L42.5306 26.5778Z" fill="#FFDBB0"/>
<path d="M29.3392 4.87021C30.1687 3.62712 32.1354 2.19696 34.557 1.84942C36.8046 1.52862 37.8347 0.419194 41.4604 1.18109C45.6881 2.06329 49.0597 4.73656 50.0497 6.14006C52.1769 9.13419 51.7755 11.0991 52.1903 13.0506C52.9395 16.6061 51.2939 24.2518 43.387 26.4172C42.1294 26.7647 42.397 26.0564 42.5308 25.5484C43.3201 22.6479 44.377 22.982 45.6079 22.0464C46.8655 21.0974 46.7718 18.3171 44.8319 18.7181C43.2264 19.0523 43.9087 19.1324 41.5541 16.8334C39.8683 15.1893 38.6375 12.6897 36.0688 8.67975C34.9182 6.88862 30.744 10.2703 28.0147 9.89608C26.6233 9.70895 27.6535 7.42324 29.3392 4.87021Z" fill="#003F67"/>
<path d="M48.8445 19.9206C49.6606 19.4394 51.0787 18.3166 52.0019 18.0493C52.9116 17.782 53.915 17.4879 54.9184 17.7953C56.4704 18.2899 57.1527 18.7711 57.621 19.6132C58.0491 20.3483 57.9688 22.6875 57.2597 23.9439C56.5239 25.7083 57.3668 26.8312 57.9421 27.5797C58.7448 28.6624 60.7918 29.3842 60.1362 30.0525C58.223 32.0174 56.738 31.6565 55.5071 30.6941C51.5068 27.5797 56.1627 24.8662 53.7947 22.8345C51.4266 20.8028 50.9985 21.0567 48.8579 19.9206H48.8445Z" fill="#003F67"/>
<path d="M51.2133 16.0978C50.7584 16.4186 50.1563 16.8998 50.4908 17.7152C50.8253 18.5439 51.2267 18.9583 51.7217 18.9315C52.6582 18.8647 52.7653 18.7043 53.2201 18.0627C53.6616 17.4211 53.5145 16.98 52.9526 16.3652C52.3773 15.7503 51.909 15.8438 51.2267 16.0978H51.2133Z" fill="#F2A096"/>
<path d="M49.6743 18.0226C49.2194 18.3434 48.6174 18.8246 48.9518 19.64C49.2863 20.4687 49.6876 20.8831 50.1827 20.8563C51.1192 20.7895 51.2262 20.6291 51.6811 19.9875C52.1226 19.3459 51.9754 18.9048 51.4135 18.29C50.8382 17.6751 50.37 17.7687 49.6876 18.0226H49.6743Z" fill="#F2A096"/>
<path d="M49.3005 43.286C48.0429 41.7489 40.631 37.124 40.4437 36.2552C40.2698 35.3863 39.5206 32.1115 38.6643 31.1491C37.1793 29.4649 36.5905 32.2451 35.6005 32.0179C34.6105 31.7906 32.7375 30.3204 31.6404 30.16C30.53 29.9862 30.6638 31.4165 30.3159 32.3387C29.9681 33.2744 28.2154 31.8976 27.9345 32.9402C27.7472 33.6486 28.6971 35.1189 27.7739 35.7739C26.8508 36.4289 26.8106 36.7898 27.5197 37.7255C28.2288 38.6478 28.9245 38.8617 28.9379 39.8508C28.9379 40.8399 29.2322 40.9602 30.0483 41.3612C30.8644 41.7622 33.3128 41.6419 35.3999 41.682C37.5004 41.7355 38.7445 48.0445 44.7249 50.8916C48.3639 52.6292 51.9094 46.4673 49.3005 43.286Z" fill="#FFDBB0"/>
</svg>
