<svg width="198" height="158" viewBox="0 0 198 158" fill="none" xmlns="http://www.w3.org/2000/svg">
<path d="M57.8765 32.2195C58.8972 30.276 72.7546 14.2666 72.7406 13.2879C72.7406 12.3091 72.8105 8.61786 73.5237 7.38744C74.7542 5.2342 76.0127 8.11449 77.0195 7.6391C78.0403 7.1777 79.7183 5.17827 80.8789 4.75881C82.0395 4.32537 82.2072 5.89137 82.7806 6.82816C83.3539 7.75098 84.9479 5.89136 85.4793 6.954C85.8429 7.68106 85.1297 9.48475 86.2764 9.97412C87.423 10.4635 87.5349 10.869 86.9895 12.0155C86.4442 13.162 85.731 13.5535 85.9408 14.6301C86.1505 15.6928 85.8709 15.8885 85.0738 16.5037C84.2768 17.1189 81.6199 17.5244 79.3687 18.0417C77.1174 18.5591 68.7554 38.5814 63.9592 44.0763C62.3931 45.88 55.751 36.2464 57.8625 32.2335L57.8765 32.2195Z" fill="#FFDBB0"/>
<path d="M29.7708 28.5143C28.778 26.5568 15.1724 10.3376 15.2003 9.35889C15.2143 8.38015 15.2003 4.68888 14.5151 3.44448C13.3126 1.27726 12.0261 4.12959 11.0193 3.64022C10.0125 3.16483 8.34854 1.13744 7.20192 0.690015C6.0553 0.24259 5.85951 1.80859 5.25824 2.7314C4.67094 3.65421 3.10483 1.76664 2.55949 2.81529C2.18194 3.52837 2.8671 5.34605 1.70649 5.82144C0.559866 6.29683 0.434019 6.68831 0.965381 7.8628C1.49674 9.02331 2.20989 9.4288 1.97217 10.4914C1.73446 11.5541 2.02811 11.7498 2.81117 12.379C3.59423 13.0082 6.25104 13.4556 8.48835 14.0009C10.7257 14.5462 18.794 34.6943 23.4923 40.2732C25.0305 42.1048 31.8123 32.569 29.7708 28.5282V28.5143Z" fill="#FFDBB0"/>
<path d="M83.69 136.232C86.221 136.987 86.7103 135.407 90.8354 136.847C96.2888 138.749 94.429 143.894 90.0942 146.817C87.0599 148.858 78.5861 152.158 77.6352 147.837C77.2437 146.034 76.5865 144.733 75.9992 143.657C74.2233 141.28 69.2593 136.903 69.5669 135.519C70.0423 133.338 78.2365 127.997 79.467 129.912C80.0124 130.751 82.012 135.743 83.69 136.246V136.232Z" fill="#003F67"/>
<path d="M18.5141 145.418C16.4865 147.11 15.3539 145.908 12.1377 148.872C7.88683 152.787 11.8021 156.632 17.0738 157.485C20.7793 158.086 30.0502 157.583 29.0993 153.346C28.6938 151.57 28.7498 150.144 28.8337 148.942C29.4629 146.089 32.6231 143.642 31.7422 142.524C30.3718 140.762 22.5692 138.301 21.017 138.553C20.0102 138.721 19.8564 144.3 18.5001 145.432L18.5141 145.418Z" fill="#003F67"/>
<path d="M24.7087 83.17C27.2956 81.4922 35.6995 81.1566 41.4046 80.9608C47.3755 80.7651 51.8361 81.5341 59.7926 82.0934C64.6307 82.4289 66.6583 86.7913 70.238 98.4384C73.0207 107.513 80.3618 117.985 83.2983 124.976C85.9272 131.254 86.6403 133.128 79.9004 136.553C75.9571 138.567 74.0554 142.034 68.9236 142.104C63.6519 142.174 51.9899 113.721 47.2636 113.427C42.789 113.161 36.4826 134.973 35.9372 138.539C34.9164 145.264 34.2452 145.474 25.9532 143.572C15.4518 141.167 16.4167 142.174 17.5913 130.443C18.598 120.446 21.5205 86.5536 24.7227 83.17H24.7087Z" fill="#E2E5D8"/>
<path d="M62.8416 58.2543C63.1912 52.8293 68.7426 40.6509 70.2528 37.8405C72.8816 32.9608 69.9591 32.863 65.3447 30.1784C62.6878 28.6264 58.1992 25.9418 57.0806 27.1303C55.2488 29.1018 52.9136 30.9055 50.4106 32.052C49.5436 32.4435 44.7614 33.1706 40.4685 31.8143C38.6227 31.2271 33.7846 28.5285 32.0506 27.2701C31.0578 26.5571 29.8133 23.439 25.5904 26.557C22.2624 29.0179 15.5365 31.9261 17.564 34.9463C18.9623 37.0296 23.0734 44.4121 22.598 49.2359C22.2344 52.9691 22.2624 65.3292 19.0742 76.3051C15.8301 87.4628 19.5916 87.9242 24.1921 89.0288C30.6383 90.5668 36.8049 90.413 49.3059 89.4762C59.1781 88.7351 70.3646 92.2586 68.0015 82.4153C66.5612 76.403 62.7438 59.6805 62.8416 58.2543Z" fill="#A2A2A2"/>
<path d="M34.804 29.3245C37.7685 33.0297 41.8376 34.5678 45.0397 34.1902C48.2419 33.8127 51.1504 32.4984 53.6954 30.457C54.9119 29.2126 55.2754 27.5628 55.9047 26.2485C56.2962 25.4235 57.1632 24.7104 57.5827 24.1931C57.9462 23.7317 58.4357 23.1305 58.4496 22.4873C58.5196 19.9006 57.2191 21.2709 57.0653 20.6976C56.3661 17.9012 57.0234 18.0829 54.2127 12.588C53.3598 10.9241 47.0533 6.42192 42.5927 7.09306C39.0689 7.62438 32.6786 11.819 32.0353 18.81C31.8955 20.348 30.5811 20.3201 30.5392 21.8301C30.4832 24.277 32.1332 23.7596 32.5527 24.9201C33.0002 26.1645 33.993 28.3458 34.7761 29.3245H34.804Z" fill="#FFDBB0"/>
<path d="M32.1611 15.9861C31.4479 18.9503 32.5247 17.4262 34.4823 15.3149C35.4611 14.2523 37.1531 15.2171 38.1179 14.8116C39.3345 14.2942 39.3764 12.7003 41.0125 13.0359C41.9633 13.2316 42.9562 12.3647 44.1727 13.9726C46.5359 17.0767 47.6685 16.5034 49.8918 16.3496C52.1152 16.1958 53.038 16.6432 54.3245 17.9855C55.6109 19.3278 55.9186 21.5229 57.4148 20.6001C58.5334 19.915 59.0228 15.6225 58.1139 14.1824C56.9253 12.2808 55.8626 10.9805 54.8139 9.56831C53.7652 8.17011 51.7655 5.84909 47.5007 4.28311C40.1735 1.59856 38.7891 5.79316 36.9014 6.93968C35.0137 8.10019 31.4899 8.42179 32.1611 15.9721V15.9861Z" fill="#003F67"/>
<path d="M171.243 142.664C170.558 142.146 170.068 141.559 169.9 140.636C169.509 138.581 169.607 135.085 167.132 131.52C164.657 127.941 165.062 128.444 162.741 125.34C160.406 122.236 159.819 120.069 159.455 116.461C159.091 112.84 157.749 109.624 154.896 106.758C152.044 103.892 149.751 104.129 145.556 105.122C141.361 106.115 142.633 109.862 143.5 114.811C143.989 117.999 144.479 120.768 147.192 123.48C149.904 126.193 152.016 129.618 152.827 131.534C154.099 134.512 158.169 139.588 159.623 140.944C161.189 142.412 163.832 145.32 163.244 147.781C163.133 148.243 163.007 148.578 162.867 148.844C166.684 149.165 169.97 146.425 171.257 142.706L171.243 142.664Z" fill="#FFDBB0"/>
<path d="M171.242 142.664C169.955 146.383 166.669 149.124 162.852 148.802C162.223 149.977 161.398 149.893 161.272 153.165C161.09 158.436 165.495 157.988 168.963 154.828C171.396 152.619 176.36 145.88 173.409 144.034C172.556 143.503 171.829 143.098 171.228 142.664H171.242Z" fill="#003F67"/>
<path d="M124.917 147.795C123.043 149.179 122.666 147.488 120.204 150.466C116.96 154.409 120.736 157.443 125.364 157.653C128.608 157.806 136.523 156.38 135.264 152.689C134.733 151.137 134.216 149.962 134.16 148.886C130.804 150.242 127.867 149.473 124.917 147.781V147.795Z" fill="#003F67"/>
<path d="M142.438 109.554C141.851 105.136 130.174 107.275 127.951 115.594C126.86 119.677 126.245 124.109 125.77 126.207C125.029 129.492 126.119 135.309 126.413 139.406C126.581 141.629 126.874 146.299 124.959 147.753C124.945 147.753 124.931 147.767 124.917 147.781C127.867 149.473 130.818 150.242 134.16 148.885C134.132 148.368 134.202 147.865 134.453 147.347C135.348 145.46 137.488 142.817 137.614 138.147C137.739 133.477 137.781 134.176 137.753 129.982C137.725 125.787 138.522 123.662 140.368 120.572C142.2 117.482 143.025 113.958 142.452 109.54L142.438 109.554Z" fill="#FFDBB0"/>
<path d="M127.825 77.1437C130.496 75.7175 140.046 76.8221 145.653 76.7102C151.093 76.5984 153.722 77.7309 159.749 76.8641C164.461 76.1789 162.713 81.3383 167.034 92.482C169.9 99.8505 178.108 110.589 175.144 112.756C172.166 114.923 165.062 117.482 161.287 116.07C157.525 114.657 156.323 114.238 151.61 116.028C147.499 117.594 141.011 115.007 135.823 114.07C131.488 113.287 128.692 113.371 125.196 113.888C118.498 114.881 113.716 112.253 112.695 111.274C111.213 109.848 111.814 103.542 118.162 95.9775C124.497 88.4132 124.413 80.1918 127.825 77.1577V77.1437Z" fill="#A2A2A2"/>
<path d="M128.664 27.8574C127.713 25.774 118.75 15.4273 118.806 14.4066C118.862 13.386 119.002 9.54089 118.331 8.2126C117.17 5.90556 115.702 8.82781 114.667 8.28251C113.632 7.73721 111.996 5.55602 110.808 5.05266C109.633 4.53533 109.353 6.15723 108.696 7.09403C108.039 8.03083 106.487 5.98946 105.872 7.06608C105.452 7.80713 106.081 9.72265 104.865 10.1561C103.648 10.5895 103.494 11.009 104.012 12.2534C104.515 13.4838 105.242 13.9313 104.949 15.0358C104.669 16.1404 104.949 16.3501 105.746 17.0353C106.529 17.7204 109.284 18.3076 111.591 18.9648C113.898 19.6359 116.065 28.0811 120.75 34.0794C122.288 36.0508 130.608 32.1498 128.65 27.8574H128.664Z" fill="#FFDBB0"/>
<path d="M167.509 31.1289C169.243 29.6468 182.289 23.3409 182.667 22.3901C183.045 21.4394 184.541 17.8879 185.701 16.9791C187.729 15.3712 187.827 18.6429 188.987 18.587C190.148 18.5311 192.553 17.2447 193.84 17.2867C195.126 17.3147 194.693 18.8946 194.888 20.0272C195.084 21.1457 197.363 19.9573 197.461 21.1877C197.531 22.0266 196.147 23.5087 197.07 24.4175C197.993 25.3264 197.951 25.7738 196.958 26.6686C195.979 27.5775 195.14 27.6753 194.93 28.7939C194.721 29.9125 194.371 29.9824 193.364 30.276C192.357 30.5696 189.617 29.9264 187.24 29.5629C184.862 29.1994 177.283 37.253 170.502 40.7346C168.278 41.8671 163.888 34.2189 167.481 31.1569L167.509 31.1289Z" fill="#FFDBB0"/>
<path d="M162.028 54.0877C161.259 50.2985 167.37 47.1106 175.088 41.6017C178.5 39.1688 176.515 36.2885 174.767 34.0934C170.712 29.0319 170.348 27.0884 167.146 29.3534C164.909 30.9334 162.546 31.8423 157.903 32.821C152.771 33.8976 151.121 33.2684 145.598 32.821C142.969 32.6113 134.747 32.3176 130.636 27.326C128.301 24.4877 128.664 23.481 124.148 25.9418C119.505 28.4586 116.513 30.2623 116.415 31.0592C116.135 33.2265 118.009 34.8763 120.904 39.015C125.532 45.6145 126.986 46.9289 126.595 50.6481C126.357 52.9272 126.021 56.898 124.078 65.5389C122.092 74.3476 122.707 78.1088 126.595 79.0176C134.747 80.9332 162.951 80.7794 164.881 78.3185C169.062 73.9282 163.105 59.3309 162.042 54.0877H162.028Z" fill="#EE8084"/>
<path d="M154.882 31.6188C151.219 34.4572 147.01 34.9745 144.046 33.8839C141.081 32.7933 138.634 30.8638 136.676 28.347C135.264 25.9561 134.663 22.88 134.733 21.6776C134.803 20.573 135.166 19.3706 135.712 18.2939C137.012 15.7912 135.082 15.12 138.998 10.5479C140.186 9.16366 146.618 3.13741 154.757 5.68214C161.916 7.91927 162.531 25.6625 154.869 31.6048L154.882 31.6188Z" fill="#FFDBB0"/>
<path d="M137.795 7.38765C138.411 6.31103 141.179 4.2417 143.99 4.1578C147.472 4.04595 148.269 1.87872 151.793 2.46597C156.701 3.29091 160.798 6.01741 162.042 7.54145C164.713 10.8272 164.391 13.1203 165.021 15.3434C166.139 19.3842 173.508 29.3954 158.029 34.0094C156.589 34.4429 155.051 33.3383 154.813 30.458C154.813 26.9905 156.757 27.368 158.099 26.2075C159.483 25.019 159.162 21.8171 156.966 22.4323C155.148 22.9357 154.841 21.901 154.184 18.1538C153.387 13.5957 134.104 18.2517 137.809 7.40162L137.795 7.38765Z" fill="#003F67"/>
<path d="M151.709 15.5532C150.618 15.3294 149.667 15.5951 150.017 16.5179C150.366 17.4407 151.023 19.0207 151.331 19.4681C151.639 19.9016 152.03 20.4469 152.827 19.1466C153.624 17.8602 153.75 17.7763 154.324 17.231C154.897 16.6997 154.911 16.8255 156.183 17.3009C157.442 17.7763 158.421 18.2377 158.854 17.7623C159.288 17.2869 159.176 16.5319 158.686 15.2456C158.183 13.9592 158.029 12.603 157.33 13.2461C156.631 13.8893 155.932 14.7562 155.652 15.2036C155.372 15.651 154.813 16.0845 154.016 15.9726C153.205 15.8748 152.45 15.7909 151.723 15.5532H151.709Z" fill="#EE8084"/>
<path d="M153.876 15.1901C153.624 15.4557 153.303 15.8752 153.652 16.6722C154.016 17.4831 154.365 17.9026 154.687 17.9026C155.302 17.9026 155.358 17.7628 155.554 17.1755C155.75 16.6023 155.568 16.1688 155.079 15.5396C154.589 14.9104 154.282 14.9663 153.862 15.1761L153.876 15.1901Z" fill="#EE8084"/>
</svg>
