<svg width="259" height="30" viewBox="0 0 259 30" fill="none" xmlns="http://www.w3.org/2000/svg">
<path fill-rule="evenodd" clip-rule="evenodd" d="M64.0739 0.463612C64.9699 0.655724 65.1024 1.14716 66.144 1.22758C66.2941 0.937174 66.5191 0.503791 67.0841 0.655694V0.84783C67.5652 1.02654 67.296 0.655742 67.6491 1.03997H67.8388V1.80393L68.214 1.99601V2.37581H68.4038C68.4656 2.56793 68.5273 2.75553 68.5935 2.94764H67.8388V3.51952C67.318 3.65802 67.4195 3.57315 67.2738 4.09141C66.6162 4.25225 66.3956 4.57393 65.5791 4.66329C65.5923 5.16368 65.6541 5.31111 65.7688 5.61492C65.1244 5.56577 64.2903 5.46299 64.2638 5.42278V5.80253H64.4535C65.0494 5.807 63.8886 5.99466 63.8886 5.99466C63.6502 5.69533 63.3855 5.53001 62.9485 5.42278C62.666 5.94104 62.2953 6.23591 61.6288 6.37441V5.99466L61.2536 6.18675C61.1433 6.47715 61.108 6.49952 61.0639 6.95077C60.6666 6.98204 59.9251 7.12053 59.7442 7.33051C59.5146 7.59858 59.9118 7.54051 59.369 7.90239V7.13837H59.1792V7.90239H58.6142V7.52259C58.3273 7.63429 58.3053 7.67005 57.8595 7.71473V7.33498L57.2945 7.52707C57.171 7.85321 57.1136 8.12577 57.1048 8.67083H56.1646C56.1646 8.67083 55.9748 8.97463 55.7894 9.05058V9.24271H55.5996V8.86291H55.2245V8.67083H55.0347V8.86291H54.4697V9.05505C54.1431 9.34992 54.0726 9.94859 53.9048 10.3909C53.2119 10.3239 52.6646 10.0558 52.2099 10.583C52.1482 10.7751 52.0864 10.9627 52.0202 11.1549C51.517 11.2174 51.0138 11.28 50.515 11.347V11.5391L50.1399 11.7312V12.111L49.575 11.9189L49.3852 12.2986H48.8203C48.7894 12.3165 48.5995 12.5845 48.445 12.6784V12.8705C48.1317 12.808 47.8184 12.7454 47.505 12.6784V12.4863C47.3946 12.4729 46.8605 12.808 46.5648 12.866C46.4368 13.2279 46.322 14.0321 46.1896 14.3895L45.6247 14.1974V14.0053C45.3643 13.9561 45.6997 14.1438 45.4349 14.1974C44.9847 14.2868 44.9494 14.0544 44.6802 14.0053L44.3051 14.5772H43.5502V14.7693L42.9854 14.9614V15.5333H43.3605V15.7254H43.1707C43.0692 15.8147 41.6611 16.2079 41.6656 15.7254H41.4758V16.1051L40.5357 15.913C40.5446 16.5966 40.4916 17.1148 40.1605 17.4365V17.2444H39.9708V16.4804H39.5956C39.5823 16.9808 39.5206 17.1282 39.4058 17.432C39.013 17.3159 38.6378 17.2176 38.2759 17.6242V18.0039H38.0861V18.196L36.9562 18.0039C36.8944 18.129 36.8326 18.2586 36.7664 18.3837C36.5148 18.4462 36.2633 18.5088 36.0117 18.5758V18.9556H35.257V19.3353C34.8068 19.2459 34.6655 19.1164 34.3168 18.9556V19.9072C33.8754 19.9697 33.4385 20.0322 32.9971 20.0993V20.2914C32.4454 20.421 32.3792 20.5014 32.2424 21.0554C32.5072 21.0688 32.2159 21.0241 32.4321 20.8633C32.7279 20.6444 32.6087 21.3324 32.6219 21.4351C32.2997 21.6496 32.366 21.5558 32.2468 22.007C32.4984 21.9444 32.7499 21.8819 33.0015 21.8149L33.1913 21.4351C33.2266 21.4306 33.6326 21.6138 33.946 21.6272V21.2475C34.1358 21.3101 34.3212 21.3726 34.511 21.4396L34.7008 21.0598C34.9303 20.9481 35.2525 20.9571 35.4556 20.8677V20.1037C35.9013 20.0278 36.4927 19.7419 37.1504 19.9117V20.1037H37.9052V19.9117H38.2803V19.1476H38.6555V19.5274C39.2204 19.4023 39.7853 19.2727 40.3503 19.1476L40.5402 19.3398C41.0566 18.9734 40.7122 18.6875 41.67 18.5758C41.8862 18.7947 41.67 18.6517 42.0452 18.7679V18.196L42.9854 18.0039V17.6242C43.6077 17.7269 43.8415 17.8654 44.1152 17.6242H44.3051C44.5434 17.3293 44.102 17.2399 44.4948 17.0523V17.2444H44.6846V16.6726C45.0995 16.6055 45.66 16.4224 46.1896 16.6726C46.2514 16.7976 46.3133 16.9272 46.3795 17.0523H46.7546V16.6726C47.1341 16.7798 46.9179 16.6502 47.1298 16.8646L47.6947 16.6726V16.4804H48.2597C48.3833 16.2883 48.5112 16.1006 48.6348 15.9085C48.9482 15.9711 49.2616 16.0337 49.575 16.1007V16.2928C49.7118 16.3196 50.2679 16.123 50.8947 16.1007L50.7049 15.5288H51.08V15.7209H51.8347L52.0246 15.913V15.7209L52.5895 15.5288C52.5762 15.0284 52.5145 14.881 52.3997 14.5772H53.5296C53.7459 14.3582 53.5297 14.5012 53.9048 14.3851C54.0505 13.8132 54.0196 13.8847 54.6596 13.8132C54.8714 14.1393 54.7788 14.0723 55.2245 14.1929C55.4143 13.7149 55.6129 13.1967 55.9793 13.429H56.169V14.0008H56.5442C56.6811 13.4736 56.5972 13.5764 57.1092 13.429V13.2368L58.239 13.0448C58.239 13.0448 58.3229 13.3217 58.6142 13.2368L58.804 12.8571H59.369V12.4773L59.7442 12.6694V12.8616C59.9913 12.9554 59.7839 12.7722 59.9339 12.6694C60.4062 12.5399 60.2385 12.5711 60.4989 12.2897H60.6886V11.9099L61.0639 11.7178C61.2845 11.4765 61.3816 11.1638 61.6288 10.9538V11.146H62.1937C62.2555 11.4006 62.3173 11.6553 62.3835 11.9099H62.5733C63.0323 11.1326 63.6281 11.204 64.6433 10.9583C64.7007 10.9449 64.6919 10.6947 65.0185 10.7662V10.9583C65.3937 11.0834 65.7733 11.213 66.1484 11.3381V11.146H66.3382L66.1484 10.5741C66.272 10.5115 66.4 10.449 66.5235 10.382C66.7839 9.98432 66.4397 10.1139 66.8987 9.81007V9.61799L67.8388 9.42585C67.7373 9.95751 67.6932 9.44373 67.8388 9.99773H68.0287V9.61799C68.4038 9.68054 68.7833 9.74305 69.1585 9.81007V9.61799C69.3615 9.44375 69.1939 9.64924 69.3484 9.42585H69.1585V9.23377H69.7235C69.7632 9.68501 69.8029 9.70733 69.9132 9.99773C70.1295 9.77881 69.9883 9.99774 70.1031 9.61799C70.3194 9.39907 70.1781 9.618 70.2929 9.23824C70.8578 9.04613 71.4228 8.85847 71.9878 8.66636L72.1775 8.85849C72.2393 8.24195 72.3497 8.30003 72.5527 7.90687H72.9278V8.09895H73.1176V7.90687H73.8724L74.0622 7.33498C74.5521 7.53603 74.8566 7.68346 75.5672 7.71473C75.5054 7.58963 75.4437 7.46008 75.3774 7.33498C75.5054 7.125 76.4367 7.06691 76.6971 6.7631L76.5074 6.38335H76.6971V6.19122C77.1959 6.4146 77.4077 6.55756 78.2022 6.57096V6.37888H78.0124V5.807C78.6083 5.9321 78.392 6.09739 78.5774 6.18675C78.7981 6.17334 79.2483 5.80255 79.7073 5.99466L79.8971 6.37441H80.2723C80.0913 7.00436 80.0957 7.4958 80.462 8.09H80.2723C80.056 8.30892 80.2722 8.16598 79.8971 8.28214V9.23377H79.7073C79.6588 9.55098 79.8838 9.56437 79.8971 9.61352V10.5651C79.2218 10.592 78.829 10.8377 78.392 10.9449L78.0168 10.7528C77.8932 10.9449 77.7652 11.1325 77.6416 11.3246C77.5357 11.3693 76.6132 11.1817 76.3219 11.1326C76.2072 11.6329 75.788 12.1423 75.1921 12.0842C75.1921 12.0842 75.0905 11.8429 74.8169 11.892L75.0067 12.2718H74.2519C74.1901 12.589 74.1284 12.9062 74.0622 13.2234L73.122 13.0313L72.9322 13.4111C72.4247 13.5407 72.4379 13.0447 72.3673 13.0313L71.8023 13.2234L71.9922 13.4156C72.001 13.4915 71.8244 13.8444 71.8023 14.1795C71.1756 14.2421 70.5488 14.3046 69.9176 14.3717V13.9919C69.4719 13.9517 69.4498 13.9115 69.1629 13.7998V14.3717C69.1232 14.4521 67.8697 15.3322 68.598 15.7075H68.0331V15.5154C67.8521 15.1624 67.8432 15.8952 67.8432 15.8952C67.6314 16.056 67.8168 15.8728 67.6535 16.0873C68.1831 15.9085 68.1787 15.8862 68.7834 16.0873V16.2794L69.3484 16.0873L69.1585 15.8952L69.3484 15.3233C70.2311 15.6673 70.8137 15.435 71.4184 14.9435C71.4802 14.8184 71.5419 14.6888 71.6081 14.5637H72.5483C72.5483 14.5637 72.5306 14.4521 72.9234 14.3717V14.9435H73.1132V14.5637C73.9165 14.5503 74.3623 14.5235 74.8081 14.184L74.9978 13.8042C75.3112 13.8668 75.6246 13.9294 75.938 13.9964C75.7217 13.7775 75.938 13.9204 75.5628 13.8042V13.4245C75.7526 13.4871 75.938 13.5496 76.1278 13.6166V13.2368H76.503V13.6166C77.5931 13.5272 78.3744 12.9062 79.1379 12.4729V13.0448H79.513V12.665H80.8328V12.4729H81.3977V12.2807C81.7728 12.3433 82.1525 12.4059 82.5276 12.4729C82.6865 12.2584 82.5055 12.446 82.7174 12.2807V11.5168C83.0925 11.4542 83.4721 11.3917 83.8473 11.3246C83.7855 11.5167 83.7238 11.7044 83.6576 11.8965H83.8473V12.0887C84.0592 11.9278 83.8738 12.111 84.0371 11.8965C84.2533 11.6776 84.1122 11.8965 84.2269 11.5168C84.5227 11.5302 85.5466 11.7089 85.5466 11.7089V11.5168H85.7364V10.9449C85.9438 10.6768 86.5838 10.7483 87.0561 10.7528V10.9449L88.186 10.7528V10.5607H88.5611V10.3685H89.1261L88.9363 10.9404H89.1261C89.2629 10.4132 89.1791 10.516 89.691 10.3685V10.7483C89.8808 10.6858 90.0662 10.6232 90.256 10.5562V10.3641C90.6974 10.3016 91.1343 10.239 91.5757 10.172V9.97984H92.1407L92.3304 9.6001C92.4893 9.53755 93.5707 9.80114 93.8356 9.97984V9.6001L94.4005 9.40802V9.21588C94.6565 9.13546 94.3255 9.3544 94.5903 9.40802C94.9037 9.47057 94.9257 9.22482 94.9654 9.21588C95.3097 9.1444 95.6937 9.46606 95.9056 9.59563V9.40354C96.4926 8.86295 95.9497 8.59488 97.0355 8.45192V8.644H97.6005L97.4106 9.0238C97.6534 9.33207 97.7637 8.81377 97.9756 9.59563C98.2227 9.39458 98.2581 9.20698 98.5405 9.0238V9.59563H98.9157C98.8539 9.21587 98.7921 8.83167 98.7259 8.45192C99.6086 8.14811 99.3615 8.59935 99.8558 7.50029H100.046C100.023 7.90685 99.8514 8.15256 99.8558 8.26425L100.046 8.45639C100.39 8.21513 100.068 8.19727 100.235 8.07664C100.452 7.9158 100.355 8.25085 100.425 8.26872C100.615 8.20618 100.8 8.14366 100.99 8.07664V7.69684C101.414 7.62089 101.714 7.38413 102.31 7.50476C102.31 7.50476 102.319 7.75492 102.685 7.69684V7.50476H103.625V7.69684C103.175 7.813 103.276 7.75943 103.06 8.07664H103.435C103.978 7.16969 104.883 7.4869 105.885 7.12501L106.075 6.55313C106.613 6.55313 106.882 6.62012 107.205 6.74521V5.98125H107.394C107.518 6.17336 107.646 6.36102 107.77 6.55313H107.959L107.77 6.93288H107.959V7.12501C108.498 7.51817 108.445 6.78542 108.714 7.69684H109.089V8.07664H109.464C109.403 8.26875 109.341 8.45636 109.275 8.64847H109.464C109.592 8.9344 109.597 8.96572 109.654 9.41249H110.029V9.79224C110.321 9.96201 110.422 10.0737 110.594 10.3641C111.203 10.029 110.952 9.90839 111.724 10.172L111.534 9.6001H111.91V9.22035H112.285V9.41249H112.475V9.22035L113.04 9.41249L112.85 9.98432H113.225C113.362 9.45712 113.278 9.55992 113.79 9.41249C114.072 9.07741 114.297 9.05056 114.92 9.03269V8.65294C115.295 8.52785 115.674 8.39829 116.05 8.2732C116.063 8.77358 116.125 8.92102 116.24 9.22482C116.451 9.06399 116.266 9.24714 116.429 9.03269H116.619V8.46086C117.184 8.52341 117.749 8.58593 118.314 8.65294V8.2732H118.689L118.879 7.70131C119.13 7.76386 119.382 7.82643 119.634 7.89345C119.695 7.76835 119.757 7.6388 119.823 7.5137L120.764 7.70579V8.08553C121.245 7.79066 122.061 6.9016 122.648 7.32157H123.023V7.70131H123.213V7.32157C124.118 7.27242 124.122 7.18754 124.908 7.32157C124.97 7.00436 125.032 6.68715 125.098 6.36994C125.967 6.20463 126.625 6.20463 127.168 6.36994V5.99019H128.298V6.18227H128.863V6.37441C129.052 6.31186 129.238 6.24929 129.428 6.18227V5.99019C129.211 5.77127 129.353 5.9902 129.238 5.61045C129.856 5.62385 129.794 5.8517 130.178 5.61045L130.368 5.23065L131.498 5.61045V5.99019C132.005 5.99019 132.566 6.05272 132.817 5.79806V5.41831L133.192 5.61045V5.41831C133.568 5.35576 133.947 5.29324 134.322 5.22623C134.499 5.34239 134.256 5.49873 134.512 5.41831L134.702 5.03856C134.94 5.03856 135.183 5.37808 135.642 5.23065V5.03856C135.955 4.97602 136.269 4.91344 136.582 4.84643L136.392 5.41831H136.582C137.001 5.87849 136.935 5.6864 137.522 5.61045C137.5 6.21359 137.156 5.96782 137.712 6.18227C137.796 6.65585 137.884 6.88376 137.902 7.51818C137.381 7.65668 137.483 7.57175 137.337 8.09H137.147V9.04163C136.697 9.13099 136.556 9.26054 136.207 9.42138V8.84955H136.017C135.739 9.91734 135.691 9.24269 135.077 9.61352V9.80565L134.322 10.3775C134.384 10.1854 134.446 9.99776 134.512 9.80565H134.322C134.208 10.1095 134.155 10.2569 134.133 10.7573C133.422 10.9092 133.078 11.1281 132.063 11.137V10.7573H131.687V11.137H130.747V11.3291H130.937C130.818 11.6016 130.716 11.4721 130.562 11.7089H130.187L130.377 11.3291H130.187C130.001 11.5882 130.076 11.7044 129.622 11.7089C129.622 11.7089 129.489 11.4364 129.247 11.5168C129.185 11.6419 129.123 11.7714 129.057 11.8965H128.682L128.492 13.0403L127.737 13.2324V12.4684H127.362C127.225 13.0805 127.106 13.1609 126.422 13.2324L126.612 12.6605H126.422C126.351 12.8794 126.369 13.3396 126.047 13.2324L125.857 12.6605C125.667 12.723 125.482 12.7856 125.292 12.8526V13.2324C124.992 13.1162 124.846 13.0626 124.352 13.0403V12.4684H124.162V13.0403C124.378 13.2592 124.237 13.0403 124.352 13.42C123.91 13.4826 123.474 13.5451 123.032 13.6121V13.9919C122.366 14.0634 122.458 14.2287 121.902 14.3717V14.9435C121.443 14.8363 121.487 14.7425 121.147 14.5637V14.9435H120.958V15.5154H121.147V15.1356H121.523V15.5154C121.836 15.4528 122.149 15.3903 122.463 15.3233V15.8952H122.838V15.3233C123.151 15.3858 123.465 15.4484 123.778 15.5154C123.866 15.0597 123.994 14.9167 124.153 14.5637C124.767 14.5682 125.513 14.4789 125.848 14.7559H126.038C126.1 14.6308 126.161 14.5012 126.228 14.3761H126.603V14.184H126.978V13.9919L127.353 14.184V13.9919H129.238C129.176 13.7998 129.114 13.6121 129.048 13.42H129.423V13.2279H129.613V13.42L130.178 13.6121C130.191 13.8802 130.222 13.6657 129.988 13.8042C130.2 14.0053 129.988 13.8892 130.363 13.9964V13.8042H130.553V13.2324H130.743C130.906 12.9688 130.884 12.9018 130.933 12.4684C131.378 12.4461 131.409 12.4103 131.687 12.2763V12.4684H131.877V12.6605L131.687 13.0403H132.252V12.6605C132.694 12.5979 133.131 12.5354 133.572 12.4684V12.6605H133.762C133.974 12.5086 133.691 12.4103 133.952 12.4684V12.6605H134.706V13.0403H134.896C134.958 12.6605 135.02 12.2763 135.086 11.8965H135.461V12.2763H135.651V11.7044C136.083 11.7223 136.141 11.8652 136.406 11.8965L136.595 11.5168C136.595 11.5168 137.112 11.6955 137.35 11.7089V11.3291L137.54 11.5212C137.792 11.4587 138.043 11.3961 138.295 11.3291V11.5212H139.235V10.9494H139.61V11.1415H139.8V10.9494L140.175 11.1415L140.365 10.5696C140.864 10.382 140.758 10.9851 141.119 10.9494V10.7573C141.945 10.5607 142.157 10.2882 143.004 10.1854V10.3775H142.814C142.457 10.5428 143.189 10.5696 143.189 10.5696C143.348 10.7841 143.167 10.5964 143.379 10.7617V10.382L144.319 10.1899C144.381 10.0648 144.443 9.93517 144.509 9.81007L144.699 10.0022C145.816 10.0737 145.961 9.60459 146.584 9.23824V9.81007H146.773C146.99 9.59115 146.773 9.73415 147.149 9.61799V9.23824C147.338 9.30079 147.524 9.36331 147.714 9.43032L147.903 9.05058H148.658V8.85849H148.848C148.963 9.3142 148.91 9.2114 149.223 9.43032V8.85849C150.212 8.69766 150.057 8.83615 150.918 9.23824C151.015 8.79147 151.192 8.5234 151.483 8.28661C151.699 8.50553 151.483 8.36253 151.858 8.47869V8.09895H152.423V7.7192C152.736 7.78175 153.05 7.84427 153.363 7.91128V8.29108H153.738V7.7192C154.149 7.74601 154.365 7.91128 154.493 7.91128V7.7192L155.058 7.52707C155.12 7.65216 155.182 7.78177 155.248 7.90687C155.848 8.08558 156.748 7.50922 157.132 7.33498L156.943 6.7631H157.508C157.622 7.21881 157.569 7.11606 157.883 7.33498C158.042 7.54943 157.861 7.36176 158.073 7.52707C158.086 7.02668 158.148 6.87924 158.262 6.57544C158.637 6.51289 159.017 6.45037 159.392 6.38335C159.551 6.59781 159.37 6.41013 159.582 6.57544C159.436 6.76755 159.352 6.76312 159.207 6.95524H159.772L159.582 6.38335L159.772 6.19122C160.05 6.28057 160.072 6.41016 160.527 6.38335V6.19122H160.716V6.38335C160.968 6.4459 161.22 6.50842 161.471 6.57544V6.76757C162.239 7.06244 162.588 6.6291 162.976 6.95971C163.563 7.35287 163.064 7.20542 163.351 7.72367L163.726 7.91576V8.29556H163.916C164.088 8.55468 164.058 8.63062 164.106 9.05952L163.351 8.86738C163.501 9.48393 163.7 9.52416 163.726 10.3909C163.515 10.5517 163.7 10.3686 163.537 10.583H163.347C163.29 10.0112 163.32 10.0647 162.972 9.81901V10.0111H163.161C163.038 10.2658 162.91 10.5205 162.786 10.7751C162.296 10.784 162.137 10.8153 161.846 10.9673V11.1593C161.524 11.271 161.52 10.9807 161.471 10.9673C160.796 10.793 160.368 11.2085 160.151 11.5391H159.962C159.9 11.9189 159.838 12.3031 159.772 12.6828H159.397L159.207 12.3031C158.955 12.3656 158.704 12.4282 158.452 12.4952C158.492 12.9464 158.532 12.9688 158.642 13.2592C158.205 13.2413 158.161 13.1073 157.887 13.0671L157.697 13.4468C157.446 13.5094 157.194 13.5719 156.943 13.6389C156.806 14.1661 156.89 14.0634 156.378 14.2108C155.716 14.814 155.159 13.9695 155.058 14.0187V14.2108C154.745 14.4029 154.431 14.5905 154.118 14.7827C154.219 15.4483 154.303 15.1356 154.118 15.7343H154.308V15.5422H155.062V15.9219L155.627 15.7298V15.5377L156.192 15.7298V15.158C156.382 15.2205 156.567 15.283 156.757 15.3501V15.158L156.567 14.9658H157.697C157.759 15.158 157.821 15.3456 157.887 15.5377C158.011 15.4752 158.262 15.158 158.262 15.158C158.452 15.2205 158.638 15.283 158.827 15.3501V15.158C159.105 15.0105 159.141 15.015 159.582 14.9658V14.5861H159.957V14.2064H160.712V14.5861C161.136 14.537 161.211 14.5682 161.467 14.394V14.2019H161.842V14.0097H162.217V13.8177C162.552 13.5451 162.667 13.3887 163.157 13.2458V13.8177H163.912C163.974 13.5005 164.035 13.1832 164.102 12.866H164.477C164.415 13.0581 164.353 13.2458 164.287 13.4379H164.477C164.746 13.1654 165.527 12.9509 165.982 12.866V12.4863C166.233 12.4237 166.485 12.3612 166.737 12.2942V11.7223H167.112V12.2942H167.487V11.7223H168.427C168.365 11.9144 168.303 12.102 168.237 12.2942H168.612C168.807 12.0752 168.961 11.9278 169.367 11.9144V12.1065H169.557L169.747 11.9144C169.923 11.5704 170.007 11.615 170.122 11.1504L170.687 10.9583V10.7662L170.877 10.9583L171.442 10.7662V11.3381H171.817C171.857 10.8868 171.896 10.8645 172.007 10.5741L172.382 10.7662V10.5741C172.651 10.3373 172.673 10.0469 172.947 9.81007C173.004 9.89942 173.331 10.5026 173.512 10.382L173.701 9.81007C174.518 9.74752 175.335 9.685 176.151 9.61799V9.81007C175.63 9.94857 175.732 9.86369 175.586 10.382C176.054 10.2971 176.279 10.2077 176.906 10.1899V9.99773H176.716V9.0461C177.029 9.10865 177.343 9.17123 177.656 9.23824C177.718 9.04613 177.78 8.85847 177.846 8.66636C178.062 8.88528 177.921 8.66635 178.036 9.0461L178.601 9.23824V9.0461C178.989 8.83165 178.94 8.75125 179.541 8.66636V8.09448C179.942 8.07214 180.185 7.89793 180.295 7.90239L180.485 8.09448V7.71473L181.425 7.52259V7.90239C181.549 7.83985 181.677 7.77727 181.801 7.71026V7.51818C182.101 7.48243 182.034 7.84878 182.176 7.89792H182.93C182.992 7.58071 183.054 7.2635 183.12 6.94629C183.434 7.00884 183.747 7.07136 184.06 7.13837L184.25 6.75863H184.44V6.95077C184.63 6.88822 184.815 6.82564 185.005 6.75863V6.37888C185.221 6.5978 185.08 6.37887 185.195 6.75863H185.57C185.658 6.30292 185.786 6.15995 185.945 5.807C186.572 5.81594 187.64 5.99914 187.64 5.99914V5.807H188.015V5.61492H188.58C188.642 5.48982 188.704 5.36021 188.77 5.23512C188.96 5.29767 189.145 5.36024 189.335 5.42725V5.61939H190.275V5.23959L191.03 5.04751V5.42725H191.405C191.524 5.94998 191.652 5.86063 191.78 6.37888H192.345C192.482 6.90607 192.398 6.80333 192.91 6.95077V7.33051C191.784 7.56283 191.934 8.09448 191.59 9.0461H192.72L192.91 8.28214C193.696 8.16151 193.444 8.09451 194.23 7.90239V8.28214C195.121 7.90238 194.989 7.90238 195.735 8.28214V7.90239C195.986 7.83985 196.238 7.77727 196.489 7.71026V7.33051H196.865V7.52259H197.054V7.33051C197.482 7.24562 197.562 7.42877 197.809 7.52259V7.33051H197.619C197.271 7.14733 197.994 7.13837 197.994 7.13837V6.75863H198.37V6.37888C198.961 6.49058 199.208 6.68715 199.875 6.75863L200.064 6.18675C200.064 6.18675 199.663 6.1555 199.875 5.99466H200.25V6.18675H201.38V5.61492C201.98 5.74001 201.75 5.89637 201.945 5.99466C202.258 5.96339 202.293 5.61939 202.32 5.61492C202.682 5.51216 202.58 5.73998 202.695 5.807H202.885V5.61492C203.136 5.67747 203.388 5.73998 203.64 5.807C203.776 5.27981 203.692 5.38255 204.204 5.23512V5.61492H204.959C205.136 5.2709 205.22 5.31554 205.334 4.8509L205.899 5.04304V4.8509C206.023 4.78835 206.151 4.72583 206.275 4.65882V5.03856H206.65L206.46 4.46668C206.91 4.37733 207.051 4.24777 207.4 4.08693V4.8509C208.38 4.59177 208.071 4.43096 209.285 4.65882V4.08693H209.85V4.27907C209.77 4.39076 209.541 4.30587 209.66 4.65882H209.85C210.154 3.47934 210.251 4.3371 210.98 3.8948C211.408 3.63567 210.966 3.19336 211.92 2.94317V3.13531L212.485 2.94317V3.32297H212.674V2.94317C213.341 3.01465 213.248 3.18 213.804 3.32297V3.70272C213.981 4.00205 215.151 4.05567 214.559 4.65435H214.934V5.41831L214.559 5.61045C214.55 5.67299 214.736 6.03486 214.749 6.37441H215.124C215.036 6.83012 214.908 6.97309 214.749 7.32604C214.413 7.34391 214.069 7.52711 213.994 7.51818V7.32604H213.239V7.51818L212.109 7.71026V8.09C211.858 8.2151 211.606 8.34465 211.355 8.46975V8.27767H211.165V8.84955L209.845 9.2293C210.061 9.44822 209.845 9.30522 210.22 9.42138V9.61352C210.551 9.76989 210.825 9.5018 210.975 9.42138V9.2293H211.54V8.84955C212.418 8.80487 212.613 8.57254 213.235 8.27767V8.08553H214.555V8.27767H214.365C214.149 8.49659 214.365 8.35359 213.99 8.46975V8.84955C214.758 8.62616 214.188 8.6753 214.555 8.27767L214.93 8.46975V8.27767H215.305V8.08553H215.87C216.069 7.96937 216.338 7.14286 216.81 7.32157V7.5137H217.185V6.94182C217.375 7.00437 217.56 7.06689 217.75 7.1339V6.94182C218.125 6.87927 218.505 6.8167 218.88 6.74968V7.12943H219.255C219.317 7.32154 219.379 7.5092 219.445 7.70131H219.635V7.32157H220.01C220.12 6.6112 220.12 6.88376 220.01 6.17786C220.067 6.2002 221.824 6.59334 221.895 6.5576V6.36547H222.084V5.6015H222.274C222.658 5.94998 223.13 5.65511 223.779 5.6015V5.22176C224.159 5.32898 223.943 5.19939 224.154 5.41384C224.847 5.21279 224.671 5.02963 225.095 4.64987V4.45774C225.571 4.1584 226.582 4.44433 227.354 4.45774C227.474 3.93501 227.601 4.02436 227.729 3.50611C228.537 3.47483 228.374 3.38549 228.859 3.12636V3.69824H229.614C229.654 3.247 229.694 3.22468 229.804 2.93428L230.369 3.12636L230.559 2.74662H230.934V2.55448C231.124 2.49193 231.309 2.42941 231.499 2.3624L231.689 2.93428C232.165 2.54559 231.768 2.47409 232.629 2.3624V2.55448C232.412 2.72872 232.408 2.69302 232.254 2.93428H232.443V3.12636C232.836 2.91638 232.779 2.8181 233.383 2.74662C233.542 2.96107 233.361 2.77345 233.573 2.93875C233.353 3.30064 233.414 3.12192 233.008 3.3185V3.51058H233.383C233.322 3.89034 233.26 4.27459 233.194 4.65435H233.383V4.84643H233.194V5.22623C233.255 5.673 233.317 6.1153 233.383 6.56207H233.194C233.035 6.78099 233.097 6.83013 232.819 6.94182V6.74968H232.629C232.505 6.9418 232.377 7.12945 232.254 7.32157H231.689L231.499 7.70131C231.247 7.76386 230.996 7.82643 230.744 7.89345C230.682 8.08556 230.621 8.27322 230.554 8.46533L229.989 8.65741L229.799 9.03716H229.61V8.84508C228.917 8.67977 228.701 9.49287 228.29 9.03716V9.41696H227.915C227.977 9.67162 228.038 9.92626 228.105 10.1809H227.915C227.703 10.5071 227.796 10.44 227.35 10.5607C227.332 10.5205 227.081 9.86816 226.975 9.98879V10.1809L226.6 10.373C226.538 10.5651 226.476 10.7528 226.41 10.9449H225.845C225.214 11.2576 225.598 11.4498 224.525 11.5168C224.587 11.7089 224.649 11.8965 224.715 12.0887C224.967 12.0261 225.218 11.9635 225.47 11.8965V12.4684H225.659V12.2763H226.414C226.988 12.0573 227.253 11.7446 228.109 11.7044V11.3246C228.643 11.204 228.608 10.9717 228.674 10.9449H229.429V11.137L230.184 10.9449C230.184 10.9449 230.267 11.1817 230.559 11.137V10.9449L231.313 11.137V10.9449C231.53 10.726 231.388 10.9449 231.503 10.5651H231.313V10.7573C231.15 11.1192 231.124 10.3775 231.124 10.3775C231.812 10.44 232.505 10.5026 233.194 10.5696L233.383 10.1899C233.573 10.1318 233.728 10.4847 234.138 10.382V10.1899H235.078V10.382H235.268V10.1899H236.023L236.213 9.61799H236.402L236.213 9.23824H236.778C236.994 9.45716 236.778 9.31416 237.153 9.43032V9.05058C237.603 9.13993 237.744 9.26948 238.093 9.43032V9.23824H237.903C237.554 9.05506 238.278 9.0461 238.278 9.0461V9.23824C238.495 9.45716 238.353 9.23823 238.468 9.61799C238.87 9.59565 239.108 9.42585 239.223 9.42585V9.61799H239.598C239.651 9.27844 239.788 9.23824 239.788 9.23824C239.726 9.04613 239.664 8.85847 239.598 8.66636H239.788V8.47422C240.322 8.71548 240.565 8.96569 241.293 9.0461V8.66636C242.392 8.4117 241.399 8.18384 242.423 8.66636V7.90239H242.612V8.09448C242.864 7.90236 243.116 7.71471 243.367 7.52259V8.28661H243.557C243.65 8.19726 243.504 7.97831 243.747 8.09448V8.28661H243.937C243.937 8.28661 243.884 8.97016 244.126 8.66636V8.47422C244.343 8.2553 244.201 8.47423 244.316 8.09448H243.751C243.897 7.52261 243.866 7.59408 244.506 7.52259V7.71473L245.071 7.52259V7.71473H245.636V7.90687C246.121 8.00962 246.669 7.31262 246.956 7.14285L247.521 7.33498V7.14285C247.834 6.93733 247.834 6.88373 248.275 6.7631C248.213 6.95521 248.152 7.14287 248.086 7.33498H248.275V7.52707C248.465 7.40197 248.65 7.27242 248.84 7.14732V6.95524H249.215C249.555 6.80333 249.626 6.52183 249.78 6.19122C250.094 6.44588 250.407 6.70058 250.72 6.95524C250.835 6.57995 250.729 6.49058 251.096 6.38335C251.157 6.40569 251.153 6.74076 251.471 6.7631C251.872 6.22251 251.639 6.37885 252.226 6.57096C252.287 5.95442 252.398 6.01255 252.601 5.61939C253.258 5.72215 252.949 5.80703 253.541 5.61939V6.7631H253.731C253.943 6.43696 253.85 6.50398 254.296 6.38335C254.649 6.98203 254.993 6.92397 255.05 7.90687C255.567 7.9292 256.414 8.17046 256.555 7.90687H256.745V8.09895C257.266 8.22404 257.857 8.63061 258.065 9.05058V9.62246H258.255C258.515 9.97541 258.692 10.0648 258.82 10.5741C258.63 10.5115 258.444 10.449 258.255 10.382V10.5741H258.444V11.146H258.634C258.806 11.4274 258.802 11.6151 258.824 12.0976C258.608 12.3165 258.749 12.0976 258.634 12.4773C258.007 12.5399 257.381 12.6024 256.75 12.6694V12.2897C256.498 12.3522 256.246 12.4148 255.995 12.4818V12.102C255.871 12.1646 255.743 12.2271 255.62 12.2942C255.558 12.1691 255.496 12.0395 255.43 11.9144C255.425 11.9144 254.874 12.1735 254.49 11.9144L254.3 11.3425C254.079 11.1862 253.978 11.901 253.545 11.7223V11.5302C253.329 11.3113 253.47 11.5301 253.355 11.1504L252.79 11.3425V11.1504H252.601C252.663 10.9583 252.724 10.7707 252.79 10.5786C252.79 10.5786 252.557 10.5205 252.601 10.1988C252.601 10.1988 252.914 10.1139 252.79 9.81901H252.601C252.384 10.0379 252.601 9.89499 252.226 10.0111C252.164 10.2033 252.102 10.3909 252.036 10.583C251.594 10.5294 251.568 10.5205 251.281 10.3909V10.1988C250.963 10.2212 250.963 10.5607 250.906 10.5786C250.478 10.7305 250.147 10.3417 249.966 10.3864V10.5786C249.326 10.8377 249.184 11.1728 248.461 11.3425C248.522 11.1504 248.584 10.9628 248.65 10.7706H248.275C247.997 11.2889 247.697 11.6419 246.956 11.7223V11.1504H246.766C246.62 11.7223 246.651 11.6508 246.011 11.7223V11.3425C245.225 11.7759 245.12 11.7312 244.126 11.5347V11.1549H243.937C243.923 11.892 243.967 11.9412 243.372 12.1065V12.2986C243.191 12.6516 243.182 11.9189 243.182 11.9189H242.807C242.745 12.044 242.683 12.1735 242.617 12.2986C242.304 12.2361 241.99 12.1735 241.677 12.1065V12.4863H241.112V12.6784C240.896 12.8973 241.037 12.6784 240.922 13.0581L239.792 13.2503V12.8705L237.908 13.0626V13.4423H237.343V13.6345C237.175 13.9919 237.153 13.2547 237.153 13.2547C236.548 13.4022 236.747 13.5407 236.023 13.6345V14.2064C234.911 14.0902 234.995 13.5317 233.763 13.4423C233.759 14.0768 233.666 14.3047 233.573 14.7782H233.198C233.256 14.6129 233.56 14.3582 233.388 14.0142H233.198V14.2064C232.982 14.4253 233.123 14.2063 233.008 14.5861L231.878 14.7782V15.158C231.247 15.0418 230.691 14.6352 229.994 14.9658C229.87 15.158 229.742 15.3456 229.619 15.5377C229.107 15.6896 229.036 15.0239 228.864 14.9658C228.524 14.8497 228.727 15.1803 228.674 15.3456C228.484 15.283 228.299 15.2205 228.109 15.1535V15.9175H227.734L227.544 16.2972C227.235 16.391 227.195 16.1096 227.169 16.1051C226.714 16.0247 226.679 16.2972 226.414 16.2972V16.1051C226.039 16.0426 225.659 15.98 225.284 15.913V16.2928C224.035 16.4268 223.4 16.4581 222.46 16.2928L222.27 16.8646C221.917 16.7708 221.369 16.7842 220.765 16.6726V16.4804C220.981 16.2615 220.84 16.4804 220.955 16.1007C220.504 16.1185 220.487 16.2257 220.2 16.2928V16.1007C219.886 15.8952 219.891 15.8281 219.445 15.7209V15.3411H219.07C219.008 15.149 218.946 14.9614 218.88 14.7693L217.75 14.5772V14.1974C217.9 14.26 218.342 14.5861 218.69 14.3895V14.1974C218.134 13.8311 218.231 13.4379 218.315 12.8616C218.567 12.7365 218.571 12.5622 218.69 12.4818C218.814 12.5444 218.942 12.6069 219.065 12.6739V11.9099H219.255C219.193 11.5302 219.132 11.1459 219.065 10.7662C218.876 10.7036 218.69 10.6411 218.5 10.5741C218.562 10.6992 218.624 10.8287 218.69 10.9538L218.125 10.7617V11.1415H217.936C217.874 11.2666 217.812 11.3961 217.746 11.5212H217.181C217.225 11.9636 217.388 11.6374 217.181 12.0931L216.806 11.901V12.2807C216.603 12.6158 216.616 11.901 216.616 11.901C216.302 11.9635 215.989 12.0261 215.676 12.0931C215.676 12.0931 215.587 11.8072 215.301 11.901C215.239 12.0261 215.177 12.1556 215.111 12.2807H214.546C214.484 12.4728 214.422 12.6605 214.356 12.8526C214.065 12.6962 213.522 12.1646 213.036 12.2807C212.974 12.4058 212.913 12.5354 212.847 12.6605C212.485 12.6247 212.533 12.2897 212.471 12.2807H212.282V12.4729H211.341V12.665H211.717C211.655 13.0447 211.593 13.429 211.527 13.8087H211.152C210.979 13.7328 211.028 13.2279 210.397 13.429L210.207 13.8087H209.267V13.6166C208.993 13.4647 208.949 13.4826 208.512 13.4245V13.9964C208.322 13.9338 208.137 13.8713 207.947 13.8042V13.9964C207.731 14.2153 207.872 13.9964 207.758 14.3761C207.056 14.5772 207.25 14.7693 206.817 15.1401V15.3322H206.252V14.7603H205.877V15.1401H204.937V14.948H204.747C204.624 15.2026 204.496 15.4573 204.372 15.712L203.997 15.5198V15.712L203.432 16.0917V15.5198H203.242V15.712L202.677 15.5198V15.712C202.413 15.6986 202.752 15.5511 202.488 15.5198L201.358 15.712V16.2839H201.168V16.0917C200.656 15.8147 200.245 16.3598 200.038 16.4715C199.932 15.8728 199.853 15.6717 199.283 15.5198C199.389 15.9845 199.482 15.9398 199.658 16.2839H199.283C198.983 16.5653 198.175 16.4938 197.588 16.4759V16.0962H197.213V16.4759C196.838 16.4134 196.458 16.3509 196.083 16.2839C195.991 15.8326 195.907 15.8326 195.708 15.5198C195.964 15.2965 195.894 15.6628 196.083 15.3278C195.836 15.1714 195.863 15.1937 195.708 14.948H196.083C196.123 14.4967 196.163 14.4744 196.273 14.184C195.739 14.0589 195.562 13.8311 195.333 13.42H195.898C196.022 12.9107 196.149 12.4014 196.273 11.8965C196.026 11.7401 196.052 11.7625 195.898 11.5168C195.496 11.7491 195.487 11.9457 194.958 12.0887V11.7089H194.768V12.2807C194.035 12.3433 193.921 12.589 193.448 12.8526C193.409 12.4014 193.369 12.3791 193.259 12.0887C193.047 12.2495 193.232 12.0663 193.069 12.2807H192.879L193.069 12.4729L192.879 13.0448C192.08 12.9063 191.974 13.0135 190.994 13.0448L191.184 13.6166H190.994C190.84 13.8668 190.862 13.84 190.619 13.9964V13.2324C189.661 13.286 189.789 13.5719 188.735 13.6121C188.593 14.2599 188.333 14.4923 187.605 14.5637V14.184H187.415V14.3761C187.252 14.738 187.225 13.9964 187.225 13.9964C187.035 13.9338 186.85 13.8713 186.66 13.8042L186.85 14.184H186.475C186.175 14.4655 186.011 14.8408 185.91 15.3278H185.345V14.948C184.135 14.9926 183.831 15.6449 182.895 15.8996C183.014 15.3769 183.142 15.4662 183.27 14.948C182.065 15.216 181.209 16.056 180.446 14.7559C181.293 14.2555 180.847 14.0455 180.635 13.2324H179.881C179.722 13.0179 179.903 13.2056 179.691 13.0403C179.748 12.875 180.053 12.6203 179.881 12.2763H179.691V12.0842H179.126C178.808 12.6114 178.318 12.4684 177.996 12.8481L177.806 13.42H177.241V13.6121C177.051 13.6747 176.866 13.7372 176.676 13.8042V13.4245C176.089 13.5541 175.82 13.9964 175.357 14.1885H174.602V14.3806C174.412 14.3181 174.227 14.2555 174.037 14.1885V14.5682L172.907 14.7603V14.9524H172.152C172.09 14.9658 172.104 15.2161 171.777 15.1446V14.9524H171.402V14.7603L170.082 14.5682C169.945 14.8363 169.742 15.1446 169.517 15.3322V14.5682H169.328V14.948C169.138 14.8854 168.952 14.8229 168.763 14.7559C168.674 15.2027 168.449 15.3456 168.387 15.7075H168.577C168.639 15.8996 168.701 16.0873 168.767 16.2794C167.694 16.2928 167.584 16.0783 166.882 15.8996C166.604 16.4178 166.304 16.7708 165.563 16.8512V16.4715H165.187V17.2355H164.812V17.4276H163.492V17.6197H163.117V17.8118C162.994 17.7492 162.866 17.6867 162.742 17.6197V17.8118H162.552C162.274 17.5839 162.711 17.6733 162.363 17.432C162.385 18.0352 162.729 17.7895 162.173 18.0039V17.6242C161.114 17.7537 161.564 18.0977 161.043 18.3881H160.668C160.606 18.5803 160.544 18.7679 160.478 18.96H159.538V18.7679C160.006 18.4194 159.781 18.6205 159.728 18.0039H159.352V18.5758C157.715 18.5803 157.428 18.9064 155.963 18.9556V18.5758C155.711 18.7009 155.46 18.8305 155.208 18.9556C155.27 19.2102 155.332 19.4649 155.398 19.7195C154.908 19.6882 154.753 19.6793 154.458 19.5274V19.3353L153.893 19.5274C153.862 19.5229 153.827 19.2593 153.518 19.3353V19.5274H153.142V19.7195H152.767V19.9117C152.507 20.0859 152.436 20.0457 152.012 20.1037V19.5319H151.823V19.724H150.883C150.755 19.7821 150.874 19.9697 150.318 20.1037C150.256 20.2959 150.194 20.4835 150.128 20.6756H150.318C150.596 20.9079 149.634 20.8632 149.563 20.8677V20.6756C148.808 20.5505 148.058 20.421 147.303 20.2959C147.405 19.7642 147.449 20.278 147.303 19.724C147.1 19.8312 146.91 20.2378 146.548 20.1037V19.9117H146.359L146.548 19.5319H146.359C146.142 19.3129 146.359 19.4559 145.983 19.3398C145.922 19.1477 145.86 18.96 145.794 18.7679H146.169C146.107 18.5758 146.045 18.3881 145.979 18.196H146.169V18.3881C146.332 18.75 146.359 18.0084 146.359 18.0084H146.548V17.8163C146.425 17.7537 146.297 17.6912 146.173 17.6242C146.235 17.4321 146.297 17.2444 146.363 17.0523H146.173V16.8602H146.738V16.6681C146.491 16.5117 146.517 16.534 146.363 16.2883C146.685 16.0738 146.619 16.1677 146.738 15.7165L147.493 15.5243C147.515 15.5109 147.784 14.8184 147.868 14.9524V15.3322H148.433C148.61 14.9882 148.693 15.0329 148.808 14.5682C148.552 14.3448 148.521 14.2197 148.433 13.8042H148.808V13.4245H149.183V13.2324C148.808 13.2949 148.429 13.3575 148.053 13.4245V13.2324C147.806 13.2458 147.581 13.5585 147.113 13.4245V13.2324C146.738 13.1698 146.359 13.1073 145.983 13.0403V13.8042H145.608V14.184C145.418 14.0589 145.233 13.9293 145.043 13.8042V13.4245L144.853 13.6166C144.637 13.8355 144.778 13.6166 144.664 13.9964H143.909V14.3761C143.534 14.3136 143.154 14.251 142.779 14.184C142.717 14.5012 142.655 14.8184 142.589 15.1356C142.13 15.2428 142.174 15.3322 141.835 15.5154V15.3233C141.64 15.158 141.574 14.9927 141.459 14.7514C141.243 14.9703 141.384 14.7514 141.27 15.1312C140.894 15.1937 140.515 15.2563 140.14 15.3233V15.703C139.694 15.7432 139.672 15.7835 139.385 15.8952V15.5154H139.575L139.385 14.9435H139.195V15.3233C139.072 15.2607 138.944 15.1982 138.82 15.1312C138.604 15.2831 138.745 15.5824 138.255 15.5109C138.193 15.3858 138.131 15.2562 138.065 15.1312H137.875V15.5109L137.311 15.703C137.213 15.6762 137.196 15.2205 136.935 15.3233C136.746 15.5779 136.56 15.8326 136.37 16.0873C136.181 16.0247 135.995 15.9622 135.805 15.8952V16.2749H135.43V16.6547C135.218 16.4938 135.404 16.677 135.24 16.4625C135.037 16.2883 135.205 16.4938 135.051 16.2704H135.24V16.0783H134.676V16.2704H134.486V16.0783H133.921C133.859 15.9532 133.797 15.8237 133.731 15.6986C133.607 15.7611 133.479 15.8237 133.356 15.8907C133.1 15.9666 133.435 16.0962 133.166 16.0828V15.8907H132.791C132.786 16.4804 132.844 16.8736 132.981 17.2265H132.226V17.6063H132.036V17.0344H131.661L131.471 17.6063C131.259 17.4455 131.445 17.6286 131.281 17.4142H131.092L131.281 16.8423C131.092 16.9049 130.906 16.9674 130.716 17.0344V17.2265H130.341C130.279 17.3516 130.218 17.4812 130.152 17.6063H129.397V17.7984H129.207C129.114 17.7135 129.26 17.4901 129.017 17.6063L128.827 17.986L127.887 18.1782V17.7984H127.697L127.508 18.1782H127.318L127.128 17.7984C126.868 17.6777 126.598 17.7046 126.373 17.6063C126.36 18.3435 126.404 18.3926 125.808 18.5579V18.1782H125.433V18.5579H124.493L124.118 19.5095H123.743V19.3174C123.681 19.3085 123.31 19.4872 122.988 19.5095C123.094 19.0449 123.187 19.0895 123.363 18.7455H122.988L122.798 19.3174L121.479 19.1253C121.28 19.2236 121.342 19.5542 121.479 19.6972H121.103C120.94 19.8937 120.777 19.9608 120.538 20.077V19.5051C119.695 19.5766 119.991 19.6257 119.219 19.5051V19.6972C119.435 19.9161 119.294 19.6972 119.409 20.077H118.468C118.42 20.068 118.407 19.8312 118.093 19.8848V20.077H117.718C117.656 20.2691 117.594 20.4567 117.528 20.6488C117.316 20.4879 117.502 20.6712 117.339 20.4567C117.127 20.2959 117.312 20.479 117.149 20.2646C117.396 20.1082 117.369 20.1305 117.524 19.8848H116.769C116.601 20.0859 116.438 20.135 116.204 20.2646V20.4567L115.639 20.2646V20.4567C115.886 20.6131 115.86 20.5907 116.014 20.8365H115.639C115.419 20.5773 115.295 20.5461 114.884 20.4567V20.8365C114.531 20.7024 114.147 20.6488 113.565 20.6443C113.357 20.2467 113.26 20.3048 113.19 19.6927H112.814V19.3129C112.603 19.4738 112.788 19.2906 112.625 19.5051H112.435V19.8848L112.06 20.077V20.6488H111.87C111.68 20.3941 111.495 20.1395 111.305 19.8848H111.115C110.868 19.4604 111.217 19.3532 110.74 18.9332C110.802 18.6785 110.864 18.4239 110.93 18.1692C110.93 18.1692 110.687 18.0754 110.74 17.7895H110.93V16.8379C110.93 16.8379 111.045 16.8378 111.12 16.4581C111.64 16.3196 111.539 16.4045 111.685 15.8862H112.06V16.0783L112.625 15.8862V15.5064L113.565 15.6986C113.702 15.1714 113.618 15.2741 114.13 15.1267V14.3627H114.32L114.13 13.983H114.32C114.478 13.7685 114.297 13.9561 114.509 13.7908V13.5988C114.69 13.2458 114.699 13.9785 114.699 13.9785L115.264 14.1706V13.9785H115.074C115.136 13.7864 115.198 13.5987 115.264 13.4066H116.394V13.5988C116.835 13.5362 117.272 13.4736 117.714 13.4066V13.0269H118.468V12.6471C117.824 12.6382 117.166 12.5175 116.774 12.455C116.65 12.6471 116.522 12.8348 116.398 13.0269L115.268 13.2189C115.374 12.7543 115.467 12.799 115.644 12.455H114.889V12.6471H115.079C115.295 12.9465 114.615 12.8258 114.514 12.8392V13.4111H114.324V13.6032C114.011 13.6658 113.697 13.7283 113.384 13.7953C113.446 13.4781 113.507 13.1609 113.574 12.8437C113.115 12.9509 113.154 13.0402 112.819 13.2234V13.4156C112.444 13.2905 112.064 13.1609 111.689 13.0358V13.2279C111.473 13.4468 111.614 13.2279 111.499 13.6076C111.19 13.6657 110.678 14.0053 110.559 13.9874V13.7953H109.994C109.734 13.7417 110.065 13.5451 109.804 13.6032L109.615 13.983H109.239L109.429 13.6032H109.239C109.023 13.8221 109.239 13.6791 108.864 13.7953V14.1751C108.551 14.2376 108.237 14.3002 107.924 14.3672C107.889 14.3583 107.862 14.0946 107.549 14.1751V14.3672H107.174V14.5593C106.988 14.5191 106.953 14.0455 106.799 14.1795C106.49 14.4387 107.006 14.5459 106.234 14.7514V15.3233H106.044V14.9435H105.854C105.792 15.0686 105.73 15.1982 105.664 15.3233H104.909C104.684 14.9078 104.495 14.6933 103.969 14.5593V14.7514H103.215L103.025 15.1312L102.46 14.9391V15.5109H102.085C101.621 16.3106 101.665 15.7343 101.145 16.0828C101.206 16.2079 101.268 16.3374 101.334 16.4625C100.959 16.4 100.58 16.3375 100.205 16.2704C100.187 16.2749 100.107 16.601 99.8293 16.6502V16.4581H99.0746L98.8848 16.266V16.4581C98.3508 16.8065 98.3331 17.0076 97.3798 17.0299C97.1679 16.7038 97.2606 16.7708 96.8148 16.6502V17.0299H96.4396V16.8379C96.2013 16.7619 95.9453 17.3784 95.8746 17.4097C95.4862 17.5839 95.3362 17.2444 95.1199 17.2176V17.4097C94.7448 17.4722 94.3651 17.5348 93.99 17.6018L93.8002 17.0299C93.2794 17.1684 93.3809 17.0836 93.2353 17.6018C92.6703 17.6644 92.1053 17.7269 91.5404 17.794L91.3506 18.1737H90.0309V18.3658C89.541 18.5132 89.1526 18.3837 88.7112 18.5579C88.6053 18.0933 88.5127 18.138 88.3361 17.794C88.1243 17.9548 88.3096 17.7716 88.1462 17.986C87.4842 18.4596 88.1022 18.6651 87.2062 18.9377V19.1298H86.266L86.0762 19.5095C85.6569 19.6793 85.5466 19.2727 85.3215 19.3174V19.5095C84.9464 19.5855 85.0831 19.4246 84.9463 19.3174H84.7566V19.6972C84.5668 19.6346 84.3814 19.5721 84.1916 19.5051V19.3129L83.6266 19.5051V19.3129H82.8719L82.6821 18.9332C82.4173 18.9332 82.5938 18.8751 82.4923 19.1253C82.2583 18.9064 82.4217 19.1253 82.3025 18.7455H83.0572V18.3658H82.3025C82.126 18.0218 82.0422 18.0665 81.9274 17.6018H82.3025C82.1922 16.8155 82.0995 16.6904 81.7375 15.8862C81.4904 15.9845 81.7905 15.9621 81.5478 16.0783H80.9828V16.2704C81.3624 16.3777 81.1462 16.2481 81.358 16.4625C80.8196 16.4447 80.5503 16.4268 80.2281 16.2704V16.4625C80.4444 16.6814 80.3031 16.4626 80.4179 16.8423C79.4954 16.8423 79.3454 17.0612 78.7231 17.2221V16.6502H78.5332V16.8423H78.3434L77.9682 16.6502V17.2221H77.4034V16.8423H77.2135V17.2221H77.4034V17.794C76.7766 17.7895 76.5515 17.6956 76.0837 17.6018V17.9816C75.6379 17.9592 75.6069 17.9235 75.3288 17.7895V17.9816C75.1126 18.2005 75.2538 17.9816 75.1391 18.3613C74.146 18.2496 74.7066 17.9503 73.8194 18.1692V17.7895C73.5193 17.7448 73.581 18.1156 73.4442 18.1692C72.738 18.4373 72.1555 18.2765 71.5596 18.1692V18.7411L71.1844 18.549V18.7411C70.8049 19.0673 71.2021 19.0315 70.9947 19.3129H70.8048C70.3502 18.6249 69.0438 19.1968 68.1698 19.3129V19.8848C67.8167 19.7865 67.1415 19.2012 66.8501 19.3129V19.5051H66.6604V20.077C66.0954 20.1395 65.5304 20.202 64.9655 20.269V20.6488H65.1554C65.0936 20.8409 65.0317 21.0286 64.9655 21.2207C64.5197 21.1983 64.4888 21.1626 64.2108 21.0286V21.2207H64.021V20.6488H63.6458V21.2207H63.456V21.0286H62.7013V21.2207L62.3261 21.0286V21.2207C61.9112 21.3502 61.7038 21.2788 61.386 21.4128V21.9846C60.4459 22.1276 60.4547 22.1544 59.6911 21.6049L59.5014 22.1768H58.7467V22.3689C58.4951 22.4315 58.2435 22.494 57.9919 22.561V22.1812H57.6167C57.502 22.8514 57.4136 23.0569 56.6766 23.1329V22.9407C56.8928 22.7218 56.7517 22.9407 56.8664 22.561C56.6148 22.4984 56.3633 22.4359 56.1117 22.3689V22.1768C55.7542 22.0651 55.8512 22.284 55.7365 22.3689L55.1715 22.1768V22.3689H55.3613V23.1329H54.9862V22.7531C54.4698 23.0569 54.6463 23.2222 53.8562 23.325C53.7194 23.8521 53.8033 23.7494 53.2913 23.8968C52.7837 24.5044 52.1923 24.357 51.4066 24.2766V23.8968H52.1613C52.0996 23.7047 52.0378 23.5171 51.9716 23.325C51.6847 23.4366 51.6626 23.4724 51.2169 23.5171C51.186 22.9988 51.155 22.3689 50.8417 22.1812V21.9891C50.9785 21.7881 50.9874 22.1544 51.2169 21.797H50.8417C50.5062 21.596 51.2169 21.6049 51.2169 21.6049C51.1109 21.1402 51.0182 21.1849 50.8417 20.8409H51.4066C51.5611 21.0911 51.5391 21.0643 51.7818 21.2207C51.3228 20.2199 51.0888 19.2951 52.7219 19.3129C52.9382 19.5319 52.7219 19.3889 53.0971 19.5051C53.1589 19.1879 53.2207 18.8707 53.2869 18.5534H52.9118V18.9332H52.5366L52.7263 18.3613H52.5366C52.3953 18.7232 52.669 18.5579 52.3468 18.7411C52.0996 18.5177 52.5718 18.4507 52.1569 18.3613V18.7411L51.7818 18.549V18.7411H51.9716C51.848 18.9958 51.72 19.2504 51.5964 19.5051H51.4066V18.9332H51.2169V19.1253H50.6519C50.5283 19.3174 50.4003 19.505 50.2767 19.6972H49.9016V19.8893H49.3366V20.0814H48.9614V20.2735C48.2023 20.546 47.633 20.0099 47.2666 20.2735C46.7546 20.6086 46.6708 21.3279 46.5119 21.4173H44.817C44.6007 21.1984 44.817 21.3413 44.4418 21.2251V20.8454H44.252C44.3138 21.1001 44.3756 21.3547 44.4418 21.6094H44.252C43.8945 21.9221 43.2546 21.8104 42.747 21.9891V22.1812C42.4689 22.2706 42.0099 21.9757 41.9923 21.9891V22.3689H41.0521C40.8623 22.8157 40.6769 23.258 40.4871 23.7048H40.2974V23.1329H39.9222C39.8824 23.5841 39.8428 23.6064 39.7324 23.8968C39.5206 23.736 39.706 23.9192 39.5427 23.7048C39.3264 23.4858 39.4675 23.7047 39.3528 23.325C39.675 23.1105 39.6088 23.2044 39.728 22.7531H39.163V23.8968C38.8497 23.8343 38.5363 23.7718 38.223 23.7048V23.5126C38.4392 23.2937 38.298 23.5126 38.4127 23.1329H38.0375L38.2274 22.7531H38.0375C37.8212 22.972 38.0376 22.829 37.6624 22.9452C37.6139 23.316 37.477 23.316 37.4725 23.325C37.1724 24.2632 37.6403 24.5447 36.5325 24.6609V24.2811C36.2721 24.3749 36.1176 24.357 35.7778 24.4732V24.6653C35.588 24.6027 35.4026 24.5402 35.2128 24.4732V24.6653H34.8376L35.0274 25.0451H33.8975V25.2372C34.1138 25.4561 33.9725 25.2371 34.0873 25.6169C33.7827 25.6035 32.7676 25.4248 32.7676 25.4248C32.7058 25.5499 32.644 25.6795 32.5778 25.8046C32.0658 26.086 31.9775 25.8537 31.6376 25.8046V25.9967H31.2625L31.0727 26.3764C30.7593 26.439 30.446 26.5015 30.1326 26.5685V26.7607C29.881 26.6981 29.6295 26.6355 29.3779 26.5685C29.0645 26.6311 28.7511 26.6937 28.4377 26.7607V26.9528C27.8772 27.1136 27.6742 26.649 27.3079 26.573V26.7651C27.0916 26.9841 27.2328 26.7651 27.118 27.1449H26.3633L26.1735 26.9528C26.0764 26.9975 26.1205 27.2923 25.7983 27.3325V27.1404L25.2334 26.9483V27.1404C25.0436 27.203 24.8583 27.2655 24.6685 27.3325V26.9528C24.3287 27.1315 24.3727 27.2164 23.9137 27.3325V27.7123H23.7239V27.1404C22.6646 27.127 21.857 26.6847 21.4642 25.9967L21.8393 25.8046C21.8525 25.5365 21.6539 25.885 21.6495 25.6125C21.7113 25.2953 21.773 24.9781 21.8393 24.6609H22.2145C21.7996 23.4724 22.6779 22.8112 22.7794 21.6094C23.362 21.5021 24.0373 21.4173 24.8494 21.4173V20.8454H25.4144C25.5424 20.2869 25.6218 20.2199 26.1691 20.0814V19.7016C27.2681 19.447 26.2751 19.2191 27.2991 19.7016V19.3219C27.7184 19.2415 27.9434 19.1387 28.2391 18.9421V18.75C28.6143 18.7143 28.3716 19.0404 28.6143 18.75C28.8306 18.5311 28.6893 18.75 28.8041 18.3703H29.1793C29.3956 17.5973 29.5633 17.9905 29.934 17.4186C30.3092 17.5437 30.6888 17.6733 31.064 17.7984V17.6063H31.2537V16.8423C30.1724 16.8647 29.8722 16.9987 28.9938 16.8423C28.8879 17.441 28.8085 17.6421 28.2391 17.794V17.4142H27.864V17.986C27.48 18.1916 27.1225 18.549 26.5443 18.5579L26.3545 18.3658C25.6748 18.884 26.4163 19.2549 25.0348 19.3174L25.2245 18.5534H24.8494V18.7455H25.0392C25.0524 18.8125 24.7171 19.4336 24.6641 19.6972H24.2889V19.3174H23.9137V19.6972L23.7239 19.5051C23.3487 19.6302 22.9691 19.7597 22.594 19.8848C22.5322 20.0099 22.4704 20.1395 22.4042 20.2646C22.1571 20.3718 22.444 20.1216 22.2145 20.0725C22.0247 20.135 21.8393 20.1976 21.6495 20.2646V20.0725H21.0845V19.8804H20.8948V20.0725C20.8948 20.0725 20.374 19.8982 20.14 19.8804C20.0165 20.1976 19.8884 20.5148 19.7648 20.832C19.6015 20.7739 19.35 20.4657 19.0101 20.6399V20.832H18.8204V21.4039H18.6305V20.832H18.4407V21.5959C18.4716 21.864 18.6393 21.5155 18.6305 21.7881L18.4407 21.9802C18.1141 21.8149 18.3746 21.9578 18.251 21.6004H18.0611V21.9802L17.121 22.1723L17.3108 21.7926H17.121C16.8297 22.1232 16.7812 21.9802 16.3663 22.1723V22.3644C16.0882 22.4717 15.6469 22.4136 15.6116 22.1723H15.4217V22.7442H15.232V22.552H15.0422V22.9318H14.667V23.3116C14.1903 23.1597 13.5018 23.2982 12.597 23.3116C12.5352 23.7584 12.4734 24.2007 12.4072 24.6474H12.032V24.2677C11.7451 24.3794 11.7231 24.4151 11.2773 24.4598V25.0317C10.9021 25.1568 10.5225 25.2863 10.1474 25.4114V25.6035H9.77227V25.7956C8.84981 26.1486 8.6335 25.5008 8.07737 26.3675H7.88761L8.07737 26.5596C8.01558 26.7518 7.95382 26.9394 7.88761 27.1315C7.63603 27.0689 7.38436 27.0064 7.13278 26.9394V27.5113C6.46631 27.5828 6.55908 27.748 6.00295 27.891V27.5113H5.81309V28.0831C5.43792 28.1456 5.05843 28.2082 4.68326 28.2752L4.4934 28.8471H4.1183C4.0565 29.0392 3.99463 29.2268 3.92843 29.4189H3.73867V28.8471H3.54891L3.35915 29.2269L2.79419 29.0347V28.8426C2.42785 28.7488 2.54256 28.9498 2.41898 29.0347L1.66425 28.8426L1.85401 28.6505V28.4584H1.66425V27.8865H1.85401V27.6944H1.47891C1.4745 27.06 1.38173 26.8321 1.28905 26.3586H0.913946C0.578505 26.1575 1.28905 26.1665 1.28905 26.1665C1.35084 25.9744 1.41271 25.7867 1.47891 25.5946C2.44993 25.6393 2.41015 25.9565 2.41898 24.8306C2.73235 24.7681 3.04578 24.7055 3.35915 24.6385V23.8745L3.92412 23.6824C4.14039 23.4635 3.92405 23.6065 4.29922 23.4903V23.8701H4.67443V23.4903C4.86422 23.5529 5.0496 23.6154 5.23939 23.6824V23.3026H5.04953L5.23939 22.7308H5.42915V22.5387H5.99412C5.9897 22.2706 6.03376 22.485 5.80425 22.3465V22.1544H6.36922V21.9623H6.55908L6.74884 22.3421C7.37559 22.4672 8.00234 22.5967 8.6335 22.7218C8.65116 22.007 8.80557 21.8462 9.0086 21.386C9.19839 21.4485 9.38378 21.5111 9.57357 21.5781V21.1984H10.1385L9.94878 21.5781H10.1385V21.386H10.5137C10.7212 21.2207 10.5975 20.9258 10.8888 20.8141C11.0566 20.9839 10.9595 21.1358 11.264 21.1939C11.3876 21.0018 11.5157 20.8141 11.6393 20.622H12.2041V20.4299H12.394V19.6659H12.7691V20.0457C13.5724 19.9697 13.621 19.6525 14.2742 19.4738C14.4243 18.8572 14.6228 18.8171 14.6493 17.9503H16.3442V18.1424L16.9092 17.9503V17.7582C17.1917 17.6822 17.1651 18.0977 17.2843 18.1379L17.8493 17.9458V18.3256H18.0391V17.9458C18.251 17.785 18.0656 17.9682 18.2289 17.7537L17.8537 17.9458V17.1818H18.0435V16.4179H18.9836L18.7938 16.9897H19.3588C19.6589 16.6189 20.0429 16.4804 20.2989 16.0381C20.4931 16.2034 20.5593 16.3687 20.6741 16.61C20.8639 16.4849 21.0493 16.3553 21.2391 16.2303V16.0381H21.6142L21.8039 15.6584C21.9275 15.7209 22.0555 15.7834 22.1791 15.8504C22.4307 15.6583 21.9496 15.5288 22.3689 15.4707V15.6628C22.5587 15.7254 22.7441 15.7879 22.9338 15.8549V15.4752C22.7176 15.2563 22.8588 15.4752 22.7441 15.0954C23.2296 15.1848 23.5782 15.2786 24.2491 15.2875C24.5184 14.8809 24.7435 14.9033 25.1893 14.7157L24.9995 14.1438H25.7543V13.9517H25.944V14.1438H26.3192V13.7641C27.3873 13.7328 27.021 13.4692 27.6389 13.1922H28.3936V13C28.6099 12.7811 28.4686 13 28.5834 12.6203H29.1484V13H29.5236C29.6781 12.388 29.7442 12.4461 30.4636 12.4282V12.808C30.905 12.6024 31.0772 12.3701 31.5936 12.2361V11.6642H31.9687V11.2844C32.9618 11.2889 33.4561 11.0611 34.2285 10.9047C34.3654 11.4319 34.2815 11.3291 34.7935 11.4766C34.7317 11.2845 34.6698 11.0968 34.6036 10.9047H34.7935C35.001 10.6366 35.4511 10.3462 35.7336 10.1407V9.94859H36.2985V10.1407H36.4883V10.7126H36.6782C36.74 9.95305 36.8723 9.83241 37.6182 9.76093V9.95307C37.8698 10.0424 37.5476 9.83241 37.808 9.76093C38.5627 9.63583 39.3131 9.50628 40.0679 9.38118C39.8781 8.78698 39.9619 9.09078 40.0679 8.42956C40.5269 8.32233 40.4827 8.23299 40.8226 8.04981V8.24195H41.0123C41.1624 8.52341 40.8226 8.62169 40.8226 8.62169L41.0123 9.00144C41.4449 8.63508 41.2507 8.42959 41.9525 8.23747C42.0143 8.04536 42.0761 7.8577 42.1423 7.66559C42.6807 7.88898 43.0295 8.02747 43.8372 8.04534C44.027 7.66558 44.2123 7.28138 44.4021 6.90163H44.7772L44.9671 7.28137L46.2868 6.90163V6.70949H47.6065L47.7962 6.32974H48.1715C48.2906 5.80702 48.4186 5.89637 48.5466 5.37812C48.7981 5.44066 49.0497 5.50318 49.3013 5.5702V5.37812C49.5087 5.20834 49.3411 5.40937 49.4911 5.18598H49.3013C49.1159 4.86877 49.5706 5.02517 49.6765 4.9939V4.80176C49.8663 4.86431 50.0517 4.92688 50.2415 4.9939C50.1797 5.11899 50.1178 5.24855 50.0516 5.37364H50.2415C50.8329 4.68561 51.3493 5.37361 52.1261 5.56573C52.2541 5.31553 52.36 5.36022 52.5012 5.18598L52.3115 4.80623H52.6867V4.61415L53.0618 4.42201C53.0882 4.15395 53.0221 4.45326 52.872 4.22988L53.0618 3.85013C53.6973 3.98416 53.7856 4.26564 54.3815 4.42201V3.85013C54.8979 3.97076 54.8096 4.10031 55.3216 4.22988V3.65805C55.5291 3.7206 55.6924 3.99757 56.0764 3.85013V3.65805H56.6413V3.46591C57.0165 3.1487 57.3961 2.83149 57.7712 2.51428V2.13454H58.1463V2.32662C58.4068 2.38023 58.111 2.28644 58.3361 2.13454L58.7113 2.32662L58.5216 2.8985C59.572 2.97892 60.106 3.23806 60.7813 2.51876C60.4106 2.30431 60.3399 2.25071 60.2163 1.75479L60.7813 1.56266C60.8431 1.68775 60.905 1.81731 60.9712 1.9424H61.3463V1.17844C61.7568 1.25886 61.8847 1.30352 62.101 1.55818L63.2309 1.17844L63.0412 0.798691H63.9812V0.418945L64.0739 0.463612ZM62.1937 3.32297V3.70272H62.3835V3.32297H62.1937ZM229.981 3.70272V4.08246H230.17V3.70272H229.981ZM62.7586 4.2746V4.65435H62.9485V4.2746H62.7586ZM60.1237 4.65435V5.03409H60.3134V4.65435H60.1237ZM225.271 5.22623C225.487 5.44515 225.271 5.30215 225.646 5.41831C225.43 5.19939 225.646 5.34239 225.271 5.22623ZM210.397 5.41831C210.613 5.63723 210.397 5.49429 210.772 5.61045C210.556 5.39153 210.772 5.53447 210.397 5.41831ZM51.6494 5.99019C51.6671 6.63801 51.6494 6.68269 52.0246 6.94182V6.74968H51.8347V5.98572H51.645L51.6494 5.99019ZM207.572 6.18227C207.788 6.40119 207.572 6.25825 207.947 6.37441C207.731 6.15549 207.947 6.29844 207.572 6.18227ZM187.044 6.36994V6.74968H187.234V6.36994H187.044ZM200.228 6.56207L200.038 6.94182C200.038 6.94182 200.585 6.63803 200.413 6.56207H200.223H200.228ZM219.622 6.56207H219.997C219.838 6.77653 220.019 6.58885 219.807 6.75416V6.94629C219.591 6.72737 219.732 6.9463 219.617 6.56655L219.622 6.56207ZM52.9647 6.75416C53.1809 6.97308 52.9647 6.83013 53.3399 6.94629C53.1236 6.72737 53.3398 6.87032 52.9647 6.75416ZM158.611 6.94182V7.32157H158.801V6.94182H158.611ZM55.0391 7.70579V7.89792H54.8493C54.4918 8.06323 55.2245 8.09 55.2245 8.09C55.3834 7.87555 55.2024 8.06323 55.4143 7.89792C55.198 7.679 55.4143 7.82195 55.0391 7.70579ZM199.663 7.70579V7.89792H199.473C199.115 8.06323 199.848 8.09 199.848 8.09C200.007 7.87555 199.826 8.06323 200.038 7.89792C199.822 7.679 200.038 7.82195 199.663 7.70579ZM247.869 7.70579V7.89792H247.679C247.322 8.06323 248.055 8.09 248.055 8.09C248.213 7.87555 248.033 8.06323 248.244 7.89792C248.028 7.679 248.244 7.82195 247.869 7.70579ZM121.699 7.89792V8.27767H121.889V7.89792H121.699ZM75.1877 8.08553V8.46533H75.3774V8.08553H75.1877ZM123.394 8.08553V8.46533H123.584V8.08553H123.394ZM158.231 8.08553C158.549 8.49656 158.607 8.46533 158.607 8.46533C158.743 8.28216 158.28 8.13021 158.231 8.08553ZM206.442 8.08553C206.76 8.49656 206.817 8.46533 206.817 8.46533C206.954 8.28216 206.491 8.13021 206.442 8.08553ZM219.811 8.08553V8.46533H220.001V8.08553H219.811ZM254.649 8.08553C254.966 8.49656 255.024 8.46533 255.024 8.46533C255.161 8.28216 254.697 8.13021 254.649 8.08553ZM47.8801 8.46975H47.505V8.66189H47.6947V8.85402H47.8845V8.47422L47.8801 8.46975ZM50.3297 9.61352H50.7049C50.6431 9.35885 50.5813 9.10421 50.515 8.84955H50.3253V9.61352H50.3297ZM194.953 9.61352H195.329L195.139 8.84955H194.949V9.61352H194.953ZM243.16 9.61352H243.535L243.345 8.84955H243.155V9.61352H243.16ZM48.2597 9.2293V9.99326H48.4495V9.2293H48.2597ZM96.4661 9.2293V9.99326H96.6559V9.2293H96.4661ZM192.883 9.2293V9.99326H193.073V9.2293H192.883ZM220.751 9.61352V10.1854H220.941C221.131 9.84138 221.356 9.61796 221.696 9.42138V9.2293H221.321C221.109 9.55544 221.202 9.48841 220.756 9.60904L220.751 9.61352ZM241.09 9.2293V9.99326H241.28V9.2293H241.09ZM133.188 9.42138V9.80118H133.378V9.42138H133.188ZM181.394 9.80118H181.77V9.60904C181.558 9.4482 181.743 9.63141 181.58 9.41696H181.39V9.79671L181.394 9.80118ZM76.1278 9.61352V10.1854H76.3175V9.61352H76.1278ZM124.334 9.61352V10.1854H124.524V9.61352H124.334ZM206.817 10.373C206.954 10.9002 206.87 10.7975 207.382 10.9449C207.502 10.4222 207.63 10.5115 207.758 9.99326H207.568C207.329 10.3551 207.378 10.3105 206.813 10.373H206.817ZM208.512 9.99326V10.373C209.007 10.3596 209.152 10.2971 209.452 10.1809V9.98879H208.512V9.99326ZM109.085 10.1854V10.7573H109.275V10.5651C109.487 10.4043 109.301 10.5875 109.464 10.373L109.089 10.1809L109.085 10.1854ZM157.291 10.1854V10.7573H157.481V10.5651C157.693 10.4043 157.508 10.5875 157.671 10.373L157.296 10.1809L157.291 10.1854ZM205.498 10.1854V10.7573H205.688V10.5651C205.899 10.4043 205.714 10.5875 205.877 10.373L205.502 10.1809L205.498 10.1854ZM253.709 10.1854V10.7573H253.898V10.5651C254.11 10.4043 253.925 10.5875 254.088 10.373L253.713 10.1809L253.709 10.1854ZM132.998 10.373V10.7528H133.188V10.373H132.998ZM220.376 10.373C220.694 10.784 220.751 10.7528 220.751 10.7528C220.888 10.5696 220.425 10.4177 220.376 10.373ZM120.759 10.7573V11.3291H120.384V11.7089L120.759 11.5168L120.949 10.9449C121.161 10.7841 120.975 10.9673 121.139 10.7528H120.764L120.759 10.7573ZM128.668 10.7573V11.137H128.858V10.7573H128.668ZM176.875 10.7573V11.137H177.065V10.7573H176.875ZM206.442 11.137H205.877V11.5168H206.252C206.429 11.1728 206.513 11.2175 206.628 10.7528H206.438V11.1326L206.442 11.137ZM225.081 10.7573V11.137H225.271V10.7573H225.081ZM105.13 11.5168V11.137C104.918 11.2979 105.104 11.1147 104.94 11.3291H104.751C104.967 11.548 104.751 11.4051 105.126 11.5212L105.13 11.5168ZM152.772 11.137V11.7089H152.961C153.178 11.4899 152.961 11.6329 153.337 11.5168V11.137H152.772ZM179.51 11.5168V11.137H178.945V11.3291H179.135C179.351 11.548 179.135 11.4051 179.51 11.5212V11.5168ZM201.543 11.5168V11.137C201.331 11.2979 201.517 11.1147 201.353 11.3291H201.163C201.38 11.548 201.164 11.4051 201.539 11.5212L201.543 11.5168ZM216.422 11.137V11.5168C216.634 11.3559 216.448 11.5391 216.611 11.3246H216.801C216.585 11.1057 216.801 11.2487 216.426 11.1326L216.422 11.137ZM243.16 11.3291V11.7089H243.35V11.3291H243.16ZM118.499 12.0887H118.874C118.716 11.8742 118.896 12.0618 118.685 11.8965V11.5168H118.495V12.0887H118.499ZM65.3936 11.7089V12.0887H65.5835V11.7089H65.3936ZM113.605 11.7089V12.2807H113.794V11.7089H113.605ZM210.017 11.7089V12.0887H210.207V11.7089H210.017ZM246.739 11.7089C246.956 11.9278 246.814 11.7089 246.929 12.0887H246.739V11.7089ZM258.228 11.7089V12.0887H258.418V11.7089H258.228ZM39.0306 11.901V12.2807H39.2205V11.901H39.0306ZM87.237 11.901V12.2807H87.4269V11.901H87.237ZM183.654 11.901V12.2807H183.844V11.901H183.654ZM231.861 11.901V12.2807H232.051V11.901H231.861ZM98.9157 12.0887C98.9334 12.1289 99.1849 12.7811 99.2908 12.6605V12.4684H99.4807C99.3174 12.2718 99.1541 12.2048 98.9157 12.0887ZM147.497 13.0448H147.872V12.665H147.497L147.687 12.2852C147.497 12.2227 147.312 12.1601 147.122 12.0931V12.2852C147.378 12.5086 147.409 12.6337 147.497 13.0492V13.0448ZM97.7858 12.2807L97.9756 12.8526H98.1653C98.0506 12.3969 98.1036 12.4997 97.7902 12.2807H97.7858ZM145.992 12.2807C146.054 12.4728 146.116 12.6605 146.182 12.8526H146.372C146.257 12.3969 146.31 12.4997 145.997 12.2807H145.992ZM149.572 12.2807H149.197C149.355 12.4952 149.174 12.3076 149.386 12.4729V12.665H149.576V12.2852L149.572 12.2807ZM223.956 13.0448H224.331V12.665H224.521C224.459 12.5399 224.397 12.4103 224.331 12.2852C224.119 12.446 224.305 12.2629 224.141 12.4773H223.951V13.0492L223.956 13.0448ZM66.7133 12.4729C66.9296 12.6918 66.7133 12.5488 67.0885 12.665C66.8722 12.446 67.0885 12.589 66.7133 12.4729ZM98.7259 12.4729V13.0448H98.9157V12.4729H98.7259ZM146.932 12.4729V13.0448H147.122V12.4729H146.932ZM150.512 12.4729H150.137C150.296 12.6873 150.115 12.4996 150.327 12.665V12.8571H150.516V12.4773L150.512 12.4729ZM172.355 12.4729V13.0448H172.545V12.4729H172.355ZM220.566 12.4729V13.0448H220.756V12.4729H220.566ZM29.9913 12.6605V13.0403H30.1812V12.6605H29.9913ZM38.8408 12.6605V13.0403H39.0306V12.6605H38.8408ZM87.0517 12.6605V13.0403H87.2414V12.6605H87.0517ZM99.666 13.0448V12.665C99.4542 12.8258 99.6396 12.6426 99.4763 12.8571H99.2864C99.5027 13.076 99.2865 12.933 99.6616 13.0492L99.666 13.0448ZM135.258 12.6605V13.0403H135.448V12.6605H135.258ZM149.757 12.6605V13.8042H149.947V12.6605H149.757ZM173.86 12.6605V13.0403H174.05V12.6605H173.86ZM174.615 12.6605V13.0403H174.805V12.6605H174.615ZM183.464 12.6605V13.0403H183.654V12.6605H183.464ZM222.071 12.6605V13.0403H222.261V12.6605H222.071ZM222.826 12.6605V13.0403H223.016V12.6605H222.826ZM231.675 12.6605V13.0403H231.865V12.6605H231.675ZM34.1359 12.8526C34.3521 13.0715 34.1358 12.9286 34.511 13.0448C34.2947 12.8258 34.511 12.9688 34.1359 12.8526ZM82.3423 12.8526C82.5585 13.0715 82.3422 12.9286 82.7174 13.0448C82.5011 12.8258 82.7174 12.9688 82.3423 12.8526ZM226.966 12.8526C227.182 13.0715 226.966 12.9286 227.341 13.0448C227.125 12.8258 227.341 12.9688 226.966 12.8526ZM95.7114 13.2324L95.9011 13.8042H96.0909C95.9762 13.3485 96.0292 13.4513 95.7158 13.2324H95.7114ZM143.922 13.2324C143.984 13.4245 144.046 13.6121 144.112 13.8042H144.302C144.187 13.3485 144.24 13.4513 143.927 13.2324H143.922ZM156.161 13.4245V13.8042H156.351V13.4245H156.161ZM37.1459 14.3761C37.0091 13.8489 37.0931 13.9517 36.5811 13.8042C36.6429 14.0589 36.7046 14.3136 36.7708 14.5682H37.3358V14.7603C37.6006 14.7961 37.2652 14.6263 37.5256 14.5682H38.2803V13.8042C38.0684 13.6434 38.2538 13.8266 38.0905 13.6121H37.7153V13.8042H37.9052C37.967 14.1483 37.4372 14.3046 37.1504 14.3761H37.1459ZM61.6288 13.6166L61.4389 13.9964C61.4389 13.9964 61.9863 13.6925 61.8142 13.6166H61.6244H61.6288ZM206.252 13.6166L206.063 13.9964C206.063 13.9964 206.61 13.6925 206.438 13.6166H206.248H206.252ZM29.4264 14.5682H29.8016V14.3761C29.5897 14.2153 29.7751 14.3984 29.6118 14.184H29.422V14.5637L29.4264 14.5682ZM36.0161 14.1885V14.5682C36.228 14.4074 36.0426 14.5906 36.2059 14.3761H36.3956C36.1794 14.1572 36.3957 14.3002 36.0205 14.184L36.0161 14.1885ZM77.6329 14.5682H78.008V14.3761C77.7961 14.2153 77.9815 14.3984 77.8182 14.184H77.6285V14.5637L77.6329 14.5682ZM84.2269 14.1885V14.5682C84.4388 14.4074 84.2534 14.5906 84.4167 14.3761H84.6065C84.3902 14.1572 84.6065 14.3002 84.2314 14.184L84.2269 14.1885ZM132.433 14.1885V14.5682C132.645 14.4074 132.46 14.5906 132.623 14.3761H132.813C132.597 14.1572 132.813 14.3002 132.438 14.184L132.433 14.1885ZM222.261 14.5682H222.636V14.3761C222.424 14.2153 222.61 14.3984 222.446 14.184H222.257V14.5637L222.261 14.5682ZM228.851 14.1885V14.5682C229.062 14.4074 228.877 14.5906 229.04 14.3761H229.23C229.014 14.1572 229.23 14.3002 228.855 14.184L228.851 14.1885ZM33.0059 15.3322V14.9524L32.441 15.1446L32.6307 15.9085H32.441V16.1007C31.9996 16.1632 31.5626 16.2257 31.1213 16.2928V16.6726C31.3684 16.7083 32.2909 16.9048 32.441 16.8646L32.6307 16.4849L33.1957 16.677C33.2575 16.3598 33.3194 16.0426 33.3856 15.7254H33.5753C33.7916 15.5065 33.5753 15.6494 33.9504 15.5333V15.913H34.8906V15.5333H35.2657C35.1421 15.1535 35.0142 14.7692 34.8906 14.3895H34.7008L34.511 14.9614C34.2417 15.1535 33.4252 15.3054 33.0059 15.3411V15.3322ZM54.2844 14.3761V14.948H54.4741V14.3761H54.2844ZM29.0513 14.7603V15.1401H29.241V14.7603H29.0513ZM58.4289 14.7603V15.1401H58.6186V14.7603H58.4289ZM77.2577 14.7603V15.1401H77.4474V14.7603H77.2577ZM125.464 14.7603V15.1401H125.654V14.7603H125.464ZM181.394 14.7603C181.611 14.9793 181.395 14.8363 181.77 14.9524C181.553 14.7335 181.77 14.8765 181.394 14.7603ZM203.053 14.7603V15.1401H203.242V14.7603H203.053ZM221.881 14.7603V15.1401H222.071V14.7603H221.881ZM50.7049 14.948C50.9212 15.1669 50.7799 14.948 50.8947 15.3278H50.7049V14.948ZM98.7259 15.1401C98.9377 15.4662 98.8451 15.3992 99.2908 15.5198C99.1275 15.3233 98.9642 15.2563 98.7259 15.1401ZM120.194 15.5198H120.569V15.3278C120.357 15.1669 120.543 15.3501 120.38 15.1356H120.19V15.5154L120.194 15.5198ZM50.3297 15.3322H50.7049V15.5243C50.3253 15.4171 50.5416 15.5467 50.3297 15.3322ZM102.87 15.3322C103.087 15.5512 102.945 15.3322 103.06 15.712H102.87V15.3322ZM153.526 16.0917H153.151V15.3278H152.961V15.5198C152.745 15.7388 152.886 15.5198 152.772 15.8996C152.962 16.0247 153.147 16.1543 153.337 16.2794C153.495 16.4938 153.315 16.3062 153.526 16.4715V16.0917ZM101.175 15.5198V15.8996H101.365V15.5198H101.175ZM39.4058 15.9041V16.2839H39.5956V15.9041H39.4058ZM87.6166 15.9041V16.2839H87.8064V15.9041H87.6166ZM129.233 16.0917C129.45 16.3106 129.233 16.1677 129.609 16.2839C129.392 16.0649 129.609 16.2079 129.233 16.0917ZM62.3791 16.6636V16.2839C62.1673 16.4447 62.3526 16.2615 62.1893 16.4759H61.9995C62.2158 16.6949 61.9995 16.5519 62.3747 16.6681L62.3791 16.6636ZM158.796 16.6636V16.2839C158.585 16.4447 158.77 16.2615 158.607 16.4759H158.417C158.633 16.6949 158.417 16.5519 158.792 16.6681L158.796 16.6636ZM45.6203 17.0478V17.4276H45.8101V17.0478H45.6203ZM49.3895 17.0478V17.4276H49.5794V17.0478H49.3895ZM35.2657 17.2355V17.6152H35.4556V17.2355H35.2657ZM50.3297 17.6197C50.3209 18.3926 50.2415 18.4417 50.7049 18.7634V18.5713C50.3871 18.1603 50.8505 17.651 51.08 17.2355H50.8903C50.6784 17.5616 50.7711 17.4946 50.3253 17.6152L50.3297 17.6197ZM53.7194 17.2355C53.9357 17.4544 53.7194 17.3114 54.0946 17.4276C53.8783 17.2087 54.0946 17.3517 53.7194 17.2355ZM63.5091 17.2355C63.4473 17.4276 63.3854 17.6152 63.3192 17.8073H63.5091V17.6152C63.5885 17.5035 63.818 17.5884 63.6988 17.2355H63.5091ZM83.4722 17.2355V17.6152H83.662V17.2355H83.4722ZM146.747 17.6197C146.738 18.3926 146.659 18.4417 147.122 18.7634V18.5713C146.804 18.1603 147.268 17.651 147.497 17.2355H147.307C147.096 17.5616 147.188 17.4946 146.743 17.6152L146.747 17.6197ZM150.137 17.2355C150.353 17.4544 150.137 17.3114 150.512 17.4276C150.296 17.2087 150.512 17.3517 150.137 17.2355ZM65.9586 17.4276V17.8073H66.1484V17.4276H65.9586ZM87.0517 17.8073H87.4269V17.6152C87.215 17.4544 87.4003 17.6376 87.237 17.4231H87.0472V17.8028L87.0517 17.8073ZM114.169 17.4276V17.8073H114.359V17.4276H114.169ZM130.928 17.4276C131.145 17.6465 131.003 17.4276 131.118 17.8073H130.928V17.4276ZM89.4969 17.6197C89.4351 17.7448 89.3733 17.8744 89.3071 17.9995L89.6822 18.1915C89.819 17.9637 89.285 18.0263 89.6822 17.6197H89.4924H89.4969ZM66.3338 17.8073L66.144 18.3792H66.3338V17.9995H66.5235V17.8073H66.3338ZM114.545 17.8073L114.355 18.1871C114.355 18.1871 114.902 17.8833 114.73 17.8073H114.54H114.545ZM15.6777 18.5713H16.053V18.3792C15.8411 18.2184 16.0264 18.4015 15.8631 18.1871H15.6733V18.5669L15.6777 18.5713ZM121.699 18.5713H121.324C121.483 18.7858 121.302 18.5981 121.514 18.7634V18.9556H121.704V18.5758L121.699 18.5713ZM22.082 18.9511V19.3308H22.2718V18.9511H22.082ZM49.1998 18.9511V19.715H49.3895V19.523H49.5794C49.5176 19.3979 49.4557 19.2683 49.3895 19.1432H49.5794C49.3631 18.9242 49.5794 19.0672 49.2042 18.9511H49.1998ZM118.499 18.9511V19.3308H118.689V18.9511H118.499ZM146.932 18.9511C146.716 19.17 146.932 19.027 146.557 19.1432V19.3353H146.932C146.994 19.2102 147.056 19.0807 147.122 18.9556H146.932V18.9511ZM59.1792 19.523L58.9893 19.9027C58.9893 19.9027 59.5367 19.5989 59.3645 19.523H59.1748H59.1792ZM52.0246 19.9072V20.2869H52.2144V19.9072H52.0246ZM56.169 19.9072V20.2869H56.3588V19.9072H56.169ZM47.3151 20.2869H47.6903C47.5358 20.5371 47.5579 20.5103 47.3151 20.6667V20.8588H47.1254L47.3151 20.2869ZM53.9093 20.2869L53.7194 20.6667C53.7194 20.6667 54.2667 20.3629 54.0946 20.2869H53.9048H53.9093ZM39.4058 21.0509V21.4306H39.5956V21.0509H39.4058ZM24.9068 22.0025V22.3823H25.0966V22.0025H24.9068ZM29.0513 22.1947V22.7665H29.806V23.1463H30.371C30.5255 22.8961 30.5033 22.9229 30.7461 22.7665V22.1947C29.9604 22.3332 29.9561 22.2438 29.0513 22.1947ZM13.7975 22.5744C14.0138 22.7933 13.7976 22.6503 14.1727 22.7665C13.9564 22.5476 14.1727 22.6906 13.7975 22.5744ZM52.7793 22.7665V23.1463H52.9691V22.7665H52.7793ZM6.07353 25.8135C6.01174 26.0056 5.94998 26.1933 5.88378 26.3854H6.07353V26.0056H6.26329V25.8135H6.07353ZM30.3666 26.0056V26.3854H30.5563V26.0056H30.3666Z" fill="#FDE6AD"/>
</svg>
