<svg width="261" height="29" viewBox="0 0 261 29" fill="none" xmlns="http://www.w3.org/2000/svg">
<path fill-rule="evenodd" clip-rule="evenodd" d="M64.3418 0.0446664C65.2447 0.236779 65.3783 0.728212 66.428 0.808631C66.5792 0.518228 66.806 0.0848454 67.3753 0.236748V0.428885C67.8601 0.607594 67.5888 0.236796 67.9447 0.621021H68.1359V1.38499L68.514 1.57707V1.95687H68.7052C68.7675 2.14898 68.8298 2.33658 68.8965 2.5287H68.1359V3.10058C67.611 3.23908 67.7133 3.1542 67.5665 3.67246C66.9038 3.8333 66.6815 4.15499 65.8586 4.24434C65.872 4.74473 65.9342 4.89217 66.0498 5.19597C65.4005 5.14683 64.5598 5.04405 64.5331 5.00384V5.38358H64.7244C65.3248 5.38805 64.155 5.57572 64.155 5.57572C63.9148 5.27638 63.648 5.11106 63.2077 5.00384C62.923 5.52209 62.5494 5.81697 61.8778 5.95547V5.57572L61.4996 5.7678C61.3884 6.0582 61.3529 6.08058 61.3084 6.53182C60.9081 6.56309 60.1609 6.70158 59.9785 6.91157C59.7472 7.17963 60.1475 7.12156 59.6004 7.48345V6.71943H59.4091V7.48345H58.8398V7.10365C58.5507 7.21534 58.5285 7.25111 58.0792 7.29578V6.91604L57.5099 7.10812C57.3853 7.43426 57.3275 7.70682 57.3186 8.25189H56.3712C56.3712 8.25189 56.1799 8.55568 55.9931 8.63163V8.82377H55.8018V8.44397H55.4238V8.25189H55.2325V8.44397H54.6631V8.6361C54.334 8.93097 54.2629 9.52965 54.0939 9.97195C53.3956 9.90493 52.844 9.63689 52.3859 10.1641C52.3236 10.3562 52.2614 10.5438 52.1946 10.7359C51.6876 10.7985 51.1805 10.861 50.6778 10.9281V11.1202L50.2998 11.3123V11.692L49.7305 11.4999L49.5393 11.8797H48.9699C48.9388 11.8976 48.7475 12.1656 48.5918 12.2594V12.4516C48.276 12.389 47.9602 12.3264 47.6444 12.2594V12.0673C47.5332 12.0539 46.995 12.389 46.697 12.4471C46.568 12.809 46.4523 13.6131 46.3189 13.9705L45.7496 13.7785V13.5863C45.4872 13.5372 45.8252 13.7249 45.5583 13.7785C45.1046 13.8678 45.069 13.6355 44.7977 13.5863L44.4197 14.1582H43.659V14.3503L43.0898 14.5424V15.1143H43.4678V15.3064H43.2766C43.1743 15.3958 41.7553 15.789 41.7597 15.3064H41.5685V15.6862L40.6212 15.4941C40.6301 16.1776 40.5766 16.6959 40.243 17.0176V16.8254H40.0518V16.0615H39.6737C39.6604 16.5619 39.5981 16.7093 39.4825 17.0131C39.0866 16.8969 38.7085 16.7987 38.3438 17.2052V17.585H38.1525V17.7771L37.0139 17.585C36.9516 17.7101 36.8893 17.8396 36.8226 17.9647C36.5691 18.0273 36.3156 18.0898 36.0621 18.1569V18.5366H35.3015V18.9164C34.8478 18.827 34.7054 18.6974 34.354 18.5366V19.4882C33.9092 19.5508 33.4689 19.6133 33.0241 19.6803V19.8725C32.4681 20.002 32.4014 20.0824 32.2635 20.6364C32.5304 20.6498 32.2368 20.6052 32.4547 20.4443C32.7528 20.2254 32.6326 20.9134 32.646 21.0162C32.3213 21.2306 32.3881 21.1368 32.268 21.588C32.5215 21.5255 32.775 21.463 33.0285 21.396L33.2198 21.0162C33.2554 21.0117 33.6645 21.1949 33.9804 21.2083V20.8286C34.1716 20.8911 34.3584 20.9536 34.5497 21.0206L34.741 20.6409C34.9723 20.5292 35.297 20.5381 35.5016 20.4488V19.6848C35.9508 19.6088 36.5468 19.3229 37.2095 19.4927V19.6848H37.9702V19.4927H38.3482V18.7287H38.7263V19.1084C39.2957 18.9833 39.8649 18.8538 40.4343 18.7287L40.6256 18.9208C41.146 18.5545 40.799 18.2686 41.7642 18.1569C41.9821 18.3758 41.7642 18.2328 42.1423 18.3489V17.7771L43.0898 17.585V17.2052C43.7169 17.308 43.9526 17.4465 44.2284 17.2052H44.4197C44.6599 16.9104 44.2151 16.821 44.6109 16.6334V16.8254H44.8022V16.2536C45.2203 16.1866 45.7851 16.0034 46.3189 16.2536C46.3811 16.3787 46.4435 16.5083 46.5102 16.6334H46.8882V16.2536C47.2707 16.3608 47.0528 16.2312 47.2663 16.4457L47.8357 16.2536V16.0615H48.405C48.5296 15.8694 48.6585 15.6817 48.783 15.4896C49.0988 15.5521 49.4147 15.6147 49.7305 15.6817V15.8738C49.8684 15.9006 50.4288 15.7041 51.0604 15.6817L50.8692 15.1098H51.2472V15.302H52.0078L52.1991 15.4941V15.302L52.7683 15.1098C52.755 14.6095 52.6927 14.462 52.5771 14.1582H53.7158C53.9337 13.9393 53.7158 14.0823 54.0939 13.9661C54.2407 13.3943 54.2095 13.4657 54.8545 13.3942C55.068 13.7204 54.9746 13.6534 55.4238 13.774C55.6151 13.2959 55.8152 12.7777 56.1844 13.01H56.3756V13.5819H56.7538C56.8916 13.0547 56.8071 13.1575 57.3231 13.01V12.8179L58.4617 12.6258C58.4617 12.6258 58.5462 12.9028 58.8398 12.8179L59.031 12.4381H59.6004V12.0584L59.9785 12.2505V12.4426C60.2276 12.5364 60.0185 12.3532 60.1697 12.2505C60.6456 12.1209 60.4766 12.1522 60.7391 11.8707H60.9303V11.491L61.3084 11.2989C61.5308 11.0576 61.6287 10.7449 61.8778 10.5349V10.727H62.447C62.5093 10.9817 62.5716 11.2363 62.6383 11.491H62.8296C63.2921 10.7136 63.8926 10.7851 64.9156 10.5394C64.9734 10.526 64.9646 10.2757 65.2937 10.3472V10.5394C65.6718 10.6645 66.0543 10.794 66.4324 10.9191V10.727H66.6236L66.4324 10.1551C66.557 10.0926 66.6859 10.03 66.8104 9.96301C67.0729 9.56538 66.726 9.69493 67.1885 9.39112V9.19904L68.1359 9.00691C68.0336 9.53857 67.9891 9.02479 68.1359 9.57879H68.3272V9.19904C68.7053 9.26159 69.0877 9.32411 69.4658 9.39112V9.19904C69.6704 9.0248 69.5015 9.23029 69.6572 9.00691H69.4658V8.81482H70.0352C70.0752 9.26606 70.1152 9.28839 70.2264 9.57879C70.4443 9.35987 70.3021 9.5788 70.4177 9.19904C70.6357 8.98012 70.4933 9.19905 70.609 8.8193C71.1783 8.62718 71.7477 8.43953 72.317 8.24741L72.5082 8.43955C72.5705 7.823 72.6817 7.88108 72.8863 7.48792H73.2644V7.68H73.4556V7.48792H74.2163L74.4075 6.91604C74.9012 7.11709 75.2081 7.26451 75.9242 7.29578C75.8619 7.17069 75.7997 7.04113 75.733 6.91604C75.862 6.70605 76.8005 6.64796 77.0629 6.34416L76.8717 5.96441H77.0629V5.77227C77.5655 5.99566 77.779 6.13862 78.5796 6.15202V5.95994H78.3884V5.38805C78.9888 5.51315 78.7709 5.67845 78.9577 5.7678C79.1801 5.7544 79.6338 5.38361 80.0964 5.57572L80.2876 5.95547H80.6657C80.4834 6.58542 80.4878 7.07685 80.857 7.67106H80.6657C80.4478 7.88998 80.6657 7.74703 80.2876 7.86319V8.81482H80.0964C80.0475 9.13203 80.2743 9.14542 80.2876 9.19457V10.1462C79.6071 10.173 79.2113 10.4187 78.7709 10.5259L78.3928 10.3339C78.2683 10.526 78.1392 10.7136 78.0147 10.9057C77.9079 10.9504 76.9783 10.7628 76.6848 10.7136C76.5691 11.214 76.1467 11.7233 75.5462 11.6652C75.5462 11.6652 75.4438 11.424 75.1681 11.4731L75.3593 11.8528H74.5987C74.5365 12.1701 74.4742 12.4873 74.4075 12.8045L73.46 12.6124L73.2688 12.9921C72.7573 13.1217 72.7706 12.6258 72.6995 12.6124L72.1301 12.8045L72.3215 12.9966C72.3303 13.0726 72.1524 13.4255 72.1301 13.7606C71.4985 13.8231 70.8669 13.8857 70.2308 13.9527V13.573C69.7816 13.5328 69.7594 13.4925 69.4703 13.3808V13.9527C69.4302 14.0331 68.167 14.9133 68.9009 15.2886H68.3317V15.0964C68.1493 14.7435 68.1403 15.4762 68.1403 15.4762C67.9268 15.6371 68.1137 15.4539 67.9491 15.6683C68.4829 15.4896 68.4784 15.4673 69.0878 15.6683V15.8604L69.6572 15.6683L69.4658 15.4762L69.6572 14.9043C70.5467 15.2484 71.1338 15.016 71.7432 14.5246C71.8055 14.3995 71.8677 14.2699 71.9344 14.1448H72.8819C72.8819 14.1448 72.864 14.0331 73.2599 13.9527V14.5246H73.4511V14.1448C74.2606 14.1314 74.7099 14.1046 75.1592 13.765L75.3504 13.3853C75.6662 13.4479 75.9821 13.5104 76.2979 13.5774C76.0799 13.3585 76.2978 13.5015 75.9197 13.3853V13.0056C76.111 13.0681 76.2978 13.1306 76.4891 13.1976V12.8179H76.8672V13.1976C77.9658 13.1083 78.7531 12.4873 79.5226 12.0539V12.6258H79.9006V12.246H81.2306V12.0539H81.7999V11.8618C82.1779 11.9243 82.5605 11.9869 82.9386 12.0539C83.0987 11.8395 82.9163 12.0271 83.1298 11.8618V11.0978C83.5079 11.0353 83.8904 10.9727 84.2685 10.9057C84.2062 11.0978 84.144 11.2855 84.0773 11.4776H84.2685V11.6697C84.482 11.5089 84.2951 11.692 84.4597 11.4776C84.6777 11.2587 84.5354 11.4776 84.6511 11.0978C84.9491 11.1112 85.981 11.2899 85.981 11.2899V11.0978H86.1722V10.5259C86.3813 10.2579 87.0262 10.3294 87.5021 10.3339V10.5259L88.6408 10.3339V10.1417H89.0188V9.94959H89.5882L89.3969 10.5215H89.5882C89.7261 9.99428 89.6416 10.097 90.1575 9.94959V10.3294C90.3488 10.2668 90.5356 10.2043 90.7269 10.1373V9.94517C91.1717 9.88262 91.612 9.82005 92.0568 9.75304V9.5609H92.6261L92.8174 9.18115C92.9775 9.11861 94.0673 9.38219 94.3342 9.5609V9.18115L94.9035 8.98907V8.79694C95.1615 8.71652 94.8279 8.93546 95.0947 8.98907C95.4105 9.05162 95.4327 8.80587 95.4728 8.79694C95.8197 8.72545 96.2067 9.04712 96.4202 9.17668V8.9846C97.0118 8.444 96.4647 8.17594 97.5589 8.03297V8.22505H98.1283L97.9369 8.60485C98.1816 8.91313 98.2928 8.39483 98.5063 9.17668C98.7553 8.97563 98.7909 8.78803 99.0756 8.60485V9.17668H99.4537C99.3915 8.79692 99.3291 8.41273 99.2624 8.03297C100.152 7.72917 99.9029 8.1804 100.401 7.08134H100.592C100.57 7.48791 100.397 7.73361 100.401 7.84531L100.592 8.03744C100.939 7.79619 100.615 7.77833 100.784 7.6577C101.002 7.49686 100.904 7.83191 100.975 7.84978C101.166 7.78723 101.353 7.72471 101.544 7.6577V7.2779C101.971 7.20194 102.274 6.96519 102.874 7.08581C102.874 7.08581 102.883 7.33598 103.252 7.2779V7.08581H104.2V7.2779C103.746 7.39406 103.848 7.34049 103.63 7.6577H104.008C104.555 6.75075 105.467 7.06795 106.477 6.70607L106.668 6.13419C107.211 6.13419 107.482 6.20117 107.807 6.32627V5.5623H107.998C108.123 5.75442 108.252 5.94207 108.376 6.13419H108.567L108.376 6.51393H108.567V6.70607C109.11 7.09923 109.057 6.36648 109.328 7.2779H109.706V7.6577H110.084C110.022 7.84981 109.96 8.03741 109.893 8.22952H110.084C110.213 8.51546 110.218 8.54677 110.275 8.99354H110.654V9.37329C110.947 9.54306 111.049 9.65477 111.223 9.94517C111.837 9.61009 111.583 9.48944 112.362 9.75304L112.17 9.18115H112.548V8.80141H112.926V8.99354H113.118V8.80141L113.687 8.99354L113.496 9.56537H113.874C114.012 9.03818 113.927 9.14098 114.443 8.99354C114.728 8.65846 114.955 8.63161 115.582 8.61374V8.234C115.96 8.1089 116.342 7.97935 116.72 7.85425C116.734 8.35464 116.796 8.50207 116.912 8.80588C117.125 8.64504 116.938 8.82819 117.103 8.61374H117.294V8.04191C117.864 8.10446 118.433 8.16698 119.002 8.234V7.85425H119.38L119.572 7.28237C119.825 7.34492 120.079 7.40749 120.332 7.4745C120.394 7.34941 120.457 7.21985 120.523 7.09476L121.471 7.28684V7.66659C121.956 7.37172 122.779 6.48266 123.37 6.90262H123.748V7.28237H123.939V6.90262C124.851 6.85348 124.856 6.76859 125.647 6.90262C125.71 6.58541 125.772 6.2682 125.839 5.95099C126.715 5.78569 127.378 5.78569 127.925 5.95099V5.57125H129.063V5.76333H129.633V5.95547C129.824 5.89292 130.011 5.83034 130.202 5.76333V5.57125C129.984 5.35233 130.127 5.57126 130.011 5.1915C130.634 5.2049 130.571 5.43276 130.958 5.1915L131.15 4.8117L132.288 5.1915V5.57125C132.8 5.57125 133.365 5.63377 133.618 5.37911V4.99936L133.996 5.1915V4.99936C134.374 4.93682 134.757 4.8743 135.135 4.80728C135.313 4.92344 135.068 5.07978 135.326 4.99936L135.517 4.61962C135.758 4.61962 136.002 4.95914 136.465 4.8117V4.61962C136.781 4.55707 137.096 4.4945 137.412 4.42748L137.221 4.99936H137.412C137.835 5.45954 137.768 5.26745 138.36 5.1915C138.337 5.79464 137.99 5.54888 138.551 5.76333C138.635 6.23691 138.724 6.46481 138.742 7.09923C138.217 7.23773 138.32 7.1528 138.173 7.67106H137.982V8.62269C137.528 8.71204 137.386 8.8416 137.034 9.00243V8.43061H136.843C136.563 9.49839 136.514 8.82375 135.895 9.19457V9.38671L135.135 9.95853C135.197 9.76642 135.259 9.57882 135.326 9.38671H135.135C135.019 9.69051 134.966 9.83795 134.944 10.3383C134.227 10.4902 133.881 10.7091 132.857 10.7181V10.3383H132.479V10.7181H131.532V10.9102H131.723C131.603 11.1827 131.501 11.0531 131.345 11.2899H130.967L131.158 10.9102H130.967C130.78 11.1693 130.856 11.2854 130.398 11.2899C130.398 11.2899 130.264 11.0174 130.02 11.0978C129.958 11.2229 129.895 11.3525 129.828 11.4776H129.45L129.259 12.6213L128.499 12.8134V12.0495H128.121C127.983 12.6615 127.862 12.7419 127.173 12.8134L127.364 12.2415H127.173C127.102 12.4605 127.12 12.9206 126.795 12.8134L126.604 12.2415C126.412 12.3041 126.226 12.3667 126.034 12.4337V12.8134C125.732 12.6973 125.585 12.6437 125.087 12.6213V12.0495H124.896V12.6213C125.114 12.8403 124.971 12.6213 125.087 13.0011C124.642 13.0636 124.202 13.1262 123.757 13.1932V13.573C123.085 13.6445 123.179 13.8097 122.618 13.9527V14.5246C122.156 14.4174 122.2 14.3235 121.858 14.1448V14.5246H121.667V15.0964H121.858V14.7167H122.236V15.0964C122.552 15.0339 122.867 14.9714 123.183 14.9043V15.4762H123.561V14.9043C123.877 14.9669 124.193 15.0294 124.509 15.0964C124.598 14.6407 124.727 14.4977 124.887 14.1448C125.505 14.1493 126.257 14.0599 126.595 14.3369H126.786C126.848 14.2118 126.911 14.0823 126.977 13.9572H127.355V13.765H127.733V13.573L128.112 13.765V13.573H130.011C129.949 13.3809 129.886 13.1932 129.82 13.0011H130.198V12.8089H130.389V13.0011L130.958 13.1932C130.972 13.4612 131.003 13.2468 130.767 13.3853C130.981 13.5864 130.767 13.4702 131.145 13.5774V13.3853H131.336V12.8134H131.528C131.692 12.5498 131.67 12.4828 131.719 12.0495C132.168 12.0271 132.199 11.9914 132.479 11.8573V12.0495H132.671V12.2415L132.479 12.6213H133.049V12.2415C133.494 12.179 133.934 12.1165 134.379 12.0495V12.2415H134.57C134.783 12.0896 134.499 11.9914 134.761 12.0495V12.2415H135.522V12.6213H135.713C135.775 12.2416 135.838 11.8573 135.904 11.4776H136.282V11.8573H136.474V11.2855C136.91 11.3034 136.967 11.4463 137.234 11.4776L137.426 11.0978C137.426 11.0978 137.946 11.2765 138.186 11.2899V10.9102L138.377 11.1023C138.631 11.0398 138.884 10.9772 139.138 10.9102V11.1023H140.085V10.5304H140.463V10.7226H140.655V10.5304L141.033 10.7226L141.224 10.1507C141.727 9.96303 141.62 10.5662 141.985 10.5304V10.3383C142.816 10.1418 143.03 9.86921 143.884 9.76645V9.95853H143.693C143.332 10.1238 144.071 10.1507 144.071 10.1507C144.231 10.3651 144.049 10.1774 144.262 10.3428V9.96301L145.209 9.77092C145.272 9.64583 145.334 9.51622 145.401 9.39112L145.592 9.58326C146.717 9.65474 146.864 9.18565 147.491 8.8193V9.39112H147.682C147.9 9.1722 147.682 9.3152 148.061 9.19904V8.8193C148.252 8.88184 148.439 8.94436 148.63 9.01138L148.821 8.63163H149.582V8.43955H149.773C149.889 8.89526 149.835 8.79246 150.151 9.01138V8.43955C151.147 8.27871 150.992 8.4172 151.859 8.8193C151.957 8.37252 152.135 8.10446 152.428 7.86767C152.646 8.08659 152.428 7.94359 152.806 8.05975V7.68H153.376V7.30026C153.692 7.3628 154.007 7.42532 154.323 7.49234V7.87214H154.701V7.30026C155.115 7.32706 155.333 7.49234 155.462 7.49234V7.30026L156.031 7.10812C156.093 7.23322 156.156 7.36282 156.222 7.48792C156.827 7.66663 157.735 7.09028 158.122 6.91604L157.93 6.34416H158.5C158.615 6.79986 158.562 6.69712 158.878 6.91604C159.038 7.13049 158.856 6.94281 159.069 7.10812C159.082 6.60773 159.145 6.4603 159.26 6.15649C159.638 6.09394 160.021 6.03143 160.399 5.96441C160.559 6.17886 160.377 5.99119 160.59 6.15649C160.444 6.3486 160.359 6.34418 160.212 6.53629H160.782L160.59 5.96441L160.782 5.77227C161.062 5.86163 161.084 5.99122 161.542 5.96441V5.77227H161.733V5.96441C161.987 6.02696 162.24 6.08948 162.494 6.15649V6.34863C163.268 6.6435 163.619 6.21015 164.011 6.54076C164.602 6.93392 164.1 6.78647 164.389 7.30473L164.767 7.49681V7.87661H164.958C165.132 8.13574 165.1 8.21167 165.149 8.64058L164.389 8.44844C164.54 9.06499 164.74 9.10521 164.767 9.97195C164.553 10.1328 164.74 9.94964 164.576 10.1641H164.384C164.327 9.59222 164.358 9.64579 164.006 9.40007V9.5922H164.197C164.073 9.84686 163.944 10.1015 163.819 10.3562C163.326 10.3651 163.166 10.3964 162.872 10.5483V10.7404C162.547 10.8521 162.543 10.5617 162.494 10.5483C161.813 10.3741 161.382 10.7896 161.164 11.1202H160.973C160.91 11.4999 160.848 11.8841 160.782 12.2639H160.404L160.212 11.8842C159.959 11.9467 159.705 12.0092 159.452 12.0762C159.492 12.5275 159.532 12.5499 159.643 12.8403C159.202 12.8224 159.158 12.6883 158.882 12.6481L158.691 13.0279C158.437 13.0904 158.184 13.153 157.93 13.22C157.793 13.7472 157.877 13.6444 157.361 13.7919C156.694 14.395 156.133 13.5506 156.031 13.5997V13.7919C155.715 13.984 155.4 14.1716 155.084 14.3637C155.186 15.0294 155.271 14.7167 155.084 15.3153H155.275V15.1233H156.036V15.503L156.605 15.3109V15.1188L157.174 15.3109V14.739C157.366 14.8016 157.552 14.8641 157.744 14.9311V14.739L157.552 14.5469H158.691C158.753 14.739 158.816 14.9267 158.882 15.1188C159.007 15.0562 159.26 14.739 159.26 14.739C159.452 14.8016 159.638 14.8641 159.83 14.9311V14.739C160.11 14.5916 160.145 14.596 160.59 14.5469V14.1672H160.968V13.7874H161.729V14.1672C162.156 14.118 162.232 14.1493 162.49 13.975V13.7829H162.868V13.5908H163.246V13.3987C163.584 13.1262 163.699 12.9698 164.193 12.8268V13.3987H164.954C165.016 13.0815 165.078 12.7643 165.145 12.4471H165.523C165.461 12.6392 165.398 12.8269 165.332 13.019H165.523C165.794 12.7464 166.582 12.532 167.04 12.4471V12.0673C167.293 12.0048 167.547 11.9422 167.8 11.8752V11.3033H168.178V11.8752H168.556V11.3033H169.504C169.442 11.4954 169.379 11.6831 169.313 11.8752H169.691C169.886 11.6563 170.042 11.5089 170.451 11.4955V11.6875H170.643L170.834 11.4955C171.012 11.1514 171.096 11.1961 171.212 10.7314L171.781 10.5394V10.3472L171.972 10.5394L172.542 10.3472V10.9191H172.92C172.96 10.4679 173 10.4455 173.111 10.1551L173.489 10.3472V10.1551C173.761 9.91835 173.783 9.62791 174.059 9.39112C174.116 9.48048 174.446 10.0836 174.628 9.96301L174.819 9.39112C175.642 9.32858 176.465 9.26606 177.288 9.19904V9.39112C176.763 9.52962 176.865 9.44475 176.718 9.96301C177.19 9.87812 177.417 9.7888 178.048 9.77092V9.57879H177.857V8.62716C178.173 8.68971 178.489 8.75228 178.804 8.8193C178.867 8.62718 178.929 8.43953 178.996 8.24741C179.214 8.46633 179.071 8.2474 179.187 8.62716L179.756 8.8193V8.62716C180.148 8.41271 180.099 8.3323 180.704 8.24741V7.67553C181.108 7.65319 181.353 7.47898 181.464 7.48345L181.656 7.67553V7.29578L182.603 7.10365V7.48345C182.728 7.4209 182.856 7.35833 182.981 7.29131V7.09923C183.283 7.06349 183.217 7.42983 183.359 7.47898H184.12C184.182 7.16177 184.244 6.84456 184.311 6.52735C184.627 6.5899 184.943 6.65241 185.258 6.71943L185.45 6.33968H185.641V6.53182C185.832 6.46927 186.019 6.4067 186.21 6.33968V5.95994C186.428 6.17886 186.286 5.95993 186.402 6.33968H186.78C186.869 5.88397 186.998 5.74101 187.158 5.38805C187.789 5.39699 188.866 5.58019 188.866 5.58019V5.38805H189.244V5.19597H189.813C189.875 5.07088 189.938 4.94127 190.004 4.81617C190.196 4.87872 190.382 4.94129 190.574 5.00831V5.20044H191.521V4.82064L192.282 4.62856V5.00831H192.66C192.78 5.53103 192.909 5.44168 193.038 5.95994H193.607C193.745 6.48713 193.661 6.38438 194.176 6.53182V6.91157C193.042 7.14389 193.194 7.67553 192.847 8.62716H193.985L194.176 7.86319C194.968 7.74257 194.715 7.67556 195.506 7.48345V7.86319C196.405 7.48344 196.271 7.48344 197.023 7.86319V7.48345C197.277 7.4209 197.53 7.35833 197.784 7.29131V6.91157H198.162V7.10365H198.353V6.91157C198.784 6.82668 198.865 7.00983 199.114 7.10365V6.91157H198.922C198.571 6.72839 199.3 6.71943 199.3 6.71943V6.33968H199.678V5.95994C200.275 6.07163 200.524 6.2682 201.195 6.33968L201.387 5.7678C201.387 5.7678 200.982 5.73656 201.195 5.57572H201.573V5.7678H202.712V5.19597C203.317 5.32107 203.086 5.47743 203.281 5.57572C203.597 5.54444 203.633 5.20044 203.659 5.19597C204.024 5.09321 203.922 5.32104 204.037 5.38805H204.229V5.19597C204.482 5.25852 204.736 5.32104 204.989 5.38805C205.127 4.86086 205.043 4.96361 205.559 4.81617V5.19597H206.319C206.497 4.85196 206.582 4.8966 206.697 4.43195L207.267 4.62409V4.43195C207.391 4.36941 207.52 4.30689 207.645 4.23987V4.61962H208.023L207.832 4.04774C208.285 3.95838 208.428 3.82883 208.779 3.66799V4.43195C209.766 4.17283 209.455 4.01202 210.678 4.23987V3.66799H211.248V3.86013C211.167 3.97182 210.936 3.88692 211.056 4.23987H211.248C211.554 3.06039 211.652 3.91816 212.386 3.47585C212.818 3.21672 212.373 2.77442 213.334 2.52422V2.71636L213.903 2.52422V2.90402H214.094V2.52422C214.766 2.59571 214.672 2.76106 215.233 2.90402V3.28377C215.411 3.58311 216.59 3.63672 215.994 4.2354H216.372V4.99936L215.994 5.1915C215.985 5.25405 216.171 5.61592 216.185 5.95547H216.563C216.474 6.41117 216.345 6.55414 216.185 6.90709C215.847 6.92496 215.5 7.10817 215.424 7.09923V6.90709H214.664V7.09923L213.525 7.29131V7.67106C213.271 7.79615 213.018 7.92571 212.764 8.0508V7.85872H212.573V8.43061L211.243 8.81035C211.461 9.02927 211.243 8.88627 211.621 9.00243V9.19457C211.955 9.35094 212.231 9.08285 212.382 9.00243V8.81035H212.951V8.43061C213.836 8.38593 214.032 8.15359 214.659 7.85872V7.66659H215.989V7.85872H215.798C215.58 8.07764 215.798 7.93464 215.42 8.0508V8.43061C216.194 8.20722 215.62 8.25635 215.989 7.85872L216.367 8.0508V7.85872H216.745V7.66659H217.315C217.515 7.55043 217.786 6.72391 218.262 6.90262V7.09476H218.64V6.52288C218.831 6.58542 219.018 6.64794 219.209 6.71496V6.52288C219.587 6.46033 219.97 6.39776 220.348 6.33074V6.71049H220.726C220.788 6.9026 220.851 7.09026 220.917 7.28237H221.109V6.90262H221.487C221.598 6.19225 221.598 6.46481 221.487 5.75891C221.544 5.78125 223.315 6.1744 223.386 6.13866V5.94652H223.577V5.18256H223.768C224.155 5.53104 224.631 5.23617 225.285 5.18256V4.80281C225.668 4.91004 225.45 4.78044 225.663 4.99489C226.362 4.79384 226.184 4.61068 226.611 4.23093V4.03879C227.091 3.73945 228.11 4.02539 228.888 4.03879C229.008 3.51607 229.137 3.60542 229.266 3.08716C230.08 3.05589 229.915 2.96654 230.405 2.70742V3.2793H231.165C231.205 2.82806 231.245 2.80574 231.357 2.51533L231.926 2.70742L232.117 2.32767H232.495V2.13553C232.686 2.07299 232.873 2.01047 233.065 1.94345L233.256 2.51533C233.736 2.12664 233.336 2.05515 234.203 1.94345V2.13553C233.985 2.30978 233.981 2.27408 233.825 2.51533H234.016V2.70742C234.412 2.49743 234.354 2.39915 234.964 2.32767C235.124 2.54212 234.942 2.3545 235.155 2.51981C234.933 2.88169 234.995 2.70297 234.586 2.89955V3.09163H234.964C234.902 3.47139 234.839 3.85564 234.773 4.2354H234.964V4.42748H234.773V4.80728C234.835 5.25406 234.897 5.69636 234.964 6.14313H234.773C234.612 6.36205 234.675 6.41118 234.394 6.52288V6.33074H234.203C234.079 6.52285 233.95 6.71051 233.825 6.90262H233.256L233.065 7.28237C232.811 7.34492 232.558 7.40749 232.304 7.4745C232.242 7.66662 232.179 7.85427 232.113 8.04639L231.543 8.23847L231.352 8.61822H231.161V8.42613C230.463 8.26083 230.245 9.07392 229.831 8.61822V8.99802H229.453C229.515 9.25268 229.577 9.50732 229.644 9.76198H229.453C229.239 10.0881 229.333 10.0211 228.884 10.1417C228.866 10.1015 228.612 9.44922 228.505 9.56984V9.76198L228.127 9.95406C228.065 10.1462 228.003 10.3338 227.936 10.5259H227.367C226.731 10.8387 227.118 11.0308 226.037 11.0978C226.099 11.2899 226.161 11.4776 226.228 11.6697C226.482 11.6072 226.735 11.5446 226.989 11.4776V12.0495H227.18V11.8573H227.941C228.519 11.6384 228.786 11.3257 229.649 11.2855V10.9057C230.187 10.7851 230.151 10.5528 230.218 10.5259H230.979V10.7181L231.739 10.5259C231.739 10.5259 231.824 10.7628 232.117 10.7181V10.5259L232.878 10.7181V10.5259C233.096 10.307 232.953 10.526 233.069 10.1462H232.878V10.3383C232.713 10.7002 232.686 9.95853 232.686 9.95853C233.38 10.0211 234.079 10.0837 234.773 10.1507L234.964 9.77092C235.155 9.71284 235.311 10.0658 235.724 9.96301V9.77092H236.672V9.96301H236.863V9.77092H237.624L237.815 9.19904H238.006L237.815 8.8193H238.384C238.602 9.03821 238.384 8.89522 238.762 9.01138V8.63163C239.216 8.72099 239.358 8.85054 239.71 9.01138V8.8193H239.518C239.167 8.63612 239.897 8.62716 239.897 8.62716V8.8193C240.115 9.03821 239.972 8.81928 240.088 9.19904C240.493 9.1767 240.733 9.00691 240.848 9.00691V9.19904H241.227C241.28 8.85949 241.418 8.8193 241.418 8.8193C241.355 8.62718 241.293 8.43953 241.227 8.24741H241.418V8.05528C241.956 8.29653 242.201 8.54674 242.934 8.62716V8.24741C244.042 7.99275 243.041 7.7649 244.073 8.24741V7.48345H244.264V7.67553C244.518 7.48342 244.772 7.29576 245.025 7.10365V7.86767H245.216C245.31 7.77831 245.163 7.55937 245.408 7.67553V7.86767H245.599C245.599 7.86767 245.545 8.55122 245.79 8.24741V8.05528C246.008 7.83636 245.866 8.05529 245.981 7.67553H245.412C245.559 7.10366 245.528 7.17513 246.173 7.10365V7.29578L246.742 7.10365V7.29578H247.311V7.48792C247.801 7.59068 248.352 6.89368 248.641 6.7239L249.211 6.91604V6.7239C249.526 6.51839 249.526 6.46478 249.971 6.34416C249.909 6.53627 249.847 6.72393 249.78 6.91604H249.971V7.10812C250.162 6.98302 250.349 6.85347 250.54 6.72837V6.53629H250.919C251.261 6.38439 251.332 6.10288 251.488 5.77227C251.804 6.02693 252.119 6.28163 252.435 6.53629C252.551 6.161 252.444 6.07163 252.813 5.96441C252.876 5.98675 252.871 6.32182 253.191 6.34416C253.596 5.80356 253.36 5.95991 253.952 6.15202C254.014 5.53547 254.125 5.59361 254.33 5.20044C254.993 5.3032 254.681 5.38809 255.277 5.20044V6.34416H255.469C255.682 6.01801 255.589 6.08504 256.038 5.96441C256.394 6.56309 256.741 6.50502 256.799 7.48792C257.319 7.51026 258.173 7.75152 258.315 7.48792H258.507V7.68C259.031 7.8051 259.627 8.21166 259.837 8.63163V9.20351H260.028C260.29 9.55646 260.468 9.64582 260.597 10.1551C260.406 10.0926 260.219 10.03 260.028 9.96301V10.1551H260.219V10.727H260.41C260.584 11.0085 260.579 11.1961 260.602 11.6787C260.384 11.8976 260.526 11.6786 260.41 12.0584C259.779 12.1209 259.147 12.1835 258.511 12.2505V11.8707C258.258 11.9333 258.004 11.9959 257.75 12.0629V11.6831C257.626 11.7456 257.497 11.8082 257.372 11.8752C257.31 11.7501 257.248 11.6206 257.181 11.4955C257.177 11.4955 256.621 11.7546 256.234 11.4955L256.042 10.9236C255.82 10.7672 255.718 11.482 255.282 11.3033V11.1112C255.064 10.8923 255.206 11.1112 255.091 10.7314L254.521 10.9236V10.7314H254.33C254.392 10.5393 254.455 10.3517 254.521 10.1596C254.521 10.1596 254.286 10.1015 254.33 9.77987C254.33 9.77987 254.646 9.69494 254.521 9.40007H254.33C254.112 9.61899 254.33 9.47604 253.952 9.5922C253.89 9.78432 253.827 9.97197 253.761 10.1641C253.316 10.1105 253.289 10.1015 253 9.97195V9.77987C252.68 9.80221 252.68 10.1417 252.622 10.1596C252.191 10.3115 251.857 9.9228 251.675 9.96748V10.1596C251.03 10.4187 250.887 10.7538 250.158 10.9236C250.22 10.7315 250.282 10.5438 250.349 10.3517H249.971C249.691 10.87 249.388 11.2229 248.641 11.3033V10.7314H248.45C248.303 11.3033 248.334 11.2318 247.689 11.3033V10.9236C246.898 11.3569 246.791 11.3123 245.79 11.1157V10.7359H245.599C245.585 11.4731 245.63 11.5222 245.029 11.6875V11.8797C244.847 12.2326 244.838 11.4999 244.838 11.4999H244.46C244.398 11.625 244.336 11.7546 244.269 11.8797C243.953 11.8171 243.637 11.7546 243.321 11.6875V12.0673H242.752V12.2594C242.534 12.4783 242.677 12.2594 242.561 12.6392L241.422 12.8313V12.4516L239.523 12.6436V13.0234H238.954V13.2155C238.785 13.5729 238.762 12.8358 238.762 12.8358C238.153 12.9832 238.353 13.1217 237.624 13.2155V13.7874C236.503 13.6712 236.587 13.1127 235.346 13.0234C235.342 13.6578 235.248 13.8857 235.155 14.3593H234.777C234.835 14.194 235.142 13.9393 234.968 13.5953H234.777V13.7874C234.559 14.0063 234.701 13.7874 234.586 14.1672L233.447 14.3593V14.739C232.811 14.6229 232.251 14.2163 231.548 14.5469C231.423 14.739 231.294 14.9267 231.17 15.1188C230.654 15.2707 230.583 14.605 230.409 14.5469C230.067 14.4307 230.271 14.7613 230.218 14.9266C230.027 14.8641 229.84 14.8016 229.649 14.7346V15.4985H229.27L229.079 15.8783C228.768 15.9721 228.728 15.6907 228.701 15.6862C228.243 15.6058 228.207 15.8783 227.941 15.8783V15.6862C227.562 15.6236 227.18 15.5611 226.802 15.4941V15.8738C225.543 16.0078 224.903 16.0391 223.955 15.8738L223.764 16.4457C223.408 16.3519 222.857 16.3653 222.247 16.2536V16.0615C222.465 15.8426 222.323 16.0615 222.439 15.6817C221.985 15.6996 221.967 15.8068 221.678 15.8738V15.6817C221.362 15.4762 221.367 15.4092 220.917 15.302V14.9222H220.539C220.477 14.7301 220.415 14.5425 220.348 14.3503L219.209 14.1582V13.7785C219.361 13.841 219.805 14.1671 220.157 13.9705V13.7785C219.596 13.4121 219.694 13.019 219.779 12.4426C220.032 12.3175 220.037 12.1433 220.157 12.0629C220.281 12.1254 220.41 12.1879 220.535 12.255V11.491H220.726C220.664 11.1112 220.602 10.727 220.535 10.3472C220.344 10.2847 220.157 10.2222 219.965 10.1551C220.028 10.2802 220.09 10.4098 220.157 10.5349L219.587 10.3428V10.7226H219.396C219.334 10.8476 219.272 10.9772 219.205 11.1023H218.636C218.68 11.5446 218.845 11.2185 218.636 11.6742L218.257 11.482V11.8618C218.053 12.1969 218.066 11.482 218.066 11.482C217.75 11.5446 217.435 11.6072 217.119 11.6742C217.119 11.6742 217.03 11.3882 216.741 11.482C216.678 11.6071 216.616 11.7367 216.55 11.8618H215.98C215.918 12.0539 215.856 12.2416 215.789 12.4337C215.495 12.2773 214.948 11.7456 214.459 11.8618C214.397 11.9869 214.334 12.1164 214.268 12.2415C213.903 12.2058 213.952 11.8707 213.89 11.8618H213.698V12.0539H212.751V12.246H213.129C213.067 12.6258 213.004 13.01 212.938 13.3898H212.56C212.386 13.3138 212.435 12.809 211.799 13.01L211.608 13.3898H210.66V13.1976C210.385 13.0457 210.34 13.0636 209.9 13.0056V13.5774C209.709 13.5149 209.522 13.4523 209.331 13.3853V13.5774C209.113 13.7964 209.255 13.5774 209.139 13.9572C208.432 14.1582 208.628 14.3503 208.192 14.7212V14.9133H207.623V14.3414H207.244V14.7212H206.297V14.529H206.106C205.981 14.7837 205.852 15.0384 205.728 15.293L205.35 15.1009V15.293L204.78 15.6728V15.1009H204.589V15.293L204.02 15.1009V15.293C203.753 15.2796 204.095 15.1322 203.828 15.1009L202.69 15.293V15.8649H202.499V15.6728C201.983 15.3958 201.569 15.9408 201.36 16.0525C201.253 15.4538 201.173 15.2528 200.599 15.1009C200.706 15.5655 200.799 15.5209 200.977 15.8649H200.599C200.297 16.1464 199.483 16.0749 198.891 16.057V15.6773H198.513V16.057C198.135 15.9944 197.753 15.9319 197.375 15.8649C197.281 15.4137 197.197 15.4136 196.996 15.1009C197.254 14.8775 197.183 15.2439 197.375 14.9088C197.125 14.7524 197.152 14.7747 196.996 14.529H197.375C197.415 14.0778 197.455 14.0555 197.566 13.765C197.028 13.64 196.85 13.4121 196.618 13.0011H197.188C197.312 12.4918 197.441 11.9824 197.566 11.4776C197.317 11.3212 197.343 11.3436 197.188 11.0978C196.783 11.3301 196.774 11.5267 196.24 11.6697V11.2899H196.049V11.8618C195.311 11.9243 195.195 12.1701 194.719 12.4337C194.679 11.9824 194.639 11.9601 194.528 11.6697C194.314 11.8305 194.501 11.6473 194.337 11.8618H194.145L194.337 12.0539L194.145 12.6258C193.34 12.4873 193.233 12.5945 192.246 12.6258L192.437 13.1976H192.246C192.09 13.4478 192.113 13.4211 191.868 13.5774V12.8134C190.903 12.867 191.032 13.153 189.969 13.1932C189.826 13.841 189.564 14.0733 188.83 14.1448V13.765H188.639V13.9572C188.474 14.3191 188.448 13.5774 188.448 13.5774C188.256 13.5149 188.069 13.4523 187.878 13.3853L188.07 13.765H187.691C187.389 14.0465 187.224 14.4218 187.122 14.9088H186.553V14.529C185.334 14.5737 185.027 15.226 184.084 15.4806C184.204 14.9579 184.333 15.0473 184.462 14.529C183.248 14.7971 182.385 15.637 181.616 14.3369C182.47 13.8365 182.02 13.6265 181.807 12.8134H181.046C180.886 12.599 181.069 12.7866 180.855 12.6213C180.913 12.456 181.22 12.2013 181.046 11.8573H180.855V11.6652H180.286C179.965 12.1924 179.472 12.0494 179.147 12.4292L178.956 13.0011H178.386V13.1932C178.195 13.2557 178.008 13.3183 177.817 13.3853V13.0056C177.225 13.1351 176.954 13.5774 176.487 13.7695H175.727V13.9617C175.535 13.8991 175.348 13.8365 175.157 13.7695V14.1493L174.019 14.3414V14.5335H173.258C173.196 14.5469 173.209 14.7971 172.88 14.7256V14.5335H172.502V14.3414L171.172 14.1493C171.034 14.4173 170.829 14.7256 170.603 14.9133V14.1493H170.411V14.529C170.22 14.4665 170.033 14.4039 169.842 14.3369C169.753 14.7837 169.526 14.9267 169.464 15.2886H169.655C169.717 15.4807 169.78 15.6683 169.846 15.8604C168.766 15.8738 168.654 15.6594 167.947 15.4806C167.667 15.9989 167.364 16.3519 166.617 16.4323V16.0525H166.239V16.8165H165.861V17.0086H164.531V17.2008H164.153V17.3928C164.029 17.3303 163.899 17.2678 163.775 17.2008V17.3928H163.584C163.304 17.165 163.744 17.2544 163.392 17.0131C163.415 17.6162 163.762 17.3705 163.201 17.585V17.2052C162.134 17.3348 162.587 17.6788 162.063 17.9692H161.684C161.622 18.1613 161.56 18.349 161.493 18.5411H160.546V18.3489C161.017 18.0005 160.79 18.2015 160.737 17.585H160.359V18.1569C158.709 18.1613 158.42 18.4875 156.943 18.5366V18.1569C156.689 18.282 156.436 18.4115 156.182 18.5366C156.245 18.7913 156.307 19.0459 156.374 19.3006C155.88 19.2693 155.724 19.2603 155.426 19.1084V18.9164L154.857 19.1084C154.826 19.104 154.79 18.8404 154.479 18.9164V19.1084H154.101V19.3006H153.723V19.4927C153.46 19.667 153.389 19.6267 152.962 19.6848V19.1129H152.771V19.305H151.823C151.694 19.3631 151.815 19.5508 151.254 19.6848C151.192 19.8769 151.13 20.0646 151.063 20.2567H151.254C151.534 20.489 150.565 20.4443 150.494 20.4488V20.2567C149.733 20.1316 148.977 20.002 148.216 19.8769C148.318 19.3453 148.363 19.859 148.216 19.305C148.012 19.4123 147.82 19.8188 147.456 19.6848V19.4927H147.264L147.456 19.1129H147.264C147.046 18.894 147.264 19.037 146.886 18.9208C146.824 18.7287 146.762 18.5411 146.695 18.3489H147.073C147.011 18.1568 146.949 17.9692 146.882 17.7771H147.073V17.9692C147.238 18.3311 147.264 17.5895 147.264 17.5895H147.456V17.3973C147.331 17.3348 147.202 17.2723 147.077 17.2052C147.14 17.0131 147.202 16.8255 147.269 16.6334H147.077V16.4412H147.647V16.2491C147.398 16.0928 147.424 16.1151 147.269 15.8693C147.594 15.6549 147.527 15.7487 147.647 15.2975L148.407 15.1054C148.43 15.092 148.701 14.3995 148.786 14.5335V14.9133H149.355C149.533 14.5693 149.617 14.6139 149.733 14.1493C149.475 13.9259 149.444 13.8008 149.355 13.3853H149.733V13.0056H150.111V12.8134C149.733 12.876 149.35 12.9385 148.972 13.0056V12.8134C148.723 12.8268 148.496 13.1396 148.025 13.0056V12.8134C147.647 12.7509 147.264 12.6884 146.886 12.6213V13.3853H146.508V13.765C146.317 13.64 146.13 13.5104 145.939 13.3853V13.0056L145.748 13.1976C145.53 13.4166 145.672 13.1977 145.556 13.5774H144.796V13.9572C144.418 13.8946 144.035 13.8321 143.657 13.765C143.595 14.0823 143.533 14.3995 143.466 14.7167C143.003 14.8239 143.048 14.9132 142.705 15.0964V14.9043C142.51 14.739 142.443 14.5737 142.327 14.3325C142.109 14.5514 142.252 14.3324 142.136 14.7122C141.758 14.7748 141.375 14.8373 140.997 14.9043V15.2841C140.548 15.3243 140.526 15.3645 140.237 15.4762V15.0964H140.428L140.237 14.5246H140.045V14.9043C139.921 14.8418 139.792 14.7792 139.667 14.7122C139.449 14.8641 139.592 15.1634 139.098 15.092C139.036 14.9669 138.973 14.8373 138.907 14.7122H138.715V15.092L138.146 15.2841C138.048 15.2573 138.03 14.8016 137.768 14.9043C137.577 15.159 137.39 15.4136 137.199 15.6683C137.007 15.6058 136.821 15.5432 136.629 15.4762V15.856H136.251V16.2357C136.038 16.0749 136.225 16.258 136.06 16.0436C135.855 15.8693 136.024 16.0749 135.869 15.8515H136.06V15.6594H135.491V15.8515H135.299V15.6594H134.73C134.668 15.5343 134.606 15.4047 134.539 15.2796C134.414 15.3422 134.285 15.4047 134.161 15.4718C133.903 15.5477 134.241 15.6772 133.969 15.6638V15.4718H133.591C133.587 16.0615 133.645 16.4546 133.783 16.8076H133.022V17.1873H132.831V16.6155H132.453L132.262 17.1873C132.048 17.0265 132.235 17.2097 132.07 16.9952H131.879L132.07 16.4234C131.879 16.4859 131.692 16.5484 131.501 16.6155V16.8076H131.123C131.061 16.9327 130.998 17.0622 130.932 17.1873H130.171V17.3794H129.98C129.886 17.2945 130.033 17.0712 129.788 17.1873L129.597 17.5671L128.65 17.7592V17.3794H128.459L128.267 17.7592H128.076L127.885 17.3794C127.622 17.2588 127.351 17.2856 127.124 17.1873C127.111 17.9245 127.155 17.9737 126.555 18.139V17.7592H126.177V18.139H125.229L124.851 19.0906H124.473V18.8985C124.411 18.8895 124.037 19.0683 123.713 19.0906C123.819 18.626 123.913 18.6706 124.091 18.3266H123.713L123.521 18.8985L122.191 18.7064C121.991 18.8047 122.054 19.1352 122.191 19.2782H121.813C121.649 19.4748 121.484 19.5419 121.244 19.658V19.0861C120.395 19.1576 120.693 19.2068 119.914 19.0861V19.2782C120.132 19.4971 119.99 19.2783 120.105 19.658H119.158C119.109 19.6491 119.096 19.4123 118.78 19.4659V19.658H118.402C118.34 19.8501 118.277 20.0377 118.211 20.2298C117.997 20.069 118.184 20.2522 118.019 20.0378C117.806 19.8769 117.993 20.0601 117.828 19.8456C118.077 19.6893 118.05 19.7116 118.206 19.4659H117.446C117.276 19.6669 117.112 19.7161 116.876 19.8456V20.0378L116.307 19.8456V20.0378C116.556 20.1941 116.529 20.1718 116.685 20.4175H116.307C116.084 20.1584 115.96 20.1271 115.546 20.0378V20.4175C115.19 20.2835 114.803 20.2298 114.216 20.2254C114.007 19.8277 113.909 19.8859 113.838 19.2738H113.46V18.894C113.247 19.0548 113.433 18.8717 113.269 19.0861H113.078V19.4659L112.7 19.658V20.2298H112.508C112.317 19.9752 112.13 19.7205 111.939 19.4659H111.748C111.499 19.0414 111.85 18.9342 111.37 18.5142C111.432 18.2596 111.494 18.0049 111.561 17.7503C111.561 17.7503 111.316 17.6565 111.37 17.3705H111.561V16.4189C111.561 16.4189 111.677 16.4189 111.752 16.0391C112.277 15.9006 112.175 15.9855 112.322 15.4673H112.7V15.6594L113.269 15.4673V15.0875L114.216 15.2796C114.354 14.7524 114.27 14.8552 114.786 14.7077V13.9438H114.977L114.786 13.564H114.977C115.137 13.3496 114.955 13.5372 115.168 13.3719V13.1798C115.351 12.8269 115.359 13.5596 115.359 13.5596L115.929 13.7516V13.5596H115.737C115.8 13.3674 115.862 13.1798 115.929 12.9877H117.067V13.1798C117.512 13.1173 117.953 13.0547 118.397 12.9877V12.6079H119.158V12.2282C118.509 12.2192 117.846 12.0986 117.45 12.036C117.325 12.2282 117.196 12.4158 117.072 12.6079L115.933 12.8C116.04 12.3354 116.133 12.3801 116.311 12.036H115.551V12.2282H115.742C115.96 12.5275 115.275 12.4069 115.173 12.4203V12.9921H114.981V13.1843C114.666 13.2468 114.35 13.3093 114.034 13.3764C114.096 13.0592 114.159 12.7419 114.225 12.4247C113.763 12.532 113.803 12.6213 113.465 12.8045V12.9966C113.087 12.8715 112.704 12.742 112.326 12.6169V12.8089C112.108 13.0279 112.25 12.8089 112.135 13.1887C111.823 13.2468 111.307 13.5864 111.187 13.5685V13.3764H110.618C110.355 13.3227 110.689 13.1262 110.427 13.1843L110.235 13.564H109.857L110.049 13.1843H109.857C109.639 13.4032 109.857 13.2602 109.479 13.3764V13.7561C109.163 13.8187 108.848 13.8812 108.532 13.9482C108.496 13.9393 108.47 13.6757 108.154 13.7561V13.9482H107.776V14.1403C107.589 14.1001 107.553 13.6265 107.398 13.7606C107.086 14.0197 107.607 14.1269 106.828 14.3325V14.9043H106.637V14.5246H106.446C106.384 14.6497 106.321 14.7792 106.254 14.9043H105.494C105.267 14.4888 105.076 14.2744 104.547 14.1403V14.3325H103.786L103.595 14.7122L103.025 14.5201V15.092H102.647C102.18 15.8917 102.225 15.3154 101.7 15.6638C101.762 15.7889 101.824 15.9185 101.891 16.0436C101.513 15.981 101.131 15.9185 100.752 15.8515C100.735 15.856 100.655 16.1821 100.374 16.2312V16.0391H99.6138L99.4226 15.847V16.0391C98.8844 16.3876 98.8666 16.5887 97.9059 16.611C97.6924 16.2848 97.7858 16.3519 97.3365 16.2312V16.611H96.9584V16.4189C96.7182 16.343 96.4602 16.9595 96.3891 16.9907C95.9976 17.165 95.8464 16.8255 95.6285 16.7987V16.9907C95.2504 17.0533 94.8679 17.1159 94.4898 17.1829L94.2986 16.611C93.7737 16.7495 93.876 16.6646 93.7292 17.1829C93.1599 17.2454 92.5905 17.308 92.0212 17.375L91.8299 17.7548H90.5V17.9468C90.0063 18.0943 89.6149 17.9647 89.1701 18.139C89.0633 17.6743 88.97 17.719 88.7921 17.375C88.5786 17.5358 88.7653 17.3526 88.6007 17.5671C87.9336 18.0407 88.5563 18.2462 87.6534 18.5187V18.7109H86.7059L86.5147 19.0906C86.0922 19.2604 85.981 18.8538 85.7541 18.8985V19.0906C85.3761 19.1666 85.5139 19.0057 85.376 18.8985H85.1848V19.2782C84.9935 19.2157 84.8067 19.1531 84.6154 19.0861V18.894L84.0461 19.0861V18.894H83.2855L83.0943 18.5142C82.8274 18.5142 83.0052 18.4562 82.9029 18.7064C82.6672 18.4875 82.8318 18.7063 82.7117 18.3266H83.4723V17.9468H82.7117C82.5338 17.6028 82.4494 17.6475 82.3337 17.1829H82.7117C82.6005 16.3966 82.5071 16.2715 82.1424 15.4673C81.8933 15.5656 82.1958 15.5432 81.9511 15.6594H81.3818V15.8515C81.7643 15.9587 81.5464 15.8291 81.7599 16.0436C81.2173 16.0257 80.9459 16.0079 80.6212 15.8515V16.0436C80.8392 16.2625 80.6968 16.0436 80.8124 16.4234C79.8828 16.4234 79.7317 16.6423 79.1045 16.8031V16.2312H78.9132V16.4234H78.722L78.3438 16.2312V16.8031H77.7746V16.4234H77.5833V16.8031H77.7746V17.375C77.143 17.3705 76.9162 17.2767 76.4447 17.1829V17.5626C75.9954 17.5403 75.9642 17.5046 75.684 17.3705V17.5626C75.466 17.7815 75.6084 17.5626 75.4928 17.9424C74.492 17.8307 75.0569 17.5314 74.1628 17.7503V17.3705C73.8604 17.3259 73.9226 17.6967 73.7847 17.7503C73.0731 18.0183 72.486 17.8575 71.8856 17.7503V18.3222L71.5074 18.13V18.3222C71.1249 18.6483 71.5253 18.6125 71.3162 18.894H71.1249C70.6667 18.206 69.3502 18.7778 68.4695 18.894V19.4659C68.1137 19.3676 67.4331 18.7823 67.1396 18.894V19.0861H66.9483V19.658C66.379 19.7206 65.8096 19.7831 65.2403 19.8501V20.2298H65.4316C65.3694 20.422 65.307 20.6096 65.2403 20.8017C64.7911 20.7794 64.7599 20.7437 64.4797 20.6096V20.8017H64.2885V20.2298H63.9104V20.8017H63.7191V20.6096H62.9586V20.8017L62.5805 20.6096V20.8017C62.1624 20.9313 61.9534 20.8598 61.6331 20.9939V21.5657C60.6857 21.7087 60.6946 21.7355 59.9251 21.1859L59.7338 21.7578H58.9733V21.95C58.7197 22.0125 58.4662 22.075 58.2127 22.142V21.7623H57.8346C57.7189 22.4325 57.6299 22.638 56.8871 22.7139V22.5218C57.1051 22.3029 56.9628 22.5218 57.0784 22.142C56.8249 22.0795 56.5714 22.017 56.3179 21.95V21.7578C55.9576 21.6461 56.0554 21.8651 55.9398 21.95L55.3704 21.7578V21.95H55.5616V22.7139H55.1836V22.3342C54.6632 22.638 54.8411 22.8033 54.0449 22.906C53.9071 23.4332 53.9915 23.3305 53.4756 23.4779C52.9641 24.0855 52.3681 23.9381 51.5763 23.8576V23.4779H52.3369C52.2746 23.2858 52.2124 23.0981 52.1457 22.906C51.8566 23.0177 51.8343 23.0535 51.3851 23.0981C51.354 22.5799 51.3228 21.9499 51.007 21.7623V21.5702C51.1449 21.3691 51.1538 21.7355 51.3851 21.3781H51.007C50.6689 21.177 51.3851 21.1859 51.3851 21.1859C51.2783 20.7213 51.1849 20.766 51.007 20.422H51.5763C51.732 20.6722 51.7098 20.6454 51.9544 20.8017C51.4919 19.801 51.2561 18.8761 52.9018 18.894C53.1197 19.1129 52.9018 18.97 53.2799 19.0861C53.3422 18.7689 53.4044 18.4517 53.4711 18.1345H53.0931V18.5142H52.715L52.9062 17.9424H52.715C52.5727 18.3043 52.8485 18.139 52.5238 18.3222C52.2747 18.0988 52.7506 18.0317 52.3324 17.9424V18.3222L51.9544 18.13V18.3222H52.1457C52.0211 18.5768 51.8921 18.8315 51.7676 19.0861H51.5763V18.5142H51.3851V18.7064H50.8157C50.6912 18.8985 50.5622 19.0861 50.4376 19.2782H50.0596V19.4703H49.4903V19.6625H49.1122V19.8546C48.3471 20.1271 47.7734 19.591 47.4042 19.8546C46.8883 20.1896 46.8038 20.909 46.6437 20.9983H44.9356C44.7177 20.7794 44.9356 20.9224 44.5575 20.8062V20.4265H44.3663C44.4285 20.6811 44.4908 20.9358 44.5575 21.1904H44.3663C44.006 21.5032 43.3611 21.3915 42.8496 21.5702V21.7623C42.5694 21.8517 42.1068 21.5568 42.089 21.5702V21.95H41.1415C40.9503 22.3967 40.7634 22.839 40.5722 23.2858H40.381V22.7139H40.0028C39.9628 23.1652 39.9228 23.1875 39.8116 23.4779C39.5981 23.3171 39.785 23.5003 39.6204 23.2858C39.4024 23.0669 39.5447 23.2858 39.429 22.906C39.7537 22.6916 39.6871 22.7854 39.8072 22.3342H39.2378V23.4779C38.922 23.4153 38.6063 23.3528 38.2905 23.2858V23.0937C38.5084 22.8748 38.366 23.0937 38.4817 22.7139H38.1036L38.2949 22.3342H38.1036C37.8856 22.5531 38.1036 22.4101 37.7256 22.5263C37.6766 22.8971 37.5387 22.8971 37.5342 22.906C37.2318 23.8442 37.7033 24.1257 36.5869 24.2419V23.8621C36.3244 23.9559 36.1688 23.9381 35.8263 24.0542V24.2463C35.635 24.1838 35.4482 24.1213 35.257 24.0542V24.2463H34.8788L35.0702 24.6261H33.9315V24.8182C34.1494 25.0371 34.0071 24.8182 34.1227 25.198C33.8158 25.1846 32.7928 25.0059 32.7928 25.0059C32.7305 25.131 32.6683 25.2605 32.6016 25.3856C32.0856 25.6671 31.9966 25.4348 31.6541 25.3856V25.5778H31.2761L31.0848 25.9575C30.769 26.0201 30.4532 26.0826 30.1374 26.1496V26.3417C29.8839 26.2792 29.6304 26.2166 29.3768 26.1496C29.061 26.2121 28.7452 26.2747 28.4294 26.3417V26.5339C27.8645 26.6947 27.66 26.23 27.2908 26.1541V26.3462C27.0728 26.5651 27.2151 26.3462 27.0994 26.7259H26.3389L26.1476 26.5339C26.0498 26.5785 26.0942 26.8734 25.7695 26.9136V26.7215L25.2002 26.5294V26.7215C25.0089 26.784 24.8222 26.8466 24.6309 26.9136V26.5339C24.2884 26.7126 24.3328 26.7974 23.8702 26.9136V27.2934H23.679V26.7215C22.6115 26.7081 21.7976 26.2658 21.4017 25.5778L21.7798 25.3856C21.7931 25.1176 21.593 25.4661 21.5885 25.1935C21.6508 24.8763 21.713 24.5591 21.7798 24.2419H22.1579C21.7398 23.0535 22.6249 22.3922 22.7272 21.1904C23.3143 21.0832 23.9948 20.9983 24.8133 20.9983V20.4265H25.3826C25.5116 19.868 25.5916 19.801 26.1432 19.6625V19.2827C27.2507 19.028 26.25 18.8002 27.2819 19.2827V18.9029C27.7044 18.8225 27.9312 18.7198 28.2292 18.5232V18.3311C28.6073 18.2953 28.3627 18.6215 28.6073 18.3311C28.8253 18.1121 28.6829 18.3311 28.7986 17.9513H29.1767C29.3946 17.1784 29.5636 17.5716 29.9373 16.9997C30.3153 17.1248 30.6979 17.2543 31.076 17.3794V17.1873H31.2672V16.4234C30.1774 16.4457 29.8749 16.5798 28.9898 16.4234C28.8831 17.0221 28.803 17.2231 28.2292 17.375V16.9952H27.8512V17.5671C27.4643 17.7726 27.104 18.13 26.5213 18.139L26.33 17.9468C25.645 18.4651 26.3922 18.8359 25 18.8985L25.1913 18.1345H24.8133V18.3266H25.0045C25.0178 18.3936 24.6799 19.0146 24.6265 19.2782H24.2484V18.8985H23.8702V19.2782L23.679 19.0861C23.3009 19.2112 22.9184 19.3408 22.5403 19.4659C22.4781 19.591 22.4158 19.7205 22.3491 19.8456C22.1 19.9528 22.3892 19.7027 22.1579 19.6535C21.9666 19.7161 21.7798 19.7786 21.5885 19.8456V19.6535H21.0192V19.4614H20.8279V19.6535C20.8279 19.6535 20.3031 19.4793 20.0674 19.4614C19.9428 19.7786 19.8138 20.0958 19.6893 20.413C19.5247 20.355 19.2712 20.0467 18.9287 20.221V20.413H18.7374V20.9849H18.5461V20.413H18.3549V21.177C18.386 21.4451 18.555 21.0966 18.5461 21.3691L18.3549 21.5613C18.0257 21.396 18.2882 21.5389 18.1636 21.1815H17.9723V21.5613L17.025 21.7534L17.2162 21.3736H17.025C16.7314 21.7042 16.6825 21.5612 16.2644 21.7534V21.9455C15.9842 22.0527 15.5394 21.9946 15.5038 21.7534H15.3125V22.3252H15.1212V22.1331H14.93V22.5129H14.5519V22.8926C14.0715 22.7407 13.3777 22.8792 12.4658 22.8926C12.4036 23.3394 12.3413 23.7817 12.2746 24.2285H11.8965V23.8487C11.6074 23.9604 11.5852 23.9962 11.1359 24.0408V24.6127C10.7579 24.7378 10.3753 24.8674 9.99723 24.9925V25.1846H9.61922V25.3767C8.68961 25.7296 8.47162 25.0818 7.91119 25.9486H7.71996L7.91119 26.1407C7.84892 26.3328 7.78668 26.5204 7.71996 26.7125C7.46643 26.65 7.2128 26.5875 6.95927 26.5204V27.0923C6.28764 27.1638 6.38113 27.3291 5.82069 27.4721V27.0923H5.62935V27.6642C5.25128 27.7267 4.86884 27.7893 4.49077 27.8563L4.29943 28.4282H3.92142C3.85915 28.6203 3.7968 28.8079 3.73008 29H3.53885V28.4282H3.34762L3.15639 28.8079L2.58705 28.6158V28.4237C2.21787 28.3299 2.33347 28.5309 2.20893 28.6158L1.44836 28.4237L1.63959 28.2316V28.0395H1.44836V27.4676H1.63959V27.2755H1.26158C1.25713 26.641 1.16365 26.4132 1.07024 25.9396H0.692232C0.35419 25.7386 1.07024 25.7475 1.07024 25.7475C1.13251 25.5554 1.19486 25.3678 1.26158 25.1757C2.24012 25.2203 2.20004 25.5376 2.20893 24.4117C2.52473 24.3491 2.84059 24.2866 3.15639 24.2195V23.4556L3.72574 23.2634C3.94369 23.0445 3.72567 23.1875 4.10375 23.0714V23.4511H4.48186V23.0714C4.67312 23.1339 4.85995 23.1964 5.05121 23.2634V22.8837H4.85987L5.05121 22.3118H5.24244V22.1197H5.81178C5.80734 21.8517 5.85174 22.0661 5.62045 21.9276V21.7355H6.18979V21.5434H6.38113L6.57236 21.9231C7.20396 22.0482 7.83558 22.1778 8.47163 22.3029C8.48942 21.588 8.64503 21.4272 8.84964 20.967C9.0409 21.0296 9.22772 21.0921 9.41898 21.1592V20.7794H9.98833L9.7971 21.1592H9.98833V20.967H10.3664C10.5755 20.8017 10.4509 20.5068 10.7445 20.3951C10.9135 20.5649 10.8157 20.7169 11.1226 20.7749C11.2471 20.5828 11.3761 20.3952 11.5007 20.2031H12.0699V20.0109H12.2613V19.247H12.6393V19.6267C13.4488 19.5508 13.4978 19.2335 14.1561 19.0548C14.3073 18.4383 14.5074 18.3981 14.5341 17.5314H16.2421V17.7235L16.8115 17.5314V17.3392C17.0961 17.2633 17.0694 17.6788 17.1895 17.719L17.7588 17.5269V17.9066H17.9502V17.5269C18.1637 17.3661 17.9768 17.5492 18.1414 17.3348L17.7633 17.5269V16.7629H17.9546V15.9989H18.902L18.7107 16.5708H19.2801C19.5825 16.2 19.9695 16.0615 20.2274 15.6192C20.4231 15.7845 20.4899 15.9498 20.6056 16.1911C20.7968 16.066 20.9836 15.9364 21.1749 15.8113V15.6192H21.5529L21.7441 15.2394C21.8687 15.302 21.9977 15.3645 22.1222 15.4315C22.3758 15.2394 21.8909 15.1098 22.3135 15.0518V15.2439C22.5047 15.3064 22.6916 15.369 22.8828 15.436V15.0562C22.6649 14.8373 22.8072 15.0562 22.6916 14.6765C23.1809 14.7658 23.5322 14.8596 24.2083 14.8686C24.4796 14.462 24.7065 14.4844 25.1558 14.2967L24.9645 13.7249H25.7251V13.5327H25.9163V13.7249H26.2944V13.3451C27.3708 13.3138 27.0017 13.0502 27.6244 12.7732H28.3849V12.5811C28.6029 12.3622 28.4605 12.5811 28.5762 12.2013H29.1455V12.5811H29.5236C29.6793 11.969 29.746 12.0271 30.471 12.0093V12.389C30.9158 12.1835 31.0893 11.9512 31.6097 11.8171V11.2452H31.9877V10.8655C32.9885 10.87 33.4867 10.6421 34.2651 10.4858C34.403 11.0129 34.3185 10.9102 34.8344 11.0576C34.7722 10.8655 34.7098 10.6779 34.6431 10.4858H34.8344C35.0435 10.2177 35.4971 9.9273 35.7818 9.72179V9.52965H36.3511V9.72179H36.5424V10.2936H36.7337C36.796 9.5341 36.9293 9.41347 37.681 9.34199V9.53412C37.9346 9.62348 37.6098 9.41347 37.8723 9.34199C38.6329 9.21689 39.3891 9.08734 40.1497 8.96224C39.9584 8.36803 40.0429 8.67183 40.1497 8.01061C40.6122 7.90338 40.5677 7.81404 40.9102 7.63086V7.823H41.1015C41.2527 8.10447 40.9102 8.20275 40.9102 8.20275L41.1015 8.58249C41.5374 8.21614 41.3417 8.01064 42.0489 7.81853C42.1112 7.62642 42.1734 7.43876 42.2402 7.24665C42.7828 7.47003 43.1342 7.60852 43.9482 7.62639C44.1395 7.24663 44.3263 6.86244 44.5175 6.48268H44.8955L45.0869 6.86243L46.4168 6.48268V6.29054H47.7467L47.938 5.9108H48.3161C48.4362 5.38807 48.5651 5.47743 48.6941 4.95917C48.9476 5.02172 49.2011 5.08424 49.4547 5.15125V4.95917C49.6637 4.7894 49.4948 4.99042 49.646 4.76703H49.4547C49.2678 4.44982 49.726 4.60623 49.8328 4.57495V4.38282C50.024 4.44536 50.2109 4.50794 50.4021 4.57495C50.3399 4.70005 50.2775 4.8296 50.2108 4.9547H50.4021C50.9981 4.26667 51.5186 4.95467 52.3014 5.14678C52.4304 4.89659 52.5371 4.94128 52.6794 4.76703L52.4882 4.38729H52.8663V4.19521L53.2443 4.00307C53.271 3.73501 53.2043 4.03432 53.0531 3.81093L53.2443 3.43119C53.8848 3.56522 53.9737 3.8467 54.5742 4.00307V3.43119C55.0946 3.55182 55.0057 3.68137 55.5217 3.81093V3.2391C55.7307 3.30165 55.8953 3.57862 56.2823 3.43119V3.2391H56.8516V3.04697C57.2297 2.72976 57.6122 2.41255 57.9903 2.09534V1.71559H58.3683V1.90768C58.6307 1.96129 58.3327 1.8675 58.5595 1.71559L58.9376 1.90768L58.7464 2.47956C59.805 2.55998 60.3432 2.81912 61.0237 2.09981C60.6501 1.88536 60.5789 1.83177 60.4543 1.33585L61.0237 1.14371C61.086 1.26881 61.1483 1.39836 61.215 1.52346H61.593V0.759492C62.0067 0.839912 62.1357 0.884578 62.3536 1.13924L63.4923 0.759492L63.3011 0.379746H64.2484V0L64.3418 0.0446664ZM62.447 2.90402V3.28377H62.6383V2.90402H62.447ZM231.535 3.28377V3.66352H231.726V3.28377H231.535ZM63.0163 3.85565V4.2354H63.2077V3.85565H63.0163ZM60.3609 4.2354V4.61515H60.5522V4.2354H60.3609ZM226.789 4.80728C227.007 5.0262 226.789 4.8832 227.167 4.99936C226.949 4.78045 227.167 4.92344 226.789 4.80728ZM211.799 4.99936C212.017 5.21828 211.799 5.07534 212.177 5.1915C211.959 4.97258 212.177 5.11553 211.799 4.99936ZM51.821 5.57125C51.8388 6.21907 51.821 6.26375 52.1991 6.52288V6.33074H52.0078V5.56677H51.8165L51.821 5.57125ZM208.952 5.76333C209.17 5.98225 208.952 5.8393 209.331 5.95547C209.113 5.73655 209.331 5.87949 208.952 5.76333ZM188.265 5.95099V6.33074H188.456V5.95099H188.265ZM201.551 6.14313L201.36 6.52288C201.36 6.52288 201.911 6.21908 201.738 6.14313H201.547H201.551ZM221.095 6.14313H221.473C221.313 6.35758 221.496 6.16991 221.282 6.33521V6.52735C221.064 6.30843 221.206 6.52736 221.091 6.1476L221.095 6.14313ZM53.1464 6.33521C53.3644 6.55413 53.1465 6.41119 53.5246 6.52735C53.3066 6.30843 53.5245 6.45137 53.1464 6.33521ZM159.612 6.52288V6.90262H159.803V6.52288H159.612ZM55.2369 7.28684V7.47898H55.0457C54.6854 7.64428 55.4238 7.67106 55.4238 7.67106C55.584 7.45661 55.4016 7.64428 55.6151 7.47898C55.3971 7.26006 55.615 7.403 55.2369 7.28684ZM200.982 7.28684V7.47898H200.79C200.43 7.64428 201.169 7.67106 201.169 7.67106C201.329 7.45661 201.146 7.64428 201.36 7.47898C201.142 7.26006 201.36 7.403 200.982 7.28684ZM249.562 7.28684V7.47898H249.371C249.01 7.64428 249.749 7.67106 249.749 7.67106C249.909 7.45661 249.726 7.64428 249.94 7.47898C249.722 7.26006 249.94 7.403 249.562 7.28684ZM122.414 7.47898V7.85872H122.605V7.47898H122.414ZM75.5417 7.66659V8.04639H75.733V7.66659H75.5417ZM124.122 7.66659V8.04639H124.313V7.66659H124.122ZM159.229 7.66659C159.549 8.07762 159.607 8.04639 159.607 8.04639C159.745 7.86321 159.278 7.71126 159.229 7.66659ZM207.814 7.66659C208.134 8.07762 208.192 8.04639 208.192 8.04639C208.33 7.86321 207.863 7.71126 207.814 7.66659ZM221.286 7.66659V8.04639H221.478V7.66659H221.286ZM256.394 7.66659C256.714 8.07762 256.772 8.04639 256.772 8.04639C256.91 7.86321 256.443 7.71126 256.394 7.66659ZM48.0224 8.0508H47.6444V8.24294H47.8357V8.43508H48.0269V8.05528L48.0224 8.0508ZM50.4911 9.19457H50.8692C50.8069 8.93991 50.7446 8.68527 50.6778 8.43061H50.4866V9.19457H50.4911ZM196.236 9.19457H196.614L196.423 8.43061H196.231V9.19457H196.236ZM244.816 9.19457H245.194L245.003 8.43061H244.811V9.19457H244.816ZM48.405 8.81035V9.57432H48.5962V8.81035H48.405ZM96.9851 8.81035V9.57432H97.1763V8.81035H96.9851ZM194.15 8.81035V9.57432H194.341V8.81035H194.15ZM222.234 9.19457V9.76645H222.425C222.616 9.42244 222.843 9.19901 223.186 9.00243V8.81035H222.808C222.594 9.1365 222.688 9.06947 222.238 9.1901L222.234 9.19457ZM242.73 8.81035V9.57432H242.921V8.81035H242.73ZM133.992 9.00243V9.38223H134.183V9.00243H133.992ZM182.572 9.38223H182.95V9.1901C182.736 9.02926 182.923 9.21247 182.759 8.99802H182.567V9.37776L182.572 9.38223ZM76.4891 9.19457V9.76645H76.6803V9.19457H76.4891ZM125.069 9.19457V9.76645H125.261V9.19457H125.069ZM208.192 9.95406C208.33 10.4813 208.245 10.3785 208.761 10.5259C208.881 10.0032 209.01 10.0926 209.139 9.57432H208.948C208.708 9.9362 208.757 9.89151 208.187 9.95406H208.192ZM209.9 9.57432V9.95406C210.398 9.94066 210.545 9.87814 210.847 9.76198V9.56984H209.9V9.57432ZM109.702 9.76645V10.3383H109.893V10.1462C110.106 9.98536 109.92 10.1685 110.084 9.95406L109.706 9.76198L109.702 9.76645ZM158.282 9.76645V10.3383H158.473V10.1462C158.687 9.98536 158.5 10.1685 158.664 9.95406L158.286 9.76198L158.282 9.76645ZM206.862 9.76645V10.3383H207.053V10.1462C207.267 9.98536 207.08 10.1685 207.244 9.95406L206.866 9.76198L206.862 9.76645ZM255.446 9.76645V10.3383H255.638V10.1462C255.851 9.98536 255.664 10.1685 255.829 9.95406L255.451 9.76198L255.446 9.76645ZM133.801 9.95406V10.3339H133.992V9.95406H133.801ZM221.856 9.95406C222.176 10.3651 222.234 10.3339 222.234 10.3339C222.372 10.1507 221.905 9.99874 221.856 9.95406ZM121.466 10.3383V10.9102H121.088V11.2899L121.466 11.0978L121.658 10.5259C121.871 10.3651 121.684 10.5483 121.849 10.3339H121.471L121.466 10.3383ZM129.437 10.3383V10.7181H129.628V10.3383H129.437ZM178.017 10.3383V10.7181H178.208V10.3383H178.017ZM207.814 10.7181H207.244V11.0978H207.623C207.8 10.7538 207.885 10.7985 208.001 10.3339H207.809V10.7136L207.814 10.7181ZM226.597 10.3383V10.7181H226.789V10.3383H226.597ZM105.716 11.0978V10.7181C105.503 10.8789 105.69 10.6957 105.525 10.9102H105.334C105.552 11.1291 105.334 10.9861 105.712 11.1023L105.716 11.0978ZM153.727 10.7181V11.2899H153.918C154.136 11.071 153.918 11.214 154.296 11.0978V10.7181H153.727ZM180.673 11.0978V10.7181H180.103V10.9102H180.295C180.513 11.1291 180.294 10.9861 180.673 11.1023V11.0978ZM202.877 11.0978V10.7181C202.663 10.8789 202.85 10.6957 202.685 10.9102H202.494C202.712 11.1291 202.494 10.9861 202.872 11.1023L202.877 11.0978ZM217.871 10.7181V11.0978C218.084 10.937 217.897 11.1201 218.062 10.9057H218.253C218.035 10.6868 218.253 10.8298 217.875 10.7136L217.871 10.7181ZM244.816 10.9102V11.2899H245.007V10.9102H244.816ZM119.189 11.6697H119.567C119.407 11.4553 119.589 11.6429 119.376 11.4776V11.0978H119.185V11.6697H119.189ZM65.6717 11.2899V11.6697H65.8631V11.2899H65.6717ZM114.256 11.2899V11.8618H114.448V11.2899H114.256ZM211.417 11.2899V11.6697H211.608V11.2899H211.417ZM248.423 11.2899C248.641 11.5088 248.499 11.29 248.614 11.6697H248.423V11.2899ZM260.001 11.2899V11.6697H260.192V11.2899H260.001ZM39.1044 11.482V11.8618H39.2957V11.482H39.1044ZM87.6845 11.482V11.8618H87.8758V11.482H87.6845ZM184.849 11.482V11.8618H185.04V11.482H184.849ZM233.429 11.482V11.8618H233.621V11.482H233.429ZM99.4537 11.6697C99.4715 11.7099 99.725 12.3622 99.8317 12.2415V12.0495H100.023C99.8585 11.8529 99.6939 11.7859 99.4537 11.6697ZM148.412 12.6258H148.79V12.246H148.412L148.603 11.8663C148.412 11.8037 148.225 11.7412 148.034 11.6742V11.8663C148.292 12.0897 148.323 12.2147 148.412 12.6302V12.6258ZM98.315 11.8618L98.5063 12.4337H98.6975C98.5818 11.978 98.6353 12.0807 98.3195 11.8618H98.315ZM146.895 11.8618C146.957 12.0539 147.02 12.2416 147.086 12.4337H147.278C147.162 11.978 147.215 12.0807 146.9 11.8618H146.895ZM150.502 11.8618H150.124C150.284 12.0762 150.102 11.8886 150.316 12.0539V12.246H150.507V11.8663L150.502 11.8618ZM225.463 12.6258H225.841V12.246H226.032C225.97 12.1209 225.908 11.9914 225.841 11.8663C225.628 12.0271 225.815 11.8439 225.65 12.0584H225.459V12.6302L225.463 12.6258ZM67.0017 12.0539C67.2196 12.2728 67.0017 12.1298 67.3798 12.246C67.1618 12.0271 67.3797 12.1701 67.0017 12.0539ZM99.2624 12.0539V12.6258H99.4537V12.0539H99.2624ZM147.842 12.0539V12.6258H148.034V12.0539H147.842ZM151.45 12.0539H151.072C151.232 12.2684 151.05 12.0807 151.263 12.246V12.4381H151.454V12.0584L151.45 12.0539ZM173.463 12.0539V12.6258H173.654V12.0539H173.463ZM222.047 12.0539V12.6258H222.238V12.0539H222.047ZM29.995 12.2415V12.6213H30.1864V12.2415H29.995ZM38.9131 12.2415V12.6213H39.1044V12.2415H38.9131ZM87.4977 12.2415V12.6213H87.6889V12.2415H87.4977ZM100.21 12.6258V12.246C99.9963 12.4068 100.183 12.2237 100.019 12.4381H99.8273C100.045 12.6571 99.8273 12.5141 100.205 12.6302L100.21 12.6258ZM136.078 12.2415V12.6213H136.269V12.2415H136.078ZM150.689 12.2415V13.3853H150.88V12.2415H150.689ZM174.979 12.2415V12.6213H175.171V12.2415H174.979ZM175.74 12.2415V12.6213H175.931V12.2415H175.74ZM184.658 12.2415V12.6213H184.849V12.2415H184.658ZM223.564 12.2415V12.6213H223.755V12.2415H223.564ZM224.324 12.2415V12.6213H224.516V12.2415H224.324ZM233.242 12.2415V12.6213H233.434V12.2415H233.242ZM34.1717 12.4337C34.3896 12.6526 34.1716 12.5096 34.5497 12.6258C34.3317 12.4069 34.5498 12.5498 34.1717 12.4337ZM82.7518 12.4337C82.9697 12.6526 82.7517 12.5096 83.1298 12.6258C82.9118 12.4069 83.1299 12.5498 82.7518 12.4337ZM228.497 12.4337C228.714 12.6526 228.497 12.5096 228.875 12.6258C228.657 12.4069 228.875 12.5498 228.497 12.4337ZM96.2245 12.8134L96.4158 13.3853H96.607C96.4913 12.9296 96.5448 13.0323 96.229 12.8134H96.2245ZM144.809 12.8134C144.871 13.0055 144.934 13.1932 145 13.3853H145.192C145.076 12.9296 145.129 13.0323 144.814 12.8134H144.809ZM157.143 13.0056V13.3853H157.334V13.0056H157.143ZM37.2051 13.9572C37.0672 13.43 37.1518 13.5327 36.6359 13.3853C36.6981 13.64 36.7604 13.8946 36.8271 14.1493H37.3964V14.3414C37.6633 14.3771 37.3252 14.2073 37.5877 14.1493H38.3482V13.3853C38.1347 13.2245 38.3216 13.4076 38.157 13.1932H37.7789V13.3853H37.9702C38.0325 13.7293 37.4987 13.8857 37.2095 13.9572H37.2051ZM61.8778 13.1976L61.6864 13.5774C61.6864 13.5774 62.238 13.2736 62.0645 13.1976H61.8733H61.8778ZM207.623 13.1976L207.431 13.5774C207.431 13.5774 207.983 13.2736 207.809 13.1976H207.618H207.623ZM29.4257 14.1493H29.8038V13.9572C29.5903 13.7963 29.7771 13.9795 29.6126 13.765H29.4212V14.1448L29.4257 14.1493ZM36.0665 13.7695V14.1493C36.28 13.9884 36.0932 14.1716 36.2577 13.9572H36.449C36.231 13.7383 36.449 13.8812 36.071 13.765L36.0665 13.7695ZM78.0059 14.1493H78.3839V13.9572C78.1704 13.7963 78.3572 13.9795 78.1927 13.765H78.0014V14.1448L78.0059 14.1493ZM84.6511 13.7695V14.1493C84.8646 13.9884 84.6777 14.1716 84.8423 13.9572H85.0335C84.8156 13.7383 85.0336 13.8812 84.6555 13.765L84.6511 13.7695ZM133.231 13.7695V14.1493C133.445 13.9884 133.258 14.1716 133.422 13.9572H133.614C133.396 13.7383 133.614 13.8812 133.236 13.765L133.231 13.7695ZM223.755 14.1493H224.133V13.9572C223.92 13.7963 224.106 13.9795 223.942 13.765H223.751V14.1448L223.755 14.1493ZM230.396 13.7695V14.1493C230.609 13.9884 230.422 14.1716 230.587 13.9572H230.778C230.56 13.7383 230.778 13.8812 230.4 13.765L230.396 13.7695ZM33.033 14.9133V14.5335L32.4637 14.7256L32.6549 15.4896H32.4637V15.6817C32.0189 15.7443 31.5785 15.8068 31.1337 15.8738V16.2536C31.3828 16.2893 32.3124 16.4859 32.4637 16.4457L32.6549 16.0659L33.2242 16.2581C33.2865 15.9409 33.3488 15.6237 33.4156 15.3064H33.6068C33.8247 15.0875 33.6067 15.2305 33.9848 15.1143V15.4941H34.9323V15.1143H35.3103C35.1857 14.7346 35.0568 14.3503 34.9323 13.9705H34.741L34.5497 14.5424C34.2784 14.7345 33.4555 14.8864 33.033 14.9222V14.9133ZM54.4764 13.9572V14.529H54.6676V13.9572H54.4764ZM29.0477 14.3414V14.7212H29.2389V14.3414H29.0477ZM58.653 14.3414V14.7212H58.8442V14.3414H58.653ZM77.6278 14.3414V14.7212H77.819V14.3414H77.6278ZM126.208 14.3414V14.7212H126.399V14.3414H126.208ZM182.572 14.3414C182.79 14.5603 182.572 14.4173 182.95 14.5335C182.732 14.3146 182.95 14.4576 182.572 14.3414ZM204.398 14.3414V14.7212H204.589V14.3414H204.398ZM223.373 14.3414V14.7212H223.564V14.3414H223.373ZM50.8692 14.529C51.0871 14.7479 50.9448 14.5291 51.0604 14.9088H50.8692V14.529ZM99.2624 14.7212C99.4759 15.0473 99.3825 14.9803 99.8317 15.1009C99.6672 14.9043 99.5026 14.8373 99.2624 14.7212ZM120.897 15.1009H121.275V14.9088C121.062 14.748 121.248 14.9311 121.084 14.7167H120.893V15.0964L120.897 15.1009ZM50.4911 14.9133H50.8692V15.1054C50.4867 14.9981 50.7046 15.1277 50.4911 14.9133ZM103.439 14.9133C103.657 15.1322 103.515 14.9133 103.63 15.293H103.439V14.9133ZM154.488 15.6728H154.11V14.9088H153.918V15.1009C153.7 15.3198 153.843 15.1009 153.727 15.4806C153.918 15.6057 154.105 15.7353 154.296 15.8604C154.457 16.0749 154.274 15.8872 154.488 16.0525V15.6728ZM101.731 15.1009V15.4806H101.922V15.1009H101.731ZM39.4825 15.4851V15.8649H39.6737V15.4851H39.4825ZM88.067 15.4851V15.8649H88.2583V15.4851H88.067ZM130.006 15.6728C130.224 15.8917 130.006 15.7488 130.384 15.8649C130.166 15.646 130.384 15.7889 130.006 15.6728ZM62.6339 16.2447V15.8649C62.4204 16.0258 62.6071 15.8425 62.4425 16.057H62.2513C62.4693 16.2759 62.2514 16.133 62.6294 16.2491L62.6339 16.2447ZM159.799 16.2447V15.8649C159.585 16.0258 159.772 15.8425 159.607 16.057H159.416C159.634 16.2759 159.416 16.133 159.794 16.2491L159.799 16.2447ZM45.7452 16.6289V17.0086H45.9364V16.6289H45.7452ZM49.5436 16.6289V17.0086H49.7349V16.6289H49.5436ZM35.3103 16.8165V17.1963H35.5016V16.8165H35.3103ZM50.4911 17.2008C50.4822 17.9737 50.4021 18.0228 50.8692 18.3445V18.1524C50.5489 17.7414 51.0159 17.232 51.2472 16.8165H51.056C50.8425 17.1427 50.9358 17.0757 50.4866 17.1963L50.4911 17.2008ZM53.907 16.8165C54.125 17.0355 53.9071 16.8925 54.2851 17.0086C54.0672 16.7897 54.2851 16.9327 53.907 16.8165ZM63.7726 16.8165C63.7103 17.0087 63.648 17.1963 63.5812 17.3884H63.7726V17.1963C63.8526 17.0846 64.0839 17.1695 63.9638 16.8165H63.7726ZM83.8905 16.8165V17.1963H84.0817V16.8165H83.8905ZM147.656 17.2008C147.647 17.9737 147.567 18.0228 148.034 18.3445V18.1524C147.714 17.7414 148.181 17.232 148.412 16.8165H148.221C148.007 17.1427 148.101 17.0757 147.651 17.1963L147.656 17.2008ZM151.072 16.8165C151.29 17.0355 151.072 16.8925 151.45 17.0086C151.232 16.7897 151.45 16.9327 151.072 16.8165ZM66.2411 17.0086V17.3884H66.4324V17.0086H66.2411ZM87.4977 17.3884H87.8758V17.1963C87.6623 17.0355 87.849 17.2186 87.6845 17.0042H87.4932V17.3839L87.4977 17.3884ZM114.826 17.0086V17.3884H115.017V17.0086H114.826ZM131.714 17.0086C131.932 17.2275 131.79 17.0086 131.906 17.3884H131.714V17.0086ZM89.9618 17.2008C89.8996 17.3259 89.8373 17.4554 89.7706 17.5805L90.1486 17.7726C90.2865 17.5447 89.7483 17.6073 90.1486 17.2008H89.9574H89.9618ZM66.6192 17.3884L66.428 17.9603H66.6192V17.5805H66.8104V17.3884H66.6192ZM115.204 17.3884L115.013 17.7681C115.013 17.7681 115.564 17.4643 115.391 17.3884H115.199H115.204ZM15.5705 18.1524H15.9486V17.9603C15.7351 17.7994 15.9218 17.9826 15.7573 17.7681H15.566V18.1479L15.5705 18.1524ZM122.414 18.1524H122.036C122.196 18.3668 122.014 18.1792 122.227 18.3445V18.5366H122.418V18.1569L122.414 18.1524ZM22.0244 18.5321V18.9119H22.2156V18.5321H22.0244ZM49.3524 18.5321V19.2961H49.5436V19.104H49.7349C49.6727 18.9789 49.6103 18.8493 49.5436 18.7242H49.7349C49.517 18.5053 49.7349 18.6483 49.3568 18.5321H49.3524ZM119.189 18.5321V18.9119H119.38V18.5321H119.189ZM147.842 18.5321C147.625 18.7511 147.843 18.6081 147.464 18.7242V18.9164H147.842C147.905 18.7913 147.967 18.6617 148.034 18.5366H147.842V18.5321ZM59.4091 19.104L59.2178 19.4838C59.2178 19.4838 59.7694 19.18 59.5959 19.104H59.4047H59.4091ZM52.1991 19.4882V19.868H52.3903V19.4882H52.1991ZM56.3756 19.4882V19.868H56.5669V19.4882H56.3756ZM47.4531 19.868H47.8312C47.6755 20.1182 47.6977 20.0914 47.4531 20.2477V20.4399H47.2619L47.4531 19.868ZM54.0984 19.868L53.907 20.2477C53.907 20.2477 54.4586 19.9439 54.2851 19.868H54.0939H54.0984ZM39.4825 20.6319V21.0117H39.6737V20.6319H39.4825ZM24.871 21.5836V21.9633H25.0624V21.5836H24.871ZM29.0477 21.7757V22.3475H29.8083V22.7273H30.3776C30.5333 22.4772 30.511 22.5039 30.7556 22.3475V21.7757C29.9639 21.9142 29.9595 21.8249 29.0477 21.7757ZM13.6757 22.1555C13.8936 22.3744 13.6757 22.2314 14.0538 22.3475C13.8358 22.1286 14.0537 22.2716 13.6757 22.1555ZM52.9597 22.3475V22.7273H53.1509V22.3475H52.9597ZM5.89182 25.3946C5.82955 25.5867 5.76731 25.7743 5.70059 25.9664H5.89182V25.5866H6.08305V25.3946H5.89182ZM30.3732 25.5866V25.9664H30.5644V25.5866H30.3732Z" fill="#FDE6AD"/>
</svg>
