<svg width="402" height="45" viewBox="0 0 402 45" fill="none" xmlns="http://www.w3.org/2000/svg">
<path fill-rule="evenodd" clip-rule="evenodd" d="M98.6938 0.0693099C100.086 0.367415 100.292 1.12998 101.911 1.25477C102.145 0.804148 102.494 0.131657 103.372 0.367368V0.665511C104.12 0.942818 103.702 0.367442 104.251 0.963653H104.545V2.14912L105.129 2.44717V3.03652H105.424C105.52 3.33463 105.616 3.62573 105.718 3.92384H104.545V4.81124C103.736 5.02616 103.894 4.89446 103.667 5.69865C102.645 5.94822 102.302 6.4474 101.033 6.58605C101.054 7.36251 101.15 7.59129 101.328 8.06272C100.327 7.98646 99.0301 7.82697 98.9889 7.76457V8.35384H99.2838C100.21 8.36077 98.4057 8.65198 98.4057 8.65198C98.0353 8.18749 97.6238 7.93096 96.9446 7.76457C96.5056 8.56877 95.9293 9.02633 94.8935 9.24124V8.65198L94.3103 8.95004C94.1388 9.40066 94.084 9.43538 94.0154 10.1356C93.398 10.1841 92.2455 10.399 91.9642 10.7248C91.6075 11.1408 92.2248 11.0507 91.381 11.6122V10.4267H91.0861V11.6122H90.208V11.0229C89.7621 11.1962 89.7278 11.2517 89.035 11.321V10.7318L88.1569 11.0298C87.9648 11.5359 87.8756 11.9589 87.8619 12.8046H86.4006C86.4006 12.8046 86.1056 13.2761 85.8175 13.3939V13.6921H85.5225V13.1027H84.9395V12.8046H84.6444V13.1027H83.7663V13.4009C83.2587 13.8584 83.1491 14.7874 82.8884 15.4737C81.8114 15.3697 80.9606 14.9538 80.2541 15.7719C80.158 16.07 80.062 16.3611 79.9591 16.6592C79.1771 16.7562 78.3949 16.8533 77.6197 16.9573V17.2555L77.0367 17.5535V18.1428L76.1586 17.8447L75.8637 18.434H74.9856C74.9376 18.4617 74.6425 18.8777 74.4024 19.0232V19.3214C73.9154 19.2243 73.4284 19.1272 72.9413 19.0232V18.7252C72.7698 18.7044 71.9397 19.2243 71.48 19.3145C71.2811 19.876 71.1027 21.1238 70.8969 21.6784L70.0189 21.3804V21.0822C69.6142 21.006 70.1354 21.2972 69.7238 21.3804C69.0241 21.519 68.9692 21.1585 68.5508 21.0822L67.9678 21.9696H66.7946V22.2678L65.9166 22.5658V23.4532H66.4996V23.7514H66.2047C66.0469 23.89 63.8584 24.5001 63.8653 23.7514H63.5704V24.3406L62.1093 24.0425C62.123 25.1032 62.0406 25.9074 61.5261 26.4066V26.1084H61.2312V24.923H60.648C60.6274 25.6994 60.5314 25.9282 60.353 26.3996C59.7425 26.2194 59.1594 26.0669 58.5968 26.6978V27.287H58.3019V27.5851L56.5457 27.287C56.4496 27.4812 56.3536 27.6822 56.2507 27.8763C55.8597 27.9734 55.4687 28.0705 55.0777 28.1744V28.7637H53.9047V29.353C53.2049 29.2143 52.9853 29.0133 52.4434 28.7637V30.2404C51.7574 30.3374 51.0782 30.4344 50.3922 30.5384V30.8366C49.5347 31.0376 49.4319 31.1624 49.2192 32.022C49.6308 32.0428 49.178 31.9736 49.5141 31.724C49.9738 31.3843 49.7885 32.4518 49.8091 32.6113C49.3083 32.9441 49.4113 32.7985 49.2261 33.4987C49.6171 33.4016 50.0081 33.3046 50.3991 33.2006L50.694 32.6113C50.7489 32.6044 51.38 32.8886 51.8671 32.9094V32.3202C52.1621 32.4172 52.4502 32.5142 52.7452 32.6182L53.0403 32.029C53.397 31.8557 53.8978 31.8695 54.2133 31.7308V30.5454C54.9062 30.4275 55.8253 29.9839 56.8475 30.2473V30.5454H58.0207V30.2473H58.6037V29.0618H59.1869V29.651C60.065 29.4569 60.9429 29.2559 61.821 29.0618L62.1161 29.3599C62.9188 28.7914 62.3835 28.3478 63.8722 28.1744C64.2083 28.5141 63.8722 28.2923 64.4553 28.4725V27.5851L65.9166 27.287V26.6978C66.8839 26.8572 67.2473 27.0721 67.6727 26.6978H67.9678C68.3382 26.2402 67.6522 26.1015 68.2627 25.8104V26.1084H68.5576V25.2211C69.2025 25.1171 70.0737 24.8329 70.8969 25.2211C70.9929 25.4152 71.0891 25.6163 71.192 25.8104H71.775V25.2211C72.3649 25.3875 72.0289 25.1864 72.3581 25.5192L73.2362 25.2211V24.923H74.1143C74.3064 24.6249 74.5053 24.3337 74.6974 24.0356C75.1844 24.1326 75.6716 24.2297 76.1586 24.3337V24.6318C76.3713 24.6734 77.2357 24.3684 78.2098 24.3337L77.9148 23.4463H78.4978V23.7444H79.6709L79.966 24.0425V23.7444L80.8439 23.4463C80.8234 22.6698 80.7274 22.4411 80.549 21.9696H82.3052C82.6414 21.6299 82.3053 21.8518 82.8884 21.6716C83.1148 20.7842 83.0667 20.8951 84.0614 20.7842C84.3907 21.2903 84.2467 21.1863 84.9395 21.3734C85.2345 20.6316 85.5432 19.8275 86.1126 20.188H86.4075V21.0753H86.9907C87.2033 20.2572 87.073 20.4168 87.8688 20.188V19.8898L89.6248 19.5918C89.6248 19.5918 89.7552 20.0216 90.208 19.8898L90.5029 19.3006H91.381V18.7113L91.9642 19.0094V19.3075C92.3484 19.4531 92.0259 19.1688 92.2591 19.0094C92.9932 18.8083 92.7325 18.8569 93.1373 18.4201H93.4322V17.8308L94.0154 17.5327C94.3584 17.1583 94.5093 16.6731 94.8935 16.3472V16.6454H95.7714C95.8674 17.0405 95.9636 17.4357 96.0665 17.8308H96.3614C97.0749 16.6246 98.001 16.7355 99.5788 16.3542C99.6679 16.3334 99.6543 15.9451 100.162 16.056V16.3542C100.745 16.5483 101.335 16.7493 101.918 16.9434V16.6454H102.213L101.918 15.758C102.11 15.6609 102.309 15.5638 102.501 15.4598C102.906 14.8428 102.371 15.0439 103.084 14.5724V14.2744L104.545 13.9762C104.388 14.8012 104.319 14.004 104.545 14.8636H104.841V14.2744C105.424 14.3714 106.013 14.4684 106.597 14.5724V14.2744C106.912 14.004 106.652 14.3229 106.892 13.9762H106.597V13.6782H107.475C107.536 14.3784 107.598 14.413 107.77 14.8636C108.106 14.5239 107.886 14.8637 108.065 14.2744C108.401 13.9347 108.181 14.2744 108.36 13.6851C109.238 13.387 110.116 13.0958 110.994 12.7977L111.289 13.0959C111.385 12.1391 111.557 12.2293 111.872 11.6192H112.455V11.9172H112.75V11.6192H113.923L114.218 10.7318C114.98 11.0438 115.453 11.2725 116.557 11.321C116.461 11.1269 116.365 10.9259 116.262 10.7318C116.461 10.4059 117.909 10.3158 118.314 9.84438L118.019 9.25512H118.314V8.95698C119.089 9.30361 119.418 9.52544 120.653 9.54624V9.24818H120.358V8.36077C121.284 8.55489 120.948 8.81138 121.236 8.95004C121.579 8.92924 122.279 8.35387 122.992 8.65198L123.287 9.24124H123.87C123.589 10.2187 123.596 10.9813 124.165 11.9034H123.87C123.534 12.2431 123.87 12.0213 123.287 12.2015V13.6782H122.992C122.917 14.1704 123.267 14.1912 123.287 14.2674V15.7441C122.238 15.7857 121.627 16.167 120.948 16.3334L120.365 16.0353C120.173 16.3334 119.974 16.6245 119.782 16.9226C119.617 16.992 118.183 16.7008 117.73 16.6246C117.552 17.401 116.901 18.1914 115.974 18.1012C115.974 18.1012 115.817 17.7268 115.391 17.8031L115.686 18.3923H114.513C114.417 18.8846 114.321 19.3768 114.218 19.869L112.757 19.571L112.462 20.1602C111.673 20.3613 111.694 19.5918 111.584 19.571L110.706 19.869L111.001 20.1672C111.015 20.285 110.74 20.8327 110.706 21.3526C109.732 21.4497 108.757 21.5468 107.776 21.6508V21.0615C107.084 20.9991 107.049 20.9367 106.603 20.7634V21.6508C106.542 21.7756 104.593 23.1413 105.725 23.7236H104.847V23.4255C104.566 22.8778 104.552 24.0148 104.552 24.0148C104.223 24.2644 104.511 23.9801 104.257 24.3129C105.081 24.0356 105.074 24.0009 106.014 24.3129V24.611L106.892 24.3129L106.597 24.0148L106.892 23.1274C108.264 23.6612 109.169 23.3008 110.109 22.5382C110.205 22.3441 110.301 22.1429 110.404 21.9488H111.865C111.865 21.9488 111.838 21.7756 112.448 21.6508V22.5382H112.743V21.9488C113.992 21.928 114.685 21.8864 115.377 21.3596L115.672 20.7703C116.159 20.8674 116.647 20.9645 117.134 21.0684C116.798 20.7287 117.134 20.9505 116.551 20.7703V20.181C116.846 20.2781 117.134 20.3751 117.429 20.4791V19.8898H118.012V20.4791C119.706 20.3404 120.92 19.3768 122.107 18.7044V19.5918H122.69V19.0024H124.742V18.7044H125.619V18.4062C126.203 18.5033 126.793 18.6004 127.376 18.7044C127.623 18.3716 127.341 18.6627 127.671 18.4062V17.2208C128.254 17.1237 128.844 17.0266 129.427 16.9226C129.331 17.2207 129.235 17.5119 129.132 17.81H129.427V18.1082C129.756 17.8586 129.468 18.1428 129.722 17.81C130.058 17.4703 129.839 17.81 130.017 17.2208C130.477 17.2416 132.068 17.5188 132.068 17.5188V17.2208H132.363V16.3334C132.685 15.9174 133.68 16.0284 134.414 16.0353V16.3334L136.17 16.0353V15.7372H136.753V15.439H137.631L137.337 16.3264H137.631C137.844 15.5084 137.714 15.6678 138.51 15.439V16.0284C138.805 15.9313 139.093 15.8342 139.388 15.7302V15.4322C140.074 15.3351 140.753 15.238 141.439 15.134V14.8359H142.317L142.612 14.2466C142.859 14.1496 144.54 14.5586 144.951 14.8359V14.2466L145.829 13.9486V13.6504C146.227 13.5256 145.713 13.8654 146.124 13.9486C146.611 14.0456 146.646 13.6643 146.707 13.6504C147.242 13.5395 147.839 14.0386 148.169 14.2397V13.9416C149.081 13.1028 148.237 12.6868 149.925 12.465V12.763H150.803L150.508 13.3524C150.885 13.8307 151.057 13.0265 151.386 14.2397C151.77 13.9277 151.825 13.6366 152.264 13.3524V14.2397H152.847C152.751 13.6504 152.655 13.0542 152.552 12.465C153.924 11.9935 153.54 12.6937 154.308 10.9883H154.603C154.569 11.6192 154.301 12.0004 154.308 12.1738L154.603 12.4719C155.138 12.0975 154.638 12.0698 154.898 11.8826C155.234 11.6331 155.083 12.153 155.193 12.1807C155.488 12.0836 155.776 11.9866 156.071 11.8826V11.2933C156.73 11.1754 157.196 10.808 158.123 10.9952C158.123 10.9952 158.136 11.3834 158.706 11.2933V10.9952H160.167V11.2933C159.467 11.4735 159.625 11.3904 159.289 11.8826H159.872C160.716 10.4753 162.122 10.9675 163.679 10.406L163.974 9.51856C164.811 9.51856 165.23 9.62251 165.73 9.81662V8.63116H166.025C166.217 8.92926 166.416 9.22046 166.608 9.51856H166.903L166.608 10.1078H166.903V10.406C167.74 11.016 167.658 9.87902 168.076 11.2933H168.659V11.8826H169.243C169.147 12.1807 169.051 12.4718 168.948 12.77H169.243C169.442 13.2136 169.448 13.2622 169.538 13.9555H170.121V14.5448C170.573 14.8082 170.731 14.9815 170.999 15.4322C171.946 14.9122 171.555 14.725 172.755 15.134L172.46 14.2466H173.043V13.6574H173.626V13.9555H173.921V13.6574L174.799 13.9555L174.504 14.8428H175.087C175.3 14.0248 175.17 14.1843 175.966 13.9555C176.405 13.4355 176.754 13.3939 177.722 13.3662V12.7769C178.305 12.5828 178.895 12.3817 179.478 12.1876C179.498 12.9641 179.595 13.1929 179.773 13.6643C180.102 13.4147 179.814 13.6989 180.068 13.3662H180.363V12.4788C181.241 12.5759 182.119 12.6729 182.997 12.7769V12.1876H183.58L183.875 11.3002C184.266 11.3973 184.657 11.4944 185.048 11.5984C185.144 11.4043 185.24 11.2032 185.343 11.0091L186.804 11.3072V11.8964C187.552 11.4389 188.821 10.0593 189.734 10.711H190.317V11.3002H190.612V10.711C192.018 10.6347 192.025 10.503 193.246 10.711C193.342 10.2187 193.438 9.72652 193.541 9.2343C194.892 8.97779 195.915 8.97779 196.758 9.2343V8.64504H198.514V8.9431H199.393V9.24124C199.688 9.14418 199.976 9.04709 200.271 8.9431V8.64504C199.934 8.30534 200.154 8.64506 199.976 8.05578C200.936 8.07658 200.84 8.43014 201.437 8.05578L201.732 7.46643L203.488 8.05578V8.64504C204.277 8.64504 205.148 8.74206 205.539 8.3469V7.75763L206.122 8.05578V7.75763C206.705 7.66058 207.295 7.56357 207.878 7.45958C208.153 7.63983 207.776 7.88242 208.173 7.75763L208.468 7.16837C208.839 7.16837 209.216 7.69521 209.93 7.46643V7.16837C210.417 7.07132 210.904 6.97422 211.391 6.87023L211.096 7.75763H211.391C212.042 8.4717 211.94 8.17363 212.852 8.05578C212.818 8.99169 212.283 8.61033 213.147 8.9431C213.277 9.67796 213.414 10.0316 213.442 11.016C212.632 11.231 212.79 11.0992 212.564 11.9034H212.269V13.38C211.569 13.5187 211.35 13.7197 210.808 13.9693V13.082H210.513C210.08 14.7389 210.005 13.692 209.052 14.2674V14.5656L207.878 15.4529C207.975 15.1548 208.071 14.8637 208.173 14.5656H207.878C207.7 15.037 207.618 15.2658 207.583 16.0422C206.479 16.278 205.944 16.6176 204.366 16.6315V16.0422H203.783V16.6315H202.322V16.9296H202.617C202.432 17.3525 202.274 17.1514 202.034 17.5188H201.451L201.746 16.9296H201.451C201.162 17.3317 201.279 17.5119 200.572 17.5188C200.572 17.5188 200.367 17.096 199.989 17.2208C199.893 17.4149 199.797 17.6159 199.694 17.81H199.111L198.816 19.5848L197.643 19.8829V18.6974H197.06C196.848 19.6472 196.662 19.772 195.599 19.8829L195.894 18.9955H195.599C195.489 19.3352 195.517 20.0493 195.016 19.8829L194.721 18.9955C194.426 19.0925 194.138 19.1896 193.843 19.2936V19.8829C193.376 19.7026 193.15 19.6195 192.382 19.5848V18.6974H192.087V19.5848C192.423 19.9245 192.203 19.5848 192.382 20.1741C191.696 20.2712 191.016 20.3682 190.33 20.4722V21.0615C189.295 21.1724 189.439 21.4289 188.574 21.6508V22.5382C187.861 22.3718 187.929 22.2261 187.401 21.9488V22.5382H187.106V23.4255H187.401V22.8362H187.984V23.4255C188.471 23.3284 188.958 23.2314 189.445 23.1274V24.0148H190.029V23.1274C190.516 23.2245 191.003 23.3215 191.49 23.4255C191.627 22.7184 191.826 22.4965 192.073 21.9488C193.026 21.9558 194.186 21.8171 194.707 22.247H195.002C195.098 22.0528 195.194 21.8518 195.297 21.6577H195.88V21.3596H196.463V21.0615L197.046 21.3596V21.0615H199.976C199.88 20.7634 199.784 20.4722 199.681 20.1741H200.264V19.876H200.559V20.1741L201.437 20.4722C201.457 20.8881 201.505 20.5554 201.142 20.7703C201.471 21.0823 201.142 20.9021 201.725 21.0684V20.7703H202.02V19.8829H202.315C202.569 19.4739 202.534 19.3699 202.61 18.6974C203.303 18.6628 203.351 18.6073 203.783 18.3993V18.6974H204.078V18.9955L203.783 19.5848H204.661V18.9955C205.347 18.8984 206.026 18.8014 206.712 18.6974V18.9955H207.007C207.337 18.7598 206.897 18.6073 207.302 18.6974V18.9955H208.475V19.5848H208.77C208.866 18.9956 208.962 18.3993 209.065 17.81H209.648V18.3993H209.943V17.512C210.616 17.5397 210.705 17.7615 211.116 17.81L211.411 17.2208C211.411 17.2208 212.214 17.498 212.584 17.5188V16.9296L212.88 17.2277C213.271 17.1306 213.662 17.0336 214.053 16.9296V17.2277H215.514V16.3403H216.097V16.6384H216.392V16.3403L216.975 16.6384L217.27 15.751C218.045 15.4599 217.88 16.3958 218.443 16.3403V16.0422C219.726 15.7372 220.055 15.3143 221.372 15.1548V15.4529H221.077C220.522 15.7094 221.66 15.751 221.66 15.751C221.907 16.0838 221.626 15.7926 221.955 16.0491V15.4598L223.416 15.1618C223.512 14.9677 223.608 14.7665 223.711 14.5724L224.006 14.8706C225.742 14.9815 225.968 14.2536 226.936 13.6851V14.5724H227.231C227.567 14.2327 227.231 14.4546 227.814 14.2744V13.6851C228.109 13.7822 228.397 13.8792 228.692 13.9832L228.987 13.3939H230.16V13.0959H230.455C230.633 13.803 230.551 13.6435 231.038 13.9832V13.0959C232.575 12.8463 232.334 13.0612 233.672 13.6851C233.823 12.9918 234.098 12.5759 234.55 12.2084C234.886 12.5482 234.55 12.3263 235.133 12.5065V11.9172H236.012V11.328C236.499 11.425 236.986 11.5221 237.473 11.626V12.2154H238.056V11.328C238.694 11.3696 239.03 11.626 239.229 11.626V11.328L240.107 11.0298C240.203 11.224 240.299 11.4251 240.402 11.6192C241.335 11.8965 242.734 11.0022 243.331 10.7318L243.036 9.84438H243.914C244.093 10.5515 244.01 10.3921 244.497 10.7318C244.744 11.0646 244.463 10.7733 244.792 11.0298C244.813 10.2534 244.909 10.0246 245.087 9.55318C245.671 9.45612 246.261 9.35911 246.844 9.25512C247.091 9.58789 246.809 9.29667 247.139 9.55318C246.912 9.85128 246.782 9.84442 246.555 10.1425H247.433L247.139 9.25512L247.433 8.95698C247.866 9.09563 247.9 9.29671 248.607 9.25512V8.95698H248.902V9.25512C249.293 9.35218 249.684 9.44919 250.075 9.55318V9.85132C251.268 10.3089 251.81 9.63644 252.414 10.1495C253.326 10.7595 252.551 10.5307 252.997 11.3349L253.58 11.633V12.2223H253.875C254.143 12.6244 254.095 12.7423 254.17 13.4078L252.997 13.1096C253.23 14.0664 253.539 14.1288 253.58 15.4737C253.251 15.7233 253.539 15.4391 253.285 15.7719H252.99C252.901 14.8845 252.949 14.9676 252.407 14.5863V14.8845H252.702C252.51 15.2796 252.311 15.6748 252.119 16.0699C251.357 16.0838 251.11 16.1323 250.658 16.3681V16.6661C250.157 16.8394 250.15 16.3889 250.075 16.3681C249.025 16.0977 248.36 16.7424 248.024 17.2555H247.728C247.632 17.8447 247.536 18.4409 247.433 19.0302H246.85L246.555 18.4409C246.164 18.538 245.773 18.635 245.382 18.739C245.444 19.4392 245.506 19.4739 245.677 19.9245C244.998 19.8968 244.93 19.6888 244.504 19.6264L244.209 20.2156C243.818 20.3127 243.427 20.4098 243.036 20.5138C242.824 21.3318 242.954 21.1724 242.158 21.4012C241.129 22.3371 240.265 21.0268 240.107 21.1031V21.4012C239.62 21.6993 239.133 21.9904 238.646 22.2885C238.804 23.3215 238.934 22.8362 238.646 23.7652H238.941V23.4671H240.114V24.0564L240.992 23.7582V23.4602L241.87 23.7582V22.8709C242.165 22.968 242.453 23.065 242.748 23.169V22.8709L242.453 22.5728H244.209C244.305 22.8709 244.401 23.1621 244.504 23.4602C244.696 23.3631 245.087 22.8709 245.087 22.8709C245.382 22.968 245.671 23.065 245.966 23.169V22.8709C246.398 22.6421 246.453 22.649 247.139 22.5728V21.9835H247.722V21.3943H248.895V21.9835C249.553 21.9073 249.67 21.9558 250.068 21.6854V21.3873H250.651V21.0892H251.234V20.7911C251.755 20.3682 251.934 20.1256 252.695 19.9037V20.7911H253.868C253.964 20.2989 254.06 19.8067 254.163 19.3145H254.746C254.65 19.6126 254.554 19.9037 254.451 20.2019H254.746C255.165 19.779 256.379 19.4462 257.086 19.3145V18.7252C257.477 18.6281 257.868 18.531 258.259 18.427V17.5396H258.842V18.427H259.425V17.5396H260.886C260.79 17.8377 260.694 18.1289 260.591 18.427H261.174C261.476 18.0873 261.716 17.8586 262.347 17.8378V18.1358H262.642L262.937 17.8378C263.212 17.304 263.342 17.3732 263.52 16.6522L264.398 16.3542V16.056L264.693 16.3542L265.571 16.056V16.9434H266.155C266.216 16.2432 266.278 16.2086 266.45 15.758L267.033 16.056V15.758C267.451 15.3905 267.485 14.9399 267.911 14.5724C268 14.7111 268.508 15.647 268.789 15.4598L269.084 14.5724C270.353 14.4754 271.622 14.3784 272.891 14.2744V14.5724C272.082 14.7873 272.239 14.6556 272.013 15.4598C272.74 15.3281 273.09 15.1895 274.064 15.1618V14.8636H273.769V13.387C274.256 13.484 274.743 13.5811 275.23 13.6851C275.326 13.387 275.422 13.0958 275.525 12.7977C275.862 13.1374 275.642 12.7977 275.82 13.387L276.698 13.6851V13.387C277.302 13.0542 277.227 12.9294 278.16 12.7977V11.9103C278.784 11.8756 279.161 11.6053 279.333 11.6122L279.628 11.9103V11.321L281.089 11.0229V11.6122C281.281 11.5152 281.48 11.4181 281.672 11.3141V11.016C282.138 10.9606 282.036 11.529 282.255 11.6053H283.428C283.524 11.1131 283.62 10.6209 283.723 10.1286C284.21 10.2257 284.697 10.3227 285.184 10.4267L285.479 9.83744H285.774V10.1356C286.069 10.0385 286.357 9.94143 286.652 9.83744V9.24818C286.988 9.58788 286.769 9.24816 286.947 9.83744H287.53C287.668 9.13031 287.867 8.90846 288.114 8.36077C289.088 8.37464 290.748 8.65892 290.748 8.65892V8.36077H291.331V8.06272H292.209C292.305 7.8686 292.401 7.66749 292.504 7.47337C292.799 7.57043 293.087 7.66752 293.382 7.77151V8.06966H294.843V7.48031L296.016 7.18225V7.77151H296.599C296.785 8.58264 296.984 8.44399 297.183 9.24818H298.061C298.273 10.0662 298.143 9.9068 298.939 10.1356V10.7248C297.19 11.0853 297.423 11.9103 296.888 13.387H298.644L298.939 12.2015C300.16 12.0143 299.769 11.9104 300.99 11.6122V12.2015C302.376 11.6122 302.17 11.6122 303.329 12.2015V11.6122C303.72 11.5152 304.111 11.4181 304.502 11.3141V10.7248H305.085V11.0229H305.38V10.7248C306.046 10.5931 306.169 10.8773 306.553 11.0229V10.7248H306.258C305.716 10.4406 306.842 10.4267 306.842 10.4267V9.83744H307.425V9.24818C308.344 9.4215 308.728 9.72652 309.764 9.83744L310.059 8.95004C310.059 8.95004 309.435 8.90155 309.764 8.65198H310.347V8.95004H312.103V8.06272C313.036 8.25683 312.679 8.49946 312.981 8.65198C313.468 8.60345 313.523 8.06965 313.564 8.06272C314.127 7.90326 313.969 8.25678 314.147 8.36077H314.442V8.06272C314.833 8.15977 315.225 8.25678 315.616 8.36077C315.828 7.54272 315.698 7.70215 316.494 7.47337V8.06272H317.667C317.941 7.5289 318.071 7.59817 318.25 6.87717L319.128 7.17531V6.87717C319.32 6.78011 319.519 6.6831 319.711 6.57911V7.16837H320.294L319.999 6.28097C320.699 6.14232 320.918 5.94128 321.46 5.69171V6.87717C322.983 6.47507 322.503 6.22554 324.39 6.57911V5.69171H325.268V5.98985C325.144 6.16317 324.787 6.03143 324.973 6.57911H325.268C325.741 4.74888 325.892 6.0799 327.024 5.39356C327.689 4.99147 327.003 4.30513 328.485 3.9169V4.21504L329.363 3.9169V4.50625H329.658V3.9169C330.694 4.02782 330.55 4.2844 331.414 4.50625V5.09551C331.689 5.56 333.507 5.64319 332.587 6.57217H333.17V7.75763L332.587 8.05578C332.574 8.15283 332.862 8.71436 332.882 9.24124H333.465C333.328 9.94837 333.129 10.1702 332.882 10.7179C332.361 10.7456 331.826 11.0299 331.709 11.016V10.7179H330.536V11.016L328.78 11.3141V11.9034C328.389 12.0975 327.998 12.2985 327.607 12.4926V12.1946H327.312V13.082L325.261 13.6712C325.597 14.0109 325.261 13.789 325.844 13.9693V14.2674C326.358 14.5101 326.784 14.0941 327.017 13.9693V13.6712H327.895V13.082C329.26 13.0126 329.562 12.6521 330.529 12.1946V11.8964H332.581V12.1946H332.285C331.949 12.5343 332.286 12.3124 331.702 12.4926V13.082C332.896 12.7353 332.011 12.8116 332.581 12.1946L333.164 12.4926V12.1946H333.747V11.8964H334.625C334.934 11.7162 335.352 10.4337 336.086 10.711V11.0091H336.669V10.1217C336.964 10.2188 337.252 10.3158 337.547 10.4198V10.1217C338.13 10.0246 338.72 9.92755 339.303 9.82356V10.4128H339.886C339.982 10.7109 340.078 11.0021 340.181 11.3002H340.476V10.711H341.059C341.231 9.60867 341.231 10.0316 341.059 8.93624C341.149 8.97091 343.879 9.58096 343.989 9.5255V9.22736H344.284V8.0419H344.579C345.176 8.58265 345.91 8.12509 346.918 8.0419V7.45264C347.508 7.61902 347.172 7.41793 347.501 7.75069C348.578 7.43872 348.304 7.15451 348.962 6.56523V6.26709C349.703 5.8026 351.274 6.24629 352.475 6.26709C352.66 5.45597 352.859 5.59462 353.058 4.79042C354.313 4.7419 354.059 4.60326 354.814 4.20116V5.08857H355.987C356.049 4.38837 356.11 4.35373 356.282 3.90311L357.16 4.20116L357.455 3.6119H358.038V3.31376C358.333 3.2167 358.621 3.11969 358.916 3.0157L359.211 3.90311C359.952 3.29996 359.335 3.18902 360.672 3.0157V3.31376C360.336 3.58413 360.329 3.52874 360.089 3.90311H360.384V4.20116C360.995 3.87533 360.906 3.72282 361.845 3.6119C362.092 3.94467 361.811 3.65354 362.14 3.91004C361.797 4.47159 361.893 4.19427 361.262 4.49931V4.79736H361.845C361.749 5.38664 361.653 5.98289 361.551 6.57217H361.845V6.87023H361.551V7.45958C361.647 8.15284 361.743 8.83917 361.845 9.53244H361.551C361.304 9.87214 361.4 9.94839 360.967 10.1217V9.82356H360.672C360.48 10.1217 360.281 10.4129 360.089 10.711H359.211L358.916 11.3002C358.525 11.3973 358.134 11.4944 357.743 11.5984C357.647 11.8965 357.551 12.1877 357.448 12.4858L356.57 12.7838L356.275 13.3731H355.98V13.075C354.903 12.8185 354.567 14.0802 353.929 13.3731V13.9624H353.346C353.442 14.3576 353.538 14.7527 353.641 15.1479H353.346C353.017 15.654 353.161 15.55 352.468 15.7372C352.44 15.6748 352.049 14.6626 351.885 14.8498V15.1479L351.301 15.446C351.205 15.7441 351.109 16.0353 351.007 16.3334H350.128C349.147 16.8187 349.744 17.1168 348.077 17.2208C348.173 17.5189 348.269 17.8101 348.372 18.1082C348.763 18.0111 349.154 17.914 349.545 17.81V18.6974H349.84V18.3993H351.013C351.905 18.0596 352.317 17.5744 353.648 17.512V16.9226C354.478 16.7354 354.423 16.375 354.526 16.3334H355.699V16.6315L356.872 16.3334C356.872 16.3334 357.002 16.7008 357.455 16.6315V16.3334L358.628 16.6315V16.3334C358.964 15.9937 358.745 16.3334 358.923 15.7441H358.628V16.0422C358.374 16.6038 358.333 15.4529 358.333 15.4529C359.403 15.55 360.48 15.6471 361.551 15.751L361.845 15.1618C362.14 15.0717 362.381 15.6193 363.019 15.4598V15.1618H364.48V15.4598H364.775V15.1618H365.948L366.243 14.2744H366.538L366.243 13.6851H367.121C367.457 14.0248 367.121 13.8029 367.704 13.9832V13.3939C368.404 13.5326 368.623 13.7336 369.165 13.9832V13.6851H368.87C368.328 13.4009 369.453 13.387 369.453 13.387V13.6851C369.789 14.0248 369.57 13.6851 369.748 14.2744C370.373 14.2397 370.743 13.9762 370.921 13.9762V14.2744H371.504C371.587 13.7475 371.799 13.6851 371.799 13.6851C371.703 13.387 371.607 13.0958 371.504 12.7977H371.799V12.4996C372.629 12.8739 373.007 13.2622 374.139 13.387V12.7977C375.847 12.4025 374.303 12.049 375.895 12.7977V11.6122H376.19V11.9103C376.581 11.6122 376.972 11.321 377.363 11.0229V12.2084H377.658C377.802 12.0698 377.576 11.7301 377.953 11.9103V12.2084H378.248C378.248 12.2084 378.166 13.2691 378.543 12.7977V12.4996C378.879 12.1599 378.659 12.4996 378.838 11.9103H377.96C378.186 11.0229 378.138 11.1338 379.133 11.0229V11.321L380.011 11.0229V11.321H380.889V11.6192C381.644 11.7786 382.494 10.6971 382.94 10.4336L383.818 10.7318V10.4336C384.305 10.1147 384.305 10.0316 384.991 9.84438C384.895 10.1425 384.799 10.4337 384.696 10.7318H384.991V11.0298C385.286 10.8357 385.574 10.6347 385.869 10.4406V10.1425H386.453C386.981 9.90681 387.09 9.46999 387.33 8.95698C387.818 9.35214 388.305 9.74736 388.792 10.1425C388.97 9.56018 388.805 9.4215 389.375 9.25512C389.471 9.28978 389.464 9.80972 389.958 9.84438C390.582 9.00552 390.219 9.24813 391.131 9.54624C391.227 8.58953 391.399 8.67973 391.714 8.06966C392.736 8.22911 392.256 8.36083 393.175 8.06966V9.84438H393.47C393.8 9.33829 393.655 9.4423 394.348 9.25512C394.897 10.1841 395.432 10.094 395.522 11.6192C396.324 11.6539 397.641 12.0282 397.861 11.6192H398.156V11.9172C398.965 12.1114 399.884 12.7422 400.207 13.3939V14.2813H400.502C400.907 14.829 401.181 14.9677 401.38 15.758C401.085 15.6609 400.797 15.5638 400.502 15.4598V15.758H400.797V16.6454H401.092C401.359 17.0821 401.352 17.3733 401.387 18.122C401.051 18.4618 401.27 18.122 401.092 18.7113C400.118 18.8084 399.144 18.9054 398.163 19.0094V18.4201C397.772 18.5172 397.381 18.6143 396.989 18.7183V18.1289C396.797 18.226 396.598 18.3231 396.406 18.427C396.31 18.2329 396.214 18.0319 396.111 17.8378C396.105 17.8378 395.247 18.2399 394.65 17.8378L394.355 16.9504C394.012 16.7077 393.854 17.817 393.182 17.5396V17.2416C392.846 16.9019 393.066 17.2415 392.887 16.6522L392.009 16.9504V16.6522H391.714C391.81 16.3541 391.906 16.063 392.009 15.7649C392.009 15.7649 391.646 15.6748 391.714 15.1757C391.714 15.1757 392.201 15.0439 392.009 14.5863H391.714C391.378 14.926 391.714 14.7042 391.131 14.8845C391.035 15.1826 390.939 15.4738 390.836 15.7719C390.15 15.6887 390.109 15.6748 389.663 15.4737V15.1757C389.169 15.2103 389.169 15.7372 389.08 15.7649C388.414 16.0006 387.9 15.3975 387.619 15.4668V15.7649C386.624 16.167 386.404 16.6869 385.279 16.9504C385.375 16.6523 385.472 16.3611 385.574 16.063H384.991C384.559 16.8672 384.093 17.4149 382.94 17.5396V16.6522H382.645C382.419 17.5396 382.467 17.4287 381.472 17.5396V16.9504C380.251 17.6229 380.086 17.5536 378.543 17.2485V16.6592H378.248C378.227 17.8031 378.296 17.8793 377.37 18.1358V18.434C377.088 18.9817 377.075 17.8447 377.075 17.8447H376.492C376.396 18.0388 376.3 18.2399 376.197 18.434C375.71 18.3369 375.223 18.2398 374.736 18.1358V18.7252H373.857V19.0232C373.521 19.3629 373.741 19.0232 373.562 19.6125L371.806 19.9107V19.3214L368.877 19.6194V20.2087H367.999V20.5069C367.738 21.0615 367.704 19.9176 367.704 19.9176C366.764 20.1464 367.073 20.3613 365.948 20.5069V21.3943C364.219 21.214 364.349 20.3474 362.435 20.2087C362.429 21.1932 362.284 21.5468 362.14 22.2817H361.557C361.647 22.0252 362.12 21.6299 361.852 21.0961H361.557V21.3943C361.221 21.734 361.441 21.3942 361.262 21.9835L359.506 22.2817V22.8709C358.525 22.6907 357.661 22.0598 356.577 22.5728C356.385 22.8709 356.186 23.1621 355.994 23.4602C355.198 23.6959 355.088 22.6629 354.821 22.5728C354.293 22.3925 354.608 22.9055 354.526 23.162C354.231 23.065 353.943 22.968 353.648 22.864V24.0494H353.065L352.77 24.6387C352.289 24.7843 352.228 24.3476 352.186 24.3406C351.48 24.2159 351.425 24.6387 351.013 24.6387V24.3406C350.43 24.2436 349.84 24.1465 349.257 24.0425V24.6318C347.316 24.8397 346.328 24.8883 344.867 24.6318L344.572 25.5192C344.023 25.3736 343.172 25.3944 342.233 25.2211V24.923C342.569 24.5833 342.349 24.923 342.528 24.3337C341.828 24.3614 341.8 24.5278 341.354 24.6318V24.3337C340.867 24.0148 340.874 23.9108 340.181 23.7444V23.1551H339.598C339.502 22.857 339.406 22.5659 339.303 22.2678L337.547 21.9696V21.3804C337.78 21.4774 338.466 21.9835 339.008 21.6784V21.3804C338.144 20.8119 338.295 20.2018 338.425 19.3075C338.816 19.1134 338.823 18.843 339.008 18.7183C339.2 18.8153 339.399 18.9123 339.591 19.0163V17.8308H339.886C339.79 17.2416 339.694 16.6453 339.591 16.056C339.297 15.959 339.008 15.862 338.713 15.758C338.809 15.9521 338.905 16.1531 339.008 16.3472L338.13 16.0491V16.6384H337.835C337.739 16.8326 337.643 17.0336 337.54 17.2277H336.662C336.731 17.914 336.985 17.408 336.662 18.1151L336.079 17.817V18.4062C335.764 18.9262 335.784 17.817 335.784 17.817C335.297 17.914 334.81 18.0111 334.323 18.1151C334.323 18.1151 334.186 17.6714 333.74 17.817C333.644 18.0111 333.548 18.2121 333.445 18.4062H332.567C332.471 18.7043 332.375 18.9955 332.272 19.2936C331.819 19.051 330.975 18.226 330.221 18.4062C330.125 18.6003 330.029 18.8014 329.926 18.9955C329.363 18.94 329.439 18.4201 329.343 18.4062H329.048V18.7044H327.586V19.0024H328.169C328.073 19.5917 327.977 20.188 327.874 20.7772H327.291C327.024 20.6594 327.099 19.876 326.118 20.188L325.823 20.7772H324.362V20.4791C323.937 20.2434 323.868 20.2712 323.189 20.181V21.0684C322.894 20.9714 322.606 20.8743 322.311 20.7703V21.0684C321.975 21.4081 322.194 21.0684 322.016 21.6577C320.925 21.9697 321.227 22.2678 320.555 22.8432V23.1413H319.677V22.2539H319.094V22.8432H317.632V22.545H317.338C317.145 22.9402 316.946 23.3354 316.754 23.7306L316.171 23.4324V23.7306L315.293 24.3198V23.4324H314.998V23.7306L314.12 23.4324V23.7306C313.708 23.7098 314.237 23.481 313.825 23.4324L312.069 23.7306V24.618H311.774V24.3198C310.978 23.89 310.34 24.7358 310.018 24.9091C309.853 23.9801 309.73 23.6681 308.845 23.4324C309.009 24.1534 309.153 24.0842 309.428 24.618H308.845C308.378 25.0547 307.123 24.9438 306.21 24.916V24.3268H305.627V24.916C305.044 24.819 304.454 24.722 303.871 24.618C303.727 23.9178 303.597 23.9177 303.288 23.4324C303.686 23.0858 303.576 23.6543 303.871 23.1344C303.487 22.8917 303.528 22.9263 303.288 22.545H303.871C303.933 21.8448 303.995 21.8102 304.166 21.3596C303.336 21.1654 303.062 20.8119 302.705 20.1741H303.583C303.775 19.3838 303.974 18.5934 304.166 17.81C303.782 17.5674 303.823 17.6021 303.583 17.2208C302.959 17.5813 302.945 17.8863 302.122 18.1082V17.5188H301.827V18.4062C300.688 18.5033 300.51 18.8846 299.776 19.2936C299.714 18.5934 299.652 18.5588 299.481 18.1082C299.152 18.3577 299.44 18.0735 299.186 18.4062H298.891L299.186 18.7044L298.891 19.5918C297.649 19.3769 297.484 19.5432 295.961 19.5918L296.256 20.4791H295.961C295.721 20.8673 295.756 20.8258 295.378 21.0684V19.8829C293.89 19.9661 294.089 20.4098 292.449 20.4722C292.23 21.4774 291.825 21.8379 290.693 21.9488V21.3596H290.398V21.6577C290.144 22.2192 290.103 21.0684 290.103 21.0684C289.808 20.9714 289.52 20.8743 289.225 20.7703L289.52 21.3596H288.937C288.47 21.7963 288.216 22.3787 288.059 23.1344H287.181V22.545C285.301 22.6143 284.828 23.6265 283.373 24.0217C283.559 23.2106 283.757 23.3492 283.956 22.545C282.084 22.961 280.753 24.2644 279.566 22.247C280.883 21.4705 280.19 21.1446 279.861 19.8829H278.688C278.441 19.5501 278.722 19.8413 278.393 19.5848C278.482 19.3283 278.955 18.9331 278.688 18.3993H278.393V18.1012H277.515C277.021 18.9193 276.259 18.6974 275.759 19.2867L275.464 20.1741H274.586V20.4722C274.291 20.5692 274.003 20.6663 273.708 20.7703V20.181C272.795 20.3821 272.377 21.0684 271.656 21.3665H270.483V21.6646C270.188 21.5676 269.9 21.4705 269.605 21.3665V21.9558L267.849 22.2539V22.552H266.676C266.58 22.5728 266.6 22.961 266.093 22.8501V22.552H265.51V22.2539L263.459 21.9558C263.246 22.3717 262.93 22.8501 262.581 23.1413V21.9558H262.286V22.545C261.991 22.448 261.702 22.351 261.408 22.247C261.27 22.9402 260.92 23.1621 260.824 23.7236H261.119C261.215 24.0217 261.311 24.3129 261.414 24.611C259.747 24.6318 259.576 24.299 258.485 24.0217C258.053 24.8259 257.586 25.3736 256.434 25.4984V24.9091H255.851V26.0946H255.268V26.3927H253.216V26.6908H252.633V26.9889C252.441 26.8918 252.242 26.7948 252.05 26.6908V26.9889H251.755C251.323 26.6353 252.002 26.774 251.46 26.3996C251.495 27.3355 252.03 26.9543 251.165 27.287V26.6978C249.519 26.8988 250.219 27.4326 249.409 27.8832H248.826C248.73 28.1813 248.634 28.4725 248.531 28.7706H247.07V28.4725C247.797 27.9318 247.447 28.2438 247.365 27.287H246.782V28.1744C244.237 28.1814 243.791 28.6874 241.513 28.7637V28.1744C241.122 28.3686 240.731 28.5696 240.34 28.7637C240.436 29.1589 240.532 29.554 240.635 29.9492C239.874 29.9006 239.634 29.8867 239.174 29.651V29.353L238.296 29.651C238.248 29.6441 238.193 29.2351 237.713 29.353V29.651H237.13V29.9492H236.547V30.2473C236.142 30.5177 236.032 30.4552 235.373 30.5454V29.658H235.079V29.9561H233.617C233.418 30.0462 233.604 30.3374 232.739 30.5454C232.643 30.8435 232.547 31.1347 232.444 31.4328H232.739C233.172 31.7933 231.676 31.7239 231.566 31.7308V31.4328C230.393 31.2387 229.227 31.0376 228.054 30.8435C228.212 30.0185 228.28 30.8158 228.054 29.9561C227.738 30.1225 227.443 30.7533 226.881 30.5454V30.2473H226.586L226.881 29.658H226.586C226.25 29.3183 226.586 29.5402 226.003 29.3599C225.907 29.0618 225.811 28.7706 225.708 28.4725H226.291C226.195 28.1744 226.099 27.8832 225.996 27.5851H226.291V27.8832C226.545 28.4448 226.586 27.294 226.586 27.294H226.881V26.9958C226.689 26.8988 226.49 26.8018 226.298 26.6978C226.394 26.3997 226.49 26.1085 226.593 25.8104H226.298V25.5122H227.176V25.2142C226.792 24.9715 226.833 25.0061 226.593 24.6248C227.094 24.2921 226.991 24.4377 227.176 23.7375L228.349 23.4394C228.383 23.4186 228.802 22.344 228.932 22.552V23.1413H229.81C230.084 22.6075 230.215 22.6768 230.393 21.9558C229.995 21.6091 229.947 21.415 229.81 20.7703H230.393V20.181H230.976V19.8829C230.393 19.98 229.803 20.077 229.22 20.181V19.8829C228.836 19.9037 228.486 20.389 227.759 20.181V19.8829C227.176 19.7858 226.586 19.6888 226.003 19.5848V20.7703H225.42V21.3596C225.125 21.1654 224.837 20.9644 224.542 20.7703V20.181L224.246 20.4791C223.91 20.8188 224.13 20.4792 223.952 21.0684H222.779V21.6577C222.195 21.5606 221.605 21.4635 221.022 21.3596C220.926 21.8518 220.83 22.344 220.727 22.8362C220.014 23.0026 220.083 23.1412 219.554 23.4255V23.1274C219.252 22.8709 219.15 22.6144 218.971 22.24C218.635 22.5797 218.855 22.24 218.676 22.8293C218.093 22.9263 217.503 23.0234 216.92 23.1274V23.7167C216.227 23.7791 216.193 23.8415 215.747 24.0148V23.4255H216.042L215.747 22.5382H215.452V23.1274C215.26 23.0304 215.061 22.9333 214.869 22.8293C214.533 23.065 214.752 23.5295 213.991 23.4185C213.895 23.2244 213.799 23.0234 213.696 22.8293H213.401V23.4185L212.523 23.7167C212.372 23.6751 212.344 22.968 211.94 23.1274C211.645 23.5226 211.356 23.9177 211.061 24.3129C210.767 24.2158 210.478 24.1188 210.183 24.0148V24.6041H209.6V25.1934C209.271 24.9438 209.559 25.228 209.305 24.8952C208.99 24.6248 209.25 24.9438 209.01 24.5972H209.305V24.299H208.427V24.5972H208.132V24.299H207.254C207.158 24.1049 207.062 23.9039 206.959 23.7098C206.767 23.8068 206.568 23.9039 206.376 24.0079C205.978 24.1257 206.5 24.3267 206.081 24.306V24.0079H205.498C205.491 24.923 205.58 25.5331 205.793 26.0808H204.62V26.67H204.325V25.7826H203.742L203.447 26.67C203.118 26.4204 203.406 26.7046 203.152 26.3719H202.857L203.152 25.4846C202.857 25.5816 202.569 25.6786 202.274 25.7826V26.0808H201.691C201.595 26.2749 201.499 26.4759 201.396 26.67H200.223V26.9681H199.928C199.784 26.8364 200.01 26.4898 199.633 26.67L199.338 27.2593L197.876 27.5574V26.9681H197.582L197.287 27.5574H196.992L196.697 26.9681C196.292 26.7809 195.873 26.8225 195.524 26.67C195.503 27.8139 195.572 27.8902 194.645 28.1467V27.5574H194.062V28.1467H192.601L192.018 29.6234H191.435V29.3252C191.339 29.3113 190.763 29.5887 190.262 29.6234C190.426 28.9024 190.571 28.9716 190.845 28.4378H190.262L189.967 29.3252L187.916 29.0272C187.607 29.1797 187.703 29.6926 187.916 29.9145H187.333C187.079 30.2195 186.825 30.3236 186.455 30.5038V29.6164C185.144 29.7273 185.604 29.8036 184.403 29.6164V29.9145C184.74 30.2542 184.52 29.9145 184.698 30.5038H183.237C183.162 30.49 183.141 30.1225 182.654 30.2057V30.5038H182.071C181.975 30.8019 181.879 31.093 181.776 31.3911C181.447 31.1416 181.735 31.4258 181.481 31.0931C181.152 30.8435 181.44 31.1277 181.186 30.7949C181.57 30.5523 181.529 30.587 181.769 30.2057H180.596C180.335 30.5176 180.082 30.5939 179.718 30.7949V31.0931L178.84 30.7949V31.0931C179.224 31.3357 179.183 31.301 179.423 31.6823H178.84C178.497 31.2802 178.305 31.2317 177.667 31.0931V31.6823C177.118 31.4744 176.521 31.3911 175.616 31.3842C175.293 30.7672 175.142 30.8574 175.032 29.9076H174.449V29.3183C174.12 29.5678 174.408 29.2836 174.154 29.6164H173.859V30.2057L173.276 30.5038V31.3911H172.981C172.686 30.996 172.398 30.6008 172.103 30.2057H171.808C171.424 29.5471 171.966 29.3807 171.225 28.729C171.321 28.3338 171.417 27.9387 171.52 27.5435C171.52 27.5435 171.143 27.398 171.225 26.9543H171.52V25.4776C171.52 25.4776 171.699 25.4776 171.815 24.8883C172.625 24.6734 172.467 24.8051 172.693 24.001H173.276V24.299L174.154 24.001V23.4116L175.616 23.7098C175.828 22.8917 175.698 23.0511 176.494 22.8223V21.6369H176.789L176.494 21.0476H176.789C177.036 20.7149 176.754 21.006 177.084 20.7495V20.4514C177.365 19.9037 177.379 21.0407 177.379 21.0407L178.257 21.3387V21.0407H177.962C178.058 20.7426 178.154 20.4514 178.257 20.1533H180.013V20.4514C180.699 20.3544 181.378 20.2573 182.064 20.1533V19.564H183.237V18.9748C182.236 18.9609 181.213 18.7737 180.603 18.6766C180.411 18.9747 180.212 19.2659 180.02 19.564L178.264 19.8621C178.428 19.1411 178.572 19.2104 178.847 18.6766H177.674V18.9748H177.969C178.305 19.4392 177.248 19.252 177.09 19.2728V20.1602H176.796V20.4584C176.308 20.5554 175.822 20.6524 175.334 20.7564C175.43 20.2642 175.526 19.772 175.629 19.2798C174.916 19.4461 174.978 19.5848 174.456 19.869V20.1672C173.873 19.973 173.283 19.772 172.7 19.5779V19.876C172.364 20.2157 172.584 19.8759 172.405 20.4652C171.925 20.5553 171.129 21.0823 170.944 21.0546V20.7564H170.066C169.661 20.6732 170.176 20.3682 169.771 20.4584L169.476 21.0476H168.893L169.188 20.4584H168.893C168.557 20.7981 168.893 20.5762 168.31 20.7564V21.3457C167.823 21.4427 167.336 21.5398 166.848 21.6438C166.794 21.63 166.752 21.2209 166.265 21.3457V21.6438H165.682V21.9419C165.394 21.8795 165.339 21.1446 165.099 21.3526C164.619 21.7547 165.422 21.9211 164.221 22.24V23.1274H163.926V22.5382H163.631C163.535 22.7323 163.439 22.9333 163.336 23.1274H162.163C161.813 22.4827 161.518 22.1499 160.702 21.9419V22.24H159.529L159.234 22.8293L158.356 22.5312V23.4185H157.773C157.052 24.6595 157.121 23.7652 156.311 24.306C156.407 24.5001 156.504 24.7011 156.606 24.8952C156.023 24.7982 155.433 24.7011 154.85 24.5972C154.823 24.6041 154.699 25.1102 154.267 25.1864V24.8883H153.094L152.799 24.5902V24.8883C151.969 25.429 151.942 25.741 150.46 25.7757C150.131 25.2696 150.275 25.3736 149.582 25.1864V25.7757H148.999V25.4776C148.628 25.3598 148.23 26.3164 148.121 26.3649C147.517 26.6353 147.284 26.1085 146.947 26.0669V26.3649C146.364 26.462 145.774 26.5591 145.191 26.6631L144.896 25.7757C144.087 25.9906 144.245 25.8589 144.018 26.6631C143.14 26.7601 142.262 26.8572 141.384 26.9612L141.089 27.5505H139.038V27.8485C138.276 28.0773 137.673 27.8763 136.987 28.1467C136.822 27.4257 136.678 27.495 136.404 26.9612C136.074 27.2108 136.362 26.9265 136.109 27.2593C135.08 27.9941 136.04 28.3131 134.647 28.7359V29.0341H133.186L132.891 29.6234C132.24 29.8868 132.068 29.2559 131.718 29.3252V29.6234C131.135 29.7412 131.348 29.4916 131.135 29.3252H130.84V29.9145C130.545 29.8174 130.257 29.7204 129.962 29.6164V29.3183L129.084 29.6164V29.3183H127.911L127.616 28.729C127.204 28.729 127.479 28.6389 127.321 29.0272C126.957 28.6874 127.211 29.0271 127.026 28.4378H128.199V27.8485H127.026C126.751 27.3147 126.621 27.3841 126.443 26.6631H127.026C126.854 25.4429 126.71 25.2488 126.148 24.001C125.764 24.1535 126.23 24.1188 125.853 24.299H124.975V24.5972C125.565 24.7635 125.229 24.5624 125.558 24.8952C124.721 24.8675 124.302 24.8398 123.802 24.5972V24.8952C124.138 25.2349 123.918 24.8953 124.097 25.4846C122.663 25.4846 122.43 25.8242 121.462 26.0738V25.1864H121.167V25.4846H120.872L120.289 25.1864V26.0738H119.411V25.4846H119.116V26.0738H119.411V26.9612C118.437 26.9543 118.087 26.8087 117.36 26.6631V27.2523C116.667 27.2177 116.619 27.1623 116.187 26.9543V27.2523C115.851 27.592 116.07 27.2523 115.892 27.8416C114.348 27.6683 115.22 27.2038 113.841 27.5435V26.9543C113.374 26.885 113.47 27.4604 113.258 27.5435C112.16 27.9595 111.255 27.7099 110.329 27.5435V28.4309L109.745 28.1328V28.4309C109.155 28.937 109.773 28.8815 109.45 29.3183H109.155C108.449 28.2506 106.418 29.138 105.06 29.3183V30.2057C104.511 30.0532 103.462 29.145 103.009 29.3183V29.6164H102.714V30.5038C101.836 30.6009 100.958 30.6979 100.08 30.8019V31.3911H100.375C100.279 31.6892 100.182 31.9804 100.08 32.2785C99.3867 32.2439 99.3387 32.1885 98.9065 31.9805V32.2785H98.6116V31.3911H98.0284V32.2785H97.7335V31.9805H96.5604V32.2785L95.9772 31.9805V32.2785C95.3324 32.4796 95.0101 32.3687 94.5161 32.5767V33.464C93.0549 33.6858 93.0686 33.7275 91.8818 32.8747L91.5869 33.7621H90.4138V34.0603C90.0228 34.1573 89.6318 34.2544 89.2408 34.3583V33.7691H88.6576C88.4793 34.809 88.342 35.1279 87.1963 35.2457V34.9476C87.5325 34.6079 87.3131 34.9476 87.4915 34.3583C87.1004 34.2613 86.7094 34.1643 86.3184 34.0603V33.7621C85.7627 33.5888 85.9136 33.9286 85.7352 34.0603L84.8571 33.7621V34.0603H85.1521V35.2457H84.5691V34.6565C83.7664 35.1279 84.0408 35.3844 82.8128 35.5438C82.6002 36.3619 82.7305 36.2024 81.9347 36.4312C81.1458 37.3741 80.2266 37.1453 79.0055 37.0205V36.4312H80.1785C80.0825 36.1331 79.9865 35.8419 79.8836 35.5438C79.4377 35.7171 79.4034 35.7726 78.7106 35.8419C78.6625 35.0378 78.6144 34.0603 78.1274 33.7691V33.4709C78.34 33.159 78.3538 33.7275 78.7106 33.1729H78.1274C77.606 32.8609 78.7106 32.8747 78.7106 32.8747C78.5459 32.1537 78.4018 32.2231 78.1274 31.6893H79.0055C79.2456 32.0775 79.2114 32.0359 79.5887 32.2785C78.8752 30.7256 78.5115 29.2905 81.0498 29.3183C81.3859 29.658 81.0498 29.4362 81.6329 29.6164C81.729 29.1242 81.825 28.632 81.9279 28.1397H81.3449V28.729H80.7617L81.0566 27.8416H80.7617C80.5422 28.4032 80.9675 28.1467 80.4668 28.4309C80.0826 28.0843 80.8165 27.9803 80.1717 27.8416V28.4309L79.5887 28.1328V28.4309H79.8836C79.6915 28.8261 79.4925 29.2212 79.3004 29.6164H79.0055V28.729H78.7106V29.0272H77.8324C77.6404 29.3253 77.4414 29.6164 77.2493 29.9145H76.6663V30.2126H75.7882V30.5108H75.205V30.8088C74.0251 31.2317 73.1402 30.3998 72.5708 30.8088C71.7751 31.3288 71.6448 32.445 71.3978 32.5836H68.7635C68.4273 32.2439 68.7634 32.4657 68.1803 32.2855V31.6962H67.8854C67.9814 32.0914 68.0774 32.4865 68.1803 32.8817H67.8854C67.3297 33.367 66.3351 33.1936 65.5462 33.4709V33.7691C65.114 33.9077 64.4005 33.4501 64.3731 33.4709V34.0603H62.9118C62.6168 34.7536 62.3287 35.4399 62.0337 36.1332H61.7388V35.2457H61.1556C61.0939 35.9459 61.0322 35.9806 60.8607 36.4312C60.5314 36.1816 60.8196 36.4659 60.5657 36.1332C60.2296 35.7935 60.449 36.1331 60.2706 35.5438C60.7714 35.211 60.6686 35.3567 60.8538 34.6565H59.9757V36.4312C59.4886 36.3342 59.0017 36.2371 58.5146 36.1332V35.835C58.8507 35.4953 58.6312 35.835 58.8095 35.2457H58.2264L58.5215 34.6565H58.2264C57.8902 34.9962 58.2265 34.7743 57.6434 34.9545C57.5679 35.53 57.3551 35.5299 57.3483 35.5438C56.8818 36.9997 57.609 37.4365 55.8871 37.6168V37.0274C55.4824 37.173 55.2423 37.1453 54.7141 37.3256V37.6236C54.4191 37.5266 54.131 37.4295 53.836 37.3256V37.6236H53.2528L53.5479 38.213H51.7917V38.511C52.1279 38.8507 51.9083 38.511 52.0866 39.1003C51.6133 39.0795 50.0355 38.8022 50.0355 38.8022C49.9395 38.9963 49.8435 39.1974 49.7406 39.3915C48.9448 39.8282 48.8075 39.4677 48.2793 39.3915V39.6896H47.6963L47.4012 40.2789C46.9141 40.3759 46.4271 40.473 45.9401 40.5769V40.8751C45.549 40.778 45.1581 40.6809 44.767 40.5769C44.28 40.674 43.7928 40.7711 43.3057 40.8751V41.1732C42.4345 41.4228 42.1191 40.7017 41.5497 40.5839V40.882C41.2136 41.2217 41.433 40.882 41.2546 41.4713H40.0816L39.7866 41.1732C39.6357 41.2426 39.7042 41.7001 39.2034 41.7625V41.4643L38.3253 41.1663V41.4643C38.0304 41.5614 37.7424 41.6585 37.4474 41.7625V41.1732C36.9192 41.4505 36.9876 41.5822 36.2742 41.7625V42.3518H35.9793V41.4643C34.3328 41.4435 33.0775 40.7573 32.467 39.6896L33.05 39.3915C33.0706 38.9755 32.7619 39.5163 32.7551 39.0934C32.8511 38.6012 32.9471 38.109 33.05 37.6168H33.6332C32.9883 35.7727 34.3535 34.7466 34.5113 32.8817C35.4168 32.7153 36.4664 32.5836 37.7286 32.5836V31.6962H38.6067C38.8057 30.8296 38.9291 30.7257 39.7798 30.5108V29.9214C41.4879 29.5262 39.9444 29.1727 41.536 29.9214V29.3321C42.1877 29.2074 42.5375 29.0479 42.9971 28.7429V28.4447C43.5802 28.3893 43.2029 28.8954 43.5802 28.4447C43.9164 28.105 43.6968 28.4448 43.8752 27.8555H44.4584C44.7945 26.6561 45.0552 27.2662 45.6314 26.3788C46.2145 26.5729 46.8045 26.774 47.3876 26.9681V26.67H47.6825V25.4846C46.0018 25.5192 45.5353 25.7272 44.1701 25.4846C44.0055 26.4135 43.882 26.7255 42.9971 26.9612V26.3719H42.4141V27.2593C41.8172 27.5782 41.2616 28.1328 40.3629 28.1467L40.0678 27.8485C39.0114 28.6527 40.1639 29.2282 38.0167 29.3252L38.3116 28.1397H37.7286V28.4378H38.0235C38.0441 28.5418 37.5229 29.5054 37.4405 29.9145H36.8574V29.3252H36.2742V29.9145L35.9793 29.6164C35.3962 29.8105 34.8061 30.0116 34.223 30.2057C34.127 30.3998 34.031 30.6008 33.9281 30.7949C33.5439 30.9613 33.9899 30.5731 33.6332 30.4969C33.3382 30.5939 33.0501 30.6909 32.7551 30.7949V30.4969H31.877V30.1987H31.582V30.4969C31.582 30.4969 30.7726 30.2265 30.409 30.1987C30.2169 30.691 30.0179 31.1832 29.8258 31.6754C29.572 31.5853 29.181 31.107 28.6528 31.3773V31.6754H28.3578V32.5628H28.0627V31.6754H27.7678V32.8609C27.8158 33.2768 28.0765 32.7361 28.0627 33.159L27.7678 33.4571C27.2602 33.2006 27.6649 33.4224 27.4729 32.8678H27.1778V33.4571L25.7166 33.7552L26.0116 33.1659H25.7166C25.2639 33.679 25.1885 33.4571 24.5436 33.7552V34.0533C24.1114 34.2197 23.4254 34.1296 23.3706 33.7552H23.0755V34.6426H22.7805V34.3445H22.4856V34.9338H21.9024V35.5231C21.1615 35.2874 20.0914 35.5023 18.6851 35.5231C18.5891 36.2163 18.4931 36.9027 18.3902 37.5959H17.807V37.0067C17.3611 37.18 17.3268 37.2354 16.6339 37.3047V38.1921C16.0508 38.3863 15.4608 38.5873 14.8777 38.7814V39.0795H14.2947V39.3776C12.861 39.9253 12.5248 38.9201 11.6604 40.265H11.3655L11.6604 40.5631C11.5644 40.8613 11.4684 41.1524 11.3655 41.4505C10.9745 41.3534 10.5833 41.2564 10.1923 41.1524V42.0398C9.1564 42.1507 9.30058 42.4072 8.43622 42.6291V42.0398H8.14112V42.9271C7.55801 43.0242 6.96817 43.1213 6.38507 43.2253L6.08997 44.1127H5.50696C5.41092 44.4108 5.31476 44.7019 5.21186 45H4.91692V44.1127H4.62199L4.32705 44.7019L3.44895 44.4038V44.1057C2.87956 43.9602 3.05786 44.2721 2.86578 44.4038L1.69273 44.1057L1.98767 43.8076V43.5095H1.69273V42.6221H1.98767V42.324H1.40467C1.3978 41.3396 1.25362 40.986 1.10956 40.2511H0.526558C0.00519437 39.9392 1.10956 39.9531 1.10956 39.9531C1.2056 39.655 1.30176 39.3638 1.40467 39.0657C2.91388 39.135 2.85206 39.6272 2.86578 37.8802C3.35284 37.7831 3.83999 37.6861 4.32705 37.5821V36.3966L5.20516 36.0985C5.5413 35.7588 5.20506 35.9806 5.78816 35.8004V36.3897H6.37134V35.8004C6.66632 35.8975 6.95446 35.9945 7.24944 36.0985V35.5092H6.95434L7.24944 34.6218H7.54438V34.3237H8.42248C8.41562 33.9078 8.4841 34.2405 8.12738 34.0256V33.7274H9.00549V33.4294H9.30059L9.59553 34.0186C10.5697 34.2128 11.5438 34.4138 12.5248 34.6079C12.5522 33.4987 12.7922 33.2491 13.1078 32.535C13.4028 32.6321 13.6909 32.7292 13.9859 32.8332V32.2439H14.864L14.5691 32.8332H14.864V32.535H15.4472C15.7696 32.2785 15.5774 31.821 16.0302 31.6476C16.2909 31.9111 16.14 32.1469 16.6133 32.237C16.8054 31.9389 17.0044 31.6477 17.1965 31.3496H18.0745V31.0514H18.3696V29.866H18.9526V30.4552C20.2011 30.3374 20.2767 29.8451 21.2919 29.5678C21.5252 28.6111 21.8338 28.5488 21.875 27.2039H24.5093V27.5019L25.3874 27.2039V26.9057C25.8264 26.7879 25.7852 27.4326 25.9704 27.495L26.8485 27.1969V27.7862H27.1436V27.1969C27.4729 26.9473 27.1847 27.2315 27.4385 26.8988L26.8554 27.1969V26.0114H27.1505V24.8259H28.6116L28.3166 25.7133H29.1947C29.6612 25.1379 30.258 24.923 30.6559 24.2366C30.9577 24.4932 31.0607 24.7497 31.239 25.124C31.534 24.9299 31.8221 24.7289 32.1171 24.5348V24.2366H32.7001L32.9951 23.6474C33.1872 23.7444 33.3862 23.8414 33.5782 23.9454C33.9693 23.6473 33.2215 23.4463 33.8732 23.3562V23.6543C34.1682 23.7514 34.4563 23.8484 34.7513 23.9524V23.3631C34.4151 23.0234 34.6347 23.3631 34.4563 22.7739C35.211 22.9125 35.7528 23.058 36.7956 23.0719C37.214 22.441 37.564 22.4758 38.2568 22.1846L37.9619 21.2972H39.1349V20.999H39.4299V21.2972H40.0131V20.7079C41.6732 20.6594 41.1038 20.2504 42.0642 19.8205H43.2372V19.5224C43.5734 19.1827 43.3538 19.5224 43.5322 18.9331H44.4103V19.5224H44.9935C45.2336 18.5726 45.3364 18.6628 46.4546 18.6351V19.2243C47.1406 18.9054 47.4082 18.5449 48.2108 18.3369V17.4495H48.7938V16.8603C50.3373 16.8672 51.1057 16.5136 52.3062 16.271C52.5189 17.089 52.3886 16.9296 53.1843 17.1584C53.0883 16.8603 52.9921 16.5691 52.8892 16.271H53.1843C53.5067 15.855 54.2064 15.4044 54.6454 15.0855V14.7874H55.5235V15.0855H55.8185V15.9728H56.1136C56.2096 14.7943 56.4153 14.6071 57.5747 14.4962V14.7943C57.9657 14.933 57.4649 14.6071 57.8696 14.4962C59.0427 14.3021 60.209 14.101 61.3821 13.9069C61.0871 12.9849 61.2174 13.4563 61.3821 12.4303C62.0955 12.2639 62.0269 12.1252 62.5551 11.841V12.1391H62.85C63.0833 12.5759 62.5551 12.7284 62.5551 12.7284L62.85 13.3177C63.5223 12.7492 63.2206 12.4303 64.3113 12.1322C64.4073 11.8341 64.5033 11.5429 64.6062 11.2448C65.4432 11.5914 65.9852 11.8063 67.2406 11.8341C67.5355 11.2448 67.8237 10.6486 68.1187 10.0593H68.7017L68.9968 10.6486L71.0479 10.0593V9.76119H73.0991L73.394 9.17193H73.9772C74.1624 8.36081 74.3612 8.49946 74.5602 7.69526C74.9512 7.79232 75.3422 7.88933 75.7332 7.99332V7.69526C76.0557 7.43182 75.7951 7.74376 76.0283 7.39712H75.7332C75.4451 6.9049 76.1518 7.14759 76.3164 7.09906V6.80092C76.6114 6.89798 76.8995 6.99507 77.1945 7.09906C77.0985 7.29318 77.0023 7.49421 76.8994 7.68832H77.1945C78.1138 6.62069 78.9164 7.68828 80.1238 7.98638C80.3227 7.59815 80.4872 7.6675 80.7068 7.39712L80.4118 6.80786H80.995V6.5098L81.578 6.21166C81.6192 5.7957 81.5163 6.26015 81.2831 5.91352L81.578 5.32425C82.5659 5.53224 82.703 5.96902 83.6292 6.21166V5.32425C84.4318 5.51144 84.2947 5.71247 85.0904 5.91352V5.0262C85.4129 5.12325 85.6666 5.55303 86.2635 5.32425V5.0262H87.1416V4.72805C87.7247 4.23583 88.3147 3.74361 88.8978 3.25139V2.66213H89.4808V2.96019C89.8855 3.04338 89.4259 2.89784 89.7757 2.66213L90.3589 2.96019L90.064 3.84759C91.6967 3.97238 92.5266 4.37449 93.5762 3.25833C93 2.92556 92.8902 2.84239 92.6981 2.07287L93.5762 1.77472C93.6723 1.96884 93.7684 2.16987 93.8713 2.36398H94.4543V1.17852C95.0923 1.30331 95.2912 1.37262 95.6274 1.76778L97.3836 1.17852L97.0887 0.589261H98.5498V0L98.6938 0.0693099ZM95.7714 4.50625V5.09551H96.0665V4.50625H95.7714ZM356.556 5.09551V5.68477H356.851V5.09551H356.556ZM96.6495 5.98291V6.57217H96.9446V5.98291H96.6495ZM92.5541 6.57217V7.16143H92.849V6.57217H92.5541ZM349.237 7.45958C349.573 7.79928 349.237 7.57738 349.82 7.75763C349.484 7.41793 349.82 7.63983 349.237 7.45958ZM326.118 7.75763C326.454 8.09734 326.118 7.87553 326.701 8.05578C326.365 7.71608 326.701 7.93788 326.118 7.75763ZM79.3828 8.64504C79.4103 9.65028 79.3829 9.71961 79.966 10.1217V9.82356H79.6709V8.6381H79.376L79.3828 8.64504ZM321.728 8.9431C322.064 9.2828 321.728 9.06099 322.311 9.24124C321.975 8.90154 322.311 9.12335 321.728 8.9431ZM289.822 9.2343V9.82356H290.117V9.2343H289.822ZM310.313 9.53244L310.018 10.1217C310.018 10.1217 310.868 9.6503 310.601 9.53244H310.306H310.313ZM340.456 9.53244H341.039C340.792 9.86521 341.073 9.57399 340.744 9.8305V10.1286C340.408 9.78894 340.627 10.1287 340.449 9.53938L340.456 9.53244ZM81.4271 9.8305C81.7632 10.1702 81.4272 9.94839 82.0103 10.1286C81.6741 9.78894 82.0102 10.0108 81.4271 9.8305ZM245.629 10.1217V10.711H245.924V10.1217H245.629ZM84.6513 11.3072V11.6053H84.3564C83.8007 11.8618 84.9395 11.9034 84.9395 11.9034C85.1865 11.5706 84.9052 11.8618 85.2345 11.6053C84.8983 11.2656 85.2344 11.4874 84.6513 11.3072ZM309.435 11.3072V11.6053H309.14C308.584 11.8618 309.723 11.9034 309.723 11.9034C309.97 11.5706 309.688 11.8618 310.018 11.6053C309.682 11.2656 310.018 11.4874 309.435 11.3072ZM384.36 11.3072V11.6053H384.065C383.509 11.8618 384.648 11.9034 384.648 11.9034C384.895 11.5706 384.614 11.8618 384.943 11.6053C384.607 11.2656 384.943 11.4874 384.36 11.3072ZM188.259 11.6053V12.1946H188.554V11.6053H188.259ZM115.968 11.8964V12.4858H116.262V11.8964H115.968ZM190.893 11.8964V12.4858H191.188V11.8964H190.893ZM245.039 11.8964C245.533 12.5342 245.623 12.4858 245.623 12.4858C245.835 12.2015 245.115 11.9658 245.039 11.8964ZM319.972 11.8964C320.466 12.5342 320.555 12.4858 320.555 12.4858C320.768 12.2015 320.047 11.9658 319.972 11.8964ZM340.751 11.8964V12.4858H341.046V11.8964H340.751ZM394.897 11.8964C395.391 12.5342 395.48 12.4858 395.48 12.4858C395.693 12.2015 394.973 11.9658 394.897 11.8964ZM73.5243 12.4926H72.9413V12.7908H73.2362V13.0889H73.5312V12.4996L73.5243 12.4926ZM77.3317 14.2674H77.9148C77.8188 13.8723 77.7226 13.4771 77.6197 13.082H77.3248V14.2674H77.3317ZM302.115 14.2674H302.698L302.403 13.082H302.108V14.2674H302.115ZM377.04 14.2674H377.624L377.329 13.082H377.034V14.2674H377.04ZM74.1143 13.6712V14.8567H74.4093V13.6712H74.1143ZM149.04 13.6712V14.8567H149.335V13.6712H149.04ZM298.898 13.6712V14.8567H299.193V13.6712H298.898ZM342.212 14.2674V15.1548H342.507C342.802 14.621 343.152 14.2743 343.68 13.9693V13.6712H343.097C342.768 14.1773 342.912 14.0733 342.219 14.2605L342.212 14.2674ZM373.823 13.6712V14.8567H374.118V13.6712H373.823ZM206.115 13.9693V14.5586H206.41V13.9693H206.115ZM281.041 14.5586H281.624V14.2605C281.295 14.0109 281.583 14.2952 281.329 13.9624H281.034V14.5517L281.041 14.5586ZM117.429 14.2674V15.1548H117.724V14.2674H117.429ZM192.354 14.2674V15.1548H192.649V14.2674H192.354ZM320.555 15.446C320.768 16.264 320.637 16.1046 321.433 16.3334C321.618 15.5222 321.817 15.6609 322.016 14.8567H321.721C321.351 15.4182 321.426 15.3489 320.548 15.446H320.555ZM323.189 14.8567V15.446C323.957 15.4252 324.184 15.3282 324.65 15.1479V14.8498H323.189V14.8567ZM168.653 15.1548V16.0422H168.948V15.7441C169.277 15.4945 168.989 15.7787 169.243 15.446L168.659 15.1479L168.653 15.1548ZM243.578 15.1548V16.0422H243.873V15.7441C244.202 15.4945 243.914 15.7787 244.168 15.446L243.585 15.1479L243.578 15.1548ZM318.504 15.1548V16.0422H318.799V15.7441C319.128 15.4945 318.84 15.7787 319.094 15.446L318.511 15.1479L318.504 15.1548ZM393.436 15.1548V16.0422H393.731V15.7441C394.06 15.4945 393.772 15.7787 394.026 15.446L393.443 15.1479L393.436 15.1548ZM205.82 15.446V16.0353H206.115V15.446H205.82ZM341.629 15.446C342.123 16.0838 342.212 16.0353 342.212 16.0353C342.425 15.7511 341.704 15.5153 341.629 15.446ZM186.798 16.0422V16.9296H186.214V17.5188L186.798 17.2208L187.093 16.3334C187.422 16.0838 187.134 16.3681 187.387 16.0353H186.804L186.798 16.0422ZM199.091 16.0422V16.6315H199.386V16.0422H199.091ZM274.016 16.0422V16.6315H274.311V16.0422H274.016ZM319.972 16.6315H319.094V17.2208H319.677C319.951 16.687 320.081 16.7563 320.26 16.0353H319.965V16.6246L319.972 16.6315ZM348.942 16.0422V16.6315H349.237V16.0422H348.942ZM162.506 17.2208V16.6315C162.177 16.8811 162.465 16.5968 162.211 16.9296H161.916C162.252 17.2693 161.916 17.0475 162.499 17.2277L162.506 17.2208ZM236.554 16.6315V17.5188H236.848C237.185 17.1791 236.848 17.401 237.431 17.2208V16.6315H236.554ZM278.112 17.2208V16.6315H277.234V16.9296H277.529C277.865 17.2693 277.529 17.0475 278.112 17.2277V17.2208ZM312.357 17.2208V16.6315C312.028 16.8811 312.316 16.5968 312.062 16.9296H311.767C312.103 17.2693 311.767 17.0475 312.35 17.2277L312.357 17.2208ZM335.482 16.6315V17.2208C335.812 16.9712 335.523 17.2554 335.777 16.9226H336.072C335.736 16.5829 336.072 16.8048 335.489 16.6246L335.482 16.6315ZM377.04 16.9296V17.5188H377.336V16.9296H377.04ZM183.285 18.1082H183.868C183.621 17.7754 183.902 18.0665 183.573 17.81V17.2208H183.278V18.1082H183.285ZM100.745 17.5188V18.1082H101.04V17.5188H100.745ZM175.677 17.5188V18.4062H175.972V17.5188H175.677ZM325.528 17.5188V18.1082H325.823V17.5188H325.528ZM382.604 17.5188C382.94 17.8585 382.721 17.5189 382.899 18.1082H382.604V17.5188ZM400.461 17.5188V18.1082H400.756V17.5188H400.461ZM59.7699 17.817V18.4062H60.065V17.817H59.7699ZM134.695 17.817V18.4062H134.99V17.817H134.695ZM284.553 17.817V18.4062H284.848V17.817H284.553ZM359.479 17.817V18.4062H359.774V17.817H359.479ZM152.847 18.1082C152.875 18.1706 153.266 19.1827 153.43 18.9955V18.6974H153.725C153.471 18.3924 153.218 18.2884 152.847 18.1082ZM228.356 19.5918H228.939V19.0024H228.356L228.651 18.4132C228.356 18.3161 228.068 18.2191 227.773 18.1151V18.4132C228.171 18.7598 228.218 18.9539 228.356 19.5986V19.5918ZM151.091 18.4062L151.386 19.2936H151.681C151.502 18.5865 151.585 18.7459 151.098 18.4062H151.091ZM226.016 18.4062C226.112 18.7043 226.208 18.9955 226.311 19.2936H226.606C226.428 18.5865 226.51 18.7459 226.023 18.4062H226.016ZM231.58 18.4062H230.997C231.244 18.739 230.962 18.4479 231.292 18.7044V19.0024H231.587V18.4132L231.58 18.4062ZM347.192 19.5918H347.775V19.0024H348.07C347.974 18.8083 347.878 18.6073 347.775 18.4132C347.446 18.6627 347.734 18.3785 347.481 18.7113H347.185V19.5986L347.192 19.5918ZM102.796 18.7044C103.132 19.0441 102.796 18.8222 103.379 19.0024C103.043 18.6627 103.379 18.8846 102.796 18.7044ZM152.552 18.7044V19.5918H152.847V18.7044H152.552ZM227.478 18.7044V19.5918H227.773V18.7044H227.478ZM233.041 18.7044H232.458C232.705 19.0371 232.424 18.7459 232.753 19.0024V19.3006H233.048V18.7113L233.041 18.7044ZM266.992 18.7044V19.5918H267.286V18.7044H266.992ZM341.924 18.7044V19.5918H342.219V18.7044H341.924ZM45.7205 18.9955V19.5848H46.0156V18.9955H45.7205ZM59.4749 18.9955V19.5848H59.7699V18.9955H59.4749ZM134.407 18.9955V19.5848H134.702V18.9955H134.407ZM154.013 19.5918V19.0024C153.684 19.252 153.972 18.9678 153.718 19.3006H153.423C153.759 19.6403 153.423 19.4184 154.006 19.5986L154.013 19.5918ZM209.333 18.9955V19.5848H209.628V18.9955H209.333ZM231.868 18.9955V20.7703H232.163V18.9955H231.868ZM269.331 18.9955V19.5848H269.626V18.9955H269.331ZM270.504 18.9955V19.5848H270.799V18.9955H270.504ZM284.258 18.9955V19.5848H284.553V18.9955H284.258ZM344.263 18.9955V19.5848H344.558V18.9955H344.263ZM345.436 18.9955V19.5848H345.731V18.9955H345.436ZM359.191 18.9955V19.5848H359.486V18.9955H359.191ZM52.1622 19.2936C52.4983 19.6333 52.1621 19.4115 52.7452 19.5918C52.409 19.2521 52.7453 19.4739 52.1622 19.2936ZM127.088 19.2936C127.424 19.6333 127.088 19.4115 127.671 19.5918C127.335 19.2521 127.671 19.4739 127.088 19.2936ZM351.871 19.2936C352.207 19.6333 351.871 19.4115 352.454 19.5918C352.118 19.2521 352.454 19.4739 351.871 19.2936ZM147.867 19.8829L148.162 20.7703H148.457C148.278 20.0632 148.361 20.2226 147.874 19.8829H147.867ZM222.799 19.8829C222.895 20.181 222.991 20.4722 223.094 20.7703H223.389C223.211 20.0632 223.293 20.2226 222.806 19.8829H222.799ZM241.822 20.181V20.7703H242.117V20.181H241.822ZM56.8406 21.6577C56.628 20.8396 56.7584 20.9991 55.9627 20.7703C56.0587 21.1655 56.1547 21.5606 56.2576 21.9558H57.1357V22.2539C57.5473 22.3094 57.0259 22.0459 57.4307 21.9558H58.6037V20.7703C58.2744 20.5207 58.5626 20.8049 58.3088 20.4722H57.7256V20.7703H58.0207C58.1167 21.3041 57.2934 21.5468 56.8475 21.6577H56.8406ZM94.8935 20.4791L94.5984 21.0684C94.5984 21.0684 95.4491 20.597 95.1815 20.4791H94.8866H94.8935ZM319.677 20.4791L319.382 21.0684C319.382 21.0684 320.232 20.597 319.965 20.4791H319.67H319.677ZM44.8424 21.9558H45.4256V21.6577C45.0963 21.4081 45.3845 21.6923 45.1306 21.3596H44.8355V21.9488L44.8424 21.9558ZM55.0846 21.3665V21.9558C55.4139 21.7062 55.1257 21.9905 55.3795 21.6577H55.6744C55.3383 21.318 55.6745 21.5398 55.0914 21.3596L55.0846 21.3665ZM119.768 21.9558H120.351V21.6577C120.022 21.4081 120.31 21.6923 120.056 21.3596H119.761V21.9488L119.768 21.9558ZM130.017 21.3665V21.9558C130.346 21.7062 130.058 21.9905 130.312 21.6577H130.607C130.271 21.318 130.607 21.5398 130.024 21.3596L130.017 21.3665ZM204.942 21.3665V21.9558C205.272 21.7062 204.983 21.9905 205.237 21.6577H205.532C205.196 21.318 205.532 21.5398 204.949 21.3596L204.942 21.3665ZM344.558 21.9558H345.141V21.6577C344.812 21.4081 345.1 21.6923 344.846 21.3596H344.551V21.9488L344.558 21.9558ZM354.8 21.3665V21.9558C355.129 21.7062 354.841 21.9905 355.095 21.6577H355.39C355.054 21.318 355.39 21.5398 354.807 21.3596L354.8 21.3665ZM50.406 23.1413V22.552L49.5279 22.8501L49.8228 24.0356H49.5279V24.3337C48.8419 24.4308 48.1627 24.5278 47.4767 24.6318V25.2211C47.8609 25.2766 49.2946 25.5816 49.5279 25.5192L49.8228 24.9299L50.7009 25.2281C50.7969 24.7358 50.8931 24.2436 50.996 23.7514H51.2909C51.6271 23.4117 51.2908 23.6335 51.8739 23.4532V24.0425H53.3352V23.4532H53.9182C53.7261 22.864 53.5273 22.2677 53.3352 21.6784H53.0403L52.7452 22.5658C52.3267 22.8639 51.0577 23.0996 50.406 23.1551V23.1413ZM83.4783 21.6577V22.545H83.7732V21.6577H83.4783ZM44.2594 22.2539V22.8432H44.5543V22.2539H44.2594ZM89.9199 22.2539V22.8432H90.2149V22.2539H89.9199ZM119.185 22.2539V22.8432H119.48V22.2539H119.185ZM194.11 22.2539V22.8432H194.405V22.2539H194.11ZM281.041 22.2539C281.377 22.5936 281.041 22.3717 281.624 22.552C281.288 22.2123 281.624 22.4342 281.041 22.2539ZM314.703 22.2539V22.8432H314.998V22.2539H314.703ZM343.968 22.2539V22.8432H344.263V22.2539H343.968ZM77.9148 22.545C78.251 22.8847 78.0314 22.5451 78.2098 23.1344H77.9148V22.545ZM152.552 22.8432C152.881 23.3493 152.737 23.2452 153.43 23.4324C153.176 23.1274 152.923 23.0234 152.552 22.8432ZM185.919 23.4324H186.502V23.1344C186.173 22.8848 186.461 23.169 186.208 22.8362H185.913V23.4255L185.919 23.4324ZM77.3317 23.1413H77.9148V23.4394C77.3249 23.273 77.661 23.4741 77.3317 23.1413ZM158.994 23.1413C159.33 23.481 159.11 23.1413 159.289 23.7306H158.994V23.1413ZM237.727 24.3198H237.143V23.1344H236.848V23.4324C236.512 23.7721 236.732 23.4324 236.554 24.0217C236.849 24.2158 237.137 24.4169 237.431 24.611C237.678 24.9438 237.397 24.6526 237.727 24.9091V24.3198ZM156.359 23.4324V24.0217H156.654V23.4324H156.359ZM60.353 24.0286V24.618H60.648V24.0286H60.353ZM135.285 24.0286V24.618H135.58V24.0286H135.285ZM199.969 24.3198C200.305 24.6595 199.969 24.4377 200.552 24.618C200.216 24.2783 200.552 24.5001 199.969 24.3198ZM96.0596 25.2072V24.618C95.7304 24.8675 96.0184 24.5833 95.7645 24.916H95.4696C95.8057 25.2557 95.4697 25.0339 96.0528 25.2142L96.0596 25.2072ZM245.917 25.2072V24.618C245.588 24.8675 245.876 24.5833 245.623 24.916H245.327C245.664 25.2557 245.327 25.0339 245.911 25.2142L245.917 25.2072ZM70.0121 25.8034V26.3927H70.307V25.8034H70.0121ZM75.8704 25.8034V26.3927H76.1655V25.8034H75.8704ZM53.9182 26.0946V26.6839H54.2133V26.0946H53.9182ZM77.3317 26.6908C77.318 27.8902 77.1945 27.9664 77.9148 28.4656V28.1675C77.4209 27.5297 78.1411 26.7394 78.4978 26.0946H78.2029C77.8736 26.6007 78.0177 26.4967 77.3248 26.6839L77.3317 26.6908ZM82.6001 26.0946C82.9363 26.4343 82.6002 26.2124 83.1833 26.3927C82.8472 26.053 83.1833 26.2749 82.6001 26.0946ZM97.8159 26.0946C97.7198 26.3927 97.6237 26.6839 97.5208 26.982H97.8159V26.6839C97.9393 26.5106 98.296 26.6423 98.1108 26.0946H97.8159ZM128.844 26.0946V26.6839H129.139V26.0946H128.844ZM227.189 26.6908C227.176 27.8902 227.052 27.9664 227.773 28.4656V28.1675C227.279 27.5297 227.999 26.7394 228.356 26.0946H228.061C227.731 26.6007 227.875 26.4967 227.183 26.6839L227.189 26.6908ZM232.458 26.0946C232.794 26.4343 232.458 26.2124 233.041 26.3927C232.705 26.053 233.041 26.2749 232.458 26.0946ZM101.623 26.3927V26.982H101.918V26.3927H101.623ZM134.407 26.982H134.99V26.6839C134.661 26.4343 134.949 26.7185 134.695 26.3858H134.4V26.975L134.407 26.982ZM176.555 26.3927V26.982H176.85V26.3927H176.555ZM202.603 26.3927C202.939 26.7324 202.72 26.3927 202.898 26.982H202.603V26.3927ZM138.208 26.6908C138.112 26.885 138.016 27.086 137.913 27.2801L138.496 27.5782C138.708 27.2246 137.878 27.3217 138.496 26.6908H138.201H138.208ZM102.206 26.982L101.911 27.8694H102.206V27.2801H102.501V26.982H102.206ZM177.139 26.982L176.844 27.5712C176.844 27.5712 177.694 27.0998 177.427 26.982H177.132H177.139ZM23.4734 28.1675H24.0566V27.8694C23.7273 27.6198 24.0153 27.904 23.7615 27.5712H23.4665V28.1606L23.4734 28.1675ZM188.259 28.1675H187.676C187.923 28.5003 187.641 28.2091 187.971 28.4656V28.7637H188.266V28.1744L188.259 28.1675ZM33.4273 28.7568V29.346H33.7223V28.7568H33.4273ZM75.5755 28.7568V29.9422H75.8704V29.6442H76.1655C76.0695 29.4501 75.9733 29.2489 75.8704 29.0548H76.1655C75.8294 28.7151 76.1654 28.937 75.5823 28.7568H75.5755ZM183.285 28.7568V29.346H183.58V28.7568H183.285ZM227.478 28.7568C227.141 29.0965 227.478 28.8746 226.895 29.0548V29.353H227.478C227.574 29.1589 227.67 28.9578 227.773 28.7637H227.478V28.7568ZM91.0861 29.6442L90.791 30.2334C90.791 30.2334 91.6417 29.762 91.3742 29.6442H91.0792H91.0861ZM79.966 30.2404V30.8296H80.2609V30.2404H79.966ZM86.4075 30.2404V30.8296H86.7024V30.2404H86.4075ZM72.6462 30.8296H73.2294C72.9893 31.2179 73.0235 31.1762 72.6462 31.4189V31.717H72.3513L72.6462 30.8296ZM82.8952 30.8296L82.6001 31.4189C82.6001 31.4189 83.4509 30.9475 83.1833 30.8296H82.8884H82.8952ZM60.353 32.0151V32.6044H60.648V32.0151H60.353ZM37.8177 33.4918V34.081H38.1128V33.4918H37.8177ZM44.2594 33.7899V34.6772H45.4324V35.2666H46.3105C46.5506 34.8783 46.5162 34.9199 46.8935 34.6772V33.7899C45.6725 34.0048 45.6657 33.8662 44.2594 33.7899ZM20.551 34.3792C20.8872 34.7189 20.5511 34.497 21.1342 34.6772C20.798 34.3375 21.1341 34.5594 20.551 34.3792ZM81.139 34.6772V35.2666H81.434V34.6772H81.139ZM8.54592 39.4054C8.44988 39.7035 8.35388 39.9947 8.25098 40.2928H8.54592V39.7034H8.84085V39.4054H8.54592ZM46.3037 39.7034V40.2928H46.5986V39.7034H46.3037Z" fill="#FDE6AD"/>
</svg>
