<svg width="453" height="51" fill="none" xmlns="http://www.w3.org/2000/svg"><path fill-rule="evenodd" clip-rule="evenodd" d="M111.288.079c1.57.337 1.802 1.202 3.627 1.343.263-.51.657-1.273 1.647-1.006v.338c.843.315.371-.338.99.338h.332v1.344l.658.337v.668h.332c.108.338.217.668.333 1.006h-1.323v1.006c-.912.243-.734.094-.989 1.005-1.153.283-1.539.85-2.97 1.006.024.88.132 1.14.333 1.674-1.129-.087-2.59-.267-2.637-.338v.668h.333c1.043.008-.99.338-.99.338-.418-.527-.882-.818-1.647-1.006-.495.911-1.145 1.43-2.312 1.673v-.667l-.658.337c-.193.511-.255.55-.332 1.344-.696.055-1.995.299-2.312.668-.402.471.294.37-.657 1.006v-1.344h-.333v1.344h-.99v-.668c-.502.196-.541.259-1.322.338v-.668l-.99.338c-.216.573-.317 1.052-.332 2.01h-1.647s-.333.535-.657.669v.338h-.333v-.668h-.657v-.338h-.333v.338h-.99v.338c-.572.518-.695 1.571-.99 2.349-1.213-.118-2.172-.59-2.968.338a51.15 51.15 0 0 1-.333 1.005c-.881.11-1.763.22-2.637.338v.338l-.657.338v.668l-.99-.338-.332.668h-.99c-.054.031-.387.503-.657.668v.338c-.55-.11-1.098-.22-1.647-.338v-.338c-.194-.024-1.13.566-1.647.668-.225.636-.426 2.05-.658 2.679l-.99-.338v-.338c-.456-.086.132.244-.332.338-.789.157-.85-.251-1.322-.338l-.657 1.006h-1.323v.338l-.99.338v1.005H75v.338h-.333c-.177.157-2.644.849-2.637 0h-.332v.668l-1.647-.338c.016 1.202-.077 2.114-.657 2.68v-.338h-.333v-1.344h-.657c-.023.88-.132 1.14-.332 1.674-.689-.205-1.346-.378-1.98.337v.668h-.332v.338l-1.98-.338c-.108.22-.217.448-.333.668-.44.11-.881.22-1.322.338v.668h-1.322v.668c-.789-.157-1.036-.385-1.647-.668v1.673c-.773.11-1.539.22-2.312.338v.338c-.967.228-1.083.37-1.322 1.344.464.023-.047-.055.332-.338.518-.385.31.825.333 1.005-.565.378-.449.213-.658 1.006.441-.11.882-.22 1.323-.338l.332-.668c.062-.007.773.315 1.322.338v-.667c.333.11.657.22.99.337l.333-.667c.402-.197.966-.181 1.322-.338v-1.344c.78-.134 1.817-.636 2.97-.338v.338h1.322v-.338h.657v-1.343h.657v.668c.99-.22 1.98-.448 2.97-.668l.332.338c.904-.645.301-1.148 1.98-1.344.378.385 0 .134.656.338v-1.006l1.648-.338v-.668c1.09.181 1.5.425 1.979 0h.333c.417-.518-.356-.675.332-1.005v.338h.333v-1.006c.726-.118 1.708-.44 2.636 0 .108.22.217.448.333.668h.657v-.668c.665.189.286-.04.657.338l.99-.338v-.338h.99c.216-.338.44-.668.657-1.006.55.11 1.098.22 1.647.338v.338c.24.047 1.214-.299 2.312-.338l-.332-1.005h.657v.337h1.322l.333.338v-.338l.99-.337c-.024-.88-.132-1.14-.333-1.674h1.98c.379-.385 0-.134.657-.338.255-1.006.2-.88 1.322-1.006.371.574.209.456.99.668.332-.84.68-1.752 1.322-1.343h.333v1.005h.657c.24-.927.093-.746.99-1.005v-.338l1.979-.338s.147.487.657.338l.333-.668h.99v-.668l.657.338v.338c.433.165.07-.157.332-.338.828-.228.534-.173.99-.668h.333v-.668l.657-.338c.387-.424.557-.974.99-1.343v.338h.989c.109.448.217.895.333 1.343h.333c.804-1.367 1.848-1.241 3.626-1.673.101-.024.085-.464.657-.338v.338c.658.22 1.323.448 1.98.668v-.338h.332l-.332-1.006c.216-.11.441-.22.657-.338.456-.7-.147-.471.657-1.006v-.337l1.647-.338c-.177.935-.255.031 0 1.006h.333v-.668c.657.11 1.322.22 1.979.337v-.337c.356-.307.062.055.333-.338h-.333v-.338h.99c.07.793.139.833.333 1.344.379-.386.131 0 .332-.668.379-.385.132 0 .333-.668.989-.338 1.979-.668 2.969-1.006l.332.338c.109-1.084.302-.982.658-1.674h.657v.338h.332v-.338h1.323l.332-1.005c.859.353 1.392.612 2.637.668-.108-.22-.216-.448-.332-.668.224-.37 1.855-.472 2.312-1.006l-.333-.668h.333v-.338c.873.393 1.244.645 2.636.668v-.338h-.332V9.476c1.044.22.665.51.99.667.386-.023 1.175-.675 1.979-.337l.333.667h.657c-.317 1.108-.309 1.972.332 3.018h-.332c-.379.385 0 .133-.657.337v1.674h-.333c-.085.558.309.581.333.668v1.673c-1.183.047-1.872.48-2.637.668l-.657-.338c-.217.338-.441.668-.658 1.006-.185.079-1.801-.251-2.312-.338-.201.88-.935 1.776-1.979 1.674 0 0-.178-.425-.657-.338l.332.668h-1.322c-.109.558-.217 1.115-.333 1.673l-1.647-.338-.332.668c-.89.228-.866-.644-.99-.668l-.99.338.333.338c.015.134-.294.754-.333 1.344-1.098.11-2.196.22-3.302.338v-.668c-.781-.071-.819-.142-1.322-.338v1.006c-.069.141-2.266 1.689-.99 2.349h-.989v-.338c-.317-.62-.333.668-.333.668-.371.283-.046-.04-.332.338.928-.315.92-.354 1.979 0v.337l.99-.337-.333-.338.333-1.006c1.547.605 2.567.197 3.627-.668.108-.22.216-.448.332-.668h1.647s-.031-.196.657-.337v1.005h.333v-.668c1.407-.023 2.188-.07 2.969-.668l.332-.667c.55.11 1.099.22 1.648.338-.379-.385 0-.134-.658-.338v-.668c.333.11.658.22.99.338v-.668h.657v.668c1.91-.158 3.279-1.25 4.617-2.012v1.006h.657v-.668h2.312v-.338h.99v-.338c.657.11 1.322.22 1.979.338.279-.377-.038-.047.333-.338v-1.343c.657-.11 1.322-.22 1.979-.338-.108.338-.216.668-.332 1.006h.332v.338c.371-.283.047.039.333-.338.379-.385.131 0 .332-.668.518.023 2.312.338 2.312.338v-.338h.333V18.51c.363-.471 1.484-.345 2.312-.338v.338l1.979-.338v-.337h.658v-.338h.989l-.332 1.005h.332c.24-.927.093-.746.99-1.005v.668c.333-.11.657-.22.99-.338v-.338c.773-.11 1.539-.22 2.312-.338v-.338h.99l.332-.668c.279-.11 2.173.354 2.637.668v-.668l.99-.338v-.338c.448-.141-.132.244.332.338.549.11.588-.322.657-.338.604-.125 1.276.44 1.648.668V15.8c1.028-.95.077-1.422 1.979-1.673v.338h.99l-.333.668c.426.542.619-.37.99 1.005.433-.353.495-.683.99-1.005v1.005h.657c-.108-.668-.216-1.343-.332-2.011 1.546-.534 1.113.26 1.979-1.674h.333c-.039.715-.341 1.148-.333 1.344l.333.338c.603-.425.038-.456.332-.668.379-.283.209.306.333.338.332-.11.657-.22.989-.338v-.668c.743-.133 1.269-.55 2.312-.338 0 0 .016.44.658.338v-.338h1.647v.338c-.789.204-.611.11-.99.668h.657c.951-1.595 2.536-1.037 4.292-1.674l.332-1.005c.944 0 1.415.117 1.98.338V9.782h.332c.217.338.441.668.658 1.006h.332l-.332.668h.332v.337c.944.692.851-.597 1.322 1.006h.658v.668h.657c-.108.338-.217.668-.333 1.006h.333c.224.502.232.557.332 1.343h.658v.668c.51.299.688.495.989 1.006 1.068-.59.627-.802 1.98-.338l-.333-1.006h.658v-.668h.657v.338h.333v-.338l.989.338-.332 1.006h.657c.24-.927.093-.746.99-1.006.495-.589.889-.636 1.979-.668v-.668c.658-.22 1.322-.447 1.98-.667.023.88.131 1.139.332 1.673.372-.283.047.04.333-.338h.332v-1.005c.99.11 1.98.22 2.97.337v-.667h.657l.332-1.006c.441.11.882.22 1.323.338.108-.22.216-.448.332-.668l1.647.338v.668c.843-.519 2.274-2.083 3.302-1.344h.657v.668h.333v-.668c1.585-.086 1.593-.236 2.969 0 .108-.558.216-1.116.332-1.673 1.524-.291 2.676-.291 3.627 0v-.668h1.98v.338h.989v.337c.333-.11.658-.22.99-.338v-.337c-.379-.385-.131 0-.332-.668 1.082.023.974.424 1.647 0l.332-.668 1.98.668v.668c.889 0 1.871.11 2.312-.338v-.668l.657.338v-.338c.657-.11 1.322-.22 1.98-.338.309.204-.117.48.332.338l.332-.668c.418 0 .843.597 1.648.338v-.338c.549-.11 1.097-.22 1.646-.338l-.332 1.006h.332c.735.81.619.471 1.648.338-.039 1.06-.642.628.332 1.005.147.833.302 1.234.332 2.35-.912.243-.734.094-.989 1.006h-.333v1.673c-.788.157-1.036.385-1.647.668v-1.006h-.332c-.487 1.878-.572.692-1.647 1.344v.338l-1.322 1.005c.108-.338.216-.668.332-1.005h-.332c-.202.534-.294.793-.333 1.673-1.245.267-1.848.652-3.627.668v-.668h-.657v.668h-1.647v.338h.333c-.209.48-.387.251-.658.668h-.657l.333-.668h-.333c-.325.455-.193.66-.99.668 0 0-.232-.48-.657-.338-.108.22-.217.448-.333.668h-.657l-.332 2.011-1.323.338V21.19h-.657c-.239 1.077-.448 1.218-1.647 1.344l.333-1.006h-.333c-.124.385-.092 1.195-.657 1.006l-.333-1.006c-.332.11-.657.22-.989.338v.668c-.526-.204-.781-.299-1.647-.338V21.19h-.333v1.006c.379.385.132 0 .333.668-.774.11-1.539.22-2.312.338v.668c-1.168.125-1.006.416-1.98.668v1.005c-.804-.188-.727-.353-1.322-.668v.668h-.333v1.006h.333v-.668h.657v.668c.549-.11 1.098-.22 1.647-.338v1.006h.657V26.21c.549.11 1.098.22 1.647.338.155-.802.379-1.053.658-1.674 1.075.008 2.381-.149 2.969.338h.333c.108-.22.216-.448.332-.668h.657v-.338h.657v-.337l.658.337v-.337h3.302a56.033 56.033 0 0 0-.333-1.006h.657v-.338h.333v.338l.99.338c.023.471.077.094-.333.338.371.353 0 .149.657.338v-.338h.333v-1.006h.332c.286-.464.248-.581.333-1.344.781-.039.835-.102 1.322-.338v.338h.333v.338l-.333.668h.99v-.668c.773-.11 1.539-.22 2.312-.338v.338h.332c.372-.267-.123-.44.333-.338v.338h1.322v.668h.333c.108-.668.216-1.344.332-2.011h.657v.668h.333v-1.006c.758.031.858.283 1.322.338l.333-.668s.904.314 1.322.338v-.668l.333.338c.44-.11.881-.22 1.322-.338v.338h1.647v-1.006h.657v.338h.333v-.338l.657.338.332-1.006c.874-.33.688.73 1.323.668v-.338c1.446-.346 1.817-.825 3.301-1.006v.338h-.332c-.626.291.657.338.657.338.278.377-.038.047.333.338v-.668l1.647-.338c.108-.22.216-.448.332-.668l.333.338c1.956.126 2.211-.699 3.302-1.343v1.005h.332c.379-.385 0-.133.657-.337v-.668c.333.11.657.22.99.338l.333-.668h1.322v-.338h.332c.201.801.109.62.658 1.006v-1.006c1.732-.283 1.461-.04 2.969.668.17-.786.479-1.257.99-1.674.378.385 0 .134.657.338v-.668h.99v-.668c.549.11 1.098.22 1.647.338v.668h.657v-1.006c.719.048 1.098.338 1.322.338v-.338l.99-.337c.108.22.216.447.332.667 1.052.315 2.629-.699 3.302-1.005l-.332-1.006h.99c.201.801.108.62.657 1.006.278.377-.039.047.332.338.023-.88.132-1.14.333-1.674.657-.11 1.322-.22 1.979-.338.279.377-.038.047.333.338-.255.338-.402.33-.658.668h.99l-.332-1.006.332-.338c.487.157.526.385 1.322.338v-.338h.333v.338c.441.11.882.22 1.322.338v.338c1.346.518 1.957-.244 2.637.338 1.028.691.155.432.657 1.343l.658.338v.668h.332c.302.456.248.59.333 1.343l-1.323-.337c.263 1.084.611 1.155.658 2.679-.372.283-.047-.04-.333.338h-.332c-.101-1.006-.047-.912-.658-1.344v.338h.333c-.217.448-.441.896-.657 1.344-.859.015-1.137.07-1.648.337v.338c-.564.197-.572-.314-.657-.338-1.183-.306-1.933.425-2.312 1.006h-.332c-.109.668-.217 1.344-.333 2.011h-.657l-.333-.667c-.44.11-.881.22-1.322.338.07.793.139.832.333 1.343-.766-.031-.843-.267-1.323-.338l-.332.668c-.441.11-.882.22-1.322.338-.24.927-.093.746-.99 1.006-1.16 1.06-2.134-.425-2.312-.338v.338c-.549.338-1.098.668-1.647 1.005.178 1.171.325.621 0 1.674h.332v-.338h1.323v.668l.989-.338v-.338l.99.338V25.92c.333.11.657.22.99.338v-.338l-.333-.338h1.98c.108.338.216.668.332 1.006.217-.11.658-.668.658-.668.332.11.657.22.99.338v-.338c.487-.259.549-.251 1.322-.338v-.667h.657v-.668h1.322v.668c.743-.087.874-.032 1.323-.338v-.338h.657v-.338h.657v-.338c.588-.479.789-.754 1.647-1.005v1.005h1.322c.109-.558.217-1.115.333-1.673h.657a47.21 47.21 0 0 1-.332 1.005h.332c.472-.479 1.84-.856 2.637-1.005v-.668c.441-.11.881-.22 1.322-.338v-1.006h.658v1.006h.657v-1.006h1.647c-.108.338-.217.668-.333 1.006h.657c.341-.385.611-.644 1.323-.668v.338h.332l.333-.338c.309-.605.456-.526.657-1.344l.99-.337v-.338l.332.338.99-.338v1.006h.657c.07-.794.139-.833.333-1.344l.657.338v-.338c.472-.416.51-.927.99-1.344.1.158.673 1.218.99 1.006l.332-1.006c1.431-.11 2.861-.22 4.292-.337v.337c-.913.244-.735.095-.99 1.006.82-.15 1.214-.306 2.312-.338v-.337h-.333v-1.674c.549.11 1.098.22 1.647.338.109-.338.217-.668.333-1.006.379.385.131 0 .333.668l.989.338v-.338c.681-.377.596-.519 1.647-.668v-1.006c.704-.039 1.129-.345 1.322-.337l.333.337v-.667l1.647-.338v.668c.217-.11.441-.22.657-.338v-.338c.526-.063.41.581.658.668h1.322c.108-.558.216-1.116.332-1.674.549.11 1.098.22 1.647.338l.333-.668h.332v.338c.333-.11.658-.22.99-.338v-.668c.379.385.132 0 .333.668h.657c.154-.801.379-1.053.657-1.673 1.098.015 2.969.337 2.969.337v-.337h.658v-.338h.989c.109-.22.217-.448.333-.668.332.11.657.22.99.338v.338h1.647v-.668l1.322-.338v.668h.657c.209.919.433.762.658 1.673h.989c.24.927.093.747.99 1.006v.668c-1.972.408-1.709 1.343-2.312 3.017h1.98l.332-1.344c1.376-.212.936-.33 2.312-.667v.667c1.562-.667 1.33-.667 2.637 0v-.667c.441-.11.881-.22 1.322-.338v-.668h.657v.338h.333v-.338c.75-.15.889.173 1.322.338v-.338h-.332c-.611-.322.657-.338.657-.338v-.668h.657v-.668c1.036.197 1.469.542 2.637.668l.332-1.006s-.703-.055-.332-.337h.657v.337h1.98V9.138c1.051.22.649.495.99.668.549-.055.61-.66.657-.668.634-.181.456.22.657.338h.332v-.338c.441.11.882.22 1.323.338.24-.928.093-.747.99-1.006v.668h1.322c.309-.605.456-.527.657-1.344l.99.338v-.338c.216-.11.441-.22.657-.338v.668h.657l-.332-1.006c.789-.157 1.036-.385 1.647-.667v1.343c1.716-.456 1.175-.738 3.302-.338V6.451h.989v.338c-.139.196-.541.047-.332.667h.332c.534-2.074.704-.565 1.98-1.343.75-.456-.023-1.234 1.647-1.674v.338l.99-.338v.668h.332V4.44c1.168.126 1.005.417 1.98.668v.668c.309.526 2.358.62 1.322 1.673h.657v1.344l-.657.338c-.015.11.309.746.333 1.343h.657c-.155.802-.379 1.053-.657 1.674-.588.031-1.191.354-1.323.338v-.338h-1.322v.338l-1.979.338v.668c-.441.22-.882.447-1.323.667v-.338h-.332v1.006l-2.312.668c.379.385 0 .134.657.338v.338c.58.275 1.059-.197 1.322-.338v-.338h.99v-.668c1.539-.078 1.879-.487 2.969-1.006v-.337h2.312v.337h-.332c-.379.386 0 .134-.657.338v.668c1.345-.393.348-.306.989-1.006l.658.338v-.338h.657v-.337h.99c.348-.205.819-1.658 1.647-1.344v.338h.657v-1.006c.332.11.657.22.99.338v-.338c.657-.11 1.322-.22 1.979-.338v.668h.657c.109.338.217.668.333 1.006h.333v-.668h.657c.193-1.25.193-.77 0-2.011.1.039 3.178.73 3.302.668v-.338h.332V9.114h.333c.672.613 1.5.094 2.636 0v-.668c.665.189.287-.039.658.338 1.214-.353.904-.676 1.647-1.343v-.338c.835-.527 2.606-.024 3.959 0 .209-.92.433-.762.657-1.674 1.415-.055 1.129-.212 1.979-.668v1.006h1.323c.069-.794.139-.833.332-1.343l.99.337.333-.668h.657v-.337c.332-.11.657-.22.99-.338l.332 1.006c.835-.684.139-.81 1.647-1.006v.338c-.379.306-.387.243-.657.668h.332v.337c.689-.369.588-.542 1.647-.668.279.378-.038.048.333.338-.387.637-.279.322-.99.668v.338h.657c-.108.668-.216 1.344-.332 2.011h.332v.338h-.332v.668c.108.786.216 1.564.332 2.35h-.332c-.278.384-.17.47-.657.667v-.338h-.333c-.216.338-.441.668-.657 1.006h-.99l-.332.668c-.441.11-.882.22-1.323.338a47.21 47.21 0 0 1-.332 1.005l-.99.338-.333.668h-.332v-.338c-1.214-.29-1.593 1.14-2.312.338v.668h-.657c.108.448.216.896.332 1.344h-.332c-.371.573-.209.455-.99.668-.031-.071-.472-1.218-.657-1.006v.338l-.658.337c-.108.338-.216.668-.332 1.006h-.99c-1.106.55-.433.888-2.312 1.006.108.338.217.668.333 1.006.44-.11.881-.22 1.322-.338v1.005h.332v-.338h1.323c1.005-.384 1.469-.934 2.969-1.005v-.668c.936-.212.874-.62.99-.668h1.322v.338l1.322-.338s.147.417.658.338v-.338l1.322.338v-.338c.379-.385.131 0 .332-.668h-.332v.338c-.286.637-.333-.668-.333-.668 1.206.11 2.421.22 3.627.338l.332-.668c.333-.102.603.519 1.323.338v-.338h1.647v.338h.332v-.338h1.322l.333-1.005h.332l-.332-.668h.99c.378.385 0 .133.657.338v-.668c.789.157 1.036.385 1.647.668v-.338h-.333c-.61-.322.658-.338.658-.338v.338c.379.385.131 0 .332.668.704-.04 1.121-.338 1.322-.338v.338h.658c.093-.598.332-.668.332-.668a49.015 49.015 0 0 0-.332-1.006h.332v-.338c.936.425 1.361.864 2.637 1.006v-.668c1.925-.448.186-.848 1.98 0v-1.343h.332v.337c.441-.337.882-.667 1.322-1.005v1.343h.333c.162-.157-.093-.542.332-.338v.338h.333s-.093 1.202.332.668v-.338c.379-.385.132 0 .333-.668h-.99c.255-1.005.201-.88 1.322-1.005v.338l.99-.338v.338h.99v.337c.85.181 1.809-1.045 2.312-1.343l.99.338v-.338c.549-.362.549-.456 1.322-.668-.108.338-.217.668-.333 1.006h.333v.338c.332-.22.657-.448.99-.668v-.338h.657c.595-.267.719-.762.99-1.344l1.647 1.344c.201-.66.015-.817.657-1.006.108.04.1.629.657.668.704-.95.294-.676 1.322-.338.109-1.084.302-.982.658-1.673 1.152.18.611.33 1.647 0v2.011h.332c.372-.574.209-.456.99-.668.619 1.053 1.222.95 1.322 2.68.905.039 2.39.463 2.637 0h.333v.337c.912.22 1.948.935 2.312 1.674v1.006h.332c.456.62.766.777.99 1.673a49.41 49.41 0 0 1-.99-.338v.338h.333v1.006h.332c.302.495.294.825.333 1.673-.379.385-.132 0-.333.668-1.098.11-2.196.22-3.302.338v-.668c-.44.11-.881.22-1.322.338v-.668c-.216.11-.441.22-.657.338-.109-.22-.217-.448-.333-.668-.007 0-.974.456-1.647 0l-.332-1.006c-.387-.275-.565.982-1.323.668v-.337c-.378-.386-.131 0-.332-.669l-.99.338v-.338h-.332c.108-.337.216-.667.332-1.005 0 0-.41-.102-.332-.668 0 0 .549-.15.332-.668h-.332c-.379.385 0 .134-.658.338-.108.338-.216.668-.332 1.006-.773-.095-.82-.11-1.322-.338v-.338c-.557.04-.557.636-.658.668-.75.267-1.329-.417-1.647-.338v.338c-1.121.456-1.368 1.045-2.636 1.343.108-.337.216-.667.332-1.005h-.657c-.487.911-1.013 1.532-2.312 1.673v-1.006h-.333c-.255 1.006-.201.88-1.322 1.006v-.668c-1.376.763-1.562.684-3.302.338v-.668h-.332c-.023 1.297.054 1.383-.99 1.674v.338c-.317.62-.333-.668-.333-.668h-.657c-.108.22-.216.448-.332.668-.549-.11-1.098-.22-1.647-.338v.668h-.99v.338c-.379.385-.131 0-.332.668l-1.98.337v-.667l-3.302.337v.668h-.99v.338c-.293.629-.332-.668-.332-.668-1.059.26-.712.503-1.98.668v1.006c-1.948-.204-1.801-1.187-3.959-1.344-.007 1.116-.17 1.517-.332 2.35h-.657c.1-.291.634-.74.332-1.344h-.332v.338c-.379.385-.132 0-.333.668l-1.979.338v.667c-1.106-.204-2.08-.919-3.302-.338-.217.338-.441.668-.658 1.006-.897.267-1.02-.903-1.322-1.006-.595-.204-.239.378-.332.668-.333-.11-.658-.22-.99-.337v1.343h-.657l-.333.668c-.541.165-.611-.33-.657-.338-.797-.141-.858.338-1.322.338v-.338c-.658-.11-1.323-.22-1.98-.338v.668c-2.188.236-3.302.29-4.949 0l-.332 1.006c-.619-.165-1.578-.142-2.637-.338v-.338c.379-.385.132 0 .333-.668-.789.032-.82.22-1.323.338v-.338c-.549-.361-.541-.48-1.322-.668v-.668h-.657a49.458 49.458 0 0 0-.333-1.005l-1.979-.338v-.668c.263.11 1.036.684 1.647.338v-.338c-.975-.644-.804-1.336-.657-2.35.44-.22.448-.526.657-.667.216.11.441.22.657.338v-1.344h.332c-.108-.668-.216-1.343-.332-2.011a50.33 50.33 0 0 1-.99-.338c.109.22.217.448.333.668l-.99-.338v.668h-.333c-.108.22-.216.448-.332.668h-.99c.078.778.364.204 0 1.006l-.657-.338v.667c-.356.59-.333-.667-.333-.667-.549.11-1.098.22-1.647.337 0 0-.154-.502-.657-.337-.108.22-.216.447-.332.667h-.99c-.108.338-.217.668-.333 1.006-.51-.275-1.461-1.21-2.312-1.006-.108.22-.216.448-.332.668-.634-.063-.549-.652-.657-.668h-.333v.338h-1.647v.338h.657c-.108.668-.216 1.344-.332 2.011h-.658c-.301-.133-.216-1.02-1.322-.667l-.332.668h-1.647v-.338c-.48-.268-.557-.236-1.323-.338v1.006a49.33 49.33 0 0 1-.989-.338v.338c-.379.385-.132 0-.333.667-1.229.354-.889.692-1.647 1.344v.338h-.99V25.22h-.657v.668h-1.647v-.338h-.332c-.217.448-.441.896-.658 1.344l-.657-.338v.338l-.99.668v-1.006h-.332v.338l-.99-.338v.338c-.464-.024.132-.283-.332-.338l-1.98.338V27.9h-.332v-.337c-.897-.488-1.617.47-1.98.667-.186-1.053-.325-1.406-1.322-1.673.185.817.348.738.657 1.343h-.657c-.526.495-1.941.37-2.97.338v-.668h-.657v.668c-.657-.11-1.322-.22-1.979-.338-.163-.793-.31-.793-.658-1.343.449-.393.325.251.658-.338-.433-.275-.387-.236-.658-.668h.658c.069-.793.139-.833.332-1.343-.935-.22-1.245-.621-1.647-1.344h.99c.217-.896.441-1.791.657-2.68-.433-.274-.386-.235-.657-.667-.704.408-.719.754-1.647 1.006v-.668h-.333v1.005c-1.283.11-1.484.543-2.312 1.006-.069-.793-.139-.833-.332-1.343-.371.282-.047-.04-.333.337h-.332l.332.338-.332 1.006c-1.4-.244-1.585-.055-3.302 0l.333 1.006h-.333c-.271.44-.232.393-.657.668v-1.344c-1.678.094-1.454.597-3.302.668-.247 1.139-.704 1.548-1.979 1.673v-.668h-.333v.338c-.286.637-.333-.667-.333-.667a49.33 49.33 0 0 1-.989-.338l.332.668h-.657c-.526.495-.812 1.155-.99 2.011h-.99v-.668c-2.118.079-2.652 1.226-4.291 1.674.209-.92.433-.763.657-1.674-2.111.471-3.611 1.949-4.949-.338 1.485-.88.704-1.25.333-2.68h-1.322c-.279-.376.038-.046-.333-.337.101-.29.634-.739.333-1.344h-.333v-.337h-.99c-.556.927-1.415.675-1.979 1.343l-.333 1.006h-.989v.338c-.333.11-.658.22-.99.338v-.668c-1.029.228-1.5 1.006-2.312 1.343h-1.322v.338c-.333-.11-.658-.22-.99-.338v.668l-1.98.338v.338h-1.322c-.108.023-.085.463-.657.338v-.338h-.658v-.338l-2.312-.338c-.239.472-.595 1.014-.989 1.344v-1.344h-.333v.668a50.33 50.33 0 0 1-.99-.338c-.154.786-.549 1.037-.657 1.674h.333c.108.338.216.668.332 1.005-1.879.024-2.072-.353-3.302-.667-.487.911-1.013 1.532-2.312 1.673v-.668h-.657v1.344h-.657v.338h-2.312v.338h-.657v.337c-.217-.11-.441-.22-.658-.337v.337h-.332c-.487-.4.278-.243-.333-.667.039 1.06.642.628-.332 1.005v-.668c-1.856.228-1.067.833-1.98 1.344h-.657c-.108.338-.217.668-.333 1.006h-1.647v-.338c.82-.613.426-.26.333-1.344h-.657v1.006c-2.869.008-3.372.581-5.939.668v-.668c-.441.22-.882.448-1.322.668.108.448.216.896.332 1.343-.858-.055-1.129-.07-1.647-.337v-.338l-.99.337c-.054-.007-.115-.47-.657-.337v.337h-.657v.338h-.657v.338c-.456.307-.58.236-1.323.338v-1.006h-.332v.338h-1.647c-.224.102-.016.432-.99.668-.108.338-.216.668-.332 1.006h.332c.487.408-1.198.33-1.322.338v-.338c-1.322-.22-2.637-.448-3.959-.668.178-.935.255-.032 0-1.006-.356.189-.688.904-1.322.668v-.338h-.333l.333-.668h-.333c-.379-.385 0-.133-.657-.337a49.27 49.27 0 0 0-.333-1.006h.658a56.566 56.566 0 0 0-.333-1.006h.333v.338c.286.636.332-.668.332-.668h.333v-.338c-.217-.11-.441-.22-.658-.337.109-.338.217-.668.333-1.006h-.333v-.338h.99v-.338c-.433-.275-.386-.236-.657-.668.564-.377.448-.212.657-1.006l1.322-.337c.039-.024.511-1.242.658-1.006v.668h.989c.31-.605.456-.527.658-1.344-.449-.393-.503-.613-.658-1.343h.658v-.668h.657v-.338c-.657.11-1.322.22-1.98.338v-.338c-.433.024-.827.574-1.647.338v-.338c-.657-.11-1.322-.22-1.979-.338v1.344h-.658v.668c-.332-.22-.657-.448-.989-.668v-.668l-.333.338c-.379.385-.131 0-.332.668h-1.322v.667c-.658-.11-1.323-.22-1.98-.338-.108.558-.216 1.116-.332 1.674-.805.189-.727.346-1.323.668v-.338c-.34-.29-.456-.581-.657-1.006-.379.385-.131 0-.332.668-.658.11-1.323.22-1.98.338v.668c-.781.07-.82.141-1.322.338v-.668h.332l-.332-1.006h-.333v.668c-.216-.11-.441-.22-.657-.338-.379.267-.132.794-.99.668-.108-.22-.216-.448-.332-.668h-.333v.668l-.99.338c-.17-.047-.201-.849-.657-.668-.332.448-.657.896-.99 1.344-.332-.11-.657-.22-.989-.338v.668h-.658v.667c-.371-.282-.046.04-.332-.337-.356-.307-.062.055-.333-.338h.333v-.338h-.99v.338h-.332v-.338h-.99c-.109-.22-.217-.448-.333-.668-.216.11-.44.22-.657.338-.448.134.139.361-.332.338v-.338h-.658c-.007 1.037.093 1.729.333 2.35h-1.322v.667h-.333V29.22h-.657l-.333 1.006c-.371-.283-.046.04-.332-.338h-.333l.333-1.006c-.333.11-.658.22-.99.338v.338h-.657c-.108.22-.217.448-.333.668h-1.322v.338h-.333c-.162-.15.093-.542-.332-.338l-.332.668-1.648.338v-.668h-.332l-.332.668h-.333l-.333-.668c-.456-.212-.927-.165-1.322-.338-.023 1.296.054 1.383-.99 1.674v-.668h-.657v.668h-1.647l-.657 1.673h-.657v-.338c-.109-.016-.758.299-1.323.338.186-.817.348-.739.658-1.343h-.658l-.332 1.005-2.312-.338c-.348.173-.24.755 0 1.006h-.657c-.286.346-.573.464-.99.668v-1.006c-1.477.126-.959.212-2.312 0v.338c.379.385.131 0 .332.668h-1.647c-.085-.016-.108-.432-.657-.338v.338h-.657c-.109.338-.217.668-.333 1.006-.371-.283-.046.039-.332-.338-.371-.283-.047.04-.333-.338.433-.275.387-.236.657-.668h-1.322c-.294.354-.58.44-.99.668v.338l-.989-.338v.338c.433.275.386.236.657.668h-.657c-.387-.456-.603-.511-1.323-.668v.668c-.618-.236-1.291-.33-2.312-.338-.363-.7-.533-.597-.657-1.674h-.657v-.668c-.371.283-.047-.039-.333.338h-.332v.668l-.657.338v1.006h-.333c-.332-.448-.657-.896-.99-1.344h-.332c-.433-.746.178-.935-.658-1.673.109-.448.217-.896.333-1.344 0 0-.425-.165-.333-.668h.333v-1.673s.201 0 .333-.668c.912-.244.734-.095.989-1.006h.658v.338l.989-.338v-.668l1.647.338c.24-.927.093-.746.99-1.006v-1.343h.333l-.333-.668h.333c.278-.377-.039-.047.332-.338v-.338c.317-.62.333.668.333.668l.989.338v-.338h-.332c.108-.338.216-.668.332-1.006h1.98v.338c.773-.11 1.539-.22 2.312-.338v-.667h1.322v-.668c-1.129-.016-2.281-.228-2.969-.338-.217.338-.441.668-.657 1.006l-1.98.337c.186-.817.348-.738.657-1.343h-1.322v.338h.333c.379.526-.812.314-.99.338v1.005h-.333v.338c-.549.11-1.098.22-1.647.338.109-.558.217-1.116.333-1.674-.804.189-.735.346-1.322.668v.338c-.658-.22-1.323-.448-1.98-.668v.338c-.379.385-.131 0-.332.668-.542.102-1.439.7-1.647.668v-.338h-.99c-.456-.094.124-.44-.333-.338l-.332.668h-.657l.332-.668h-.332c-.379.385-.001.134-.658.338v.668c-.549.11-1.098.22-1.647.338-.062-.016-.108-.48-.657-.338v.338h-.657v.337c-.325-.07-.387-.903-.658-.667-.541.455.364.644-.989 1.005v1.006h-.333v-.668h-.332c-.109.22-.217.448-.333.668h-1.322c-.395-.73-.727-1.108-1.647-1.343v.337h-1.322l-.333.668-.99-.338v1.006h-.657c-.812 1.406-.735.393-1.647 1.006.108.22.217.448.333.668-.658-.11-1.323-.22-1.98-.338-.031.008-.17.581-.657.668v-.338h-1.323l-.332-.338v.338c-.936.613-.966.966-2.637 1.005-.371-.573-.209-.455-.989-.667v.667h-.658v-.337c-.417-.134-.866.95-.99 1.005-.68.307-.943-.29-1.322-.337v.337c-.657.11-1.322.22-1.979.338l-.333-1.006c-.912.244-.734.095-.99 1.006-.989.11-1.979.22-2.969.338l-.332.668h-2.312v.338c-.859.259-1.539.031-2.312.338-.186-.818-.348-.739-.658-1.344-.371.283-.046-.04-.332.338-1.16.833-.078 1.194-1.647 1.673v.338h-1.647l-.333.668c-.734.299-.928-.416-1.322-.338v.338c-.657.134-.418-.15-.657-.338h-.333v.668a51.67 51.67 0 0 1-.99-.338v-.338l-.989.338v-.338h-1.323l-.332-.667c-.464 0-.155-.103-.333.337-.41-.385-.123 0-.332-.667h1.322v-.668h-1.322c-.309-.605-.456-.527-.657-1.344h.657c-.193-1.383-.356-1.603-.99-3.017-.433.173.093.134-.332.338h-.99v.338c.665.188.286-.04.657.338-.943-.032-1.415-.063-1.979-.338v.338c.379.385.131 0 .332.668-1.616 0-1.879.384-2.969.667v-1.005h-.333v.337h-.332l-.658-.337v1.005h-.989v-.668h-.333v.668h.333v1.006c-1.098-.008-1.492-.173-2.312-.338v.668c-.781-.04-.835-.102-1.323-.338v.338c-.378.385-.131 0-.332.668-1.74-.197-.758-.723-2.312-.338v-.668c-.526-.078-.418.574-.657.668-1.238.471-2.258.189-3.302 0v1.006l-.657-.338v.338c-.665.573.031.51-.333 1.005h-.332c-.797-1.21-3.086-.204-4.617 0v1.006c-.618-.173-1.801-1.202-2.312-1.006v.338h-.332v1.006c-.99.11-1.98.22-2.97.338v.668h.333c-.108.337-.217.668-.333 1.005-.781-.039-.835-.102-1.322-.337v.337h-.332v-1.005h-.658v1.005h-.332v-.337h-1.322v.337l-.658-.337v.337c-.726.228-1.09.102-1.646.338v1.006c-1.648.251-1.632.298-2.97-.668l-.332 1.006h-1.323v.338c-.44.11-.881.22-1.322.338v-.668h-.657c-.201 1.178-.356 1.54-1.647 1.673v-.338c.379-.385.131 0 .332-.667-.44-.11-.881-.22-1.322-.338v-.338c-.626-.197-.456.188-.657.338l-.99-.338v.338h.333v1.343h-.658v-.668c-.904.535-.595.825-1.98 1.006-.239.927-.092.746-.989 1.006-.89 1.068-1.925.809-3.302.667v-.667h1.322a50.498 50.498 0 0 0-.332-1.006c-.503.196-.541.26-1.322.338-.054-.912-.109-2.02-.658-2.35v-.337c.24-.354.256.29.658-.338h-.658c-.587-.354.658-.338.658-.338-.186-.817-.348-.739-.658-1.344h.99c.27.44.232.393.657.668-.804-1.76-1.214-3.386 1.647-3.355.38.385 0 .134.658.338.108-.558.216-1.115.332-1.673h-.657v.668h-.657l.332-1.006h-.332c-.248.636.232.346-.333.668-.433-.393.395-.511-.332-.668v.668l-.657-.338v.338h.332c-.216.448-.44.895-.657 1.343h-.333V32.56h-.332v.337h-.99c-.217.338-.44.668-.657 1.006h-.657v.338h-.99v.338h-.658v.338c-1.33.479-2.327-.464-2.969 0-.897.589-1.044 1.854-1.322 2.011h-2.97c-.378-.385 0-.133-.657-.338v-.668h-.332c.108.448.216.896.332 1.344h-.332c-.627.55-1.748.354-2.637.668v.338c-.487.157-1.291-.362-1.322-.338v.668h-1.647c-.333.785-.658 1.563-.99 2.349h-.332v-1.006h-.658c-.07.794-.139.833-.332 1.344-.372-.283-.047.039-.333-.338-.379-.385-.131 0-.332-.668.564-.377.448-.212.657-1.006h-.99v2.012c-.549-.11-1.098-.22-1.647-.338v-.338c.38-.385.132 0 .333-.668h-.658l.333-.668h-.333c-.379.385 0 .134-.657.338-.085.652-.325.652-.332.668-.526 1.65.293 2.145-1.647 2.35v-.669c-.457.165-.727.134-1.323.338v.338a50.33 50.33 0 0 1-.99-.338v.338h-.657l.333.668h-1.98v.338c.38.385.132 0 .333.668-.534-.024-2.312-.338-2.312-.338-.108.22-.217.448-.333.668-.897.495-1.051.086-1.647 0v.338h-.657l-.333.667c-.549.11-1.098.22-1.647.338v.338c-.44-.11-.881-.22-1.322-.338-.549.11-1.098.22-1.647.338v.338c-.982.283-1.337-.534-1.98-.668v.338c-.378.385-.13 0-.332.668h-1.322l-.333-.338c-.17.079-.093.597-.657.668v-.338l-.99-.338v.338c-.332.11-.657.22-.99.338v-.668c-.595.314-.518.464-1.322.668v.668h-.332v-1.006c-1.856-.024-3.271-.801-3.96-2.011l.658-.338c.023-.472-.325.141-.332-.338.108-.558.216-1.116.332-1.674h.657c-.727-2.09.812-3.253.99-5.366a19.566 19.566 0 0 1 3.627-.338v-1.006h.99c.224-.982.363-1.1 1.322-1.343v-.668c1.925-.448.185-.849 1.98 0v-.668c.734-.141 1.128-.322 1.646-.668v-.338c.657-.063.232.511.657 0 .38-.385.132 0 .333-.668h.657c.38-1.359.673-.667 1.322-1.673.658.22 1.323.448 1.98.668v-.338h.332v-1.343c-1.894.039-2.42.274-3.959 0-.185 1.052-.324 1.406-1.322 1.673v-.668h-.657v1.006c-.673.361-1.3.99-2.312 1.006l-.333-.338c-1.19.911.109 1.563-2.312 1.673l.333-1.343h-.657v.338h.332c.023.117-.564 1.21-.657 1.673h-.657v-.668h-.658v.668l-.332-.338c-.657.22-1.322.448-1.98.668-.108.22-.216.448-.332.668-.433.188.07-.251-.333-.338-.332.11-.657.22-.99.338v-.338h-.99v-.338h-.332v.338s-.912-.306-1.322-.338c-.216.558-.44 1.116-.657 1.674-.286-.102-.727-.644-1.322-.338v.338h-.333v1.005h-.333V35.9h-.332v1.343c.054.472.348-.141.332.338l-.332.338c-.572-.29-.116-.04-.332-.668h-.333v.668l-1.647.338.332-.668h-.332c-.51.581-.595.33-1.322.668v.338c-.487.188-1.26.086-1.322-.338h-.333v1.006h-.333v-.338h-.332v.668h-.657v.668c-.836-.268-2.042-.024-3.627 0-.108.785-.216 1.563-.332 2.349h-.658v-.668c-.502.196-.54.26-1.322.338v1.005c-.657.22-1.322.448-1.98.668v.338h-.657v.338c-1.616.62-1.995-.519-2.969 1.006h-.332l.332.338c-.108.337-.216.667-.332 1.005-.441-.11-.882-.22-1.323-.338v1.006c-1.168.126-1.005.416-1.98.668v-.668H9.22v1.006c-.657.11-1.322.22-1.98.338l-.332 1.005H6.25A51.11 51.11 0 0 1 5.917 51h-.332v-1.006h-.333l-.332.668-.99-.338v-.337c-.642-.166-.44.188-.657.337l-1.322-.337.332-.338v-.338h-.332v-1.006h.332v-.338h-.657c-.008-1.115-.17-1.516-.333-2.35H.636c-.588-.353.657-.337.657-.337.109-.338.217-.668.333-1.006 1.701.079 1.631.637 1.647-1.343.549-.11 1.098-.22 1.647-.338v-1.344l.99-.337c.379-.385 0-.134.657-.338v.668h.657v-.668c.333.11.658.22.99.338v-.668h-.333l.333-1.006h.332V38.9h.99c-.007-.471.07-.094-.332-.338v-.338h.99v-.337h.332l.332.667c1.098.22 2.197.448 3.302.668.031-1.257.302-1.54.658-2.349.332.11.657.22.99.338v-.668h.989l-.332.668h.332v-.338h.657c.364-.29.147-.81.657-1.006.294.299.124.566.658.668.216-.338.44-.668.657-1.005h.99v-.338h.332v-1.344h.658v.668c1.407-.134 1.492-.691 2.637-1.006.262-1.084.61-1.155.657-2.679h2.969v.338l.99-.338v-.338c.495-.133.448.597.657.668l.99-.338v.668h.332v-.668c.371-.283.047.04.333-.338l-.657.338V29.48h.332v-1.344h1.647l-.332 1.006h.99c.525-.652 1.198-.896 1.646-1.674.34.29.457.582.658 1.006.332-.22.657-.448.99-.668v-.338h.657l.332-.668c.217.11.44.22.657.338.441-.338-.402-.566.333-.668v.338c.332.11.657.22.99.338v-.668c-.38-.385-.132 0-.333-.668.85.158 1.462.323 2.637.338.472-.715.866-.675 1.647-1.006l-.332-1.005h1.322v-.338h.332v.338h.658v-.668c1.87-.055 1.23-.519 2.312-1.006h1.322v-.338c.379-.385.131 0 .332-.668h.99v.668h.657c.271-1.076.387-.974 1.647-1.005v.668c.774-.362 1.075-.77 1.98-1.006v-1.006h.657v-.668c1.74.008 2.606-.393 3.96-.668.239.928.092.747.989 1.006a50.293 50.293 0 0 0-.333-1.006h.333c.364-.471 1.152-.982 1.647-1.343v-.338h.99v.338h.332v1.006h.333c.108-1.336.34-1.548 1.647-1.674v.338c.44.157-.124-.212.332-.338 1.322-.22 2.637-.448 3.96-.668-.333-1.045-.186-.51 0-1.673.803-.189.726-.346 1.322-.668v.338h.332c.263.495-.332.668-.332.668l.332.667c.758-.644.418-1.005 1.647-1.343.108-.338.217-.668.333-1.006.943.393 1.554.636 2.969.668.333-.668.657-1.344.99-2.011h.657l.332.667 2.313-.667v-.338h2.312l.332-.668h.657c.21-.92.433-.762.657-1.674.441.11.882.22 1.323.338v-.338c.363-.298.07.055.332-.338h-.332c-.325-.557.471-.282.657-.337v-.338c.333.11.657.22.99.338-.108.22-.217.447-.333.667h.333c1.036-1.21 1.94 0 3.302.338.224-.44.41-.361.657-.668l-.333-.667h.658v-.338l.657-.338c.046-.472-.07.055-.333-.338l.333-.668c1.113.236 1.268.73 2.312 1.006V6.034c.905.212.75.44 1.647.668V5.696c.364.11.65.597 1.322.338v-.338h.99v-.338c.657-.557 1.322-1.115 1.98-1.673v-.668h.657v.338c.456.094-.062-.07.332-.338l.658.338-.333 1.006c1.84.141 2.776.597 3.959-.668-.649-.377-.773-.472-.99-1.344l.99-.338c.108.22.217.448.333.668h.657V1.336c.719.141.943.22 1.322.667l1.98-.667-.333-.668h1.647V0l.162.079Zm-3.294 5.028v.668h.333v-.668h-.333Zm293.953.668v.668h.332v-.668h-.332ZM108.984 6.78v.667h.333V6.78h-.333Zm-4.616.667v.668h.332v-.668h-.332Zm289.328 1.006c.379.385 0 .134.657.338-.379-.385 0-.134-.657-.338Zm-26.059.338c.379.385 0 .134.658.338-.379-.385 0-.134-.658-.338ZM89.522 9.798c.03 1.139 0 1.218.657 1.673v-.338h-.333V9.79h-.332l.008.008Zm273.167.338c.378.385 0 .133.657.337-.379-.385 0-.133-.657-.338Zm-35.964.33v.667h.332v-.667h-.332Zm23.096.337-.332.668s.959-.534.657-.668h-.332.007Zm33.977 0h.658c-.279.378.038.047-.333.338v.338c-.379-.385-.131 0-.332-.668l.007-.008Zm-291.972.338c.379.385 0 .134.657.338-.379-.385 0-.133-.657-.338Zm185.086.33v.668h.332v-.668h-.332ZM95.46 12.815v.338h-.332c-.627.29.657.338.657.338.278-.378-.039-.048.332-.338-.379-.385 0-.134-.657-.338Zm253.372 0v.338h-.333c-.626.29.658.338.658.338.278-.378-.039-.048.332-.338-.379-.385 0-.134-.657-.338Zm84.455 0v.338h-.333c-.626.29.657.338.657.338.279-.378-.038-.048.333-.338-.379-.385 0-.134-.657-.338Zm-221.043.338v.667h.333v-.667h-.333Zm-81.485.33v.667h.333v-.667h-.333Zm84.455 0v.667h.332v-.667h-.332Zm61.033 0c.556.723.657.667.657.667.24-.322-.572-.589-.657-.667Zm84.462 0c.557.723.657.667.657.667.24-.322-.572-.589-.657-.667Zm23.422 0v.667h.332v-.667h-.332Zm61.033 0c.556.723.657.667.657.667.24-.322-.572-.589-.657-.667Zm-362.246.675h-.657v.338h.332v.338h.333v-.668l-.008-.008Zm4.291 2.012h.658a84.348 84.348 0 0 0-.333-1.344h-.332v1.344h.008Zm253.372 0h.657l-.332-1.344h-.333v1.344h.008Zm84.455 0h.657l-.332-1.344h-.333v1.344h.008Zm-341.453-.676v1.344h.332v-1.344h-.332Zm84.455 0v1.344h.332v-1.344h-.332Zm168.917 0v1.344h.332v-1.344h-.332Zm48.823.676v1.005h.332c.333-.605.727-.997 1.323-1.343v-.338h-.658c-.371.574-.209.456-.99.668l-.007.008Zm35.631-.676v1.344h.333v-1.344h-.333Zm-189.037.338v.668h.333v-.668h-.333Zm84.455.668h.657v-.338c-.371-.283-.046.04-.332-.338h-.333v.668l.008.008Zm-184.421-.33v1.005h.333V16.17h-.333Zm84.455 0v1.005h.332V16.17h-.332Zm144.505 1.335c.24.928.093.747.99 1.006.209-.92.433-.762.657-1.673h-.332c-.418.636-.333.557-1.322.667h.007Zm2.969-.667v.667c.866-.023 1.122-.133 1.648-.337v-.338h-1.648v.008Zm-174.19.337v1.006h.332v-.338c.372-.282.047.04.333-.338l-.657-.337-.008.008Zm84.455 0v1.006h.332v-.338c.371-.282.046.04.333-.338l-.658-.337-.007.008Zm84.454 0v1.006h.333v-.338c.371-.282.046.04.332-.338l-.657-.337-.008.008Zm84.463 0v1.006h.332v-.338c.371-.282.046.04.333-.338l-.658-.337-.007.008Zm-211.477.33v.668h.332v-.668h-.332Zm153.081 0c.556.723.657.668.657.668.239-.322-.572-.589-.657-.668Zm-174.524.676v1.006h-.657v.668l.657-.338.333-1.006c.371-.283.046.04.332-.338h-.657l-.008.008Zm13.857 0v.668h.333v-.668h-.333Zm84.455 0v.668h.332v-.668h-.332Zm51.8.668h-.99v.668h.657c.31-.605.457-.526.658-1.344h-.333v.668l.008.008Zm32.654-.668v.668h.333v-.668h-.333Zm-210.147 1.336v-.668c-.371.283-.046-.04-.332.338h-.332c.378.385-.001.133.657.338l.007-.008Zm83.466-.668v1.006h.332c.379-.385 0-.134.657-.338v-.668h-.989Zm46.843.668v-.668h-.99v.338h.333c.379.385 0 .133.657.338v-.008Zm38.601 0v-.668c-.371.283-.047-.04-.333.338h-.332c.379.385 0 .133.657.338l.008-.008Zm26.066-.668v.668c.371-.283.047.04.333-.338h.332c-.379-.385 0-.133-.657-.338l-.008.008Zm46.844.338v.668h.332v-.668h-.332Zm-218.398 1.336h.658c-.279-.378.038-.048-.333-.338v-.668h-.332v1.006h.007Zm-93.037-.668v.668h.332v-.668h-.332Zm84.462 0v1.005h.333v-1.005h-.333Zm168.909 0v.668h.333v-.668h-.333Zm64.335 0c.379.385.131 0 .332.668h-.332v-.668Zm20.128 0v.668h.332v-.668h-.332Zm-384.02.338v.667h.332v-.667h-.333Zm84.454 0v.667h.332v-.667h-.332Zm168.917 0v.667h.332v-.667h-.332Zm84.455 0v.667h.332v-.667h-.332Zm-232.912.33c.031.07.472 1.217.657 1.005v-.338h.333c-.286-.345-.572-.463-.99-.667Zm85.112 1.681h.657v-.668h-.657l.333-.668c-.333-.11-.658-.22-.99-.337v.337c.448.393.502.613.657 1.344v-.008ZM170.35 20.86l.332 1.006h.333c-.202-.801-.109-.62-.658-1.006h-.007Zm84.454 0c.109.338.217.668.333 1.006h.332c-.201-.801-.108-.62-.657-1.006h-.008Zm6.271 0h-.657c.278.378-.039.048.333.338v.338h.332v-.668l-.008-.008Zm130.317 1.344h.657v-.668h.332c-.108-.22-.216-.448-.332-.668-.371.283-.046-.039-.333.338h-.332v1.006l.008-.008Zm-275.479-1.006c.378.385 0 .134.657.338-.379-.385 0-.133-.657-.338Zm56.084 0v1.006h.332v-1.006h-.332Zm84.454 0v1.006h.333v-1.006h-.333Zm6.271 0h-.657c.278.377-.038.047.333.338v.338h.332v-.668l-.008-.008Zm38.269 0v1.006h.332v-1.006h-.332Zm84.462 0v1.006h.332v-1.006h-.332Zm-333.875.33v.668h.333v-.668h-.333Zm15.504 0v.668h.332v-.668h-.332Zm84.462 0v.668h.333v-.668h-.333Zm22.1.676v-.668c-.371.283-.047-.04-.333.338h-.332c.379.385 0 .134.657.338l.008-.008Zm62.355-.676v.668h.332v-.668h-.332Zm25.401 0v2.012h.333v-2.012h-.333Zm42.227 0v.668h.333v-.668h-.333Zm1.323 0v.668h.332v-.668h-.332Zm15.503 0v.668h.333v-.668h-.333Zm67.637 0v.668h.332v-.668h-.332Zm1.322 0v.668h.333v-.668h-.333Zm15.504 0v.668h.332v-.668h-.332Zm-346.077.338c.379.385 0 .134.657.338-.379-.385 0-.134-.657-.338Zm84.455 0c.378.385-.001.134.657.338-.379-.385 0-.134-.657-.338Zm253.371 0c.379.385 0 .134.658.338-.379-.385-.001-.134-.658-.338Zm-229.95.668.333 1.006h.332c-.201-.802-.108-.621-.657-1.006h-.008Zm84.463 0c.108.338.216.668.332 1.006h.333c-.201-.802-.108-.621-.657-1.006h-.008Zm21.442.338v.668h.333v-.668h-.333ZM64.112 24.545c-.24-.927-.092-.746-.99-1.005.109.448.217.895.333 1.343h.99v.338c.464.063-.124-.236.332-.338H66.1V23.54c-.371-.283-.047.039-.333-.338h-.657v.338h.332c.109.605-.82.88-1.322 1.005h-.008Zm42.893-1.335-.333.668s.959-.535.658-.668h-.333.008Zm253.371 0-.332.668s.959-.535.657-.668h-.332.007ZM50.588 24.883h.657v-.338c-.37-.283-.046.04-.332-.338h-.333v.668l.008.008Zm11.545-.668v.668c.371-.283.046.04.332-.338h.333c-.379-.385 0-.133-.657-.338l-.008.008Zm72.91.668h.657v-.338c-.371-.283-.046.04-.332-.338h-.333v.668l.008.008Zm11.552-.668v.668c.371-.283.047.04.333-.338h.332c-.379-.385 0-.133-.657-.338l-.008.008Zm84.455 0v.668c.371-.283.046.04.332-.338h.333c-.379-.385 0-.133-.657-.338l-.008.008Zm157.372.668h.658v-.338c-.372-.283-.047.04-.333-.338h-.332v.668l.007.008Zm11.545-.668v.668c.371-.283.046.04.332-.338h.333c-.379-.385 0-.133-.657-.338l-.008.008ZM56.859 26.227v-.668l-.99.338.333 1.343h-.332v.338c-.774.11-1.54.22-2.313.338v.668c.433.063 2.05.408 2.313.338l.332-.668.99.338c.108-.558.216-1.116.332-1.674h.333c.379-.385 0-.133.657-.338v.668h1.647v-.668h.657c-.216-.667-.44-1.343-.657-2.011h-.332l-.333 1.006c-.472.338-1.902.605-2.637.667v-.015Zm37.279-1.682v1.006h.332v-1.006h-.332Zm-44.207.676v.668h.333v-.668h-.333Zm51.468 0v.668h.332v-.668h-.332Zm32.987 0v.668h.332v-.668h-.332Zm84.454 0v.668h.333v-.668h-.333Zm97.987 0c.379.385 0 .134.657.338-.379-.385 0-.134-.657-.338Zm37.943 0v.668h.333v-.668h-.333Zm32.987 0v.668h.333v-.668h-.333Zm-299.89.33c.379.385.131 0 .332.668h-.332v-.668Zm84.13.338c.371.573.208.456.989.668-.286-.346-.572-.464-.989-.668Zm37.611.668h.657v-.338c-.371-.283-.046.04-.333-.338h-.332v.668l.008.008Zm-122.398-.33h.657v.338c-.665-.189-.286.039-.657-.338Zm92.048 0c.378.385.131 0 .332.668h-.332v-.668Zm88.746 1.335h-.658V26.22h-.332v.338c-.379.385-.131 0-.332.668.332.22.657.447.989.667.278.378-.038.048.333.338v-.668Zm-91.716-1.005v.668h.333v-.668h-.333Zm-108.217.675v.668h.333v-.668h-.332Zm84.463 0v.668h.332v-.668h-.332Zm72.91.33c.379.386 0 .134.657.338-.379-.385 0-.133-.657-.337Zm-117.125 1.006V27.9c-.371.283-.046-.039-.332.338h-.333c.379.385 0 .134.658.338l.007-.008Zm168.917 0V27.9c-.371.283-.046-.039-.332.338h-.333c.379.385 0 .134.658.338l.007-.008Zm-198.277.676v.668h.332v-.668h-.332Zm6.603 0v.668h.333v-.668h-.333Zm-24.744.33v.668h.333v-.668h-.333Zm26.392.676c-.016 1.359-.155 1.445.657 2.011v-.338c-.557-.723.255-1.618.657-2.35h-.332c-.372.575-.21.457-.99.669l.008.008Zm5.938-.676c.379.385 0 .133.657.338-.379-.385 0-.134-.657-.338Zm17.151 0c-.108.338-.217.668-.333 1.006h.333v-.338c.139-.197.541-.047.332-.668h-.332Zm34.974 0v.668h.333v-.668h-.333Zm110.854.676c-.016 1.359-.155 1.445.657 2.011v-.338c-.557-.723.255-1.618.657-2.35h-.332c-.372.575-.209.457-.99.669l.008.008Zm5.938-.676c.379.385 0 .133.657.338-.379-.385 0-.134-.657-.338Zm-147.475.338v.668h.333v-.668h-.333Zm36.954.668h.657v-.338c-.371-.283-.046.039-.332-.338h-.333v.668l.008.008Zm47.509-.668v.668h.332v-.668h-.332Zm29.36 0c.379.385.132 0 .333.668h-.333v-.668Zm-72.585.338c-.108.22-.217.448-.333.667l.658.338c.239-.4-.696-.29 0-1.005h-.333.008Zm-40.58.33-.333 1.005h.333v-.668h.332v-.337h-.332Zm84.462 0-.332.667s.958-.534.657-.667h-.333.008ZM26.501 31.923h.658v-.338c-.371-.283-.047.04-.333-.338h-.332v.668l.007.008Zm185.743 0h-.657c.279.377-.038.047.333.338v.338h.332v-.668l-.008-.008Zm-174.523.668v.668h.333v-.668h-.333Zm47.509 0v1.343h.332v-.337h.333c-.108-.22-.217-.448-.333-.668h.333c-.379-.385 0-.134-.657-.338h-.008Zm121.408 0v.668h.333v-.668h-.333Zm49.813 0c-.379.385 0 .133-.657.338v.338h.657c.108-.22.217-.448.333-.668h-.333v-.008Zm-153.738 1.006-.332.668s.959-.535.657-.668h-.333.008Zm-12.534.675v.668h.332v-.668h-.332Zm7.26 0v.668h.333v-.668h-.332Zm-15.51.668h.656c-.27.44-.232.393-.657.668v.338h-.332l.332-1.006Zm11.552 0-.333.668s.959-.534.657-.668h-.332.008Zm-25.41 1.344v.668h.333v-.668h-.332Zm-25.4 1.673v.668h.332v-.668h-.333Zm7.26.338v1.006h1.322v.668h.99c.27-.44.232-.393.657-.668v-1.006c-1.376.244-1.384.087-2.969 0Zm-26.724.668c.38.385 0 .134.658.338-.38-.385 0-.134-.658-.338Zm68.294.338v.668h.332V39.3h-.332ZM9.675 44.659a50.74 50.74 0 0 1-.332 1.006h.332v-.668h.333v-.338h-.333Zm42.56.338v.668h.333v-.668h-.333Z" fill="#FDE6AD"/></svg>