<svg width="27" height="25" viewBox="0 0 27 25" fill="none" xmlns="http://www.w3.org/2000/svg">
<g clip-path="url(#clip0_1416_1291)">
<path d="M14.8111 22.6346C14.8111 20.7091 14.3568 14.5582 14.8111 13.4705C15.2669 12.3821 17.1421 11.8812 18.8722 11.4622C20.6015 11.044 25.7919 9.2027 26.3386 6.35795C26.8853 3.5132 21.1482 1.58771 17.0512 5.10263C12.9535 8.61605 13.7735 12.2987 13.3177 12.2987C12.8626 12.2987 13.6826 8.61605 9.58486 5.10263C5.48714 1.58771 -0.249111 3.51324 0.297589 6.35799C0.843473 9.20274 6.03384 11.044 7.76314 11.4623C9.49326 11.8812 11.3684 12.2987 11.8242 13.3871C12.2793 14.4747 11.8242 20.7091 11.8242 22.6346H14.8111V22.6346Z" fill="#0D8352"/>
</g>
<defs>
<clipPath id="clip0_1416_1291">
<rect width="26.1135" height="24" fill="white" transform="translate(0.26123 0.918945)"/>
</clipPath>
</defs>
</svg>
