<svg width="146" height="151" viewBox="0 0 146 151" fill="none" xmlns="http://www.w3.org/2000/svg">
<path d="M58.3074 126.664C57.7334 126.236 57.3369 125.756 57.2012 124.994C56.8777 123.304 56.9612 120.424 54.9263 117.481C52.8914 114.539 53.2254 114.946 51.3053 112.389C49.3852 109.833 48.9051 108.048 48.6025 105.075C48.2999 102.09 47.1938 99.4505 44.8458 97.0819C42.4979 94.7133 40.5987 94.9219 37.1446 95.7358C33.6905 96.5497 34.7445 99.6383 35.4541 103.708C35.8506 106.337 36.2575 108.612 38.4907 110.845C40.7239 113.078 42.4666 115.906 43.1344 117.471C44.178 119.923 47.5381 124.097 48.7277 125.224C50.0217 126.434 52.1923 128.834 51.7122 130.858C51.6183 131.234 51.514 131.516 51.3992 131.735C54.5402 132.006 57.2534 129.742 58.3074 126.684V126.664Z" fill="#FFDBB0"/>
<path d="M58.306 126.664C57.2416 129.731 54.5389 131.985 51.3979 131.714C50.8865 132.684 50.1978 132.611 50.1039 135.314C49.9578 139.655 53.5789 139.289 56.4486 136.681C58.4522 134.855 62.5428 129.314 60.1114 127.791C59.4122 127.352 58.8069 127.029 58.3165 126.653L58.306 126.664Z" fill="#003F67"/>
<path d="M20.1462 130.889C18.6018 132.036 18.2992 130.628 16.2643 133.09C13.5929 136.346 16.7026 138.84 20.5115 139.017C23.1829 139.142 29.705 137.974 28.6615 134.927C28.2232 133.654 27.8058 132.683 27.7536 131.796C24.9987 132.913 22.5673 132.287 20.1358 130.889H20.1462Z" fill="#003F67"/>
<path d="M34.5766 99.3874C34.0966 95.7458 24.4752 97.5093 22.649 104.365C21.7516 107.725 21.2403 111.377 20.8542 113.109C20.2385 115.822 21.1359 120.611 21.3863 123.981C21.522 125.818 21.7725 129.658 20.1863 130.858C20.1759 130.858 20.1654 130.879 20.1445 130.889C22.576 132.287 24.997 132.913 27.7624 131.797C27.7415 131.369 27.8041 130.952 28.0024 130.524C28.7433 128.959 30.5068 126.799 30.6112 122.948C30.7155 119.098 30.7468 119.682 30.726 116.218C30.7051 112.764 31.3625 111.011 32.8756 108.465C34.3887 105.919 35.0671 103.019 34.587 99.3771L34.5766 99.3874Z" fill="#FFDBB0"/>
<path d="M22.546 72.6959C24.7479 71.5168 32.6161 72.4245 37.2285 72.3306C41.7053 72.2367 43.8758 73.1758 48.8326 72.4558C52.7145 71.8924 51.2744 76.1392 54.8329 85.3215C57.1913 91.3839 63.9637 100.243 61.5114 102.017C59.0591 103.79 53.2049 105.919 50.1057 104.75C47.0064 103.582 46.015 103.237 42.1331 104.719C38.752 106.013 33.4092 103.884 29.1307 103.102C25.5618 102.455 23.2556 102.528 20.3755 102.945C14.8552 103.759 10.9211 101.599 10.0863 100.785C8.86532 99.6063 9.36622 94.4203 14.5839 88.191C19.8015 81.9616 19.7389 75.1897 22.546 72.6854V72.6959Z" fill="#A2A2A2"/>
<path d="M23.2322 32.1058C22.4495 30.3945 15.0614 21.8696 15.1136 21.0349C15.1657 20.1897 15.2701 17.028 14.7275 15.9324C13.7778 14.0229 12.5673 16.4333 11.7116 15.9846C10.8559 15.5359 9.50974 13.7412 8.53926 13.3238C7.56877 12.896 7.34966 14.2316 6.80702 15.0037C6.26439 15.7759 4.9913 14.096 4.47997 14.9829C4.1356 15.5881 4.65732 17.1637 3.64509 17.5289C2.6433 17.8941 2.51809 18.228 2.9355 19.2506C3.35291 20.2731 3.94771 20.6383 3.7077 21.5461C3.46769 22.4539 3.70776 22.6313 4.35475 23.1948C5.00174 23.7583 7.2662 24.2382 9.17586 24.7912C11.0855 25.3443 12.8595 32.2936 16.7101 37.25C17.9728 38.8673 24.8288 35.6639 23.2113 32.1162L23.2322 32.1058Z" fill="#FFDBB0"/>
<path d="M55.2362 34.7877C56.6659 33.5669 67.4143 28.3705 67.7169 27.5879C68.03 26.8054 69.2614 23.8838 70.2214 23.122C71.891 21.7969 71.9745 24.489 72.9346 24.4368C73.8946 24.3846 75.8773 23.3307 76.9313 23.362C77.9853 23.3829 77.6304 24.6872 77.7974 25.6159C77.9643 26.5446 79.8323 25.5637 79.9158 26.5758C79.9784 27.2749 78.8409 28.4853 79.5923 29.2366C80.3541 29.9879 80.3123 30.3531 79.5088 31.094C78.7053 31.8452 78.0061 31.9183 77.8392 32.8469C77.6722 33.7652 77.38 33.8278 76.5556 34.0678C75.7313 34.3077 73.4772 33.786 71.5154 33.4834C69.5535 33.1808 63.3132 39.8171 57.7303 42.6762C55.9041 43.6153 52.2831 37.3129 55.2362 34.7877Z" fill="#FFDBB0"/>
<path d="M50.7096 53.7157C50.0731 50.5958 55.1133 47.9663 61.4684 43.4273C64.2755 41.4239 62.6476 39.0448 61.1971 37.2397C57.8578 33.0659 57.5551 31.4694 54.915 33.3372C53.068 34.6415 51.127 35.3824 47.2972 36.1858C43.0709 37.0728 41.7144 36.5615 37.1646 36.1858C34.9941 36.0085 28.2215 35.7684 24.8404 31.6573C22.9203 29.32 23.223 28.4956 19.4976 30.5199C15.6678 32.5963 13.2155 34.0781 13.132 34.7354C12.9025 36.5197 14.4364 37.8762 16.8261 41.2882C20.635 46.7246 21.8351 47.7993 21.5116 50.8775C21.3134 52.7557 21.042 56.0217 19.435 63.1379C17.7966 70.4003 18.308 73.4889 21.5116 74.2506C28.2215 75.8262 51.4609 75.701 53.0471 73.6768C56.4908 70.0665 51.5862 58.046 50.7096 53.7261V53.7157Z" fill="#EE8084"/>
<path d="M44.5303 34.4646C41.9319 37.261 38.5717 38.2314 36.0151 37.741C33.4584 37.2402 31.2148 36.0089 29.2947 34.2142C27.8234 32.4612 26.9364 30.0404 26.832 29.0491C26.7381 28.1413 26.8737 27.1187 27.1868 26.1692C27.9173 23.9675 26.2476 23.6754 28.8356 19.439C29.6182 18.1555 34.0428 12.4062 41.0032 13.3975C47.1183 14.2635 49.9671 28.6109 44.5303 34.4541V34.4646Z" fill="#FFDBB0"/>
<path d="M27.4194 17.0185C27.7846 16.0585 29.7465 14.0134 32.0318 13.5647C34.8493 13.0117 35.2041 11.1439 38.1469 11.1543C42.248 11.1752 45.9316 12.8448 47.1526 13.9299C49.7614 16.2464 49.8031 18.1558 50.6066 19.888C52.0571 23.0183 51.3476 29.3833 46.0569 33.9118C45.1177 34.7153 44.8881 35.8318 44.3142 33.5153C43.855 30.698 45.483 30.7398 46.4221 29.6233C47.3926 28.4755 46.7038 25.9191 45.0029 26.7017C43.5941 27.3486 36.4459 21.2758 35.2354 19.5749C33.6284 17.3107 25.8646 26.3364 27.4403 17.0185H27.4194Z" fill="#003F67"/>
<path d="M7.35947 21.6616C6.82727 22.2042 6.00289 22.2669 5.54374 21.8077L4.57326 20.8478C4.11411 20.3887 4.17673 19.5748 4.70893 19.0322L13.4642 10.2359C13.9964 9.69334 14.8208 9.63078 15.2799 10.0899L16.2504 11.0498C16.7095 11.509 16.6469 12.3228 16.1147 12.8654L7.35947 21.6616Z" fill="#E2C2BC"/>
<path d="M24.3621 6.53138C23.2664 10.4652 17.9653 18.531 15.033 15.6198L10.7023 11.3104C7.78041 8.39916 15.8156 3.05675 19.7498 1.94027L23.183 0.95943C23.6317 0.834216 24.1639 1.01158 24.4769 1.32461L24.9465 1.79417C25.2596 2.1072 25.4474 2.63935 25.3222 3.08803L24.3621 6.52094V6.53138Z" fill="#E2C2BC"/>
<path d="M6.73384 21.6822L4.69894 19.6579C4.1563 19.1257 3.27974 19.1257 2.74754 19.6579L1.24485 21.1709C0.712653 21.7135 0.712653 22.59 1.24485 23.1221L3.27975 25.1464C3.82239 25.6786 4.69895 25.6786 5.23115 25.1464L6.73384 23.6334C7.26604 23.0908 7.26604 22.2143 6.73384 21.6822ZM4.7511 24.0717C4.42761 24.3951 3.88502 24.4056 3.56153 24.0717L2.31972 22.83C1.99623 22.5065 1.98579 21.9639 2.31972 21.6405L3.23803 20.7222C3.56153 20.3988 4.10412 20.3883 4.42761 20.7222L5.66942 21.9639C5.99291 22.2874 6.00335 22.8299 5.66942 23.1534L4.7511 24.0717Z" fill="#E2C2BC"/>
<path d="M15.5315 12.4063C16.4081 11.5298 16.7525 10.4551 16.3037 10.0168C15.855 9.5786 14.7906 9.92295 13.9141 10.8099C13.768 10.956 13.6428 11.102 13.528 11.2586L12.0879 12.709L13.6323 14.2532L15.0724 12.8028C15.2185 12.688 15.375 12.5628 15.5211 12.4168L15.5315 12.4063Z" fill="#E2E5D8"/>
<path d="M48.6452 18.4997C49.167 17.644 49.9078 15.8702 50.6279 15.1606C51.3479 14.4511 52.1202 13.6685 53.2054 13.4598C54.896 13.1363 55.7725 13.2407 56.6386 13.7728C57.4108 14.2528 58.517 16.4545 58.4961 17.9884C58.7048 19.9918 60.0614 20.6178 60.9693 21.0352C62.2633 21.63 64.5277 21.2752 64.2564 22.2351C63.4738 25.0211 61.9189 25.4385 60.2701 25.1672C54.9794 24.2907 57.9326 19.4178 54.6977 18.7187C51.4627 18.0196 51.2019 18.4788 48.6348 18.4997H48.6452Z" fill="#003F67"/>
<path d="M109.485 138.026C111.624 138.84 114.483 140.05 115.861 140.259C117.238 140.478 116.685 140.478 115.496 142.2C115.162 142.69 114.64 143.671 114.546 144.861C114.452 146.05 112.135 145.737 109.485 145.195C106.824 144.652 104.643 142.868 105.665 142.356C106.678 141.845 107.335 141.605 108.097 140.207C108.89 138.767 108.295 137.577 109.485 138.037V138.026Z" fill="#A2A2A2"/>
<path d="M114.804 144.287C114.825 143.838 110.463 145.904 107.249 144.099C105.579 143.16 106.059 142.106 105.819 142.169C104.734 142.461 104.118 142.461 102.386 143.849C98.9216 146.603 101.708 149.191 105.621 149.608C108.366 149.901 115.368 149.275 114.877 146.395C114.742 145.57 114.783 144.903 114.804 144.287Z" fill="#003F67"/>
<path d="M114.282 89.3814C117.715 88.3275 123.173 89.9553 127.681 90.6022C132.032 91.2178 132.314 92.5117 131.855 96.6959C131.187 102.831 132.356 108.247 128.255 113.235C126.272 115.655 123.413 115.958 121.18 125.245C120.376 128.594 119.739 143.244 115.868 142.482C112.633 141.846 109.649 141.929 106.873 141.668C104.441 141.439 107.436 128.26 107.635 124.525C108 117.784 109.304 110.365 109.889 104.918C110.963 95.0577 110.963 90.3935 114.282 89.3814Z" fill="#E2C2BC"/>
<path d="M108.03 63.9731C106.152 64.4009 98.9721 68.8043 98.1373 68.5852C97.3025 68.3661 95.518 68.1469 94.0049 68.9921C92.5127 69.8268 93.0135 70.8182 92.0848 71.6529C90.9682 72.6546 90.3212 74.8041 90.9786 75.5032C91.6361 76.2023 90.5299 76.891 91.3126 77.5797C91.8448 78.0492 92.544 77.6214 92.7005 78.7066C92.857 79.7814 93.4623 80.397 94.5684 80.1883C95.6745 79.9796 95.445 79.6561 96.3007 80.0735C97.1564 80.4909 97.3859 80.2926 98.0851 79.7604C98.7843 79.2283 99.7235 77.0684 100.673 75.2736C101.623 73.4893 107.613 75.1276 112.642 71.1938C115.71 68.7939 111.912 63.0862 108.03 63.9627V63.9731Z" fill="#FFDBB0"/>
<path d="M126.148 67.6561C124.291 70.7134 120.983 70.9429 116.35 72.2785C111.716 73.6141 111.038 73.9063 109.984 71.5586C108.648 68.5743 108.273 65.9344 107.709 64.1188C106.718 60.9363 108.742 60.3207 111.059 59.6946C114.983 58.6199 114.91 56.533 115.974 55.3226C119.219 51.6288 127.359 65.684 126.159 67.6561H126.148Z" fill="#A2A2A2"/>
<path d="M134.881 138.173C137.062 137.453 140.025 136.587 141.236 135.877C142.436 135.168 142.018 135.522 142.175 137.609C142.227 138.204 142.436 139.289 143.125 140.27C143.803 141.251 141.81 142.472 139.41 143.724C137.01 144.976 134.192 144.976 134.651 143.933C135.11 142.9 135.465 142.294 135.183 140.729C134.891 139.112 133.67 138.569 134.881 138.162V138.173Z" fill="#A2A2A2"/>
<path d="M142.971 139.665C142.699 139.31 140.633 143.661 136.991 144.298C135.113 144.621 134.81 143.505 134.664 143.703C134.006 144.611 133.537 145.008 133.067 147.178C132.128 151.498 135.916 151.748 139.214 149.599C141.53 148.096 146.55 143.181 144.358 141.262C143.732 140.708 143.346 140.166 142.971 139.665Z" fill="#003F67"/>
<path d="M115.575 92.3447C118.424 89.7778 124.57 88.6196 129.308 87.0336C133.879 85.5101 134.787 86.5118 136.373 90.4248C138.71 96.1741 142.509 100.4 140.923 106.765C140.161 109.854 137.51 111.481 139.848 120.758C140.693 124.107 147.226 137.359 143.051 138.527C139.566 139.508 136.686 141.011 133.837 142.096C131.333 143.056 127.837 129.982 126.209 126.57C123.277 120.434 120.929 113.255 118.852 108.153C115.085 98.9184 112.82 94.7968 115.575 92.3238V92.3447Z" fill="#E2C2BC"/>
<path d="M144.9 74.2196C144.764 64.1504 140.538 58.808 134.204 53.9038C131.282 51.65 124.645 50.6274 122.015 50.8361C119.626 51.0344 116.86 53.4447 115.316 56.2828C114.356 58.0463 111.632 64.8182 111.194 67.3329C110.662 70.3381 108.522 87.7323 107.27 94.9425C105.663 104.229 107.061 104.25 117.205 104.25C125.24 104.25 147.415 108.069 144.889 100.254C143.345 95.485 144.931 77.2248 144.889 74.2301L144.9 74.2196Z" fill="#A2A2A2"/>
<path d="M133.023 48.2907C130.623 51.4001 127.273 52.7357 124.612 52.5061C121.951 52.2662 119.541 51.2436 117.391 49.6367C115.722 48.0089 114.574 45.6508 114.376 44.6595C114.198 43.7517 114.24 42.6978 114.469 41.7065C115.002 39.3901 113.269 39.2753 115.523 34.705C116.202 33.3172 120.198 27.0253 127.42 27.307C133.764 27.547 138.043 41.8005 133.023 48.3011V48.2907Z" fill="#FFDBB0"/>
<path d="M117.267 34.1412C115.253 34.6003 115.473 36.1967 114.784 34.8924C113.177 31.8142 118.384 26.138 120.367 26.0023C122.12 25.8875 123.56 21.8703 131.313 23.9676C133.233 24.4893 136.552 25.2615 138.378 28.0788C141.456 32.8369 143.575 35.9463 141.248 42.0922C140.152 44.9825 137.585 47.6955 132.618 49.6154C129.445 50.8363 129.905 52.2971 128.078 52.2032C127.609 52.1823 126.795 51.3475 126.43 50.3562C126.012 49.2293 126.294 46.7564 126.983 46.3807C129.185 45.7651 129.508 43.8347 129.038 43.1669C128.506 42.4052 127.014 42.833 126.19 43.4487C122.047 46.5059 124.04 37.9184 121.64 37.3132C116.61 36.0506 118.353 33.7238 117.267 34.1516V34.1412Z" fill="#003F67"/>
<path d="M105.518 95.84C105.414 95.84 105.31 95.8191 105.216 95.7878C104.767 95.6209 104.548 95.12 104.715 94.6714C105.32 93.0958 105.696 91.1549 105.936 88.3898C106.155 85.9273 105.383 81.1066 102.388 78.6649C99.6747 76.4528 95.104 74.7416 91.1803 77.2041C88.1645 79.1032 84.606 84.383 83.8756 88.0663C83.7817 88.5359 83.333 88.8385 82.8634 88.7446C82.3938 88.6507 82.0911 88.202 82.1851 87.7324C82.9364 83.9969 86.4322 78.1536 90.262 75.7433C94.9683 72.7903 100.322 74.752 103.473 77.3189C107.021 80.2092 107.919 85.6038 107.658 88.5359C107.397 91.468 106.99 93.5444 106.332 95.2765C106.197 95.6208 105.873 95.8296 105.529 95.8296L105.518 95.84Z" fill="#E2C2BC"/>
<path d="M85.1054 87.7009C88.163 87.5757 98.7027 90.1738 102.887 90.6016C106.55 90.9773 107.301 91.1442 106.393 94.3059C105.037 99.0431 103.566 109.843 100.665 111.877C97.7739 113.912 94.3094 114.549 89.4883 113.203C85.2307 112.013 82.434 110.427 82.3401 104.584C82.2462 98.7405 81.9227 93.0538 82.1836 88.6713C82.2879 86.9809 82.9141 87.7948 85.0951 87.7009H85.1054Z" fill="#E2C2BC"/>
<path d="M82.4239 89.2146C81.7456 87.2634 83.2691 85.6148 86.5875 85.5313C89.2277 85.4687 94.2784 85.9069 97.8159 86.7104C101.98 87.6495 105.987 89.9555 106.561 91.1555C107.072 92.2302 106.811 93.618 105.277 94.1188C103.524 94.6927 97.5968 94.8388 91.513 93.1798C87.6623 92.1363 82.8413 90.3937 82.4239 89.2146Z" fill="#A2A2A2"/>
<path d="M105.193 92.3546C105.109 92.3546 105.015 92.3233 104.953 92.2503C104.233 91.4781 101.77 90.3303 98.7751 90.3303H98.6603C95.728 90.3303 94.8723 90.2051 91.2095 88.7547C87.7554 87.3982 86.451 87.8887 84.7083 88.88C84.5518 88.9634 84.3534 88.9112 84.27 88.7547C84.1865 88.5982 84.2387 88.3999 84.3952 88.3165C86.1901 87.3043 87.7449 86.6887 91.4599 88.1495C95.0914 89.5791 95.8323 89.6625 98.7751 89.6729H98.7855C101.707 89.6729 104.462 90.7477 105.433 91.7912C105.558 91.9268 105.548 92.1251 105.412 92.2503C105.349 92.3129 105.266 92.3338 105.193 92.3338V92.3546Z" fill="white"/>
<path d="M115.639 72.7593C113.792 73.281 108.219 75.6809 107.436 75.347C106.643 75.0131 104.901 74.5435 103.294 75.1592C101.708 75.7748 102.052 76.8287 101.019 77.5174C99.7665 78.3521 98.8273 80.3764 99.37 81.1694C99.9231 81.952 98.7334 82.4842 99.4013 83.2667C99.8604 83.8093 100.612 83.4858 100.612 84.5814C100.612 85.6666 101.123 86.3658 102.25 86.3136C103.377 86.2614 103.189 85.9066 103.982 86.4492C104.765 86.9918 105.026 86.8249 105.788 86.3971C106.56 85.9693 107.802 83.9658 108.991 82.3276C110.181 80.6894 113.979 83.3398 118.978 81.0964C120.721 80.3138 119.781 78.7173 118.978 75.9104C118.039 72.6236 118.039 72.081 115.649 72.7593H115.639Z" fill="#FFDBB0"/>
</svg>
