<svg width="137" height="137" fill="none" xmlns="http://www.w3.org/2000/svg"><circle cx="68.633" cy="68.919" r="68" fill="#FEFCF6"/><path d="m65.852 22.38 1.178 3.99m9.56-4.451-.738 4.679m10.796-.892-2.521 3.858" stroke="#F39949" stroke-width="3" stroke-linecap="round" stroke-linejoin="round"/><path d="M99.788 42.164 49.635 33.32 36.63 107.076l50.152 8.843 13.006-73.755Z" fill="#ECDBC8"/><path d="M43.346 72.851c3.262.498 9.846 1.814 11.582 2.12 1.954.345 4.866.9 7.57.217 1.98-.502 4.56-1.024 6.282-2.122 2.016-1.286 3.3-2.123 5.293-1.676 4.664 1.046 4.104 8.192-.33 9.704-1.903.649-3.294.193-4.876-1.045-1.585-1.239-3.156-3.02-3.885-4.893-2.474-6.344-2.003-13.884-1.005-20.62" stroke="#EA553D" stroke-width="3" stroke-linecap="round" stroke-linejoin="round"/><path d="M79.947 57.353c-.905 4.99-2.448 10.399-4.952 14.274-2.297 3.555-8.458 9.196-12.91 8.411-3.023-.534-4.202-4.42-3.664-6.202.343-1.138.861-2.07 1.533-2.77.943-.989 2.685-1.69 4.086-1.504 3.22.43 3.621 2.723 5.113 4.319 3.343 3.573 7.775 4.973 9.897 5.346 3.087.545 12.946 2.16 12.946 2.16" stroke="#EA553D" stroke-width="3" stroke-linecap="round" stroke-linejoin="round"/></svg>