<svg width="137" height="137" fill="none" xmlns="http://www.w3.org/2000/svg"><circle cx="68.385" cy="68.919" r="68" fill="#FEFCF6"/><path d="M78.426 40.666a6.952 6.952 0 1 0-9.83-9.832 6.952 6.952 0 0 0 9.83 9.832Z" fill="#FEDC55"/><path d="M101.65 63.017c.697-.115 1.848-.484 2.449-.863.911-.574 2.064-1.4 2.592-3.276.041-.147.005-.308.056-.454.051-.144.19-.275.34-.248.093.016.166.087.23.155 1.493 1.586 1.351 4.06.413 5.869-.846 1.63-2.099 2.403-2.936 2.812l-3.144-3.995Z" fill="#F29C97"/><path d="M42.148 62.165c.115-2.301.836-6.771 1.527-8.969.078-.25.169-.513.367-.687.468-.407 1.19-.096 1.715.237 1.918 1.214 3.775 2.148 4.941 2.947l-8.55 6.472Z" fill="#EE8080"/><path d="M29.817 72.636c2.98-2.023 4.014-2.781 6.557-5.39 4.152-4.258 7.087-8.101 11.73-10.947 15.17-9.305 36.304-8.921 49.911 2.55 7.035 5.93 9.157 10.865 10.209 19.949 1.039 8.972-1.382 18.523-8.086 25.763-.342.369-.94.423-1.25.819-.452.579-.416 1.396-.71 2.067-.984 2.245-4.182 2.373-5.815.946-1.074-.941-1.715-2.362-2.952-3.076-1.112-.643-1.783-.461-3.065-.381-9.245.576-18.432 2.212-27.816 2.944-.304.024-.617.001-.903.105-1.478.531-1.066 2.986-2.329 3.924-.976.725-2.464.075-3.089-.97-.624-1.044-.656-2.322-.781-3.532-.051-.505-.137-1.039-.473-1.419-.245-.275-.59-.432-.925-.582-6.575-2.942-12.69-6.116-17.268-10.966-1.499-1.588-2.605-3.815-3.42-5.135-2.72-4.398-2.278-11.658-.656-15.014.29-.604.569-1.273 1.131-1.654v-.001Z" fill="#F3A69D"/><path d="M39.065 69.644a1.088 1.088 0 1 0 0-2.176 1.088 1.088 0 0 0 0 2.176Zm4.169 1.086a1.089 1.089 0 1 0 2.178 0 1.089 1.089 0 0 0-2.178 0Z" fill="#352F2D"/><path d="M66.318 53.938c3.105-1.106 12.293-.737 14.621.613" stroke="#C46D6F" stroke-width="3" stroke-linecap="round" stroke-linejoin="round"/><path d="M60.602 72.367c1.194-2.46 2.101-3.69 2.792-6.214.177-.647.438-1.471.243-2.112-.243-.804-1.67-1.036-2.79-1.009-2.37.06-4.731.392-6.52.772 0 0 4.402 4.619 6.275 8.564v-.001Z" fill="#ED7472"/><path d="M29.585 89.705c.62.748 1.933 1.086 2.939.976.983-.108 1.593-.756 2.165-1.505.572-.75.973-1.776 1.21-2.668.78-2.943.997-6.323.219-9.267-.198-.746-.684-2.176-1.29-2.903-.922-1.106-1.935-1.66-3.348-1.66-.661 0-1.911.576-2.365 1.014a4.335 4.335 0 0 0-.318.369 28.18 28.18 0 0 0-.109.229c-1.62 3.357-2.061 10.616.657 15.014.077.124.158.26.242.4h-.002Z" fill="#EF8582"/><path d="M33.353 78.808s0 4.93-.646 7.097m-2.118-8.387s-.692 3.686-.276 6.867" stroke="#BD6A61" stroke-width="3" stroke-linecap="round" stroke-linejoin="round"/></svg>