<svg width="137" height="137" fill="none" xmlns="http://www.w3.org/2000/svg"><circle cx="68.264" cy="68.919" r="68" fill="#FEFCF6"/><path d="M66.922 101.919c.36-12.24 1.575-26.138-5.862-35.499-.596-.75-1.546-1.67-2.743-2.868 6.441-5.006 8.889-15.13 2.71-23.135-4.983-6.458-15.445-7.186-22.347-2.4-7.472 5.18-9.046 17.656-1.67 24.337.223.203 1.193 1.084 1.29 1.37-.027.3-.787.924-1.29 1.405-6.178 5.862-7.06 22.094-6.666 36.79h36.578Zm4.358 0c-.355-12.08-1.111-21.787 4.816-30.108a7.154 7.154 0 0 1 2.62-2.281c-6.357-4.94-7.626-15.606-2.723-21.992 4.904-6.385 14.823-7.459 21.612-3.13 7.565 4.824 9.239 18.081 1.103 24.135-.238.177-.71.786-.806 1.068.027.297.528 1 1.048 1.447 5.891 5.057 6.77 20.144 6.77 30.861H71.279h.002Z" fill="#AAABAB"/><path d="M59.52 88.7c-2.35 3.69-2.494 8.096-2.333 13.219h19.227c.043-6.307-.142-11.228-2.996-13.677-.315-.272-.62-.7-.637-.879.059-.172.344-.54.49-.65 4.947-3.68 3.93-11.743-.671-14.676-4.129-2.632-10.16-1.978-13.14 1.905-2.98 3.882-2.21 10.367 1.655 13.372-.789.408-1.286.902-1.595 1.386Z" fill="#807F80"/></svg>