<svg width="137" height="137" fill="none" xmlns="http://www.w3.org/2000/svg"><circle cx="68.6" cy="68.919" r="68" fill="#FEFCF6"/><path d="M40.287 105.559c-.384.073-.532-.059 0 0Zm.634-.295a1.91 1.91 0 0 1-.546.28 1.61 1.61 0 0 0 .546-.28Zm18.693-2.88c-.325.088-.399 0 0 0Z" fill="#FFE0BA"/><path d="M102.223 78.435c1.403-1.329 4.784-2.599 3.529-4.873-1.609-1.639-3.366-.236-4.99.871a35380.82 35380.82 0 0 0-4.518 3.101c-5.33 3.647-10.646 7.294-15.976 10.941-.826.576-1.49 1.152-2.524 1.27-6.644.325-13.392-.266-20.065-.118-1.123 0-2.319-1.019-2.215-2.215.177-1.476-.089-3.765 1.801-4.193 5.315-.842 10.63-1.654 15.946-2.495 1.801-.296 5.241-1.728 3.278-4.164-1.373-1.713-6.733-.532-8.652-.37-6.113.488-12.24.975-18.353 1.462-.96-.014-1.742.192-2.613.709-5.035 4.06-10.173 8.003-15.252 11.99v14.101c2.141-.916 4.282-1.831 6.408-2.732 2.377-1.019 5.035-.399 7.56-.236 4.68.31 9.36.59 14.04.9 5.552-1.343 11.074-2.835 16.625-4.163 8.638-6.6 17.32-13.186 25.971-19.786ZM76.165 98.309c-.074.073-.074.059 0 0Z" fill="#FFE0BA"/><path d="M107.081 80.265c3.159-2.377 4.828-6.039 2.126-9.464-3.293-4.356-8.549-2.053-12.033.753-6.66 4.592-13.377 9.125-20.036 13.717-1.314.088-2.54.03-3.854.03 5.404-.503 9.878-4.888 7.368-10.337-3.027-5.684-10.276-3.026-15.414-2.982-4.341.34-8.682.694-13.023 1.033-2.052.251-4.237.074-6.186.827l-.532.222c-.59.221-.65.295-.147.221h.34c-.4 0-.768.104-1.123.296-2.672 2.067-5.315 4.193-7.987 6.26-2.805 2.2-5.817 4.267-8.46 6.645-.945.856-.93 1.86-.93 3.026v17.261c0 1.831 1.845 2.555 3.336 1.92 3.278-1.359 6.497-2.85 9.819-4.135 6.481.458 13.007.842 19.489 1.256 4.193-.754 8.312-2.112 12.49-3.042 2.2-.546 4.873-.738 6.719-2.141 9.36-7.132 18.721-14.249 28.067-21.38l-.029.014ZM76.163 98.31c-.073.073-.073.059 0 0Zm.133-.118-.03.029c-5.55 1.329-11.073 2.82-16.624 4.164-4.68-.31-9.36-.591-14.041-.901-2.54-.162-5.182-.782-7.56.236-2.14.916-4.281 1.831-6.407 2.732v-14.1c5.093-3.988 10.217-7.93 15.251-11.99.872-.517 1.654-.724 2.614-.71L67.85 76.19c1.905-.148 7.264-1.329 8.652.37 1.964 2.435-1.462 3.868-3.278 4.163-5.315.842-10.63 1.668-15.945 2.495-1.89.428-1.624 2.717-1.802 4.194-.103 1.196 1.093 2.214 2.215 2.214 6.674-.147 13.421.444 20.065.119 1.034-.104 1.698-.694 2.525-1.27 5.33-3.647 10.645-7.294 15.975-10.941l4.518-3.101c1.609-1.108 3.381-2.525 4.99-.871.813 1.447-.147 2.274-1.402 3.263-9.346 7.117-18.707 14.249-28.053 21.365h-.015Zm-16.684 4.193c-.324.088-.398 0 0 0Zm-19.326 3.174c-.384.074-.532-.059 0 0Zm.088-.014a1.91 1.91 0 0 0 .546-.281 1.38 1.38 0 0 1-.546.281Z" fill="#FCC684"/><path d="M86.551 53.846c1.884-2.983 2.803-6.588 2.803-10.371 0-11.352-9.204-20.556-20.556-20.556s-20.556 9.204-20.556 20.556 9.204 20.556 20.556 20.556c6.31 0 12.003-2.802 15.725-7.316 1.117-1.355 1.748-2.427 2.026-2.869h.002Z" fill="#FFE857"/><path d="M80.41 31.792c.868.864 1.652 1.84 2.332 2.92 4.839 7.7 2.52 17.864-5.18 22.703A16.414 16.414 0 0 1 65.28 59.56m-3.686-1.275a16.382 16.382 0 0 1-6.739-6.049c-4.84-7.7-2.52-17.863 5.18-22.703 5.633-3.54 12.584-3.248 17.805.176" stroke="#F39949" stroke-width="3" stroke-linecap="round" stroke-linejoin="round"/><path d="m74.26 35.144-5.46 6.633-5.46-6.633m.006 7.128h10.9m-10.9 5.098h10.9m-5.447-4.07v9.94" stroke="#EC6637" stroke-width="3" stroke-linecap="round" stroke-linejoin="round"/></svg>