<svg width="137" height="137" fill="none" xmlns="http://www.w3.org/2000/svg"><circle cx="68.522" cy="68.919" r="68" fill="#FEFCF6"/><path d="M90.75 76.81c-1.149 10.156-7.095 18.858-15.518 23.787M27.521 73.204c0-17.516 14.2-31.716 31.717-31.716 2.708 0 5.337.34 7.847.978" stroke="#F39949" stroke-width="4" stroke-linecap="round" stroke-linejoin="round"/><path d="M59.287 51.88v21.19l-12.775 6.953" stroke="#727171" stroke-width="4" stroke-linecap="round" stroke-linejoin="round"/><path d="M70.816 102.738a31.616 31.616 0 0 1-11.579 2.181c-11.12 0-20.903-5.723-26.565-14.384" stroke="#EA553D" stroke-width="4" stroke-miterlimit="10" stroke-dasharray="30 15"/><path d="m38.258 91.016-6.523-1.863-.044 6.746" stroke="#EA553D" stroke-width="4" stroke-linecap="round" stroke-linejoin="round"/><path d="M107.406 62.45c1.86-2.944 2.767-6.505 2.767-10.238 0-11.207-9.086-20.293-20.293-20.293-11.206 0-20.292 9.086-20.292 20.293 0 11.206 9.086 20.292 20.293 20.292 6.228 0 11.848-2.766 15.523-7.223 1.103-1.336 1.726-2.397 2.002-2.832Z" fill="#FFE857"/><path d="M101.343 40.678a16.291 16.291 0 0 1 2.303 2.882c4.777 7.6 2.486 17.635-5.114 22.412a16.2 16.2 0 0 1-12.126 2.117m-3.634-1.259a16.178 16.178 0 0 1-6.653-5.971c-4.777-7.6-2.486-17.635 5.114-22.412 5.56-3.495 12.421-3.208 17.576.174" stroke="#F39949" stroke-width="3" stroke-linecap="round" stroke-linejoin="round"/><path d="m95.271 43.987-5.39 6.548-5.389-6.548m.01 7.036h10.762m-10.762 5.033h10.762m-5.384-4.015v9.811" stroke="#EC6637" stroke-width="3" stroke-linecap="round" stroke-linejoin="round"/></svg>