<svg width="137" height="137" fill="none" xmlns="http://www.w3.org/2000/svg"><circle cx="68.143" cy="68.919" r="68" fill="#FEFCF6"/><path d="m20.53 70.067 10.644-.93m-12.029 5.905 16.537-1.444m-5.322 5.315 6.411-.56m-13.853 1.212 3.826-.334" stroke="#949495" stroke-width="3" stroke-linecap="round" stroke-linejoin="round"/><path d="M62.434 58.368c-2.005-4.14-4.424-9.11-6.43-13.251-.242-.498-.462-1.134-.038-1.547.236-.23.606-.307.95-.371 2.095-.392 4.333-.718 6.427-1.11.608-.115 1.235-.23 1.843-.136.778.12 1.424.565 2.026 1.005 2.366 1.73 10.904 9.77 14.312 12.934l-19.088 2.476h-.002Z" fill="#93C2DA"/><path d="M37.838 51.01c2.045 3.126 5.542 8.255 6.063 8.525.476.245 33.758-3.921 48.047-5.802 2.626-.347 5.802-.492 8.4.015 2.203.427 3.747 1.253 5.657 2.418a41.2 41.2 0 0 1 7.501 5.87c2.024 1.999 4.992 4.317 3.834 7.491-1.602 4.386-7.655 4.482-11.674 4.888-5.552.565-12.56.914-18.961 1.269-1.626.091-4.204 3.113-6.105 5.226-3.817 4.243-8.448 10.045-12.323 14.234-.478.516-.933.87-1.574 1.162-.457.208-.963.28-1.461.343-2.732.334-5.5.359-8.239.072-.54-.056-1.332-.145-1.766-.475-.73-.556-.637-1.48-.29-2.33a29.64 29.64 0 0 1 1.398-2.874c3.263-5.768 5.352-9.044 7.69-13.33-6.51.591-13.749 1.833-17.942-.05-2.765-1.241-5.5-5.173-7.248-8.687-2.458-4.942-5.717-10.636-8.162-16.234a.452.452 0 0 1 .019-.413.466.466 0 0 1 .317-.185c2.346-.361 4.932-.75 6.815-1.131l.004-.002Z" fill="#A8CDE1"/><path d="M98.115 64.548a1.853 1.853 0 0 1 .151-3.66c3.569-.41 5.404-.928 7.274-2.046.743-.447 1.642-1.138 2.175-1.568.422.264 2.007 1.391 3.037 2.28a1.784 1.784 0 0 1-.11.105c-.249.223-1.808 1.53-3.197 2.363-2.667 1.596-5.228 2.144-8.753 2.549a1.844 1.844 0 0 1-.577-.023Z" fill="#7D7D7D"/><path d="m91.46 63.76-2.089.262m-6.256.594-1.422.21m-6.398.699-1.422.21m-5.945.79-1.424.21m-5.467.773-1.422.207" stroke="#7D7D7D" stroke-width="3" stroke-linecap="round" stroke-linejoin="round"/></svg>