<svg width="137" height="137" fill="none" xmlns="http://www.w3.org/2000/svg"><circle cx="68.766" cy="68.919" r="68" fill="#FEFCF6"/><path d="M38.865 104.14h33.602m-36.563 4.017h39.53m-33.23-8.779L31.9 112.919m37.223-13.541 10.304 13.541" stroke="#949495" stroke-width="3" stroke-linecap="round" stroke-linejoin="round"/><path d="M43.47 34.585h22.725m-17.747.329-2.182 8.258m14.944-8.258 2.184 8.258" stroke="#807F80" stroke-width="3" stroke-linecap="round" stroke-linejoin="round"/><path d="M37.604 40.635h34.452a6.841 6.841 0 0 1 6.838 6.838v49.48a3.546 3.546 0 0 1-3.543 3.544H34.31a3.546 3.546 0 0 1-3.543-3.543V47.473a6.841 6.841 0 0 1 6.838-6.838Z" fill="#EA553D"/><path d="M78.894 48.807H30.766v29.378h48.128V48.807Z" fill="#B0D8EA"/><path d="M59.056 54.652h-8.45a1.403 1.403 0 1 1 0-2.805h8.45a1.403 1.403 0 1 1 0 2.805Z" fill="#fff"/><path d="M41.582 88.334a2.924 2.924 0 1 0 0-5.848 2.924 2.924 0 0 0 0 5.848Zm26.494 0a2.924 2.924 0 1 0 0-5.848 2.924 2.924 0 0 0 0 5.848Z" fill="#FDE6C2"/><path d="M104.536 58.478c2.044-3.235 3.044-7.148 3.044-11.254 0-12.319-9.986-22.305-22.306-22.305-12.319 0-22.305 9.986-22.305 22.305 0 12.32 9.986 22.306 22.305 22.306 6.847 0 13.025-3.04 17.064-7.939 1.212-1.47 1.898-2.635 2.2-3.113h-.002Z" fill="#FFE857"/><path d="M97.867 34.549a17.922 17.922 0 0 1 2.53 3.17c5.251 8.356 2.735 19.385-5.621 24.635a17.812 17.812 0 0 1-13.329 2.326m-3.992-1.386a17.774 17.774 0 0 1-7.313-6.563c-5.25-8.355-2.734-19.385 5.622-24.635 6.112-3.84 13.654-3.526 19.32.191" stroke="#F39949" stroke-width="3" stroke-linecap="round" stroke-linejoin="round"/><path d="m91.196 38.184-5.925 7.199-5.923-7.2m.008 7.735h11.83m-11.83 5.533h11.83m-5.914-4.414v10.785" stroke="#EC6637" stroke-width="3" stroke-linecap="round" stroke-linejoin="round"/></svg>