<svg width="137" height="137" fill="none" xmlns="http://www.w3.org/2000/svg"><circle cx="68.82" cy="68.919" r="68" fill="#FEFCF6"/><path d="M30.816 72.28 87.61 33.85m-9.924-.001h9.927l-3.799 9.58" stroke="#EB613E" stroke-width="3" stroke-linecap="round" stroke-linejoin="round"/><path d="m91.736 21.919-.775 4.033m4.107 3.081 4.364-3.08m-3.336 7.958 4.582 1.095" stroke="#F18A38" stroke-width="3" stroke-linecap="round" stroke-linejoin="round"/><path d="M107.275 87.608c0-3.719-6.45-6.734-14.407-6.734S78.46 83.889 78.46 87.608v7.54c0 3.719 6.45 6.734 14.407 6.734s14.407-3.015 14.407-6.734v-7.54Z" fill="#F9BF50"/><path d="M92.868 94.343c7.956 0 14.407-3.015 14.407-6.735 0-3.719-6.451-6.734-14.407-6.734-7.957 0-14.407 3.015-14.407 6.734 0 3.72 6.45 6.735 14.407 6.735Z" fill="#FFE750"/><path d="M107.275 80.066c0-3.719-6.45-6.734-14.407-6.734S78.46 76.347 78.46 80.066v7.54c0 3.719 6.45 6.734 14.407 6.734s14.407-3.015 14.407-6.734v-7.54Z" fill="#F39949"/><path d="M92.868 86.8c7.956 0 14.407-3.014 14.407-6.734 0-3.719-6.451-6.734-14.407-6.734-7.957 0-14.407 3.015-14.407 6.734 0 3.72 6.45 6.735 14.407 6.735Z" fill="#FFE750"/><path d="M107.275 72.527c0-3.719-6.45-6.734-14.407-6.734S78.46 68.808 78.46 72.527v7.54c0 3.719 6.45 6.734 14.407 6.734s14.407-3.015 14.407-6.734v-7.54Z" fill="#F9BF50"/><path d="M92.868 79.262c7.956 0 14.407-3.015 14.407-6.735 0-3.719-6.451-6.734-14.407-6.734-7.957 0-14.407 3.015-14.407 6.734 0 3.72 6.45 6.735 14.407 6.735Z" fill="#FFE750"/><path d="M107.275 64.986c0-3.719-6.45-6.734-14.407-6.734S78.46 61.267 78.46 64.986v7.54c0 3.719 6.45 6.734 14.407 6.734s14.407-3.016 14.407-6.735v-7.539Z" fill="#F39949"/><path d="M92.868 71.72c7.956 0 14.407-3.014 14.407-6.734 0-3.719-6.451-6.734-14.407-6.734-7.957 0-14.407 3.015-14.407 6.734 0 3.72 6.45 6.735 14.407 6.735Z" fill="#FFE750"/><path d="M107.275 57.447c0-3.719-6.45-6.734-14.407-6.734S78.46 53.728 78.46 57.447v7.54c0 3.719 6.45 6.734 14.407 6.734s14.407-3.016 14.407-6.734v-7.54Z" fill="#FAC451"/><path d="M92.868 64.182c7.956 0 14.407-3.016 14.407-6.735 0-3.719-6.451-6.734-14.407-6.734-7.957 0-14.407 3.015-14.407 6.734 0 3.72 6.45 6.735 14.407 6.735Z" fill="#FFE750"/><path d="M84.714 94.715c0-3.72-6.45-6.734-14.407-6.734S55.9 90.996 55.9 94.715v7.539c0 3.719 6.45 6.734 14.407 6.734s14.407-3.015 14.407-6.734v-7.54Z" fill="#FAC451"/><path d="M70.307 101.449c7.957 0 14.407-3.015 14.407-6.734 0-3.72-6.45-6.734-14.407-6.734-7.956 0-14.407 3.015-14.407 6.734 0 3.72 6.45 6.734 14.407 6.734Z" fill="#FFE750"/><path d="M84.714 87.174c0-3.72-6.45-6.735-14.407-6.735S55.9 83.456 55.9 87.174v7.539c0 3.719 6.45 6.734 14.407 6.734s14.407-3.015 14.407-6.734v-7.54Z" fill="#F4A34B"/><path d="M70.307 93.908c7.957 0 14.407-3.015 14.407-6.734 0-3.72-6.45-6.735-14.407-6.735-7.956 0-14.407 3.016-14.407 6.735 0 3.72 6.45 6.734 14.407 6.734Z" fill="#FFE750"/><path d="M84.714 79.635c0-3.72-6.45-6.735-14.407-6.735S55.9 75.916 55.9 79.635v7.539c0 3.719 6.45 6.734 14.407 6.734s14.407-3.015 14.407-6.734v-7.54Z" fill="#FAC451"/><path d="M70.307 86.37c7.957 0 14.407-3.016 14.407-6.735 0-3.72-6.45-6.735-14.407-6.735-7.956 0-14.407 3.015-14.407 6.735 0 3.719 6.45 6.734 14.407 6.734Z" fill="#FFE750"/><path d="M84.714 72.094c0-3.72-6.45-6.735-14.407-6.735S55.9 68.375 55.9 72.094v7.539c0 3.719 6.45 6.734 14.407 6.734s14.407-3.015 14.407-6.734v-7.54Z" fill="#F4A34B"/><path d="M70.307 78.828c7.957 0 14.407-3.015 14.407-6.734 0-3.72-6.45-6.735-14.407-6.735-7.956 0-14.407 3.015-14.407 6.735 0 3.719 6.45 6.734 14.407 6.734Z" fill="#FFE750"/><path d="M60.728 101.644c0-3.719-6.45-6.734-14.407-6.734s-14.407 3.016-14.407 6.734v7.54c0 3.719 6.45 6.734 14.407 6.734s14.407-3.015 14.407-6.734v-7.54Z" fill="#FCCC52"/><path d="M46.32 108.379c7.958 0 14.408-3.015 14.408-6.735 0-3.719-6.45-6.734-14.407-6.734s-14.407 3.015-14.407 6.734c0 3.72 6.45 6.735 14.407 6.735Z" fill="#FFE750"/><path d="M60.728 94.103c0-3.718-6.45-6.734-14.407-6.734s-14.407 3.016-14.407 6.734v7.54c0 3.719 6.45 6.734 14.407 6.734s14.407-3.015 14.407-6.734v-7.54Z" fill="#F5A94C"/><path d="M46.32 100.838c7.958 0 14.408-3.015 14.408-6.734 0-3.72-6.45-6.735-14.407-6.735s-14.407 3.015-14.407 6.734c0 3.72 6.45 6.735 14.407 6.735Z" fill="#FFE750"/><path d="M60.728 86.564c0-3.719-6.45-6.734-14.407-6.734s-14.407 3.015-14.407 6.734v7.54c0 3.719 6.45 6.734 14.407 6.734s14.407-3.015 14.407-6.734v-7.54Z" fill="#FCCC52"/><path d="M46.32 93.299c7.958 0 14.408-3.015 14.408-6.735 0-3.719-6.45-6.734-14.407-6.734s-14.407 3.015-14.407 6.734c0 3.72 6.45 6.735 14.407 6.735Z" fill="#FFE750"/></svg>