<svg width="137" height="137" fill="none" xmlns="http://www.w3.org/2000/svg"><circle cx="68.092" cy="68.919" r="68" fill="#FEFCF6"/><path d="M61.737 107.918H30.09V76.254l15.815-24.863 15.832 24.863v31.664Z" fill="#DBB98D"/><path d="m79.826 51.39 14.71 24.864h-32.8L45.904 51.391h33.922Z" fill="#EA553D"/><path d="M94.54 76.255H61.742v31.664H94.54V76.255Z" fill="#E5CCA7"/><path d="M49.992 90.844H41.75v17.074h8.242V90.844Z" fill="#9A7855"/><path d="M75.286 88.454h-4.073v8.12h4.073v-8.12Zm10.789 0h-4.073v8.12h4.073v-8.12Zm-38.269-17.53h-3.87v6.674h3.87v-6.674Z" fill="#8A9296"/><path d="M103.043 60.846c1.884-2.983 2.804-6.588 2.804-10.371 0-11.352-9.204-20.556-20.556-20.556-11.353 0-20.557 9.204-20.557 20.556s9.204 20.556 20.556 20.556c6.31 0 12.003-2.802 15.726-7.316 1.116-1.355 1.747-2.427 2.026-2.869h.001Z" fill="#FFE857"/><path d="M96.902 38.792c.868.864 1.652 1.84 2.332 2.92 4.839 7.7 2.52 17.864-5.18 22.703a16.414 16.414 0 0 1-12.282 2.144m-3.685-1.274a16.383 16.383 0 0 1-6.74-6.049c-4.839-7.7-2.52-17.863 5.18-22.703 5.633-3.54 12.584-3.248 17.805.176" stroke="#F39949" stroke-width="3" stroke-linecap="round" stroke-linejoin="round"/><path d="m90.752 42.144-5.46 6.633-5.46-6.633m.006 7.128h10.9m-10.9 5.098h10.9m-5.447-4.07v9.94" stroke="#EC6637" stroke-width="3" stroke-linecap="round" stroke-linejoin="round"/></svg>