<svg width="161" height="159" fill="none" xmlns="http://www.w3.org/2000/svg"><path d="M95.847 145.821c-1.739 1.177-2.006-.361-4.32 2.219-3.065 3.409.2 6.282 4.347 6.643 2.904.254 10.061-.708 9.058-4.076-.415-1.404-.83-2.473-.843-3.449-3.051 1.096-5.66.294-8.255-1.337h.013Z" fill="#003F67"/><path d="M108.317 112.618c-3.492-1.63-7.787 2.46-8.51 4.478-1.27 3.569-1.859 7.566-2.367 9.424-.79 2.914-.04 8.18.067 11.856.053 2.005.147 6.189-1.62 7.432-.013 0-.026.013-.04.027 2.583 1.63 5.192 2.432 8.255 1.336 0-.468.081-.922.321-1.363.883-1.658 2.89-3.943 3.185-8.114.294-4.184.294-3.555.441-7.311.134-3.77 2.074-8.608 3.265-11.616 1.592-4.037.628-4.438-2.984-6.135l-.013-.014Zm29.031 34.995c-.469-.615-.736-1.243-.669-2.072.174-1.872 1.124-4.852-.134-8.541-1.258-3.69-1.017-3.168-2.261-6.416-1.244-3.262-1.351-6.951-.776-10.159 1.204-6.697-4.99-9.49-8.857-9.49-5.552 0-5.004 11.187-3.331 14.195 1.672 3.007 2.649 6.483 2.876 8.327.362 2.888 2.623 8.261 3.546 9.785.99 1.657 2.555 4.812 1.431 6.79-.214.361-.401.628-.588.815 3.21 1.23 6.729-.334 8.763-3.221v-.013Z" fill="#FFDBB0"/><path d="M137.348 147.612c-2.034 2.887-5.539 4.451-8.763 3.222-.83.868-1.526.574-2.435 3.381-1.459 4.492 2.448 5.2 6.234 3.329 2.649-1.31 8.589-5.895 6.502-8.207-.602-.669-1.137-1.19-1.538-1.725Z" fill="#003F67"/><path d="M105.908 41.241c-.655-1.764-10.756-16.895-10.65-17.724.108-.829.442-3.983-.026-5.106-.816-1.965-2.194.347-3.01-.16-.816-.509-2.047-2.38-2.984-2.874-.936-.495-1.257.828-1.846 1.55-.589.735-1.753-1.03-2.314-.187-.389.575.026 2.192-1.004 2.486-1.03.294-1.164.628-.83 1.671.349 1.043.91 1.457.616 2.34-.294.881-.067 1.082.535 1.683.602.615 2.837 1.243 4.696 1.925 1.86.682 6.797 16.642 10.288 21.841 1.151 1.698 7.894-3.796 6.529-7.432v-.013Zm28.737 5.867c.936-1.63 13.378-14.903 13.405-15.745.027-.843.228-4.01.87-5.04 1.124-1.804 2.114.709 2.997.335.883-.361 2.408-2.019 3.411-2.353 1.004-.334 1.097 1.016 1.566 1.831.468.816 1.899-.735 2.314.2.281.629-.375 2.153.589 2.62.963.455 1.057.803.535 1.778-.508.976-1.137 1.284-.99 2.206.147.922-.107 1.07-.803 1.577-.696.508-2.997.762-4.95 1.123-1.953.374-7.626 13.687-11.934 18.245-1.405 1.498-8.964-3.421-7.01-6.79v.014Z" fill="#FFDBB0"/><path d="M101.651 88.84c2.168-1.43 12.202-1.283 16.991-1.39 9.192-.214 12.055-1.604 14.771 3.622 4.615 8.862 2.435 11.175 3.344 14.196 1.646 5.48 2.703 10.84-.562 11.963-3.117 1.082-11.425.468-15.733.561-4.428.094-3.104-6.389-3.974-6.162-1.15.308-1.043 2.099-1.043 5.12 0 2.499-4.817.909-11.8-.629-8.844-1.951-6.248-2.66-5.325-12.524.776-8.408.682-11.883 3.345-14.757h-.014Z" fill="#A2A2A2"/><path d="M138.913 61.625c1.886-3.342 4.522-5.908 6.409-8.942 1.244-1.992-2.302-3.623-5.646-6.122-3.586-2.687-3.091-3.636-6.971-.067-2.609 2.406-7.465 3.128-9.994 2.085-1.779-.735-3.237.254-6.154-.788-2.127-.762-4.897-4.505-8.857-9.103-1.619-1.871-5.766 2.005-9.94 5.133-1.499 1.123-3.184 3.742-1.459 6.255 1.191 1.738 6.195 7.044 5.82 11.108-.281 3.141-2.555 18.406-3.385 23.98-1.445 9.65 8.563 7.873 19.052 7.004 8.295-.682 21.607 3.208 19.573-5.04-1.244-5.039.04-22.803 1.565-25.516l-.013.013Z" fill="#F2A096"/><path d="M127.18 48.058c-3.572 1.965-7.318 1.845-9.74.481-2.435-1.363-4.295-3.355-5.659-5.814-.91-2.272-1.004-5.026-.776-6.069.214-.949.682-1.951 1.324-2.807 1.472-1.991-.12-2.847 3.92-6.282 1.231-1.042 7.64-5.4 14.383-2.072 5.926 2.928 4.027 18.433-3.452 22.563Z" fill="#FFDBB0"/><path d="M115.634 24.64c.682-.856 3.371-2.273 5.833-1.966 3.05.375 4.04-1.403 7.024-.4 4.161 1.39 7.345 4.317 8.228 5.814 1.873 3.221 1.284 5.173 1.525 7.191.428 3.663-.548 10.52-7.425 11.482-1.311.187-3.505 1.618-3.358.922.455-1.83 1.94-3.087 3.278-3.902 1.364-.843 1.525-3.663-.469-3.436-1.645.187-1.779-.762-1.833-4.103-.08-4.077-17.486-2.66-12.776-11.59l-.027-.013Z" fill="#003F67"/><path d="M52.43 128.605c-.468-.588-.75-1.176-.696-1.991.12-1.805.963-4.719-.32-8.247-1.299-3.542-1.058-3.035-2.342-6.149-1.271-3.114-1.298-5.053-.816-8.167.481-3.114.053-6.109-1.713-9.13-1.766-3.02-3.746-3.328-7.478-3.408-3.733-.08-3.479 3.342-3.84 7.672-.294 2.781-.482 5.2 1.204 8.074 1.686 2.86 2.702 6.202 2.97 7.98.415 2.78 2.73 7.913 3.652 9.37.99 1.577 2.582 4.585 1.552 6.523a3.578 3.578 0 0 1-.548.802c3.13 1.109 6.489-.481 8.388-3.315l-.013-.014Z" fill="#FFDBB0"/><path d="M52.431 128.605c-1.9 2.834-5.257 4.425-8.388 3.315-.776.856-1.458.589-2.274 3.315-1.298 4.371 2.488 4.973 6.1 3.075 2.529-1.324 8.162-5.895 6.088-8.074-.589-.628-1.124-1.123-1.526-1.631Zm-32.619.935c-1.632 1.203-1.953-.267-4.08 2.326-2.81 3.422.455 6.055 4.469 6.229 2.809.133 9.686-1.096 8.575-4.304-.468-1.337-.91-2.353-.95-3.289-2.903 1.177-5.458.522-8.014-.949v-.013Z" fill="#003F67"/><path d="M35.012 96.404c-.508-3.822-10.636-1.978-12.562 5.24-.937 3.529-1.485 7.378-1.9 9.196-.642 2.847.294 7.887.562 11.442.134 1.925.401 5.975-1.258 7.231-.013 0-.026.014-.04.027 2.555 1.471 5.11 2.139 8.014.949-.027-.454.04-.895.254-1.336.776-1.644 2.636-3.917 2.743-7.967.107-4.05.147-3.435.12-7.084-.026-3.636.67-5.481 2.261-8.154 1.592-2.673 2.301-5.734 1.806-9.557v.013Z" fill="#FFDBB0"/><path d="M22.087 68.709c2.194-1.444 10.53-1.27 15.36-1.818 4.682-.535 7.05.227 12.174-1.003 4.014-.975 2.916 3.623 7.559 12.886 3.064 6.122 11.024 14.73 8.63 16.829-2.396 2.098-8.322 4.892-11.694 3.983-3.371-.91-4.441-1.19-8.361.748-3.425 1.685-9.232-.026-13.78-.414-3.8-.334-6.222-.027-9.192.695-5.713 1.39-10.034-.481-10.997-1.256-1.392-1.11-1.378-6.603 3.478-13.634 4.857-7.031 4.12-14.116 6.823-17.016Z" fill="#E2C2BC"/><path d="M27.252 32.165c-.334-.722-6.783.601-8.402-1.43-2.435-3.061-5.271-6.523-5.244-7.058.053-.882.147-4.237-.428-5.387-1.017-2.005-2.288.535-3.184.067-.897-.468-2.342-2.353-3.372-2.794-1.03-.44-1.258.963-1.833 1.778-.575.816-1.926-.949-2.462-.013-.36.641.188 2.312-.87 2.7-1.056.388-1.19.748-.735 1.818.455 1.069 1.07 1.457.83 2.419-.241.962 0 1.136.695 1.738.682.601 3.09 1.082 5.097 1.657 1.379.388 2.703 3.917 4.696 7.766.937 1.805 4.964 4.451 8.295 4.892 1.954.268 5.205.749 5.807-1.336.522-1.845 1.9-5.093 1.097-6.817h.013Z" fill="#FFDBB0"/><path d="M30.475 18.959c-.415-.762-1.004-2.326-1.593-2.98-.588-.643-1.244-1.364-2.18-1.578-1.459-.348-2.221-.294-2.997.147-.682.387-1.74 2.259-1.78 3.595-.254 1.738-1.458 2.22-2.274 2.553-1.15.468-3.104.067-2.903.91.575 2.459 1.913 2.873 3.345 2.7 4.629-.562 2.26-4.906 5.097-5.387 2.836-.482 3.05-.08 5.285.04Z" fill="#003F67"/><path d="M51.922 61.665c-1.017-5 3.518-5.44 3.599-12.846.066-5.934-3.68-12.604-8.054-16.28-3.479-2.928-7.185-6.51-12.189-5.815-2.274.321-7.518 4.451-9.672 4.157-4.121-.561-3.68.2-4.697 4.545-.856 3.703-3.96 6.844-1.11 7.726 2.408.748 1.953 4.999 1.525 7.164-.388 1.952-1.043 5.24-.816 13.822.094 3.515-1.993 6.95 1.445 6.469 14.89-2.059 23.039 1.417 29.474-.642 5.003-1.604 1.418-3.782.495-8.327v.027Z" fill="#A2A2A2"/><path d="M42.53 26.578c-3.33 2.259-6.997 2.473-9.512 1.363-2.502-1.11-4.509-2.9-6.074-5.186-1.097-2.152-1.445-4.839-1.31-5.868.12-.949.494-1.978 1.043-2.874 1.27-2.085-.375-2.78 3.277-6.51 1.11-1.136 6.998-5.988 13.914-3.341 6.075 2.326 5.633 17.697-1.324 22.43l-.013-.014Z" fill="#FFDBB0"/><path d="M29.34 4.87c.829-1.243 2.795-2.673 5.217-3.02 2.248-.321 3.278-1.43 6.903-.669 4.228.882 7.6 3.556 8.59 4.96 2.127 2.993 1.726 4.958 2.14 6.91.75 3.555-.896 11.2-8.803 13.366-1.258.348-.99-.36-.856-.869.79-2.9 1.846-2.566 3.077-3.502 1.258-.949 1.164-3.729-.776-3.328-1.606.334-.923.414-3.278-1.885-1.686-1.644-2.916-4.143-5.485-8.153-1.15-1.791-5.325 1.59-8.054 1.216-1.392-.187-.361-2.473 1.324-5.026Z" fill="#003F67"/><path d="M48.844 19.92c.817-.48 2.235-1.603 3.158-1.87.91-.268 1.913-.562 2.916-.255 1.552.495 2.235.976 2.703 1.818.428.735.348 3.075-.361 4.33-.736 1.765.107 2.888.682 3.637.803 1.082 2.85 1.804 2.194 2.473-1.913 1.964-3.398 1.604-4.629.641-4-3.114.656-5.828-1.712-7.86-2.368-2.031-2.797-1.777-4.937-2.913h-.014Z" fill="#003F67"/><path d="M51.213 16.098c-.455.32-1.057.802-.722 1.617.334.829.736 1.243 1.23 1.216.937-.066 1.044-.227 1.5-.868.44-.642.294-1.083-.268-1.698-.576-.615-1.044-.521-1.726-.267h-.014Z" fill="#F2A096"/><path d="M49.674 18.023c-.455.32-1.057.802-.722 1.617.334.829.736 1.243 1.23 1.216.937-.067 1.044-.227 1.5-.869.44-.641.293-1.082-.269-1.697-.575-.615-1.043-.521-1.725-.267h-.014Z" fill="#F2A096"/><path d="M49.3 43.286c-1.257-1.537-8.669-6.162-8.856-7.03-.174-.87-.923-4.145-1.78-5.107-1.485-1.684-2.074 1.096-3.064.869-.99-.227-2.863-1.698-3.96-1.858-1.11-.174-.976 1.256-1.324 2.179-.348.935-2.1-.441-2.381.601-.188.709.762 2.179-.161 2.834-.923.655-.963 1.016-.254 1.951.709.923 1.404 1.137 1.418 2.126 0 .989.294 1.11 1.11 1.51.816.401 3.265.28 5.352.321 2.1.053 3.345 6.362 9.325 9.21 3.639 1.737 7.184-4.425 4.575-7.606Z" fill="#FFDBB0"/></svg>