<svg width="211" height="260" viewBox="0 0 211 260" fill="none" xmlns="http://www.w3.org/2000/svg">
<path d="M143.228 245.947C141.412 247.179 141.132 245.566 138.719 248.259C135.53 251.829 138.935 254.814 143.254 255.195C146.277 255.462 153.747 254.445 152.705 250.939C152.273 249.466 151.842 248.348 151.829 247.332C148.64 248.475 145.922 247.637 143.216 245.935L143.228 245.947Z" fill="#003F67"/>
<path d="M156.238 211.269C152.592 209.554 148.107 213.835 147.358 215.944C146.036 219.666 145.414 223.845 144.893 225.788C144.067 228.837 144.855 234.324 144.969 238.161C145.033 240.257 145.134 244.626 143.28 245.922C143.267 245.922 143.254 245.935 143.229 245.947C145.922 247.65 148.653 248.488 151.842 247.345C151.842 246.849 151.931 246.379 152.172 245.922C153.087 244.182 155.196 241.806 155.501 237.449C155.806 233.08 155.818 233.74 155.958 229.815C156.098 225.89 158.13 220.822 159.363 217.684C161.027 213.467 160.023 213.048 156.25 211.269H156.238Z" fill="#FFDBB0"/>
<path d="M186.548 247.827C186.066 247.179 185.773 246.531 185.85 245.655C186.027 243.698 187.018 240.586 185.71 236.725C184.401 232.863 184.643 233.422 183.347 230.018C182.051 226.613 181.937 222.752 182.547 219.398C183.804 212.399 177.338 209.478 173.311 209.478C167.518 209.478 168.09 221.164 169.843 224.302C171.583 227.439 172.6 231.072 172.841 233.003C173.222 236.013 175.585 241.628 176.538 243.228C177.567 244.956 179.206 248.259 178.037 250.317C177.821 250.698 177.618 250.964 177.414 251.168C180.768 252.451 184.44 250.825 186.548 247.801V247.827Z" fill="#FFDBB0"/>
<path d="M186.548 247.827C184.426 250.85 180.768 252.464 177.414 251.193C176.55 252.095 175.813 251.79 174.873 254.725C173.349 259.425 177.427 260.161 181.377 258.205C184.134 256.833 190.346 252.057 188.161 249.631C187.539 248.932 186.967 248.386 186.561 247.827H186.548Z" fill="#003F67"/>
<path d="M153.734 136.73C153.048 134.888 142.517 119.086 142.619 118.21C142.733 117.333 143.076 114.043 142.58 112.875C141.729 110.817 140.294 113.243 139.443 112.71C138.592 112.176 137.308 110.22 136.33 109.712C135.352 109.204 135.022 110.575 134.399 111.338C133.777 112.1 132.57 110.258 131.986 111.147C131.579 111.757 132.011 113.434 130.931 113.738C129.864 114.043 129.712 114.386 130.067 115.479C130.423 116.571 131.02 116.99 130.715 117.918C130.41 118.845 130.639 119.048 131.274 119.683C131.909 120.318 134.234 120.979 136.178 121.69C138.121 122.402 143.266 139.068 146.912 144.504C148.107 146.283 155.144 140.541 153.722 136.743L153.734 136.73Z" fill="#FFDBB0"/>
<path d="M183.715 142.853C184.693 141.15 197.676 127.279 197.701 126.403C197.739 125.526 197.93 122.224 198.603 121.144C199.785 119.264 200.801 121.881 201.728 121.499C202.656 121.118 204.244 119.391 205.285 119.048C206.34 118.705 206.441 120.115 206.924 120.966C207.407 121.817 208.906 120.204 209.338 121.169C209.63 121.83 208.944 123.418 209.948 123.9C210.951 124.383 211.04 124.739 210.507 125.755C209.973 126.771 209.325 127.089 209.478 128.054C209.63 129.019 209.363 129.172 208.639 129.705C207.915 130.226 205.514 130.506 203.482 130.887C201.449 131.268 195.516 145.19 191.032 149.941C189.558 151.503 181.682 146.371 183.715 142.853Z" fill="#FFDBB0"/>
<path d="M149.287 186.448C151.548 184.962 162.016 185.114 167.022 185C176.613 184.784 179.598 183.323 182.431 188.773C187.246 198.033 184.972 200.447 185.925 203.597C187.64 209.313 188.732 214.915 185.34 216.096C182.088 217.227 173.424 216.579 168.914 216.681C164.29 216.782 165.675 209.999 164.773 210.253C163.579 210.583 163.68 212.438 163.68 215.588C163.68 218.205 158.65 216.541 151.358 214.94C142.135 212.908 144.841 212.158 145.794 201.857C146.607 193.079 146.505 189.446 149.287 186.448Z" fill="#003F67"/>
<path d="M188.174 158.007C190.13 154.514 192.899 151.834 194.856 148.671C196.151 146.588 192.455 144.898 188.974 142.281C185.239 139.474 185.76 138.483 181.707 142.205C178.976 144.708 173.907 145.47 171.278 144.39C169.423 143.628 167.911 144.657 164.85 143.564C162.626 142.764 159.743 138.852 155.601 134.063C153.912 132.107 149.592 136.159 145.222 139.423C143.66 140.592 141.894 143.336 143.698 145.965C144.943 147.782 150.164 153.32 149.77 157.563C149.478 160.84 147.102 176.794 146.239 182.6C144.727 192.673 155.169 190.818 166.12 189.916C174.771 189.205 188.669 193.27 186.547 184.657C185.252 179.399 186.586 160.84 188.174 158.02V158.007Z" fill="#F2A096"/>
<path d="M175.939 143.843C172.204 145.901 168.304 145.761 165.776 144.351C163.235 142.929 161.292 140.845 159.882 138.279C158.929 135.904 158.827 133.033 159.068 131.954C159.284 130.963 159.793 129.921 160.44 129.032C161.978 126.949 160.313 126.06 164.531 122.477C165.814 121.385 172.509 116.837 179.534 120.305C185.721 123.354 183.739 139.562 175.926 143.869L175.939 143.843Z" fill="#FFDBB0"/>
<path d="M163.871 119.391C164.583 118.501 167.39 117.015 169.969 117.333C173.145 117.727 174.187 115.872 177.299 116.914C181.644 118.362 184.972 121.423 185.874 122.985C187.831 126.352 187.221 128.397 187.462 130.505C187.907 134.329 186.891 141.493 179.713 142.484C178.354 142.675 176.067 144.161 176.207 143.437C176.689 141.519 178.227 140.223 179.624 139.359C181.047 138.47 181.212 135.523 179.129 135.764C177.401 135.955 177.274 134.977 177.21 131.484C177.134 127.228 158.955 128.702 163.871 119.378V119.391Z" fill="#003F67"/>
<path d="M69.6464 245.858C71.6378 248.13 75.8198 250.051 77.6121 252.734C80.0369 256.376 81.5481 261.214 73.5121 259.07C65.4761 256.927 59.1739 249.782 58.3305 246.701C57.5105 243.679 60.7905 243.902 61.3762 242.637C63.9065 244.277 66.7413 245.495 69.6464 245.858Z" fill="#003F67"/>
<path d="M64.6442 226.848C64.6442 226.848 73.3948 229.12 73.2542 230.596C73.1136 232.072 68.7911 239.638 68.5568 243.246C68.4982 244.195 68.9316 245.05 69.6462 245.858C66.7411 245.495 63.918 244.277 61.376 242.637C61.3877 242.614 61.4111 242.59 61.4228 242.555C61.8914 241.196 63.2502 228.651 64.6442 226.836V226.848Z" fill="#003F67"/>
<path d="M101.427 244.266C104.203 245.449 108.819 245.367 111.595 247.007C115.367 249.232 118.823 252.945 110.646 254.503C102.481 256.061 93.6958 252.36 91.5989 249.935C89.5489 247.569 92.6064 246.339 92.5829 244.945C95.5818 245.32 98.6509 245.191 101.427 244.266Z" fill="#003F67"/>
<path d="M88.6706 229.296C88.6706 229.296 97.5383 227.55 98.0654 228.944C98.5926 230.338 97.96 239.029 99.3189 242.379C99.6703 243.258 100.443 243.843 101.427 244.265C98.6511 245.202 95.582 245.319 92.5832 244.944C92.5832 244.909 92.5832 244.886 92.5832 244.851C92.4192 243.422 88.202 231.521 88.6706 229.296Z" fill="#003F67"/>
<path d="M57.7103 113.03C55.9649 113.405 51.8415 122.612 52.4741 138.577C52.7318 144.996 54.5475 155.866 55.0512 158.747C56.7966 168.621 55.9532 244.055 56.574 244.242C63.3214 246.303 68.9208 245.8 72.4 246.011C75.8791 246.21 76.0665 190.56 76.4413 183.93C76.7225 179.105 76.7107 152.68 79.7447 152.387C82.1227 152.152 83.8213 189.647 84.3133 196.393C84.817 203.386 87.8393 241.536 88.0267 243.375C88.2844 245.905 102.939 246.315 103.489 243.82C105.258 235.691 103.782 190.127 102.787 178.039C101.99 168.305 101.826 114.26 99.0264 114.6C97.5855 114.776 57.722 113.042 57.722 113.042L57.7103 113.03Z" fill="#F2A096"/>
<path d="M84.3485 34.6455C84.0088 34.6455 78.3861 34.6924 77.9526 34.6572C77.7769 35.3834 77.4489 38.2883 77.1092 39.2137C76.2423 41.568 74.3797 44.3089 72.8569 46.2416C68.9678 51.5243 90.9788 50.2007 88.8351 47.7409C86.8437 45.5037 85.0631 41.9663 84.3837 38.4523C84.1377 37.1639 84.3485 35.1258 84.3485 34.6455Z" fill="#FFDBB0"/>
<path d="M72.7738 33.1106C74.4021 37.1985 77.5064 39.5646 80.353 40.0097C83.1995 40.4548 85.9992 39.9511 88.6818 38.7329C90.884 37.3625 92.7349 35.0433 93.2269 34.0008C93.672 33.0403 93.9298 31.8573 93.9649 30.6976C94.0586 27.9919 95.8977 28.3199 94.8317 22.6507C94.5155 20.9288 92.1258 12.8935 84.5232 11.2888C77.8344 9.87152 69.3651 24.5716 72.7622 33.1223L72.7738 33.1106Z" fill="#FFDBB0"/>
<path d="M86.9832 20.4021C89.6892 16.7007 94.574 27.1138 95.5697 24.7243C98.2171 18.364 90.9543 11.7695 87.9555 10.481C84.7809 9.12226 81.8992 8.4429 77.483 9.52051C73.5821 10.4693 73.7695 11.8749 72.1881 13.1165C68.1116 16.2908 66.7527 20.7184 66.5887 24.8531C66.5185 26.7507 68.053 31.5882 69.8687 33.8723C70.5599 34.7508 73.5353 36.7889 75.2456 37.6557C76.6044 38.3351 75.3393 32.2442 73.629 31.0026C71.2979 28.2851 71.8836 27.3598 72.5161 26.4227C73.1487 25.4857 74.9644 25.0288 75.3627 25.9893C77.3775 30.7566 76.3467 26.1065 77.7055 25.2397C81.4072 22.8736 79.3924 27.6057 86.9598 20.4021H86.9832Z" fill="#003F67"/>
<path d="M74.4491 15.1658C73.6525 13.8539 72.5045 11.1365 71.4034 10.0354C70.3022 8.93439 69.1191 7.73964 67.4439 7.42339C64.8434 6.93143 63.4962 7.0837 62.1725 7.91534C60.9894 8.64156 59.2791 12.0384 59.3143 14.3928C58.9863 17.4733 56.9129 18.4221 55.5189 19.0663C53.5392 19.98 50.0483 19.4412 50.47 20.9053C51.6766 25.1924 54.0664 25.8366 56.5849 25.4149C64.7146 24.0562 60.1812 16.5831 65.1363 15.5172C70.0914 14.4513 70.5131 15.1424 74.4491 15.1775V15.1658Z" fill="#003F67"/>
<path d="M106.956 46.0773C110.658 44.4023 120.053 36.2499 123.403 32.7242C130.115 25.6611 133.067 18.4926 133.852 17.7195C135.071 16.5365 138.105 13.0576 140.037 10.8321C140.822 9.93022 141.08 8.10295 141.478 4.46013C141.654 2.85542 139.557 4.55384 138.948 2.75C137.929 -0.283727 136.652 1.47326 135.844 0.946161C134.438 0.0208157 134.063 -0.272009 133.196 1.81295C132.329 3.8979 132.025 5.32691 131.861 6.34596C131.697 7.36501 131.099 8.82917 130.233 7.15418C129.366 5.47919 128.78 4.61241 127.48 4.35472C126.179 4.09703 125.699 4.97551 126.976 6.88477C127.983 9.41483 127.562 13.0225 127.784 14.5687C127.878 15.2363 122.689 22.0886 119.163 25.8836C117.312 27.8632 102.974 37.55 101.662 38.3348C96.2848 41.5208 103.337 47.7405 106.956 46.1007V46.0773Z" fill="#FFDBB0"/>
<path d="M52.626 71.5774C50.0723 74.74 40.4198 78.3945 34.8321 81.0417C26.023 85.2116 18.6313 86.828 17.6825 87.3903C16.2299 88.2688 12.1065 90.3303 9.45909 91.6539C8.38138 92.1927 6.55401 91.9819 2.9226 91.4548C1.31776 91.2205 3.48488 89.6158 1.89175 88.585C-0.790809 86.8398 1.23573 86.0433 0.919447 85.1179C0.380593 83.5249 0.19314 83.0915 2.43056 82.7753C4.66797 82.459 6.12057 82.5176 7.15142 82.6113C8.18227 82.705 9.74027 82.5059 8.33457 81.2408C6.92886 79.9758 6.23767 79.2027 6.30796 77.8674C6.38996 76.5438 7.36225 76.2979 8.8851 78.0197C11.0874 79.6244 14.6719 80.1281 16.1245 80.7255C16.7453 80.9832 24.6759 77.68 29.2327 75.2085C31.6224 73.9201 45.7732 64.6432 46.8509 63.5773C51.2906 59.1731 55.0977 68.4734 52.6026 71.5774H52.626Z" fill="#FFDBB0"/>
<path d="M98.9439 37.702C95.1485 40.5132 88.612 45.3625 87.9912 44.0038C87.1477 42.1648 88.3777 41.8485 83.5397 41.5088C79.9552 41.2512 78.1043 41.2746 76.6986 41.298C74.1801 41.3566 73.3718 42.5982 72.4112 42.8207C69.2366 43.5704 68.9555 44.812 62.091 48.5954C57.2999 51.2425 53.0477 55.1782 48.3854 58.493C44.1097 61.5268 44.8008 62.1124 48.3854 69.3629C51.2788 75.2195 53.1179 75.2313 55.3436 74.7393C58.7525 73.9779 54.3128 85.656 54.3128 96.0105C54.3128 100.79 53.5162 110.91 53.399 119.519C53.3522 123.162 69.7521 122.974 72.8681 122.541C75.4921 122.178 86.316 121.686 89.9006 122.752C92.3489 123.478 102.974 123.174 103.138 119.121C103.559 108.204 100.244 102.71 100.244 97.3341C100.244 91.8289 99.7991 70.5108 101.509 61.1168C103.173 51.9922 108.948 49.5324 111.982 46.3347C114.571 43.6055 112.404 43.1838 108.889 38.6157C104.66 33.1222 104.532 33.5556 98.9439 37.6903V37.702Z" fill="#EE8084"/>
<path d="M92.9109 51.2663C84.875 51.8403 77.2256 51.5474 73.9105 51.5474C69.2131 51.5474 67.21 49.3336 66.6594 55.4128C66.1088 61.492 63.3442 75.0325 57.2646 83.6065C51.1849 92.1689 51.466 92.7312 51.466 99.6303C51.466 106.529 47.7761 142.032 47.1904 151.133C46.3587 164.123 46.9561 164.814 53.0358 164.814C59.1154 164.814 76.347 165.412 88.2252 164.85C100.103 164.287 110.986 164.967 110.154 157.775C109.323 150.595 106.499 141.048 106.218 131.654C106.019 124.743 103.313 94.8747 101.486 88.5612C99.0023 79.9989 96.5072 66.4467 96.5072 58.9853C96.5072 51.524 96.7883 50.9735 92.9109 51.2429V51.2663Z" fill="#E2C2BC"/>
<path d="M93.8481 44.2499C95.0547 48.1387 96.0972 51.1724 96.1441 54.5107C96.1675 56.4083 95.7458 57.6967 93.6841 57.5796C91.6224 57.4624 90.697 57.5679 90.6618 55.2135C90.6267 52.8591 88.3307 45.5969 88.401 44.3553C88.4713 43.1137 90.123 42.1415 91.7981 42.2821C92.8641 42.3641 93.403 42.7975 93.8481 44.2616V44.2499Z" fill="#E2C2BC"/>
<path d="M72.4571 43.4655C72.4571 41.6617 66.7641 43.934 66.7641 46.2884C66.7641 48.6428 66.6469 50.8566 66.7874 53.4803C66.928 56.1041 67.6075 55.5419 69.6926 55.413C70.7937 55.3427 72.1292 55.7761 72.2463 52.1684C72.3869 47.9517 72.4571 43.8755 72.4571 43.4655Z" fill="#E2C2BC"/>
<path d="M54.8978 117.832H67.3383C68.4511 117.832 69.236 117.586 69.728 117.071C70.3371 116.439 70.3722 115.537 70.3605 114.904C70.3254 113.944 70.3605 109.258 70.384 105.498C70.3957 103.343 70.4074 101.41 70.4074 100.415C70.4074 100.204 70.2434 100.04 70.0326 100.04C69.8217 100.04 69.6577 100.204 69.6577 100.415C69.6577 101.41 69.646 103.343 69.6342 105.498C69.6108 109.469 69.5757 113.967 69.6109 114.939C69.6343 115.724 69.5054 116.239 69.2008 116.556C68.8611 116.907 68.252 117.083 67.35 117.083H54.9095C54.6986 117.083 54.5347 117.247 54.5347 117.458C54.5347 117.668 54.6986 117.832 54.9095 117.832H54.8978Z" fill="#9FA198"/>
<path d="M53.4453 116.333C53.6561 116.333 53.8201 116.169 53.8201 115.958C53.8201 115.666 53.8201 114.951 53.8084 114.014C53.785 110.676 53.7381 104.479 53.8201 102.711C53.8201 102.5 53.6678 102.324 53.457 102.324C53.2813 102.324 53.0705 102.477 53.0705 102.687C52.9885 104.468 53.0353 110.687 53.0705 114.026C53.0705 114.963 53.0705 115.666 53.0705 115.97C53.0705 116.181 53.2344 116.345 53.4453 116.345V116.333Z" fill="#9FA198"/>
<path d="M99.5765 117.891C101.053 117.891 102.587 117.856 103.267 117.832C103.477 117.832 103.63 117.645 103.63 117.446C103.63 117.235 103.454 117.071 103.243 117.083C101.908 117.141 98.3934 117.188 96.9057 117.083C95.5234 116.989 95.0314 116.497 95.0314 115.173C95.0314 112.222 95.0314 102.418 95.0783 100.309C95.0783 100.099 94.9143 99.9346 94.7152 99.9229C94.4926 99.9229 94.3403 100.087 94.3286 100.286C94.2817 102.347 94.2817 111.378 94.2817 115.162C94.2817 116.884 95.0782 117.692 96.8588 117.821C97.5265 117.868 98.5457 117.879 99.5882 117.879L99.5765 117.891Z" fill="#9FA198"/>
</svg>
