<svg width="258" height="30" viewBox="0 0 258 30" fill="none" xmlns="http://www.w3.org/2000/svg">
<path fill-rule="evenodd" clip-rule="evenodd" d="M63.2499 0.463612C64.1459 0.655724 64.2784 1.14716 65.32 1.22758C65.4701 0.937174 65.6952 0.503791 66.2601 0.655694V0.84783C66.7412 1.02654 66.472 0.655742 66.8251 1.03997H67.0148V1.80393L67.39 1.99601V2.37581H67.5798C67.6416 2.56793 67.7034 2.75553 67.7696 2.94764H67.0148V3.51952C66.494 3.65802 66.5955 3.57315 66.4499 4.09141C65.7922 4.25225 65.5716 4.57393 64.7551 4.66329C64.7683 5.16368 64.8301 5.31111 64.9448 5.61492C64.3004 5.56577 63.4663 5.46299 63.4398 5.42278V5.80253H63.6296C64.2254 5.807 63.0646 5.99466 63.0646 5.99466C62.8263 5.69533 62.5615 5.53001 62.1245 5.42278C61.8421 5.94104 61.4713 6.23591 60.8048 6.37441V5.99466L60.4296 6.18675C60.3193 6.47715 60.284 6.49952 60.2399 6.95077C59.8426 6.98204 59.1011 7.12053 58.9202 7.33051C58.6907 7.59858 59.0879 7.54051 58.545 7.90239V7.13837H58.3552V7.90239H57.7903V7.52259C57.5034 7.63429 57.4813 7.67005 57.0355 7.71473V7.33498L56.4706 7.52707C56.347 7.85321 56.2896 8.12577 56.2808 8.67083H55.3406C55.3406 8.67083 55.1508 8.97463 54.9654 9.05058V9.24271H54.7757V8.86291H54.4006V8.67083H54.2107V8.86291H53.6457V9.05505C53.3191 9.34992 53.2486 9.94859 53.0809 10.3909C52.3879 10.3239 51.8406 10.0558 51.386 10.583C51.3242 10.7751 51.2624 10.9627 51.1962 11.1549C50.6931 11.2174 50.1898 11.28 49.6911 11.347V11.5391L49.316 11.7312V12.111L48.751 11.9189L48.5612 12.2986H47.9963C47.9654 12.3165 47.7756 12.5845 47.6211 12.6784V12.8705C47.3077 12.808 46.9944 12.7454 46.681 12.6784V12.4863C46.5707 12.4729 46.0366 12.808 45.7408 12.866C45.6128 13.2279 45.498 14.0321 45.3656 14.3895L44.8008 14.1974V14.0053C44.5404 13.9561 44.8757 14.1438 44.6109 14.1974C44.1607 14.2868 44.1254 14.0544 43.8562 14.0053L43.4811 14.5772H42.7262V14.7693L42.1614 14.9614V15.5333H42.5365V15.7254H42.3467C42.2452 15.8147 40.8372 16.2079 40.8416 15.7254H40.6518V16.1051L39.7118 15.913C39.7206 16.5966 39.6676 17.1148 39.3366 17.4365V17.2444H39.1468V16.4804H38.7716C38.7583 16.9808 38.6966 17.1282 38.5818 17.432C38.189 17.3159 37.8138 17.2176 37.4519 17.6242V18.0039H37.2621V18.196L36.1322 18.0039C36.0704 18.129 36.0086 18.2586 35.9424 18.3837C35.6909 18.4462 35.4393 18.5088 35.1877 18.5758V18.9556H34.433V19.3353C33.9828 19.2459 33.8415 19.1164 33.4928 18.9556V19.9072C33.0514 19.9697 32.6145 20.0322 32.1731 20.0993V20.2914C31.6214 20.421 31.5552 20.5014 31.4184 21.0554C31.6832 21.0688 31.3919 21.0241 31.6082 20.8633C31.9039 20.6444 31.7847 21.3324 31.7979 21.4351C31.4757 21.6496 31.542 21.5558 31.4228 22.007C31.6744 21.9444 31.926 21.8819 32.1775 21.8149L32.3673 21.4351C32.4026 21.4306 32.8087 21.6138 33.122 21.6272V21.2475C33.3118 21.3101 33.4972 21.3726 33.687 21.4396L33.8769 21.0598C34.1064 20.9481 34.4286 20.9571 34.6316 20.8677V20.1037C35.0774 20.0278 35.6687 19.7419 36.3264 19.9117V20.1037H37.0812V19.9117H37.4563V19.1476H37.8315V19.5274C38.3965 19.4023 38.9614 19.2727 39.5263 19.1476L39.7162 19.3398C40.2326 18.9734 39.8882 18.6875 40.846 18.5758C41.0623 18.7947 40.846 18.6517 41.2212 18.7679V18.196L42.1614 18.0039V17.6242C42.7837 17.7269 43.0176 17.8654 43.2912 17.6242H43.4811C43.7194 17.3293 43.278 17.2399 43.6708 17.0523V17.2444H43.8606V16.6726C44.2755 16.6055 44.836 16.4224 45.3656 16.6726C45.4274 16.7976 45.4893 16.9272 45.5555 17.0523H45.9306V16.6726C46.3102 16.7798 46.0939 16.6502 46.3058 16.8646L46.8708 16.6726V16.4804H47.4357C47.5593 16.2883 47.6872 16.1006 47.8108 15.9085C48.1242 15.9711 48.4376 16.0337 48.751 16.1007V16.2928C48.8878 16.3196 49.444 16.123 50.0707 16.1007L49.8809 15.5288H50.256V15.7209H51.0108L51.2006 15.913V15.7209L51.7655 15.5288C51.7522 15.0284 51.6905 14.881 51.5757 14.5772H52.7057C52.9219 14.3582 52.7057 14.5012 53.0809 14.3851C53.2265 13.8132 53.1956 13.8847 53.8356 13.8132C54.0475 14.1393 53.9548 14.0723 54.4006 14.1929C54.5904 13.7149 54.789 13.1967 55.1553 13.429H55.345V14.0008H55.7203C55.8571 13.4736 55.7732 13.5764 56.2852 13.429V13.2368L57.415 13.0448C57.415 13.0448 57.4989 13.3217 57.7903 13.2368L57.98 12.8571H58.545V12.4773L58.9202 12.6694V12.8616C59.1674 12.9554 58.9599 12.7722 59.1099 12.6694C59.5822 12.5399 59.4145 12.5711 59.6749 12.2897H59.8647V11.9099L60.2399 11.7178C60.4606 11.4765 60.5577 11.1638 60.8048 10.9538V11.146H61.3697C61.4315 11.4006 61.4934 11.6553 61.5596 11.9099H61.7493C62.2084 11.1326 62.8042 11.204 63.8193 10.9583C63.8767 10.9449 63.8679 10.6947 64.1945 10.7662V10.9583C64.5697 11.0834 64.9493 11.213 65.3245 11.3381V11.146H65.5142L65.3245 10.5741C65.448 10.5115 65.576 10.449 65.6996 10.382C65.96 9.98432 65.6157 10.1139 66.0748 9.81007V9.61799L67.0148 9.42585C66.9133 9.95751 66.8692 9.44373 67.0148 9.99773H67.2047V9.61799C67.5799 9.68054 67.9594 9.74305 68.3345 9.81007V9.61799C68.5376 9.44375 68.3699 9.64924 68.5244 9.42585H68.3345V9.23377H68.8995C68.9392 9.68501 68.9789 9.70733 69.0893 9.99773C69.3055 9.77881 69.1644 9.99774 69.2791 9.61799C69.4954 9.39907 69.3541 9.618 69.4689 9.23824C70.0338 9.04613 70.5988 8.85847 71.1638 8.66636L71.3535 8.85849C71.4153 8.24195 71.5257 8.30003 71.7287 7.90687H72.1038V8.09895H72.2936V7.90687H73.0484L73.2382 7.33498C73.7281 7.53603 74.0326 7.68346 74.7432 7.71473C74.6814 7.58963 74.6197 7.46008 74.5535 7.33498C74.6815 7.125 75.6128 7.06691 75.8732 6.7631L75.6834 6.38335H75.8732V6.19122C76.3719 6.4146 76.5837 6.55756 77.3782 6.57096V6.37888H77.1884V5.807C77.7843 5.9321 77.568 6.09739 77.7534 6.18675C77.9741 6.17334 78.4243 5.80255 78.8833 5.99466L79.0731 6.37441H79.4483C79.2673 7.00436 79.2717 7.4958 79.6381 8.09H79.4483C79.232 8.30892 79.4483 8.16598 79.0731 8.28214V9.23377H78.8833C78.8348 9.55098 79.0599 9.56437 79.0731 9.61352V10.5651C78.3978 10.592 78.005 10.8377 77.5681 10.9449L77.1929 10.7528C77.0693 10.9449 76.9412 11.1325 76.8176 11.3246C76.7117 11.3693 75.7893 11.1817 75.498 11.1326C75.3832 11.6329 74.964 12.1423 74.3681 12.0842C74.3681 12.0842 74.2666 11.8429 73.9929 11.892L74.1827 12.2718H73.428C73.3662 12.589 73.3044 12.9062 73.2382 13.2234L72.298 13.0313L72.1083 13.4111C71.6007 13.5407 71.6139 13.0447 71.5433 13.0313L70.9783 13.2234L71.1682 13.4156C71.177 13.4915 71.0004 13.8444 70.9783 14.1795C70.3516 14.2421 69.7248 14.3046 69.0937 14.3717V13.9919C68.6479 13.9517 68.6258 13.9115 68.3389 13.7998V14.3717C68.2992 14.4521 67.0457 15.3322 67.774 15.7075H67.2091V15.5154C67.0282 15.1624 67.0193 15.8952 67.0193 15.8952C66.8074 16.056 66.9928 15.8728 66.8295 16.0873C67.3591 15.9085 67.3548 15.8862 67.9594 16.0873V16.2794L68.5244 16.0873L68.3345 15.8952L68.5244 15.3233C69.4071 15.6673 69.9897 15.435 70.5944 14.9435C70.6562 14.8184 70.718 14.6888 70.7842 14.5637H71.7243C71.7243 14.5637 71.7066 14.4521 72.0994 14.3717V14.9435H72.2892V14.5637C73.0925 14.5503 73.5383 14.5235 73.9841 14.184L74.1738 13.8042C74.4872 13.8668 74.8006 13.9294 75.114 13.9964C74.8977 13.7775 75.114 13.9204 74.7388 13.8042V13.4245C74.9286 13.4871 75.114 13.5496 75.3038 13.6166V13.2368H75.679V13.6166C76.7692 13.5272 77.5504 12.9062 78.314 12.4729V13.0448H78.6891V12.665H80.0089V12.4729H80.5737V12.2807C80.9489 12.3433 81.3285 12.4059 81.7036 12.4729C81.8625 12.2584 81.6815 12.446 81.8934 12.2807V11.5168C82.2686 11.4542 82.6482 11.3917 83.0233 11.3246C82.9615 11.5167 82.8998 11.7044 82.8336 11.8965H83.0233V12.0887C83.2352 11.9278 83.0498 12.111 83.2131 11.8965C83.4294 11.6776 83.2882 11.8965 83.403 11.5168C83.6987 11.5302 84.7227 11.7089 84.7227 11.7089V11.5168H84.9124V10.9449C85.1199 10.6768 85.7598 10.7483 86.2321 10.7528V10.9449L87.362 10.7528V10.5607H87.7371V10.3685H88.3021L88.1123 10.9404H88.3021C88.4389 10.4132 88.3551 10.516 88.8671 10.3685V10.7483C89.0569 10.6858 89.2422 10.6232 89.432 10.5562V10.3641C89.8734 10.3016 90.3104 10.239 90.7517 10.172V9.97984H91.3167L91.5065 9.6001C91.6653 9.53755 92.7468 9.80114 93.0116 9.97984V9.6001L93.5766 9.40802V9.21588C93.8326 9.13546 93.5015 9.3544 93.7663 9.40802C94.0797 9.47057 94.1017 9.22482 94.1414 9.21588C94.4857 9.1444 94.8697 9.46606 95.0816 9.59563V9.40354C95.6686 8.86295 95.1258 8.59488 96.2115 8.45192V8.644H96.7765L96.5866 9.0238C96.8294 9.33207 96.9397 8.81377 97.1516 9.59563C97.3988 9.39458 97.4341 9.20698 97.7166 9.0238V9.59563H98.0918C98.03 9.21587 97.9681 8.83167 97.9019 8.45192C98.7846 8.14811 98.5375 8.59935 99.0318 7.50029H99.2216C99.1995 7.90685 99.0274 8.15256 99.0318 8.26425L99.2216 8.45639C99.5659 8.21513 99.2437 8.19727 99.4115 8.07664C99.6277 7.9158 99.5306 8.25085 99.6012 8.26872C99.791 8.20618 99.9764 8.14366 100.166 8.07664V7.69684C100.59 7.62089 100.89 7.38413 101.486 7.50476C101.486 7.50476 101.495 7.75492 101.861 7.69684V7.50476H102.801V7.69684C102.351 7.813 102.452 7.75943 102.236 8.07664H102.611C103.154 7.16969 104.059 7.4869 105.061 7.12501L105.251 6.55313C105.789 6.55313 106.059 6.62012 106.381 6.74521V5.98125H106.57C106.694 6.17336 106.822 6.36102 106.946 6.55313H107.135L106.946 6.93288H107.135V7.12501C107.674 7.51817 107.621 6.78542 107.89 7.69684H108.265V8.07664H108.64C108.579 8.26875 108.517 8.45636 108.451 8.64847H108.64C108.768 8.9344 108.773 8.96572 108.83 9.41249H109.205V9.79224C109.497 9.96201 109.598 10.0737 109.77 10.3641C110.379 10.029 110.128 9.90839 110.9 10.172L110.71 9.6001H111.086V9.22035H111.461V9.41249H111.651V9.22035L112.216 9.41249L112.026 9.98432H112.401C112.538 9.45712 112.454 9.55992 112.966 9.41249C113.248 9.07741 113.474 9.05056 114.096 9.03269V8.65294C114.471 8.52785 114.851 8.39829 115.226 8.2732C115.239 8.77358 115.301 8.92102 115.416 9.22482C115.627 9.06399 115.442 9.24714 115.605 9.03269H115.795V8.46086C116.36 8.52341 116.925 8.58593 117.49 8.65294V8.2732H117.865L118.055 7.70131C118.307 7.76386 118.558 7.82643 118.81 7.89345C118.871 7.76835 118.933 7.6388 118.999 7.5137L119.94 7.70579V8.08553C120.421 7.79066 121.237 6.9016 121.824 7.32157H122.199V7.70131H122.389V7.32157C123.294 7.27242 123.298 7.18754 124.084 7.32157C124.146 7.00436 124.208 6.68715 124.274 6.36994C125.143 6.20463 125.801 6.20463 126.344 6.36994V5.99019H127.474V6.18227H128.039V6.37441C128.228 6.31186 128.414 6.24929 128.604 6.18227V5.99019C128.387 5.77127 128.529 5.9902 128.414 5.61045C129.032 5.62385 128.97 5.8517 129.354 5.61045L129.544 5.23065L130.674 5.61045V5.99019C131.181 5.99019 131.742 6.05272 131.993 5.79806V5.41831L132.369 5.61045V5.41831C132.744 5.35576 133.123 5.29324 133.498 5.22623C133.675 5.34239 133.432 5.49873 133.688 5.41831L133.878 5.03856C134.116 5.03856 134.359 5.37808 134.818 5.23065V5.03856C135.132 4.97602 135.445 4.91344 135.758 4.84643L135.568 5.41831H135.758C136.178 5.87849 136.111 5.6864 136.698 5.61045C136.676 6.21359 136.332 5.96782 136.888 6.18227C136.972 6.65585 137.06 6.88376 137.078 7.51818C136.557 7.65668 136.659 7.57175 136.513 8.09H136.323V9.04163C135.873 9.13099 135.732 9.26054 135.383 9.42138V8.84955H135.193C134.915 9.91734 134.867 9.24269 134.253 9.61352V9.80565L133.498 10.3775C133.56 10.1854 133.622 9.99776 133.688 9.80565H133.498C133.384 10.1095 133.331 10.2569 133.309 10.7573C132.598 10.9092 132.254 11.1281 131.239 11.137V10.7573H130.863V11.137H129.923V11.3291H130.113C129.994 11.6016 129.892 11.4721 129.738 11.7089H129.363L129.553 11.3291H129.363C129.177 11.5882 129.252 11.7044 128.798 11.7089C128.798 11.7089 128.665 11.4364 128.423 11.5168C128.361 11.6419 128.299 11.7714 128.233 11.8965H127.858L127.668 13.0403L126.913 13.2324V12.4684H126.538C126.401 13.0805 126.282 13.1609 125.598 13.2324L125.788 12.6605H125.598C125.527 12.8794 125.545 13.3396 125.223 13.2324L125.033 12.6605C124.843 12.723 124.658 12.7856 124.468 12.8526V13.2324C124.168 13.1162 124.022 13.0626 123.528 13.0403V12.4684H123.338V13.0403C123.554 13.2592 123.413 13.0403 123.528 13.42C123.086 13.4826 122.65 13.5451 122.208 13.6121V13.9919C121.542 14.0634 121.634 14.2287 121.078 14.3717V14.9435C120.619 14.8363 120.663 14.7425 120.324 14.5637V14.9435H120.134V15.5154H120.324V15.1356H120.699V15.5154C121.012 15.4528 121.325 15.3903 121.639 15.3233V15.8952H122.014V15.3233C122.327 15.3858 122.641 15.4484 122.954 15.5154C123.042 15.0597 123.17 14.9167 123.329 14.5637C123.943 14.5682 124.689 14.4789 125.024 14.7559H125.214C125.276 14.6308 125.337 14.5012 125.404 14.3761H125.779V14.184H126.154V13.9919L126.529 14.184V13.9919H128.414C128.352 13.7998 128.29 13.6121 128.224 13.42H128.599V13.2279H128.789V13.42L129.354 13.6121C129.367 13.8802 129.398 13.6657 129.164 13.8042C129.376 14.0053 129.164 13.8892 129.539 13.9964V13.8042H129.729V13.2324H129.919C130.082 12.9688 130.06 12.9018 130.109 12.4684C130.554 12.4461 130.585 12.4103 130.863 12.2763V12.4684H131.053V12.6605L130.863 13.0403H131.428V12.6605C131.87 12.5979 132.307 12.5354 132.748 12.4684V12.6605H132.938C133.15 12.5086 132.867 12.4103 133.128 12.4684V12.6605H133.882V13.0403H134.072C134.134 12.6605 134.196 12.2763 134.262 11.8965H134.637V12.2763H134.827V11.7044C135.26 11.7223 135.317 11.8652 135.582 11.8965L135.771 11.5168C135.771 11.5168 136.288 11.6955 136.526 11.7089V11.3291L136.716 11.5212C136.968 11.4587 137.219 11.3961 137.471 11.3291V11.5212H138.411V10.9494H138.786V11.1415H138.976V10.9494L139.351 11.1415L139.541 10.5696C140.04 10.382 139.934 10.9851 140.296 10.9494V10.7573C141.121 10.5607 141.333 10.2882 142.18 10.1854V10.3775H141.99C141.633 10.5428 142.366 10.5696 142.366 10.5696C142.524 10.7841 142.344 10.5964 142.555 10.7617V10.382L143.495 10.1899C143.557 10.0648 143.619 9.93517 143.685 9.81007L143.875 10.0022C144.992 10.0737 145.137 9.60459 145.76 9.23824V9.81007H145.949C146.166 9.59115 145.95 9.73415 146.325 9.61799V9.23824C146.514 9.30079 146.7 9.36331 146.89 9.43032L147.079 9.05058H147.834V8.85849H148.024C148.139 9.3142 148.086 9.2114 148.399 9.43032V8.85849C149.388 8.69766 149.233 8.83615 150.094 9.23824C150.191 8.79147 150.368 8.5234 150.659 8.28661C150.875 8.50553 150.659 8.36253 151.034 8.47869V8.09895H151.599V7.7192C151.912 7.78175 152.226 7.84427 152.539 7.91128V8.29108H152.914V7.7192C153.325 7.74601 153.541 7.91128 153.669 7.91128V7.7192L154.234 7.52707C154.296 7.65216 154.358 7.78177 154.424 7.90687C155.024 8.08558 155.924 7.50922 156.308 7.33498L156.119 6.7631H156.684C156.798 7.21881 156.745 7.11606 157.059 7.33498C157.218 7.54943 157.037 7.36176 157.249 7.52707C157.262 7.02668 157.324 6.87924 157.438 6.57544C157.814 6.51289 158.193 6.45037 158.568 6.38335C158.727 6.59781 158.546 6.41013 158.758 6.57544C158.612 6.76755 158.528 6.76312 158.383 6.95524H158.948L158.758 6.38335L158.948 6.19122C159.226 6.28057 159.248 6.41016 159.703 6.38335V6.19122H159.892V6.38335C160.144 6.4459 160.396 6.50842 160.647 6.57544V6.76757C161.415 7.06244 161.764 6.6291 162.152 6.95971C162.739 7.35287 162.24 7.20542 162.527 7.72367L162.902 7.91576V8.29556H163.092C163.264 8.55468 163.234 8.63062 163.282 9.05952L162.527 8.86738C162.677 9.48393 162.876 9.52416 162.902 10.3909C162.691 10.5517 162.876 10.3686 162.713 10.583H162.523C162.466 10.0112 162.496 10.0647 162.148 9.81901V10.0111H162.337C162.214 10.2658 162.086 10.5205 161.962 10.7751C161.472 10.784 161.314 10.8153 161.022 10.9673V11.1593C160.7 11.271 160.696 10.9807 160.647 10.9673C159.972 10.793 159.544 11.2085 159.327 11.5391H159.138C159.076 11.9189 159.014 12.3031 158.948 12.6828H158.573L158.383 12.3031C158.131 12.3656 157.88 12.4282 157.628 12.4952C157.668 12.9464 157.708 12.9688 157.818 13.2592C157.381 13.2413 157.337 13.1073 157.063 13.0671L156.873 13.4468C156.622 13.5094 156.37 13.5719 156.119 13.6389C155.982 14.1661 156.066 14.0634 155.554 14.2108C154.892 14.814 154.336 13.9695 154.234 14.0187V14.2108C153.921 14.4029 153.607 14.5905 153.294 14.7827C153.395 15.4483 153.479 15.1356 153.294 15.7343H153.484V15.5422H154.238V15.9219L154.803 15.7298V15.5377L155.368 15.7298V15.158C155.558 15.2205 155.743 15.283 155.933 15.3501V15.158L155.743 14.9658H156.873C156.935 15.158 156.997 15.3456 157.063 15.5377C157.187 15.4752 157.438 15.158 157.438 15.158C157.628 15.2205 157.814 15.283 158.003 15.3501V15.158C158.281 15.0105 158.317 15.015 158.758 14.9658V14.5861H159.133V14.2064H159.888V14.5861C160.312 14.537 160.387 14.5682 160.643 14.394V14.2019H161.018V14.0097H161.393V13.8177C161.728 13.5451 161.843 13.3887 162.333 13.2458V13.8177H163.088C163.15 13.5005 163.211 13.1832 163.278 12.866H163.653C163.591 13.0581 163.529 13.2458 163.463 13.4379H163.653C163.922 13.1654 164.703 12.9509 165.158 12.866V12.4863C165.409 12.4237 165.661 12.3612 165.913 12.2942V11.7223H166.288V12.2942H166.663V11.7223H167.603C167.541 11.9144 167.479 12.102 167.413 12.2942H167.788C167.983 12.0752 168.137 11.9278 168.543 11.9144V12.1065H168.733L168.923 11.9144C169.099 11.5704 169.183 11.615 169.298 11.1504L169.863 10.9583V10.7662L170.053 10.9583L170.618 10.7662V11.3381H170.993C171.033 10.8868 171.072 10.8645 171.183 10.5741L171.558 10.7662V10.5741C171.827 10.3373 171.849 10.0469 172.123 9.81007C172.18 9.89942 172.507 10.5026 172.688 10.382L172.877 9.81007C173.694 9.74752 174.511 9.685 175.327 9.61799V9.81007C174.806 9.94857 174.908 9.86369 174.762 10.382C175.23 10.2971 175.455 10.2077 176.082 10.1899V9.99773H175.892V9.0461C176.205 9.10865 176.519 9.17123 176.832 9.23824C176.894 9.04613 176.956 8.85847 177.022 8.66636C177.238 8.88528 177.097 8.66635 177.212 9.0461L177.777 9.23824V9.0461C178.165 8.83165 178.117 8.75125 178.717 8.66636V8.09448C179.118 8.07214 179.361 7.89793 179.472 7.90239L179.661 8.09448V7.71473L180.601 7.52259V7.90239C180.725 7.83985 180.853 7.77727 180.977 7.71026V7.51818C181.277 7.48243 181.211 7.84878 181.352 7.89792H182.106C182.168 7.58071 182.23 7.2635 182.296 6.94629C182.61 7.00884 182.923 7.07136 183.236 7.13837L183.426 6.75863H183.616V6.95077C183.806 6.88822 183.991 6.82564 184.181 6.75863V6.37888C184.397 6.5978 184.256 6.37887 184.371 6.75863H184.746C184.834 6.30292 184.962 6.15995 185.121 5.807C185.748 5.81594 186.816 5.99914 186.816 5.99914V5.807H187.191V5.61492H187.756C187.818 5.48982 187.88 5.36021 187.946 5.23512C188.136 5.29767 188.321 5.36024 188.511 5.42725V5.61939H189.451V5.23959L190.206 5.04751V5.42725H190.581C190.7 5.94998 190.828 5.86063 190.956 6.37888H191.521C191.658 6.90607 191.574 6.80333 192.086 6.95077V7.33051C190.96 7.56283 191.11 8.09448 190.766 9.0461H191.896L192.086 8.28214C192.872 8.16151 192.62 8.09451 193.406 7.90239V8.28214C194.297 7.90238 194.165 7.90238 194.911 8.28214V7.90239C195.162 7.83985 195.414 7.77727 195.665 7.71026V7.33051H196.041V7.52259H196.23V7.33051C196.658 7.24562 196.738 7.42877 196.985 7.52259V7.33051H196.795C196.447 7.14733 197.17 7.13837 197.17 7.13837V6.75863H197.546V6.37888C198.137 6.49058 198.384 6.68715 199.051 6.75863L199.24 6.18675C199.24 6.18675 198.839 6.1555 199.051 5.99466H199.426V6.18675H200.556V5.61492C201.156 5.74001 200.927 5.89637 201.121 5.99466C201.434 5.96339 201.469 5.61939 201.496 5.61492C201.858 5.51216 201.756 5.73998 201.871 5.807H202.061V5.61492C202.312 5.67747 202.564 5.73998 202.816 5.807C202.952 5.27981 202.868 5.38255 203.38 5.23512V5.61492H204.135C204.312 5.2709 204.396 5.31554 204.51 4.8509L205.075 5.04304V4.8509C205.199 4.78835 205.327 4.72583 205.451 4.65882V5.03856H205.826L205.636 4.46668C206.086 4.37733 206.227 4.24777 206.576 4.08693V4.8509C207.556 4.59177 207.247 4.43096 208.461 4.65882V4.08693H209.026V4.27907C208.946 4.39076 208.717 4.30587 208.836 4.65882H209.026C209.33 3.47934 209.427 4.3371 210.156 3.8948C210.584 3.63567 210.142 3.19336 211.096 2.94317V3.13531L211.661 2.94317V3.32297H211.85V2.94317C212.517 3.01465 212.424 3.18 212.98 3.32297V3.70272C213.157 4.00205 214.327 4.05567 213.735 4.65435H214.11V5.41831L213.735 5.61045C213.726 5.67299 213.912 6.03486 213.925 6.37441H214.3C214.212 6.83012 214.084 6.97309 213.925 7.32604C213.589 7.34391 213.245 7.52711 213.17 7.51818V7.32604H212.415V7.51818L211.285 7.71026V8.09C211.034 8.2151 210.782 8.34465 210.531 8.46975V8.27767H210.341V8.84955L209.021 9.2293C209.237 9.44822 209.021 9.30522 209.396 9.42138V9.61352C209.727 9.76989 210.001 9.5018 210.151 9.42138V9.2293H210.716V8.84955C211.594 8.80487 211.789 8.57254 212.411 8.27767V8.08553H213.731V8.27767H213.541C213.325 8.49659 213.541 8.35359 213.166 8.46975V8.84955C213.934 8.62616 213.364 8.6753 213.731 8.27767L214.106 8.46975V8.27767H214.481V8.08553H215.046C215.245 7.96937 215.514 7.14286 215.986 7.32157V7.5137H216.361V6.94182C216.551 7.00437 216.736 7.06689 216.926 7.1339V6.94182C217.301 6.87927 217.681 6.8167 218.056 6.74968V7.12943H218.431C218.493 7.32154 218.555 7.5092 218.621 7.70131H218.811V7.32157H219.186C219.296 6.6112 219.296 6.88376 219.186 6.17786C219.243 6.2002 221 6.59334 221.071 6.5576V6.36547H221.26V5.6015H221.45C221.834 5.94998 222.306 5.65511 222.955 5.6015V5.22176C223.335 5.32898 223.119 5.19939 223.33 5.41384C224.023 5.21279 223.847 5.02963 224.271 4.64987V4.45774C224.747 4.1584 225.758 4.44433 226.53 4.45774C226.65 3.93501 226.778 4.02436 226.906 3.50611C227.713 3.47483 227.55 3.38549 228.035 3.12636V3.69824H228.79C228.83 3.247 228.87 3.22468 228.98 2.93428L229.545 3.12636L229.735 2.74662H230.11V2.55448C230.3 2.49193 230.485 2.42941 230.675 2.3624L230.865 2.93428C231.341 2.54559 230.944 2.47409 231.805 2.3624V2.55448C231.588 2.72872 231.584 2.69302 231.43 2.93428H231.619V3.12636C232.012 2.91638 231.955 2.8181 232.559 2.74662C232.718 2.96107 232.537 2.77345 232.749 2.93875C232.529 3.30064 232.59 3.12192 232.184 3.3185V3.51058H232.559C232.498 3.89034 232.436 4.27459 232.37 4.65435H232.559V4.84643H232.37V5.22623C232.432 5.673 232.493 6.1153 232.559 6.56207H232.37C232.211 6.78099 232.273 6.83013 231.995 6.94182V6.74968H231.805C231.681 6.9418 231.553 7.12945 231.43 7.32157H230.865L230.675 7.70131C230.423 7.76386 230.172 7.82643 229.92 7.89345C229.858 8.08556 229.797 8.27322 229.73 8.46533L229.165 8.65741L228.976 9.03716H228.786V8.84508C228.093 8.67977 227.877 9.49287 227.466 9.03716V9.41696H227.091C227.153 9.67162 227.215 9.92626 227.281 10.1809H227.091C226.879 10.5071 226.972 10.44 226.526 10.5607C226.508 10.5205 226.257 9.86816 226.151 9.98879V10.1809L225.776 10.373C225.714 10.5651 225.652 10.7528 225.586 10.9449H225.021C224.39 11.2576 224.774 11.4498 223.701 11.5168C223.763 11.7089 223.825 11.8965 223.891 12.0887C224.143 12.0261 224.394 11.9635 224.646 11.8965V12.4684H224.836V12.2763H225.59C226.164 12.0573 226.429 11.7446 227.285 11.7044V11.3246C227.819 11.204 227.784 10.9717 227.85 10.9449H228.605V11.137L229.36 10.9449C229.36 10.9449 229.443 11.1817 229.735 11.137V10.9449L230.489 11.137V10.9449C230.706 10.726 230.564 10.9449 230.679 10.5651H230.489V10.7573C230.326 11.1192 230.3 10.3775 230.3 10.3775C230.988 10.44 231.681 10.5026 232.37 10.5696L232.559 10.1899C232.749 10.1318 232.904 10.4847 233.314 10.382V10.1899H234.254V10.382H234.444V10.1899H235.199L235.389 9.61799H235.579L235.389 9.23824H235.954C236.17 9.45716 235.954 9.31416 236.329 9.43032V9.05058C236.779 9.13993 236.92 9.26948 237.269 9.43032V9.23824H237.079C236.73 9.05506 237.454 9.0461 237.454 9.0461V9.23824C237.671 9.45716 237.529 9.23823 237.644 9.61799C238.046 9.59565 238.284 9.42585 238.399 9.42585V9.61799H238.774C238.827 9.27844 238.964 9.23824 238.964 9.23824C238.902 9.04613 238.84 8.85847 238.774 8.66636H238.964V8.47422C239.498 8.71548 239.741 8.96569 240.469 9.0461V8.66636C241.568 8.4117 240.575 8.18384 241.599 8.66636V7.90239H241.788V8.09448C242.04 7.90236 242.292 7.71471 242.543 7.52259V8.28661H242.733C242.826 8.19726 242.68 7.97831 242.923 8.09448V8.28661H243.113C243.113 8.28661 243.06 8.97016 243.302 8.66636V8.47422C243.519 8.2553 243.377 8.47423 243.492 8.09448H242.927C243.073 7.52261 243.042 7.59408 243.682 7.52259V7.71473L244.247 7.52259V7.71473H244.812V7.90687C245.297 8.00962 245.845 7.31262 246.132 7.14285L246.697 7.33498V7.14285C247.01 6.93733 247.01 6.88373 247.451 6.7631C247.39 6.95521 247.328 7.14287 247.262 7.33498H247.451V7.52707C247.641 7.40197 247.826 7.27242 248.016 7.14732V6.95524H248.391C248.731 6.80333 248.802 6.52183 248.956 6.19122C249.27 6.44588 249.583 6.70058 249.897 6.95524C250.011 6.57995 249.905 6.49058 250.272 6.38335C250.333 6.40569 250.329 6.74076 250.647 6.7631C251.048 6.22251 250.815 6.37885 251.402 6.57096C251.463 5.95442 251.574 6.01255 251.777 5.61939C252.434 5.72215 252.125 5.80703 252.717 5.61939V6.7631H252.907C253.119 6.43696 253.026 6.50398 253.472 6.38335C253.825 6.98203 254.169 6.92397 254.226 7.90687C254.743 7.9292 255.59 8.17046 255.731 7.90687H255.921V8.09895C256.442 8.22404 257.033 8.63061 257.241 9.05058V9.62246H257.431C257.691 9.97541 257.868 10.0648 257.996 10.5741C257.806 10.5115 257.621 10.449 257.431 10.382V10.5741H257.62V11.146H257.81C257.982 11.4274 257.978 11.6151 258 12.0976C257.784 12.3165 257.925 12.0976 257.81 12.4773C257.184 12.5399 256.557 12.6024 255.926 12.6694V12.2897C255.674 12.3522 255.422 12.4148 255.171 12.4818V12.102C255.047 12.1646 254.919 12.2271 254.796 12.2942C254.734 12.1691 254.672 12.0395 254.606 11.9144C254.601 11.9144 254.05 12.1735 253.666 11.9144L253.476 11.3425C253.255 11.1862 253.154 11.901 252.721 11.7223V11.5302C252.505 11.3113 252.646 11.5301 252.531 11.1504L251.967 11.3425V11.1504H251.777C251.839 10.9583 251.9 10.7707 251.967 10.5786C251.967 10.5786 251.733 10.5205 251.777 10.1988C251.777 10.1988 252.09 10.1139 251.967 9.81901H251.777C251.56 10.0379 251.777 9.89499 251.402 10.0111C251.34 10.2033 251.278 10.3909 251.212 10.583C250.77 10.5294 250.744 10.5205 250.457 10.3909V10.1988C250.139 10.2212 250.139 10.5607 250.082 10.5786C249.654 10.7305 249.323 10.3417 249.142 10.3864V10.5786C248.502 10.8377 248.36 11.1728 247.637 11.3425C247.698 11.1504 247.76 10.9628 247.827 10.7706H247.451C247.173 11.2889 246.873 11.6419 246.132 11.7223V11.1504H245.942C245.796 11.7223 245.827 11.6508 245.187 11.7223V11.3425C244.401 11.7759 244.296 11.7312 243.302 11.5347V11.1549H243.113C243.099 11.892 243.143 11.9412 242.548 12.1065V12.2986C242.367 12.6516 242.358 11.9189 242.358 11.9189H241.983C241.921 12.044 241.859 12.1735 241.793 12.2986C241.48 12.2361 241.166 12.1735 240.853 12.1065V12.4863H240.288V12.6784C240.072 12.8973 240.213 12.6784 240.098 13.0581L238.968 13.2503V12.8705L237.084 13.0626V13.4423H236.519V13.6345C236.351 13.9919 236.329 13.2547 236.329 13.2547C235.724 13.4022 235.923 13.5407 235.199 13.6345V14.2064C234.087 14.0902 234.171 13.5317 232.939 13.4423C232.935 14.0768 232.842 14.3047 232.749 14.7782H232.374C232.432 14.6129 232.736 14.3582 232.564 14.0142H232.374V14.2064C232.158 14.4253 232.299 14.2063 232.184 14.5861L231.054 14.7782V15.158C230.423 15.0418 229.867 14.6352 229.17 14.9658C229.046 15.158 228.918 15.3456 228.795 15.5377C228.283 15.6896 228.212 15.0239 228.04 14.9658C227.7 14.8497 227.903 15.1803 227.85 15.3456C227.66 15.283 227.475 15.2205 227.285 15.1535V15.9175H226.91L226.72 16.2972C226.411 16.391 226.371 16.1096 226.345 16.1051C225.89 16.0247 225.855 16.2972 225.59 16.2972V16.1051C225.215 16.0426 224.835 15.98 224.46 15.913V16.2928C223.211 16.4268 222.576 16.4581 221.636 16.2928L221.446 16.8646C221.093 16.7708 220.545 16.7842 219.941 16.6726V16.4804C220.157 16.2615 220.016 16.4804 220.131 16.1007C219.68 16.1185 219.663 16.2257 219.376 16.2928V16.1007C219.062 15.8952 219.067 15.8281 218.621 15.7209V15.3411H218.246C218.184 15.149 218.122 14.9614 218.056 14.7693L216.926 14.5772V14.1974C217.076 14.26 217.518 14.5861 217.866 14.3895V14.1974C217.31 13.8311 217.407 13.4379 217.491 12.8616C217.743 12.7365 217.747 12.5622 217.866 12.4818C217.99 12.5444 218.118 12.6069 218.241 12.6739V11.9099H218.431C218.369 11.5302 218.308 11.1459 218.241 10.7662C218.052 10.7036 217.866 10.6411 217.677 10.5741C217.738 10.6992 217.8 10.8287 217.866 10.9538L217.301 10.7617V11.1415H217.112C217.05 11.2666 216.988 11.3961 216.922 11.5212H216.357C216.401 11.9636 216.564 11.6374 216.357 12.0931L215.982 11.901V12.2807C215.779 12.6158 215.792 11.901 215.792 11.901C215.478 11.9635 215.165 12.0261 214.852 12.0931C214.852 12.0931 214.763 11.8072 214.477 11.901C214.415 12.0261 214.353 12.1556 214.287 12.2807H213.722C213.66 12.4728 213.598 12.6605 213.532 12.8526C213.241 12.6962 212.698 12.1646 212.212 12.2807C212.151 12.4058 212.089 12.5354 212.023 12.6605C211.661 12.6247 211.709 12.2897 211.647 12.2807H211.458V12.4729H210.518V12.665H210.893C210.831 13.0447 210.769 13.429 210.703 13.8087H210.328C210.156 13.7328 210.204 13.2279 209.573 13.429L209.383 13.8087H208.443V13.6166C208.169 13.4647 208.125 13.4826 207.688 13.4245V13.9964C207.498 13.9338 207.313 13.8713 207.123 13.8042V13.9964C206.907 14.2153 207.048 13.9964 206.934 14.3761C206.232 14.5772 206.426 14.7693 205.993 15.1401V15.3322H205.428V14.7603H205.053V15.1401H204.113V14.948H203.923C203.8 15.2026 203.672 15.4573 203.548 15.712L203.173 15.5198V15.712L202.608 16.0917V15.5198H202.418V15.712L201.853 15.5198V15.712C201.589 15.6986 201.928 15.5511 201.664 15.5198L200.534 15.712V16.2839H200.344V16.0917C199.832 15.8147 199.421 16.3598 199.214 16.4715C199.108 15.8728 199.029 15.6717 198.459 15.5198C198.565 15.9845 198.658 15.9398 198.834 16.2839H198.459C198.159 16.5653 197.351 16.4938 196.764 16.4759V16.0962H196.389V16.4759C196.014 16.4134 195.634 16.3509 195.259 16.2839C195.167 15.8326 195.083 15.8326 194.884 15.5198C195.14 15.2965 195.07 15.6628 195.259 15.3278C195.012 15.1714 195.039 15.1937 194.884 14.948H195.259C195.299 14.4967 195.339 14.4744 195.449 14.184C194.915 14.0589 194.739 13.8311 194.509 13.42H195.074C195.198 12.9107 195.325 12.4014 195.449 11.8965C195.202 11.7401 195.228 11.7625 195.074 11.5168C194.672 11.7491 194.663 11.9457 194.134 12.0887V11.7089H193.944V12.2807C193.211 12.3433 193.097 12.589 192.624 12.8526C192.585 12.4014 192.545 12.3791 192.435 12.0887C192.223 12.2495 192.408 12.0663 192.245 12.2807H192.055L192.245 12.4729L192.055 13.0448C191.256 12.9063 191.15 13.0135 190.17 13.0448L190.36 13.6166H190.17C190.016 13.8668 190.038 13.84 189.795 13.9964V13.2324C188.837 13.286 188.965 13.5719 187.911 13.6121C187.769 14.2599 187.509 14.4923 186.781 14.5637V14.184H186.591V14.3761C186.428 14.738 186.401 13.9964 186.401 13.9964C186.211 13.9338 186.026 13.8713 185.836 13.8042L186.026 14.184H185.651C185.351 14.4655 185.187 14.8408 185.086 15.3278H184.521V14.948C183.311 14.9926 183.007 15.6449 182.071 15.8996C182.19 15.3769 182.318 15.4662 182.446 14.948C181.241 15.216 180.385 16.056 179.622 14.7559C180.469 14.2555 180.023 14.0455 179.811 13.2324H179.057C178.898 13.0179 179.079 13.2056 178.867 13.0403C178.924 12.875 179.229 12.6203 179.057 12.2763H178.867V12.0842H178.302C177.984 12.6114 177.494 12.4684 177.172 12.8481L176.982 13.42H176.417V13.6121C176.227 13.6747 176.042 13.7372 175.852 13.8042V13.4245C175.265 13.5541 174.996 13.9964 174.533 14.1885H173.778V14.3806C173.588 14.3181 173.403 14.2555 173.213 14.1885V14.5682L172.083 14.7603V14.9524H171.328C171.266 14.9658 171.28 15.2161 170.953 15.1446V14.9524H170.578V14.7603L169.258 14.5682C169.121 14.8363 168.918 15.1446 168.693 15.3322V14.5682H168.504V14.948C168.314 14.8854 168.128 14.8229 167.939 14.7559C167.85 15.2027 167.625 15.3456 167.563 15.7075H167.753C167.815 15.8996 167.877 16.0873 167.943 16.2794C166.87 16.2928 166.76 16.0783 166.058 15.8996C165.78 16.4178 165.48 16.7708 164.739 16.8512V16.4715H164.363V17.2355H163.988V17.4276H162.669V17.6197H162.293V17.8118C162.17 17.7492 162.042 17.6867 161.918 17.6197V17.8118H161.728C161.45 17.5839 161.887 17.6733 161.539 17.432C161.561 18.0352 161.905 17.7895 161.349 18.0039V17.6242C160.29 17.7537 160.74 18.0977 160.219 18.3881H159.844C159.782 18.5803 159.72 18.7679 159.654 18.96H158.714V18.7679C159.182 18.4194 158.957 18.6205 158.904 18.0039H158.529V18.5758C156.891 18.5803 156.604 18.9064 155.139 18.9556V18.5758C154.887 18.7009 154.636 18.8305 154.384 18.9556C154.446 19.2102 154.508 19.4649 154.574 19.7195C154.084 19.6882 153.929 19.6793 153.634 19.5274V19.3353L153.069 19.5274C153.038 19.5229 153.003 19.2593 152.694 19.3353V19.5274H152.318V19.7195H151.943V19.9117C151.683 20.0859 151.612 20.0457 151.188 20.1037V19.5319H150.999V19.724H150.059C149.931 19.7821 150.05 19.9697 149.494 20.1037C149.432 20.2959 149.37 20.4835 149.304 20.6756H149.494C149.772 20.9079 148.81 20.8632 148.739 20.8677V20.6756C147.984 20.5505 147.234 20.421 146.479 20.2959C146.581 19.7642 146.625 20.278 146.479 19.724C146.276 19.8312 146.086 20.2378 145.724 20.1037V19.9117H145.535L145.724 19.5319H145.535C145.318 19.3129 145.535 19.4559 145.159 19.3398C145.098 19.1477 145.036 18.96 144.97 18.7679H145.345C145.283 18.5758 145.221 18.3881 145.155 18.196H145.345V18.3881C145.508 18.75 145.535 18.0084 145.535 18.0084H145.724V17.8163C145.601 17.7537 145.473 17.6912 145.349 17.6242C145.411 17.4321 145.473 17.2444 145.539 17.0523H145.349V16.8602H145.914V16.6681C145.667 16.5117 145.694 16.534 145.539 16.2883C145.861 16.0738 145.795 16.1677 145.914 15.7165L146.669 15.5243C146.691 15.5109 146.96 14.8184 147.044 14.9524V15.3322H147.609C147.786 14.9882 147.869 15.0329 147.984 14.5682C147.728 14.3448 147.697 14.2197 147.609 13.8042H147.984V13.4245H148.359V13.2324C147.984 13.2949 147.605 13.3575 147.229 13.4245V13.2324C146.982 13.2458 146.757 13.5585 146.289 13.4245V13.2324C145.914 13.1698 145.535 13.1073 145.159 13.0403V13.8042H144.784V14.184C144.594 14.0589 144.409 13.9293 144.219 13.8042V13.4245L144.029 13.6166C143.813 13.8355 143.954 13.6166 143.84 13.9964H143.085V14.3761C142.71 14.3136 142.33 14.251 141.955 14.184C141.893 14.5012 141.832 14.8184 141.765 15.1356C141.306 15.2428 141.35 15.3322 141.011 15.5154V15.3233C140.816 15.158 140.75 14.9927 140.635 14.7514C140.419 14.9703 140.56 14.7514 140.446 15.1312C140.07 15.1937 139.691 15.2563 139.316 15.3233V15.703C138.87 15.7432 138.848 15.7835 138.561 15.8952V15.5154H138.751L138.561 14.9435H138.371V15.3233C138.248 15.2607 138.12 15.1982 137.996 15.1312C137.78 15.2831 137.921 15.5824 137.431 15.5109C137.369 15.3858 137.307 15.2562 137.241 15.1312H137.052V15.5109L136.487 15.703C136.389 15.6762 136.372 15.2205 136.111 15.3233C135.922 15.5779 135.736 15.8326 135.546 16.0873C135.357 16.0247 135.171 15.9622 134.981 15.8952V16.2749H134.606V16.6547C134.394 16.4938 134.58 16.677 134.416 16.4625C134.213 16.2883 134.381 16.4938 134.227 16.2704H134.416V16.0783H133.852V16.2704H133.662V16.0783H133.097C133.035 15.9532 132.973 15.8237 132.907 15.6986C132.783 15.7611 132.655 15.8237 132.532 15.8907C132.276 15.9666 132.611 16.0962 132.342 16.0828V15.8907H131.967C131.962 16.4804 132.02 16.8736 132.157 17.2265H131.402V17.6063H131.212V17.0344H130.837L130.647 17.6063C130.435 17.4455 130.621 17.6286 130.457 17.4142H130.268L130.457 16.8423C130.268 16.9049 130.082 16.9674 129.892 17.0344V17.2265H129.517C129.455 17.3516 129.394 17.4812 129.328 17.6063H128.573V17.7984H128.383C128.29 17.7135 128.436 17.4901 128.193 17.6063L128.003 17.986L127.063 18.1782V17.7984H126.873L126.684 18.1782H126.494L126.304 17.7984C126.044 17.6777 125.774 17.7046 125.549 17.6063C125.536 18.3435 125.58 18.3926 124.984 18.5579V18.1782H124.609V18.5579H123.669L123.294 19.5095H122.919V19.3174C122.857 19.3085 122.486 19.4872 122.164 19.5095C122.27 19.0449 122.363 19.0895 122.539 18.7455H122.164L121.974 19.3174L120.655 19.1253C120.456 19.2236 120.518 19.5542 120.655 19.6972H120.279C120.116 19.8937 119.953 19.9608 119.714 20.077V19.5051C118.871 19.5766 119.167 19.6257 118.395 19.5051V19.6972C118.611 19.9161 118.47 19.6972 118.585 20.077H117.644C117.596 20.068 117.583 19.8312 117.269 19.8848V20.077H116.894C116.832 20.2691 116.771 20.4567 116.704 20.6488C116.492 20.4879 116.678 20.6712 116.515 20.4567C116.303 20.2959 116.488 20.479 116.325 20.2646C116.572 20.1082 116.545 20.1305 116.7 19.8848H115.945C115.777 20.0859 115.614 20.135 115.38 20.2646V20.4567L114.815 20.2646V20.4567C115.062 20.6131 115.036 20.5907 115.19 20.8365H114.815C114.595 20.5773 114.471 20.5461 114.061 20.4567V20.8365C113.707 20.7024 113.323 20.6488 112.741 20.6443C112.533 20.2467 112.436 20.3048 112.366 19.6927H111.99V19.3129C111.779 19.4738 111.964 19.2906 111.801 19.5051H111.611V19.8848L111.236 20.077V20.6488H111.046C110.856 20.3941 110.671 20.1395 110.481 19.8848H110.291C110.044 19.4604 110.393 19.3532 109.916 18.9332C109.978 18.6785 110.04 18.4239 110.106 18.1692C110.106 18.1692 109.863 18.0754 109.916 17.7895H110.106V16.8379C110.106 16.8379 110.221 16.8378 110.296 16.4581C110.816 16.3196 110.715 16.4045 110.861 15.8862H111.236V16.0783L111.801 15.8862V15.5064L112.741 15.6986C112.878 15.1714 112.794 15.2741 113.306 15.1267V14.3627H113.496L113.306 13.983H113.496C113.654 13.7685 113.473 13.9561 113.685 13.7908V13.5988C113.866 13.2458 113.875 13.9785 113.875 13.9785L114.44 14.1706V13.9785H114.25C114.312 13.7864 114.374 13.5987 114.44 13.4066H115.57V13.5988C116.011 13.5362 116.448 13.4736 116.89 13.4066V13.0269H117.644V12.6471C117 12.6382 116.342 12.5175 115.95 12.455C115.826 12.6471 115.698 12.8348 115.574 13.0269L114.444 13.2189C114.55 12.7543 114.643 12.799 114.82 12.455H114.065V12.6471H114.255C114.471 12.9465 113.791 12.8258 113.69 12.8392V13.4111H113.5V13.6032C113.187 13.6658 112.873 13.7283 112.56 13.7953C112.622 13.4781 112.683 13.1609 112.75 12.8437C112.291 12.9509 112.33 13.0402 111.995 13.2234V13.4156C111.62 13.2905 111.24 13.1609 110.865 13.0358V13.2279C110.649 13.4468 110.79 13.2279 110.675 13.6076C110.366 13.6657 109.854 14.0053 109.735 13.9874V13.7953H109.17C108.91 13.7417 109.241 13.5451 108.98 13.6032L108.791 13.983H108.415L108.605 13.6032H108.415C108.199 13.8221 108.415 13.6791 108.04 13.7953V14.1751C107.727 14.2376 107.413 14.3002 107.1 14.3672C107.065 14.3583 107.038 14.0946 106.725 14.1751V14.3672H106.35V14.5593C106.164 14.5191 106.129 14.0455 105.975 14.1795C105.666 14.4387 106.182 14.5459 105.41 14.7514V15.3233H105.22V14.9435H105.03C104.968 15.0686 104.906 15.1982 104.84 15.3233H104.085C103.86 14.9078 103.671 14.6933 103.145 14.5593V14.7514H102.391L102.201 15.1312L101.636 14.9391V15.5109H101.261C100.797 16.3106 100.841 15.7343 100.321 16.0828C100.382 16.2079 100.444 16.3374 100.51 16.4625C100.135 16.4 99.7557 16.3375 99.3805 16.2704C99.3629 16.2749 99.2834 16.601 99.0053 16.6502V16.4581H98.2506L98.0608 16.266V16.4581C97.5268 16.8065 97.5092 17.0076 96.5558 17.0299C96.3439 16.7038 96.4366 16.7708 95.9908 16.6502V17.0299H95.6156V16.8379C95.3773 16.7619 95.1213 17.3784 95.0507 17.4097C94.6623 17.5839 94.5122 17.2444 94.2959 17.2176V17.4097C93.9208 17.4722 93.5412 17.5348 93.166 17.6018L92.9762 17.0299C92.4554 17.1684 92.5569 17.0836 92.4113 17.6018C91.8463 17.6644 91.2813 17.7269 90.7164 17.794L90.5266 18.1737H89.2069V18.3658C88.717 18.5132 88.3286 18.3837 87.8872 18.5579C87.7813 18.0933 87.6887 18.138 87.5121 17.794C87.3003 17.9548 87.4856 17.7716 87.3223 17.986C86.6602 18.4596 87.2782 18.6651 86.3822 18.9377V19.1298H85.442L85.2523 19.5095C84.833 19.6793 84.7226 19.2727 84.4975 19.3174V19.5095C84.1224 19.5855 84.2592 19.4246 84.1223 19.3174H83.9326V19.6972C83.7428 19.6346 83.5574 19.5721 83.3676 19.5051V19.3129L82.8026 19.5051V19.3129H82.0479L81.8582 18.9332C81.5933 18.9332 81.7698 18.8751 81.6683 19.1253C81.4344 18.9064 81.5977 19.1253 81.4785 18.7455H82.2333V18.3658H81.4785C81.302 18.0218 81.2182 18.0665 81.1034 17.6018H81.4785C81.3682 16.8155 81.2755 16.6904 80.9136 15.8862C80.6664 15.9845 80.9666 15.9621 80.7238 16.0783H80.1588V16.2704C80.5384 16.3777 80.3222 16.2481 80.5341 16.4625C79.9956 16.4447 79.7263 16.4268 79.4041 16.2704V16.4625C79.6204 16.6814 79.4791 16.4626 79.5939 16.8423C78.6714 16.8423 78.5214 17.0612 77.8991 17.2221V16.6502H77.7092V16.8423H77.5195L77.1443 16.6502V17.2221H76.5794V16.8423H76.3895V17.2221H76.5794V17.794C75.9527 17.7895 75.7276 17.6956 75.2597 17.6018V17.9816C74.8139 17.9592 74.7829 17.9235 74.5049 17.7895V17.9816C74.2886 18.2005 74.4299 17.9816 74.3151 18.3613C73.322 18.2496 73.8826 17.9503 72.9954 18.1692V17.7895C72.6953 17.7448 72.757 18.1156 72.6202 18.1692C71.914 18.4373 71.3315 18.2765 70.7357 18.1692V18.7411L70.3605 18.549V18.7411C69.9809 19.0673 70.3781 19.0315 70.1707 19.3129H69.9808C69.5262 18.6249 68.2198 19.1968 67.3459 19.3129V19.8848C66.9928 19.7865 66.3175 19.2012 66.0262 19.3129V19.5051H65.8364V20.077C65.2715 20.1395 64.7065 20.202 64.1415 20.269V20.6488H64.3314C64.2696 20.8409 64.2077 21.0286 64.1415 21.2207C63.6957 21.1983 63.6649 21.1626 63.3868 21.0286V21.2207H63.197V20.6488H62.8218V21.2207H62.6321V21.0286H61.8773V21.2207L61.5021 21.0286V21.2207C61.0872 21.3502 60.8799 21.2788 60.5621 21.4128V21.9846C59.6219 22.1276 59.6307 22.1544 58.8672 21.6049L58.6774 22.1768H57.9227V22.3689C57.6711 22.4315 57.4195 22.494 57.168 22.561V22.1812H56.7928C56.678 22.8514 56.5897 23.0569 55.8526 23.1329V22.9407C56.0689 22.7218 55.9277 22.9407 56.0424 22.561C55.7909 22.4984 55.5393 22.4359 55.2877 22.3689V22.1768C54.9302 22.0651 55.0273 22.284 54.9125 22.3689L54.3475 22.1768V22.3689H54.5373V23.1329H54.1622V22.7531C53.6458 23.0569 53.8223 23.2222 53.0323 23.325C52.8954 23.8521 52.9793 23.7494 52.4673 23.8968C51.9597 24.5044 51.3683 24.357 50.5826 24.2766V23.8968H51.3374C51.2756 23.7047 51.2138 23.5171 51.1476 23.325C50.8607 23.4366 50.8387 23.4724 50.3929 23.5171C50.362 22.9988 50.3311 22.3689 50.0177 22.1812V21.9891C50.1545 21.7881 50.1634 22.1544 50.3929 21.797H50.0177C49.6822 21.596 50.3929 21.6049 50.3929 21.6049C50.287 21.1402 50.1942 21.1849 50.0177 20.8409H50.5826C50.7371 21.0911 50.7151 21.0643 50.9579 21.2207C50.4988 20.2199 50.2649 19.2951 51.8979 19.3129C52.1142 19.5319 51.898 19.3889 52.2731 19.5051C52.3349 19.1879 52.3967 18.8707 52.4629 18.5534H52.0878V18.9332H51.7126L51.9023 18.3613H51.7126C51.5713 18.7232 51.845 18.5579 51.5228 18.7411C51.2757 18.5177 51.7478 18.4507 51.333 18.3613V18.7411L50.9579 18.549V18.7411H51.1476C51.024 18.9958 50.896 19.2504 50.7724 19.5051H50.5826V18.9332H50.3929V19.1253H49.8279C49.7043 19.3174 49.5763 19.505 49.4527 19.6972H49.0776V19.8893H48.5126V20.0814H48.1374V20.2735C47.3783 20.546 46.809 20.0099 46.4427 20.2735C45.9307 20.6086 45.8468 21.3279 45.6879 21.4173H43.993C43.7768 21.1984 43.993 21.3413 43.6178 21.2251V20.8454H43.4281C43.4899 21.1001 43.5516 21.3547 43.6178 21.6094H43.4281C43.0706 21.9221 42.4306 21.8104 41.923 21.9891V22.1812C41.645 22.2706 41.186 21.9757 41.1683 21.9891V22.3689H40.2281C40.0383 22.8157 39.853 23.258 39.6632 23.7048H39.4734V23.1329H39.0982C39.0585 23.5841 39.0188 23.6064 38.9084 23.8968C38.6966 23.736 38.882 23.9192 38.7187 23.7048C38.5024 23.4858 38.6436 23.7047 38.5288 23.325C38.851 23.1105 38.7848 23.2044 38.904 22.7531H38.3391V23.8968C38.0257 23.8343 37.7124 23.7718 37.399 23.7048V23.5126C37.6153 23.2937 37.474 23.5126 37.5887 23.1329H37.2135L37.4034 22.7531H37.2135C36.9973 22.972 37.2136 22.829 36.8384 22.9452C36.7899 23.316 36.653 23.316 36.6486 23.325C36.3484 24.2632 36.8163 24.5447 35.7085 24.6609V24.2811C35.4481 24.3749 35.2936 24.357 34.9538 24.4732V24.6653C34.764 24.6027 34.5786 24.5402 34.3888 24.4732V24.6653H34.0136L34.2035 25.0451H33.0735V25.2372C33.2898 25.4561 33.1485 25.2371 33.2633 25.6169C32.9588 25.6035 31.9436 25.4248 31.9436 25.4248C31.8818 25.5499 31.8201 25.6795 31.7538 25.8046C31.2419 26.086 31.1535 25.8537 30.8137 25.8046V25.9967H30.4386L30.2487 26.3764C29.9353 26.439 29.622 26.5015 29.3086 26.5685V26.7607C29.0571 26.6981 28.8055 26.6355 28.5539 26.5685C28.2405 26.6311 27.9271 26.6937 27.6137 26.7607V26.9528C27.0532 27.1136 26.8503 26.649 26.4839 26.573V26.7651C26.2676 26.9841 26.4088 26.7651 26.294 27.1449H25.5393L25.3496 26.9528C25.2525 26.9975 25.2966 27.2923 24.9744 27.3325V27.1404L24.4094 26.9483V27.1404C24.2196 27.203 24.0343 27.2655 23.8445 27.3325V26.9528C23.5047 27.1315 23.5487 27.2164 23.0897 27.3325V27.7123H22.8999V27.1404C21.8407 27.127 21.033 26.6847 20.6402 25.9967L21.0153 25.8046C21.0285 25.5365 20.8299 25.885 20.8255 25.6125C20.8873 25.2953 20.9491 24.9781 21.0153 24.6609H21.3905C20.9756 23.4724 21.8539 22.8112 21.9555 21.6094C22.5381 21.5021 23.2133 21.4173 24.0255 21.4173V20.8454H24.5904C24.7184 20.2869 24.7978 20.2199 25.3451 20.0814V19.7016C26.4442 19.447 25.4511 19.2191 26.4751 19.7016V19.3219C26.8944 19.2415 27.1194 19.1387 27.4151 18.9421V18.75C27.7903 18.7143 27.5476 19.0404 27.7904 18.75C28.0066 18.5311 27.8654 18.75 27.9801 18.3703H28.3553C28.5716 17.5973 28.7393 17.9905 29.11 17.4186C29.4852 17.5437 29.8648 17.6733 30.24 17.7984V17.6063H30.4297V16.8423C29.3484 16.8647 29.0482 16.9987 28.1699 16.8423C28.0639 17.441 27.9845 17.6421 27.4151 17.794V17.4142H27.04V17.986C26.6561 18.1916 26.2985 18.549 25.7204 18.5579L25.5305 18.3658C24.8508 18.884 25.5923 19.2549 24.2108 19.3174L24.4006 18.5534H24.0255V18.7455H24.2152C24.2285 18.8125 23.8931 19.4336 23.8401 19.6972H23.4649V19.3174H23.0897V19.6972L22.8999 19.5051C22.5248 19.6302 22.1452 19.7597 21.77 19.8848C21.7082 20.0099 21.6465 20.1395 21.5802 20.2646C21.3331 20.3718 21.62 20.1216 21.3905 20.0725C21.2007 20.135 21.0153 20.1976 20.8255 20.2646V20.0725H20.2606V19.8804H20.0708V20.0725C20.0708 20.0725 19.55 19.8982 19.3161 19.8804C19.1925 20.1976 19.0644 20.5148 18.9409 20.832C18.7776 20.7739 18.526 20.4657 18.1861 20.6399V20.832H17.9964V21.4039H17.8065V20.832H17.6168V21.5959C17.6476 21.864 17.8153 21.5155 17.8065 21.7881L17.6168 21.9802C17.2901 21.8149 17.5506 21.9578 17.427 21.6004H17.2371V21.9802L16.2971 22.1723L16.4868 21.7926H16.2971C16.0058 22.1232 15.9572 21.9802 15.5423 22.1723V22.3644C15.2643 22.4717 14.8229 22.4136 14.7876 22.1723H14.5977V22.7442H14.408V22.552H14.2182V22.9318H13.843V23.3116C13.3663 23.1597 12.6778 23.2982 11.773 23.3116C11.7112 23.7584 11.6495 24.2007 11.5833 24.6474H11.2081V24.2677C10.9212 24.3794 10.8991 24.4151 10.4533 24.4598V25.0317C10.0782 25.1568 9.69856 25.2863 9.3234 25.4114V25.6035H8.9483V25.7956C8.02583 26.1486 7.80952 25.5008 7.2534 26.3675H7.06364L7.2534 26.5596C7.1916 26.7518 7.12984 26.9394 7.06364 27.1315C6.81206 27.0689 6.56039 27.0064 6.3088 26.9394V27.5113C5.64234 27.5828 5.73511 27.748 5.17898 27.891V27.5113H4.98911V28.0831C4.61395 28.1456 4.23445 28.2082 3.85929 28.2752L3.66942 28.8471H3.29432C3.23253 29.0392 3.17066 29.2268 3.10445 29.4189H2.9147V28.8471H2.72494L2.53518 29.2269L1.97021 29.0347V28.8426C1.60387 28.7488 1.71859 28.9498 1.595 29.0347L0.840279 28.8426L1.03004 28.6505V28.4584H0.840279V27.8865H1.03004V27.6944H0.654938C0.650524 27.06 0.557759 26.8321 0.465071 26.3586H0.0899716C-0.24547 26.1575 0.465071 26.1665 0.465071 26.1665C0.526863 25.9744 0.588733 25.7867 0.654938 25.5946C1.62595 25.6393 1.58618 25.9565 1.595 24.8306C1.90838 24.7681 2.22181 24.7055 2.53518 24.6385V23.8745L3.10014 23.6824C3.31642 23.4635 3.10008 23.6065 3.47524 23.4903V23.8701H3.85045V23.4903C4.04024 23.5529 4.22563 23.6154 4.41542 23.6824V23.3026H4.22555L4.41542 22.7308H4.60518V22.5387H5.17014C5.16573 22.2706 5.20979 22.485 4.98028 22.3465V22.1544H5.54524V21.9623H5.73511L5.92487 22.3421C6.55161 22.4672 7.17837 22.5967 7.80953 22.7218C7.82718 22.007 7.9816 21.8462 8.18463 21.386C8.37442 21.4485 8.5598 21.5111 8.74959 21.5781V21.1984H9.31456L9.1248 21.5781H9.31456V21.386H9.68977C9.89721 21.2207 9.77356 20.9258 10.0649 20.8141C10.2326 20.9839 10.1355 21.1358 10.4401 21.1939C10.5637 21.0018 10.6917 20.8141 10.8153 20.622H11.3801V20.4299H11.57V19.6659H11.9451V20.0457C12.7484 19.9697 12.797 19.6525 13.4502 19.4738C13.6003 18.8572 13.7989 18.8171 13.8253 17.9503H15.5202V18.1424L16.0852 17.9503V17.7582C16.3677 17.6822 16.3411 18.0977 16.4603 18.1379L17.0253 17.9458V18.3256H17.2151V17.9458C17.427 17.785 17.2416 17.9682 17.4049 17.7537L17.0297 17.9458V17.1818H17.2196V16.4179H18.1596L17.9699 16.9897H18.5348C18.835 16.6189 19.2189 16.4804 19.4749 16.0381C19.6691 16.2034 19.7354 16.3687 19.8501 16.61C20.0399 16.4849 20.2253 16.3553 20.4151 16.2303V16.0381H20.7902L20.9799 15.6584C21.1035 15.7209 21.2316 15.7834 21.3551 15.8504C21.6067 15.6583 21.1256 15.5288 21.5449 15.4707V15.6628C21.7347 15.7254 21.9201 15.7879 22.1099 15.8549V15.4752C21.8936 15.2563 22.0349 15.4752 21.9201 15.0954C22.4056 15.1848 22.7543 15.2786 23.4251 15.2875C23.6944 14.8809 23.9195 14.9033 24.3653 14.7157L24.1756 14.1438H24.9303V13.9517H25.12V14.1438H25.4952V13.7641C26.5634 13.7328 26.197 13.4692 26.8149 13.1922H27.5697V13C27.7859 12.7811 27.6447 13 27.7594 12.6203H28.3244V13H28.6996C28.8541 12.388 28.9202 12.4461 29.6397 12.4282V12.808C30.081 12.6024 30.2532 12.3701 30.7696 12.2361V11.6642H31.1447V11.2844C32.1378 11.2889 32.6322 11.0611 33.4046 10.9047C33.5414 11.4319 33.4575 11.3291 33.9695 11.4766C33.9077 11.2845 33.8459 11.0968 33.7797 10.9047H33.9695C34.177 10.6366 34.6271 10.3462 34.9096 10.1407V9.94859H35.4746V10.1407H35.6643V10.7126H35.8542C35.916 9.95305 36.0483 9.83241 36.7943 9.76093V9.95307C37.0458 10.0424 36.7236 9.83241 36.984 9.76093C37.7388 9.63583 38.4891 9.50628 39.2439 9.38118C39.0541 8.78698 39.138 9.09078 39.2439 8.42956C39.7029 8.32233 39.6588 8.23299 39.9986 8.04981V8.24195H40.1884C40.3384 8.52341 39.9986 8.62169 39.9986 8.62169L40.1884 9.00144C40.6209 8.63508 40.4268 8.42959 41.1285 8.23747C41.1903 8.04536 41.2521 7.8577 41.3183 7.66559C41.8568 7.88898 42.2055 8.02747 43.0132 8.04534C43.203 7.66558 43.3884 7.28138 43.5782 6.90163H43.9533L44.1431 7.28137L45.4628 6.90163V6.70949H46.7825L46.9723 6.32974H47.3475C47.4667 5.80702 47.5946 5.89637 47.7226 5.37812C47.9742 5.44066 48.2257 5.50318 48.4773 5.5702V5.37812C48.6847 5.20834 48.5171 5.40937 48.6672 5.18598H48.4773C48.2919 4.86877 48.7466 5.02517 48.8525 4.9939V4.80176C49.0423 4.86431 49.2277 4.92688 49.4175 4.9939C49.3557 5.11899 49.2938 5.24855 49.2276 5.37364H49.4175C50.0089 4.68561 50.5253 5.37361 51.3021 5.56573C51.4301 5.31553 51.536 5.36022 51.6772 5.18598L51.4875 4.80623H51.8627V4.61415L52.2378 4.42201C52.2643 4.15395 52.1981 4.45326 52.048 4.22988L52.2378 3.85013C52.8734 3.98416 52.9616 4.26564 53.5575 4.42201V3.85013C54.0739 3.97076 53.9857 4.10031 54.4977 4.22988V3.65805C54.7051 3.7206 54.8684 3.99757 55.2524 3.85013V3.65805H55.8173V3.46591C56.1925 3.1487 56.5721 2.83149 56.9473 2.51428V2.13454H57.3224V2.32662C57.5828 2.38023 57.287 2.28644 57.5121 2.13454L57.8873 2.32662L57.6976 2.8985C58.748 2.97892 59.282 3.23806 59.9573 2.51876C59.5866 2.30431 59.516 2.25071 59.3924 1.75479L59.9573 1.56266C60.0191 1.68775 60.081 1.81731 60.1472 1.9424H60.5223V1.17844C60.9328 1.25886 61.0608 1.30352 61.277 1.55818L62.407 1.17844L62.2172 0.798691H63.1573V0.418945L63.2499 0.463612ZM61.3697 3.32297V3.70272H61.5596V3.32297H61.3697ZM229.157 3.70272V4.08246H229.346V3.70272H229.157ZM61.9347 4.2746V4.65435H62.1245V4.2746H61.9347ZM59.2997 4.65435V5.03409H59.4895V4.65435H59.2997ZM224.447 5.22623C224.663 5.44515 224.447 5.30215 224.822 5.41831C224.606 5.19939 224.822 5.34239 224.447 5.22623ZM209.573 5.41831C209.789 5.63723 209.573 5.49429 209.948 5.61045C209.732 5.39153 209.948 5.53447 209.573 5.41831ZM50.8254 5.99019C50.8431 6.63801 50.8255 6.68269 51.2006 6.94182V6.74968H51.0108V5.98572H50.821L50.8254 5.99019ZM206.748 6.18227C206.964 6.40119 206.748 6.25825 207.123 6.37441C206.907 6.15549 207.123 6.29844 206.748 6.18227ZM186.22 6.36994V6.74968H186.41V6.36994H186.22ZM199.404 6.56207L199.214 6.94182C199.214 6.94182 199.761 6.63803 199.589 6.56207H199.399H199.404ZM218.798 6.56207H219.173C219.014 6.77653 219.195 6.58885 218.983 6.75416V6.94629C218.767 6.72737 218.908 6.9463 218.793 6.56655L218.798 6.56207ZM52.1407 6.75416C52.357 6.97308 52.1407 6.83013 52.5159 6.94629C52.2996 6.72737 52.5159 6.87032 52.1407 6.75416ZM157.787 6.94182V7.32157H157.977V6.94182H157.787ZM54.2151 7.70579V7.89792H54.0254C53.6678 8.06323 54.4006 8.09 54.4006 8.09C54.5595 7.87555 54.3785 8.06323 54.5903 7.89792C54.3741 7.679 54.5903 7.82195 54.2151 7.70579ZM198.839 7.70579V7.89792H198.649C198.291 8.06323 199.024 8.09 199.024 8.09C199.183 7.87555 199.002 8.06323 199.214 7.89792C198.998 7.679 199.214 7.82195 198.839 7.70579ZM247.045 7.70579V7.89792H246.855C246.498 8.06323 247.231 8.09 247.231 8.09C247.39 7.87555 247.209 8.06323 247.42 7.89792C247.204 7.679 247.42 7.82195 247.045 7.70579ZM120.875 7.89792V8.27767H121.065V7.89792H120.875ZM74.3637 8.08553V8.46533H74.5535V8.08553H74.3637ZM122.57 8.08553V8.46533H122.76V8.08553H122.57ZM157.407 8.08553C157.725 8.49656 157.783 8.46533 157.783 8.46533C157.919 8.28216 157.456 8.13021 157.407 8.08553ZM205.618 8.08553C205.936 8.49656 205.993 8.46533 205.993 8.46533C206.13 8.28216 205.667 8.13021 205.618 8.08553ZM218.987 8.08553V8.46533H219.177V8.08553H218.987ZM253.825 8.08553C254.142 8.49656 254.2 8.46533 254.2 8.46533C254.337 8.28216 253.873 8.13021 253.825 8.08553ZM47.0561 8.46975H46.681V8.66189H46.8708V8.85402H47.0605V8.47422L47.0561 8.46975ZM49.5057 9.61352H49.8809C49.8191 9.35885 49.7573 9.10421 49.6911 8.84955H49.5013V9.61352H49.5057ZM194.129 9.61352H194.505L194.315 8.84955H194.125V9.61352H194.129ZM242.336 9.61352H242.711L242.521 8.84955H242.331V9.61352H242.336ZM47.4357 9.2293V9.99326H47.6255V9.2293H47.4357ZM95.6421 9.2293V9.99326H95.8319V9.2293H95.6421ZM192.059 9.2293V9.99326H192.249V9.2293H192.059ZM219.927 9.61352V10.1854H220.117C220.307 9.84138 220.532 9.61796 220.872 9.42138V9.2293H220.497C220.285 9.55544 220.378 9.48841 219.932 9.60904L219.927 9.61352ZM240.266 9.2293V9.99326H240.456V9.2293H240.266ZM132.364 9.42138V9.80118H132.554V9.42138H132.364ZM180.571 9.80118H180.946V9.60904C180.734 9.4482 180.919 9.63141 180.756 9.41696H180.566V9.79671L180.571 9.80118ZM75.3038 9.61352V10.1854H75.4935V9.61352H75.3038ZM123.51 9.61352V10.1854H123.7V9.61352H123.51ZM205.993 10.373C206.13 10.9002 206.046 10.7975 206.558 10.9449C206.678 10.4222 206.806 10.5115 206.934 9.99326H206.744C206.505 10.3551 206.554 10.3105 205.989 10.373H205.993ZM207.688 9.99326V10.373C208.183 10.3596 208.328 10.2971 208.628 10.1809V9.98879H207.688V9.99326ZM108.261 10.1854V10.7573H108.451V10.5651C108.663 10.4043 108.477 10.5875 108.64 10.373L108.265 10.1809L108.261 10.1854ZM156.467 10.1854V10.7573H156.657V10.5651C156.869 10.4043 156.684 10.5875 156.847 10.373L156.472 10.1809L156.467 10.1854ZM204.674 10.1854V10.7573H204.864V10.5651C205.075 10.4043 204.89 10.5875 205.053 10.373L204.678 10.1809L204.674 10.1854ZM252.885 10.1854V10.7573H253.074V10.5651C253.286 10.4043 253.101 10.5875 253.264 10.373L252.889 10.1809L252.885 10.1854ZM132.174 10.373V10.7528H132.364V10.373H132.174ZM219.552 10.373C219.87 10.784 219.927 10.7528 219.927 10.7528C220.064 10.5696 219.601 10.4177 219.552 10.373ZM119.935 10.7573V11.3291H119.56V11.7089L119.935 11.5168L120.125 10.9449C120.337 10.7841 120.151 10.9673 120.315 10.7528H119.94L119.935 10.7573ZM127.844 10.7573V11.137H128.034V10.7573H127.844ZM176.051 10.7573V11.137H176.241V10.7573H176.051ZM205.618 11.137H205.053V11.5168H205.428C205.605 11.1728 205.689 11.2175 205.804 10.7528H205.614V11.1326L205.618 11.137ZM224.257 10.7573V11.137H224.447V10.7573H224.257ZM104.306 11.5168V11.137C104.094 11.2979 104.28 11.1147 104.116 11.3291H103.927C104.143 11.548 103.927 11.4051 104.302 11.5212L104.306 11.5168ZM151.948 11.137V11.7089H152.137C152.354 11.4899 152.137 11.6329 152.513 11.5168V11.137H151.948ZM178.686 11.5168V11.137H178.121V11.3291H178.311C178.527 11.548 178.311 11.4051 178.686 11.5212V11.5168ZM200.719 11.5168V11.137C200.507 11.2979 200.693 11.1147 200.529 11.3291H200.339C200.556 11.548 200.34 11.4051 200.715 11.5212L200.719 11.5168ZM215.598 11.137V11.5168C215.81 11.3559 215.624 11.5391 215.787 11.3246H215.977C215.761 11.1057 215.977 11.2487 215.602 11.1326L215.598 11.137ZM242.336 11.3291V11.7089H242.526V11.3291H242.336ZM117.675 12.0887H118.051C117.892 11.8742 118.072 12.0618 117.861 11.8965V11.5168H117.671V12.0887H117.675ZM64.5696 11.7089V12.0887H64.7595V11.7089H64.5696ZM112.781 11.7089V12.2807H112.97V11.7089H112.781ZM209.193 11.7089V12.0887H209.383V11.7089H209.193ZM245.915 11.7089C246.132 11.9278 245.99 11.7089 246.105 12.0887H245.915V11.7089ZM257.404 11.7089V12.0887H257.594V11.7089H257.404ZM38.2066 11.901V12.2807H38.3965V11.901H38.2066ZM86.413 11.901V12.2807H86.6029V11.901H86.413ZM182.83 11.901V12.2807H183.02V11.901H182.83ZM231.037 11.901V12.2807H231.227V11.901H231.037ZM98.0918 12.0887C98.1094 12.1289 98.3609 12.7811 98.4669 12.6605V12.4684H98.6567C98.4934 12.2718 98.3301 12.2048 98.0918 12.0887ZM146.673 13.0448H147.048V12.665H146.673L146.863 12.2852C146.673 12.2227 146.488 12.1601 146.298 12.0931V12.2852C146.554 12.5086 146.585 12.6337 146.673 13.0492V13.0448ZM96.9618 12.2807L97.1516 12.8526H97.3413C97.2266 12.3969 97.2796 12.4997 96.9662 12.2807H96.9618ZM145.168 12.2807C145.23 12.4728 145.292 12.6605 145.358 12.8526H145.548C145.433 12.3969 145.486 12.4997 145.173 12.2807H145.168ZM148.748 12.2807H148.373C148.531 12.4952 148.35 12.3076 148.562 12.4729V12.665H148.752V12.2852L148.748 12.2807ZM223.132 13.0448H223.507V12.665H223.697C223.635 12.5399 223.573 12.4103 223.507 12.2852C223.295 12.446 223.481 12.2629 223.317 12.4773H223.127V13.0492L223.132 13.0448ZM65.8893 12.4729C66.1056 12.6918 65.8894 12.5488 66.2645 12.665C66.0483 12.446 66.2645 12.589 65.8893 12.4729ZM97.9019 12.4729V13.0448H98.0918V12.4729H97.9019ZM146.108 12.4729V13.0448H146.298V12.4729H146.108ZM149.688 12.4729H149.313C149.472 12.6873 149.291 12.4996 149.503 12.665V12.8571H149.692V12.4773L149.688 12.4729ZM171.531 12.4729V13.0448H171.721V12.4729H171.531ZM219.742 12.4729V13.0448H219.932V12.4729H219.742ZM29.1674 12.6605V13.0403H29.3572V12.6605H29.1674ZM38.0169 12.6605V13.0403H38.2066V12.6605H38.0169ZM86.2277 12.6605V13.0403H86.4174V12.6605H86.2277ZM98.8421 13.0448V12.665C98.6302 12.8258 98.8156 12.6426 98.6523 12.8571H98.4624C98.6787 13.076 98.4625 12.933 98.8377 13.0492L98.8421 13.0448ZM134.434 12.6605V13.0403H134.624V12.6605H134.434ZM148.933 12.6605V13.8042H149.123V12.6605H148.933ZM173.036 12.6605V13.0403H173.226V12.6605H173.036ZM173.791 12.6605V13.0403H173.981V12.6605H173.791ZM182.641 12.6605V13.0403H182.83V12.6605H182.641ZM221.247 12.6605V13.0403H221.437V12.6605H221.247ZM222.002 12.6605V13.0403H222.192V12.6605H222.002ZM230.851 12.6605V13.0403H231.041V12.6605H230.851ZM33.3119 12.8526C33.5282 13.0715 33.3118 12.9286 33.687 13.0448C33.4707 12.8258 33.6871 12.9688 33.3119 12.8526ZM81.5183 12.8526C81.7346 13.0715 81.5182 12.9286 81.8934 13.0448C81.6771 12.8258 81.8935 12.9688 81.5183 12.8526ZM226.142 12.8526C226.358 13.0715 226.142 12.9286 226.517 13.0448C226.301 12.8258 226.517 12.9688 226.142 12.8526ZM94.8874 13.2324L95.0772 13.8042H95.2669C95.1522 13.3485 95.2052 13.4513 94.8918 13.2324H94.8874ZM143.098 13.2324C143.16 13.4245 143.222 13.6121 143.288 13.8042H143.478C143.363 13.3485 143.416 13.4513 143.103 13.2324H143.098ZM155.337 13.4245V13.8042H155.527V13.4245H155.337ZM36.322 14.3761C36.1851 13.8489 36.2691 13.9517 35.7571 13.8042C35.8189 14.0589 35.8807 14.3136 35.9469 14.5682H36.5118V14.7603C36.7766 14.7961 36.4412 14.6263 36.7016 14.5682H37.4563V13.8042C37.2445 13.6434 37.4299 13.8266 37.2666 13.6121H36.8913V13.8042H37.0812C37.143 14.1483 36.6133 14.3046 36.3264 14.3761H36.322ZM60.8048 13.6166L60.615 13.9964C60.615 13.9964 61.1623 13.6925 60.9902 13.6166H60.8004H60.8048ZM205.428 13.6166L205.239 13.9964C205.239 13.9964 205.786 13.6925 205.614 13.6166H205.424H205.428ZM28.6024 14.5682H28.9776V14.3761C28.7658 14.2153 28.9512 14.3984 28.7879 14.184H28.598V14.5637L28.6024 14.5682ZM35.1921 14.1885V14.5682C35.404 14.4074 35.2186 14.5906 35.3819 14.3761H35.5717C35.3554 14.1572 35.5717 14.3002 35.1966 14.184L35.1921 14.1885ZM76.8089 14.5682H77.184V14.3761C76.9722 14.2153 77.1576 14.3984 76.9943 14.184H76.8045V14.5637L76.8089 14.5682ZM83.403 14.1885V14.5682C83.6148 14.4074 83.4294 14.5906 83.5927 14.3761H83.7825C83.5662 14.1572 83.7825 14.3002 83.4074 14.184L83.403 14.1885ZM131.609 14.1885V14.5682C131.821 14.4074 131.636 14.5906 131.799 14.3761H131.989C131.773 14.1572 131.989 14.3002 131.614 14.184L131.609 14.1885ZM221.437 14.5682H221.812V14.3761C221.6 14.2153 221.786 14.3984 221.622 14.184H221.433V14.5637L221.437 14.5682ZM228.027 14.1885V14.5682C228.238 14.4074 228.053 14.5906 228.216 14.3761H228.406C228.19 14.1572 228.406 14.3002 228.031 14.184L228.027 14.1885ZM32.182 15.3322V14.9524L31.617 15.1446L31.8068 15.9085H31.617V16.1007C31.1756 16.1632 30.7387 16.2257 30.2973 16.2928V16.6726C30.5445 16.7083 31.4669 16.9048 31.617 16.8646L31.8068 16.4849L32.3717 16.677C32.4335 16.3598 32.4954 16.0426 32.5616 15.7254H32.7513C32.9676 15.5065 32.7513 15.6494 33.1264 15.5333V15.913H34.0666V15.5333H34.4417C34.3181 15.1535 34.1902 14.7692 34.0666 14.3895H33.8769L33.687 14.9614C33.4178 15.1535 32.6013 15.3054 32.182 15.3411V15.3322ZM53.4604 14.3761V14.948H53.6501V14.3761H53.4604ZM28.2273 14.7603V15.1401H28.4171V14.7603H28.2273ZM57.6049 14.7603V15.1401H57.7947V14.7603H57.6049ZM76.4337 14.7603V15.1401H76.6235V14.7603H76.4337ZM124.64 14.7603V15.1401H124.83V14.7603H124.64ZM180.571 14.7603C180.787 14.9793 180.571 14.8363 180.946 14.9524C180.729 14.7335 180.946 14.8765 180.571 14.7603ZM202.229 14.7603V15.1401H202.418V14.7603H202.229ZM221.057 14.7603V15.1401H221.247V14.7603H221.057ZM49.8809 14.948C50.0972 15.1669 49.9559 14.948 50.0707 15.3278H49.8809V14.948ZM97.9019 15.1401C98.1138 15.4662 98.0211 15.3992 98.4669 15.5198C98.3036 15.3233 98.1402 15.2563 97.9019 15.1401ZM119.37 15.5198H119.745V15.3278C119.533 15.1669 119.719 15.3501 119.556 15.1356H119.366V15.5154L119.37 15.5198ZM49.5057 15.3322H49.8809V15.5243C49.5014 15.4171 49.7176 15.5467 49.5057 15.3322ZM102.046 15.3322C102.263 15.5512 102.121 15.3322 102.236 15.712H102.046V15.3322ZM152.702 16.0917H152.327V15.3278H152.137V15.5198C151.921 15.7388 152.062 15.5198 151.948 15.8996C152.138 16.0247 152.323 16.1543 152.513 16.2794C152.671 16.4938 152.491 16.3062 152.702 16.4715V16.0917ZM100.352 15.5198V15.8996H100.541V15.5198H100.352ZM38.5818 15.9041V16.2839H38.7716V15.9041H38.5818ZM86.7927 15.9041V16.2839H86.9824V15.9041H86.7927ZM128.409 16.0917C128.626 16.3106 128.409 16.1677 128.785 16.2839C128.568 16.0649 128.785 16.2079 128.409 16.0917ZM61.5551 16.6636V16.2839C61.3433 16.4447 61.5286 16.2615 61.3653 16.4759H61.1755C61.3918 16.6949 61.1756 16.5519 61.5507 16.6681L61.5551 16.6636ZM157.972 16.6636V16.2839C157.761 16.4447 157.946 16.2615 157.783 16.4759H157.593C157.809 16.6949 157.593 16.5519 157.968 16.6681L157.972 16.6636ZM44.7963 17.0478V17.4276H44.9861V17.0478H44.7963ZM48.5656 17.0478V17.4276H48.7554V17.0478H48.5656ZM34.4417 17.2355V17.6152H34.6316V17.2355H34.4417ZM49.5057 17.6197C49.4969 18.3926 49.4175 18.4417 49.8809 18.7634V18.5713C49.5632 18.1603 50.0265 17.651 50.256 17.2355H50.0663C49.8544 17.5616 49.9471 17.4946 49.5013 17.6152L49.5057 17.6197ZM52.8954 17.2355C53.1117 17.4544 52.8955 17.3114 53.2706 17.4276C53.0544 17.2087 53.2706 17.3517 52.8954 17.2355ZM62.6851 17.2355C62.6233 17.4276 62.5614 17.6152 62.4952 17.8073H62.6851V17.6152C62.7645 17.5035 62.994 17.5884 62.8748 17.2355H62.6851ZM82.6482 17.2355V17.6152H82.838V17.2355H82.6482ZM145.923 17.6197C145.914 18.3926 145.835 18.4417 146.298 18.7634V18.5713C145.98 18.1603 146.444 17.651 146.673 17.2355H146.484C146.272 17.5616 146.364 17.4946 145.919 17.6152L145.923 17.6197ZM149.313 17.2355C149.529 17.4544 149.313 17.3114 149.688 17.4276C149.472 17.2087 149.688 17.3517 149.313 17.2355ZM65.1346 17.4276V17.8073H65.3245V17.4276H65.1346ZM86.2277 17.8073H86.6029V17.6152C86.391 17.4544 86.5763 17.6376 86.413 17.4231H86.2233V17.8028L86.2277 17.8073ZM113.345 17.4276V17.8073H113.535V17.4276H113.345ZM130.104 17.4276C130.321 17.6465 130.179 17.4276 130.294 17.8073H130.104V17.4276ZM88.6729 17.6197C88.6111 17.7448 88.5493 17.8744 88.4831 17.9995L88.8582 18.1915C88.9951 17.9637 88.461 18.0263 88.8582 17.6197H88.6685H88.6729ZM65.5098 17.8073L65.32 18.3792H65.5098V17.9995H65.6996V17.8073H65.5098ZM113.721 17.8073L113.531 18.1871C113.531 18.1871 114.078 17.8833 113.906 17.8073H113.716H113.721ZM14.8538 18.5713H15.229V18.3792C15.0171 18.2184 15.2024 18.4015 15.0391 18.1871H14.8494V18.5669L14.8538 18.5713ZM120.875 18.5713H120.5C120.659 18.7858 120.478 18.5981 120.69 18.7634V18.9556H120.88V18.5758L120.875 18.5713ZM21.2581 18.9511V19.3308H21.4478V18.9511H21.2581ZM48.3758 18.9511V19.715H48.5656V19.523H48.7554C48.6936 19.3979 48.6318 19.2683 48.5656 19.1432H48.7554C48.5392 18.9242 48.7554 19.0672 48.3802 18.9511H48.3758ZM117.675 18.9511V19.3308H117.865V18.9511H117.675ZM146.108 18.9511C145.892 19.17 146.108 19.027 145.733 19.1432V19.3353H146.108C146.17 19.2102 146.232 19.0807 146.298 18.9556H146.108V18.9511ZM58.3552 19.523L58.1654 19.9027C58.1654 19.9027 58.7127 19.5989 58.5406 19.523H58.3508H58.3552ZM51.2006 19.9072V20.2869H51.3904V19.9072H51.2006ZM55.345 19.9072V20.2869H55.5348V19.9072H55.345ZM46.4911 20.2869H46.8663C46.7119 20.5371 46.7339 20.5103 46.4911 20.6667V20.8588H46.3014L46.4911 20.2869ZM53.0853 20.2869L52.8954 20.6667C52.8954 20.6667 53.4428 20.3629 53.2706 20.2869H53.0809H53.0853ZM38.5818 21.0509V21.4306H38.7716V21.0509H38.5818ZM24.0828 22.0025V22.3823H24.2726V22.0025H24.0828ZM28.2273 22.1947V22.7665H28.982V23.1463H29.547C29.7015 22.8961 29.6793 22.9229 29.9221 22.7665V22.1947C29.1365 22.3332 29.1321 22.2438 28.2273 22.1947ZM12.9735 22.5744C13.1898 22.7933 12.9736 22.6503 13.3487 22.7665C13.1325 22.5476 13.3487 22.6906 12.9735 22.5744ZM51.9554 22.7665V23.1463H52.1451V22.7665H51.9554ZM5.24956 25.8135C5.18777 26.0056 5.12601 26.1933 5.0598 26.3854H5.24956V26.0056H5.43932V25.8135H5.24956ZM29.5426 26.0056V26.3854H29.7323V26.0056H29.5426Z" fill="#FDE6AD"/>
</svg>
