<svg width="453" height="52" viewBox="0 0 453 52" fill="none" xmlns="http://www.w3.org/2000/svg">
<path fill-rule="evenodd" clip-rule="evenodd" d="M111.029 0.750426C112.598 1.08828 112.831 1.95252 114.655 2.09395C114.918 1.58324 115.313 0.821086 116.302 1.08823V1.42612C117.145 1.7404 116.674 1.08831 117.292 1.76402H117.625V3.10754L118.282 3.44534V4.11326H118.614C118.723 4.45112 118.831 4.78104 118.947 5.11889H117.625V6.12462C116.712 6.36819 116.89 6.21892 116.635 7.13034C115.483 7.4132 115.096 7.97893 113.666 8.13607C113.689 9.01606 113.797 9.27534 113.998 9.80962C112.869 9.72319 111.408 9.54244 111.361 9.47173V10.1396H111.694C112.738 10.1474 110.704 10.4775 110.704 10.4775C110.286 9.95103 109.823 9.66029 109.057 9.47173C108.562 10.3831 107.913 10.9017 106.745 11.1453V10.4775L106.088 10.8152C105.894 11.326 105.833 11.3653 105.755 12.1589C105.059 12.2139 103.76 12.4574 103.443 12.8267C103.041 13.2981 103.737 13.196 102.786 13.8324V12.4888H102.453V13.8324H101.464V13.1645C100.961 13.3609 100.922 13.4238 100.141 13.5024V12.8346L99.1517 13.1724C98.9352 13.7459 98.8347 14.2253 98.8192 15.1838H97.1721C97.1721 15.1838 96.8395 15.7181 96.5148 15.8516V16.1895H96.1823V15.5216H95.5252V15.1838H95.1925V15.5216H94.2027V15.8595C93.6305 16.3781 93.507 17.4309 93.2131 18.2088C91.9991 18.0909 91.0402 17.6195 90.2438 18.5466C90.1355 18.8845 90.0273 19.2144 89.9113 19.5523C89.0298 19.6623 88.1482 19.7723 87.2744 19.8902V20.2281L86.6173 20.5659V21.2337L85.6275 20.8959L85.295 21.5637H84.3053C84.2511 21.5952 83.9186 22.0666 83.6479 22.2316V22.5695C83.0989 22.4595 82.55 22.3494 82.001 22.2316V21.8938C81.8077 21.8702 80.8719 22.4594 80.3539 22.5616C80.1296 23.198 79.9285 24.6122 79.6965 25.2408L78.7069 24.903V24.5651C78.2507 24.4786 78.8382 24.8087 78.3743 24.903C77.5856 25.0601 77.5237 24.6515 77.052 24.5651L76.3949 25.5708H75.0725V25.9087L74.0829 26.2465V27.2522H74.74V27.5901H74.4076C74.2297 27.7473 71.7629 28.4387 71.7707 27.5901H71.4382V28.2579L69.7913 27.92C69.8068 29.1222 69.7139 30.0336 69.1339 30.5993V30.2614H68.8015V28.9179H68.1442C68.121 29.7979 68.0128 30.0572 67.8117 30.5915C67.1235 30.3872 66.4662 30.2144 65.8321 30.9294V31.5972H65.4997V31.935L63.5201 31.5972C63.4119 31.8172 63.3037 32.045 63.1877 32.265C62.7469 32.375 62.3062 32.4851 61.8654 32.6029V33.2707H60.5432V33.9386C59.7545 33.7814 59.507 33.5536 58.8961 33.2707V34.9443C58.1228 35.0543 57.3573 35.1642 56.5841 35.2821V35.62C55.6175 35.8478 55.5015 35.9892 55.2618 36.9635C55.7258 36.9871 55.2154 36.9086 55.5943 36.6257C56.1124 36.2407 55.9035 37.4506 55.9267 37.6313C55.3623 38.0085 55.4784 37.8435 55.2696 38.6371C55.7103 38.5271 56.1511 38.4171 56.5918 38.2993L56.9243 37.6313C56.9861 37.6235 57.6975 37.9457 58.2465 37.9692V37.3014C58.579 37.4114 58.9038 37.5214 59.2363 37.6392L59.5689 36.9714C59.971 36.775 60.5354 36.7906 60.8911 36.6335V35.29C61.6721 35.1564 62.7082 34.6536 63.8603 34.9522V35.29H65.1827V34.9522H65.8399V33.6085H66.4972V34.2764C67.487 34.0564 68.4766 33.8285 69.4664 33.6085L69.799 33.9464C70.7037 33.3022 70.1005 32.7993 71.7784 32.6029C72.1573 32.9879 71.7785 32.7364 72.4358 32.9407V31.935L74.0829 31.5972V30.9294C75.1732 31.1101 75.5828 31.3536 76.0623 30.9294H76.3949C76.8125 30.4108 76.0391 30.2536 76.7273 29.9236V30.2614H77.0598V29.2558C77.7866 29.1379 78.7686 28.8158 79.6965 29.2558C79.8048 29.4758 79.9132 29.7036 80.0291 29.9236H80.6863V29.2558C81.3513 29.4444 80.9725 29.2165 81.3436 29.5936L82.3334 29.2558V28.9179H83.3232C83.5397 28.5801 83.7639 28.25 83.9804 27.9122C84.5294 28.0222 85.0785 28.1322 85.6275 28.2501V28.5879C85.8672 28.635 86.8415 28.2894 87.9395 28.2501L87.6071 27.2444H88.2642V27.5822H89.5864L89.9191 27.92V27.5822L90.9087 27.2444C90.8855 26.3644 90.7773 26.1051 90.5762 25.5708H92.5558C92.9347 25.1858 92.5559 25.4373 93.2131 25.233C93.4683 24.2273 93.4142 24.353 94.5354 24.2273C94.9065 24.8008 94.7442 24.683 95.5252 24.8951C95.8577 24.0544 96.2056 23.143 96.8474 23.5516H97.1798V24.5572H97.8372C98.0769 23.6301 97.93 23.8109 98.827 23.5516V23.2137L100.806 22.8759C100.806 22.8759 100.953 23.363 101.464 23.2137L101.796 22.5459H102.786V21.878L103.443 22.2158V22.5537C103.876 22.7187 103.513 22.3965 103.776 22.2158C104.603 21.988 104.309 22.043 104.765 21.548H105.098V20.8802L105.755 20.5423C106.142 20.118 106.312 19.568 106.745 19.1987V19.5366H107.735C107.843 19.9845 107.951 20.4323 108.067 20.8802H108.4C109.204 19.513 110.248 19.6388 112.026 19.2066C112.127 19.183 112.111 18.743 112.684 18.8687V19.2066C113.341 19.4266 114.006 19.6544 114.663 19.8744V19.5366H114.996L114.663 18.5309C114.88 18.4209 115.104 18.3109 115.32 18.193C115.777 17.4937 115.173 17.7216 115.978 17.1873V16.8495L117.625 16.5116C117.447 17.4466 117.369 16.5431 117.625 17.5173H117.957V16.8495C118.614 16.9595 119.279 17.0694 119.937 17.1873V16.8495C120.292 16.5431 119.999 16.9045 120.269 16.5116H119.937V16.1738H120.926C120.996 16.9674 121.066 17.0066 121.259 17.5173C121.638 17.1323 121.39 17.5173 121.591 16.8495C121.97 16.4645 121.723 16.8495 121.924 16.1817C122.914 15.8438 123.904 15.5138 124.893 15.1759L125.226 15.5138C125.334 14.4296 125.527 14.5317 125.883 13.8403H126.54V14.1781H126.873V13.8403H128.195L128.528 12.8346C129.386 13.1881 129.919 13.4474 131.164 13.5024C131.056 13.2824 130.948 13.0546 130.832 12.8346C131.056 12.4653 132.688 12.3631 133.144 11.8288L132.811 11.161H133.144V10.8231C134.018 11.216 134.389 11.4674 135.781 11.4909V11.1531H135.448V10.1474C136.492 10.3674 136.113 10.6581 136.438 10.8152C136.825 10.7917 137.613 10.1396 138.417 10.4775L138.75 11.1453H139.407C139.09 12.2531 139.098 13.1174 139.74 14.1624H139.407C139.028 14.5474 139.407 14.296 138.75 14.5003V16.1738H138.417C138.332 16.7317 138.727 16.7552 138.75 16.8416V18.5152C137.567 18.5623 136.879 18.9945 136.113 19.183L135.456 18.8452C135.239 19.1831 135.015 19.513 134.799 19.8508C134.613 19.9294 132.997 19.5995 132.486 19.5131C132.285 20.393 131.551 21.2887 130.507 21.1866C130.507 21.1866 130.329 20.7623 129.85 20.8487L130.182 21.5165H128.86C128.752 22.0744 128.644 22.6322 128.528 23.1901L126.88 22.8523L126.548 23.5201C125.659 23.748 125.682 22.8759 125.558 22.8523L124.568 23.1901L124.901 23.528C124.916 23.6616 124.607 24.2822 124.568 24.8715C123.47 24.9815 122.372 25.0916 121.267 25.2094V24.5416C120.486 24.4709 120.447 24.4001 119.944 24.2037V25.2094C119.875 25.3508 117.679 26.8987 118.955 27.5587H117.965V27.2208C117.648 26.6001 117.632 27.8887 117.632 27.8887C117.261 28.1715 117.586 27.8493 117.3 28.2265C118.228 27.9122 118.22 27.8729 119.279 28.2265V28.5644L120.269 28.2265L119.937 27.8887L120.269 26.883C121.816 27.488 122.836 27.0794 123.896 26.2151C124.004 25.9951 124.112 25.7672 124.228 25.5472H125.875C125.875 25.5472 125.844 25.3508 126.532 25.2094V26.2151H126.865V25.5472C128.272 25.5236 129.053 25.4765 129.834 24.8794L130.167 24.2115C130.716 24.3215 131.265 24.4316 131.814 24.5494C131.435 24.1644 131.814 24.4158 131.157 24.2115V23.5437C131.489 23.6537 131.814 23.7637 132.146 23.8815V23.2137H132.804V23.8815C134.714 23.7244 136.082 22.6323 137.42 21.8702V22.8759H138.077V22.208H140.389V21.8702H141.379V21.5323C142.036 21.6423 142.701 21.7523 143.358 21.8702C143.637 21.493 143.32 21.823 143.691 21.5323V20.1887C144.348 20.0787 145.013 19.9687 145.67 19.8508C145.562 20.1887 145.454 20.5187 145.338 20.8566H145.67V21.1945C146.042 20.9116 145.717 21.2337 146.003 20.8566C146.382 20.4716 146.135 20.8566 146.336 20.1887C146.854 20.2123 148.648 20.5265 148.648 20.5265V20.1887H148.98V19.183C149.343 18.7116 150.465 18.8374 151.292 18.8452V19.183L153.272 18.8452V18.5073H153.929V18.1694H154.919L154.586 19.1752H154.919C155.158 18.248 155.011 18.4287 155.908 18.1694V18.8374C156.241 18.7274 156.566 18.6173 156.898 18.4995V18.1617C157.671 18.0517 158.437 17.9416 159.21 17.8238V17.4859H160.2L160.532 16.818C160.811 16.708 162.705 17.1716 163.169 17.4859V16.818L164.159 16.4802V16.1423C164.608 16.0009 164.028 16.386 164.492 16.4802C165.041 16.5902 165.079 16.1581 165.149 16.1423C165.752 16.0166 166.425 16.5823 166.796 16.8102V16.4724C167.824 15.5217 166.873 15.0502 168.775 14.7988V15.1366H169.765L169.433 15.8045C169.858 16.3467 170.051 15.4352 170.422 16.8102C170.855 16.4566 170.917 16.1267 171.412 15.8045V16.8102H172.069C171.961 16.1423 171.853 15.4667 171.737 14.7988C173.283 14.2645 172.85 15.0581 173.716 13.1253H174.049C174.01 13.8403 173.709 14.2724 173.716 14.4688L174.049 14.8067C174.652 14.3824 174.088 14.351 174.381 14.1389C174.76 13.856 174.59 14.4452 174.714 14.4767C175.046 14.3667 175.371 14.2567 175.704 14.1389V13.4709C176.446 13.3374 176.972 12.921 178.016 13.1331C178.016 13.1331 178.031 13.5731 178.673 13.4709V13.1331H180.32V13.4709C179.531 13.6752 179.709 13.581 179.33 14.1389H179.988C180.939 12.5439 182.524 13.1017 184.279 12.4653L184.612 11.4596C185.555 11.4596 186.027 11.5774 186.591 11.7974V10.4539H186.924C187.14 10.7917 187.364 11.1217 187.581 11.4596H187.913L187.581 12.1274H187.913V12.4653C188.857 13.1567 188.764 11.8681 189.236 13.4709H189.893V14.1389H190.55C190.442 14.4767 190.334 14.8066 190.218 15.1445H190.55C190.774 15.6473 190.782 15.7024 190.883 16.4881H191.54V17.1559C192.05 17.4545 192.228 17.651 192.53 18.1617C193.597 17.5724 193.156 17.3602 194.509 17.8238L194.177 16.818H194.834V16.1502H195.491V16.4881H195.824V16.1502L196.814 16.4881L196.481 17.4937H197.138C197.378 16.5666 197.231 16.7474 198.128 16.4881C198.623 15.8988 199.017 15.8516 200.108 15.8202V15.1524C200.765 14.9324 201.43 14.7045 202.087 14.4845C202.11 15.3645 202.219 15.6238 202.42 16.1581C202.791 15.8752 202.466 16.1973 202.752 15.8202H203.085V14.8146C204.074 14.9246 205.064 15.0345 206.054 15.1524V14.4845H206.711L207.044 13.4788C207.484 13.5888 207.925 13.6988 208.366 13.8167C208.474 13.5967 208.582 13.3689 208.698 13.1489L210.345 13.4867V14.1545C211.188 13.6359 212.619 12.0724 213.647 12.811H214.304V13.4788H214.637V12.811C216.222 12.7245 216.23 12.5753 217.606 12.811C217.714 12.2531 217.823 11.6953 217.939 11.1374C219.462 10.8467 220.614 10.8467 221.565 11.1374V10.4696H223.545V10.8074H224.535V11.1453C224.867 11.0353 225.192 10.9252 225.524 10.8074V10.4696C225.145 10.0846 225.393 10.4696 225.192 9.80176C226.274 9.82533 226.166 10.226 226.839 9.80176L227.171 9.13383L229.151 9.80176V10.4696C230.04 10.4696 231.022 10.5795 231.463 10.1317V9.46386L232.12 9.80176V9.46386C232.777 9.35386 233.442 9.24392 234.1 9.12606C234.409 9.33034 233.984 9.60529 234.432 9.46386L234.765 8.79603C235.182 8.79603 235.608 9.39311 236.412 9.13383V8.79603C236.961 8.68603 237.51 8.57599 238.059 8.45814L237.726 9.46386H238.059C238.793 10.2731 238.677 9.93533 239.706 9.80176C239.667 10.8625 239.064 10.4302 240.038 10.8074C240.185 11.6402 240.34 12.041 240.371 13.1567C239.458 13.4003 239.636 13.2509 239.381 14.1624H239.049V15.8359C238.26 15.9931 238.012 16.2209 237.402 16.5037V15.4981H237.069C236.582 17.3759 236.497 16.1895 235.422 16.8416V17.1795L234.1 18.1852C234.208 17.8473 234.316 17.5174 234.432 17.1795H234.1C233.899 17.7138 233.806 17.9731 233.767 18.8531C232.522 19.1202 231.919 19.5052 230.141 19.5209V18.8531H229.483V19.5209H227.836V19.8587H228.169C227.96 20.338 227.782 20.1101 227.512 20.5265H226.854L227.187 19.8587H226.854C226.53 20.3144 226.661 20.5187 225.865 20.5265C225.865 20.5265 225.633 20.0473 225.207 20.1887C225.099 20.4087 224.991 20.6366 224.875 20.8566H224.218L223.885 22.868L222.563 23.2058V21.8623H221.906C221.666 22.9387 221.457 23.0801 220.258 23.2058L220.591 22.2001H220.258C220.135 22.5851 220.166 23.3944 219.601 23.2058L219.269 22.2001C218.936 22.3101 218.612 22.4201 218.279 22.538V23.2058C217.753 23.0015 217.498 22.9073 216.632 22.868V21.8623H216.299V22.868C216.678 23.253 216.431 22.868 216.632 23.5359C215.859 23.6459 215.093 23.7558 214.32 23.8737V24.5416C213.152 24.6673 213.315 24.958 212.34 25.2094V26.2151C211.536 26.0266 211.613 25.8615 211.018 25.5472V26.2151H210.686V27.2208H211.018V26.5529H211.675V27.2208C212.224 27.1108 212.773 27.0008 213.322 26.883V27.8887H213.98V26.883C214.529 26.993 215.078 27.1029 215.627 27.2208C215.781 26.4193 216.006 26.1679 216.284 25.5472C217.359 25.5551 218.666 25.398 219.253 25.8851H219.586C219.694 25.6651 219.802 25.4373 219.918 25.2173H220.576V24.8794H221.233V24.5416L221.89 24.8794V24.5416H225.192C225.084 24.2037 224.975 23.8737 224.859 23.5359H225.517V23.198H225.849V23.5359L226.839 23.8737C226.862 24.3451 226.916 23.968 226.506 24.2115C226.878 24.5651 226.506 24.3609 227.164 24.5494V24.2115H227.496V23.2058H227.829C228.115 22.7423 228.076 22.6244 228.161 21.8623C228.942 21.823 228.996 21.7601 229.483 21.5244V21.8623H229.816V22.2001L229.483 22.868H230.473V22.2001C231.247 22.0901 232.012 21.9802 232.785 21.8623V22.2001H233.118C233.489 21.933 232.994 21.7602 233.45 21.8623V22.2001H234.772V22.868H235.105C235.213 22.2002 235.321 21.5244 235.437 20.8566H236.095V21.5244H236.427V20.5188C237.185 20.5502 237.286 20.8016 237.749 20.8566L238.082 20.1887C238.082 20.1887 238.987 20.503 239.404 20.5265V19.8587L239.737 20.1966C240.178 20.0866 240.618 19.9766 241.059 19.8587V20.1966H242.706V19.1909H243.363V19.5288H243.696V19.1909L244.353 19.5288L244.686 18.5231C245.559 18.1931 245.374 19.2537 246.008 19.1909V18.8531C247.454 18.5074 247.825 18.0281 249.31 17.8474V18.1852H248.977C248.351 18.4759 249.634 18.5231 249.634 18.5231C249.913 18.9002 249.596 18.5701 249.967 18.8609V18.193L251.614 17.8552C251.722 17.6352 251.83 17.4073 251.946 17.1873L252.279 17.5252C254.235 17.6509 254.49 16.8259 255.581 16.1817V17.1873H255.913C256.292 16.8023 255.913 17.0538 256.571 16.8495V16.1817C256.903 16.2917 257.228 16.4016 257.56 16.5195L257.893 15.8516H259.215V15.5138H259.547C259.748 16.3153 259.656 16.1345 260.205 16.5195V15.5138C261.937 15.231 261.666 15.4745 263.174 16.1817C263.344 15.396 263.653 14.9245 264.164 14.5081C264.543 14.8931 264.164 14.6416 264.821 14.8459V14.1781H265.811V13.5103C266.36 13.6203 266.909 13.7302 267.458 13.8481V14.516H268.115V13.5103C268.834 13.5574 269.213 13.8481 269.437 13.8481V13.5103L270.427 13.1724C270.535 13.3924 270.644 13.6203 270.76 13.8403C271.811 14.1546 273.389 13.141 274.061 12.8346L273.729 11.8288H274.719C274.92 12.6303 274.827 12.4496 275.376 12.8346C275.654 13.2117 275.337 12.8817 275.709 13.1724C275.732 12.2924 275.84 12.0331 276.041 11.4988C276.698 11.3888 277.363 11.2789 278.021 11.161C278.299 11.5381 277.982 11.2081 278.353 11.4988C278.098 11.8367 277.951 11.8289 277.696 12.1667H278.685L278.353 11.161L278.685 10.8231C279.173 10.9803 279.211 11.2082 280.008 11.161V10.8231H280.34V11.161C280.781 11.271 281.222 11.381 281.663 11.4988V11.8367C283.008 12.3553 283.619 11.5932 284.299 12.1746C285.328 12.866 284.454 12.6067 284.957 13.5181L285.614 13.8559V14.5238H285.946C286.248 14.9796 286.194 15.1131 286.279 15.8674L284.957 15.5295C285.22 16.6137 285.567 16.6845 285.614 18.2088C285.243 18.4916 285.567 18.1695 285.281 18.5466H284.949C284.848 17.5409 284.902 17.6352 284.292 17.203V17.5409H284.624C284.407 17.9888 284.183 18.4366 283.967 18.8844C283.109 18.9002 282.83 18.9552 282.32 19.2223V19.5601C281.755 19.7566 281.748 19.2459 281.663 19.2223C280.479 18.9159 279.729 19.6466 279.351 20.2281H279.018C278.91 20.8959 278.801 21.5716 278.685 22.2394H278.028L277.696 21.5716C277.255 21.6816 276.814 21.7915 276.373 21.9094C276.443 22.703 276.513 22.7423 276.706 23.253C275.94 23.2216 275.863 22.9858 275.384 22.9151L275.051 23.5829C274.61 23.6929 274.17 23.803 273.729 23.9208C273.489 24.848 273.636 24.6673 272.739 24.9266C271.579 25.9873 270.605 24.5022 270.427 24.5887V24.9266C269.878 25.2644 269.329 25.5943 268.78 25.9322C268.958 27.1029 269.105 26.5529 268.78 27.6057H269.113V27.2679H270.435V27.9358L271.425 27.5979V27.2601L272.414 27.5979V26.5923C272.747 26.7023 273.072 26.8122 273.404 26.9301V26.5923L273.072 26.2544H275.051C275.159 26.5922 275.268 26.9222 275.384 27.2601C275.6 27.1501 276.041 26.5923 276.041 26.5923C276.373 26.7023 276.698 26.8122 277.031 26.9301V26.5923C277.518 26.333 277.58 26.3408 278.353 26.2544V25.5865H279.01V24.9187H280.333V25.5865C281.075 25.5001 281.206 25.5551 281.655 25.2486V24.9108H282.312V24.5729H282.969V24.2351C283.557 23.7559 283.758 23.4808 284.616 23.2294V24.2351H285.939C286.047 23.6773 286.155 23.1194 286.271 22.5616H286.928C286.82 22.8994 286.712 23.2295 286.596 23.5673H286.928C287.4 23.088 288.769 22.7109 289.565 22.5616V21.8938C290.006 21.7838 290.447 21.6737 290.887 21.5559V20.5501H291.545V21.5559H292.202V20.5501H293.849C293.741 20.888 293.632 21.218 293.516 21.5559H294.174C294.514 21.1709 294.785 20.9116 295.496 20.888V21.2258H295.828L296.161 20.888C296.47 20.283 296.617 20.3615 296.818 19.5444L297.808 19.2066V18.8687L298.14 19.2066L299.13 18.8687V19.8744H299.788C299.857 19.0809 299.927 19.0416 300.12 18.5309L300.777 18.8687V18.5309C301.249 18.1145 301.288 17.6037 301.767 17.1873C301.868 17.3444 302.44 18.4052 302.757 18.193L303.089 17.1873C304.52 17.0773 305.95 16.9674 307.381 16.8495V17.1873C306.468 17.4309 306.646 17.2816 306.391 18.193C307.211 18.0437 307.605 17.8867 308.703 17.8552V17.5173H308.371V15.8438C308.92 15.9538 309.469 16.0638 310.018 16.1817C310.126 15.8438 310.234 15.5138 310.35 15.1759C310.729 15.5609 310.482 15.1759 310.683 15.8438L311.672 16.1817V15.8438C312.353 15.4666 312.268 15.3252 313.319 15.1759V14.1702C314.023 14.1309 314.448 13.8246 314.642 13.8324L314.974 14.1702V13.5024L316.621 13.1645V13.8324C316.838 13.7224 317.062 13.6124 317.278 13.4945V13.1567C317.804 13.0939 317.688 13.7381 317.936 13.8246H319.258C319.366 13.2667 319.475 12.7089 319.591 12.151C320.14 12.261 320.689 12.3709 321.238 12.4888L321.57 11.821H321.903V12.1589C322.235 12.0489 322.56 11.9388 322.892 11.821V11.1531C323.271 11.5381 323.024 11.1531 323.225 11.821H323.882C324.037 11.0196 324.261 10.7681 324.539 10.1474C325.637 10.1631 327.509 10.4853 327.509 10.4853V10.1474H328.166V9.80962H329.156C329.264 9.58962 329.372 9.36169 329.488 9.1417C329.821 9.25169 330.145 9.36173 330.478 9.47959V9.81749H332.125V9.14956L333.447 8.81176V9.47959H334.104C334.313 10.3989 334.538 10.2417 334.762 11.1531H335.752C335.991 12.0803 335.844 11.8996 336.741 12.1589V12.8267C334.77 13.2353 335.032 14.1702 334.429 15.8438H336.409L336.741 14.5003C338.118 14.2881 337.677 14.1703 339.053 13.8324V14.5003C340.615 13.8324 340.383 13.8324 341.69 14.5003V13.8324C342.131 13.7224 342.572 13.6124 343.012 13.4945V12.8267H343.67V13.1645H344.002V12.8267C344.752 12.6774 344.891 12.9995 345.324 13.1645V12.8267H344.992C344.381 12.5046 345.649 12.4888 345.649 12.4888V11.821H346.306V11.1531C347.343 11.3496 347.776 11.6953 348.943 11.821L349.276 10.8152C349.276 10.8152 348.572 10.7603 348.943 10.4775H349.6V10.8152H351.58V9.80962C352.632 10.0296 352.23 10.3046 352.57 10.4775C353.119 10.4225 353.181 9.81748 353.227 9.80962C353.861 9.62891 353.683 10.0296 353.884 10.1474H354.217V9.80962C354.657 9.91962 355.098 10.0296 355.539 10.1474C355.779 9.22029 355.632 9.40098 356.529 9.1417V9.80962H357.851C358.16 9.20463 358.307 9.28313 358.508 8.466L359.498 8.8039V8.466C359.715 8.356 359.939 8.24606 360.155 8.1282V8.79603H360.813L360.48 7.79031C361.269 7.63317 361.516 7.40533 362.127 7.12248V8.466C363.844 8.01029 363.302 7.72749 365.429 8.1282V7.12248H366.419V7.46037C366.279 7.6568 365.877 7.5075 366.086 8.1282H366.419C366.952 6.05394 367.122 7.56243 368.398 6.78458C369.148 6.32887 368.375 5.55102 370.045 5.11103V5.44892L371.035 5.11103V5.77895H371.368V5.11103C372.535 5.23674 372.373 5.52753 373.347 5.77895V6.44678C373.656 6.9732 375.706 7.06749 374.669 8.12034H375.327V9.46386L374.669 9.80176C374.654 9.91175 374.979 10.5481 375.002 11.1453H375.659C375.504 11.9467 375.28 12.1981 375.002 12.8188C374.414 12.8503 373.811 13.1724 373.68 13.1567V12.8188H372.357V13.1567L370.378 13.4945V14.1624C369.937 14.3824 369.496 14.6102 369.056 14.8302V14.4924H368.723V15.4981L366.411 16.1659C366.79 16.5509 366.411 16.2995 367.068 16.5037V16.8416C367.648 17.1166 368.128 16.6452 368.391 16.5037V16.1659H369.38V15.4981C370.919 15.4195 371.259 15.011 372.35 14.4924V14.1545H374.662V14.4924H374.329C373.95 14.8774 374.329 14.6259 373.672 14.8302V15.4981C375.017 15.1053 374.02 15.1917 374.662 14.4924L375.319 14.8302V14.4924H375.976V14.1545H376.966C377.314 13.9502 377.785 12.4967 378.613 12.811V13.1489H379.27V12.1431C379.603 12.2531 379.928 12.3631 380.26 12.4809V12.1431C380.917 12.0331 381.582 11.9231 382.239 11.8052V12.4731H382.897C383.005 12.8109 383.113 13.1409 383.229 13.4788H383.562V12.811H384.219C384.412 11.5617 384.412 12.041 384.219 10.7996C384.319 10.8389 387.397 11.5303 387.521 11.4674V11.1296H387.853V9.78603H388.186C388.859 10.3989 389.686 9.88031 390.823 9.78603V9.1182C391.488 9.30677 391.109 9.07886 391.48 9.456C392.694 9.10243 392.385 8.78032 393.127 8.11247V7.77458C393.962 7.24816 395.733 7.75101 397.086 7.77458C397.295 6.8553 397.519 7.01244 397.743 6.10102C399.158 6.04602 398.872 5.8889 399.723 5.43319V6.43892H401.045C401.115 5.64536 401.184 5.6061 401.377 5.09539L402.367 5.43319L402.7 4.76536H403.357V4.42747C403.689 4.31747 404.014 4.20753 404.347 4.08967L404.679 5.09539C405.514 4.41183 404.818 4.2861 406.326 4.08967V4.42747C405.947 4.73389 405.94 4.67111 405.669 5.09539H406.002V5.43319C406.69 5.06391 406.589 4.89108 407.649 4.76536C407.927 5.1425 407.61 4.81255 407.981 5.10326C407.594 5.73968 407.703 5.42538 406.991 5.77109V6.10889H407.649C407.54 6.77674 407.432 7.45249 407.316 8.12034H407.649V8.45814H407.316V9.12606C407.424 9.91177 407.533 10.6896 407.649 11.4753H407.316C407.038 11.8603 407.146 11.9467 406.659 12.1431V11.8052H406.326C406.11 12.1431 405.885 12.4731 405.669 12.811H404.679L404.347 13.4788C403.906 13.5888 403.465 13.6988 403.025 13.8167C402.916 14.1545 402.808 14.4846 402.692 14.8224L401.702 15.1602L401.37 15.828H401.037V15.4902C399.823 15.1995 399.444 16.6295 398.725 15.828V16.496H398.068C398.176 16.9438 398.284 17.3916 398.4 17.8395H398.068C397.697 18.4131 397.859 18.2952 397.078 18.5073C397.047 18.4366 396.606 17.2895 396.421 17.5016V17.8395L395.764 18.1773C395.655 18.5151 395.547 18.8452 395.431 19.183H394.441C393.336 19.733 394.008 20.0709 392.129 20.1887C392.238 20.5266 392.346 20.8566 392.462 21.1945C392.903 21.0845 393.343 20.9744 393.784 20.8566V21.8623H394.117V21.5244H395.439C396.444 21.1394 396.908 20.5895 398.408 20.5188V19.8508C399.344 19.6387 399.282 19.2302 399.398 19.183H400.72V19.5209L402.042 19.183C402.042 19.183 402.189 19.5995 402.7 19.5209V19.183L404.022 19.5209V19.183C404.401 18.798 404.153 19.183 404.354 18.5152H404.022V18.8531C403.736 19.4895 403.689 18.1852 403.689 18.1852C404.896 18.2952 406.11 18.4052 407.316 18.5231L407.649 17.8552C407.981 17.7531 408.252 18.3737 408.971 18.193V17.8552H410.618V18.193H410.95V17.8552H412.273L412.605 16.8495H412.938L412.605 16.1817H413.595C413.974 16.5667 413.595 16.3152 414.252 16.5195V15.8516C415.041 16.0088 415.288 16.2366 415.899 16.5195V16.1817H415.567C414.956 15.8595 416.224 15.8438 416.224 15.8438V16.1817C416.603 16.5667 416.355 16.1817 416.556 16.8495C417.26 16.8102 417.678 16.5116 417.879 16.5116V16.8495H418.536C418.629 16.2524 418.868 16.1817 418.868 16.1817C418.76 15.8438 418.652 15.5138 418.536 15.1759H418.868V14.8381C419.804 15.2623 420.229 15.7023 421.505 15.8438V15.1759C423.431 14.7281 421.691 14.3274 423.485 15.1759V13.8324H423.817V14.1702C424.258 13.8324 424.699 13.5024 425.14 13.1645V14.5081H425.472C425.634 14.351 425.379 13.9659 425.805 14.1702V14.5081H426.137C426.137 14.5081 426.044 15.7102 426.47 15.1759V14.8381C426.848 14.4531 426.601 14.8381 426.802 14.1702H425.812C426.067 13.1645 426.013 13.2902 427.134 13.1645V13.5024L428.124 13.1645V13.5024H429.114V13.8403C429.965 14.021 430.923 12.7952 431.426 12.4967L432.416 12.8346V12.4967C432.965 12.1352 432.965 12.041 433.738 11.8288C433.63 12.1667 433.522 12.4967 433.406 12.8346H433.738V13.1724C434.071 12.9524 434.395 12.7245 434.728 12.5045V12.1667H435.385C435.981 11.8996 436.104 11.4045 436.375 10.8231C436.924 11.271 437.473 11.7189 438.022 12.1667C438.223 11.5067 438.037 11.3496 438.679 11.161C438.787 11.2003 438.78 11.7896 439.336 11.8288C440.04 10.8781 439.63 11.1531 440.659 11.4909C440.767 10.4067 440.96 10.5089 441.316 9.81749C442.468 9.9982 441.927 10.1475 442.963 9.81749V11.8288H443.296C443.667 11.2553 443.504 11.3731 444.285 11.161C444.904 12.2139 445.507 12.1117 445.608 13.8403C446.512 13.8796 447.997 14.3039 448.244 13.8403H448.577V14.1781C449.489 14.3981 450.525 15.1131 450.889 15.8516V16.8574H451.221C451.678 17.4781 451.987 17.6352 452.211 18.5309C451.879 18.4209 451.554 18.3109 451.221 18.193V18.5309H451.554V19.5366H451.886C452.188 20.0316 452.18 20.3616 452.219 21.2102C451.84 21.5952 452.087 21.2102 451.886 21.878C450.788 21.988 449.69 22.098 448.585 22.2158V21.548C448.144 21.658 447.703 21.768 447.262 21.8859V21.218C447.046 21.328 446.821 21.438 446.605 21.5559C446.497 21.3359 446.388 21.108 446.272 20.888C446.265 20.888 445.298 21.3437 444.626 20.888L444.293 19.8823C443.906 19.6073 443.728 20.8644 442.971 20.5501V20.2123C442.592 19.8273 442.839 20.2123 442.638 19.5444L441.648 19.8823V19.5444H441.316C441.424 19.2066 441.532 18.8766 441.648 18.5388C441.648 18.5388 441.239 18.4367 441.316 17.871C441.316 17.871 441.865 17.7216 441.648 17.203H441.316C440.937 17.588 441.316 17.3366 440.659 17.5409C440.55 17.8788 440.442 18.2088 440.326 18.5466C439.553 18.4524 439.507 18.4366 439.004 18.2088V17.871C438.447 17.9102 438.447 18.5074 438.347 18.5388C437.597 18.8059 437.017 18.1223 436.7 18.2009V18.5388C435.578 18.9945 435.331 19.5837 434.063 19.8823C434.171 19.5445 434.279 19.2144 434.395 18.8766H433.738C433.251 19.788 432.725 20.4087 431.426 20.5501V19.5444H431.094C430.838 20.5501 430.893 20.4244 429.771 20.5501V19.8823C428.395 20.6444 428.209 20.5659 426.47 20.2202V19.5523H426.137C426.114 20.8487 426.191 20.9351 425.147 21.2258V21.5637C424.83 22.1844 424.815 20.8959 424.815 20.8959H424.158C424.049 21.1159 423.941 21.3437 423.825 21.5637C423.276 21.4537 422.727 21.3437 422.178 21.2258V21.8938H421.188V22.2316C420.809 22.6166 421.057 22.2315 420.856 22.8994L418.876 23.2373V22.5695L415.574 22.9073V23.5751H414.585V23.913C414.291 24.5415 414.252 23.2451 414.252 23.2451C413.193 23.5044 413.541 23.748 412.273 23.913V24.9187C410.324 24.7144 410.471 23.7322 408.314 23.5751C408.306 24.6908 408.143 25.0916 407.981 25.9244H407.324C407.424 25.6337 407.958 25.1858 407.656 24.5808H407.324V24.9187C406.945 25.3037 407.192 24.9187 406.991 25.5865L405.012 25.9244V26.5923C403.906 26.388 402.932 25.6729 401.71 26.2544C401.494 26.5922 401.269 26.9222 401.053 27.2601C400.156 27.5272 400.032 26.3565 399.73 26.2544C399.135 26.0501 399.491 26.6315 399.398 26.9222C399.066 26.8122 398.741 26.7022 398.408 26.5844V27.9279H397.751L397.418 28.5957C396.877 28.7607 396.807 28.2658 396.761 28.2579C395.965 28.1165 395.903 28.5957 395.439 28.5957V28.2579C394.782 28.1479 394.117 28.0379 393.459 27.92V28.5879C391.271 28.8236 390.158 28.8786 388.511 28.5879L388.178 29.5936C387.56 29.4286 386.601 29.4522 385.541 29.2558V28.9179C385.92 28.5329 385.673 28.9179 385.874 28.2501C385.085 28.2815 385.054 28.47 384.551 28.5879V28.2501C384.002 27.8887 384.01 27.7708 383.229 27.5822V26.9143H382.572C382.464 26.5765 382.355 26.2465 382.239 25.9087L380.26 25.5708V24.903C380.523 25.013 381.296 25.5865 381.907 25.2408V24.903C380.933 24.2587 381.103 23.5673 381.25 22.5537C381.691 22.3337 381.698 22.0273 381.907 21.8859C382.123 21.9959 382.348 22.1058 382.564 22.2237V20.8802H382.897C382.788 20.2123 382.68 19.5366 382.564 18.8687C382.232 18.7587 381.907 18.6488 381.574 18.5309C381.683 18.7509 381.791 18.9788 381.907 19.1987L380.917 18.8609V19.5288H380.585C380.476 19.7488 380.368 19.9766 380.252 20.1966H379.262C379.34 20.9745 379.626 20.4009 379.262 21.2023L378.605 20.8644V21.5323C378.249 22.1215 378.273 20.8644 378.273 20.8644C377.724 20.9744 377.175 21.0845 376.626 21.2023C376.626 21.2023 376.471 20.6994 375.968 20.8644C375.86 21.0844 375.752 21.3123 375.636 21.5323H374.646C374.538 21.8701 374.43 22.2001 374.314 22.538C373.803 22.263 372.852 21.328 372.002 21.5323C371.893 21.7523 371.785 21.9801 371.669 22.2001C371.035 22.1372 371.12 21.548 371.012 21.5323H370.679V21.8702H369.032V22.208H369.69C369.581 22.8758 369.473 23.5516 369.357 24.2194H368.7C368.398 24.0858 368.483 23.198 367.377 23.5516L367.045 24.2194H365.398V23.8815C364.919 23.6144 364.841 23.6459 364.076 23.5437V24.5494C363.743 24.4394 363.419 24.3294 363.086 24.2115V24.5494C362.707 24.9344 362.955 24.5494 362.753 25.2173C361.524 25.5708 361.864 25.9087 361.107 26.5608V26.8987H360.117V25.893H359.459V26.5608H357.812V26.2229H357.48C357.263 26.6708 357.039 27.1187 356.823 27.5665L356.165 27.2286V27.5665L355.176 28.2343V27.2286H354.843V27.5665L353.853 27.2286V27.5665C353.389 27.5429 353.985 27.2836 353.521 27.2286L351.541 27.5665V28.5722H351.209V28.2343C350.312 27.7472 349.593 28.7058 349.229 28.9022C349.044 27.8493 348.905 27.4958 347.907 27.2286C348.093 28.0458 348.255 27.9673 348.564 28.5722H347.907C347.381 29.0672 345.966 28.9415 344.938 28.91V28.2422H344.281V28.91C343.623 28.8 342.958 28.6901 342.301 28.5722C342.139 27.7787 341.992 27.7786 341.644 27.2286C342.092 26.8358 341.968 27.4801 342.301 26.8908C341.868 26.6158 341.914 26.655 341.644 26.2229H342.301C342.371 25.4293 342.44 25.3901 342.633 24.8794C341.698 24.6594 341.389 24.2587 340.986 23.5359H341.976C342.193 22.6402 342.417 21.7444 342.633 20.8566C342.2 20.5816 342.247 20.6209 341.976 20.1887C341.273 20.5973 341.257 20.943 340.329 21.1945V20.5265H339.997V21.5323C338.713 21.6423 338.512 22.0744 337.685 22.538C337.615 21.7444 337.546 21.7052 337.352 21.1945C336.981 21.4773 337.306 21.1551 337.02 21.5323H336.687L337.02 21.8702L336.687 22.8759C335.288 22.6323 335.102 22.8209 333.385 22.8759L333.718 23.8815H333.385C333.115 24.3215 333.153 24.2744 332.728 24.5494V23.2058C331.05 23.3001 331.274 23.8029 329.426 23.8737C329.179 25.0129 328.723 25.4215 327.447 25.5472V24.8794H327.114V25.2173C326.828 25.8537 326.782 24.5494 326.782 24.5494C326.449 24.4394 326.124 24.3294 325.792 24.2115L326.125 24.8794H325.467C324.941 25.3744 324.655 26.0344 324.477 26.8908H323.488V26.2229C321.369 26.3015 320.836 27.4486 319.196 27.8965C319.405 26.9772 319.629 27.1343 319.853 26.2229C317.742 26.6943 316.242 28.1715 314.905 25.8851C316.389 25.0051 315.608 24.6358 315.237 23.2058H313.915C313.637 22.8287 313.954 23.1587 313.582 22.868C313.683 22.5773 314.216 22.1294 313.915 21.5244H313.582V21.1866H312.593C312.036 22.1137 311.178 21.8623 310.613 22.5301L310.281 23.5359H309.291V23.8737C308.958 23.9837 308.634 24.0937 308.301 24.2115V23.5437C307.273 23.7716 306.801 24.5494 305.989 24.8872H304.667V25.2251C304.334 25.1151 304.01 25.0051 303.677 24.8872V25.5551L301.697 25.893V26.2308H300.375C300.267 26.2543 300.29 26.6944 299.718 26.5687V26.2308H299.061V25.893L296.749 25.5551C296.509 26.0265 296.153 26.5687 295.759 26.8987V25.5551H295.426V26.2229C295.094 26.1129 294.769 26.003 294.437 25.8851C294.282 26.6708 293.888 26.9222 293.779 27.5587H294.112C294.22 27.8965 294.328 28.2265 294.444 28.5644C292.565 28.588 292.372 28.2107 291.143 27.8965C290.655 28.8079 290.13 29.4286 288.831 29.57V28.9022H288.173V30.2458H287.516V30.5836H285.204V30.9215H284.547V31.2593C284.33 31.1493 284.106 31.0393 283.889 30.9215V31.2593H283.557C283.07 30.8586 283.835 31.0157 283.225 30.5915C283.263 31.6522 283.866 31.22 282.892 31.5972V30.9294C281.036 31.1572 281.825 31.7622 280.913 32.2729H280.255C280.147 32.6107 280.039 32.9408 279.923 33.2786H278.276V32.9407C279.095 32.3279 278.701 32.6815 278.608 31.5972H277.951V32.6029C275.082 32.6108 274.58 33.1843 272.012 33.2707V32.6029C271.572 32.8229 271.131 33.0507 270.69 33.2707C270.798 33.7186 270.907 34.1664 271.023 34.6143C270.164 34.5593 269.894 34.5435 269.375 34.2764V33.9386L268.386 34.2764C268.332 34.2685 268.27 33.805 267.729 33.9386V34.2764H267.071V34.6143H266.414V34.9522C265.958 35.2586 265.834 35.1878 265.092 35.29V34.2842H264.759V34.6221H263.112C262.888 34.7243 263.097 35.0542 262.122 35.29C262.014 35.6278 261.906 35.9578 261.79 36.2957H262.122C262.61 36.7043 260.924 36.6256 260.8 36.6335V36.2957C259.478 36.0757 258.163 35.8479 256.841 35.6279C257.019 34.6929 257.096 35.5964 256.841 34.6221C256.485 34.8107 256.153 35.5257 255.519 35.29V34.9522H255.186L255.519 34.2842H255.186C254.807 33.8992 255.186 34.1507 254.529 33.9464C254.421 33.6086 254.313 33.2786 254.197 32.9407H254.854C254.745 32.6029 254.637 32.2728 254.521 31.935H254.854V32.2729C255.14 32.9093 255.186 31.6051 255.186 31.6051H255.519V31.2672C255.302 31.1572 255.078 31.0472 254.861 30.9294C254.97 30.5915 255.078 30.2615 255.194 29.9236H254.861V29.5857H255.851V29.2479C255.418 28.9729 255.465 29.0122 255.194 28.58C255.759 28.2029 255.642 28.3679 255.851 27.5744L257.174 27.2365C257.212 27.2129 257.684 25.9951 257.831 26.2308V26.8987H258.821C259.13 26.2937 259.277 26.3722 259.478 25.5551C259.029 25.1622 258.975 24.9423 258.821 24.2115H259.478V23.5437H260.135V23.2058C259.478 23.3158 258.813 23.4259 258.156 23.5437V23.2058C257.723 23.2294 257.328 23.7794 256.509 23.5437V23.2058C255.851 23.0958 255.186 22.9859 254.529 22.868V24.2115H253.872V24.8794C253.539 24.6594 253.215 24.4315 252.882 24.2115V23.5437L252.549 23.8815C252.171 24.2665 252.418 23.8816 252.217 24.5494H250.895V25.2173C250.238 25.1073 249.572 24.9972 248.915 24.8794C248.807 25.4372 248.699 25.9951 248.583 26.5529C247.779 26.7415 247.856 26.8986 247.261 27.2208V26.883C246.92 26.5923 246.804 26.3015 246.603 25.8772C246.224 26.2622 246.472 25.8772 246.271 26.5451C245.613 26.6551 244.948 26.7651 244.291 26.883V27.5508C243.51 27.6215 243.472 27.6923 242.969 27.8887V27.2208H243.301L242.969 26.2151H242.636V26.883C242.42 26.773 242.196 26.6629 241.979 26.5451C241.6 26.8122 241.848 27.3386 240.989 27.2129C240.881 26.9929 240.773 26.7651 240.657 26.5451H240.324V27.2129L239.335 27.5508C239.165 27.5036 239.134 26.7022 238.677 26.883C238.345 27.3308 238.02 27.7786 237.688 28.2265C237.355 28.1165 237.03 28.0065 236.698 27.8887V28.5565H236.041V29.2243C235.669 28.9415 235.994 29.2636 235.708 28.8865C235.352 28.58 235.646 28.9415 235.376 28.5487H235.708V28.2108H234.718V28.5487H234.386V28.2108H233.396C233.288 27.9908 233.18 27.7629 233.064 27.5429C232.847 27.6529 232.623 27.763 232.406 27.8808C231.958 28.0144 232.545 28.2422 232.074 28.2186V27.8808H231.417C231.409 28.918 231.509 29.6094 231.749 30.2301H230.427V30.8979H230.094V29.8922H229.437L229.105 30.8979C228.733 30.615 229.058 30.9371 228.772 30.56H228.439L228.772 29.5544C228.439 29.6644 228.115 29.7743 227.782 29.8922V30.2301H227.125C227.017 30.4501 226.909 30.6779 226.793 30.8979H225.47V31.2357H225.138C224.975 31.0864 225.231 30.6936 224.805 30.8979L224.473 31.5657L222.826 31.9036V31.2357H222.493L222.161 31.9036H221.828L221.496 31.2357C221.039 31.0236 220.568 31.0708 220.173 30.8979C220.15 32.1943 220.228 32.2807 219.184 32.5715V31.9036H218.526V32.5715H216.879L216.222 34.245H215.565V33.9071C215.457 33.8914 214.807 34.2057 214.242 34.245C214.428 33.4279 214.591 33.5064 214.9 32.9014H214.242L213.91 33.9071L211.598 33.5693C211.25 33.7422 211.358 34.3235 211.598 34.5749H210.941C210.655 34.9207 210.369 35.0386 209.951 35.2429V34.2371C208.474 34.3629 208.992 34.4493 207.639 34.2371V34.5749C208.018 34.9599 207.77 34.575 207.972 35.2429H206.324C206.239 35.2272 206.216 34.8107 205.667 34.905V35.2429H205.01C204.902 35.5807 204.793 35.9106 204.677 36.2485C204.306 35.9656 204.631 36.2878 204.345 35.9107C203.974 35.6278 204.298 35.9499 204.012 35.5728C204.445 35.2978 204.399 35.3371 204.67 34.905H203.347C203.054 35.2585 202.768 35.3449 202.358 35.5728V35.9107L201.368 35.5728V35.9107C201.801 36.1857 201.755 36.1464 202.025 36.5785H201.368C200.981 36.1228 200.765 36.0678 200.046 35.9107V36.5785C199.427 36.3428 198.754 36.2485 197.734 36.2406C197.37 35.5414 197.2 35.6436 197.076 34.5672H196.419V33.8992C196.048 34.1821 196.373 33.86 196.087 34.2371H195.754V34.905L195.097 35.2429V36.2485H194.764C194.432 35.8006 194.107 35.3528 193.775 34.905H193.442C193.009 34.1586 193.62 33.97 192.785 33.2314C192.893 32.7836 193.001 32.3357 193.117 31.8879C193.117 31.8879 192.692 31.7229 192.785 31.2201H193.117V29.5465C193.117 29.5465 193.318 29.5464 193.45 28.8786C194.362 28.635 194.184 28.7844 194.44 27.873H195.097V28.2108L196.087 27.873V27.205L197.734 27.5429C197.973 26.6158 197.826 26.7965 198.723 26.5372V25.1937H199.056L198.723 24.5258H199.056C199.334 24.1487 199.017 24.4787 199.388 24.188V23.8502C199.705 23.2294 199.721 24.518 199.721 24.518L200.711 24.8558V24.518H200.378C200.486 24.1801 200.595 23.8501 200.711 23.5123H202.69V23.8502C203.463 23.7402 204.229 23.6301 205.002 23.5123V22.8444H206.324V22.1766C205.195 22.1609 204.043 21.9487 203.355 21.8387C203.139 22.1766 202.914 22.5066 202.698 22.8444L200.718 23.1822C200.904 22.3651 201.066 22.4437 201.376 21.8387H200.053V22.1766H200.386C200.765 22.703 199.574 22.4908 199.396 22.5144V23.5201H199.064V23.858C198.515 23.968 197.966 24.078 197.417 24.1958C197.525 23.638 197.633 23.0801 197.749 22.5223C196.945 22.7108 197.015 22.868 196.427 23.1901V23.528C195.77 23.308 195.105 23.0802 194.447 22.8602V23.198C194.068 23.583 194.316 23.1979 194.115 23.8658C193.574 23.9679 192.677 24.5651 192.468 24.5337V24.1958H191.478C191.022 24.1015 191.602 23.7559 191.146 23.858L190.813 24.5258H190.156L190.488 23.858H190.156C189.777 24.243 190.156 23.9915 189.498 24.1958V24.8636C188.949 24.9736 188.4 25.0837 187.851 25.2015C187.79 25.1858 187.743 24.7222 187.194 24.8636V25.2015H186.537V25.5393C186.212 25.4686 186.15 24.6358 185.88 24.8715C185.338 25.3272 186.243 25.5158 184.89 25.8772V26.883H184.557V26.2151H184.225C184.117 26.4351 184.008 26.663 183.892 26.883H182.57C182.176 26.1523 181.843 25.7751 180.923 25.5393V25.8772H179.601L179.268 26.5451L178.279 26.2073V27.2129H177.621C176.809 28.6193 176.887 27.6058 175.974 28.2186C176.082 28.4386 176.191 28.6665 176.307 28.8865C175.65 28.7765 174.985 28.6665 174.327 28.5487C174.296 28.5565 174.157 29.1301 173.67 29.2165V28.8786H172.348L172.015 28.5408V28.8786C171.08 29.4914 171.049 29.845 169.379 29.8843C169.007 29.3107 169.17 29.4286 168.389 29.2165V29.8843H167.731V29.5465C167.314 29.4129 166.865 30.4971 166.742 30.5521C166.061 30.8586 165.798 30.2615 165.419 30.2143V30.5521C164.762 30.6621 164.097 30.7722 163.44 30.89L163.107 29.8843C162.195 30.1279 162.373 29.9786 162.118 30.89C161.128 31 160.138 31.1101 159.148 31.2279L158.816 31.8958H156.504V32.2336C155.645 32.4928 154.965 32.265 154.192 32.5715C154.006 31.7543 153.844 31.8329 153.535 31.2279C153.163 31.5108 153.488 31.1886 153.202 31.5657C152.042 32.3986 153.125 32.76 151.555 33.2393V33.5772H149.908L149.575 34.245C148.841 34.5436 148.648 33.8285 148.253 33.9071V34.245C147.596 34.3786 147.836 34.0957 147.596 33.9071H147.263V34.5749C146.931 34.4649 146.606 34.355 146.274 34.2371V33.8992L145.284 34.2371V33.8992H143.962L143.629 33.2314C143.165 33.2314 143.474 33.1293 143.297 33.5693C142.887 33.1843 143.173 33.5692 142.964 32.9014H144.286V32.2336H142.964C142.655 31.6286 142.508 31.7072 142.307 30.89H142.964C142.771 29.5072 142.608 29.2872 141.974 27.873C141.541 28.0458 142.067 28.0065 141.642 28.2108H140.652V28.5487C141.317 28.7372 140.938 28.5093 141.309 28.8865C140.366 28.855 139.894 28.8236 139.33 28.5487V28.8865C139.709 29.2714 139.461 28.8865 139.662 29.5544C138.046 29.5544 137.783 29.9394 136.693 30.2222V29.2165H136.36V29.5544H136.028L135.371 29.2165V30.2222H134.381V29.5544H134.048V30.2222H134.381V31.2279C133.283 31.2201 132.889 31.055 132.069 30.89V31.5579C131.288 31.5186 131.234 31.4558 130.747 31.2201V31.5579C130.368 31.9429 130.615 31.5578 130.414 32.2257C128.674 32.0293 129.656 31.5029 128.102 31.8879V31.2201C127.576 31.1415 127.685 31.7936 127.445 31.8879C126.208 32.3593 125.187 32.0765 124.143 31.8879V32.8936L123.486 32.5557V32.8936C122.821 33.4672 123.517 33.4043 123.153 33.8992H122.821C122.024 32.6893 119.736 33.695 118.205 33.8992V34.905C117.586 34.7321 116.403 33.7028 115.893 33.8992V34.2371H115.56V35.2429C114.57 35.3529 113.58 35.4628 112.591 35.5807V36.2485H112.923C112.815 36.5863 112.707 36.9164 112.591 37.2542C111.81 37.2149 111.756 37.1521 111.268 36.9164V37.2542H110.936V36.2485H110.279V37.2542H109.946V36.9164H108.624V37.2542L107.967 36.9164V37.2542C107.24 37.4821 106.876 37.3564 106.32 37.5921V38.5977C104.673 38.8492 104.688 38.8963 103.35 37.9299L103.018 38.9356H101.696V39.2735C101.255 39.3835 100.814 39.4935 100.373 39.6113V38.9435H99.7161C99.5151 40.1221 99.3603 40.4835 98.069 40.6171V40.2792C98.4479 39.8942 98.2006 40.2792 98.4016 39.6113C97.9609 39.5013 97.5202 39.3914 97.0794 39.2735V38.9356C96.4531 38.7392 96.6231 39.1243 96.4221 39.2735L95.4323 38.9356V39.2735H95.7647V40.6171H95.1076V39.9492C94.2029 40.4835 94.5121 40.7741 93.128 40.9549C92.8883 41.882 93.0352 41.7013 92.1382 41.9606C91.249 43.0291 90.2128 42.7698 88.8364 42.6284V41.9606H90.1586C90.0504 41.6227 89.9422 41.2927 89.8262 40.9549C89.3236 41.1513 89.285 41.2142 88.504 41.2928C88.4498 40.3813 88.3956 39.2735 87.8466 38.9435V38.6056C88.0863 38.252 88.1019 38.8964 88.504 38.2678H87.8466C87.259 37.9142 88.504 37.9299 88.504 37.9299C88.3184 37.1128 88.1559 37.1914 87.8466 36.5864H88.8364C89.1071 37.0264 89.0685 36.9792 89.4938 37.2542C88.6896 35.4942 88.2797 33.8678 91.1407 33.8992C91.5196 34.2842 91.1408 34.0329 91.798 34.2371C91.9063 33.6793 92.0145 33.1214 92.1305 32.5636H91.4733V33.2314H90.816L91.1484 32.2257H90.816C90.5685 32.8621 91.048 32.5715 90.4835 32.8936C90.0505 32.5008 90.8778 32.3828 90.1509 32.2257V32.8936L89.4938 32.5557V32.8936H89.8262C89.6097 33.3415 89.3854 33.7893 89.1689 34.2371H88.8364V33.2314H88.504V33.5693H87.5142C87.2977 33.9072 87.0734 34.2371 86.8568 34.5749H86.1997V34.9128H85.2099V35.2507H84.5526V35.5885C83.2226 36.0678 82.2252 35.125 81.5834 35.5885C80.6864 36.1778 80.5395 37.4428 80.2612 37.6H77.2918C76.9129 37.215 77.2917 37.4664 76.6345 37.2621V36.5943H76.302C76.4103 37.0421 76.5185 37.4899 76.6345 37.9378H76.302C75.6757 38.4878 74.5545 38.2913 73.6653 38.6056V38.9435C73.1781 39.1006 72.374 38.582 72.3431 38.6056V39.2735H70.6959C70.3634 40.0592 70.0386 40.8371 69.7061 41.6228H69.3737V40.6171H68.7164C68.6468 41.4106 68.5772 41.4499 68.3839 41.9606C68.0128 41.6777 68.3376 41.9999 68.0515 41.6228C67.6726 41.2378 67.9199 41.6227 67.7188 40.9549C68.2833 40.5777 68.1674 40.7428 68.3762 39.9492H67.3864V41.9606C66.8374 41.8506 66.2885 41.7406 65.7395 41.6228V41.2849C66.1183 40.8999 65.8709 41.2849 66.0719 40.6171H65.4146L65.7472 39.9492H65.4146C65.0357 40.3342 65.4147 40.0827 64.7574 40.287C64.6723 40.9392 64.4325 40.9391 64.4248 40.9549C63.899 42.6048 64.7187 43.0999 62.7778 43.3042V42.6363C62.3216 42.8013 62.051 42.7699 61.4556 42.9742V43.312C61.1231 43.202 60.7983 43.092 60.4658 42.9742V43.312H59.8085L60.1411 43.9799H58.1615V44.3177C58.5404 44.7027 58.2929 44.3177 58.494 44.9855C57.9604 44.962 56.182 44.6477 56.182 44.6477C56.0737 44.8677 55.9655 45.0956 55.8495 45.3156C54.9525 45.8105 54.7978 45.402 54.2024 45.3156V45.6535H53.5452L53.2126 46.3213C52.6636 46.4313 52.1147 46.5412 51.5657 46.6591V46.997C51.1249 46.887 50.6842 46.7769 50.2434 46.6591C49.6944 46.7691 49.1453 46.8791 48.5963 46.997V47.3349C47.6143 47.6177 47.2587 46.8005 46.6169 46.6669V47.0048C46.238 47.3898 46.4853 47.0048 46.2843 47.6727H44.9621L44.6296 47.3349C44.4595 47.4134 44.5367 47.932 43.9723 48.0027V47.6648L42.9825 47.327V47.6648C42.65 47.7748 42.3254 47.8848 41.9929 48.0027V47.3349C41.3975 47.6492 41.4747 47.7984 40.6705 48.0027V48.6705H40.338V47.6648C38.4822 47.6412 37.0673 46.8634 36.3791 45.6535L37.0362 45.3156C37.0594 44.8441 36.7115 45.457 36.7038 44.9778C36.812 44.4199 36.9202 43.8621 37.0362 43.3042H37.6936C36.9667 41.2142 38.5055 40.0513 38.6833 37.9378C39.704 37.7492 40.8871 37.6 42.3099 37.6V36.5943H43.2996C43.5239 35.6121 43.663 35.4943 44.6219 35.2507V34.5828C46.5473 34.135 44.8075 33.7342 46.6014 34.5828V33.915C47.336 33.7736 47.7303 33.5929 48.2484 33.2471V32.9093C48.9056 32.8464 48.4804 33.42 48.9057 32.9093C49.2846 32.5243 49.0371 32.9093 49.2382 32.2414H49.8955C50.2744 30.8822 50.5682 31.5736 51.2177 30.5679C51.875 30.7879 52.5401 31.0157 53.1973 31.2357V30.8979H53.5298V29.5544C51.6353 29.5937 51.1094 29.8294 49.5706 29.5544C49.385 30.6072 49.2459 30.9608 48.2484 31.2279V30.56H47.5912V31.5657C46.9185 31.9272 46.2922 32.5557 45.2792 32.5715L44.9466 32.2336C43.7558 33.145 45.0548 33.7971 42.6346 33.9071L42.967 32.5636H42.3099V32.9014H42.6423C42.6655 33.0192 42.0779 34.1114 41.9851 34.5749H41.3278V33.9071H40.6705V34.5749L40.338 34.2371C39.6808 34.4571 39.0157 34.685 38.3585 34.905C38.2502 35.125 38.142 35.3528 38.026 35.5728C37.593 35.7614 38.0956 35.3214 37.6936 35.235C37.3611 35.345 37.0363 35.4549 36.7038 35.5728V35.235H35.714V34.8971H35.3815V35.235C35.3815 35.235 34.4691 34.9285 34.0593 34.8971C33.8428 35.455 33.6185 36.0128 33.402 36.5707C33.1159 36.4685 32.6751 35.9264 32.0797 36.2329V36.5707H31.7473V37.5764H31.4147V36.5707H31.0822V37.9142C31.1363 38.3856 31.4301 37.7728 31.4147 38.2521L31.0822 38.59C30.51 38.2993 30.9663 38.5506 30.7498 37.9221H30.4171V38.59L28.7702 38.9278L29.1026 38.2599H28.7702C28.2598 38.8414 28.1748 38.5899 27.448 38.9278V39.2657C26.9608 39.4542 26.1876 39.3521 26.1257 38.9278H25.7931V39.9335H25.4606V39.5956H25.1282V40.2635H24.4709V40.9314C23.6357 40.6642 22.4295 40.9078 20.8444 40.9314C20.7361 41.7171 20.6279 42.4949 20.5119 43.2806H19.8546V42.6128C19.352 42.8092 19.3133 42.872 18.5323 42.9506V43.9563C17.8751 44.1763 17.21 44.4041 16.5528 44.6241V44.962H15.8956V45.2998C14.2795 45.9205 13.9005 44.7813 12.9263 46.3056H12.5938L12.9263 46.6434C12.818 46.9813 12.7098 47.3112 12.5938 47.6491C12.1531 47.5391 11.7121 47.4291 11.2714 47.3113V48.317C10.1038 48.4427 10.2663 48.7334 9.292 48.9848V48.317H8.95937V49.3226C8.3021 49.4326 7.63725 49.5427 6.97998 49.6605L6.64735 50.6662H5.9902C5.88194 51.0041 5.77355 51.334 5.65756 51.6719H5.32512V50.6662H4.99267L4.66022 51.3341L3.67044 50.9962V50.6584C3.02864 50.4934 3.22961 50.8469 3.0131 50.9962L1.69087 50.6584L2.02331 50.3205V49.9827H1.69087V48.977H2.02331V48.6391H1.36616C1.35843 47.5234 1.19591 47.1227 1.03353 46.2898H0.376375C-0.211297 45.9363 1.03353 45.952 1.03353 45.952C1.14178 45.6142 1.25017 45.2842 1.36616 44.9463C3.06732 45.0249 2.99763 45.5827 3.0131 43.6028C3.56211 43.4928 4.11122 43.3827 4.66022 43.2649V41.9214L5.65001 41.5835C6.0289 41.1985 5.6499 41.4499 6.30716 41.2457V41.9135H6.9645V41.2457C7.297 41.3557 7.62179 41.4656 7.95429 41.5835V40.9156H7.62165L7.95429 39.9099H8.28673V39.5721H9.27652C9.26879 39.1007 9.34598 39.4778 8.94389 39.2342V38.8963H9.93367V38.5585H10.2663L10.5988 39.2263C11.6968 39.4463 12.7948 39.6742 13.9006 39.8942C13.9315 38.637 14.202 38.3542 14.5577 37.5449C14.8902 37.6549 15.215 37.765 15.5475 37.8828V37.215H16.5373L16.2048 37.8828H16.5373V37.5449H17.1946C17.5581 37.2542 17.3414 36.7356 17.8518 36.5392C18.1456 36.8378 17.9756 37.105 18.5091 37.2071C18.7256 36.8693 18.9499 36.5393 19.1665 36.2014H20.1561V35.8635H20.4887V34.52H21.1458V35.1878C22.5532 35.0542 22.6383 34.4964 23.7827 34.1821C24.0457 33.0978 24.3935 33.0272 24.4399 31.5029H27.4093V31.8407L28.399 31.5029V31.165C28.8939 31.0314 28.8474 31.7621 29.0562 31.8328L30.046 31.495V32.1629H30.3786V31.495C30.7498 31.2122 30.425 31.5343 30.7111 31.1571L30.0537 31.495V30.1514H30.3864V28.8079H32.0333L31.7008 29.8136H32.6906C33.2164 29.1615 33.8891 28.9179 34.3376 28.1401C34.6778 28.4308 34.7939 28.7215 34.9949 29.1458C35.3274 28.9258 35.6522 28.698 35.9847 28.478V28.1401H36.6419L36.9743 27.4722C37.1908 27.5822 37.4151 27.6922 37.6316 27.81C38.0724 27.4722 37.2295 27.2444 37.9641 27.1422V27.4801C38.2966 27.5901 38.6214 27.7 38.9539 27.8179V27.1501C38.575 26.7651 38.8225 27.1501 38.6214 26.4822C39.472 26.6394 40.0828 26.8043 41.2581 26.82C41.7298 26.1051 42.1243 26.1444 42.9053 25.8144L42.5728 24.8087H43.8951V24.4708H44.2275V24.8087H44.8848V24.1409C46.7561 24.0859 46.1143 23.6223 47.1969 23.1351H48.5191V22.7972C48.898 22.4122 48.6505 22.7973 48.8515 22.1294H49.8413V22.7972H50.4987C50.7693 21.7208 50.8852 21.823 52.1456 21.7916V22.4594C52.9189 22.098 53.2205 21.6894 54.1252 21.4537V20.448H54.7823V19.7802C56.5222 19.788 57.3883 19.3873 58.7415 19.1123C58.9812 20.0395 58.8343 19.8588 59.7313 20.1181C59.623 19.7802 59.5146 19.4502 59.3986 19.1123H59.7313C60.0947 18.6409 60.8833 18.1302 61.3782 17.7688V17.4309H62.368V17.7688H62.7004V18.7744H63.0331C63.1413 17.4387 63.3732 17.2266 64.68 17.1009V17.4388C65.1208 17.5959 64.5562 17.2266 65.0125 17.1009C66.3347 16.8809 67.6493 16.6531 68.9716 16.4331C68.6391 15.3881 68.786 15.9223 68.9716 14.7595C69.7758 14.5709 69.6984 14.4138 70.2938 14.0917V14.4296H70.6263C70.8892 14.9246 70.2938 15.0974 70.2938 15.0974L70.6263 15.7652C71.3841 15.1209 71.0439 14.7596 72.2734 14.4217C72.3817 14.0838 72.4899 13.7538 72.6058 13.416C73.5492 13.8088 74.1602 14.0524 75.5752 14.0838C75.9077 13.416 76.2325 12.7403 76.565 12.0725H77.2221L77.5548 12.7403L79.8668 12.0725V11.7346H82.1788L82.5113 11.0667H83.1686C83.3774 10.1475 83.6015 10.3046 83.8258 9.39317C84.2665 9.50317 84.7072 9.61312 85.148 9.73097V9.39317C85.5114 9.09461 85.2177 9.44813 85.4806 9.05528H85.148C84.8232 8.49743 85.6197 8.77248 85.8053 8.71748V8.37959C86.1378 8.48958 86.4626 8.59962 86.7951 8.71748C86.6869 8.93748 86.5785 9.16531 86.4625 9.38531H86.7951C87.8313 8.17532 88.736 9.38526 90.0969 9.72311C90.3212 9.28311 90.5066 9.3617 90.7541 9.05528L90.4216 8.38745H91.079V8.04965L91.7361 7.71176C91.7825 7.24033 91.6666 7.76671 91.4037 7.37386L91.7361 6.70603C92.8496 6.94174 93.0042 7.43676 94.0481 7.71176V6.70603C94.9528 6.91817 94.7983 7.14601 95.6953 7.37386V6.36823C96.0587 6.47823 96.3448 6.96531 97.0175 6.70603V6.36823H98.0073V6.03034C98.6645 5.47249 99.3296 4.91463 99.9868 4.35678V3.68895H100.644V4.02675C101.1 4.12104 100.582 3.95609 100.976 3.68895L101.634 4.02675L101.301 5.03248C103.142 5.1739 104.077 5.62963 105.26 4.36465C104.611 3.98751 104.487 3.89326 104.271 3.02112L105.26 2.68323C105.369 2.90323 105.477 3.13106 105.593 3.35106H106.25V2.00753C106.969 2.14896 107.193 2.22751 107.572 2.67536L109.552 2.00753L109.219 1.3397H110.866V0.671875L111.029 0.750426ZM107.735 5.77895V6.44678H108.067V5.77895H107.735ZM401.687 6.44678V7.11461H402.019V6.44678H401.687ZM108.724 7.45251V8.12034H109.057V7.45251H108.724ZM104.108 8.12034V8.78817H104.441V8.12034H104.108ZM393.436 9.12606C393.815 9.51106 393.436 9.25958 394.093 9.46386C393.715 9.07887 394.094 9.33034 393.436 9.12606ZM367.377 9.46386C367.756 9.84886 367.378 9.59747 368.035 9.80176C367.656 9.41676 368.035 9.66814 367.377 9.46386ZM89.2617 10.4696C89.2927 11.6089 89.2618 11.6874 89.9191 12.1431V11.8052H89.5864V10.4617H89.254L89.2617 10.4696ZM362.429 10.8074C362.808 11.1924 362.429 10.941 363.086 11.1453C362.707 10.7603 363.086 11.0117 362.429 10.8074ZM326.465 11.1374V11.8052H326.797V11.1374H326.465ZM349.562 11.4753L349.229 12.1431C349.229 12.1431 350.188 11.6089 349.887 11.4753H349.554H349.562ZM383.539 11.4753H384.196C383.917 11.8524 384.234 11.5224 383.863 11.8131V12.151C383.484 11.766 383.732 12.151 383.531 11.4832L383.539 11.4753ZM91.566 11.8131C91.9449 12.1981 91.5661 11.9467 92.2234 12.151C91.8445 11.766 92.2233 12.0174 91.566 11.8131ZM276.652 12.1431V12.811H276.984V12.1431H276.652ZM95.2003 13.4867V13.8246H94.8678C94.2415 14.1153 95.5252 14.1624 95.5252 14.1624C95.8035 13.7852 95.4864 14.1153 95.8576 13.8246C95.4787 13.4396 95.8575 13.6909 95.2003 13.4867ZM348.572 13.4867V13.8246H348.239C347.613 14.1153 348.897 14.1624 348.897 14.1624C349.175 13.7852 348.858 14.1153 349.229 13.8246C348.85 13.4396 349.229 13.6909 348.572 13.4867ZM433.027 13.4867V13.8246H432.694C432.068 14.1153 433.351 14.1624 433.351 14.1624C433.63 13.7852 433.313 14.1153 433.684 13.8246C433.305 13.4396 433.684 13.6909 433.027 13.4867ZM211.985 13.8246V14.4924H212.317V13.8246H211.985ZM130.499 14.1545V14.8224H130.832V14.1545H130.499ZM214.954 14.1545V14.8224H215.286V14.1545H214.954ZM275.987 14.1545C276.544 14.8773 276.644 14.8224 276.644 14.8224C276.884 14.5003 276.072 14.2331 275.987 14.1545ZM360.449 14.1545C361.006 14.8773 361.107 14.8224 361.107 14.8224C361.346 14.5003 360.534 14.2331 360.449 14.1545ZM383.871 14.1545V14.8224H384.203V14.1545H383.871ZM444.904 14.1545C445.461 14.8773 445.561 14.8224 445.561 14.8224C445.801 14.5003 444.989 14.2331 444.904 14.1545ZM82.6581 14.8302H82.001V15.1681H82.3334V15.506H82.6659V14.8381L82.6581 14.8302ZM86.9497 16.8416H87.6071C87.4988 16.3938 87.3904 15.946 87.2744 15.4981H86.942V16.8416H86.9497ZM340.321 16.8416H340.979L340.646 15.4981H340.314V16.8416H340.321ZM424.776 16.8416H425.433L425.101 15.4981H424.768V16.8416H424.776ZM83.3232 16.1659V17.5095H83.6557V16.1659H83.3232ZM167.778 16.1659V17.5095H168.11V16.1659H167.778ZM336.695 16.1659V17.5095H337.027V16.1659H336.695ZM385.518 16.8416V17.8474H385.851C386.183 17.2424 386.577 16.8495 387.173 16.5037V16.1659H386.515C386.144 16.7395 386.307 16.6216 385.526 16.8338L385.518 16.8416ZM421.15 16.1659V17.5095H421.482V16.1659H421.15ZM232.112 16.5037V17.1717H232.445V16.5037H232.112ZM316.567 17.1717H317.224V16.8338C316.853 16.5509 317.178 16.8731 316.892 16.496H316.559V17.1638L316.567 17.1717ZM132.146 16.8416V17.8474H132.479V16.8416H132.146ZM216.601 16.8416V17.8474H216.934V16.8416H216.601ZM361.107 18.1773C361.346 19.1044 361.199 18.9237 362.096 19.183C362.305 18.2637 362.529 18.4209 362.753 17.5095H362.421C362.003 18.1459 362.089 18.0673 361.099 18.1773H361.107ZM364.076 17.5095V18.1773C364.942 18.1537 365.197 18.0438 365.723 17.8395V17.5016H364.076V17.5095ZM189.885 17.8474V18.8531H190.218V18.5152C190.589 18.2323 190.264 18.5544 190.55 18.1773L189.893 17.8395L189.885 17.8474ZM274.34 17.8474V18.8531H274.672V18.5152C275.043 18.2323 274.719 18.5544 275.005 18.1773L274.348 17.8395L274.34 17.8474ZM358.795 17.8474V18.8531H359.127V18.5152C359.498 18.2323 359.173 18.5544 359.459 18.1773L358.802 17.8395L358.795 17.8474ZM443.257 17.8474V18.8531H443.589V18.5152C443.96 18.2323 443.636 18.5544 443.922 18.1773L443.265 17.8395L443.257 17.8474ZM231.78 18.1773V18.8452H232.112V18.1773H231.78ZM384.861 18.1773C385.418 18.9001 385.518 18.8452 385.518 18.8452C385.758 18.5231 384.946 18.2559 384.861 18.1773ZM210.338 18.8531V19.8587H209.68V20.5265L210.338 20.1887L210.67 19.183C211.041 18.9002 210.717 19.2224 211.003 18.8452H210.345L210.338 18.8531ZM224.194 18.8531V19.5209H224.527V18.8531H224.194ZM308.649 18.8531V19.5209H308.981V18.8531H308.649ZM360.449 19.5209H359.459V20.1887H360.117C360.426 19.5838 360.573 19.6624 360.774 18.8452H360.441V19.5131L360.449 19.5209ZM393.104 18.8531V19.5209H393.436V18.8531H393.104ZM182.957 20.1887V19.5209C182.586 19.8038 182.91 19.4816 182.624 19.8587H182.292C182.671 20.2437 182.292 19.9923 182.949 20.1966L182.957 20.1887ZM266.422 19.5209V20.5265H266.754C267.133 20.1415 266.754 20.393 267.411 20.1887V19.5209H266.422ZM313.265 20.1887V19.5209H312.275V19.8587H312.608C312.987 20.2437 312.608 19.9923 313.265 20.1966V20.1887ZM351.866 20.1887V19.5209C351.495 19.8038 351.82 19.4816 351.534 19.8587H351.201C351.58 20.2437 351.201 19.9923 351.858 20.1966L351.866 20.1887ZM377.933 19.5209V20.1887C378.304 19.9059 377.979 20.228 378.265 19.8508H378.597C378.219 19.4659 378.598 19.7173 377.94 19.5131L377.933 19.5209ZM424.776 19.8587V20.5265H425.109V19.8587H424.776ZM206.379 21.1945H207.036C206.758 20.8173 207.074 21.1473 206.703 20.8566V20.1887H206.371V21.1945H206.379ZM113.341 20.5265V21.1945H113.673V20.5265H113.341ZM197.803 20.5265V21.5323H198.136V20.5265H197.803ZM366.713 20.5265V21.1945H367.045V20.5265H366.713ZM431.047 20.5265C431.426 20.9115 431.179 20.5266 431.38 21.1945H431.047V20.5265ZM451.175 20.5265V21.1945H451.507V20.5265H451.175ZM67.1544 20.8644V21.5323H67.487V20.8644H67.1544ZM151.609 20.8644V21.5323H151.942V20.8644H151.609ZM320.526 20.8644V21.5323H320.859V20.8644H320.526ZM404.981 20.8644V21.5323H405.313V20.8644H404.981ZM172.069 21.1945C172.1 21.2652 172.541 22.4122 172.727 22.2001V21.8623H173.059C172.773 21.5166 172.487 21.3988 172.069 21.1945ZM257.181 22.8759H257.839V22.208H257.181L257.514 21.5401C257.181 21.4301 256.857 21.3202 256.524 21.2023V21.5401C256.973 21.933 257.027 22.153 257.181 22.8837V22.8759ZM170.09 21.5323L170.422 22.538H170.755C170.554 21.7366 170.647 21.9173 170.098 21.5323H170.09ZM254.545 21.5323C254.653 21.8701 254.761 22.2001 254.877 22.538H255.21C255.009 21.7366 255.101 21.9173 254.552 21.5323H254.545ZM260.816 21.5323H260.158C260.437 21.9094 260.12 21.5795 260.491 21.8702V22.208H260.823V21.5401L260.816 21.5323ZM391.132 22.8759H391.789V22.208H392.122C392.013 21.988 391.905 21.7601 391.789 21.5401C391.418 21.823 391.743 21.5009 391.457 21.878H391.124V22.8837L391.132 22.8759ZM115.653 21.8702C116.032 22.2552 115.653 22.0037 116.31 22.208C115.931 21.823 116.31 22.0744 115.653 21.8702ZM171.737 21.8702V22.8759H172.069V21.8702H171.737ZM256.191 21.8702V22.8759H256.524V21.8702H256.191ZM262.463 21.8702H261.805C262.084 22.2473 261.767 21.9173 262.138 22.208V22.5459H262.47V21.878L262.463 21.8702ZM300.731 21.8702V22.8759H301.063V21.8702H300.731ZM385.193 21.8702V22.8759H385.526V21.8702H385.193ZM51.3182 22.2001V22.868H51.6508V22.2001H51.3182ZM66.8219 22.2001V22.868H67.1544V22.2001H66.8219ZM151.284 22.2001V22.868H151.617V22.2001H151.284ZM173.384 22.8759V22.208C173.013 22.4908 173.338 22.1687 173.051 22.5459H172.719C173.098 22.9309 172.719 22.6794 173.376 22.8837L173.384 22.8759ZM235.739 22.2001V22.868H236.072V22.2001H235.739ZM261.14 22.2001V24.2115H261.473V22.2001H261.14ZM303.368 22.2001V22.868H303.7V22.2001H303.368ZM304.69 22.2001V22.868H305.022V22.2001H304.69ZM320.194 22.2001V22.868H320.526V22.2001H320.194ZM387.83 22.2001V22.868H388.163V22.2001H387.83ZM389.152 22.2001V22.868H389.485V22.2001H389.152ZM404.656 22.2001V22.868H404.989V22.2001H404.656ZM58.5791 22.538C58.958 22.923 58.579 22.6716 59.2363 22.8759C58.8574 22.4909 59.2364 22.7423 58.5791 22.538ZM143.034 22.538C143.413 22.923 143.034 22.6716 143.691 22.8759C143.312 22.4909 143.691 22.7423 143.034 22.538ZM396.405 22.538C396.784 22.923 396.406 22.6716 397.063 22.8759C396.684 22.4909 397.063 22.7423 396.405 22.538ZM166.456 23.2058L166.788 24.2115H167.121C166.919 23.4101 167.012 23.5908 166.463 23.2058H166.456ZM250.918 23.2058C251.026 23.5437 251.134 23.8737 251.25 24.2115H251.583C251.382 23.4101 251.475 23.5908 250.926 23.2058H250.918ZM272.36 23.5437V24.2115H272.693V23.5437H272.36ZM63.8526 25.2173C63.6129 24.2901 63.7599 24.4708 62.863 24.2115C62.9712 24.6594 63.0794 25.1072 63.1954 25.5551H64.1852V25.893C64.6492 25.9558 64.0614 25.6572 64.5177 25.5551H65.8399V24.2115C65.4687 23.9287 65.7935 24.2508 65.5074 23.8737H64.8501V24.2115H65.1827C65.291 24.8165 64.3629 25.0916 63.8603 25.2173H63.8526ZM106.745 23.8815L106.412 24.5494C106.412 24.5494 107.371 24.0151 107.07 23.8815H106.737H106.745ZM360.117 23.8815L359.784 24.5494C359.784 24.5494 360.743 24.0151 360.441 23.8815H360.109H360.117ZM50.3284 25.5551H50.9857V25.2173C50.6146 24.9344 50.9394 25.2565 50.6533 24.8794H50.3207V25.5472L50.3284 25.5551ZM61.8732 24.8872V25.5551C62.2444 25.2722 61.9195 25.5944 62.2056 25.2173H62.5381C62.1592 24.8323 62.5382 25.0837 61.8809 24.8794L61.8732 24.8872ZM134.783 25.5551H135.44V25.2173C135.069 24.9344 135.394 25.2565 135.108 24.8794H134.775V25.5472L134.783 25.5551ZM146.336 24.8872V25.5551C146.707 25.2722 146.382 25.5944 146.668 25.2173H147C146.622 24.8323 147.001 25.0837 146.343 24.8794L146.336 24.8872ZM230.79 24.8872V25.5551C231.161 25.2722 230.837 25.5944 231.123 25.2173H231.455C231.076 24.8323 231.455 25.0837 230.798 24.8794L230.79 24.8872ZM388.163 25.5551H388.82V25.2173C388.449 24.9344 388.773 25.2565 388.487 24.8794H388.155V25.5472L388.163 25.5551ZM399.707 24.8872V25.5551C400.078 25.2722 399.754 25.5944 400.04 25.2173H400.372C399.993 24.8323 400.372 25.0837 399.715 24.8794L399.707 24.8872ZM56.5996 26.8987V26.2308L55.6098 26.5687L55.9422 27.9122H55.6098V28.2501C54.8365 28.3601 54.071 28.47 53.2977 28.5879V29.2558C53.7308 29.3187 55.3469 29.6643 55.6098 29.5936L55.9422 28.9258L56.932 29.2637C57.0403 28.7058 57.1486 28.148 57.2646 27.5901H57.5971C57.976 27.2051 57.597 27.4565 58.2542 27.2522V27.92H59.9014V27.2522H60.5585C60.342 26.5844 60.1179 25.9086 59.9014 25.2408H59.5689L59.2363 26.2465C58.7646 26.5843 57.3341 26.8515 56.5996 26.9143V26.8987ZM93.878 25.2173V26.2229H94.2105V25.2173H93.878ZM49.6712 25.893V26.5608H50.0037V25.893H49.6712ZM101.139 25.893V26.5608H101.471V25.893H101.139ZM134.126 25.893V26.5608H134.458V25.893H134.126ZM218.581 25.893V26.5608H218.913V25.893H218.581ZM316.567 25.893C316.946 26.278 316.567 26.0265 317.224 26.2308C316.846 25.8458 317.224 26.0972 316.567 25.893ZM354.511 25.893V26.5608H354.843V25.893H354.511ZM387.498 25.893V26.5608H387.83V25.893H387.498ZM87.6071 26.2229C87.986 26.6079 87.7385 26.223 87.9395 26.8908H87.6071V26.2229ZM171.737 26.5608C172.108 27.1344 171.946 27.0165 172.727 27.2286C172.44 26.8829 172.154 26.7651 171.737 26.5608ZM209.348 27.2286H210.005V26.8908C209.634 26.608 209.959 26.9301 209.673 26.5529H209.34V27.2208L209.348 27.2286ZM86.9497 26.8987H87.6071V27.2365C86.9421 27.0479 87.3209 27.2758 86.9497 26.8987ZM178.998 26.8987C179.377 27.2837 179.129 26.8987 179.33 27.5665H178.998V26.8987ZM267.744 28.2343H267.087V26.8908H266.754V27.2286C266.375 27.6136 266.623 27.2286 266.422 27.8965C266.754 28.1165 267.079 28.3444 267.411 28.5644C267.69 28.9415 267.373 28.6115 267.744 28.9022V28.2343ZM176.028 27.2286V27.8965H176.361V27.2286H176.028ZM67.8117 27.9043V28.5722H68.1442V27.9043H67.8117ZM152.274 27.9043V28.5722H152.607V27.9043H152.274ZM225.184 28.2343C225.563 28.6193 225.184 28.368 225.841 28.5722C225.462 28.1872 225.841 28.4386 225.184 28.2343ZM108.06 29.2401V28.5722C107.688 28.8551 108.013 28.5329 107.727 28.91H107.394C107.773 29.295 107.395 29.0437 108.052 29.2479L108.06 29.2401ZM276.977 29.2401V28.5722C276.605 28.8551 276.93 28.5329 276.644 28.91H276.312C276.69 29.295 276.312 29.0437 276.969 29.2479L276.977 29.2401ZM78.6992 29.9158V30.5836H79.0316V29.9158H78.6992ZM85.3026 29.9158V30.5836H85.6352V29.9158H85.3026ZM60.5585 30.2458V30.9136H60.8911V30.2458H60.5585ZM86.9497 30.9215C86.9343 32.2808 86.7951 32.3671 87.6071 32.9328V32.595C87.0503 31.8722 87.8621 30.9765 88.2642 30.2458H87.9318C87.5606 30.8194 87.723 30.7015 86.942 30.9136L86.9497 30.9215ZM92.8883 30.2458C93.2671 30.6308 92.8883 30.3793 93.5456 30.5836C93.1667 30.1986 93.5455 30.4501 92.8883 30.2458ZM110.039 30.2458C109.931 30.5837 109.822 30.9136 109.706 31.2514H110.039V30.9136C110.178 30.7172 110.58 30.8665 110.372 30.2458H110.039ZM145.013 30.2458V30.9136H145.346V30.2458H145.013ZM255.867 30.9215C255.851 32.2808 255.712 32.3671 256.524 32.9328V32.595C255.967 31.8722 256.779 30.9765 257.181 30.2458H256.849C256.478 30.8194 256.64 30.7015 255.859 30.9136L255.867 30.9215ZM261.805 30.2458C262.184 30.6308 261.805 30.3793 262.463 30.5836C262.084 30.1986 262.463 30.4501 261.805 30.2458ZM114.331 30.5836V31.2514H114.663V30.5836H114.331ZM151.284 31.2514H151.942V30.9136C151.57 30.6308 151.895 30.9529 151.609 30.5757H151.277V31.2436L151.284 31.2514ZM198.793 30.5836V31.2514H199.126V30.5836H198.793ZM228.153 30.5836C228.532 30.9686 228.285 30.5836 228.486 31.2514H228.153V30.5836ZM155.568 30.9215C155.46 31.1415 155.352 31.3693 155.236 31.5893L155.893 31.9271C156.133 31.5264 155.197 31.6365 155.893 30.9215H155.56H155.568ZM114.988 31.2514L114.655 32.2572H114.988V31.5893H115.32V31.2514H114.988ZM199.45 31.2514L199.118 31.9193C199.118 31.9193 200.077 31.385 199.775 31.2514H199.443H199.45ZM26.2416 32.595H26.899V32.2572C26.5278 31.9743 26.8524 32.2964 26.5663 31.9193H26.2339V32.5872L26.2416 32.595ZM211.985 32.595H211.328C211.606 32.9722 211.289 32.6421 211.66 32.9328V33.2707H211.992V32.6029L211.985 32.595ZM37.4615 33.2629V33.9307H37.794V33.2629H37.4615ZM84.9702 33.2629V34.6064H85.3026V34.2686H85.6352C85.527 34.0486 85.4186 33.8207 85.3026 33.6007H85.6352C85.2563 33.2157 85.6352 33.4672 84.9779 33.2629H84.9702ZM206.379 33.2629V33.9307H206.711V33.2629H206.379ZM256.191 33.2629C255.813 33.6479 256.192 33.3964 255.534 33.6007V33.9386H256.191C256.3 33.7186 256.408 33.4907 256.524 33.2707H256.191V33.2629ZM102.453 34.2686L102.121 34.9364C102.121 34.9364 103.08 34.4022 102.778 34.2686H102.446H102.453ZM89.9191 34.9443V35.6121H90.2515V34.9443H89.9191ZM97.1798 34.9443V35.6121H97.5123V34.9443H97.1798ZM81.6683 35.6121H82.3257C82.055 36.0521 82.0936 36.005 81.6683 36.28V36.6179H81.3359L81.6683 35.6121ZM93.2209 35.6121L92.8883 36.28C92.8883 36.28 93.8472 35.7457 93.5456 35.6121H93.2131H93.2209ZM67.8117 36.9556V37.6235H68.1442V36.9556H67.8117ZM42.4103 38.6292V39.297H42.7429V38.6292H42.4103ZM49.6712 38.9671V39.9727H50.9935V40.6407H51.9833C52.2539 40.2007 52.2151 40.2477 52.6404 39.9727V38.9671C51.264 39.2107 51.2564 39.0535 49.6712 38.9671ZM22.9476 39.6349C23.3265 40.0199 22.9477 39.7684 23.6049 39.9727C23.226 39.5877 23.6048 39.8392 22.9476 39.6349ZM91.2413 39.9727V40.6407H91.5738V39.9727H91.2413ZM9.41565 45.3313C9.3074 45.6691 9.1992 45.9992 9.08321 46.337H9.41565V45.6691H9.7481V45.3313H9.41565ZM51.9755 45.6691V46.337H52.308V45.6691H51.9755Z" fill="#FDE6AD"/>
</svg>
