<svg width="553" height="64" fill="none" xmlns="http://www.w3.org/2000/svg"><path fill-rule="evenodd" clip-rule="evenodd" d="M136.282.818c1.917.417 2.201 1.485 4.43 1.66.321-.631.802-1.573 2.011-1.243v.417c1.029.389.453-.417 1.209.418h.406v1.66l.802.417v.825h.406c.133.417.265.825.406 1.242h-1.614v1.242c-1.115.301-.898.117-1.209 1.243-1.407.35-1.879 1.048-3.626 1.242.028 1.087.16 1.407.406 2.067-1.379-.106-3.164-.33-3.22-.417v.825h.406c1.275.01-1.209.418-1.209.418-.51-.65-1.076-1.01-2.011-1.243-.605 1.126-1.398 1.767-2.824 2.067v-.824l-.803.417c-.236.63-.311.68-.406 1.66-.85.068-2.436.368-2.823.825-.491.582.359.456-.803 1.242v-1.66h-.406v1.66h-1.209v-.825c-.614.242-.661.32-1.614.417v-.825l-1.209.418c-.265.708-.387 1.3-.406 2.484h-2.012s-.406.66-.803.825v.418h-.406v-.826h-.802v-.417h-.406v.418h-1.209v.417c-.699.64-.85 1.941-1.209 2.902-1.482-.146-2.653-.728-3.626.417-.132.418-.264.825-.406 1.243a291.27 291.27 0 0 0-3.22.417v.417l-.803.418v.825l-1.208-.418-.406.825h-1.209c-.066.04-.473.621-.803.825v.418c-.67-.136-1.341-.272-2.011-.418v-.417c-.236-.03-1.38.699-2.012.825-.274.786-.52 2.533-.803 3.31l-1.208-.418v-.417c-.557-.107.16.3-.406.417-.964.194-1.04-.31-1.615-.417l-.803 1.242h-1.615v.418l-1.208.417v1.242h.802v.418h-.406c-.217.194-3.23 1.048-3.22 0h-.406v.825l-2.011-.418c.019 1.485-.095 2.611-.803 3.31v-.417h-.406v-1.66h-.803c-.028 1.087-.16 1.407-.406 2.067-.84-.252-1.643-.466-2.417.418v.825h-.406v.417l-2.418-.417c-.132.271-.264.553-.406.825-.538.135-1.076.271-1.615.417v.825h-1.614v.825c-.964-.194-1.266-.476-2.012-.825v2.067c-.944.136-1.88.272-2.823.417v.418c-1.18.281-1.323.456-1.615 1.66.566.029-.057-.068.406-.418.632-.475.377 1.02.406 1.242-.69.466-.548.263-.803 1.243.538-.136 1.077-.272 1.615-.417l.406-.825c.076-.01.944.388 1.615.417v-.825c.406.136.803.272 1.209.417l.406-.825c.49-.242 1.18-.223 1.614-.417v-1.66c.954-.165 2.22-.786 3.627-.417v.417h1.615v-.417h.802v-1.66h.803v.825c1.209-.272 2.417-.553 3.626-.825l.406.418c1.105-.796.368-1.417 2.418-1.66.462.476 0 .165.802.417V39.34l2.012-.417v-.825c1.331.223 1.832.524 2.417 0h.406c.51-.641-.434-.835.406-1.243v.418h.406V36.03c.888-.145 2.087-.543 3.22 0 .133.272.265.553.407.825h.802v-.825c.812.233.35-.048.803.417l1.209-.417v-.417h1.208c.265-.417.539-.825.803-1.242.67.135 1.341.271 2.012.417v.417c.292.058 1.482-.369 2.823-.417l-.406-1.242h.803v.417h1.614l.407.417v-.417l1.208-.418c-.028-1.087-.16-1.407-.406-2.067h2.418c.462-.475 0-.165.802-.417.312-1.242.246-1.087 1.615-1.242.453.708.255.563 1.209.825.406-1.039.831-2.165 1.615-1.66h.406v1.242h.802c.293-1.145.114-.922 1.209-1.242v-.418l2.418-.417s.179.602.802.418l.406-.826h1.209v-.825l.803.418v.417c.529.204.085-.194.406-.417 1.01-.282.651-.214 1.209-.825h.406v-.825l.802-.418c.473-.524.68-1.203 1.209-1.66v.418h1.209c.132.553.264 1.107.406 1.66h.406c.982-1.689 2.257-1.534 4.429-2.067.122-.03.104-.573.802-.418v.418c.803.271 1.615.553 2.418.825v-.418h.406l-.406-1.242c.264-.136.538-.272.803-.418.557-.863-.18-.582.802-1.242v-.417l2.012-.418c-.218 1.155-.312.04 0 1.243h.406v-.825c.803.136 1.614.272 2.417.417v-.417c.435-.379.076.068.406-.418h-.406v-.417h1.209c.085.98.17 1.029.406 1.66.463-.476.161 0 .406-.825.463-.476.161 0 .406-.825 1.209-.418 2.418-.825 3.626-1.242l.406.417c.133-1.34.369-1.213.803-2.067h.803v.417h.406v-.417h1.615l.406-1.243c1.048.437 1.699.757 3.22.825-.132-.272-.265-.553-.406-.825.274-.456 2.266-.582 2.823-1.242l-.406-.825h.406v-.418c1.067.486 1.521.796 3.22.825v-.417h-.406v-1.242c1.275.271.813.63 1.209.825.472-.03 1.436-.835 2.418-.417l.406.824h.802c-.387 1.369-.377 2.437.406 3.727h-.406c-.462.476 0 .165-.802.418v2.067h-.406c-.104.69.377.718.406.825v2.067c-1.445.059-2.286.593-3.22.825l-.803-.417c-.265.417-.539.825-.803 1.242-.227.097-2.2-.31-2.823-.417-.246 1.087-1.143 2.194-2.418 2.067 0 0-.217-.524-.803-.417l.406.825h-1.614c-.132.69-.265 1.378-.406 2.067l-2.012-.417-.406.825c-1.086.282-1.057-.796-1.209-.825l-1.208.417.406.418c.019.165-.359.931-.406 1.66-1.341.135-2.682.271-4.033.417v-.825c-.953-.088-1.001-.175-1.614-.418v1.243c-.085.174-2.767 2.086-1.209 2.902h-1.209v-.418c-.387-.766-.406.826-.406.826-.453.349-.057-.05-.406.417 1.133-.389 1.124-.437 2.418 0v.417l1.208-.417-.406-.417.406-1.243c1.889.747 3.135.243 4.429-.825.132-.272.265-.553.406-.825h2.012s-.038-.243.802-.417v1.242h.406v-.825c1.719-.03 2.673-.087 3.627-.825l.406-.825c.67.136 1.341.272 2.011.418-.463-.476 0-.165-.803-.418v-.825c.406.136.803.272 1.209.417v-.824h.803v.824c2.332-.194 4.004-1.543 5.637-2.484v1.242h.803v-.825h2.824v-.417h1.208v-.418c.803.136 1.615.272 2.418.418.34-.466-.047-.058.406-.418v-1.66c.802-.135 1.615-.271 2.417-.417-.132.418-.264.825-.406 1.243h.406v.417c.454-.35.057.049.406-.417.463-.476.161 0 .407-.825.632.029 2.823.417 2.823.417v-.417h.406v-1.243c.444-.582 1.813-.427 2.824-.417v.417l2.417-.417v-.417h.803v-.418h1.208l-.406 1.243h.406c.293-1.146.114-.922 1.209-1.243v.825c.406-.136.803-.271 1.209-.417v-.417c.944-.136 1.879-.272 2.824-.418v-.417h1.208l.406-.825c.34-.136 2.654.437 3.221.825v-.825l1.208-.417v-.418c.548-.174-.16.301.406.418.671.136.718-.398.803-.418.736-.155 1.558.544 2.011.825v-.417c1.256-1.174.095-1.757 2.418-2.067v.417h1.209l-.407.825c.52.67.756-.456 1.209 1.242.529-.436.605-.844 1.209-1.242v1.242h.803c-.132-.825-.265-1.66-.406-2.484 1.888-.66 1.359.32 2.417-2.068h.406c-.047.884-.415 1.417-.406 1.66l.406.417c.737-.524.047-.563.406-.825.463-.349.255.379.406.418a59.47 59.47 0 0 0 1.209-.418v-.825c.907-.165 1.549-.679 2.824-.417 0 0 .018.543.802.417v-.417h2.012v.417c-.964.253-.746.136-1.209.825h.803c1.161-1.97 3.097-1.28 5.241-2.067l.406-1.242c1.152 0 1.728.145 2.417.417v-1.66h.406c.265.418.538.825.803 1.243h.406l-.406.825h.406v.417c1.152.854 1.039-.738 1.615 1.242h.802v.825h.803c-.132.418-.264.825-.406 1.243h.406c.274.62.283.689.406 1.66h.803v.824c.623.37.84.612 1.209 1.243 1.303-.728.765-.99 2.417-.418l-.406-1.242h.803v-.825h.802v.417h.406v-.417l1.209.417-.406 1.243h.803c.293-1.146.113-.922 1.209-1.243.604-.727 1.086-.786 2.417-.825v-.825c.803-.271 1.615-.553 2.417-.825.029 1.087.161 1.408.407 2.068.453-.35.056.048.406-.418h.406v-1.242c1.208.136 2.417.272 3.626.417v-.825h.802l.407-1.242a98.65 98.65 0 0 1 1.614.417c.133-.271.265-.553.406-.824l2.012.417v.825c1.029-.64 2.776-2.572 4.032-1.66h.803v.825h.406v-.825c1.936-.107 1.945-.291 3.626 0 .132-.69.264-1.378.406-2.067 1.86-.36 3.268-.36 4.429 0v-.825h2.417v.417h1.209v.417a52.43 52.43 0 0 0 1.209-.417v-.417c-.463-.476-.161 0-.406-.825 1.322.029 1.19.524 2.011 0l.407-.825 2.417.825v.825c1.086 0 2.285.136 2.823-.418v-.825l.803.418v-.418c.803-.136 1.615-.271 2.418-.417.377.252-.142.592.406.417l.406-.825c.51 0 1.029.738 2.011.418v-.418a144.95 144.95 0 0 0 2.011-.417l-.406 1.242h.406c.898 1 .756.583 2.012.418-.047 1.31-.784.776.406 1.242.179 1.029.368 1.524.406 2.902-1.114.301-.897.116-1.209 1.242h-.406v2.068c-.963.194-1.265.475-2.011.825v-1.242h-.406c-.595 2.32-.699.854-2.012 1.66v.416l-1.614 1.243c.132-.418.264-.825.406-1.242h-.406c-.246.66-.359.98-.407 2.067-1.52.33-2.256.805-4.428.825v-.825h-.803v.825h-2.012v.417h.406c-.254.592-.472.31-.802.825h-.803l.406-.825h-.406c-.396.563-.236.815-1.209.825 0 0-.283-.592-.802-.417-.132.272-.265.553-.406.825h-.803l-.406 2.485-1.615.417v-1.66h-.802c-.293 1.33-.548 1.505-2.012 1.66l.406-1.243h-.406c-.151.476-.113 1.476-.802 1.243l-.407-1.243c-.406.136-.802.272-1.208.418v.825c-.642-.253-.954-.369-2.012-.417v-1.243h-.406v1.243c.463.475.161 0 .406.824-.944.136-1.879.272-2.823.418v.825c-1.426.155-1.228.514-2.418.825v1.242c-.982-.233-.887-.437-1.615-.825v.825h-.406v1.242h.406v-.825h.803v.825c.671-.136 1.341-.271 2.011-.417v1.243h.803v-1.243c.671.136 1.341.272 2.012.417.188-.99.462-1.3.802-2.067 1.313.01 2.909-.184 3.627.417h.406c.132-.271.264-.553.406-.825h.802v-.417h.803v-.417l.803.417v-.417h4.032a60.108 60.108 0 0 0-.406-1.243h.803v-.417h.406v.417l1.208.418c.029.582.095.116-.406.417.454.437 0 .185.803.418v-.418h.406v-1.242h.406c.349-.573.302-.718.406-1.66.954-.048 1.02-.126 1.615-.417v.417h.406v.417l-.406.826h1.209v-.826c.944-.136 1.879-.271 2.823-.417v.417h.406c.454-.33-.151-.543.406-.417v.417h1.615v.826h.406c.133-.826.265-1.66.406-2.485h.803v.825h.406v-1.242c.925.038 1.048.349 1.615.417l.406-.825s1.105.388 1.615.417v-.825l.406.418c.538-.136 1.076-.272 1.615-.418v.418h2.011v-1.243h.803v.418h.406v-.418l.802.418.406-1.243c1.067-.407.841.903 1.615.825v-.417c1.766-.427 2.219-1.02 4.032-1.242v.417h-.406c-.764.359.803.417.803.417.34.466-.047.058.406.417v-.825l2.012-.417c.132-.272.264-.553.406-.825l.406.418c2.389.155 2.701-.864 4.032-1.66v1.242h.406c.463-.476 0-.165.803-.417v-.825c.406.136.802.272 1.208.417l.407-.825h1.614v-.417h.406c.246.99.133.767.803 1.242v-1.242c2.115-.35 1.785-.049 3.626.825.208-.97.586-1.553 1.209-2.067.463.475 0 .165.803.417v-.825h1.208v-.825c.671.136 1.341.272 2.012.417v.825h.803V16.58c.878.058 1.34.417 1.614.417v-.417l1.209-.417c.132.271.264.553.406.825 1.284.388 3.211-.864 4.032-1.243l-.406-1.242h1.209c.246.99.132.767.803 1.242.34.466-.047.058.406.418.028-1.088.16-1.408.406-2.068.803-.136 1.615-.272 2.417-.417.34.466-.047.058.406.417-.311.417-.491.408-.802.825h1.208l-.406-1.242.406-.418c.595.195.643.476 1.615.418v-.418h.406v.418a96.19 96.19 0 0 1 1.615.417v.417c1.643.641 2.389-.3 3.22.418 1.256.854.189.534.803 1.66l.803.417v.825h.406c.368.563.302.728.406 1.66l-1.615-.418c.321 1.34.746 1.427.803 3.31-.454.35-.057-.049-.406.417h-.406c-.123-1.242-.057-1.126-.803-1.66v.418h.406c-.265.553-.538 1.106-.803 1.66-1.048.019-1.388.087-2.011.417v.417c-.69.243-.699-.388-.803-.417-1.445-.378-2.361.524-2.823 1.242h-.407c-.132.825-.264 1.66-.406 2.485h-.802l-.406-.825c-.539.136-1.077.272-1.615.417.085.98.17 1.03.406 1.66-.935-.039-1.029-.33-1.615-.417l-.406.825c-.538.136-1.076.271-1.615.417-.292 1.145-.113.922-1.208 1.242-1.417 1.31-2.607-.524-2.824-.417v.417c-.67.418-1.341.825-2.011 1.243.217 1.446.396.766 0 2.067h.406v-.417h1.615v.825l1.208-.418v-.417l1.209.417V32.74c.406.136.803.272 1.209.417v-.417l-.406-.417h2.417c.132.417.264.825.406 1.242.265-.136.803-.825.803-.825.406.136.803.272 1.209.417v-.417c.595-.32.67-.31 1.614-.417v-.825h.803v-.825h1.615v.825c.906-.107 1.067-.04 1.615-.418v-.417h.802v-.418h.803v-.417c.718-.592.963-.931 2.011-1.242v1.242h1.615c.133-.689.265-1.378.406-2.067h.803c-.132.417-.265.825-.406 1.242h.406c.576-.592 2.247-1.058 3.22-1.242v-.825c.538-.136 1.077-.272 1.615-.417v-1.243h.803v1.243h.802v-1.243h2.012c-.132.418-.265.825-.406 1.243h.802c.416-.476.746-.796 1.615-.825v.417h.406l.406-.417c.378-.748.557-.65.803-1.66l1.209-.417v-.418l.406.418 1.208-.418v1.242h.803c.085-.98.17-1.028.406-1.66l.803.418v-.417c.576-.515.623-1.145 1.209-1.66.122.194.821 1.505 1.208 1.242l.406-1.242c1.747-.136 3.494-.272 5.241-.417v.417c-1.114.301-.897.117-1.208 1.242 1.001-.184 1.482-.378 2.823-.417v-.417h-.406v-2.068c.671.136 1.341.272 2.012.418.132-.418.264-.825.406-1.242.462.475.16 0 .406.824l1.208.418v-.418c.831-.465.728-.64 2.012-.825v-1.242c.859-.048 1.378-.427 1.615-.417l.406.417v-.825l2.011-.417v.825c.265-.136.538-.272.803-.418v-.417c.642-.078.5.718.802.825h1.615c.132-.689.265-1.378.406-2.067.671.136 1.341.271 2.012.417l.406-.825h.406v.418c.406-.136.802-.272 1.208-.418v-.825c.463.476.161 0 .407.825h.802c.189-.99.463-1.3.803-2.067 1.341.02 3.626.417 3.626.417v-.417h.803v-.418h1.209c.132-.271.264-.553.406-.825.406.136.802.272 1.208.418v.417h2.012v-.825l1.615-.417v.825h.802c.255 1.135.529.941.803 2.067h1.209c.292 1.145.113.922 1.208 1.243v.825c-2.408.504-2.086 1.66-2.823 3.726h2.418l.405-1.66c1.681-.261 1.143-.407 2.824-.824v.825c1.908-.825 1.624-.825 3.22 0v-.825c.538-.136 1.077-.272 1.615-.418v-.824h.803v.417h.406v-.417c.916-.185 1.086.213 1.614.417v-.417h-.406c-.746-.399.803-.418.803-.418v-.825h.803v-.825c1.265.243 1.794.67 3.22.825l.406-1.242s-.859-.068-.406-.417h.803v.417h2.417v-1.242c1.284.271.793.61 1.209.825.67-.069.746-.816.803-.825.774-.224.557.271.802.417h.406v-.418c.538.136 1.077.272 1.615.418.293-1.146.113-.922 1.209-1.243v.825h1.615c.377-.747.557-.65.802-1.66l1.209.418v-.417c.264-.136.538-.272.803-.418v.825h.802l-.406-1.242c.963-.194 1.266-.475 2.012-.825v1.66c2.096-.563 1.435-.913 4.032-.418V8.69h1.209v.417c-.17.243-.661.059-.406.825h.406c.651-2.562.859-.698 2.417-1.66.916-.562-.028-1.523 2.012-2.067v.418l1.208-.418v.825h.406v-.825c1.426.156 1.228.515 2.418.825v.825c.377.65 2.88.767 1.615 2.068h.802v1.66l-.802.417c-.019.136.377.922.406 1.66h.802c-.189.99-.462 1.3-.802 2.067-.718.039-1.454.437-1.615.417v-.417h-1.615v.417l-2.417.418v.824c-.539.272-1.077.554-1.615.825v-.417h-.406v1.242l-2.824.825c.463.476 0 .165.803.418v.417c.708.34 1.294-.243 1.615-.417v-.418h1.208v-.825c1.88-.097 2.295-.601 3.627-1.242v-.417h2.823v.417h-.406c-.463.476 0 .165-.802.417v.825c1.643-.485.425-.378 1.208-1.242l.803.417v-.417h.803v-.417h1.208c.425-.253 1.001-2.048 2.012-1.66v.418h.802V14.89c.407.136.803.272 1.209.417v-.417c.803-.136 1.615-.272 2.418-.417v.825h.802c.132.417.265.825.406 1.242h.407v-.825h.802c.236-1.543.236-.951 0-2.485.123.049 3.881.903 4.032.825v-.417h.406v-1.66h.407c.821.757 1.831.117 3.22 0v-.825c.812.233.349-.048.802.418 1.483-.437 1.105-.835 2.012-1.66v-.417c1.02-.65 3.182-.03 4.835 0 .255-1.136.528-.942.802-2.068 1.728-.068 1.379-.262 2.418-.825v1.243h1.615c.085-.98.17-1.03.406-1.66l1.208.417.407-.825h.802V5.36a64.08 64.08 0 0 0 1.209-.417l.406 1.242c1.02-.844.17-1 2.011-1.242v.417c-.462.378-.472.3-.802.825h.406v.417c.84-.456.717-.67 2.011-.825.34.466-.047.059.406.418-.472.786-.34.398-1.209.825v.417h.803c-.132.825-.264 1.66-.406 2.485h.406v.417h-.406v.825c.132.97.265 1.931.406 2.902h-.406c-.34.476-.208.582-.803.825v-.417h-.406c-.264.417-.538.825-.802 1.242H494.9l-.406.825c-.538.136-1.077.272-1.615.417-.132.418-.264.825-.406 1.243l-1.209.417-.406.825h-.406v-.417c-1.482-.36-1.945 1.407-2.823.417v.825h-.803c.132.553.264 1.107.406 1.66h-.406c-.453.708-.255.563-1.209.825-.037-.088-.576-1.505-.802-1.243v.418l-.803.417c-.132.417-.265.825-.406 1.242h-1.209c-1.35.68-.529 1.097-2.824 1.243.133.417.265.825.407 1.242a97.643 97.643 0 0 0 1.614-.417v1.242H482v-.417h1.615c1.228-.476 1.795-1.155 3.627-1.242v-.826c1.142-.262 1.067-.766 1.208-.825h1.615v.418l1.615-.418s.179.515.803.418v-.418l1.614.418v-.418c.463-.475.161 0 .406-.825h-.406v.418c-.349.786-.406-.825-.406-.825 1.473.136 2.956.272 4.429.417l.406-.825c.406-.126.737.64 1.615.418v-.418h2.011v.418h.406v-.418h1.615l.406-1.242h.406l-.406-.825h1.209c.463.475 0 .165.803.417v-.825c.963.194 1.265.476 2.011.825v-.417h-.406c-.746-.398.803-.418.803-.418v.418c.463.475.16 0 .406.825.859-.049 1.369-.418 1.615-.418v.418h.802c.114-.738.406-.825.406-.825a59.716 59.716 0 0 0-.406-1.242h.406v-.418c1.143.524 1.662 1.068 3.22 1.242v-.825c2.352-.553.227-1.048 2.418 0v-1.66h.406v.418c.538-.417 1.077-.825 1.615-1.242v1.66h.406c.198-.195-.113-.67.406-.418v.418h.406s-.113 1.485.406.825v-.418c.463-.476.161 0 .406-.825h-1.209c.312-1.242.246-1.087 1.615-1.242v.417l1.209-.417v.417h1.209v.418c1.038.223 2.209-1.291 2.823-1.66l1.209.417v-.417c.67-.447.67-.563 1.615-.825-.132.417-.265.825-.406 1.242h.406v.418c.406-.272.802-.554 1.209-.825v-.418h.802c.727-.33.878-.941 1.209-1.66l2.011 1.66c.246-.815.019-1.01.803-1.242.132.048.123.776.803.825.859-1.175.358-.835 1.614-.418.133-1.339.369-1.213.803-2.067 1.407.223.746.408 2.011 0v2.485h.407c.453-.709.254-.563 1.208-.825.756 1.3 1.492 1.174 1.615 3.31 1.105.048 2.918.572 3.22 0h.406v.417c1.115.272 2.38 1.155 2.824 2.067v1.242h.406c.557.767.935.961 1.209 2.068a59.474 59.474 0 0 1-1.209-.418v.418h.406v1.242h.406c.368.612.359 1.02.406 2.068-.463.475-.16 0-.406.825-1.341.135-2.682.271-4.032.417v-.825c-.539.136-1.077.272-1.615.417v-.825c-.264.136-.538.272-.803.418-.132-.272-.264-.554-.406-.825-.009 0-1.19.563-2.011 0l-.406-1.243c-.472-.34-.69 1.213-1.615.825v-.417c-.463-.476-.161 0-.406-.825l-1.209.417v-.417h-.406a64.2 64.2 0 0 1 .406-1.242s-.5-.127-.406-.825c0 0 .671-.185.406-.825h-.406c-.463.475 0 .165-.803.417-.132.417-.264.825-.406 1.242-.944-.116-1.001-.136-1.614-.417v-.417c-.68.048-.68.786-.803.825-.916.33-1.624-.515-2.011-.418v.418c-1.37.563-1.672 1.29-3.221 1.66.132-.418.265-.826.407-1.243h-.803c-.595 1.126-1.237 1.893-2.824 2.067v-1.242h-.406c-.311 1.242-.245 1.087-1.615 1.242v-.825c-1.68.942-1.907.845-4.032.418v-.825h-.406c-.028 1.601.066 1.708-1.209 2.067v.417c-.387.767-.406-.825-.406-.825h-.802c-.133.272-.265.553-.407.825-.67-.136-1.34-.271-2.011-.417v.825h-1.209v.417c-.462.476-.16 0-.406.825l-2.417.418v-.825l-4.032.417v.825h-1.209v.417c-.359.777-.406-.825-.406-.825-1.294.32-.869.622-2.418.825v1.243c-2.379-.253-2.2-1.466-4.835-1.66-.009 1.378-.208 1.873-.406 2.902h-.802c.122-.36.774-.912.406-1.66h-.406v.418c-.463.475-.161 0-.407.825l-2.417.417v.825c-1.35-.252-2.54-1.136-4.032-.417-.265.417-.539.825-.803 1.242-1.095.33-1.246-1.116-1.615-1.242-.727-.253-.292.465-.406.825a59.387 59.387 0 0 1-1.208-.418v1.66h-.803l-.406.825c-.661.204-.746-.408-.803-.417-.973-.175-1.048.417-1.615.417v-.417c-.802-.136-1.615-.272-2.417-.418v.825c-2.673.291-4.032.36-6.044 0l-.406 1.242c-.755-.203-1.926-.174-3.22-.417v-.417c.463-.476.161 0 .406-.825-.963.039-1.001.272-1.615.417v-.417c-.67-.447-.661-.592-1.615-.825v-.825h-.802a66.55 66.55 0 0 0-.406-1.242l-2.418-.418v-.825c.321.136 1.265.845 2.012.418v-.418c-1.19-.796-.982-1.65-.803-2.902.538-.271.548-.65.803-.825.264.136.538.272.802.418v-1.66h.406c-.132-.825-.264-1.66-.406-2.485a59.387 59.387 0 0 1-1.208-.417c.132.272.264.553.406.825l-1.209-.418v.826h-.406c-.132.271-.265.553-.406.825h-1.209c.094.96.444.252 0 1.242l-.803-.418v.825c-.434.728-.406-.825-.406-.825-.67.136-1.341.272-2.011.418 0 0-.189-.621-.803-.418-.132.272-.264.554-.406.825h-1.209c-.132.418-.264.825-.406 1.243-.623-.34-1.785-1.495-2.823-1.243-.133.272-.265.554-.406.825-.775-.077-.671-.805-.803-.825h-.406v.418h-2.011v.417h.802c-.132.825-.264 1.66-.406 2.485h-.803c-.368-.165-.264-1.262-1.614-.825l-.406.825h-2.012v-.418c-.585-.33-.68-.29-1.615-.417v1.242a59.392 59.392 0 0 1-1.208-.417v.418c-.463.475-.161 0-.406.825-1.502.436-1.086.854-2.012 1.66v.416h-1.209v-1.242h-.802v.825h-2.012v-.417h-.406c-.264.553-.538 1.106-.802 1.66l-.803-.418v.417l-1.209.826v-1.243h-.406v.417l-1.209-.417v.417c-.566-.029.161-.349-.406-.417l-2.417.417v1.243h-.406v-.417c-1.096-.602-1.974.582-2.418.824-.226-1.3-.396-1.737-1.614-2.067.226 1.01.425.912.802 1.66h-.802c-.643.611-2.371.456-3.627.417v-.825h-.802v.825c-.803-.136-1.615-.272-2.418-.417-.198-.98-.378-.98-.803-1.66.548-.485.397.31.803-.417-.529-.34-.472-.291-.803-.825h.803c.085-.98.17-1.029.406-1.66-1.142-.272-1.52-.767-2.011-1.66h1.209c.264-1.106.538-2.212.802-3.31-.529-.339-.472-.29-.802-.824-.86.505-.879.932-2.012 1.242v-.825h-.406v1.242c-1.568.136-1.813.67-2.823 1.243-.085-.98-.17-1.029-.406-1.66-.454.35-.057-.049-.407.417h-.406l.406.418-.406 1.242c-1.709-.3-1.936-.068-4.032 0l.406 1.242h-.406c-.33.544-.283.486-.803.826v-1.66c-2.049.116-1.775.737-4.032.825-.302 1.407-.859 1.912-2.417 2.067v-.825h-.406v.418c-.35.786-.407-.826-.407-.826a59.392 59.392 0 0 1-1.208-.417l.406.825h-.803c-.642.611-.991 1.427-1.209 2.485h-1.208v-.825c-2.588.097-3.239 1.514-5.241 2.067.255-1.136.528-.941.802-2.067-2.578.582-4.41 2.407-6.043-.418 1.813-1.087.859-1.543.406-3.31h-1.615c-.34-.465.047-.057-.406-.416.123-.36.774-.913.406-1.66h-.406v-.418h-1.209c-.68 1.146-1.728.835-2.417 1.66l-.406 1.242h-1.209v.418c-.406.136-.803.271-1.209.417v-.825c-1.256.282-1.832 1.242-2.823 1.66h-1.615v.417a59.474 59.474 0 0 1-1.209-.417v.825l-2.417.417v.417h-1.615c-.132.03-.104.573-.803.418v-.418h-.803v-.417l-2.823-.417c-.293.582-.727 1.252-1.209 1.66v-1.66h-.406v.825a61.658 61.658 0 0 1-1.209-.418c-.188.971-.67 1.282-.802 2.068h.406c.132.417.264.825.406 1.242-2.295.03-2.531-.437-4.032-.825-.595 1.126-1.237 1.893-2.824 2.067v-.825h-.803v1.66h-.802v.417h-2.824v.418h-.803v.417c-.264-.136-.538-.272-.802-.417v.417h-.406c-.595-.495.34-.3-.406-.825.047 1.31.783.777-.407 1.243v-.825c-2.266.281-1.303 1.028-2.417 1.66h-.803c-.132.417-.264.824-.406 1.242h-2.011v-.418c1.001-.757.519-.32.406-1.66h-.803v1.243c-3.503.01-4.117.718-7.252.825v-.825c-.538.272-1.077.553-1.615.825.132.553.265 1.106.406 1.66-1.048-.068-1.379-.088-2.011-.418v-.417l-1.209.417c-.066-.01-.142-.582-.803-.417v.417h-.802v.418h-.803v.417c-.557.379-.708.291-1.615.417v-1.242h-.406v.417h-2.011c-.274.126-.019.534-1.209.825-.132.418-.264.825-.406 1.243h.406c.595.504-1.464.407-1.615.417v-.417c-1.615-.272-3.22-.554-4.835-.825.217-1.155.312-.04 0-1.243-.434.233-.84 1.116-1.615.825v-.417h-.406l.406-.825h-.406c-.462-.476 0-.165-.802-.417a74.889 74.889 0 0 0-.406-1.243h.802a60.108 60.108 0 0 0-.406-1.242h.406v.417c.35.786.406-.825.406-.825h.406v-.417c-.264-.136-.538-.272-.802-.417.132-.418.264-.825.406-1.243h-.406v-.417h1.208v-.418c-.528-.34-.472-.29-.802-.825.689-.465.547-.261.802-1.242l1.615-.417c.047-.03.624-1.534.803-1.243v.825h1.209c.377-.747.557-.65.802-1.66-.547-.484-.613-.756-.802-1.659h.802v-.825h.803v-.417c-.803.136-1.615.272-2.418.417v-.417c-.528.029-1.01.708-2.011.417v-.417c-.802-.136-1.615-.272-2.417-.417v1.66h-.803v.824c-.406-.272-.803-.553-1.209-.825v-.825l-.406.417c-.463.476-.16 0-.406.826h-1.615v.825c-.802-.136-1.614-.272-2.417-.418-.132.69-.265 1.378-.406 2.067-.982.233-.888.427-1.615.825V33.1c-.415-.359-.557-.718-.803-1.242-.462.475-.16 0-.406.825-.802.136-1.615.271-2.417.417v.825c-.954.087-1.001.175-1.615.418v-.826h.406l-.406-1.242h-.406v.825c-.264-.136-.538-.272-.803-.417-.462.33-.16.98-1.209.825-.132-.272-.264-.553-.406-.825h-.405v.825l-1.209.417c-.208-.058-.246-1.048-.803-.825-.406.553-.803 1.107-1.209 1.66a58.858 58.858 0 0 1-1.209-.417v.824h-.802v.825c-.453-.349-.057.049-.406-.417-.435-.378-.076.068-.406-.417h.406v-.418h-1.209v.418h-.406v-.418h-1.209c-.132-.271-.264-.553-.406-.825-.264.136-.538.272-.802.418-.548.165.169.446-.407.417v-.417h-.802c-.01 1.28.113 2.135.406 2.902h-1.615v.825h-.406v-1.243h-.803l-.406 1.243c-.453-.35-.057.048-.406-.418h-.406l.406-1.242a59.47 59.47 0 0 0-1.209.417v.418h-.802c-.132.271-.265.553-.406.825h-1.615v.417h-.406c-.199-.184.113-.67-.406-.417l-.406.825-2.012.417v-.825h-.406l-.406.825h-.406l-.406-.825c-.557-.262-1.133-.204-1.615-.417-.028 1.601.066 1.708-1.208 2.067v-.825h-.803v.825h-2.012l-.802 2.067h-.803v-.417c-.132-.02-.925.369-1.615.417.227-1.009.425-.912.803-1.66h-.803l-.406 1.243-2.823-.417c-.425.213-.293.931 0 1.242h-.803c-.349.427-.699.573-1.209.825v-1.242c-1.803.155-1.171.262-2.823 0v.417c.463.476.16 0 .406.825h-2.012c-.104-.02-.132-.534-.802-.417v.417h-.803c-.132.417-.264.825-.406 1.242-.453-.35-.057.049-.406-.417-.453-.35-.057.049-.406-.417.529-.34.472-.292.803-.825h-1.615c-.359.436-.709.543-1.209.825v.417l-1.209-.417v.417c.529.34.472.291.803.825h-.803c-.472-.563-.736-.63-1.615-.825v.825c-.755-.291-1.577-.408-2.823-.417-.444-.864-.652-.738-.803-2.068h-.802v-.825c-.454.35-.057-.048-.407.418h-.406v.825l-.802.417v1.242h-.406c-.406-.553-.803-1.106-1.209-1.66h-.406c-.529-.921.217-1.154-.803-2.067.132-.553.265-1.106.406-1.66 0 0-.519-.203-.406-.824h.406V36.39s.246 0 .406-.825c1.115-.3.897-.116 1.209-1.242h.803v.417l1.208-.417v-.825l2.012.417c.293-1.145.113-.922 1.209-1.242v-1.66h.406l-.406-.825h.406c.34-.466-.048-.058.406-.417v-.417c.387-.767.406.825.406.825l1.208.417v-.417h-.406c.133-.418.265-.825.406-1.243h2.418v.418c.944-.136 1.879-.272 2.824-.418v-.825h1.614v-.825c-1.378-.019-2.785-.281-3.626-.417-.264.417-.538.825-.803 1.242l-2.417.418c.227-1.01.425-.913.803-1.66h-1.615v.417h.406c.463.65-.992.389-1.209.418v1.242h-.406v.417c-.67.136-1.341.272-2.011.418.132-.69.264-1.379.406-2.068-.982.233-.897.427-1.615.825v.418c-.803-.272-1.615-.553-2.417-.825v.417c-.463.476-.161 0-.406.825-.661.126-1.757.864-2.012.825v-.417h-1.209c-.557-.117.151-.544-.406-.418l-.406.825h-.803l.406-.825h-.406c-.462.476 0 .165-.802.418v.825c-.671.136-1.341.271-2.012.417-.075-.02-.132-.592-.802-.417v.417h-.803v.417c-.397-.087-.472-1.116-.803-.825-.661.563.444.796-1.208 1.243V33.1h-.406v-.825h-.406c-.133.272-.265.553-.407.825h-1.614c-.482-.902-.888-1.368-2.012-1.66v.418h-1.614l-.407.825-1.208-.418v1.243h-.803c-.992 1.737-.897.485-2.012 1.242.133.272.265.553.407.825-.803-.136-1.615-.272-2.418-.417-.038.01-.208.718-.803.825v-.418h-1.614l-.406-.417v.417c-1.143.757-1.181 1.194-3.22 1.243-.454-.709-.255-.563-1.209-.825v.825h-.803v-.418c-.51-.165-1.058 1.175-1.209 1.243-.831.378-1.152-.36-1.615-.418v.418c-.802.136-1.614.271-2.417.417l-.406-1.242c-1.114.3-.897.116-1.209 1.242a460.83 460.83 0 0 0-3.626.417l-.406.825h-2.824v.418c-1.048.32-1.879.038-2.823.417-.227-1.01-.425-.912-.803-1.66-.453.35-.057-.048-.406.418-1.416 1.029-.094 1.475-2.011 2.067v.417h-2.012l-.406.825c-.897.37-1.133-.514-1.615-.417v.417c-.802.165-.51-.184-.802-.417h-.406v.825a59.47 59.47 0 0 1-1.209-.417v-.418l-1.209.418v-.418h-1.615l-.406-.825c-.566 0-.189-.126-.406.418-.5-.476-.151 0-.406-.825h1.615v-.825h-1.615c-.378-.748-.557-.65-.802-1.66h.802c-.236-1.708-.434-1.98-1.209-3.727-.528.214.114.165-.406.417h-1.208v.418c.812.233.349-.049.802.417-1.152-.039-1.728-.078-2.417-.417v.417c.463.476.16 0 .406.825-1.974 0-2.295.476-3.626.825v-1.242h-.406v.417h-.406l-.803-.417v1.242h-1.209V36.4h-.406v.825h.406v1.242c-1.341-.01-1.822-.213-2.823-.417v.825c-.954-.049-1.02-.126-1.615-.417v.417c-.463.476-.161 0-.406.825-2.125-.243-.926-.893-2.824-.417v-.825c-.642-.097-.51.708-.802.825-1.511.582-2.758.233-4.033 0v1.242l-.802-.417v.417c-.812.709.038.63-.406 1.242h-.407c-.972-1.494-3.767-.252-5.637 0v1.243c-.756-.214-2.2-1.485-2.824-1.243v.418h-.406v1.242c-1.208.136-2.417.272-3.626.417v.825h.406c-.132.418-.264.825-.406 1.243-.954-.049-1.02-.127-1.615-.418v.418h-.406v-1.243h-.802v1.243h-.406v-.418h-1.615v.418l-.803-.418v.418c-.888.281-1.331.126-2.011.417v1.242c-2.012.31-1.993.37-3.627-.825l-.406 1.243h-1.614v.417c-.539.136-1.077.272-1.615.417v-.825h-.803c-.245 1.456-.434 1.903-2.011 2.068v-.418c.462-.475.16 0 .406-.825-.538-.136-1.077-.271-1.615-.417v-.417c-.765-.243-.557.233-.803.417l-1.208-.417v.417h.406v1.66h-.803v-.825c-1.105.66-.727 1.019-2.418 1.242-.292 1.145-.113.922-1.208 1.242-1.086 1.32-2.352 1-4.033.825v-.825h1.615a59.912 59.912 0 0 0-.406-1.242c-.614.243-.661.32-1.615.417-.066-1.125-.132-2.494-.802-2.902v-.417c.292-.437.311.36.802-.417h-.802c-.718-.437.802-.418.802-.418-.226-1.01-.425-.912-.802-1.66h1.208c.331.544.284.486.803.826-.982-2.174-1.483-4.184 2.011-4.145.463.476.001.165.803.418.132-.69.265-1.378.406-2.068h-.802v.825h-.803l.406-1.242h-.406c-.302.786.283.427-.406.825-.529-.485.481-.63-.406-.825v.825l-.803-.417v.417h.406c-.264.553-.538 1.106-.803 1.66h-.406V40.94h-.406v.418h-1.208c-.265.417-.539.825-.803 1.242h-.803v.417h-1.208v.418h-.803v.417c-1.624.592-2.843-.573-3.626 0-1.096.728-1.275 2.29-1.615 2.485h-3.626c-.463-.476 0-.165-.803-.418v-.825h-.406c.132.554.264 1.107.406 1.66h-.406c-.765.68-2.134.437-3.22.825v.417c-.595.194-1.577-.446-1.615-.417v.825h-2.011c-.406.97-.803 1.931-1.21 2.902h-.405v-1.242h-.803c-.085.98-.17 1.029-.406 1.66-.453-.35-.057.048-.406-.418-.463-.476-.16 0-.406-.825.69-.466.548-.262.802-1.242h-1.208v2.484a130.54 130.54 0 0 1-2.011-.417v-.417c.462-.476.16 0 .405-.825h-.802l.406-.825h-.406c-.463.475 0 .165-.803.417-.104.806-.397.806-.406.825-.642 2.038.359 2.65-2.011 2.902v-.825c-.558.204-.888.165-1.615.418v.417a59.453 59.453 0 0 1-1.209-.417v.417h-.803l.407.825h-2.418v.417c.463.476.16 0 .406.825-.652-.029-2.823-.417-2.823-.417-.133.272-.265.553-.407.825-1.095.611-1.284.106-2.011 0v.417h-.803l-.406.825c-.67.136-1.34.272-2.011.417v.418a98.738 98.738 0 0 1-1.615-.418c-.67.136-1.34.272-2.011.418v.417c-1.2.35-1.634-.66-2.418-.825v.418c-.462.475-.16 0-.406.825H55.6l-.406-.418c-.207.097-.113.738-.802.825v-.417l-1.21-.418v.418c-.405.136-.802.272-1.208.417v-.825c-.727.389-.633.573-1.615.825v.825h-.406V58.77c-2.266-.03-3.994-.99-4.835-2.485l.803-.417c.028-.583-.397.175-.406-.417.132-.69.264-1.379.406-2.068h.803c-.888-2.582.991-4.018 1.209-6.629a23.63 23.63 0 0 1 4.428-.417v-1.243h1.21c.273-1.213.443-1.358 1.614-1.66v-.824c2.351-.554.227-1.048 2.417 0v-.825c.898-.175 1.379-.398 2.012-.825v-.418c.802-.077.283.631.803 0 .462-.475.16 0 .406-.825h.802c.463-1.679.822-.825 1.615-2.067.803.272 1.615.553 2.417.825v-.417h.406v-1.66c-2.313.049-2.955.34-4.834 0-.227 1.3-.397 1.737-1.615 2.067v-.825h-.803v1.243c-.821.446-1.586 1.223-2.823 1.242l-.407-.417c-1.454 1.125.133 1.931-2.823 2.067l.406-1.66h-.803v.418h.406c.029.145-.689 1.494-.802 2.067h-.803v-.825h-.803v.825l-.406-.417c-.802.271-1.615.553-2.417.825-.132.271-.265.553-.406.825-.53.232.085-.31-.406-.418-.406.136-.803.272-1.209.418v-.418h-1.209V43H43.9v.417s-1.114-.378-1.615-.417c-.264.689-.538 1.378-.802 2.067-.35-.126-.888-.796-1.615-.417v.417h-.406v1.243h-.406v-1.243h-.406v1.66c.066.582.425-.175.406.417l-.406.418c-.7-.36-.142-.049-.406-.825h-.407v.825l-2.01.417.405-.825h-.406c-.623.718-.727.408-1.615.825v.417c-.595.233-1.539.107-1.614-.417h-.407v1.242h-.406v-.417h-.406v.825h-.802v.825c-1.02-.33-2.493-.03-4.43 0-.131.97-.264 1.931-.405 2.902h-.803v-.825c-.614.243-.66.32-1.615.417v1.243c-.802.272-1.615.553-2.417.825v.417h-.803v.417c-1.973.767-2.436-.64-3.626 1.243h-.406l.406.417c-.132.417-.264.825-.406 1.242-.538-.136-1.077-.271-1.615-.417v1.242c-1.426.156-1.228.515-2.417.825v-.825h-.407v1.243c-.802.136-1.614.271-2.417.417l-.406 1.242h-.803c-.132.418-.264.825-.406 1.243h-.406V62.48h-.406l-.406.824-1.209-.417v-.417c-.783-.204-.538.233-.802.417l-1.615-.417.406-.418v-.417h-.406v-1.242h.406v-.418h-.803c-.01-1.378-.208-1.873-.406-2.902H1.15c-.718-.437.802-.417.802-.417.132-.417.265-.825.406-1.242 2.078.097 1.993.786 2.012-1.66.67-.136 1.34-.272 2.011-.417v-1.66l1.209-.418c.463-.475 0-.164.802-.417v.825h.803v-.825c.406.136.803.272 1.209.417v-.824h-.406l.406-1.243h.406v-.417h1.209c-.01-.582.085-.117-.406-.418v-.417h1.208v-.417h.406l.406.825c1.341.272 2.682.553 4.033.825.038-1.553.368-1.902.802-2.902.406.136.803.272 1.21.417v-.825h1.208l-.406.825h.406v-.417h.803c.444-.36.179-1 .802-1.243.359.37.151.7.803.825.264-.417.538-.824.803-1.242h1.208v-.417h.407v-1.66h.802v.825c1.719-.165 1.823-.854 3.22-1.242.321-1.34.746-1.427.803-3.31h3.626v.417l1.209-.417v-.417c.604-.165.547.737.802.825l1.21-.418v.825h.405v-.825c.454-.349.057.049.406-.417l-.802.417v-1.66h.406v-1.659h2.011l-.406 1.242h1.209c.642-.805 1.464-1.106 2.011-2.067.416.36.557.718.803 1.242.406-.271.803-.553 1.209-.825v-.417h.802l.406-.825c.265.136.539.272.803.417.538-.417-.491-.699.406-.825v.418c.406.136.803.271 1.209.417v-.825c-.463-.476-.16 0-.406-.825 1.039.194 1.785.398 3.22.417.576-.883 1.058-.834 2.011-1.242l-.406-1.242h1.615v-.418h.406v.418h.803v-.825c2.285-.068 1.502-.64 2.823-1.243h1.615v-.417c.463-.476.16 0 .406-.825h1.21v.825h.802c.33-1.33.472-1.203 2.011-1.242v.825c.945-.447 1.313-.951 2.418-1.243V25.15h.802v-.825c2.125.01 3.183-.485 4.835-.825.293 1.145.114.922 1.209 1.242a62.857 62.857 0 0 0-.406-1.242h.406c.444-.582 1.407-1.213 2.011-1.66v-.417h1.21v.417h.405v1.243h.406c.132-1.65.416-1.912 2.012-2.068v.418c.538.194-.152-.262.406-.418 1.614-.271 3.22-.553 4.835-.825-.406-1.29-.227-.63 0-2.067.982-.233.887-.427 1.614-.825v.418h.406c.322.611-.406.825-.406.825l.406.824c.926-.795.51-1.242 2.012-1.66.132-.417.264-.824.406-1.242 1.152.486 1.898.787 3.626.825.406-.825.803-1.66 1.209-2.484h.803l.406.825 2.823-.825v-.418h2.824l.406-.825h.803c.255-1.135.528-.941.802-2.067.538.136 1.077.272 1.615.417v-.417c.444-.369.085.068.406-.417h-.406c-.397-.69.576-.35.803-.418v-.417c.406.136.802.272 1.208.417-.132.272-.264.554-.406.825h.406c1.266-1.494 2.371 0 4.033.418.274-.544.5-.447.802-.825l-.406-.825h.803v-.418l.803-.417c.056-.582-.085.068-.406-.417l.406-.825c1.359.29 1.548.902 2.823 1.242V8.175c1.105.262.916.543 2.012.825V7.757c.443.136.793.738 1.614.418v-.418h1.209V7.34c.803-.69 1.615-1.378 2.418-2.067v-.825h.802v.417c.557.116-.075-.087.406-.417l.803.417-.406 1.242c2.248.175 3.39.738 4.835-.825-.793-.466-.945-.582-1.209-1.66l1.209-.417c.132.272.264.554.406.825h.803V2.37c.878.175 1.152.272 1.614.826l2.418-.825-.406-.825h2.011V.72l.198.097Zm-4.022 6.211v.825h.406V7.03h-.406Zm358.985.825v.825h.406v-.825h-.406ZM133.468 9.097v.825h.407v-.825h-.407Zm-5.637.825v.825h.406v-.825h-.406Zm353.339 1.242c.462.476-.001.165.802.417-.463-.475 0-.165-.802-.417Zm-31.824.417c.462.476 0 .165.802.418-.462-.476 0-.165-.802-.418ZM109.7 12.824c.038 1.407 0 1.504.803 2.067v-.417h-.407v-1.66h-.406l.01.01Zm333.602.417c.463.476 0 .165.803.417-.463-.475 0-.165-.803-.417Zm-43.921.408v.825h.406v-.825h-.406Zm28.207.417-.406.825s1.171-.66.803-.825h-.406.009Zm41.494 0h.803c-.34.466.047.058-.406.417v.418c-.463-.476-.161 0-.406-.825l.009-.01Zm-356.568.417c.463.476 0 .165.803.418-.463-.476 0-.165-.803-.418Zm226.034.408v.825h.406v-.825h-.406Zm-221.596 1.66v.417h-.406c-.765.36.803.417.803.417.34-.466-.047-.058.406-.417-.463-.475 0-.165-.803-.417Zm309.428 0v.417h-.406c-.765.36.802.417.802.417.34-.466-.047-.058.406-.417-.462-.475 0-.165-.802-.417Zm103.139 0v.417h-.406c-.765.36.803.417.803.417.34-.466-.048-.058.406-.417-.463-.475 0-.165-.803-.417Zm-269.945.417v.825h.406v-.825h-.406Zm-99.513.408v.825h.406v-.825h-.406Zm103.139 0v.825h.406v-.825h-.406Zm74.536 0c.68.893.802.825.802.825.293-.398-.698-.728-.802-.825Zm103.148 0c.68.893.803.825.803.825.293-.398-.699-.728-.803-.825Zm28.604 0v.825h.406v-.825h-.406Zm74.536 0c.68.893.803.825.803.825.292-.398-.699-.728-.803-.825Zm-442.389.834h-.802v.418h.406v.417h.406v-.825l-.01-.01Zm5.241 2.485h.803c-.132-.553-.265-1.106-.406-1.66h-.406v1.66h.009Zm309.428 0h.802l-.406-1.66h-.406v1.66h.01Zm103.139 0h.803l-.406-1.66h-.407v1.66h.01Zm-416.996-.835v1.66h.406v-1.66h-.406Zm103.14 0v1.66h.406v-1.66h-.406Zm206.288 0v1.66h.406v-1.66h-.406Zm59.624.835v1.242h.407c.406-.747.887-1.232 1.614-1.66v-.417h-.802c-.454.709-.255.563-1.209.825l-.01.01Zm43.515-.835v1.66h.406v-1.66h-.406Zm-230.859.418v.825h.406v-.825h-.406Zm103.139.825h.803v-.418c-.454-.349-.057.049-.407-.417h-.406v.825l.01.01Zm-225.222-.408v1.242h.406v-1.242h-.406Zm103.139 0v1.242h.407v-1.242h-.407Zm176.476 1.65c.293 1.145.114.922 1.209 1.242.255-1.135.529-.941.803-2.067h-.406c-.51.786-.406.69-1.615.825h.009Zm3.626-.825v.825c1.058-.03 1.37-.165 2.012-.417v-.418h-2.012v.01Zm-212.728.418v1.242h.406v-.418c.453-.349.057.049.406-.417l-.803-.417-.009.01Zm103.139 0v1.242h.406v-.418c.454-.349.057.049.406-.417l-.802-.417-.01.01Zm103.14 0v1.242h.406v-.418c.453-.349.056.049.406-.417l-.803-.417-.009.01Zm103.148 0v1.242h.406v-.418c.454-.349.057.049.406-.417l-.802-.417-.01.01Zm-258.263.407v.825h.406v-.825h-.406Zm186.948 0c.68.893.802.825.802.825.293-.398-.698-.728-.802-.825Zm-213.135.835v1.242h-.802v.825l.802-.417.406-1.243c.454-.349.057.049.406-.417h-.802l-.01.01Zm16.923 0v.825h.406v-.825h-.406Zm103.139 0v.825h.406v-.825h-.406Zm63.26.825h-1.208v.825h.802c.378-.748.557-.65.803-1.66h-.406v.825l.009.01Zm39.879-.825v.825h.407v-.825h-.407Zm-256.639 1.65v-.825c-.454.35-.057-.049-.406.417h-.406c.462.476 0 .165.802.418l.01-.01Zm101.931-.825v1.242h.406c.462-.476-.001-.165.802-.417v-.825h-1.208Zm57.207.825v-.825h-1.209v.417h.406c.463.476 0 .165.803.418v-.01Zm47.141 0v-.825c-.454.35-.057-.049-.407.417h-.406c.463.476 0 .165.803.418l.01-.01Zm31.833-.825v.825c.453-.35.056.048.406-.418h.406c-.463-.475 0-.165-.803-.417l-.009.01Zm57.207.417v.825h.406v-.825h-.406Zm-266.716 1.65h.803c-.34-.466.047-.058-.406-.417v-.825h-.406v1.242h.009Zm-113.621-.825v.825h.406v-.825h-.406Zm103.149 0v1.242h.406v-1.242h-.406Zm206.279 0v.825h.406v-.825h-.406Zm78.568 0c.462.476.16 0 .405.825h-.405v-.825Zm24.58 0v.825h.406v-.825h-.406Zm-468.98.418v.824h.406v-.825H82.7Zm103.139 0v.824h.406v-.825h-.406Zm206.288 0v.824h.406v-.825h-.406Zm103.139 0v.824h.406v-.825h-.406Zm-284.44.407c.038.088.576 1.504.802 1.242v-.417h.407c-.35-.427-.699-.572-1.209-.825ZM314.77 28.15h.802v-.825h-.802l.406-.825a59.465 59.465 0 0 1-1.209-.417v.417c.548.485.614.757.803 1.66v-.01Zm-106.36-1.66.406 1.243h.406c-.245-.99-.132-.767-.802-1.243h-.01Zm103.14 0c.132.418.264.825.406 1.243h.406c-.246-.99-.133-.767-.803-1.243h-.009Zm7.658 0h-.803c.34.466-.047.059.406.418v.417h.407V26.5l-.01-.01Zm159.147 1.66h.803v-.825h.406c-.132-.272-.264-.553-.406-.825-.453.35-.057-.048-.406.418h-.406v1.242l.009-.01ZM141.93 26.907c.462.475 0 .165.802.417-.462-.476 0-.165-.802-.417Zm68.492 0v1.242h.406v-1.242h-.406Zm103.139 0v1.242h.406v-1.242h-.406Zm7.658 0h-.802c.34.466-.047.058.406.417v.417h.406v-.825l-.01-.01Zm46.735 0v1.242h.406v-1.242h-.406Zm103.149 0v1.242h.406v-1.242h-.406Zm-407.741.407v.826h.406v-.826h-.406Zm18.933 0v.826h.406v-.826h-.406Zm103.149 0v.826h.406v-.826h-.406Zm26.989.835v-.825c-.453.35-.057-.048-.406.417h-.406c.463.476 0 .165.803.418l.009-.01Zm76.15-.835v.826h.407v-.826h-.407Zm31.022 0V29.8h.406v-2.485h-.406Zm51.569 0v.826h.406v-.826h-.406Zm1.615 0v.826h.406v-.826h-.406Zm18.934 0v.826h.406v-.826h-.406Zm82.6 0v.826h.406v-.826h-.406Zm1.615 0v.826h.406v-.826h-.406Zm18.934 0v.826h.406v-.826h-.406Zm-422.643.418c.463.475 0 .165.802.417-.462-.475 0-.165-.802-.417Zm103.139 0c.463.475 0 .165.803.417-.463-.475 0-.165-.803-.417Zm309.428 0c.462.475 0 .165.802.417-.462-.475 0-.165-.802-.417Zm-280.824.825.406 1.242h.406c-.246-.99-.132-.767-.803-1.242h-.009Zm103.149 0c.132.417.264.825.406 1.242h.406c-.246-.99-.132-.767-.803-1.242h-.009Zm26.186.417v.825h.406v-.825h-.406ZM78.669 31.041c-.293-1.145-.113-.922-1.208-1.242.132.553.264 1.107.406 1.66h1.208v.417c.567.078-.15-.291.406-.417h1.615v-1.66c-.453-.35-.056.049-.406-.417h-.803v.417h.407c.132.748-1.002 1.087-1.615 1.242h-.01Zm52.382-1.65-.406.826s1.171-.66.803-.826h-.406.009Zm309.427 0-.406.826s1.171-.66.803-.826h-.406.009ZM62.153 31.46h.803v-.418c-.454-.349-.057.049-.406-.417h-.407v.825l.01.01Zm14.099-.825v.825c.453-.35.056.048.406-.418h.406c-.463-.475 0-.165-.803-.417l-.01.01Zm89.04.825h.803v-.418c-.453-.349-.057.049-.406-.417h-.406v.825l.009.01Zm14.109-.825v.825c.453-.35.056.048.406-.418h.406c-.463-.475 0-.165-.803-.417l-.009.01Zm103.139 0v.825c.453-.35.056.048.406-.418h.406c-.463-.475 0-.165-.803-.417l-.009.01Zm192.189.825h.803v-.418c-.454-.349-.057.049-.406-.417h-.406v.825l.009.01Zm14.099-.825v.825c.453-.35.057.048.406-.418h.406c-.463-.475 0-.165-.803-.417l-.009.01ZM69.812 33.118v-.825l-1.21.418.407 1.66h-.406v.417c-.945.136-1.88.272-2.824.417v.825c.529.078 2.503.505 2.824.417l.406-.824 1.209.417c.132-.69.264-1.378.406-2.067h.406c.462-.476 0-.165.802-.418v.825h2.012v-.825h.802c-.264-.825-.538-1.66-.802-2.485h-.406l-.407 1.243c-.576.417-2.322.747-3.22.825v-.02Zm45.525-2.077v1.243h.406v-1.242h-.406Zm-53.987.835v.825h.406v-.825h-.406Zm62.855 0v.825h.406v-.825h-.406Zm40.285 0v.825h.406v-.825h-.406Zm103.139 0v.825h.406v-.825h-.406Zm119.665 0c.463.476 0 .165.803.417-.463-.475 0-.164-.803-.417Zm46.338 0v.825h.406v-.825h-.406Zm40.285 0v.825h.406v-.825h-.406Zm-366.238.408c.463.475.161 0 .406.825h-.406v-.825Zm102.743.417c.453.709.255.563 1.208.825-.349-.427-.699-.573-1.208-.825Zm45.932.825h.802v-.417c-.453-.35-.056.048-.406-.418h-.406v.825l.01.01Zm-149.478-.408h.803v.418c-.812-.233-.349.048-.803-.418Zm112.413 0c.463.476.16 0 .406.825h-.406v-.825Zm108.38 1.65h-.802v-1.66h-.406v.418c-.463.476-.161 0-.406.825.406.272.802.553 1.208.825.34.466-.047.058.406.417v-.825Zm-112.006-1.242v.825h.406v-.825h-.406Zm-132.159.835v.825h.406v-.825h-.406Zm103.149 0v.825h.406v-.825h-.406Zm89.041.408c.462.475-.001.165.802.417-.463-.476 0-.165-.802-.417ZM132.656 36.01v-.825c-.453.35-.056-.049-.406.417h-.406c.463.476 0 .165.803.417l.009-.01Zm206.288 0v-.825c-.453.35-.056-.049-.406.417h-.406c.463.476 0 .165.803.417l.009-.01ZM96.8 36.845v.825h.406v-.825H96.8Zm8.065 0v.825h.406v-.825h-.406Zm-30.219.408v.825h.406v-.825h-.406Zm32.23.835c-.019 1.679-.189 1.786.803 2.484v-.417c-.68-.893.312-2 .803-2.902h-.406c-.454.709-.255.563-1.209.825l.009.01Zm7.253-.835c.462.476 0 .165.802.417-.462-.475 0-.165-.802-.417Zm20.945 0a66.55 66.55 0 0 1-.406 1.242h.406v-.417c.17-.242.661-.058.406-.825h-.406Zm42.712 0v.825h.406v-.825h-.406Zm135.378.835c-.019 1.679-.188 1.786.803 2.484v-.417c-.68-.893.312-2 .803-2.902h-.406c-.454.709-.255.563-1.209.825l.009.01Zm7.253-.835c.462.476 0 .165.802.417-.462-.475 0-.165-.802-.417Zm-180.102.417v.825h.406v-.825h-.406Zm45.129.825h.803v-.417c-.453-.35-.057.049-.406-.417h-.406v.825l.009.01Zm58.02-.825v.825h.406v-.825h-.406Zm35.856 0c.463.476.16 0 .406.825h-.406v-.825Zm-88.644.418c-.132.272-.265.553-.406.825l.802.417c.293-.495-.85-.359 0-1.242h-.406.01Zm-49.558.407-.406 1.243h.406v-.825h.406v-.418h-.406Zm103.148 0-.406.825s1.171-.66.803-.825h-.406.009Zm-211.529 1.66h.803v-.417c-.453-.35-.057.048-.406-.418h-.406v.825l.01.01Zm226.837 0h-.803c.34.466-.047.058.406.417v.418h.406v-.825l-.009-.01Zm-213.135.825v.825h.406v-.825h-.406Zm58.02 0v1.66h.406v-.418h.406c-.132-.271-.265-.553-.406-.825h.406c-.463-.475 0-.164-.803-.417h-.009Zm148.268 0v.825h.406v-.825h-.406Zm60.834 0c-.463.476 0 .165-.803.418v.417h.803c.132-.272.264-.553.406-.825h-.406v-.01ZM125.81 42.222l-.406.825s1.171-.66.803-.825h-.406.009Zm-15.307.835v.825h.406v-.825h-.406Zm8.867 0v.825h.406v-.825h-.406Zm-18.944.825h.803c-.33.544-.283.486-.803.825v.418h-.406l.406-1.243Zm14.109 0-.406.825s1.171-.66.802-.825h-.406.01Zm-31.03 1.66v.825h.405v-.825h-.406Zm-31.022 2.067v.825h.406v-.825h-.406Zm8.867.418v1.242h1.615v.825h1.209c.33-.544.283-.486.802-.825v-1.242c-1.68.3-1.69.106-3.626 0Zm-32.636.825c.463.475 0 .165.803.417-.463-.476 0-.165-.803-.417Zm83.403.417v.825h.406v-.825h-.406Zm-99.928 6.62c-.133.417-.265.824-.406 1.242h.406v-.825h.406v-.418h-.406Zm51.975.416v.826h.406v-.825h-.406Z" fill="#FDE6AD"/></svg>