<svg width="259" height="28" fill="none" xmlns="http://www.w3.org/2000/svg"><path fill-rule="evenodd" clip-rule="evenodd" d="M63.483.96c.896.18 1.028.637 2.07.712.15-.27.375-.674.94-.533v.18c.48.166.212-.18.565.178h.19v.711l.375.18v.353h.19c.061.179.123.353.19.532h-.755v.533c-.521.129-.42.05-.566.532-.657.15-.878.45-1.694.533.013.465.075.603.19.886-.645-.046-1.479-.142-1.505-.18v.354h.19c.595.004-.566.18-.566.18-.238-.28-.503-.433-.94-.533-.282.482-.653.757-1.32.886V6.11l-.375.179c-.11.27-.145.291-.19.711-.397.03-1.138.158-1.32.354-.229.25.169.195-.374.532v-.711h-.19v.711h-.565v-.353c-.287.104-.309.137-.755.179v-.354l-.565.179c-.123.303-.18.557-.19 1.065h-.94s-.19.283-.375.353v.18h-.19V8.78h-.375V8.6h-.19v.18h-.565v.178c-.326.275-.397.832-.565 1.244-.692-.062-1.24-.312-1.694.18a25.9 25.9 0 0 1-.19.532c-.503.058-1.007.116-1.505.178v.18l-.375.178v.354l-.565-.18-.19.354h-.565c-.03.017-.22.267-.375.354v.179c-.314-.059-.627-.117-.94-.18v-.178c-.11-.012-.645.3-.94.354-.128.337-.243 1.085-.376 1.418l-.565-.179v-.179c-.26-.045.075.13-.19.18-.45.082-.485-.134-.754-.18l-.375.533h-.755v.179l-.565.178v.533h.375v.179h-.19c-.101.083-1.51.449-1.505 0h-.19v.353l-.94-.179c.01.637-.044 1.12-.375 1.419v-.179h-.19v-.711h-.375c-.013.466-.075.603-.19.886-.392-.108-.767-.2-1.13.179v.353h-.19v.179l-1.13-.179c-.06.117-.123.237-.189.354-.252.058-.503.116-.755.179v.353h-.754v.354c-.45-.083-.592-.204-.94-.354v.886c-.442.058-.879.117-1.32.179v.179c-.552.12-.618.195-.755.711.265.013-.026-.029.19-.179.295-.203.176.437.19.533-.323.2-.256.112-.375.532.251-.058.503-.116.754-.179l.19-.353c.035-.004.441.166.755.179v-.354c.19.058.375.116.565.179l.19-.354c.229-.104.551-.095.754-.179v-.71c.446-.072 1.037-.338 1.695-.18v.18h.755v-.18h.375v-.711h.375v.354c.565-.117 1.13-.238 1.695-.354l.19.179c.516-.341.172-.607 1.13-.711.216.203 0 .07.375.178v-.532l.94-.179v-.353c.622.095.856.224 1.13 0h.19c.238-.275-.203-.358.19-.533v.179h.19v-.532c.414-.063.975-.233 1.504 0 .062.116.124.237.19.353h.375v-.353c.38.1.164-.021.376.178l.564-.178v-.18h.565c.124-.178.252-.353.376-.532.313.059.626.117.94.18v.178c.136.025.693-.158 1.32-.179l-.19-.532h.375v.179h.754l.19.178v-.178l.565-.18c-.013-.465-.075-.602-.19-.885h1.13c.217-.204 0-.071.375-.18.146-.531.115-.465.755-.531.212.303.12.24.565.353.19-.445.389-.928.755-.711h.19v.532h.375c.137-.49.053-.395.565-.532v-.18l1.13-.178s.084.258.375.179l.19-.354h.565v-.353l.375.179v.179c.247.087.04-.084.19-.18.472-.12.304-.09.565-.353h.19v-.354l.374-.178c.221-.225.318-.516.566-.712v.18h.564c.062.236.124.473.19.71h.19c.459-.723 1.055-.657 2.07-.886.057-.012.049-.245.375-.178v.178c.375.117.755.238 1.13.354v-.179h.19l-.19-.532c.124-.059.252-.117.375-.18.26-.37-.084-.249.375-.532v-.178l.94-.18c-.101.496-.145.017 0 .533h.19v-.353c.376.058.755.116 1.13.178v-.178c.203-.163.036.029.19-.18h-.19v-.178h.565c.04.42.08.44.19.711.216-.204.075 0 .19-.353.216-.204.075 0 .19-.354.564-.179 1.13-.354 1.694-.532l.19.178c.062-.574.172-.52.375-.886h.376v.18h.19v-.18h.754l.19-.532c.49.187.794.324 1.505.354-.062-.117-.124-.238-.19-.354.128-.195 1.06-.25 1.32-.532l-.19-.354h.19v-.179c.499.208.71.341 1.505.354v-.18h-.19v-.532c.596.117.38.27.565.354.22-.013.671-.358 1.13-.179l.19.354h.375c-.181.586-.177 1.044.19 1.597h-.19c-.216.204 0 .07-.375.179v.886h-.19c-.049.295.177.308.19.353v.886c-.675.025-1.068.254-1.505.354l-.376-.179c-.123.179-.251.354-.375.533-.106.041-1.028-.134-1.32-.18-.114.467-.533.94-1.13.887 0 0-.1-.225-.374-.18l.19.354h-.755a66.42 66.42 0 0 1-.19.886l-.94-.178-.19.353c-.508.12-.494-.341-.565-.354l-.565.18.19.178c.009.071-.168.4-.19.711-.627.059-1.254.117-1.885.18v-.354c-.445-.038-.467-.075-.754-.179v.532c-.04.075-1.294.895-.565 1.244h-.565v-.179c-.181-.328-.19.354-.19.354-.212.15-.026-.021-.19.179.53-.167.525-.188 1.13 0v.179l.565-.18-.19-.178.19-.533c.883.32 1.465.104 2.07-.353.062-.117.124-.237.19-.354h.94s-.018-.104.375-.179v.533h.19v-.354c.803-.012 1.249-.037 1.695-.353l.19-.354c.313.058.626.117.94.179-.217-.204 0-.07-.375-.179v-.353c.19.058.375.116.564.178v-.353h.376v.353c1.09-.083 1.871-.66 2.635-1.064v.532h.375v-.354h1.32v-.178h.564v-.18c.376.059.755.117 1.13.18.16-.2-.022-.025.19-.18v-.71c.375-.059.755-.117 1.13-.18-.062.18-.124.354-.19.533h.19v.179c.212-.15.026.02.19-.179.216-.204.075 0 .19-.354.295.013 1.32.18 1.32.18v-.18h.19v-.532c.207-.25.847-.183 1.319-.179v.179l1.13-.179v-.179h.375v-.179h.565l-.19.533h.19c.137-.491.053-.395.565-.533v.354c.19-.058.375-.117.565-.179v-.179c.441-.058.878-.116 1.32-.179V9.82h.564l.19-.353c.159-.058 1.24.187 1.505.353v-.353l.565-.179V9.11c.256-.075-.075.13.19.18.313.057.335-.171.375-.18.344-.066.728.233.94.354v-.18c.587-.502.044-.752 1.13-.885v.179h.565l-.19.353c.243.287.353-.195.565.533.247-.187.283-.362.565-.533v.533h.375a64.139 64.139 0 0 0-.19-1.065c.883-.283.636.137 1.13-.886h.19c-.022.378-.194.607-.19.711l.19.18c.345-.226.022-.242.19-.354.216-.15.12.162.19.178.19-.058.375-.116.565-.178v-.354c.424-.07.724-.291 1.32-.179 0 0 .008.233.375.179v-.179h.94v.179c-.45.108-.349.058-.565.354h.375c.543-.845 1.448-.55 2.45-.886l.189-.533c.539 0 .808.062 1.13.179v-.711h.19c.124.179.252.353.375.532h.19l-.19.354h.19v.179c.539.366.486-.317.755.532h.375v.354h.375a22.62 22.62 0 0 1-.19.532h.19c.128.266.133.295.19.711h.375v.354c.291.158.393.262.565.532.609-.312.358-.424 1.13-.179l-.19-.532h.375v-.354h.375v.18h.19v-.18l.565.18-.19.532h.376c.136-.491.053-.395.565-.533.282-.312.507-.337 1.13-.353v-.354c.375-.116.754-.237 1.129-.353.014.465.075.603.19.886.212-.15.027.02.19-.18h.19v-.532c.565.058 1.13.117 1.695.18v-.354h.375l.19-.533c.251.058.503.117.754.179.062-.117.124-.237.19-.354l.94.18v.353c.481-.275 1.298-1.102 1.885-.711h.375V7.7h.19v-.353c.905-.046.909-.125 1.695 0 .061-.296.123-.591.189-.886.87-.154 1.528-.154 2.071 0v-.354h1.129v.179h.565v.179c.19-.059.375-.117.565-.18v-.178c-.216-.204-.075 0-.189-.354.617.013.556.225.94 0l.189-.353 1.13.353v.354c.508 0 1.068.058 1.32-.179v-.353l.375.178v-.178c.375-.059.755-.117 1.13-.18.177.109-.066.254.19.18l.19-.354c.238 0 .481.316.94.179v-.18c.313-.058.627-.117.94-.179l-.19.533h.19c.419.428.353.25.94.178-.022.562-.366.333.19.533.084.44.172.653.19 1.244-.521.129-.42.05-.565.532h-.19v.886c-.45.083-.592.204-.94.354v-.533h-.19c-.278.994-.327.366-.94.711v.18l-.755.532a28.2 28.2 0 0 1 .19-.533h-.19c-.115.283-.168.42-.19.886-.71.142-1.055.345-2.07.354v-.354h-.375v.354h-.94v.179h.19c-.119.253-.221.133-.375.353h-.376l.19-.353h-.19c-.185.24-.11.35-.565.353 0 0-.132-.253-.375-.179-.061.117-.123.238-.19.354h-.375l-.189 1.065-.755.179v-.712h-.375c-.137.57-.256.645-.94.712l.189-.533h-.189c-.071.204-.053.632-.376.533l-.189-.533c-.19.058-.376.117-.565.18v.353c-.3-.108-.446-.158-.94-.18v-.532h-.19v.533c.216.204.075 0 .19.353-.442.059-.879.117-1.32.18v.353c-.667.066-.574.22-1.13.353v.533c-.459-.1-.415-.187-.755-.354v.354h-.19v.532h.19v-.353h.375v.353c.314-.058.627-.116.94-.179v.533h.376v-.533c.313.059.626.117.94.18.088-.425.216-.558.375-.887.613.004 1.359-.079 1.695.18h.19c.061-.117.123-.238.189-.354h.376v-.18h.375v-.178l.375.179v-.18h1.885a28.53 28.53 0 0 0-.19-.532h.375v-.178h.19v.178l.565.18c.013.249.044.05-.19.178.212.187 0 .08.375.179v-.179h.19v-.532h.19c.163-.246.141-.308.189-.712.446-.02.477-.054.755-.178v.178h.19v.18l-.19.353h.565v-.354c.441-.058.878-.116 1.32-.179v.18h.19c.211-.142-.071-.234.189-.18v.18h.755v.353h.19c.062-.354.123-.711.19-1.065h.375v.354h.19v-.533c.432.017.49.15.754.179l.19-.354s.517.167.755.18v-.354l.19.179c.251-.059.503-.117.754-.18v.18h.941v-.533h.375v.179h.189v-.179l.376.179.189-.532c.499-.175.393.386.755.353v-.179c.826-.183 1.037-.437 1.885-.532v.179h-.19c-.357.154.375.179.375.179.159.2-.022.025.19.178v-.353l.94-.179c.062-.116.124-.237.19-.354l.19.18c1.116.066 1.262-.37 1.884-.712v.532h.19c.216-.203 0-.07.375-.178V9.13c.19.058.375.116.565.179l.19-.354h.755v-.179h.19c.114.425.061.329.375.533v-.533c.988-.15.834-.02 1.695.354.097-.416.273-.666.565-.886.216.204 0 .07.375.179v-.354h.565v-.353c.313.058.626.116.94.179v.353h.375v-.532c.41.025.627.179.755.179v-.18l.565-.178c.061.116.123.237.189.353.601.167 1.501-.37 1.885-.532l-.19-.532h.565c.115.424.062.328.375.532.159.2-.022.025.19.179.014-.466.075-.603.19-.886.375-.058.755-.117 1.13-.179.159.2-.022.025.19.179-.146.179-.23.175-.375.353h.564l-.189-.532.189-.179c.279.083.301.204.755.179v-.179h.19v.179c.252.058.503.116.755.179v.179c.768.274 1.116-.13 1.505.179.587.366.088.228.375.71l.375.18v.353h.19c.172.242.141.312.19.712l-.755-.18c.15.575.349.612.375 1.42-.212.149-.026-.022-.19.178h-.189c-.058-.532-.027-.482-.376-.711v.179h.19c-.123.237-.251.474-.375.71-.49.01-.649.038-.94.18v.179c-.322.104-.327-.167-.375-.18-.676-.161-1.104.225-1.32.533h-.19c-.062.354-.123.711-.19 1.065h-.375l-.189-.354c-.252.059-.504.117-.755.18.039.42.079.44.19.71-.437-.016-.482-.14-.755-.178l-.19.353c-.252.059-.503.117-.755.18-.136.49-.053.394-.565.532-.662.561-1.218-.225-1.319-.18v.18c-.314.178-.627.353-.941.532.102.62.186.329 0 .886h.19V15h.755v.354l.565-.18v-.178l.565.179v-.532c.19.058.375.116.565.178v-.178l-.19-.18h1.13c.062.18.124.354.19.533.123-.058.375-.353.375-.353.19.058.375.116.565.178v-.178c.278-.138.313-.134.755-.18v-.353h.375v-.354h.755v.354c.423-.046.498-.017.754-.179v-.179h.375v-.179h.376v-.178c.335-.254.45-.4.94-.533v.533h.755c.061-.296.123-.591.189-.886h.375c-.061.179-.123.353-.189.532h.189c.27-.254 1.051-.453 1.506-.532v-.354c.251-.058.503-.116.754-.179v-.532h.376v.532h.375v-.532h.94a28.24 28.24 0 0 1-.19.532h.375c.194-.204.349-.34.755-.353v.178h.19l.189-.178c.177-.32.261-.28.376-.712l.565-.178v-.18l.189.18.565-.18v.533h.375c.04-.42.08-.44.19-.711l.375.179v-.18c.27-.22.292-.49.565-.71.058.083.384.644.565.532l.19-.533c.817-.058 1.633-.116 2.45-.178v.178c-.521.13-.42.05-.565.533.468-.08.693-.162 1.319-.179v-.179h-.189v-.886c.313.058.626.117.94.179.062-.179.123-.354.19-.532.216.203.075 0 .189.353l.565.179v-.179c.389-.2.34-.274.94-.353v-.533c.402-.02.645-.183.755-.179l.19.18v-.354l.94-.18v.354c.124-.058.252-.116.375-.179V7.53c.3-.034.234.307.375.353h.755c.062-.295.124-.59.19-.886.313.058.627.117.94.179l.19-.354h.19v.18c.189-.059.375-.117.565-.18v-.353c.216.204.075 0 .189.353h.376c.088-.424.216-.557.375-.886.626.009 1.695.18 1.695.18v-.18h.375v-.178h.565c.061-.117.123-.238.189-.354.19.058.376.116.565.179v.179h.941v-.354l.754-.179v.354h.375c.12.487.248.403.376.886h.565c.136.49.053.395.565.532v.354c-1.126.216-.976.711-1.32 1.597h1.13l.19-.711c.785-.112.534-.175 1.319-.354v.354c.892-.354.759-.354 1.505 0v-.354c.252-.058.503-.116.755-.179v-.353h.375v.179h.19v-.18c.428-.078.508.092.755.18v-.18h-.19c-.349-.17.375-.178.375-.178v-.354h.375v-.353c.592.104.839.287 1.505.353l.19-.532s-.401-.03-.19-.179h.375v.179h1.13v-.532c.601.116.371.262.565.353.314-.029.349-.35.376-.353.362-.096.26.116.375.178h.189v-.178c.252.058.504.116.755.178.137-.49.053-.395.565-.532v.354h.755c.177-.32.26-.28.375-.712l.565.18v-.18c.124-.058.252-.116.375-.179v.354h.375l-.189-.532c.45-.084.591-.204.94-.354v.711c.979-.241.671-.39 1.884-.179v-.532h.565v.179c-.079.104-.309.025-.189.353h.189c.305-1.098.402-.3 1.13-.71.428-.242-.013-.654.94-.887v.179l.565-.179v.354h.19V3.27c.667.067.574.22 1.13.354v.353c.176.279 1.346.329.755.886h.375v.712l-.375.178c-.009.059.176.396.19.712h.375c-.089.424-.217.557-.375.886-.336.016-.68.187-.755.179v-.18h-.755v.18l-1.13.178v.354c-.251.116-.503.237-.755.354v-.18h-.189v.533l-1.32.354c.216.204 0 .07.375.179v.178c.331.146.605-.104.755-.178v-.18h.565v-.353c.878-.041 1.072-.258 1.695-.532v-.18h1.319v.18h-.19c-.216.204.001.07-.375.179v.353c.768-.208.199-.162.565-.532l.375.179v-.18h.376v-.178h.565c.198-.108.467-.878.94-.711v.178h.375v-.532c.19.058.375.116.565.179v-.179c.375-.058.755-.117 1.13-.179v.354h.375c.062.179.123.353.19.532h.19v-.353h.375c.11-.662.11-.408 0-1.065.057.02 1.814.387 1.884.353v-.179h.19v-.71h.19c.384.324.856.049 1.505 0V5.39c.38.1.163-.021.375.178.693-.187.516-.357.94-.71v-.18c.477-.278 1.488-.012 2.26 0 .119-.486.247-.403.375-.886.808-.029.645-.112 1.13-.353v.532h.755c.04-.42.079-.44.19-.711l.565.179.189-.354h.376v-.179c.189-.058.375-.116.565-.179l.189.533c.477-.362.08-.429.94-.533v.18c-.216.161-.22.128-.375.353h.19v.179c.393-.196.335-.287.94-.354.159.2-.022.025.19.179-.221.337-.159.17-.565.354v.178h.375c-.062.354-.123.712-.19 1.065h.19v.18h-.19v.353c.062.416.124.827.19 1.243h-.19c-.158.204-.097.25-.375.354v-.179h-.19c-.123.179-.251.354-.375.533h-.565l-.189.353c-.252.058-.504.117-.755.179-.062.179-.124.354-.19.532l-.565.18-.19.353h-.19v-.179c-.693-.154-.909.603-1.319.179v.353h-.375c.061.238.123.475.189.712h-.189c-.212.303-.12.24-.565.353-.018-.037-.27-.645-.376-.532v.179l-.375.179a24.33 24.33 0 0 1-.19.532h-.564c-.632.291-.248.47-1.32.532.062.18.123.354.19.533.251-.058.503-.117.754-.179v.532h.19v-.178h.755c.574-.204.839-.495 1.695-.533v-.354c.534-.112.499-.328.565-.353h.754v.179l.755-.179s.084.22.375.179v-.179l.755.179v-.179c.216-.204.075 0 .19-.354h-.19v.18c-.163.336-.19-.354-.19-.354.689.058 1.382.116 2.07.179l.19-.354c.19-.054.344.274.755.179v-.179h.94v.179h.19v-.179h.755l.189-.532h.19l-.19-.354h.565c.217.204 0 .07.375.179v-.354c.451.083.592.204.941.354V9.13h-.19c-.349-.17.375-.179.375-.179v.179c.216.204.075 0 .19.354.401-.021.64-.18.754-.18v.18h.376c.053-.317.189-.354.189-.354a22.583 22.583 0 0 0-.189-.532h.189v-.18c.534.225.777.458 1.505.533v-.353c1.099-.238.106-.45 1.13 0v-.712h.19v.18c.252-.18.503-.354.755-.533v.711h.19c.092-.083-.053-.287.19-.179v.179h.189s-.053.636.19.354v-.18c.216-.203.075 0 .19-.353h-.565c.146-.532.115-.466.755-.532v.179l.565-.18v.18h.565v.178c.485.096 1.032-.553 1.319-.71l.565.178v-.179c.314-.191.314-.241.755-.353a28.28 28.28 0 0 1-.19.532h.19v.179c.19-.117.375-.237.565-.354v-.179h.375c.34-.141.411-.403.565-.71l.94.71c.115-.349.009-.432.375-.532.062.02.058.333.375.354.402-.504.168-.358.755-.18.062-.573.172-.52.375-.885.658.095.349.174.94 0v1.065h.19c.212-.304.119-.242.565-.354.353.557.698.503.755 1.418.516.021 1.364.246 1.505 0h.19v.18c.521.116 1.112.494 1.32.885v.533h.189c.261.328.437.412.565.886a29.24 29.24 0 0 1-.565-.18v.18h.19v.532h.19c.172.262.168.437.19.886-.217.204-.075 0-.19.354-.627.058-1.254.116-1.885.179v-.354c-.251.058-.503.117-.754.179v-.354c-.124.059-.252.117-.376.18-.061-.117-.123-.238-.189-.354-.005 0-.557.24-.941 0l-.189-.533c-.221-.145-.323.52-.755.354v-.18c-.216-.203-.075 0-.19-.353l-.565.18v-.18h-.19c.062-.179.124-.353.19-.532 0 0-.234-.054-.19-.354 0 0 .314-.079.19-.353h-.19c-.216.204 0 .07-.375.179a24.33 24.33 0 0 1-.19.532c-.441-.05-.467-.058-.754-.179v-.179c-.318.021-.318.337-.375.354-.429.141-.76-.22-.941-.179v.179c-.64.241-.781.553-1.505.711.062-.179.124-.353.19-.532h-.375c-.278.482-.578.81-1.32.886v-.533h-.189c-.146.533-.115.466-.755.533v-.354c-.786.404-.892.362-1.885.18v-.354h-.19c-.013.686.031.732-.565.886v.178c-.181.329-.189-.353-.189-.353h-.376c-.061.116-.123.237-.189.353a72.413 72.413 0 0 1-.94-.178v.353h-.565v.179c-.217.204-.075 0-.19.354l-1.13.178v-.353l-1.885.179v.353h-.565v.18c-.167.332-.19-.354-.19-.354-.604.137-.406.266-1.129.353v.532c-1.113-.108-1.029-.628-2.26-.71-.005.59-.097.802-.19 1.243h-.375c.057-.154.362-.391.19-.711h-.19v.178c-.216.204-.075 0-.19.354l-1.13.179v.354c-.631-.109-1.187-.487-1.885-.18-.123.18-.251.354-.375.533-.512.142-.582-.478-.754-.532-.34-.108-.137.2-.19.353-.19-.058-.375-.116-.565-.179v.712h-.375l-.19.353c-.309.088-.349-.175-.375-.179-.455-.075-.49.18-.755.18v-.18c-.375-.058-.755-.116-1.13-.179v.354c-1.249.125-1.885.154-2.825 0l-.19.532c-.353-.087-.9-.074-1.505-.178v-.18c.217-.203.075 0 .19-.353-.45.017-.468.117-.755.179v-.179c-.313-.191-.309-.254-.754-.353v-.354h-.375a28.275 28.275 0 0 0-.19-.532l-1.13-.18v-.353c.15.058.591.362.94.179v-.179c-.556-.34-.459-.707-.375-1.243.251-.117.256-.28.375-.354.124.058.252.116.375.179v-.712h.19c-.062-.353-.124-.71-.19-1.064-.19-.059-.375-.117-.565-.18.062.117.124.238.19.354l-.565-.179v.354h-.19c-.062.117-.123.237-.19.354h-.565c.045.411.208.108 0 .532l-.375-.179v.354c-.203.312-.189-.354-.189-.354a75.93 75.93 0 0 0-.941.179s-.088-.266-.375-.179c-.062.117-.123.237-.19.354h-.564a28.24 28.24 0 0 1-.19.532c-.292-.145-.835-.64-1.32-.532-.062.116-.124.237-.19.353-.362-.033-.313-.345-.375-.353h-.19v.179h-.94v.178h.375c-.062.354-.123.712-.189 1.065h-.376c-.172-.07-.123-.54-.754-.353l-.19.353h-.94v-.179c-.274-.141-.318-.124-.755-.178v.532a29.24 29.24 0 0 1-.565-.179v.179c-.216.204-.075 0-.19.354-.702.187-.507.366-.94.71v.18h-.565v-.533h-.375v.354h-.94v-.179h-.19c-.123.237-.251.474-.375.711l-.375-.179v.18l-.565.353v-.533h-.19v.18l-.565-.18v.18c-.265-.013.075-.15-.19-.18l-1.13.18v.532h-.189v-.18c-.512-.257-.923.25-1.13.354-.106-.557-.186-.744-.755-.886.106.433.199.391.375.712h-.375c-.3.262-1.108.195-1.695.179v-.354h-.375v.354c-.375-.059-.755-.117-1.13-.18-.093-.42-.177-.42-.375-.71.256-.209.185.133.375-.18-.247-.145-.221-.124-.375-.353h.375c.04-.42.079-.44.19-.711-.534-.117-.711-.329-.94-.712h.565c.123-.474.251-.948.375-1.418-.247-.146-.221-.125-.375-.354-.402.217-.411.4-.941.533v-.354h-.189v.533c-.733.058-.848.287-1.32.532-.04-.42-.079-.44-.19-.711-.212.15-.026-.021-.19.179h-.189l.189.179-.189.532c-.799-.129-.905-.03-1.885 0l.19.532h-.19c-.155.233-.132.208-.375.354v-.711c-.958.05-.83.316-1.885.353-.141.603-.401.82-1.13.886v-.353h-.189v.179c-.164.337-.19-.354-.19-.354a27.19 27.19 0 0 1-.565-.179l.19.354h-.376c-.3.262-.463.611-.565 1.065h-.565v-.354c-1.209.042-1.513.649-2.449.886.119-.487.247-.404.375-.886-1.205.25-2.061 1.032-2.825-.179.848-.466.402-.661.19-1.418h-.755c-.159-.2.022-.025-.189-.18.057-.153.361-.39.189-.71h-.189v-.18h-.565c-.318.492-.808.358-1.13.712l-.19.532h-.565v.18c-.19.058-.375.116-.565.178v-.353c-.587.12-.856.532-1.32.71h-.754v.18a27.19 27.19 0 0 1-.565-.18v.354l-1.13.18v.178h-.755c-.062.013-.049.246-.375.179v-.179h-.375v-.179l-1.32-.179c-.137.25-.34.537-.565.712v-.712h-.19v.354c-.19-.058-.375-.117-.565-.179-.088.416-.313.55-.375.886h.19c.062.179.123.354.19.533-1.073.012-1.183-.188-1.885-.354-.278.482-.578.811-1.32.886v-.354h-.375v.712h-.375v.179h-1.32v.178h-.375v.18c-.123-.059-.252-.117-.375-.18v.18h-.19c-.278-.213.159-.13-.19-.354.022.561.367.332-.19.532v-.353c-1.059.12-.609.44-1.129.71h-.376a22.42 22.42 0 0 1-.189.533h-.94v-.179c.467-.324.242-.137.189-.71h-.375v.532c-1.637.004-1.924.307-3.389.353v-.353c-.252.116-.504.237-.755.353.061.237.123.474.19.711-.49-.029-.645-.037-.941-.178v-.18l-.565.18c-.031-.005-.066-.25-.375-.18v.18h-.375v.178h-.375v.18c-.26.162-.331.124-.755.178v-.532h-.19v.179h-.94c-.128.054-.009.228-.565.353-.061.179-.123.354-.189.533h.189c.278.216-.684.174-.754.178v-.178c-.755-.117-1.505-.238-2.26-.354.101-.495.145-.017 0-.532-.203.1-.393.478-.755.353v-.179h-.19l.19-.353h-.19c-.216-.204 0-.071-.375-.18a22.627 22.627 0 0 0-.19-.532h.375a22.741 22.741 0 0 0-.189-.532h.189v.179c.164.337.19-.354.19-.354h.19v-.179c-.124-.058-.252-.116-.375-.178.062-.18.124-.354.19-.533h-.19v-.179h.565v-.179c-.247-.145-.221-.124-.375-.353.322-.2.256-.112.375-.533l.755-.178c.022-.013.291-.658.375-.533v.354h.565c.176-.32.26-.279.375-.712-.256-.208-.287-.324-.375-.71h.375v-.354h.375v-.18c-.375.059-.755.117-1.13.18v-.18c-.247.013-.472.304-.94.18v-.18c-.375-.058-.755-.116-1.13-.178v.711h-.375v.354c-.19-.117-.375-.237-.565-.354v-.353l-.19.178c-.216.204-.075 0-.19.354h-.754v.354c-.376-.059-.755-.117-1.13-.18-.062.296-.124.591-.19.887-.459.1-.415.183-.755.353v-.179c-.194-.153-.26-.307-.375-.532-.216.204-.075 0-.19.354-.375.058-.754.116-1.13.178v.354c-.445.037-.467.075-.754.179v-.354h.189l-.189-.532h-.19v.353c-.124-.058-.252-.116-.375-.178-.217.14-.075.42-.565.353-.062-.116-.124-.237-.19-.354h-.19v.354l-.565.179c-.097-.025-.115-.45-.375-.354-.19.238-.375.475-.565.712-.19-.059-.375-.117-.565-.18v.354h-.375v.354c-.212-.15-.027.02-.19-.179-.203-.162-.035.03-.19-.179h.19v-.179h-.565v.18h-.19v-.18h-.565c-.061-.116-.123-.237-.189-.353-.124.058-.252.116-.375.179-.256.07.079.191-.19.178v-.178h-.375c-.005.549.053.915.189 1.243h-.754v.354h-.19v-.532h-.375l-.19.532c-.212-.15-.027.02-.19-.179h-.19l.19-.532c-.19.058-.375.116-.565.178v.18h-.375c-.062.116-.124.236-.19.353h-.755v.179h-.189c-.093-.08.053-.287-.19-.179l-.19.354-.94.178V17.1h-.19l-.19.353h-.189l-.19-.353c-.261-.113-.53-.088-.755-.179-.013.686.031.732-.565.886v-.354h-.375v.354h-.94l-.375.886h-.376v-.179c-.061-.008-.432.158-.754.179.106-.433.198-.391.375-.711h-.375l-.19.532-1.32-.179c-.198.092-.137.4 0 .533h-.375c-.163.183-.327.245-.565.353v-.532c-.843.066-.547.112-1.32 0v.179c.217.203.075 0 .19.353h-.94c-.049-.008-.062-.229-.375-.179v.18h-.375c-.062.178-.124.353-.19.532-.212-.15-.026.02-.19-.18-.212-.149-.026.022-.19-.178.248-.146.221-.125.376-.354h-.755c-.168.188-.331.233-.565.354v.179l-.565-.18v.18c.247.145.221.125.375.353h-.375c-.221-.24-.344-.27-.755-.353v.353c-.353-.124-.737-.174-1.32-.178-.207-.37-.304-.317-.375-.887h-.375v-.353c-.212.15-.026-.02-.19.179h-.189v.353l-.376.18v.532h-.189l-.565-.712h-.19c-.247-.395.101-.495-.375-.886.061-.237.123-.474.19-.71 0 0-.243-.088-.19-.355h.19v-.886s.114 0 .189-.353c.521-.129.42-.05.565-.533h.375v.18l.565-.18v-.353l.94.179c.137-.491.053-.395.565-.533v-.71h.19l-.19-.354h.19c.159-.2-.022-.025.19-.18v-.178c.181-.329.19.353.19.353l.565.18v-.18h-.19c.062-.178.123-.353.19-.532h1.13v.179c.441-.058.878-.117 1.319-.18v-.353h.755v-.353c-.644-.008-1.302-.12-1.695-.18-.123.18-.251.354-.375.533l-1.13.18c.106-.433.199-.392.375-.712h-.754v.179h.189c.217.278-.463.166-.565.179v.532h-.189v.179a59.86 59.86 0 0 0-.94.179c.061-.295.123-.59.189-.886-.459.1-.419.183-.754.353v.18c-.376-.117-.755-.238-1.13-.354v.178c-.217.204-.075 0-.19.354-.309.054-.821.37-.94.354v-.18h-.565c-.261-.05.07-.232-.19-.178l-.19.353h-.375l.19-.353h-.19c-.216.204 0 .07-.375.179v.353c-.314.059-.627.117-.94.18-.036-.01-.062-.255-.375-.18v.18h-.376v.178c-.185-.037-.22-.478-.375-.354-.309.242.208.342-.565.533v.532h-.189v-.353h-.19c-.062.116-.124.237-.19.353h-.755c-.225-.386-.415-.586-.94-.71v.178h-.755l-.189.354-.565-.18v.533h-.376c-.463.745-.419.208-.94.532.062.117.124.238.19.354-.375-.058-.755-.116-1.13-.179-.017.004-.097.308-.375.354v-.18h-.755l-.19-.178v.179c-.534.324-.551.512-1.505.532-.211-.303-.119-.24-.564-.353v.353h-.376v-.178c-.238-.071-.494.503-.565.532-.388.162-.538-.154-.754-.179v.179c-.376.058-.755.116-1.13.179l-.19-.533c-.52.13-.42.05-.565.533-.565.058-1.13.116-1.695.179l-.19.353h-1.32v.18c-.49.136-.878.016-1.32.178-.105-.433-.198-.391-.374-.711-.212.15-.027-.021-.19.178-.662.441-.044.633-.94.886v.18h-.94l-.19.353c-.42.158-.53-.22-.755-.179v.179c-.375.07-.238-.08-.375-.179h-.19v.354c-.19-.059-.375-.117-.565-.18v-.178l-.565.179v-.18h-.754l-.19-.353c-.265 0-.088-.054-.19.18-.234-.205-.07 0-.19-.354h.755v-.354h-.755c-.176-.32-.26-.279-.375-.711h.375c-.11-.732-.203-.849-.565-1.598-.247.092.053.071-.19.18h-.565v.178c.38.1.164-.02.376.18-.539-.018-.808-.034-1.13-.18v.18c.216.203.075 0 .19.353-.923 0-1.073.203-1.695.353v-.532h-.19v.179h-.19l-.375-.18v.533h-.565v-.353h-.19v.353h.19v.533c-.627-.005-.852-.092-1.32-.18v.354c-.445-.02-.476-.054-.755-.178v.178c-.216.204-.075 0-.19.354-.992-.104-.432-.383-1.319-.179v-.354c-.3-.041-.238.304-.375.354-.706.25-1.289.1-1.885 0v.532l-.375-.178v.178c-.38.304.018.27-.19.533h-.19c-.454-.64-1.76-.108-2.634 0v.532c-.354-.091-1.029-.636-1.32-.532v.179h-.19v.532c-.565.058-1.13.117-1.695.18v.353h.19c-.062.178-.124.353-.19.532-.446-.02-.476-.054-.754-.179v.18h-.19v-.533h-.376v.532h-.19v-.179h-.754v.18l-.375-.18v.18c-.415.12-.623.053-.94.178v.532c-.94.134-.932.158-1.695-.353l-.19.532h-.755v.18c-.251.057-.503.116-.754.178v-.354h-.376c-.114.624-.203.816-.94.886v-.178c.216-.204.075 0 .19-.354a41.251 41.251 0 0 1-.755-.179v-.179c-.357-.104-.26.1-.375.18l-.565-.18v.18h.19v.71h-.375v-.353c-.517.283-.34.437-1.13.532-.137.491-.053.395-.565.533-.508.565-1.099.428-1.885.353v-.353h.755a25.699 25.699 0 0 0-.19-.533c-.287.104-.309.137-.754.18-.031-.483-.062-1.07-.376-1.245v-.178c.137-.188.146.153.376-.18h-.376c-.335-.186.376-.178.376-.178-.106-.433-.2-.391-.376-.711h.565c.155.232.133.207.376.353-.46-.932-.694-1.793.94-1.776.216.204 0 .07.375.179.062-.296.123-.59.19-.886h-.375v.353h-.376l.19-.532h-.19c-.141.337.133.183-.19.354-.247-.209.225-.27-.19-.354v.354l-.374-.18v.18h.19c-.124.237-.252.474-.376.71h-.19v-.532h-.19v.18h-.564c-.124.178-.252.353-.376.532h-.375v.179h-.565v.178h-.375v.18c-.759.253-1.328-.246-1.695 0-.512.311-.595.98-.754 1.064h-1.695c-.217-.204 0-.07-.376-.179v-.353h-.19c.063.237.124.474.19.711h-.19c-.357.291-.997.187-1.504.354v.178c-.278.084-.737-.191-.755-.178v.353h-.94l-.565 1.244h-.19v-.533h-.375c-.04.42-.08.441-.19.712-.212-.15-.026.02-.19-.18-.216-.203-.075 0-.19-.353.323-.2.256-.112.376-.532h-.565v1.065c-.314-.059-.627-.117-.94-.18v-.178c.216-.204.075 0 .19-.354h-.376l.19-.353h-.19c-.216.204 0 .07-.375.179-.048.345-.185.345-.19.353-.3.874.168 1.136-.94 1.244v-.354c-.26.088-.415.071-.755.18v.178c-.19-.058-.375-.116-.565-.179v.18h-.375l.19.353h-1.13v.179c.217.203.075 0 .19.353-.305-.012-1.32-.179-1.32-.179-.062.117-.123.237-.19.354-.512.262-.6.046-.94 0v.179h-.375l-.19.353c-.313.059-.626.117-.94.18v.178a49.068 49.068 0 0 1-.754-.179c-.314.058-.627.117-.94.179v.179c-.561.15-.764-.283-1.13-.354v.18c-.217.203-.075 0-.19.353h-.755l-.19-.18c-.097.043-.053.317-.375.354v-.178l-.565-.18v.18c-.19.058-.375.116-.565.178v-.353c-.34.166-.296.245-.755.353v.354h-.19v-.532c-1.059-.013-1.866-.425-2.26-1.065l.376-.18c.013-.249-.185.076-.19-.178.062-.295.124-.59.19-.886h.375c-.415-1.107.464-1.722.565-2.841a12.01 12.01 0 0 1 2.07-.179v-.532h.565c.128-.52.207-.583.755-.712v-.353c1.099-.237.106-.45 1.13 0v-.354c.419-.075.644-.17.94-.353v-.18c.375-.032.132.271.375 0 .216-.203.075 0 .19-.353h.375c.216-.72.384-.353.755-.886l1.13.354v-.179h.19v-.711c-1.082.02-1.382.145-2.26 0-.106.557-.186.744-.755.886v-.354h-.375v.532c-.384.192-.742.525-1.32.533l-.19-.179c-.68.483.062.828-1.32.886l.19-.711h-.375v.179h.19c.013.062-.322.64-.375.886h-.375v-.354h-.376v.354l-.19-.18c-.375.117-.754.238-1.13.354-.061.117-.123.237-.19.354-.246.1.04-.133-.189-.179-.19.058-.375.117-.565.179v-.179h-.565v-.179h-.19v.18s-.52-.163-.754-.18c-.124.296-.252.59-.375.886-.164-.054-.415-.34-.755-.179v.18h-.19v.532h-.19v-.533h-.19v.712c.031.249.199-.075.19.178l-.19.18c-.326-.155-.066-.022-.19-.354h-.19v.353l-.94.18.19-.354h-.19c-.29.307-.34.174-.754.353v.179c-.278.1-.72.046-.755-.179h-.19v.532h-.19v-.178h-.19v.353h-.374v.354c-.477-.142-1.165-.013-2.07 0a121.3 121.3 0 0 1-.19 1.244h-.375v-.354c-.287.104-.31.137-.755.179v.532l-1.13.354v.179h-.375v.178c-.922.33-1.139-.274-1.695.533h-.19l.19.179c-.062.179-.123.353-.19.532-.251-.058-.503-.116-.755-.179v.533c-.666.066-.573.22-1.13.353v-.353h-.19v.532c-.374.058-.754.117-1.13.18l-.189.532h-.375c-.062.178-.124.353-.19.532h-.19v-.532h-.19l-.19.353-.564-.179v-.179c-.366-.087-.252.1-.375.18l-.755-.18.19-.179v-.178h-.19v-.533h.19v-.179H.888c-.005-.59-.098-.802-.19-1.243H.323c-.336-.188.375-.18.375-.18.062-.178.123-.353.19-.532.97.042.93.337.94-.71.313-.06.626-.117.94-.18v-.711l.565-.179c.216-.204 0-.07.375-.179v.354h.375v-.354c.19.058.375.117.565.179v-.354h-.19l.19-.532h.19v-.179h.565c-.005-.25.04-.05-.19-.179v-.179h.565v-.178h.19l.19.353c.626.117 1.253.237 1.884.354.018-.666.172-.816.375-1.244.19.058.375.116.565.179v-.354h.565l-.19.354h.19v-.179h.375c.208-.154.084-.428.375-.533.168.159.071.3.376.354.123-.179.251-.353.375-.532h.565v-.18h.19v-.71h.375v.353c.803-.07.852-.366 1.505-.532.15-.574.348-.612.375-1.419h1.695v.18l.565-.18v-.179c.282-.07.256.316.375.354l.565-.179v.354h.19v-.354c.212-.15.026.02.19-.179l-.376.18v-.712h.19v-.711h.94l-.19.532h.565c.3-.345.685-.474.94-.886.195.154.261.308.376.532.19-.116.375-.237.565-.353v-.18h.375l.19-.353c.123.059.251.117.375.18.251-.18-.23-.3.19-.354v.178c.19.059.375.117.565.18v-.354c-.217-.204-.076 0-.19-.354.485.083.834.17 1.505.18.269-.38.494-.359.94-.533l-.19-.533h.755v-.179h.19v.18h.375v-.354c1.068-.03.702-.275 1.32-.533h.754v-.179c.217-.203.075 0 .19-.353h.565v.353h.375c.155-.57.22-.515.94-.532v.354c.442-.192.614-.408 1.13-.533v-.532h.375v-.354c.993.004 1.488-.208 2.26-.354.137.491.053.396.565.533a25.708 25.708 0 0 0-.19-.533h.19c.208-.249.658-.52.94-.71v-.18h.565v.18h.19v.532h.19c.062-.707.194-.82.94-.886v.179c.252.083-.07-.113.19-.18.754-.116 1.505-.236 2.26-.353-.19-.553-.106-.27 0-.886.459-.1.414-.183.754-.353v.178h.19c.15.262-.19.354-.19.354l.19.354c.433-.342.238-.533.94-.712a25.7 25.7 0 0 1 .19-.532c.538.208.887.337 1.695.353.19-.353.375-.71.565-1.064h.375l.19.353 1.32-.353v-.18h1.32l.189-.353h.375c.12-.487.247-.403.375-.886.252.058.503.117.755.179v-.179c.207-.158.04.03.19-.179h-.19c-.185-.295.27-.15.375-.179V5c.19.058.375.116.565.178-.062.117-.123.237-.19.354h.19c.592-.64 1.108 0 1.885.179.128-.233.234-.192.375-.354l-.19-.353h.375v-.18l.376-.178c.026-.25-.04.029-.19-.179l.19-.353c.635.124.723.386 1.32.532v-.532c.516.112.427.232.94.353v-.532c.207.058.37.316.754.179v-.18h.565v-.178c.375-.296.755-.59 1.13-.886v-.354h.375v.18c.26.049-.035-.038.19-.18l.375.18-.19.531c1.05.075 1.585.317 2.26-.353-.37-.2-.441-.25-.565-.711l.565-.18c.062.117.124.238.19.354h.375v-.71c.41.074.538.116.755.353l1.13-.354-.19-.353h.94V.918l.093.042Zm-1.88 2.663v.353h.19v-.353h-.19Zm167.786.353v.354h.19v-.354h-.19ZM62.167 4.51v.353h.19V4.51h-.19Zm-2.635.353v.354h.19v-.354h-.19Zm165.148.533c.216.204 0 .07.375.179-.216-.204 0-.071-.375-.18Zm-14.874.179c.216.203 0 .07.375.178-.216-.203 0-.07-.375-.178Zm-158.748.532c.018.603 0 .645.375.886v-.179h-.19v-.711h-.19l.005.004Zm155.923.179c.216.204 0 .07.375.179-.216-.204 0-.071-.375-.18Zm-20.528.175v.353h.189V6.46h-.189Zm13.183.178-.189.354s.547-.283.375-.354h-.19.004Zm19.394 0h.375c-.159.2.022.025-.189.18v.178c-.217-.204-.075 0-.19-.353l.004-.005Zm-166.657.18c.217.203 0 .07.376.178-.217-.204 0-.07-.376-.179Zm105.647.174v.354h.189v-.354h-.189Zm-103.572.711v.18h-.19c-.358.153.375.178.375.178.16-.2-.022-.025.19-.179-.216-.204 0-.07-.375-.179Zm144.624 0v.18h-.19c-.358.153.375.178.375.178.159-.2-.022-.025.19-.179-.217-.204 0-.07-.375-.179Zm48.206 0v.18h-.19c-.357.153.375.178.375.178.159-.2-.022-.025.19-.179-.216-.204 0-.07-.375-.179Zm-126.17.18v.353h.19v-.354h-.19Zm-46.512.174v.353h.19v-.353h-.19Zm48.207 0v.353h.19v-.353h-.19Zm34.837 0c.318.382.375.353.375.353.137-.17-.326-.312-.375-.353Zm48.211 0c.318.382.375.353.375.353.137-.17-.327-.312-.375-.353Zm13.369 0v.353h.19v-.353h-.19Zm34.837 0c.318.382.376.353.376.353.136-.17-.327-.312-.376-.353Zm-206.768.358h-.375v.178h.19v.18h.19V8.42l-.005-.004Zm2.45 1.064h.375a42.498 42.498 0 0 0-.19-.71h-.19v.71h.004Zm144.623 0h.375l-.189-.71h-.19v.71h.004Zm48.206 0h.376l-.19-.71h-.19v.71h.004Zm-194.9-.357v.711h.19v-.711h-.19Zm48.207 0v.711h.19v-.711h-.19Zm96.417 0v.711h.19v-.711h-.19Zm27.868.357v.533h.19c.19-.32.415-.528.755-.711v-.18h-.376c-.211.304-.119.242-.564.354l-.005.004Zm20.338-.357v.711h.19v-.711h-.19ZM132.597 9.3v.353h.19V9.3h-.19Zm48.206.353h.375v-.179c-.211-.15-.026.021-.189-.179h-.19v.354l.004.004ZM75.536 9.48v.533h.19V9.48h-.19Zm48.207 0v.533h.19V9.48h-.19Zm82.483.708c.137.49.053.395.565.532.119-.487.247-.403.375-.886h-.19c-.238.337-.189.295-.754.354h.004Zm1.695-.354v.354c.494-.013.64-.071.94-.18V9.83h-.94v.004Zm-99.428.179v.532h.19v-.179c.212-.15.027.021.19-.178l-.375-.18-.005.005Zm48.207 0v.532h.19v-.179c.212-.15.026.021.19-.178l-.376-.18-.004.005Zm48.206 0v.532h.19v-.179c.212-.15.027.021.19-.178l-.375-.18-.005.005Zm48.211 0v.532h.19v-.179c.212-.15.026.021.19-.178l-.375-.18-.005.005Zm-120.71.175v.353h.19v-.353h-.19Zm87.378 0c.318.382.375.353.375.353.137-.17-.326-.312-.375-.353Zm-99.617.357v.533h-.375v.353l.375-.179.19-.532c.211-.15.026.02.189-.179h-.375l-.004.004Zm7.909 0v.354h.19v-.354h-.19Zm48.207 0v.354h.189v-.354h-.189Zm29.567.354h-.565v.353h.375c.177-.32.261-.278.375-.71h-.19v.353l.005.004Zm18.639-.354v.354h.19v-.354h-.19Zm-119.951.707v-.353c-.212.15-.027-.021-.19.179h-.19c.217.204 0 .07.375.179l.005-.005Zm47.641-.353v.532h.19c.216-.204 0-.07.375-.179v-.353h-.565Zm26.739.353v-.353h-.565v.179h.189c.217.204 0 .07.376.179v-.005Zm22.033 0v-.353c-.212.15-.027-.021-.19.179h-.19c.216.204 0 .07.375.179l.005-.005Zm14.878-.353v.353c.212-.15.027.021.19-.178h.19c-.216-.204 0-.071-.375-.18l-.005.005Zm26.738.179v.353h.19v-.353h-.19Zm-124.66.707h.375c-.159-.2.022-.025-.19-.179v-.354h-.189v.533h.004Zm-53.106-.354v.354h.19v-.354h-.19Zm48.211 0v.533h.19v-.533h-.19Zm96.413 0v.354h.19v-.354h-.19Zm36.722 0c.216.204.075 0 .19.354h-.19v-.354Zm11.489 0v.354h.19v-.354h-.19Zm-219.198.18v.353h.19v-.354h-.19Zm48.207 0v.353h.19v-.354h-.19Zm96.417 0v.353h.19v-.354h-.19Zm48.206 0v.353h.19v-.354h-.19Zm-132.945.174c.018.037.27.644.376.532v-.179h.19c-.164-.183-.327-.245-.566-.353Zm48.582.89h.375v-.354h-.375l.19-.353c-.19-.058-.375-.117-.565-.179v.179c.256.208.287.324.375.711v-.004Zm-49.712-.711.19.532h.19c-.115-.424-.062-.329-.375-.532h-.004Zm48.207 0c.062.179.123.353.19.532h.19c-.115-.424-.062-.329-.376-.532h-.004Zm3.579 0h-.375c.159.2-.022.025.19.179v.178h.19v-.353l-.005-.004Zm74.384.711h.376v-.354h.189c-.061-.116-.123-.237-.189-.353-.212.15-.027-.02-.19.179h-.19v.532l.004-.004Zm-157.242-.532c.216.203 0 .07.375.178-.216-.203 0-.07-.375-.178Zm32.013 0v.532h.19v-.532h-.19Zm48.206 0v.532h.19v-.532h-.19Zm3.58 0h-.376c.159.2-.022.024.19.178v.18h.19v-.354l-.004-.004Zm21.843 0v.532h.19v-.532h-.19Zm48.211 0v.532h.19v-.532h-.19ZM29.4 12.316v.354h.19v-.354h-.19Zm8.85 0v.354h.19v-.354h-.19Zm48.21 0v.354h.19v-.354h-.19Zm12.615.358v-.354c-.212.15-.027-.02-.19.18h-.19c.216.203 0 .07.375.178l.005-.004Zm35.592-.358v.354h.19v-.354h-.19Zm14.499 0v1.065h.19v-1.065h-.19Zm24.103 0v.354h.19v-.354h-.19Zm.755 0v.354h.19v-.354h-.19Zm8.849 0v.354h.19v-.354h-.19Zm38.607 0v.354h.19v-.354h-.19Zm.755 0v.354h.189v-.354h-.189Zm8.849 0v.354h.19v-.354h-.19Zm-197.54.18c.217.203 0 .07.376.178-.217-.204 0-.07-.375-.179Zm48.207 0c.216.203 0 .07.375.178-.216-.204 0-.07-.375-.179Zm144.624 0c.216.203 0 .07.375.178-.216-.204 0-.07-.375-.179Zm-131.255.353.19.532h.19c-.115-.424-.062-.329-.376-.532h-.004Zm48.211 0c.062.178.123.353.19.532h.189c-.114-.424-.061-.329-.375-.532h-.004Zm12.239.179v.353h.19v-.353h-.19Zm-119.015.886c-.137-.491-.053-.396-.565-.533.062.237.123.474.19.711h.565v.18c.264.033-.071-.126.19-.18h.754v-.71c-.212-.15-.026.02-.19-.18h-.375v.18h.19c.062.32-.468.465-.755.532h-.004Zm24.483-.708-.19.354s.547-.283.375-.354h-.19.005Zm144.623 0-.19.354s.548-.283.375-.354h-.189.004Zm-176.826.886h.375v-.178c-.212-.15-.026.02-.19-.18h-.19v.354l.005.004Zm6.59-.353v.353c.212-.15.026.021.19-.178h.19c-.217-.204 0-.071-.376-.18l-.004.005Zm41.617.353h.375v-.178c-.212-.15-.027.02-.19-.18h-.19v.354l.005.004Zm6.594-.353v.353c.212-.15.026.021.19-.178h.19c-.217-.204 0-.071-.376-.18l-.004.005Zm48.206 0v.353c.212-.15.026.021.19-.178h.19c-.217-.204 0-.071-.376-.18l-.004.005Zm89.828.353h.375v-.178c-.212-.15-.027.02-.19-.18h-.19v.354l.005.004Zm6.589-.353v.353c.212-.15.027.021.19-.178h.19c-.216-.204 0-.071-.375-.18l-.005.005ZM32.415 14.804v-.354l-.565.179.19.711h-.19v.18c-.442.057-.879.116-1.32.178v.354c.247.033 1.17.216 1.32.178l.19-.353.564.179c.062-.296.124-.59.19-.886h.19c.216-.204 0-.071.375-.18v.354h.94v-.353h.375c-.123-.354-.251-.711-.375-1.065h-.19l-.19.532c-.269.18-1.085.32-1.504.354v-.008Zm21.278-.89v.532h.19v-.532h-.19Zm-25.233.357v.354h.19v-.354h-.19Zm29.378 0v.354h.19v-.354h-.19Zm18.828 0v.354h.19v-.354h-.19Zm48.207 0v.354h.19v-.354h-.19Zm55.93 0c.216.204 0 .071.375.18-.216-.205 0-.072-.375-.18Zm21.658 0v.354h.19v-.354h-.19Zm18.829 0v.354h.19v-.354h-.19Zm-171.176.175c.216.204.075 0 .19.354h-.19v-.354Zm48.02.179c.212.303.12.241.566.353-.164-.183-.327-.245-.565-.353Zm21.469.353h.375V14.8c-.212-.15-.026.02-.19-.18h-.19v.354l.005.004Zm-69.865-.174h.376v.179c-.38-.1-.164.02-.376-.18Zm52.541 0c.216.204.075 0 .19.353h-.19v-.353Zm50.656.707h-.375V14.8h-.19v.178c-.216.204-.075 0-.19.354.19.116.375.237.565.354.159.2-.022.024.19.178v-.353Zm-52.351-.533v.354h.19v-.354h-.19Zm-61.77.358v.354h.19v-.354h-.19Zm48.211 0v.354h.19v-.354h-.19Zm41.617.175c.216.204 0 .07.375.179-.216-.204 0-.071-.375-.18Zm-66.854.532v-.353c-.212.15-.027-.021-.19.179h-.19c.216.203 0 .07.375.178l.005-.004Zm96.417 0v-.353c-.212.15-.026-.021-.19.179h-.19c.217.203 0 .07.376.178l.004-.004Zm-113.176.358v.354h.19V16.4h-.19Zm3.77 0v.354h.19V16.4h-.19Zm-14.125.175v.353h.19v-.353h-.19Zm15.064.357c-.008.72-.088.766.376 1.065v-.179c-.318-.382.145-.856.375-1.243h-.19c-.212.303-.12.241-.565.353l.004.004Zm3.39-.357c.216.203 0 .07.375.179-.216-.204 0-.071-.375-.18Zm9.79 0a28.24 28.24 0 0 1-.19.532h.19v-.179c.08-.104.309-.025.19-.353h-.19Zm19.963 0v.353h.19v-.353h-.19Zm63.275.357c-.009.72-.089.766.375 1.065v-.179c-.318-.382.145-.856.375-1.243h-.19c-.212.303-.119.241-.565.353l.005.004Zm3.389-.357c.217.203 0 .07.376.179-.217-.204 0-.071-.376-.18Zm-84.178.179v.353h.19v-.353h-.19Zm21.093.353h.376v-.179c-.212-.15-.027.021-.19-.179h-.19v.354l.004.004Zm27.118-.353v.353h.19v-.353h-.19Zm16.759 0c.216.203.075 0 .19.353h-.19v-.353Zm-41.431.178c-.062.117-.124.238-.19.354l.375.179c.137-.212-.397-.154 0-.533h-.19.005Zm-23.163.175-.19.533h.19v-.354h.19v-.179h-.19Zm48.21 0-.189.354s.547-.283.375-.354h-.19.004Zm-98.867.711h.376v-.178c-.212-.15-.027.02-.19-.18h-.19v.354l.004.004Zm106.022 0h-.375c.159.2-.022.025.19.18v.178h.189v-.353l-.004-.005Zm-99.617.354v.354h.19v-.354h-.19Zm27.117 0v.711h.19v-.179h.19c-.062-.116-.124-.237-.19-.353h.19c-.216-.204 0-.07-.375-.179h-.005Zm69.3 0v.354h.19v-.354h-.19Zm28.433 0c-.216.204 0 .07-.375.179v.179h.375c.062-.117.124-.237.19-.354h-.19v-.004Zm-87.753.532-.19.354s.547-.283.375-.354h-.19.005Zm-7.155.358v.354h.19v-.354h-.19Zm4.145 0v.354h.19v-.354h-.19Zm-8.854.354h.375c-.154.233-.132.208-.375.353v.18h-.19l.19-.533Zm6.594 0-.19.353s.547-.283.375-.353h-.19.005Zm-14.503.711v.354h.19v-.354h-.19Zm-14.5.886v.354h.19v-.354h-.19Zm4.145.179v.532h.755v.354h.565c.154-.233.132-.208.375-.354v-.532c-.786.129-.79.046-1.695 0Zm-15.254.353c.216.204 0 .071.375.18-.216-.204 0-.071-.375-.18Zm38.982.18v.353h.19v-.354h-.19ZM5.482 24.561c-.062.179-.123.354-.19.533h.19v-.354h.19v-.179h-.19Zm24.293.179v.354h.19v-.354h-.19Z" fill="#9FCCB9"/></svg>