<svg width="107" height="25" fill="none" xmlns="http://www.w3.org/2000/svg"><mask id="a" style="mask-type:alpha" maskUnits="userSpaceOnUse" x="0" y="0" width="107" height="25"><path fill="#FDE6AD" d="M.233.919h106v24h-106z"/></mask><g mask="url(#a)"><path fill-rule="evenodd" clip-rule="evenodd" d="M-34.686 2.953c.686.146.788.518 1.586.58.115-.22.287-.55.72-.434v.145c.368.136.162-.145.432.146h.146v.58l.287.145v.288h.145c.048.146.095.289.146.434h-.578v.434c-.4.105-.322.04-.433.434-.504.122-.673.366-1.298.434.01.38.057.491.145.722-.493-.038-1.132-.116-1.152-.146v.288h.145c.456.003-.433.146-.433.146-.182-.227-.385-.353-.72-.434-.216.393-.5.617-1.01.722v-.288l-.288.146c-.084.22-.111.237-.145.58-.304.023-.872.128-1.01.287-.177.204.128.16-.288.434v-.58h-.145v.58h-.433v-.288c-.22.085-.237.112-.578.146v-.288l-.433.145c-.094.248-.138.454-.145.868h-.72s-.146.23-.288.288v.146h-.145v-.288h-.287v-.146h-.146v.146h-.432v.145c-.25.224-.304.678-.433 1.014-.53-.051-.95-.254-1.298.146-.047.145-.095.288-.145.433-.386.048-.771.095-1.153.146v.146l-.287.146v.288l-.433-.146-.145.288h-.433c-.024.014-.169.217-.287.288v.146c-.24-.047-.48-.095-.72-.146v-.146c-.085-.01-.494.245-.72.289-.098.274-.186.884-.288 1.155l-.432-.145v-.146c-.2-.038.057.105-.146.146-.345.067-.372-.109-.578-.146l-.287.434h-.578v.145l-.433.146v.434h.288v.146h-.146c-.078.067-1.156.366-1.152 0h-.146v.288l-.72-.146c.007.519-.034.912-.287 1.156v-.146h-.145v-.58h-.288c-.01.38-.057.492-.145.722-.301-.088-.588-.162-.865.146v.288h-.146v.146l-.865-.146c-.047.095-.095.194-.145.288-.193.048-.386.095-.579.146v.288h-.578v.288c-.344-.067-.453-.166-.72-.288v.722c-.338.048-.672.095-1.01.146v.146c-.423.098-.474.159-.578.58.203.01-.02-.024.145-.147.226-.166.135.356.145.434-.246.163-.196.092-.287.434.193-.047.385-.095.578-.146l.145-.288c.027-.003.338.136.578.146v-.288c.146.047.288.095.433.146l.145-.288c.176-.085.423-.078.579-.146v-.58c.34-.057.794-.274 1.297-.146v.146h.579v-.146h.287v-.58h.287v.289c.433-.095.865-.193 1.298-.288l.146.146c.395-.278.131-.495.865-.58.166.166 0 .058.287.146v-.434l.72-.146v-.288c.477.078.656.183.866 0h.145c.182-.223-.155-.291.145-.434v.146h.146v-.434c.317-.05.747-.19 1.152 0 .048.095.095.193.146.288h.287v-.288c.29.082.125-.017.287.146l.433-.146v-.146h.433c.094-.145.192-.288.287-.433.24.047.48.095.72.145v.146c.105.02.53-.129 1.01-.146l-.145-.433h.288v.145h.578l.145.146v-.146l.433-.145c-.01-.38-.058-.492-.146-.722h.866c.165-.166 0-.058.287-.146.112-.434.088-.38.578-.434.162.248.091.197.433.288.145-.363.297-.756.578-.58h.145v.434h.288c.104-.4.04-.322.432-.433v-.146l.866-.146s.064.21.287.146l.145-.288h.433v-.288l.287.145v.146c.19.071.03-.068.146-.146.361-.098.233-.074.432-.288h.146v-.288l.287-.145c.169-.184.243-.42.433-.58v.146h.432c.047.193.095.386.146.58h.145c.352-.59.808-.536 1.585-.723.044-.01.038-.2.288-.145v.145c.287.095.578.194.865.288v-.145h.145l-.145-.434c.095-.048.193-.095.287-.146.2-.302-.064-.203.288-.434v-.145l.72-.146c-.078.403-.112.013 0 .434h.145v-.288c.287.047.578.094.865.145v-.145c.156-.133.027.023.146-.146h-.146v-.146h.433c.03.342.06.36.145.58.166-.166.058 0 .146-.288.165-.167.057 0 .145-.289l1.298-.433.145.145c.048-.467.132-.423.288-.722h.287v.146h.145V8.6h.579l.145-.433c.375.152.608.264 1.152.288-.047-.095-.094-.194-.145-.288.098-.16.811-.204 1.01-.434l-.145-.288h.146v-.146c.382.17.544.278 1.152.288V7.44h-.145v-.434c.456.095.29.22.433.289.169-.01.514-.292.865-.146l.146.288h.287c-.139.478-.135.85.145 1.301h-.145c-.166.166 0 .058-.287.146v.722h-.146c-.037.24.135.25.146.288v.722c-.518.02-.818.207-1.153.288l-.287-.146c-.095.146-.193.289-.288.434-.08.034-.787-.108-1.01-.146-.088.38-.41.767-.866.722 0 0-.078-.183-.287-.145l.145.288h-.578c-.047.24-.095.481-.145.722l-.72-.146-.145.288c-.39.098-.38-.278-.433-.288l-.433.146.145.145c.007.058-.128.326-.145.58-.48.047-.96.095-1.443.146v-.288c-.342-.03-.359-.061-.578-.146v.434c-.03.06-.99.729-.433 1.013h-.433v-.146c-.138-.267-.145.288-.145.288-.162.122-.02-.016-.145.146.405-.135.402-.152.865 0v.146l.433-.146-.146-.146.146-.433c.676.26 1.122.084 1.585-.288.047-.095.095-.194.145-.289h.72s-.013-.084.288-.145v.434h.145v-.289c.615-.01.957-.03 1.298-.288l.145-.288c.24.048.48.095.72.146-.165-.166 0-.058-.287-.146v-.288c.146.048.287.095.433.146v-.288h.287v.288c.835-.068 1.433-.539 2.018-.868v.434h.287v-.288h1.011v-.146h.433v-.146c.287.048.578.095.865.146.122-.162-.017-.02.146-.146v-.579c.287-.047.578-.095.865-.146a24.53 24.53 0 0 1-.145.434h.145v.146c.162-.122.02.017.145-.146.166-.166.058 0 .146-.288.226.01 1.01.146 1.01.146v-.146h.146v-.434c.159-.203.649-.149 1.01-.146v.146l.866-.146v-.145h.287v-.146h.433l-.146.434h.146c.104-.4.04-.322.432-.434v.288c.146-.047.288-.095.433-.146v-.145c.338-.048.673-.095 1.01-.146v-.146h.434l.145-.288c.121-.047.95.152 1.152.288v-.288l.433-.146v-.146c.196-.06-.057.106.146.146.24.048.256-.139.287-.146.263-.054.558.19.72.289v-.146c.45-.41.034-.614.865-.722v.146h.433l-.146.288c.186.234.27-.16.433.434.19-.153.217-.295.433-.434v.434h.287c-.047-.289-.094-.58-.145-.868.676-.23.487.112.865-.722h.146c-.017.308-.15.495-.146.58l.146.145c.263-.183.016-.196.145-.288.166-.122.091.132.145.146.146-.048.288-.095.433-.146V8.44c.324-.058.554-.237 1.01-.146 0 0 .007.19.288.146v-.146h.72v.146c-.345.088-.267.048-.433.288h.288c.415-.688 1.108-.447 1.876-.722l.145-.434c.412 0 .619.051.865.146v-.58h.146c.094.146.192.289.287.434h.145l-.145.289h.145v.145c.413.299.372-.257.578.434h.288v.288h.287a21.77 21.77 0 0 1-.145.434h.145c.098.217.101.24.145.58H.51v.288c.223.129.3.213.432.434.467-.255.274-.346.866-.146l-.146-.434h.288v-.288h.287v.146h.145v-.146l.433.146-.145.433h.287c.105-.4.04-.322.433-.433.216-.255.389-.275.865-.288v-.289c.287-.094.578-.193.865-.288.01.38.058.492.146.722.162-.122.02.017.145-.145h.146V9.02c.432.047.865.095 1.298.145v-.288h.287l.145-.434c.193.048.386.095.578.146.048-.095.095-.193.146-.288l.72.146v.288c.368-.224.993-.898 1.443-.58h.287v.289h.146v-.289c.693-.037.696-.101 1.298 0 .047-.24.094-.48.145-.722.666-.125 1.17-.125 1.585 0v-.288h.866v.146h.432v.146c.146-.048.288-.095.433-.146v-.146c-.166-.166-.057 0-.145-.288.473.01.426.183.72 0l.145-.288.865.288v.288c.39 0 .818.048 1.011-.145v-.288l.288.145v-.145c.287-.048.578-.095.865-.146.135.088-.05.207.145.146l.145-.289c.183 0 .369.258.72.146v-.146c.24-.047.48-.094.72-.145l-.145.434h.146c.32.349.27.203.72.145-.017.458-.281.271.145.434.064.36.132.532.145 1.014-.399.105-.32.04-.433.433h-.145v.722c-.345.068-.453.166-.72.288v-.433h-.145c-.213.81-.25.298-.72.58v.145l-.578.434a22.3 22.3 0 0 1 .145-.434h-.145c-.088.23-.129.342-.146.722-.544.115-.807.281-1.585.288v-.288h-.287v.288h-.72v.146h.145c-.091.206-.169.108-.287.288h-.287l.145-.288h-.146c-.141.196-.084.284-.432.288 0 0-.102-.207-.288-.146-.047.095-.094.193-.145.288h-.287l-.146.868-.578.146v-.58h-.287c-.105.464-.196.525-.72.58l.146-.434h-.146c-.054.166-.04.515-.287.434l-.146-.434a21.35 21.35 0 0 0-.432.145v.288c-.23-.088-.342-.128-.72-.145v-.434h-.146v.434c.166.166.058 0 .146.288a84.63 84.63 0 0 0-1.01.146v.288c-.511.054-.44.18-.866.288v.434c-.352-.082-.318-.153-.578-.289v.289h-.146v.433h.146v-.288h.287v.288c.24-.047.48-.095.72-.145v.433h.287v-.433c.24.047.48.095.72.145.068-.345.166-.454.288-.722.47.004 1.04-.064 1.298.146h.145c.047-.095.095-.193.145-.288h.288v-.146h.287v-.145l.287.145v-.145h1.444a21.648 21.648 0 0 0-.146-.434h.288v-.146h.145v.146l.433.146c.01.203.034.04-.146.145.163.153 0 .065.288.146v-.146h.145v-.434h.145c.125-.2.108-.25.146-.58.341-.016.365-.043.578-.145v.146h.145v.146l-.145.288h.432v-.288c.338-.048.673-.095 1.011-.146v.146h.146c.162-.116-.055-.19.145-.146v.146h.578v.288h.145c.048-.288.095-.58.146-.868h.287v.288h.145v-.434c.332.014.375.122.578.146l.146-.288s.395.136.578.146v-.288l.145.145c.193-.047.385-.095.578-.145v.145h.72v-.433h.287v.145h.146v-.146l.287.146.145-.434c.382-.142.301.316.578.289v-.146c.633-.15.795-.356 1.444-.434v.146h-.145c-.274.125.287.146.287.146.122.162-.017.02.145.145v-.288l.72-.146c.047-.095.095-.193.145-.288l.146.146c.855.054.967-.302 1.443-.58v.434h.146c.165-.166 0-.057.287-.145v-.289c.145.048.287.095.433.146l.145-.288h.578v-.146h.145c.088.346.048.268.288.434v-.434c.757-.122.639-.017 1.298.288.074-.338.21-.542.432-.721.166.166 0 .057.288.145v-.288h.432v-.288c.24.048.48.095.72.146v.288h.288v-.434c.314.02.48.146.578.146v-.146l.432-.146c.048.095.095.194.146.288.46.136 1.149-.301 1.443-.433l-.145-.434h.432c.088.345.048.268.288.434.121.162-.017.02.145.145.01-.38.058-.491.145-.722.288-.047.579-.094.866-.145.122.162-.017.02.145.145-.111.146-.176.143-.287.289h.432l-.145-.434.145-.146c.214.068.23.166.579.146v-.146h.145v.146c.193.047.385.095.578.145v.146c.588.224.855-.105 1.153.146.45.298.067.186.287.58l.287.145v.288h.146c.131.197.108.254.145.58l-.578-.146c.115.468.267.498.287 1.156-.162.122-.02-.017-.145.146h-.145c-.044-.434-.02-.394-.288-.58v.146h.146c-.095.193-.193.386-.288.58-.375.006-.497.03-.72.145v.146c-.247.085-.25-.136-.287-.146-.517-.132-.845.183-1.01.434h-.146c-.047.288-.095.58-.145.868h-.288l-.145-.289c-.193.048-.386.095-.578.146.03.342.06.36.145.58-.334-.014-.368-.115-.578-.146l-.145.288c-.193.048-.386.095-.578.146-.105.4-.04.322-.433.434-.507.457-.933-.183-1.01-.146v.146c-.24.146-.48.288-.72.434.077.505.141.267 0 .721h.145v-.145h.578v.288l.432-.146v-.146l.433.146V14.1c.146.048.287.095.433.146V14.1l-.146-.146h.866c.047.146.094.289.145.434.095-.047.288-.288.288-.288.145.048.287.095.432.146V14.1c.213-.112.24-.108.578-.146v-.288h.288v-.288h.578v.288c.324-.037.382-.013.578-.145v-.146h.287v-.146h.287v-.145c.257-.207.345-.326.72-.434v.434h.578c.048-.241.095-.482.146-.722h.287a22.3 22.3 0 0 1-.146.433h.146c.206-.206.804-.369 1.153-.433v-.289c.192-.047.385-.094.578-.145v-.434h.287v.434h.287v-.434h.72c-.047.146-.094.288-.145.434h.287c.149-.166.267-.278.578-.288v.145h.146l.145-.145c.135-.261.2-.228.287-.58l.433-.146v-.145l.145.145.433-.145v.433h.287c.03-.342.061-.359.146-.58l.287.147v-.146c.206-.18.223-.4.433-.58.044.068.294.526.432.434l.146-.434c.625-.047 1.25-.095 1.876-.145v.145c-.4.105-.321.04-.433.434.358-.064.53-.132 1.01-.146v-.145h-.144v-.722c.24.047.48.095.72.145.047-.145.094-.288.145-.433.165.166.057 0 .145.288l.433.145v-.145c.297-.163.26-.224.72-.288v-.434c.307-.017.493-.15.578-.146l.145.146v-.288l.72-.146v.288c.095-.047.193-.095.288-.146v-.145c.23-.028.179.25.287.288h.578c.047-.241.095-.482.145-.722.24.047.48.095.72.145l.145-.288h.146v.146c.145-.047.287-.095.433-.146V7.44c.165.166.057 0 .145.288h.287c.068-.345.166-.454.288-.722.48.007 1.298.146 1.298.146v-.146h.287v-.145h.433c.047-.095.094-.194.145-.288.145.047.287.095.433.145v.146h.72v-.288l.578-.146v.288h.287c.091.397.19.33.287.722h.433c.105.4.04.322.433.434v.288c-.862.176-.747.58-1.011 1.302h.865l.146-.58c.601-.091.409-.142 1.01-.288v.288c.683-.288.582-.288 1.153 0v-.288c.193-.047.385-.095.578-.146v-.288h.287v.146h.146v-.146c.328-.064.388.075.578.146v-.146h-.146c-.267-.139.288-.146.288-.146v-.288h.287V7.44c.453.085.642.234 1.153.288l.145-.433s-.308-.024-.145-.146h.287v.146h.865V6.86c.46.095.284.213.433.288.24-.024.267-.285.288-.288.277-.078.199.095.287.145h.145V6.86c.193.047.386.095.578.145.105-.4.04-.322.433-.433v.288h.578c.135-.261.2-.227.287-.58l.433.146V6.28c.094-.047.192-.095.287-.146v.288h.287l-.145-.433c.345-.068.453-.166.72-.288v.58c.75-.197.514-.32 1.444-.147v-.433h.432v.145c-.06.085-.236.02-.145.288h.145c.233-.894.308-.244.865-.58.328-.196-.01-.531.72-.721v.146l.433-.146v.288h.146v-.288c.51.054.439.18.865.288v.288c.135.227 1.03.268.578.722h.287v.58l-.287.145c-.007.048.135.322.145.58h.288c-.068.346-.166.454-.288.722-.257.013-.52.152-.578.146v-.146h-.578v.146l-.865.145v.288c-.193.095-.385.194-.578.288V8.88h-.145v.434l-1.011.288c.165.166 0 .057.287.145v.146c.254.119.463-.085.578-.146v-.145h.433v-.288c.672-.034.821-.21 1.298-.434v-.146h1.01v.146h-.145c-.165.166 0 .057-.287.145v.289c.588-.17.152-.133.433-.434l.287.145V8.88h.287v-.146h.433c.152-.088.358-.715.72-.58V8.3h.287v-.434c.146.048.288.095.433.146v-.146c.287-.047.578-.095.865-.145v.288h.288c.047.145.094.288.145.434h.145v-.289h.288c.084-.538.084-.332 0-.867.044.017 1.389.315 1.443.288V7.43h.145v-.58h.146c.294.265.655.041 1.152 0v-.288c.291.082.125-.017.288.146.53-.152.395-.291.72-.58v-.145c.365-.227 1.139-.01 1.73 0 .092-.397.19-.329.288-.722.618-.024.493-.092.865-.288v.434h.578c.03-.343.06-.36.145-.58l.433.146.145-.288h.288v-.146c.145-.047.287-.095.433-.146l.145.434c.365-.295.06-.349.72-.434v.146c-.166.132-.17.105-.287.288h.145v.146c.3-.16.257-.234.72-.288.121.162-.017.02.145.146-.169.274-.121.138-.432.288v.145h.287c-.047.288-.095.58-.145.868h.145v.146h-.145v.288c.047.339.094.674.145 1.013h-.145c-.122.166-.075.204-.288.288v-.145h-.145c-.095.145-.193.288-.287.433h-.433l-.145.289c-.193.047-.386.094-.579.145-.047.146-.094.288-.145.434l-.433.146-.145.288h-.145V9.31c-.531-.125-.697.492-1.011.146v.288h-.287c.047.193.094.386.145.58h-.145c-.162.247-.091.196-.433.288-.014-.03-.206-.526-.287-.434v.146l-.288.145a21.64 21.64 0 0 1-.145.434h-.433c-.483.237-.189.383-1.01.434.047.146.094.288.145.434.193-.048.385-.095.578-.146v.434h.145v-.146h.578c.44-.166.643-.403 1.298-.434v-.288c.41-.091.382-.268.433-.288h.578v.146l.578-.146s.064.18.287.146v-.146l.579.146v-.146c.165-.166.057 0 .145-.288h-.145v.146c-.126.274-.146-.288-.146-.288.527.047 1.058.095 1.585.146l.146-.289c.145-.044.264.224.578.146v-.146h.72v.146h.145v-.146h.578l.146-.433h.145l-.145-.289h.432c.166.167 0 .058.288.146v-.288c.344.068.453.166.72.288V9.61h-.146c-.267-.139.288-.145.288-.145v.145c.165.167.057 0 .145.289.308-.017.49-.146.578-.146v.146h.287c.04-.258.146-.289.146-.289a22.305 22.305 0 0 0-.146-.433h.146V9.03c.409.183.595.373 1.152.434v-.288c.842-.194.081-.366.866 0v-.58h.145v.146l.578-.434v.58h.145c.071-.068-.04-.234.146-.146v.146h.145s-.04.518.146.288V9.03c.165-.166.057 0 .145-.288h-.433c.112-.434.088-.38.578-.434v.146l.433-.146v.146h.433v.145c.371.078.791-.45 1.01-.58l.433.147V8.02c.24-.156.24-.197.578-.288-.047.145-.095.288-.145.434h.145v.145c.145-.095.287-.193.433-.288v-.145h.287c.26-.116.314-.33.433-.58l.72.58c.088-.285.006-.353.287-.434.047.017.044.27.287.288.308-.41.129-.292.578-.146.048-.468.132-.424.288-.722.503.078.267.142.72 0v.868h.145c.162-.248.091-.197.433-.288.27.454.534.41.578 1.155.395.017 1.044.2 1.152 0h.146v.146c.399.095.851.403 1.01.722v.434h.146c.199.268.334.335.432.722a21.506 21.506 0 0 1-.432-.146v.146h.145v.434h.145c.132.213.129.356.146.722-.166.166-.058 0-.146.288-.48.047-.96.095-1.443.145v-.288c-.193.048-.385.095-.578.146v-.288c-.095.047-.193.095-.287.146-.048-.095-.095-.194-.146-.288-.003 0-.426.196-.72 0l-.145-.434c-.169-.119-.247.424-.578.288v-.146c-.166-.166-.057 0-.145-.288l-.433.146v-.146h-.145c.047-.146.094-.288.145-.434 0 0-.179-.044-.145-.288 0 0 .24-.064.145-.288h-.145c-.166.166 0 .058-.288.146-.047.146-.094.288-.145.434-.338-.041-.358-.048-.578-.146v-.146c-.243.017-.243.275-.287.288-.328.116-.582-.18-.72-.146v.146c-.491.197-.599.451-1.153.58.047-.146.095-.288.145-.434h-.287c-.213.393-.443.66-1.011.722v-.434h-.145c-.112.434-.088.38-.578.434v-.288c-.602.329-.683.295-1.443.146v-.289h-.146c-.01.56.024.597-.433.722v.146c-.138.268-.145-.288-.145-.288h-.287c-.048.095-.095.193-.146.288-.24-.047-.48-.095-.72-.146v.288h-.432v.146c-.166.166-.058 0-.146.288l-.865.146v-.288l-1.443.146v.288h-.433v.146c-.129.27-.145-.289-.145-.289-.463.112-.311.217-.866.288v.434c-.852-.088-.787-.511-1.73-.58-.004.482-.075.655-.146 1.014h-.287c.044-.125.277-.318.145-.58h-.145v.146c-.166.166-.058 0-.145.288l-.866.146v.288c-.483-.088-.91-.396-1.443-.146-.095.146-.193.289-.287.434-.393.116-.447-.39-.579-.434-.26-.088-.104.163-.145.289a21.78 21.78 0 0 1-.433-.146v.58h-.287l-.145.287c-.237.072-.267-.142-.288-.145-.348-.061-.375.145-.578.145v-.145c-.287-.048-.578-.095-.865-.146v.288c-.957.102-1.443.125-2.163 0l-.146.434c-.27-.071-.69-.061-1.152-.146v-.146c.165-.166.057 0 .145-.288-.345.014-.358.095-.578.146v-.146c-.24-.155-.237-.206-.578-.288v-.288h-.287a21.86 21.86 0 0 0-.146-.434l-.865-.145v-.288c.115.047.453.294.72.145v-.145c-.426-.278-.352-.577-.287-1.014.192-.095.196-.227.287-.288.094.047.193.095.287.146v-.58h.146c-.048-.288-.095-.58-.146-.867a21.358 21.358 0 0 1-.432-.146c.047.095.094.193.145.288l-.433-.146v.288h-.145c-.047.095-.095.193-.145.288h-.433c.034.336.159.089 0 .434l-.287-.146v.289c-.156.254-.146-.288-.146-.288-.24.047-.48.094-.72.145 0 0-.067-.217-.287-.146-.047.095-.095.194-.145.289h-.433c-.048.145-.095.288-.146.433-.223-.118-.638-.522-1.01-.434-.048.095-.095.194-.146.289-.277-.027-.24-.282-.287-.288h-.145v.145h-.72v.146h.287c-.047.288-.095.58-.145.868h-.288c-.132-.058-.094-.44-.578-.288l-.145.288h-.72v-.146c-.21-.115-.243-.102-.578-.146v.434a21.777 21.777 0 0 1-.433-.146v.146c-.165.166-.057 0-.145.288-.537.153-.389.298-.72.58v.146h-.433v-.434h-.287v.288h-.72v-.146h-.145c-.095.193-.193.386-.288.58l-.287-.146v.146l-.433.288v-.434h-.145v.146l-.433-.146v.146c-.203-.01.058-.123-.145-.146l-.865.146v.433h-.146v-.145c-.392-.21-.706.203-.865.288-.081-.454-.142-.607-.578-.722.08.352.152.318.287.58h-.287c-.23.213-.849.159-1.298.145v-.288h-.287v.288a62.544 62.544 0 0 1-.866-.146c-.07-.342-.135-.342-.287-.58.196-.169.142.11.287-.145-.19-.118-.169-.102-.287-.288h.287c.03-.342.06-.36.145-.58-.409-.095-.544-.267-.72-.58h.433c.095-.386.193-.772.287-1.155-.189-.119-.169-.102-.287-.288-.307.176-.314.325-.72.434v-.288h-.145v.434c-.561.047-.65.233-1.01.433-.031-.342-.062-.359-.146-.58-.162.123-.02-.016-.146.146h-.145l.145.146-.145.434c-.612-.105-.693-.024-1.443 0l.145.434h-.145c-.119.19-.102.17-.288.288v-.58c-.733.041-.635.258-1.443.289-.108.491-.308.667-.865.721v-.288h-.146v.146c-.125.275-.145-.288-.145-.288a21.561 21.561 0 0 1-.433-.146l.146.288h-.288c-.23.214-.355.499-.432.868h-.433v-.288c-.926.034-1.16.529-1.876.722.091-.397.19-.329.287-.722-.923.203-1.578.84-2.163-.146.649-.38.307-.539.145-1.155h-.578c-.122-.163.017-.02-.145-.146.044-.126.277-.319.145-.58h-.145v-.146h-.433c-.243.4-.618.292-.865.58l-.146.434h-.432v.146a21.98 21.98 0 0 0-.433.145v-.288c-.45.098-.656.434-1.01.58h-.579v.146a21.565 21.565 0 0 1-.432-.146v.288l-.866.146v.145h-.578c-.047.01-.037.2-.287.146v-.146h-.287V13.8l-1.011-.146c-.105.203-.26.437-.433.58v-.58h-.145v.288a21.358 21.358 0 0 1-.433-.146c-.067.34-.24.448-.287.722h.145c.048.146.095.288.146.434-.822.01-.906-.152-1.444-.288-.213.393-.443.66-1.01.722v-.288h-.288v.58h-.287v.145h-1.01v.146h-.288v.145c-.095-.047-.193-.094-.288-.145v.145h-.145c-.213-.172.122-.104-.145-.288.017.458.28.272-.146.434v-.288c-.81.099-.466.36-.865.58h-.287a21.64 21.64 0 0 1-.146.434h-.72v-.146c.359-.264.186-.112.146-.58h-.288v.434c-1.254.003-1.473.25-2.596.288v-.288c-.192.095-.385.193-.578.288.048.193.095.387.146.58-.376-.024-.494-.03-.72-.146v-.146l-.433.146c-.024-.003-.05-.203-.287-.146v.146h-.288v.146h-.287v.145c-.2.133-.254.102-.578.146v-.434h-.145v.146h-.72c-.098.044-.007.187-.433.288a24.53 24.53 0 0 1-.145.434h.145c.213.176-.524.142-.578.146v-.146c-.578-.095-1.153-.193-1.73-.288.077-.403.11-.014 0-.434-.156.081-.302.39-.579.288v-.146h-.145l.145-.288h-.145c-.166-.166 0-.057-.287-.145a21.648 21.648 0 0 0-.146-.434h.288a22.3 22.3 0 0 0-.146-.434h.145v.146c.125.274.146-.288.146-.288h.145v-.146c-.094-.047-.193-.095-.287-.146.047-.146.095-.288.145-.434h-.145v-.145h.433v-.146c-.19-.119-.17-.102-.288-.288.247-.163.196-.092.288-.434l.578-.146c.016-.01.223-.535.287-.434v.288h.433c.135-.26.199-.227.287-.58-.196-.169-.22-.263-.287-.579h.287v-.288h.287v-.146c-.287.048-.578.095-.865.146v-.146c-.19.01-.362.248-.72.146v-.146c-.287-.047-.578-.094-.866-.145v.58h-.287v.287c-.145-.095-.287-.193-.432-.288v-.288l-.146.146c-.165.166-.057 0-.145.288h-.578v.288a65.18 65.18 0 0 1-.866-.146c-.047.241-.094.482-.145.722-.351.082-.318.15-.578.288v-.145c-.149-.126-.2-.251-.287-.434-.166.166-.058 0-.146.288-.287.047-.578.095-.865.146v.288c-.341.03-.358.06-.578.146v-.289h.145l-.145-.433h-.145v.288c-.095-.048-.193-.095-.288-.146-.165.115-.057.342-.432.288-.048-.095-.095-.193-.146-.288h-.145v.288l-.433.146c-.074-.02-.088-.366-.287-.288l-.433.58a20.75 20.75 0 0 1-.432-.146v.288h-.288v.288c-.162-.122-.02.017-.145-.146-.156-.132-.027.024-.145-.146h.145v-.146h-.433v.146h-.145v-.146h-.433c-.047-.094-.094-.193-.145-.288-.095.048-.193.095-.287.146-.197.058.06.156-.146.146v-.146h-.287c-.003.447.04.746.145 1.013h-.578v.289h-.145v-.434h-.288l-.145.434c-.162-.122-.02.017-.145-.146h-.146l.146-.434a20.75 20.75 0 0 0-.433.146v.146h-.287c-.047.094-.095.193-.145.288h-.579v.145h-.145c-.07-.064.04-.234-.145-.145l-.146.288-.72.146v-.289h-.145l-.145.288h-.146l-.145-.288c-.2-.091-.406-.07-.578-.145-.01.559.024.596-.433.722v-.288h-.287v.288h-.72l-.287.721h-.288v-.145c-.047-.007-.331.128-.578.145.081-.352.152-.318.288-.58h-.288l-.145.435-1.01-.146c-.153.075-.106.325 0 .434H8.99c-.125.149-.25.2-.433.288v-.434c-.645.054-.419.092-1.01 0v.146c.165.166.057 0 .145.288h-.72c-.037-.007-.047-.187-.287-.146v.146h-.288c-.047.146-.094.288-.145.434-.162-.122-.02.017-.145-.146-.163-.122-.02.017-.146-.146.19-.118.17-.101.287-.288H5.67c-.128.153-.253.19-.432.288v.146l-.433-.146v.146c.19.119.17.102.287.288h-.287c-.169-.197-.264-.22-.578-.288v.288c-.27-.102-.564-.142-1.01-.146-.16-.301-.234-.257-.288-.722h-.287v-.288c-.163.122-.02-.017-.146.146h-.145v.288l-.287.146v.434h-.146c-.145-.193-.287-.387-.432-.58H1.34c-.189-.322.078-.403-.287-.722.047-.193.095-.386.145-.58 0 0-.186-.07-.145-.287h.145v-.722s.088 0 .146-.289c.399-.104.32-.04.432-.433h.288v.146l.432-.146v-.288l.72.145c.105-.4.04-.322.433-.434v-.579h.145l-.145-.288h.145c.122-.163-.017-.02.146-.146v-.146c.138-.267.145.289.145.289l.433.145v-.146h-.146c.048-.145.095-.288.146-.433h.865v.145c.338-.047.673-.095 1.01-.145v-.288h.579v-.289c-.494-.006-.997-.098-1.298-.145-.095.145-.193.288-.288.434l-.865.145c.081-.352.152-.318.287-.58H4.23v.146h.146c.165.228-.355.136-.433.146v.434H3.8v.146c-.24.047-.48.095-.72.146.047-.241.094-.482.145-.722-.351.08-.321.149-.578.288v.145l-.865-.288v.146c-.166.166-.058 0-.146.288-.236.044-.628.302-.72.288v-.146H.483c-.2-.04.054-.19-.146-.145l-.145.288h-.287l.145-.288h-.145c-.166.166 0 .057-.288.146v.288c-.24.047-.48.095-.72.145-.027-.006-.047-.206-.287-.145v.145h-.287v.146c-.142-.03-.17-.39-.288-.288-.236.197.16.278-.432.434v.434h-.146v-.288h-.145c-.047.095-.095.193-.145.288h-.578c-.173-.316-.318-.478-.72-.58v.146h-.578l-.146.288-.432-.146v.434h-.288c-.355.607-.32.17-.72.434.048.095.095.193.146.288a65.18 65.18 0 0 1-.866-.146c-.013.004-.074.251-.287.288v-.146h-.578l-.145-.145v.145c-.41.265-.423.417-1.153.434-.162-.247-.091-.196-.433-.288v.288h-.287v-.145c-.183-.058-.379.41-.433.434-.297.132-.412-.126-.578-.146v.146c-.287.047-.578.094-.865.145l-.146-.434c-.398.106-.32.041-.432.434-.433.048-.866.095-1.298.146l-.146.288h-1.01v.146c-.376.112-.673.013-1.011.146-.081-.353-.152-.319-.287-.58-.163.122-.02-.017-.146.146-.507.359-.034.515-.72.722v.145h-.72l-.145.288c-.321.13-.406-.18-.578-.145v.145c-.287.058-.183-.064-.287-.145h-.146v.288a21.994 21.994 0 0 1-.432-.146v-.146l-.433.146v-.146h-.578l-.145-.288c-.203 0-.068-.044-.146.146-.179-.166-.054 0-.145-.288h.578v-.288h-.578c-.135-.261-.2-.227-.287-.58h.287c-.085-.596-.156-.691-.433-1.301-.19.074.04.057-.145.146h-.433v.145c.29.082.125-.017.288.146-.413-.014-.62-.027-.866-.146v.146c.166.166.058 0 .145.288-.706 0-.82.166-1.298.288v-.434h-.145v.146h-.145l-.288-.146v.434h-.432v-.288h-.146v.288h.146v.434c-.48-.003-.653-.075-1.011-.146v.288c-.341-.017-.365-.044-.578-.145v.145c-.166.166-.058 0-.145.288-.761-.084-.332-.311-1.011-.145v-.288c-.23-.034-.183.247-.287.288-.541.203-.987.081-1.444 0v.433l-.287-.145v.146c-.29.247.013.22-.145.433h-.146c-.348-.522-1.349-.088-2.018 0v.434c-.27-.074-.788-.518-1.01-.434v.146h-.146v.434c-.433.047-.865.095-1.298.146v.288h.145c-.047.146-.094.288-.145.434-.341-.017-.365-.044-.578-.146v.146h-.145v-.434h-.288v.434h-.145v-.146h-.578v.146l-.287-.146v.146c-.318.098-.477.044-.72.145v.434c-.72.109-.714.129-1.298-.288l-.146.434h-.578v.146c-.192.047-.385.095-.578.145v-.288h-.287c-.088.509-.156.665-.72.722v-.146c.166-.166.057 0 .145-.288a44.392 44.392 0 0 1-.578-.145v-.146c-.273-.085-.2.081-.287.146l-.433-.146v.146h.146v.58h-.288v-.289c-.395.23-.26.356-.865.434-.105.4-.04.322-.433.434-.389.46-.841.349-1.443.288v-.288h.578a21.648 21.648 0 0 0-.146-.434c-.22.085-.236.112-.578.146-.023-.393-.047-.871-.287-1.014v-.146c.105-.152.112.126.288-.145h-.288c-.257-.153.288-.146.288-.146-.082-.352-.153-.319-.288-.58h.433c.118.19.101.17.287.289-.351-.76-.53-1.461.72-1.448.166.166 0 .058.288.146.047-.24.094-.481.145-.722h-.287v.288h-.288l.145-.434h-.145c-.108.275.102.15-.145.288-.19-.169.172-.22-.145-.288v.288l-.288-.145v.146h.145c-.094.193-.192.386-.287.58h-.145v-.435h-.145v.146h-.433c-.095.146-.193.288-.287.434h-.288v.146h-.432v.145h-.288v.146c-.581.207-1.017-.2-1.298 0-.392.254-.456.8-.578.868h-1.298c-.166-.166 0-.058-.287-.146v-.288h-.146c.048.193.095.386.146.58h-.146c-.273.237-.764.152-1.152.287v.146c-.213.068-.565-.156-.578-.146v.289h-.72c-.146.339-.288.674-.433 1.013h-.145v-.434h-.288c-.03.343-.06.36-.145.58-.162-.122-.02.017-.145-.146-.166-.166-.058 0-.146-.288.247-.163.196-.092.288-.434h-.433v.868c-.24-.048-.48-.095-.72-.146v-.146c.166-.166.057 0 .145-.288h-.287l.145-.288h-.145c-.166.166 0 .058-.287.146-.038.281-.142.281-.146.288-.23.712.129.925-.72 1.013v-.288c-.2.071-.317.058-.578.146v.146a21.354 21.354 0 0 1-.432-.146v.146h-.288l.146.288h-.866v.146c.166.166.058 0 .146.288-.234-.01-1.011-.146-1.011-.146-.047.095-.095.193-.145.288-.392.213-.46.037-.72 0v.146h-.288l-.145.288c-.24.047-.48.095-.72.146v.145a35.925 35.925 0 0 1-.578-.145c-.24.047-.48.095-.72.145v.146c-.43.122-.585-.23-.865-.288v.146c-.166.166-.058 0-.146.288h-.578l-.145-.146c-.075.034-.04.258-.288.288v-.146l-.432-.145v.145c-.146.048-.287.095-.433.146v-.288c-.26.136-.226.2-.578.288v.288h-.145v-.434c-.812-.01-1.43-.345-1.73-.867l.286-.146c.01-.203-.142.061-.145-.146.047-.24.095-.481.145-.722h.288c-.318-.901.355-1.403.432-2.315a8.67 8.67 0 0 1 1.586-.145v-.434h.432c.098-.424.16-.475.578-.58v-.288c.842-.193.081-.366.866 0v-.288a1.73 1.73 0 0 0 .72-.288v-.146c.287-.027.101.22.287 0 .166-.166.058 0 .145-.288h.288c.165-.586.294-.288.578-.722l.865.288v-.145h.145v-.58c-.828.017-1.058.119-1.73 0-.081.454-.142.607-.578.722v-.288h-.287v.434c-.295.156-.568.427-1.011.434l-.146-.146c-.52.393.048.674-1.01.722l.145-.58h-.287v.146h.145c.01.05-.247.522-.287.722h-.288v-.288h-.287v.288l-.145-.146-.866.288c-.047.095-.094.193-.145.288-.19.082.03-.108-.145-.146a22.01 22.01 0 0 0-.433.146v-.146h-.433v-.145h-.145v.145s-.399-.132-.578-.145c-.095.24-.193.481-.287.722-.126-.044-.318-.278-.578-.146v.146h-.146v.433h-.145v-.433h-.145v.58c.023.203.152-.062.145.145l-.145.146c-.25-.126-.051-.017-.146-.288h-.145v.288l-.72.146.145-.289h-.145c-.223.251-.26.143-.578.289v.145c-.213.082-.551.038-.578-.145h-.146v.433h-.145v-.145h-.145v.288h-.288v.288c-.365-.116-.892-.01-1.585 0-.047.339-.095.674-.145 1.013h-.288v-.288c-.22.085-.236.112-.578.146v.434l-.865.288v.145h-.287v.146c-.707.268-.873-.224-1.298.434h-.146l.146.146a24.58 24.58 0 0 1-.146.434 35.936 35.936 0 0 1-.578-.146v.434c-.51.054-.44.18-.865.288v-.288h-.145v.433c-.288.048-.578.095-.866.146l-.145.434h-.287a24.58 24.58 0 0 1-.146.434h-.145v-.434h-.145l-.146.288-.433-.145v-.146c-.28-.071-.192.081-.287.146l-.578-.146.145-.146v-.146h-.145v-.434h.145v-.145h-.287c-.003-.482-.074-.655-.145-1.014h-.288c-.256-.152.288-.145.288-.145.047-.146.094-.289.145-.434.744.034.713.274.72-.58.24-.047.48-.095.72-.146v-.58l.433-.145c.165-.166 0-.058.287-.146v.288h.287v-.288c.146.048.288.095.433.146v-.288h-.145l.145-.434h.145V19.7h.433c-.003-.203.03-.04-.145-.145v-.146h.432v-.146h.146l.145.288c.48.095.96.194 1.444.288.013-.542.131-.664.287-1.013.145.047.287.095.433.146v-.288h.432l-.145.288h.145v-.146h.288c.158-.125.064-.35.287-.434.128.129.054.244.287.288.095-.145.193-.288.287-.434h.433V18.1h.146v-.58h.287v.288c.615-.057.652-.298 1.153-.434.115-.467.267-.498.287-1.155h1.298v.145l.433-.145v-.146c.216-.058.196.257.287.288l.432-.146v.288h.146v-.288c.162-.122.02.017.145-.145l-.287.145v-.58h.145v-.579h.72l-.145.434h.433c.23-.281.524-.386.72-.722.148.125.2.25.287.434.145-.095.287-.193.433-.288v-.146h.287l.145-.288c.095.047.193.095.288.146.192-.146-.176-.244.145-.288v.145c.145.048.287.095.433.146v-.288c-.166-.166-.058 0-.146-.288.372.068.64.139 1.153.145.206-.308.379-.29.72-.433l-.145-.434h.578v-.146h.145v.146h.287v-.288c.818-.024.538-.224 1.011-.434h.578v-.146c.166-.166.057 0 .145-.288h.433v.288h.287c.119-.464.17-.42.72-.434v.289c.338-.156.47-.333.866-.434v-.434h.287v-.288c.76.003 1.14-.17 1.73-.288.106.4.041.322.433.433a21.645 21.645 0 0 0-.145-.433h.145c.16-.204.504-.424.72-.58v-.146h.433v.146h.145v.434h.146c.047-.576.149-.668.72-.722v.146c.193.068-.054-.092.145-.146.578-.095 1.153-.193 1.73-.288-.144-.45-.08-.22 0-.722.353-.081.319-.15.579-.288v.146h.145c.115.213-.145.288-.145.288l.145.288c.331-.278.183-.434.72-.58.048-.146.095-.288.146-.434.412.17.68.275 1.298.288.145-.288.287-.58.432-.867h.288l.145.288 1.01-.288V7.69h1.011l.146-.288h.287c.091-.397.19-.329.287-.722.193.048.386.095.578.146V6.68c.16-.129.03.024.146-.146H-46c-.142-.24.207-.122.288-.145v-.146c.145.047.287.095.433.146-.048.095-.095.193-.146.288h.145c.453-.522.849 0 1.444.145.098-.19.179-.155.287-.288l-.145-.288h.287v-.145l.287-.146c.02-.204-.03.023-.145-.146l.145-.288c.487.102.555.315 1.011.434v-.434c.396.091.328.19.72.288v-.434c.16.048.284.258.578.146v-.146h.433V5.23c.287-.24.578-.48.865-.721V4.22h.288v.146c.199.04-.027-.03.145-.146l.287.146-.145.434c.804.061 1.213.258 1.73-.288-.283-.163-.337-.203-.432-.58l.432-.145c.048.094.095.193.146.288h.287v-.58c.315.061.413.095.578.288l.866-.288-.146-.288h.72v-.288l.071.034Zm-1.44 2.169v.288h.146v-.288h-.146Zm128.502.288v.288h.145V5.41h-.145Zm-128.07.434v.288h.146v-.288h-.145Zm-2.017.288v.288h.145v-.288h-.145Zm126.48.434c.166.166 0 .057.287.146-.165-.167 0-.058-.287-.146Zm-11.392.146c.166.166 0 .057.288.145-.166-.166 0-.057-.288-.145ZM-44.2 7.145c.013.492 0 .526.287.722v-.145h-.145v-.58h-.146l.004.003Zm119.415.146c.166.166 0 .058.287.146-.165-.166 0-.058-.287-.146Zm-15.722.142v.289h.146v-.289h-.146Zm10.097.146-.145.288s.419-.23.287-.288h-.145.003Zm14.853 0h.287c-.121.163.017.02-.145.146v.146c-.166-.166-.057 0-.145-.288l.003-.004Zm-127.636.146c.166.166 0 .058.287.146-.165-.166 0-.058-.287-.146Zm80.91.142v.288h.146v-.288h-.145Zm-79.321.58v.146h-.146c-.273.125.288.145.288.145.121-.162-.017-.02.145-.145-.166-.166 0-.058-.287-.146Zm110.761 0v.146h-.145c-.274.125.288.145.288.145.121-.162-.017-.02.145-.145-.166-.166 0-.058-.288-.146Zm36.92 0v.146h-.145c-.274.125.287.145.287.145.122-.162-.017-.02.145-.145-.165-.166 0-.058-.287-.146Zm-96.629.146v.288h.146v-.288h-.146Zm-35.621.142v.288h.145v-.288h-.145Zm36.92 0v.288h.145v-.288h-.146Zm26.68 0c.243.312.287.288.287.288.105-.139-.25-.254-.287-.288Zm36.923 0c.243.312.287.288.287.288.105-.139-.25-.254-.287-.288Zm10.239 0v.288h.145v-.288h-.145Zm26.68 0c.243.312.287.288.287.288.105-.139-.25-.254-.287-.288Zm-158.356.291h-.287v.146h.145v.146h.145V9.03l-.003-.004Zm1.876.868h.287a36.088 36.088 0 0 0-.145-.58h-.145v.58h.003Zm110.762 0h.287l-.145-.58h-.146v.58h.004Zm36.919 0h.288l-.146-.58h-.145v.58h.003Zm-149.266-.291v.58h.145v-.58h-.145Zm36.92 0v.58h.144v-.58h-.145Zm73.841 0v.58h.146v-.58h-.146Zm21.343.291v.434h.146c.145-.261.318-.43.578-.58v-.145h-.288c-.162.247-.09.196-.432.288l-.004.003Zm15.577-.291v.58h.145v-.58h-.145Zm-82.638.145v.289h.145v-.289h-.145Zm36.92.289h.287V9.89c-.162-.122-.02.017-.146-.146h-.145v.288l.004.004Zm-80.62-.143v.434h.145v-.434h-.145Zm36.92 0v.434h.145v-.434h-.146Zm63.17.576c.105.4.04.322.433.434.09-.396.189-.329.287-.722h-.145c-.183.275-.146.24-.578.288h.003Zm1.298-.288v.288c.379-.01.49-.057.72-.145v-.146h-.72v.003Zm-76.148.146v.434h.146v-.146c.162-.122.02.017.145-.146l-.287-.145-.004.003Zm36.92 0v.434h.145v-.146c.162-.122.02.017.145-.146l-.287-.145-.003.003Zm36.92 0v.434h.145v-.146c.162-.122.02.017.145-.146l-.287-.145-.004.003Zm36.922 0v.434h.145v-.146c.163-.122.021.017.146-.146l-.288-.145-.003.003Zm-92.447.142v.288h.145v-.288h-.145Zm66.92 0c.243.312.286.288.286.288.105-.138-.25-.254-.287-.288Zm-76.294.292v.434H8.44v.288l.287-.146.146-.434c.162-.122.02.017.145-.146H8.73l-.004.004Zm6.058 0v.288h.145v-.288h-.145Zm36.92 0v.288h.144v-.288h-.145Zm22.644.288h-.433v.288h.287c.135-.261.2-.227.288-.58h-.146v.289l.004.003Zm14.275-.288v.288h.145v-.288h-.145Zm-91.866.576v-.288c-.163.122-.02-.017-.146.146h-.145c.166.166 0 .057.287.145l.004-.003Zm36.486-.288v.434h.146c.165-.166 0-.058.287-.146v-.288h-.433Zm20.478.288v-.288h-.433v.146h.146c.165.166 0 .057.287.145v-.003Zm16.875 0v-.288c-.163.122-.02-.017-.146.146h-.145c.165.166 0 .057.287.145l.004-.003Zm11.395-.288v.288c.162-.122.02.017.145-.146h.145c-.165-.166 0-.057-.287-.146l-.004.004Zm20.477.146v.288h.146v-.288h-.146Zm-95.472.576h.287c-.122-.163.017-.02-.146-.146v-.288h-.145v.434h.003Zm-40.672-.288v.288h.145v-.288h-.145Zm36.923 0v.434h.145v-.434h-.145Zm73.839 0v.288h.145v-.288h-.145Zm28.124 0c.165.166.057 0 .145.288h-.145v-.288Zm8.798 0v.288h.146v-.288h-.146Zm-167.875.146v.287h.146v-.287h-.145Zm36.92 0v.287h.145v-.287h-.145Zm73.842 0v.287h.146v-.287h-.146Zm36.92 0v.287h.145v-.287h-.145Zm-101.818.142c.014.03.206.525.288.434v-.146h.145c-.125-.15-.25-.2-.433-.288Zm37.207.725h.287v-.288h-.287l.145-.288a20.94 20.94 0 0 1-.432-.146v.146c.196.17.22.264.287.58v-.004Zm-38.072-.58.145.434h.146c-.088-.345-.048-.267-.288-.434h-.003Zm36.92 0c.047.146.094.289.145.434h.145c-.088-.345-.047-.267-.287-.434h-.004Zm2.74 0h-.287c.122.163-.017.02.146.146v.146h.145v-.288l-.003-.003Zm56.969.58h.287v-.288h.145c-.047-.095-.094-.193-.145-.288-.162.122-.02-.017-.145.146h-.146v.434l.004-.004Zm-120.426-.434c.165.166 0 .058.287.146-.166-.166 0-.058-.287-.146Zm24.517 0v.434h.145v-.434h-.145Zm36.92 0v.434h.145v-.434h-.146Zm2.74 0h-.287c.122.163-.017.02.146.146v.146h.145v-.288l-.003-.004Zm16.73 0v.434h.145v-.434h-.145Zm36.922 0v.434h.146v-.434h-.146Zm-145.953.143v.288h.145v-.288h-.145Zm6.777 0v.288h.146v-.288h-.146Zm36.923 0v.288h.145v-.288h-.145Zm9.66.291v-.288c-.161.122-.02-.017-.144.146h-.146c.166.166 0 .057.287.146l.004-.004Zm27.26-.291v.288h.145v-.288h-.146Zm11.104 0v.867h.145v-.867h-.145Zm18.46 0v.288h.145v-.288h-.146Zm.577 0v.288h.146v-.288h-.146Zm6.778 0v.288h.145v-.288h-.145Zm29.567 0v.288h.146v-.288h-.146Zm.578 0v.288h.146v-.288h-.146Zm6.778 0v.288h.145v-.288h-.145Zm-151.288.145c.165.166 0 .058.287.146-.166-.166 0-.057-.287-.146Zm36.92 0c.165.166 0 .058.287.146-.166-.166 0-.057-.288-.146Zm110.76 0c.167.166.001.058.288.146-.165-.166 0-.057-.287-.146Zm-100.522.288.146.434h.145c-.088-.345-.048-.268-.288-.434h-.003Zm36.923 0c.047.146.095.289.145.434h.146c-.088-.345-.048-.268-.288-.434h-.003Zm9.373.146v.288h.146v-.288h-.145Zm-91.149.722c-.105-.4-.04-.322-.433-.434.048.194.095.387.146.58h.432v.146c.203.027-.054-.102.146-.146h.578v-.58c-.162-.122-.02.017-.146-.145h-.287v.145h.146c.047.261-.359.38-.579.434h-.003Zm18.75-.576-.145.288s.42-.23.288-.288h-.146.004Zm110.762 0-.145.288s.42-.23.287-.288H74.2h.003Zm-135.424.722h.287v-.146c-.162-.122-.02.017-.145-.146h-.145v.288l.003.004Zm5.047-.288v.288c.162-.122.02.017.145-.146h.146c-.166-.166 0-.057-.288-.146l-.003.004Zm31.872.288h.288v-.146c-.163-.122-.02.017-.146-.146h-.145v.288l.003.004Zm5.05-.288v.288c.163-.122.02.017.146-.146h.145c-.165-.166 0-.057-.287-.146l-.003.004Zm36.92 0v.288c.162-.122.02.017.145-.146h.146c-.166-.166 0-.057-.287-.146l-.004.004Zm68.796.288h.287v-.146c-.162-.122-.02.017-.145-.146h-.146v.288l.004.004Zm5.046-.288v.288c.163-.122.02.017.146-.146h.145c-.166-.166 0-.057-.287-.146l-.004.004Zm-149.99.867v-.288l-.432.146.145.58h-.145v.145c-.338.048-.673.095-1.01.146v.288c.188.027.895.176 1.01.146l.145-.288.433.146c.047-.241.095-.482.145-.722h.145c.166-.166 0-.058.288-.146v.288h.72v-.288h.287c-.094-.288-.192-.58-.287-.868h-.145l-.146.434c-.206.146-.831.261-1.153.288v-.007Zm16.297-.725v.434h.145v-.434h-.145Zm-19.325.292v.288h.145v-.288h-.145Zm22.499 0v.288h.145v-.288h-.145Zm14.42 0v.288h.145v-.288h-.145Zm36.92 0v.288h.145v-.288h-.145Zm42.835 0c.165.166 0 .057.287.145-.166-.166 0-.057-.288-.145Zm16.587 0v.288h.145v-.288h-.145Zm14.42 0v.288h.145v-.288h-.145Zm-131.098.142c.166.166.058 0 .146.288h-.146v-.288Zm36.778.146c.162.247.091.196.433.288-.126-.15-.25-.2-.433-.288Zm16.442.288h.287v-.146c-.162-.122-.02.017-.146-.146h-.145v.288l.004.004Zm-53.507-.143h.287v.146c-.29-.081-.125.017-.287-.146Zm40.239 0c.166.167.057 0 .145.289h-.145v-.289Zm38.795.577h-.287v-.58h-.145v.146c-.166.166-.058 0-.146.288.146.095.288.193.433.288.122.163-.017.02.145.146v-.288Zm-40.093-.434v.288h.145v-.288h-.145Zm-47.307.291v.288h.145v-.288h-.145Zm36.923 0v.288h.145v-.288h-.145Zm31.872.143c.166.166 0 .057.288.145-.166-.166 0-.057-.288-.145Zm-51.2.434v-.289c-.163.122-.021-.017-.146.146h-.146c.166.166 0 .058.288.146l.003-.004Zm73.841 0v-.289c-.162.122-.02-.017-.145.146h-.145c.165.166 0 .058.287.146l.004-.004Zm-86.677.291v.288h.146v-.288h-.146Zm2.887 0v.288h.145v-.288h-.145Zm-10.817.142v.288h.146v-.288h-.146Zm11.537.292c-.007.586-.067.623.287.867v-.145c-.243-.312.112-.699.288-1.014h-.146c-.162.248-.09.197-.432.288l.003.004Zm2.596-.292c.166.166 0 .058.288.146-.166-.166 0-.058-.288-.146Zm7.498 0a24.58 24.58 0 0 1-.146.434h.146v-.146c.06-.084.236-.02.145-.288h-.145Zm15.289 0v.288h.145v-.288h-.145Zm48.46.292c-.008.586-.068.623.287.867v-.145c-.244-.312.111-.699.287-1.014h-.145c-.163.248-.092.197-.433.288l.003.004Zm2.595-.292c.166.166 0 .058.288.146-.166-.166 0-.058-.288-.146Zm-64.468.146v.288h.145v-.288h-.145Zm16.154.288h.287v-.146c-.162-.122-.02.017-.145-.145h-.145v.288l.003.003Zm20.768-.288v.288h.146v-.288H3.68Zm12.835 0c.166.166.058 0 .146.288h-.146v-.288Zm-31.73.146c-.048.095-.095.193-.146.288l.288.146c.104-.173-.305-.126 0-.434h-.146.004Zm-17.74.142-.145.434h.145v-.288h.145v-.146h-.145Zm36.923 0-.146.288s.42-.23.288-.288h-.146.004Zm-75.718.58h.287v-.146c-.162-.122-.02.017-.146-.146h-.145v.288l.004.004Zm81.197 0H9.16c.122.162-.017.02.145.145v.146h.146v-.288l-.004-.003Zm-76.293.288v.288h.146v-.288h-.146Zm20.769 0v.58h.145v-.146h.145c-.047-.095-.094-.194-.145-.288h.145c-.165-.167 0-.058-.287-.146h-.003Zm53.073 0v.288h.146v-.288h-.146Zm21.776 0c-.165.166 0 .057-.287.145v.146h.287c.048-.095.095-.193.146-.288h-.146v-.003Zm-67.206.434-.146.288s.42-.23.288-.288h-.146.004Zm-5.48.291v.288h.145v-.288h-.145Zm3.174 0v.288h.146v-.288h-.146Zm-6.78.288h.287c-.119.19-.102.17-.288.288v.146h-.145l.145-.434Zm5.05 0-.146.288s.42-.23.288-.288h-.146.003Zm-11.108.58v.288h.145v-.288h-.145Zm-11.104.722v.288h.145v-.288h-.145Zm3.174.146v.433h.578v.288h.432c.119-.19.102-.17.288-.288v-.433c-.602.105-.605.037-1.298 0Zm-11.682.288c.165.166 0 .057.287.145-.166-.166 0-.057-.287-.145Zm29.854.145v.288h.145v-.288h-.145Zm-35.77 2.312a22.3 22.3 0 0 1-.145.434h.145v-.288h.145v-.146h-.145Zm18.605.145v.289h.145v-.288h-.145Z" fill="#9FCCB9"/></g></svg>