<svg width="156" height="193" viewBox="0 0 156 193" fill="none" xmlns="http://www.w3.org/2000/svg">
<path d="M100.717 119.043C100.451 118.722 99.6902 119.648 99.3234 118.602C98.3512 115.842 97.911 114.246 98.1128 112.183C98.3146 110.129 101.286 106.011 101.992 105.094C102.313 104.673 103.597 101.362 104.945 96.7402C106.734 97.0795 108.384 97.6023 110.127 98.1892C108.962 100.427 108.036 102.178 107.761 102.71C106.715 104.737 105.771 105.782 105.991 106.846C106.211 107.91 104.954 111.477 104.367 112.577C104.037 113.21 103.047 117.667 102.607 119.171C102.359 120.005 101.479 119.96 100.727 119.033L100.717 119.043Z" fill="#FFDBB0"/>
<path d="M101.617 59.8023C101.892 62.3975 102.534 66.6801 102.928 71.9805C103.322 77.2718 102.717 83.7644 103.176 87.9094C103.561 91.385 100.259 99.73 101.479 101.041C103.487 103.196 110.457 105.122 111.65 102.894C112.842 100.665 115.153 96.3095 116.254 90.6239C117.648 83.4343 117.519 74.0163 116.648 69.5504C115.804 65.2403 115.988 56.6477 111.815 54.5018C107.642 52.356 101.075 54.7953 101.617 59.8115V59.8023Z" fill="#F2A096"/>
<path d="M116.712 22.5611C116.015 26.9721 113.603 29.8607 111.053 30.7319C108.504 31.6031 105.817 31.5114 103.084 30.6585C100.773 29.5856 98.5991 27.4948 97.9388 26.4952C97.3426 25.5782 96.8657 24.4044 96.5998 23.2306C95.9761 20.4795 94.3437 21.0847 94.1969 15.1423C94.1511 13.3357 93.3991 9.66759 100.131 6.89814C106.046 4.468 121.729 7.71432 116.712 22.5611Z" fill="#FFDBB0"/>
<path d="M95.9393 14.0414C94.7562 15.8113 95.7558 19.9379 94.0408 19.0209C90.7301 17.251 89.1068 9.84136 92.335 7.64964C95.655 5.38457 92.014 5.07279 99.4243 1.38631C104.826 -1.3006 118.766 3.18369 117.877 10.2082C117.29 14.8575 120.408 18.3881 116.51 23.6519C115.786 24.6331 114.804 20.0663 115.217 19.4427C117.115 16.2331 116.345 15.3803 115.52 14.5366C114.703 13.6929 112.759 13.5553 112.521 14.6099C111.319 19.8737 110.76 14.4265 108.504 15.6003C103.771 18.0763 96.4528 12.9409 95.9484 14.0414H95.9393Z" fill="#003F67"/>
<path d="M118.372 188.883C119.922 187.187 124.801 185.114 126.37 182.712C128.167 179.951 125.691 174.642 125.636 172.771C125.581 170.909 132.257 170.506 132.257 170.506C132.578 171.781 133.982 179.245 134.138 179.539C135.1 181.354 137.797 185.82 136.091 187.618C134.11 189.709 124.297 192.368 122.509 192.845C120.72 193.322 116.382 191.047 118.363 188.874L118.372 188.883Z" fill="#003F67"/>
<path d="M105.083 184.445C107.064 183.335 108.293 182.712 110.274 181.923C110.98 181.639 107.165 175.366 107.56 174.394C107.954 173.422 116.557 173.661 116.557 173.661C116.85 175.238 117.831 179.255 118.363 181.85C118.363 181.868 120.601 185.188 119.124 186.82C117.611 188.489 111.366 190.956 105.643 189.727C99.9201 188.498 102.405 185.94 105.093 184.436L105.083 184.445Z" fill="#003F67"/>
<path d="M140.979 87.9807C146.307 86.0182 149.746 88.6776 150.819 94.3907C152.332 102.525 153.506 109.32 151.149 117.427C148.334 127.101 135.375 134.291 132.816 140.398C131.046 144.635 139.034 178.694 136.65 179.702C135.733 180.088 128.185 182.133 125.424 182.509C119.005 183.38 122.004 179.042 120.206 179.693C118.922 180.152 112.365 183.013 108.311 182.325C106.835 182.078 105.798 172.33 104.725 168.12C103.661 163.966 98.1311 147.166 98.8281 139.546C99.25 134.933 107.99 119.893 110.246 116.629C114.768 110.1 113.575 92.575 116.061 92.2357C121.582 91.4929 135.054 90.1632 140.979 87.9807Z" fill="#A2A2A2"/>
<path d="M108.256 25.6229C108.54 25.5221 112.374 24.5133 112.722 24.3574C113.071 24.9076 114.29 26.9618 114.896 27.5762C115.501 28.1906 122.123 37.0675 124.654 37.3977C132.018 39.6627 105.459 49.6217 108.76 45.8619C108.283 41.6527 109.338 33.4269 109.164 31.8588C109.035 30.7125 108.403 26.0264 108.265 25.6229H108.256Z" fill="#FFDBB0"/>
<path d="M114.208 94.6306C113.96 92.6865 110.007 84.1856 107.238 76.6109C104.266 68.4768 99.6073 57.7475 100.634 46.9448C100.91 44.0195 105.651 35.6194 108.292 35.2068C109.521 35.0142 108.558 37.4718 110.493 37.3801C111.805 37.316 114.052 35.8854 115.354 33.3085C116.06 31.9238 115.767 29.6129 116.592 29.0076C119.16 27.1552 125.369 27.9347 128.12 29.2644C131.404 30.8417 137.988 35.1059 140.657 38.8932C144.601 44.478 146.389 55.2623 145.344 64.8637C144.986 68.11 151.195 83.883 151.727 90.3664C152.525 95.4743 141.739 95.3367 133.779 97.4734C127.423 99.1791 125.02 103.929 118.601 104.736C113.621 105.36 114.529 97.1983 114.208 94.6306Z" fill="#F2A096"/>
<path d="M117.749 169.525C117.749 169.525 117.795 169.525 117.813 169.525C117.969 169.488 118.061 169.342 118.024 169.186C117.281 165.875 115.841 156.806 114.686 149.515C113.952 144.894 113.319 140.904 113.016 139.318C112.393 136.099 113.869 133.779 116.804 129.157C117.474 128.103 118.216 126.938 119.023 125.617C119.106 125.48 119.06 125.306 118.932 125.223C118.803 125.141 118.62 125.186 118.537 125.315C117.73 126.635 116.997 127.8 116.327 128.845C113.411 133.44 111.797 135.971 112.457 139.419C112.76 140.987 113.392 144.976 114.126 149.598C115.282 156.897 116.722 165.976 117.464 169.296C117.492 169.424 117.611 169.516 117.74 169.516L117.749 169.525Z" fill="#003F67"/>
<path d="M119.711 43.2212C115.345 44.4501 105.908 46.6234 106.119 49.2828C106.33 51.9422 107.476 64.1388 108.403 69.4301C109.329 74.7306 112.53 90.5494 113.218 96.4276C113.905 102.306 104.798 109.184 101.928 115.603C100.029 119.858 98.5438 128.57 97.6175 132.229C96.8012 135.429 110.576 135.695 117.299 135.099C124.021 134.503 130.514 134.292 139.658 134.714C145.381 134.98 155.24 123.48 155.57 115.328C155.762 110.596 154.9 99.7931 153.635 93.7132C150.104 76.8764 149.233 73.1533 145.197 73.5384C139.264 74.0978 129.927 69.1275 128.46 64.0563C126.993 58.9851 124.535 41.864 119.72 43.2121L119.711 43.2212Z" fill="#003F67"/>
<path d="M120.609 119.603C120.362 119.181 119.261 119.997 119.041 118.768C118.454 115.531 118.261 113.697 118.931 111.523C119.6 109.35 123.993 105.654 125.011 104.847C125.479 104.471 126.8 98.1989 128.643 99.0334C130.707 99.8587 132.935 101.775 132.504 102.28C130.835 104.205 129.368 106.553 129.413 107.754C129.459 108.956 127.222 112.495 126.286 113.541C125.754 114.137 123.663 118.704 122.819 120.226C122.361 121.061 121.315 120.795 120.609 119.603Z" fill="#FFDBB0"/>
<path d="M127.716 52.8232C127.551 55.4276 129.762 68.2569 129.386 73.5482C129.01 78.8487 128.523 85.057 127.313 89.3396C126.359 92.7051 122.709 100.61 123.727 102.086C125.396 104.507 132.018 107.433 133.522 105.406C135.026 103.379 137.951 99.3994 139.868 93.9431C142.289 87.0378 143.096 77.7024 143.326 73.1539C143.637 66.9822 145.096 53.0433 141.271 50.3106C137.456 47.5778 128.001 48.5682 127.726 52.8324L127.716 52.8232Z" fill="#F2A096"/>
<path d="M117.215 29.3196C116.592 32.6576 115.684 41.617 117.325 44.9183C118.729 47.7612 117.848 46.5048 119.967 46.2114C122.901 45.7987 120.59 42.9925 120.682 40.3423C120.893 34.079 122.269 29.3196 122.113 28.1366C122.03 27.5405 121.241 27.6872 120.132 27.7423C118.664 27.8065 117.454 28.0907 117.225 29.3196H117.215Z" fill="#003F67"/>
<path d="M107.312 35.6572C107.339 38.0598 108.642 47.0009 109.375 48.4315C110.109 49.8621 108.137 50.2381 107.514 50.2748C106.89 50.3114 106.853 51.7695 106.11 49.2935C105.368 46.8175 104.084 40.7376 104.212 39.1603C104.34 37.5738 104.643 37.2712 105.523 36.2074C106.404 35.1437 107.293 34.8227 107.303 35.6572H107.312Z" fill="#003F67"/>
<path d="M67.8791 177.329C69.6876 178.556 69.9658 176.95 72.3686 179.63C75.5428 183.184 72.1536 186.155 67.8539 186.535C64.8441 186.8 57.4081 185.789 58.4451 182.299C58.875 180.832 59.305 179.719 59.3176 178.707C62.4919 179.845 65.1982 179.011 67.8918 177.316L67.8791 177.329Z" fill="#003F67"/>
<path d="M54.9284 142.806C58.5579 141.099 63.022 145.361 63.7681 147.46C65.0834 151.165 65.703 155.325 66.2215 157.26C67.0435 160.295 66.2595 165.757 66.1456 169.576C66.0824 171.663 65.9813 176.013 67.8276 177.303C67.8403 177.303 67.8529 177.315 67.8782 177.328C65.1972 179.022 62.4782 179.857 59.304 178.719C59.304 178.226 59.2155 177.758 58.9752 177.303C58.0647 175.57 55.9654 173.205 55.6619 168.868C55.3584 164.518 55.3457 165.176 55.2066 161.268C55.0675 157.361 53.0441 152.316 51.8175 149.192C50.1608 144.994 51.1598 144.577 54.9158 142.806H54.9284Z" fill="#FFDBB0"/>
<path d="M24.7544 179.199C25.235 178.554 25.5258 177.909 25.4499 177.037C25.2729 175.09 24.2865 171.992 25.5891 168.147C26.8916 164.303 26.6513 164.86 27.9413 161.471C29.2312 158.082 29.345 154.238 28.738 150.899C27.486 143.932 33.9229 141.023 37.9318 141.023C43.6985 141.023 43.1294 152.657 41.3842 155.78C39.6517 158.904 38.64 162.52 38.3997 164.442C38.0203 167.439 35.6681 173.028 34.7197 174.622C33.6953 176.341 32.0639 179.629 33.2274 181.678C33.4424 182.057 33.6447 182.323 33.8471 182.525C30.5084 183.802 26.8537 182.184 24.7544 179.174V179.199Z" fill="#FFDBB0"/>
<path d="M24.7543 179.199C26.8663 182.209 30.5084 183.815 33.847 182.55C34.7069 183.448 35.4404 183.145 36.3762 186.066C37.8938 190.744 33.8343 191.478 29.9014 189.53C27.1571 188.165 20.9731 183.41 23.1483 180.995C23.7679 180.299 24.337 179.756 24.7417 179.199H24.7543Z" fill="#003F67"/>
<path d="M57.4192 68.6036C58.1021 66.7701 68.5858 51.0395 68.4846 50.1669C68.3708 49.2944 68.0294 46.0193 68.5226 44.8559C69.3699 42.8074 70.7989 45.2227 71.6462 44.6916C72.4935 44.1605 73.7708 42.2131 74.7445 41.7073C75.7183 41.2015 76.0471 42.5672 76.6668 43.3259C77.2864 44.0846 78.4878 42.251 79.0695 43.1362C79.4742 43.7432 79.0443 45.4123 80.1192 45.7158C81.1815 46.0193 81.3332 46.3607 80.9791 47.4482C80.625 48.5357 80.0307 48.953 80.3342 49.8761C80.6377 50.7992 80.41 51.0015 79.7777 51.6338C79.1454 52.266 76.8312 52.9236 74.8963 53.6317C72.9614 54.3398 67.8397 70.9303 64.2102 76.3425C63.0214 78.1128 56.0154 72.3972 57.4318 68.6163L57.4192 68.6036Z" fill="#FFDBB0"/>
<path d="M27.5744 74.6988C26.6007 73.0044 13.6762 59.1958 13.6509 58.3233C13.613 57.4508 13.4233 54.163 12.753 53.0882C11.5769 51.2167 10.5652 53.8216 9.64204 53.4422C8.71886 53.0629 7.13808 51.3431 6.10108 51.0017C5.05145 50.6603 4.95028 52.0639 4.46973 52.9111C3.98917 53.7584 2.49692 52.1524 2.06695 53.1135C1.77608 53.771 2.45897 55.3517 1.45991 55.8322C0.460857 56.3127 0.37233 56.6668 0.903473 57.6784C1.43462 58.69 2.07959 59.0061 1.92784 59.9672C1.77608 60.9282 2.04164 61.0799 2.76247 61.611C3.48331 62.1295 5.87345 62.4077 7.89685 62.787C9.92025 63.1664 15.8261 77.0255 20.2902 81.7548C21.7572 83.3102 29.5978 78.2015 27.5744 74.6988Z" fill="#FFDBB0"/>
<path d="M61.8459 118.096C59.5949 116.617 49.1744 116.769 44.1918 116.655C34.6438 116.44 31.672 114.986 28.8518 120.411C24.0589 129.629 26.3226 132.031 25.3741 135.167C23.6669 140.858 22.5793 146.434 25.9559 147.61C29.1933 148.736 37.818 148.091 42.3075 148.192C46.9107 148.293 45.5322 141.541 46.4301 141.794C47.6189 142.122 47.5177 143.969 47.5177 147.105C47.5177 149.709 52.5256 148.053 59.7846 146.46C68.9658 144.436 66.2721 143.69 65.3236 133.435C64.5143 124.697 64.6154 121.081 61.8459 118.096Z" fill="#003F67"/>
<path d="M23.1359 89.7853C21.1884 86.3079 18.4315 83.6398 16.484 80.4911C15.1941 78.4173 18.8741 76.7355 22.3392 74.1306C26.0572 71.336 25.5387 70.3497 29.5729 74.0547C32.2918 76.5458 37.3376 77.3045 39.9554 76.2297C41.8018 75.471 43.3067 76.4952 46.3544 75.4077C48.5675 74.6111 51.4382 70.7164 55.5609 65.9491C57.2428 64.0018 61.5426 68.0356 65.8929 71.2854C67.4484 72.4488 69.2062 75.1801 67.4104 77.7977C66.1711 79.6059 60.9735 85.1193 61.3655 89.3427C61.6564 92.6052 64.0212 108.488 64.8812 114.266C66.3861 124.294 55.9909 122.448 45.0898 121.55C36.4777 120.842 22.6427 124.888 24.7546 116.315C26.0445 111.08 24.7167 92.6052 23.1359 89.798V89.7853Z" fill="#F2A096"/>
<path d="M35.3139 75.6861C39.0318 77.7346 42.9142 77.5955 45.4308 76.1919C47.9601 74.7756 49.895 72.7018 51.2987 70.1475C52.2472 67.7828 52.3484 64.925 52.1081 63.8502C51.8931 62.8639 51.3872 61.827 50.7423 60.9418C49.2121 58.868 50.8687 57.9828 46.6702 54.4169C45.3929 53.3294 38.7283 48.8024 31.735 52.2546C25.5762 55.2894 27.549 71.4247 35.3265 75.7114L35.3139 75.6861Z" fill="#FFDBB0"/>
<path d="M47.3277 51.3428C46.6195 50.4577 43.8247 48.9782 41.2575 49.2943C38.0959 49.6863 37.0589 47.8401 33.9606 48.877C29.6356 50.3186 26.3222 53.3661 25.4243 54.9214C23.4768 58.2724 24.0838 60.3083 23.8436 62.4074C23.4009 66.2136 24.4127 73.3455 31.5578 74.3318C32.9109 74.5215 35.1873 76.001 35.0482 75.2802C34.5676 73.3708 33.0374 72.0809 31.6463 71.2211C30.2299 70.3359 30.0655 67.4022 32.1395 67.6425C33.8594 67.8322 33.9859 66.8585 34.0491 63.3811C34.125 59.1449 52.2218 60.6118 47.3277 51.3302V51.3428Z" fill="#003F67"/>
</svg>
