<svg width="255" height="21" viewBox="0 0 255 21" fill="none" xmlns="http://www.w3.org/2000/svg">
<path fill-rule="evenodd" clip-rule="evenodd" d="M62.8513 0.628461C63.7334 0.760952 63.8639 1.09987 64.8894 1.15533C65.0371 0.955055 65.2587 0.65617 65.8149 0.760931V0.893439C66.2885 1.01669 66.0234 0.760964 66.3711 1.02595H66.5579V1.55282L66.9273 1.68529V1.94722H67.1141C67.1749 2.07971 67.2357 2.20909 67.3009 2.34158H66.5579V2.73599C66.0451 2.8315 66.1451 2.77297 66.0017 3.13039C65.3542 3.24131 65.137 3.46317 64.3332 3.52479C64.3462 3.86988 64.407 3.97156 64.52 4.18109C63.8856 4.14719 63.0643 4.07631 63.0383 4.04858V4.31047H63.2251C63.8117 4.31355 62.6689 4.44298 62.6689 4.44298C62.4342 4.23654 62.1736 4.12253 61.7434 4.04858C61.4653 4.406 61.1003 4.60936 60.4442 4.70487V4.44298L60.0748 4.57545C59.9661 4.77573 59.9314 4.79116 59.888 5.10236C59.4969 5.12393 58.7669 5.21944 58.5887 5.36425C58.3628 5.54913 58.7538 5.50908 58.2193 5.75866V5.23175H58.0325V5.75866H57.4763V5.49672C57.1939 5.57375 57.1722 5.59842 56.7333 5.62923V5.36734L56.1771 5.49981C56.0554 5.72474 55.999 5.91271 55.9903 6.28861H55.0647C55.0647 6.28861 54.8778 6.49813 54.6953 6.55051V6.68301H54.5085V6.42108H54.1392V6.28861H53.9522V6.42108H53.396V6.55359C53.0745 6.75695 53.0051 7.16983 52.8399 7.47486C52.1577 7.42865 51.6189 7.24379 51.1713 7.60737C51.1105 7.73986 51.0497 7.86924 50.9845 8.00174C50.4891 8.04487 49.9937 8.08803 49.5027 8.13424V8.26675L49.1334 8.39922V8.66112L48.5772 8.52865L48.3904 8.79054H47.8342C47.8038 8.80286 47.6169 8.98773 47.4648 9.05243V9.18494C47.1563 9.1418 46.8478 9.09865 46.5393 9.05243V8.91996C46.4307 8.91072 45.9048 9.1418 45.6137 9.18186C45.4877 9.43143 45.3747 9.98602 45.2443 10.2325L44.6882 10.1V9.96754C44.4318 9.93365 44.762 10.0631 44.5013 10.1C44.0581 10.1617 44.0233 10.0014 43.7583 9.96754L43.389 10.3619H42.6458V10.4944L42.0897 10.6269V11.0213H42.459V11.1538H42.2722C42.1723 11.2155 40.7861 11.4866 40.7904 11.1538H40.6036V11.4157L39.6781 11.2832C39.6868 11.7546 39.6346 12.1121 39.3087 12.3339V12.2014H39.1219V11.6745H38.7525C38.7395 12.0196 38.6787 12.1213 38.5657 12.3308C38.179 12.2507 37.8096 12.1829 37.4533 12.4633V12.7252H37.2665V12.8577L36.154 12.7252C36.0932 12.8115 36.0324 12.9009 35.9672 12.9871C35.7195 13.0303 35.4719 13.0734 35.2242 13.1196V13.3815H34.4812V13.6434C34.038 13.5818 33.8989 13.4924 33.5556 13.3815V14.0378C33.1211 14.081 32.6909 14.1241 32.2563 14.1703V14.3028C31.7132 14.3922 31.648 14.4476 31.5133 14.8297C31.774 14.8389 31.4872 14.8081 31.7001 14.6972C31.9913 14.5462 31.8739 15.0207 31.887 15.0916C31.5698 15.2395 31.635 15.1748 31.5177 15.486C31.7654 15.4428 32.013 15.3997 32.2607 15.3535L32.4475 15.0916C32.4823 15.0885 32.882 15.2148 33.1905 15.2241V14.9622C33.3774 15.0053 33.5599 15.0484 33.7467 15.0946L33.9337 14.8328C34.1596 14.7557 34.4768 14.7619 34.6767 14.7002V14.1734C35.1156 14.121 35.6978 13.9238 36.3452 14.0409V14.1734H37.0883V14.0409H37.4576V13.514H37.827V13.7759C38.3832 13.6896 38.9393 13.6003 39.4955 13.514L39.6825 13.6465C40.1908 13.3938 39.8518 13.1967 40.7948 13.1196C41.0077 13.2706 40.7948 13.172 41.1642 13.2521V12.8577L42.0897 12.7252V12.4633C42.7024 12.5342 42.9326 12.6297 43.2021 12.4633H43.389C43.6236 12.26 43.1891 12.1983 43.5758 12.0689V12.2014H43.7626V11.807C44.1711 11.7608 44.7229 11.6345 45.2443 11.807C45.3051 11.8933 45.3661 11.9827 45.4312 12.0689H45.8005V11.807C46.1742 11.881 45.9613 11.7916 46.1699 11.9395L46.7261 11.807V11.6745H47.2823C47.404 11.542 47.5299 11.4126 47.6516 11.2801C47.9601 11.3233 48.2687 11.3664 48.5772 11.4126V11.5451C48.7119 11.5636 49.2594 11.428 49.8764 11.4126L49.6896 11.0182H50.0589V11.1507H50.8019L50.9889 11.2832V11.1507L51.545 11.0182C51.5319 10.6731 51.4711 10.5715 51.3581 10.3619H52.4706C52.6835 10.211 52.4706 10.3096 52.8399 10.2295C52.9833 9.83508 52.9529 9.88437 53.583 9.83507C53.7915 10.06 53.7003 10.0138 54.1392 10.097C54.326 9.76727 54.5215 9.40987 54.8822 9.57009H55.069V9.96445H55.4384C55.5731 9.60087 55.4906 9.67177 55.9946 9.57009V9.43758L57.1069 9.30511C57.1069 9.30511 57.1895 9.49613 57.4763 9.43758L57.6631 9.17569H58.2193V8.91379L58.5887 9.04626V9.17877C58.8321 9.24348 58.6278 9.11713 58.7755 9.04626C59.2405 8.95691 59.0754 8.97849 59.3317 8.78437H59.5186V8.52248L59.888 8.38997C60.1052 8.22358 60.2008 8.00791 60.4442 7.8631V7.99561H61.0003C61.0611 8.17123 61.122 8.34685 61.1872 8.52248H61.374C61.8259 7.98635 62.4125 8.03565 63.4119 7.86618C63.4684 7.85694 63.4597 7.68437 63.7813 7.73367V7.86618C64.1506 7.95245 64.5244 8.0418 64.8937 8.12808V7.99561H65.0805L64.8937 7.6012C65.0154 7.55807 65.1413 7.51491 65.263 7.4687C65.5194 7.19447 65.1805 7.28381 65.6324 7.07429V6.94182L66.5579 6.80932C66.4579 7.17598 66.4145 6.82165 66.5579 7.20372H66.7448V6.94182C67.1141 6.98496 67.4878 7.02808 67.8571 7.07429V6.94182C68.057 6.82166 67.8919 6.96338 68.044 6.80932H67.8571V6.67685H68.4133C68.4524 6.98805 68.4915 7.00344 68.6001 7.20372C68.8131 7.05274 68.6741 7.20372 68.7871 6.94182C69 6.79084 68.8609 6.94183 68.9739 6.67993C69.5301 6.54744 70.0863 6.41802 70.6425 6.28553L70.8293 6.41804C70.8901 5.99283 70.9988 6.03288 71.1987 5.76174H71.568V5.89421H71.7548V5.76174H72.4979L72.6847 5.36734C73.1671 5.50599 73.4669 5.60766 74.1664 5.62923C74.1056 5.54296 74.0448 5.45361 73.9796 5.36734C74.1056 5.22252 75.0225 5.18246 75.2789 4.97294L75.092 4.71104H75.2789V4.57853C75.7699 4.73259 75.9784 4.83118 76.7606 4.84043V4.70796H76.5737V4.31356C77.1604 4.39983 76.9475 4.51383 77.13 4.57545C77.3472 4.56621 77.7905 4.31049 78.2424 4.44298L78.4292 4.70487H78.7986C78.6204 5.13932 78.6247 5.47824 78.9854 5.88804H78.7986C78.5857 6.03902 78.7985 5.94044 78.4292 6.02055V6.67685H78.2424C78.1946 6.89561 78.4161 6.90485 78.4292 6.93874V7.59503C77.7644 7.61352 77.3777 7.78298 76.9475 7.85693L76.5781 7.72446C76.4564 7.85695 76.3304 7.98633 76.2087 8.11882C76.1044 8.14963 75.1963 8.02025 74.9095 7.98635C74.7965 8.33145 74.3838 8.6827 73.7972 8.64265C73.7972 8.64265 73.6972 8.47625 73.4278 8.51014L73.6146 8.77203H72.8716C72.8107 8.9908 72.7499 9.20957 72.6847 9.42833L71.7592 9.29586L71.5723 9.55775C71.0726 9.64711 71.0857 9.3051 71.0161 9.29586L70.4599 9.42833L70.6468 9.56084C70.6555 9.61322 70.4816 9.85662 70.4599 10.0877C69.8429 10.1308 69.2259 10.174 68.6045 10.2202V9.95832C68.1656 9.93059 68.1439 9.90285 67.8615 9.82582V10.2202C67.8224 10.2757 66.5883 10.8827 67.3053 11.1415H66.7491V11.009C66.571 10.7656 66.5622 11.2709 66.5622 11.2709C66.3537 11.3818 66.5362 11.2555 66.3754 11.4034C66.8968 11.2801 66.8925 11.2647 67.4878 11.4034V11.5359L68.044 11.4034L67.8571 11.2709L68.044 10.8765C68.9131 11.1138 69.4866 10.9536 70.0819 10.6146C70.1428 10.5283 70.2036 10.439 70.2688 10.3527H71.1944C71.1944 10.3527 71.1769 10.2757 71.5636 10.2202V10.6146H71.7505V10.3527C72.5413 10.3434 72.9802 10.325 73.4191 10.0908L73.6059 9.8289C73.9144 9.87204 74.223 9.91519 74.5315 9.96141C74.3186 9.81043 74.5314 9.90901 74.1621 9.8289V9.56701C74.3489 9.61014 74.5315 9.65326 74.7183 9.69948V9.43758H75.0877V9.69948C76.161 9.63785 76.9301 9.20959 77.6818 8.91071V9.30511H78.0511V9.04318H79.3504V8.91071H79.9065V8.7782C80.2759 8.82134 80.6496 8.86449 81.0189 8.91071C81.1754 8.76281 80.9972 8.89221 81.2058 8.7782V8.25133C81.5751 8.20819 81.9488 8.16504 82.3182 8.11882C82.2573 8.25131 82.1965 8.38073 82.1314 8.51322H82.3182V8.64573C82.5268 8.53481 82.3442 8.66112 82.505 8.51322C82.7179 8.36225 82.5789 8.51323 82.6919 8.25133C82.9831 8.26057 83.9911 8.3838 83.9911 8.3838V8.25133H84.178V7.85693C84.3822 7.67206 85.0123 7.72138 85.4772 7.72446V7.85693L86.5896 7.72446V7.59195H86.9589V7.45944H87.5151L87.3283 7.85384H87.5151C87.6498 7.49026 87.5673 7.56112 88.0713 7.45944V7.72137C88.2582 7.67824 88.4407 7.63508 88.6275 7.58887V7.4564C89.062 7.41326 89.4922 7.37011 89.9267 7.32389V7.19138H90.483L90.6698 6.92949C90.8262 6.88635 91.8909 7.06813 92.1516 7.19138V6.92949L92.7078 6.79702V6.66451C92.9598 6.60905 92.6339 6.76004 92.8946 6.79702C93.2031 6.84015 93.2248 6.67067 93.2639 6.66451C93.6028 6.61521 93.9809 6.83705 94.1895 6.9264V6.79393C94.7674 6.42111 94.233 6.23623 95.3019 6.13764V6.27011H95.8581L95.6712 6.53204C95.9102 6.74464 96.0188 6.38719 96.2274 6.9264C96.4707 6.78775 96.5055 6.65837 96.7836 6.53204V6.9264H97.153C97.0922 6.6645 97.0312 6.39954 96.9661 6.13764C97.8351 5.92812 97.5918 6.23931 98.0785 5.48134H98.2653C98.2436 5.76173 98.0741 5.93118 98.0785 6.00821L98.2653 6.14072C98.6042 5.97434 98.2871 5.96202 98.4522 5.87883C98.6651 5.7679 98.5695 5.99897 98.639 6.0113C98.8259 5.96816 99.0084 5.92504 99.1952 5.87883V5.61689C99.6124 5.56451 99.9079 5.40123 100.494 5.48442C100.494 5.48442 100.503 5.65695 100.864 5.61689V5.48442H101.789V5.61689C101.346 5.69701 101.446 5.66006 101.233 5.87883H101.603C102.137 5.25334 103.028 5.47211 104.014 5.22253L104.201 4.82813C104.731 4.82813 104.996 4.87433 105.313 4.9606V4.43373H105.5C105.622 4.56622 105.748 4.69564 105.87 4.82813H106.056L105.87 5.09002H106.056V5.22253C106.587 5.49368 106.534 4.98833 106.799 5.61689H107.169V5.87883H107.538C107.477 6.01132 107.417 6.1407 107.351 6.27319H107.538C107.664 6.47039 107.668 6.49198 107.725 6.8001H108.094V7.06199C108.381 7.17908 108.481 7.25612 108.651 7.4564C109.25 7.22531 109.003 7.1421 109.763 7.32389L109.576 6.92949H109.945V6.66759H110.315V6.8001H110.502V6.66759L111.058 6.8001L110.871 7.19446H111.24C111.375 6.83088 111.292 6.90178 111.797 6.8001C112.075 6.56901 112.296 6.55049 112.909 6.53817V6.27627C113.278 6.19 113.652 6.10065 114.021 6.01438C114.034 6.35947 114.095 6.46116 114.208 6.67068C114.417 6.55975 114.234 6.68607 114.395 6.53817H114.582V6.1438C115.138 6.18694 115.694 6.23006 116.25 6.27627V6.01438H116.62L116.807 5.61998C117.054 5.66312 117.302 5.70627 117.55 5.75249C117.61 5.66621 117.671 5.57687 117.736 5.49059L118.662 5.62306V5.88496C119.136 5.6816 119.94 5.06845 120.518 5.35809H120.887V5.61998H121.074V5.35809C121.964 5.32419 121.969 5.26565 122.742 5.35809C122.803 5.13932 122.864 4.92055 122.929 4.70179C123.785 4.58779 124.433 4.58779 124.967 4.70179V4.4399H126.079V4.57237H126.636V4.70487C126.822 4.66174 127.005 4.61858 127.192 4.57237V4.4399C126.979 4.28892 127.118 4.4399 127.005 4.178C127.613 4.18725 127.552 4.34439 127.93 4.178L128.117 3.91607L129.23 4.178V4.4399C129.729 4.4399 130.281 4.48302 130.529 4.30739V4.04549L130.898 4.178V4.04549C131.268 4.00236 131.641 3.95924 132.011 3.91302C132.185 3.99313 131.946 4.10096 132.198 4.04549L132.384 3.7836C132.619 3.7836 132.858 4.01775 133.31 3.91607V3.7836C133.618 3.74046 133.927 3.69731 134.235 3.65109L134.049 4.04549H134.235C134.648 4.36286 134.583 4.23038 135.161 4.178C135.139 4.59396 134.8 4.42447 135.348 4.57237C135.43 4.89897 135.517 5.05615 135.535 5.49368C135.022 5.58919 135.122 5.53062 134.978 5.88804H134.792V6.54434C134.348 6.60596 134.209 6.69531 133.866 6.80623V6.41187H133.679C133.405 7.14827 133.358 6.683 132.754 6.93874V7.07125L132.011 7.46561C132.072 7.33312 132.132 7.20374 132.198 7.07125H132.011C131.898 7.28077 131.846 7.38245 131.824 7.72754C131.124 7.8323 130.785 7.98327 129.786 7.98944V7.72754H129.417V7.98944H128.491V8.12191H128.678C128.561 8.30986 128.461 8.2205 128.309 8.3838H127.939L128.126 8.12191H127.939C127.757 8.30062 127.831 8.38072 127.383 8.3838C127.383 8.3838 127.253 8.19587 127.014 8.25133C126.953 8.3376 126.892 8.42695 126.827 8.51322H126.457L126.271 9.30203L125.528 9.4345V8.90763H125.158C125.024 9.32975 124.906 9.3852 124.233 9.4345L124.42 9.0401H124.233C124.163 9.19108 124.181 9.50845 123.863 9.4345L123.676 9.0401C123.49 9.08323 123.307 9.12639 123.12 9.1726V9.4345C122.825 9.35439 122.681 9.31743 122.195 9.30203V8.90763H122.008V9.30203C122.221 9.45301 122.082 9.30202 122.195 9.56392C121.76 9.60706 121.33 9.65017 120.895 9.69639V9.95832C120.239 10.0076 120.331 10.1216 119.783 10.2202V10.6146C119.331 10.5407 119.375 10.4759 119.04 10.3527V10.6146H118.853V11.009H119.04V10.7471H119.409V11.009C119.718 10.9658 120.026 10.9227 120.335 10.8765V11.2709H120.704V10.8765C121.013 10.9197 121.321 10.9628 121.63 11.009C121.717 10.6947 121.843 10.5961 121.999 10.3527C122.603 10.3558 123.338 10.2942 123.668 10.4852H123.855C123.915 10.3989 123.976 10.3096 124.041 10.2233H124.411V10.0908H124.78V9.95832L125.15 10.0908V9.95832H127.005C126.944 9.82583 126.883 9.69641 126.818 9.56392H127.187V9.43141H127.374V9.56392L127.93 9.69639C127.944 9.88126 127.974 9.73338 127.744 9.8289C127.952 9.96755 127.744 9.88746 128.113 9.96141V9.8289H128.3V9.4345H128.487C128.647 9.25271 128.626 9.2065 128.673 8.90763C129.112 8.89222 129.143 8.86755 129.417 8.77512V8.90763H129.603V9.0401L129.417 9.30203H129.973V9.0401C130.407 8.99696 130.838 8.95384 131.272 8.90763V9.0401H131.459C131.667 8.93534 131.389 8.86757 131.646 8.90763V9.0401H132.389V9.30203H132.576C132.636 9.04013 132.697 8.77513 132.762 8.51322H133.132V8.77512H133.319V8.38075C133.744 8.39308 133.801 8.49166 134.062 8.51322L134.249 8.25133C134.249 8.25133 134.757 8.37456 134.992 8.3838V8.12191L135.178 8.25441C135.426 8.21128 135.674 8.16812 135.921 8.12191V8.25441H136.847V7.86001H137.216V7.99252H137.403V7.86001L137.773 7.99252L137.959 7.59812C138.45 7.46871 138.346 7.88466 138.702 7.86001V7.72754C139.515 7.59197 139.724 7.40401 140.558 7.33314V7.46561H140.371C140.019 7.57962 140.74 7.59812 140.74 7.59812C140.897 7.74602 140.719 7.61659 140.927 7.73059V7.4687L141.853 7.33623C141.914 7.24995 141.974 7.16057 142.04 7.07429L142.226 7.2068C143.326 7.2561 143.469 6.93259 144.082 6.67993V7.07429H144.269C144.482 6.92332 144.269 7.02193 144.638 6.94182V6.67993C144.825 6.72307 145.007 6.76618 145.194 6.8124L145.381 6.55051H146.124V6.41804H146.311C146.424 6.73232 146.372 6.66142 146.68 6.8124V6.41804C147.654 6.30711 147.502 6.40262 148.349 6.67993C148.444 6.37181 148.618 6.18694 148.905 6.02363C149.118 6.17461 148.905 6.07599 149.274 6.1561V5.89421H149.831V5.63232C150.139 5.67545 150.448 5.71857 150.756 5.76479V6.02672H151.126V5.63232C151.53 5.6508 151.743 5.76479 151.869 5.76479V5.63232L152.425 5.49981C152.486 5.58608 152.546 5.67547 152.612 5.76174C153.203 5.88499 154.089 5.4875 154.467 5.36734L154.28 4.97294H154.836C154.949 5.28722 154.897 5.21636 155.206 5.36734C155.362 5.51524 155.184 5.3858 155.393 5.49981C155.406 5.15471 155.466 5.05303 155.579 4.84351C155.949 4.80038 156.323 4.75726 156.692 4.71104C156.848 4.85894 156.67 4.72951 156.879 4.84351C156.735 4.976 156.653 4.97295 156.509 5.10544H157.066L156.879 4.71104L157.066 4.57853C157.339 4.64016 157.361 4.72953 157.809 4.71104V4.57853H157.995V4.71104C158.243 4.75418 158.491 4.79729 158.738 4.84351V4.97602C159.495 5.17938 159.838 4.88052 160.22 5.10853C160.798 5.37967 160.307 5.27798 160.59 5.6354L160.959 5.76787V6.0298H161.146C161.315 6.20851 161.285 6.26088 161.333 6.55667L160.59 6.42417C160.737 6.84937 160.933 6.87711 160.959 7.47486C160.75 7.58579 160.933 7.45947 160.772 7.60737H160.585C160.529 7.21298 160.559 7.24993 160.216 7.08046V7.21297H160.403C160.281 7.3886 160.155 7.56421 160.033 7.73984C159.551 7.746 159.395 7.76759 159.108 7.87235V8.00482C158.791 8.08185 158.786 7.88159 158.738 7.87235C158.074 7.75218 157.652 8.03874 157.439 8.26675H157.252C157.192 8.52865 157.131 8.79362 157.066 9.05552H156.696L156.509 8.79362C156.262 8.83676 156.014 8.87988 155.766 8.92609C155.805 9.23729 155.844 9.25273 155.953 9.453C155.523 9.44068 155.479 9.34823 155.21 9.3205L155.023 9.58239C154.776 9.62553 154.528 9.66868 154.28 9.7149C154.146 10.0785 154.228 10.0076 153.724 10.1093C153.072 10.5253 152.525 9.9429 152.425 9.97679V10.1093C152.116 10.2418 151.808 10.3712 151.499 10.5037C151.599 10.9628 151.682 10.7471 151.499 11.16H151.686V11.0275H152.429V11.2894L152.985 11.1569V11.0244L153.542 11.1569V10.7625C153.728 10.8056 153.911 10.8488 154.098 10.895V10.7625L153.911 10.63H155.023C155.084 10.7625 155.145 10.8919 155.21 11.0244C155.332 10.9813 155.579 10.7625 155.579 10.7625C155.766 10.8056 155.949 10.8488 156.136 10.895V10.7625C156.409 10.6608 156.444 10.6639 156.879 10.63V10.3681H157.248V10.1062H157.991V10.3681C158.408 10.3342 158.482 10.3558 158.734 10.2356V10.1031H159.103V9.97062H159.473V9.83815C159.803 9.6502 159.916 9.54235 160.398 9.44375V9.83815H161.141C161.202 9.61939 161.263 9.40062 161.328 9.18186H161.698C161.637 9.31435 161.576 9.44377 161.511 9.57626H161.698C161.963 9.38831 162.732 9.2404 163.179 9.18186V8.91996C163.427 8.87683 163.675 8.83367 163.922 8.78746V8.39305H164.292V8.78746H164.661V8.39305H165.587C165.526 8.52554 165.465 8.65496 165.4 8.78746H165.769C165.96 8.63648 166.112 8.5348 166.512 8.52556V8.65803H166.699L166.886 8.52556C167.06 8.28831 167.142 8.3191 167.255 7.99865L167.811 7.86618V7.73367L167.998 7.86618L168.554 7.73367V8.12808H168.924C168.963 7.81687 169.002 7.80148 169.111 7.6012L169.48 7.73367V7.6012C169.745 7.4379 169.767 7.2376 170.036 7.07429C170.093 7.13592 170.414 7.55189 170.592 7.4687L170.779 7.07429C171.583 7.03116 172.387 6.98804 173.191 6.94182V7.07429C172.678 7.16981 172.778 7.11128 172.635 7.4687C173.095 7.41015 173.317 7.34855 173.934 7.33623V7.20372H173.747V6.54742C174.056 6.59056 174.364 6.63371 174.673 6.67993C174.733 6.54744 174.794 6.41802 174.859 6.28553C175.072 6.43651 174.933 6.28552 175.046 6.54742L175.602 6.67993V6.54742C175.985 6.39952 175.937 6.34407 176.528 6.28553V5.89113C176.923 5.87572 177.162 5.75557 177.271 5.75866L177.458 5.89113V5.62923L178.383 5.49672V5.75866C178.505 5.71552 178.631 5.67237 178.753 5.62615V5.49368C179.048 5.46903 178.983 5.72168 179.122 5.75557H179.865C179.926 5.53681 179.987 5.31804 180.052 5.09928C180.361 5.14241 180.669 5.18553 180.978 5.23175L181.164 4.96985H181.351V5.10236C181.538 5.05922 181.721 5.01607 181.907 4.96985V4.70796C182.12 4.85894 181.981 4.70795 182.094 4.96985H182.464C182.551 4.65557 182.677 4.55697 182.833 4.31356C183.45 4.31972 184.502 4.44606 184.502 4.44606V4.31356H184.871V4.18109H185.427C185.488 4.09481 185.549 4.00543 185.614 3.91915C185.801 3.96229 185.983 4.00544 186.17 4.05166V4.18417H187.096V3.92224L187.839 3.78977V4.05166H188.208C188.325 4.41216 188.451 4.35054 188.577 4.70796H189.134C189.268 5.07154 189.186 5.00068 189.69 5.10236V5.36425C188.582 5.52448 188.73 5.89113 188.391 6.54742H189.503L189.69 6.02055C190.463 5.93736 190.216 5.89115 190.989 5.75866V6.02055C191.867 5.75865 191.736 5.75865 192.471 6.02055V5.75866C192.718 5.71552 192.966 5.67237 193.214 5.62615V5.36425H193.583V5.49672H193.77V5.36425C194.191 5.30571 194.27 5.43202 194.513 5.49672V5.36425H194.326C193.983 5.23792 194.696 5.23175 194.696 5.23175V4.96985H195.065V4.70796C195.647 4.78499 195.891 4.92055 196.547 4.96985L196.734 4.57545C196.734 4.57545 196.338 4.5539 196.547 4.44298H196.916V4.57545H198.028V4.18109C198.619 4.26736 198.393 4.37519 198.585 4.44298C198.893 4.42141 198.928 4.18417 198.954 4.18109C199.31 4.11022 199.21 4.26734 199.323 4.31356H199.51V4.18109C199.758 4.22422 200.006 4.26734 200.253 4.31356C200.388 3.94998 200.305 4.02083 200.809 3.91915V4.18109H201.552C201.726 3.94383 201.809 3.97462 201.922 3.65418L202.478 3.78668V3.65418C202.6 3.61104 202.726 3.56792 202.847 3.52171V3.7836H203.217L203.03 3.3892C203.473 3.32757 203.612 3.23823 203.955 3.1273V3.65418C204.92 3.47547 204.616 3.36457 205.811 3.52171V3.1273H206.367V3.25981C206.289 3.33684 206.063 3.27829 206.18 3.52171H206.367C206.667 2.70827 206.762 3.29983 207.479 2.9948C207.901 2.81609 207.466 2.51105 208.405 2.3385V2.47101L208.961 2.3385V2.60043H209.148V2.3385C209.804 2.3878 209.713 2.50183 210.26 2.60043V2.86233C210.434 3.06877 211.586 3.10574 211.003 3.51862H211.373V4.04549L211.003 4.178C210.995 4.22114 211.177 4.4707 211.19 4.70487H211.56C211.473 5.01916 211.347 5.11776 211.19 5.36117C210.86 5.37349 210.521 5.49984 210.447 5.49368V5.36117H209.704V5.49368L208.592 5.62615V5.88804C208.344 5.97431 208.096 6.06366 207.849 6.14994V6.01747H207.662V6.41187L206.363 6.67376C206.575 6.82474 206.363 6.72612 206.732 6.80623V6.93874C207.058 7.04658 207.327 6.86169 207.475 6.80623V6.67376H208.031V6.41187C208.896 6.38106 209.087 6.22082 209.7 6.01747V5.88496H210.999V6.01747H210.812C210.599 6.16844 210.812 6.06982 210.443 6.14994V6.41187C211.199 6.25781 210.638 6.29169 210.999 6.01747L211.368 6.14994V6.01747H211.738V5.88496H212.294C212.489 5.80485 212.754 5.23484 213.219 5.35809V5.49059H213.589V5.09619C213.776 5.13933 213.958 5.18244 214.145 5.22866V5.09619C214.514 5.05305 214.888 5.0099 215.257 4.96368V5.22558H215.627C215.688 5.35807 215.748 5.48749 215.814 5.61998H216V5.35809H216.37C216.478 4.86818 216.478 5.05615 216.37 4.56932C216.426 4.58473 218.156 4.85586 218.225 4.83121V4.69871H218.412V4.17183H218.599C218.977 4.41217 219.442 4.20881 220.081 4.17183V3.90994C220.454 3.98389 220.241 3.89451 220.45 4.04241C221.132 3.90376 220.958 3.77744 221.376 3.51554V3.38303C221.845 3.17659 222.84 3.37379 223.6 3.38303C223.718 3.02253 223.844 3.08415 223.97 2.72673C224.765 2.70517 224.604 2.64355 225.082 2.46484V2.85924H225.825C225.864 2.54804 225.903 2.53265 226.012 2.33237L226.568 2.46484L226.755 2.20295H227.124V2.07044C227.311 2.0273 227.494 1.98419 227.68 1.93797L227.867 2.33237C228.337 2.06431 227.946 2.015 228.793 1.93797V2.07044C228.58 2.1906 228.576 2.16599 228.424 2.33237H228.61V2.46484C228.997 2.32002 228.941 2.25225 229.536 2.20295C229.692 2.35084 229.514 2.22145 229.723 2.33545C229.505 2.58503 229.566 2.46178 229.167 2.59735V2.72982H229.536C229.475 2.99172 229.414 3.25672 229.349 3.51862H229.536V3.65109H229.349V3.91302C229.41 4.22114 229.471 4.52618 229.536 4.8343H229.349C229.193 4.98528 229.253 5.01916 228.98 5.09619V4.96368H228.793C228.671 5.09617 228.545 5.22559 228.424 5.35809H227.867L227.68 5.61998C227.433 5.66312 227.185 5.70627 226.937 5.75249C226.877 5.88498 226.816 6.0144 226.751 6.14689L226.194 6.27936L226.008 6.54125H225.821V6.40878C225.139 6.29478 224.926 6.85553 224.521 6.54125V6.80318H224.152C224.213 6.97881 224.274 7.15443 224.339 7.33006H224.152C223.944 7.55498 224.035 7.50876 223.596 7.59195C223.579 7.56422 223.331 7.11436 223.227 7.19755V7.33006L222.857 7.46253C222.796 7.59502 222.736 7.72444 222.67 7.85693H222.114C221.493 8.07261 221.871 8.20511 220.815 8.25133C220.876 8.38382 220.937 8.51324 221.002 8.64573C221.25 8.6026 221.497 8.55944 221.745 8.51322V8.90763H221.932V8.77512H222.675C223.24 8.62414 223.5 8.40848 224.343 8.38075V8.11882C224.869 8.03563 224.834 7.87542 224.9 7.85693H225.643V7.98944L226.386 7.85693C226.386 7.85693 226.468 8.02025 226.755 7.98944V7.85693L227.498 7.98944V7.85693C227.711 7.70595 227.572 7.85694 227.685 7.59503H227.498V7.72754C227.337 7.97712 227.311 7.46561 227.311 7.46561C227.989 7.50875 228.671 7.5519 229.349 7.59812L229.536 7.33623C229.723 7.29617 229.875 7.53956 230.279 7.4687V7.33623H231.205V7.4687H231.391V7.33623H232.134L232.321 6.94182H232.508L232.321 6.67993H232.877C233.09 6.83091 232.877 6.73229 233.247 6.8124V6.55051C233.69 6.61213 233.829 6.70148 234.172 6.8124V6.67993H233.985C233.642 6.5536 234.355 6.54742 234.355 6.54742V6.67993C234.568 6.83091 234.429 6.67992 234.542 6.94182C234.937 6.92642 235.172 6.80932 235.285 6.80932V6.94182H235.654C235.706 6.70765 235.841 6.67993 235.841 6.67993C235.78 6.54744 235.719 6.41802 235.654 6.28553H235.841V6.15302C236.367 6.3194 236.606 6.49196 237.323 6.54742V6.28553C238.405 6.1099 237.427 5.95276 238.435 6.28553V5.75866H238.622V5.89113C238.87 5.75863 239.117 5.62922 239.365 5.49672V6.02363H239.552C239.643 5.96201 239.5 5.81101 239.739 5.89113V6.02363H239.925C239.925 6.02363 239.873 6.49505 240.112 6.28553V6.15302C240.325 6.00204 240.186 6.15303 240.299 5.89113H239.743C239.886 5.49673 239.856 5.54602 240.486 5.49672V5.62923L241.042 5.49672V5.62923H241.598V5.76174C242.076 5.83261 242.615 5.35192 242.898 5.23483L243.454 5.36734V5.23483C243.762 5.0931 243.762 5.05613 244.197 4.97294C244.136 5.10543 244.075 5.23485 244.01 5.36734H244.197V5.49981C244.384 5.41353 244.566 5.32419 244.753 5.23791V5.10544H245.122C245.457 5.00068 245.526 4.80654 245.679 4.57853C245.987 4.75416 246.296 4.92982 246.604 5.10544C246.717 4.84662 246.613 4.78499 246.973 4.71104C247.034 4.72645 247.03 4.95753 247.343 4.97294C247.738 4.60011 247.508 4.70794 248.086 4.84043C248.147 4.41522 248.255 4.45532 248.455 4.18417C249.103 4.25504 248.798 4.31358 249.381 4.18417V4.97294H249.568C249.776 4.74801 249.685 4.79423 250.124 4.71104C250.471 5.12392 250.81 5.08388 250.867 5.76174C251.375 5.77715 252.21 5.94353 252.349 5.76174H252.535V5.89421C253.048 5.98048 253.63 6.26087 253.835 6.55051V6.94491H254.022C254.278 7.18832 254.452 7.24995 254.578 7.6012C254.391 7.55807 254.208 7.51491 254.022 7.4687V7.6012H254.208V7.99561H254.395C254.565 8.18972 254.56 8.31913 254.582 8.6519C254.369 8.80288 254.508 8.65189 254.395 8.91379C253.778 8.95693 253.161 9.00005 252.54 9.04626V8.78437C252.292 8.82751 252.044 8.87066 251.797 8.91688V8.65495C251.675 8.69808 251.549 8.74124 251.427 8.78746C251.367 8.70118 251.306 8.61183 251.241 8.52556C251.236 8.52556 250.693 8.70427 250.315 8.52556L250.128 8.13116C249.911 8.02332 249.811 8.5163 249.385 8.39305V8.26058C249.172 8.1096 249.311 8.26055 249.198 7.99865L248.642 8.13116V7.99865H248.455C248.516 7.86616 248.577 7.73678 248.642 7.60429C248.642 7.60429 248.412 7.56424 248.455 7.34239C248.455 7.34239 248.764 7.28382 248.642 7.08046H248.455C248.242 7.23144 248.455 7.13286 248.086 7.21297C248.025 7.34546 247.964 7.47488 247.899 7.60737C247.465 7.5704 247.438 7.56422 247.156 7.47486V7.34239C246.843 7.3578 246.843 7.59196 246.787 7.60429C246.365 7.70905 246.039 7.44097 245.861 7.47178V7.60429C245.231 7.783 245.092 8.01407 244.379 8.13116C244.44 7.99867 244.501 7.86925 244.566 7.73676H244.197C243.923 8.09418 243.628 8.33759 242.898 8.39305V7.99865H242.711C242.567 8.39304 242.598 8.34375 241.968 8.39305V8.13116C241.194 8.43004 241.09 8.39924 240.112 8.26367V8.00174H239.925C239.912 8.51013 239.956 8.54403 239.369 8.65803V8.79054C239.191 9.03395 239.182 8.52865 239.182 8.52865H238.813C238.752 8.61492 238.691 8.70427 238.626 8.79054C238.318 8.7474 238.009 8.70425 237.701 8.65803V8.91996H237.145V9.05243C236.932 9.20341 237.071 9.05243 236.958 9.31433L235.845 9.44684V9.18494L233.99 9.31741V9.57931H233.434V9.71181C233.269 9.95831 233.247 9.44992 233.247 9.44992C232.652 9.5516 232.847 9.64711 232.134 9.71181V10.1062C231.039 10.0261 231.122 9.64093 229.91 9.57931C229.905 10.0168 229.814 10.174 229.723 10.5006H229.353C229.41 10.3866 229.71 10.211 229.54 9.97371H229.353V10.1062C229.141 10.2572 229.28 10.1062 229.167 10.3681L228.054 10.5006V10.7625C227.433 10.6824 226.885 10.402 226.199 10.63C226.077 10.7625 225.951 10.8919 225.829 11.0244C225.325 11.1292 225.256 10.6701 225.086 10.63C224.752 10.5499 224.952 10.7779 224.9 10.8919C224.713 10.8488 224.53 10.8056 224.343 10.7594V11.2863H223.974L223.787 11.5482C223.483 11.6129 223.444 11.4188 223.418 11.4157C222.97 11.3603 222.935 11.5482 222.675 11.5482V11.4157C222.305 11.3726 221.932 11.3294 221.562 11.2832V11.5451C220.333 11.6375 219.707 11.6591 218.781 11.5451L218.595 11.9395C218.247 11.8748 217.708 11.8841 217.113 11.807V11.6745C217.326 11.5236 217.187 11.6745 217.3 11.4126C216.856 11.425 216.839 11.4989 216.557 11.5451V11.4126C216.248 11.2709 216.252 11.2247 215.814 11.1507V10.8888H215.444C215.383 10.7563 215.323 10.6269 215.257 10.4944L214.145 10.3619V10.1C214.293 10.1432 214.727 10.3681 215.071 10.2325V10.1C214.523 9.84739 214.619 9.57625 214.701 9.17877C214.949 9.0925 214.953 8.97234 215.071 8.91688C215.192 8.96002 215.318 9.00313 215.44 9.04935V8.52248H215.627C215.566 8.26058 215.505 7.99557 215.44 7.73367C215.253 7.69054 215.071 7.64742 214.884 7.6012C214.945 7.68748 215.005 7.77682 215.071 7.8631L214.514 7.73059V7.99252H214.327C214.267 8.07879 214.206 8.16814 214.141 8.25441H213.584C213.628 8.55945 213.789 8.33453 213.584 8.64882L213.215 8.51631V8.7782C213.015 9.00929 213.028 8.51631 213.028 8.51631C212.72 8.55945 212.411 8.6026 212.103 8.64882C212.103 8.64882 212.016 8.4516 211.733 8.51631C211.673 8.60258 211.612 8.69193 211.547 8.7782H210.99C210.93 8.91069 210.869 9.04011 210.803 9.1726C210.517 9.06476 209.982 8.69809 209.504 8.7782C209.443 8.86448 209.383 8.95382 209.317 9.0401C208.961 9.01545 209.009 8.78436 208.948 8.7782H208.761V8.91071H207.836V9.04318H208.205C208.144 9.30508 208.083 9.57008 208.018 9.83198H207.649C207.479 9.7796 207.527 9.43144 206.906 9.57009L206.719 9.83198H205.793V9.69948C205.524 9.59472 205.48 9.60706 205.05 9.56701V9.96141C204.863 9.91827 204.681 9.87512 204.494 9.8289V9.96141C204.281 10.1124 204.42 9.9614 204.307 10.2233C203.616 10.362 203.808 10.4944 203.382 10.7502V10.8827H202.826V10.4883H202.456V10.7502H201.531V10.6177H201.344C201.222 10.7933 201.096 10.9689 200.974 11.1446L200.605 11.0121V11.1446L200.049 11.4065V11.0121H199.862V11.1446L199.306 11.0121V11.1446C199.045 11.1353 199.38 11.0336 199.119 11.0121L198.007 11.1446V11.539H197.82V11.4065C197.316 11.2154 196.912 11.5913 196.707 11.6684C196.603 11.2555 196.525 11.1168 195.964 11.0121C196.069 11.3325 196.16 11.3017 196.334 11.539H195.964C195.669 11.7331 194.874 11.6838 194.296 11.6714V11.4096H193.926V11.6714C193.557 11.6283 193.183 11.5852 192.814 11.539C192.723 11.2278 192.64 11.2278 192.445 11.0121C192.697 10.858 192.627 11.1107 192.814 10.8796C192.571 10.7718 192.597 10.7871 192.445 10.6177H192.814C192.853 10.3065 192.892 10.2911 193.001 10.0908C192.475 10.0045 192.301 9.84739 192.075 9.56392H192.632C192.753 9.21267 192.879 8.8614 193.001 8.51322C192.758 8.40538 192.784 8.4208 192.632 8.25133C192.236 8.41155 192.227 8.54713 191.706 8.64573V8.3838H191.519V8.7782C190.798 8.82134 190.685 8.99081 190.22 9.1726C190.181 8.8614 190.142 8.84601 190.033 8.64573C189.825 8.75666 190.007 8.63031 189.846 8.7782H189.659L189.846 8.91071L189.659 9.30511C188.873 9.2096 188.769 9.28354 187.804 9.30511L187.991 9.69948H187.804C187.652 9.87202 187.674 9.85357 187.435 9.96141V9.4345C186.492 9.47147 186.618 9.66866 185.579 9.69639C185.44 10.1432 185.184 10.3034 184.467 10.3527V10.0908H184.28V10.2233C184.119 10.4729 184.093 9.96141 184.093 9.96141C183.906 9.91827 183.724 9.87512 183.537 9.8289L183.724 10.0908H183.354C183.059 10.2849 182.898 10.5437 182.798 10.8796H182.242V10.6177C181.051 10.6485 180.752 11.0983 179.83 11.274C179.948 10.9135 180.074 10.9751 180.2 10.6177C179.013 10.8025 178.171 11.3818 177.419 10.4852C178.253 10.1401 177.814 9.99528 177.606 9.4345H176.863C176.706 9.2866 176.884 9.41603 176.676 9.30203C176.732 9.18802 177.032 9.01237 176.863 8.77512H176.676V8.64265H176.12C175.807 9.00623 175.324 8.90762 175.007 9.16952L174.82 9.56392H174.264V9.69639C174.077 9.73953 173.895 9.78268 173.708 9.8289V9.56701C173.13 9.65636 172.865 9.96139 172.409 10.0939H171.666V10.2264C171.479 10.1832 171.296 10.1401 171.109 10.0939V10.3558L169.997 10.4883V10.6208H169.254C169.193 10.63 169.206 10.8026 168.885 10.7533V10.6208H168.515V10.4883L167.216 10.3558C167.081 10.5406 166.882 10.7533 166.66 10.8827V10.3558H166.473V10.6177C166.286 10.5745 166.104 10.5314 165.917 10.4852C165.83 10.7933 165.608 10.8919 165.547 11.1415H165.734C165.795 11.274 165.856 11.4034 165.921 11.5359C164.865 11.5451 164.757 11.3972 164.066 11.274C163.792 11.6314 163.497 11.8748 162.767 11.9303V11.6684H162.397V12.1953H162.028V12.3277H160.729V12.4603H160.359V12.5927C160.238 12.5496 160.112 12.5065 159.99 12.4603V12.5927H159.803C159.529 12.4356 159.96 12.4972 159.616 12.3308C159.638 12.7468 159.977 12.5773 159.429 12.7252V12.4633C158.386 12.5527 158.83 12.7899 158.317 12.9902H157.948C157.887 13.1227 157.826 13.2521 157.761 13.3846H156.835V13.2521C157.296 13.0118 157.074 13.1504 157.022 12.7252H156.653V13.1196C155.041 13.1227 154.758 13.3476 153.316 13.3815V13.1196C153.068 13.2059 152.82 13.2953 152.572 13.3815C152.633 13.5572 152.694 13.7328 152.759 13.9084C152.277 13.8868 152.125 13.8807 151.834 13.7759V13.6434L151.278 13.7759C151.247 13.7728 151.212 13.591 150.908 13.6434V13.7759H150.539V13.9084H150.17V14.0409C149.913 14.1611 149.844 14.1333 149.427 14.1734V13.779H149.24V13.9115H148.314C148.188 13.9515 148.305 14.0809 147.758 14.1734C147.697 14.3059 147.636 14.4353 147.571 14.5678H147.758C148.032 14.728 147.084 14.6972 147.015 14.7002V14.5678C146.272 14.4815 145.533 14.3922 144.79 14.3059C144.89 13.9392 144.934 14.2935 144.79 13.9115C144.59 13.9854 144.403 14.2658 144.047 14.1734V14.0409H143.86L144.047 13.779H143.86C143.647 13.628 143.86 13.7266 143.491 13.6465C143.43 13.514 143.369 13.3846 143.304 13.2521H143.673C143.613 13.1196 143.552 12.9902 143.487 12.8577H143.673V12.9902C143.834 13.2398 143.86 12.7283 143.86 12.7283H144.047V12.5958C143.925 12.5527 143.799 12.5096 143.678 12.4633C143.739 12.3308 143.799 12.2014 143.865 12.0689H143.678V11.9364H144.234V11.804C143.991 11.6961 144.017 11.7115 143.865 11.542C144.182 11.3941 144.117 11.4589 144.234 11.1477L144.977 11.0152C144.999 11.0059 145.264 10.5283 145.346 10.6208V10.8827H145.903C146.076 10.6454 146.159 10.6762 146.272 10.3558C146.02 10.2017 145.989 10.1155 145.903 9.8289H146.272V9.56701H146.641V9.4345C146.272 9.47764 145.898 9.52079 145.529 9.56701V9.4345C145.285 9.44374 145.064 9.65944 144.603 9.56701V9.4345C144.234 9.39136 143.86 9.34825 143.491 9.30203V9.8289H143.122V10.0908C142.935 10.0045 142.752 9.91517 142.565 9.8289V9.56701L142.378 9.69948C142.166 9.85045 142.305 9.69951 142.192 9.96141H141.449V10.2233C141.079 10.1802 140.706 10.137 140.336 10.0908C140.275 10.3096 140.215 10.5283 140.149 10.7471C139.698 10.821 139.741 10.8827 139.406 11.009V10.8765C139.215 10.7625 139.15 10.6485 139.037 10.4821C138.824 10.6331 138.963 10.4821 138.85 10.744C138.481 10.7871 138.107 10.8303 137.738 10.8765V11.1384C137.299 11.1661 137.277 11.1939 136.995 11.2709V11.009H137.182L136.995 10.6146H136.808V10.8765C136.686 10.8334 136.56 10.7902 136.439 10.744C136.226 10.8488 136.365 11.0552 135.882 11.0059C135.821 10.9196 135.761 10.8303 135.696 10.744H135.509V11.0059L134.952 11.1384C134.857 11.1199 134.839 10.8056 134.583 10.8765C134.396 11.0521 134.214 11.2278 134.027 11.4034C133.84 11.3602 133.658 11.3171 133.471 11.2709V11.5328H133.101V11.7947C132.893 11.6838 133.075 11.8101 132.914 11.6622C132.715 11.542 132.88 11.6838 132.728 11.5297H132.914V11.3972H132.358V11.5297H132.171V11.3972H131.615C131.554 11.3109 131.494 11.2216 131.428 11.1353C131.307 11.1785 131.181 11.2216 131.059 11.2678C130.807 11.3202 131.137 11.4095 130.872 11.4003V11.2678H130.503C130.499 11.6745 130.555 11.9457 130.69 12.1891H129.947V12.451H129.76V12.0566H129.391L129.204 12.451C128.995 12.3401 129.178 12.4664 129.017 12.3185H128.83L129.017 11.9241C128.83 11.9673 128.647 12.0104 128.461 12.0566V12.1891H128.091C128.03 12.2754 127.97 12.3647 127.904 12.451H127.161V12.5835H126.975C126.883 12.5249 127.027 12.3709 126.788 12.451L126.601 12.7129L125.675 12.8454V12.5835H125.488L125.302 12.8454H125.115L124.928 12.5835C124.672 12.5003 124.407 12.5188 124.185 12.451C124.172 12.9594 124.215 12.9933 123.629 13.1073V12.8454H123.259V13.1073H122.334L121.964 13.7636H121.595V13.6311C121.534 13.6249 121.169 13.7482 120.852 13.7636C120.956 13.4431 121.048 13.4739 121.221 13.2367H120.852L120.665 13.6311L119.366 13.4986C119.17 13.5664 119.231 13.7944 119.366 13.893H118.997C118.836 14.0285 118.675 14.0748 118.44 14.1549V13.7605C117.611 13.8098 117.902 13.8437 117.141 13.7605V13.893C117.354 14.044 117.215 13.893 117.328 14.1549H116.402C116.355 14.1487 116.342 13.9854 116.033 14.0224V14.1549H115.664C115.603 14.2874 115.542 14.4168 115.477 14.5493C115.268 14.4383 115.451 14.5647 115.29 14.4168C115.082 14.3059 115.264 14.4322 115.103 14.2843C115.347 14.1765 115.321 14.1919 115.473 14.0224H114.73C114.564 14.1611 114.404 14.1949 114.173 14.2843V14.4168L113.617 14.2843V14.4168C113.861 14.5246 113.834 14.5092 113.987 14.6787H113.617C113.4 14.5 113.278 14.4784 112.874 14.4168V14.6787C112.527 14.5863 112.148 14.5493 111.575 14.5462C111.371 14.272 111.275 14.3121 111.206 13.8899H110.836V13.628C110.628 13.7389 110.81 13.6126 110.649 13.7605H110.462V14.0224L110.093 14.1549V14.5493H109.906C109.719 14.3736 109.537 14.198 109.35 14.0224H109.163C108.92 13.7297 109.263 13.6557 108.794 13.3661C108.855 13.1905 108.916 13.0149 108.981 12.8392C108.981 12.8392 108.742 12.7745 108.794 12.5773H108.981V11.921C108.981 11.921 109.094 11.921 109.168 11.6591C109.68 11.5636 109.58 11.6222 109.724 11.2647H110.093V11.3972L110.649 11.2647V11.0028L111.575 11.1353C111.71 10.7717 111.627 10.8426 112.131 10.7409V10.214H112.318L112.131 9.95216H112.318C112.474 9.80426 112.296 9.93365 112.505 9.81965V9.68718C112.683 9.44376 112.692 9.94907 112.692 9.94907L113.248 10.0815V9.94907H113.061C113.122 9.81658 113.183 9.68716 113.248 9.55467H114.36V9.68718C114.795 9.64404 115.225 9.60089 115.659 9.55467V9.29278H116.402V9.03088C115.768 9.02472 115.121 8.94151 114.734 8.89837C114.612 9.03086 114.486 9.16028 114.365 9.29278L113.252 9.42525C113.356 9.1048 113.448 9.13563 113.622 8.89837H112.878V9.03088H113.065C113.278 9.23732 112.609 9.15411 112.509 9.16335V9.55775H112.322V9.69026C112.014 9.7334 111.705 9.77651 111.397 9.82273C111.458 9.60397 111.518 9.3852 111.584 9.16644C111.132 9.24038 111.171 9.302 110.841 9.42833V9.56084C110.471 9.47456 110.098 9.38522 109.728 9.29894V9.43141C109.515 9.58239 109.654 9.43141 109.541 9.69331C109.237 9.73336 108.733 9.96756 108.616 9.95524V9.82273H108.06C107.803 9.78576 108.129 9.65021 107.873 9.69026L107.686 9.95216H107.317L107.503 9.69026H107.317C107.104 9.84124 107.316 9.74262 106.947 9.82273V10.0846C106.639 10.1278 106.33 10.1709 106.022 10.2171C105.987 10.211 105.961 10.0292 105.652 10.0846V10.2171H105.283V10.3496C105.1 10.3219 105.066 9.99527 104.914 10.0877C104.609 10.2664 105.118 10.3404 104.357 10.4821V10.8765H104.171V10.6146H103.984C103.923 10.7009 103.862 10.7902 103.797 10.8765H103.054C102.832 10.59 102.645 10.442 102.128 10.3496V10.4821H101.385L101.198 10.744L100.642 10.6115V11.0059H100.273C99.8166 11.5574 99.86 11.16 99.3473 11.4003C99.4081 11.4866 99.469 11.5759 99.5342 11.6622C99.1648 11.6191 98.7911 11.5759 98.4218 11.5297C98.4044 11.5328 98.3261 11.7577 98.0524 11.7916V11.6591H97.3094L97.1225 11.5266V11.6591C96.5968 11.8994 96.5794 12.0381 95.6408 12.0535C95.4323 11.8286 95.5235 11.8748 95.0846 11.7916V12.0535H94.7152V11.921C94.4806 11.8687 94.2286 12.2938 94.159 12.3154C93.7767 12.4356 93.6289 12.2014 93.416 12.1829V12.3154C93.0467 12.3585 92.6729 12.4017 92.3036 12.4479L92.1168 12.0535C91.604 12.149 91.704 12.0905 91.5606 12.4479C91.0044 12.4911 90.4481 12.5342 89.892 12.5804L89.7051 12.8423H88.4059V12.9748C87.9236 13.0765 87.5412 12.9871 87.1067 13.1073C87.0024 12.7869 86.9112 12.8177 86.7374 12.5804C86.5288 12.6913 86.7112 12.565 86.5505 12.7129C85.8987 13.0395 86.5071 13.1812 85.625 13.3692V13.5017H84.6994L84.5126 13.7636C84.0998 13.8807 83.9911 13.6003 83.7695 13.6311V13.7636C83.4002 13.816 83.5348 13.705 83.4001 13.6311H83.2133V13.893C83.0265 13.8498 82.844 13.8067 82.6571 13.7605V13.628L82.1009 13.7605V13.628H81.3579L81.1711 13.3661C80.9104 13.3661 81.0841 13.3261 80.9842 13.4986C80.7539 13.3476 80.9147 13.4986 80.7973 13.2367H81.5404V12.9748H80.7973C80.6235 12.7375 80.541 12.7684 80.428 12.4479H80.7973C80.6887 11.9056 80.5974 11.8194 80.2411 11.2647C79.9978 11.3325 80.2933 11.3171 80.0543 11.3972H79.4981V11.5297C79.8718 11.6037 79.6589 11.5143 79.8675 11.6622C79.3374 11.6499 79.0723 11.6376 78.7551 11.5297V11.6622C78.968 11.8132 78.8289 11.6622 78.9419 11.9241C78.0337 11.9241 77.8861 12.0751 77.2734 12.186V11.7916H77.0865V11.9241H76.8996L76.5302 11.7916V12.186H75.9741V11.9241H75.7872V12.186H75.9741V12.5804C75.3571 12.5773 75.1355 12.5126 74.6749 12.4479V12.7098C74.236 12.6944 74.2055 12.6698 73.9318 12.5773V12.7098C73.7189 12.8608 73.8579 12.7098 73.745 12.9717C72.7673 12.8947 73.3191 12.6883 72.4457 12.8392V12.5773C72.1503 12.5465 72.2111 12.8023 72.0763 12.8392C71.3811 13.0241 70.8076 12.9132 70.221 12.8392V13.2336L69.8516 13.1011V13.2336C69.4779 13.4586 69.869 13.4339 69.6648 13.628H69.4779C69.0303 13.1535 67.7441 13.5479 66.8838 13.628V14.0224C66.5362 13.9546 65.8713 13.551 65.5845 13.628V13.7605H65.3977V14.1549C64.8415 14.198 64.2853 14.2412 63.7291 14.2874V14.5493H63.916C63.8552 14.6818 63.7943 14.8112 63.7291 14.9437C63.2902 14.9283 63.2598 14.9036 62.9861 14.8112V14.9437H62.7993V14.5493H62.4299V14.9437H62.2431V14.8112H61.5V14.9437L61.1306 14.8112V14.9437C60.7222 15.033 60.518 14.9837 60.2051 15.0762V15.4705C59.2796 15.5691 59.2883 15.5876 58.5365 15.2087L58.3497 15.6031H57.6067V15.7356C57.359 15.7787 57.1113 15.8218 56.8637 15.868V15.6061H56.4943C56.3813 16.0683 56.2943 16.2101 55.5687 16.2624V16.1299C55.7816 15.9789 55.6426 16.1299 55.7556 15.868C55.5079 15.8249 55.2603 15.7818 55.0126 15.7356V15.6031C54.6606 15.526 54.7562 15.677 54.6432 15.7356L54.087 15.6031V15.7356H54.2738V16.2624H53.9045V16.0005C53.3961 16.2101 53.5699 16.324 52.7921 16.3949C52.6574 16.7585 52.7399 16.6876 52.2359 16.7893C51.7362 17.2083 51.1539 17.1067 50.3805 17.0512V16.7893H51.1235C51.0626 16.6568 51.0018 16.5274 50.9367 16.3949C50.6542 16.4719 50.6325 16.4966 50.1936 16.5274C50.1632 16.17 50.1328 15.7355 49.8242 15.6061V15.4736C49.9589 15.335 49.9677 15.5877 50.1936 15.3412H49.8242C49.494 15.2025 50.1936 15.2087 50.1936 15.2087C50.0893 14.8882 49.9981 14.919 49.8242 14.6818H50.3805C50.5325 14.8543 50.5109 14.8358 50.7498 14.9437C50.2979 14.2535 50.0676 13.6157 51.6753 13.628C51.8883 13.779 51.6754 13.6804 52.0447 13.7605C52.1056 13.5417 52.1664 13.323 52.2315 13.1042H51.8623V13.3661H51.4929L51.6797 12.9717H51.4929C51.3538 13.2213 51.6233 13.1073 51.306 13.2336C51.0627 13.0796 51.5276 13.0333 51.1191 12.9717V13.2336L50.7498 13.1011V13.2336H50.9367C50.815 13.4093 50.6889 13.5849 50.5673 13.7605H50.3805V13.3661H50.1936V13.4986H49.6374C49.5158 13.6311 49.3897 13.7605 49.268 13.893H48.8988V14.0255H48.3425V14.158H47.9732V14.2905C47.2258 14.4784 46.6653 14.1087 46.3046 14.2905C45.8006 14.5216 45.718 15.0176 45.5616 15.0793H43.893C43.6801 14.9283 43.893 15.0269 43.5236 14.9468V14.6849H43.3368C43.3976 14.8605 43.4584 15.0361 43.5236 15.2117H43.3368C42.9848 15.4274 42.3548 15.3504 41.8551 15.4736V15.6061C41.5813 15.6678 41.1294 15.4644 41.1121 15.4736V15.7356H40.1865C39.9996 16.0437 39.8171 16.3487 39.6303 16.6568H39.4434V16.2624H39.0741C39.0349 16.5736 38.9959 16.589 38.8872 16.7893C38.6787 16.6784 38.8612 16.8047 38.7004 16.6568C38.4875 16.5059 38.6265 16.6568 38.5135 16.3949C38.8307 16.247 38.7656 16.3117 38.8829 16.0005H38.3267V16.7893C38.0182 16.7462 37.7097 16.7031 37.4012 16.6568V16.5243C37.6141 16.3733 37.475 16.5243 37.588 16.2624H37.2186L37.4055 16.0005H37.2186C37.0057 16.1515 37.2187 16.0529 36.8493 16.133C36.8015 16.3887 36.6667 16.3887 36.6624 16.3949C36.3669 17.042 36.8276 17.2361 35.7369 17.3162V17.0543C35.4805 17.119 35.3285 17.1067 34.9939 17.1868V17.3193C34.807 17.2761 34.6245 17.233 34.4377 17.1868V17.3193H34.0683L34.2552 17.5812H33.1428V17.7137C33.3557 17.8646 33.2166 17.7137 33.3296 17.9756C33.0298 17.9663 32.0304 17.8431 32.0304 17.8431C31.9696 17.9294 31.9087 18.0187 31.8436 18.105C31.3395 18.2991 31.2526 18.1389 30.918 18.105V18.2375H30.5487L30.3618 18.4994C30.0532 18.5425 29.7448 18.5856 29.4363 18.6319V18.7644C29.1886 18.7212 28.9409 18.6781 28.6932 18.6319C28.3847 18.675 28.0762 18.7181 27.7676 18.7644V18.8969C27.2158 19.0078 27.016 18.6873 26.6553 18.6349V18.7674C26.4424 18.9184 26.5814 18.7674 26.4684 19.0293H25.7254L25.5386 18.8969C25.443 18.9277 25.4864 19.131 25.1692 19.1588V19.0263L24.613 18.8938V19.0263C24.4261 19.0694 24.2437 19.1125 24.0569 19.1588V18.8969C23.7223 19.0201 23.7657 19.0787 23.3137 19.1588V19.4207H23.1269V19.0263C22.0841 19.017 21.2889 18.712 20.9022 18.2375L21.2715 18.105C21.2845 17.9201 21.089 18.1605 21.0847 17.9725C21.1455 17.7537 21.2063 17.535 21.2715 17.3162H21.6409C21.2324 16.4966 22.0971 16.0406 22.1971 15.2117C22.7707 15.1378 23.4355 15.0793 24.235 15.0793V14.6849H24.7912C24.9172 14.2997 24.9954 14.2535 25.5342 14.158V13.8961C26.6162 13.7204 25.6385 13.5633 26.6466 13.8961V13.6342C27.0594 13.5787 27.281 13.5078 27.5721 13.3723V13.2398C27.9415 13.2151 27.7025 13.44 27.9415 13.2398C28.1544 13.0888 28.0154 13.2398 28.1283 12.9779H28.4977C28.7107 12.4448 28.8758 12.716 29.2408 12.3216C29.6101 12.4078 29.9838 12.4972 30.3532 12.5835V12.451H30.54V11.9241C29.4754 11.9395 29.1799 12.032 28.3152 11.9241C28.2109 12.337 28.1327 12.4757 27.5721 12.5804V12.3185H27.2028V12.7129C26.8248 12.8546 26.4728 13.1011 25.9036 13.1073L25.7167 12.9748C25.0475 13.3322 25.7775 13.5879 24.4175 13.6311L24.6043 13.1042H24.235V13.2367H24.4218C24.4348 13.2829 24.1047 13.7112 24.0525 13.893H23.6831V13.6311H23.3137V13.893L23.1269 13.7605C22.7576 13.8468 22.3839 13.9361 22.0145 14.0224C21.9537 14.1087 21.8929 14.198 21.8277 14.2843C21.5844 14.3582 21.8668 14.1857 21.6409 14.1518C21.454 14.195 21.2715 14.2381 21.0847 14.2843V14.1518H20.5285V14.0193H20.3417V14.1518C20.3417 14.1518 19.8289 14.0316 19.5986 14.0193C19.477 14.2381 19.3509 14.4568 19.2292 14.6756C19.0685 14.6356 18.8208 14.423 18.4862 14.5431V14.6756H18.2994V15.07H18.1125V14.6756H17.9257V15.2025C17.9561 15.3874 18.1212 15.147 18.1125 15.335L17.9257 15.4675C17.6041 15.3535 17.8605 15.4521 17.7388 15.2056H17.5519V15.4675L16.6264 15.6L16.8132 15.3381H16.6264C16.3396 15.5661 16.2919 15.4675 15.8834 15.6V15.7325C15.6096 15.8064 15.1751 15.7664 15.1404 15.6H14.9535V15.9944H14.7666V15.8619H14.5798V16.1238H14.2104V16.3857C13.7411 16.2809 13.0633 16.3764 12.1725 16.3857C12.1117 16.6938 12.0509 16.9988 11.9857 17.307H11.6163V17.0451C11.3339 17.1221 11.3122 17.1467 10.8733 17.1775V17.5719C10.5039 17.6582 10.1302 17.7476 9.76088 17.8338V17.9663H9.39159V18.0988C8.48343 18.3422 8.27048 17.8955 7.72297 18.4932H7.53615L7.72297 18.6257C7.66214 18.7582 7.60133 18.8876 7.53615 19.0201C7.28847 18.977 7.04071 18.9338 6.79302 18.8876V19.282C6.13689 19.3313 6.22822 19.4453 5.68072 19.5439V19.282H5.49379V19.6764C5.12445 19.7195 4.75083 19.7627 4.38148 19.8089L4.19456 20.2033H3.82528C3.76444 20.3358 3.70353 20.4652 3.63835 20.5977H3.45154V20.2033H3.26472L3.0779 20.4652L2.5217 20.3327V20.2002C2.16104 20.1355 2.27397 20.2741 2.15231 20.3327L1.40928 20.2002L1.5961 20.0677V19.9352H1.40928V19.5408H1.5961V19.4083H1.22682C1.22247 18.9708 1.13114 18.8137 1.03989 18.487H0.670608C0.340367 18.3484 1.03989 18.3546 1.03989 18.3546C1.10073 18.2221 1.16164 18.0927 1.22682 17.9602C2.18277 17.991 2.14362 18.2098 2.15231 17.4333C2.46082 17.3902 2.76939 17.347 3.0779 17.3008V16.7739L3.63411 16.6414C3.84703 16.4904 3.63405 16.5891 4.0034 16.5089V16.7708H4.37279V16.5089C4.55963 16.5521 4.74215 16.5952 4.92899 16.6414V16.3795H4.74207L4.92899 15.9851H5.11581V15.8526H5.67202C5.66767 15.6678 5.71105 15.8157 5.48509 15.7201V15.5876H6.0413V15.4552H6.22822L6.41504 15.7171C7.03207 15.8033 7.64911 15.8927 8.27048 15.979C8.28786 15.486 8.43988 15.375 8.63976 15.0577C8.82661 15.1008 9.00912 15.144 9.19597 15.1902V14.9283H9.75218L9.56536 15.1902H9.75218V15.0577H10.1216C10.3258 14.9437 10.2041 14.7403 10.4909 14.6633C10.656 14.7804 10.5604 14.8852 10.8602 14.9252C10.9819 14.7927 11.108 14.6633 11.2296 14.5308H11.7857V14.3983H11.9727V13.8714H12.3419V14.1333C13.1328 14.0809 13.1806 13.8622 13.8237 13.7389C13.9715 13.3137 14.167 13.286 14.193 12.6883H15.8617V12.8207L16.4179 12.6883V12.5557C16.696 12.5034 16.6698 12.7899 16.7871 12.8176L17.3434 12.6852V12.9471H17.5303V12.6852C17.7388 12.5742 17.5563 12.7006 17.7171 12.5527L17.3477 12.6852V12.1583H17.5346V11.6314H18.4601L18.2733 12.0258H18.8295C19.125 11.7701 19.503 11.6745 19.755 11.3695C19.9462 11.4835 20.0114 11.5975 20.1244 11.7639C20.3112 11.6776 20.4937 11.5883 20.6806 11.502V11.3695H21.0499L21.2367 11.1076C21.3584 11.1507 21.4844 11.1939 21.6061 11.2401C21.8538 11.1076 21.3801 11.0182 21.7929 10.9782V11.1107C21.9798 11.1538 22.1623 11.1969 22.3491 11.2432V10.9813C22.1362 10.8303 22.2753 10.9813 22.1623 10.7194C22.6403 10.781 22.9835 10.8457 23.644 10.8518C23.9091 10.5715 24.1307 10.5869 24.5696 10.4575L24.3828 10.0631H25.1258V9.93057H25.3126V10.0631H25.682V9.80118C26.7336 9.77961 26.3729 9.59781 26.9812 9.40678H27.7243V9.27427C27.9372 9.12329 27.7981 9.27428 27.9111 9.01238H28.4673V9.27427H28.8367C28.9888 8.85215 29.0539 8.89223 29.7622 8.87991V9.1418C30.1967 9.00007 30.3662 8.83983 30.8746 8.7474V8.353H31.2439V8.0911C32.2216 8.09418 32.7083 7.93705 33.4687 7.82921C33.6034 8.19279 33.5209 8.12193 34.0249 8.22361C33.9641 8.09112 33.9032 7.9617 33.838 7.82921H34.0249C34.2291 7.64434 34.6723 7.44407 34.9504 7.30234V7.16983H35.5066V7.30234H35.6934V7.6967H35.8803C35.9412 7.1729 36.0715 7.0897 36.8058 7.0404V7.17291C37.0535 7.23454 36.7363 7.0897 36.9926 7.0404C37.7357 6.95413 38.4744 6.86478 39.2175 6.77851C39.0306 6.36871 39.1132 6.57823 39.2175 6.12222C39.6694 6.04827 39.6259 5.98665 39.9605 5.86032V5.99283H40.1473C40.2951 6.18694 39.9605 6.25472 39.9605 6.25472L40.1473 6.51662C40.5732 6.26396 40.382 6.12224 41.0729 5.98974C41.1338 5.85725 41.1946 5.72783 41.2597 5.59534C41.7899 5.7494 42.1332 5.84491 42.9284 5.85724C43.1152 5.59534 43.2977 5.33037 43.4846 5.06847H43.8538L44.0408 5.33037L45.34 5.06847V4.93596H46.6392L46.826 4.67407H47.1954C47.3128 4.31357 47.4387 4.37519 47.5647 4.01777C47.8124 4.06091 48.0601 4.10403 48.3077 4.15024V4.01777C48.512 3.90069 48.3469 4.03933 48.4947 3.88527H48.3077C48.1252 3.6665 48.5729 3.77436 48.6771 3.7528V3.62029C48.864 3.66342 49.0465 3.70658 49.2333 3.7528C49.1725 3.83907 49.1116 3.92842 49.0464 4.01469H49.2333C49.8156 3.54019 50.324 4.01467 51.0888 4.14716C51.2148 3.97461 51.319 4.00543 51.4581 3.88527L51.2713 3.62337H51.6406V3.4909L52.0099 3.35839C52.036 3.17352 51.9708 3.37995 51.8231 3.22589L52.0099 2.96399C52.6356 3.05643 52.7225 3.25055 53.3092 3.35839V2.96399C53.8176 3.04718 53.7307 3.13653 54.2348 3.22589V2.83152C54.439 2.87466 54.5997 3.06567 54.9778 2.96399V2.83152H55.534V2.69901C55.9033 2.48025 56.277 2.26148 56.6464 2.04272V1.78082H57.0157V1.91329C57.2721 1.95027 56.9809 1.88558 57.2025 1.78082L57.5719 1.91329L57.3851 2.3077C58.4192 2.36316 58.945 2.54187 59.6098 2.0458C59.2448 1.8979 59.1753 1.86094 59.0536 1.51893L59.6098 1.38642C59.6706 1.4727 59.7315 1.56204 59.7967 1.64832H60.166V1.12144C60.5701 1.17691 60.6961 1.20771 60.909 1.38334L62.0214 1.12144L61.8346 0.85955H62.7601V0.597656L62.8513 0.628461ZM61.0003 2.60043V2.86233H61.1872V2.60043H61.0003ZM226.186 2.86233V3.12422H226.373V2.86233H226.186ZM61.5565 3.25673V3.51862H61.7434V3.25673H61.5565ZM58.9624 3.51862V3.78052H59.1492V3.51862H58.9624ZM221.549 3.91302C221.762 4.064 221.549 3.96538 221.919 4.04549C221.706 3.89452 221.919 3.99313 221.549 3.91302ZM206.906 4.04549C207.119 4.19647 206.906 4.09789 207.275 4.178C207.062 4.02702 207.275 4.1256 206.906 4.04549ZM50.6195 4.4399C50.6368 4.88667 50.6195 4.91748 50.9889 5.09619V4.96368H50.8019V4.43681H50.6151L50.6195 4.4399ZM204.125 4.57237C204.338 4.72334 204.125 4.62476 204.494 4.70487C204.281 4.5539 204.494 4.65248 204.125 4.57237ZM183.915 4.70179V4.96368H184.102V4.70179H183.915ZM196.894 4.8343L196.707 5.09619C196.707 5.09619 197.246 4.88668 197.077 4.8343H196.89H196.894ZM215.987 4.8343H216.357C216.2 4.98219 216.378 4.85276 216.17 4.96677V5.09928C215.957 4.9483 216.096 5.09928 215.983 4.83738L215.987 4.8343ZM51.9143 4.96677C52.1273 5.11775 51.9144 5.01916 52.2837 5.09928C52.0708 4.9483 52.2837 5.04688 51.9143 4.96677ZM155.923 5.09619V5.35809H156.11V5.09619H155.923ZM53.9566 5.62306V5.75557H53.7698C53.4178 5.86958 54.1392 5.88804 54.1392 5.88804C54.2956 5.74014 54.1174 5.86958 54.326 5.75557C54.1131 5.60459 54.3259 5.70317 53.9566 5.62306ZM196.338 5.62306V5.75557H196.151C195.799 5.86958 196.521 5.88804 196.521 5.88804C196.677 5.74014 196.499 5.86958 196.707 5.75557C196.494 5.60459 196.707 5.70317 196.338 5.62306ZM243.797 5.62306V5.75557H243.61C243.258 5.86958 243.98 5.88804 243.98 5.88804C244.136 5.74014 243.958 5.86958 244.166 5.75557C243.954 5.60459 244.166 5.70317 243.797 5.62306ZM119.583 5.75557V6.01747H119.77V5.75557H119.583ZM73.7928 5.88496V6.14689H73.9796V5.88496H73.7928ZM121.252 5.88496V6.14689H121.439V5.88496H121.252ZM155.549 5.88496C155.862 6.16843 155.918 6.14689 155.918 6.14689C156.053 6.02056 155.597 5.91577 155.549 5.88496ZM203.012 5.88496C203.325 6.16843 203.382 6.14689 203.382 6.14689C203.516 6.02056 203.06 5.91577 203.012 5.88496ZM216.174 5.88496V6.14689H216.361V5.88496H216.174ZM250.471 5.88496C250.784 6.16843 250.841 6.14689 250.841 6.14689C250.976 6.02056 250.519 5.91577 250.471 5.88496ZM46.9086 6.14994H46.5393V6.28244H46.7261V6.41495H46.9129V6.15302L46.9086 6.14994ZM49.3202 6.93874H49.6896C49.6288 6.76311 49.5679 6.5875 49.5027 6.41187H49.3159V6.93874H49.3202ZM191.702 6.93874H192.071L191.884 6.41187H191.697V6.93874H191.702ZM239.161 6.93874H239.53L239.343 6.41187H239.156V6.93874H239.161ZM47.2823 6.67376V7.20063H47.4691V6.67376H47.2823ZM94.7413 6.67376V7.20063H94.9282V6.67376H94.7413ZM189.664 6.67376V7.20063H189.851V6.67376H189.664ZM217.1 6.93874V7.33314H217.287C217.473 7.09589 217.695 6.9418 218.03 6.80623V6.67376H217.66C217.452 6.89869 217.543 6.85246 217.104 6.93565L217.1 6.93874ZM237.123 6.67376V7.20063H237.31V6.67376H237.123ZM130.894 6.80623V7.06816H131.081V6.80623H130.894ZM178.353 7.06816H178.722V6.93565C178.514 6.82473 178.696 6.95108 178.535 6.80318H178.349V7.06508L178.353 7.06816ZM74.7183 6.93874V7.33314H74.9051V6.93874H74.7183ZM122.177 6.93874V7.33314H122.364V6.93874H122.177ZM203.382 7.46253C203.516 7.82611 203.434 7.75525 203.938 7.85693C204.055 7.49643 204.181 7.55805 204.307 7.20063H204.12C203.886 7.45021 203.934 7.41939 203.377 7.46253H203.382ZM205.05 7.20063V7.46253C205.537 7.45328 205.68 7.41017 205.976 7.33006V7.19755H205.05V7.20063ZM107.164 7.33314V7.72754H107.351V7.59503C107.56 7.48411 107.377 7.61042 107.538 7.46253L107.169 7.33006L107.164 7.33314ZM154.624 7.33314V7.72754H154.81V7.59503C155.019 7.48411 154.836 7.61042 154.997 7.46253L154.628 7.33006L154.624 7.33314ZM202.083 7.33314V7.72754H202.269V7.59503C202.478 7.48411 202.295 7.61042 202.456 7.46253L202.087 7.33006L202.083 7.33314ZM249.546 7.33314V7.72754H249.733V7.59503C249.941 7.48411 249.759 7.61042 249.92 7.46253L249.55 7.33006L249.546 7.33314ZM130.707 7.46253V7.72446H130.894V7.46253H130.707ZM216.73 7.46253C217.043 7.746 217.1 7.72446 217.1 7.72446C217.234 7.59813 216.778 7.49334 216.73 7.46253ZM118.658 7.72754V8.12191H118.288V8.3838L118.658 8.25133L118.845 7.85693C119.053 7.74601 118.871 7.87236 119.031 7.72446H118.662L118.658 7.72754ZM126.444 7.72754V7.98944H126.631V7.72754H126.444ZM173.903 7.72754V7.98944H174.09V7.72754H173.903ZM203.012 7.98944H202.456V8.25133H202.826C202.999 8.01408 203.082 8.0449 203.195 7.72446H203.008V7.98635L203.012 7.98944ZM221.362 7.72754V7.98944H221.549V7.72754H221.362ZM103.271 8.25133V7.98944C103.062 8.10036 103.245 7.97401 103.084 8.12191H102.897C103.11 8.27289 102.897 8.1743 103.267 8.25441L103.271 8.25133ZM150.174 7.98944V8.3838H150.361C150.574 8.23282 150.361 8.33144 150.73 8.25133V7.98944H150.174ZM176.498 8.25133V7.98944H175.941V8.12191H176.128C176.341 8.27289 176.128 8.1743 176.498 8.25441V8.25133ZM198.189 8.25133V7.98944C197.981 8.10036 198.163 7.97401 198.002 8.12191H197.815C198.028 8.27289 197.816 8.1743 198.185 8.25441L198.189 8.25133ZM212.837 7.98944V8.25133C213.046 8.14041 212.863 8.26672 213.024 8.11882H213.211C212.998 7.96784 213.211 8.06646 212.841 7.98635L212.837 7.98944ZM239.161 8.12191V8.3838H239.348V8.12191H239.161ZM116.433 8.64573H116.802C116.646 8.49784 116.824 8.62723 116.615 8.51322V8.25133H116.429V8.64573H116.433ZM64.1506 8.3838V8.64573H64.3375V8.3838H64.1506ZM111.614 8.3838V8.7782H111.801V8.3838H111.614ZM206.532 8.3838V8.64573H206.719V8.3838H206.532ZM242.685 8.3838C242.898 8.53478 242.759 8.38383 242.872 8.64573H242.685V8.3838ZM253.995 8.3838V8.64573H254.182V8.3838H253.995ZM38.1963 8.51631V8.7782H38.3832V8.51631H38.1963ZM85.6553 8.51631V8.7782H85.8422V8.51631H85.6553ZM180.578 8.51631V8.7782H180.765V8.51631H180.578ZM228.037 8.51631V8.7782H228.224V8.51631H228.037ZM97.153 8.64573C97.1704 8.67346 97.418 9.12329 97.5223 9.0401V8.90763H97.7092C97.5484 8.77205 97.3876 8.72584 97.153 8.64573ZM144.981 9.30511H145.351V9.04318H144.981L145.168 8.78129C144.981 8.73815 144.799 8.69503 144.612 8.64882V8.78129C144.864 8.93535 144.894 9.02161 144.981 9.30816V9.30511ZM96.0406 8.7782L96.2274 9.1726H96.4142C96.3012 8.85832 96.3534 8.92918 96.0449 8.7782H96.0406ZM143.5 8.7782C143.56 8.91069 143.621 9.04011 143.686 9.1726H143.873C143.76 8.85832 143.812 8.92918 143.504 8.7782H143.5ZM147.024 8.7782H146.654C146.811 8.9261 146.633 8.79671 146.841 8.91071V9.04318H147.028V8.78129L147.024 8.7782ZM220.254 9.30511H220.624V9.04318H220.811C220.75 8.95691 220.689 8.86756 220.624 8.78129C220.415 8.89221 220.598 8.7659 220.437 8.91379H220.25V9.30816L220.254 9.30511ZM65.4498 8.91071C65.6627 9.06169 65.4499 8.96307 65.8192 9.04318C65.6063 8.8922 65.8192 8.99082 65.4498 8.91071ZM96.9661 8.91071V9.30511H97.153V8.91071H96.9661ZM144.425 8.91071V9.30511H144.612V8.91071H144.425ZM147.949 8.91071H147.58C147.736 9.05861 147.558 8.92918 147.767 9.04318V9.17569H147.954V8.91379L147.949 8.91071ZM169.454 8.91071V9.30511H169.641V8.91071H169.454ZM216.917 8.91071V9.30511H217.104V8.91071H216.917ZM29.2972 9.0401V9.30203H29.4841V9.0401H29.2972ZM38.0095 9.0401V9.30203H38.1963V9.0401H38.0095ZM85.4728 9.0401V9.30203H85.6597V9.0401H85.4728ZM97.8917 9.30511V9.04318C97.6831 9.1541 97.8656 9.02779 97.7048 9.17569H97.5179C97.7308 9.32667 97.518 9.22805 97.8873 9.30816L97.8917 9.30511ZM132.932 9.0401V9.30203H133.119V9.0401H132.932ZM147.206 9.0401V9.8289H147.393V9.0401H147.206ZM170.936 9.0401V9.30203H171.123V9.0401H170.936ZM171.679 9.0401V9.30203H171.866V9.0401H171.679ZM180.391 9.0401V9.30203H180.578V9.0401H180.391ZM218.399 9.0401V9.30203H218.586V9.0401H218.399ZM219.142 9.0401V9.30203H219.329V9.0401H219.142ZM227.854 9.0401V9.30203H228.041V9.0401H227.854ZM33.3775 9.1726C33.5904 9.32358 33.3774 9.225 33.7467 9.30511C33.5338 9.15413 33.7468 9.25272 33.3775 9.1726ZM80.8365 9.1726C81.0494 9.32358 80.8364 9.225 81.2058 9.30511C80.9928 9.15413 81.2058 9.25272 80.8365 9.1726ZM223.218 9.1726C223.431 9.32358 223.218 9.225 223.587 9.30511C223.374 9.15413 223.587 9.25272 223.218 9.1726ZM93.9983 9.4345L94.1851 9.8289H94.372C94.259 9.51462 94.3112 9.58548 94.0027 9.4345H93.9983ZM141.462 9.4345C141.523 9.56699 141.583 9.69641 141.649 9.8289H141.835C141.722 9.51462 141.775 9.58548 141.466 9.4345H141.462ZM153.511 9.56701V9.8289H153.698V9.56701H153.511ZM36.3409 10.2233C36.2062 9.85972 36.2888 9.93058 35.7848 9.8289C35.8456 10.0045 35.9064 10.1801 35.9716 10.3558H36.5278V10.4883C36.7885 10.5129 36.4582 10.3958 36.7146 10.3558H37.4576V9.8289C37.249 9.71798 37.4316 9.84429 37.2708 9.69639H36.9014V9.8289H37.0883C37.1492 10.0662 36.6277 10.174 36.3452 10.2233H36.3409ZM60.4442 9.69948L60.2572 9.96141C60.2572 9.96141 60.7961 9.75186 60.6266 9.69948H60.4398H60.4442ZM202.826 9.69948L202.639 9.96141C202.639 9.96141 203.178 9.75186 203.008 9.69948H202.821H202.826ZM28.741 10.3558H29.1104V10.2233C28.9018 10.1124 29.0843 10.2387 28.9236 10.0908H28.7366V10.3527L28.741 10.3558ZM35.2286 10.0939V10.3558C35.4371 10.2448 35.2546 10.3712 35.4154 10.2233H35.6022C35.3893 10.0723 35.6022 10.1709 35.2329 10.0908L35.2286 10.0939ZM76.2001 10.3558H76.5694V10.2233C76.3608 10.1124 76.5434 10.2387 76.3826 10.0908H76.1958V10.3527L76.2001 10.3558ZM82.6919 10.0939V10.3558C82.9005 10.2448 82.718 10.3712 82.8787 10.2233H83.0656C82.8526 10.0723 83.0656 10.1709 82.6963 10.0908L82.6919 10.0939ZM130.151 10.0939V10.3558C130.36 10.2448 130.177 10.3712 130.338 10.2233H130.525C130.312 10.0723 130.525 10.1709 130.155 10.0908L130.151 10.0939ZM218.586 10.3558H218.955V10.2233C218.747 10.1124 218.929 10.2387 218.768 10.0908H218.582V10.3527L218.586 10.3558ZM225.073 10.0939V10.3558C225.282 10.2448 225.099 10.3712 225.26 10.2233H225.447C225.234 10.0723 225.447 10.1709 225.078 10.0908L225.073 10.0939ZM32.265 10.8827V10.6208L31.7088 10.7533L31.8957 11.2801H31.7088V11.4126C31.2743 11.4558 30.8441 11.4989 30.4096 11.5451V11.807C30.6529 11.8317 31.5611 11.9672 31.7088 11.9395L31.8957 11.6776L32.4519 11.8101C32.5127 11.5914 32.5736 11.3726 32.6388 11.1538H32.8256C33.0385 11.0028 32.8255 11.1014 33.1949 11.0213V11.2832H34.1205V11.0213H34.4898C34.3681 10.7594 34.2422 10.4944 34.1205 10.2325H33.9337L33.7467 10.6269C33.4817 10.7594 32.6778 10.8642 32.265 10.8888V10.8827ZM53.2136 10.2233V10.6177H53.4004V10.2233H53.2136ZM28.3717 10.4883V10.7502H28.5585V10.4883H28.3717ZM57.2938 10.4883V10.7502H57.4807V10.4883H57.2938ZM75.8307 10.4883V10.7502H76.0175V10.4883H75.8307ZM123.29 10.4883V10.7502H123.477V10.4883H123.29ZM178.353 10.4883C178.566 10.6393 178.353 10.5406 178.722 10.6208C178.509 10.4698 178.722 10.5684 178.353 10.4883ZM199.675 10.4883V10.7502H199.862V10.4883H199.675ZM218.212 10.4883V10.7502H218.399V10.4883H218.212ZM49.6896 10.6177C49.9025 10.7686 49.7635 10.6177 49.8764 10.8796H49.6896V10.6177ZM96.9661 10.7502C97.1746 10.9751 97.0834 10.9289 97.5223 11.0121C97.3615 10.8765 97.2007 10.8303 96.9661 10.7502ZM118.102 11.0121H118.471V10.8796C118.262 10.7687 118.445 10.895 118.284 10.7471H118.097V11.009L118.102 11.0121ZM49.3202 10.8827H49.6896V11.0152C49.3159 10.9412 49.5288 11.0306 49.3202 10.8827ZM101.046 10.8827C101.259 11.0337 101.12 10.8827 101.233 11.1446H101.046V10.8827ZM150.917 11.4065H150.548V10.8796H150.361V11.0121C150.148 11.163 150.287 11.0121 150.174 11.274C150.361 11.3602 150.543 11.4496 150.73 11.5359C150.887 11.6838 150.708 11.5544 150.917 11.6684V11.4065ZM99.3777 11.0121V11.274H99.5645V11.0121H99.3777ZM38.5657 11.277V11.539H38.7525V11.277H38.5657ZM86.0291 11.277V11.539H86.2159V11.277H86.0291ZM127.001 11.4065C127.214 11.5574 127.001 11.4589 127.37 11.539C127.157 11.388 127.37 11.4866 127.001 11.4065ZM61.1828 11.8009V11.539C60.9743 11.6499 61.1567 11.5236 60.9959 11.6714H60.8091C61.022 11.8224 60.8091 11.7238 61.1785 11.804L61.1828 11.8009ZM156.105 11.8009V11.539C155.897 11.6499 156.079 11.5236 155.918 11.6714H155.731C155.944 11.8224 155.732 11.7238 156.101 11.804L156.105 11.8009ZM44.6839 12.0658V12.3277H44.8707V12.0658H44.6839ZM48.3946 12.0658V12.3277H48.5816V12.0658H48.3946ZM34.4898 12.1953V12.4572H34.6767V12.1953H34.4898ZM49.3202 12.4603C49.3115 12.9933 49.2334 13.0272 49.6896 13.249V13.1165C49.3768 12.8331 49.833 12.4818 50.0589 12.1953H49.8721C49.6635 12.4202 49.7548 12.374 49.3159 12.4572L49.3202 12.4603ZM52.6574 12.1953C52.8703 12.3463 52.6574 12.2476 53.0268 12.3277C52.8138 12.1768 53.0267 12.2754 52.6574 12.1953ZM62.2952 12.1953C62.2344 12.3278 62.1735 12.4571 62.1083 12.5896H62.2952V12.4572C62.3735 12.3801 62.5994 12.4387 62.4821 12.1953H62.2952ZM81.9489 12.1953V12.4572H82.1357V12.1953H81.9489ZM144.243 12.4603C144.234 12.9933 144.156 13.0272 144.612 13.249V13.1165C144.299 12.8331 144.755 12.4818 144.981 12.1953H144.794C144.586 12.4202 144.677 12.374 144.238 12.4572L144.243 12.4603ZM147.58 12.1953C147.793 12.3463 147.58 12.2476 147.949 12.3277C147.736 12.1768 147.949 12.2754 147.58 12.1953ZM64.7068 12.3277V12.5896H64.8937V12.3277H64.7068ZM85.4728 12.5896H85.8422V12.4572C85.6337 12.3462 85.8161 12.4726 85.6553 12.3247H85.4685V12.5866L85.4728 12.5896ZM112.17 12.3277V12.5896H112.357V12.3277H112.17ZM128.669 12.3277C128.882 12.4787 128.743 12.3277 128.856 12.5896H128.669V12.3277ZM87.8801 12.4603C87.8193 12.5465 87.7585 12.6359 87.6933 12.7221L88.0626 12.8546C88.1973 12.6975 87.6715 12.7406 88.0626 12.4603H87.8758H87.8801ZM65.0762 12.5896L64.8894 12.984H65.0762V12.7221H65.263V12.5896H65.0762ZM112.54 12.5896L112.353 12.8515C112.353 12.8515 112.891 12.642 112.722 12.5896H112.535H112.54ZM15.2055 13.1165H15.5749V12.984C15.3663 12.8731 15.5488 12.9994 15.388 12.8515H15.2012V13.1135L15.2055 13.1165ZM119.583 13.1165H119.214C119.37 13.2644 119.192 13.135 119.401 13.249V13.3815H119.588V13.1196L119.583 13.1165ZM21.5105 13.3784V13.6403H21.6973V13.3784H21.5105ZM48.2078 13.3784V13.9053H48.3946V13.7728H48.5816C48.5207 13.6866 48.4598 13.5972 48.3946 13.5109H48.5816C48.3686 13.3599 48.5815 13.4586 48.2122 13.3784H48.2078ZM116.433 13.3784V13.6403H116.62V13.3784H116.433ZM144.425 13.3784C144.212 13.5294 144.425 13.4308 144.056 13.5109V13.6434H144.425C144.486 13.5571 144.547 13.4678 144.612 13.3815H144.425V13.3784ZM58.0325 13.7728L57.8456 14.0347C57.8456 14.0347 58.3844 13.8252 58.215 13.7728H58.0282H58.0325ZM50.9889 14.0378V14.2997H51.1757V14.0378H50.9889ZM55.069 14.0378V14.2997H55.2558V14.0378H55.069ZM46.3524 14.2997H46.7218C46.5697 14.4723 46.5914 14.4538 46.3524 14.5616V14.6941H46.1656L46.3524 14.2997ZM52.8443 14.2997L52.6574 14.5616C52.6574 14.5616 53.1962 14.3521 53.0268 14.2997H52.8399H52.8443ZM38.5657 14.8266V15.0885H38.7525V14.8266H38.5657ZM24.2914 15.4829V15.7448H24.4784V15.4829H24.2914ZM28.3717 15.6154V16.0098H29.1147V16.2717H29.6709C29.823 16.0991 29.8012 16.1176 30.0402 16.0098V15.6154C29.2668 15.7109 29.2625 15.6493 28.3717 15.6154ZM13.3544 15.8773C13.5673 16.0283 13.3545 15.9296 13.7238 16.0098C13.5109 15.8588 13.7238 15.9574 13.3544 15.8773ZM51.7319 16.0098V16.2717H51.9187V16.0098H51.7319ZM5.7502 18.1111C5.68937 18.2436 5.62856 18.3731 5.56339 18.5056H5.7502V18.2436H5.93702V18.1111H5.7502ZM29.6666 18.2436V18.5056H29.8534V18.2436H29.6666Z" fill="#FDE6AD"/>
</svg>
