<svg width="235" height="157" viewBox="0 0 235 157" fill="none" xmlns="http://www.w3.org/2000/svg">
<path d="M68.9511 62.8148C69.826 61.0881 75.5243 56.8636 75.5128 56.0003C75.5128 55.137 75.5359 51.8794 76.146 50.7859C77.2051 48.8751 78.3448 51.3959 79.2312 50.9816C80.1177 50.5557 81.5911 48.783 82.6042 48.3916C83.6172 48.0002 83.7899 49.3815 84.3079 50.1988C84.8259 51.0161 86.219 49.347 86.6909 50.2794C87.0133 50.9125 86.4147 52.5125 87.4277 52.9269C88.4408 53.3413 88.5443 53.6981 88.0723 54.7226C87.6003 55.7471 86.9786 56.0924 87.1744 57.0363C87.3701 57.9802 87.1169 58.1414 86.4262 58.6939C85.7355 59.2464 83.3869 59.6263 81.4184 60.1097C79.4383 60.5932 74.4308 67.9256 72.3126 69.4336C70.5973 70.6537 67.1322 66.3716 68.9511 62.8148Z" fill="#FFDBB0"/>
<path d="M37.6055 144.565C38.158 144.082 38.5264 143.564 38.6185 142.781C38.8257 141.02 38.5263 138.085 40.4028 134.931C42.2792 131.765 41.9569 132.214 43.7413 129.451C45.5141 126.689 45.8826 124.836 45.9746 121.762C46.0667 118.689 47.0107 115.903 49.2325 113.302C51.4658 110.712 53.4228 110.781 57.0145 111.356C60.6062 111.943 59.7544 115.178 59.3284 119.391C59.1097 122.107 58.8564 124.467 56.7383 126.919C54.6085 129.359 53.0428 132.387 52.4672 134.044C51.5693 136.634 48.4381 141.147 47.2984 142.378C46.0666 143.713 44.0061 146.315 44.6507 148.364C44.7659 148.744 44.904 149.02 45.0421 149.239C41.8418 149.745 38.9063 147.627 37.6055 144.565Z" fill="#FFDBB0"/>
<path d="M37.624 144.565C38.9364 147.627 41.8719 149.745 45.0607 149.239C45.6593 150.194 46.3615 150.068 46.6493 152.83C47.1213 157.262 43.3799 157.147 40.2602 154.695C38.0729 152.98 33.4912 147.593 35.8627 145.866C36.5419 145.371 37.1405 144.991 37.6125 144.577L37.624 144.565Z" fill="#003F67"/>
<path d="M76.9888 146.119C78.6581 147.178 78.8652 145.716 81.1216 148.099C84.0917 151.23 81.0987 154.016 77.2076 154.476C74.4793 154.798 67.7218 154.073 68.5737 150.885C68.9306 149.549 69.2874 148.525 69.2759 147.616C72.1769 148.56 74.6174 147.742 77.0004 146.131L76.9888 146.119Z" fill="#003F67"/>
<path d="M59.9301 114.924C60.1603 111.172 70.1295 112.265 72.501 119.149C73.6637 122.522 74.4581 126.228 74.9761 127.966C75.7934 130.694 75.2293 135.667 75.2178 139.132C75.2178 141.02 75.2408 144.968 76.9446 146.084C76.9561 146.084 76.9676 146.096 76.9907 146.107C74.5962 147.719 72.1672 148.536 69.2662 147.592C69.2662 147.155 69.1626 146.729 68.9323 146.315C68.0574 144.772 66.1005 142.677 65.7091 138.752C65.3177 134.827 65.3292 135.414 65.0989 131.868C64.8687 128.323 64.0743 126.585 62.336 124.087C60.5977 121.589 59.6998 118.665 59.9301 114.913V114.924Z" fill="#FFDBB0"/>
<path d="M70.3014 86.7344C67.9645 85.6869 59.9751 87.1948 55.2437 87.4365C50.662 87.6668 48.4978 88.7834 43.375 88.4035C39.3689 88.1042 41.1417 92.3518 38.1601 102.009C36.1916 108.387 29.906 117.941 32.5423 119.587C35.1785 121.233 41.3258 122.971 44.4225 121.555C47.5077 120.139 48.4978 119.713 52.5845 120.945C56.1417 122.027 61.4602 119.449 65.7772 118.343C69.3804 117.423 71.7519 117.331 74.7219 117.549C80.4318 117.975 84.2998 115.489 85.0942 114.591C86.2569 113.302 85.3704 108.018 79.5799 102.021C73.7894 96.0237 73.3636 89.0941 70.3129 86.7344H70.3014Z" fill="#A2A2A2"/>
<path d="M38.6435 76.317C38.3096 72.6451 38.9658 65.9226 42.7992 60.9039C46.5752 55.9657 49.1422 53.5253 53.77 52.8117C55.9803 52.4778 59.7908 52.8462 64.6488 55.3441C67.0893 56.5988 72.2697 65.6464 73.0295 68.9155C73.5476 71.1486 73.1331 70.976 71.0724 72.5185C69.6449 73.589 69.7717 74.6364 70.589 77.376C73.7778 88.0121 72.5 89.0826 69.2766 90.0841C62.5191 92.1791 38.3672 95.6439 38.3672 91.3388C38.3672 87.9431 38.9313 79.4941 38.6435 76.317Z" fill="#F2A096"/>
<path d="M48.3283 52.3747C51.5862 54.5503 55.1664 54.7344 57.6069 53.6294C60.0475 52.5243 61.9815 50.7632 63.4895 48.5185C64.5371 46.412 64.8594 43.7876 64.7327 42.7861C64.6061 41.8652 64.2378 40.8638 63.6968 40.0005C62.4535 37.9746 64.0421 37.2954 60.4619 33.6695C59.3682 32.5759 53.6007 27.8795 46.8778 30.504C40.9722 32.8177 41.5132 47.8164 48.3398 52.3632L48.3283 52.3747Z" fill="#FFDBB0"/>
<path d="M61.2883 30.9178C60.7012 30.043 58.2492 28.466 55.8662 28.5581C52.9192 28.6732 52.1248 26.889 49.1893 27.6026C45.091 28.5926 41.8101 31.1365 40.8546 32.4948C38.8055 35.4301 39.2084 37.3409 38.817 39.2517C38.1148 42.728 32.5086 51.6144 45.8279 54.5612C47.0596 54.8375 48.3028 53.813 48.3259 51.3727C48.1186 48.4489 46.507 48.8864 45.2982 47.977C44.0549 47.0561 44.1355 44.3396 46.035 44.7309C47.6006 45.0417 47.7964 44.1553 48.1302 40.9553C48.5332 37.0646 65.0642 39.8388 61.2883 30.9063V30.9178Z" fill="#003F67"/>
<path d="M50.0462 38.6419C50.9441 38.3886 51.773 38.5613 51.5313 39.3555C51.2895 40.1498 50.8406 41.5311 50.5989 41.911C50.3571 42.3024 50.0692 42.7743 49.3209 41.7383C48.5727 40.7023 48.4576 40.6332 47.9396 40.2189C47.4215 39.8045 47.4101 39.9081 46.3855 40.3915C45.3494 40.8635 44.555 41.3125 44.1521 40.9326C43.7492 40.5527 43.8068 39.9196 44.1521 38.803C44.4975 37.6865 44.555 36.5354 45.1767 37.0419C45.7983 37.5484 46.4546 38.2275 46.7079 38.5843C46.9726 38.9412 47.4676 39.275 48.1353 39.1369C48.803 38.9988 49.4476 38.8836 50.0462 38.6534V38.6419Z" fill="#F2A096"/>
<path d="M48.1877 38.4578C48.418 38.665 48.7173 38.9989 48.464 39.701C48.1992 40.4032 47.946 40.783 47.6582 40.806C47.1287 40.8406 47.0826 40.7255 46.8869 40.2535C46.6912 39.7816 46.8063 39.4133 47.1862 38.8492C47.5661 38.2852 47.8193 38.3197 48.1877 38.4693V38.4578Z" fill="#F2A096"/>
<path d="M54.5367 68.202C55.2159 66.3948 62.526 57.7961 62.4224 56.9328C62.3187 56.0694 61.985 52.8349 62.48 51.6838C63.3319 49.6694 64.7247 52.0521 65.5766 51.5341C66.417 51.0161 67.6833 49.0938 68.6503 48.5988C69.6173 48.1039 69.9397 49.4507 70.5383 50.1989C71.1484 50.9471 72.3456 49.1513 72.9212 50.0147C73.3126 50.6132 72.8867 52.2593 73.9458 52.5701C75.0049 52.8809 75.143 53.2147 74.7861 54.2853C74.4293 55.3558 73.8422 55.7702 74.1415 56.6795C74.4408 57.5889 74.2106 57.7846 73.589 58.4062C72.9673 59.0278 70.6764 59.6723 68.7654 60.363C66.8545 61.0536 64.3103 68.5128 60.6956 73.8423C59.5098 75.592 53.1438 71.9315 54.5598 68.1905L54.5367 68.202Z" fill="#FFDBB0"/>
<path d="M180.994 122.763C180.66 122.118 180.499 121.497 180.694 120.737C181.143 119.033 182.479 116.409 181.88 112.794C181.281 109.18 181.42 109.698 180.763 106.498C180.107 103.286 180.441 101.433 181.466 98.5438C182.49 95.6546 182.628 92.7193 181.5 89.4963C180.361 86.2732 178.519 85.6401 174.973 84.8688C171.416 84.1091 171.036 87.4243 169.908 91.5107C169.125 94.1121 168.503 96.4028 169.597 99.4417C170.691 102.481 171.059 105.865 170.99 107.603C170.886 110.331 172.164 115.672 172.774 117.226C173.442 118.907 174.409 122.084 173.062 123.741C172.809 124.052 172.59 124.259 172.383 124.409C175.169 126.032 178.668 125.134 180.994 122.763Z" fill="#FFDBB0"/>
<path d="M166.674 90.314C166.34 86.573 158.04 88.6795 155.875 95.6206C154.816 99.0163 154.125 102.734 153.653 104.484C152.917 107.224 153.619 112.173 153.723 115.627C153.78 117.514 153.872 121.451 152.203 122.614C152.191 122.614 152.18 122.625 152.157 122.637C150.741 127.195 159.858 128.645 160.273 124.11C160.273 123.673 159.985 123.028 160.215 122.614C161.044 121.048 162.932 118.907 163.208 114.982C163.485 111.057 163.485 111.644 163.611 108.098C163.738 104.553 164.279 101.986 165.937 99.4537C167.594 96.9213 166.996 94.0666 166.662 90.3256L166.674 90.314Z" fill="#FFDBB0"/>
<path d="M173.349 122.222C174.512 121.6 176.907 120.772 178.15 120.91C179.727 121.071 180.498 120.91 181.154 122.786C181.914 124.973 182.49 124.939 182.214 126.976C182.052 128.242 181.235 130.452 178.921 131.477C176.596 132.501 173.971 134.965 171.358 135.252C169.666 135.437 167.352 135.713 167.743 131.937C167.962 129.831 169.758 128.438 170.817 126.631C171.864 124.823 170.633 123.661 173.349 122.234V122.222Z" fill="#003F67"/>
<path d="M155.689 66.774C157.865 65.4387 158.982 65.4964 163.69 65.105C168.26 64.7366 171.875 65.0704 177.009 65.0935C181.499 65.105 184.009 62.4344 186.61 73.2202C187.508 76.9497 187.439 85.0073 185.724 89.9455C184.63 93.088 185.045 98.1989 184.849 98.9356C183.974 102.216 184.78 103.103 178.126 102.585C175.144 102.354 170.689 102.159 167.973 101.998C167.178 101.951 167.685 100.536 166.948 100.467C162.861 100.075 152.524 99.6723 151.821 99.0737C150.498 97.9456 151.257 93.56 152.547 86.1469C153.986 77.9512 152.961 69.5136 155.666 66.774H155.689Z" fill="#A2A2A2"/>
<path d="M167.266 98.5669C167.266 98.5669 167.255 98.5669 167.243 98.5669C167.013 98.5554 166.829 98.3482 166.84 98.118C166.898 97.1626 166.863 94.1697 166.84 92.1783C166.84 91.4416 166.84 90.8201 166.84 90.4747C166.84 90.233 167.036 90.0488 167.266 90.0488C167.497 90.0488 167.692 90.2445 167.692 90.4747C167.692 90.8201 167.692 91.4416 167.692 92.1783C167.715 94.2963 167.738 97.1971 167.681 98.1756C167.669 98.4058 167.485 98.5784 167.255 98.5784L167.266 98.5669Z" fill="#003F67"/>
<path d="M182.659 54.2842C181.128 49.3 180 44.8682 181.6 46.0078C184.662 48.1949 188.139 42.9229 190.545 40.6322C192.87 38.4106 190.625 36.4308 188.876 34.3127C186.838 31.8494 181.865 28.776 175.153 27.1759C170.652 26.1054 167.694 27.1875 165.771 27.1875C163.595 27.1875 157.517 27.1759 151.208 30.5141C148.572 31.9069 141.009 36.776 140.548 40.1027C140.053 43.6826 144.658 47.9762 148.733 48.7014C150.886 49.0813 153.016 45.674 154.052 46.3647C155.399 47.2625 154.294 54.5374 155.376 63.2512C155.825 66.8196 154.536 67.8556 158.081 67.9132C167.751 68.0628 183.592 66.9002 185.077 64.5519C187.275 62.3879 184.064 58.8195 182.659 54.2842Z" fill="#E2C2BC"/>
<path d="M174.348 23.8034C172.517 27.4869 169.352 29.5243 166.554 29.789C163.757 30.0538 161.074 29.4667 158.53 28.212C156.47 26.8422 154.812 24.6206 154.409 23.6307C154.041 22.7213 153.857 21.6163 153.891 20.5458C153.972 18.0479 152.164 18.2551 153.534 13.0867C153.949 11.5212 156.758 4.23476 164.252 3.1182C170.837 2.13977 178.17 16.0911 174.336 23.7919L174.348 23.8034Z" fill="#FFDBB0"/>
<path d="M152.07 14.2611C152.151 13.156 152.819 7.20487 155.04 6.05377C157.78 4.61491 157.573 2.5775 160.624 1.69115C164.872 0.459482 169.189 1.05808 170.766 1.79478C174.173 3.3948 174.795 5.35164 176.153 6.8826C178.605 9.67976 182.047 18.4281 175.382 23.1476C174.3 23.9188 175.117 25.1044 173.816 22.8943C172.481 20.1202 174.173 19.6712 174.806 18.2324C175.451 16.7475 173.966 14.3187 172.446 15.6539C171.192 16.759 171.641 17.5187 169.672 14.7906C168.521 13.2021 164.331 16.5058 158.321 11.3489C156.687 9.94452 152.715 19.5446 152.07 14.2726V14.2611Z" fill="#003F67"/>
<path d="M153.158 122.176C154.389 121.704 156.864 121.175 158.085 121.451C159.627 121.808 160.421 121.739 160.836 123.673C161.319 125.929 161.895 125.975 161.377 127.966C161.055 129.21 159.984 131.293 157.555 132.03C155.126 132.766 152.225 134.884 149.589 134.85C147.885 134.827 145.56 134.815 146.4 131.12C146.872 129.06 148.829 127.897 150.095 126.228C151.362 124.571 150.268 123.258 153.146 122.165L153.158 122.176Z" fill="#003F67"/>
<path d="M230.069 64.334H108.895V68.2132H230.069V64.334Z" fill="#E2E5D8"/>
<path d="M111.099 82.1182H2.47266V85.9973H111.099V82.1182Z" fill="#E2E5D8"/>
<path d="M106.602 151.173C106.602 152.266 107.879 153.164 109.456 153.164C111.034 153.164 112.312 152.278 112.312 151.173V58.59C112.312 57.4965 111.034 56.5986 109.456 56.5986C107.879 56.5986 106.602 57.4965 106.602 58.59V151.173Z" fill="#F2A096"/>
<path d="M0.632812 151.61C0.632812 152.473 1.91061 153.164 3.48774 153.164C5.06487 153.164 6.34267 152.473 6.34267 151.61V79.1487C6.34267 78.2854 5.06487 77.5947 3.48774 77.5947C1.91061 77.5947 0.632812 78.2969 0.632812 79.1487V151.61Z" fill="#F2A096"/>
<path d="M6.80685 78.7339C6.80685 80.2303 5.98954 81.4505 4.97649 81.4505H2.01785C1.00481 81.4505 0.1875 80.2303 0.1875 78.7339V76.0173C0.1875 74.5209 1.00481 73.3008 2.01785 73.3008H4.97649C5.98954 73.3008 6.80685 74.5094 6.80685 76.0173V78.7339Z" fill="#A2A2A2"/>
<path d="M112.76 59.4645C112.76 60.9609 111.943 62.181 110.93 62.181H107.971C106.958 62.181 106.141 60.9609 106.141 59.4645V56.7479C106.141 55.24 106.958 54.0312 107.971 54.0312H110.93C111.943 54.0312 112.76 55.2515 112.76 56.7479V59.4645Z" fill="#A2A2A2"/>
<path d="M227.926 151.173C227.926 152.266 229.204 153.164 230.781 153.164C232.358 153.164 233.636 152.278 233.636 151.173V58.59C233.636 57.4965 232.358 56.5986 230.781 56.5986C229.204 56.5986 227.926 57.4965 227.926 58.59V151.173Z" fill="#F2A096"/>
<path d="M234.092 59.4645C234.092 60.9609 233.275 62.181 232.262 62.181H229.303C228.29 62.181 227.473 60.9609 227.473 59.4645V56.7479C227.473 55.24 228.29 54.0312 229.303 54.0312H232.262C233.275 54.0312 234.092 55.2515 234.092 56.7479V59.4645Z" fill="#A2A2A2"/>
<path d="M151.707 58.9811C152.179 60.0516 152.489 61.2833 153.238 61.433C153.986 61.5826 157.175 61.9394 157.635 62.9523C158.487 64.8171 156.691 64.7366 156.899 65.5884C157.094 66.4402 158.786 67.3266 158.395 68.2014C157.935 69.2259 157.52 69.2719 156.714 69.5597C155.909 69.859 155.932 70.7568 154.677 70.8028C153.088 70.8489 152.927 70.9525 151.81 71.1136C149.991 71.3784 149.266 70.3654 148.875 69.6863C148.242 68.5697 148.184 67.5337 148.184 65.7265C148.184 64.8056 147.896 63.2862 146.572 62.3998C145.421 61.6286 142.232 58.9466 139.596 55.6429C135.912 51.0385 140.863 42.6931 142.831 40.6787C143.925 39.5967 148.092 41.8643 151.603 44.8572C153.203 46.6874 145.226 49.3579 147.862 52.8803C150.383 56.23 151.292 58.0602 151.707 58.9811Z" fill="#FFDBB0"/>
<path d="M183.987 59.1196C183.573 60.2247 183.342 61.4679 182.594 61.6521C181.857 61.8477 178.692 62.3887 178.289 63.4247C177.54 65.3355 179.336 65.1514 179.187 66.0147C179.037 66.878 177.402 67.8564 177.84 68.7082C178.358 69.6981 178.772 69.7212 179.601 69.9745C180.418 70.2277 180.453 71.1255 181.708 71.091C183.296 71.0449 183.469 71.137 184.586 71.2406C186.416 71.4018 187.084 70.3428 187.429 69.6407C187.993 68.4896 187.993 67.4535 187.89 65.6463C187.832 64.737 188.039 63.1945 189.306 62.2276C190.411 61.3873 193.438 58.5211 195.891 55.0793C199.31 50.2677 193.876 42.2216 191.792 40.3223C190.641 39.3093 186.6 41.8072 183.273 44.9957C181.777 46.9065 189.904 49.1281 187.464 52.7886C185.15 56.2764 184.333 58.1527 183.976 59.0966L183.987 59.1196Z" fill="#FFDBB0"/>
<path d="M182.331 30.5144C184.472 29.5705 189.572 34.4166 191.379 37.5246C193.186 40.6325 190.757 41.9332 188.904 43.6023C187.039 45.2714 183.562 47.9305 181.605 46.0081C179.637 44.0973 178.244 39.539 177.853 37.1217C177.461 34.6814 179.153 31.9072 182.331 30.5144Z" fill="#E2C2BC"/>
<path d="M147.295 33.0581C144.716 34.8769 141.102 37.7776 139.778 41.1158C138.454 44.454 140.48 45.1907 142.944 46.7331C145.396 48.2871 148.976 50.3131 150.737 48.1835C152.498 46.054 152.625 46.8022 154.996 44.2353C156.815 42.2669 149.298 31.6423 147.295 33.0581Z" fill="#E2C2BC"/>
</svg>
