<svg width="185" height="102" fill="none" xmlns="http://www.w3.org/2000/svg"><path d="M162.822.108H33.754c-3.211 0-5.844 2.14-5.844 4.758V6.23c0 2.618 2.633 4.757 5.844 4.757h129.068c3.211 0 5.844-2.139 5.844-4.757V4.866c0-2.619-2.633-4.758-5.844-4.758Z" fill="#E2C2BC"/><path d="M17.794 86.832h152.482c6.865 0 12.476-7.338 12.476-16.312v-8.543H5.306v8.543c0 8.974 5.623 16.312 12.476 16.312h.012Z" fill="#6B6B6B"/><path d="M182.432 42.702c.073-.823.061-1.671-.05-2.532l-3.186-24.671c-.886-6.835-7.457-12.44-14.593-12.44H31.119c-7.136 0-14.716 5.384-16.857 11.96L5.97 40.637c-.419 1.279-.59 2.508-.554 3.663a22.765 22.765 0 0 0-.098 2.066v15.611h177.446V46.366c0-1.267-.111-2.484-.32-3.664h-.012Z" fill="#E2C2BC"/><path d="M38.844 101.805c-8.908 0-16.13-7.215-16.13-16.115 0-8.9 7.222-16.116 16.13-16.116 8.909 0 16.13 7.216 16.13 16.116 0 8.9-7.221 16.115-16.13 16.115Z" fill="#282828"/><path d="M32.184 92.339a9.398 9.398 0 0 1 0-13.3c3.675-3.671 9.635-3.671 13.31.001a9.398 9.398 0 0 1 0 13.299c-3.675 3.672-9.635 3.672-13.31 0Z" fill="#fff"/><path d="M147.86 101.805c-8.909 0-16.13-7.215-16.13-16.115 0-8.9 7.221-16.116 16.13-16.116 8.908 0 16.13 7.216 16.13 16.116 0 8.9-7.222 16.115-16.13 16.115Z" fill="#282828"/><path d="M141.211 92.339a9.397 9.397 0 0 1 0-13.3c3.676-3.671 9.635-3.671 13.311 0a9.397 9.397 0 0 1 0 13.3c-3.676 3.672-9.635 3.672-13.311 0Z" fill="#fff"/><path d="M92.172 8.345h14.986a5.251 5.251 0 0 1 5.254 5.249v13.854a5.251 5.251 0 0 1-5.254 5.248H92.172a5.251 5.251 0 0 1-5.253-5.248V13.594a5.251 5.251 0 0 1 5.253-5.25Zm29.137 0h14.986a5.251 5.251 0 0 1 5.254 5.249v13.854a5.251 5.251 0 0 1-5.254 5.248h-14.986a5.251 5.251 0 0 1-5.254-5.248V13.594a5.251 5.251 0 0 1 5.254-5.25Zm29.121 0h14.986a5.251 5.251 0 0 1 5.254 5.249v13.854a5.251 5.251 0 0 1-5.254 5.248H150.43a5.252 5.252 0 0 1-5.254-5.248V13.594a5.252 5.252 0 0 1 5.254-5.25ZM45.33 39.37c0 3.148-2.572 5.717-5.721 5.717h-18.64c-3.15 0-4.996-2.471-4.098-5.483l7.653-25.765c.898-3.012 4.208-5.483 7.358-5.483h7.727c3.15 0 5.721 2.57 5.721 5.716v25.299Zm130.112 43.37h-7.383c-1.427 0-2.584.663-2.584 1.487v3.909c0 .811 1.169 1.487 2.584 1.487h7.383c1.427 0 2.583-.664 2.583-1.487v-3.91c0-.81-1.168-1.487-2.583-1.487Zm-113.687.331h63.204a2.865 2.865 0 0 1 2.867 2.865v.81a2.865 2.865 0 0 1-2.867 2.865H61.754a2.866 2.866 0 0 1-2.866-2.864v-.811a2.866 2.866 0 0 1 2.867-2.865Zm116.766-41.143c0 1.118-1.71 2.04-3.801 2.04H90.733c-2.091 0-3.801-.922-3.801-2.04v-.59c0-1.12 1.71-2.041 3.801-2.041h83.987c2.091 0 3.801.922 3.801 2.04v.59ZM81.022 63.686c0 8.36-2.535 15.206-5.636 15.206H59.293c-3.1 0-5.635-6.847-5.635-15.206V23.551c0-8.36 2.534-15.206 5.635-15.206h16.093c3.1 0 5.636 6.847 5.636 15.206v40.135ZM5.516 56.617H3.781a1.82 1.82 0 0 0-.836.21c-1.477.626-2.56 2.654-2.56 5.076 0 2.422 1.083 4.45 2.56 5.077.258.135.541.209.836.209h1.735c1.464 0 2.658-1.795 2.658-3.983v-2.594c0-2.188-1.194-3.983-2.658-3.983v-.012Zm176.596 6.123h.578c1.169 0 2.117.946 2.117 2.114v10.178a2.116 2.116 0 0 1-2.117 2.114h-.578a2.115 2.115 0 0 1-2.116-2.114V64.854c0-1.168.947-2.115 2.116-2.115Z" fill="#A2A2A2"/><path d="M67.205 10.545h.258c.224 0 .406.181.406.406v65.347a.406.406 0 0 1-.406.406h-.258a.406.406 0 0 1-.406-.406V10.951c0-.225.181-.406.406-.406Zm-6.564 33.583H63.3c.224 0 .406.181.406.406v.922a.406.406 0 0 1-.406.405h-2.658a.406.406 0 0 1-.406-.405v-.922c0-.224.182-.406.406-.406Zm10.735 0h2.657c.225 0 .406.181.406.406v.922a.406.406 0 0 1-.406.405h-2.657a.406.406 0 0 1-.406-.405v-.922c0-.224.182-.406.406-.406Z" fill="#fff"/></svg>