<svg width="24" height="24" fill="none" xmlns="http://www.w3.org/2000/svg"><g clip-path="url(#a)"><path d="M12.196.419 2.04 6.283c0 2.133.202 3.995.542 5.636 2.096 10.14 9.615 11.5 9.615 11.5s7.52-1.36 9.616-11.5c.34-1.64.542-3.503.542-5.636L12.196.419Zm.006 20.966a.321.321 0 0 0-.006-.002V11.92H4.79c-.3-1.336-.5-2.853-.557-4.579l7.963-4.597v9.176h7.408c-1.584 7.07-6 9.02-7.402 9.466Z" fill="#FFB502"/></g><defs><clipPath id="a"><path fill="#fff" transform="translate(.695 .419)" d="M0 0h23v23H0z"/></clipPath></defs></svg>