<svg width="24" height="24" fill="none" xmlns="http://www.w3.org/2000/svg"><g clip-path="url(#a)" fill="#FFB502"><path d="M17.401.419c-2.54 0-4.6 2.542-4.6 5.412 0 1.746.821 3.286 1.825 4.245.88.842 1.422 1.49 1.53 2.898v9.28c0 .643.522 1.165 1.166 1.165h.158c.643 0 1.166-.522 1.166-1.166v-9.28c.108-1.406.649-2.055 1.53-2.897C21.18 9.116 22 7.576 22 5.83 22 2.96 19.94.419 17.4.419ZM9.168 1.522v4.913a.568.568 0 0 1-.568.569h-.152a.569.569 0 0 1-.568-.569V1.5C7.88.69 7.335.447 6.812.447 6.29.447 5.745.69 5.745 1.5v4.936a.569.569 0 0 1-.568.569h-.152a.568.568 0 0 1-.568-.569V1.522c0-1.45-2.066-1.4-2.066.016V6.23c-.01 2.605.613 3.281 1.64 4.093.828.654 1.537 1.028 1.537 2.652v9.278c0 .644.521 1.166 1.165 1.166h.158c.644 0 1.166-.522 1.166-1.166v-9.278c0-1.624.708-1.998 1.536-2.652 1.028-.812 1.65-1.488 1.641-4.093V1.538c0-1.416-2.066-1.466-2.066-.016Z"/></g><defs><clipPath id="a"><path fill="#fff" transform="translate(.695 .419)" d="M0 0h23v23H0z"/></clipPath></defs></svg>