<svg width="25" height="25" fill="none" xmlns="http://www.w3.org/2000/svg"><g clip-path="url(#a)" fill="#FFB502"><path d="M4.615 6.64H.695v15.601h3.92v-15.6Zm19.192-2.155a3.029 3.029 0 0 0-2.145-.888h-6.934a3.03 3.03 0 0 0-3.034 3.034v2.038h-1l-4.8-2.028v15.6l4.8-2.028h11.28a2.721 2.721 0 0 0 2.721-2.72V6.63c0-.834-.341-1.6-.888-2.145ZM22.295 8.67h-8.2V6.63c0-.179.069-.33.185-.448a.626.626 0 0 1 .448-.185h6.934c.178 0 .33.069.448.185a.627.627 0 0 1 .185.448v2.04Z"/></g><defs><clipPath id="a"><path fill="#fff" transform="translate(.695 .919)" d="M0 0h24v24H0z"/></clipPath></defs></svg>