<svg width="23" height="23" fill="none" xmlns="http://www.w3.org/2000/svg"><g clip-path="url(#a)"><path d="M20.857 3.819A6.236 6.236 0 0 0 16.42 1.98a6.236 6.236 0 0 0-4.724 2.143A6.236 6.236 0 0 0 6.972 1.98a6.236 6.236 0 0 0-4.438 1.838A6.236 6.236 0 0 0 .695 8.257a6.232 6.232 0 0 0 1.789 4.388l.05.05 8.158 8.158 1.003 1.005 9.162-9.162.05-.05c.235-.24.448-.496.638-.765a6.228 6.228 0 0 0 1.15-3.624 6.242 6.242 0 0 0-1.838-4.438ZM11.695 19.85 4.49 12.645h2.832l1.14-4.37 2.363 8.04 1.732-5.225 1.516 3.014 1.412-1.458h3.416l-7.206 7.205Zm8.158-8.159-.188.19H15.16l-.889.917-1.86-3.7-1.543 4.655-2.45-8.337-1.688 6.465H3.726l-.189-.19a4.857 4.857 0 1 1 6.87-6.87 4.835 4.835 0 0 1 1.288 2.299 4.834 4.834 0 0 1 1.288-2.298A4.843 4.843 0 0 1 16.419 3.4a4.858 4.858 0 0 1 3.435 8.292Z" fill="#FFB502"/></g><defs><clipPath id="a"><path fill="#fff" transform="translate(.695 .919)" d="M0 0h22v22H0z"/></clipPath></defs></svg>