<svg width="275" height="231" fill="none" xmlns="http://www.w3.org/2000/svg"><path d="M250.88 218.818c-1.764 2.012-5.473 3.708-7.056 6.082-2.148 3.222-3.482 7.507 3.63 5.608 7.112-1.9 12.686-8.22 13.432-10.944.723-2.68-2.182-2.476-2.691-3.595-2.239 1.447-4.749 2.532-7.315 2.849Z" fill="#003F67"/><path d="M255.3 201.996s-7.733 2.012-7.62 3.324c.113 1.311 3.946 8.004 4.149 11.192.057.837-.327 1.594-.961 2.307 2.567-.317 5.066-1.402 7.316-2.849 0-.023-.023-.046-.034-.068-.419-1.21-1.617-12.301-2.85-13.906Zm-32.552 15.408c-2.453 1.052-6.535.973-8.988 2.431-3.336 1.967-6.388 5.257.836 6.625 7.225 1.368 14.993-1.899 16.847-4.036 1.82-2.092-.893-3.177-.871-4.409-2.645.328-5.37.226-7.824-.599v-.012Z" fill="#003F67"/><path d="M234.032 204.167s-7.847-1.538-8.311-.317c-.463 1.232.091 8.92-1.108 11.882-.316.78-.994 1.289-1.865 1.662 2.454.825 5.178.938 7.824.599v-.079c.147-1.266 3.878-11.791 3.46-13.77v.023Z" fill="#003F67"/><path d="M261.439 101.297c1.538.328 5.19 8.479 4.635 22.599-.226 5.687-1.831 15.297-2.283 17.852-1.538 8.739-.792 75.486-1.346 75.644-5.97 1.82-10.922 1.379-13.997 1.56-3.075.181-3.245-49.065-3.584-54.921-.249-4.263-.238-27.653-2.929-27.913-2.103-.204-3.606 32.966-4.036 38.935-.452 6.196-3.12 39.942-3.29 41.57-.226 2.239-13.195 2.601-13.681.396-1.571-7.19-.26-47.505.622-58.2.712-8.604.848-56.437 3.324-56.132 1.266.159 36.542-1.379 36.542-1.379l.023-.011Z" fill="#A2A2A2"/><path d="M237.865 31.94c.305 0 5.28.045 5.653.01.147.645.441 3.211.746 4.037.769 2.08 2.42 4.51 3.765 6.218 3.437 4.669-16.032 3.504-14.133 1.334 1.753-1.979 3.336-5.11 3.935-8.22.226-1.141.034-2.939.034-3.368v-.012Z" fill="#FFDBB0"/><path d="M248.109 30.582c-1.436 3.618-4.195 5.72-6.705 6.105-2.521.385-4.997-.045-7.372-1.13-1.945-1.21-3.595-3.268-4.014-4.183-.395-.848-.621-1.9-.655-2.928-.079-2.397-1.708-2.103-.769-7.123.282-1.526 2.397-8.637 9.124-10.05 5.913-1.244 13.409 11.757 10.402 19.32l-.011-.01Z" fill="#FFDBB0"/><path d="M235.536 19.334c-2.397-3.279-6.716 5.946-7.597 3.821-2.341-5.63 4.081-11.464 6.738-12.594 2.815-1.21 5.359-1.81 9.26-.848 3.449.836 3.279 2.08 4.681 3.177 3.607 2.815 4.805 6.726 4.952 10.39.068 1.672-1.289 5.957-2.906 7.98-.61.77-3.245 2.579-4.76 3.347-1.198.61-.079-4.782 1.425-5.89 2.069-2.396 1.538-3.222.984-4.047-.554-.825-2.16-1.232-2.522-.385-1.786 4.217-.87.102-2.08-.666-3.279-2.103-1.493 2.091-8.186-4.274l.011-.011Z" fill="#003F67"/><path d="M246.627 14.711c.712-1.164 1.718-3.561 2.691-4.534.972-.972 2.023-2.034 3.504-2.317 2.307-.441 3.494-.294 4.67.43 1.04.644 2.555 3.64 2.521 5.731.283 2.725 2.126 3.573 3.358 4.138 1.753.814 4.839.328 4.466 1.628-1.074 3.788-3.177 4.364-5.415 3.99-7.191-1.197-3.178-7.811-7.576-8.76-4.398-.95-4.748-.329-8.242-.306h.023Z" fill="#003F67"/><path d="M216.79 43.03c-2.963-2.317-10.063-10.717-12.788-14.052-3.313-4.06-8.547-12.595-9.248-13.273-1.074-1.051-3.754-4.126-5.473-6.094-.701-.802-.927-2.419-1.277-5.641-.159-1.424 1.696.08 2.238-1.515.905-2.68 2.036-1.13 2.748-1.605 1.244-.814 1.571-1.074 2.34.769.769 1.842 1.04 3.108 1.187 4.013.147.904.668 2.193 1.436.712.769-1.48 1.289-2.25 2.443-2.476 1.153-.226 1.571.554.441 2.239-.882 2.238-.521 5.426-.713 6.794-.079.588 4.523 6.637 7.632 10.006 3.482 3.764 10.865 10.728 13.511 12.899 4.263 3.527-1.707 9.384-4.477 7.213v.011Z" fill="#FFDBB0"/><path d="M224.953 34.651c3.358 2.488 9.147 6.772 9.69 5.585.746-1.628-.34-1.91 3.934-2.216 3.166-.226 4.805-.214 6.049-.18 2.227.045 2.94 1.153 3.799 1.356 2.804.667 3.053 1.753 9.124 5.11 4.24 2.34 8.197 5.144 9.939 9.904 1.967 5.37-.781 2.08-3.958 8.501-2.555 5.178.905 14.38.905 23.55 0 4.228.701 13.182.814 20.802.045 3.222-14.461 3.052-17.231 2.668-2.318-.317-11.894-.758-15.071.181-2.171.644-11.567.373-11.702-3.211-.374-9.655 2.555-14.516 2.555-19.276 0-4.873.396-23.741-1.12-32.04-1.469-8.072-6.58-10.242-9.271-13.08-2.295-2.42-.373-2.792 2.736-6.828 3.731-4.862 3.856-4.477 8.797-.814l.011-.012Z" fill="#EE8084"/><path d="M230.289 46.649c7.112.508 13.873.248 16.813.248 4.161 0 5.924-1.956 6.422 3.426.486 5.381 4.048 14.426 9.429 22.012 5.382 7.574 4.014 11 4.014 17.116s3.268 37.511 3.788 45.561c.735 11.497.214 12.108-5.167 12.108-5.382 0-20.623.52-31.138.034-10.515-.487-20.137.101-19.402-6.252.735-6.354 3.234-14.799 3.483-23.109.181-6.116 2.566-32.537 4.183-38.121 2.205-7.575 4.398-19.559 4.398-26.161s-.249-7.089 3.177-6.851v-.011Z" fill="#E2C2BC"/><path d="M229.464 40.442c-1.074 3.437-1.99 6.128-2.036 9.078-.022 1.673.351 2.827 2.171 2.714 1.821-.102 2.635-.012 2.669-2.092.034-2.08 2.069-8.513 2.001-9.61-.068-1.096-1.527-1.955-3.008-1.842-.938.079-1.413.463-1.82 1.752h.023Zm18.916-.703c0-1.594 5.031.418 5.031 2.498s.102 4.048-.022 6.365c-.125 2.318-.724 1.832-2.567 1.707-.984-.056-2.159.328-2.261-2.871a385.292 385.292 0 0 1-.181-7.7Z" fill="#E2C2BC"/><path d="M263.927 105.55h-11.002c-.983 0-1.673-.215-2.114-.667-.543-.554-.576-1.357-.554-1.922.034-.848 0-4.997-.022-8.321-.012-1.9-.023-3.618-.023-4.5a.328.328 0 0 1 .656 0c0 .882 0 2.6.022 4.5.023 3.516.057 7.495.023 8.355-.023.689.09 1.153.373 1.435.305.317.837.475 1.639.475h11.002a.328.328 0 0 1 0 .656v-.011Zm1.277-1.335a.328.328 0 0 1-.328-.328v-1.718c.023-2.951.057-8.434 0-9.994 0-.181.136-.34.317-.35.158 0 .339.135.35.316.068 1.582.034 7.077 0 10.028v1.718a.328.328 0 0 1-.328.328h-.011Zm-40.816 1.38a96.36 96.36 0 0 1-3.256-.057.325.325 0 0 1-.317-.35c0-.181.158-.34.351-.317 1.187.045 4.296.091 5.608 0 1.232-.079 1.662-.52 1.662-1.684 0-2.612 0-11.283-.046-13.149 0-.18.136-.339.328-.339s.339.136.339.328c.046 1.82.046 9.813.046 13.171 0 1.515-.701 2.238-2.284 2.351-.588.034-1.493.057-2.42.057l-.011-.011Z" fill="#A2A2A2"/><path d="M268.696 66.556c2.013 2.985 2.601 12.097 3.392 17.512 1.244 8.536.69 15.206.916 16.144.362 1.459 1.04 5.483 1.47 8.061.17 1.051-.475 2.544-1.866 5.472-.61 1.289-1.402-.95-2.702.124-2.182 1.809-2.318-.102-3.177-.079-1.492.045-1.899.09-1.594-1.877.316-1.967.746-3.188 1.097-4.036.35-.848.576-2.227-.848-1.356-1.436.859-2.273 1.243-3.381.836-1.097-.407-1.052-1.3.791-2.137 1.934-1.447 3.291-4.352 4.173-5.415.384-.463-.351-8.027-1.255-12.515-.475-2.351-4.636-16.732-5.269-17.919-2.578-4.895 6.286-5.71 8.253-2.792v-.023Z" fill="#FFDBB0"/><path d="M263.304 48.173c4.636 3.606 7.101 14.267 7.711 17.998.611 3.731 1.357 5.811-2.86 6.682-4.218.882-9.407 1.673-10.176-1.334-1.142-4.477-3.697-12.741-3.075-18.089.622-5.347 5.246-7.71 8.412-5.257h-.012Z" fill="#EE8084"/><path d="M147.801 119.771c.893 1.662 1.764 4.07 3.561 4.963 1.595.791 2.352 2.826.588 4.951-.938 1.131-3.222 2.476-5.709 2.182-2.42-.282-3.076-.881-3.89-3.47-.757-2.431.238-4.183 1.3-6.365 1.063-2.171 3.596-3.301 4.139-2.273l.011.012Z" fill="#003F67"/><path d="M133.057 190.418c-3.075-1.176-5.393 4.081-5.879 5.845-.859 3.12-1.119 6.557-1.436 8.173-.497 2.533.464 6.965.791 10.096.17 1.707.43 5.314-.723 6.512-.113.113-.226.622.316.837.532.214 6.479.791 6.377-.181-.045-.396.181-.859.362-1.266.645-1.47 2.227-3.528 2.216-7.112-.011-3.583.034-3.041-.079-6.263s2.521-9.27 3.347-11.904c1.108-3.539-2.103-3.528-5.292-4.749v.012Z" fill="#FFDBB0"/><path d="M127.032 217.426c2.069.283 5.291.769 6.557.678 1.267-.09.215 1.142-.44 2.182-.509.826-.385 1.108-.227 2.182.17 1.074-1.967 1.278-4.432 1.334-2.476.057-4.771-1.085-3.979-1.741.802-.667 1.322-1.017 1.718-2.408.407-1.436-.362-2.374.792-2.216l.011-.011Z" fill="#A2A2A2"/><path d="M125.573 220.977c-1.685 1.3-2.453.588-3.539 2.159-2.238 3.211.566 5.337 4.104 5.393 2.488.045 8.514-1.221 7.463-4.025-.441-1.175-.554-3.086-.927-2.882-1.414.621-3.788 1.051-5.258.621-1.153-.339-1.549-1.537-1.843-1.266Z" fill="#003F67"/><path d="M161.369 216.353c-.543-.384-.916-.825-1.074-1.526-.328-1.571-.317-4.239-2.273-6.93-1.956-2.691-1.639-2.318-3.471-4.658-1.843-2.34-2.86-5.325-3.211-8.094-.724-5.766-6.478-6.478-9.622-5.495-4.522 1.402-1.232 10.39.894 12.425 2.125 2.035 3.798 4.612 4.454 6.059 1.029 2.262 4.24 6.071 5.371 7.078 1.221 1.096 3.301 3.278 2.894 5.166a3.89 3.89 0 0 1-.271.826c2.928.18 5.393-1.979 6.32-4.851h-.011Z" fill="#FFDBB0"/><path d="M154.042 216.207c1.831-1.017 4.352-2.295 5.314-3.12.961-.837.644-.452 1.141 1.39.147.52.521 1.459 1.289 2.228.781.757-.802 2.193-2.747 3.719-1.945 1.526-4.466 2.001-4.229.995.238-1.006.453-1.605-.067-2.962-.532-1.402-1.719-1.685-.701-2.25Z" fill="#A2A2A2"/><path d="M161.538 216.184c-.305-.271-1.425 3.98-4.579 5.156-1.628.61-2.092-.34-2.194-.136-.441.927-.791 1.357-.848 3.38-.124 4.036 3.324 3.618 5.925 1.142 1.82-1.741 5.506-6.987 3.211-8.343-.656-.385-1.097-.814-1.515-1.199Z" fill="#003F67"/><path d="M121.423 134.32c-.972-1.458-9.045-8.163-9.135-8.943-.08-.78-.464-3.708-1.131-4.624-1.165-1.605-1.911.792-2.759.509-.848-.282-2.363-1.718-3.313-1.967-.961-.237-.961 1.018-1.334 1.809-.384.791-1.809-.554-2.137.328-.226.61.487 1.978-.373 2.464-.87.486-.927.814-.384 1.685.543.87 1.142 1.119 1.063 1.99-.08.87.169.994.848 1.413.678.418 2.838.52 4.669.735 1.832.214 4.523 6.331 8.808 10.288 1.402 1.3 7.213-2.691 5.201-5.698l-.023.011Z" fill="#FFDBB0"/><path d="M124.126 149.616c-.43-3.301-8.175-7.428-11.499-10.446-3.324-3.019-4.127-4.183-2.781-6.162 1.718-2.509 4.884-3.956 6.445-4.793 3.561-1.933 4.296-.305 5.551 1.549 2.702 4.013 1.854 3.278 8.163 5.392 1.425.475-4.647 23.866-5.879 14.471v-.011Z" fill="#003F67"/><path d="M126.703 167.457c2.024-1.13 9.362-.429 13.647-.599 4.161-.158 6.207.667 10.797-.09 3.596-.599 2.341 3.38 5.812 11.859 2.295 5.596 8.751 13.714 6.512 15.409-2.25 1.696-7.654 3.776-10.571 2.748-2.917-1.029-3.833-1.334-7.417.113-3.132 1.266-8.129-.622-12.121-1.266-3.335-.543-5.472-.43-8.14.011-5.122.859-7.982-.52-8.774-1.255-1.153-1.074-.283-7.349 4.466-13.239 4.749-5.89 3.222-11.316 5.789-13.702v.011Z" fill="#E2C2BC"/><path d="M154.359 126.057c.757-1.583 7.914-10.062 7.88-10.854-.034-.78-.09-3.73.441-4.737.916-1.752 2.001.498 2.804.091.803-.407 2.081-2.046 2.996-2.431.905-.384 1.097.871 1.594 1.594.498.724 1.708-.814 2.16.012.317.565-.192 2.035.735 2.385.927.351 1.04.667.633 1.617-.407.949-.961 1.277-.757 2.114.203.848-.023 1.006-.634 1.526-.61.52-2.724.927-4.511 1.413-1.786.486-4.568 8.491-8.231 13.035-1.198 1.493-6.659-2.498-5.11-5.765Z" fill="#FFDBB0"/><path d="M160.995 162.268a.9.9 0 0 1-.893-.78c-.373-2.86-1.674-5.709-3.324-9.304-.792-1.719-1.685-3.675-2.59-5.879a.899.899 0 0 1 .498-1.176.9.9 0 0 1 1.176.498c.893 2.17 1.775 4.103 2.555 5.822 1.707 3.742 3.064 6.693 3.471 9.824a.887.887 0 0 1-.78 1.006h-.113v-.011Z" fill="#ECC128"/><path d="M156.303 144.925c1.458-2.928 6.173-12.47 7.598-15.161 2.069-3.889 1.548-4.466-1.866-7.111-5.416-4.183-6.513-2.668-7.96-.814-2.035 2.6-11.114 10.785-13.432 10.751-1.73-.022-1.436.08-3.968-.678-1.854-.554-7.315 1.843-10.074 3.607-2.363 1.514-5.02 7.868-3.2 12.447 1.538 3.878-.339 9.485-.746 11.045-1.357 5.246-3.731 12.165-4.466 14.29-1.278 3.663-1.063 8.547 7.835 7.349 2.533-.339 10.538-1.436 16.677-.464 10.922 1.73 18.509 2.86 19.334-1.707.972-5.359-6.908-31.18-5.732-33.554Z" fill="#003F67"/><path d="M136.246 141.793c-.373.294-.859.724-.554 1.413.317.69.678 1.029 1.097.984.791-.102.882-.238 1.232-.803.351-.565.204-.927-.305-1.436-.509-.508-.916-.395-1.481-.147l.011-.011Zm-.713 10.549c-.373.294-.859.724-.554 1.413.317.69.679 1.029 1.097.984.791-.102.882-.238 1.232-.803.351-.565.204-.927-.305-1.436-.509-.508-.916-.395-1.481-.147l.011-.011Zm-.768 10.547c-.373.294-.86.723-.554 1.413.316.69.678 1.029 1.096.984.792-.102.882-.238 1.233-.803.35-.565.203-.927-.305-1.436-.509-.509-.916-.396-1.482-.147l.012-.011Zm-2.725-31.158c-1.425.995-.938 3.256.215 4.081.712.509 2.906.588 3.889-.294.667-.599 1.041-.859 1.934.498.848 1.289 3.618 1.39 5.065.916 1.255-.407 2.51-1.9 2.906-4.308.305-1.888-1.888-.723-3.528-.294-2.442.645-4.308.407-5.857-.429-1.695-.927-2.758-1.481-4.624-.181v.011Z" fill="#fff"/><path d="M147.236 176.093c-.249-3.912-1.165-9.146.079-11.656.757-1.538 3.528-3.154 5.517-3.833 5.575-1.899 7.259-1.718 9.351-1.356 1.097.192 4.07.87 4.59 2.747.679 2.487.498 4.364.509 5.302.034 1.865.136 3.166.249 5.517.045.961-.159 2.182-2.409 3.9-1.718 1.323-6.862 3.765-10.141 3.867-1.775.056-4.263.215-5.518-.249-1.583-.576-2.114-2.566-2.216-4.239h-.011Z" fill="#ECC128"/><path d="M153.884 166.199c-1.696 0-3.788-.294-4.964-.69a.337.337 0 0 1-.215-.429.342.342 0 0 1 .43-.215c1.606.543 5.054.882 6.501.486 1.538-.407 6.23-2.397 8.096-3.516.158-.09.373-.045.463.113.091.158.045.373-.113.464-1.944 1.153-6.659 3.154-8.276 3.584-.486.135-1.165.192-1.922.192v.011Zm1.267 12.707a.335.335 0 0 1-.339-.316c-.068-.984-.215-3.177-.351-5.348-.135-2.148-.282-4.262-.339-5.189a.341.341 0 0 1 .317-.362c.192 0 .35.125.361.317.068.927.204 3.052.34 5.189.147 2.171.282 4.364.35 5.336a.34.34 0 0 1-.316.362h-.023v.011Z" fill="#A2A2A2"/><path d="M154.642 171.627h-.124c-1.187-.022-4.783-.09-6.479-.757a.343.343 0 0 1-.192-.441.346.346 0 0 1 .441-.192c1.583.622 5.088.689 6.241.712h.091c.825.011 4.488-1.051 5.935-1.741 1.448-.678 4.139-2.091 5.235-2.758a.332.332 0 0 1 .464.113c.09.158.045.373-.113.463-1.108.667-3.833 2.103-5.292 2.793-1.447.678-5.178 1.808-6.218 1.808h.011Z" fill="#A2A2A2"/><path d="M161.425 167.783c.475-.305 1.029-.644 1.187-.26.158.385.362 1.809.396 2.431.034.633.136.746-.678 1.029-.815.282-.758.542-.928-.622-.169-1.165-.655-2.148.034-2.578h-.011Z" fill="#A2A2A2"/><path d="M148.298 168.508a.93.93 0 0 1-.532-.169c-3.312-2.42-14.924-24.194-15.376-33.136a.915.915 0 0 1 .859-.95.923.923 0 0 1 .95.859c.452 8.705 12.177 29.971 14.642 31.768.407.294.486.86.192 1.255a.92.92 0 0 1-.724.373h-.011Z" fill="#ECC128"/><path d="M135.985 132.433c3.098 1.73 6.354 1.64 8.479.464 2.126-1.176 3.754-2.906 4.941-5.042.803-1.979.894-4.376.701-5.28-.18-.825-.588-1.696-1.13-2.442-1.278-1.741.113-2.476-3.381-5.483-1.063-.916-6.625-4.737-12.505-1.877-5.167 2.51-3.595 16.031 2.895 19.66Z" fill="#FFDBB0"/><path d="M146.444 113.713c-1.82-2.487-3.765-2.6-5.925-2.555-2.634.068-3.64-1.108-6.241-.249-3.629 1.187-6.196 3.55-6.817 4.929-2.036 4.523-.521 7.507-.735 9.259-.227 1.866-2.59 4.489-1.538 7.304.961 2.566 3.72 3.617 8.581 2.883 1.131-.17 2.544-1.73 2.386-3.935-.396-2.622-2.442-2.046-3.595-2.769-1.187-.747-1.312-3.2.429-2.996 1.436.169 5.687-5.099 6.841-7.767.983-2.284 2.521-2.329 4.952-1.402 2.363.904 3.516-.17 1.662-2.702Z" fill="#003F67"/><path d="M31.538 40.294c-2.307 2.724-17.276 36.11-19.696 39.648-2.42 3.538-12.041 19.524-9.418 20.915 8.502 4.488 14.359-10.56 15.297-15.353.939-4.793 12.742-33.26 13.828-36.697.814-2.567 4.952-10.209 3.923-11.238-.848-.848-3.053 1.685-3.923 2.725h-.011Z" fill="#E2C2BC"/><path d="M96.99 93.044c2.623 3.324 4.579 8.004 5.732 8.988 1.165.983 4.093 3.889 5.959 5.765.757.758 1.108 2.374 1.684 5.608.26 1.424-1.718.045-2.148 1.696-.724 2.769-1.967 1.288-2.668 1.809-1.199.915-1.515 1.198-2.42-.611-.904-1.809-1.266-3.064-1.481-3.968-.215-.905-.837-2.171-1.504-.622s-1.142 2.363-2.284 2.679c-1.153.317-1.628-.441-.61-2.227.735-2.329.136-5.517.237-6.919.102-1.402-1.436-2.487-3.29-4.793-1.865-2.306.158-10.74 2.781-7.405h.012ZM47.287 28.502c-.26.01-3.73.486-4.059.474-.102.6-.395 2.815-.69 3.562-.282.746-4.319 8.162-4.624 8.547 4.048 3.29 12.709 1.424 15.105-1.911-.712-.328-4.51-6.162-4.895-7.586-.283-1.04-.803-2.69-.826-3.098l-.01.012ZM16.048 221.667c7.327-1.007 1.232-7.541 4.41-14.087 0 0 4.002-3.245 5.19-.497.904 2.102 2.385 10.22 3.007 15.805-4.195 2.001-9.125 1.447-12.607-1.221Z" fill="#FFDBB0"/><path d="M16.003 221.678h.046c3.47 2.668 8.4 3.222 12.606 1.221.193 1.741.306 3.244.283 4.228-.08 4.149-13.534 5.144-19.684 2.069-7.056-3.516-5.337-5.913 6.75-7.518Z" fill="#003F67"/><path d="M68.283 214.499c-.837-3.719-.791-8.739-1.006-12.357-3.731-2.475-6.41-2.317-6.275 5.156.147 7.461-.52 11.396-4.85 14.041a.41.41 0 0 0-.114.079c4.557-.509 9.238-3.188 12.256-6.907l-.01-.012Z" fill="#FFDBB0"/><path d="M68.283 214.5c-3.019 3.731-7.688 6.399-12.256 6.908-4.274 2.634-7.88 5.788-4.839 7.099 3.064 1.312 7.225.769 10.967-1.548 3.754-2.318 9.215-5.924 7.225-9.395-.486-.837-.837-1.888-1.097-3.064Z" fill="#003F67"/><path d="M23.837 98.924c-.248 1.414-3.29 40.485-3.99 45.267-.566 3.799-2.782 70.173-2.726 71.27.068 1.096 5.066 1.616 6.524 1.526 1.447-.091 6.377.169 7.044-1.956 1.006-3.166 5.653-46.013 6.185-49.744.7-4.906 4.692-24.826 4.726-25.686.102-2.114 3.177-4.183 3.64 0 .475 4.183 12.788 65.538 13.07 71.462.17 3.437 5.936 1.684 7.282 1.605 1.345-.079 5.834-1.628 5.958-5.144.192-5.46-4.013-43.153-4.138-46.657-.18-5.042-1.65-23.662-.95-29.892 2.149-18.981-1.3-32.152-2.125-33.373-1.47-2.17-40.51 1.334-40.51 1.334l.01-.012Z" fill="#A2A2A2"/><path d="M100.426 95.882c-.486-.723-15.14-22.622-16.145-25.053C83.274 68.4 72.443 51.712 66.1 45.28c-5.721-5.81-13.228-8.241-14.517-8.106-2.137.226-4.885 4.726-8.005 4.296-4.478-.621-2.533-3.516-3.89-3.516-2.306 0-5.212-.045-8.943 2.137-3.358 1.967-8.107 4.398-12.347 12.018-3.866 6.953-5.291 10.322-10.04 17.139-2.148 3.075 10.39 8.716 13.998 8.761 4.974.068 1.594 6.298.893 12.255-1.199 10.277-4.737 16.111-.35 17.23 3.968 1.017 8.456-.938 11.464-1.266 7.971-.859 8.367 2.634 14.63 2.657 3.336.011 8.005-.283 11.318-.475 2.476-.147 8.209 3.685 8.378-.498.317-7.834-1.786-14.776-2.487-19.615-.679-4.703-2.408-13.204.18-13.917 1.844-.508 19.267 22.34 24.038 26.952 3.618 3.505 12.154-2.26 10.017-5.46l-.011.011Z" fill="#E2E2E2"/><path d="M58.265 29.746c-1.752 2.702-5.777 3.867-8.423 3.076-5.63-1.696.464-6.185.905-8.615.328-1.775.135-4.986.712-6.286.576-1.3-1.12-7.891 3.584-3.527 1.232 1.142 1.017 2.724 2.962 5.02.6.711 2.555 1.175 2.386 2.77-.204 1.898-1.741 2.305-1.696 3.425.045 1.119 1.47 2.114-.419 4.137h-.01Z" fill="#003F67"/><path d="M36.737 30.502c2.917 3.155 6.58 4.229 9.328 3.63 2.748-.6 5.122-2.024 7.146-4.082 1.526-2.012 2.408-4.782 2.476-5.901.068-1.03-.113-2.205-.486-3.268-.871-2.498.927-2.849-2.024-7.642-.894-1.458-5.88-7.948-13.376-6.738-6.58 1.051-9.158 17.41-3.064 24.001Z" fill="#FFDBB0"/><path d="M45.23 13.952c1.176-4.33 9.27 3.46 9.339.927.18-6.715-8.74-10.355-11.917-10.31-4.444.068-14.009 6.625-14.235 12.786-.18 4.907 1.447 6.195-.328 8.886-1.017 1.55.441 3.505 1.854 5.28 2.036 2.555-1.424 3.629 1.527 5.065 3.652 1.786 6.851-.147 8.853-2.148 1.537-1.538-1.538-5.653-3.528-6.184-3.075-1.651-2.872-2.714-2.623-3.788.249-1.074 1.741-2.125 2.442-1.39 3.505 3.64.939-.238 1.877-1.504 2.544-3.46 2.363 1.572 6.739-7.642v.022Z" fill="#003F67"/><path d="M17.834 81.264c5.212-1.085 7.168-1.696 8.582-3.787 2.42-3.584 3.47-8.457 4.262-15.873.633-5.879 1.13-22.237 2.43-23.38 1.177-1.028 2.635-2.645 3.574-.203.938 2.453-1.674 32.107-1.38 39.06.294 6.953-.486 23.527-.938 29.146-.452 5.63.362 13.871-7.541 16.392-6.14 1.956-7.485-1.854-14.145-2.057-6.082-.192-8.276-2.623-10.616-3.539-2.951-1.153-1.787-10.141-.09-17.93 2.125-9.745 12.176-17.071 15.862-17.84v.011Z" fill="#E2C2BC"/><path d="M20.717 75.498c3.267-1.526 5.834-2.17 7.168-2.465 1.334-.294 7.519-1.865 8.265-2.498.746-.633 2.59-1.832 2.42-2.872-.17-1.04 1.288-2.42 1.503-2.973.215-.554-.18-1.55-1.187-2.126-1.018-.576-1.3-1.605-1.198-2.611.09-1.006.271-2.16-.927-2.07-1.199.08-4.433 3.528-5.156 4.466-.724.939-1.922 2.85-2.227 1.04-.306-1.82-.69-3.674-1.21-2.43-.52 1.244-1.979 4.963-2.431 5.585-.791 1.085-4.048 1.515-6.31 2.476-1.933.814-.78 7.473 1.313 6.489l-.023-.011Z" fill="#FFDBB0"/><path d="M21.599 66.014c4.183-.768 4.918 5.461 4.963 6.614.046 1.153 1.165 3.098-1.594 4.195-2.759 1.096-8.547 7.167-15.4 4.691-4.33-1.56-5.46-10.412 1.2-15.861 4.058-3.324 3.651 1.684 10.82.361h.01Z" fill="#E2E2E2"/></svg>