<svg width="162" height="17" fill="none" xmlns="http://www.w3.org/2000/svg"><path fill-rule="evenodd" clip-rule="evenodd" d="M39.703.943c.559.106.641.377 1.291.421.094-.16.234-.4.587-.315v.106c.3.098.132-.106.353.106h.118v.421l.234.106v.21h.119c.038.106.077.21.118.315h-.471v.316c-.325.076-.262.03-.353.315-.41.089-.548.266-1.057.316.008.276.047.357.118.525-.402-.027-.922-.084-.939-.106v.21h.119c.371.002-.353.105-.353.105-.149-.165-.314-.256-.587-.315-.176.286-.407.448-.823.525v-.21l-.234.106c-.07.16-.091.173-.119.422-.248.017-.71.093-.823.21-.143.147.104.115-.234.315v-.422h-.119v.422h-.352v-.21c-.18.062-.193.082-.471.106v-.21l-.353.107c-.077.18-.113.33-.118.63h-.587s-.119.168-.234.21v.106h-.119v-.21h-.234v-.105h-.118v.106h-.353v.106c-.204.162-.248.493-.352.737-.433-.037-.774-.185-1.058.106-.038.106-.077.21-.118.315l-.94.106v.106l-.234.106v.21l-.352-.106-.119.21h-.352c-.02.01-.138.157-.234.209v.106a48.572 48.572 0 0 1-.587-.106v-.106c-.069-.008-.402.177-.587.21-.08.199-.151.643-.234.84l-.352-.106v-.106c-.163-.027.046.076-.119.106-.28.05-.303-.079-.47-.106l-.235.315h-.47v.106l-.353.106v.316h.234v.106h-.119c-.063.05-.942.266-.939 0h-.118v.21l-.587-.107c.006.378-.027.664-.234.841v-.106h-.119v-.422h-.234c-.008.277-.046.358-.118.526-.245-.065-.48-.119-.705.106v.209h-.119v.106l-.705-.106c-.038.069-.077.14-.118.21l-.471.105v.21h-.471v.21c-.281-.05-.37-.121-.587-.21v.525l-.823.106v.106c-.345.072-.386.116-.471.422.165.007-.017-.018.118-.106.185-.121.11.258.119.315-.201.118-.16.067-.235.316l.471-.106.119-.21c.022-.002.275.099.47.106v-.21c.12.035.235.07.353.107l.119-.21c.143-.062.344-.057.47-.106v-.421c.279-.042.648-.2 1.058-.106v.105h.471v-.105h.235v-.422h.234v.21l1.057-.21.119.106c.322-.202.107-.36.705-.421.135.12 0 .041.234.105v-.315l.587-.106v-.21c.388.057.534.134.705 0h.118c.149-.162-.127-.212.119-.315v.106h.118v-.316c.259-.037.609-.138.94 0 .038.07.076.141.118.21h.234v-.21c.237.06.102-.012.234.106l.352-.106V9.78h.353c.077-.106.157-.21.234-.315.196.034.391.069.587.106v.106c.085.015.432-.094.823-.106l-.118-.316h.234v.106h.471l.118.106V9.36l.353-.106c-.008-.276-.047-.357-.119-.525h.706c.135-.12 0-.041.234-.106.09-.315.071-.276.47-.315.133.18.075.143.353.21.119-.264.243-.55.471-.422h.119v.315h.234c.085-.29.033-.234.352-.315V7.99l.705-.106s.053.153.235.106l.118-.21h.352v-.21l.235.107v.106c.154.052.025-.05.118-.106.295-.072.19-.054.353-.21h.118v-.21l.234-.105c.138-.133.199-.306.353-.422v.106h.352c.039.14.077.281.119.422h.118c.287-.43.658-.39 1.292-.525.036-.008.03-.146.234-.106v.106l.705.21v-.107h.119l-.119-.315c.077-.035.157-.07.234-.106.163-.22-.052-.148.234-.316v-.106l.587-.106c-.063.294-.09.01 0 .316h.118v-.21l.706.106v-.106c.126-.096.022.018.118-.106h-.118v-.106h.352c.025.25.05.262.118.422.136-.121.047 0 .119-.21.135-.12.047 0 .118-.21.353-.105.706-.209 1.058-.315l.119.106c.038-.34.107-.308.234-.525h.234v.106h.118V5.05h.471l.119-.315c.305.11.495.192.939.21-.039-.07-.077-.141-.119-.21.08-.116.661-.148.824-.316l-.118-.21h.118v-.105c.311.123.443.202.94.21v-.107h-.12v-.315c.373.069.238.16.353.21.138-.008.419-.213.705-.107l.119.21h.234c-.113.347-.11.618.118.946h-.118c-.135.121 0 .042-.234.106v.525h-.119c-.03.175.11.183.119.21v.525c-.422.015-.667.15-.94.21l-.234-.107c-.077.106-.157.21-.234.316-.066.025-.641-.079-.823-.106-.072.276-.333.557-.705.525 0 0-.064-.133-.234-.106l.118.21h-.471c-.039.174-.077.35-.118.525l-.587-.106-.118.21c-.317.07-.309-.203-.353-.21l-.353.106.119.106c.005.041-.105.236-.119.421-.39.035-.782.069-1.176.106v-.21c-.278-.022-.292-.044-.47-.106v.316c-.026.044-.808.53-.353.737h-.353v-.106c-.113-.195-.118.21-.118.21-.132.088-.017-.013-.119.106.33-.1.328-.111.706 0v.106l.352-.106-.118-.106.118-.316c.55.19.914.062 1.292-.21.038-.068.077-.14.118-.209h.587s-.011-.062.234-.106v.316h.118v-.21c.502-.007.78-.022 1.058-.21l.118-.209c.196.034.392.069.587.106-.135-.12 0-.042-.234-.106v-.21l.353.106v-.21h.234v.21c.68-.049 1.167-.391 1.644-.63v.315h.234v-.21h.824v-.106h.352v-.106l.705.106c.1-.118-.014-.014.119-.106v-.421l.705-.106c-.039.106-.077.21-.119.315h.119v.106c.132-.088.016.013.118-.106.135-.12.047 0 .119-.21.184.008.823.107.823.107V7.04h.119v-.316c.13-.148.529-.108.823-.106v.106l.705-.106v-.106h.234v-.106h.353l-.118.316h.118c.085-.29.033-.234.352-.316v.21l.353-.106v-.106l.824-.106v-.106h.352l.119-.21c.099-.034.773.111.939.21v-.21l.352-.106V5.77c.16-.044-.047.077.119.106.195.035.209-.1.234-.106.215-.039.454.138.587.21v-.106c.366-.298.027-.446.705-.525v.106h.352l-.118.21c.151.17.22-.116.352.315.155-.111.177-.214.353-.316v.316h.234c-.039-.21-.077-.422-.118-.631.55-.168.396.081.705-.525h.118c-.014.224-.121.36-.118.421l.118.106c.215-.133.014-.143.119-.21.135-.088.074.097.118.107l.352-.106v-.21c.265-.042.452-.172.824-.106 0 0 .005.138.234.106v-.106h.587v.106c-.281.064-.218.035-.353.21h.234c.34-.5.904-.325 1.529-.525l.118-.316c.336 0 .504.037.706.106v-.421h.118c.077.106.157.21.234.315h.118l-.118.21h.118v.106c.337.217.303-.187.472.315h.233v.21h.235c-.039.106-.077.21-.119.315h.119c.08.158.082.175.118.422h.234v.21a.77.77 0 0 1 .353.315c.38-.185.223-.251.705-.106l-.119-.316h.235v-.21h.234v.107h.118v-.106l.353.106-.119.315h.234c.086-.29.033-.234.353-.315.176-.185.317-.2.705-.21v-.21c.234-.068.47-.14.705-.209.008.276.047.358.118.525.133-.088.017.013.119-.106h.118v-.315c.353.034.706.069 1.058.106v-.21h.234l.119-.315c.157.034.314.069.47.106.04-.07.078-.14.119-.21l.587.106v.21c.3-.163.81-.653 1.176-.422h.234v.21h.118v-.21c.565-.027.568-.074 1.058 0 .038-.175.077-.35.118-.525.543-.09.953-.09 1.292 0v-.21h.705v.107h.353v.106l.352-.106v-.106c-.135-.121-.046 0-.118-.21.385.008.347.133.587 0l.118-.21.705.21v.21c.317 0 .667.034.824-.106v-.21l.234.106v-.106c.234-.034.47-.069.705-.106.11.064-.041.15.118.106l.119-.21c.148 0 .3.188.586.107v-.106l.587-.106-.118.315h.118c.262.254.22.148.587.106-.014.333-.229.197.118.316.052.261.108.387.118.737-.325.076-.261.03-.352.315h-.118v.525c-.281.05-.37.121-.587.21v-.316h-.119c-.173.59-.203.217-.586.422v.106l-.471.315c.038-.106.077-.21.118-.315h-.118a1.197 1.197 0 0 0-.119.525c-.443.084-.658.204-1.291.21v-.21h-.234v.21h-.587v.105h.118c-.074.15-.137.08-.234.21h-.234l.118-.21h-.118c-.116.143-.069.207-.353.21 0 0-.082-.15-.234-.106-.038.069-.077.14-.118.21h-.234l-.119.63-.47.106v-.421h-.235c-.085.338-.16.382-.586.421l.118-.315h-.118c-.044.12-.033.375-.234.315l-.119-.315c-.118.034-.234.069-.352.106v.21a1.617 1.617 0 0 0-.587-.107v-.315H77.2v.315c.134.121.046 0 .118.21-.275.034-.548.069-.824.106v.21c-.415.039-.358.13-.705.209v.316c-.286-.06-.259-.111-.47-.21v.21h-.12v.315h.12v-.21h.233v.21c.196-.034.391-.069.587-.106v.316h.234V9.14l.587.106c.055-.251.135-.33.234-.525.383.002.848-.047 1.058.106h.118c.039-.069.077-.14.118-.21h.235v-.106h.234v-.106l.234.106v-.106h1.176c-.039-.105-.077-.209-.118-.315h.234v-.106h.118v.106l.353.106c.008.148.027.03-.119.106.132.11 0 .047.234.106v-.106h.119v-.316h.118c.102-.145.088-.182.118-.421.279-.012.298-.032.471-.106v.106h.119v.106l-.118.21h.352v-.21l.824-.106v.106h.118c.132-.084-.044-.138.118-.106v.106h.471v.21h.119c.038-.21.077-.422.118-.632h.234v.21h.119v-.316c.27.01.306.09.47.106l.12-.21s.322.1.47.107v-.21l.119.106c.157-.034.314-.069.47-.106v.106h.587v-.315h.234v.106h.119v-.106l.234.106.118-.316c.312-.103.246.23.471.21v-.106c.515-.109.648-.259 1.176-.316v.106h-.118c-.223.092.234.106.234.106.1.119-.014.015.119.106v-.21l.586-.105c.039-.07.077-.14.119-.21l.118.106c.697.04.788-.22 1.176-.421v.315h.119c.135-.12 0-.042.234-.106v-.21c.118.035.234.07.352.107l.119-.21h.47v-.106h.12c.07.252.038.195.233.316v-.316c.617-.088.52-.012 1.058.21a.837.837 0 0 1 .353-.525c.134.12 0 .042.234.106v-.21h.352v-.21c.196.035.391.07.587.107v.21h.234v-.316c.256.014.391.106.47.106v-.106l.353-.106c.039.069.078.14.119.21.374.098.936-.22 1.176-.316l-.118-.316h.352c.072.252.039.195.234.316.1.118-.014.014.119.106.008-.276.046-.358.118-.525l.705-.106c.1.118-.014.014.119.106-.091.106-.144.103-.234.21h.352l-.118-.316.118-.106c.173.049.187.12.471.106v-.106h.118v.106c.157.034.314.069.471.106v.106c.48.162.697-.077.94.106.366.217.055.135.234.421l.234.106v.21h.118c.108.143.088.185.119.421l-.471-.106c.093.34.217.363.234.84-.132.09-.017-.012-.119.107h-.118c-.036-.316-.017-.286-.234-.422v.106h.118c-.077.14-.157.281-.234.422-.306.005-.405.022-.586.106v.106c-.202.061-.204-.099-.235-.106-.421-.096-.688.133-.823.315h-.119c-.038.21-.077.422-.118.631h-.234l-.118-.21c-.157.035-.315.07-.472.107.025.249.05.261.119.421-.273-.01-.3-.084-.471-.106l-.119.21c-.157.034-.314.069-.47.106-.086.29-.034.234-.353.315-.413.333-.76-.133-.823-.106v.106l-.587.316c.063.367.115.195 0 .525h.118v-.106h.471v.21l.353-.107V9.26l.352.106V9.05c.119.034.234.069.353.106V9.05l-.119-.106h.705c.04.106.078.21.119.315.077-.034.234-.21.234-.21l.353.107V9.05c.173-.081.195-.079.47-.106v-.21h.235v-.21h.471v.21c.264-.027.311-.01.471-.106v-.106h.234v-.106h.234V8.31c.209-.15.281-.236.587-.315v.315h.471c.038-.175.077-.35.118-.525h.234c-.038.106-.077.21-.118.316h.118c.168-.15.656-.269.939-.316v-.21c.157-.034.314-.068.471-.105v-.316h.234v.316h.235v-.316h.586c-.038.106-.077.21-.118.316h.234c.121-.121.217-.202.471-.21v.106h.118l.119-.106c.11-.19.162-.165.234-.421l.352-.106v-.106l.119.106.352-.106v.315h.234c.025-.249.05-.261.119-.421l.234.106V6.52c.168-.13.182-.291.353-.422.035.05.239.382.352.316l.119-.316c.509-.034 1.019-.069 1.528-.106V6.1c-.325.077-.261.03-.352.316.292-.047.432-.096.823-.106v-.106h-.118v-.525c.195.034.391.069.586.106.039-.106.077-.21.119-.316.135.121.047 0 .118.21l.353.106v-.106c.242-.119.212-.163.586-.21v-.315c.251-.013.403-.109.471-.106l.119.106v-.21l.587-.106v.21c.077-.035.157-.07.234-.106v-.106c.187-.02.146.182.234.21h.471c.038-.176.077-.35.118-.526l.587.106.118-.21h.119v.107l.352-.106v-.21c.135.121.047 0 .119.21h.234c.055-.252.135-.33.234-.525.391.005 1.058.106 1.058.106V3.89h.234v-.106h.352c.039-.07.077-.14.119-.21l.352.106v.106h.587v-.21l.471-.105v.21h.234c.074.288.154.238.234.524h.353c.085.291.033.234.352.316v.21c-.702.127-.608.42-.823.946h.705l.118-.422c.49-.066.333-.103.824-.21v.21c.556-.21.473-.21.939 0v-.21c.157-.034.314-.068.471-.105v-.21h.234v.106h.118V4.73c.268-.047.317.054.471.106V4.73h-.118c-.218-.1.234-.106.234-.106v-.21h.234v-.209c.369.062.524.17.939.21l.119-.316s-.251-.017-.119-.106h.235V4.1h.705v-.315c.374.069.231.155.352.21.196-.018.218-.208.234-.21.226-.057.163.069.234.106h.119v-.106c.157.034.314.069.471.106.085-.291.033-.234.352-.316v.21h.471c.111-.19.163-.165.235-.422l.352.106v-.106c.077-.034.157-.069.234-.106v.21h.234l-.118-.316c.281-.05.369-.12.586-.21v.422c.612-.143.419-.232 1.177-.106v-.315h.352v.106c-.049.061-.193.014-.118.21h.118c.19-.652.251-.178.705-.422.267-.143-.008-.387.587-.525v.106l.352-.106v.21h.119v-.21c.416.04.358.13.705.21v.209c.11.165.84.194.471.525h.234v.421l-.234.106c-.006.035.11.234.118.422h.234c-.055.251-.134.33-.234.525-.209.01-.424.11-.471.106v-.106h-.471v.106l-.705.106v.21c-.157.068-.314.14-.471.209v-.106h-.118v.315l-.824.21c.135.12 0 .042.235.106v.106c.206.086.377-.062.47-.106v-.106h.353v-.21c.548-.024.669-.152 1.058-.315v-.106h.823v.106h-.118c-.135.12 0 .042-.234.106v.21c.479-.124.124-.097.352-.316l.234.106v-.106h.234v-.106h.353c.124-.064.292-.52.587-.422v.106h.234v-.315c.118.034.234.069.352.106v-.106l.705-.106v.21h.235c.038.105.077.209.118.315h.118v-.21h.234c.069-.392.069-.241 0-.63.036.012 1.133.229 1.177.209v-.106h.118v-.422h.118c.24.193.535.03.94 0v-.21c.237.06.102-.012.234.107.432-.111.322-.212.586-.422v-.106c.298-.165.929-.007 1.411 0 .074-.288.154-.239.234-.525.504-.017.402-.066.705-.21v.316h.471c.025-.249.049-.261.118-.421l.353.106.118-.21h.234v-.106c.119-.034.234-.069.353-.106l.118.316c.298-.215.05-.254.587-.316v.106c-.135.096-.138.077-.234.21h.118v.106c.245-.116.21-.17.587-.21.099.119-.014.015.118.106-.137.2-.099.101-.352.21v.106h.234c-.039.21-.077.421-.118.63h.118v.107h-.118v.21c.038.246.077.49.118.736h-.118c-.1.121-.061.148-.235.21V4.41h-.118c-.077.106-.157.21-.234.315h-.353l-.118.21c-.157.034-.314.069-.471.106-.039.106-.077.21-.118.315l-.353.106-.119.21h-.118v-.106c-.432-.091-.567.357-.823.106v.21h-.235c.039.14.078.28.119.42h-.119c-.132.18-.074.144-.352.21-.011-.022-.168-.382-.234-.315v.106l-.234.106c-.039.106-.077.21-.119.315h-.352c-.394.173-.155.279-.824.316.039.106.077.21.119.315.157-.034.314-.069.471-.106v.316h.118V7.46h.471c.358-.12.523-.293 1.058-.316v-.21c.333-.066.311-.194.352-.209h.471v.106l.471-.106s.052.131.234.106v-.106l.471.106v-.106c.135-.12.047 0 .119-.21h-.119v.107c-.102.2-.118-.21-.118-.21l1.292.106.118-.21c.118-.031.215.163.471.107v-.106h.587v.106h.118v-.106h.471l.118-.316h.119l-.119-.21h.353c.135.122 0 .043.234.107v-.21c.281.05.369.121.587.21v-.106h-.119c-.217-.101.235-.106.235-.106v.106c.134.12.046 0 .118.21.251-.013.399-.107.471-.107v.106h.234c.033-.187.118-.21.118-.21a15.341 15.341 0 0 0-.118-.315h.118v-.106c.334.133.485.271.94.316v-.21c.685-.14.066-.266.705 0v-.421h.118v.106l.471-.316v.422h.119c.057-.05-.033-.17.118-.106v.106h.118s-.033.377.119.21v-.107c.135-.12.047 0 .118-.21h-.352c.091-.315.071-.275.471-.315v.106l.352-.106v.106h.353v.106c.303.057.644-.328.823-.421l.353.106v-.106c.196-.114.196-.143.471-.21-.039.106-.077.21-.118.316h.118v.106l.353-.21v-.106h.234c.212-.084.256-.239.352-.421l.587.421c.071-.207.005-.256.234-.315.038.012.036.197.234.21.251-.3.105-.213.471-.107.039-.34.107-.308.234-.525.411.057.218.104.587 0v.631h.118c.132-.18.075-.143.353-.21.22.331.435.299.471.841.322.013.851.146.939 0h.118v.106c.325.07.694.294.824.525v.316h.118c.163.194.273.244.353.525a19.22 19.22 0 0 1-.353-.106v.106h.119v.315h.118c.108.156.105.26.119.525-.135.121-.047 0-.119.21-.391.034-.782.069-1.176.106v-.21l-.471.106v-.21c-.077.035-.157.07-.234.107-.039-.07-.077-.14-.118-.21-.003 0-.347.143-.587 0l-.118-.315c-.138-.087-.202.308-.471.21v-.107c-.135-.12-.047 0-.119-.21l-.352.107v-.106h-.119c.039-.106.077-.21.119-.316 0 0-.146-.032-.119-.21 0 0 .196-.046.119-.209h-.119c-.135.121 0 .042-.234.106-.039.106-.077.21-.118.316-.276-.03-.292-.035-.471-.106v-.106c-.199.012-.199.2-.235.21-.267.083-.473-.131-.586-.107v.106c-.4.143-.488.328-.939.422.038-.106.077-.21.118-.316h-.234c-.174.286-.361.48-.824.525V6.84h-.118c-.091.315-.072.276-.471.315v-.21c-.49.24-.556.215-1.176.107v-.21h-.119c-.008.407.02.434-.352.525v.106c-.113.195-.119-.21-.119-.21h-.234a6.23 6.23 0 0 1-.118.21 48.993 48.993 0 0 1-.587-.106v.21h-.352v.106c-.135.12-.047 0-.119.21l-.705.105v-.21l-1.176.107v.21h-.352v.105c-.105.197-.119-.21-.119-.21-.377.082-.253.159-.705.21v.316c-.694-.064-.642-.372-1.41-.422-.003.35-.061.476-.119.737h-.234c.036-.09.226-.231.119-.421h-.119v.106c-.135.12-.047 0-.118.21l-.705.105v.21c-.394-.064-.741-.289-1.176-.106-.077.106-.157.21-.234.315-.32.084-.364-.283-.471-.315-.212-.064-.086.118-.119.21a19.123 19.123 0 0 1-.352-.107v.422h-.235l-.118.21c-.193.051-.218-.104-.234-.107-.284-.044-.306.106-.471.106v-.106a57.109 57.109 0 0 1-.705-.106v.21c-.78.074-1.176.091-1.763 0l-.118.315c-.221-.051-.562-.044-.94-.106V9.78c.135-.12.047 0 .119-.209-.281.01-.292.069-.471.106V9.57c-.196-.113-.193-.15-.471-.21v-.21h-.234c-.039-.105-.077-.209-.119-.315l-.705-.106v-.21c.094.035.369.215.587.107V8.52c-.347-.202-.286-.42-.234-.737.157-.07.16-.165.234-.21.077.035.157.07.234.106v-.421h.119c-.039-.21-.078-.422-.119-.631a19.123 19.123 0 0 1-.352-.106c.038.069.077.14.118.21l-.353-.107v.21h-.118c-.039.069-.077.14-.118.21h-.353c.028.243.129.063 0 .315l-.234-.106v.21c-.127.184-.119-.21-.119-.21-.195.034-.391.069-.586.106 0 0-.055-.158-.234-.106-.039.069-.077.14-.119.21h-.352c-.039.105-.077.209-.119.315-.182-.086-.52-.38-.823-.316-.039.07-.077.14-.119.21-.226-.02-.195-.205-.234-.21h-.118v.106h-.587v.106h.234c-.038.21-.077.422-.118.631h-.234c-.108-.041-.077-.32-.471-.21l-.119.21h-.586V8.2c-.171-.083-.199-.074-.471-.106v.316a19.142 19.142 0 0 1-.353-.106v.106c-.135.12-.047 0-.118.21-.438.11-.317.216-.587.421v.106h-.353V8.83h-.234v.21h-.586v-.106h-.119l-.234.421-.234-.106v.106l-.353.21v-.316h-.118v.106l-.353-.106v.106c-.165-.007.047-.088-.118-.106l-.705.106v.316h-.119v-.106c-.319-.153-.575.148-.705.21-.066-.33-.115-.442-.471-.526.066.257.124.232.235.422h-.235c-.187.155-.691.116-1.057.106v-.21h-.234v.21c-.234-.035-.471-.069-.705-.106-.058-.249-.111-.249-.235-.421.16-.124.116.078.235-.106-.155-.087-.138-.074-.235-.21h.235c.024-.249.049-.261.118-.422-.333-.069-.443-.194-.587-.421h.353c.077-.281.157-.562.234-.84-.154-.087-.138-.075-.234-.21-.251.128-.256.237-.587.315v-.21h-.118v.316c-.457.035-.529.17-.824.316-.025-.249-.049-.261-.118-.422-.132.09-.017-.012-.119.106h-.118l.118.106-.118.316c-.499-.076-.565-.017-1.176 0l.118.315h-.118c-.097.138-.083.124-.234.21v-.422c-.598.03-.518.188-1.176.21-.088.357-.251.486-.705.525v-.21h-.119v.106c-.102.2-.118-.209-.118-.209a19.142 19.142 0 0 1-.353-.106l.119.21h-.235c-.187.155-.289.362-.352.63h-.353v-.209c-.754.025-.944.385-1.528.525.074-.288.154-.24.234-.525-.752.148-1.286.611-1.763-.106.529-.276.251-.392.119-.84h-.471c-.1-.119.013-.015-.119-.107.036-.09.226-.231.119-.421h-.119v-.106h-.352c-.199.29-.504.212-.706.421l-.118.316h-.352v.106c-.119.034-.235.069-.353.106v-.21c-.366.072-.534.316-.824.422h-.471v.106a19.124 19.124 0 0 1-.352-.106v.21l-.705.105v.106h-.471c-.039.008-.031.146-.234.106v-.106h-.234V8.83l-.824-.106a1.436 1.436 0 0 1-.352.422v-.422h-.119v.21a19.123 19.123 0 0 1-.352-.106c-.056.247-.196.325-.235.525h.119c.038.106.077.21.118.316-.669.007-.738-.111-1.176-.21-.173.286-.361.48-.823.525v-.21h-.234v.422h-.235v.106h-.823v.106h-.234v.106c-.077-.034-.157-.069-.234-.106v.106h-.119c-.173-.126.099-.076-.118-.21.014.333.228.198-.119.316v-.21c-.661.072-.38.262-.705.422h-.234c-.038.106-.077.21-.118.316h-.587v-.107c.292-.192.152-.08.118-.421h-.234v.316c-1.022.002-1.2.182-2.115.21v-.21c-.157.069-.314.14-.47.21.038.14.076.28.118.42-.306-.017-.403-.022-.587-.105v-.106l-.353.106c-.019-.003-.041-.148-.234-.106v.106h-.234v.106h-.234v.106c-.162.096-.207.073-.471.105v-.315h-.118v.106h-.587c-.08.032-.006.136-.353.21-.038.105-.077.21-.118.315h.118c.174.128-.427.104-.47.106v-.106c-.472-.069-.94-.14-1.41-.21.063-.293.09-.01 0-.315-.128.06-.246.283-.472.21v-.106h-.118l.118-.21h-.118c-.135-.12 0-.042-.234-.106-.039-.106-.077-.21-.119-.316h.234a13.426 13.426 0 0 0-.118-.315h.118v.106c.102.2.119-.21.119-.21h.118v-.105c-.077-.035-.157-.07-.234-.106.039-.106.077-.21.118-.316h-.118v-.106h.353v-.106c-.155-.086-.138-.074-.234-.21.2-.118.16-.066.234-.315l.47-.106c.014-.007.182-.39.235-.316v.21h.352c.11-.19.163-.165.234-.422-.16-.123-.179-.192-.234-.421h.234v-.21h.235v-.106l-.706.106v-.106c-.154.008-.294.18-.586.106v-.106a57.109 57.109 0 0 1-.705-.106v.422h-.234v.21c-.119-.07-.235-.141-.353-.21v-.21l-.118.106c-.135.121-.047 0-.119.21h-.47v.21c-.235-.035-.472-.07-.706-.107-.038.175-.077.35-.118.526-.287.059-.26.108-.471.209v-.106c-.122-.091-.163-.182-.234-.315-.135.12-.047 0-.119.209l-.705.106v.21c-.278.022-.292.044-.471.106v-.21h.118l-.118-.315h-.118v.209a8.101 8.101 0 0 1-.235-.106c-.135.084-.046.249-.352.21-.039-.07-.077-.14-.118-.21h-.119v.21l-.353.106c-.06-.015-.071-.267-.234-.21l-.352.422a19.417 19.417 0 0 1-.353-.106v.21h-.234v.209c-.132-.09-.016.012-.118-.106-.127-.097-.022.017-.119-.106h.119v-.106h-.353v.106h-.118v-.106h-.353a7.396 7.396 0 0 0-.118-.21c-.077.035-.157.07-.234.106-.16.042.05.113-.119.106v-.106h-.234c-.003.325.033.542.118.737h-.47v.21h-.119v-.316h-.234l-.118.316c-.133-.09-.017.012-.119-.106h-.118l.118-.316-.352.106v.106h-.235c-.038.07-.077.14-.118.21h-.471v.106h-.118c-.058-.047.033-.17-.119-.106l-.118.21-.587.105v-.21h-.118l-.119.21h-.118l-.119-.21c-.162-.066-.33-.051-.47-.105-.009.406.019.434-.353.525v-.21h-.234v.21h-.587l-.234.525h-.234v-.106c-.039-.005-.27.093-.471.106.066-.257.124-.232.234-.422h-.234l-.119.316-.823-.106c-.124.054-.086.236 0 .315h-.234c-.102.109-.204.146-.353.21v-.316c-.526.04-.341.067-.823 0v.106c.135.121.047 0 .118.21h-.587c-.03-.005-.038-.136-.234-.106v.106h-.234c-.038.106-.077.21-.118.315-.132-.088-.017.013-.119-.106-.132-.089-.016.013-.118-.106.154-.086.138-.074.234-.21h-.471c-.105.112-.207.139-.352.21v.106l-.353-.106v.106c.154.087.138.074.234.21h-.234c-.138-.143-.215-.16-.471-.21v.21c-.22-.074-.46-.104-.824-.106-.129-.22-.19-.188-.234-.525h-.234v-.21c-.132.089-.016-.012-.118.106h-.119v.21l-.234.106v.315h-.118c-.119-.14-.234-.28-.353-.421h-.118c-.155-.234.063-.294-.234-.525.038-.14.077-.281.118-.422 0 0-.151-.052-.118-.21h.118v-.524s.072 0 .119-.21c.324-.076.261-.03.352-.315h.234v.106L70 9.452v-.21l.586.106c.086-.29.034-.234.353-.315V8.61h.118l-.118-.21h.118c.1-.118-.013-.014.119-.105V8.19c.113-.195.118.21.118.21l.353.105V8.4h-.119c.039-.106.078-.21.119-.315h.705v.106l.823-.106v-.21h.471v-.21c-.402-.004-.812-.07-1.057-.105-.077.106-.157.21-.234.315l-.706.106c.067-.256.124-.232.235-.421h-.471v.106h.118c.135.165-.29.098-.352.106v.315h-.119v.106c-.195.035-.39.069-.587.106.04-.175.078-.35.119-.525-.287.06-.262.108-.471.21v.106l-.705-.21v.106c-.135.12-.047 0-.119.21-.192.032-.512.219-.586.209v-.106h-.353c-.162-.03.044-.138-.118-.106l-.119.21h-.234l.119-.21h-.119c-.135.12 0 .042-.234.106v.21c-.196.034-.391.069-.587.106-.022-.005-.038-.15-.234-.106v.106h-.234v.106c-.115-.023-.138-.284-.234-.21-.193.143.13.202-.353.316v.315h-.118v-.21h-.118c-.039.07-.078.141-.119.21h-.47c-.141-.23-.26-.348-.587-.421v.106h-.471l-.119.209-.352-.106v.316h-.234c-.29.44-.262.123-.587.315.038.07.077.14.118.21l-.705-.106c-.01.002-.06.182-.234.21v-.107h-.47l-.12-.106v.106c-.333.192-.344.303-.938.316-.133-.18-.075-.143-.353-.21v.21H59.9v-.106c-.149-.042-.309.298-.353.315-.242.096-.336-.091-.47-.106v.106l-.706.106-.118-.315c-.325.076-.262.03-.353.315l-1.057.106-.119.21h-.823v.106c-.306.081-.549.01-.824.106-.066-.257-.124-.232-.234-.422-.132.089-.017-.012-.119.106-.413.261-.027.375-.586.525v.106h-.587l-.118.21c-.262.093-.33-.13-.471-.106v.106c-.234.042-.149-.047-.234-.106h-.119v.21a19.104 19.104 0 0 1-.352-.107v-.106l-.353.106v-.106h-.47l-.12-.21c-.165 0-.054-.031-.118.107-.146-.121-.044 0-.118-.21h.47v-.21h-.47c-.11-.19-.163-.165-.234-.42h.234c-.07-.435-.127-.504-.353-.947-.154.054.033.042-.118.106h-.353v.106c.237.059.102-.013.234.106-.336-.01-.504-.02-.705-.106v.106c.135.12.047 0 .119.21-.576 0-.67.12-1.058.209v-.316h-.118v.106h-.119l-.234-.106v.316h-.352v-.21h-.119v.21h.119v.315c-.392-.002-.532-.054-.824-.106v.21c-.278-.013-.297-.032-.471-.106v.106c-.135.12-.047 0-.118.21-.62-.062-.27-.228-.824-.107v-.21c-.187-.024-.149.18-.234.21-.44.148-.804.06-1.176 0v.316l-.234-.106v.106c-.237.18.01.16-.119.315h-.118c-.284-.38-1.1-.064-1.644 0v.316c-.22-.054-.642-.377-.824-.316v.106h-.118v.316c-.353.034-.706.069-1.058.106v.21h.118c-.038.105-.077.209-.118.315-.278-.012-.297-.032-.471-.106v.106h-.118v-.316h-.235v.316h-.118v-.106h-.471v.106l-.234-.106v.106c-.259.071-.388.032-.587.106v.315c-.586.08-.58.094-1.057-.21l-.119.316h-.47v.106l-.472.106v-.21h-.234c-.072.37-.127.484-.587.526v-.106c.135-.121.047 0 .119-.21a31.855 31.855 0 0 1-.471-.106v-.106c-.223-.061-.163.06-.234.106l-.353-.106v.106h.119v.422h-.234v-.21c-.323.168-.212.26-.706.316-.085.29-.033.234-.352.315-.317.335-.686.254-1.176.21v-.21h.47a9.207 9.207 0 0 0-.118-.315c-.179.061-.192.081-.47.106-.02-.286-.04-.634-.235-.737v-.106c.086-.111.091.091.234-.106h-.234c-.21-.111.234-.106.234-.106-.066-.257-.124-.232-.234-.422h.353c.096.138.083.123.234.21-.286-.552-.432-1.063.587-1.053.135.121 0 .042.234.106.038-.175.077-.35.118-.525h-.234v.21h-.234l.118-.316h-.118c-.088.2.083.109-.118.21-.155-.123.14-.16-.119-.21v.21l-.234-.106v.106h.118c-.077.14-.157.28-.234.421h-.118v-.315h-.119v.106h-.352c-.077.106-.157.21-.234.315h-.234v.106h-.353v.106h-.234v.106c-.474.15-.83-.145-1.058 0-.32.185-.371.582-.47.631h-1.058c-.135-.12 0-.042-.235-.106v-.21h-.118c.039.141.077.282.119.422h-.119c-.223.173-.622.111-.94.21v.106c-.173.05-.459-.114-.47-.106v.21h-.587l-.352.736h-.119v-.315h-.234c-.025.249-.05.261-.118.421-.133-.088-.017.013-.119-.106-.135-.12-.047 0-.118-.21.2-.118.16-.066.234-.315h-.353v.631c-.195-.034-.39-.069-.586-.106v-.106c.135-.12.047 0 .118-.21h-.234l.119-.209h-.119c-.135.121 0 .042-.234.106-.03.205-.116.205-.119.21-.187.517.105.673-.586.737v-.21c-.163.052-.259.042-.471.106v.106a19.651 19.651 0 0 1-.353-.106v.106h-.234l.119.21h-.705v.106c.134.12.046 0 .118.21a13.18 13.18 0 0 1-.823-.107c-.04.07-.078.14-.119.21-.32.155-.375.027-.587 0v.106h-.234l-.118.21c-.196.034-.391.068-.587.105v.106a31.855 31.855 0 0 1-.47-.106l-.587.106v.106c-.35.09-.477-.167-.706-.21v.107c-.134.12-.046 0-.118.21h-.471l-.118-.107c-.061.025-.034.188-.235.21v-.106l-.352-.106v.106a15.76 15.76 0 0 0-.353.106v-.21c-.212.099-.184.146-.47.21v.21h-.12v-.316c-.66-.008-1.164-.252-1.41-.631l.235-.106c.008-.148-.116.044-.119-.106.039-.175.078-.35.119-.525h.234c-.259-.656.29-1.02.353-1.684a7.896 7.896 0 0 1 1.291-.106v-.315h.353c.08-.308.13-.345.47-.422v-.21c.687-.14.067-.265.706 0v-.209c.262-.044.402-.1.587-.21v-.105c.234-.02.082.16.234 0 .135-.121.047 0 .118-.21h.234c.135-.426.24-.21.471-.525l.705.21V10.4h.119v-.422c-.675.012-.862.086-1.41 0-.067.33-.116.441-.471.525v-.21h-.235v.316c-.24.114-.462.31-.823.316l-.119-.106c-.424.286.039.49-.823.525l.118-.422h-.234v.106h.119c.008.037-.201.38-.234.525h-.234v-.21h-.235v.21l-.118-.106-.705.21c-.039.069-.077.14-.119.21-.154.058.025-.08-.118-.107l-.353.106v-.106h-.352v-.106h-.118v.106s-.325-.096-.471-.106c-.078.175-.158.35-.235.525-.102-.032-.258-.202-.47-.106v.106h-.119v.316h-.118v-.316h-.119v.422c.02.148.124-.045.118.106l-.118.106c-.204-.091-.041-.012-.118-.21h-.119v.21l-.587.106.119-.21h-.119c-.181.183-.211.104-.47.21v.106c-.174.059-.45.027-.471-.106h-.119v.315h-.118v-.106h-.119v.21h-.234v.21c-.297-.084-.727-.008-1.292 0-.038.246-.077.49-.118.736h-.234v-.21c-.18.063-.193.082-.471.107v.315l-.705.21v.106h-.234v.106c-.576.195-.711-.163-1.058.315h-.118l.118.106c-.039.106-.077.21-.118.316l-.471-.106v.316c-.416.039-.358.13-.705.209v-.21h-.119v.316c-.234.034-.47.069-.705.106l-.119.316h-.234c-.038.105-.077.209-.118.315h-.118v-.316h-.119l-.118.21-.353-.106V16.6c-.228-.052-.157.06-.234.106L.757 16.6l.118-.106v-.106H.757v-.316h.118v-.105H.641c-.002-.35-.06-.476-.118-.738H.289c-.21-.11.234-.105.234-.105.038-.107.077-.21.118-.316.606.025.581.2.587-.421.196-.035.391-.07.587-.107v-.421l.352-.106c.135-.12 0-.042.234-.106v.21h.234v-.21c.119.034.235.069.353.106v-.21H2.87l.118-.315h.118v-.106h.353c-.003-.148.025-.03-.118-.106v-.106h.352v-.106h.119l.118.21c.391.069.782.14 1.176.209.011-.394.107-.483.234-.737.119.034.234.069.353.106v-.21h.352l-.118.21h.118v-.106h.234c.13-.091.053-.254.234-.316.105.094.045.178.235.21.077-.106.157-.21.234-.316h.352v-.105h.119v-.422h.234v.21c.501-.042.531-.217.939-.316.094-.34.218-.362.234-.84h1.058v.105l.352-.106v-.106c.177-.041.16.188.234.21l.353-.106v.21h.119v-.21c.132-.089.016.012.118-.106l-.234.106v-.421h.118v-.422h.587l-.119.316h.353c.187-.205.427-.282.587-.526.12.092.162.183.234.316l.352-.21v-.106h.234l.119-.21c.077.035.157.07.234.107.157-.106-.143-.178.118-.21v.106l.353.106v-.21c-.135-.12-.047 0-.118-.209.302.05.52.101.939.106.168-.224.308-.212.586-.315l-.118-.316h.47v-.106h.12v.106h.233v-.21c.667-.016.438-.162.824-.315h.471V7.86c.135-.12.047 0 .118-.21h.353v.21h.234c.096-.337.138-.305.587-.315v.21c.275-.114.383-.242.705-.316v-.316h.234v-.21c.62.003.928-.123 1.41-.209.085.291.033.234.353.316-.039-.106-.078-.21-.119-.316h.119c.13-.148.41-.308.586-.421v-.106h.353v.106h.118v.315h.119c.038-.419.12-.485.586-.525v.106c.157.05-.044-.066.119-.106l1.41-.21c-.118-.327-.066-.16 0-.524.287-.06.259-.109.471-.21v.106h.118c.094.155-.118.21-.118.21l.118.21c.27-.203.15-.316.587-.422.039-.106.077-.21.119-.316.336.123.553.2 1.057.21.119-.21.234-.422.353-.631h.234l.118.21.824-.21V4.39h.823l.119-.21h.234c.074-.288.154-.239.234-.525l.471.106v-.106c.13-.094.025.017.118-.106h-.118c-.116-.175.168-.089.234-.106v-.106l.353.106c-.039.07-.078.14-.119.21h.119c.369-.38.691 0 1.176.106.08-.138.146-.114.234-.21l-.119-.21h.235v-.105l.234-.106c.016-.148-.025.017-.119-.106l.119-.21c.396.074.451.23.823.316V2.81c.322.067.267.138.587.21v-.316c.13.035.231.187.47.106v-.106h.353V2.6l.706-.525v-.21h.234v.106c.162.03-.023-.022.118-.105l.234.105-.118.316c.655.044.989.187 1.41-.21-.232-.118-.276-.147-.353-.421l.353-.106c.038.069.077.14.118.21h.235v-.422c.256.044.336.069.47.21l.706-.21-.119-.21h.587v-.21l.058.025ZM38.529 2.52v.21h.119v-.21h-.119Zm104.704.21v.21h.119v-.21h-.119Zm-104.351.315v.21H39v-.21h-.118Zm-1.645.21v.21h.119v-.21h-.119Zm103.058.315c.135.121 0 .042.234.106-.135-.12 0-.042-.234-.106Zm-9.282.106c.135.121 0 .042.234.106-.135-.12 0-.042-.234-.106Zm-99.064.316c.011.357 0 .382.234.525V4.41h-.118v-.422h-.118l.002.003Zm97.301.106c.135.12 0 .042.234.106-.135-.121 0-.042-.234-.106Zm-12.81.103v.21h.118V4.2h-.118Zm8.227.106-.119.21s.342-.168.235-.21h-.119.003Zm12.102 0h.234c-.099.119.014.015-.118.106v.106c-.135-.12-.047 0-.119-.21l.003-.002ZM32.77 4.413c.135.121 0 .042.234.106-.135-.12 0-.042-.234-.106Zm65.927.104v.21h.118v-.21h-.118Zm-64.632.421v.106h-.119c-.223.092.234.106.234.106.1-.118-.014-.014.119-.106-.135-.12 0-.042-.234-.106Zm90.249 0v.106h-.118c-.223.092.234.106.234.106.099-.118-.014-.014.118-.106-.135-.12 0-.042-.234-.106Zm30.083 0v.106h-.119c-.223.092.234.106.234.106.099-.118-.014-.014.119-.106-.135-.12 0-.042-.234-.106Zm-78.734.106v.21h.118v-.21h-.118Zm-29.025.104v.21h.118v-.21h-.118Zm30.082 0v.21h.119v-.21h-.119Zm21.74 0c.198.227.234.21.234.21.085-.102-.204-.186-.234-.21Zm30.085 0c.198.227.234.21.234.21.085-.102-.204-.186-.234-.21Zm8.343 0v.21h.118v-.21h-.118Zm21.739 0c.198.227.234.21.234.21.086-.102-.204-.186-.234-.21Zm-129.03.212h-.234v.106h.119v.106h.118v-.21l-.003-.002Zm1.529.63h.234c-.039-.14-.077-.28-.119-.42h-.118v.42h.003Zm90.249 0h.235l-.119-.42h-.118v.42h.002Zm30.083 0h.234l-.119-.42h-.118v.42h.003ZM29.834 5.78v.42h.118v-.42h-.118Zm30.082 0v.42h.119v-.42h-.119Zm60.168 0v.42h.118v-.42h-.118Zm17.39.212v.315h.119c.118-.19.259-.313.471-.421V5.78h-.234c-.133.18-.075.143-.353.21l-.003.002Zm12.692-.212v.42h.118v-.42h-.118Zm-67.334.106v.21h.118v-.21h-.118Zm30.082.21h.234v-.107c-.132-.088-.016.013-.118-.106h-.119v.21l.003.002Zm-65.69-.104v.315h.119v-.315h-.118Zm30.083 0v.315h.118v-.315h-.118Zm51.472.419c.085.29.033.234.353.315.074-.288.154-.239.234-.525h-.119c-.149.2-.118.175-.471.21h.003Zm1.058-.21v.21c.308-.008.399-.042.586-.106v-.106h-.586V6.2Zm-62.046.106v.316h.118v-.106c.132-.089.017.012.119-.106l-.235-.106-.002.002Zm30.082 0v.316h.119v-.106c.132-.089.016.012.118-.106l-.234-.106-.003.002Zm30.082 0v.316h.119v-.106c.132-.089.016.012.118-.106l-.234-.106-.003.002Zm30.085 0v.316h.119v-.106c.132-.089.016.012.118-.106l-.234-.106-.003.002Zm-75.326.104v.21h.118v-.21h-.118Zm54.526 0c.198.227.234.21.234.21.086-.102-.204-.185-.234-.21Zm-62.164.212v.315h-.234v.21l.234-.106.118-.316c.132-.088.017.013.119-.106h-.234l-.003.003Zm4.936 0v.21h.118v-.21h-.118Zm30.082 0v.21h.118v-.21h-.118Zm18.451.21h-.353v.209h.234c.111-.19.163-.165.234-.422h-.118v.21l.003.002Zm11.631-.21v.21h.119v-.21h-.119Zm-74.853.419v-.21c-.132.09-.017-.012-.118.106h-.119c.135.121 0 .042.234.106l.003-.002Zm29.73-.21v.316h.118c.135-.12 0-.042.234-.106v-.21h-.352Zm16.685.21v-.21h-.352v.106h.118c.135.121 0 .042.234.106v-.002Zm13.75 0v-.21c-.133.09-.017-.012-.119.106h-.118c.135.121 0 .042.234.106l.003-.002Zm9.284-.21v.21c.132-.089.017.012.119-.106h.118c-.135-.12 0-.042-.234-.106l-.003.002Zm16.686.106v.21h.118v-.21h-.118Zm-77.792.42h.234c-.1-.119.014-.015-.119-.107v-.21h-.118v.316h.003Zm-33.14-.21v.21h.119v-.21h-.119Zm30.085 0v.315h.119v-.315h-.119Zm60.165 0v.21h.118v-.21h-.118Zm22.915 0c.135.12.047 0 .119.21h-.119v-.21Zm7.17 0v.21h.118v-.21h-.118Zm-136.786.106v.21h.118v-.21h-.118Zm30.082 0v.21h.119v-.21h-.119Zm60.167 0v.21h.119v-.21h-.119Zm30.083 0v.21h.118v-.21h-.118Zm-82.962.103c.011.023.168.382.234.316v-.106h.118c-.101-.109-.203-.145-.352-.21Zm30.316.528h.235v-.21h-.235l.119-.21a19.17 19.17 0 0 1-.353-.105v.106c.16.123.18.192.234.421v-.002ZM60.74 7.462l.118.316h.119c-.072-.251-.039-.195-.234-.316h-.003Zm30.082 0c.039.106.077.21.119.316h.118c-.072-.251-.038-.195-.234-.316h-.003Zm2.234 0h-.234c.099.119-.014.015.118.106v.106h.119v-.21l-.003-.002Zm46.418.422h.234v-.21h.118c-.038-.069-.077-.14-.118-.21-.132.09-.017-.011-.118.107h-.119v.315l.003-.002ZM41.35 7.568c.135.121 0 .042.234.106-.135-.12 0-.042-.234-.106Zm19.977 0v.316h.118v-.316h-.118Zm30.082 0v.316h.118v-.316h-.118Zm2.233 0h-.234c.1.119-.013.015.119.106v.106h.118v-.21l-.002-.002Zm13.631 0v.316h.119v-.316h-.119Zm30.086 0v.316h.118v-.316h-.118Zm-118.925.104v.21h.118v-.21h-.118Zm5.522 0v.21h.119v-.21h-.119Zm30.085 0v.21h.119v-.21h-.119Zm7.872.212v-.21c-.132.09-.016-.012-.118.106h-.119c.135.121 0 .042.234.106l.003-.002Zm22.21-.212v.21h.12v-.21h-.12Zm9.049 0v.631h.118v-.631h-.118Zm15.041 0v.21h.118v-.21h-.118Zm.471 0v.21h.118v-.21h-.118Zm5.522 0v.21h.118v-.21h-.118Zm24.092 0v.21h.118v-.21h-.118Zm.471 0v.21h.118v-.21h-.118Zm5.522 0v.21h.119v-.21h-.119Zm-123.27.106c.134.12 0 .042.233.106-.135-.12 0-.042-.234-.106Zm30.082 0c.135.12 0 .042.234.106-.135-.12 0-.042-.234-.106Zm90.249 0c.135.12 0 .042.234.106-.135-.12 0-.042-.234-.106Zm-81.907.21.119.315h.118c-.071-.251-.038-.195-.234-.316h-.003Zm30.085 0 .119.315h.118c-.071-.251-.038-.195-.234-.316h-.003Zm7.638.105v.21h.118v-.21h-.118Zm-74.27.525c-.085-.29-.032-.234-.352-.315.039.14.077.281.119.421h.352v.106c.165.02-.044-.073.119-.106h.47v-.421c-.132-.089-.016.012-.118-.106h-.234v.106h.118c.04.19-.291.276-.47.315h-.003Zm15.28-.418-.119.21s.342-.168.234-.21h-.118.003Zm90.249 0-.118.21s.341-.168.234-.21h-.118.002Zm-110.344.525h.234v-.106c-.133-.088-.017.013-.119-.106h-.118v.21l.002.002Zm4.112-.209v.21c.132-.09.016.012.118-.107h.118c-.134-.12 0-.041-.234-.106l-.002.003Zm25.97.21h.234v-.107c-.132-.088-.017.013-.119-.106h-.118v.21l.003.002Zm4.115-.21v.21c.132-.09.016.012.118-.107h.119c-.135-.12 0-.041-.234-.106l-.003.003Zm30.082 0v.21c.132-.09.016.012.118-.107h.119c-.135-.12 0-.041-.234-.106l-.003.003Zm56.055.21h.234v-.107c-.132-.088-.016.013-.118-.106h-.119v.21l.003.002Zm4.112-.21v.21c.133-.09.017.012.119-.107h.118c-.135-.12 0-.041-.234-.106l-.003.003Zm-122.213.631v-.21l-.352.106.118.422h-.118v.106c-.276.034-.548.069-.824.106v.21c.154.02.73.128.824.105l.118-.21.353.107c.038-.175.077-.35.118-.525h.119c.134-.12 0-.042.234-.106v.21h.586v-.21h.234l-.234-.631h-.118l-.119.315c-.168.106-.677.19-.939.21v-.005Zm13.279-.528v.316h.118v-.316h-.118Zm-15.747.212v.21h.119v-.21h-.119Zm18.333 0v.21h.118v-.21h-.118Zm11.75 0v.21h.118v-.21h-.118Zm30.082 0v.21h.118v-.21h-.118Zm34.902 0c.135.121 0 .042.234.106-.135-.12 0-.041-.234-.106Zm13.516 0v.21h.118v-.21h-.118Zm11.749 0v.21h.119v-.21h-.119Zm-106.82.104c.136.12.048 0 .12.21h-.12v-.21Zm29.968.106c.132.18.074.143.352.21-.102-.109-.204-.146-.352-.21Zm13.396.21h.234v-.106c-.132-.09-.016.012-.118-.106h-.118v.209l.002.002Zm-43.597-.104h.234v.106c-.237-.06-.102.012-.234-.106Zm32.787 0c.135.12.047 0 .118.21h-.118v-.21Zm31.61.419h-.233v-.421h-.119v.105c-.135.121-.047 0-.118.21.118.069.234.14.352.21.1.118-.014.014.119.106v-.21ZM62.856 9.25v.21h.119v-.21h-.119Zm-38.546.212v.21h.118v-.21h-.118Zm30.085 0v.21h.118v-.21h-.118Zm25.97.104c.135.12 0 .042.234.106-.135-.12 0-.042-.234-.106Zm-41.719.316v-.21c-.132.089-.017-.012-.119.106h-.118c.135.12 0 .042.234.106l.003-.002Zm60.167 0v-.21c-.132.089-.016-.012-.118.106h-.119c.135.12 0 .042.235.106l.002-.002Zm-70.625.211v.21h.118v-.21h-.118Zm2.352 0v.21h.119v-.21h-.119Zm-8.814.104v.21h.119v-.21h-.119Zm9.4.212c-.005.427-.054.454.235.631v-.106c-.198-.227.09-.508.234-.737h-.118c-.133.18-.075.143-.353.21l.003.002Zm2.116-.212c.135.12 0 .042.234.106-.135-.12 0-.042-.234-.106Zm6.11 0c-.04.106-.078.21-.12.316h.12v-.106c.049-.062.192-.015.117-.21h-.118Zm12.457 0v.21h.118v-.21h-.118Zm39.485.212c-.005.427-.055.454.234.631v-.106c-.198-.227.091-.508.234-.737h-.118c-.132.18-.074.143-.353.21l.003.002Zm2.115-.212c.135.12 0 .042.234.106-.134-.12 0-.042-.234-.106Zm-52.53.106v.21h.12v-.21h-.12Zm13.163.21h.235v-.106c-.133-.09-.017.012-.119-.106h-.118v.21l.002.002Zm16.923-.21v.21h.118v-.21h-.118Zm10.458 0c.135.12.047 0 .118.21h-.118v-.21Zm-25.855.106c-.038.07-.077.14-.118.21l.234.105c.085-.125-.248-.09 0-.315h-.118.002Zm-14.454.104-.119.315h.119v-.21h.118v-.105h-.118Zm30.085 0-.118.21s.34-.168.234-.21h-.119.003Zm-61.696.421h.234v-.106c-.132-.089-.017.012-.118-.106H9.5v.21l.003.002Zm66.16 0h-.234c.1.118-.013.015.119.106v.106h.118v-.21l-.002-.002Zm-62.164.21v.21h.119v-.21h-.119Zm16.923 0v.421h.118v-.106h.119c-.039-.069-.078-.14-.119-.21h.119c-.135-.12 0-.041-.235-.105h-.002Zm43.245 0v.21h.118v-.21h-.118Zm17.743 0c-.135.12 0 .041-.234.106v.106h.234c.038-.07.077-.14.118-.21h-.118v-.002Zm-54.76.315-.12.21s.342-.168.235-.21h-.119.003Zm-4.466.212v.21h.119v-.21h-.119Zm2.587 0v.21h.118v-.21h-.118Zm-5.525.21h.234c-.097.138-.083.123-.234.21v.105h-.119l.119-.315Zm4.114 0-.118.21s.342-.168.234-.21h-.118.002Zm-9.05.421v.21h.118v-.21h-.118Zm-9.048.525v.21h.119v-.21h-.119Zm2.586.106v.316h.471v.21h.353c.096-.139.082-.124.234-.21v-.316c-.49.077-.493.027-1.058 0Zm-9.518.21c.135.12 0 .042.234.106-.135-.121 0-.042-.234-.106Zm24.325.106v.21h.119v-.21h-.119ZM3.51 14.928c-.039.107-.078.21-.119.316h.119v-.21h.118v-.105H3.51Zm15.16.107v.21h.118v-.21h-.119Z" fill="#FDE6AD"/></svg>