<svg width="218" height="217" fill="none" xmlns="http://www.w3.org/2000/svg"><path d="M180.345 92.385c-2.946-3.3-4.122-6.266-6.537-4.257-3.091 2.57-6.006 11.157-7.172 15.716-.343 1.353-.541 2.675-.728 3.892-1.041 6.87 8.681 7.203 10.929 2.092 1.426-2.924 2.613-6.057 3.466-7.972 1.624-3.643 2.269-6.973.042-9.471Z" fill="#FFDBB0"/><path d="M163.66 112.368c-1.8.187-2.873 3.143-1.623 4.808 1.852 2.467 4.163 3.206 7.13 3.487 5.829.552 4.798-.645 5.298-4.517.229-1.717 1.769-3.757 2.664-6.193.604-1.665-11.46-4.101-11.533-2.258-.426 3.028-.26 4.485-1.936 4.662v.011Z" fill="#003F67"/><path d="M177.274 78.199c-2.779 3.57-8.285 8.94-7.796 14.363.364 4.08 6.058 9.512 6.089 13.499.031 3.986 7.016 3.632 13.115 3.851 1.645.062 13.115-.979 19.485-1.551 3.518-.312 1.01-4.829.979-8.202-.032-3.372.77-4.132 1.374-7.473.572-3.153-.219-9.054-2.04-12.79-1.312-2.676-5.715-8.348-10.18-8.806-3.643-.375-6.1-.385-10.711.115-4.83.52-7.692 3.622-10.315 6.994Z" fill="#EE8084"/><path d="M195.98 71.1c-3.612 1.916-7.349 1.718-9.763.323-2.415-1.405-4.237-3.434-5.559-5.922-.874-2.29-.926-5.058-.676-6.088.229-.947.718-1.936 1.363-2.79 1.509-1.977-.073-2.851 4.039-6.224 1.249-1.03 7.796-3.465 13.531 1.395 4.663 3.955 4.622 15.3-2.935 19.307Z" fill="#FFDBB0"/><path d="M184.362 49.057c.698-.78 3.331-1.998 5.673-1.592 2.894.51 2.946-1.26 6.912-.5 4.569.874 7.046 3.497 8.493 6.14 1.718 3.133 1.759 5.32 1.759 7.265 0 4.705-4.07 16.903-18.08 12.438-1.696-.541-2.769-.417-1.519-3.497 1.686-1.572 4.298-3.04 4.392-4.028.094-.989-1.218-1.457-2.155-1.353-2.352.26-1.675-.219-1.571-3.414.135-3.892-8.005-7.223-3.914-11.459h.01Z" fill="#003F67"/><path d="M182.053 104.905c4.288.739 9.867-.739 13.698-.614 6.422.208 13.958-.864 14.437 1.166.468 2.03 1.54 8.566 1.03 12.635-.729 5.839-3.82 8.618-10.658 10.127-6.246 1.374-12.835-.354-17.352-.25-5.225.125-11.502-4.038-12.719-8.638-1.26-4.746.124-16.133 2.196-18.63 1.291-1.562 5.954 3.611 9.378 4.194l-.01.01Z" fill="#A2A2A2"/><path d="M203.619 59.788c1.041-.583 2.842-1.967 3.997-2.28 1.156-.312 2.415-.666 3.664-.239 1.936.666 2.779 1.28 3.352 2.342.51.947.364 3.872-.552 5.443-.958 2.197.073 3.622.76 4.59.989 1.374 3.528 2.332 2.696 3.164-2.446 2.415-4.299 1.936-5.829.687-4.944-4.007.957-7.296-1.967-9.919-2.925-2.612-3.467-2.3-6.121-3.788Z" fill="#003F67"/><path d="M148.346 163.109c3.196 3.237 5.746 6.484 5.361 11.438-.312 4.059-4.112 8.493-4.372 11.418-.322 3.663 2.498 6.276 2.478 8.503-.032 3.986-10.014 2.019-16.394 2.227-1.718.063-13.386 1.478-20.058.916-3.685-.312-1.395-7.296-1.364-10.668.032-3.372-2.966-3.726-5.037-8.108-1.749-3.684-.573-8.17 2.716-13.322 2.863-4.496 8.993-7.171 13.667-7.629 3.82-.375 6.391-.385 11.21.115 5.059.52 8.733 2.019 11.793 5.12v-.01Z" fill="#E2C2BC"/><path d="M140.79 192.438c-4.466 0-12.418-.406-16.353-.374-6.609.052-11.231-1.281-11.761.738-.531 2.02-2.041 7.4-1.385 12.303.77 5.838 4.372 9.107 11.346 10.772 6.38 1.519 13.188-.052 17.84.166 5.361.25 11.908-3.767 13.261-8.336 1.405-4.715-.031-13.843-2.102-16.393-1.291-1.592-6.652 1.124-10.836 1.114l-.01.01Z" fill="#A2A2A2"/><path d="M121.148 156.042c2.394 2.196 6.495 1.967 9.857 1.571 3.362-.395 6.245.895 8.525-.458 1.28-1.311 2.644-2.519 3.3-3.892.405-.875 1.321-1.614 1.748-2.155.385-.489.906-1.113.916-1.79 0-2.342-1.29-1.27-1.447-1.873-.728-2.935-.052-2.727-2.987-8.483-.895-1.748-7.494-6.463-12.157-5.755-3.685.562-10.378 4.943-11.055 12.271-.145 1.613-1.561 1.581-1.561 3.153 0 2.113 1.676 2.019 2.113 3.237.469 1.301 1.936 3.154 2.748 4.174Z" fill="#FFDBB0"/><path d="M117.566 146.383c.198.895.552 3.528.708 5.797.156 2.321 1.738 4.205 2.8 5.298 1.426 1.488 3.674 3.258 4.726 3.018 1.79-.416 2.664.521 5.1.521 1.769 0 3.83-1.582 5.142-.885 1.655.885 4.007-1.665 5.36-3.591 1.437-2.04 1.666-4.215 1.707-5.964.052-2.206 2.405-4.277 1.218-7.066-.916-2.155-1.53-4.715-2.623-6.183-1.093-1.467-3.424-3.538-8.025-4.746-7.494-1.977-9.951 2.103-11.928 3.31-1.978 1.207-5.174 5.808-4.164 10.481l-.021.01ZM40.632 166.65c.01.437.645.77 1.415.77s1.395-.354 1.405-.791l.76-36.272c.031-1.29-1.062-2.352-2.425-2.341-1.364 0-2.436 1.082-2.394 2.373l1.239 36.261ZM3.159 145.563c.01.437.645.77 1.416.77.77 0 1.394-.354 1.405-.791l.76-36.271c.03-1.291-1.062-2.353-2.426-2.342-1.363 0-2.435 1.082-2.394 2.373l1.239 36.261Z" fill="#003F67"/><path d="m4.74 55.41 33.839-6.172c2.404-.437 4.36 1.197 4.36 3.642v45.358c0 .313-.03.614-.082.927.822.072 1.634.27 2.227.561l39.522 19.255c1.177.573 1.104 1.291-.177 1.603l-40.594 9.742c-1.27.302-3.258.052-4.413-.562L4.063 110.853c-1.749-.968-2.685-1.676-2.727-3.508l-.874-46.7C.42 58.209 2.346 55.847 4.74 55.41Z" fill="#F2A096"/><path d="M42.742 122.822c1.478 0 3.445-.437 5.517-.905 1.072-.24 2.186-.49 3.3-.687a.417.417 0 0 0 .332-.49.417.417 0 0 0-.489-.333 99.317 99.317 0 0 0-3.33.698c-2.218.499-4.31.957-5.715.864-1-.063-3.54-.895-9.899-4.455a.418.418 0 0 0-.572.167.418.418 0 0 0 .166.572c5.225 2.914 8.67 4.455 10.253 4.559.135 0 .28.01.427.01h.01Zm-30.735-20.816h.052c1.77-.27 5.288-.885 8.681-1.488 2.613-.458 5.11-.906 6.6-1.145a.413.413 0 0 0 .343-.479.419.419 0 0 0-.48-.343c-1.488.24-3.996.687-6.609 1.144-3.393.604-6.9 1.218-8.66 1.489a.418.418 0 0 0 .073.833v-.011Zm-3.622 4.725a.419.419 0 0 0 .177-.801c-1.925-.874-1.915-1.936-1.905-4.038v-.583c0-1.02-.062-3.747-.145-6.9-.115-4.59-.25-9.805-.209-11.325 0-.228-.177-.426-.406-.426-.229-.021-.426.177-.426.406-.042 1.54.093 6.765.208 11.365.083 3.143.146 5.86.146 6.869v.573c-.021 2.154-.032 3.715 2.394 4.808a.487.487 0 0 0 .177.042l-.01.01Zm2.985-48.958h.053c1.769-.27 5.287-.885 8.68-1.489 2.613-.458 5.111-.905 6.6-1.145a.413.413 0 0 0 .343-.478.419.419 0 0 0-.479-.344c-1.488.24-3.997.687-6.61 1.145-3.393.604-6.9 1.218-8.66 1.488a.423.423 0 0 0-.353.48.417.417 0 0 0 .426.353v-.01Z" fill="#003F67"/><path d="M62.427 159.198c.136-.375.23-.728.281-1.051.323-2.269.364-12.438.51-13.978 0 0 6.703-1.405 6.974.77.27 2.176-1.166 13.541.125 15.237.281.365.895.812 1.697 1.291-3.31 1.363-6.506-.437-9.587-2.279v.01Z" fill="#FFDBB0"/><path d="M62.428 159.198c3.08 1.842 6.276 3.643 9.586 2.28 2.883 1.738 8.286 4.027 10.388 5.724 2.686 2.165-1.77 3.83-3.924 3.591-2.155-.24-13.823-2.384-16.487-4.455-2.29-1.769-.354-4.86.447-7.14h-.01Zm23.178-1.208c2.197 1.187 6.006 1.457 8.171 3.018 2.935 2.113 5.506 5.433-1.343 6.099-6.849.667-13.802-3.039-15.342-5.183-1.51-2.102 1.103-2.883 1.186-4.028 2.436.531 4.986.667 7.339.105l-.01-.011Z" fill="#003F67"/><path d="M77.477 144.949s5.964-1.821 6.287-.634c.323 1.186-.625 9.106.24 11.969.228.749.811 1.29 1.592 1.707-2.353.562-4.892.437-7.339-.105v-.072c-.03-1.197-1.353-11.064-.801-12.875l.02.01Z" fill="#FFDBB0"/><path d="M24.29 81.243c-.209.354-6.527 11.532-.386 25.02 4.903 10.762 27.427 13.271 29.759 15.456 2.519 2.352 2.602 35.221 5.642 35.2 1.165 0 4.913 1.28 10.512.978 7.599-.416 3.55-3.507 5.788-3.653 1.603-.104 5.756.468 9.982-.104 1.738-.24 1.249-14.176 1.093-19.088-.156-5.038-.323-18.381-1.468-27.29-.708-5.495-15.676-12.822-19.964-14.633-4.372-1.853-9.524-9.971-12.178-11.23-3.654-1.728-28.791-.656-28.791-.656h.01Z" fill="#E2E5D8"/><path d="M74.063 143.722a.329.329 0 0 0 .334-.333c0-2.998-.708-16.809-1.052-23.439-.073-1.457-.135-2.56-.156-3.122-.146-2.987-.27-5.558-2.727-7.234-2.124-1.446-9.4-6.182-14.76-8.784a.334.334 0 0 0-.447.156.334.334 0 0 0 .156.448c5.319 2.581 12.553 7.296 14.666 8.732 2.071 1.415 2.28 3.476 2.435 6.713.032.562.084 1.676.157 3.122.343 6.63 1.05 20.431 1.05 23.408a.33.33 0 0 0 .334.333h.01Z" fill="#003F67"/><path d="M37.57 22.813c-.28 0-6.713.062-7.067.03-.135.604 1.51 4.07.51 6.308-1.27 2.83-7.931 4.465-7.015 7.233 2.883 6.911 15.81 4.642 18.507 1.405.978-6.15-3.03-3.965-4.84-8.638-1.218-3.143-.084-5.943-.084-6.338h-.01Z" fill="#FFDBB0"/><path d="M27.275 23.573c1.77 3.643 4.622 5.516 7.057 5.61 2.446.083 4.757-.698 6.901-2.165 1.728-1.54 3.071-3.924 3.373-4.965.28-.957.385-2.092.302-3.185-.188-2.56 1.394-2.456-.042-7.66-.437-1.582-.75-4.964-7.317-5.6C31.772 5.059 19 12 27.265 23.574h.01Z" fill="#FFDBB0"/><path d="M43.075 10.708c1.498 1.228 1.707 5.08 2.956 3.83 2.404-2.404 1.873-9.273-1.51-10.335-3.476-1.093-.406-2.32-7.806-3.58-5.402-.916-16.332 6.64-13.709 12.51 1.728 3.882-.052 7.775 4.726 11.324.895.666.541-3.56.02-3.997-2.497-2.29-2.05-3.236-1.55-4.184.49-.947 2.144-1.582 2.633-.728 2.426 4.257 1.489-.625 3.758-.198 4.767.906 9.774-5.475 10.502-4.663l-.02.021Zm-4.632 23.907c2.103-3.029 4.934-3.289 8.994.968 6.183 6.484 5.683 10.7 8.4 14.342 1.686 2.248 14.416 7.4 18.558 9.024 3.05 1.197 3.748 3.34 3.748 4.985 0 4.184-2.145 6.848-3.591 6.578-2.894-.531-26.532-13.177-27.105-15.862-.697-3.3-10.19-18.318-9.004-20.035Z" fill="#003F67"/><path d="M52.299 54.526c-1.27-11.46-8.681-21.753-9.92-22.138-3.32-1.03-.583 1.218-6.65 1.28-5.288.125-5.361-4.517-8.047-3.622-5.745 1.905-9.576 4.06-12.095 6.141-2.55 2.113 6.016 9.357 3.237 15.185-.156.333-.27 11.21 0 22.585.094 3.924.479 15.748 2.321 16.3 1.458.436 7.994-.584 10.576-.782 1.457-.104 20.765-.749 21.952-1.509 3.747-2.414.728-5.557.968-9.731.572-9.856-.74-9.2-2.352-23.72l.01.01Z" fill="#003F67"/><path d="M45.834 42.806c-4.029.416-15.353.5-18.143 1.29-2.8.802-.635 8.878-2.841 14.717-1.333 3.518-2.145 11.303-6.735 11.803-1.592.177-.031 6.65.885 13.988.916 7.348.76 15.32 2.238 20.108 1.467 4.788 13.666 14.706 17.101 13.936 3.435-.77 14.677-4.163 18.07-5.36 3.393-1.197 14.489-8.399 20.214-9.169 5.725-.781 8.056-1.707 3.393-6.058-3.664-3.414-14.083-8.107-19.62-12.385-5.288-4.09-9.16-27.217-10.17-33.4-1-6.181-.468-9.876-4.392-9.47Z" fill="#A2A2A2"/><path d="M28.18 31.264c.625 2.227 2.102 10.543 2.196 13.332.104 2.79.708 2.093-1.343 2.093-2.05 0-1.113.395-1.977-3.394-.864-3.788-1.76-9.825-2.207-10.938-.448-1.114-.385-1.468 1.01-1.988 1.395-.51 1.905-.614 2.32.885v.01Zm16.563 2.851c.624 2.227 1.436 9.19 1.53 11.99.104 2.79.707 2.092-1.343 2.092s-1.416.406-2.28-3.383c-.864-3.788-1.602-9.263-1.759-10.46-.301-2.404-.093-2.737 1.385-2.424 1.457.312 2.05.697 2.467 2.196v-.01Z" fill="#A2A2A2"/><path d="M75.655 46.521c-5.974.604-10.585 1.25-15.124 3.955-3.456 2.05-3.04.802-10.648.24-5.485-.406-17.893 1.977-19.464 3.6-.74.76.624 9.847 1.03 14.457.396 4.465 2.03 14.51 2.415 18.09.385 3.476 2.123 2.206 5.725 1.144 5.652-1.665 10.742-2.997 17.393-3.143 5.09-.104 6.047-.302 10.783-2.873 3.414-1.852 9.597-3.424 11.846-3.674 1.873-.208 1.238-1.31 1.02-5.536-.26-5.07-.802-15.446-1.27-19.65-.469-4.206.291-7.016-3.706-6.61Z" fill="#F2A096"/><path d="M76.552 47.885c-5.975.604-11.606 1.29-15.988 4.236-3.03 2.03-3.258 0-9.784-.052-5.507-.052-17.092 1.957-18.663 3.59-.74.76.79 9.722 1.197 14.332.395 4.465 1.738 12.833 1.967 16.32.229 3.487 1.322 3.632 4.913 2.57 5.652-1.665 11.033-2.508 17.684-2.643 5.09-.104 6.048-.302 10.784-2.873 3.414-1.852 9.597-3.424 11.845-3.673 1.874-.209 1.239-1.312 1.02-5.537-.26-5.07-.801-15.446-1.27-19.65-.479-4.205.292-7.016-3.705-6.61v-.01Z" fill="#E2C2BC"/><path d="M61.51 83.324a.276.276 0 0 0 .271-.27c0-4.56-.968-13.105-1.748-19.984-.323-2.81-.594-5.246-.77-7.057a.261.261 0 0 0-.292-.24.261.261 0 0 0-.24.292c.177 1.822.448 4.257.77 7.067.781 6.86 1.75 15.404 1.75 19.921 0 .146.124.27.27.27h-.01Z" fill="#F2A096"/><path d="M84.42 71.116c-.51-1.78.354-2.425-1.624-4.882-.281-.343-2.498-3.07-2.956-1.197-.416 1.686-1.53.843-1.561 2.52-.021 1.383.728 1.32.312 2.07-.708 1.28.624 1.197.656 2.425-.26 1.093.697 2.935 2.32 2.581.969-.208 3.363-1.748 2.853-3.528v.01Zm-43.102 4.725c-.593-.895-1.176-1.155-.801-1.905.374-.75 1.457-.978 1.426-1.759-.042-.916-1-.884-1.947-.895-.947 0-2.945.666-3.768.927-.437.135-1.977.416-1.457-.687.937-1.957.604-2.373.333-2.998-.218-.51-1.27-.427-1.915.874-.656 1.312-1.749 3.393-2.509 4.08-.447.406-4.569-1.228-7.764-2.092-3.997-1.092-4.268-2.258-3.654-5.828.385-2.238.406-6.193.385-7.983-.02-1.77-9.274-2.935-9.67-1.55-.489 1.737.073 4.142-.302 8.034-.416 4.33-.624 11.47 4.56 12.791 4.715 1.197 11.595 1.947 14.957 2.02.49 0 3.664 1.842 4.278 1.946 1.728.312 3.695.885 4.465.572.77-.312 1.041-.395 1.301-1.509.26-1.113.469-.937 1.28-1.863.813-.926 1.395-1.28.802-2.175Z" fill="#FFDBB0"/><path d="M21.936 35.198c-2.52-1.218-4.507-1.572-8.525 3.205-1.832 2.186-4.486 9.087-5.007 16.34-.364 4.997-1.249 10.565-.302 13.916.271.968 3.466 1.832 8.4.885 3.102-.593 5.58-.541 6.703-1.364 1.385-1.02-1.05-8.357-1.05-11.063 0-2.28 1.623-9.024 1.758-10.169.188-1.665.718-5.329.687-6.89-.031-1.644-1.405-4.236-2.664-4.85v-.01Z" fill="#003F67"/></svg>