<svg width="261" height="29" fill="none" xmlns="http://www.w3.org/2000/svg"><path fill-rule="evenodd" clip-rule="evenodd" d="M64.342.045c.903.192 1.036.683 2.086.764.151-.29.378-.724.947-.572v.192c.485.179.214-.192.57.192h.19v.764l.379.192v.38h.191c.063.192.125.38.192.572h-.761V3.1c-.525.138-.423.053-.57.571-.662.161-.885.483-1.707.572.013.5.075.648.19.952-.649-.05-1.49-.152-1.516-.192v.38h.191c.6.004-.569.192-.569.192-.24-.3-.507-.465-.947-.572-.285.518-.659.813-1.33.951v-.38l-.378.193c-.112.29-.147.313-.192.764-.4.031-1.147.17-1.33.38-.23.268.17.21-.378.571V6.72h-.19v.764h-.57v-.38c-.29.112-.312.148-.76.193v-.38l-.57.192c-.125.326-.182.599-.191 1.144h-.948s-.191.304-.378.38v.192h-.191v-.38h-.378v-.192h-.191v.192h-.57v.192c-.329.295-.4.894-.57 1.336-.697-.067-1.249-.335-1.707.192-.062.192-.125.38-.191.572-.507.063-1.014.125-1.517.192v.192l-.378.192v.38l-.57-.192-.19.38h-.57c-.031.018-.222.286-.378.38v.192c-.316-.063-.632-.126-.948-.193v-.192c-.11-.013-.649.322-.947.38-.129.362-.245 1.166-.378 1.524l-.57-.193v-.192c-.262-.049.076.139-.19.192-.454.09-.49-.143-.761-.192l-.378.572h-.761v.192l-.57.192v.572h.379v.192h-.191c-.103.09-1.522.483-1.517 0h-.191v.38l-.948-.192c.01.684-.044 1.202-.378 1.524v-.193h-.191v-.764h-.378c-.014.5-.076.648-.191.952-.396-.116-.774-.214-1.14.192v.38h-.19v.192l-1.14-.192c-.061.125-.124.255-.19.38a40.22 40.22 0 0 0-.76.192v.38H35.3v.38c-.453-.09-.596-.22-.947-.38v.951c-.445.063-.885.125-1.33.192v.192c-.556.13-.623.21-.76.764.266.014-.027-.03.19-.192.299-.219.179.47.192.572-.325.215-.258.12-.378.572.254-.063.507-.125.76-.192l.192-.38c.035-.004.444.179.76.192v-.38c.192.063.378.126.57.193l.191-.38c.231-.112.556-.103.76-.192v-.764c.45-.076 1.046-.362 1.709-.192v.192h.76v-.192h.378v-.764h.378v.38c.57-.126 1.139-.255 1.708-.38l.192.192c.52-.366.173-.652 1.138-.764.218.219 0 .076.378.192v-.572l.948-.192v-.38c.627.103.863.242 1.138 0h.192c.24-.295-.205-.384.19-.572v.192h.192v-.571c.418-.067.983-.25 1.517 0 .062.125.124.254.191.38h.378v-.38c.383.107.165-.023.378.192l.57-.192v-.193h.569c.125-.192.253-.38.378-.571.316.062.632.125.947.192v.192c.138.027.699-.17 1.33-.192l-.19-.572h.377v.192h.76l.192.192v-.192l.57-.192c-.014-.5-.076-.648-.192-.952h1.139c.218-.219 0-.076.378-.192.147-.572.115-.5.76-.572.214.326.12.26.57.38.191-.478.391-.996.76-.764h.192v.572h.378c.138-.527.053-.425.57-.572v-.192l1.138-.192s.084.277.378.192l.191-.38h.57v-.38l.377.193v.192c.25.093.04-.09.192-.192.476-.13.307-.099.57-.38h.19v-.38l.378-.192c.223-.241.32-.554.57-.764v.192h.569c.062.255.125.51.191.764h.192c.462-.777 1.063-.706 2.086-.952.057-.013.049-.263.378-.192v.192c.378.126.76.255 1.138.38v-.192h.192l-.192-.572c.125-.062.254-.125.378-.192.263-.398-.084-.268.379-.572V9.2l.947-.192c-.102.532-.147.018 0 .572h.191V9.2c.378.063.76.125 1.139.192V9.2c.204-.174.035.031.191-.192h-.191v-.192h.57c.04.451.08.473.19.764.218-.22.076 0 .192-.38.218-.219.075 0 .191-.38.57-.192 1.139-.38 1.708-.572l.191.193c.063-.617.174-.559.378-.952h.378v.192h.192v-.192h.76l.192-.572c.493.201.8.349 1.516.38-.062-.125-.124-.255-.191-.38.129-.21 1.067-.268 1.33-.572l-.191-.38h.19v-.192c.504.224.717.367 1.518.38V5.96h-.192v-.572c.6.125.383.29.57.38.222-.014.676-.384 1.138-.192l.192.38h.378c-.183.63-.178 1.12.191 1.715h-.191c-.218.219 0 .076-.378.192v.952h-.192c-.049.317.178.33.192.38v.951c-.68.027-1.077.273-1.517.38l-.378-.192c-.125.192-.254.38-.378.572-.107.044-1.037-.143-1.33-.192-.116.5-.538 1.01-1.139.951 0 0-.102-.241-.378-.192l.191.38h-.76c-.063.317-.125.634-.192.952l-.947-.193-.191.38c-.512.13-.498-.366-.57-.38l-.569.193.192.192c.008.076-.17.428-.192.764-.631.062-1.263.125-1.9.192v-.38c-.448-.04-.47-.08-.76-.192v.572c-.04.08-1.303.96-.57 1.336h-.568v-.193c-.183-.353-.192.38-.192.38-.213.161-.026-.022-.19.192.533-.178.528-.2 1.138 0v.192l.57-.192-.192-.192.191-.572c.89.344 1.477.112 2.086-.38.063-.124.125-.254.191-.38h.948s-.018-.11.378-.191v.572h.191v-.38c.81-.014 1.259-.04 1.708-.38l.191-.38c.316.063.632.125.948.192-.218-.219 0-.075-.378-.192v-.38c.191.063.378.126.57.193v-.38h.377v.38c1.099-.09 1.886-.71 2.656-1.144v.572h.378v-.38h1.33v-.192h.569v-.192c.378.062.76.125 1.139.192.16-.215-.023-.027.19-.192v-.764c.379-.063.761-.125 1.14-.192-.063.192-.125.38-.192.572h.192v.192c.213-.161.026.022.19-.192.219-.22.076 0 .192-.38.298.013 1.33.192 1.33.192v-.192h.191v-.572c.21-.268.854-.197 1.33-.192v.192l1.139-.192v-.192h.378V9.95h.57l-.192.572h.191c.138-.528.054-.425.57-.572v.38c.19-.063.378-.126.569-.193v-.192c.445-.062.885-.125 1.33-.192v-.192h.57l.19-.38c.16-.062 1.25.201 1.517.38v-.38l.57-.192v-.192c.258-.08-.076.138.19.192.317.063.339-.183.379-.192.347-.072.734.25.947.38v-.192c.592-.541.045-.81 1.139-.952v.192h.57l-.192.38c.245.308.356-.21.57.572.248-.201.284-.389.569-.572v.572h.378c-.063-.38-.125-.764-.192-1.144.89-.304.64.147 1.139-.952h.191c-.022.407-.195.653-.191.764l.191.192c.347-.24.023-.259.192-.38.218-.16.12.175.191.193.191-.063.378-.125.569-.192v-.38c.427-.076.73-.313 1.33-.192 0 0 .009.25.378.192v-.192h.948v.192c-.454.116-.352.062-.57.38h.378c.547-.907 1.459-.59 2.469-.952l.191-.572c.543 0 .814.067 1.139.192v-.764h.191c.125.192.254.38.378.572h.191l-.191.38h.191v.192c.543.393.49-.34.761.572h.378v.38h.378c-.062.192-.124.38-.191.572h.191c.129.285.134.317.191.764h.379v.38c.293.17.395.28.569.571.614-.335.36-.456 1.139-.192l-.192-.572h.378v-.38h.378v.193h.192V8.8l.569.193-.191.571h.378c.138-.527.053-.424.569-.571.285-.336.512-.362 1.139-.38v-.38c.378-.125.76-.255 1.138-.38.014.5.076.648.192.952.213-.161.026.022.191-.192h.191v-.572c.57.062 1.139.125 1.708.192v-.38h.378l.192-.572c.253.063.507.125.76.192.062-.125.125-.254.191-.38l.948.193v.38c.485-.295 1.308-1.184 1.899-.764h.378v.38h.191v-.38c.912-.05.917-.134 1.708 0 .063-.318.125-.635.192-.952.876-.165 1.539-.165 2.086 0v-.38h1.138v.192h.57v.192c.191-.062.378-.125.569-.192V5.57c-.218-.219-.075 0-.191-.38.623.014.56.242.947 0l.192-.38 1.138.38v.38c.512 0 1.077.063 1.33-.192V5l.378.192V5c.378-.062.761-.125 1.139-.192.178.116-.067.273.191.192l.191-.38c.241 0 .485.34.948.193V4.62c.316-.063.631-.125.947-.193l-.191.572h.191c.423.46.356.268.948.192-.023.604-.37.358.191.572.084.474.173.702.191 1.336-.525.139-.422.054-.569.572h-.191v.952c-.454.089-.596.219-.948.38V8.43h-.191c-.28 1.067-.329.393-.948.764v.192l-.76.572c.062-.193.124-.38.191-.572h-.191c-.116.304-.169.45-.191.951-.717.152-1.063.371-2.087.38v-.38h-.378v.38h-.947v.192h.191c-.12.273-.222.143-.378.38h-.378l.191-.38h-.191c-.187.26-.111.375-.569.38 0 0-.134-.273-.378-.192-.062.125-.125.254-.192.38h-.378l-.191 1.143-.76.192v-.764h-.378c-.138.613-.259.693-.948.764l.191-.572h-.191c-.071.22-.053.68-.378.572l-.191-.572a28.93 28.93 0 0 0-.57.193v.38c-.302-.117-.449-.17-.947-.193v-.572h-.191v.572c.218.22.075 0 .191.38-.445.063-.885.125-1.33.192v.38c-.672.072-.578.237-1.139.38v.572c-.462-.108-.418-.202-.76-.38v.38h-.191v.571h.191v-.38h.378v.38c.316-.062.631-.125.947-.192v.572h.378v-.572c.316.063.632.125.948.192.089-.455.218-.598.378-.951.618.004 1.37-.085 1.708.192h.191c.062-.125.125-.255.191-.38h.378v-.192h.378v-.192l.379.192v-.192h1.899a31.95 31.95 0 0 0-.191-.572h.378v-.192h.191V13l.569.192c.014.268.045.054-.191.192.214.201 0 .085.378.192v-.192h.191v-.572h.192c.164-.263.142-.33.191-.764.449-.022.48-.058.76-.192v.193h.192v.191l-.192.38h.57v-.38c.445-.062.885-.124 1.33-.191v.191h.191c.213-.151-.071-.25.191-.191v.191h.761v.38h.191c.062-.38.125-.764.191-1.143h.378v.38h.192v-.572c.436.017.493.16.76.192l.192-.38s.52.178.76.192v-.38l.191.192c.254-.062.507-.125.761-.192v.192h.947v-.572h.378v.193h.192v-.193l.378.193.191-.572c.503-.188.396.415.761.38v-.193c.831-.196 1.045-.469 1.899-.572v.193h-.191c-.361.165.378.192.378.192.16.214-.022.026.191.192v-.38l.947-.192c.063-.125.125-.255.192-.38l.191.192c1.125.072 1.272-.397 1.899-.764v.572h.191c.218-.219 0-.076.379-.192v-.38c.191.063.378.125.569.192l.191-.38h.761v-.19h.191c.116.455.062.352.378.571V8.44c.996-.161.841-.023 1.708.38.098-.447.276-.716.569-.952.218.219 0 .076.378.192v-.38h.57V7.3c.316.063.631.125.947.192v.38h.378V7.3c.414.027.632.192.761.192V7.3l.569-.192c.062.125.125.255.191.38.605.179 1.513-.398 1.9-.572l-.192-.572h.57c.115.456.062.353.378.572.16.214-.022.027.191.192.013-.5.076-.648.191-.952.378-.062.761-.125 1.139-.192.16.215-.022.027.191.192-.146.193-.231.188-.378.38h.57l-.192-.572.192-.192c.28.09.302.22.76.192v-.192h.191v.192c.254.063.507.125.761.192v.193c.774.295 1.125-.139 1.517.192.591.393.089.245.378.764l.378.192v.38h.191c.174.259.142.335.191.764l-.76-.193c.151.617.351.657.378 1.524-.214.16-.027-.022-.191.192h-.192c-.057-.572-.026-.518-.378-.764v.192h.191c-.124.255-.253.51-.378.764-.493.01-.653.04-.947.192v.192c-.325.112-.329-.178-.378-.192-.681-.174-1.112.242-1.33.572h-.191c-.063.38-.125.764-.191 1.144h-.378l-.192-.38c-.253.063-.507.125-.76.192.04.451.08.474.191.764-.441-.018-.485-.152-.761-.192l-.191.38c-.254.062-.507.125-.761.192-.137.527-.053.424-.569.572-.667.603-1.228-.241-1.33-.192v.192l-.947.572c.102.665.187.353 0 .951h.191v-.192h.761v.38l.569-.192v-.192l.569.192v-.572c.192.063.378.125.57.192v-.192l-.192-.192h1.139c.062.192.125.38.191.572.125-.063.378-.38.378-.38.192.063.378.125.57.192v-.192c.28-.147.315-.143.76-.192v-.38h.378v-.38h.761v.38c.427-.049.503-.018.761-.192v-.192h.378v-.192h.378v-.192c.338-.273.453-.43.947-.572v.572h.761c.062-.317.124-.635.191-.952h.378c-.062.192-.125.38-.191.572h.191c.271-.273 1.059-.487 1.517-.572v-.38c.253-.062.507-.125.76-.192v-.572h.378v.572h.378v-.572h.948c-.062.192-.125.38-.191.572h.378c.195-.219.351-.366.76-.38v.193h.192l.191-.193c.178-.344.262-.299.378-.764l.569-.192v-.192l.191.192.57-.192v.572h.378c.04-.451.08-.474.191-.764l.378.192v-.192c.272-.237.294-.527.57-.764.057.09.387.693.569.572l.191-.572a410.09 410.09 0 0 0 2.469-.192v.192c-.525.139-.423.054-.57.572.472-.085.699-.174 1.33-.192v-.192h-.191v-.952c.316.063.632.125.947.192.063-.192.125-.38.192-.572.218.22.075 0 .191.38l.569.192v-.192c.392-.214.343-.295.948-.38v-.571c.404-.023.649-.197.76-.193l.192.193v-.38l.947-.192v.38c.125-.063.253-.126.378-.193V7.1c.302-.036.236.33.378.38h.761c.062-.317.124-.634.191-.952.316.063.632.125.947.192l.192-.38h.191v.193c.191-.063.378-.125.569-.192v-.38c.218.219.076 0 .192.38h.378c.089-.456.218-.599.378-.952.631.009 1.708.192 1.708.192v-.192h.378v-.192h.569c.062-.125.125-.255.191-.38.192.063.378.125.57.192V5.2h.947v-.38l.761-.191v.38h.378c.12.522.249.433.378.95h.569c.138.528.054.425.569.573v.38c-1.134.232-.982.764-1.329 1.715h1.138l.191-.764c.792-.12.539-.187 1.33-.38v.38c.899-.38.765-.38 1.517 0v-.38c.254-.062.507-.125.761-.192v-.38h.378v.193h.191v-.192c.431-.085.512.098.761.192v-.192h-.192c-.351-.184.378-.193.378-.193v-.38h.378v-.38c.597.113.846.31 1.517.38l.192-.571s-.405-.031-.192-.192h.378v.192h1.139v-.572c.605.125.374.281.569.38.316-.032.352-.376.378-.38.365-.103.263.125.378.192h.192v-.192c.253.063.507.125.76.192.138-.527.054-.424.57-.572v.38h.76c.178-.344.263-.3.378-.764l.57.192v-.192c.124-.063.253-.125.378-.192v.38h.378l-.191-.572c.453-.09.596-.22.947-.38v.764c.987-.26.676-.42 1.899-.192v-.572h.57v.192c-.081.112-.312.027-.192.38h.192c.306-1.18.404-.322 1.138-.764.432-.26-.013-.702.948-.952v.192l.569-.192v.38h.191v-.38c.672.072.578.237 1.139.38v.38c.178.3 1.357.353.761.951h.378V5l-.378.192c-.009.063.177.425.191.764h.378c-.089.456-.218.6-.378.952-.338.018-.685.201-.761.192v-.192h-.76V7.1l-1.139.192v.38c-.254.125-.507.255-.761.38V7.86h-.191v.572l-1.33.38c.218.218 0 .075.378.191v.193c.334.156.61-.112.761-.193V8.81h.569v-.38c.885-.044 1.081-.276 1.708-.571v-.192h1.33v.192h-.191c-.218.219 0 .076-.378.192v.38c.774-.224.2-.175.569-.572l.378.192v-.192h.378v-.192h.57c.2-.117.471-.943.947-.764v.192h.378v-.572c.191.062.378.125.569.192v-.192c.378-.063.761-.125 1.139-.192v.38h.378c.062.192.125.38.191.571h.192v-.38h.378c.111-.71.111-.437 0-1.143.057.022 1.828.415 1.899.38v-.192h.191v-.764h.191c.387.348.863.053 1.517 0v-.38c.383.107.165-.023.378.192.699-.201.521-.384.948-.764v-.192c.48-.3 1.499-.014 2.277 0 .12-.523.249-.434.378-.952.814-.031.649-.12 1.139-.38v.572h.76c.04-.45.08-.473.192-.764l.569.192.191-.38h.378v-.191c.191-.063.378-.126.57-.193l.191.572c.48-.388.08-.46.947-.572v.193c-.218.174-.222.138-.378.38h.191v.191c.396-.21.338-.308.948-.38.16.215-.022.027.191.193-.222.362-.16.183-.569.38v.192h.378c-.062.38-.125.764-.191 1.143h.191v.192h-.191v.38c.062.447.124.89.191 1.336h-.191c-.161.22-.098.268-.379.38V6.33h-.191c-.124.192-.253.38-.378.572h-.569l-.191.38c-.254.062-.507.124-.761.191-.062.193-.125.38-.191.572l-.57.192-.191.38h-.191v-.192c-.698-.165-.916.648-1.33.192v.38h-.378c.062.255.124.51.191.764h-.191c-.214.326-.12.26-.569.38-.018-.04-.272-.693-.379-.572v.192l-.378.192c-.062.192-.124.38-.191.572h-.569c-.636.313-.249.505-1.33.572.062.192.124.38.191.572.254-.063.507-.125.761-.192v.572h.191v-.193h.761c.578-.219.845-.531 1.708-.571v-.38c.538-.12.502-.353.569-.38h.761v.192l.76-.192s.085.237.378.192v-.192l.761.192v-.192c.218-.219.075 0 .191-.38h-.191v.192c-.165.362-.192-.38-.192-.38.694.063 1.393.126 2.087.193l.191-.38c.191-.058.347.295.76.192V9.77h.948v.192h.191V9.77h.761l.191-.572h.191l-.191-.38h.569c.218.22 0 .076.378.192v-.38c.454.09.596.22.948.38v-.19h-.192c-.351-.183.379-.192.379-.192v.192c.218.22.075 0 .191.38.405-.022.645-.192.76-.192V9.2h.379c.053-.34.191-.38.191-.38a42.6 42.6 0 0 0-.191-.572h.191v-.192c.538.242.783.492 1.516.572v-.38c1.108-.254.107-.482 1.139 0v-.764h.191v.193c.254-.193.508-.38.761-.572v.764h.191c.094-.09-.053-.309.192-.192v.192h.191s-.054.683.191.38v-.193c.218-.219.076 0 .191-.38h-.569c.147-.571.116-.5.761-.571v.192l.569-.192v.192h.569v.192c.49.103 1.041-.594 1.33-.764l.57.192v-.192c.315-.206.315-.26.76-.38-.062.192-.124.38-.191.572h.191v.192c.191-.125.378-.255.569-.38v-.192h.379c.342-.152.413-.433.569-.764l.947.764c.116-.375.009-.464.378-.572.063.023.058.358.378.38.405-.54.169-.384.761-.192.062-.617.173-.558.378-.952.663.103.351.188.947 0v1.144h.192c.213-.326.12-.259.569-.38.356.6.703.541.761 1.524.52.022 1.374.264 1.516 0h.192v.192c.524.125 1.12.532 1.33.952v.572h.191c.262.352.44.442.569.951a28.26 28.26 0 0 1-.569-.192v.192h.191v.572h.191c.174.281.169.47.192.952-.218.219-.076 0-.192.38-.631.062-1.263.125-1.899.192v-.38c-.253.062-.507.125-.761.192v-.38c-.124.063-.253.125-.378.192-.062-.125-.124-.254-.191-.38-.004 0-.56.26-.947 0l-.192-.571c-.222-.157-.324.558-.76.38v-.193c-.218-.219-.076 0-.191-.38l-.57.193v-.193h-.191c.062-.192.125-.38.191-.571 0 0-.235-.059-.191-.38 0 0 .316-.085.191-.38h-.191c-.218.219 0 .076-.378.192-.062.192-.125.38-.191.572-.445-.053-.472-.063-.761-.192V9.78c-.32.022-.32.362-.378.38-.431.152-.765-.237-.947-.193v.193c-.645.259-.788.594-1.517.764.062-.192.124-.38.191-.572h-.378c-.28.518-.583.87-1.33.951v-.572h-.191c-.147.572-.116.5-.761.572v-.38c-.791.434-.898.39-1.899.193v-.38h-.191c-.014.737.031.786-.57.951v.193c-.182.353-.191-.38-.191-.38h-.378c-.062.125-.124.255-.191.38-.316-.063-.632-.125-.948-.193v.38h-.569v.192c-.218.22-.075 0-.191.38l-1.139.192v-.38l-1.899.193v.38h-.569v.192c-.169.357-.192-.38-.192-.38-.609.147-.409.286-1.138.38v.571c-1.121-.116-1.037-.674-2.278-.764-.004.635-.098.863-.191 1.336h-.378c.058-.165.365-.42.191-.764h-.191v.192c-.218.22-.076 0-.191.38l-1.139.192v.38c-.636-.116-1.196-.523-1.899-.192-.125.192-.254.38-.378.572-.516.152-.587-.514-.761-.572-.342-.116-.138.214-.191.38a28.193 28.193 0 0 1-.569-.192v.764h-.379l-.191.38c-.311.093-.351-.188-.378-.193-.458-.08-.494.192-.76.192v-.192a87.26 87.26 0 0 1-1.139-.192v.38c-1.259.134-1.899.165-2.847 0l-.191.572c-.356-.094-.907-.08-1.517-.192v-.193c.218-.218.076 0 .192-.38-.454.019-.472.126-.761.193v-.192c-.316-.206-.311-.273-.761-.38v-.38h-.378c-.062-.192-.124-.38-.191-.572l-1.139-.192v-.38c.152.063.596.39.948.192v-.192c-.561-.366-.463-.759-.378-1.335.253-.125.258-.3.378-.38.124.062.253.125.378.192v-.764h.191c-.062-.38-.124-.764-.191-1.144a29.854 29.854 0 0 1-.57-.192c.063.125.125.255.192.38l-.57-.192v.38h-.191c-.062.125-.124.254-.191.38h-.569c.044.442.209.116 0 .571l-.379-.192v.38c-.204.335-.191-.38-.191-.38-.316.063-.631.125-.947.192 0 0-.089-.286-.378-.192-.063.125-.125.255-.191.38h-.57c-.062.192-.124.38-.191.572-.294-.157-.841-.688-1.33-.572-.062.125-.125.254-.191.38-.365-.036-.316-.371-.378-.38h-.192v.192h-.947v.192h.378c-.062.38-.125.764-.191 1.144h-.378c-.174-.076-.125-.581-.761-.38l-.191.38h-.948v-.192c-.275-.152-.32-.134-.76-.192v.571a28.198 28.198 0 0 1-.569-.192v.192c-.218.22-.076 0-.192.38-.707.201-.511.393-.947.764v.192h-.569v-.572h-.379v.38h-.947v-.192h-.191c-.125.255-.254.51-.378.764l-.378-.192v.192l-.57.38V15.1h-.191v.192l-.569-.192v.192c-.267-.013.075-.16-.192-.192l-1.138.192v.572h-.191v-.192c-.516-.277-.93.268-1.139.38-.107-.6-.187-.8-.761-.952.107.464.2.42.378.764h-.378c-.302.281-1.116.21-1.708.192v-.38h-.378v.38c-.378-.063-.76-.125-1.138-.192-.094-.451-.178-.451-.379-.764.258-.224.187.143.379-.192-.25-.157-.223-.134-.379-.38h.379c.04-.451.08-.473.191-.764-.538-.125-.716-.353-.948-.764h.57c.124-.51.253-1.019.378-1.523-.249-.157-.223-.134-.378-.38-.405.232-.414.429-.948.572v-.38h-.191v.572c-.738.062-.854.308-1.33.572-.04-.452-.08-.474-.191-.764-.214.16-.027-.023-.191.192h-.192l.192.192-.192.572c-.805-.139-.912-.031-1.899 0l.191.572h-.191c-.156.25-.133.223-.378.38v-.765c-.965.054-.836.34-1.899.38-.143.648-.405.88-1.139.952v-.38h-.191v.192c-.165.362-.191-.38-.191-.38a26.312 26.312 0 0 1-.57-.192l.192.38h-.379c-.302.281-.467.657-.569 1.144h-.569v-.38c-1.219.045-1.526.697-2.469.952.12-.523.249-.434.378-.952-1.214.268-2.077 1.108-2.846-.192.854-.5.404-.71.191-1.524h-.761c-.16-.214.023-.026-.191-.192.058-.165.365-.42.191-.764h-.191v-.192h-.569c-.321.527-.814.384-1.139.764l-.191.572h-.57v.192c-.191.063-.378.125-.569.192v-.38c-.592.13-.863.572-1.33.764h-.76v.193a26.87 26.87 0 0 1-.57-.192v.38l-1.138.191v.193h-.761c-.062.013-.049.263-.378.192v-.193h-.378v-.192l-1.33-.192c-.138.268-.343.577-.569.764v-.764h-.192v.38a28.198 28.198 0 0 1-.569-.192c-.089.447-.316.59-.378.952h.191c.062.192.125.38.191.571-1.08.014-1.192-.2-1.899-.38-.28.519-.583.872-1.33.952v-.38h-.378v.765h-.378v.192h-1.33v.192h-.378v.192c-.124-.063-.254-.125-.378-.192v.192h-.191c-.28-.228.16-.139-.192-.38.023.603.37.357-.191.572v-.38c-1.067.13-.614.474-1.138.764h-.379c-.062.192-.124.38-.191.572h-.947v-.192c.471-.349.244-.148.191-.764h-.378v.572c-1.65.004-1.939.33-3.416.38v-.38c-.254.125-.507.255-.761.38.063.254.125.509.192.764-.494-.032-.65-.04-.948-.193v-.192l-.569.192c-.031-.004-.067-.268-.378-.192v.192h-.378v.193h-.378v.192c-.263.174-.334.134-.761.192v-.572h-.191v.192h-.948c-.129.058-.008.246-.569.38-.062.192-.124.38-.191.572h.191c.28.232-.689.187-.76.192v-.192c-.761-.125-1.517-.255-2.278-.38.102-.532.147-.018 0-.572-.204.107-.396.514-.76.38v-.192h-.192l.192-.38h-.192c-.218-.219 0-.076-.378-.192-.062-.192-.124-.38-.191-.572h.378c-.062-.192-.124-.38-.191-.572h.191v.192c.165.362.191-.38.191-.38h.192v-.192c-.125-.062-.254-.125-.379-.192.063-.192.125-.38.192-.572h-.192v-.192h.57v-.192c-.249-.156-.223-.134-.378-.38.325-.214.258-.12.378-.572l.76-.192c.023-.013.294-.706.379-.572v.38h.569c.178-.344.262-.3.378-.764-.258-.223-.289-.348-.378-.764h.378v-.38h.378v-.192c-.378.063-.761.125-1.139.193v-.193c-.249.014-.476.327-.947.193v-.193a90.201 90.201 0 0 1-1.139-.192v.764h-.378v.38c-.191-.125-.378-.255-.569-.38v-.38l-.191.193c-.218.219-.076 0-.192.38h-.76v.38c-.378-.063-.761-.126-1.139-.193-.062.317-.124.634-.191.952-.463.107-.418.196-.761.38v-.193c-.195-.165-.262-.33-.378-.572-.218.22-.075 0-.191.38-.378.063-.761.125-1.139.192v.38c-.449.04-.471.08-.76.192v-.38h.191l-.191-.571h-.192v.38c-.124-.063-.253-.126-.378-.193-.218.152-.075.451-.569.38-.062-.125-.125-.255-.191-.38h-.192v.38l-.569.192c-.098-.027-.116-.482-.378-.38-.191.255-.378.51-.569.764a28.282 28.282 0 0 1-.57-.192v.38h-.378v.38c-.213-.161-.026.022-.191-.192-.205-.175-.036.03-.191-.193h.191v-.192h-.569v.192h-.192v-.192h-.569c-.062-.125-.124-.254-.191-.38-.125.063-.254.126-.378.193-.258.076.08.205-.192.192v-.192h-.378c-.004.59.054.983.192 1.336h-.761v.38h-.191v-.572h-.378l-.191.571c-.214-.16-.027.023-.192-.192h-.191l.191-.572c-.191.063-.378.125-.569.193v.192h-.378c-.062.125-.125.254-.191.38h-.761v.191h-.191c-.094-.085.053-.308-.192-.192l-.191.38-.947.192v-.38h-.191l-.192.38h-.191l-.191-.38c-.263-.12-.534-.093-.761-.192-.013.737.031.787-.569.952v-.38h-.378v.38h-.948l-.378.952h-.378v-.193c-.062-.008-.436.17-.76.193.106-.465.2-.42.378-.764h-.378l-.192.571-1.33-.192c-.2.099-.137.43 0 .572h-.378c-.164.197-.329.264-.569.38v-.572c-.849.072-.551.12-1.33 0v.192c.218.22.076 0 .191.38h-.947c-.049-.009-.062-.246-.378-.192v.192h-.378c-.062.192-.125.38-.191.572-.214-.161-.027.022-.192-.192-.213-.161-.026.022-.191-.192.249-.157.222-.134.378-.38h-.76c-.17.2-.334.25-.57.38v.192l-.569-.192v.192c.249.156.222.134.378.38h-.378c-.223-.26-.347-.29-.761-.38v.38c-.356-.134-.743-.188-1.33-.193-.209-.397-.307-.34-.378-.951h-.378v-.38c-.213.16-.027-.022-.191.192h-.191v.38l-.378.192v.572h-.192c-.191-.255-.378-.51-.569-.764h-.191c-.249-.425.102-.532-.378-.952.062-.254.124-.51.191-.764 0 0-.245-.093-.191-.38h.191v-.951s.116 0 .191-.38c.525-.138.423-.054.57-.572h.378v.192l.569-.192v-.38l.947.193c.138-.528.054-.425.57-.572v-.764h.191l-.191-.38h.191c.16-.214-.022-.027.191-.192v-.192c.183-.353.191.38.191.38l.57.192v-.192h-.192c.063-.193.125-.38.192-.572h1.138v.192c.445-.063.886-.125 1.33-.192v-.38h.761v-.38c-.649-.009-1.312-.13-1.708-.192-.125.192-.254.38-.378.572l-1.139.192c.107-.465.2-.42.378-.764h-.76v.192h.191c.218.3-.467.179-.569.192v.572h-.192v.192c-.315.063-.631.125-.947.192.062-.317.125-.634.191-.951-.462.107-.422.196-.76.38v.192c-.378-.126-.761-.255-1.139-.38v.192c-.218.219-.076 0-.191.38-.312.058-.828.397-.948.38v-.193h-.569c-.263-.053.071-.25-.191-.192l-.192.38h-.378l.192-.38h-.192c-.218.22 0 .076-.378.192v.38c-.316.063-.631.125-.947.192-.036-.009-.062-.272-.378-.192v.192h-.378v.192c-.187-.04-.223-.514-.378-.38-.312.26.209.367-.57.572v.572h-.191v-.38h-.191c-.062.126-.125.255-.192.38h-.76c-.227-.415-.418-.63-.947-.764v.192h-.761l-.191.38-.57-.192v.572h-.378c-.467.8-.422.223-.947.572.062.125.124.255.191.38-.378-.063-.76-.126-1.139-.193-.017.005-.097.331-.378.38v-.192h-.76l-.191-.192v.192c-.539.349-.556.55-1.517.572-.214-.326-.12-.26-.57-.38v.38h-.378v-.192c-.24-.076-.498.54-.569.572-.391.174-.543-.165-.76-.192v.192c-.379.062-.761.125-1.14.192l-.19-.572c-.525.139-.423.054-.57.572-.57.062-1.138.125-1.708.192l-.191.38H90.5v.192c-.494.147-.885.018-1.33.192-.107-.465-.2-.42-.378-.764-.213.16-.027-.022-.191.192-.667.474-.045.68-.948.952v.192h-.947l-.191.38c-.423.17-.534-.237-.76-.193v.193c-.379.076-.241-.085-.379-.193h-.191v.38a28.232 28.232 0 0 1-.57-.192v-.192l-.569.192v-.192h-.76l-.192-.38c-.267 0-.089-.058-.191.192-.236-.218-.071 0-.191-.38h.76v-.38h-.76c-.178-.343-.263-.299-.378-.763h.378c-.112-.786-.205-.912-.57-1.716-.249.099.054.076-.19.192h-.57v.192c.382.108.164-.022.378.193-.543-.018-.814-.036-1.139-.193v.193c.218.218.076 0 .191.38-.93 0-1.08.218-1.707.38v-.573h-.192v.192h-.191l-.378-.192v.572h-.57v-.38h-.19v.38h.19v.572c-.631-.005-.858-.098-1.33-.192v.38c-.449-.023-.48-.058-.76-.192v.192c-.218.219-.076 0-.191.38-1.001-.112-.436-.412-1.33-.193v-.38c-.303-.044-.24.327-.378.38-.712.268-1.299.108-1.9 0v.572l-.378-.192v.192c-.382.326.018.29-.19.572h-.192c-.458-.688-1.775-.116-2.656 0v.572c-.355-.098-1.036-.684-1.33-.572v.192h-.19v.572c-.57.063-1.14.125-1.709.192v.38h.192c-.063.192-.125.38-.192.572-.449-.023-.48-.058-.76-.192v.192h-.192v-.572h-.378v.572h-.19v-.192h-.761v.192l-.379-.192v.192c-.418.13-.627.058-.947.192v.572c-.947.143-.938.17-1.708-.38l-.191.572h-.76v.192c-.254.063-.508.125-.761.192v-.38h-.378c-.116.67-.205.876-.948.952v-.192c.218-.22.076 0 .191-.38-.253-.063-.507-.125-.76-.192v-.192c-.36-.112-.263.107-.378.192l-.57-.192v.192h.192v.764h-.378v-.38c-.52.304-.343.47-1.14.572-.137.527-.052.425-.568.572-.512.607-1.108.46-1.9.38v-.38h.76a25.52 25.52 0 0 0-.19-.572c-.29.112-.312.148-.76.192-.032-.518-.063-1.148-.379-1.336v-.192c.138-.2.147.165.378-.192h-.378c-.338-.201.378-.192.378-.192-.107-.465-.2-.42-.378-.764h.57c.155.25.133.223.377.38-.462-1.001-.698-1.926.948-1.908.218.219 0 .076.378.192.062-.317.124-.634.191-.951h-.378v.38h-.378l.191-.573h-.191c-.142.362.133.197-.191.38-.25-.223.227-.29-.192-.38v.38l-.378-.192v.192h.192c-.125.255-.254.51-.378.764h-.192v-.572h-.19v.192h-.57c-.125.192-.254.38-.378.572h-.378v.192h-.57v.193h-.378v.192c-.765.272-1.339-.264-1.708 0-.516.335-.6 1.054-.76 1.143h-1.708c-.218-.219 0-.076-.379-.192v-.38h-.19c.062.255.124.51.19.764h-.19c-.361.313-1.006.201-1.517.38v.192c-.28.09-.743-.205-.761-.192v.38h-.947c-.192.447-.379.889-.57 1.336h-.191v-.572h-.378c-.04.451-.08.474-.191.764-.214-.16-.027.022-.192-.192-.218-.22-.075 0-.191-.38.325-.214.258-.12.378-.572h-.57v1.144c-.315-.063-.63-.125-.947-.192v-.192c.218-.22.076 0 .192-.38h-.378l.19-.38h-.19c-.218.22 0 .076-.378.192-.05.371-.187.371-.192.38-.302.938.17 1.22-.947 1.336v-.38c-.263.094-.418.076-.76.192v.192a27.409 27.409 0 0 1-.57-.192v.192h-.378l.191.38h-1.139v.192c.218.22.076 0 .192.38-.307-.013-1.33-.192-1.33-.192-.063.125-.125.255-.191.38-.516.281-.605.049-.948 0v.192h-.378l-.191.38c-.316.062-.632.125-.948.192v.192a47.284 47.284 0 0 1-.76-.192 70.63 70.63 0 0 0-.948.192v.192c-.564.16-.769-.304-1.138-.38v.192c-.218.22-.076 0-.192.38h-.76l-.191-.192c-.098.044-.054.34-.378.38v-.193l-.57-.192v.192c-.191.063-.378.126-.57.193v-.38c-.342.179-.297.263-.76.38v.38h-.191v-.573c-1.067-.013-1.881-.455-2.277-1.143l.378-.192c.013-.268-.187.08-.192-.192.063-.318.125-.635.192-.952h.378c-.418-1.189.467-1.85.57-3.052a11.385 11.385 0 0 1 2.085-.192v-.572h.57c.129-.558.209-.625.76-.763v-.38c1.108-.255.107-.483 1.139 0v-.38c.422-.08.65-.183.947-.38v-.192c.378-.036.134.29.378 0 .218-.219.076 0 .192-.38h.378c.218-.773.387-.38.76-.951.378.125.76.254 1.139.38v-.193h.191v-.764c-1.09.023-1.392.157-2.277 0-.107.6-.187.8-.76.952v-.38h-.379v.572c-.387.206-.747.563-1.33.572l-.191-.192c-.685.518.062.889-1.33.951l.191-.764h-.378v.193h.192c.013.067-.325.688-.378.951h-.379v-.38h-.378v.38l-.191-.192c-.378.125-.76.255-1.139.38-.062.125-.124.255-.19.38-.25.107.04-.143-.192-.192-.191.062-.378.125-.57.192v-.192h-.569v-.193h-.191v.193s-.525-.175-.76-.193c-.125.318-.254.635-.379.952-.164-.058-.418-.366-.76-.192v.192h-.192v.572h-.19v-.572h-.192v.764c.031.268.2-.08.191.192l-.191.192c-.33-.165-.067-.022-.191-.38h-.192v.38l-.947.192.191-.38h-.191c-.294.331-.342.188-.76.38v.192c-.28.108-.726.05-.761-.192h-.191v.572h-.192v-.192h-.191v.38h-.378v.38c-.48-.152-1.174-.014-2.086 0-.062.446-.125.889-.191 1.335h-.379v-.38c-.289.112-.31.148-.76.193v.572c-.378.125-.76.254-1.139.38v.192H9.62v.192c-.93.353-1.147-.295-1.708.572H7.72l.191.192c-.062.192-.124.38-.191.572a49.709 49.709 0 0 1-.76-.193v.572c-.672.072-.579.237-1.14.38v-.38h-.19v.572c-.379.063-.761.125-1.14.192l-.19.572h-.38a31.9 31.9 0 0 1-.19.572h-.192v-.572h-.191l-.192.38-.569-.192v-.192c-.37-.094-.254.107-.378.192l-.76-.192.19-.192v-.192h-.19v-.572h.19v-.192h-.377c-.005-.635-.098-.863-.192-1.336H.692c-.338-.201.378-.193.378-.193.063-.192.125-.38.192-.571.978.044.938.362.947-.764.316-.063.632-.125.947-.192v-.764l.57-.193c.218-.219 0-.076.378-.192v.38h.378v-.38c.191.063.378.125.57.192v-.38H4.86l.191-.571h.191v-.192h.57c-.005-.268.04-.054-.192-.192v-.193h.57v-.192h.191l.191.38c.632.125 1.264.255 1.9.38.017-.715.173-.876.378-1.336.19.063.378.125.569.192v-.38h.57l-.192.38h.191v-.192h.378c.21-.165.085-.46.379-.572.169.17.07.322.378.38.124-.192.253-.38.378-.572h.569v-.192h.191v-.764h.378v.38c.81-.076.859-.393 1.517-.572.151-.617.351-.657.378-1.524h1.708v.193l.57-.193v-.192c.284-.076.257.34.377.38l.57-.192v.38h.191v-.38c.214-.16.027.022.191-.192l-.378.192v-.764h.192v-.764h.947l-.191.572h.57c.302-.371.689-.51.946-.952.196.165.263.33.379.572.19-.125.378-.255.569-.38v-.192h.378l.191-.38c.125.063.254.125.378.192.254-.192-.231-.321.192-.38v.193c.19.062.378.125.569.192v-.38c-.218-.219-.076 0-.191-.38.489.09.84.184 1.516.193.272-.407.498-.385.948-.572l-.191-.572h.76v-.192h.191v.192h.378v-.38c1.077-.031.708-.295 1.33-.572h.76v-.192c.219-.219.076 0 .192-.38h.57v.38h.378c.155-.612.222-.554.947-.572v.38c.445-.205.618-.438 1.139-.572v-.572h.378v-.38c1 .005 1.499-.223 2.277-.38.138.528.053.425.57.573-.063-.192-.125-.38-.192-.572h.191c.21-.268.663-.559.948-.764V9.53h.57v.192h.19v.572h.192c.062-.76.195-.88.947-.952v.192c.254.09-.071-.12.191-.192.76-.125 1.517-.255 2.278-.38-.192-.594-.107-.29 0-.951.462-.108.418-.197.76-.38v.192h.192c.15.281-.192.38-.192.38l.192.38c.435-.367.24-.572.947-.764.062-.193.124-.38.191-.572.543.223.894.362 1.708.38.191-.38.378-.765.57-1.144h.377l.192.38 1.33-.38V6.29h1.33l.191-.38h.378c.12-.523.25-.434.378-.952.254.063.507.125.76.192v-.19c.21-.17.04.031.192-.192h-.191c-.187-.317.271-.16.378-.192v-.192c.191.062.378.125.57.192-.063.125-.125.255-.192.38h.191c.596-.688 1.117 0 1.9.192.128-.25.235-.206.377-.38l-.19-.38h.377v-.192l.378-.192c.027-.268-.04.031-.19-.192l.19-.38c.64.134.73.416 1.33.572v-.572c.52.12.432.25.948.38V3.24c.209.063.373.34.76.192V3.24h.57v-.192c.378-.317.76-.634 1.138-.952v-.38h.378v.193c.263.053-.035-.04.191-.192l.379.192-.192.572c1.059.08 1.597.34 2.278-.38-.374-.215-.445-.268-.57-.764l.57-.192c.062.125.124.254.191.38h.378V.758c.414.08.543.126.76.38l1.14-.38L63.3.38h.947V0l.094.045Zm-1.895 2.859v.38h.191v-.38h-.191Zm169.088.38v.38h.191v-.38h-.191Zm-168.519.572v.38h.192v-.38h-.192Zm-2.655.38v.38h.191v-.38h-.191Zm166.428.571c.218.22 0 .076.378.192-.218-.219 0-.076-.378-.192ZM211.799 5c.218.22 0 .076.378.192-.218-.218 0-.075-.378-.192Zm-159.978.572c.018.648 0 .693.378.952V6.33h-.191v-.764h-.192l.005.004Zm157.131.192c.218.22 0 .076.379.192-.218-.218 0-.076-.379-.192Zm-20.687.188v.38h.191v-.38h-.191Zm13.286.192-.191.38s.551-.304.378-.38h-.191.004Zm19.544 0h.378c-.16.215.023.027-.191.192v.192c-.218-.219-.076 0-.191-.38l.004-.004Zm-167.949.192c.218.22 0 .076.379.192-.218-.219 0-.076-.379-.192Zm106.466.188v.38h.191v-.38h-.191Zm-104.375.764v.192h-.191c-.36.165.378.192.378.192.16-.214-.022-.027.191-.192-.218-.219 0-.076-.378-.192Zm145.745 0v.192h-.192c-.36.165.379.192.379.192.16-.214-.023-.027.191-.192-.218-.219 0-.076-.378-.192Zm48.58 0v.192h-.191c-.361.165.378.192.378.192.16-.214-.023-.027.191-.192-.218-.219 0-.076-.378-.192Zm-127.148.192v.38h.191v-.38h-.191Zm-46.872.188v.38h.191v-.38h-.191Zm48.58 0v.38h.191v-.38h-.191Zm35.107 0c.32.41.378.38.378.38.138-.184-.329-.336-.378-.38Zm48.585 0c.32.41.378.38.378.38.138-.184-.329-.336-.378-.38Zm13.472 0v.38h.192v-.38h-.192Zm35.108 0c.32.41.378.38.378.38.138-.184-.329-.336-.378-.38ZM48.022 8.05h-.378v.192h.192v.192h.19v-.38l-.004-.004Zm2.47 1.144h.377c-.062-.255-.124-.51-.191-.764h-.191v.764h.004Zm145.744 0h.378l-.191-.764h-.192v.764h.005Zm48.58 0h.378l-.191-.764h-.192v.764h.005ZM48.405 8.81v.764h.191V8.81h-.191Zm48.58 0v.764h.191V8.81h-.19Zm97.165 0v.764h.191V8.81h-.191Zm28.084.385v.571h.191a1.87 1.87 0 0 1 .761-.764V8.81h-.378c-.214.326-.12.26-.57.38l-.004.005Zm20.496-.385v.764h.191V8.81h-.191Zm-108.738.192v.38h.191v-.38h-.191Zm48.58.38h.378V9.19c-.214-.16-.027.022-.191-.192h-.192v.38l.005.004ZM76.489 9.195v.571h.191v-.571h-.19Zm48.58 0v.571h.192v-.571h-.192Zm83.123.76c.138.526.053.424.569.57.12-.522.249-.432.378-.95h-.191c-.24.361-.191.317-.761.38h.005Zm1.708-.38v.38c.498-.014.645-.077.947-.193V9.57h-.947v.004Zm-100.198.191v.572h.191v-.192c.213-.16.027.022.191-.192l-.378-.192-.004.004Zm48.58 0v.572h.191v-.192c.214-.16.027.022.191-.192l-.378-.192-.004.004Zm48.58 0v.572h.191v-.192c.214-.16.027.022.191-.192l-.378-.192-.004.004Zm48.584 0v.572h.192v-.192c.213-.16.026.022.191-.192l-.378-.192-.005.004Zm-121.645.188v.38h.191v-.38h-.191Zm88.055 0c.32.411.378.38.378.38.138-.183-.329-.335-.378-.38Zm-100.39.384v.572h-.378v.38l.378-.192.192-.572c.213-.16.026.022.191-.192h-.378l-.005.004Zm7.971 0v.38h.191v-.38h-.191Zm48.58 0v.38h.191v-.38h-.191Zm29.797.38h-.57v.38h.379c.177-.344.262-.3.378-.764h-.192v.38l.005.004Zm18.783-.38v.38h.192v-.38h-.192Zm-120.881.76v-.38c-.213.16-.026-.022-.191.192h-.191c.218.22 0 .076.378.192l.004-.004Zm48.011-.38v.572h.191c.218-.219 0-.076.378-.192v-.38h-.569Zm26.946.38v-.38h-.57v.192h.192c.218.22-.001.076.378.192v-.004Zm22.204 0v-.38c-.214.16-.027-.022-.192.192h-.191c.218.22 0 .076.378.192l.005-.004Zm14.994-.38v.38c.213-.161.026.022.191-.192h.191c-.218-.22 0-.076-.378-.192l-.004.004Zm26.945.192v.38h.191v-.38h-.191Zm-125.627.76h.378c-.16-.215.022-.027-.191-.192v-.38h-.191v.572h.004Zm-53.517-.38v.38h.191v-.38h-.191Zm48.584 0v.572h.192v-.572h-.192Zm97.161 0v.38h.191v-.38h-.191Zm37.006 0c.218.219.076 0 .191.38h-.191v-.38Zm11.578 0v.38h.191v-.38h-.191Zm-220.897.192v.38h.192v-.38h-.192Zm48.58 0v.38h.192v-.38h-.192Zm97.165 0v.38h.191v-.38h-.191Zm48.58 0v.38h.192v-.38h-.192Zm-133.975.188c.018.04.271.692.378.572v-.193h.191c-.164-.196-.33-.263-.57-.38Zm48.958.956h.378v-.38h-.378l.191-.38a28.839 28.839 0 0 1-.569-.192v.192c.258.224.289.349.378.764v-.004Zm-50.097-.764.191.572h.192c-.116-.456-.063-.353-.378-.572h-.005Zm48.58 0c.062.192.125.38.191.572h.192c-.116-.456-.063-.353-.378-.572h-.005Zm3.607 0h-.378c.16.214-.022.027.192.192v.192h.191v-.38l-.005-.004Zm74.961.764h.378v-.38h.191c-.062-.125-.124-.255-.191-.38-.213.161-.026-.022-.191.192h-.191v.572l.004-.004Zm-158.461-.572c.218.219 0 .076.378.192-.218-.219 0-.076-.378-.192Zm32.26 0v.572h.192v-.572h-.192Zm48.58 0v.572h.192v-.572h-.192Zm3.608 0h-.378c.16.214-.022.027.191.192v.192h.191v-.38l-.004-.004Zm22.013 0v.572h.191v-.572h-.191Zm48.584 0v.572h.191v-.572h-.191Zm-192.052.188v.38h.191v-.38h-.191Zm8.918 0v.38h.191v-.38h-.19Zm48.585 0v.38h.19v-.38h-.19Zm12.712.384v-.38c-.214.16-.027-.022-.191.192h-.192c.218.22 0 .076.378.192l.005-.004Zm35.868-.384v.38h.191v-.38h-.191Zm14.611 0v1.143h.191v-1.143h-.191Zm24.29 0v.38h.192v-.38h-.192Zm.761 0v.38h.191v-.38h-.191Zm8.918 0v.38h.191v-.38h-.191Zm38.906 0v.38h.191v-.38h-.191Zm.76 0v.38h.192v-.38h-.192Zm8.918 0v.38h.192v-.38h-.192Zm-199.07.192c.218.219 0 .076.378.192-.218-.22 0-.076-.378-.192Zm48.58 0c.218.219 0 .076.378.192-.218-.22 0-.076-.378-.192Zm145.745 0c.217.219 0 .076.378.192-.218-.22 0-.076-.378-.192Zm-132.273.38.192.571h.191c-.116-.455-.062-.353-.378-.572h-.004Zm48.585 0c.062.191.125.38.191.571h.192c-.116-.455-.063-.353-.378-.572h-.005Zm12.334.192v.38h.191v-.38h-.191Zm-119.938.951c-.138-.527-.053-.424-.57-.572.063.255.125.51.192.764h.57v.192c.266.036-.072-.134.19-.192h.761v-.764c-.213-.16-.026.023-.191-.192h-.378v.192h.191c.063.344-.471.5-.76.572h-.005Zm24.673-.76-.192.38s.552-.303.379-.38h-.192.005Zm145.745 0-.192.38s.552-.303.378-.38h-.191.005Zm-178.197.952h.378v-.192c-.214-.16-.027.022-.191-.192h-.192v.38l.005.004Zm6.64-.38v.38c.214-.16.027.023.192-.192h.191c-.218-.219 0-.076-.378-.192l-.005.005Zm41.94.38h.378v-.192c-.214-.16-.027.022-.191-.192H78v.38l.005.004Zm6.645-.38v.38c.214-.16.027.023.191-.192h.192c-.218-.219 0-.076-.379-.192l-.004.005Zm48.58 0v.38c.214-.16.027.023.191-.192h.192c-.218-.219 0-.076-.378-.192l-.005.005Zm90.524.38h.378v-.192c-.213-.16-.027.022-.191-.192h-.191v.38l.004.004Zm6.641-.38v.38c.213-.16.026.023.191-.192h.191c-.218-.219 0-.076-.378-.192l-.004.005ZM33.033 14.914v-.38l-.57.193.192.764h-.191v.192c-.445.062-.886.125-1.33.192v.38c.249.035 1.178.232 1.33.192l.19-.38.57.192c.063-.317.125-.634.192-.952h.19c.219-.218 0-.075.379-.192v.38h.947v-.38h.378c-.124-.38-.253-.764-.378-1.144h-.191l-.191.572c-.272.193-1.094.344-1.517.38v-.009Zm21.443-.956v.572h.192v-.572h-.192Zm-25.428.384v.38h.19v-.38h-.19Zm29.605 0v.38h.191v-.38h-.191Zm18.975 0v.38h.191v-.38h-.191Zm48.58 0v.38h.191v-.38h-.191Zm56.364 0c.218.22 0 .076.378.193-.218-.22 0-.076-.378-.193Zm21.826 0v.38h.191v-.38h-.191Zm18.975 0v.38h.191v-.38h-.191Zm-172.504.188c.218.219.076 0 .191.38h-.19v-.38Zm48.393.192c.214.326.12.26.57.38-.165-.197-.33-.264-.57-.38Zm21.635.38h.378v-.192c-.213-.161-.027.022-.191-.192h-.191v.38l.004.004Zm-70.406-.188h.378v.192c-.382-.107-.164.023-.378-.192Zm52.948 0c.218.22.076 0 .191.38h-.191v-.38Zm51.049.76h-.378v-.764h-.192v.192c-.218.219-.075 0-.191.38.191.125.378.254.569.38.161.214-.022.026.192.191v-.38Zm-52.757-.572v.38h.191v-.38h-.191Zm-62.248.384v.38h.19v-.38h-.19Zm48.584 0v.38h.191v-.38h-.191Zm41.939.188c.218.219 0 .076.378.192-.218-.219 0-.076-.378-.192Zm-67.372.572v-.38c-.214.16-.027-.023-.191.192h-.192c.218.219 0 .076.378.192l.005-.004Zm97.165 0v-.38c-.214.16-.027-.023-.192.192h-.191c.218.219 0 .076.378.192l.005-.004Zm-114.054.384v.38h.191v-.38h-.19Zm3.799 0v.38h.19v-.38h-.19Zm-14.234.188v.38h.192v-.38h-.192Zm15.181.384c-.009.773-.089.822.378 1.143v-.192c-.32-.41.147-.92.378-1.335h-.191c-.213.326-.12.259-.57.38l.005.004Zm3.416-.384c.218.218 0 .075.378.192-.218-.22 0-.076-.378-.192Zm9.866 0a28.2 28.2 0 0 1-.192.571h.192v-.192c.08-.111.31-.027.19-.38h-.19Zm20.117 0v.38h.192v-.38h-.191Zm63.766.384c-.009.773-.089.822.378 1.143v-.192c-.32-.41.147-.92.378-1.335h-.191c-.214.326-.12.259-.57.38l.005.004Zm3.416-.384c.218.218 0 .075.378.192-.218-.22 0-.076-.378-.192Zm-84.83.192v.38h.19v-.38h-.19Zm21.256.38h.378v-.193c-.214-.16-.027.023-.192-.192h-.19v.38l.004.004Zm27.328-.38v.38h.191v-.38h-.191Zm16.888 0c.218.218.076 0 .192.38h-.192v-.38Zm-41.752.192c-.062.125-.125.254-.191.38l.378.192c.138-.228-.4-.166 0-.572h-.192.005Zm-23.343.187-.191.572h.191v-.38h.191v-.192h-.19Zm48.585 0-.191.38s.551-.304.378-.38h-.192.005Zm-99.633.764h.378v-.192c-.214-.16-.027.023-.192-.192h-.191v.38l.004.004Zm106.843 0h-.378c.16.215-.022.027.191.192v.193h.191v-.38l-.004-.005Zm-100.39.38v.38h.192v-.38h-.192Zm27.328 0v.764h.192v-.192h.19c-.061-.125-.124-.255-.19-.38h.19c-.217-.219 0-.076-.377-.192h-.005Zm69.837 0v.38h.191v-.38h-.191Zm28.653 0c-.217.22.001.076-.378.192v.192h.378c.063-.125.125-.254.192-.38h-.192v-.004Zm-88.433.572-.191.38s.551-.304.378-.38h-.191.004Zm-7.21.384v.38h.191v-.38h-.19Zm4.177 0v.38h.19v-.38h-.19Zm-8.923.38h.378c-.156.25-.133.223-.378.38v.192h-.191l.191-.572Zm6.645 0-.191.38s.552-.304.378-.38h-.191.004Zm-14.615.764v.38h.19v-.38h-.19Zm-14.612.952v.38h.191v-.38h-.191Zm4.177.192v.572h.76v.38h.57c.155-.25.133-.224.378-.38v-.572c-.792.138-.797.049-1.708 0Zm-15.372.38c.218.218 0 .075.378.192-.218-.22 0-.076-.378-.192Zm39.284.192v.38h.19v-.38h-.19ZM5.892 25.395c-.062.192-.125.38-.191.571h.19v-.38h.192v-.191h-.191Zm24.481.192v.38h.191v-.38h-.19Z" fill="#FDE6AD"/></svg>