<svg width="85" height="261" fill="none" xmlns="http://www.w3.org/2000/svg"><path d="M72.656 247.937c-8.057-.931-1.536-8.25-5.178-15.339 0 0-4.464-3.471-5.71-.423-.944 2.323-2.371 11.274-2.916 17.407 4.658 2.093 10.054 1.355 13.792-1.645h.012Z" fill="#FFDBB0"/><path d="M72.717 247.949h-.06c-3.751 3.012-9.135 3.738-13.792 1.645-.17 1.912-.254 3.557-.206 4.646.194 4.548 14.977 5.31 21.643 1.79 7.658-4.04 5.71-6.617-7.585-8.081Z" fill="#003F67"/><path d="M15.578 244.55c.835-4.101.654-9.605.81-13.585 4.042-2.807 6.981-2.698 7.006 5.504.024 8.189.846 12.484 5.661 15.29.049.025.085.049.134.073-5.01-.448-10.211-3.266-13.61-7.282Z" fill="#FFDBB0"/><path d="M15.576 244.55c3.4 4.016 8.601 6.835 13.61 7.282 4.754 2.782 8.783 6.17 5.48 7.67-3.339 1.512-7.9 1.016-12.074-1.428-4.173-2.443-10.259-6.278-8.154-10.137.508-.932.871-2.093 1.138-3.387Z" fill="#003F67"/><path d="M62.339 106.476c.302 1.73 3.665 47.456 4.972 51.932 1.307 4.476 5.468 82.961 5.468 84.316 0 3.254-4.657 2.758-8.662 3.072-4.524.351-7.755-.339-8.54-2.939-1.973-6.557-13.224-87.703-13.37-90.292-.144-2.588-1.16-5.201-1.596-.06-.436 5.141-11.747 83.602-12.243 90.073-.266 3.424-3.496 2.65-6.8 2.129-4.403-.677-8.129-1.028-8.274-5.334-.266-7.875-.63-57.993-.4-62.287.279-5.19 3.388-68.239 4.973-70.961 1.573-2.709 44.484.339 44.484.339l-.012.012Z" fill="#A2A2A2"/><path d="M35.977 30.108c.278 0 3.944.424 4.294.4.121.629.484 2.951.811 3.738.327.786 2.698 5.274 3.024 5.673-4.185 3.556-9.835 2.855-12.436-.593.75-.363 3.133-4.427 3.508-5.94.266-1.1.787-2.854.799-3.278Z" fill="#FFDBB0"/><path d="M49.72 37.995c-2.88-.725-6.121-.919-7.029.23-1.488 1.9-8.892.774-10.15.158-1.258-.63-7.573.06-9.497 1.173-.363.145-.907.436-1.536.847-.448 10.306.87 20.686-1.04 30.944.132.859-.11 3.447-.315 5.044-.327 2.589-1.96 24.351-3.061 28.803-1.113 4.439-1.15 5.734.629 5.335 1.79-.412 3.121-1.537 5.843-1.561 2.71-.024 21.414 1.73 24.378 1.536 2.952-.205 13.634 1.125 13.682-.169.037-1.004-1.476-21.194-3.266-31.573-2.432-14.02-5.964-27.545-8.626-40.742l-.012-.025Z" fill="#fff"/><path d="M62.423 89.492c2.056-1.5 6.158-1.246 12.98-7.9 7.683-7.476 5.675-17.504.884-23.94-3.29-4.427-9.255-11.008-19.466-17.37-2.31-1.44-9.533-5.25-14.106-2.795-.883.472 5.553 25.476 6.013 30.738-.726 28.488 5.553 53.783 7.065 57.436 2.492 3.533 2.36 8.686 4.694 9.242 2.335.557 8.795.496 9.836-1.222 1.355-2.262 2.165-13.234-2.553-24.157-2.601-6.024-7.053-18.775-5.347-20.032ZM31.39 38.093c-1.257-.63-7.572.06-9.496 1.173-1.5.58-5.795 3.677-8.529 7.125-2.722 3.436-8.106 13.15-9.75 18.012-10.345 30.69 13.174 24.666 12.533 29.82-.642 5.298-1.331 8.987-1.888 11.237-1.113 4.44-4.718 30.303-2.431 34.972 3.23 6.605 9.327-2.165 12.037-2.177 2.045-.012 9.872-1.113 13.937-9.157.641-11.577-5.843-35.142-3.738-54.376 1.234-11.262-2.311-36.448-2.686-36.642l.012.013Z" fill="#F2A096"/><path d="M25.097 25.96c-2.528-7.138-2.637-16.525 6.28-19.066 8.915-2.54 14.287 5.94 15.908 13.331.302-.532 1.694-1.04 2.032.157.158.557.182 1.67-.278 2.674-.532 1.161-1.609 1.512-2.044 1.875.036 1.96-.642 3.931-1.319 5.141-.968 1.73-3.69 4.585-6.581 5.492-2.311.726-5.771-.496-7.743-1.681-1.851-1.113-3.11-2.335-4.15-3.581-.556-.085-1.572.085-2.661-.58-.932-.582-2.032-2.602-1.645-3.243.58-.967 1.887-.701 2.177-.532l.024.012Z" fill="#FFDBB0"/><path d="M27.625 3.967c.46-.932 3.122-3.23 6.46-3.037 3.34.194 6.013 1.101 6.993 2.553.98 1.464 2.807 2.407 4.658 3.883 4.355 3.448 3.388 7.04 2.843 9.23-.532 2.19-.81 3.653-1.415 3.835-.605.181-.073-.992-.738-1.198-.666-.206-1.44-2.19-2.468-1.452-1.343.956-5.493 1.126-12.413-3.338-1.62-1.053-2.976-1.682-3.58-.81-.327.459-.606 2.177-.654 3.761-.049 1.597-1.391 4.234-2.214 4.936-.81.702-.387 1.052-.181 1.972.205.919 1.173 2.19-1.005.653-3.496-2.468-4.815-5.31-5.262-8.371-.448-3.073 2.141-9.194 4.56-10.028 2.408-.835 4.15-1.343 4.404-2.59h.012Z" fill="#003F67"/><path d="M39.099 43.656c0-.774.447-3.593-.436-3.701-.871-.11-1.657.363-1.766.75-.11.387-.702 1.355-1.464.556-.762-.786-1.996-2.48-2.565-2.056-.714.52-.871-.158-1.9.387-.387.205.037 1.173-.653 1.355-.69.181-2.42.931-1.947 1.717.471.787-.642.92-.762 1.79-.122.872.955 1.186 2.407 1.985 1.452.798.653 1.838 2.988 2.19 1.452.217 2.916.435 4.198-1.198 1.282-1.634 1.996-2.988 1.9-3.763v-.012Zm9.317 47.868c1.403-2.867 4.38-5.444 7.465-4.415 3.084 1.016 4.657 1.73 5.347 4.258.69 2.528.278 4.67-.908 6.677-1.197 1.996-1.67 3.327-1.403 5.783.266 2.455.194 2.044.375 4.79.17 2.746-1.27 4.512-1.839 5.71-.472 1.004.194 1.778.92 3.036 1.161 2.032-4.682 3.69-7.126 3.944-3.484.362-6.484-1.017-4.283-3.666 1.682-2.032 2.057-1.028 3.4-2.093 1.355-1.052 1.125-3.725.375-4.85-.738-1.125-2.178-5.613-1.815-7.609.23-1.283.472-2.166-.193-4.549-.666-2.383-1.27-5.202-.327-7.028l.012.012Z" fill="#FFDBB0"/><path d="M41.398 76.549c3.073-.484 6.738.75 9.206 2.71 2.468 1.959 2.033 5.298 1.368 7.294-.811 2.407-3.86 4.524-5.856 4.681-3.46.266-5.59-4.064-6.17-1.742-.58 2.323-.508 1.936-1.258 4.5-.762 2.565-2.662 3.69-3.58 4.597-.763.75-.424 1.682-.182 3.085.387 2.238-5.505 1.802-7.816 1.222-3.29-.835-5.577-3.097-2.685-4.779 2.213-1.282 2.213-.254 3.798-.762s2.275-3.024 1.972-4.294c-.302-1.27-.109-5.843.896-7.549.64-1.088 1.161-1.814 1.342-4.21.182-2.395 6.267-4.258 8.977-4.741l-.012-.013Z" fill="#FFDBB0"/><path d="M70 76.548c-.508-3.932-4.78-1.827-9.63-1.803-6.606.037-10.102-.133-12.45-.762-2.346-.629-6.665-1.064-6.726.581-.06 1.645-2.335 1.67-5.032 2.395-2.71.726-4.404 1.9-5.093 3.932-.69 2.032-3.75 6.46-1.101 7.584 2.637 1.125 7.452 7.694 9.593 5.505 2.142-2.19 2.867-2.263 4.392-1.803 2.65.81 3.23 1.972 3.036 4.343-.302 3.701-1.197 6.133 1.96 6.568 3.146.436 9.715 1.295 11.263-1.33 1.537-2.625 1.851-5.504 3.8-7.9 1.947-2.407 3.98-4.016 5.395-6.604 2.214-4.04.92-8.214.605-10.706H70Z" fill="#003F67"/><path d="M67.083 46.741c3.387.52 7.464 4.863 5.142 8.734-2.989 4.984-2.831 9.98-2.59 14.843.206 4.052 2.287 5.286 1.815 8.613-.193 1.367-12.243 1.524-14.542.931-5.238-1.342-13.235-1.27-17.953-1.27-3.81 0-6.762-2.105-3.653-6.46 2.552-3.58 4.621-5.71 4.67-8.54.048-2.83.374-6.702-2.081-8.141-2.674-1.56-4.102-2.093-5.53-4.004-1.342-1.815 2.517-3.883 3.8-5.323 1.33-1.5 1.875-3.883 5.71-1.73 2.262 1.27 4.33 2.02 7.21 3.097s1.089 1.403 5.045.436c3.956-.968 10.416-1.234 12.969-1.198l-.012.012Z" fill="#A2A2A2"/><path d="M58.373 47.818c-3.388 1.609-6.8 1.294-8.953-.085-2.153-1.379-3.75-3.314-4.863-5.637-.714-2.141-.654-4.67-.388-5.6.242-.86.739-1.755 1.356-2.505 1.463-1.754.048-2.613 3.931-5.552 1.186-.895 7.295-4.549 13.296-1.137 5.275 3 2.71 17.129-4.38 20.504v.012Z" fill="#FFDBB0"/><path d="M50.315 26.068c.678-.75 3.206-1.9 5.456-1.488 2.77.508 3.775-1.065 6.46 0 3.739 1.5 6.497 4.355 7.223 5.782 1.549 3.06.895 4.815 1.004 6.677.194 3.388-2.298 16.247-15.715 11.868-1.621-.533-2.662-.424-1.44-3.375 1.634-1.5 4.15-2.892 4.247-3.847.097-.956-1.162-1.404-2.057-1.319-2.262.23-1.609-.218-1.488-3.29.145-3.738-7.634-6.992-3.678-11.033l-.012.025Z" fill="#003F67"/><path d="M69.814 76.862c-2.19.92-3.085 1.21-4.09.884-1.016-.327-3.508-.871-5.008-1.162-1.512-.29-2.347.194-2.262 1.04.084.847 1.355.847 3.363 1.827s.847 1.198.012 2.08c-.822.896-5.613 3.848-6.448 4.9-.835 1.053-2.008 2.141-1.246 3.049.762.907 2.262-1.04 3.121-.871.86.169.544 1.028.653 2.37.11 1.343.884.98 2.263.799 1.379-.181 1.427-.544 2.456.036 1.028.58 1.318.351 2.226-.254.907-.605 2.226-3.218 3.508-5.359 1.294-2.14 1.222-2.988 3.387-3.435.133-.024 1.126-.194 2.142-.787 2.25-1.935 0-4.596-2.081-5.528a6.841 6.841 0 0 0-2.008.424l.012-.013Zm-44.64 9.98c4.573-.58 9.654-2.71 11.311-2.588 1.645.12 6.146.108 9.025.084 1.174 0 2.674-.992 5.59-3.048 1.294-.908-1.295-1.343-.376-2.952 1.561-2.697-.544-2.504-.677-3.435-.23-1.621-.254-2.081-2.335-1.38-2.08.714-3.327 1.404-4.174 1.936-.847.532-2.298 1.04-1.633-.665.666-1.718.932-2.698.278-3.823-.653-1.125-1.597-.895-2.177 1.258-1.21 2.36-4.114 4.38-5.106 5.54-.992 1.162-3.012.835-6.206 1.198-3.206.363-8.081 8.444-3.508 7.863l-.012.012Z" fill="#FFDBB0"/><path d="M53.184 24.629c4.017-4.234 11.324-3.835 16.32.895 5.009 4.73 5.807 12.012 1.803 16.246-.06.072-.133.133-.194.194l-18.22-17.009c.097-.109.194-.23.291-.326Z" fill="#E2C2BC"/><path d="M49.805 22.948c-1.355 1.439 2.77 7.548 9.218 13.645 6.448 6.097 12.776 9.883 14.13 8.455 1.355-1.427-2.77-7.548-9.218-13.645-6.448-6.097-12.775-9.883-14.13-8.455Zm18.875 2.019c-.326.351-.278.932.121 1.307.4.375.98.4 1.307.048.326-.35.278-.931-.121-1.306-.4-.375-.98-.4-1.307-.049Z" fill="#E2C2BC"/><path d="m61.287 34.137.496.46c2.178 1.971 5.722 4.645 7.912 5.685.109.048.23 0 .266-.085.036-.096-.024-.23-.133-.278-2.141-1.016-5.65-3.653-7.791-5.6-2.589-2.36-5.662-5.977-7.005-8.263a.243.243 0 0 0-.29-.109c-.097.049-.121.17-.06.266 1.294 2.214 4.064 5.517 6.605 7.912v.012Zm5.966 2.334s.012 0 .024.013c.097.072.218.06.29-.025.533-.738 1.452-2.867 1.791-4.294.315-1.343.436-3.52.06-5.093a.239.239 0 0 0-.253-.181c-.11 0-.182.109-.158.218.351 1.512.23 3.616-.072 4.91-.315 1.368-1.234 3.473-1.73 4.174-.06.085-.037.194.048.267v.011Zm-8.55-8.092c.085.072.194.084.278.024.678-.544 2.722-1.573 4.077-1.96 1.283-.375 3.376-.605 4.9-.338.109.024.206-.049.218-.17a.258.258 0 0 0-.194-.242c-1.585-.278-3.762-.036-5.08.351-1.404.411-3.485 1.452-4.199 2.02-.085.06-.085.194 0 .29 0 0 0 .013.024.025h-.024Z" fill="#003F67"/></svg>