<svg width="235" height="157" fill="none" xmlns="http://www.w3.org/2000/svg"><path d="M68.951 62.815c.875-1.727 6.573-5.951 6.562-6.815 0-.863.023-4.12.633-5.214 1.06-1.91 2.199.61 3.085.196.887-.426 2.36-2.199 3.373-2.59 1.013-.392 1.186.99 1.704 1.807s1.911-.852 2.383.08c.322.633-.276 2.233.737 2.648 1.013.414 1.116.771.644 1.796-.472 1.024-1.093 1.37-.898 2.313.196.944-.057 1.105-.748 1.658-.69.552-3.04.932-5.008 1.416-1.98.483-6.987 7.816-9.105 9.324-1.716 1.22-5.18-3.062-3.362-6.62Zm-31.346 81.75c.553-.483.921-1.001 1.014-1.784.207-1.761-.093-4.696 1.784-7.85 1.876-3.166 1.554-2.717 3.338-5.48 1.773-2.762 2.142-4.615 2.234-7.689.092-3.073 1.036-5.859 3.258-8.46 2.233-2.59 4.19-2.521 7.782-1.946 3.591.587 2.74 3.822 2.313 8.035-.218 2.716-.472 5.076-2.59 7.528-2.13 2.44-3.695 5.468-4.27 7.125-.899 2.59-4.03 7.103-5.17 8.334-1.231 1.335-3.292 3.937-2.647 5.986.115.38.253.656.391.875-3.2.506-6.136-1.612-7.437-4.674Z" fill="#FFDBB0"/><path d="M37.624 144.565c1.312 3.062 4.248 5.18 7.437 4.674.598.955 1.3.829 1.588 3.591.472 4.432-3.27 4.317-6.389 1.865-2.187-1.715-6.769-7.102-4.397-8.829.679-.495 1.278-.875 1.75-1.289l.011-.012Zm39.365 1.554c1.67 1.059 1.876-.403 4.133 1.98 2.97 3.131-.023 5.917-3.914 6.377-2.729.322-9.486-.403-8.634-3.591.357-1.336.713-2.36.702-3.269 2.9.944 5.341.126 7.724-1.485l-.011-.012Z" fill="#003F67"/><path d="M59.93 114.924c.23-3.752 10.2-2.659 12.571 4.225 1.163 3.373 1.957 7.079 2.475 8.817.817 2.728.253 7.701.242 11.166 0 1.888.023 5.836 1.727 6.952.011 0 .023.012.046.023-2.395 1.612-4.824 2.429-7.725 1.485 0-.437-.103-.863-.334-1.277-.875-1.543-2.832-3.638-3.223-7.563s-.38-3.338-.61-6.884c-.23-3.545-1.025-5.283-2.763-7.781-1.738-2.498-2.636-5.422-2.406-9.174v.011Z" fill="#FFDBB0"/><path d="M70.301 86.734c-2.337-1.047-10.326.46-15.057.703-4.582.23-6.746 1.346-11.869.966-4.006-.299-2.233 3.949-5.215 13.606-1.968 6.378-8.254 15.932-5.618 17.578 2.636 1.646 8.784 3.384 11.88 1.968 3.086-1.416 4.076-1.842 8.163-.61 3.557 1.082 8.875-1.496 13.192-2.602 3.603-.92 5.975-1.012 8.945-.794 5.71.426 9.578-2.06 10.372-2.958 1.163-1.289.276-6.573-5.514-12.57s-6.216-12.927-9.267-15.287H70.3Z" fill="#A2A2A2"/><path d="M38.644 76.317c-.334-3.672.322-10.394 4.155-15.413 3.776-4.938 6.343-7.379 10.971-8.092 2.21-.334 6.02.034 10.879 2.532 2.44 1.255 7.62 10.302 8.38 13.571.519 2.234.104 2.061-1.957 3.603-1.427 1.071-1.3 2.118-.483 4.858 3.189 10.636 1.911 11.707-1.312 12.708-6.758 2.095-30.91 5.56-30.91 1.255 0-3.396.564-11.845.277-15.022Z" fill="#F2A096"/><path d="M48.328 52.375c3.258 2.175 6.838 2.36 9.279 1.254 2.44-1.105 4.374-2.866 5.883-5.11 1.047-2.107 1.37-4.731 1.243-5.733-.127-.92-.495-1.922-1.036-2.785-1.244-2.026.345-2.706-3.235-6.331-1.094-1.094-6.861-5.79-13.584-3.166-5.906 2.314-5.365 17.312 1.462 21.86l-.012.01Z" fill="#FFDBB0"/><path d="M61.288 30.918c-.587-.875-3.039-2.452-5.422-2.36-2.947.115-3.741-1.669-6.677-.955-4.098.99-7.379 3.534-8.334 4.892-2.05 2.935-1.647 4.846-2.038 6.757-.702 3.476-6.308 12.362 7.01 15.31 1.233.276 2.476-.749 2.499-3.19-.207-2.923-1.819-2.486-3.028-3.395-1.243-.92-1.163-3.637.737-3.246 1.566.31 1.761-.576 2.095-3.776.403-3.89 16.934-1.116 13.158-10.049v.012Z" fill="#003F67"/><path d="M50.046 38.642c.898-.253 1.727-.08 1.485.713-.242.795-.69 2.176-.932 2.556-.242.391-.53.863-1.278-.173s-.863-1.105-1.381-1.52c-.518-.414-.53-.31-1.554.173-1.037.473-1.831.922-2.234.542s-.345-1.013 0-2.13c.346-1.116.403-2.268 1.025-1.761.621.506 1.278 1.185 1.53 1.542.266.357.76.691 1.428.553.668-.138 1.313-.253 1.911-.484v-.011Z" fill="#F2A096"/><path d="M48.188 38.458c.23.207.53.54.276 1.243-.265.702-.518 1.082-.806 1.105-.53.035-.575-.08-.771-.552-.196-.472-.08-.84.3-1.405.38-.564.632-.53 1-.38v-.011Z" fill="#F2A096"/><path d="M54.537 68.202c.679-1.807 7.989-10.406 7.885-11.27-.103-.863-.437-4.097.058-5.248.852-2.015 2.245.368 3.097-.15.84-.518 2.106-2.44 3.073-2.935.967-.495 1.29.852 1.888 1.6.61.748 1.808-1.048 2.383-.184.392.598-.034 2.244 1.025 2.555 1.059.31 1.197.645.84 1.715-.357 1.07-.944 1.485-.645 2.395.3.909.07 1.105-.552 1.726-.622.622-2.913 1.266-4.824 1.957-1.91.69-4.455 8.15-8.07 13.48-1.185 1.749-7.551-1.912-6.135-5.653l-.023.012Zm126.457 54.561c-.334-.645-.495-1.266-.3-2.026.449-1.704 1.785-4.328 1.186-7.943-.599-3.614-.46-3.096-1.117-6.296-.656-3.212-.322-5.065.703-7.954 1.024-2.89 1.162-5.825.034-9.048-1.139-3.223-2.981-3.856-6.527-4.627-3.557-.76-3.937 2.555-5.065 6.642-.783 2.601-1.405 4.892-.311 7.93 1.094 3.04 1.462 6.424 1.393 8.162-.104 2.728 1.174 8.069 1.784 9.623.668 1.681 1.635 4.858.288 6.515a3.633 3.633 0 0 1-.679.668c2.786 1.623 6.285.725 8.611-1.646Zm-14.32-32.449c-.334-3.741-8.634-1.634-10.799 5.307-1.059 3.395-1.75 7.113-2.222 8.863-.736 2.74-.034 7.689.07 11.143.057 1.887.149 5.824-1.52 6.987-.012 0-.023.011-.046.023-1.416 4.558 7.701 6.008 8.116 1.473 0-.437-.288-1.082-.058-1.496.829-1.566 2.717-3.707 2.993-7.632.277-3.925.277-3.338.403-6.884.127-3.545.668-6.112 2.326-8.644 1.657-2.533 1.059-5.387.725-9.128l.012-.012Z" fill="#FFDBB0"/><path d="M173.349 122.222c1.163-.622 3.558-1.45 4.801-1.312 1.577.161 2.348 0 3.004 1.876.76 2.187 1.336 2.153 1.06 4.19-.162 1.266-.979 3.476-3.293 4.501-2.325 1.024-4.95 3.488-7.563 3.775-1.692.185-4.006.461-3.615-3.315.219-2.106 2.015-3.499 3.074-5.306 1.047-1.808-.184-2.97 2.532-4.397v-.012Z" fill="#003F67"/><path d="M155.689 66.774c2.176-1.335 3.293-1.278 8.001-1.669 4.57-.368 8.185-.035 13.319-.011 4.49.011 7-2.66 9.601 8.126.898 3.73.829 11.787-.886 16.725-1.094 3.143-.679 8.254-.875 8.99-.875 3.281-.069 4.168-6.723 3.65-2.982-.231-7.437-.426-10.153-.587-.795-.047-.288-1.462-1.025-1.531-4.087-.392-14.424-.795-15.127-1.393-1.323-1.128-.564-5.514.726-12.927 1.439-8.196.414-16.633 3.119-19.373h.023Z" fill="#A2A2A2"/><path d="M167.266 98.567h-.023a.434.434 0 0 1-.403-.449c.058-.955.023-3.948 0-5.94v-1.703a.425.425 0 1 1 .852 0v1.703c.023 2.118.046 5.02-.011 5.998a.42.42 0 0 1-.426.402l.011-.011Z" fill="#003F67"/><path d="M182.659 54.284c-1.531-4.984-2.659-9.416-1.059-8.276 3.062 2.187 6.539-3.085 8.945-5.376 2.325-2.221.08-4.201-1.669-6.32-2.038-2.463-7.011-5.536-13.723-7.136-4.501-1.07-7.459.012-9.382.012-2.176 0-8.254-.012-14.563 3.326-2.636 1.393-10.199 6.262-10.66 9.589-.495 3.58 4.11 7.873 8.185 8.598 2.153.38 4.283-3.027 5.319-2.336 1.347.898.242 8.172 1.324 16.886.449 3.569-.84 4.605 2.705 4.662 9.67.15 25.511-1.013 26.996-3.361 2.198-2.164-1.013-5.733-2.418-10.268Z" fill="#E2C2BC"/><path d="M174.348 23.803c-1.831 3.684-4.996 5.721-7.794 5.986-2.797.265-5.48-.322-8.024-1.577-2.06-1.37-3.718-3.591-4.121-4.581-.368-.91-.552-2.015-.518-3.085.081-2.498-1.727-2.29-.357-7.46.415-1.565 3.224-8.851 10.718-9.968 6.585-.978 13.918 12.973 10.084 20.674l.012.011Z" fill="#FFDBB0"/><path d="M152.07 14.261c.081-1.105.749-7.056 2.97-8.207 2.74-1.44 2.533-3.477 5.584-4.363 4.248-1.232 8.565-.633 10.142.104 3.407 1.6 4.029 3.557 5.387 5.088 2.452 2.797 5.894 11.545-.771 16.265-1.082.77-.265 1.956-1.566-.254-1.335-2.774.357-3.223.99-4.662.645-1.485-.84-3.913-2.36-2.578-1.254 1.105-.805 1.865-2.774-.863-1.151-1.589-5.341 1.715-11.351-3.442-1.634-1.404-5.606 8.196-6.251 2.924v-.012Zm1.088 107.915c1.231-.472 3.706-1.001 4.927-.725 1.542.357 2.336.288 2.751 2.222.483 2.256 1.059 2.302.541 4.293-.322 1.244-1.393 3.327-3.822 4.064-2.429.736-5.33 2.854-7.966 2.82-1.704-.023-4.029-.035-3.189-3.73.472-2.06 2.429-3.223 3.695-4.892 1.267-1.657.173-2.97 3.051-4.063l.012.011Z" fill="#003F67"/><path d="M230.069 64.334H108.895v3.88h121.174v-3.88Zm-118.97 17.784H2.473v3.88h108.626v-3.88Z" fill="#E2E5D8"/><path d="M106.602 151.173c0 1.093 1.277 1.991 2.854 1.991 1.578 0 2.856-.886 2.856-1.991V58.59c0-1.094-1.278-1.991-2.856-1.991-1.577 0-2.854.898-2.854 1.991v92.583ZM.633 151.61c0 .863 1.278 1.554 2.855 1.554s2.855-.691 2.855-1.554V79.149c0-.864-1.278-1.554-2.855-1.554s-2.855.702-2.855 1.554v72.461Z" fill="#F2A096"/><path d="M6.807 78.734c0 1.496-.817 2.717-1.83 2.717h-2.96c-1.012 0-1.83-1.22-1.83-2.717v-2.717c0-1.496.818-2.716 1.83-2.716h2.96c1.013 0 1.83 1.208 1.83 2.716v2.717ZM112.76 59.465c0 1.496-.817 2.716-1.83 2.716h-2.959c-1.013 0-1.83-1.22-1.83-2.716v-2.717c0-1.508.817-2.717 1.83-2.717h2.959c1.013 0 1.83 1.22 1.83 2.717v2.717Z" fill="#A2A2A2"/><path d="M227.926 151.173c0 1.093 1.278 1.991 2.855 1.991s2.855-.886 2.855-1.991V58.59c0-1.094-1.278-1.991-2.855-1.991s-2.855.898-2.855 1.991v92.583Z" fill="#F2A096"/><path d="M234.092 59.465c0 1.496-.817 2.716-1.83 2.716h-2.959c-1.013 0-1.83-1.22-1.83-2.716v-2.717c0-1.508.817-2.717 1.83-2.717h2.959c1.013 0 1.83 1.22 1.83 2.717v2.717Z" fill="#A2A2A2"/><path d="M151.707 58.981c.472 1.07.782 2.302 1.531 2.452.748.15 3.937.506 4.397 1.52.852 1.864-.944 1.784-.736 2.635.195.852 1.887 1.739 1.496 2.613-.46 1.025-.875 1.07-1.681 1.359-.805.299-.782 1.197-2.037 1.243-1.589.046-1.75.15-2.867.31-1.819.265-2.544-.748-2.935-1.427-.633-1.116-.691-2.152-.691-3.96 0-.92-.288-2.44-1.612-3.326-1.151-.771-4.34-3.453-6.976-6.757-3.684-4.605 1.267-12.95 3.235-14.964 1.094-1.082 5.261 1.185 8.772 4.178 1.6 1.83-6.377 4.5-3.741 8.023 2.521 3.35 3.43 5.18 3.845 6.101Zm32.28.139c-.414 1.105-.645 2.348-1.393 2.532-.737.196-3.902.737-4.305 1.773-.749 1.91 1.047 1.726.898 2.59-.15.863-1.785 1.841-1.347 2.693.518.99.932 1.013 1.761 1.267.817.253.852 1.15 2.107 1.116 1.588-.046 1.761.046 2.878.15 1.83.16 2.498-.898 2.843-1.6.564-1.151.564-2.188.461-3.995-.058-.909.149-2.452 1.416-3.418 1.105-.84 4.132-3.707 6.585-7.149 3.419-4.811-2.015-12.857-4.099-14.757-1.151-1.013-5.192 1.485-8.519 4.674-1.496 1.91 6.631 4.132 4.191 7.793-2.314 3.487-3.131 5.364-3.488 6.308l.011.023Z" fill="#FFDBB0"/><path d="M182.331 30.514c2.141-.944 7.241 3.903 9.048 7.01 1.807 3.108-.622 4.41-2.475 6.078-1.865 1.67-5.342 4.329-7.299 2.406-1.968-1.91-3.361-6.469-3.752-8.886-.392-2.44 1.3-5.215 4.478-6.608Zm-35.036 2.544c-2.579 1.819-6.193 4.72-7.517 8.058-1.324 3.338.702 4.075 3.166 5.617 2.452 1.554 6.032 3.58 7.793 1.45 1.761-2.129 1.888-1.38 4.259-3.948 1.819-1.968-5.698-12.593-7.701-11.177Z" fill="#E2C2BC"/></svg>