<svg width="364" height="42" fill="none" xmlns="http://www.w3.org/2000/svg"><path fill-rule="evenodd" clip-rule="evenodd" d="M89.425.113c1.26.272 1.447.966 2.912 1.08.212-.41.528-1.023 1.323-.808v.271c.677.253.298-.271.795.272h.267v1.08l.528.271v.537h.267c.087.272.174.537.267.809h-1.062v.808c-.733.196-.59.076-.795.809-.925.227-1.236.682-2.385.808.02.708.106.916.267 1.346-.906-.07-2.08-.215-2.117-.272v.537h.267c.838.006-.795.272-.795.272-.335-.423-.708-.657-1.323-.809-.397.733-.919 1.15-1.856 1.346v-.537l-.528.271c-.156.41-.205.442-.267 1.08-.56.045-1.602.24-1.857.537-.323.38.236.297-.528.809V9.55h-.267v1.08h-.795v-.537c-.403.158-.434.208-1.062.271v-.536l-.795.271c-.173.461-.254.847-.267 1.617h-1.322s-.267.43-.528.537v.272h-.267v-.537h-.528v-.272h-.267v.272h-.795v.271c-.46.417-.559 1.264-.795 1.89-.975-.096-1.745-.475-2.385.27a41.72 41.72 0 0 1-.266.81c-.709.088-1.416.176-2.118.27v.272l-.528.272v.537l-.795-.272-.267.537h-.795c-.043.026-.31.405-.528.537v.272a98.47 98.47 0 0 1-1.322-.272v-.272c-.156-.018-.907.455-1.323.537-.18.512-.342 1.649-.528 2.154l-.795-.271v-.272c-.366-.07.106.196-.267.272-.633.126-.683-.203-1.062-.272l-.527.809h-1.063v.271l-.794.272v.808h.527v.272h-.267c-.142.126-2.123.682-2.117 0h-.267v.537l-1.323-.272c.012.967-.062 1.7-.528 2.154v-.272h-.267v-1.08h-.528c-.018.708-.105.916-.267 1.346-.552-.164-1.08-.303-1.59.271v.537h-.267v.272l-1.59-.272c-.086.177-.173.36-.266.537-.354.089-.708.177-1.062.272v.537H48.88v.537c-.633-.127-.832-.31-1.323-.537v1.345c-.62.089-1.236.177-1.857.272v.271c-.776.183-.869.297-1.061 1.08.372.02-.038-.044.267-.271.416-.31.248.663.267.808-.454.303-.36.17-.528.809.354-.089.708-.177 1.062-.272l.267-.537c.05-.006.62.253 1.062.272v-.537c.267.088.527.177.794.272l.267-.537c.323-.158.777-.146 1.062-.272v-1.08c.628-.107 1.46-.512 2.385-.271v.271h1.062v-.271h.528v-1.08h.528v.536c.794-.177 1.59-.36 2.384-.537l.267.272c.727-.518.242-.922 1.59-1.08.304.31 0 .107.528.271v-.808l1.323-.272v-.537c.875.146 1.204.341 1.59 0h.267c.335-.416-.286-.543.266-.808v.271h.267v-.808c.584-.095 1.373-.354 2.118 0 .087.177.174.36.267.537h.528v-.537c.534.152.23-.032.528.272l.795-.272v-.272h.795c.173-.271.353-.537.527-.808.441.088.882.177 1.323.271v.272c.193.038.975-.24 1.857-.271l-.267-.809h.528v.272h1.062l.267.271v-.271l.794-.272c-.018-.707-.105-.916-.267-1.345h1.59c.305-.31 0-.108.528-.272.205-.809.162-.707 1.062-.809.298.462.168.367.795.537.267-.675.546-1.408 1.062-1.08h.267v.809h.528c.192-.746.074-.6.795-.809v-.271l1.59-.272s.117.392.527.272l.267-.537h.795v-.537l.528.271v.272c.348.133.056-.126.267-.271.664-.184.428-.14.795-.537h.267v-.537l.528-.272c.31-.341.447-.783.795-1.08v.272h.794c.087.36.174.72.267 1.08h.267c.646-1.1 1.485-.998 2.913-1.346.08-.019.068-.372.528-.271v.271c.528.177 1.062.36 1.59.537v-.271h.267l-.267-.809c.174-.088.354-.177.527-.272.367-.562-.118-.379.528-.808v-.272l1.323-.271c-.143.751-.205.025 0 .808h.267v-.537c.528.089 1.062.177 1.59.272v-.272c.285-.246.05.045.267-.271h-.267v-.272h.795c.056.638.111.67.267 1.08.304-.31.105 0 .267-.537.304-.31.105 0 .267-.537.795-.271 1.59-.537 2.384-.808l.267.272c.087-.872.243-.79.528-1.346h.528v.272h.267v-.272h1.062l.267-.808c.689.284 1.118.492 2.118.537-.087-.177-.174-.36-.267-.537.18-.297 1.49-.38 1.856-.809l-.267-.537h.267v-.271c.702.315 1 .518 2.118.536v-.271h-.267v-.809c.838.177.534.41.795.537.31-.019.944-.543 1.59-.271l.267.537h.528c-.255.89-.249 1.585.266 2.425h-.266c-.305.31-.001.107-.528.272v1.345h-.267c-.069.449.248.467.267.537v1.345c-.951.038-1.503.386-2.118.537l-.528-.271c-.174.271-.354.537-.528.808-.149.063-1.447-.202-1.857-.271-.161.707-.751 1.427-1.589 1.345 0 0-.143-.341-.528-.272l.267.537h-1.062c-.087.449-.174.897-.267 1.346l-1.323-.272-.267.537c-.714.183-.695-.518-.795-.537l-.795.272.268.271c.012.108-.236.607-.268 1.08-.881.089-1.763.177-2.651.272v-.537c-.627-.057-.658-.114-1.062-.271v.808c-.056.114-1.82 1.358-.795 1.889h-.795v-.272c-.254-.499-.267.537-.267.537-.298.227-.037-.032-.267.271.745-.252.74-.284 1.59 0v.272l.795-.271-.267-.272.267-.808c1.242.486 2.061.157 2.912-.537.087-.177.174-.36.267-.537h1.323s-.025-.158.528-.272v.809h.267v-.537c1.13-.02 1.757-.057 2.384-.537l.267-.537c.441.088.882.177 1.323.271-.304-.309 0-.107-.528-.271v-.537c.267.088.528.177.795.271v-.536h.528v.537c1.534-.127 2.633-1.005 3.707-1.617v.808h.528v-.537h1.857v-.271h.795v-.272c.528.088 1.062.177 1.59.272.223-.304-.031-.038.267-.272v-1.08c.528-.089 1.062-.177 1.589-.272-.086.272-.173.537-.266.809h.266v.271c.299-.227.038.032.267-.271.305-.31.106 0 .268-.537.416.019 1.856.271 1.856.271v-.271h.267v-.809c.292-.379 1.193-.278 1.857-.271v.271l1.59-.271v-.272h.528v-.271h.795l-.267.808h.267c.192-.745.074-.6.794-.809v.537c.268-.088.528-.177.795-.271v-.272c.621-.088 1.236-.177 1.857-.271v-.272h.795l.267-.537c.224-.088 1.745.284 2.118.537v-.537l.795-.271v-.272c.36-.114-.106.196.267.271.441.089.471-.258.527-.271.485-.101 1.025.354 1.323.537v-.272c.826-.764.062-1.143 1.59-1.345v.271h.795l-.267.537c.341.436.497-.297.795.809.347-.284.397-.55.795-.809v.809h.527c-.087-.537-.174-1.08-.267-1.617 1.242-.43.895.208 1.59-1.346h.267c-.031.575-.273.922-.267 1.08l.267.272c.484-.341.031-.366.267-.537.304-.227.168.247.267.272.267-.089.528-.177.795-.272v-.537c.596-.107 1.019-.442 1.857-.271 0 0 .012.353.528.271v-.271h1.322v.271c-.633.165-.49.089-.794.537h.527c.764-1.282 2.037-.834 3.447-1.345l.267-.809c.758 0 1.136.095 1.59.272v-1.08h.267c.174.271.354.537.528.808h.267l-.267.537h.267v.272c.757.556.683-.48 1.062.808h.527v.537h.528a42.65 42.65 0 0 1-.267.809h.267c.18.404.186.448.267 1.08h.528v.537c.41.24.553.398.795.808.857-.473.503-.644 1.59-.271l-.267-.809h.528v-.537h.527v.272h.267v-.272l.795.272-.267.808h.528c.193-.745.075-.6.795-.808.397-.474.714-.512 1.59-.537v-.537c.528-.177 1.062-.36 1.589-.537.019.707.106.916.268 1.345.298-.227.037.032.267-.271h.267v-.809c.794.089 1.589.177 2.384.272v-.537h.528l.267-.808c.354.088.708.177 1.062.271.087-.177.174-.36.267-.537l1.323.272v.537c.677-.417 1.826-1.674 2.651-1.08h.528v.537h.267v-.537c1.273-.07 1.28-.19 2.385 0 .087-.449.174-.897.267-1.346 1.223-.233 2.149-.233 2.912 0v-.537h1.59v.272h.795v.272c.267-.089.528-.177.795-.272v-.272c-.304-.31-.106 0-.267-.536.869.018.782.34 1.323 0l.267-.537 1.589.537v.536c.714 0 1.503.089 1.857-.271v-.537l.528.272v-.272c.528-.089 1.062-.177 1.59-.272.248.165-.093.386.267.272l.267-.537c.335 0 .677.48 1.323.272V6.58c.44-.088.881-.177 1.322-.272l-.267.809h.267c.59.65.497.379 1.323.272-.031.852-.515.505.267.808.118.67.242.992.267 1.889-.733.196-.59.075-.795.808h-.267v1.346c-.633.126-.832.309-1.323.536v-.808h-.267c-.391 1.51-.459.556-1.322 1.08v.272l-1.062.808c.087-.271.174-.537.267-.808h-.267c-.162.43-.236.638-.267 1.345-1 .215-1.484.524-2.913.537v-.537h-.528v.537h-1.322v.272h.267c-.168.385-.311.202-.528.536h-.528l.267-.536h-.267c-.261.366-.155.53-.795.536 0 0-.186-.385-.528-.271-.087.177-.174.36-.267.537h-.528l-.267 1.617-1.062.271v-1.08h-.527c-.193.866-.361.98-1.323 1.08l.267-.808h-.267c-.099.31-.075.96-.528.808l-.267-.808c-.267.088-.528.177-.795.271v.537c-.422-.164-.627-.24-1.323-.271v-.809h-.267v.809c.305.31.106 0 .267.537-.621.088-1.235.177-1.856.271v.537c-.938.101-.808.335-1.59.537v.809c-.646-.152-.584-.285-1.062-.537v.537h-.267v.808h.267v-.537h.528v.537c.441-.088.882-.177 1.323-.271v.808h.527v-.808c.441.088.882.176 1.323.271.124-.644.304-.846.528-1.345.863.006 1.913-.12 2.385.271h.267c.087-.177.174-.36.267-.537h.528v-.271h.527v-.272l.528.272v-.272h2.652a42.66 42.66 0 0 0-.267-.808h.528v-.272h.267v.272l.795.271c.018.38.062.076-.267.272.298.284 0 .12.527.271v-.271h.267v-.809h.267c.23-.372.199-.467.267-1.08.628-.031.671-.082 1.062-.271v.271h.267v.272l-.267.537h.795v-.537c.621-.089 1.236-.177 1.857-.272v.272h.267c.298-.215-.099-.354.267-.272v.272h1.062v.537h.267c.087-.537.174-1.08.267-1.617h.528v.537h.267v-.809c.609.025.689.228 1.062.272l.267-.537s.726.252 1.062.271v-.536l.267.271c.354-.088.708-.177 1.062-.271v.271h1.322v-.808h.528v.271h.267v-.271l.528.271.267-.808c.702-.265.553.587 1.062.537v-.272c1.161-.278 1.459-.663 2.652-.809v.272h-.267c-.503.234.528.272.528.272.223.303-.031.038.267.271v-.537l1.322-.271c.087-.177.174-.36.267-.537l.267.272c1.572.1 1.777-.563 2.652-1.08v.808h.267c.304-.31 0-.107.528-.272v-.537c.267.089.528.177.795.272l.267-.537h1.062v-.271h.267c.161.644.087.498.528.808v-.808c1.391-.228 1.173-.032 2.384.537.137-.632.385-1.011.795-1.346.304.31 0 .107.528.272v-.537h.795v-.537c.441.088.882.177 1.323.271v.537h.527v-.808c.578.038.882.271 1.062.271v-.271l.795-.272c.087.177.174.36.267.537.845.253 2.112-.562 2.652-.808l-.267-.809h.795c.161.644.087.5.528.809.223.303-.031.038.267.271.018-.707.105-.916.267-1.345.528-.089 1.062-.177 1.589-.272.224.303-.031.038.267.272-.204.271-.323.265-.527.537h.794l-.267-.809.267-.271c.392.126.423.31 1.062.271V8.21h.267v.271c.354.089.708.177 1.062.272v.271c1.081.417 1.571-.195 2.118.272.826.556.124.347.528 1.08l.528.272v.537h.267c.242.366.198.473.267 1.08l-1.062-.272c.211.872.49.929.528 2.154-.299.228-.038-.031-.267.272h-.267c-.081-.809-.038-.733-.528-1.08v.271h.267c-.174.36-.354.72-.528 1.08-.689.013-.913.057-1.323.272v.272c-.453.157-.459-.253-.528-.272-.95-.246-1.552.341-1.856.808h-.268c-.087.537-.173 1.08-.267 1.617h-.527l-.267-.537c-.354.089-.708.177-1.062.272.056.638.111.67.267 1.08-.615-.025-.677-.215-1.062-.271l-.267.537c-.354.088-.708.176-1.062.271-.193.745-.075.6-.795.809-.931.852-1.714-.341-1.857-.272v.272c-.441.271-.882.537-1.323.808.143.941.261.5 0 1.346h.268v-.272h1.061v.537l.795-.272v-.271l.795.271v-.808c.267.088.528.177.795.271v-.271l-.267-.272h1.59c.087.272.174.537.267.809.174-.089.528-.537.528-.537.267.088.528.177.795.271v-.271c.391-.209.44-.202 1.061-.272v-.537h.528v-.537h1.062v.537c.596-.07.702-.025 1.062-.271v-.272h.528v-.272h.528v-.271c.472-.385.633-.607 1.322-.809v.809h1.062c.087-.449.174-.897.267-1.346h.528a42.46 42.46 0 0 1-.267.809h.267c.379-.385 1.478-.689 2.118-.809v-.537c.354-.088.708-.176 1.062-.271v-.809h.528v.809h.527v-.809h1.323a42.46 42.46 0 0 1-.267.809h.528c.273-.31.491-.518 1.062-.537v.272h.267l.267-.272c.248-.486.366-.423.528-1.08l.795-.272v-.271l.267.271.795-.271v.808h.527c.056-.638.112-.67.267-1.08l.528.272v-.272c.379-.335.41-.745.795-1.08.081.126.541.979.795.808l.267-.808c1.149-.088 2.298-.177 3.447-.272v.272c-.733.196-.59.076-.795.808.658-.12.975-.246 1.857-.271v-.272h-.267v-1.345c.441.088.881.177 1.322.271.087-.271.174-.537.267-.808.305.31.106 0 .267.537l.795.271v-.271c.547-.303.478-.417 1.323-.537V10.9c.565-.031.907-.277 1.062-.271l.267.271v-.537l1.323-.271v.537c.173-.089.353-.177.527-.272v-.271c.423-.05.33.467.528.537h1.062c.087-.449.174-.897.267-1.346.441.089.882.177 1.323.272l.267-.537h.267v.271c.267-.088.528-.176.795-.271v-.537c.304.31.105 0 .267.537h.528c.124-.644.304-.847.528-1.346.881.013 2.384.272 2.384.272v-.272h.528v-.271h.795c.087-.177.174-.36.267-.537.267.088.528.177.795.272v.271h1.323v-.537l1.062-.271v.537h.527c.168.739.348.612.528 1.345h.795c.193.745.075.6.795.808v.537c-1.584.329-1.372 1.08-1.857 2.426h1.59l.267-1.08c1.105-.17.751-.265 1.857-.537v.537c1.254-.537 1.068-.537 2.117 0v-.537c.354-.089.708-.177 1.062-.272V9.82h.528v.272h.267V9.82c.602-.12.714.14 1.062.272V9.82h-.267c-.491-.259.528-.271.528-.271v-.537h.528v-.537c.832.158 1.18.436 2.117.537l.267-.809s-.565-.044-.267-.271h.528v.271h1.59v-.808c.844.177.522.398.795.537.441-.045.49-.53.528-.537.509-.145.366.177.527.271h.267v-.271c.354.088.708.177 1.062.271.193-.745.075-.6.795-.808v.537h1.062c.249-.487.367-.423.528-1.08l.795.271v-.271c.174-.089.354-.177.528-.272v.537h.528l-.267-.809c.633-.126.832-.309 1.322-.536v1.08c1.379-.367.944-.594 2.652-.272v-.808h.795v.271c-.112.158-.435.038-.267.537h.267c.428-1.667.565-.455 1.59-1.08.602-.366-.019-.992 1.322-1.345v.271l.795-.271v.536h.267V3.62c.938.1.807.334 1.59.536v.537c.248.424 1.894.5 1.062 1.346h.528v1.08l-.528.272c-.013.088.248.6.267 1.08h.528c-.125.644-.305.846-.528 1.345-.472.025-.956.284-1.062.272v-.272h-1.062v.272l-1.59.271v.537c-.354.177-.708.36-1.062.537v-.272h-.267v.809l-1.856.537c.304.31 0 .107.527.271v.272c.466.221.851-.158 1.062-.272v-.271h.795v-.537c1.236-.063 1.509-.392 2.385-.809v-.271h1.857v.271h-.267c-.305.31 0 .108-.528.272v.537c1.08-.316.279-.246.795-.809l.527.272v-.272h.528v-.271h.795c.28-.164.658-1.333 1.323-1.08v.271h.528v-.808c.267.088.528.177.795.271v-.271c.528-.089 1.061-.177 1.589-.272v.537h.528c.087.272.174.537.267.809h.267V9.81h.528c.155-1.005.155-.62 0-1.617.081.031 2.552.587 2.652.537v-.272h.267v-1.08h.267c.54.493 1.205.076 2.117 0V6.84c.535.152.23-.032.528.272.975-.285.727-.544 1.323-1.08V5.76c.671-.423 2.093-.02 3.18 0 .167-.74.347-.613.527-1.346 1.137-.044.907-.17 1.59-.536v.808h1.062c.056-.638.112-.67.267-1.08l.795.272.267-.537h.528v-.272c.267-.088.528-.177.795-.272l.267.809c.67-.55.112-.65 1.322-.809v.272c-.304.246-.31.196-.527.537h.267v.272c.552-.297.472-.436 1.322-.537.224.303-.031.038.267.271-.31.512-.223.26-.795.537v.272h.528c-.087.537-.173 1.08-.267 1.617h.267v.271h-.267v.537c.087.632.174 1.257.267 1.889h-.267c-.223.31-.136.379-.528.537V9h-.267c-.173.272-.354.537-.527.809h-.795l-.267.537c-.354.088-.708.177-1.062.271a42.46 42.46 0 0 1-.267.809l-.795.271-.267.537h-.267v-.271c-.975-.234-1.279.916-1.857.271v.537h-.528c.087.36.174.72.267 1.08h-.267c-.298.461-.167.367-.795.537-.024-.057-.378-.979-.528-.808v.271l-.527.272c-.087.271-.174.537-.267.808h-.795c-.888.443-.348.714-1.857.809.087.271.174.537.267.808.354-.088.708-.176 1.062-.271v.808h.267v-.271h1.062c.807-.31 1.18-.752 2.384-.809v-.537c.752-.17.702-.499.795-.537h1.062v.272l1.062-.272s.118.335.528.272v-.272l1.062.272v-.272c.304-.31.105 0 .267-.537h-.267v.272c-.23.512-.267-.537-.267-.537.969.088 1.944.177 2.912.272l.267-.537c.267-.082.485.417 1.062.271v-.271h1.323v.271h.267v-.271h1.062l.267-.809h.267l-.267-.537h.795c.304.31 0 .108.528.272v-.537c.633.127.832.31 1.322.537v-.271h-.267c-.49-.26.528-.272.528-.272v.271c.305.31.106 0 .267.537.565-.031.901-.271 1.062-.271v.271h.528c.075-.48.267-.537.267-.537a42.425 42.425 0 0 0-.267-.808h.267v-.272c.751.341 1.093.695 2.118.809v-.537c1.546-.36.149-.682 1.589 0v-1.08h.267v.271c.354-.271.708-.537 1.062-.808v1.08h.267c.131-.126-.074-.436.267-.272v.272h.267s-.074.966.268.537v-.272c.304-.31.105 0 .266-.537h-.794c.205-.808.161-.707 1.061-.808v.271l.795-.271v.271h.795v.272c.683.146 1.453-.84 1.857-1.08l.795.272v-.272c.441-.29.441-.366 1.062-.537a42.46 42.46 0 0 1-.267.809h.267v.271c.267-.177.528-.36.795-.537v-.271h.528c.478-.215.577-.613.794-1.08l1.323 1.08c.162-.53.012-.657.528-.809.087.032.081.506.528.537.565-.764.236-.543 1.062-.272.087-.871.242-.789.528-1.345.925.145.49.265 1.322 0V9.02h.267c.298-.461.168-.366.795-.537.497.847.981.765 1.062 2.154.727.032 1.919.373 2.118 0h.267v.272c.732.177 1.565.751 1.856 1.345v.809h.268c.366.499.614.625.794 1.345a39.384 39.384 0 0 1-.794-.272v.272h.267v.809h.267c.242.398.236.663.267 1.345-.305.31-.106 0-.267.537-.882.088-1.764.177-2.652.271v-.536c-.354.088-.708.177-1.062.271v-.537c-.174.089-.354.177-.528.272-.087-.177-.174-.36-.267-.537-.006 0-.782.366-1.322 0l-.268-.809c-.31-.22-.453.79-1.062.537v-.271c-.304-.31-.105 0-.266-.537l-.795.271v-.271h-.267c.087-.272.173-.537.267-.809 0 0-.329-.082-.267-.537 0 0 .44-.12.267-.536h-.267c-.305.31 0 .107-.528.271a42.46 42.46 0 0 1-.267.809c-.621-.076-.659-.089-1.062-.272v-.271c-.447.031-.447.511-.528.536-.602.215-1.068-.334-1.323-.271v.271c-.9.367-1.099.84-2.117 1.08.087-.271.174-.536.267-.808h-.528c-.391.733-.814 1.232-1.857 1.345v-.808h-.267c-.205.808-.161.707-1.062.808v-.537c-1.105.613-1.254.55-2.651.272v-.537h-.268c-.018 1.042.044 1.112-.795 1.346v.271c-.254.5-.267-.537-.267-.537h-.527c-.087.177-.174.36-.267.537a98.527 98.527 0 0 1-1.323-.271v.536h-.795v.272c-.304.31-.105 0-.267.537l-1.59.272v-.537l-2.651.271v.537h-.795v.272c-.236.505-.267-.537-.267-.537-.851.208-.572.404-1.59.537v.808c-1.565-.164-1.447-.954-3.179-1.08-.007.897-.137 1.22-.268 1.889h-.527c.08-.234.509-.594.267-1.08h-.267v.271c-.305.31-.106 0-.268.537l-1.589.272v.537c-.888-.165-1.671-.74-2.652-.272-.174.272-.354.537-.528.809-.72.214-.819-.727-1.062-.809-.478-.164-.192.303-.267.537a41.037 41.037 0 0 1-.795-.272v1.08h-.527l-.267.537c-.435.133-.491-.265-.528-.271-.64-.114-.69.271-1.062.271v-.271c-.528-.089-1.062-.177-1.59-.272v.537c-1.757.19-2.652.234-3.974 0l-.267.809c-.497-.133-1.267-.114-2.118-.272v-.272c.304-.31.106 0 .267-.537-.633.026-.658.177-1.062.272v-.271c-.441-.291-.435-.386-1.062-.537v-.537h-.528a36.357 36.357 0 0 0-.267-.809l-1.589-.271v-.537c.211.088.832.55 1.322.271v-.271c-.782-.518-.645-1.074-.527-1.889.354-.177.36-.423.527-.537.174.089.354.177.528.272v-1.08h.267c-.087-.537-.174-1.08-.267-1.617a39.459 39.459 0 0 1-.795-.272c.087.177.174.36.267.537l-.795-.272v.537h-.267c-.086.177-.173.36-.267.537h-.794c.062.626.291.164 0 .809l-.528-.272v.537c-.286.474-.267-.537-.267-.537a88.69 88.69 0 0 0-1.323.272s-.124-.405-.528-.272c-.087.177-.174.36-.267.537h-.795c-.087.271-.174.537-.267.808-.41-.22-1.174-.972-1.857-.808-.087.177-.173.36-.267.537-.509-.05-.44-.524-.527-.537h-.268v.272h-1.322v.271h.528c-.087.537-.174 1.08-.267 1.617h-.528c-.243-.107-.174-.82-1.062-.537l-.267.537h-1.323v-.271c-.385-.215-.447-.19-1.062-.272v.808a39.464 39.464 0 0 1-.795-.271v.271c-.304.31-.105 0-.267.537-.987.285-.714.556-1.322 1.08v.272h-.795v-.808h-.528v.537h-1.323v-.272h-.267c-.174.36-.354.72-.528 1.08l-.528-.272v.272l-.795.537V21.4h-.267v.272l-.794-.272v.272c-.373-.019.105-.227-.267-.272l-1.59.272v.809h-.267v-.272c-.721-.392-1.298.379-1.59.537-.149-.847-.261-1.13-1.062-1.346.149.657.28.594.528 1.08h-.528c-.422.398-1.559.297-2.385.272v-.537h-.527v.537c-.528-.088-1.062-.177-1.59-.271-.131-.638-.249-.639-.528-1.08.36-.316.261.202.528-.272-.348-.221-.311-.19-.528-.537h.528c.056-.638.112-.67.267-1.08-.752-.177-1-.5-1.323-1.08h.795c.174-.72.354-1.44.528-2.154-.348-.221-.311-.19-.528-.537-.565.328-.577.606-1.323.808v-.537h-.267v.809c-1.031.088-1.192.436-1.856.808-.056-.637-.112-.67-.267-1.08-.299.228-.038-.031-.268.272h-.267l.267.272-.267.808c-1.124-.196-1.273-.044-2.651 0l.267.809h-.267c-.218.353-.186.315-.528.537v-1.08c-1.348.075-1.167.48-2.652.536-.198.916-.565 1.245-1.589 1.346v-.537h-.267v.271c-.23.512-.268-.537-.268-.537a39.38 39.38 0 0 1-.794-.271l.267.537h-.528c-.422.398-.652.928-.795 1.617h-.795v-.537c-1.702.063-2.13.985-3.446 1.345.167-.739.347-.613.527-1.345-1.695.379-2.9 1.566-3.974-.272 1.192-.707.565-1.004.267-2.154h-1.062c-.223-.303.031-.037-.267-.271.081-.234.509-.594.267-1.08h-.267v-.272h-.795c-.447.745-1.136.543-1.59 1.08l-.267.809h-.794v.271c-.267.089-.528.177-.795.272v-.537c-.826.183-1.205.808-1.857 1.08h-1.062v.272a39.464 39.464 0 0 1-.795-.272v.537l-1.59.272v.271h-1.062c-.086.02-.068.373-.527.272v-.272h-.528v-.271l-1.857-.272c-.192.379-.478.815-.795 1.08v-1.08h-.267v.537a39.459 39.459 0 0 1-.795-.272c-.124.632-.441.834-.528 1.346h.267c.087.271.174.537.267.808-1.509.02-1.664-.284-2.651-.537-.391.733-.814 1.232-1.857 1.346v-.537h-.528v1.08h-.528v.271h-1.857v.272h-.527v.272c-.174-.089-.354-.177-.528-.272v.272h-.267c-.391-.323.223-.196-.267-.537.031.852.515.505-.267.808v-.537c-1.491.184-.857.67-1.59 1.08h-.528c-.087.272-.174.537-.267.81h-1.323v-.273c.659-.492.342-.208.267-1.08h-.527v.809c-2.304.006-2.708.467-4.77.537v-.537c-.354.177-.708.36-1.062.537.087.36.174.72.267 1.08-.689-.044-.906-.057-1.322-.272v-.271l-.795.271c-.044-.006-.093-.379-.528-.271v.271h-.528v.272h-.528v.271c-.366.247-.466.19-1.062.272v-.808h-.267v.271h-1.322c-.18.082-.013.348-.795.537a42.66 42.66 0 0 1-.267.809h.267c.391.328-.963.265-1.062.271v-.271c-1.062-.177-2.118-.36-3.18-.537.143-.752.205-.026 0-.809-.285.152-.552.727-1.062.537v-.271h-.267l.267-.538h-.267c-.304-.309 0-.107-.527-.271a42.416 42.416 0 0 0-.267-.809h.527a42.416 42.416 0 0 0-.267-.808h.267v.271c.23.512.267-.536.267-.536h.267v-.272c-.173-.088-.354-.177-.528-.272.087-.271.174-.537.268-.808h-.268v-.272h.795v-.271c-.347-.221-.31-.19-.527-.537.453-.303.36-.17.527-.809l1.062-.271c.031-.02.41-.998.528-.809v.537h.795c.248-.486.366-.423.528-1.08-.36-.316-.404-.493-.528-1.08h.528v-.537h.528v-.272c-.528.089-1.062.177-1.59.272v-.272c-.348.02-.664.462-1.323.272v-.272c-.528-.088-1.062-.177-1.589-.271v1.08h-.528v.537c-.267-.177-.528-.36-.795-.537v-.537l-.267.271c-.305.31-.106 0-.267.538h-1.062v.536c-.528-.088-1.062-.177-1.59-.271-.087.448-.174.897-.267 1.345-.646.152-.584.278-1.062.537v-.271c-.273-.234-.366-.468-.528-.81-.304.31-.105 0-.267.538-.528.088-1.062.177-1.589.271v.537c-.628.057-.659.114-1.062.272v-.537h.267l-.267-.808h-.267v.537c-.174-.089-.354-.177-.528-.272-.305.215-.106.638-.795.537-.087-.177-.174-.36-.267-.537h-.267v.537l-.795.271c-.137-.038-.162-.682-.528-.537-.267.36-.528.72-.795 1.08a39.459 39.459 0 0 1-.795-.271v.537h-.527v.537c-.299-.228-.038.031-.268-.272-.285-.246-.049.044-.267-.271h.267v-.272h-.794v.271h-.268v-.271h-.794c-.087-.177-.174-.36-.267-.537-.174.088-.354.177-.528.272-.36.107.112.29-.267.271v-.271h-.528c-.006.833.074 1.39.267 1.888h-1.062v.537h-.267v-.808h-.528l-.267.808c-.298-.227-.037.032-.267-.271h-.267l.267-.809c-.267.089-.528.177-.795.272v.271h-.528c-.087.177-.173.36-.267.537h-1.062v.272h-.267c-.13-.12.075-.436-.267-.272l-.267.537-1.322.272v-.537h-.267l-.267.537h-.267l-.267-.537c-.367-.17-.746-.133-1.062-.272-.019 1.042.043 1.112-.795 1.346v-.537h-.528v.537h-1.323l-.528 1.345h-.527v-.272c-.087-.012-.609.24-1.063.272.15-.657.28-.594.528-1.08h-.528l-.266.808-1.857-.271c-.28.139-.193.606 0 .808h-.528c-.23.278-.46.373-.795.537v-.808c-1.186.1-.77.17-1.857 0v.271c.305.31.106 0 .267.537h-1.323c-.068-.012-.086-.347-.527-.271v.271h-.528a42.46 42.46 0 0 1-.267.809c-.298-.228-.037.031-.267-.272-.298-.227-.038.032-.267-.272.347-.22.31-.19.528-.537h-1.062c-.236.285-.466.354-.795.537v.272l-.795-.272v.272c.348.221.311.19.528.537h-.528c-.311-.366-.484-.41-1.062-.537v.537c-.497-.19-1.037-.265-1.857-.272-.292-.562-.428-.48-.528-1.345h-.527v-.537c-.298.227-.038-.032-.268.272h-.267v.537l-.527.271v.809h-.267c-.267-.36-.528-.72-.795-1.08h-.267c-.348-.6.142-.752-.528-1.346.087-.36.174-.72.267-1.08 0 0-.342-.133-.267-.537h.267v-1.345s.161 0 .267-.537c.733-.196.59-.076.795-.809h.528v.272l.794-.272v-.537l1.323.272c.193-.745.075-.6.795-.809v-1.08h.267l-.267-.537h.267c.224-.303-.031-.037.267-.271v-.272c.255-.499.267.537.267.537l.795.272v-.272h-.267c.087-.271.174-.537.267-.808h1.59v.271c.621-.088 1.236-.177 1.857-.271v-.537h1.061v-.537c-.906-.013-1.831-.183-2.384-.272-.174.272-.354.537-.528.809l-1.59.271c.149-.657.28-.593.528-1.08h-1.062v.272h.267c.305.423-.652.252-.795.271v.809h-.267v.272c-.441.088-.881.176-1.322.271.087-.448.174-.897.267-1.345-.646.151-.59.278-1.062.537v.271c-.528-.177-1.062-.36-1.59-.537v.272c-.304.31-.105 0-.267.537-.435.082-1.155.562-1.323.537v-.272h-.795c-.366-.076.1-.353-.267-.271l-.267.537h-.528l.267-.537h-.267c-.304.31 0 .107-.527.271v.537a88.69 88.69 0 0 0-1.323.272c-.05-.013-.087-.386-.528-.272v.272h-.528v.271c-.261-.057-.31-.726-.528-.537-.434.367.292.518-.795.809v.809h-.267v-.537h-.267c-.086.176-.174.36-.267.537h-1.062c-.316-.588-.583-.891-1.322-1.08v.27h-1.062l-.267.538-.795-.272v.809h-.528c-.652 1.13-.59.316-1.323.808.087.177.174.36.267.537-.527-.088-1.061-.177-1.589-.271-.025.006-.137.467-.528.536v-.271h-1.062l-.267-.272v.272c-.751.492-.776.777-2.118.808-.298-.46-.167-.366-.795-.537v.537h-.527v-.271c-.336-.108-.696.764-.795.808-.547.246-.758-.234-1.062-.271v.271c-.528.089-1.062.177-1.59.272l-.267-.809c-.733.196-.59.076-.795.809-.795.088-1.59.177-2.385.271l-.267.537h-1.856v.272c-.69.208-1.236.025-1.857.272-.149-.657-.279-.594-.528-1.08-.298.227-.037-.032-.267.271-.931.67-.062.96-1.323 1.345v.272h-1.322l-.267.537c-.59.24-.746-.335-1.062-.272v.272c-.528.107-.336-.12-.528-.272h-.267v.537a38.847 38.847 0 0 1-.795-.271v-.272l-.795.272v-.272h-1.062l-.267-.537c-.372 0-.124-.082-.267.272-.329-.31-.099 0-.267-.537h1.062v-.537h-1.062c-.248-.486-.366-.423-.528-1.08h.528c-.155-1.112-.286-1.289-.795-2.426-.348.14.075.108-.267.272h-.795v.271c.534.152.23-.031.528.272-.757-.025-1.136-.05-1.59-.271v.271c.305.31.106 0 .267.537-1.298 0-1.509.31-2.384.537v-.809h-.267v.272h-.267l-.528-.272v.809h-.795v-.537h-.267v.537h.267v.808c-.882-.006-1.198-.139-1.857-.271v.537c-.627-.032-.671-.082-1.062-.272v.272c-.304.31-.105 0-.267.537-1.397-.158-.608-.582-1.857-.272v-.537c-.422-.063-.335.461-.527.537-.994.379-1.814.152-2.652 0v.809l-.528-.272v.272c-.534.46.025.41-.267.808h-.267c-.64-.973-2.478-.164-3.707 0v.808c-.497-.138-1.447-.966-1.857-.808v.272h-.267v.808c-.795.089-1.59.177-2.385.272v.537h.267c-.087.271-.174.537-.267.808-.627-.031-.67-.082-1.062-.271v.271h-.267v-.808h-.528v.808h-.267v-.271h-1.061v.271l-.528-.271v.271c-.584.183-.876.082-1.323.272v.808c-1.323.202-1.31.24-2.385-.537l-.267.809H81.93v.271c-.355.089-.709.177-1.062.272v-.537h-.528c-.162.948-.286 1.238-1.323 1.346v-.272c.304-.31.106 0 .267-.537a68.878 68.878 0 0 1-1.062-.271v-.272c-.503-.158-.366.151-.528.271l-.795-.271v.271h.267v1.08h-.527v-.536c-.727.43-.479.663-1.59.808-.193.745-.075.6-.795.809-.714.859-1.546.65-2.652.537v-.537h1.062a41.72 41.72 0 0 0-.267-.809c-.404.158-.435.209-1.062.272-.043-.733-.087-1.624-.528-1.889v-.271c.193-.285.205.233.528-.272h-.528c-.472-.284.528-.272.528-.272-.149-.657-.28-.593-.528-1.08h.795c.218.354.187.316.528.537-.646-1.415-.975-2.722 1.323-2.697.304.31 0 .107.528.272.087-.449.174-.897.267-1.346h-.528v.537h-.528l.267-.808h-.267c-.199.511.186.278-.267.537-.348-.316.317-.411-.267-.537v.537l-.528-.272v.272h.267c-.174.36-.354.72-.528 1.08h-.267v-.809h-.267v.272h-.795c-.174.271-.354.537-.528.808h-.527v.272h-.795v.271h-.528v.272c-1.068.385-1.87-.373-2.385 0-.72.474-.838 1.49-1.062 1.617h-2.384c-.305-.31 0-.107-.528-.271v-.537h-.267c.087.36.174.72.267 1.08h-.267c-.503.442-1.404.284-2.118.537v.271c-.39.127-1.037-.29-1.062-.271v.537h-1.322c-.267.631-.528 1.257-.795 1.888h-.267v-.808h-.528c-.056.638-.112.67-.267 1.08-.298-.228-.037.031-.267-.272-.304-.31-.106 0-.267-.537.453-.303.36-.17.528-.808h-.795v1.617c-.441-.089-.882-.177-1.323-.272V32.7c.304-.31.106 0 .267-.537h-.528l.267-.537h-.267c-.304.31 0 .107-.528.271-.068.525-.26.525-.267.537-.422 1.327.236 1.725-1.322 1.889v-.537c-.367.133-.584.107-1.062.271v.272a38.83 38.83 0 0 1-.795-.272v.272h-.528l.267.537h-1.59v.272c.305.31.106 0 .267.537-.428-.02-1.857-.272-1.857-.272-.086.177-.173.36-.267.537-.72.398-.844.07-1.322 0v.272h-.528l-.267.536c-.441.089-.882.177-1.323.272v.271a64.588 64.588 0 0 1-1.062-.271c-.44.088-.882.177-1.322.271v.272c-.79.228-1.075-.43-1.59-.537v.272c-.304.31-.106 0-.267.537h-1.062l-.267-.272c-.137.063-.075.48-.528.537v-.272l-.795-.271v.271c-.267.089-.528.177-.795.272v-.537c-.478.253-.416.373-1.062.537v.537h-.267v-.809c-1.49-.019-2.627-.644-3.18-1.617l.529-.271c.018-.38-.261.114-.267-.272.087-.448.174-.897.267-1.345h.527c-.583-1.68.653-2.615.795-4.314a15.7 15.7 0 0 1 2.913-.272v-.808h.795c.18-.79.292-.885 1.062-1.08v-.538c1.546-.36.149-.682 1.59 0v-.536c.59-.114.906-.26 1.322-.537v-.272c.528-.05.186.41.528 0 .304-.31.105 0 .267-.537h.528c.304-1.092.54-.537 1.062-1.345.528.177 1.062.36 1.59.537v-.272h.267v-1.08c-1.522.032-1.944.221-3.18 0-.15.847-.26 1.13-1.062 1.346v-.537h-.528v.808c-.54.29-1.043.796-1.857.809l-.267-.272c-.956.733.087 1.257-1.856 1.345l.267-1.08h-.528v.272h.267c.019.095-.453.973-.528 1.345h-.528v-.537h-.528v.537l-.267-.271c-.528.177-1.062.36-1.59.537-.086.176-.173.36-.266.536-.348.152.055-.202-.268-.271a41.32 41.32 0 0 0-.794.271v-.271h-.795v-.272h-.267v.272s-.733-.246-1.062-.272c-.174.449-.354.897-.528 1.346-.23-.082-.584-.518-1.062-.272v.272h-.267v.808h-.267v-.808h-.267v1.08c.043.379.28-.114.267.271l-.267.272c-.46-.234-.093-.032-.267-.537h-.267v.537l-1.323.271.267-.536h-.267c-.41.467-.478.265-1.062.537v.271c-.39.152-1.012.07-1.062-.271h-.267v.808h-.267v-.272h-.267v.537h-.528v.537c-.67-.215-1.639-.019-2.912 0-.087.632-.174 1.257-.267 1.889h-.528v-.537c-.404.158-.435.208-1.062.272v.808c-.528.177-1.062.36-1.59.537v.272h-.527v.271c-1.298.5-1.603-.417-2.385.809h-.267l.267.271a41.72 41.72 0 0 1-.267.809c-.354-.089-.708-.177-1.062-.272v.809c-.938.1-.807.334-1.59.537v-.537h-.267v.808c-.528.089-1.062.177-1.59.272l-.267.808H5.07a40.98 40.98 0 0 1-.268.809h-.266v-.809h-.267L4 40.778l-.795-.271v-.272c-.516-.133-.354.152-.528.272l-1.062-.272.267-.272v-.271h-.267v-.809h.267v-.271h-.528c-.006-.897-.137-1.22-.267-1.889H.56c-.472-.284.528-.271.528-.271.087-.272.174-.537.267-.809 1.366.063 1.31.512 1.323-1.08.44-.089.882-.177 1.323-.272v-1.08l.794-.271c.305-.31 0-.108.528-.272v.537h.528v-.537c.267.088.528.177.795.272v-.537h-.267l.267-.809h.267v-.271h.795c-.006-.38.056-.076-.267-.272v-.272h.795v-.271h.267l.267.537c.882.176 1.763.36 2.651.536.025-1.01.243-1.238.528-1.888.267.088.528.177.795.271v-.536h.795l-.267.537h.267v-.272h.528c.292-.234.118-.65.528-.809.236.24.099.455.527.537.174-.271.355-.537.528-.808h.795v-.272h.267v-1.08h.528v.537c1.13-.107 1.199-.556 2.118-.809.21-.871.49-.928.527-2.154h2.385v.272l.795-.271v-.272c.398-.108.36.48.528.537l.795-.272v.537h.267v-.537c.298-.227.037.032.267-.271l-.528.271v-1.08h.267v-1.08h1.323l-.267.808h.795c.422-.524.962-.72 1.322-1.345.274.234.367.467.528.809.267-.177.528-.36.795-.537v-.272h.528l.267-.537c.174.089.354.177.528.272.354-.272-.323-.455.267-.537v.272c.267.088.528.176.795.271v-.537c-.305-.31-.106 0-.267-.537.683.127 1.173.26 2.117.272.379-.575.696-.543 1.323-.809l-.267-.808h1.062v-.272h.267v.272h.528v-.537c1.503-.044.987-.417 1.857-.809h1.062v-.271c.304-.31.105 0 .267-.537h.794v.537h.528c.218-.866.31-.783 1.323-.809v.537c.62-.29.863-.619 1.59-.808v-.809h.528v-.537c1.397.007 2.092-.315 3.179-.537.193.746.075.6.795.809a41.052 41.052 0 0 0-.267-.809h.267c.292-.379.925-.789 1.323-1.08v-.271h.794v.271h.267v.809h.268c.087-1.074.273-1.245 1.322-1.346v.272c.354.126-.1-.17.267-.272 1.062-.176 2.118-.36 3.18-.536-.267-.84-.15-.411 0-1.346.646-.151.584-.278 1.062-.537v.272h.267c.21.398-.267.537-.267.537l.267.537c.608-.518.335-.809 1.322-1.08.087-.272.174-.537.268-.809.757.316 1.248.512 2.384.537.267-.537.528-1.08.795-1.617h.528l.267.537 1.857-.537v-.272h1.856l.267-.537h.528c.168-.739.348-.612.528-1.345.354.088.708.177 1.062.272V7.06c.292-.24.056.044.267-.272h-.267c-.26-.448.379-.227.528-.271v-.272c.267.089.528.177.795.272-.087.177-.174.36-.267.537h.267c.832-.973 1.559 0 2.652.271.18-.353.329-.29.527-.537l-.267-.536h.528V5.98l.528-.272c.037-.379-.056.045-.267-.271l.267-.537c.894.19 1.018.587 1.857.808V4.9c.726.17.602.354 1.323.537v-.809c.291.089.521.48 1.061.272v-.272h.795v-.271c.528-.449 1.062-.897 1.59-1.346v-.537h.528v.272c.366.076-.05-.057.267-.272l.528.272-.267.808c1.478.114 2.229.48 3.18-.537-.523-.303-.622-.378-.796-1.08l.795-.271c.087.177.174.36.267.537h.528v-1.08c.578.113.758.176 1.062.536l1.59-.536-.267-.537h1.322V.05l.13.063Zm-2.646 4.042v.537h.267v-.537h-.267Zm236.073.537v.537h.267v-.537h-.267Zm-235.278.809v.537h.267V5.5h-.267Zm-3.707.537v.537h.267v-.537h-.267Zm232.359.808c.304.31-.001.108.527.272-.304-.31 0-.107-.527-.272Zm-20.928.272c.304.31 0 .107.528.272-.305-.31 0-.108-.528-.272Zm-223.354.808c.025.916 0 .98.528 1.346V9h-.267V7.92h-.267l.006.006Zm219.379.272c.305.31.001.107.528.272-.304-.31 0-.108-.528-.272Zm-28.882.265V9h.267v-.537h-.267Zm18.549.272-.267.537s.77-.43.528-.537h-.267.006Zm27.287 0h.527c-.223.303.032.038-.267.271v.272c-.304-.31-.105 0-.266-.537l.006-.006Zm-234.483.271c.305.31 0 .108.528.272-.304-.31 0-.107-.528-.272Zm148.642.266v.537h.267v-.537h-.267Zm-145.723 1.08v.271h-.267c-.503.234.528.272.528.272.224-.303-.031-.038.267-.271-.304-.31 0-.108-.528-.272Zm203.482 0v.271h-.267c-.503.234.528.272.528.272.224-.303-.031-.038.267-.271-.304-.31 0-.108-.528-.272Zm67.826 0v.271h-.268c-.503.234.528.272.528.272.224-.303-.031-.038.267-.271-.304-.31 0-.108-.527-.272Zm-177.519.271v.537h.267v-.537h-.267Zm-65.44.266v.537h.267v-.537h-.267Zm67.825 0v.537h.267v-.537h-.267Zm49.015 0c.447.58.528.537.528.537.193-.26-.46-.474-.528-.537Zm67.832 0c.447.58.528.537.528.537.192-.26-.46-.474-.528-.537Zm18.81 0v.537h.267v-.537h-.267Zm49.015 0c.447.58.528.537.528.537.192-.26-.46-.474-.528-.537Zm-290.919.543h-.527v.272h.267v.271h.267v-.537l-.007-.006Zm3.447 1.617h.528c-.087-.36-.174-.72-.267-1.08h-.267v1.08h.006Zm203.482 0h.528l-.267-1.08h-.267v1.08h.006Zm67.825 0h.528l-.267-1.08h-.267v1.08h.006Zm-274.22-.543v1.08h.268v-1.08h-.267Zm67.826 0v1.08h.267v-1.08H135Zm135.657 0v1.08h.267v-1.08h-.267Zm39.209.543v.809h.268a2.632 2.632 0 0 1 1.061-1.08v-.272h-.528c-.298.46-.167.366-.794.537l-.007.006Zm28.616-.543v1.08h.267v-1.08h-.267Zm-151.815.271v.537h.267v-.537h-.267Zm67.825.537h.528v-.271c-.298-.228-.037.031-.267-.272h-.267v.537l.006.006Zm-148.108-.265v.809h.267v-.809h-.267Zm67.826 0v.809h.267v-.809h-.267Zm116.052 1.074c.192.745.074.6.794.808.168-.739.348-.612.528-1.345h-.267c-.335.511-.267.448-1.062.537h.007Zm2.384-.537v.537c.696-.02.901-.107 1.323-.272v-.271h-1.323v.006Zm-139.892.271v.81h.267v-.273c.298-.227.037.032.267-.271l-.528-.272-.006.006Zm67.826 0v.81h.267v-.273c.298-.227.037.032.266-.271l-.527-.272-.006.006Zm67.825 0v.81h.267v-.273c.298-.227.037.032.267-.271l-.528-.272-.006.006Zm67.831 0v.81h.267v-.273c.298-.227.038.032.267-.271l-.527-.272-.007.006Zm-169.836.266v.537h.267v-.537h-.267Zm122.939 0c.447.58.527.537.527.537.193-.26-.459-.474-.527-.537Zm-140.159.543v.809h-.528v.536l.528-.271.267-.809c.298-.227.037.032.267-.271h-.528l-.006.006Zm11.128 0v.537h.267v-.537h-.267Zm67.825 0v.537h.267v-.537h-.267Zm41.601.537h-.795v.537h.528c.248-.486.366-.423.527-1.08h-.267v.537l.007.006Zm26.224-.537v.537h.268v-.537h-.268ZM147.19 15.74v-.537c-.298.227-.037-.032-.267.272h-.267c.304.309 0 .107.528.271l.006-.006Zm67.031-.537v.808h.267c.304-.31-.001-.107.527-.271v-.537h-.794Zm37.619.537v-.537h-.794v.272h.267c.304.309 0 .107.527.271v-.006Zm31.001 0v-.537c-.298.227-.038-.032-.267.272h-.267c.304.309 0 .107.527.271l.007-.006Zm20.933-.537v.537c.299-.228.038.031.267-.272h.267c-.304-.31.001-.107-.527-.271l-.007.006Zm37.62.272v.536h.268v-.536h-.268ZM166 16.547h.528c-.224-.303.031-.038-.267-.271v-.537h-.267v.808H166Zm-74.718-.537v.537h.267v-.537h-.267Zm67.831 0v.809h.267v-.809h-.267Zm135.651 0v.537h.267v-.537h-.267Zm51.667 0c.304.31.105 0 .267.537h-.267v-.537Zm16.164 0v.537h.267v-.537h-.267Zm-308.406.272v.537h.268v-.537h-.268Zm67.826 0v.537h.267v-.537h-.267Zm135.657 0v.537h.267v-.537h-.267Zm67.825 0v.537h.267v-.537h-.267Zm-187.051.265c.025.057.379.98.528.809v-.272h.267c-.229-.278-.459-.372-.795-.537Zm68.353 1.352h.528v-.537h-.528l.268-.537a39.459 39.459 0 0 1-.795-.271v.271c.36.316.403.493.527 1.08V17.9Zm-69.942-1.08.267.808h.267c-.162-.644-.087-.499-.528-.808h-.006Zm67.825 0c.087.271.174.537.267.808h.267c-.161-.644-.087-.499-.528-.808h-.006Zm5.036 0h-.528c.224.303-.031.038.267.272v.271h.268v-.537l-.007-.006Zm104.657 1.08h.528v-.537h.267c-.087-.177-.174-.36-.267-.537-.298.228-.037-.031-.267.272h-.267v.808l.006-.006Zm-221.237-.808c.305.31 0 .107.528.271-.304-.31 0-.107-.528-.271Zm45.041 0v.808h.267v-.808h-.267Zm67.826 0v.808h.267v-.808h-.267Zm5.036 0h-.528c.224.303-.031.037.267.271v.272h.267v-.537l-.006-.006Zm30.733 0v.808h.267v-.808h-.267Zm67.832 0v.808h.267v-.808h-.267Zm-268.135.265v.537h.268v-.537h-.268Zm12.451 0v.537h.267v-.537h-.267Zm67.832 0v.537h.267v-.537h-.267Zm17.748.543v-.537c-.298.227-.037-.031-.267.272h-.267c.304.31 0 .107.528.271l.006-.006Zm50.077-.543v.537h.267v-.537h-.267Zm20.4 0v1.617h.267v-1.617h-.267Zm33.913 0v.537h.267v-.537h-.267Zm1.062 0v.537h.267v-.537h-.267Zm12.451 0v.537h.267v-.537h-.267Zm54.318 0v.537h.267v-.537h-.267Zm1.062 0v.537h.267v-.537h-.267Zm12.451 0v.537h.267v-.537h-.267Zm-277.933.271c.304.31 0 .108.527.272-.304-.31 0-.107-.527-.272Zm67.825 0c.304.31 0 .108.528.272-.305-.31 0-.107-.528-.272Zm203.482 0c.304.31 0 .108.528.272-.304-.31 0-.107-.528-.272Zm-184.672.537.267.809h.267c-.162-.644-.087-.5-.528-.809h-.006Zm67.831 0c.087.272.174.537.267.809h.267c-.161-.644-.086-.5-.527-.809h-.007Zm17.221.272v.537h.267v-.537h-.267ZM51.538 19.782c-.193-.745-.075-.6-.795-.808.087.36.174.72.267 1.08h.795v.272c.373.05-.1-.19.267-.272h1.062v-1.08c-.298-.227-.038.031-.267-.272h-.528v.272h.267c.087.486-.658.707-1.062.808h-.006Zm34.447-1.073-.267.537s.77-.43.527-.537h-.267.007Zm203.482 0-.267.537s.77-.43.527-.537h-.267.007Zm-248.79 1.345h.527v-.272c-.298-.227-.037.032-.267-.271h-.267v.537l.006.006Zm9.271-.537v.537c.298-.227.037.032.267-.272h.267c-.304-.31 0-.107-.528-.271l-.006.006Zm58.554.537h.528v-.272c-.298-.227-.038.032-.267-.271h-.267v.537l.006.006Zm9.278-.537v.537c.298-.227.037.032.267-.272h.267c-.305-.31 0-.107-.528-.271l-.006.006Zm67.825 0v.537c.298-.227.037.032.267-.272h.267c-.304-.31 0-.107-.528-.271l-.006.006Zm126.385.537h.528v-.272c-.298-.227-.037.032-.267-.271h-.267v.537l.006.006Zm9.272-.537v.537c.298-.227.037.032.267-.272h.267c-.304-.31 0-.107-.528-.271l-.006.006Zm-275.55 1.617v-.537l-.794.272.267 1.08h-.267v.271c-.621.089-1.236.177-1.857.272v.537c.348.05 1.646.329 1.857.272l.267-.537.795.271c.087-.448.174-.897.267-1.345h.267c.304-.31 0-.108.528-.272v.537h1.322v-.537h.528c-.174-.537-.354-1.08-.528-1.617h-.267l-.267.809c-.378.271-1.527.486-2.117.537v-.013Zm29.94-1.352v.809h.266v-.809h-.267Zm-35.503.544v.537h.267v-.537h-.267Zm41.333 0v.537h.267v-.537h-.267Zm26.492 0v.537h.267v-.537h-.267Zm67.825 0v.537h.267v-.537h-.267Zm78.693 0c.304.31 0 .107.528.271-.304-.31 0-.107-.528-.271Zm30.472 0v.537h.267v-.537h-.267Zm26.492 0v.537h.267v-.537h-.267Zm-240.841.265c.304.31.105 0 .267.537h-.267v-.537Zm67.564.271c.298.462.168.367.795.537-.23-.278-.459-.372-.795-.537Zm30.206.537h.527v-.271c-.298-.228-.037.031-.267-.272h-.267v.537l.007.006Zm-98.298-.265h.528v.272c-.534-.152-.23.031-.528-.272Zm73.924 0c.304.31.105 0 .267.537h-.267v-.537Zm71.271 1.074h-.528v-1.08h-.266v.271c-.305.31-.106 0-.267.537.267.177.527.36.794.537.224.303-.031.038.267.272v-.537Zm-73.656-.809v.537h.267V21.4h-.267Zm-86.909.544v.537h.267v-.537h-.267Zm67.832 0v.537h.267v-.537h-.267Zm58.554.265c.304.31 0 .107.527.272-.304-.31.001-.108-.527-.272Zm-94.063.808v-.536c-.298.227-.037-.032-.267.271h-.267c.304.31 0 .107.528.272l.006-.007Zm135.657 0v-.536c-.298.227-.037-.032-.267.271h-.267c.304.31 0 .107.528.272l.006-.007Zm-159.236.544v.537h.267v-.537h-.267Zm5.303 0v.537h.267v-.537h-.267Zm-19.872.265v.537h.267v-.537h-.267Zm21.195.543c-.012 1.093-.124 1.162.528 1.617v-.271c-.447-.582.205-1.302.528-1.89h-.267c-.298.462-.168.367-.795.538l.006.006Zm4.77-.543c.303.31 0 .107.527.271-.304-.309 0-.107-.528-.271Zm13.773 0a40.4 40.4 0 0 1-.267.808h.267v-.271c.112-.158.435-.038.267-.537h-.267Zm28.088 0v.537h.267v-.537h-.267Zm89.026.543c-.013 1.093-.124 1.162.528 1.617v-.271c-.447-.582.205-1.302.527-1.89h-.267c-.298.462-.167.367-.794.538l.006.006Zm4.769-.543c.304.31 0 .107.528.271-.304-.309 0-.107-.528-.271Zm-118.437.271v.537h.268v-.537h-.267Zm29.678.537h.528v-.271c-.298-.228-.038.031-.267-.272h-.267v.537l.006.006Zm38.154-.537v.537h.267v-.537h-.267Zm23.579 0c.305.31.106 0 .267.537h-.267v-.537Zm-58.293.272c-.087.177-.174.36-.267.537l.528.272c.193-.323-.559-.234 0-.809h-.267.006Zm-32.59.265-.267.809h.267v-.537h.267v-.272h-.267Zm67.832 0-.267.537s.77-.43.528-.537h-.267.006Zm-139.103 1.08h.527v-.271c-.298-.227-.037.031-.267-.272h-.267v.537l.006.006Zm149.169 0h-.528c.224.304-.031.038.267.272v.272h.267v-.537l-.006-.006Zm-140.159.537v.537h.267v-.537h-.267Zm38.154 0v1.08h.267v-.271h.267c-.087-.177-.174-.36-.267-.537h.267c-.304-.31 0-.107-.528-.272h-.006Zm97.503 0v.537h.267v-.537H166Zm40.005 0c-.305.31 0 .108-.528.272v.272h.528c.087-.177.174-.36.267-.537h-.267v-.007Zm-123.467.809-.267.537s.77-.43.528-.537h-.267.006Zm-10.066.543v.537h.267v-.537h-.267Zm5.83 0v.537h.268v-.537h-.267Zm-12.457.537h.529c-.218.354-.187.316-.528.537v.272h-.267l.267-.809Zm9.278 0-.267.537s.77-.43.528-.537h-.267.006Zm-20.406 1.08v.537h.267v-.537h-.267Zm-20.4 1.345v.537h.268v-.537h-.267Zm5.832.272v.809h1.062v.537h.794c.218-.354.187-.316.528-.537v-.809c-1.105.196-1.111.07-2.384 0Zm-21.462.537c.304.31 0 .107.528.272-.304-.31 0-.108-.528-.272Zm54.847.272v.537h.267v-.537h-.267ZM7.82 35.953a40.98 40.98 0 0 1-.267.808h.267v-.537h.267v-.271H7.82Zm34.18.271v.537h.266v-.537H42Z" fill="#FDE6AD"/></svg>