<svg width="402" height="45" fill="none" xmlns="http://www.w3.org/2000/svg"><path fill-rule="evenodd" clip-rule="evenodd" d="M98.694.07c1.392.297 1.598 1.06 3.217 1.185.234-.45.583-1.123 1.461-.888v.299c.748.277.33-.299.879.298h.294v1.185l.584.298v.59h.295c.096.298.192.589.294.887h-1.173v.887c-.809.215-.651.083-.878.888-1.022.25-1.365.748-2.634.887.021.777.117 1.005.295 1.477-1.001-.077-2.298-.236-2.34-.298v.589h.296c.926.007-.878.298-.878.298-.37-.465-.782-.721-1.461-.887-.44.804-1.016 1.261-2.051 1.476v-.589l-.584.298c-.171.45-.226.485-.295 1.186-.617.048-1.77.263-2.05.589-.358.416.26.326-.584.887v-1.185h-.295v1.185h-.878v-.59c-.446.174-.48.23-1.173.299v-.59l-.878.299c-.192.506-.281.929-.295 1.775H86.4s-.295.471-.584.589v.298h-.294v-.59h-.584v-.297h-.295v.298h-.878v.298c-.507.457-.617 1.386-.878 2.073-1.077-.104-1.927-.52-2.634.298-.096.298-.192.59-.295.887-.782.097-1.564.194-2.34.298v.299l-.582.297v.59l-.878-.298-.295.589h-.878c-.048.028-.344.444-.584.59v.297c-.487-.097-.974-.194-1.46-.298v-.298c-.172-.02-1.002.5-1.462.59-.199.561-.377 1.809-.583 2.363l-.878-.298v-.298c-.405-.076.116.215-.295.298-.7.139-.755-.221-1.173-.298l-.583.888h-1.173v.298l-.878.298v.887h.583v.298h-.295c-.158.139-2.347.75-2.34 0h-.295v.59l-1.46-.299c.013 1.061-.07 1.865-.584 2.365v-.299h-.295v-1.185h-.583c-.02.776-.117 1.005-.295 1.477-.61-.18-1.194-.333-1.756.298v.589h-.295v.298l-1.756-.298c-.096.194-.192.395-.295.59-.391.096-.782.194-1.173.297v.59h-1.173v.589c-.7-.139-.92-.34-1.462-.59v1.477c-.686.097-1.365.194-2.05.298v.299c-.858.2-.961.325-1.174 1.185.412.02-.041-.048.295-.298.46-.34.274.728.295.887-.5.333-.398.188-.583.888.391-.097.782-.194 1.173-.298l.295-.59c.055-.007.686.278 1.173.298v-.589c.295.097.583.194.878.298l.295-.589c.357-.173.858-.16 1.173-.298v-1.186c.693-.118 1.612-.561 2.634-.298v.298h1.174v-.298h.583v-1.185h.583v.589c.878-.194 1.756-.395 2.634-.59l.295.299c.803-.569.267-1.012 1.756-1.186.336.34 0 .118.583.299v-.888l1.462-.298v-.59c.967.16 1.33.375 1.756 0h.295c.37-.457-.316-.595.295-.887v.298h.295v-.887c.644-.104 1.516-.388 2.339 0 .096.194.192.395.295.59h.583v-.59c.59.166.254-.035.583.298l.878-.298v-.298h.878c.192-.298.391-.59.583-.887.487.097.975.194 1.462.298v.298c.212.041 1.077-.264 2.05-.298l-.294-.888h.583v.298h1.173l.295.299v-.299l.878-.298c-.02-.776-.117-1.005-.295-1.476h1.756c.336-.34 0-.118.583-.298.227-.888.179-.777 1.173-.888.33.506.186.402.878.59.296-.742.604-1.546 1.174-1.186h.294v.887h.584c.212-.818.082-.658.878-.887v-.298l1.756-.298s.13.43.583.298l.295-.59h.878v-.589l.583.298v.299c.384.145.062-.14.295-.299.734-.2.474-.152.878-.589h.295v-.59l.583-.297c.343-.375.494-.86.879-1.186v.298h.877c.096.396.193.79.296 1.186h.294c.714-1.206 1.64-1.096 3.218-1.477.089-.02.075-.409.583-.298v.298c.583.194 1.173.395 1.756.59v-.299h.295l-.295-.887c.192-.097.391-.194.583-.298.405-.617-.13-.416.583-.888v-.298l1.461-.298c-.157.825-.226.028 0 .888h.296v-.59c.583.097 1.172.194 1.756.298v-.298c.315-.27.055.049.295-.298h-.295v-.298h.878c.061.7.123.735.295 1.186.336-.34.116 0 .295-.59.336-.34.116 0 .295-.589.878-.298 1.756-.59 2.634-.887l.295.298c.096-.957.268-.867.583-1.477h.583v.298h.295v-.298h1.173l.295-.887c.762.312 1.235.54 2.339.589-.096-.194-.192-.395-.295-.59.199-.325 1.647-.415 2.052-.887l-.295-.589h.295v-.298c.775.347 1.104.568 2.339.59v-.299h-.295v-.887c.926.194.59.45.878.589.343-.02 1.043-.596 1.756-.298l.295.59h.583c-.281.977-.274 1.74.295 2.661h-.295c-.336.34 0 .118-.583.298v1.477h-.295c-.075.492.275.513.295.59v1.476c-1.049.042-1.66.423-2.339.59l-.583-.299c-.192.298-.391.59-.583.888-.165.069-1.599-.222-2.052-.298-.178.776-.829 1.566-1.756 1.476 0 0-.157-.374-.583-.298l.295.59h-1.173c-.096.492-.192.984-.295 1.476l-1.461-.298-.295.59c-.789.2-.768-.57-.878-.59l-.878.298.295.298c.014.118-.261.666-.295 1.186-.974.097-1.949.194-2.93.298v-.59c-.692-.062-.727-.124-1.173-.298v.888c-.061.125-2.01 1.49-.878 2.073h-.878v-.299c-.281-.547-.295.59-.295.59-.329.25-.041-.035-.295.298.824-.277.817-.312 1.757 0v.298l.878-.298-.295-.298.295-.888c1.372.534 2.277.174 3.217-.589.096-.194.192-.395.295-.59h1.461s-.027-.172.583-.297v.887h.295v-.59c1.249-.02 1.942-.062 2.634-.588l.295-.59c.487.097.975.195 1.462.298-.336-.34 0-.117-.583-.298v-.589c.295.097.583.194.878.298v-.59h.583v.59c1.694-.139 2.908-1.102 4.095-1.775v.888h.583v-.59h2.052v-.298h.877v-.298c.584.097 1.174.194 1.757.298.247-.332-.035-.041.295-.298v-1.185c.583-.097 1.173-.194 1.756-.298-.096.298-.192.589-.295.887h.295v.298c.329-.25.041.035.295-.298.336-.34.117 0 .295-.59.46.022 2.051.299 2.051.299v-.298h.295v-.888c.322-.416 1.317-.305 2.051-.298v.298l1.756-.298v-.298h.583v-.298h.878l-.294.887h.294c.213-.818.083-.658.879-.887v.59c.295-.098.583-.195.878-.299v-.298c.686-.097 1.365-.194 2.051-.298v-.298h.878l.295-.59c.247-.096 1.928.313 2.339.59v-.59l.878-.297v-.299c.398-.124-.116.215.295.299.487.097.522-.285.583-.299.535-.11 1.132.389 1.462.59v-.298c.912-.84.068-1.255 1.756-1.477v.298h.878l-.295.59c.377.478.549-.326.878.887.384-.312.439-.603.878-.888v.888h.583c-.096-.59-.192-1.186-.295-1.775 1.372-.472.988.229 1.756-1.477h.295c-.034.631-.302 1.012-.295 1.186l.295.298c.535-.374.035-.402.295-.59.336-.249.185.271.295.299.295-.097.583-.194.878-.298v-.59c.659-.118 1.125-.485 2.052-.298 0 0 .013.388.583.298v-.298h1.461v.298c-.7.18-.542.097-.878.59h.583c.844-1.408 2.25-.915 3.807-1.477l.295-.887c.837 0 1.256.104 1.756.298V8.63h.295c.192.298.391.59.583.888h.295l-.295.589h.295v.298c.837.61.755-.527 1.173.887h.583v.59h.584c-.096.298-.192.589-.295.887h.295c.199.444.205.492.295 1.186h.583v.589c.452.263.61.437.878.887.947-.52.556-.707 1.756-.298l-.295-.887h.583v-.59h.583v.299h.295v-.299l.878.299-.295.887h.583c.213-.818.083-.659.879-.887.439-.52.788-.562 1.756-.59v-.59c.583-.193 1.173-.394 1.756-.588.02.776.117 1.005.295 1.476.329-.25.041.035.295-.298h.295v-.887c.878.097 1.756.194 2.634.298v-.59h.583l.295-.887c.391.097.782.194 1.173.298.096-.194.192-.395.295-.589l1.461.298v.59c.748-.458 2.017-1.838 2.93-1.186h.583v.59h.295v-.59c1.406-.076 1.413-.208 2.634 0 .096-.492.192-.984.295-1.477 1.351-.256 2.374-.256 3.217 0v-.589h1.756v.298h.879v.298c.295-.097.583-.194.878-.298v-.298c-.337-.34-.117 0-.295-.59.96.022.864.375 1.461 0l.295-.589 1.756.59v.589c.789 0 1.66.097 2.051-.298v-.59l.583.299v-.298c.583-.097 1.173-.194 1.756-.298.275.18-.102.422.295.298l.295-.59c.371 0 .748.527 1.462.298v-.298c.487-.097.974-.194 1.461-.298l-.295.888h.295c.651.714.549.416 1.461.298-.034.936-.569.554.295.887.13.735.267 1.089.295 2.073-.81.215-.652.083-.878.887h-.295v1.477c-.7.139-.919.34-1.461.59v-.888h-.295c-.433 1.657-.508.61-1.461 1.185v.299l-1.174.887c.097-.298.193-.59.295-.887h-.295c-.178.471-.26.7-.295 1.476-1.104.236-1.639.576-3.217.59v-.59h-.583v.59h-1.461v.298h.295c-.185.422-.343.221-.583.589h-.583l.295-.59h-.295c-.289.403-.172.583-.879.59 0 0-.205-.423-.583-.298-.096.194-.192.395-.295.589h-.583l-.295 1.775-1.173.298v-1.186h-.583c-.212.95-.398 1.075-1.461 1.186l.295-.887h-.295c-.11.34-.082 1.053-.583.887l-.295-.887c-.295.097-.583.194-.878.298v.589c-.467-.18-.693-.264-1.461-.298v-.888h-.295v.888c.336.34.116 0 .295.59-.686.096-1.366.193-2.052.297v.59c-1.035.11-.891.367-1.756.589v.887c-.713-.166-.645-.312-1.173-.59v.59h-.295v.887h.295v-.589h.583v.59c.487-.098.974-.195 1.461-.299v.888h.584v-.888c.487.098.974.195 1.461.299.137-.708.336-.93.583-1.477.953.007 2.113-.132 2.634.298h.295c.096-.194.192-.395.295-.59h.583v-.297h.583v-.299l.583.299v-.299h2.93a43.851 43.851 0 0 0-.295-.887h.583v-.298h.295v.298l.878.298c.02.416.068.083-.295.298.329.312 0 .132.583.298v-.298h.295v-.887h.295c.254-.41.219-.513.295-1.186.693-.034.741-.09 1.173-.298v.298h.295v.299l-.295.589h.878v-.59c.686-.097 1.365-.194 2.051-.298v.299h.295c.33-.236-.11-.389.295-.299v.299h1.173v.589h.295c.096-.59.192-1.186.295-1.775h.583v.59h.295v-.888c.673.028.762.25 1.173.298l.295-.59s.803.278 1.173.299v-.59l.296.299c.391-.097.782-.194 1.173-.298v.298h1.461v-.888h.583v.298h.295v-.298l.583.298.295-.887c.775-.291.61.645 1.173.59v-.299c1.283-.305 1.612-.728 2.929-.887v.298h-.295c-.555.256.583.298.583.298.247.333-.034.042.295.298v-.59l1.461-.297c.096-.194.192-.396.295-.59l.295.299c1.736.11 1.962-.617 2.93-1.186v.887h.295c.336-.34 0-.117.583-.298v-.589c.295.097.583.194.878.298l.295-.59h1.173v-.297h.295c.178.707.096.547.583.887v-.887c1.537-.25 1.296-.035 2.634.59.151-.694.426-1.11.878-1.478.336.34 0 .118.583.299v-.59h.879v-.589c.487.097.974.194 1.461.298v.59h.583v-.888c.638.042.974.298 1.173.298v-.298l.878-.298c.096.194.192.395.295.59.933.277 2.332-.618 2.929-.888l-.295-.888h.878c.179.708.096.548.583.888.247.333-.034.041.295.298.021-.777.117-1.005.295-1.477.584-.097 1.174-.194 1.757-.298.247.333-.035.042.295.298-.227.298-.357.291-.584.59h.878l-.294-.888.294-.298c.433.139.467.34 1.174.298v-.298h.295v.298c.391.097.782.194 1.173.298v.298c1.193.458 1.735-.215 2.339.298.912.61.137.382.583 1.186l.583.298v.59h.295c.268.401.22.52.295 1.185l-1.173-.298c.233.956.542 1.019.583 2.364-.329.25-.041-.035-.295.298h-.295c-.089-.888-.041-.804-.583-1.186v.298h.295c-.192.396-.391.79-.583 1.186-.762.014-1.009.062-1.461.298v.298c-.501.173-.508-.277-.583-.298-1.05-.27-1.715.374-2.051.888h-.296c-.096.589-.192 1.185-.295 1.774h-.583l-.295-.59c-.391.098-.782.195-1.173.299.062.7.124.735.295 1.185-.679-.027-.747-.235-1.173-.298l-.295.59c-.391.097-.782.194-1.173.298-.212.818-.082.658-.878.887-1.029.936-1.893-.374-2.051-.298v.298c-.487.298-.974.59-1.461.887.158 1.034.288.548 0 1.477h.295v-.298h1.173v.59l.878-.299v-.298l.878.298v-.887c.295.097.583.194.878.298v-.298l-.295-.298h1.756c.096.298.192.59.295.887.192-.097.583-.59.583-.59.295.098.584.195.879.299v-.298c.432-.229.487-.222 1.173-.298v-.59h.583v-.589h1.173v.59c.658-.077.775-.028 1.173-.299v-.298h.583v-.298h.583v-.298c.521-.423.7-.665 1.461-.887v.887h1.173c.096-.492.192-.984.295-1.477h.583c-.096.299-.192.59-.295.888h.295c.419-.423 1.633-.756 2.34-.888v-.589c.391-.097.782-.194 1.173-.298v-.887h.583v.887h.583v-.887h1.461c-.096.298-.192.589-.295.887h.583c.302-.34.542-.568 1.173-.59v.299h.295l.295-.298c.275-.534.405-.465.583-1.186l.878-.298v-.298l.295.298.878-.298v.887h.584c.061-.7.123-.734.295-1.185l.583.298v-.298c.418-.367.452-.818.878-1.186.089.14.597 1.075.878.888l.295-.888c1.269-.097 2.538-.194 3.807-.298v.298c-.809.215-.652.084-.878.888.727-.132 1.077-.27 2.051-.298v-.298h-.295v-1.477c.487.097.974.194 1.461.298.096-.298.192-.59.295-.887.337.34.117 0 .295.589l.878.298v-.298c.604-.333.529-.458 1.462-.59v-.887c.624-.034 1.001-.305 1.173-.298l.295.298v-.589l1.461-.298v.59c.192-.098.391-.195.583-.299v-.298c.466-.055.364.513.583.59h1.173c.096-.493.192-.985.295-1.477.487.097.974.194 1.461.298l.295-.59h.295v.299c.295-.097.583-.195.878-.299v-.589c.336.34.117 0 .295.59h.583c.138-.708.337-.93.584-1.477.974.014 2.634.298 2.634.298V8.36h.583v-.298h.878c.096-.194.192-.396.295-.59.295.097.583.195.878.299v.298h1.461v-.59l1.173-.298v.59h.583c.186.81.385.672.584 1.476h.878c.212.818.082.659.878.888v.589c-1.749.36-1.516 1.185-2.051 2.662h1.756l.295-1.186c1.221-.187.83-.29 2.051-.589v.59c1.386-.59 1.18-.59 2.339 0v-.59a71.97 71.97 0 0 0 1.173-.298v-.59h.583v.299h.295v-.298c.666-.132.789.152 1.173.298v-.298h-.295c-.542-.284.584-.298.584-.298v-.59h.583v-.589c.919.174 1.303.479 2.339.59l.295-.888s-.624-.048-.295-.298h.583v.298h1.756v-.887c.933.194.576.436.878.589.487-.049.542-.582.583-.59.563-.159.405.195.583.299h.295v-.298c.391.097.783.194 1.174.298.212-.818.082-.659.878-.888v.59h1.173c.274-.534.404-.465.583-1.186l.878.298v-.298c.192-.097.391-.194.583-.298v.59h.583l-.295-.888c.7-.139.919-.34 1.461-.59v1.186c1.523-.402 1.043-.651 2.93-.298v-.887h.878v.298c-.124.173-.481.041-.295.59h.295c.473-1.831.624-.5 1.756-1.186.665-.403-.021-1.089 1.461-1.477v.298l.878-.298v.59h.295v-.59c1.036.11.892.367 1.756.59v.589c.275.464 2.093.547 1.173 1.476h.583v1.186l-.583.298c-.013.097.275.658.295 1.185h.583c-.137.707-.336.93-.583 1.477-.521.028-1.056.312-1.173.298v-.298h-1.173v.298l-1.756.298v.59c-.391.194-.782.395-1.173.589v-.298h-.295v.887l-2.051.59c.336.339 0 .117.583.297v.298c.514.243.94-.173 1.173-.298v-.298h.878v-.589c1.365-.07 1.667-.43 2.634-.887v-.299h2.052v.299h-.296c-.336.34.001.117-.583.298v.589c1.194-.347.309-.27.879-.887l.583.298v-.298h.583v-.299h.878c.309-.18.727-1.462 1.461-1.185v.298h.583v-.887c.295.097.583.194.878.298v-.298c.583-.097 1.173-.194 1.756-.298v.589h.583c.096.298.192.59.295.887h.295v-.589h.583c.172-1.102.172-.68 0-1.775.09.035 2.82.645 2.93.59v-.299h.295V8.042h.295c.597.54 1.331.083 2.339 0v-.59c.59.167.254-.034.583.299 1.077-.312.803-.596 1.461-1.186v-.298c.741-.464 2.312-.02 3.513 0 .185-.811.384-.672.583-1.477 1.255-.048 1.001-.187 1.756-.589v.888h1.173c.062-.7.123-.735.295-1.186l.878.298.295-.59h.583v-.297c.295-.097.583-.194.878-.298l.295.887c.741-.603.124-.714 1.461-.887v.298c-.336.27-.343.215-.583.59h.295V4.2c.611-.326.522-.478 1.461-.59.247.334-.034.043.295.299-.343.562-.247.284-.878.59v.297h.583c-.096.59-.192 1.186-.294 1.775h.294v.298h-.294v.59c.096.693.192 1.38.294 2.072h-.294c-.247.34-.151.416-.584.59v-.298h-.295c-.192.298-.391.589-.583.887h-.878l-.295.59c-.391.096-.782.193-1.173.297-.096.298-.192.59-.295.888l-.878.298-.295.59h-.295v-.299c-1.077-.256-1.413 1.005-2.051.298v.59h-.583c.096.395.192.79.295 1.185h-.295c-.329.506-.185.402-.878.59-.028-.063-.419-1.075-.583-.888v.298l-.584.298c-.096.298-.192.59-.294.887h-.879c-.981.486-.384.784-2.051.888.096.298.192.59.295.887.391-.097.782-.194 1.173-.298v.887h.295V18.4h1.173c.892-.34 1.304-.825 2.635-.887v-.59c.83-.187.775-.547.878-.589h1.173v.299l1.173-.299s.13.368.583.299v-.299l1.173.299v-.299c.336-.34.117 0 .295-.589h-.295v.298c-.254.562-.295-.59-.295-.59 1.07.098 2.147.195 3.218.299l.294-.59c.295-.09.536.458 1.174.299v-.298h1.461v.298h.295v-.298h1.173l.295-.888h.295l-.295-.589h.878c.336.34 0 .118.583.298v-.59c.7.14.919.34 1.461.59v-.298h-.295c-.542-.284.583-.298.583-.298v.298c.336.34.117 0 .295.59.625-.035.995-.299 1.173-.299v.298h.583c.083-.526.295-.589.295-.589-.096-.298-.192-.59-.295-.887h.295V12.5c.83.374 1.208.762 2.34.887v-.59c1.708-.395.164-.748 1.756 0v-1.185h.295v.298c.391-.298.782-.589 1.173-.887v1.185h.295c.144-.138-.082-.478.295-.298v.298h.295s-.082 1.061.295.59V12.5c.336-.34.116 0 .295-.59h-.878c.226-.887.178-.776 1.173-.887v.298l.878-.298v.298h.878v.298c.755.16 1.605-.922 2.051-1.185l.878.298v-.298c.487-.32.487-.402 1.173-.59-.096.299-.192.59-.295.888h.295v.298c.295-.194.583-.395.878-.59v-.297h.584c.528-.236.637-.673.877-1.186l1.462 1.185c.178-.582.013-.72.583-.887.096.035.089.555.583.59.624-.84.261-.597 1.173-.299.096-.956.268-.866.583-1.476 1.022.16.542.29 1.461 0v1.774h.295c.33-.506.185-.402.878-.589.549.93 1.084.839 1.174 2.364.802.035 2.119.41 2.339 0h.295v.298c.809.194 1.728.825 2.051 1.477v.887h.295c.405.548.679.687.878 1.477a43.868 43.868 0 0 1-.878-.298v.298h.295v.887h.295c.267.437.26.728.295 1.477-.336.34-.117 0-.295.59-.974.096-1.948.193-2.929.297v-.589c-.391.097-.782.194-1.174.298v-.59c-.192.098-.391.195-.583.299-.096-.194-.192-.395-.295-.59-.006 0-.864.403-1.461 0l-.295-.887c-.343-.242-.501.867-1.173.59v-.298c-.336-.34-.116 0-.295-.59l-.878.298v-.298h-.295c.096-.298.192-.589.295-.887 0 0-.363-.09-.295-.59 0 0 .487-.131.295-.589h-.295c-.336.34 0 .118-.583.298-.096.299-.192.59-.295.888-.686-.083-.727-.097-1.173-.298v-.298c-.494.034-.494.561-.583.589-.666.236-1.18-.367-1.461-.298v.298c-.995.402-1.215.922-2.34 1.185.096-.298.193-.589.295-.887h-.583c-.432.804-.898 1.352-2.051 1.477v-.888h-.295c-.226.888-.178.777-1.173.888v-.59c-1.221.673-1.386.604-2.929.299v-.59h-.295c-.021 1.144.048 1.22-.878 1.477v.298c-.282.548-.295-.59-.295-.59h-.583c-.096.195-.192.396-.295.59-.487-.097-.974-.194-1.461-.298v.59h-.879v.297c-.336.34-.116 0-.295.59l-1.756.298v-.59l-2.929.298v.59h-.878v.298c-.261.554-.295-.59-.295-.59-.94.23-.631.444-1.756.59v.887c-1.729-.18-1.599-1.047-3.513-1.185-.006.984-.151 1.338-.295 2.073h-.583c.09-.257.563-.652.295-1.186h-.295v.298c-.336.34-.116 0-.295.59l-1.756.298v.589c-.981-.18-1.845-.811-2.929-.298-.192.298-.391.59-.583.887-.796.236-.906-.797-1.173-.887-.528-.18-.213.332-.295.589a43.232 43.232 0 0 1-.878-.298v1.185h-.583l-.295.59c-.481.145-.542-.291-.584-.298-.706-.125-.761.298-1.173.298v-.298c-.583-.097-1.173-.195-1.756-.299v.59c-1.941.208-2.929.256-4.39 0l-.295.887c-.549-.145-1.4-.125-2.339-.298v-.298c.336-.34.116 0 .295-.59-.7.028-.728.195-1.174.299v-.298c-.487-.32-.48-.423-1.173-.59v-.589h-.583c-.096-.298-.192-.59-.295-.887l-1.756-.298v-.59c.233.097.919.604 1.461.298v-.298c-.864-.568-.713-1.178-.583-2.072.391-.195.398-.465.583-.59.192.097.391.194.583.298v-1.185h.295c-.096-.59-.192-1.186-.295-1.775a45.435 45.435 0 0 1-.878-.298c.096.194.192.395.295.59l-.878-.299v.59h-.295c-.096.194-.192.395-.295.589h-.878c.069.686.323.18 0 .887l-.583-.298v.59c-.315.52-.295-.59-.295-.59-.487.097-.974.194-1.461.298 0 0-.137-.444-.583-.298-.096.194-.192.395-.295.59h-.878c-.096.297-.192.588-.295.887-.453-.243-1.297-1.068-2.051-.888-.096.194-.192.395-.295.59-.563-.056-.487-.576-.583-.59h-.295v.298h-1.462v.298h.583c-.096.59-.192 1.186-.295 1.775h-.583c-.267-.118-.192-.901-1.173-.589l-.295.59h-1.461v-.299c-.425-.236-.494-.208-1.173-.298v.887a43.237 43.237 0 0 1-.878-.298v.298c-.336.34-.117 0-.295.59-1.091.312-.789.61-1.461 1.185v.298h-.878v-.887h-.583v.59h-1.462v-.299h-.294c-.193.395-.392.79-.584 1.186l-.583-.299v.299l-.878.589v-.888h-.295v.299l-.878-.299v.299c-.412-.021.117-.25-.295-.299l-1.756.299v.887h-.295v-.298c-.796-.43-1.434.416-1.756.59-.165-.93-.288-1.242-1.173-1.478.164.721.308.652.583 1.186h-.583c-.467.437-1.722.326-2.635.298v-.59h-.583v.59c-.583-.097-1.173-.194-1.756-.298-.144-.7-.274-.7-.583-1.186.398-.346.288.222.583-.298-.384-.242-.343-.208-.583-.589h.583c.062-.7.124-.735.295-1.185-.83-.195-1.104-.548-1.461-1.186h.878c.192-.79.391-1.58.583-2.364-.384-.243-.343-.208-.583-.59-.624.361-.638.666-1.461.888v-.59h-.295v.888c-1.139.097-1.317.479-2.051.888-.062-.7-.124-.735-.295-1.186-.329.25-.041-.035-.295.298h-.295l.295.298-.295.888c-1.242-.215-1.407-.049-2.93 0l.295.887h-.295c-.24.388-.205.347-.583.59v-1.186c-1.488.083-1.289.527-2.929.59-.219 1.004-.624 1.365-1.756 1.476v-.59h-.295v.299c-.254.561-.295-.59-.295-.59a43.237 43.237 0 0 1-.878-.298l.295.59h-.583c-.467.436-.721 1.019-.878 1.774h-.878v-.589c-1.88.07-2.353 1.081-3.808 1.477.186-.811.384-.673.583-1.477-1.872.416-3.203 1.72-4.39-.298 1.317-.776.624-1.102.295-2.364h-1.173c-.247-.333.034-.042-.295-.298.089-.257.562-.652.295-1.186h-.295v-.298h-.878c-.494.818-1.256.596-1.756 1.186l-.295.887h-.878v.298c-.295.097-.583.194-.878.298v-.589c-.913.201-1.331.887-2.052 1.185h-1.173v.299a43.237 43.237 0 0 1-.878-.299v.59l-1.756.298v.298h-1.173c-.096.02-.076.409-.583.298v-.298h-.583v-.298l-2.051-.298c-.213.416-.529.894-.878 1.185v-1.185h-.295v.589a41.233 41.233 0 0 1-.878-.298c-.138.693-.488.915-.584 1.477h.295c.096.298.192.589.295.887-1.667.02-1.838-.312-2.929-.59-.432.805-.899 1.353-2.051 1.477v-.589h-.583v1.186h-.583v.298h-2.052v.298h-.583v.298c-.192-.097-.391-.194-.583-.298v.298h-.295c-.432-.354.247-.215-.295-.59.035.936.57.555-.295.888v-.59c-1.646.202-.946.736-1.756 1.186h-.583c-.096.298-.192.59-.295.888h-1.461v-.299c.727-.54.377-.228.295-1.185h-.583v.887c-2.545.007-2.991.513-5.269.59v-.59c-.391.195-.782.396-1.173.59.096.395.192.79.295 1.185-.761-.048-1.001-.062-1.461-.298v-.298l-.878.298c-.048-.007-.103-.416-.583-.298v.298h-.583v.298h-.583v.298c-.405.27-.515.208-1.174.298v-.887h-.294v.298h-1.462c-.199.09-.013.381-.878.59-.096.297-.192.589-.295.887h.295c.433.36-1.063.29-1.173.298v-.298c-1.173-.194-2.339-.395-3.512-.59.158-.825.226-.027 0-.887-.316.166-.611.797-1.173.59v-.299h-.295l.295-.589h-.295c-.336-.34 0-.118-.583-.298-.096-.298-.192-.59-.295-.887h.583c-.096-.299-.192-.59-.295-.888h.295v.298c.254.562.295-.589.295-.589h.295v-.298c-.192-.097-.391-.194-.583-.298.096-.298.192-.59.295-.888h-.295v-.298h.878v-.298c-.384-.242-.343-.208-.583-.59.501-.332.398-.186.583-.886l1.173-.299c.034-.02.453-1.095.583-.887v.59h.878c.274-.534.405-.465.583-1.186-.398-.347-.446-.541-.583-1.186h.583v-.589h.583v-.298c-.583.097-1.173.194-1.756.298v-.298c-.384.02-.734.506-1.461.298v-.298c-.583-.097-1.173-.194-1.756-.298v1.185h-.583v.59c-.295-.195-.583-.396-.878-.59v-.589l-.296.298c-.336.34-.116 0-.294.59h-1.173v.589c-.584-.097-1.174-.195-1.757-.298-.096.492-.192.984-.295 1.476-.713.167-.644.305-1.173.59v-.299c-.302-.256-.404-.513-.583-.887-.336.34-.116 0-.295.59-.583.096-1.173.193-1.756.297v.59c-.693.062-.727.125-1.173.298v-.59h.295l-.295-.887h-.295v.59c-.192-.098-.391-.195-.583-.299-.336.236-.117.7-.878.59-.096-.195-.192-.396-.295-.59h-.295v.59l-.878.298c-.151-.042-.179-.749-.583-.59-.295.396-.584.79-.879 1.186a46.133 46.133 0 0 1-.878-.298v.59h-.583v.588c-.329-.25-.041.035-.295-.298-.315-.27-.055.049-.295-.298h.295V24.3h-.878v.298h-.295V24.3h-.878c-.096-.194-.192-.395-.295-.59-.192.098-.391.195-.583.299-.398.118.124.319-.295.298v-.298h-.583c-.007.915.082 1.525.295 2.073h-1.173v.589h-.295v-.887h-.583l-.295.887c-.329-.25-.041.035-.295-.298h-.295l.295-.887c-.295.097-.583.194-.878.298v.298h-.583c-.096.194-.192.395-.295.589h-1.173v.298h-.295c-.144-.132.082-.478-.295-.298l-.295.59-1.462.297v-.589h-.294l-.295.59h-.295l-.295-.59c-.405-.187-.824-.145-1.173-.298-.021 1.144.048 1.22-.879 1.477v-.59h-.583v.59H192.6l-.583 1.476h-.583v-.298c-.096-.014-.672.264-1.173.298.164-.72.309-.651.583-1.185h-.583l-.295.887-2.051-.298c-.309.153-.213.666 0 .887h-.583c-.254.305-.508.41-.878.59v-.888c-1.311.111-.851.188-2.052 0v.299c.337.34.117 0 .295.589h-1.461c-.075-.014-.096-.382-.583-.298v.298h-.583c-.096.298-.192.589-.295.887-.329-.25-.041.035-.295-.298-.329-.25-.041.035-.295-.298.384-.243.343-.208.583-.59h-1.173c-.261.313-.514.389-.878.59v.298l-.878-.298v.298c.384.243.343.208.583.59h-.583c-.343-.403-.535-.451-1.173-.59v.59c-.549-.209-1.146-.292-2.051-.299-.323-.617-.474-.527-.584-1.476h-.583v-.59c-.329.25-.041-.034-.295.298h-.295v.59l-.583.298v.887h-.295c-.295-.395-.583-.79-.878-1.185h-.295c-.384-.659.158-.825-.583-1.477.096-.395.192-.79.295-1.185 0 0-.377-.146-.295-.59h.295v-1.476s.179 0 .295-.59c.81-.215.652-.083.878-.887h.583v.298l.878-.298v-.59l1.462.299c.212-.818.082-.659.878-.888v-1.185h.295l-.295-.59h.295c.247-.332-.035-.041.295-.297v-.299c.281-.547.295.59.295.59l.878.298v-.298h-.295c.096-.298.192-.59.295-.888h1.756v.298c.686-.097 1.365-.194 2.051-.298v-.589h1.173v-.59c-1.001-.013-2.024-.2-2.634-.297-.192.298-.391.589-.583.887l-1.756.298c.164-.72.308-.652.583-1.185h-1.173v.298h.295c.336.464-.721.277-.879.298v.887h-.294v.298c-.488.097-.974.194-1.462.298.096-.492.192-.984.295-1.476-.713.166-.651.305-1.173.589v.298c-.583-.194-1.173-.395-1.756-.59v.299c-.336.34-.116 0-.295.59-.48.09-1.276.616-1.461.589v-.299h-.878c-.405-.083.11-.388-.295-.298l-.295.59h-.583l.295-.59h-.295c-.336.34 0 .118-.583.298v.59c-.487.097-.974.194-1.462.298-.054-.014-.096-.423-.583-.298v.298h-.583v.298c-.288-.063-.343-.797-.583-.59-.48.403.323.57-.878.888v.887h-.295v-.589h-.295c-.096.194-.192.395-.295.59h-1.173c-.35-.645-.645-.978-1.461-1.186v.298h-1.173l-.295.59-.878-.299v.888h-.583c-.721 1.24-.652.346-1.462.887.096.194.193.395.295.59-.583-.098-1.173-.195-1.756-.299-.027.007-.151.513-.583.59v-.299h-1.173l-.295-.298v.298c-.83.541-.857.853-2.339.888-.329-.506-.185-.402-.878-.59v.59h-.583v-.298c-.371-.118-.769.838-.878.887-.604.27-.837-.256-1.174-.298v.298c-.583.097-1.173.194-1.756.298l-.295-.887c-.809.215-.651.083-.878.887-.878.097-1.756.194-2.634.298l-.295.59h-2.051v.298c-.762.228-1.365.027-2.051.298-.165-.721-.309-.652-.583-1.186-.33.25-.042-.034-.295.298-1.029.735-.069 1.054-1.462 1.477v.298h-1.461l-.295.59c-.651.263-.823-.368-1.173-.299v.298c-.583.118-.37-.131-.583-.298h-.295v.59a43.863 43.863 0 0 1-.878-.299v-.298l-.878.298v-.298h-1.173l-.295-.589c-.412 0-.137-.09-.295.298-.364-.34-.11 0-.295-.59h1.173v-.588h-1.173c-.275-.534-.405-.465-.583-1.186h.583c-.172-1.22-.316-1.414-.878-2.662-.384.152.082.118-.295.298h-.878v.298c.59.166.254-.035.583.298-.837-.027-1.256-.055-1.756-.298v.298c.336.34.116 0 .295.59-1.434 0-1.667.34-2.635.589v-.888h-.295v.299h-.295l-.583-.299v.888h-.878v-.59h-.295v.59h.295v.887c-.974-.007-1.324-.152-2.051-.298v.59c-.693-.035-.741-.09-1.173-.299v.298c-.336.34-.117 0-.295.59-1.544-.174-.672-.638-2.051-.298v-.59c-.467-.069-.371.506-.583.59-1.098.415-2.003.166-2.929 0v.887l-.584-.298v.298c-.59.506.028.45-.295.887h-.295c-.706-1.067-2.737-.18-4.095 0v.888c-.549-.153-1.598-1.061-2.051-.888v.298h-.295v.888c-.878.097-1.756.194-2.634.298v.59h.295c-.096.297-.193.588-.295.887-.693-.035-.741-.09-1.174-.299v.299h-.294v-.888h-.584v.888h-.294v-.299H96.56v.299l-.583-.299v.299c-.645.2-.967.09-1.46.298v.887c-1.462.222-1.448.264-2.635-.59l-.295.888h-1.173v.298c-.391.097-.782.194-1.173.298v-.589h-.583c-.179 1.04-.316 1.359-1.462 1.477v-.298c.337-.34.117 0 .296-.59a71.717 71.717 0 0 1-1.174-.298v-.298c-.555-.173-.404.167-.583.298l-.878-.298v.298h.295v1.186h-.583v-.59c-.803.472-.528.728-1.756.888-.213.818-.082.658-.878.887-.79.943-1.708.714-2.93.59v-.59h1.174c-.097-.298-.192-.59-.295-.887-.446.173-.48.229-1.173.298-.049-.804-.097-1.782-.584-2.073v-.298c.213-.312.227.257.584-.298h-.584c-.521-.312.584-.298.584-.298-.165-.721-.31-.652-.584-1.186h.879c.24.389.205.347.583.59-.714-1.553-1.078-2.989 1.46-2.96.337.339 0 .117.584.297.096-.492.192-.984.295-1.476h-.583v.589h-.583l.295-.887h-.295c-.22.561.206.305-.295.589-.384-.347.35-.45-.295-.59v.59l-.583-.298v.298h.295c-.192.395-.391.79-.584 1.185h-.294v-.887h-.295v.298h-.879c-.192.298-.39.59-.583.887h-.583v.299h-.878v.298h-.583v.298c-1.18.423-2.065-.41-2.634 0-.796.52-.926 1.636-1.173 1.775h-2.635c-.336-.34 0-.118-.583-.299v-.589h-.295c.096.395.192.79.295 1.186h-.295c-.555.485-1.55.312-2.339.589v.298c-.432.139-1.146-.319-1.173-.298v.59h-1.461c-.295.693-.583 1.379-.878 2.072h-.295v-.887h-.583c-.062.7-.124.735-.295 1.185-.33-.25-.041.035-.295-.298-.336-.34-.117 0-.295-.59.5-.332.398-.186.583-.886h-.878v1.774c-.487-.097-.974-.194-1.461-.298v-.298c.336-.34.116 0 .294-.59h-.583l.296-.588h-.296c-.336.34 0 .117-.583.298-.075.575-.288.575-.295.589-.466 1.456.261 1.893-1.46 2.073v-.59c-.406.146-.646.118-1.174.299v.298a43.867 43.867 0 0 1-.878-.298v.298h-.583l.295.589h-1.756v.298c.336.34.116 0 .295.59-.474-.021-2.052-.299-2.052-.299-.095.194-.191.395-.294.59-.796.436-.934.076-1.462 0v.298h-.583l-.295.589c-.487.097-.974.194-1.46.298v.298a73.03 73.03 0 0 1-1.174-.298c-.487.097-.974.194-1.461.298v.298c-.871.25-1.187-.471-1.756-.59v.299c-.336.34-.117 0-.295.59h-1.173l-.295-.299c-.151.07-.083.527-.584.59v-.299l-.878-.298v.298c-.295.097-.583.194-.878.299v-.59c-.528.277-.46.41-1.173.59v.589h-.295v-.888c-1.646-.02-2.901-.707-3.512-1.774l.583-.298c.02-.417-.288.124-.295-.299.096-.492.192-.984.295-1.476h.583c-.645-1.844.72-2.87.878-4.735a17.451 17.451 0 0 1 3.218-.298v-.888h.878c.199-.866.322-.97 1.173-1.185v-.59c1.708-.395.164-.748 1.756 0v-.589c.652-.125 1.002-.284 1.461-.59v-.297c.583-.056.206.45.583 0 .336-.34.117 0 .295-.59h.583c.337-1.199.597-.589 1.173-1.476.584.194 1.173.395 1.757.59v-.299h.294v-1.185c-1.68.034-2.147.242-3.512 0-.165.928-.288 1.24-1.173 1.476v-.59h-.583v.888c-.597.32-1.152.874-2.051.888l-.295-.298c-1.057.804.096 1.38-2.051 1.476l.295-1.185h-.583v.298h.294c.021.104-.5 1.067-.583 1.477h-.583v-.59h-.583v.59l-.295-.299c-.583.195-1.173.396-1.756.59-.096.194-.192.395-.295.589-.384.166.062-.222-.295-.298a43.24 43.24 0 0 0-.878.298v-.298h-.878V30.2h-.295v.298s-.81-.27-1.173-.298c-.192.492-.391.984-.583 1.476-.254-.09-.645-.568-1.173-.298v.298h-.295v.888h-.295v-.888h-.295v1.186c.048.416.308-.125.295.298l-.295.298c-.508-.256-.103-.035-.295-.59h-.295v.59l-1.461.298.295-.59h-.295c-.453.514-.528.292-1.173.59v.298c-.433.167-1.119.077-1.173-.298h-.295v.888h-.296v-.299h-.294v.59h-.584v.59c-.74-.237-1.81-.022-3.217 0a215.06 215.06 0 0 1-.295 2.072h-.583v-.59c-.446.174-.48.23-1.173.299v.887c-.583.194-1.173.395-1.756.59v.298h-.583v.298c-1.434.547-1.77-.458-2.635.887h-.294l.294.298c-.096.298-.192.59-.294.887-.391-.097-.783-.194-1.174-.298v.888c-1.036.11-.891.367-1.756.59v-.59h-.295v.887c-.583.097-1.173.194-1.756.298l-.295.888h-.583c-.096.298-.192.589-.295.887h-.295v-.887h-.295l-.295.589-.878-.298v-.298c-.57-.146-.391.166-.583.298l-1.173-.298.295-.298v-.298h-.295v-.888h.295v-.298h-.583c-.007-.984-.151-1.338-.295-2.073H.527c-.522-.312.583-.298.583-.298.096-.298.192-.59.295-.887 1.509.069 1.447.561 1.46-1.186.488-.097.975-.194 1.462-.298v-1.185l.878-.298c.336-.34 0-.118.583-.299v.59h.583v-.59c.295.098.583.195.878.299v-.59h-.295l.295-.887h.295v-.298h.878c-.006-.416.062-.084-.295-.298v-.299h.878v-.298h.296l.295.59c.974.194 1.948.395 2.929.589.027-1.11.267-1.359.583-2.073.295.097.583.194.878.298v-.59h.878l-.295.59h.295v-.298h.583c.323-.256.13-.714.583-.887.26.263.11.499.583.589.192-.298.391-.59.584-.887h.878v-.299h.295v-1.185h.583v.59c1.248-.119 1.324-.61 2.339-.888.233-.957.542-1.02.583-2.364h2.634v.298l.878-.298v-.298c.44-.118.398.527.583.589l.879-.298v.59h.295v-.59c.329-.25.04.035.295-.298l-.584.298V26.01h.296v-1.185h1.46l-.294.887h.878c.466-.575 1.063-.79 1.46-1.476.303.256.406.513.584.887.295-.194.583-.395.878-.59v-.297h.583l.295-.59c.192.097.391.194.583.298.391-.298-.357-.499.295-.589v.298c.295.097.583.194.878.298v-.589c-.336-.34-.116 0-.295-.59.755.14 1.297.285 2.34.299.418-.631.768-.596 1.46-.887l-.294-.888h1.173V21h.295v.298h.583v-.59c1.66-.048 1.09-.457 2.051-.887h1.173v-.298c.336-.34.117 0 .295-.589h.878v.59h.584c.24-.95.342-.86 1.46-.888v.59c.687-.32.954-.68 1.757-.888v-.887h.583v-.59c1.543.007 2.312-.346 3.512-.589.213.818.083.659.878.887a43.851 43.851 0 0 0-.295-.887h.295c.323-.416 1.022-.867 1.461-1.186v-.298h.878v.298h.295v.888h.296c.096-1.179.301-1.366 1.46-1.477v.298c.392.139-.11-.187.296-.298 1.173-.194 2.339-.395 3.512-.59-.295-.921-.165-.45 0-1.476.714-.166.645-.305 1.173-.589v.298h.295c.233.437-.295.59-.295.59l.295.589c.672-.569.37-.888 1.461-1.186.096-.298.192-.59.295-.887.837.346 1.38.561 2.635.59.294-.59.583-1.186.878-1.776h.583l.295.59 2.05-.59v-.298H73.1l.295-.59h.583c.185-.81.384-.672.583-1.476.391.097.782.194 1.173.298v-.298c.323-.263.062.049.295-.298h-.295c-.288-.492.419-.25.583-.298v-.298c.295.097.584.194.879.298-.096.194-.193.395-.296.59h.296c.919-1.068 1.721 0 2.929.297.199-.388.363-.318.583-.589l-.295-.59h.583V6.51l.583-.298c.041-.416-.062.048-.295-.298l.295-.59c.988.208 1.125.645 2.051.888v-.888c.803.187.666.388 1.461.59v-.888c.323.097.577.527 1.173.298v-.298h.879v-.298c.583-.492 1.173-.984 1.756-1.477v-.589h.583v.298c.404.083-.055-.062.295-.298l.583.298-.295.888c1.633.124 2.463.526 3.512-.59-.576-.332-.686-.416-.878-1.185l.878-.298c.096.194.192.395.295.589h.583V1.179c.638.124.837.194 1.173.589l1.757-.59-.295-.589h1.46V0l.145.07ZM95.77 4.505v.59h.296v-.59h-.296Zm260.785.59v.589h.295v-.59h-.295ZM96.65 5.983v.59h.295v-.59h-.295Zm-4.096.59v.588h.295v-.589h-.295Zm256.683.887c.336.34 0 .117.583.298-.336-.34 0-.118-.583-.298Zm-23.119.298c.336.34 0 .118.583.298-.336-.34 0-.118-.583-.298Zm-246.735.887c.027 1.005 0 1.075.583 1.477v-.298h-.295V8.638h-.295l.007.007Zm242.345.298c.336.34 0 .118.583.298-.336-.34 0-.118-.583-.298Zm-31.906.291v.59h.295v-.59h-.295Zm20.491.298-.295.59s.85-.472.583-.59h-.295.007Zm30.143 0h.583c-.247.333.034.042-.295.299v.298c-.336-.34-.117 0-.295-.59l.007-.007Zm-259.029.299c.336.34 0 .117.583.298-.336-.34 0-.118-.583-.298Zm164.202.29v.59h.295v-.59h-.295ZM84.651 11.308v.298h-.295c-.555.257.584.298.584.298.246-.332-.035-.041.294-.298-.336-.34 0-.118-.583-.298Zm224.784 0v.298h-.295c-.556.257.583.298.583.298.247-.332-.035-.041.295-.298-.336-.34 0-.118-.583-.298Zm74.925 0v.298h-.295c-.556.257.583.298.583.298.247-.332-.034-.041.295-.298-.336-.34 0-.118-.583-.298Zm-196.101.298v.59h.295v-.59h-.295Zm-72.291.291v.59h.294v-.59h-.294Zm74.925 0v.59h.295v-.59h-.295Zm54.146 0c.494.638.584.59.584.59.212-.285-.508-.52-.584-.59Zm74.933 0c.494.638.583.59.583.59.213-.285-.508-.52-.583-.59Zm20.779 0v.59h.295v-.59h-.295Zm54.146 0c.494.638.583.59.583.59.213-.285-.507-.52-.583-.59Zm-321.373.597h-.583v.298h.295v.298h.295v-.59l-.007-.006Zm3.808 1.774h.583c-.096-.395-.192-.79-.295-1.185h-.295v1.185h.007Zm224.783 0h.583l-.295-1.185h-.295v1.185h.007Zm74.925 0h.584l-.295-1.185h-.295v1.185h.006Zm-302.926-.596v1.186h.295V13.67h-.295Zm74.926 0v1.186h.295V13.67h-.295Zm149.858 0v1.186h.295V13.67h-.295Zm43.314.596v.888h.295a2.9 2.9 0 0 1 1.173-1.186v-.298h-.583c-.329.506-.185.402-.878.59l-.007.006Zm31.611-.596v1.186h.295V13.67h-.295Zm-167.708.298v.59h.295v-.59h-.295Zm74.926.59h.583v-.298c-.329-.25-.041.034-.295-.299h-.295v.59l.007.007Zm-163.612-.292v.888h.295v-.888h-.295Zm74.925 0v.888h.295v-.888h-.295Zm128.201 1.179c.213.818.082.659.878.887.185-.81.384-.672.583-1.476h-.295c-.37.561-.295.492-1.173.589h.007Zm2.634-.59v.59c.768-.02.995-.118 1.461-.298v-.298h-1.461v.007Zm-154.536.299v.887h.295v-.298c.329-.25.041.035.295-.298l-.584-.298-.006.007Zm74.925 0v.887h.295v-.298c.329-.25.041.035.295-.298l-.583-.298-.007.007Zm74.926 0v.887h.295v-.298c.329-.25.041.035.295-.298l-.583-.298-.007.007Zm74.932 0v.887h.295v-.298c.329-.25.041.035.295-.298l-.583-.298-.007.007Zm-187.616.291v.59h.295v-.59h-.295Zm135.809 0c.494.638.583.59.583.59.213-.285-.508-.52-.583-.59Zm-154.831.596v.888h-.584v.589l.584-.298.295-.888c.329-.25.041.035.294-.298h-.583l-.006.007Zm12.293 0v.59h.295v-.59h-.295Zm74.925 0v.59h.295v-.59h-.295Zm45.956.59h-.878v.589h.583c.274-.534.404-.465.583-1.186h-.295v.59l.007.006Zm28.97-.59v.59h.295v-.59h-.295Zm-186.436 1.179v-.59c-.329.25-.041-.034-.295.299h-.295c.336.34 0 .117.583.298l.007-.007Zm74.048-.59v.888h.294c.337-.34 0-.118.583-.298v-.59h-.877Zm41.558.59v-.59h-.878v.299h.295c.336.34 0 .117.583.298v-.007Zm34.245 0v-.59c-.329.25-.041-.034-.295.299h-.295c.336.34 0 .117.583.298l.007-.007Zm23.125-.59v.59c.33-.25.041.034.295-.298h.295c-.336-.34 0-.118-.583-.298l-.007.006Zm41.558.299v.589h.296v-.59h-.296Zm-193.755 1.178h.583c-.247-.333.034-.041-.295-.298v-.59h-.295v.888h.007Zm-82.54-.59v.59h.295v-.59h-.295Zm74.932 0v.888h.295v-.887h-.295Zm149.851 0v.59h.295v-.59h-.295Zm57.076 0c.336.34.117 0 .295.59h-.295v-.59Zm17.857 0v.59h.295v-.59h-.295Zm-340.691.299v.59h.295v-.59h-.295Zm74.925 0v.59h.295v-.59h-.295Zm149.858 0v.59h.295v-.59h-.295Zm74.926 0v.59h.295v-.59h-.295Zm-206.632.291c.028.063.419 1.075.583.887v-.298h.295c-.254-.305-.507-.409-.878-.589Zm75.509 1.484h.583v-.59h-.583l.295-.589a43.863 43.863 0 0 1-.878-.298v.298c.398.347.445.54.583 1.186v-.007Zm-77.265-1.186.295.888h.295c-.179-.707-.096-.548-.583-.888h-.007Zm74.925 0c.096.298.192.59.295.888h.295c-.178-.707-.096-.548-.583-.888h-.007Zm5.564 0h-.583c.247.333-.035.042.295.298v.298h.295v-.589l-.007-.007Zm115.612 1.186h.583v-.59h.295c-.096-.194-.192-.395-.295-.589-.329.25-.041-.035-.294.298h-.296v.888l.007-.007Zm-244.396-.888c.336.34 0 .118.583.298-.336-.34 0-.117-.583-.298Zm49.756 0v.888h.295v-.888h-.295Zm74.926 0v.888h.295v-.888h-.295Zm5.563 0h-.583c.247.333-.034.042.295.298v.299h.295v-.59l-.007-.007Zm33.951 0v.888h.294v-.888h-.294Zm74.932 0v.888h.295v-.888h-.295Zm-296.203.291v.59h.295v-.59h-.295Zm13.754 0v.59h.295v-.59h-.295Zm74.932 0v.59h.295v-.59h-.295Zm19.606.597v-.59c-.329.25-.041-.034-.295.299h-.295c.336.34 0 .117.583.298l.007-.007Zm55.32-.596v.589h.295v-.59h-.295Zm22.535 0v1.774h.295v-1.774h-.295Zm37.463 0v.589h.295v-.59h-.295Zm1.173 0v.589h.295v-.59h-.295Zm13.754 0v.589h.295v-.59h-.295Zm60.005 0v.589h.295v-.59h-.295Zm1.173 0v.589h.295v-.59h-.295Zm13.755 0v.589h.295v-.59h-.295Zm-307.029.298c.336.34 0 .117.583.298-.336-.34 0-.118-.583-.298Zm74.926 0c.336.34 0 .117.583.298-.336-.34 0-.118-.583-.298Zm224.783 0c.336.34 0 .117.583.298-.336-.34 0-.118-.583-.298Zm-204.004.589.295.887h.295c-.179-.707-.096-.547-.583-.887h-.007Zm74.932 0c.096.298.192.59.295.887h.295c-.178-.707-.096-.547-.583-.887h-.007Zm19.023.298v.59h.295v-.59h-.295ZM56.841 21.658c-.213-.818-.083-.659-.878-.888.096.396.192.79.295 1.186h.878v.298c.411.055-.11-.208.295-.298h1.173V20.77c-.33-.25-.041.035-.295-.298h-.583v.298h.295c.096.534-.728.777-1.174.888h-.006Zm38.053-1.179-.296.59s.851-.472.584-.59h-.295.007Zm224.783 0-.295.59s.85-.472.583-.59h-.295.007ZM44.842 21.956h.584v-.298c-.33-.25-.041.034-.295-.298h-.295v.589l.006.007Zm10.243-.59v.59c.329-.25.04.035.294-.298h.295c-.336-.34 0-.118-.583-.298l-.006.006Zm64.683.59h.583v-.298c-.329-.25-.041.034-.295-.298h-.295v.589l.007.007Zm10.249-.59v.59c.329-.25.041.035.295-.298h.295c-.336-.34 0-.118-.583-.298l-.007.006Zm74.925 0v.59c.33-.25.041.035.295-.298h.295c-.336-.34 0-.118-.583-.298l-.007.006Zm139.616.59h.583v-.298c-.329-.25-.041.034-.295-.298h-.295v.589l.007.007Zm10.242-.59v.59c.329-.25.041.035.295-.298h.295c-.336-.34 0-.118-.583-.298l-.007.006ZM50.406 23.141v-.589l-.878.298.295 1.186h-.295v.298c-.686.097-1.365.194-2.051.298v.59c.384.055 1.818.36 2.05.297l.296-.59.878.3c.096-.493.192-.985.295-1.478h.295c.336-.34 0-.117.583-.298v.59h1.461v-.59h.583c-.192-.589-.39-1.185-.583-1.775h-.295l-.295.888c-.418.298-1.687.534-2.339.59v-.015Zm33.072-1.483v.887h.295v-.887h-.295Zm-39.219.596v.59h.295v-.59h-.295Zm45.66 0v.59h.296v-.59h-.295Zm29.266 0v.59h.295v-.59h-.295Zm74.925 0v.59h.295v-.59h-.295Zm86.931 0c.336.34 0 .118.583.298-.336-.34 0-.118-.583-.298Zm33.662 0v.59h.295v-.59h-.295Zm29.265 0v.59h.295v-.59h-.295Zm-266.053.291c.336.34.116 0 .295.59h-.295v-.59Zm74.637.298c.329.506.185.402.878.59-.254-.306-.507-.41-.878-.59Zm33.367.59h.583v-.299c-.329-.25-.041.035-.294-.298h-.295v.59l.006.006ZM77.332 23.14h.583v.298c-.59-.166-.254.035-.583-.298Zm81.662 0c.336.34.116 0 .295.59h-.295v-.59Zm78.733 1.179h-.584v-1.186h-.295v.298c-.336.34-.116 0-.294.59.295.194.583.395.877.589.247.333-.034.042.296.298v-.59Zm-81.368-.888v.59h.295v-.59h-.295Zm-96.006.597v.589h.295v-.59h-.295Zm74.932 0v.589h.295v-.59h-.295Zm64.684.29c.336.34 0 .119.583.299-.336-.34 0-.118-.583-.298Zm-103.91.888v-.589c-.329.25-.04-.035-.294.298h-.295c.336.34 0 .118.583.298l.007-.007Zm149.858 0v-.589c-.329.25-.041-.035-.294.298h-.296c.337.34 0 .118.584.298l.006-.007Zm-175.905.596v.59h.295v-.59h-.295Zm5.858 0v.59h.295v-.59h-.295Zm-21.952.292v.589h.295v-.59h-.295Zm23.414.596c-.014 1.2-.137 1.275.583 1.775v-.299c-.494-.637.226-1.428.583-2.072h-.295c-.33.506-.185.402-.878.589l.007.007Zm5.268-.596c.336.34 0 .117.583.298-.336-.34 0-.118-.583-.298Zm15.216 0c-.096.298-.192.589-.295.887h.295v-.298c.123-.173.48-.042.295-.59h-.295Zm31.028 0v.589h.295v-.59h-.295Zm98.345.596c-.013 1.2-.137 1.275.584 1.775v-.299c-.494-.637.226-1.428.583-2.072h-.295c-.33.506-.186.402-.878.589l.006.007Zm5.269-.596c.336.34 0 .117.583.298-.336-.34 0-.118-.583-.298Zm-130.835.298v.589h.295v-.59h-.295Zm32.784.589h.583v-.298c-.329-.25-.041.034-.295-.298h-.295v.589l.007.007Zm42.148-.59v.59h.295v-.59h-.295Zm26.048 0c.336.34.117 0 .295.59h-.295v-.59Zm-64.395.299c-.096.194-.192.395-.295.59l.583.297c.212-.353-.618-.256 0-.887h-.295.007Zm-36.002.291-.295.887h.295v-.589h.295v-.298h-.295Zm74.933 0-.295.59s.85-.472.583-.59h-.295.007ZM23.473 28.168h.584v-.299c-.33-.25-.042.035-.295-.298h-.296v.59l.007.006Zm164.786 0h-.583c.247.332-.035.041.295.298v.298h.295v-.59l-.007-.006Zm-154.832.589v.589h.295v-.59h-.295Zm42.149 0v1.185h.294v-.298h.295c-.096-.194-.192-.395-.295-.59h.295c-.336-.339 0-.117-.583-.297h-.006Zm107.709 0v.589h.295v-.59h-.295Zm44.193 0c-.337.34 0 .118-.583.298v.298h.583c.096-.194.192-.395.295-.59h-.295v-.006Zm-136.392.887-.295.59s.85-.472.583-.59h-.295.007Zm-11.12.596v.59h.295v-.59h-.295Zm6.442 0v.59h.294v-.59h-.294Zm-13.762.59h.583c-.24.388-.206.346-.583.589v.298h-.295l.295-.887Zm10.25 0-.296.589s.85-.471.583-.59h-.295.007Zm-22.543 1.185v.59h.295v-.59h-.295Zm-22.535 1.477v.589h.295v-.59h-.295Zm6.441.298v.887h1.173v.59h.878c.24-.389.206-.347.584-.59v-.887c-1.221.215-1.228.076-2.635 0Zm-23.708.59c.336.339 0 .117.583.297-.336-.34 0-.118-.583-.298Zm60.588.297v.59h.295v-.59h-.295ZM8.546 39.405c-.096.298-.192.59-.295.888h.295v-.59h.295v-.298h-.295Zm37.758.298v.59h.295v-.59h-.295Z" fill="#FDE6AD"/></svg>