<svg width="125" height="14" fill="none" xmlns="http://www.w3.org/2000/svg"><path fill-rule="evenodd" clip-rule="evenodd" d="M30.778.092c.43.086.494.307.995.343.072-.13.18-.325.452-.257v.087c.231.08.102-.087.271.086h.092v.342l.18.086v.17h.091l.091.257h-.362v.256c-.25.062-.202.024-.272.257-.316.072-.422.216-.815.256.007.224.037.29.092.426-.31-.022-.71-.068-.724-.086v.17h.092c.286.003-.272.087-.272.087-.114-.134-.242-.209-.452-.257-.136.233-.314.365-.634.427v-.17l-.18.086c-.053.13-.07.14-.092.342-.19.014-.547.076-.634.17-.11.12.08.095-.18.257v-.343h-.091v.343h-.272v-.17c-.138.05-.148.066-.363.086v-.17l-.271.086c-.06.146-.087.268-.091.512h-.452s-.091.137-.18.17v.087h-.092v-.17h-.18V3.77h-.091v.086h-.272v.087c-.157.132-.19.4-.271.598-.333-.03-.596-.15-.815.087l-.091.256c-.242.028-.484.056-.724.086v.086l-.18.086v.17l-.271-.086-.092.17h-.271c-.015.009-.106.129-.18.17v.087a32.797 32.797 0 0 1-.452-.086v-.086c-.053-.006-.31.144-.452.17-.062.162-.117.523-.18.683l-.272-.086v-.086c-.125-.022.036.062-.091.086-.217.04-.233-.064-.363-.086l-.18.256h-.363v.086l-.272.086v.257h.18v.086h-.09c-.05.04-.726.216-.724 0h-.091v.17l-.452-.086c.004.306-.021.539-.18.683v-.086h-.091v-.343h-.18c-.007.225-.037.29-.092.427-.189-.052-.369-.096-.543.086v.17h-.091v.086l-.543-.086-.091.17-.363.087v.17h-.363v.17c-.216-.04-.284-.098-.452-.17v.426a68.85 68.85 0 0 0-.634.086v.087c-.265.058-.297.094-.363.342.128.006-.012-.014.091-.086.143-.098.085.21.092.256-.155.096-.123.054-.18.257.12-.028.241-.056.362-.086l.091-.17c.017-.003.212.08.363.085v-.17l.272.086.09-.17c.111-.05.266-.046.363-.086v-.343c.215-.034.499-.162.815-.086v.086h.363V8.81h.18v-.342h.18v.17l.815-.17.091.086c.248-.164.083-.292.543-.342.104.098 0 .034.18.086V8.04l.452-.086v-.17c.3.046.412.108.544 0h.09c.115-.132-.097-.172.092-.256v.086h.091v-.257c.2-.03.469-.112.724 0 .03.056.059.115.09.17h.181v-.17c.183.048.079-.01.18.086l.272-.086v-.086h.271c.06-.086.121-.17.18-.256.151.028.302.056.453.086v.086c.065.012.333-.076.634-.086l-.091-.256h.18v.086h.363l.091.086v-.086l.271-.086c-.006-.225-.036-.29-.09-.427h.542c.104-.098 0-.034.18-.086.07-.256.056-.224.363-.256.102.146.058.116.272.17.091-.214.187-.447.363-.343h.09v.257h.181c.066-.237.026-.19.272-.257v-.086l.543-.086s.04.124.18.086l.091-.17h.272v-.17l.18.086v.086c.119.042.02-.04.091-.086.227-.058.147-.044.272-.17h.091v-.17l.18-.087c.107-.108.153-.248.272-.342v.086h.271c.03.114.06.228.092.342h.09c.221-.348.508-.316.996-.426.027-.006.023-.118.18-.086v.086l.543.17V4.88h.091l-.09-.256.18-.087c.125-.178-.04-.12.18-.256v-.086l.452-.086c-.05.238-.07.008 0 .256h.09v-.17c.181.028.364.056.544.086v-.086c.097-.078.017.014.091-.086h-.091v-.086h.271c.02.202.039.212.092.342.103-.098.036 0 .09-.17.105-.098.037 0 .092-.17.272-.086.543-.17.815-.257l.09.087c.03-.277.084-.25.181-.427h.18v.086h.092v-.086h.362l.092-.256c.235.09.382.156.723.17l-.091-.17c.061-.095.509-.12.634-.257l-.091-.17h.091V2.66c.24.1.342.164.723.17v-.086h-.09v-.256c.286.056.182.13.27.17.107-.006.323-.172.544-.086l.091.17h.18c-.087.282-.085.503.092.769h-.092c-.104.098 0 .034-.18.086v.427h-.091c-.023.142.085.148.091.17v.427c-.325.012-.513.122-.723.17l-.18-.086c-.06.086-.122.17-.181.256-.05.02-.494-.064-.634-.086-.055.224-.257.453-.543.427 0 0-.05-.109-.18-.087l.09.17h-.362l-.091.427-.452-.086-.091.17c-.244.058-.238-.164-.272-.17l-.272.086.092.086c.004.034-.08.193-.092.343-.3.028-.602.056-.905.086v-.17c-.215-.018-.225-.036-.363-.086v.256c-.02.036-.622.43-.272.599h-.271V6.84c-.087-.159-.091.17-.091.17-.102.072-.013-.01-.092.086.255-.08.253-.09.544 0v.086l.271-.086-.091-.086.091-.256c.424.154.704.05.995-.17.03-.057.06-.115.091-.171h.452s-.008-.05.18-.086v.256h.092v-.17c.386-.006.6-.018.814-.17l.091-.17c.151.028.302.056.452.086-.104-.098 0-.034-.18-.086v-.17c.091.027.18.055.271.085v-.17h.18v.17c.525-.04.9-.318 1.267-.512v.256h.18v-.17h.635v-.086h.271V5.39c.18.028.363.056.543.086.077-.096-.01-.012.092-.086v-.343c.18-.028.362-.056.543-.086-.03.086-.06.17-.092.256h.092v.087c.101-.073.012.01.09-.087.105-.098.037 0 .092-.17.142.006.634.086.634.086v-.086h.092v-.256c.1-.12.407-.088.634-.086v.086l.543-.086v-.086h.18v-.087h.272l-.092.257h.092c.065-.237.025-.19.271-.257v.17c.091-.027.18-.055.272-.085V4.53c.212-.028.422-.056.634-.086v-.086h.271l.092-.17c.076-.028.596.09.723.17v-.17l.272-.086v-.086c.123-.036-.036.062.09.086.151.028.162-.082.181-.086.166-.032.35.112.452.17V4.1c.282-.242.021-.363.543-.427v.086h.272l-.092.17c.117.139.17-.094.272.257.119-.09.136-.174.271-.256v.256h.18c-.029-.17-.059-.343-.09-.513.424-.136.305.066.543-.426h.09c-.01.182-.093.292-.09.342l.09.086c.166-.108.011-.116.092-.17.104-.072.057.078.091.086l.272-.086v-.17c.203-.034.348-.14.634-.086 0 0 .004.112.18.086v-.086h.452v.086c-.216.052-.167.028-.271.17h.18c.26-.407.696-.264 1.177-.427l.092-.256c.258 0 .388.03.543.086v-.342h.09c.06.086.122.17.181.256h.091l-.09.17h.09v.086c.26.177.234-.152.363.257h.18v.17h.18c-.029.086-.059.17-.09.256h.09c.062.129.064.143.092.343h.18v.17c.14.076.189.126.272.256.292-.15.172-.204.543-.086l-.091-.256h.18v-.17h.18v.086h.092v-.086l.271.086-.091.256h.18c.066-.236.025-.19.272-.256.135-.15.244-.162.543-.17v-.17c.18-.057.362-.115.543-.17.006.223.036.29.09.426.103-.072.014.01.092-.086h.091v-.257c.272.028.543.056.815.086v-.17h.18l.091-.256c.121.028.242.056.363.086l.091-.17.452.086v.17c.231-.132.624-.53.906-.342h.18v.17h.092v-.17c.434-.022.437-.06.814 0l.091-.427c.418-.074.734-.074.995 0v-.17h.543v.086h.272v.086c.091-.028.18-.056.271-.086V2.57c-.104-.098-.036 0-.09-.17.296.006.267.108.451 0l.091-.17.543.17v.17c.244 0 .514.028.635-.086v-.17l.18.085v-.086c.18-.028.363-.056.543-.086.085.052-.032.122.091.086l.091-.17c.115 0 .232.152.452.086v-.086c.15-.028.301-.056.452-.086l-.091.256h.091c.202.207.17.12.452.086-.01.27-.176.16.091.257.04.212.083.314.091.599-.25.062-.201.024-.271.256h-.091v.427c-.217.04-.285.098-.452.17v-.256h-.091c-.134.478-.157.176-.452.342v.086l-.363.256.091-.256h-.091c-.055.136-.08.202-.091.427-.342.068-.507.166-.995.17v-.17h-.18v.17h-.452v.086h.09c-.056.122-.105.064-.18.17h-.18l.092-.17h-.092c-.089.116-.053.168-.271.17 0 0-.064-.122-.18-.086-.03.056-.06.114-.092.17h-.18l-.091.513-.363.086v-.342h-.18c-.066.274-.123.31-.452.342l.091-.256h-.091c-.034.098-.026.304-.18.256l-.092-.256c-.091.028-.18.056-.271.086v.17a1.19 1.19 0 0 0-.452-.086v-.256h-.091v.256c.104.098.036 0 .09.17-.211.028-.421.056-.633.086v.17c-.32.033-.276.107-.544.17v.257c-.22-.048-.199-.09-.362-.17v.17h-.091v.257h.09v-.17h.181v.17c.15-.028.301-.056.452-.086v.256h.18v-.256c.15.028.301.056.452.086.043-.205.104-.269.18-.427.295.002.654-.038.815.086h.091l.091-.17h.18v-.086h.181v-.086l.18.086v-.086h.906l-.091-.257h.18v-.086h.092V5.9l.271.086c.006.12.021.024-.091.087.102.09 0 .038.18.086v-.086h.091v-.257h.092c.078-.118.067-.148.09-.342.215-.01.23-.026.364-.086v.086h.09v.086l-.09.17h.271v-.17c.212-.028.422-.056.634-.086v.086h.091c.102-.068-.033-.112.092-.086v.086h.362v.17h.092l.09-.513h.181v.17h.092v-.256c.207.008.235.072.362.086l.091-.17s.249.08.363.086v-.17l.091.086c.121-.028.242-.056.363-.086v.086h.452v-.256h.18v.086h.092v-.086l.18.086.091-.256c.24-.085.189.186.363.17v-.086c.396-.088.498-.21.906-.257v.086h-.092c-.171.075.18.087.18.087.077.096-.01.012.092.086v-.17l.452-.087.09-.17.092.086c.537.032.607-.178.906-.342v.256h.091c.104-.098 0-.034.18-.086v-.17c.092.028.18.056.272.086l.091-.17h.363v-.086h.091c.055.204.03.158.18.256v-.256c.476-.073.401-.01.815.17.047-.2.132-.32.272-.427.103.098 0 .034.18.086v-.17h.272v-.17c.15.028.3.056.451.086v.17h.18v-.256c.198.012.302.086.363.086v-.086l.272-.086.091.17c.289.08.721-.178.906-.256l-.091-.257h.271c.055.204.03.158.18.257.077.096-.01.012.092.086.006-.225.036-.29.091-.427.18-.028.363-.056.543-.086.076.096-.01.012.091.086-.07.086-.11.084-.18.17h.271l-.09-.256.09-.086c.134.04.145.098.363.086V2.66h.091v.086c.121.028.242.056.363.086v.086c.37.132.537-.062.724.086.282.177.042.11.18.343l.18.086v.17h.091c.083.116.068.15.092.343l-.363-.087c.072.277.167.295.18.683-.102.073-.013-.01-.091.087h-.091c-.028-.257-.013-.233-.18-.343v.086h.09l-.18.343c-.235.004-.312.018-.452.086v.086c-.154.05-.157-.08-.18-.086-.324-.078-.53.108-.634.256h-.091c-.03.17-.06.343-.092.513h-.18l-.091-.17c-.121.028-.242.056-.363.086.02.202.038.212.091.342-.21-.008-.23-.068-.362-.086l-.092.17c-.12.028-.241.056-.362.086-.066.237-.026.19-.272.257-.318.27-.585-.108-.634-.086v.086l-.452.256c.049.299.09.158 0 .427h.091v-.086h.363v.17l.272-.086V6.85l.271.086v-.257c.091.028.18.056.272.087v-.087l-.092-.086h.543l.092.257a.982.982 0 0 0 .18-.17c.091.027.18.055.272.086v-.087c.133-.066.15-.064.362-.086v-.17h.18v-.17h.363v.17c.204-.022.24-.008.363-.086V6.25h.18v-.086h.18v-.086c.162-.123.217-.193.453-.257v.257h.362l.091-.427h.18c-.029.086-.059.17-.09.256h.09c.13-.122.506-.218.724-.256v-.17c.121-.028.242-.056.363-.086v-.257h.18v.257h.18v-.257h.452l-.09.257h.18c.093-.098.167-.165.362-.17v.086h.091l.092-.087c.085-.154.125-.134.18-.342l.271-.086V4.71l.092.086.271-.086v.256h.18c.02-.202.039-.212.092-.342l.18.086v-.086c.13-.107.14-.237.272-.343.027.04.184.31.271.256l.091-.256c.393-.028.785-.056 1.178-.086v.086c-.25.062-.202.024-.272.256.225-.038.333-.078.634-.086v-.086h-.09V3.94c.15.028.3.056.451.086l.091-.257c.104.099.036 0 .091.17l.272.087V3.94c.187-.097.163-.133.452-.17v-.257c.193-.01.31-.088.362-.086l.092.086v-.17l.452-.086v.17c.059-.028.12-.056.18-.086v-.086c.144-.016.112.148.18.17h.363l.091-.427c.15.028.301.056.452.086l.091-.17h.091V3c.092-.028.18-.056.272-.086v-.17c.104.098.036 0 .091.17h.18c.043-.204.104-.268.18-.426.302.004.815.086.815.086v-.086h.18V2.4h.272l.091-.17c.092.028.18.056.272.086v.087h.452v-.17l.363-.087v.17h.18c.057.235.119.195.18.427h.272c.066.236.025.19.271.256v.17c-.54.105-.469.343-.634.77h.543l.091-.343c.378-.054.257-.084.635-.17v.17c.428-.17.364-.17.723 0v-.17c.12-.028.242-.056.363-.086v-.17h.18v.086h.091V3.17c.206-.038.244.044.363.086V3.17h-.091c-.168-.083.18-.087.18-.087v-.17h.18v-.17c.285.05.403.138.724.17l.09-.256s-.192-.014-.09-.086h.18v.086h.543V2.4c.288.057.178.127.272.17.15-.013.167-.167.18-.17.174-.046.125.057.18.087h.091V2.4l.363.087c.066-.237.026-.19.272-.257v.17h.362c.085-.154.126-.134.18-.342l.272.086V2.06c.06-.028.121-.056.18-.086v.17h.18l-.09-.256c.216-.04.284-.098.451-.17v.342c.471-.116.323-.188.906-.086v-.256h.272v.086c-.038.05-.149.012-.091.17h.091c.146-.529.193-.144.543-.343.206-.116-.006-.314.452-.426v.086l.271-.086v.17h.092v-.17c.32.032.275.106.543.17v.17c.084.134.647.159.362.427h.181v.342l-.181.086c-.004.029.085.19.092.343h.18c-.043.204-.104.268-.18.427-.162.008-.327.09-.363.086V3.17h-.363v.086l-.543.086v.17l-.363.17v-.086h-.091v.256l-.634.17c.104.099 0 .035.18.087v.086c.159.07.291-.05.363-.086v-.086h.271v-.17c.422-.02.516-.125.815-.257V3.51h.634v.086h-.091c-.104.098 0 .034-.18.086v.17c.369-.1.095-.078.271-.256l.18.086v-.086h.181V3.51h.271c.096-.052.225-.423.452-.342v.086h.18v-.257c.092.028.181.056.272.086v-.086c.18-.028.363-.056.543-.086v.17h.18c.03.087.06.17.092.257h.091v-.17h.18c.053-.319.053-.197 0-.513.028.01.872.186.906.17v-.086h.091v-.343h.091c.185.157.412.025.724 0v-.17c.182.048.078-.01.18.086.333-.09.248-.172.452-.342v-.086c.229-.134.715-.006 1.086 0 .057-.235.119-.195.18-.427.388-.014.31-.054.543-.17v.256h.363c.019-.202.038-.212.091-.342l.272.086.091-.17h.18V1.03c.092-.028.181-.056.272-.087l.091.257c.229-.174.038-.206.452-.257v.087c-.104.078-.106.062-.18.17h.091v.086c.189-.094.161-.138.452-.17.076.096-.011.012.091.086-.106.162-.076.082-.272.17v.086h.181c-.03.17-.06.343-.092.513h.092v.086h-.092v.17c.03.2.06.399.092.6h-.092c-.076.097-.046.12-.18.17V2.91h-.091c-.059.086-.121.17-.18.257h-.272l-.091.17c-.121.028-.242.056-.363.086-.03.086-.059.17-.091.256l-.272.086-.091.17h-.091V3.85c-.333-.074-.437.29-.634.087v.17h-.181c.03.114.06.228.092.342h-.092c-.101.147-.057.116-.271.17-.009-.017-.13-.31-.18-.256v.086l-.181.086c-.029.087-.059.17-.091.257h-.272c-.303.14-.118.226-.634.256l.091.257.363-.087v.257h.091v-.086h.363c.276-.099.403-.239.815-.257v-.17c.256-.054.239-.158.271-.17h.363v.086l.363-.086s.04.106.18.086V4.79l.363.086V4.79c.104-.098.036 0 .091-.17h-.091v.086c-.079.162-.091-.17-.091-.17.33.027.664.056.994.086l.092-.17c.091-.027.165.131.362.085v-.086h.452v.086h.091v-.086h.363l.091-.256h.092l-.092-.17h.272c.104.098 0 .034.18.086v-.17c.217.04.285.098.452.17v-.086h-.091c-.168-.082.18-.086.18-.086v.086c.104.098.036 0 .091.17.193-.01.308-.086.363-.086v.086h.181c.025-.152.091-.17.091-.17l-.091-.257h.091v-.086c.256.108.373.22.723.257v-.17c.528-.115.051-.217.543 0v-.343h.091v.086l.363-.256v.342h.091c.045-.04-.025-.138.092-.086v.086h.091s-.026.307.091.17v-.086c.104-.098.036 0 .091-.17h-.271c.07-.256.055-.224.362-.256v.086l.272-.086v.086h.271v.086c.234.046.497-.266.635-.343l.271.087v-.087c.151-.092.151-.116.363-.17-.03.086-.059.17-.091.257h.091v.086c.091-.056.18-.114.272-.17v-.087h.18c.163-.068.197-.194.271-.342l.452.342c.055-.168.004-.208.18-.256.03.01.028.16.181.17.193-.242.08-.172.363-.086.029-.276.082-.25.18-.426.316.046.167.084.452 0v.512h.091c.102-.146.057-.116.271-.17.17.268.336.242.363.683.248.01.656.118.724 0h.091v.086c.25.056.534.238.634.427v.256h.091c.125.158.21.198.272.427-.091-.028-.18-.057-.272-.087v.087h.092v.256h.091c.082.126.08.21.091.427-.104.098-.036 0-.091.17-.302.028-.603.056-.906.086v-.17c-.121.028-.242.056-.363.086v-.17c-.059.028-.121.056-.18.086-.03-.056-.06-.115-.091-.17-.002 0-.268.116-.452 0l-.091-.257c-.107-.07-.155.25-.363.17v-.086c-.104-.098-.036 0-.091-.17l-.272.086v-.086h-.091c.03-.086.059-.17.091-.256 0 0-.112-.026-.091-.17 0 0 .15-.039.091-.17h-.091c-.104.097 0 .033-.18.085l-.092.257c-.212-.024-.224-.028-.362-.087v-.086c-.153.01-.153.163-.181.17-.205.069-.365-.106-.452-.086v.087c-.307.116-.375.266-.723.342l.091-.256h-.18c-.134.232-.278.39-.634.426v-.256h-.091c-.07.256-.056.224-.363.256v-.17c-.378.194-.429.174-.906.086v-.17h-.091c-.007.33.015.352-.272.427v.086c-.087.158-.091-.17-.091-.17h-.18c-.03.055-.06.114-.092.17-.15-.028-.301-.056-.451-.086v.17h-.272v.086c-.104.098-.036 0-.091.17l-.543.086v-.17l-.906.086v.17h-.272v.086c-.08.16-.091-.17-.091-.17-.29.066-.195.128-.543.17v.257c-.534-.052-.494-.303-1.086-.343-.002.285-.047.387-.091.6h-.18c.027-.075.174-.19.091-.343h-.091v.086c-.104.098-.036 0-.092.17l-.543.086v.17c-.303-.052-.57-.234-.905-.086-.06.086-.121.17-.181.257-.246.068-.28-.23-.363-.257-.163-.052-.065.096-.091.17a14.14 14.14 0 0 1-.271-.086v.343h-.181l-.091.17c-.148.042-.167-.084-.18-.086-.219-.036-.236.086-.363.086v-.086c-.18-.028-.363-.056-.543-.086v.17c-.6.06-.906.074-1.358 0l-.091.256c-.169-.042-.433-.036-.723-.086v-.086c.104-.098.036 0 .091-.17-.216.008-.225.056-.363.086v-.086c-.15-.092-.148-.122-.362-.17v-.17h-.181a8.724 8.724 0 0 0-.091-.257l-.543-.086v-.17c.072.028.284.174.452.086v-.086c-.267-.164-.221-.34-.18-.599.12-.056.123-.134.18-.17.059.028.121.056.18.086v-.343h.091c-.029-.17-.059-.342-.091-.512a14.14 14.14 0 0 1-.271-.086c.029.056.059.114.091.17l-.272-.086v.17h-.091c-.03.056-.059.114-.091.17h-.272c.022.198.1.052 0 .257l-.18-.087v.17c-.098.15-.091-.17-.091-.17-.151.028-.301.056-.452.087 0 0-.042-.129-.18-.087-.03.056-.06.115-.092.17h-.271c-.03.087-.059.17-.091.257-.14-.07-.401-.308-.635-.256-.029.056-.059.114-.091.17-.174-.016-.15-.166-.18-.17h-.091v.086h-.452v.086h.18c-.03.17-.059.342-.091.513h-.18c-.083-.034-.06-.26-.363-.17l-.091.17h-.452v-.087c-.132-.068-.153-.06-.363-.086v.257c-.091-.028-.18-.056-.271-.086v.086c-.104.098-.037 0-.092.17-.337.09-.244.176-.451.342v.087h-.272V6.5h-.18v.17h-.452v-.086h-.091l-.18.343-.181-.086v.086l-.272.17v-.256h-.09v.086l-.272-.086v.086c-.128-.006.036-.072-.092-.086l-.543.086v.256h-.09v-.086c-.247-.124-.444.12-.544.17-.05-.268-.089-.358-.363-.426.051.208.096.188.18.342h-.18c-.144.126-.532.094-.814.086V7.1h-.18v.17c-.18-.028-.363-.056-.543-.086-.045-.202-.085-.202-.18-.342.122-.1.088.064.18-.086-.12-.07-.107-.06-.18-.17h.18c.019-.203.038-.213.09-.343-.256-.056-.34-.158-.451-.343h.271l.18-.683c-.118-.07-.105-.06-.18-.17-.193.104-.197.192-.452.257v-.17h-.09v.256c-.353.028-.408.138-.635.256-.019-.202-.038-.212-.091-.342-.102.072-.013-.01-.091.086h-.092l.092.086-.092.256c-.384-.062-.434-.014-.905 0l.09.256h-.09c-.075.113-.064.1-.18.17v-.342c-.461.024-.4.152-.907.17-.067.29-.192.395-.543.427v-.17h-.09v.086c-.08.162-.092-.17-.092-.17l-.272-.086.092.17h-.18c-.145.126-.223.294-.272.513h-.272v-.17c-.58.02-.727.312-1.177.426.057-.234.119-.194.18-.427-.579.12-.99.497-1.357-.086.407-.224.193-.318.09-.683h-.362c-.076-.096.01-.012-.091-.086.028-.074.174-.188.091-.342h-.091v-.086h-.272c-.152.236-.388.172-.543.342l-.09.256h-.272v.086c-.092.028-.18.057-.272.087v-.17c-.282.057-.412.256-.634.342H83.9v.086l-.272-.086v.17l-.543.086v.086h-.362c-.03.006-.024.118-.18.086v-.086h-.18v-.086l-.635-.086c-.066.12-.163.258-.272.343v-.343h-.09v.17a12.284 12.284 0 0 1-.272-.086c-.043.2-.151.265-.18.427h.09c.03.086.06.17.092.256-.516.006-.569-.09-.906-.17-.134.232-.278.39-.634.426v-.17h-.18v.343h-.181v.086h-.634v.086h-.18v.086c-.06-.028-.121-.056-.18-.086v.086h-.092c-.134-.102.076-.062-.091-.17.01.27.176.16-.092.256v-.17c-.509.058-.292.212-.543.342h-.18l-.091.257h-.452v-.086c.225-.157.117-.066.091-.343h-.18v.257c-.787.002-.925.148-1.63.17v-.17l-.362.17.091.342c-.235-.014-.31-.018-.452-.086v-.086l-.271.086c-.015-.002-.032-.12-.18-.086v.086h-.18v.086h-.181v.086c-.125.078-.16.06-.363.086V8.64h-.091v.086H72.5c-.061.026-.004.11-.271.17-.03.087-.06.17-.092.257h.092c.133.104-.33.084-.363.086v-.086l-1.086-.17c.049-.239.07-.008 0-.257-.098.048-.19.23-.363.17V8.81h-.091l.091-.17h-.091c-.104-.098 0-.034-.18-.086-.03-.086-.06-.17-.092-.256h.18l-.09-.257h.09v.086c.079.163.092-.17.092-.17h.091v-.086c-.06-.028-.121-.056-.18-.086l.09-.256h-.09v-.087h.271v-.086c-.119-.07-.106-.06-.18-.17.155-.096.123-.054.18-.256l.363-.086c.01-.006.14-.317.18-.257v.17h.272c.085-.154.125-.134.18-.342-.123-.1-.138-.156-.18-.342h.18v-.17h.18v-.087c-.18.028-.362.056-.543.086v-.086c-.118.006-.227.146-.451.086v-.086c-.18-.028-.363-.056-.544-.086v.343h-.18v.17l-.271-.17v-.17l-.092.085c-.104.099-.036 0-.09.17h-.364v.17c-.18-.027-.362-.055-.543-.085l-.09.426c-.221.048-.2.089-.364.17v-.085c-.093-.075-.125-.149-.18-.257-.104.098-.036 0-.091.17-.18.028-.363.056-.543.087v.17c-.214.018-.225.036-.363.086v-.17h.091l-.09-.257h-.092v.17c-.06-.028-.121-.056-.18-.086-.104.068-.037.203-.272.17l-.091-.17h-.091v.17l-.272.087c-.047-.012-.055-.217-.18-.17-.091.114-.18.228-.272.342-.091-.028-.18-.056-.271-.086v.17h-.18v.17c-.102-.072-.013.01-.092-.086-.097-.078-.017.014-.091-.086h.091v-.086h-.271v.086h-.092v-.086h-.271l-.091-.17c-.06.028-.121.056-.18.086-.124.034.038.092-.092.086v-.086h-.18c-.002.264.025.44.091.599h-.363v.17h-.09V7.52h-.181l-.091.256c-.102-.072-.013.01-.092-.086h-.09l.09-.257-.271.087v.086h-.18c-.03.056-.06.114-.092.17h-.363v.086h-.09c-.045-.038.025-.138-.092-.086l-.091.17-.452.086v-.17h-.091l-.091.17h-.092l-.09-.17c-.126-.054-.255-.042-.364-.086-.006.33.015.352-.271.427v-.17h-.18v.17h-.452l-.18.426h-.18v-.086c-.03-.004-.209.076-.364.086.051-.208.096-.188.18-.342h-.18l-.09.256-.635-.086c-.096.044-.066.192 0 .256h-.18c-.079.088-.157.118-.272.17v-.256c-.405.032-.263.054-.634 0v.086c.104.098.036 0 .091.17h-.452c-.023-.004-.03-.11-.18-.086v.086h-.18c-.03.087-.06.17-.092.257-.102-.072-.012.01-.09-.086-.103-.072-.014.01-.092-.086.119-.07.106-.06.18-.17h-.362c-.081.09-.16.112-.272.17v.086l-.272-.086v.086c.12.07.106.06.18.17h-.18c-.106-.116-.165-.13-.362-.17v.17c-.17-.06-.355-.084-.635-.086-.1-.178-.146-.152-.18-.427h-.18v-.17c-.102.072-.013-.01-.092.086h-.09v.17l-.18.086v.257h-.092l-.272-.343h-.09c-.12-.19.048-.238-.181-.426l.091-.343s-.117-.042-.091-.17h.091v-.427s.055 0 .091-.17c.25-.062.202-.024.272-.256h.18v.086l.271-.086v-.17l.452.086c.066-.237.026-.19.272-.257v-.342h.091l-.091-.17h.091c.077-.096-.01-.012.091-.086V5.98c.087-.158.092.17.092.17l.271.087V6.15h-.091l.091-.257h.543v.086c.212-.028.422-.056.634-.086v-.17h.363v-.17c-.31-.004-.626-.058-.814-.086-.06.086-.121.17-.18.256l-.544.086c.051-.208.096-.188.18-.342h-.362v.086h.091c.104.134-.223.08-.272.086v.256h-.09v.086l-.453.087c.03-.143.06-.285.092-.427-.221.048-.202.088-.363.17v.086l-.543-.17v.086c-.104.098-.036 0-.091.17-.149.026-.395.179-.452.17V6.07h-.272c-.125-.024.034-.113-.091-.087l-.091.17h-.18l.09-.17h-.09c-.104.099 0 .034-.18.087v.17c-.151.028-.302.056-.453.086-.017-.004-.03-.122-.18-.086v.086h-.18v.086c-.09-.018-.106-.23-.18-.17-.15.116.1.164-.272.256v.257h-.091v-.17h-.092l-.09.17h-.364c-.108-.187-.199-.283-.451-.343v.086h-.363l-.091.17-.272-.086v.257h-.18c-.223.358-.202.1-.452.256l.091.17c-.18-.028-.362-.056-.543-.086-.008.002-.047.148-.18.17v-.086H47.6l-.091-.086v.086c-.257.156-.265.247-.723.257-.102-.147-.058-.117-.272-.17v.17h-.18v-.087c-.115-.034-.238.243-.272.257-.186.078-.259-.074-.363-.086v.086c-.18.028-.362.056-.543.086l-.09-.256c-.251.062-.202.024-.272.256-.272.028-.543.056-.815.086l-.091.17h-.634v.086c-.236.066-.423.008-.635.087-.05-.209-.095-.189-.18-.343-.102.072-.013-.01-.091.086-.318.212-.021.305-.452.427v.086h-.452l-.091.17c-.202.076-.255-.106-.363-.086v.086c-.18.034-.114-.038-.18-.086h-.091v.17c-.092-.028-.18-.056-.272-.086v-.086l-.272.086v-.086h-.362l-.091-.17c-.128 0-.043-.026-.092.086-.112-.098-.034 0-.09-.17h.362v-.17h-.363c-.085-.155-.125-.135-.18-.343h.18c-.053-.353-.098-.409-.271-.77-.12.045.025.035-.092.087h-.271v.086c.182.048.078-.01.18.086-.259-.008-.388-.016-.543-.086v.086c.104.098.036 0 .091.17-.443 0-.515.099-.814.17v-.256h-.092v.086h-.09l-.181-.086v.257h-.272v-.17h-.09v.17h.09v.256c-.3-.002-.409-.044-.634-.086v.17c-.214-.01-.229-.026-.363-.086v.086c-.103.098-.036 0-.09.17-.478-.05-.209-.184-.635-.086v-.17c-.144-.02-.115.146-.18.17-.34.12-.62.048-.906 0v.257l-.18-.086v.086c-.183.146.008.13-.092.256h-.09c-.22-.308-.847-.052-1.267 0v.256c-.17-.044-.495-.306-.635-.256v.086h-.09v.256c-.272.029-.544.057-.815.087v.17h.09c-.029.086-.059.17-.09.256-.215-.01-.23-.026-.363-.086v.086h-.091v-.256h-.18v.256h-.092v-.086h-.363v.086l-.18-.086v.086c-.2.058-.299.026-.452.086v.257c-.452.064-.447.076-.814-.17l-.091.256h-.363v.086c-.121.028-.242.056-.363.086v-.17h-.18c-.056.3-.098.392-.452.426v-.086c.104-.098.036 0 .091-.17-.12-.028-.242-.056-.363-.086v-.086c-.172-.05-.125.048-.18.086l-.272-.086v.086h.092v.342h-.18v-.17c-.249.136-.164.21-.544.257-.066.236-.025.19-.271.256-.244.272-.529.206-.906.17v-.17h.363l-.091-.256c-.138.05-.149.066-.363.086-.015-.233-.03-.515-.18-.6v-.085c.065-.09.07.074.18-.086h-.18c-.162-.09.18-.087.18-.087-.051-.208-.096-.188-.18-.342h.27c.075.112.065.1.181.17-.22-.448-.333-.863.452-.855.104.098 0 .034.18.086.03-.142.06-.284.092-.426h-.18v.17h-.181l.091-.257h-.091c-.068.163.064.089-.091.17-.119-.1.108-.13-.091-.17v.17l-.18-.085v.086h.09l-.18.342h-.091v-.256h-.091v.086h-.272l-.18.256h-.18V8.8h-.272v.086h-.18v.087c-.365.122-.639-.119-.815 0-.246.15-.286.472-.363.512h-.814c-.104-.098 0-.034-.18-.086v-.17h-.092l.091.342h-.09c-.172.14-.48.09-.724.17v.087c-.134.04-.354-.092-.363-.086v.17h-.452l-.271.599h-.091v-.257h-.18c-.02.203-.039.213-.092.343-.102-.072-.013.01-.091-.086-.104-.098-.036 0-.091-.17.155-.097.123-.055.18-.257h-.272v.513c-.15-.028-.3-.056-.451-.086v-.086c.104-.099.036 0 .09-.17h-.18l.092-.17h-.091c-.105.097 0 .033-.18.085-.024.166-.09.166-.092.17-.144.421.08.547-.452.6v-.17c-.125.041-.2.033-.363.085v.086c-.09-.028-.18-.056-.271-.086v.086h-.18l.09.17h-.542v.087c.104.098.036 0 .09.17-.145-.006-.633-.086-.633-.086-.03.056-.06.114-.092.17-.246.126-.288.022-.451 0v.086h-.18l-.092.17c-.15.028-.301.056-.452.086v.087c-.12-.028-.242-.056-.363-.087l-.451.087v.086c-.27.072-.367-.136-.543-.17v.086c-.104.098-.037 0-.092.17h-.362l-.092-.086c-.046.02-.025.152-.18.17v-.086l-.271-.086v.086c-.092.028-.18.056-.272.086v-.17c-.163.08-.142.118-.363.17v.17h-.09v-.256c-.51-.006-.898-.204-1.087-.513l.18-.086c.007-.12-.089.036-.09-.086l.09-.427h.18c-.199-.532.223-.829.272-1.368.28-.048.605-.086.995-.086V9.23h.272c.061-.25.1-.28.362-.343v-.17c.528-.114.051-.216.543 0v-.17c.202-.036.31-.082.452-.17V8.29c.18-.016.064.13.18 0 .104-.098.037 0 .092-.17h.18c.104-.347.185-.17.363-.427l.543.17v-.086h.091v-.343c-.52.01-.664.07-1.086 0-.051.269-.09.359-.363.427v-.17h-.18v.256c-.185.092-.357.253-.634.257l-.092-.087c-.326.233.03.399-.634.427l.091-.342h-.18v.086h.091c.007.03-.155.308-.18.426h-.18v-.17h-.18v.17l-.092-.086-.543.17-.091.17c-.119.049.019-.063-.091-.086l-.272.087v-.087h-.271v-.086h-.092v.086s-.25-.078-.362-.086l-.18.427c-.08-.026-.2-.164-.363-.086v.086h-.092v.256h-.09v-.256h-.092v.342c.015.12.095-.036.091.087l-.091.086c-.157-.074-.032-.01-.091-.17h-.092v.17l-.451.086.09-.17h-.09c-.14.148-.164.084-.363.17v.086c-.134.048-.346.022-.363-.086h-.091v.256h-.091v-.086h-.092v.17h-.18v.17c-.229-.068-.56-.005-.995 0l-.09.6h-.181v-.17c-.138.05-.149.065-.363.085v.257l-.543.17v.086h-.18v.086c-.444.158-.548-.132-.815.256h-.091l.091.086-.091.257c-.121-.028-.242-.056-.363-.086v.256c-.32.032-.276.106-.543.17v-.17h-.091v.256c-.18.028-.363.056-.543.087l-.091.256h-.18c-.03.086-.06.17-.092.256H1.78v-.256h-.091l-.092.17-.271-.086v-.086c-.176-.042-.121.048-.18.086l-.363-.086.091-.086v-.086H.783v-.257h.091V12.3h-.18c-.002-.284-.047-.386-.092-.599h-.18c-.161-.09.18-.086.18-.086.03-.086.06-.17.092-.256.466.02.447.162.452-.343a35.9 35.9 0 0 0 .451-.086v-.342l.272-.086c.104-.098 0-.034.18-.086v.17h.18v-.17c.092.028.18.056.272.086v-.17H2.41l.091-.257h.091v-.086h.272c-.002-.12.019-.024-.091-.086v-.086h.271V9.73h.091l.092.17.905.17c.009-.32.083-.392.18-.599.092.028.18.056.272.086v-.17h.272l-.092.17h.092v-.086h.18c.1-.074.04-.206.18-.256.08.076.034.144.18.17.06-.086.122-.17.181-.256h.271v-.086h.092V8.7h.18v.17c.386-.034.41-.176.723-.256.072-.276.168-.294.18-.683h.815v.086l.272-.086v-.086c.136-.034.123.152.18.17l.272-.086v.17h.09v-.17c.103-.072.014.01.092-.086l-.18.086v-.342h.091v-.343h.452l-.091.257h.271c.144-.167.329-.229.452-.427.093.074.125.148.18.256.091-.056.18-.114.272-.17v-.086h.18l.091-.17c.06.028.121.056.18.086.122-.086-.11-.144.092-.17v.086c.091.028.18.056.271.086v-.17c-.104-.099-.036 0-.09-.17.233.04.4.081.723.085.129-.182.237-.172.451-.256L12 6.225h.362v-.086h.091v.086h.18v-.17c.514-.014.338-.133.635-.257h.362v-.086c.104-.098.037 0 .092-.17h.271v.17h.18c.075-.274.107-.248.452-.256v.17c.212-.092.295-.196.543-.256v-.257h.18v-.17c.478.002.716-.1 1.087-.17.066.236.025.19.271.256l-.09-.256h.09c.1-.12.316-.25.452-.343v-.086h.272v.086h.09v.257h.092c.03-.34.093-.395.452-.427v.086c.12.04-.034-.054.091-.086l1.086-.17c-.09-.267-.05-.13 0-.427.22-.048.2-.088.363-.17v.086h.091c.072.126-.091.17-.091.17l.091.17c.208-.164.115-.256.452-.342l.091-.256c.26.1.427.162.815.17.091-.17.18-.342.271-.513h.18l.092.17.634-.17v-.086h.634l.092-.17h.18c.057-.234.119-.194.18-.427.121.028.242.056.363.086v-.086c.1-.076.02.014.091-.086h-.09c-.09-.142.129-.072.18-.086v-.086c.09.028.18.056.27.086-.029.056-.059.114-.09.17h.09c.285-.308.533 0 .907.086.061-.112.112-.092.18-.17l-.091-.17h.18v-.086l.18-.086c.013-.12-.019.014-.09-.086l.09-.17c.306.06.348.186.635.256V1.61c.248.054.206.113.452.17v-.256c.1.028.178.152.362.086v-.086h.272v-.086l.543-.426v-.17h.18v.085c.125.024-.017-.018.091-.086l.18.086-.09.257c.504.036.761.152 1.086-.17-.179-.097-.213-.12-.272-.343l.272-.086c.03.056.059.114.09.17h.181V.413c.197.036.259.056.363.17l.543-.17-.091-.17h.452v-.17l.044.02Zm-.904 1.282v.17h.092v-.17h-.092Zm80.642.17v.17h.091v-.17h-.091Zm-80.37.257v.17h.091V1.8h-.091Zm-1.267.17v.17h.092v-.17h-.091Zm79.374.256c.104.098 0 .034.18.086-.104-.098 0-.034-.18-.086Zm-7.149.086c.104.099 0 .034.18.086-.104-.098 0-.034-.18-.086Zm-76.297.257c.008.29 0 .31.18.426V2.91h-.091v-.342h-.091l.002.002Zm74.94.086c.103.098 0 .034.18.086-.104-.098 0-.034-.18-.086Zm-9.867.084v.17h.091v-.17h-.091Zm6.336.086-.09.17s.262-.136.18-.17h-.092.002Zm9.321 0h.181c-.077.096.01.012-.091.086v.086c-.104-.098-.037 0-.092-.17l.002-.002Zm-80.098.086c.104.098 0 .034.18.086-.104-.098 0-.034-.18-.086Zm50.776.084v.17h.09v-.17h-.09Zm-49.78.343v.086h-.09c-.172.074.18.086.18.086.076-.096-.01-.012.091-.086-.104-.098 0-.034-.18-.086Zm69.51 0v.086h-.091c-.172.074.18.086.18.086.076-.096-.01-.012.091-.086-.104-.098 0-.034-.18-.086Zm23.169 0v.086h-.091c-.172.074.18.086.18.086.076-.096-.011-.012.091-.086-.104-.098 0-.034-.18-.086Zm-60.64.086v.17h.091v-.17h-.091Zm-22.354.084v.17h.09v-.17h-.09Zm23.169 0v.17h.09v-.17h-.09Zm16.743 0c.153.184.18.17.18.17.066-.082-.157-.15-.18-.17Zm23.171 0c.153.184.18.17.18.17.066-.082-.156-.15-.18-.17Zm6.426 0v.17h.091v-.17h-.091Zm16.743 0c.153.184.18.17.18.17.066-.082-.157-.15-.18-.17Zm-99.377.172h-.18v.086h.09v.087h.092v-.17l-.002-.003Zm1.177.513h.18l-.09-.342h-.092v.342h.002Zm69.51 0h.18l-.091-.342h-.092v.342h.002Zm23.168 0h.181l-.091-.342h-.092v.342h.002Zm-93.672-.172v.342h.09v-.342h-.09Zm23.168 0v.342h.092v-.342h-.092Zm46.34 0v.342h.092v-.342h-.092Zm13.394.172v.256h.092a.867.867 0 0 1 .362-.342v-.086h-.18c-.102.146-.057.116-.271.17l-.003.002Zm9.775-.172v.342h.092v-.342h-.092Zm-51.86.086v.17h.092v-.17h-.091Zm23.17.17h.18v-.086c-.102-.072-.013.01-.091-.086h-.091v.17l.002.002ZM36.57 4.194v.256h.092v-.256h-.092Zm23.17 0v.256h.09v-.256h-.09Zm39.642.34c.066.237.026.19.272.257.057-.235.119-.194.18-.427h-.09c-.115.162-.092.142-.364.17h.002Zm.815-.17v.17c.238-.006.308-.034.452-.086v-.086h-.452v.002ZM52.41 4.45v.257h.091V4.62c.102-.073.013.01.092-.087l-.18-.086-.003.002Zm23.17 0v.257h.09V4.62c.102-.073.013.01.092-.087l-.18-.086-.003.002Zm23.168 0v.257h.091V4.62c.102-.073.013.01.092-.087l-.18-.086-.003.002Zm23.171 0v.257h.092V4.62c.101-.073.012.01.091-.087l-.181-.086-.002.002Zm-58.015.084v.17h.09v-.17h-.09Zm41.995 0c.153.185.18.17.18.17.066-.081-.156-.15-.18-.17Zm-47.878.173v.256h-.18v.17l.18-.086.091-.256c.102-.072.013.01.092-.086h-.18l-.003.002Zm3.802 0v.17h.09v-.17h-.09Zm23.169 0v.17h.09v-.17h-.09Zm14.21.17h-.271v.17h.18c.085-.154.125-.134.18-.342h-.09v.17l.001.002Zm8.958-.17v.17h.092v-.17h-.092Zm-57.65.34v-.17c-.102.072-.013-.01-.092.086h-.09c.103.098 0 .034.18.086l.002-.002Zm22.897-.17v.256h.091c.104-.098 0-.034.18-.086v-.17h-.27Zm12.85.17v-.17h-.27v.086h.09c.105.098 0 .034.18.086v-.002Zm10.59 0v-.17c-.101.072-.012-.01-.09.086h-.092c.104.098 0 .034.18.086l.003-.002Zm7.151-.17v.17c.102-.072.013.01.092-.086h.091c-.104-.098 0-.034-.18-.086l-.003.002Zm12.851.086v.17h.092v-.17h-.092Zm-59.914.34h.18c-.076-.096.01-.012-.09-.086v-.17h-.092v.257h.002Zm-25.524-.17v.17h.092v-.17h-.092Zm23.172 0v.257h.09v-.257h-.09Zm46.337 0v.17h.092v-.17h-.092Zm17.65 0c.104.098.036 0 .091.17h-.091v-.17Zm5.522 0v.17h.091v-.17h-.091Zm-105.35.087v.17h.091v-.17h-.091Zm23.169 0v.17h.091v-.17h-.091Zm46.34 0v.17h.091v-.17h-.091Zm23.169 0v.17h.091v-.17h-.091Zm-63.896.085c.008.018.13.31.18.256v-.086h.091c-.078-.088-.157-.118-.271-.17Zm23.349.428h.18v-.17h-.18l.091-.17c-.09-.028-.18-.056-.271-.086v.086c.123.1.138.156.18.342v-.002ZM46.981 5.39l.09.256h.092c-.055-.204-.03-.158-.18-.256h-.002Zm23.169 0 .09.256h.092c-.055-.204-.03-.158-.18-.256h-.002Zm1.72 0h-.18c.076.096-.01.012.091.086v.086h.091v-.17l-.002-.002Zm35.751.342h.18v-.17h.091c-.03-.056-.059-.114-.091-.17-.102.072-.013-.01-.091.086h-.092v.256l.003-.002Zm-75.574-.256c.104.098 0 .034.18.086-.104-.098 0-.034-.18-.086Zm15.386 0v.256h.09v-.256h-.09Zm23.169 0v.256h.09v-.256h-.09Zm1.72 0h-.18c.076.096-.011.012.09.086v.086h.092v-.17l-.002-.002Zm10.498 0v.256h.092v-.256h-.092Zm23.171 0v.256h.092v-.256h-.092Zm-91.594.084v.17h.092v-.17h-.092Zm4.254 0v.17h.09v-.17h-.09Zm23.17 0v.17h.092v-.17h-.091Zm6.063.172v-.17c-.101.072-.012-.01-.09.086h-.092c.104.098 0 .034.18.086l.002-.002Zm17.107-.172v.17h.09v-.17h-.09Zm6.968 0v.513h.091V5.56h-.09Zm11.585 0v.17h.09v-.17h-.09Zm.362 0v.17h.092v-.17h-.092Zm4.254 0v.17h.09v-.17h-.09Zm18.555 0v.17h.091v-.17h-.091Zm.363 0v.17h.091v-.17h-.091Zm4.253 0v.17h.091v-.17h-.091Zm-94.942.086c.104.098 0 .034.18.086-.103-.098 0-.034-.18-.086Zm23.17 0c.103.098 0 .034.18.086-.104-.098 0-.034-.18-.086Zm69.508 0c.104.098 0 .034.181.086-.104-.098 0-.034-.181-.086Zm-63.083.17.09.257h.092c-.055-.205-.03-.159-.18-.257h-.002Zm23.17 0 .092.257h.091c-.055-.205-.03-.159-.18-.257h-.002Zm5.883.086v.17h.091v-.17h-.09Zm-57.201.427c-.066-.236-.025-.19-.271-.256l.09.342h.272v.086c.128.016-.034-.06.091-.086h.363v-.342c-.102-.073-.012.01-.091-.087h-.18v.087h.09c.03.154-.224.224-.362.256h-.002Zm11.767-.34-.091.17s.263-.136.18-.17h-.091.002Zm69.509 0-.091.17s.263-.136.18-.17h-.091.002Zm-84.986.426h.18v-.086c-.102-.072-.013.01-.091-.086h-.091v.17l.002.002Zm3.167-.17v.17c.102-.072.013.01.091-.086h.091c-.104-.098 0-.034-.18-.086l-.002.002Zm20.002.17h.18v-.086c-.102-.072-.013.01-.091-.086h-.091v.17l.002.002Zm3.169-.17v.17c.102-.072.013.01.091-.086h.092c-.105-.098 0-.034-.18-.086l-.003.002Zm23.169 0v.17c.102-.072.013.01.091-.086h.091c-.103-.098 0-.034-.18-.086l-.002.002Zm43.173.17h.18v-.086c-.102-.072-.012.01-.091-.086h-.091v.17l.002.002Zm3.167-.17v.17c.102-.072.013.01.091-.086h.092c-.104-.098 0-.034-.181-.086l-.002.002Zm-94.127.513v-.17l-.271.085.09.343h-.09v.086c-.212.028-.422.056-.635.086v.17c.12.016.563.105.635.086l.09-.17.272.086c.03-.142.06-.284.092-.426h.09c.105-.098 0-.034.181-.086v.17h.452v-.17h.18l-.18-.513h-.091l-.091.256c-.13.086-.522.154-.724.17v-.003Zm10.227-.43v.257h.091V6.33h-.091Zm-12.128.173v.17h.092v-.17h-.092Zm14.12 0v.17h.091v-.17h-.091Zm9.05 0v.17h.09v-.17h-.09Zm23.168 0v.17h.092v-.17h-.092Zm26.882 0c.104.098 0 .034.18.086-.104-.098 0-.034-.18-.086Zm10.409 0v.17h.091v-.17h-.091Zm9.05 0v.17h.091v-.17h-.091Zm-82.271.084c.104.098.036 0 .09.17h-.09v-.17Zm23.08.086c.101.147.057.117.271.17-.078-.087-.157-.118-.272-.17Zm10.318.17h.18v-.085c-.102-.073-.013.01-.091-.087h-.092v.17l.003.003Zm-33.579-.083h.18v.086c-.182-.048-.078.01-.18-.086Zm25.253 0c.103.098.036 0 .09.17h-.09v-.17Zm24.346.34h-.18v-.342h-.092v.086c-.104.098-.036 0-.09.17l.27.17c.077.096-.01.012.092.086v-.17ZM48.61 6.842v.17h.091v-.17h-.091Zm-29.688.172v.17h.091v-.17h-.09Zm23.171 0v.17h.091v-.17h-.09Zm20.002.084c.104.098 0 .034.18.086-.104-.098 0-.034-.18-.086Zm-32.131.256v-.17c-.102.072-.013-.01-.092.086h-.09c.103.098 0 .034.18.086l.002-.002Zm46.34 0v-.17c-.102.072-.013-.01-.092.086h-.09c.103.098 0 .034.18.086l.002-.002Zm-54.395.173v.17H22v-.17h-.091Zm1.812 0v.17h.09v-.17h-.09Zm-6.789.084v.17h.091v-.17h-.09Zm7.24.172c-.004.346-.042.368.18.513V8.21c-.152-.185.07-.413.181-.6h-.091c-.102.147-.058.117-.272.17l.002.003Zm1.63-.172c.104.098 0 .034.18.086-.104-.098 0-.034-.18-.086Zm4.705 0c-.03.086-.06.17-.092.256h.092v-.086c.038-.05.148-.012.09-.17h-.09Zm9.594 0v.17h.092v-.17H40.1Zm30.411.172c-.004.346-.042.368.18.513V8.21c-.152-.185.07-.413.181-.6h-.091c-.102.147-.057.117-.272.17l.002.003Zm1.63-.172c.104.098 0 .034.18.086-.104-.098 0-.034-.18-.086Zm-40.458.086v.17h.091v-.17h-.091Zm10.138.17h.18v-.086c-.102-.072-.013.01-.091-.086h-.092v.17l.003.002Zm13.033-.17v.17h.091v-.17h-.091Zm8.055 0c.104.098.036 0 .09.17h-.09v-.17Zm-19.913.086-.091.17.18.086c.066-.102-.191-.074 0-.256h-.091.002Zm-11.133.084-.091.256h.091v-.17h.091v-.086h-.09Zm23.171 0-.09.17s.262-.136.18-.17h-.092.002ZM7.518 8.21h.18v-.087c-.102-.072-.013.01-.091-.086h-.091v.17l.002.003Zm50.956 0h-.18c.076.096-.01.012.09.086v.086h.092v-.17l-.002-.002Zm-47.878.17v.17h.091v-.17h-.091Zm13.033 0v.342h.091v-.086h.092l-.091-.17h.09c-.103-.098 0-.034-.18-.086h-.002Zm33.307 0v.17h.091v-.17h-.091Zm13.666 0c-.104.098 0 .034-.18.086v.086h.18c.03-.056.059-.114.09-.17h-.09V8.38Zm-42.176.256-.092.17s.263-.136.18-.17h-.09.002Zm-3.439.172v.17h.091v-.17h-.091Zm1.992 0v.17h.091v-.17h-.091Zm-4.255.17h.18c-.074.113-.064.1-.18.17v.087h-.092l.091-.256Zm3.169 0-.091.17s.263-.135.18-.17h-.091.002Zm-6.97.343v.17h.09v-.17h-.09Zm-6.97.427v.17h.092v-.17h-.091Zm1.992.086v.256h.363v.17h.272c.074-.112.063-.1.18-.17v-.256c-.377.062-.38.022-.815 0Zm-7.33.17c.103.098 0 .034.18.086-.104-.098 0-.034-.18-.086Zm18.735.086v.17h.09v-.17h-.09ZM2.902 11.456l-.091.256h.09v-.17h.092v-.086h-.091Zm11.676.086v.17h.09v-.17h-.09Z" fill="#9FCCB9"/></svg>