<svg width="173" height="18" fill="none" xmlns="http://www.w3.org/2000/svg"><path fill-rule="evenodd" clip-rule="evenodd" d="M42.545.098c.598.113.686.401 1.38.448.1-.17.25-.424.627-.335v.113c.321.104.142-.113.377.112h.127v.448l.25.113v.222h.126c.041.113.082.223.127.336h-.503v.335c-.348.081-.28.031-.377.335-.439.094-.586.283-1.13.335.009.294.05.38.127.558-.43-.029-.986-.089-1.004-.112v.222h.127c.397.003-.377.113-.377.113-.159-.176-.335-.273-.627-.335-.188.303-.435.476-.88.557v-.222l-.25.112c-.073.17-.097.184-.126.448-.265.019-.76.1-.88.223-.153.157.112.123-.25.335v-.448h-.127v.448h-.376v-.223c-.191.066-.206.087-.503.113v-.223l-.377.113c-.082.191-.12.351-.127.67h-.626s-.127.179-.25.223v.113h-.127v-.223h-.25V4.91h-.127v.112h-.376v.113c-.218.173-.265.524-.377.783-.462-.04-.827-.197-1.13.113-.041.112-.082.222-.126.335-.336.036-.671.073-1.004.112v.113l-.25.113v.222l-.376-.112-.127.222h-.377c-.02.01-.147.168-.25.223v.112a52.61 52.61 0 0 1-.626-.112v-.113c-.074-.008-.43.189-.627.223-.085.212-.162.683-.25.893l-.377-.113v-.112c-.173-.03.05.08-.127.112-.3.053-.323-.084-.503-.112l-.25.335h-.503v.113l-.377.112v.335h.25v.113h-.126c-.068.052-1.006.283-1.003 0h-.127v.223l-.627-.113c.006.4-.029.705-.25.893v-.113h-.126v-.447h-.25c-.01.293-.05.38-.127.558-.262-.069-.512-.126-.753.112v.223h-.127v.112l-.753-.112c-.041.073-.082.149-.127.222-.167.037-.335.074-.503.113v.223h-.503v.222c-.3-.052-.394-.128-.627-.222v.557c-.294.037-.585.074-.88.113v.113c-.367.076-.411.123-.503.447.177.008-.017-.018.127-.112.197-.129.118.275.127.335-.215.126-.171.07-.25.335.167-.036.335-.073.503-.112l.126-.223c.024-.002.294.105.503.113v-.223c.127.037.25.073.377.113l.127-.223c.152-.065.367-.06.503-.113v-.447c.297-.045.691-.213 1.13-.113v.113h.503v-.113h.25v-.448h.25v.223c.377-.074.753-.15 1.13-.223l.126.113c.345-.215.115-.383.754-.448.144.128 0 .044.25.113v-.336l.627-.112v-.223c.414.06.57.142.753 0h.126c.16-.173-.135-.225.127-.335v.112h.126V9.6c.277-.039.65-.146 1.004 0 .04.074.082.15.126.223H31V9.6c.253.063.11-.013.25.113l.377-.113v-.112h.377c.082-.113.167-.223.25-.336.209.037.418.074.627.113v.113c.09.015.462-.1.88-.113l-.127-.335h.25v.112h.503l.127.113v-.113l.376-.112c-.009-.294-.05-.38-.126-.558h.753c.144-.128 0-.045.25-.113.097-.335.077-.293.503-.335.142.191.08.152.377.223.127-.28.259-.584.503-.448h.127v.335h.25c.091-.309.035-.249.376-.335v-.113l.754-.112s.056.162.25.112l.126-.222h.377V7.14l.25.113v.112c.165.055.026-.052.127-.112.314-.076.203-.058.376-.223h.127v-.223l.25-.112c.147-.142.212-.325.377-.448v.113h.376c.041.149.082.298.127.447h.126c.306-.455.703-.413 1.38-.557.038-.008.033-.155.25-.113v.113l.754.222V6.36h.126l-.126-.336c.082-.036.167-.073.25-.112.173-.233-.056-.158.25-.336v-.112l.627-.113c-.068.312-.098.01 0 .335h.126v-.222c.25.036.503.073.753.112v-.112c.136-.102.024.018.127-.113h-.127V5.24h.377c.026.264.053.277.126.447.145-.128.05 0 .127-.222.144-.129.05 0 .127-.223.376-.112.753-.222 1.13-.335l.126.113c.041-.362.115-.328.25-.558h.25v.112h.127v-.112h.503l.126-.336c.327.118.53.205 1.004.223-.041-.073-.083-.15-.127-.223.086-.123.706-.157.88-.335l-.127-.222h.127v-.113c.333.131.474.215 1.003.223v-.113h-.126v-.335c.397.073.253.17.377.222.147-.007.447-.225.753-.112l.126.222h.25c-.12.37-.117.658.127 1.006h-.127c-.144.128 0 .045-.25.113v.558h-.126c-.033.186.117.193.126.222v.558c-.45.016-.712.16-1.003.223l-.25-.113c-.083.113-.168.223-.25.335-.07.026-.686-.084-.88-.112-.077.293-.356.592-.753.558 0 0-.068-.142-.25-.113l.126.222h-.503a37.32 37.32 0 0 1-.127.558l-.626-.112-.127.222c-.338.076-.33-.214-.377-.222l-.376.112.126.113c.006.044-.111.251-.126.448-.418.036-.836.073-1.257.112V8.03c-.297-.024-.312-.047-.503-.113v.335c-.026.048-.862.564-.376.784h-.377v-.113c-.12-.207-.127.223-.127.223-.14.094-.017-.014-.126.112.353-.105.35-.118.753 0v.113l.377-.113-.127-.112.127-.336c.588.202.977.066 1.38-.222.041-.074.082-.15.126-.223h.627s-.012-.065.25-.113v.336h.127v-.223c.535-.008.832-.024 1.13-.223l.126-.222c.21.036.418.073.627.112-.144-.128 0-.044-.25-.112v-.223c.126.037.25.074.376.113v-.223h.25v.223c.727-.053 1.248-.417 1.757-.67v.335h.25V7.25h.88v-.113h.377v-.112c.25.036.503.073.753.112.106-.125-.015-.015.127-.112v-.448c.25-.037.503-.073.753-.113-.041.113-.083.223-.127.336h.127v.112c.141-.094.017.013.126-.112.145-.129.05 0 .127-.223.197.008.88.112.88.112v-.112h.126v-.335c.139-.157.565-.116.88-.113v.113l.753-.113v-.113h.25v-.112h.377l-.127.335h.127c.091-.309.035-.249.377-.335v.222c.126-.036.25-.073.376-.112v-.113c.294-.036.586-.073.88-.112v-.113h.377l.126-.223c.106-.036.827.118 1.004.223v-.223l.376-.112v-.113c.17-.047-.05.081.127.113.209.036.223-.108.25-.113.23-.042.485.147.627.223v-.113c.391-.317.03-.474.753-.558v.113h.377l-.127.222c.162.181.235-.123.377.336.164-.118.188-.228.376-.336v.336h.25c-.04-.223-.082-.448-.126-.67.588-.179.424.086.753-.559h.127c-.015.239-.13.383-.127.448l.127.113c.23-.142.014-.152.126-.223.144-.094.08.102.127.113.126-.037.25-.073.376-.113v-.22c.283-.045.483-.184.88-.113 0 0 .006.147.25.113v-.113h.627v.113c-.3.068-.233.036-.377.222h.25c.362-.531.966-.345 1.633-.558l.127-.335c.36 0 .539.04.753.113v-.448h.127c.082.113.168.223.25.335h.126l-.126.223h.126v.112c.36.23.324-.199.504.336h.25v.222h.25a10.45 10.45 0 0 1-.127.335h.127c.085.168.088.186.126.448h.25v.223c.195.1.262.165.377.335.406-.196.239-.267.754-.112l-.127-.336h.25v-.222h.25v.112h.127v-.112l.376.112-.126.336h.25c.091-.31.035-.25.376-.336.189-.196.339-.212.754-.222V4.9l.753-.223c.009.294.05.38.127.558.14-.094.017.013.126-.112h.127v-.336c.376.037.753.074 1.13.113v-.223h.25l.126-.335c.168.037.336.074.503.113.041-.073.083-.15.127-.223l.627.113v.222c.32-.172.865-.694 1.256-.447h.25v.222h.127V4.12c.603-.03.606-.079 1.13 0 .04-.186.082-.372.126-.558.58-.097 1.018-.097 1.38 0v-.223h.753v.113h.377v.112c.127-.036.25-.073.377-.112v-.113c-.144-.128-.05 0-.127-.222.412.007.37.141.627 0l.126-.223.754.223v.222c.338 0 .712.037.88-.112v-.223l.25.113v-.113c.25-.037.503-.073.753-.113.118.068-.044.16.126.113l.127-.223c.159 0 .32.2.627.113V2.78c.209-.036.418-.073.626-.112l-.126.335h.126c.28.27.236.157.627.113-.014.353-.244.21.127.335.056.277.114.411.126.783-.347.081-.28.031-.376.335h-.127v.558c-.3.052-.394.128-.627.223v-.336h-.126c-.186.626-.218.23-.627.448v.113l-.503.335c.041-.113.082-.223.126-.335h-.126a1.267 1.267 0 0 0-.127.558c-.473.089-.703.217-1.38.222v-.222h-.25v.222h-.627v.113h.127c-.08.16-.147.084-.25.222h-.25l.126-.222h-.126c-.124.152-.074.22-.377.222 0 0-.088-.16-.25-.112-.041.073-.082.15-.126.223h-.25l-.127.67-.503.113v-.448h-.25c-.092.359-.171.406-.627.448l.126-.336h-.126c-.047.129-.035.398-.25.336l-.127-.336c-.126.037-.25.074-.376.113v.223c-.2-.069-.298-.1-.627-.113v-.335h-.127v.335c.145.128.05 0 .127.223-.294.036-.586.073-.88.112v.223c-.444.042-.382.139-.753.222v.336c-.306-.063-.277-.118-.503-.223v.223h-.127v.335h.127v-.223h.25v.223c.209-.037.418-.073.626-.113v.336h.25v-.336c.21.037.418.074.627.113.06-.267.145-.351.25-.558.41.003.907-.05 1.13.113h.127c.041-.074.082-.15.126-.223h.25v-.113h.25V8.03l.25.112V8.03h1.257a14.756 14.756 0 0 0-.126-.335h.25V7.58h.126v.113l.377.112c.009.157.03.032-.127.113.142.118 0 .05.25.112v-.11h.127v-.335h.127c.108-.155.094-.194.126-.448.297-.013.318-.034.503-.113v.113h.127v.112l-.127.223h.377v-.223c.294-.036.585-.073.88-.112v.112h.126c.141-.089-.047-.146.127-.112v.112h.503v.223h.126c.042-.223.083-.448.127-.67h.25v.222h.127v-.335c.288.01.326.094.503.113l.126-.223s.344.105.503.112v-.222l.127.113a45.4 45.4 0 0 0 .503-.113v.113h.627v-.336h.25v.113h.126v-.113l.25.113.127-.335c.333-.11.262.243.503.222v-.112c.55-.116.692-.275 1.257-.336v.113h-.127c-.238.097.25.113.25.113.106.125-.014.015.127.112v-.222l.627-.113c.04-.073.082-.15.126-.223l.127.113c.744.042.841-.233 1.256-.448v.335h.127c.144-.128 0-.044.25-.112v-.223c.126.037.25.074.376.113l.127-.223h.503V5.02h.126c.077.267.042.206.25.335V5.02c.66-.095.557-.014 1.131.222a.886.886 0 0 1 .376-.558c.144.129 0 .045.25.113v-.223h.377v-.222c.209.036.418.073.627.112v.223h.25v-.335c.273.015.418.112.503.112v-.112l.377-.113c.041.073.082.15.126.223.4.104 1.001-.233 1.257-.336l-.127-.335h.377c.076.267.041.207.25.335.106.126-.015.016.126.113.009-.293.05-.38.127-.558.25-.036.503-.073.753-.112.106.125-.015.015.127.112-.097.113-.153.11-.251.223h.377l-.126-.335.126-.113c.185.052.2.128.503.113v-.113h.127v.113c.168.036.335.073.503.112v.113c.512.173.744-.081 1.003.113.392.23.059.144.25.447l.251.113v.223h.126c.115.151.094.196.127.447l-.504-.112c.101.361.233.385.251.893-.142.094-.018-.013-.127.113h-.126c-.039-.336-.018-.304-.251-.448v.112h.127c-.082.15-.168.299-.25.448-.327.005-.433.024-.627.113v.112c-.215.066-.218-.104-.25-.112-.45-.102-.736.141-.88.335h-.126c-.042.223-.083.448-.127.67h-.25l-.127-.222c-.167.037-.335.073-.503.112.027.265.053.278.127.448-.291-.01-.321-.089-.503-.112l-.127.222a34.64 34.64 0 0 0-.503.113c-.091.309-.035.249-.377.335-.441.354-.812-.141-.879-.112v.112c-.209.113-.418.223-.627.335.067.39.123.207 0 .558h.126v-.112h.504v.222l.376-.112v-.113l.377.113v-.336c.126.037.25.074.376.113v-.113l-.126-.112h.753c.041.112.083.222.127.335.082-.037.25-.223.25-.223.126.037.25.074.376.113v-.113c.186-.086.209-.083.504-.112v-.223h.25v-.222h.503v.222c.282-.029.332-.01.503-.112v-.113h.25v-.113h.25v-.112c.224-.16.3-.252.627-.336v.336h.503a37.3 37.3 0 0 1 .127-.558h.25a15.29 15.29 0 0 1-.127.335h.127c.179-.16.7-.285 1.003-.335v-.223c.168-.036.336-.073.503-.112v-.336h.25v.336h.251v-.336h.626c-.041.113-.082.223-.126.336h.25c.129-.129.232-.215.503-.223v.113h.127l.126-.113c.118-.202.174-.176.25-.448l.377-.112v-.113l.126.113.377-.113v.335h.25c.027-.264.053-.277.127-.448l.25.113v-.113c.179-.139.194-.309.376-.448.039.053.256.406.377.336l.127-.336c.544-.036 1.088-.073 1.633-.112v.112c-.348.082-.28.032-.377.336.312-.05.462-.102.88-.113v-.113h-.127V5.13c.209.036.418.073.627.112.041-.112.082-.222.126-.335.145.128.051 0 .127.223l.377.112V5.13c.259-.126.226-.173.626-.223v-.335c.268-.013.43-.115.504-.113l.126.113v-.223l.627-.113v.223c.082-.037.168-.073.25-.113v-.112c.2-.021.156.194.25.222h.503a37.3 37.3 0 0 1 .127-.557c.209.036.418.073.627.112l.126-.222h.127V3.9c.126-.036.25-.073.376-.112v-.223c.144.128.05 0 .127.223h.25c.059-.268.144-.351.25-.558.418.005 1.13.112 1.13.112V3.23h.25v-.113h.377c.041-.073.082-.15.126-.222.127.036.25.073.377.112v.113h.627v-.223l.503-.112v.222h.25c.079.307.165.254.25.558h.377c.091.31.035.249.376.335v.223c-.75.136-.65.448-.88 1.006h.754l.126-.448c.524-.071.356-.11.88-.223v.223c.594-.223.506-.223 1.003 0v-.223c.168-.037.336-.073.503-.113v-.222h.251v.112h.126v-.112c.286-.05.338.057.503.112v-.112h-.126c-.233-.108.25-.113.25-.113v-.22h.25v-.223c.394.066.559.18 1.003.223l.127-.336s-.268-.018-.127-.112h.25v.112h.754v-.335c.4.074.247.165.376.223.209-.019.233-.22.251-.223.241-.06.173.074.25.113h.126v-.113c.168.037.336.074.503.113.092-.31.036-.249.377-.335v.222h.503c.118-.201.174-.175.25-.448l.377.113V2.67c.082-.036.168-.073.25-.112v.222h.25l-.126-.335c.3-.052.394-.128.626-.223v.448c.653-.152.447-.246 1.257-.112v-.336h.376v.113c-.053.066-.206.016-.126.223h.126c.203-.692.268-.189.754-.448.285-.152-.009-.411.626-.558v.113l.377-.113v.223h.127v-.223c.444.042.382.139.753.223v.222c.117.176.897.207.503.558h.25v.448l-.25.113c-.006.036.118.248.126.447h.251c-.059.268-.145.351-.251.558-.223.01-.453.118-.503.113V4.12h-.503v.113l-.753.112v.223c-.168.073-.336.15-.503.223v-.113h-.127v.335l-.88.223c.145.128 0 .044.251.113v.112c.22.092.403-.065.503-.112v-.113h.376v-.223c.586-.026.715-.162 1.13-.335v-.113h.88v.113h-.127c-.144.128 0 .045-.25.113v.222c.512-.13.133-.102.377-.335l.25.113v-.113h.25v-.113h.377c.132-.068.312-.552.627-.447v.112h.25v-.335c.126.037.25.073.376.113v-.113c.25-.037.503-.073.754-.113v.223h.25c.041.113.082.223.126.335h.127v-.22h.25c.073-.417.073-.257 0-.67.038.012 1.209.243 1.256.222v-.113h.127V3.11h.126c.256.205.571.032 1.004 0v-.222c.253.063.109-.013.25.112.462-.118.344-.225.627-.448V2.44c.317-.176.991-.008 1.506 0 .08-.307.165-.254.25-.558.539-.018.43-.07.754-.223v.336h.503c.026-.265.053-.278.126-.448l.377.112.126-.222h.25v-.113c.127-.037.251-.073.377-.112l.127.335c.317-.228.053-.27.626-.335v.112c-.144.102-.147.081-.25.223h.127v.112c.262-.123.223-.18.627-.222.105.125-.015.015.126.112-.147.213-.106.108-.377.223v.113h.251c-.042.222-.083.447-.127.67h.127v.113h-.127v.222c.041.262.082.522.127.783h-.127c-.106.129-.065.158-.25.223v-.113h-.127c-.082.113-.167.223-.25.336h-.376l-.127.222a45.4 45.4 0 0 0-.503.113 11.44 11.44 0 0 1-.127.335l-.376.113-.127.222h-.126v-.112c-.462-.097-.606.38-.88.112v.223h-.25c.041.15.082.299.126.448h-.126c-.141.191-.08.152-.377.222-.012-.023-.179-.406-.25-.335v.113l-.25.112c-.041.113-.082.223-.127.336h-.376c-.421.183-.165.296-.88.335.041.113.082.223.127.335.167-.037.335-.073.503-.112v.335h.126v-.113h.503c.383-.128.559-.312 1.13-.335v-.223c.356-.07.333-.207.377-.222h.503v.112l.503-.112s.056.138.25.112v-.112l.504.112v-.112c.144-.129.05 0 .126-.223h-.126v.113c-.109.212-.127-.223-.127-.223.459.037.921.073 1.38.113l.127-.223c.126-.034.229.173.503.113V5.8h.627v.113h.126V5.8h.503l.127-.335h.126l-.126-.223h.376c.144.129 0 .045.25.113v-.223c.301.053.395.129.627.223v-.113h-.126c-.233-.107.25-.112.25-.112v.112c.144.129.05 0 .126.223.268-.013.427-.113.503-.113v.113h.251c.035-.2.126-.223.126-.223a15.206 15.206 0 0 0-.126-.335h.126v-.113c.356.142.518.288 1.003.336v-.223c.733-.15.071-.283.754 0v-.448h.126v.113c.168-.113.336-.223.503-.336v.448h.127c.062-.052-.035-.18.126-.112v.112h.127s-.035.401.127.223v-.113c.144-.128.05 0 .126-.222h-.377c.098-.336.077-.294.504-.336v.113l.376-.113v.113h.377v.113c.324.06.688-.349.88-.448l.376.112v-.112c.209-.12.209-.152.503-.223-.041.113-.082.223-.126.335h.126v.113c.127-.073.251-.15.377-.223v-.112h.25c.227-.09.274-.254.377-.448l.627.448c.076-.22.005-.272.25-.335.041.013.038.21.25.222.268-.317.112-.225.503-.112.041-.362.115-.328.25-.558.439.06.232.11.627 0v.67h.126c.142-.19.08-.152.377-.222.235.35.465.317.503.893.344.013.909.154 1.004 0h.126v.112c.347.074.742.312.88.558v.335H172c.174.207.292.26.377.558-.127-.036-.25-.073-.377-.112v.112h.127v.336h.126c.115.165.112.275.127.557-.144.129-.05 0-.127.223-.417.037-.835.073-1.256.113V7.03c-.168.037-.335.073-.503.113V6.92c-.083.037-.168.073-.25.113-.042-.074-.083-.15-.127-.223-.003 0-.371.152-.627 0l-.126-.335c-.147-.092-.215.327-.503.222v-.112c-.144-.129-.05 0-.127-.223l-.376.113v-.113h-.127c.041-.113.082-.222.127-.335 0 0-.156-.034-.127-.223 0 0 .209-.05.127-.222h-.127c-.144.128 0 .044-.25.112-.041.113-.082.223-.127.336-.294-.032-.311-.037-.503-.113v-.113c-.212.013-.212.212-.25.223-.285.089-.506-.139-.627-.113v.113c-.426.152-.52.348-1.003.448.041-.113.082-.223.127-.335h-.251c-.185.303-.385.51-.879.557v-.335h-.127c-.097.335-.076.293-.503.335v-.222c-.524.254-.594.228-1.256.112v-.222h-.127c-.009.432.021.46-.377.558v.112c-.12.207-.126-.222-.126-.222h-.25c-.041.073-.083.149-.127.222a52.458 52.458 0 0 1-.627-.112v.222h-.376v.113c-.144.128-.05 0-.127.222l-.753.113V7.37l-1.256.113v.223h-.377v.112c-.112.21-.127-.222-.127-.222-.403.086-.27.167-.753.222v.336c-.741-.069-.685-.396-1.506-.448-.003.372-.065.505-.127.783h-.25c.038-.097.241-.246.127-.448h-.127v.113c-.144.128-.05 0-.127.222l-.753.113v.222c-.421-.068-.791-.306-1.256-.112-.083.112-.168.222-.25.335-.342.09-.389-.301-.504-.335-.226-.068-.091.125-.126.222-.127-.036-.25-.073-.377-.112v.448h-.25l-.126.222c-.206.055-.233-.11-.25-.112-.304-.048-.327.112-.504.112v-.112c-.25-.037-.503-.074-.753-.113v.223c-.833.078-1.256.097-1.883 0l-.127.335c-.235-.055-.6-.047-1.003-.113v-.112c.144-.129.05 0 .127-.223-.301.01-.312.073-.504.113v-.113c-.209-.12-.206-.16-.503-.223V8.82h-.25a15.223 15.223 0 0 0-.126-.335l-.754-.113v-.223c.1.037.395.228.627.113v-.113c-.371-.214-.306-.445-.25-.783.168-.073.171-.175.25-.222.082.036.168.073.25.112v-.448H146a52.695 52.695 0 0 0-.127-.67 20.46 20.46 0 0 1-.376-.113c.041.074.082.15.126.223l-.377-.113v.223h-.126c-.041.073-.082.15-.127.223h-.376c.029.259.138.068 0 .335l-.25-.113v.223c-.136.196-.127-.223-.127-.223-.209.037-.418.073-.627.113 0 0-.058-.168-.25-.113-.041.073-.082.15-.126.223h-.377c-.041.112-.082.222-.126.335-.195-.092-.557-.403-.88-.335-.041.073-.083.149-.127.222-.241-.02-.209-.217-.25-.222h-.126v.112h-.627v.113h.25c-.041.223-.082.448-.127.67h-.25c-.114-.044-.082-.34-.503-.222l-.126.222h-.627V7.81c-.182-.09-.212-.079-.503-.113v.335c-.127-.036-.25-.073-.377-.112v.112c-.144.129-.05 0-.126.223-.468.118-.339.23-.627.448v.113h-.377V8.48h-.25v.223h-.627V8.59h-.126c-.083.15-.168.299-.25.448l-.25-.112v.112l-.377.223v-.335h-.127v.112l-.376-.112v.112c-.177-.008.05-.094-.127-.112l-.753.112v.335h-.126V9.26c-.342-.163-.615.157-.754.222-.07-.35-.123-.468-.503-.557.071.272.133.246.25.447h-.25c-.2.165-.739.123-1.13.113v-.223h-.25v.223c-.25-.037-.503-.073-.753-.113-.062-.264-.118-.264-.25-.447.17-.131.123.083.25-.113-.165-.092-.147-.079-.25-.223h.25c.026-.264.053-.277.126-.448-.356-.073-.473-.206-.626-.447h.376l.25-.893c-.164-.092-.147-.08-.25-.223-.268.136-.273.251-.627.335V6.69h-.126v.336c-.489.036-.565.18-.88.335-.026-.265-.053-.278-.126-.448-.142.094-.018-.013-.127.113h-.126l.126.112-.126.336c-.533-.082-.604-.019-1.257 0l.127.335h-.127c-.103.146-.088.13-.25.222v-.447c-.638.031-.553.199-1.256.222-.095.38-.268.516-.754.558v-.223h-.126v.113c-.109.212-.127-.223-.127-.223-.126-.036-.25-.073-.376-.112l.126.222h-.25c-.2.165-.309.385-.377.67h-.376V8.59c-.806.026-1.009.409-1.633.558.079-.306.164-.254.25-.558-.803.157-1.374.65-1.883-.112.565-.294.267-.417.126-.893h-.503c-.106-.126.015-.016-.127-.113.039-.097.242-.246.127-.448h-.127v-.112h-.376c-.212.309-.539.225-.753.447l-.127.336h-.377v.112c-.126.037-.25.074-.376.113v-.223c-.392.076-.571.335-.88.448h-.503v.113c-.127-.037-.25-.074-.377-.113v.223l-.753.112v.113h-.503c-.041.008-.033.154-.25.113v-.113h-.25V8.48l-.88-.112a1.527 1.527 0 0 1-.377.448v-.448h-.126v.222a18.39 18.39 0 0 1-.377-.112c-.059.262-.209.345-.25.558h.126c.042.112.083.222.127.335-.715.008-.789-.118-1.257-.223-.185.304-.385.51-.879.558v-.223h-.25v.448h-.251v.113h-.879v.113h-.25v.112c-.083-.037-.168-.073-.251-.113v.113h-.126c-.185-.134.106-.081-.127-.223.015.354.245.21-.126.336v-.223c-.706.076-.406.278-.753.448h-.251c-.041.113-.082.223-.126.335h-.627v-.113c.312-.204.162-.086.127-.447h-.25v.335c-1.092.003-1.283.194-2.26.223v-.223c-.168.073-.336.15-.503.223.041.149.082.298.126.447-.326-.018-.429-.023-.627-.112v-.113l-.376.113c-.021-.003-.044-.157-.25-.113v.113h-.25v.112h-.251v.113c-.173.102-.22.079-.503.113v-.336h-.126v.113h-.627c-.085.034-.006.144-.377.223-.041.112-.082.222-.126.335h.126c.186.136-.456.11-.503.113v-.113c-.503-.073-1.003-.15-1.506-.223.067-.311.097-.01 0-.335-.136.063-.262.301-.504.223V11.5h-.126l.126-.223h-.126c-.144-.128 0-.044-.25-.112a14.942 14.942 0 0 0-.127-.335h.25a15.77 15.77 0 0 0-.126-.336h.126v.113c.11.212.127-.223.127-.223h.126v-.112c-.082-.037-.167-.074-.25-.113.041-.112.083-.223.127-.335h-.127V9.71h.377v-.112c-.165-.092-.147-.079-.25-.223.215-.126.17-.07.25-.335l.503-.113c.015-.008.194-.414.25-.335v.223h.377c.118-.202.174-.176.25-.448-.17-.131-.191-.205-.25-.448h.25v-.223h.25v-.112c-.25.036-.503.073-.753.112v-.112c-.165.007-.315.19-.627.112v-.112c-.25-.037-.503-.074-.753-.113v.448h-.25v.222c-.127-.073-.25-.149-.377-.222v-.223l-.126.113c-.145.128-.05 0-.127.222h-.503v.223c-.25-.037-.503-.073-.753-.113-.042.186-.083.372-.127.558-.306.063-.276.116-.503.223v-.113c-.13-.097-.174-.194-.25-.335-.144.128-.05 0-.127.223-.25.036-.503.073-.753.112v.223c-.297.023-.312.047-.503.113v-.223h.126l-.126-.335h-.127v.222c-.082-.036-.167-.073-.25-.112-.144.089-.05.264-.376.222-.042-.073-.083-.149-.127-.222h-.126v.222l-.377.113c-.065-.016-.077-.283-.25-.223-.127.15-.25.299-.377.448-.126-.037-.25-.073-.376-.112v.222h-.25v.223c-.142-.095-.018.013-.127-.113-.135-.102-.024.018-.127-.112h.127v-.113h-.377v.113h-.126v-.113h-.377c-.041-.073-.082-.15-.126-.223-.083.037-.168.074-.25.113-.171.044.052.12-.127.113v-.113h-.25c-.003.346.035.576.126.783h-.503v.223h-.126v-.336h-.25l-.127.336c-.141-.095-.018.013-.127-.113h-.126l.126-.335c-.126.036-.25.073-.376.112v.113h-.25c-.041.073-.083.15-.127.223h-.503v.112h-.126c-.062-.05.035-.18-.127-.112l-.126.222-.627.113v-.223h-.127l-.126.223h-.127l-.126-.223c-.174-.07-.353-.055-.503-.112-.01.432.02.46-.377.558v-.223h-.25v.223h-.627l-.25.557h-.25v-.112c-.041-.006-.289.1-.503.112.07-.272.132-.246.25-.448h-.25l-.127.336-.88-.113c-.132.058-.09.252 0 .335h-.25c-.109.116-.218.155-.376.223v-.335c-.563.042-.365.07-.88 0v.112c.144.129.05 0 .126.223h-.627c-.032-.005-.04-.144-.25-.113v.113h-.25a15.77 15.77 0 0 1-.126.335c-.142-.094-.018.013-.127-.112-.141-.095-.017.013-.126-.113.165-.092.147-.079.25-.223h-.503c-.112.118-.221.147-.377.223v.113l-.377-.113v.113c.165.091.148.078.25.222h-.25c-.147-.152-.23-.17-.503-.223v.223c-.235-.078-.491-.11-.88-.113-.138-.233-.203-.199-.25-.557h-.25v-.223c-.141.094-.017-.013-.126.113h-.127v.222l-.25.113v.335h-.127l-.376-.448h-.127c-.164-.248.068-.311-.25-.558.041-.149.083-.298.127-.447 0 0-.162-.055-.127-.223h.127v-.558s.076 0 .126-.222c.347-.082.28-.032.377-.336h.25v.113l.377-.113v-.222l.626.112c.092-.309.036-.249.377-.335v-.448h.127l-.127-.222h.127c.105-.126-.015-.016.126-.113v-.113c.12-.207.127.223.127.223l.376.113V8.02h-.126c.04-.113.082-.223.126-.335h.754v.112c.294-.036.585-.073.88-.112v-.223h.502V7.24c-.43-.006-.868-.076-1.13-.113-.082.112-.167.223-.25.335l-.753.113c.07-.273.133-.246.25-.448h-.503v.113h.127c.144.175-.31.104-.377.112v.335h-.126V7.8c-.21.037-.418.073-.627.113.041-.186.082-.372.126-.558-.306.063-.28.115-.503.222v.113l-.753-.223v.113c-.144.128-.05 0-.127.223-.206.034-.547.233-.626.222v-.112h-.377c-.174-.032.047-.147-.127-.113l-.126.223h-.25l.126-.223h-.126c-.144.128 0 .044-.25.113v.222a52.61 52.61 0 0 0-.627.113c-.024-.005-.041-.16-.25-.113v.113h-.25v.112c-.124-.023-.147-.3-.25-.222-.206.152.138.215-.377.335v.335h-.127v-.222H70.4c-.041.073-.082.149-.127.222h-.503c-.15-.243-.276-.369-.627-.448v.113h-.503l-.126.223-.377-.113v.335h-.25c-.309.47-.28.131-.627.336.041.073.083.149.127.222-.25-.037-.503-.073-.753-.112-.012.002-.065.193-.25.222v-.112h-.504l-.126-.113v.113c-.356.204-.368.322-1.004.335-.14-.191-.079-.152-.376-.223v.223h-.25v-.113c-.16-.044-.33.317-.377.335-.259.102-.359-.097-.503-.112v.112c-.25.037-.503.074-.753.113l-.127-.335c-.347.08-.28.031-.377.335-.376.037-.753.073-1.13.113l-.126.222h-.88v.113c-.326.086-.585.01-.88.113-.07-.273-.132-.247-.25-.448-.14.094-.017-.013-.126.112-.442.278-.03.398-.627.558v.113h-.627l-.126.222c-.28.1-.353-.139-.503-.112v.112c-.25.045-.16-.05-.25-.112h-.127v.222a20.45 20.45 0 0 1-.377-.112v-.113l-.376.113v-.113h-.504l-.126-.223c-.176 0-.059-.034-.127.113-.155-.128-.047 0-.126-.223h.503v-.222h-.503c-.118-.202-.174-.176-.25-.448h.25c-.074-.461-.135-.534-.377-1.006-.164.058.036.045-.126.113h-.377v.113c.253.062.109-.014.25.112-.359-.01-.538-.02-.753-.112v.112c.144.128.05 0 .127.223-.615 0-.715.128-1.13.222v-.335h-.127V9.7h-.127l-.25-.113v.335h-.376V9.7h-.127v.222h.127v.336c-.418-.003-.568-.058-.88-.113v.223c-.297-.014-.318-.034-.503-.113v.113c-.144.128-.05 0-.127.222-.662-.065-.288-.24-.88-.112v-.223c-.2-.026-.158.191-.25.223-.47.157-.859.063-1.256 0v.335l-.25-.113v.113c-.253.191.012.17-.127.335h-.126c-.303-.403-1.174-.068-1.757 0v.335c-.235-.057-.685-.4-.88-.335v.113h-.126v.335c-.377.037-.753.073-1.13.113v.222h.127c-.042.113-.083.223-.127.335-.297-.013-.318-.034-.503-.112v.112h-.127v-.335h-.25v.335h-.126v-.112h-.504v.112l-.25-.112v.112c-.276.076-.415.034-.626.113v.335c-.627.084-.621.1-1.13-.222l-.127.335h-.503v.113c-.168.036-.335.073-.503.112v-.223h-.25c-.077.393-.136.514-.627.558v-.112c.144-.129.05 0 .127-.223-.168-.037-.336-.073-.504-.112v-.113c-.238-.066-.173.063-.25.113l-.376-.113v.113h.126v.447h-.25v-.222c-.344.178-.227.275-.753.335-.092.309-.036.249-.377.335-.338.356-.733.27-1.256.223v-.223h.503a15.063 15.063 0 0 0-.127-.335c-.19.065-.206.086-.503.113-.02-.304-.041-.673-.25-.784v-.112c.091-.118.097.097.25-.113h-.25c-.224-.118.25-.112.25-.112-.07-.273-.132-.247-.25-.448h.377c.103.146.088.13.25.222-.306-.586-.462-1.128.627-1.118.144.128 0 .045.25.113.04-.186.082-.372.126-.558h-.25v.222h-.25l.127-.335h-.127c-.094.212.088.116-.127.223-.164-.131.15-.17-.126-.223v.223l-.25-.113v.113h.126c-.082.15-.167.298-.25.448h-.126v-.336h-.127v.113h-.377c-.082.113-.167.223-.25.335h-.25v.113h-.376v.113h-.25v.112c-.507.16-.886-.154-1.13 0-.342.197-.398.618-.504.67h-1.13c-.144-.128 0-.044-.25-.112v-.223h-.126c.041.15.082.299.127.448h-.127c-.238.184-.665.118-1.003.223v.112c-.186.053-.492-.12-.504-.112v.223h-.626c-.127.261-.25.52-.377.783h-.127v-.336h-.25c-.026.265-.053.278-.126.448-.141-.094-.018.013-.127-.112-.144-.129-.05 0-.126-.223.215-.126.17-.07.25-.335h-.377v.67c-.209-.037-.418-.073-.626-.112v-.113c.144-.128.05 0 .126-.223h-.25l.127-.222h-.127c-.144.128 0 .044-.25.112-.032.218-.124.218-.127.223-.2.55.112.715-.626.783v-.223c-.174.055-.277.045-.504.113v.113a19.91 19.91 0 0 1-.376-.113v.113h-.25l.126.222h-.753v.113c.144.128.05 0 .126.223-.203-.008-.88-.113-.88-.113-.04.073-.082.15-.126.223-.341.164-.4.028-.627 0v.112h-.25l-.126.223c-.21.036-.418.073-.627.112v.113a35.24 35.24 0 0 1-.503-.113c-.21.037-.418.074-.627.113v.113c-.374.094-.509-.179-.753-.223v.113c-.144.128-.05 0-.127.222h-.503l-.126-.112c-.065.026-.036.199-.25.222v-.112l-.377-.113v.113a19.9 19.9 0 0 0-.377.112v-.222c-.226.104-.197.154-.503.222v.223h-.127v-.335c-.706-.008-1.244-.268-1.506-.67l.25-.114c.009-.157-.123.048-.126-.112.04-.186.082-.372.126-.558h.25c-.276-.697.31-1.084.377-1.789a8.476 8.476 0 0 1 1.38-.112v-.336h.377c.085-.327.138-.366.503-.447v-.223c.732-.15.07-.283.753 0v-.223c.28-.047.43-.107.627-.222v-.113c.25-.02.088.17.25 0 .144-.128.05 0 .126-.223h.25c.145-.453.256-.222.504-.557l.753.222v-.112h.126V9.7c-.72.013-.92.091-1.506 0-.07.35-.124.469-.503.558v-.223h-.25v.335c-.256.12-.495.33-.88.336l-.127-.113c-.453.304.041.521-.88.558l.127-.448h-.25v.112h.126c.01.04-.214.404-.25.558h-.25v-.222h-.25v.222l-.127-.112-.753.222c-.041.074-.082.15-.126.223-.165.063.026-.084-.127-.113-.126.037-.25.074-.376.113v-.113h-.377v-.112h-.127v.112s-.347-.102-.503-.112c-.082.186-.168.372-.25.558-.109-.034-.276-.215-.503-.113v.113h-.127v.335h-.126v-.335h-.127v.447c.021.157.133-.047.127.113l-.127.113c-.217-.097-.044-.014-.126-.223h-.127v.223l-.626.112.126-.222h-.126c-.195.193-.227.11-.503.222v.113c-.186.063-.48.029-.504-.113h-.126v.335h-.127v-.112h-.126v.223h-.25v.222c-.318-.089-.777-.008-1.38 0a72.27 72.27 0 0 1-.127.783h-.25v-.222c-.191.065-.206.086-.503.112v.335l-.753.223v.113h-.25v.112c-.616.207-.76-.173-1.13.335h-.127l.127.113c-.042.113-.083.223-.127.335a33.64 33.64 0 0 1-.503-.112v.335c-.445.042-.383.139-.753.223v-.223h-.127v.335c-.25.037-.503.073-.753.113l-.127.335h-.25c-.041.113-.082.223-.126.335h-.127v-.335h-.126l-.127.223-.377-.113v-.113c-.244-.055-.167.063-.25.113l-.503-.113.127-.112v-.113H.939v-.335h.127v-.113h-.25c-.003-.372-.065-.505-.127-.783h-.25c-.224-.118.25-.112.25-.112.041-.113.082-.223.127-.336.647.027.62.213.626-.447.21-.037.418-.074.627-.113v-.448l.377-.112c.144-.129 0-.045.25-.113v.223h.25v-.223c.126.037.25.073.377.113v-.223h-.127l.127-.335h.126v-.113h.377c-.003-.157.026-.031-.127-.113v-.112h.377V12.7h.126l.127.223c.418.073.835.149 1.256.222.012-.419.115-.513.25-.783.127.037.25.074.377.113v-.223h.377l-.127.223h.127v-.113h.25c.138-.097.056-.27.25-.335.112.1.047.189.25.223.082-.113.168-.223.25-.336h.377v-.112h.126v-.448h.25v.223c.536-.045.568-.23 1.004-.336.1-.361.232-.385.25-.893h1.13v.113l.376-.113v-.112c.189-.045.171.199.25.222l.377-.112v.222h.127v-.222c.14-.095.017.013.126-.113l-.25.113v-.448h.127V9.45h.626l-.126.335h.377c.2-.217.455-.298.626-.558.13.097.174.194.25.336.127-.074.25-.15.377-.223v-.113h.25l.127-.222c.082.036.167.073.25.112.167-.112-.153-.188.126-.222v.112c.127.037.25.074.377.113v-.223c-.144-.128-.05 0-.127-.222.324.052.556.107 1.004.112.18-.238.33-.225.626-.335l-.126-.335h.503v-.113h.127v.113h.25v-.223c.712-.018.468-.173.88-.335h.503v-.113c.144-.128.05 0 .126-.222h.377v.222h.25c.103-.358.147-.324.627-.335v.223c.294-.12.409-.257.753-.335v-.336h.25v-.222c.662.002.992-.131 1.507-.223.09.31.035.249.376.335a15.779 15.779 0 0 0-.126-.335h.126c.139-.157.439-.327.627-.448v-.11h.377v.112h.126v.335h.127c.04-.445.13-.515.626-.557v.112c.168.053-.047-.07.127-.112.503-.074 1.003-.15 1.506-.223-.126-.348-.07-.17 0-.558.306-.063.277-.115.504-.222v.112h.126c.1.165-.126.223-.126.223l.126.222c.288-.214.16-.335.627-.447.041-.113.082-.223.126-.336.36.131.592.212 1.13.223.127-.223.25-.448.377-.67h.25l.127.222.88-.223V3.76h.88l.126-.223h.25c.08-.306.165-.254.25-.558.168.037.335.074.503.113v-.113c.138-.1.027.019.127-.112h-.127c-.123-.186.18-.095.25-.113v-.112c.127.036.25.073.377.112-.041.073-.082.15-.127.223h.127c.394-.404.739 0 1.256.112.086-.146.156-.12.25-.222l-.126-.223h.25v-.112l.25-.113c.018-.157-.026.018-.126-.113l.126-.222c.424.078.483.243.88.335v-.335c.344.07.285.146.627.222v-.335c.138.037.247.2.503.113V1.97h.377v-.113l.753-.557v-.223h.25v.113c.173.031-.024-.024.126-.113l.25.113-.126.335c.7.047 1.056.199 1.506-.223-.247-.126-.294-.157-.376-.448l.377-.112c.04.073.082.149.126.222h.25V.517c.274.048.36.074.503.223l.754-.223-.127-.222h.627V.072l.061.026Zm-1.253 1.677v.222h.127v-.222h-.127Zm111.858.222v.223h.126v-.223h-.126Zm-111.481.335v.223h.126v-.223h-.126Zm-1.757.223v.223h.127v-.223h-.127Zm110.098.335c.145.129 0 .045.25.113-.144-.128 0-.045-.25-.113Zm-9.916.113c.144.128 0 .044.25.113-.144-.129 0-.045-.25-.113Zm-105.831.335c.011.38 0 .406.25.558v-.113h-.127v-.447h-.126l.003.002Zm103.948.113c.144.128 0 .044.25.112-.144-.128 0-.044-.25-.112Zm-13.685.11v.222h.126v-.222h-.126Zm8.789.112-.127.223s.365-.178.25-.223h-.126.003Zm12.929 0h.25c-.106.126.015.016-.126.113v.113c-.145-.129-.05 0-.127-.223l.003-.003Zm-111.105.113c.145.128 0 .045.25.113-.144-.129 0-.045-.25-.113Zm70.431.11v.223h.127v-.223h-.127Zm-69.048.448v.112h-.126c-.239.097.25.113.25.113.106-.126-.015-.016.127-.113-.145-.128 0-.044-.25-.112Zm96.416 0v.112h-.126c-.239.097.25.113.25.113.106-.126-.015-.016.126-.113-.144-.128 0-.044-.25-.112Zm32.138 0v.112h-.127c-.238.097.25.113.25.113.106-.126-.014-.016.127-.113-.144-.128 0-.044-.25-.112Zm-84.114.112v.223h.127v-.223h-.127Zm-31.007.11v.223h.126v-.223h-.126Zm32.137 0v.223h.127v-.223h-.127Zm23.225 0c.212.241.25.223.25.223.092-.107-.217-.196-.25-.223Zm32.141 0c.212.241.25.223.25.223.091-.107-.218-.196-.25-.223Zm8.912 0v.223h.127v-.223h-.127Zm23.225 0c.212.241.25.223.25.223.092-.107-.217-.196-.25-.223ZM31.75 4.792h-.25v.112h.126v.113h.127v-.223l-.003-.002Zm1.633.67h.25c-.041-.15-.083-.298-.127-.448h-.126v.448h.003Zm96.415 0h.251l-.127-.448h-.126v.448h.002Zm32.138 0h.25l-.126-.448h-.127v.448h.003ZM32.003 5.237v.448h.126v-.448h-.126Zm32.137 0v.448h.127v-.448h-.127Zm64.278 0v.448h.127v-.448h-.127Zm18.579.225v.335h.127c.126-.201.276-.332.503-.447v-.113h-.25c-.141.191-.08.152-.377.223l-.003.002Zm13.559-.225v.448h.127v-.448h-.127Zm-71.934.113v.222h.126V5.35h-.126Zm32.137.222h.25V5.46c-.141-.095-.017.013-.126-.113h-.127v.223l.003.002Zm-70.178-.11v.335h.127v-.335h-.127Zm32.138 0v.335h.127v-.335h-.127Zm54.989.445c.091.31.035.25.377.336.079-.307.164-.254.25-.558h-.127c-.159.212-.126.186-.503.222h.003Zm1.13-.222v.222c.329-.007.426-.044.627-.112v-.113h-.627v.003Zm-66.285.112v.336h.126V6.02c.142-.094.018.013.127-.113l-.25-.112-.003.002Zm32.137 0v.336h.127V6.02c.141-.094.018.013.126-.113l-.25-.112-.003.002Zm32.138 0v.336h.127V6.02c.141-.094.017.013.126-.113l-.25-.112-.003.002Zm32.141 0v.336h.126V6.02c.141-.094.018.013.127-.113l-.25-.112-.003.002Zm-80.474.11v.223h.127v-.223h-.127Zm58.252 0c.212.241.25.223.25.223.091-.107-.218-.196-.25-.223Zm-66.411.226v.335h-.25v.222l.25-.112.126-.335c.141-.095.018.013.127-.113h-.25l-.003.003Zm5.273 0v.222h.126v-.222h-.126Zm32.137 0v.222h.127v-.222h-.127Zm19.712.222h-.377v.223h.25c.118-.202.174-.176.25-.448h-.126v.223l.003.002Zm12.426-.222v.222h.126v-.222h-.126Zm-79.968.445v-.223c-.14.095-.017-.013-.126.113h-.127c.145.128 0 .044.25.113l.003-.003Zm31.761-.223v.335h.127c.144-.128 0-.044.25-.112v-.223h-.377Zm17.826.223v-.223h-.377v.113h.127c.144.128 0 .044.25.113v-.003Zm14.689 0v-.223c-.142.095-.018-.013-.127.113h-.126c.144.128 0 .044.25.113l.003-.003Zm9.919-.223v.223c.141-.094.017.013.126-.113h.127c-.144-.128 0-.044-.25-.112l-.003.002Zm17.825.113v.222h.127v-.222h-.127Zm-83.107.445h.25c-.106-.126.015-.016-.126-.112v-.223h-.127v.335h.003ZM43.425 6.69v.223h.127V6.69h-.127Zm32.141 0v.336h.126V6.69h-.126Zm64.275 0v.223h.127V6.69h-.127Zm24.481 0c.145.129.05 0 .127.223h-.127V6.69Zm7.66 0v.223h.126V6.69h-.126ZM25.85 6.803v.223h.127v-.223h-.127Zm32.138 0v.223h.126v-.223h-.126Zm64.278 0v.223h.126v-.223h-.126Zm32.137 0v.223h.127v-.223h-.127Zm-88.63.11c.012.024.18.406.25.335v-.112h.127c-.109-.115-.218-.155-.377-.223Zm32.388.56h.25v-.222h-.25l.127-.223c-.127-.036-.25-.073-.377-.112v.112c.17.131.191.205.25.448v-.002Zm-33.14-.447.126.335h.126c-.076-.267-.041-.207-.25-.335h-.003Zm32.137 0c.04.112.082.222.126.335h.127c-.077-.267-.041-.207-.25-.335h-.003Zm2.386 0h-.25c.106.125-.015.015.127.112v.113h.126v-.223l-.003-.002Zm49.589.448h.251V7.25h.126c-.041-.073-.082-.15-.126-.223-.142.095-.018-.013-.127.113h-.127v.335l.003-.002ZM44.305 7.138c.144.129 0 .045.25.113-.144-.128 0-.045-.25-.113Zm21.342 0v.336h.126v-.336h-.126Zm32.137 0v.336h.127v-.336h-.127Zm2.387 0h-.25c.106.126-.015.016.126.113v.113h.127V7.14l-.003-.003Zm14.562 0v.336h.127v-.336h-.127Zm32.141 0v.336H147v-.336h-.126Zm-127.05.11v.223h.126v-.223h-.126Zm5.9 0v.223h.126v-.223h-.127Zm32.14 0v.223h.127v-.223h-.127Zm8.41.226V7.25c-.142.094-.018-.013-.127.113h-.127c.145.128 0 .044.25.112l.004-.002Zm23.728-.226v.223h.126v-.223h-.126Zm9.666 0v.67h.126v-.67h-.126Zm16.068 0v.223h.127v-.223h-.127Zm.504 0v.223h.126v-.223h-.126Zm5.899 0v.223h.127v-.223h-.127Zm25.738 0v.223h.127v-.223h-.127Zm.503 0v.223h.127v-.223h-.127Zm5.9 0v.223h.126v-.223h-.126Zm-131.693.113c.144.128 0 .045.25.113-.144-.129 0-.045-.25-.113Zm32.137 0c.145.128 0 .045.25.113-.144-.129 0-.045-.25-.113Zm96.416 0c.144.128 0 .045.25.113-.144-.129 0-.045-.25-.113Zm-87.503.223.127.335h.126c-.076-.267-.041-.207-.25-.335h-.003Zm32.14 0c.042.112.083.222.127.335h.127c-.077-.267-.041-.207-.25-.335h-.003Zm8.16.112v.223h.127v-.223h-.127Zm-79.344.558c-.09-.309-.035-.249-.376-.335.041.15.082.298.127.448h.376v.112c.177.021-.047-.078.127-.112h.503v-.448c-.142-.094-.018.013-.127-.113h-.25v.113h.127c.04.201-.312.293-.504.335h-.003Zm16.323-.445-.127.222s.365-.178.25-.222h-.127.004Zm96.415 0-.126.222s.365-.178.25-.222h-.127.003Zm-117.884.558h.25v-.113c-.14-.094-.017.013-.126-.113h-.127v.223l.003.003Zm4.393-.223v.223c.142-.095.018.013.127-.113h.126c-.144-.128 0-.044-.25-.113l-.003.003Zm27.745.223h.25v-.113c-.141-.094-.018.013-.127-.113h-.126v.223l.003.003Zm4.396-.223v.223c.141-.095.017.013.126-.113h.127c-.144-.128 0-.044-.25-.113l-.003.003Zm32.137 0v.223c.142-.095.018.013.127-.113h.126c-.144-.128 0-.044-.25-.113l-.002.003Zm59.886.223h.25v-.113c-.142-.094-.018.013-.127-.113h-.126v.223l.003.003Zm4.393-.223v.223c.141-.095.017.013.126-.113h.127c-.144-.128 0-.044-.25-.113l-.003.003Zm-130.563.67v-.222l-.377.113.126.447h-.126v.113c-.294.037-.586.073-.88.113V9.6c.165.021.78.136.88.113l.126-.223.377.113c.041-.186.082-.372.127-.558h.126c.144-.128 0-.045.25-.113v.223h.627v-.223h.25c-.082-.222-.168-.447-.25-.67h-.127l-.126.335c-.18.113-.724.202-1.003.223v-.005Zm14.185-.56v.335h.127v-.335h-.127Zm-16.822.225v.223h.127v-.223h-.127Zm19.585 0v.223h.127v-.223h-.127Zm12.553 0v.223h.126v-.223h-.126Zm32.137 0v.223h.127v-.223h-.127Zm37.287 0c.144.129 0 .045.25.113-.144-.128 0-.045-.25-.113Zm14.439 0v.223h.126v-.223h-.126Zm12.552 0v.223h.127v-.223h-.127Zm-114.117.11c.144.129.05 0 .126.223h-.126v-.223Zm32.014.113c.141.191.08.152.376.223-.108-.116-.217-.155-.376-.223Zm14.312.223h.25v-.113c-.141-.094-.017.013-.126-.113h-.127v.223l.003.003Zm-46.576-.11h.25v.112c-.253-.063-.109.013-.25-.112Zm35.027 0c.144.128.05 0 .126.222h-.126v-.222Zm33.771.445h-.251v-.448h-.126v.113c-.144.128-.05 0-.127.222.127.073.25.15.377.223.106.125-.015.015.127.112V9.26ZM67.28 8.925v.222h.126v-.222h-.126ZM26.1 9.15v.222h.127V9.15H26.1Zm32.14 0v.222h.127V9.15h-.126Zm27.745.11c.144.128 0 .044.25.112-.144-.128 0-.044-.25-.112Zm-44.57.335v-.223c-.14.095-.017-.013-.126.113h-.126c.144.128 0 .045.25.113l.003-.003Zm64.279 0v-.223c-.141.095-.018-.013-.127.113h-.126c.144.128 0 .045.25.113l.003-.003Zm-75.45.225v.223h.126V9.82h-.127Zm2.512 0v.223h.127V9.82h-.127Zm-9.416.11v.223h.127V9.93h-.127Zm10.043.226c-.006.453-.06.481.25.67v-.113c-.212-.24.097-.54.25-.783h-.127c-.14.191-.079.152-.376.223l.003.002Zm2.26-.226c.144.129 0 .045.25.113-.145-.128 0-.045-.25-.113Zm6.526 0a15.65 15.65 0 0 1-.127.335h.127v-.112c.053-.066.206-.016.127-.223h-.127Zm13.309 0v.223h.126V9.93h-.126Zm42.183.226c-.006.453-.059.481.25.67v-.113c-.212-.24.097-.54.25-.783h-.126c-.142.191-.08.152-.377.223l.003.002Zm2.26-.226c.144.129 0 .045.25.113-.144-.128 0-.045-.25-.113Zm-56.119.113v.222h.127v-.222h-.127Zm14.062.222h.25v-.112c-.141-.094-.017.013-.126-.113h-.127v.223l.003.002Zm18.078-.222v.222h.127v-.222h-.127Zm11.173 0c.144.128.05 0 .127.222h-.127v-.222Zm-27.62.113c-.042.073-.083.149-.127.222l.25.113c.09-.134-.265-.097 0-.335h-.127.003Zm-15.443.11-.126.335h.126v-.223h.127v-.113h-.127Zm32.14 0-.126.222s.365-.178.25-.223h-.126.003Zm-65.91.447h.25v-.112c-.142-.095-.018.013-.127-.113h-.127v.223l.003.002Zm70.68 0h-.25c.106.126-.014.016.127.113v.113h.126v-.223l-.003-.003Zm-66.411.223v.223h.126v-.223h-.126Zm18.078 0v.448h.127v-.113h.127c-.042-.073-.083-.15-.127-.223h.127c-.145-.128 0-.044-.25-.112h-.004Zm46.2 0v.223h.127v-.223h-.127Zm18.955 0c-.144.128 0 .044-.25.113v.112h.25c.042-.073.083-.15.127-.222h-.127v-.003Zm-58.502.335-.126.223s.365-.178.25-.223h-.127.003Zm-4.77.225v.223h.127v-.223h-.126Zm2.764 0v.223h.126v-.223h-.126Zm-5.903.223h.25c-.103.147-.088.131-.25.223v.112h-.127l.127-.335Zm4.396 0-.127.223s.365-.178.25-.223h-.126.003Zm-9.669.448v.223h.127v-.223H26.1Zm-9.666.558v.222h.127v-.222h-.127Zm2.763.112v.335h.503v.223h.377c.103-.146.088-.13.25-.223v-.335c-.524.082-.527.03-1.13 0Zm-10.17.223c.145.128.001.044.251.112-.144-.128 0-.044-.25-.112Zm25.989.112v.223h.126v-.223h-.126ZM3.879 14.96c-.042.112-.083.222-.127.335h.127v-.223h.126v-.112H3.88Zm16.195.112v.223h.127v-.223h-.127Z" fill="#9FCCB9"/></svg>