<svg width="86" height="152" viewBox="0 0 86 152" fill="none" xmlns="http://www.w3.org/2000/svg">
<path d="M50.089 148.228C50.0796 148.611 49.5096 148.909 48.8274 148.909C48.1451 148.909 47.5844 148.592 47.5751 148.209L46.9022 116.044C46.8742 114.904 47.8461 113.961 49.061 113.971C50.2759 113.971 51.2291 114.932 51.1824 116.072L50.0797 148.228H50.089Z" fill="#282828"/>
<path d="M83.3488 129.534C83.3394 129.917 82.7694 130.216 82.0871 130.216C81.4049 130.216 80.8442 129.899 80.8348 129.516L80.162 97.3502C80.1339 96.2111 81.1059 95.2681 82.3208 95.2774C83.5357 95.2774 84.4889 96.2391 84.4422 97.3782L83.3394 129.534H83.3488Z" fill="#282828"/>
<path d="M81.9386 49.5743L51.9025 44.1029C49.7717 43.7107 48.0242 45.1673 48.0242 47.3334V87.566C48.0242 87.8368 48.0522 88.1169 48.0989 88.3877C47.37 88.453 46.6504 88.6211 46.1177 88.8825L11.0444 105.96C9.99771 106.464 10.0725 107.108 11.2033 107.379L47.2391 116.025C48.3699 116.296 50.1362 116.071 51.1549 115.521L82.5461 98.7516C84.0974 97.8926 84.9385 97.267 84.9665 95.6424L85.7422 54.224C85.7796 52.0579 84.0694 49.9758 81.9386 49.5836V49.5743Z" fill="#F8B3A7"/>
<path d="M48.2104 109.367C46.8927 109.367 45.1451 108.975 43.3134 108.564C42.3601 108.35 41.3695 108.135 40.3789 107.948C40.1733 107.911 40.0425 107.715 40.0799 107.519C40.1172 107.313 40.3135 107.183 40.5097 107.22C41.5097 107.407 42.5097 107.621 43.4722 107.836C45.4441 108.275 47.3038 108.686 48.5468 108.602C49.4346 108.546 51.6868 107.808 57.3408 104.652C57.5184 104.55 57.7427 104.615 57.8455 104.792C57.9483 104.97 57.8828 105.203 57.7053 105.297C53.0699 107.883 50.0047 109.246 48.6029 109.339C48.4814 109.339 48.3505 109.349 48.2197 109.349L48.2104 109.367Z" fill="#282828"/>
<path d="M75.4902 90.8997C75.4902 90.8997 75.4622 90.8997 75.4435 90.8997C73.8734 90.6663 70.7521 90.1154 67.7335 89.5739C65.4158 89.163 63.1917 88.7709 61.874 88.5562C61.6684 88.5188 61.5375 88.3321 61.5655 88.1266C61.6029 87.9212 61.7992 87.7812 61.9954 87.8185C63.3225 88.0333 65.5467 88.4254 67.8644 88.8363C70.8736 89.3685 73.9949 89.9193 75.5556 90.1528C75.7612 90.1808 75.9014 90.3768 75.864 90.5729C75.836 90.7596 75.6678 90.8997 75.4809 90.8904L75.4902 90.8997Z" fill="#282828"/>
<path d="M78.714 95.0916C78.5739 95.0916 78.4337 95.0075 78.3776 94.8768C78.2935 94.6901 78.3776 94.466 78.5645 94.3819C80.2747 93.607 80.2654 92.664 80.256 90.7966V90.283C80.256 89.3774 80.3121 86.9685 80.3869 84.1674C80.4897 80.0965 80.6111 75.4748 80.5738 74.1303C80.5738 73.9249 80.7327 73.7568 80.9382 73.7474C81.1345 73.7288 81.3121 73.9062 81.3214 74.1116C81.3588 75.4748 81.2373 80.1059 81.1345 84.1954C81.0597 86.9871 81.0037 89.396 81.0037 90.2924V90.8059C81.0224 92.72 81.0317 94.1018 78.8823 95.0729C78.8355 95.0915 78.7795 95.1102 78.7234 95.1102L78.714 95.0916Z" fill="#282828"/>
<path d="M76.0605 51.6653C76.0605 51.6653 76.0325 51.6653 76.0138 51.6653C74.4437 51.4319 71.3224 50.881 68.3038 50.3395C65.9862 49.9286 63.7619 49.5365 62.4442 49.3218C62.2386 49.2844 62.1078 49.0977 62.1359 48.8923C62.1732 48.6869 62.3695 48.5468 62.5657 48.5842C63.8928 48.7989 66.117 49.1911 68.4346 49.6019C71.4439 50.1341 74.5652 50.685 76.1259 50.9184C76.3315 50.9464 76.4717 51.1424 76.4343 51.3385C76.4063 51.5253 76.238 51.6653 76.0511 51.656L76.0605 51.6653Z" fill="#282828"/>
<path d="M30.744 141.617C30.6319 141.28 30.5384 140.972 30.4917 140.683C30.2113 138.666 30.1646 129.656 30.0431 128.293C30.0431 128.293 24.0901 127.051 23.8564 128.974C23.6135 130.898 24.8938 140.982 23.7443 142.485C23.492 142.812 22.9499 143.204 22.2303 143.633C25.1648 144.847 28.0058 143.251 30.744 141.617Z" fill="#FFDBB0"/>
<path d="M30.7444 141.617C28.0155 143.251 25.1745 144.848 22.2307 143.634C19.6794 145.175 14.8759 147.21 13.0162 148.713C10.6331 150.637 14.5862 152.112 16.502 151.897C18.4178 151.682 28.7631 149.778 31.1369 147.948C33.1742 146.37 31.4453 143.634 30.7444 141.617Z" fill="#282828"/>
<path d="M10.1665 140.552C8.21327 141.598 4.8396 141.85 2.91445 143.232C0.307082 145.109 -1.97321 148.05 4.1013 148.638C10.1758 149.226 16.3531 145.94 17.7176 144.035C19.0633 142.168 16.7456 141.477 16.6709 140.459C14.5027 140.935 12.2505 141.047 10.1571 140.543L10.1665 140.552Z" fill="#282828"/>
<path d="M17.382 128.984C17.382 128.984 12.0925 127.369 11.8028 128.415C11.5131 129.47 12.3542 136.501 11.5879 139.031C11.3823 139.694 10.8683 140.17 10.1674 140.543C12.2514 141.038 14.513 140.926 16.6811 140.459C16.6811 140.441 16.6811 140.413 16.6811 140.394C16.7091 139.339 17.8773 130.581 17.3914 128.984H17.382Z" fill="#FFDBB0"/>
<path d="M64.5943 72.488C64.7812 72.8054 70.3885 82.7212 64.9307 94.6724C60.5758 104.224 40.586 106.446 38.5113 108.379C36.2778 110.47 36.203 139.62 33.5022 139.592C32.4742 139.592 29.1379 140.731 24.1661 140.46C17.4281 140.096 21.0167 137.342 19.0261 137.221C17.6056 137.127 13.9142 137.641 10.1667 137.127C8.6247 136.912 9.06396 124.56 9.19479 120.199C9.33497 115.727 9.48449 103.897 10.5031 95.9982C11.1293 91.1244 24.4091 84.6259 28.222 83.02C32.1097 81.3767 36.6703 74.1779 39.0347 73.0669C42.2775 71.5356 64.5943 72.488 64.5943 72.488Z" fill="#A2A2A2"/>
<path d="M20.4094 127.902C20.2412 127.902 20.1104 127.771 20.1104 127.603C20.1104 124.942 20.7458 112.702 21.0449 106.81C21.1103 105.522 21.1664 104.541 21.1851 104.037C21.3159 101.395 21.428 99.1072 23.6055 97.6227C25.4933 96.3342 31.951 92.1419 36.7078 89.8357C36.8573 89.761 37.0349 89.8264 37.1003 89.9758C37.175 90.1252 37.1096 90.3026 36.9601 90.3679C32.2313 92.6648 25.8111 96.8384 23.942 98.1175C22.1009 99.378 21.9234 101.199 21.7832 104.074C21.7552 104.579 21.7084 105.559 21.643 106.848C21.3439 112.73 20.7084 124.961 20.7084 127.603C20.7084 127.771 20.5776 127.902 20.4094 127.902Z" fill="#282828"/>
<path d="M52.8 20.668C53.0523 20.668 58.7624 20.724 59.0708 20.696C59.183 21.2282 57.7344 24.3093 58.6222 26.2888C59.753 28.8004 65.6687 30.2569 64.8463 32.7032C62.2856 38.8375 50.8095 36.8208 48.4171 33.9543C47.5479 28.4923 51.0992 30.4343 52.7159 26.2888C53.8 23.497 52.7907 21.0134 52.7907 20.668H52.8Z" fill="#FFDBB0"/>
<path d="M61.9386 21.3393C60.3686 24.5698 57.836 26.2318 55.6678 26.3158C53.4997 26.3905 51.4437 25.6902 49.5373 24.4017C48.0046 23.0386 46.8178 20.9191 46.5468 19.9947C46.2944 19.1544 46.2103 18.1367 46.2757 17.1657C46.4439 14.8968 45.0328 14.9808 46.3131 10.3778C46.7056 8.97723 46.9766 5.97075 52.8082 5.41053C57.9388 4.91568 69.2748 11.078 61.9293 21.3486L61.9386 21.3393Z" fill="#FFDBB0"/>
<path d="M47.9212 9.93003C46.5941 11.0131 46.4072 14.4304 45.2951 13.3193C43.155 11.1812 43.6317 5.10286 46.6315 4.15984C49.7155 3.1888 46.9866 2.10573 53.5658 0.985307C58.36 0.172999 68.0605 6.87687 65.7335 12.0868C64.1916 15.5322 65.7802 18.9775 61.5374 22.124C60.7431 22.7122 61.0608 18.9681 61.5188 18.576C63.7336 16.5499 63.3318 15.7096 62.9019 14.8692C62.4627 14.0289 61.0048 13.4687 60.5655 14.225C58.4067 17.9971 59.2478 13.6741 57.2292 14.0569C53.0051 14.8599 48.5567 9.20176 47.9119 9.93003H47.9212Z" fill="#282828"/>
<path d="M52.0329 31.1335C50.1638 28.4445 47.6499 28.211 44.0519 31.9925C38.5662 37.744 39.0054 41.4881 36.5943 44.7093C35.099 46.7074 23.7911 51.2731 20.1183 52.711C17.4175 53.7754 16.7914 55.6708 16.7914 57.1273C16.7914 60.8434 18.6978 63.1963 19.9782 62.9629C22.5482 62.496 43.5286 51.2825 44.0332 48.8922C44.6594 45.9698 53.0796 32.6461 52.0236 31.1241L52.0329 31.1335Z" fill="#E2C2BC"/>
<path d="M39.7351 48.8001C40.8566 38.6416 47.4357 29.5101 48.5385 29.1647C51.4823 28.2497 49.0525 30.2384 54.4354 30.3038C59.1268 30.4158 59.1923 26.2983 61.5753 27.0919C66.6779 28.7819 70.0703 30.6959 72.3132 32.5446C74.5748 34.412 66.977 40.8358 69.4442 46.0177C69.5844 46.3165 69.6778 55.9615 69.4442 66.0547C69.3601 69.5373 69.0143 80.0226 67.3788 80.5081C66.0798 80.9003 60.2857 79.9853 57.9867 79.8172C56.697 79.7238 39.5482 79.1543 38.5015 78.482C35.1746 76.3439 37.8567 73.5522 37.6418 69.8548C37.1278 61.1155 38.2959 61.6944 39.7258 48.8188L39.7351 48.8001Z" fill="#E2C2BC"/>
<path d="M45.4639 38.3997C49.0431 38.7731 59.0894 38.8385 61.566 39.5481C64.0518 40.2577 62.1267 47.4191 64.0892 52.601C65.2668 55.7196 65.9957 62.6288 70.0609 63.0677C71.4721 63.2171 70.089 68.9592 69.2759 75.4764C68.4629 81.9935 68.6031 89.0615 67.2947 93.3098C65.9863 97.5581 55.155 106.353 52.1084 105.672C49.0618 104.99 39.0809 101.984 36.0717 100.919C33.0625 99.855 23.2125 93.4779 18.1286 92.7869C13.0447 92.096 10.9793 91.2744 15.1193 87.4182C18.3715 84.3931 27.6142 80.2288 32.5298 76.4287C37.2212 72.806 40.6603 52.2929 41.5575 46.8122C42.4453 41.3314 41.978 38.0542 45.4545 38.409L45.4639 38.3997Z" fill="#EE8084"/>
<path d="M61.1359 28.1546C60.5845 30.134 59.2762 37.5101 59.1827 39.9844C59.0893 42.4587 58.5566 41.8425 60.3789 41.8425C62.2013 41.8425 61.3602 42.1973 62.1359 38.836C62.9115 35.4747 63.6966 30.1247 64.0984 29.135C64.5003 28.1453 64.4442 27.8278 63.2012 27.3796C61.9583 26.9221 61.5097 26.8381 61.1359 28.1639V28.1546Z" fill="#EE8084"/>
<path d="M46.4448 30.6943C45.8935 32.6737 45.1739 38.8454 45.0804 41.3196C44.987 43.7939 44.4543 43.1777 46.2766 43.1777C48.099 43.1777 47.5383 43.5325 48.3046 40.1712C49.0709 36.81 49.7251 31.9548 49.8653 30.8904C50.1363 28.7616 49.9494 28.4628 48.641 28.7429C47.3514 29.0137 46.828 29.3591 46.4542 30.685L46.4448 30.6943Z" fill="#EE8084"/>
<path d="M18.9982 41.6934C24.3064 42.2256 28.3996 42.8045 32.4275 45.1947C35.4928 47.0154 35.1283 45.9043 41.8757 45.4001C46.7447 45.036 57.7535 47.1555 59.1554 48.5933C59.8095 49.2749 58.5946 57.3233 58.2395 61.4129C57.8937 65.3717 56.4452 74.2884 56.0901 77.463C55.7536 80.5441 54.2023 79.4237 51.0155 78.4807C45.997 77.0054 41.4738 75.8197 35.5769 75.6983C31.0631 75.6049 30.2126 75.4369 26.0072 73.1493C22.9793 71.506 17.4936 70.1055 15.4936 69.8907C13.8302 69.704 14.3909 68.7236 14.5871 64.9796C14.8208 60.4885 15.2974 51.2824 15.7179 47.5476C16.1385 43.8129 15.4563 41.3293 19.0075 41.6841L18.9982 41.6934Z" fill="#EBA193"/>
<path d="M18.2037 42.9067C23.5118 43.4389 28.5023 44.0551 32.39 46.6695C35.0721 48.4715 35.2777 46.6695 41.0812 46.6228C45.9688 46.5761 56.2488 48.3595 57.6506 49.8067C58.3048 50.4883 56.9497 58.4246 56.5946 62.5141C56.2488 66.473 55.0526 73.8958 54.847 76.9863C54.6414 80.0768 53.6695 80.2075 50.4827 79.2645C45.4642 77.7893 40.6887 77.0423 34.7917 76.9209C30.2779 76.8276 29.4275 76.6595 25.2221 74.372C22.1941 72.7287 16.7084 71.3281 14.7085 71.1134C13.045 70.9267 13.6057 69.9463 13.802 66.2022C14.0356 61.7112 14.5122 52.505 14.9328 48.7703C15.3533 45.0355 14.6711 42.5519 18.2223 42.9067H18.2037Z" fill="#E2C2BC"/>
<path d="M31.549 74.325C31.4182 74.325 31.306 74.213 31.306 74.0823C31.306 70.0394 32.1658 62.4579 32.8574 56.3609C33.1377 53.868 33.3901 51.7111 33.5396 50.0959C33.5489 49.9651 33.6704 49.8624 33.8013 49.8811C33.9321 49.8904 34.0349 50.0118 34.0162 50.1425C33.8667 51.7578 33.6144 53.9146 33.334 56.4076C32.6424 62.4952 31.7827 70.0674 31.7827 74.0729C31.7827 74.2037 31.6705 74.3157 31.5397 74.3157L31.549 74.325Z" fill="#EBA193"/>
<path d="M11.2216 63.5061C11.6702 61.9282 10.9039 61.3587 12.6608 59.1738C12.9038 58.8657 14.8756 56.4475 15.2868 58.1188C15.6513 59.6127 16.6419 58.8657 16.67 60.3596C16.6887 61.5921 16.0251 61.5267 16.399 62.199C17.0251 63.3381 15.8476 63.2634 15.8195 64.3558C16.0438 65.3268 15.1934 66.9515 13.7542 66.6433C12.8944 66.4566 10.773 65.0934 11.2216 63.5155V63.5061Z" fill="#FFDBB0"/>
<path d="M49.4819 67.6956C50.0053 66.9019 50.5286 66.6685 50.2015 66.0056C49.8651 65.3427 48.9025 65.1373 48.9399 64.4463C48.9773 63.634 49.8277 63.662 50.6688 63.6527C51.5099 63.6527 53.2855 64.2409 54.0144 64.4744C54.407 64.5957 55.7714 64.8385 55.3041 63.8581C54.4724 62.1308 54.7714 61.748 55.0144 61.2064C55.2107 60.7583 56.1358 60.8236 56.7153 61.9814C57.2947 63.1392 58.2666 64.9879 58.9395 65.6041C59.3413 65.9682 62.9954 64.521 65.827 63.7461C69.3783 62.7844 69.6119 61.748 69.0699 58.5734C68.7334 56.5847 68.7148 53.0834 68.7335 51.4961C68.7521 49.9182 76.9667 48.9005 77.3125 50.1236C77.7518 51.6642 77.2471 53.793 77.5742 57.2476C77.948 61.0851 78.1256 67.4155 73.5277 68.5919C69.3503 69.6563 63.2383 70.3192 60.2478 70.3846C59.8086 70.3846 56.9956 72.0185 56.4536 72.1119C54.9209 72.392 53.1734 72.8962 52.4911 72.6161C51.8089 72.336 51.566 72.2706 51.3323 71.2716C51.0987 70.2819 50.9211 70.4406 50.1922 69.619C49.4726 68.7973 48.9492 68.4799 49.4819 67.6956Z" fill="#FFDBB0"/>
<path d="M66.6871 31.6489C68.9207 30.5658 70.687 30.2484 74.2569 34.4873C75.883 36.42 78.2381 42.545 78.696 48.9781C79.0137 53.4038 79.8081 58.343 78.9577 61.3215C78.7147 62.1805 75.883 62.9461 71.5094 62.1058C68.7525 61.5736 66.5563 61.6203 65.5657 60.892C64.3321 59.9863 66.4909 53.4785 66.4909 51.0789C66.4909 49.0622 65.0423 43.0772 64.9302 42.0595C64.762 40.5843 64.2854 37.335 64.3228 35.9532C64.3508 34.4966 65.5657 32.1904 66.6871 31.6489Z" fill="#E2C2BC"/>
</svg>
