<svg width="191" height="21" viewBox="0 0 191 21" fill="none" xmlns="http://www.w3.org/2000/svg">
<path fill-rule="evenodd" clip-rule="evenodd" d="M46.869 0.921429C47.5288 1.05392 47.6264 1.39284 48.3935 1.4483C48.504 1.24802 48.6697 0.949139 49.0858 1.0539V1.18641C49.4401 1.30966 49.2418 1.05393 49.5018 1.31892H49.6416V1.84579L49.9179 1.97826V2.24019H50.0576C50.1031 2.37268 50.1486 2.50206 50.1974 2.63455H49.6416V3.02896C49.258 3.12447 49.3328 3.06594 49.2255 3.42336C48.7412 3.53428 48.5787 3.75614 47.9774 3.81776C47.9872 4.16285 48.0326 4.26453 48.1171 4.47405C47.6426 4.44016 47.0283 4.36928 47.0088 4.34155V4.60344H47.1485C47.5873 4.60652 46.7325 4.73595 46.7325 4.73595C46.557 4.52951 46.362 4.4155 46.0402 4.34155C45.8322 4.69897 45.5591 4.90233 45.0683 4.99784V4.73595L44.792 4.86842C44.7107 5.0687 44.6848 5.08413 44.6522 5.39533C44.3597 5.4169 43.8137 5.51241 43.6804 5.65722C43.5114 5.84209 43.8039 5.80205 43.4041 6.05162V5.52471H43.2643V6.05162H42.8483V5.78969C42.637 5.86672 42.6207 5.89139 42.2925 5.9222V5.66031L41.8764 5.79278C41.7854 6.0177 41.7432 6.20567 41.7367 6.58158H41.0443C41.0443 6.58158 40.9045 6.79109 40.768 6.84347V6.97598H40.6282V6.71405H40.352V6.58158H40.2122V6.71405H39.7961V6.84656C39.5556 7.04992 39.5036 7.46279 39.3801 7.76783C38.8698 7.72161 38.4667 7.53676 38.1319 7.90034C38.0864 8.03283 38.0409 8.16221 37.9922 8.2947C37.6216 8.33784 37.251 8.38099 36.8838 8.42721V8.55972L36.6075 8.69219V8.95408L36.1915 8.82161L36.0517 9.08351H35.6356C35.6129 9.09583 35.4731 9.2807 35.3593 9.3454V9.47791C35.1286 9.43477 34.8978 9.39162 34.667 9.3454V9.21293C34.5858 9.20369 34.1924 9.43477 33.9747 9.47483C33.8804 9.7244 33.7959 10.279 33.6983 10.5255L33.2824 10.393V10.2605C33.0906 10.2266 33.3376 10.356 33.1425 10.393C32.811 10.4546 32.785 10.2944 32.5867 10.2605L32.3105 10.6549H31.7546V10.7874L31.3386 10.9199V11.3143H31.6149V11.4468H31.4751C31.4004 11.5084 30.3634 11.7796 30.3667 11.4468H30.2269V11.7087L29.5346 11.5762C29.5411 12.0476 29.5021 12.405 29.2583 12.6269V12.4944H29.1186V11.9675H28.8423C28.8325 12.3126 28.787 12.4143 28.7025 12.6238C28.4132 12.5437 28.1369 12.4759 27.8704 12.7563V13.0182H27.7307V13.1507L26.8985 13.0182C26.853 13.1045 26.8075 13.1938 26.7588 13.2801C26.5735 13.3232 26.3883 13.3664 26.203 13.4126V13.6745H25.6472V13.9364C25.3156 13.8748 25.2116 13.7854 24.9548 13.6745V14.3308C24.6298 14.3739 24.308 14.417 23.9829 14.4633V14.5958C23.5766 14.6851 23.5279 14.7406 23.4271 15.1226C23.6222 15.1319 23.4076 15.1011 23.5669 14.9902C23.7847 14.8392 23.6969 15.3137 23.7066 15.3845C23.4693 15.5324 23.5181 15.4677 23.4304 15.7789C23.6157 15.7358 23.8009 15.6927 23.9862 15.6465L24.1259 15.3845C24.1519 15.3815 24.451 15.5078 24.6817 15.517V15.2551C24.8215 15.2983 24.958 15.3414 25.0978 15.3876L25.2376 15.1257C25.4066 15.0487 25.6439 15.0548 25.7934 14.9932V14.4663C26.1217 14.414 26.5572 14.2168 27.0415 14.3339V14.4663H27.5974V14.3339H27.8737V13.807H28.15V14.0689C28.566 13.9826 28.982 13.8932 29.3981 13.807L29.5379 13.9395C29.9182 13.6868 29.6646 13.4896 30.3699 13.4126C30.5292 13.5636 30.37 13.465 30.6463 13.5451V13.1507L31.3386 13.0182V12.7563C31.7969 12.8272 31.9691 12.9227 32.1707 12.7563H32.3105C32.486 12.5529 32.161 12.4913 32.4502 12.3619V12.4944H32.59V12.1C32.8955 12.0538 33.3083 11.9275 33.6983 12.1C33.7439 12.1863 33.7894 12.2756 33.8382 12.3619H34.1144V12.1C34.3939 12.174 34.2347 12.0846 34.3907 12.2325L34.8068 12.1V11.9675H35.2228C35.3139 11.835 35.4081 11.7056 35.4991 11.5731C35.7299 11.6162 35.9607 11.6594 36.1915 11.7056V11.8381C36.2922 11.8566 36.7018 11.721 37.1633 11.7056L37.0236 11.3112H37.2998V11.4437H37.8556L37.9954 11.5762V11.4437L38.4114 11.3112C38.4017 10.9661 38.3562 10.8644 38.2717 10.6549H39.1038C39.2631 10.5039 39.1038 10.6026 39.3801 10.5224C39.4874 10.128 39.4646 10.1773 39.9359 10.128C40.0919 10.353 40.0237 10.3067 40.352 10.3899C40.4917 10.0602 40.638 9.70284 40.9078 9.86306H41.0475V10.2574H41.3238C41.4246 9.89384 41.3629 9.96474 41.7399 9.86306V9.73055L42.5719 9.59808C42.5719 9.59808 42.6337 9.78909 42.8483 9.73055L42.988 9.46866H43.4041V9.20676L43.6804 9.33923V9.47174C43.8624 9.53645 43.7096 9.4101 43.8201 9.33923C44.1679 9.24988 44.0444 9.27145 44.2362 9.07734H44.3759V8.81545L44.6522 8.68294C44.8148 8.51655 44.8863 8.30088 45.0683 8.15607V8.28857H45.4843C45.5298 8.4642 45.5754 8.63982 45.6241 8.81545H45.7639C46.1019 8.27932 46.5407 8.32862 47.2883 8.15915C47.3305 8.14991 47.3241 7.97734 47.5646 8.02664V8.15915C47.8409 8.24542 48.1204 8.33477 48.3967 8.42104V8.28857H48.5365L48.3967 7.89417C48.4877 7.85104 48.5819 7.80788 48.673 7.76166C48.8647 7.48744 48.6112 7.57678 48.9493 7.36726V7.23479L49.6416 7.10228C49.5668 7.46895 49.5343 7.11462 49.6416 7.49669H49.7814V7.23479C50.0577 7.27793 50.3371 7.32104 50.6134 7.36726V7.23479C50.7629 7.11463 50.6395 7.25634 50.7533 7.10228H50.6134V6.96981H51.0295C51.0587 7.28101 51.088 7.29641 51.1692 7.49669C51.3285 7.34571 51.2245 7.49669 51.3091 7.23479C51.4683 7.08381 51.3643 7.2348 51.4488 6.9729C51.8649 6.84041 52.2809 6.71099 52.697 6.5785L52.8367 6.711C52.8822 6.2858 52.9635 6.32585 53.113 6.05471H53.3893V6.18718H53.529V6.05471H54.0849L54.2247 5.66031C54.5855 5.79896 54.8097 5.90063 55.333 5.9222C55.2875 5.83593 55.242 5.74658 55.1933 5.66031C55.2875 5.51549 55.9734 5.47543 56.1651 5.2659L56.0254 5.00401H56.1651V4.8715C56.5324 5.02556 56.6884 5.12415 57.2735 5.1334V5.00093H57.1337V4.60652C57.5726 4.6928 57.4133 4.80679 57.5498 4.86842C57.7123 4.85918 58.0439 4.60346 58.3819 4.73595L58.5217 4.99784H58.798C58.6647 5.43229 58.668 5.77121 58.9377 6.18101H58.798C58.6387 6.33199 58.798 6.23341 58.5217 6.31352V6.96981H58.3819C58.3462 7.18858 58.5119 7.19781 58.5217 7.23171V7.888C58.0244 7.90649 57.7351 8.07595 57.4133 8.1499L57.137 8.01743C57.046 8.14992 56.9517 8.2793 56.8607 8.41179C56.7827 8.4426 56.1033 8.31321 55.8888 8.27932C55.8043 8.62441 55.4956 8.97567 55.0568 8.93562C55.0568 8.93562 54.982 8.76922 54.7805 8.80311L54.9202 9.065H54.3644C54.3189 9.28377 54.2734 9.50253 54.2247 9.7213L53.5323 9.58883L53.3925 9.85072C53.0187 9.94008 53.0285 9.59807 52.9765 9.58883L52.5604 9.7213L52.7002 9.85381C52.7067 9.90619 52.5767 10.1496 52.5604 10.3807C52.0989 10.4238 51.6373 10.467 51.1725 10.5132V10.2513C50.8442 10.2236 50.828 10.1958 50.6167 10.1188V10.5132C50.5874 10.5686 49.6643 11.1756 50.2006 11.4345H49.7846V11.302C49.6514 11.0585 49.6448 11.5639 49.6448 11.5639C49.4888 11.6748 49.6253 11.5485 49.5051 11.6964C49.8951 11.5731 49.8919 11.5577 50.3372 11.6964V11.8289L50.7533 11.6964L50.6134 11.5639L50.7533 11.1695C51.4033 11.4067 51.8324 11.2465 52.2777 10.9076C52.3232 10.8213 52.3687 10.7319 52.4174 10.6457H53.1098C53.1098 10.6457 53.0967 10.5686 53.386 10.5132V10.9076H53.5258V10.6457C54.1173 10.6364 54.4457 10.6179 54.774 10.3838L54.9137 10.1219C55.1445 10.165 55.3753 10.2082 55.6061 10.2544C55.4468 10.1034 55.606 10.202 55.3298 10.1219V9.85997C55.4695 9.90311 55.6061 9.94623 55.7458 9.99245V9.73055H56.0221V9.99245C56.825 9.93082 57.4003 9.50256 57.9626 9.20368V9.59808H58.2389V9.33615H59.2108V9.20368H59.6268V9.07117C59.9031 9.11431 60.1826 9.15746 60.4589 9.20368C60.5759 9.05578 60.4426 9.18518 60.5986 9.07117V8.5443C60.8749 8.50116 61.1545 8.45801 61.4308 8.41179C61.3853 8.54428 61.3398 8.6737 61.291 8.80619H61.4308V8.9387C61.5868 8.82778 61.4502 8.95409 61.5705 8.80619C61.7298 8.65521 61.6258 8.8062 61.7103 8.5443C61.9281 8.55354 62.6822 8.67677 62.6822 8.67677V8.5443H62.8219V8.1499C62.9747 7.96503 63.446 8.01435 63.7938 8.01743V8.1499L64.6259 8.01743V7.88492H64.9022V7.75241H65.3182L65.1785 8.14681H65.3182C65.419 7.78323 65.3572 7.85409 65.7343 7.75241V8.01434C65.8741 7.97121 66.0106 7.92805 66.1504 7.88184V7.74936C66.4754 7.70623 66.7972 7.66307 67.1222 7.61686V7.48435H67.5383L67.678 7.22246C67.795 7.17932 68.5914 7.3611 68.7865 7.48435V7.22246L69.2025 7.08998V6.95748C69.391 6.90202 69.1472 7.05301 69.3423 7.08998C69.573 7.13312 69.5892 6.96364 69.6185 6.95748C69.872 6.90818 70.1549 7.13002 70.3109 7.21937V7.0869C70.7432 6.71408 70.3434 6.5292 71.143 6.43061V6.56308H71.5591L71.4192 6.82501C71.598 7.03761 71.6793 6.68016 71.8353 7.21937C72.0173 7.08072 72.0433 6.95134 72.2514 6.82501V7.21937H72.5277C72.4822 6.95747 72.4366 6.69251 72.3878 6.43061C73.0379 6.22108 72.8559 6.53228 73.22 5.77431H73.3597C73.3435 6.0547 73.2167 6.22415 73.22 6.30118L73.3597 6.43369C73.6132 6.2673 73.376 6.25499 73.4995 6.1718C73.6588 6.06087 73.5873 6.29194 73.6393 6.30427C73.779 6.26113 73.9156 6.21801 74.0553 6.1718V5.90986C74.3674 5.85748 74.5884 5.6942 75.0272 5.77739C75.0272 5.77739 75.0337 5.94992 75.3034 5.90986V5.77739H75.9958V5.90986C75.6643 5.98997 75.739 5.95303 75.5798 6.1718H75.8561C76.2559 5.54631 76.9221 5.76508 77.66 5.5155L77.7998 5.1211C78.1964 5.1211 78.3947 5.16729 78.6319 5.25357V4.7267H78.7717C78.8627 4.85919 78.9569 4.98861 79.0479 5.1211H79.1877L79.0479 5.38299H79.1877V5.5155C79.5843 5.78664 79.5453 5.2813 79.7435 5.90986H80.0198V6.1718H80.2961C80.2506 6.30429 80.2051 6.43367 80.1563 6.56616H80.2961C80.3904 6.76336 80.3936 6.78495 80.4358 7.09307H80.7122V7.35496C80.9267 7.47205 81.0014 7.54909 81.1282 7.74936C81.5768 7.51828 81.3915 7.43507 81.9603 7.61686L81.8205 7.22246H82.0968V6.96056H82.3731V7.09307H82.5129V6.96056L82.9289 7.09307L82.7891 7.48743H83.0654C83.1662 7.12385 83.1045 7.19475 83.4815 7.09307C83.6895 6.86198 83.8553 6.84346 84.3136 6.83114V6.56924C84.5899 6.48297 84.8694 6.39362 85.1457 6.30735C85.1554 6.65244 85.201 6.75412 85.2855 6.96365C85.4415 6.85272 85.305 6.97903 85.4252 6.83114H85.565V6.43677C85.981 6.47991 86.3971 6.52303 86.8132 6.56924V6.30735H87.0894L87.2292 5.91295C87.4145 5.95608 87.5998 5.99924 87.785 6.04546C87.8305 5.95918 87.876 5.86984 87.9248 5.78356L88.6171 5.91603V6.17793C88.9714 5.97457 89.5728 5.36142 90.0051 5.65105H90.2813V5.91295H90.4211V5.65105C91.0874 5.61716 91.0907 5.55862 91.6692 5.65105C91.7147 5.43229 91.7602 5.21352 91.809 4.99476C92.4493 4.88075 92.9337 4.88075 93.3335 4.99476V4.73286H94.1655V4.86533H94.5816V4.99784C94.7214 4.95471 94.8579 4.91155 94.9976 4.86533V4.73286C94.8384 4.58189 94.9424 4.73287 94.8579 4.47097C95.313 4.48021 95.2674 4.63735 95.5502 4.47097L95.69 4.20904L96.5221 4.47097V4.73286C96.8959 4.73286 97.3087 4.77598 97.4939 4.60036V4.33846L97.7702 4.47097V4.33846C98.0465 4.29533 98.3261 4.25221 98.6024 4.20599C98.7324 4.2861 98.5536 4.39392 98.7421 4.33846L98.8819 4.07657C99.0574 4.07657 99.2362 4.31072 99.5742 4.20904V4.07657C99.805 4.03343 100.036 3.99028 100.267 3.94406L100.127 4.33846H100.267C100.575 4.65583 100.527 4.52335 100.959 4.47097C100.943 4.88693 100.689 4.71744 101.099 4.86533C101.16 5.19194 101.225 5.34912 101.238 5.78665C100.855 5.88216 100.93 5.82359 100.822 6.18101H100.683V6.83731C100.351 6.89893 100.247 6.98828 99.9903 7.0992V6.70484H99.8505C99.6457 7.44124 99.61 6.97597 99.1582 7.23171V7.36422L98.6024 7.75858C98.6479 7.62609 98.6934 7.49671 98.7421 7.36422H98.6024C98.5179 7.57374 98.4788 7.67542 98.4625 8.02051C97.9392 8.12527 97.6857 8.27624 96.9381 8.28241V8.02051H96.6619V8.28241H95.9695V8.41488H96.1093C96.0215 8.60283 95.9468 8.51347 95.833 8.67677H95.5567L95.6965 8.41488H95.5567C95.4202 8.59358 95.4754 8.67369 95.1406 8.67677C95.1406 8.67677 95.0432 8.48884 94.8644 8.5443C94.8189 8.63057 94.7733 8.71992 94.7246 8.80619H94.4483L94.3086 9.595L93.7527 9.72747V9.2006H93.4765C93.3757 9.62272 93.2879 9.67817 92.7841 9.72747L92.9239 9.33307H92.7841C92.7321 9.48404 92.7451 9.80142 92.5079 9.72747L92.368 9.33307C92.2283 9.3762 92.0918 9.41936 91.9521 9.46557V9.72747C91.731 9.64736 91.6237 9.6104 91.2597 9.595V9.2006H91.1199V9.595C91.2792 9.74598 91.1752 9.59499 91.2597 9.85689C90.9346 9.90003 90.6129 9.94314 90.2878 9.98936V10.2513C89.797 10.3006 89.8652 10.4146 89.4557 10.5132V10.9076C89.1177 10.8336 89.1502 10.7689 88.8999 10.6457V10.9076H88.7601V11.302H88.8999V11.0401H89.1762V11.302C89.407 11.2588 89.6377 11.2157 89.8685 11.1695V11.5639H90.1448V11.1695C90.3756 11.2126 90.6063 11.2557 90.8371 11.302C90.9021 10.9877 90.9964 10.8891 91.1134 10.6457C91.5652 10.6487 92.1146 10.5871 92.3616 10.7782H92.5014C92.5469 10.6919 92.5923 10.6025 92.6411 10.5163H92.9174V10.3838H93.1937V10.2513L93.47 10.3838V10.2513H94.8579C94.8124 10.1188 94.7669 9.98938 94.7182 9.85689H94.9944V9.72438H95.1341V9.85689L95.5502 9.98936C95.5599 10.1742 95.5827 10.0264 95.4105 10.1219C95.5665 10.2605 95.4105 10.1804 95.6868 10.2544V10.1219H95.8265V9.72747H95.9663C96.0865 9.54568 96.0702 9.49947 96.106 9.2006C96.4343 9.18519 96.4571 9.16052 96.6619 9.06809V9.2006H96.8016V9.33307L96.6619 9.595H97.0779V9.33307C97.403 9.28993 97.7248 9.24681 98.0498 9.2006V9.33307H98.1896C98.3456 9.2283 98.1375 9.16054 98.3293 9.2006V9.33307H98.8851V9.595H99.0249C99.0704 9.3331 99.1159 9.06809 99.1647 8.80619H99.4409V9.06809H99.5807V8.67372C99.8993 8.68605 99.9415 8.78462 100.137 8.80619L100.276 8.5443C100.276 8.5443 100.657 8.66753 100.832 8.67677V8.41488L100.972 8.54738C101.157 8.50425 101.342 8.46109 101.528 8.41488V8.54738H102.22V8.15298H102.496V8.28549H102.636V8.15298L102.912 8.28549L103.052 7.89109C103.419 7.76168 103.341 8.17763 103.608 8.15298V8.02051C104.216 7.88494 104.372 7.69698 104.996 7.62611V7.75858H104.856C104.593 7.87258 105.132 7.89109 105.132 7.89109C105.249 8.03899 105.116 7.90955 105.272 8.02356V7.76166L105.964 7.62919C106.01 7.54292 106.055 7.45354 106.104 7.36726L106.244 7.49977C107.066 7.54907 107.174 7.22556 107.632 6.9729V7.36726H107.772C107.931 7.21628 107.772 7.3149 108.048 7.23479V6.9729C108.188 7.01603 108.324 7.05915 108.464 7.10537L108.604 6.84347H109.16V6.711H109.299C109.384 7.02529 109.345 6.95439 109.576 7.10537V6.711C110.304 6.60008 110.19 6.69559 110.824 6.9729C110.895 6.66478 111.025 6.47991 111.24 6.3166C111.399 6.46758 111.24 6.36896 111.516 6.44907V6.18718H111.932V5.92528C112.163 5.96842 112.394 6.01154 112.625 6.05776V6.31969H112.901V5.92528C113.203 5.94377 113.362 6.05776 113.457 6.05776V5.92528L113.873 5.79278C113.918 5.87905 113.964 5.96844 114.012 6.05471C114.455 6.17796 115.118 5.78047 115.4 5.66031L115.261 5.2659H115.677C115.761 5.58019 115.722 5.50933 115.953 5.66031C116.07 5.8082 115.937 5.67877 116.093 5.79278C116.103 5.44768 116.148 5.346 116.233 5.13648C116.509 5.09334 116.788 5.05023 117.065 5.00401C117.182 5.15191 117.048 5.02248 117.204 5.13648C117.097 5.26897 117.035 5.26592 116.928 5.39841H117.344L117.204 5.00401L117.344 4.8715C117.549 4.93313 117.565 5.0225 117.9 5.00401V4.8715H118.04V5.00401C118.225 5.04715 118.41 5.09026 118.596 5.13648V5.26899C119.161 5.47235 119.418 5.17349 119.704 5.4015C120.136 5.67264 119.769 5.57095 119.98 5.92837L120.256 6.06084V6.32277H120.396C120.523 6.50148 120.5 6.55385 120.536 6.84964L119.98 6.71713C120.091 7.14234 120.237 7.17008 120.256 7.76783C120.1 7.87876 120.237 7.75244 120.117 7.90034H119.977C119.935 7.50595 119.957 7.5429 119.701 7.37343V7.50594H119.84C119.749 7.68157 119.655 7.85718 119.564 8.03281C119.203 8.03897 119.086 8.06056 118.872 8.16532V8.29779C118.635 8.37482 118.631 8.17456 118.596 8.16532C118.098 8.04515 117.783 8.33171 117.624 8.55972H117.484C117.438 8.82162 117.393 9.08658 117.344 9.34849H117.068L116.928 9.08659C116.743 9.12973 116.558 9.17284 116.372 9.21906C116.402 9.53026 116.431 9.54569 116.512 9.74597C116.19 9.73365 116.158 9.6412 115.956 9.61346L115.816 9.87536C115.631 9.9185 115.446 9.96165 115.261 10.0079C115.16 10.3714 115.222 10.3006 114.845 10.4023C114.357 10.8182 113.947 10.2359 113.873 10.2698V10.4023C113.642 10.5348 113.411 10.6641 113.18 10.7966C113.255 11.2557 113.317 11.04 113.18 11.4529H113.32V11.3205H113.876V11.5824L114.292 11.4498V11.3174L114.708 11.4498V11.0555C114.848 11.0986 114.984 11.1417 115.124 11.1879V11.0555L114.984 10.923H115.816C115.862 11.0555 115.907 11.1849 115.956 11.3174C116.047 11.2742 116.233 11.0555 116.233 11.0555C116.372 11.0986 116.509 11.1417 116.649 11.1879V11.0555C116.853 10.9538 116.879 10.9569 117.204 10.923V10.6611H117.481V10.3992H118.037V10.6611C118.349 10.6272 118.404 10.6487 118.592 10.5286V10.3961H118.869V10.2636H119.145V10.1311C119.392 9.94317 119.476 9.83532 119.837 9.73672V10.1311H120.393C120.439 9.91236 120.484 9.69359 120.533 9.47483H120.809C120.764 9.60732 120.718 9.73674 120.669 9.86923H120.809C121.007 9.68127 121.583 9.53337 121.917 9.47483V9.21293C122.103 9.1698 122.288 9.12664 122.473 9.08042V8.68602H122.75V9.08042H123.026V8.68602H123.718C123.673 8.81851 123.627 8.94793 123.578 9.08042H123.855C123.998 8.92945 124.111 8.82777 124.41 8.81853V8.951H124.55L124.69 8.81853C124.82 8.58128 124.882 8.61206 124.966 8.29162L125.382 8.15915V8.02664L125.522 8.15915L125.938 8.02664V8.42104H126.214C126.244 8.10984 126.273 8.09445 126.354 7.89417L126.631 8.02664V7.89417C126.829 7.73087 126.845 7.53057 127.047 7.36726C127.089 7.42889 127.329 7.84486 127.463 7.76166L127.602 7.36726C128.204 7.32413 128.805 7.28101 129.406 7.23479V7.36726C129.023 7.46278 129.098 7.40425 128.99 7.76166C129.335 7.70312 129.501 7.64152 129.962 7.62919V7.49669H129.822V6.84039C130.053 6.88353 130.284 6.92668 130.515 6.9729C130.56 6.84041 130.606 6.71099 130.655 6.5785C130.814 6.72947 130.71 6.57849 130.794 6.84039L131.21 6.9729V6.84039C131.496 6.69249 131.461 6.63704 131.903 6.5785V6.18409C132.198 6.16869 132.377 6.04854 132.458 6.05162L132.598 6.18409V5.9222L133.291 5.78969V6.05162C133.382 6.00849 133.476 5.96533 133.567 5.91912V5.78665C133.788 5.762 133.739 6.01465 133.843 6.04854H134.399C134.444 5.82978 134.49 5.61101 134.539 5.39224C134.77 5.43538 135 5.4785 135.231 5.52471L135.371 5.26282H135.511V5.39533C135.65 5.35219 135.787 5.30904 135.927 5.26282V5.00093C136.086 5.15191 135.982 5.00092 136.066 5.26282H136.343C136.408 4.94854 136.502 4.84994 136.619 4.60652C137.081 4.61269 137.867 4.73903 137.867 4.73903V4.60652H138.143V4.47405H138.559C138.605 4.38778 138.65 4.2984 138.699 4.21212C138.839 4.25526 138.976 4.29841 139.115 4.34463V4.47714H139.808V4.21521L140.363 4.08274V4.34463H140.64C140.727 4.70513 140.822 4.64351 140.916 5.00093H141.332C141.433 5.36451 141.371 5.29365 141.748 5.39533V5.65722C140.919 5.81744 141.03 6.1841 140.776 6.84039H141.608L141.748 6.31352C142.327 6.23033 142.141 6.18412 142.72 6.05162V6.31352C143.377 6.05162 143.279 6.05162 143.828 6.31352V6.05162C144.014 6.00849 144.199 5.96533 144.384 5.91912V5.65722H144.66V5.78969H144.8V5.65722C145.116 5.59868 145.174 5.72499 145.356 5.78969V5.65722H145.216C144.96 5.53089 145.493 5.52471 145.493 5.52471V5.26282H145.769V5.00093C146.204 5.07796 146.386 5.21352 146.877 5.26282L147.017 4.86842C147.017 4.86842 146.721 4.84687 146.877 4.73595H147.154V4.86842H147.986V4.47405C148.428 4.56033 148.259 4.66816 148.402 4.73595C148.632 4.71438 148.659 4.47714 148.678 4.47405C148.945 4.40319 148.87 4.56031 148.954 4.60652H149.094V4.47405C149.279 4.51719 149.465 4.56031 149.65 4.60652C149.751 4.24294 149.689 4.3138 150.066 4.21212V4.47405H150.622C150.752 4.2368 150.813 4.26759 150.898 3.94714L151.314 4.07965V3.94714C151.405 3.90401 151.499 3.86089 151.59 3.81467V4.07657H151.867L151.727 3.68217C152.058 3.62054 152.162 3.5312 152.419 3.42027V3.94714C153.141 3.76844 152.913 3.65753 153.807 3.81467V3.42027H154.223V3.55278C154.165 3.62981 153.996 3.57126 154.083 3.81467H154.223C154.447 3.00124 154.519 3.5928 155.055 3.28777C155.371 3.10906 155.046 2.80402 155.748 2.63147V2.76398L156.164 2.63147V2.8934H156.303V2.63147C156.794 2.68077 156.726 2.7948 157.135 2.8934V3.15529C157.266 3.36173 158.127 3.39871 157.691 3.81159H157.968V4.33846L157.691 4.47097C157.685 4.51411 157.821 4.76367 157.831 4.99784H158.107C158.042 5.31212 157.948 5.41072 157.831 5.65414C157.584 5.66646 157.331 5.79281 157.275 5.78665V5.65414H156.72V5.78665L155.887 5.91912V6.18101C155.702 6.26728 155.517 6.35663 155.332 6.4429V6.31043H155.192V6.70484L154.22 6.96673C154.379 7.11771 154.22 7.01909 154.496 7.0992V7.23171C154.74 7.33955 154.941 7.15466 155.052 7.0992V6.96673H155.468V6.70484C156.115 6.67402 156.258 6.51379 156.716 6.31043V6.17793H157.688V6.31043H157.548C157.389 6.46141 157.548 6.36279 157.272 6.4429V6.70484C157.838 6.55078 157.418 6.58466 157.688 6.31043L157.964 6.4429V6.31043H158.241V6.17793H158.657C158.803 6.09782 159.001 5.52781 159.349 5.65105V5.78356H159.625V5.38916C159.765 5.4323 159.902 5.47541 160.041 5.52163V5.38916C160.318 5.34602 160.597 5.30287 160.873 5.25665V5.51855H161.15C161.195 5.65104 161.241 5.78046 161.29 5.91295H161.429V5.65105H161.706C161.787 5.16114 161.787 5.34912 161.706 4.86229C161.748 4.87769 163.041 5.14883 163.093 5.12418V4.99167H163.233V4.4648H163.373C163.656 4.70514 164.004 4.50178 164.481 4.4648V4.20291C164.761 4.27686 164.602 4.18748 164.758 4.33538C165.268 4.19672 165.138 4.07041 165.45 3.80851V3.676C165.801 3.46956 166.545 3.66675 167.114 3.676C167.202 3.3155 167.296 3.37712 167.391 3.0197C167.985 2.99813 167.865 2.93652 168.223 2.75781V3.15221H168.778C168.808 2.84101 168.837 2.82562 168.918 2.62534L169.334 2.75781L169.474 2.49591H169.75V2.36341C169.89 2.32027 170.027 2.27715 170.166 2.23094L170.306 2.62534C170.657 2.35727 170.365 2.30797 170.998 2.23094V2.36341C170.839 2.48357 170.836 2.45895 170.722 2.62534H170.862V2.75781C171.151 2.61299 171.109 2.54521 171.554 2.49591C171.671 2.64381 171.538 2.51442 171.694 2.62842C171.532 2.878 171.577 2.75474 171.278 2.89032V3.02279H171.554C171.509 3.28469 171.463 3.54969 171.415 3.81159H171.554V3.94406H171.415V4.20599C171.46 4.51411 171.506 4.81915 171.554 5.12727H171.415C171.298 5.27824 171.343 5.31213 171.138 5.38916V5.25665H170.998C170.907 5.38914 170.813 5.51856 170.722 5.65105H170.306L170.166 5.91295C169.981 5.95608 169.796 5.99924 169.611 6.04546C169.565 6.17795 169.52 6.30737 169.471 6.43986L169.055 6.57233L168.915 6.83422H168.775V6.70175C168.265 6.58775 168.106 7.1485 167.803 6.83422V7.09615H167.527C167.573 7.27178 167.618 7.4474 167.667 7.62303H167.527C167.371 7.84795 167.439 7.80173 167.111 7.88492C167.098 7.85719 166.913 7.40733 166.835 7.49052V7.62303L166.558 7.7555C166.513 7.88799 166.467 8.01741 166.419 8.1499H166.003C165.538 8.36558 165.821 8.49808 165.031 8.5443C165.076 8.67679 165.122 8.80621 165.171 8.9387C165.356 8.89556 165.541 8.85241 165.726 8.80619V9.2006H165.866V9.06809H166.422C166.844 8.91711 167.04 8.70145 167.67 8.67372V8.41179C168.063 8.3286 168.037 8.16838 168.086 8.1499H168.642V8.28241L169.198 8.1499C169.198 8.1499 169.26 8.31322 169.474 8.28241V8.1499L170.03 8.28241V8.1499C170.189 7.99892 170.085 8.14991 170.17 7.888H170.03V8.02051C169.91 8.27009 169.89 7.75858 169.89 7.75858C170.397 7.80172 170.907 7.84487 171.415 7.89109L171.554 7.62919C171.694 7.58914 171.808 7.83253 172.11 7.76166V7.62919H172.802V7.76166H172.942V7.62919H173.498L173.638 7.23479H173.778L173.638 6.9729H174.054C174.213 7.12388 174.054 7.02526 174.33 7.10537V6.84347C174.662 6.9051 174.766 6.99445 175.022 7.10537V6.9729H174.883C174.626 6.84657 175.159 6.84039 175.159 6.84039V6.9729C175.318 7.12388 175.214 6.97289 175.299 7.23479C175.595 7.21939 175.77 7.10228 175.855 7.10228V7.23479H176.131C176.17 7.00062 176.271 6.9729 176.271 6.9729C176.225 6.84041 176.18 6.71099 176.131 6.5785H176.271V6.44599C176.664 6.61237 176.843 6.78493 177.379 6.84039V6.5785C178.188 6.40287 177.457 6.24573 178.211 6.5785V6.05162H178.351V6.18409C178.536 6.0516 178.721 5.92218 178.907 5.78969V6.3166H179.046C179.115 6.25498 179.007 6.10398 179.186 6.18409V6.3166H179.326C179.326 6.3166 179.287 6.78802 179.466 6.5785V6.44599C179.625 6.29501 179.521 6.446 179.606 6.18409H179.189C179.297 5.7897 179.274 5.83899 179.745 5.78969V5.9222L180.161 5.78969V5.9222H180.577V6.05471C180.935 6.12558 181.338 5.64488 181.549 5.5278L181.965 5.66031V5.5278C182.196 5.38606 182.196 5.3491 182.521 5.2659C182.476 5.3984 182.43 5.52782 182.381 5.66031H182.521V5.79278C182.661 5.7065 182.797 5.61716 182.937 5.53088V5.39841H183.214C183.464 5.29365 183.516 5.09951 183.629 4.8715C183.86 5.04713 184.091 5.22278 184.322 5.39841C184.406 5.13959 184.328 5.07796 184.598 5.00401C184.644 5.01942 184.64 5.2505 184.874 5.2659C185.17 4.89308 184.998 5.00091 185.43 5.1334C185.476 4.70819 185.557 4.74828 185.707 4.47714C186.191 4.54801 185.963 4.60655 186.399 4.47714V5.2659H186.539C186.695 5.04098 186.626 5.0872 186.955 5.00401C187.215 5.41689 187.468 5.37685 187.511 6.05471C187.891 6.07011 188.515 6.2365 188.619 6.05471H188.759V6.18718C189.142 6.27345 189.578 6.55384 189.73 6.84347V7.23788H189.87C190.062 7.48129 190.192 7.54292 190.286 7.89417C190.147 7.85104 190.01 7.80788 189.87 7.76166V7.89417H190.01V8.28857H190.15C190.277 8.48269 190.273 8.6121 190.29 8.94487C190.13 9.09585 190.234 8.94486 190.15 9.20676C189.688 9.2499 189.227 9.29302 188.762 9.33923V9.07734C188.577 9.12048 188.391 9.16363 188.206 9.20985V8.94792C188.115 8.99105 188.021 9.03421 187.93 9.08042C187.884 8.99415 187.839 8.9048 187.79 8.81853C187.787 8.81853 187.381 8.99724 187.098 8.81853L186.958 8.42413C186.795 8.31629 186.721 8.80927 186.402 8.68602V8.55355C186.243 8.40257 186.347 8.55352 186.262 8.29162L185.846 8.42413V8.29162H185.707C185.752 8.15913 185.798 8.02975 185.846 7.89726C185.846 7.89726 185.674 7.85721 185.707 7.63536C185.707 7.63536 185.937 7.57679 185.846 7.37343H185.707C185.547 7.52441 185.707 7.42583 185.43 7.50594C185.385 7.63843 185.339 7.76785 185.29 7.90034C184.965 7.86337 184.946 7.85719 184.735 7.76783V7.63536C184.501 7.65077 184.501 7.88493 184.458 7.89726C184.143 8.00202 183.899 7.73394 183.766 7.76475V7.89726C183.295 8.07597 183.191 8.30704 182.658 8.42413C182.703 8.29164 182.749 8.16222 182.797 8.02973H182.521C182.316 8.38714 182.095 8.63056 181.549 8.68602V8.29162H181.41C181.302 8.68601 181.325 8.63672 180.854 8.68602V8.42413C180.275 8.723 180.197 8.69221 179.466 8.55664V8.2947H179.326C179.316 8.8031 179.349 8.837 178.91 8.951V9.08351C178.777 9.32692 178.77 8.82161 178.77 8.82161H178.494C178.448 8.90789 178.403 8.99723 178.354 9.08351C178.123 9.04037 177.893 8.99722 177.662 8.951V9.21293H177.246V9.3454C177.086 9.49638 177.191 9.34539 177.106 9.6073L176.274 9.7398V9.47791L174.886 9.61038V9.87227H174.47V10.0048C174.346 10.2513 174.33 9.74289 174.33 9.74289C173.885 9.84457 174.031 9.94008 173.498 10.0048V10.3992C172.679 10.3191 172.741 9.9339 171.834 9.87227C171.831 10.3098 171.762 10.467 171.694 10.7936H171.418C171.46 10.6796 171.684 10.5039 171.558 10.2667H171.418V10.3992C171.259 10.5502 171.362 10.3992 171.278 10.6611L170.446 10.7936V11.0555C169.981 10.9754 169.572 10.695 169.058 10.923C168.967 11.0555 168.873 11.1849 168.782 11.3174C168.405 11.4221 168.353 10.963 168.226 10.923C167.976 10.8429 168.125 11.0709 168.086 11.1849C167.946 11.1417 167.81 11.0986 167.67 11.0524V11.5793H167.394L167.254 11.8412C167.026 11.9059 166.997 11.7118 166.978 11.7087C166.643 11.6532 166.617 11.8412 166.422 11.8412V11.7087C166.146 11.6656 165.866 11.6224 165.59 11.5762V11.8381C164.67 11.9305 164.202 11.9521 163.51 11.8381L163.37 12.2325C163.11 12.1678 162.707 12.177 162.261 12.1V11.9675C162.421 11.8165 162.317 11.9675 162.401 11.7056C162.07 11.7179 162.057 11.7919 161.845 11.8381V11.7056C161.615 11.5639 161.618 11.5177 161.29 11.4437V11.1818H161.013C160.968 11.0493 160.922 10.9199 160.873 10.7874L160.041 10.6549V10.393C160.152 10.4362 160.477 10.6611 160.734 10.5255V10.393C160.324 10.1404 160.396 9.86922 160.457 9.47174C160.643 9.38547 160.646 9.26531 160.734 9.20985C160.825 9.25298 160.919 9.2961 161.01 9.34232V8.81545H161.15C161.104 8.55354 161.059 8.28854 161.01 8.02664C160.87 7.98351 160.734 7.94039 160.594 7.89417C160.639 7.98045 160.685 8.06979 160.734 8.15607L160.318 8.02356V8.28549H160.178C160.132 8.37176 160.087 8.46111 160.038 8.54738H159.622C159.655 8.85242 159.775 8.6275 159.622 8.94179L159.346 8.80928V9.07117C159.196 9.30226 159.206 8.80928 159.206 8.80928C158.975 8.85241 158.744 8.89557 158.514 8.94179C158.514 8.94179 158.449 8.74457 158.237 8.80928C158.192 8.89555 158.146 8.9849 158.098 9.07117H157.682C157.636 9.20366 157.591 9.33308 157.542 9.46557C157.327 9.35773 156.927 8.99106 156.57 9.07117C156.524 9.15744 156.479 9.24679 156.43 9.33307C156.164 9.30842 156.199 9.07733 156.154 9.07117H156.014V9.20368H155.322V9.33615H155.598C155.553 9.59805 155.507 9.86305 155.458 10.125H155.182C155.055 10.0726 155.091 9.72441 154.626 9.86306L154.486 10.125H153.794V9.99245C153.593 9.88768 153.56 9.90003 153.238 9.85997V10.2544C153.098 10.2112 152.962 10.1681 152.822 10.1219V10.2544C152.663 10.4054 152.767 10.2544 152.682 10.5163C152.166 10.6549 152.309 10.7874 151.99 11.0431V11.1757H151.574V10.7812H151.298V11.0431H150.605V10.9106H150.466C150.375 11.0863 150.28 11.2619 150.189 11.4375L149.913 11.305V11.4375L149.497 11.6994V11.305H149.357V11.4375L148.941 11.305V11.4375C148.746 11.4283 148.997 11.3266 148.802 11.305L147.969 11.4375V11.8319H147.83V11.6994C147.453 11.5084 147.15 11.8843 146.998 11.9613C146.92 11.5485 146.861 11.4098 146.442 11.305C146.52 11.6255 146.588 11.5947 146.718 11.8319H146.442C146.221 12.0261 145.626 11.9767 145.194 11.9644V11.7025H144.917V11.9644C144.641 11.9213 144.361 11.8782 144.085 11.8319C144.017 11.5207 143.955 11.5207 143.809 11.305C143.997 11.151 143.945 11.4037 144.085 11.1726C143.903 11.0647 143.923 11.0801 143.809 10.9106H144.085C144.114 10.5994 144.144 10.584 144.225 10.3838C143.832 10.2975 143.702 10.1404 143.533 9.85689H143.949C144.04 9.50563 144.134 9.15437 144.225 8.80619C144.043 8.69835 144.062 8.71376 143.949 8.5443C143.653 8.70452 143.646 8.8401 143.256 8.9387V8.67677H143.117V9.07117C142.577 9.11431 142.492 9.28378 142.145 9.46557C142.115 9.15437 142.086 9.13898 142.005 8.9387C141.849 9.04962 141.985 8.92327 141.865 9.07117H141.725L141.865 9.20368L141.725 9.59808C141.137 9.50256 141.059 9.57651 140.337 9.59808L140.477 9.99245H140.337C140.224 10.165 140.24 10.1465 140.061 10.2544V9.72747C139.356 9.76444 139.45 9.96163 138.673 9.98936C138.569 10.4361 138.377 10.5964 137.841 10.6457V10.3838H137.701V10.5163C137.581 10.7658 137.562 10.2544 137.562 10.2544C137.422 10.2112 137.285 10.1681 137.146 10.1219L137.285 10.3838H137.009C136.788 10.5779 136.668 10.8367 136.593 11.1726H136.177V10.9106C135.286 10.9414 135.062 11.3913 134.373 11.5669C134.461 11.2064 134.555 11.2681 134.649 10.9106C133.762 11.0955 133.131 11.6748 132.569 10.7782C133.193 10.4331 132.865 10.2882 132.709 9.72747H132.153C132.036 9.57957 132.169 9.709 132.013 9.595C132.055 9.48099 132.28 9.30534 132.153 9.06809H132.013V8.93562H131.597C131.363 9.2992 131.002 9.20059 130.765 9.46249L130.625 9.85689H130.209V9.98936C130.069 10.0325 129.933 10.0757 129.793 10.1219V9.85997C129.361 9.94933 129.163 10.2544 128.821 10.3868H128.266V10.5194C128.126 10.4762 127.989 10.4331 127.849 10.3868V10.6487L127.017 10.7812V10.9137H126.462C126.416 10.923 126.426 11.0955 126.185 11.0462V10.9137H125.909V10.7812L124.937 10.6487C124.836 10.8336 124.687 11.0462 124.521 11.1757V10.6487H124.381V10.9106C124.242 10.8675 124.105 10.8244 123.965 10.7782C123.9 11.0863 123.734 11.1849 123.689 11.4345H123.829C123.874 11.567 123.92 11.6964 123.968 11.8289C123.179 11.8381 123.097 11.6902 122.581 11.5669C122.376 11.9243 122.155 12.1678 121.609 12.2232V11.9613H121.332V12.4882H121.056V12.6207H120.084V12.7532H119.808V12.8857C119.717 12.8426 119.623 12.7994 119.532 12.7532V12.8857H119.392C119.187 12.7285 119.509 12.7902 119.252 12.6238C119.268 13.0398 119.522 12.8703 119.112 13.0182V12.7563C118.332 12.8457 118.664 13.0829 118.28 13.2832H118.004C117.958 13.4157 117.913 13.5451 117.864 13.6776H117.172V13.5451C117.516 13.3047 117.351 13.4434 117.312 13.0182H117.035V13.4126C115.829 13.4157 115.618 13.6406 114.539 13.6745V13.4126C114.354 13.4989 114.168 13.5882 113.983 13.6745C114.029 13.8501 114.074 14.0257 114.123 14.2014C113.762 14.1798 113.648 14.1736 113.431 14.0689V13.9364L113.015 14.0689C112.992 14.0658 112.966 13.884 112.738 13.9364V14.0689H112.462V14.2014H112.186V14.3339C111.994 14.454 111.942 14.4263 111.63 14.4663V14.0719H111.49V14.2045H110.798C110.704 14.2445 110.791 14.3739 110.382 14.4663C110.336 14.5988 110.291 14.7283 110.242 14.8607H110.382C110.587 15.021 109.878 14.9901 109.826 14.9932V14.8607C109.27 14.7745 108.718 14.6851 108.162 14.5989C108.237 14.2322 108.269 14.5865 108.162 14.2045C108.012 14.2784 107.872 14.5588 107.606 14.4663V14.3339H107.466L107.606 14.0719H107.466C107.307 13.921 107.466 14.0196 107.19 13.9395C107.144 13.807 107.099 13.6776 107.05 13.5451H107.326C107.281 13.4126 107.235 13.2832 107.187 13.1507H107.326V13.2832C107.447 13.5328 107.466 13.0213 107.466 13.0213H107.606V12.8888C107.515 12.8456 107.421 12.8025 107.33 12.7563C107.375 12.6238 107.421 12.4944 107.469 12.3619H107.33V12.2294H107.746V12.0969C107.564 11.9891 107.583 12.0045 107.469 11.835C107.707 11.6871 107.658 11.7518 107.746 11.4406L108.302 11.3081C108.318 11.2989 108.516 10.8213 108.578 10.9137V11.1757H108.994C109.124 10.9384 109.186 10.9692 109.27 10.6487C109.082 10.4947 109.059 10.4084 108.994 10.1219H109.27V9.85997H109.546V9.72747C109.27 9.7706 108.991 9.81376 108.714 9.85997V9.72747C108.532 9.73671 108.367 9.95241 108.022 9.85997V9.72747C107.746 9.68433 107.466 9.64121 107.19 9.595V10.1219H106.914V10.3838C106.774 10.2975 106.637 10.2081 106.498 10.1219V9.85997L106.358 9.99245C106.199 10.1434 106.303 9.99248 106.218 10.2544H105.662V10.5163C105.386 10.4731 105.106 10.43 104.83 10.3838C104.785 10.6025 104.739 10.8213 104.69 11.0401C104.352 11.114 104.385 11.1756 104.135 11.302V11.1695C103.992 11.0555 103.943 10.9415 103.858 10.7751C103.699 10.9261 103.803 10.7751 103.718 11.037C103.442 11.0801 103.163 11.1233 102.886 11.1695V11.4314C102.558 11.4591 102.542 11.4869 102.331 11.5639V11.302H102.47L102.331 10.9076H102.191V11.1695C102.1 11.1263 102.006 11.0832 101.915 11.037C101.755 11.1417 101.859 11.3482 101.498 11.2989C101.453 11.2126 101.407 11.1232 101.359 11.037H101.219V11.2989L100.803 11.4314C100.731 11.4129 100.718 11.0986 100.527 11.1695C100.387 11.3451 100.25 11.5207 100.111 11.6964C99.9707 11.6532 99.8342 11.6101 99.6945 11.5639V11.8258H99.4182V12.0877C99.2622 11.9767 99.3987 12.1031 99.2784 11.9552C99.1289 11.835 99.2524 11.9768 99.1386 11.8227H99.2784V11.6902H98.8624V11.8227H98.7226V11.6902H98.3065C98.261 11.6039 98.2155 11.5146 98.1668 11.4283C98.0758 11.4714 97.9816 11.5146 97.8905 11.5608C97.702 11.6132 97.949 11.7025 97.7507 11.6933V11.5608H97.4745C97.4712 11.9675 97.5135 12.2387 97.6142 12.4821H97.0584V12.744H96.9186V12.3496H96.6424L96.5026 12.744C96.3466 12.633 96.4831 12.7594 96.3628 12.6115H96.2231L96.3628 12.2171C96.223 12.2602 96.0865 12.3033 95.9467 12.3496V12.4821H95.6705C95.625 12.5683 95.5795 12.6577 95.5308 12.744H94.9749V12.8764H94.8351C94.7669 12.8179 94.8742 12.6639 94.6954 12.744L94.5556 13.0059L93.8633 13.1384V12.8764H93.7235L93.5838 13.1384H93.4439L93.3042 12.8764C93.1124 12.7932 92.9142 12.8118 92.7484 12.744C92.7386 13.2524 92.7711 13.2863 92.3323 13.4003V13.1384H92.056V13.4003H91.3637L91.0874 14.0566H90.8112V13.9241C90.7657 13.9179 90.4926 14.0412 90.2553 14.0566C90.3333 13.7361 90.4016 13.7669 90.5316 13.5296H90.2553L90.1155 13.9241L89.1437 13.7916C88.9974 13.8594 89.0429 14.0873 89.1437 14.1859H88.8674C88.7472 14.3215 88.6269 14.3678 88.4514 14.4479V14.0535C87.8306 14.1028 88.0483 14.1367 87.4795 14.0535V14.1859C87.6388 14.3369 87.5347 14.186 87.6193 14.4479H86.9269C86.8911 14.4417 86.8814 14.2784 86.6506 14.3154V14.4479H86.3743C86.3288 14.5804 86.2833 14.7097 86.2346 14.8422C86.0786 14.7313 86.2151 14.8577 86.0948 14.7098C85.9388 14.5988 86.0753 14.7252 85.955 14.5773C86.137 14.4694 86.1176 14.4848 86.2313 14.3154H85.6755C85.552 14.454 85.4317 14.4879 85.2595 14.5773V14.7098L84.8434 14.5773V14.7098C85.0254 14.8176 85.006 14.8022 85.1197 14.9717H84.8434C84.6809 14.793 84.5899 14.7714 84.2876 14.7098V14.9717C84.0276 14.8792 83.7448 14.8422 83.3157 14.8392C83.163 14.5649 83.0914 14.605 83.0394 14.1829H82.7632V13.921C82.6072 14.0319 82.7436 13.9056 82.6233 14.0535H82.4836V14.3154L82.2074 14.4479V14.8422H82.0675C81.9278 14.6666 81.7913 14.491 81.6515 14.3154H81.5117C81.3297 14.0227 81.5865 13.9487 81.2354 13.6591C81.2809 13.4834 81.3265 13.3078 81.3752 13.1322C81.3752 13.1322 81.1964 13.0675 81.2354 12.8703H81.3752V12.214C81.3752 12.214 81.4597 12.214 81.515 11.9521C81.8985 11.8566 81.8238 11.9151 81.9311 11.5577H82.2074V11.6902L82.6233 11.5577V11.2958L83.3157 11.4283C83.4165 11.0647 83.3547 11.1356 83.7318 11.0339V10.507H83.8715L83.7318 10.2451H83.8715C83.9886 10.0972 83.8553 10.2266 84.0113 10.1126V9.98015C84.1445 9.73673 84.1511 10.242 84.1511 10.242L84.5671 10.3745V10.242H84.4273C84.4728 10.1095 84.5183 9.98013 84.5671 9.84764H85.3992V9.98015C85.7242 9.93701 86.046 9.89386 86.3711 9.84764V9.58574H86.9269V9.32385C86.4523 9.31769 85.9681 9.23448 85.6788 9.19134C85.5878 9.32383 85.4935 9.45325 85.4025 9.58574L84.5703 9.71821C84.6483 9.39777 84.7166 9.42859 84.8467 9.19134H84.2909V9.32385H84.4306C84.5899 9.53029 84.0893 9.44708 84.0145 9.45632V9.85072H83.8748V9.98323C83.644 10.0264 83.4133 10.0695 83.1825 10.1157C83.228 9.89694 83.2735 9.67817 83.3222 9.4594C82.9842 9.53335 83.0135 9.59497 82.7664 9.7213V9.85381C82.4901 9.76753 82.2106 9.67819 81.9343 9.59191V9.72438C81.775 9.87536 81.8791 9.72438 81.7946 9.98628C81.567 10.0263 81.1899 10.2605 81.1022 10.2482V10.1157H80.6861C80.4944 10.0787 80.7382 9.94317 80.5464 9.98323L80.4066 10.2451H80.1303L80.2701 9.98323H80.1303C79.971 10.1342 80.1303 10.0356 79.854 10.1157V10.3776C79.6232 10.4207 79.3925 10.4639 79.1617 10.5101C79.1357 10.5039 79.1162 10.3221 78.8854 10.3776V10.5101H78.6092V10.6426C78.4726 10.6148 78.4466 10.2882 78.3328 10.3807C78.1053 10.5594 78.4856 10.6333 77.9168 10.7751V11.1695H77.777V10.9076H77.6373C77.5918 10.9939 77.5462 11.0832 77.4975 11.1695H76.9417C76.7759 10.8829 76.6362 10.735 76.2494 10.6426V10.7751H75.6936L75.5537 11.037L75.1378 10.9045V11.2989H74.8614C74.5201 11.8504 74.5526 11.4529 74.1691 11.6933C74.2146 11.7795 74.2601 11.8689 74.3089 11.9552C74.0326 11.912 73.753 11.8689 73.4768 11.8227C73.4638 11.8258 73.4052 12.0507 73.2004 12.0846V11.9521H72.6446L72.5049 11.8196V11.9521C72.1116 12.1924 72.0986 12.3311 71.3965 12.3465C71.2405 12.1216 71.3088 12.1678 70.9805 12.0846V12.3465H70.7042V12.214C70.5286 12.1616 70.3401 12.5868 70.2881 12.6084C70.0021 12.7285 69.8916 12.4944 69.7323 12.4759V12.6084C69.456 12.6515 69.1765 12.6947 68.9002 12.7409L68.7604 12.3465C68.3769 12.442 68.4516 12.3835 68.3444 12.7409C67.9283 12.784 67.5122 12.8272 67.0962 12.8734L66.9564 13.1353H65.9846V13.2678C65.6238 13.3694 65.3378 13.2801 65.0127 13.4003C64.9347 13.0798 64.8665 13.1106 64.7365 12.8734C64.5805 12.9843 64.7169 12.858 64.5967 13.0059C64.1091 13.3325 64.5642 13.4742 63.9044 13.6622V13.7947H63.212L63.0722 14.0566C62.7634 14.1736 62.6822 13.8932 62.5164 13.9241V14.0566C62.2401 14.1089 62.3409 13.998 62.2401 13.9241H62.1004V14.1859C61.9606 14.1428 61.8241 14.0997 61.6843 14.0535V13.921L61.2682 14.0535V13.921H60.7124L60.5727 13.6591C60.3777 13.6591 60.5076 13.619 60.4329 13.7916C60.2606 13.6406 60.3809 13.7916 60.2931 13.5296H60.8489V13.2678H60.2931C60.1631 13.0305 60.1014 13.0613 60.0169 12.7409H60.2931C60.2119 12.1986 60.1436 12.1123 59.8771 11.5577C59.695 11.6255 59.9161 11.6101 59.7373 11.6902H59.3213V11.8227C59.6008 11.8966 59.4416 11.8073 59.5976 11.9552C59.201 11.9428 59.0027 11.9305 58.7655 11.8227V11.9552C58.9247 12.1061 58.8207 11.9552 58.9052 12.2171C58.2259 12.2171 58.1154 12.3681 57.6571 12.479V12.0846H57.5173V12.2171H57.3775L57.1012 12.0846V12.479H56.6852V12.2171H56.5454V12.479H56.6852V12.8734C56.2237 12.8703 56.0579 12.8056 55.7134 12.7409V13.0028C55.3851 12.9874 55.3623 12.9627 55.1575 12.8703V13.0028C54.9982 13.1538 55.1022 13.0028 55.0177 13.2647C54.2864 13.1876 54.6992 12.9812 54.0459 13.1322V12.8703C53.8248 12.8395 53.8703 13.0952 53.7696 13.1322C53.2495 13.3171 52.8205 13.2061 52.3817 13.1322V13.5266L52.1054 13.3941V13.5266C51.8259 13.7515 52.1184 13.7269 51.9656 13.921H51.8258C51.491 13.4465 50.5289 13.8409 49.8853 13.921V14.3154C49.6253 14.2476 49.128 13.8439 48.9135 13.921V14.0535H48.7737V14.4479C48.3577 14.491 47.9416 14.5341 47.5256 14.5803V14.8422H47.6654C47.6199 14.9747 47.5743 15.1042 47.5256 15.2366C47.1973 15.2212 47.1745 15.1966 46.9697 15.1042V15.2366H46.83V14.8422H46.5537V15.2366H46.4139V15.1042H45.8581V15.2366L45.5818 15.1042V15.2366C45.2763 15.326 45.1236 15.2767 44.8895 15.3692V15.7635C44.1972 15.8621 44.2037 15.8806 43.6413 15.5016L43.5016 15.896H42.9458V16.0285C42.7605 16.0717 42.5753 16.1148 42.39 16.161V15.8991H42.1137C42.0292 16.3613 41.9641 16.503 41.4213 16.5554V16.4229C41.5806 16.2719 41.4766 16.4229 41.5611 16.161C41.3758 16.1179 41.1906 16.0747 41.0053 16.0285V15.896C40.742 15.819 40.8135 15.97 40.729 16.0285L40.3129 15.896V16.0285H40.4527V16.5554H40.1764V16.2935C39.7962 16.503 39.9261 16.617 39.3443 16.6879C39.2436 17.0515 39.3053 16.9806 38.9283 17.0823C38.5545 17.5013 38.1189 17.3996 37.5403 17.3442V17.0823H38.0961C38.0506 16.9498 38.0052 16.8204 37.9564 16.6879C37.7451 16.7649 37.7289 16.7896 37.4006 16.8204C37.3778 16.463 37.3551 16.0285 37.1243 15.8991V15.7666C37.225 15.6279 37.2316 15.8806 37.4006 15.6341H37.1243C36.8772 15.4955 37.4006 15.5016 37.4006 15.5016C37.3226 15.1812 37.2543 15.212 37.1243 14.9747H37.5403C37.6541 15.1473 37.6379 15.1288 37.8167 15.2366C37.4786 14.5465 37.3063 13.9086 38.509 13.921C38.6682 14.0719 38.509 13.9734 38.7853 14.0535C38.8308 13.8347 38.8763 13.6159 38.925 13.3972H38.6488V13.6591H38.3725L38.5122 13.2647H38.3725C38.2684 13.5142 38.47 13.4003 38.2327 13.5266C38.0507 13.3725 38.3984 13.3263 38.0929 13.2647V13.5266L37.8167 13.3941V13.5266H37.9564C37.8654 13.7022 37.7711 13.8778 37.6801 14.0535H37.5403V13.6591H37.4006V13.7916H36.9845C36.8935 13.9241 36.7992 14.0535 36.7082 14.1859H36.432V14.3185H36.0159V14.451H35.7396V14.5834C35.1805 14.7714 34.7613 14.4016 34.4915 14.5834C34.1145 14.8145 34.0527 15.3106 33.9357 15.3722H32.6875C32.5282 15.2213 32.6875 15.3198 32.4112 15.2397V14.9778H32.2715C32.317 15.1535 32.3624 15.3291 32.4112 15.5047H32.2715C32.0082 15.7204 31.5369 15.6434 31.1631 15.7666V15.8991C30.9583 15.9607 30.6203 15.7574 30.6073 15.7666V16.0285H29.9149C29.7751 16.3366 29.6386 16.6417 29.4989 16.9498H29.3591V16.5554H29.0828C29.0535 16.8666 29.0243 16.882 28.9431 17.0823C28.787 16.9714 28.9236 17.0977 28.8033 16.9498C28.644 16.7988 28.748 16.9498 28.6635 16.6879C28.9008 16.54 28.852 16.6047 28.9398 16.2935H28.5237V17.0823C28.293 17.0391 28.0622 16.996 27.8314 16.9498V16.8173C27.9907 16.6663 27.8867 16.8173 27.9712 16.5554H27.6949L27.8347 16.2935H27.6949C27.5356 16.4445 27.6949 16.3459 27.4186 16.426C27.3829 16.6817 27.2821 16.6817 27.2788 16.6879C27.0578 17.3349 27.4024 17.5291 26.5865 17.6092V17.3473C26.3947 17.412 26.281 17.3996 26.0307 17.4798V17.6122C25.8909 17.5691 25.7544 17.526 25.6146 17.4798V17.6122H25.3383L25.4782 17.8742H24.646V18.0066C24.8053 18.1576 24.7013 18.0066 24.7858 18.2685C24.5615 18.2593 23.8139 18.1361 23.8139 18.1361C23.7684 18.2223 23.7229 18.3117 23.6742 18.398C23.2971 18.5921 23.2321 18.4318 22.9818 18.398V18.5305H22.7056L22.5657 18.7924C22.335 18.8355 22.1042 18.8786 21.8734 18.9248V19.0573C21.6882 19.0142 21.5029 18.971 21.3176 18.9248C21.0868 18.968 20.856 19.0111 20.6253 19.0573V19.1898C20.2124 19.3008 20.063 18.9803 19.7932 18.9279V19.0604C19.6339 19.2114 19.7379 19.0604 19.6534 19.3223H19.0976L18.9578 19.1898C18.8863 19.2207 18.9188 19.424 18.6815 19.4517V19.3192L18.2655 19.1868V19.3192C18.1257 19.3624 17.9892 19.4055 17.8495 19.4517V19.1898C17.5992 19.3131 17.6316 19.3716 17.2936 19.4517V19.7136H17.1538V19.3192C16.3738 19.31 15.779 19.005 15.4897 18.5305L15.7659 18.398C15.7757 18.2131 15.6294 18.4534 15.6262 18.2655C15.6717 18.0467 15.7172 17.8279 15.7659 17.6092H16.0422C15.7367 16.7896 16.3835 16.3335 16.4583 15.5047C16.8873 15.4308 17.3846 15.3722 17.9827 15.3722V14.9778H18.3988C18.493 14.5927 18.5515 14.5465 18.9546 14.451V14.189C19.7639 14.0134 19.0326 13.8563 19.7867 14.189V13.9271C20.0955 13.8717 20.2612 13.8008 20.479 13.6652V13.5327C20.7553 13.5081 20.5765 13.733 20.7553 13.5327C20.9146 13.3818 20.8105 13.5327 20.8951 13.2708H21.1714C21.3306 12.7378 21.4541 13.0089 21.7272 12.6145C22.0035 12.7008 22.283 12.7902 22.5593 12.8764V12.744H22.699V12.2171C21.9027 12.2325 21.6816 12.3249 21.0348 12.2171C20.9568 12.63 20.8983 12.7686 20.479 12.8734V12.6115H20.2028V13.0059C19.92 13.1476 19.6567 13.3941 19.2309 13.4003L19.0911 13.2678C18.5905 13.6252 19.1366 13.8809 18.1192 13.9241L18.259 13.3972H17.9827V13.5296H18.1225C18.1322 13.5759 17.8852 14.0042 17.8462 14.1859H17.5699V13.9241H17.2936V14.1859L17.1538 14.0535C16.8776 14.1397 16.598 14.2291 16.3217 14.3154C16.2762 14.4016 16.2307 14.491 16.182 14.5773C16 14.6512 16.2113 14.4787 16.0422 14.4448C15.9025 14.4879 15.7659 14.531 15.6262 14.5773V14.4448H15.2101V14.3123H15.0704V14.4448C15.0704 14.4448 14.6868 14.3246 14.5146 14.3123C14.4236 14.531 14.3293 14.7498 14.2382 14.9686C14.118 14.9285 13.9327 14.7159 13.6824 14.8361V14.9686H13.5427V15.363H13.4029V14.9686H13.2631V15.4955C13.2859 15.6803 13.4094 15.44 13.4029 15.628L13.2631 15.7605C13.0226 15.6465 13.2144 15.745 13.1234 15.4985H12.9836V15.7605L12.2913 15.8929L12.431 15.631H12.2913C12.0767 15.8591 12.041 15.7604 11.7355 15.8929V16.0254C11.5307 16.0994 11.2057 16.0593 11.1797 15.8929H11.0398V16.2873H10.9001V16.1548H10.7603V16.4168H10.484V16.6787C10.133 16.5739 9.62594 16.6694 8.9596 16.6787C8.9141 16.9868 8.86862 17.2918 8.81986 17.5999H8.54354V17.338C8.33227 17.4151 8.31603 17.4397 7.98774 17.4705V17.8649C7.71145 17.9512 7.4319 18.0405 7.15562 18.1268V18.2593H6.87938V18.3918C6.20005 18.6352 6.04075 18.1884 5.6312 18.7862H5.49145L5.6312 18.9187C5.58569 19.0512 5.54021 19.1806 5.49145 19.3131C5.30618 19.2699 5.12084 19.2268 4.93557 19.1806V19.575C4.44476 19.6243 4.51308 19.7383 4.10353 19.8369V19.575H3.9637V19.9694C3.68742 20.0125 3.40795 20.0556 3.13166 20.1019L2.99184 20.4963H2.7156C2.6701 20.6288 2.62453 20.7581 2.57578 20.8906H2.43603V20.4963H2.29629L2.15654 20.7582L1.74048 20.6256V20.4932C1.4707 20.4285 1.55518 20.5671 1.46417 20.6256L0.908361 20.4932L1.04811 20.3607V20.2282H0.908361V19.8338H1.04811V19.7013H0.771869C0.768619 19.2638 0.700304 19.1066 0.632045 18.78H0.355809C0.108779 18.6414 0.632045 18.6475 0.632045 18.6475C0.677551 18.5151 0.723113 18.3856 0.771869 18.2531C1.48696 18.284 1.45767 18.5027 1.46417 17.7263C1.69494 17.6831 1.92576 17.64 2.15654 17.5938V17.0669L2.5726 16.9344C2.73187 16.7834 2.57256 16.882 2.84884 16.8019V17.0638H3.12515V16.8019C3.26492 16.845 3.40145 16.8882 3.54122 16.9344V16.6725H3.40139L3.54122 16.2781H3.68096V16.1456H4.09702C4.09377 15.9607 4.12622 16.1086 3.9572 16.0131V15.8806H4.37326V15.7481H4.51308L4.65283 16.01C5.11438 16.0963 5.57595 16.1856 6.04075 16.2719C6.05375 15.7789 6.16747 15.668 6.31699 15.3506C6.45676 15.3938 6.59328 15.4369 6.73305 15.4832V15.2213H7.14911L7.00937 15.4832H7.14911V15.3506H7.42543C7.57819 15.2366 7.48714 15.0333 7.70166 14.9562C7.82518 15.0733 7.7537 15.1781 7.97798 15.2182C8.06899 15.0857 8.16328 14.9563 8.25429 14.8238H8.67027V14.6913H8.8101V14.1644H9.08634V14.4263C9.67791 14.3739 9.71371 14.1551 10.1948 14.0319C10.3053 13.6067 10.4515 13.579 10.471 12.9812H11.7192V13.1137L12.1353 12.9812V12.8487C12.3433 12.7963 12.3237 13.0829 12.4115 13.1106L12.8275 12.9781V13.24H12.9674V12.9781C13.1234 12.8672 12.9869 12.9935 13.1071 12.8456L12.8308 12.9781V12.4512H12.9706V11.9244H13.6629L13.5232 12.3188H13.9392C14.1603 12.063 14.443 11.9675 14.6315 11.6625C14.7746 11.7765 14.8233 11.8905 14.9078 12.0569C15.0476 11.9706 15.1841 11.8812 15.3239 11.795V11.6625H15.6001L15.7399 11.4006C15.8309 11.4437 15.9252 11.4868 16.0162 11.533C16.2015 11.4006 15.8472 11.3112 16.156 11.2711V11.4037C16.2957 11.4468 16.4322 11.4899 16.572 11.5361V11.2742C16.4127 11.1233 16.5168 11.2742 16.4323 11.0123C16.7898 11.074 17.0466 11.1386 17.5406 11.1448C17.7389 10.8644 17.9047 10.8799 18.233 10.7504L18.0933 10.356H18.6491V10.2235H18.7888V10.356H19.0651V10.0941C19.8517 10.0726 19.5819 9.89078 20.037 9.69975H20.5928V9.56724C20.7521 9.41626 20.648 9.56725 20.7325 9.30535H21.1486V9.56724H21.4249C21.5387 9.14512 21.5874 9.1852 22.1172 9.17287V9.43477C22.4423 9.29303 22.569 9.1328 22.9493 9.04037V8.64597H23.2256V8.38407C23.9569 8.38715 24.321 8.23002 24.8898 8.12218C24.9906 8.48576 24.9288 8.4149 25.3059 8.51658C25.2604 8.38409 25.2148 8.25467 25.166 8.12218H25.3059C25.4586 7.93731 25.7901 7.73704 25.9982 7.59531V7.4628H26.4142V7.59531H26.554V7.98967H26.6938C26.7393 7.46587 26.8368 7.38267 27.3861 7.33337V7.46588C27.5714 7.52751 27.3341 7.38267 27.5258 7.33337C28.0817 7.2471 28.6343 7.15775 29.1901 7.07148C29.0503 6.66168 29.1121 6.8712 29.1901 6.41518C29.5281 6.34124 29.4956 6.27962 29.7459 6.15329V6.2858H29.8856C29.9961 6.47991 29.7459 6.54769 29.7459 6.54769L29.8856 6.80959C30.2042 6.55693 30.0612 6.41521 30.578 6.28271C30.6235 6.15022 30.669 6.0208 30.7178 5.88831C31.1143 6.04237 31.3711 6.13788 31.9659 6.15021C32.1057 5.8883 32.2422 5.62334 32.382 5.36144H32.6582L32.7981 5.62333L33.7699 5.36144V5.22893H34.7418L34.8815 4.96704H35.1579C35.2456 4.60654 35.3398 4.66816 35.4341 4.31074C35.6194 4.35388 35.8046 4.39699 35.9899 4.44321V4.31074C36.1427 4.19366 36.0192 4.33229 36.1297 4.17823H35.9899C35.8534 3.95947 36.1882 4.06733 36.2662 4.04576V3.91326C36.406 3.95639 36.5425 3.99955 36.6823 4.04576C36.6368 4.13204 36.5912 4.22138 36.5424 4.30766H36.6823C37.1178 3.83315 37.4981 4.30764 38.0702 4.44013C38.1645 4.26758 38.2424 4.2984 38.3464 4.17823L38.2067 3.91634H38.483V3.78387L38.7592 3.65136C38.7787 3.46649 38.73 3.67291 38.6195 3.51885L38.7592 3.25696C39.2273 3.3494 39.2923 3.54352 39.7311 3.65136V3.25696C40.1114 3.34015 40.0464 3.4295 40.4235 3.51885V3.12449C40.5762 3.16763 40.6965 3.35864 40.9793 3.25696V3.12449H41.3953V2.99198C41.6716 2.77322 41.9512 2.55445 42.2275 2.33569V2.07379H42.5037V2.20626C42.6955 2.24324 42.4777 2.17855 42.6434 2.07379L42.9198 2.20626L42.78 2.60066C43.5536 2.65613 43.9469 2.83484 44.4442 2.33877C44.1711 2.19087 44.1191 2.15391 44.0281 1.8119L44.4442 1.67939C44.4897 1.76566 44.5352 1.85501 44.584 1.94128H44.8602V1.41441C45.1625 1.46987 45.2568 1.50068 45.416 1.67631L46.2482 1.41441L46.1084 1.15252H46.8007V0.890625L46.869 0.921429ZM45.4843 2.8934V3.15529H45.6241V2.8934H45.4843ZM169.048 3.15529V3.41719H169.188V3.15529H169.048ZM45.9004 3.5497V3.81159H46.0402V3.5497H45.9004ZM43.9599 3.81159V4.07348H44.0996V3.81159H43.9599ZM165.58 4.20599C165.739 4.35697 165.58 4.25835 165.856 4.33846C165.697 4.18748 165.856 4.2861 165.58 4.20599ZM154.626 4.33846C154.785 4.48944 154.626 4.39086 154.903 4.47097C154.743 4.31999 154.902 4.41857 154.626 4.33846ZM37.7191 4.73286C37.7321 5.17964 37.7192 5.21045 37.9954 5.38916V5.25665H37.8556V4.72978H37.7159L37.7191 4.73286ZM152.546 4.86533C152.705 5.01631 152.546 4.91773 152.822 4.99784C152.663 4.84686 152.822 4.94545 152.546 4.86533ZM137.428 4.99476V5.25665H137.568V4.99476H137.428ZM147.137 5.12727L146.998 5.38916C146.998 5.38916 147.401 5.17965 147.274 5.12727H147.134H147.137ZM161.42 5.12727H161.696C161.579 5.27516 161.712 5.14573 161.556 5.25974V5.39224C161.397 5.24127 161.501 5.39225 161.416 5.13035L161.42 5.12727ZM38.6877 5.25974C38.847 5.41071 38.6878 5.31213 38.9641 5.39224C38.8048 5.24127 38.964 5.33985 38.6877 5.25974ZM116.489 5.38916V5.65105H116.629V5.38916H116.489ZM40.2154 5.91603V6.04854H40.0757C39.8124 6.16254 40.352 6.18101 40.352 6.18101C40.469 6.03311 40.3357 6.16254 40.4917 6.04854C40.3325 5.89756 40.4917 5.99614 40.2154 5.91603ZM146.721 5.91603V6.04854H146.581C146.318 6.16254 146.858 6.18101 146.858 6.18101C146.975 6.03311 146.841 6.16254 146.998 6.04854C146.838 5.89756 146.998 5.99614 146.721 5.91603ZM182.222 5.91603V6.04854H182.082C181.819 6.16254 182.359 6.18101 182.359 6.18101C182.476 6.03311 182.342 6.16254 182.498 6.04854C182.339 5.89756 182.498 5.99614 182.222 5.91603ZM89.3062 6.04854V6.31043H89.4459V6.04854H89.3062ZM55.0535 6.17793V6.43986H55.1933V6.17793H55.0535ZM90.5544 6.17793V6.43986H90.6941V6.17793H90.5544ZM116.21 6.17793C116.444 6.4614 116.486 6.43986 116.486 6.43986C116.587 6.31353 116.246 6.20874 116.21 6.17793ZM151.714 6.17793C151.948 6.4614 151.99 6.43986 151.99 6.43986C152.091 6.31353 151.75 6.20874 151.714 6.17793ZM161.559 6.17793V6.43986H161.699V6.17793H161.559ZM187.215 6.17793C187.449 6.4614 187.491 6.43986 187.491 6.43986C187.592 6.31353 187.25 6.20874 187.215 6.17793ZM34.9433 6.4429H34.667V6.57541H34.8068V6.70792H34.9465V6.44599L34.9433 6.4429ZM36.7473 7.23171H37.0236C36.9781 7.05608 36.9325 6.88046 36.8838 6.70484H36.744V7.23171H36.7473ZM143.253 7.23171H143.529L143.39 6.70484H143.25V7.23171H143.253ZM178.754 7.23171H179.03L178.89 6.70484H178.751V7.23171H178.754ZM35.2228 6.96673V7.4936H35.3626V6.96673H35.2228ZM70.7237 6.96673V7.4936H70.8634V6.96673H70.7237ZM141.729 6.96673V7.4936H141.868V6.96673H141.729ZM162.252 7.23171V7.62611H162.391C162.531 7.38886 162.697 7.23477 162.947 7.0992V6.96673H162.671C162.515 7.19166 162.583 7.14543 162.255 7.22862L162.252 7.23171ZM177.229 6.96673V7.4936H177.369V6.96673H177.229ZM97.767 7.0992V7.36113H97.9067V7.0992H97.767ZM133.268 7.36113H133.544V7.22862C133.388 7.1177 133.525 7.24405 133.404 7.09615H133.265V7.35805L133.268 7.36113ZM55.7458 7.23171V7.62611H55.8856V7.23171H55.7458ZM91.2467 7.23171V7.62611H91.3865V7.23171H91.2467ZM151.99 7.7555C152.091 8.11908 152.029 8.04822 152.406 8.1499C152.494 7.7894 152.588 7.85102 152.682 7.4936H152.543C152.367 7.74318 152.403 7.71236 151.987 7.7555H151.99ZM153.238 7.4936V7.7555C153.602 7.74625 153.71 7.70314 153.931 7.62303V7.49052H153.238V7.4936ZM80.0165 7.62611V8.02051H80.1563V7.888C80.3124 7.77708 80.1758 7.90339 80.2961 7.7555L80.0198 7.62303L80.0165 7.62611ZM115.517 7.62611V8.02051H115.657V7.888C115.813 7.77708 115.677 7.90339 115.797 7.7555L115.521 7.62303L115.517 7.62611ZM151.018 7.62611V8.02051H151.158V7.888C151.314 7.77708 151.178 7.90339 151.298 7.7555L151.022 7.62303L151.018 7.62611ZM186.522 7.62611V8.02051H186.662V7.888C186.818 7.77708 186.682 7.90339 186.802 7.7555L186.526 7.62303L186.522 7.62611ZM97.6272 7.7555V8.01743H97.767V7.7555H97.6272ZM161.975 7.7555C162.209 8.03897 162.252 8.01743 162.252 8.01743C162.352 7.8911 162.011 7.78631 161.975 7.7555ZM88.6139 8.02051V8.41488H88.3376V8.67677L88.6139 8.5443L88.7536 8.1499C88.9097 8.03897 88.7731 8.16532 88.8934 8.01743H88.6171L88.6139 8.02051ZM94.4386 8.02051V8.28241H94.5783V8.02051H94.4386ZM129.939 8.02051V8.28241H130.079V8.02051H129.939ZM151.714 8.28241H151.298V8.5443H151.574C151.704 8.30705 151.766 8.33787 151.85 8.01743H151.711V8.27932L151.714 8.28241ZM165.44 8.02051V8.28241H165.58V8.02051H165.44ZM77.1042 8.5443V8.28241C76.9482 8.39333 77.0847 8.26698 76.9644 8.41488H76.8247C76.984 8.56585 76.8246 8.46727 77.1009 8.54738L77.1042 8.5443ZM112.189 8.28241V8.67677H112.329C112.488 8.52579 112.329 8.62441 112.605 8.5443V8.28241H112.189ZM131.88 8.5443V8.28241H131.464V8.41488H131.604C131.763 8.56585 131.604 8.46727 131.88 8.54738V8.5443ZM148.106 8.5443V8.28241C147.95 8.39333 148.086 8.26698 147.966 8.41488H147.826C147.986 8.56585 147.826 8.46727 148.103 8.54738L148.106 8.5443ZM159.063 8.28241V8.5443C159.219 8.43338 159.083 8.55969 159.203 8.41179H159.343C159.183 8.26081 159.343 8.35943 159.066 8.27932L159.063 8.28241ZM178.754 8.41488V8.67677H178.894V8.41488H178.754ZM86.9497 8.9387H87.226C87.109 8.7908 87.2422 8.9202 87.0861 8.80619V8.5443H86.9464V8.9387H86.9497ZM47.8408 8.67677V8.9387H47.9807V8.67677H47.8408ZM83.345 8.67677V9.07117H83.4848V8.67677H83.345ZM154.347 8.67677V8.9387H154.486V8.67677H154.347ZM181.39 8.67677C181.549 8.82775 181.445 8.6768 181.53 8.9387H181.39V8.67677ZM189.851 8.67677V8.9387H189.991V8.67677H189.851ZM28.4262 8.80928V9.07117H28.566V8.80928H28.4262ZM63.9271 8.80928V9.07117H64.0669V8.80928H63.9271ZM134.932 8.80928V9.07117H135.072V8.80928H134.932ZM170.433 8.80928V9.07117H170.573V8.80928H170.433ZM72.5277 8.9387C72.5407 8.96643 72.7259 9.41626 72.8039 9.33307V9.2006H72.9437C72.8235 9.06502 72.7032 9.01881 72.5277 8.9387ZM108.305 9.59808H108.581V9.33615H108.305L108.445 9.07426C108.305 9.03112 108.168 8.988 108.029 8.94179V9.07426C108.217 9.22832 108.24 9.31458 108.305 9.60113V9.59808ZM71.6956 9.07117L71.8353 9.46557H71.975C71.8905 9.15129 71.9296 9.22215 71.6988 9.07117H71.6956ZM107.196 9.07117C107.242 9.20366 107.287 9.33308 107.336 9.46557H107.476C107.391 9.15129 107.43 9.22215 107.2 9.07117H107.196ZM109.833 9.07117H109.556C109.673 9.21907 109.54 9.08968 109.696 9.20368V9.33615H109.836V9.07426L109.833 9.07117ZM164.611 9.59808H164.888V9.33615H165.027C164.982 9.24988 164.936 9.16053 164.888 9.07426C164.732 9.18518 164.868 9.05887 164.748 9.20676H164.608V9.60113L164.611 9.59808ZM48.8127 9.20368C48.972 9.35466 48.8127 9.25604 49.089 9.33615C48.9297 9.18517 49.089 9.28379 48.8127 9.20368ZM72.3878 9.20368V9.59808H72.5277V9.20368H72.3878ZM107.889 9.20368V9.59808H108.029V9.20368H107.889ZM110.525 9.20368H110.248C110.366 9.35158 110.232 9.22215 110.388 9.33615V9.46866H110.528V9.20676L110.525 9.20368ZM126.611 9.20368V9.59808H126.751V9.20368H126.611ZM162.115 9.20368V9.59808H162.255V9.20368H162.115ZM21.7694 9.33307V9.595H21.9092V9.33307H21.7694ZM28.2865 9.33307V9.595H28.4262V9.33307H28.2865ZM63.7906 9.33307V9.595H63.9303V9.33307H63.7906ZM73.0802 9.59808V9.33615C72.9242 9.44707 73.0607 9.32076 72.9405 9.46866H72.8007C72.9599 9.61964 72.8007 9.52102 73.077 9.60113L73.0802 9.59808ZM99.2914 9.33307V9.595H99.4312V9.33307H99.2914ZM109.969 9.33307V10.1219H110.109V9.33307H109.969ZM127.719 9.33307V9.595H127.859V9.33307H127.719ZM128.275 9.33307V9.595H128.415V9.33307H128.275ZM134.792 9.33307V9.595H134.932V9.33307H134.792ZM163.224 9.33307V9.595H163.363V9.33307H163.224ZM163.779 9.33307V9.595H163.919V9.33307H163.779ZM170.296 9.33307V9.595H170.436V9.33307H170.296ZM24.8216 9.46557C24.9808 9.61655 24.8215 9.51797 25.0978 9.59808C24.9385 9.4471 25.0979 9.54568 24.8216 9.46557ZM60.3224 9.46557C60.4817 9.61655 60.3224 9.51797 60.5986 9.59808C60.4394 9.4471 60.5987 9.54568 60.3224 9.46557ZM166.828 9.46557C166.987 9.61655 166.828 9.51797 167.105 9.59808C166.945 9.4471 167.104 9.54568 166.828 9.46557ZM70.1679 9.72747L70.3076 10.1219H70.4474C70.3629 9.80759 70.4019 9.87845 70.1711 9.72747H70.1679ZM105.672 9.72747C105.717 9.85996 105.763 9.98938 105.812 10.1219H105.951C105.867 9.80759 105.906 9.87845 105.675 9.72747H105.672ZM114.685 9.85997V10.1219H114.825V9.85997H114.685ZM27.0383 10.5163C26.9375 10.1527 26.9993 10.2235 26.6223 10.1219C26.6678 10.2975 26.7133 10.4731 26.762 10.6487H27.1781V10.7812C27.3731 10.8059 27.1261 10.6888 27.3179 10.6487H27.8737V10.1219C27.7176 10.0109 27.8542 10.1373 27.7339 9.98936H27.4576V10.1219H27.5974C27.6429 10.3591 27.2528 10.467 27.0415 10.5163H27.0383ZM45.0683 9.99245L44.9285 10.2544C44.9285 10.2544 45.3316 10.0448 45.2048 9.99245H45.0651H45.0683ZM151.574 9.99245L151.434 10.2544C151.434 10.2544 151.837 10.0448 151.711 9.99245H151.571H151.574ZM21.3533 10.6487H21.6297V10.5163C21.4736 10.4053 21.6102 10.5317 21.4899 10.3838H21.3501V10.6457L21.3533 10.6487ZM26.2062 10.3868V10.6487C26.3623 10.5378 26.2257 10.6642 26.346 10.5163H26.4857C26.3265 10.3653 26.4858 10.4639 26.2095 10.3838L26.2062 10.3868ZM56.8543 10.6487H57.1305V10.5163C56.9745 10.4053 57.111 10.5317 56.9908 10.3838H56.851V10.6457L56.8543 10.6487ZM61.7103 10.3868V10.6487C61.8664 10.5378 61.7298 10.6642 61.8501 10.5163H61.9898C61.8306 10.3653 61.9899 10.4639 61.7136 10.3838L61.7103 10.3868ZM97.2112 10.3868V10.6487C97.3672 10.5378 97.2307 10.6642 97.3509 10.5163H97.4907C97.3314 10.3653 97.4907 10.4639 97.2144 10.3838L97.2112 10.3868ZM163.363 10.6487H163.64V10.5163C163.484 10.4053 163.62 10.5317 163.5 10.3838H163.36V10.6457L163.363 10.6487ZM168.216 10.3868V10.6487C168.372 10.5378 168.236 10.6642 168.356 10.5163H168.496C168.336 10.3653 168.496 10.4639 168.219 10.3838L168.216 10.3868ZM23.9894 11.1757V10.9137L23.5734 11.0462L23.7131 11.5731H23.5734V11.7056C23.2483 11.7487 22.9266 11.7919 22.6015 11.8381V12.1C22.7835 12.1247 23.4629 12.2602 23.5734 12.2325L23.7131 11.9706L24.1292 12.1031C24.1747 11.8843 24.2203 11.6656 24.269 11.4468H24.4088C24.568 11.2958 24.4087 11.3944 24.685 11.3143V11.5762H25.3774V11.3143H25.6536C25.5626 11.0524 25.4684 10.7874 25.3774 10.5255H25.2376L25.0978 10.9199C24.8995 11.0524 24.2982 11.1571 23.9894 11.1818V11.1757ZM39.6596 10.5163V10.9106H39.7993V10.5163H39.6596ZM21.0771 10.7812V11.0431H21.2168V10.7812H21.0771ZM42.7118 10.7812V11.0431H42.8515V10.7812H42.7118ZM56.5779 10.7812V11.0431H56.7177V10.7812H56.5779ZM92.0788 10.7812V11.0431H92.2185V10.7812H92.0788ZM133.268 10.7812C133.427 10.9322 133.268 10.8336 133.544 10.9137C133.385 10.7627 133.544 10.8614 133.268 10.7812ZM149.218 10.7812V11.0431H149.357V10.7812H149.218ZM163.084 10.7812V11.0431H163.224V10.7812H163.084ZM37.0236 10.9106C37.1828 11.0616 37.0788 10.9107 37.1633 11.1726H37.0236V10.9106ZM72.3878 11.0431C72.5439 11.2681 72.4756 11.2218 72.8039 11.305C72.6836 11.1695 72.5634 11.1233 72.3878 11.0431ZM88.1978 11.305H88.4741V11.1726C88.3181 11.0616 88.4546 11.188 88.3343 11.0401H88.1946V11.302L88.1978 11.305ZM36.7473 11.1757H37.0236V11.3081C36.744 11.2342 36.9033 11.3235 36.7473 11.1757ZM75.44 11.1757C75.5993 11.3266 75.4953 11.1756 75.5798 11.4375H75.44V11.1757ZM112.745 11.6994H112.469V11.1726H112.329V11.305C112.17 11.456 112.274 11.305 112.189 11.5669C112.329 11.6532 112.465 11.7426 112.605 11.8289C112.722 11.9768 112.589 11.8473 112.745 11.9613V11.6994ZM74.1918 11.305V11.5669H74.3316V11.305H74.1918ZM28.7025 11.57V11.8319H28.8423V11.57H28.7025ZM64.2066 11.57V11.8319H64.3464V11.57H64.2066ZM94.8546 11.6994C95.0139 11.8504 94.8546 11.7518 95.1309 11.8319C94.9716 11.681 95.1309 11.7795 94.8546 11.6994ZM45.6209 12.0938V11.8319C45.4648 11.9429 45.6013 11.8165 45.481 11.9644H45.3413C45.5006 12.1154 45.3413 12.0168 45.6176 12.0969L45.6209 12.0938ZM116.626 12.0938V11.8319C116.47 11.9429 116.606 11.8165 116.486 11.9644H116.346C116.506 12.1154 116.346 12.0168 116.623 12.0969L116.626 12.0938ZM33.2791 12.3588V12.6207H33.4189V12.3588H33.2791ZM36.0549 12.3588V12.6207H36.1947V12.3588H36.0549ZM25.6536 12.4882V12.7501H25.7934V12.4882H25.6536ZM36.7473 12.7532C36.7408 13.2863 36.6823 13.3201 37.0236 13.542V13.4095C36.7895 13.126 37.1308 12.7748 37.2998 12.4882H37.1601C37.004 12.7132 37.0723 12.6669 36.744 12.7501L36.7473 12.7532ZM39.2435 12.4882C39.4028 12.6392 39.2436 12.5406 39.5199 12.6207C39.3606 12.4697 39.5198 12.5684 39.2435 12.4882ZM46.453 12.4882C46.4075 12.6207 46.3619 12.7501 46.3132 12.8826H46.453V12.7501C46.5115 12.6731 46.6805 12.7317 46.5927 12.4882H46.453ZM61.1545 12.4882V12.7501H61.2943V12.4882H61.1545ZM107.752 12.7532C107.746 13.2863 107.687 13.3201 108.029 13.542V13.4095C107.794 13.126 108.136 12.7748 108.305 12.4882H108.165C108.009 12.7132 108.077 12.6669 107.749 12.7501L107.752 12.7532ZM110.248 12.4882C110.408 12.6392 110.249 12.5406 110.525 12.6207C110.366 12.4697 110.525 12.5684 110.248 12.4882ZM48.2569 12.6207V12.8826H48.3967V12.6207H48.2569ZM63.7906 12.8826H64.0669V12.7501C63.9109 12.6392 64.0473 12.7655 63.9271 12.6176H63.7873V12.8795L63.7906 12.8826ZM83.761 12.6207V12.8826H83.9008V12.6207H83.761ZM96.1028 12.6207C96.2621 12.7717 96.1581 12.6207 96.2426 12.8826H96.1028V12.6207ZM65.5913 12.7532C65.5458 12.8395 65.5003 12.9288 65.4515 13.0151L65.7278 13.1476C65.8285 12.9904 65.4352 13.0336 65.7278 12.7532H65.588H65.5913ZM48.5332 12.8826L48.3935 13.277H48.5332V13.0151H48.673V12.8826H48.5332ZM84.0373 12.8826L83.8976 13.1445C83.8976 13.1445 84.3006 12.935 84.1738 12.8826H84.0341H84.0373ZM11.2284 13.4095H11.5047V13.277C11.3487 13.1661 11.4851 13.2924 11.3649 13.1445H11.2251V13.4064L11.2284 13.4095ZM89.3062 13.4095H89.03C89.147 13.5574 89.0137 13.428 89.1697 13.542V13.6745H89.3094V13.4126L89.3062 13.4095ZM15.9447 13.6714V13.9333H16.0845V13.6714H15.9447ZM35.9151 13.6714V14.1983H36.0549V14.0658H36.1947C36.1492 13.9795 36.1036 13.8902 36.0549 13.8039H36.1947C36.0354 13.6529 36.1947 13.7515 35.9184 13.6714H35.9151ZM86.9497 13.6714V13.9333H87.0894V13.6714H86.9497ZM107.889 13.6714C107.729 13.8224 107.889 13.7238 107.612 13.8039V13.9364H107.889C107.934 13.8501 107.98 13.7608 108.029 13.6745H107.889V13.6714ZM43.2643 14.0658L43.1245 14.3277C43.1245 14.3277 43.5276 14.1182 43.4008 14.0658H43.2611H43.2643ZM37.9954 14.3308V14.5927H38.1352V14.3308H37.9954ZM41.0475 14.3308V14.5927H41.1873V14.3308H41.0475ZM34.5272 14.5927H34.8035C34.6898 14.7652 34.706 14.7467 34.5272 14.8546V14.9871H34.3875L34.5272 14.5927ZM39.3834 14.5927L39.2435 14.8546C39.2435 14.8546 39.6466 14.6451 39.5199 14.5927H39.3801H39.3834ZM28.7025 15.1196V15.3814H28.8423V15.1196H28.7025ZM18.0249 15.7759V16.0377H18.1648V15.7759H18.0249ZM21.0771 15.9084V16.3027H21.6329V16.5647H22.049C22.1627 16.3921 22.1464 16.4106 22.3252 16.3027V15.9084C21.7466 16.0039 21.7434 15.9423 21.0771 15.9084ZM9.8437 16.1703C10.003 16.3212 9.84374 16.2226 10.12 16.3027C9.96075 16.1517 10.12 16.2504 9.8437 16.1703ZM38.5512 16.3027V16.5647H38.691V16.3027H38.5512ZM4.15551 18.4041C4.11 18.5366 4.06452 18.666 4.01576 18.7985H4.15551V18.5366H4.29525V18.4041H4.15551ZM22.0457 18.5366V18.7985H22.1855V18.5366H22.0457Z" fill="#FDE6AD"/>
</svg>
