<svg width="213" height="227" fill="none" xmlns="http://www.w3.org/2000/svg"><path d="M36.408 122.903c.81-1.549 6.346-6.842 6.346-7.621 0-.779.051-3.724.608-4.706.981-1.72 1.983.567 2.793.202.81-.374 2.146-1.963 3.067-2.307.92-.344 1.063.901 1.518 1.64.466.738 1.73-.749 2.156.091.294.576-.273 2.014.648 2.398.91.385 1.002.709.567 1.63-.436.921-1.002 1.234-.83 2.084.172.851-.061 1.002-.689 1.498-.627.496-2.753.82-4.544 1.235-1.792.415-1.73 6.062-6.356 9.584-2.814 2.135-6.954-2.52-5.284-5.718v-.01ZM9.465 215.758c.304-.587.446-1.143.274-1.832-.405-1.538-1.61-3.916-1.073-7.175.536-3.259.415-2.793 1.012-5.688.587-2.904.294-4.574-.638-7.185-.93-2.611-1.052-5.263-.03-8.168 1.022-2.904 2.692-3.491 5.9-4.179 3.21-.689 3.553 2.307 4.576 6.001.708 2.348 1.265 4.423.283 7.165-.982 2.743-1.316 5.799-1.255 7.378.101 2.47-1.053 7.287-1.61 8.694-.596 1.518-1.467 4.382-.262 5.89.222.283.425.465.607.607-2.52 1.468-5.678.658-7.784-1.488v-.02Zm12.925-29.319c.304-3.38 7.794-1.478 9.748 4.787.961 3.066 1.578 6.426 2.004 8.005.667 2.48.03 6.943-.061 10.07-.05 1.7-.132 5.263 1.376 6.305.01 0 .02.01.04.02-2.196 1.387-4.412 2.065-7.003 1.134 0-.395-.071-.779-.273-1.164-.75-1.417-2.46-3.35-2.703-6.902-.253-3.553-.253-3.016-.364-6.214-.112-3.198-.608-5.516-2.105-7.813-1.498-2.287-.962-4.868-.658-8.248v.02Z" fill="#FFDBB0"/><path d="M33.524 214.078c-1.195-.06-3.462.173-4.434.749-1.224.739-1.922.901-1.74 2.682.212 2.075-.911 3.785.08 5.354.618.972 2.764.962 5.061.911 2.298-.051 6.296-.304 8.31-.921 1.468-.455 3.704-1.771 1.953-4.716-.981-1.64-3.917-.344-5.465-1.427-1.549-1.073-.982-2.5-3.755-2.642l-.01.01Zm-17.904 1.113c-1.124-.405-3.361-.85-4.464-.566-1.387.344-2.106.303-2.45 2.054-.405 2.044-.92 2.095-.425 3.886.314 1.114 1.316 2.986 3.522 3.603 2.207.618 4.869 2.49 7.247 2.419 1.539-.051 3.644-.101 2.814-3.421-.455-1.852-2.247-2.874-3.421-4.352-1.174-1.477-.213-2.671-2.824-3.613v-.01Z" fill="#003F67"/><path d="M32.309 165.175c-1.964-1.214-2.976-1.153-7.227-1.508-4.13-.334-7.399-.03-12.034-.01-4.059.01-6.316-2.398-8.674 7.338-.81 3.37-.75 10.646.8 15.109.981 2.834.607 7.449.789 8.117.79 2.965.07 3.765 6.073 3.299 2.702-.212 6.72-.384 9.17-.526.718-.04.263-1.326.92-1.386 3.695-.355 13.027-.709 13.664-1.255 1.195-1.012.517-4.98-.657-11.679-1.296-7.398-.375-15.029-2.824-17.499Z" fill="#A2A2A2"/><path d="M21.865 193.887h.02a.385.385 0 0 0 .364-.405c-.05-.86-.02-3.573 0-5.364 0-.668.01-1.224.01-1.538a.385.385 0 1 0-.769 0c0 .314 0 .87-.01 1.538-.02 1.913-.04 4.534.01 5.415.01.202.183.364.385.364l-.01-.01Z" fill="#003F67"/><path d="M7.806 154.517c.961-4.615 1.801-6.639.263-7.53-2.41-1.396-5.405-3.208-5.648-5.303-.324-2.874-.567-3.876.82-5.92 1.62-2.389 3.137-4.251 9.038-6.245 3.968-1.336 6.71-.607 8.441-.769 1.964-.182 8.958-.992 13.927-6.77 1.751-2.045 3.523 1.234 5.638 3.157 5.132 4.676 1.842 6.153.951 7.429-1.123 1.629-8.846 7.651-8.45 9.665.343 1.801.546 10.161.293 18.085-.102 3.249.617 5.789-2.571 6.133-8.694.941-22.308.82-23.846-1.164-2.166-1.771.243-6.548 1.123-10.748l.02-.02Z" fill="#F2A096"/><path d="M11.53 128.459c3.007 2.175 6.397 2.489 8.746 1.528 2.348-.952 4.25-2.551 5.759-4.625 1.073-1.954 1.467-4.433 1.386-5.395-.08-.88-.405-1.841-.88-2.681-1.114-1.974.425-2.551-2.834-6.113-.992-1.083-6.296-5.739-12.753-3.492-5.678 1.974-5.709 16.213.587 20.778h-.01Z" fill="#FFDBB0"/><path d="M25.366 111.496c-.526-.85-3.552-5.323-5.82-5.333-2.793 0-3.491-1.721-6.295-1.154-3.917.789-7.125 3.077-8.077 4.332-2.054 2.702-1.74 4.534-2.176 6.335-.8 3.269.122 11.709 7.43 12.691 1.193.162 1.031 1.458 1.143-.86-.091-2.773-1.63-2.429-2.743-3.32-1.144-.921-.962-3.481.81-3.056 1.467.354 1.427 1.154 1.862-1.862.253-1.761 5-.86 7.642-7.499.718-1.812 7.925 4.21 6.224-.284v.01Z" fill="#003F67"/><path d="M15.306 154.295c1.356.749 1.903 1.002 2.581.86.678-.141 3.239-.617 4.19-.313 1.67.536-.142 1.821.324 2.459.466.637 2.095 1.518 2.55 2.257.466.739-.596 1.083-1.153 1.619s.961 1.366.304 1.882c-.446.355-1.802.132-1.974.992-.172.86-.435 1.002-1.316.79-.88-.213-1.245-.648-1.953-.344-.709.303-.88.131-1.417-.324-.537-.456-1.205-2.237-1.883-3.725-.678-1.477-1.498-1.649-2.864-2.095-.04-.01-4.767-1.295-8.209-3.117-4.716-2.489-3.572-11.203-2.651-13.571.526-1.286 3.147-1.184 7.125.05 1.984.942-3.512 6.781-.06 8.755 3.278 1.882 6.295 3.785 6.396 3.845l.01-.02Z" fill="#FFDBB0"/><path d="M4.415 135.047c-2.064.465-4.079 5.323-3.977 8.572.1 3.249 2.135 3.593 4.352 3.977 2.216.385 4.15 1.913 4.727-.496.587-2.408.647-7.884-.982-9.371-1.64-1.488-2.257-3.097-4.13-2.682h.01Z" fill="#F2A096"/><path d="M79.91 217.328c6.68-.688 1.347-6.811 4.423-12.651 0 0 3.725-2.833 4.727-.293.76 1.933 1.862 9.351 2.257 14.442-3.876 1.69-8.33 1.032-11.407-1.488v-.01Z" fill="#FFDBB0"/><path d="M79.86 217.338h.05c3.077 2.52 7.53 3.178 11.407 1.488.121 1.589.172 2.945.131 3.845-.202 3.765-12.439 4.261-17.935 1.286-6.295-3.411-4.666-5.526 6.356-6.619h-.01Z" fill="#003F67"/><path d="M127.542 212.387c-.648-3.4-.456-7.954-.547-11.244-3.32-2.358-5.759-2.287-5.85 4.494-.091 6.781-.82 10.323-4.828 12.6-.04.02-.071.04-.111.061 4.15-.324 8.481-2.611 11.326-5.901l.01-.01Z" fill="#FFDBB0"/><path d="M127.542 212.389c-2.855 3.289-7.176 5.586-11.326 5.9-3.958 2.257-7.328 5.02-4.605 6.295 2.743 1.285 6.528.921 10.01-1.073 3.471-1.984 8.542-5.101 6.832-8.309-.415-.769-.699-1.741-.901-2.813h-.01Z" fill="#003F67"/><path d="M90.67 94.828c-.264 1.427-3.462 39.247-4.586 42.931-1.123 3.694-3.552 73.931-3.522 75.044.03 1.113 3.39 2.034 4.717 1.994 1.326-.031 4.089.455 4.757-1.68 1.7-5.415 14.736-77.837 14.888-79.973.152-2.135 1.012-4.301 1.326-.03.314 4.271 11.923 76.501 12.247 77.199.324.709 5.607.041 6.822.01 1.214-.03 1.265-.263 1.923-3.765.911-4.827 2.803-49.246 2.611-52.798-.182-3.552-3.087-56.553-4.362-58.81-1.275-2.257-36.822-.122-36.822-.122Z" fill="#A2A2A2"/><path d="M79.93 82.046c-2.47 3.42-6.406 6.568-7.034 7.955-.627 1.376-2.601 4.979-3.876 7.286-.517.942-1.974 1.71-4.9 3.158-1.295.638-.515-1.63-2.206-1.589-2.854.07-1.77-1.538-2.47-2.054-1.204-.901-1.558-1.124-.08-2.48 1.478-1.366 2.58-2.054 3.39-2.51.8-.445 1.853-1.396.183-1.609-1.67-.212-2.571-.435-3.189-1.447-.617-1.012-.02-1.68 1.974-1.194 2.43.07 5.324-1.377 6.68-1.67 1.367-.294 5.921-8.593 7.611-11.001 1.69-2.409 6.387 3.744 3.917 7.165v-.01Zm63.036-6.507c2.055 3.684 5.598 7.276 6.053 8.714.455 1.447 2.004 5.252 3.006 7.681.405.992 1.761 1.933 4.504 3.704 1.215.78.698-1.558 2.379-1.326 2.823.405 1.933-1.315 2.682-1.75 1.295-.75 1.68-.931.364-2.46-1.316-1.528-2.328-2.338-3.077-2.884-.749-.536-1.67-1.6.01-1.62 1.68-.02 2.612-.13 3.34-1.072.729-.931.213-1.67-1.811-1.417-2.419-.212-5.122-1.994-6.448-2.439-1.326-.445-1.73-2.267-3.137-4.858-1.397-2.59-9.919-3.967-7.875-.283l.01.01Z" fill="#FFDBB0"/><path d="M96.317 29.926c2.52 1.771 7.844.729 9.908-.92 4.413-3.523-5.698-5.132-6.963-7.136-.921-1.467-2.055-.556-2.966 2.176-.283.84 1.913 2.297-.283 3.846-1.235.88-2.105.9.304 2.034Z" fill="#003F67"/><path d="M113.979 22.468c-1.468 3.846-4.342 6.103-7.004 6.558-2.662.456-5.283.02-7.814-1.083-2.075-1.255-3.846-3.39-4.311-4.372-.425-.89-.678-1.994-.74-3.087-.12-2.54-1.841-2.206-.92-7.52.273-1.618 2.398-9.168 9.494-10.767 6.234-1.407 14.362 12.225 11.285 20.271h.01Z" fill="#FFDBB0"/><path d="M100.517 10.768c-2.59-3.431-7.014 6.386-7.975 4.16-2.075-4.798 1.569-8.704 4.706-11.062.729-.547 2.53-2.105 4.737-2.844 4.565-1.528 11.214 1.083 13.613 6.487 1.913 4.301 1.356 5.455 1.893 8.501.283 1.569.131 4.727 1.184 6.224 1.792 2.571 4.302.85 2.004 2.996-2.166 2.024-7.338 3.067-9.534 2.308-1.275-.436.415-5.86 1.994-7.054 2.145-2.571 1.579-3.431.981-4.302-.607-.86-2.307-1.275-2.672-.364-1.821 4.493-.921.122-2.206-.668-3.502-2.166-1.538 2.237-8.725-4.402v.02Z" fill="#003F67"/><path d="M110.052 23.621c-.253.02-3.583.577-3.897.567-.081.587-1.296 4.26-1.508 5.01-1.063 3.694-3.502 8.49-3.796 8.875 3.998 3.046 14.585 3.623 16.802.344-.699-.293-6.306-10.474-6.711-11.84-.303-1.003-.85-2.571-.89-2.956Z" fill="#FFDBB0"/><path d="M130.456 76.461c-.152-6.487-2.935-18.369.172-15.586.83.74 3.573 4.484 5.759 7.46 3.178 4.33 5.182 9.927 7.51 12.245 1.529 1.528 8.35-3.684 8.28-5.354-.102-2.631-5.112-13.551-9.008-18.58-3.735-4.818-13.593-19.088-18.087-22.236-3.259-2.287-8.28-3.279-10.719-2.752-.212.05-1.265 3.137-4.372 4.23-2.763.971-4.575.658-5.901.04-1.437-.678-1.427-1.963-2.47-1.852-1.973.223-6.7 2.996-9.655 6.64-2.946 3.643-8.26 19.876-8.887 21.88-.86 2.733-7.014 7.944-11.366 14.199-2.065 2.975-.152 3.684 2.034 5.536 2.996 2.064 5.03 4.625 6.883 2.996 2.064-1.822 6.508-6.974 7.823-9.493 1.468-2.804 3.401-8.785 4.474-8.188 1.205.678-.121 7.277-.992 11.973-.425 2.297-3.43 11.02-3.694 14.998-.293 4.534 10.324 3.795 17.702 5.253 6.862 1.356 24.727 1.052 25.496-3.3.739-4.17-.881-15.342-.992-20.109h.01Z" fill="#EE8084"/><path d="M97.056 40.44c6.457.465 12.601.222 15.273.222 3.775 0 5.385-1.781 5.83 3.107.445 4.888 2.662 15.768 7.551 22.65 4.888 6.882 6.771 7.57 6.771 13.116 0 5.546 2.075 30.777 2.54 38.084.668 10.434 9.322 24.542 4.747 26.262-8.289 3.117-38.916 2.449-48.46 2.004-9.556-.445-10.659-3.522-9.99-9.291.667-5.778 4.068-23.348 4.29-30.897.163-5.557 3.098-30.21 4.566-35.28 1.993-6.882 3.997-17.772 3.997-23.763 0-5.992-.222-6.437 2.885-6.214Z" fill="#E2C2BC"/><path d="M94.13 38.447c.02 2.014.213 2.975.173 5.657-.02 1.528.486 1.498 2.145 1.407 1.66-.091 2.4-.01 2.43-1.903.03-1.892.232-5.333.182-6.335-.061-1.002-.486-2.43-2.065-1.64-.992.496-2.874 1.862-2.864 2.814Zm19.93-6.933c0-1.447 4.615-.82 4.615 1.073 0 1.893-.516 7.52-.627 9.635-.112 2.105-.658 1.66-2.328 1.558-.891-.05-1.964.294-2.055-2.61-.111-3.391.405-9.312.405-9.646l-.01-.01Z" fill="#E2C2BC"/><path d="M127.612 93.927h-10c-.89 0-1.528-.202-1.923-.607-.486-.506-.516-1.235-.506-1.74.031-.77 0-4.535-.02-7.56-.01-1.731-.02-3.29-.02-4.09a.304.304 0 0 1 .607.001c0 .8.01 2.358.02 4.088.02 3.188.051 6.801.02 7.59-.02.628.081 1.043.334 1.306.274.283.77.425 1.488.425h10c.162 0 .304.132.304.304a.299.299 0 0 1-.304.303v-.02Zm1.164-1.204a.304.304 0 0 1-.303-.303v-1.57c.02-2.681.05-7.66 0-9.077a.31.31 0 0 1 .293-.314c.142 0 .304.121.314.293.061 1.438.03 6.427 0 9.109v1.558a.305.305 0 0 1-.304.304ZM91.712 93.98c-1.185 0-2.42-.031-2.966-.052-.162 0-.293-.151-.293-.313s.141-.304.313-.294c1.073.05 3.897.081 5.091 0 1.114-.07 1.508-.475 1.508-1.528 0-2.368 0-10.252-.04-11.942a.32.32 0 0 1 .293-.314c.183 0 .304.132.314.294.04 1.66.04 8.916.04 11.962 0 1.376-.637 2.034-2.074 2.135-.537.03-1.356.051-2.197.051h.01Z" fill="#9FA198"/><path d="M171.681 128.389c-1.103-1.346-7.611-5.404-7.763-6.173-.152-.769-.81-3.633-1.559-4.483-1.305-1.478-1.822.961-2.692.759-.87-.203-2.51-1.488-3.472-1.63-.971-.152-.85 1.103-1.153 1.913-.304.82-1.842-.385-2.085.526-.162.628.678 1.913-.142 2.48-.81.566-.84.9-.223 1.71.618.81 1.235 1.002 1.235 1.872 0 .871.263.972.972 1.326.718.354 2.864.243 4.696.284 1.842.04 2.925 5.586 8.178 8.086 3.188 1.518 6.296-3.886 4.008-6.68v.01Zm38.532 84.889c-.577-.324-1.002-.708-1.225-1.387-.506-1.508-.789-4.149-3.026-6.588-2.237-2.439-1.873-2.105-3.948-4.21-2.074-2.105-2.742-3.664-3.39-6.356-.648-2.692-1.994-4.969-4.443-6.841-2.45-1.873-4.15-1.448-7.207-.263-3.057 1.184-1.71 3.876-.546 7.509.698 2.348 1.356 4.382 3.684 6.143 2.328 1.761 4.271 4.129 5.081 5.475 1.265 2.116 4.858 5.506 6.093 6.386 1.336.942 3.623 2.864 3.441 4.777-.03.354-.101.618-.182.84 2.905-.152 5.101-2.56 5.688-5.495l-.02.01Z" fill="#FFDBB0"/><path d="M210.212 213.277c-.587 2.935-2.773 5.344-5.688 5.496-.344.951-.992.971-.729 3.451.405 3.987 3.684 3.198 5.972.455 1.599-1.923 4.645-7.509 2.226-8.592-.688-.314-1.295-.536-1.781-.81Zm-38.693 5.153c-1.427 1.052-1.71-.243-3.583 2.034-2.47 3.006.405 5.313 3.917 5.475 2.47.111 8.492-.971 7.52-3.775-.405-1.174-.789-2.064-.83-2.894-2.55 1.032-4.787.455-7.034-.84h.01Z" fill="#003F67"/><path d="M184.848 189.343c-.445-3.36-9.322-1.73-11.012 4.595-.83 3.097-1.306 6.477-1.66 8.076-.567 2.5.263 6.922.486 10.04.121 1.69.354 5.242-1.103 6.345-.01 0-.02.02-.041.02 2.247 1.286 4.484 1.873 7.035.84-.021-.394.03-.779.222-1.174.689-1.437 2.308-3.441 2.409-6.993.101-3.552.122-3.016.101-6.214-.02-3.188.587-4.807 1.984-7.155s2.025-5.03 1.579-8.39v.01Z" fill="#FFDBB0"/><path d="M173.523 165.034c1.923-1.265 9.23-1.113 13.461-1.589 4.109-.465 6.184.203 10.678-.88 3.522-.85 2.561 3.178 6.63 11.314 2.682 5.374 9.676 12.924 7.57 14.776-2.105 1.842-7.297 4.302-10.253 3.492-2.955-.799-3.886-1.042-7.327.658-3.006 1.477-8.097-.02-12.085-.365-3.34-.283-5.456-.03-8.057.608-5.01 1.224-8.805-.425-9.646-1.103-1.224-.982-1.214-5.789 3.057-11.963 4.261-6.173 3.613-12.397 5.982-14.938l-.01-.01Z" fill="#A2A2A2"/><path d="M180.87 121.375c-.364-.668-.88-2.044-1.397-2.611-.516-.567-1.083-1.194-1.912-1.387-1.286-.303-1.954-.253-2.632.122-.607.334-1.528 1.983-1.559 3.147-.233 1.528-1.275 1.953-1.994 2.237-1.002.415-2.722.061-2.55.799.506 2.156 1.68 2.531 2.935 2.369 4.069-.496 1.974-4.302 4.463-4.727 2.49-.425 2.673-.071 4.626.041l.02.01Z" fill="#003F67"/><path d="M199.686 158.851c-.891-4.382 3.087-4.777 3.158-11.274.061-5.212-3.229-11.062-7.065-14.28-3.056-2.561-6.295-5.708-10.698-5.101-1.994.273-6.599 1.215-8.482.951-3.623-.495-4.959-4.979-7.783-.556-5.041 7.894-3.553 6.892-1.741 8.795 2.51 2.631 5.85 7.742 5.779 11.537-.04 1.741-.911 4.605-.718 12.124.081 3.087-1.741 6.093 1.265 5.678 13.067-1.802 20.202 1.245 25.85-.567 4.382-1.407 1.245-3.319.435-7.307Z" fill="#EE8084"/><path d="M191.437 128.055c-2.915 1.983-6.144 2.166-8.34 1.194-2.196-.972-3.957-2.55-5.324-4.554-.961-1.883-1.265-4.241-1.153-5.152.101-.829.435-1.73.91-2.52 1.114-1.831-.334-2.439 2.875-5.718.972-.991 6.133-5.252 12.196-2.935 5.324 2.035 4.939 15.535-1.164 19.685Z" fill="#FFDBB0"/><path d="M179.868 109.008c.719-1.093 2.45-2.348 4.575-2.652 1.974-.283 2.885-1.255 6.053-.587 3.714.779 6.66 3.127 7.53 4.352 1.873 2.621 1.518 4.352 1.883 6.072.658 3.117-.79 9.827-7.723 11.73-1.103.303-.87-.324-.749-.759.699-2.541 1.62-2.257 2.703-3.067 1.103-.84 1.022-3.279-.679-2.925-1.406.294-.809.365-2.874-1.659-1.478-1.448-2.561-3.644-4.808-7.156-1.002-1.578-4.666 1.397-7.054 1.063-1.215-.162-.314-2.176 1.164-4.412h-.021Z" fill="#003F67"/><path d="M196.984 122.206c.718-.415 1.963-1.407 2.763-1.65.799-.232 1.68-.496 2.55-.212 1.357.435 1.954.86 2.379 1.589.374.648.304 2.692-.314 3.805-.637 1.549.101 2.53.597 3.198.709.941 2.49 1.589 1.923 2.176-1.68 1.721-2.975 1.407-4.058.557-3.502-2.733.577-5.111-1.498-6.902-2.075-1.792-2.45-1.569-4.322-2.561h-.02Z" fill="#003F67"/><path d="M199.059 118.864c-.395.273-.921.698-.638 1.417.294.729.638 1.093 1.073 1.063.82-.061.921-.203 1.306-.76.394-.556.263-.941-.233-1.487-.496-.547-.921-.456-1.508-.233Z" fill="#F8CED2"/><path d="M197.703 120.544c-.395.273-.921.698-.638 1.417.294.728.638 1.093 1.073 1.062.82-.061.921-.202 1.306-.759.394-.556.263-.941-.233-1.488-.496-.546-.921-.455-1.508-.232Z" fill="#F8CED2"/><path d="M191.994 139.673c-1.336-1.124-7.611-5.405-7.763-6.174-.152-.769-.81-3.633-1.559-4.483-1.305-1.478-1.822.961-2.692.759-.87-.203-2.51-1.488-3.472-1.63-.971-.151-.85 1.104-1.153 1.913-.304.82-1.843-.384-2.085.526-.162.628.678 1.913-.142 2.48-.82.567-.84.901-.223 1.71.618.81 1.235 1.002 1.235 1.873 0 .87.263.971.972 1.325.718.355 2.864.243 4.696.284 1.842.04 2.702 4.574 7.561 7.762 1.73 1.134 6.558-4.716 4.615-6.366l.01.021Z" fill="#FFDBB0"/></svg>