<svg width="355" height="29" fill="none" xmlns="http://www.w3.org/2000/svg"><path fill-rule="evenodd" clip-rule="evenodd" d="M87.449.045c1.23.192 1.41.683 2.84.764.206-.29.515-.724 1.29-.572v.192c.66.179.29-.192.775.192h.26v.764l.515.192v.38h.26c.085.192.17.38.261.572h-1.035V3.1c-.715.138-.576.053-.776.571-.902.161-1.205.483-2.325.572.018.5.103.648.26.952-.884-.05-2.028-.152-2.065-.192v.38h.26c.818.004-.775.192-.775.192-.327-.3-.69-.465-1.29-.572-.387.518-.896.813-1.81.951v-.38l-.515.193c-.151.29-.2.313-.26.764-.545.031-1.563.17-1.811.38-.315.268.23.21-.515.571V6.72h-.26v.764h-.776v-.38c-.393.112-.423.148-1.035.193v-.38l-.775.192c-.17.326-.249.599-.26 1.144h-1.29s-.261.304-.515.38v.192h-.26v-.38h-.516v-.192h-.26v.192h-.775v.192c-.448.295-.545.894-.775 1.336-.951-.067-1.702-.335-2.326.192-.085.192-.17.38-.26.572-.69.063-1.381.125-2.065.192v.192l-.515.192v.38l-.775-.192-.26.38h-.776c-.042.018-.303.286-.515.38v.192c-.43-.063-.86-.126-1.29-.193v-.192c-.15-.013-.884.322-1.29.38-.175.362-.333 1.166-.514 1.524l-.775-.193v-.192c-.358-.049.102.139-.26.192-.618.09-.667-.143-1.036-.192l-.515.572h-1.036v.192l-.775.192v.572h.515v.192h-.26c-.14.09-2.072.483-2.066 0h-.26v.38l-1.29-.192c.012.684-.06 1.202-.515 1.524v-.193h-.26v-.764h-.515c-.018.5-.103.648-.26.952-.54-.116-1.054-.214-1.55.192v.38h-.261v.192l-1.55-.192c-.085.125-.17.255-.26.38-.346.062-.691.125-1.036.192v.38h-1.036v.38c-.618-.09-.811-.22-1.29-.38v.951c-.605.063-1.205.125-1.81.192v.192c-.758.13-.848.21-1.036.764.363.014-.037-.03.26-.192.406-.219.242.47.26.572-.441.215-.35.12-.514.572.345-.063.69-.125 1.035-.192l.26-.38c.05-.004.606.179 1.036.192v-.38c.26.063.515.126.776.193l.26-.38c.315-.112.757-.103 1.036-.192v-.764c.611-.076 1.423-.362 2.325-.192v.192h1.036v-.192h.514v-.764h.515v.38c.775-.126 1.55-.255 2.326-.38l.26.192c.709-.366.236-.652 1.55-.764.297.219 0 .076.515.192v-.572l1.29-.192v-.38c.854.103 1.175.242 1.55 0h.261c.327-.295-.279-.384.26-.572v.192h.26v-.571c.57-.067 1.339-.25 2.066 0 .085.125.17.254.26.38h.515v-.38c.52.107.224-.023.515.192l.775-.192v-.193h.775c.17-.192.345-.38.515-.571.43.062.86.125 1.29.192v.192c.188.027.95-.17 1.81-.192l-.26-.572h.515v.192h1.035l.26.192v-.192l.776-.192c-.018-.5-.103-.648-.26-.952h1.55c.297-.219 0-.076.515-.192.2-.572.157-.5 1.035-.572.291.326.164.26.775.38.26-.478.533-.996 1.036-.764h.26v.572h.515c.188-.527.073-.425.775-.572v-.192l1.55-.192s.116.277.516.192l.26-.38h.775v-.38l.515.193v.192c.339.093.054-.09.26-.192.648-.13.418-.099.775-.38h.26v-.38l.516-.192c.302-.241.436-.554.775-.764v.192h.775c.085.255.17.51.26.764h.26c.63-.777 1.448-.706 2.84-.952.08-.013.068-.263.516-.192v.192c.514.126 1.035.255 1.55.38v-.192h.26l-.26-.572c.17-.062.345-.125.515-.192.357-.398-.115-.268.515-.572V9.2l1.29-.192c-.14.532-.2.018 0 .572h.26V9.2c.515.063 1.035.125 1.55.192V9.2c.279-.174.049.031.26-.192h-.26v-.192h.775c.055.451.11.473.26.764.297-.22.104 0 .261-.38.297-.219.103 0 .26-.38.776-.192 1.551-.38 2.326-.572l.26.193c.085-.617.237-.559.515-.952h.515v.192h.26v-.192h1.036l.261-.572c.672.201 1.09.349 2.065.38-.085-.125-.17-.255-.261-.38.176-.21 1.454-.268 1.811-.572l-.26-.38h.26v-.192c.684.224.975.367 2.065.38V5.96h-.26v-.572c.817.125.52.29.775.38.303-.014.92-.384 1.55-.192l.261.38h.514c-.248.63-.242 1.12.261 1.715h-.261c-.296.219 0 .076-.514.192v.952h-.261c-.066.317.242.33.261.38v.951c-.927.027-1.466.273-2.066.38l-.514-.192c-.17.192-.346.38-.515.572-.146.044-1.411-.143-1.811-.192-.157.5-.733 1.01-1.55.951 0 0-.139-.241-.515-.192l.26.38h-1.035c-.085.317-.17.634-.26.952l-1.29-.193-.26.38c-.697.13-.68-.366-.776-.38l-.775.193.26.192c.012.076-.23.428-.26.764-.86.062-1.72.125-2.586.192v-.38c-.612-.04-.642-.08-1.036-.192v.572c-.054.08-1.774.96-.775 1.336h-.775v-.193c-.248-.353-.26.38-.26.38-.291.161-.037-.022-.26.192.726-.178.72-.2 1.55 0v.192l.775-.192-.26-.192.26-.572c1.21.344 2.01.112 2.84-.38.085-.124.17-.254.26-.38h1.29s-.024-.11.515-.191v.572h.26v-.38c1.103-.014 1.714-.04 2.326-.38l.26-.38c.43.063.86.125 1.29.192-.296-.219 0-.075-.515-.192v-.38c.261.063.515.126.776.193v-.38h.514v.38c1.496-.09 2.568-.71 3.616-1.144v.572h.515v-.38h1.81v-.192h.776v-.192c.514.062 1.035.125 1.55.192.218-.215-.03-.027.26-.192v-.764c.515-.063 1.036-.125 1.551-.192-.085.192-.17.38-.261.572h.261v.192c.29-.161.036.022.26-.192.297-.22.103 0 .261-.38.405.013 1.81.192 1.81.192v-.192h.261v-.572c.284-.268 1.162-.197 1.81-.192v.192l1.551-.192v-.192h.514V9.95h.776l-.261.572h.261c.187-.528.072-.425.775-.572v.38c.26-.063.515-.126.775-.193v-.192c.606-.062 1.205-.125 1.811-.192v-.192h.775l.26-.38c.218-.062 1.702.201 2.065.38v-.38l.776-.192v-.192c.351-.08-.103.138.26.192.43.063.46-.183.515-.192.472-.072.999.25 1.29.38v-.192c.805-.541.06-.81 1.55-.952v.192h.775l-.26.38c.333.308.484-.21.775.572.339-.201.388-.389.775-.572v.572h.515c-.085-.38-.17-.764-.261-1.144 1.212-.304.872.147 1.551-.952h.26c-.03.407-.266.653-.26.764l.26.192c.472-.24.031-.259.261-.38.296-.16.163.175.26.193.26-.063.515-.125.775-.192v-.38c.582-.076.993-.313 1.811-.192 0 0 .012.25.515.192v-.192h1.29v.192c-.618.116-.479.062-.776.38h.515c.745-.907 1.987-.59 3.361-.952l.261-.572c.739 0 1.108.067 1.55.192v-.764h.26c.17.192.346.38.515.572h.261l-.261.38h.261v.192c.738.393.666-.34 1.035.572h.515v.38h.515c-.085.192-.17.38-.261.572h.261c.175.285.181.317.26.764h.515v.38c.4.17.539.28.775.571.836-.335.491-.456 1.55-.192l-.26-.572h.515v-.38h.514v.193h.261V8.8l.775.193-.26.571h.514c.188-.527.073-.424.776-.571.387-.336.696-.362 1.55-.38v-.38c.515-.125 1.035-.255 1.55-.38.018.5.103.648.261.952.29-.161.036.022.26-.192h.26v-.572c.776.062 1.551.125 2.326.192v-.38h.515l.26-.572c.345.063.691.125 1.036.192.085-.125.169-.254.26-.38l1.29.193v.38c.66-.295 1.781-1.184 2.586-.764h.515v.38h.26v-.38c1.242-.05 1.248-.134 2.326 0 .084-.318.169-.635.26-.952 1.193-.165 2.096-.165 2.84 0v-.38h1.551v.192h.775v.192c.26-.062.515-.125.775-.192V5.57c-.297-.219-.103 0-.26-.38.847.014.763.242 1.29 0l.26-.38 1.55.38v.38c.697 0 1.466.063 1.811-.192V5l.515.192V5c.515-.062 1.035-.125 1.55-.192.242.116-.091.273.261.192l.26-.38c.327 0 .66.34 1.29.193V4.62c.43-.063.86-.125 1.29-.193l-.261.572h.261c.575.46.484.268 1.29.192-.03.604-.503.358.26.572.115.474.236.702.261 1.336-.715.139-.576.054-.776.572h-.26v.952c-.618.089-.811.219-1.29.38V8.43h-.26c-.382 1.067-.448.393-1.29.764v.192l-1.036.572c.085-.193.17-.38.261-.572h-.261c-.157.304-.23.45-.26.951-.975.152-1.448.371-2.841.38v-.38h-.514v.38h-1.29v.192h.26c-.163.273-.303.143-.515.38h-.514l.26-.38h-.26c-.255.26-.152.375-.776.38 0 0-.181-.273-.514-.192-.085.125-.17.254-.261.38h-.514l-.261 1.143-1.035.192v-.764h-.515c-.188.613-.351.693-1.29.764l.26-.572h-.26c-.097.22-.073.68-.515.572l-.26-.572a47.11 47.11 0 0 0-.775.193v.38c-.412-.117-.612-.17-1.29-.193v-.572h-.261v.572c.297.22.103 0 .261.38-.606.063-1.206.125-1.811.192v.38c-.915.072-.787.237-1.551.38v.572c-.629-.108-.569-.202-1.035-.38v.38h-.26v.571h.26v-.38h.515v.38c.43-.062.86-.125 1.29-.192v.572h.514v-.572c.43.063.86.125 1.29.192.121-.455.297-.598.515-.951.842.004 1.865-.085 2.326.192h.26c.085-.125.17-.255.26-.38h.515v-.192h.515v-.192l.515.192v-.192h2.586a24.14 24.14 0 0 0-.261-.572h.515v-.192h.26V13l.776.192c.018.268.06.054-.261.192.291.201 0 .085.515.192v-.192h.26v-.572h.261c.224-.263.193-.33.26-.764.612-.022.654-.058 1.036-.192v.193h.26v.191l-.26.38h.775v-.38a247.05 247.05 0 0 0 1.811-.191v.191h.26c.291-.151-.097-.25.26-.191v.191h1.036v.38h.26c.085-.38.17-.764.261-1.143h.515v.38h.26v-.572c.594.017.672.16 1.036.192l.26-.38s.708.178 1.036.192v-.38l.26.192c.345-.062.69-.125 1.036-.192v.192h1.289v-.572h.515v.193h.261v-.193l.514.193.261-.572c.684-.188.539.415 1.035.38v-.193c1.133-.196 1.424-.469 2.586-.572v.193h-.26c-.491.165.515.192.515.192.218.214-.031.026.26.192v-.38l1.29-.192c.085-.125.169-.255.26-.38l.261.192c1.532.072 1.732-.397 2.586-.764v.572h.26c.297-.219 0-.076.515-.192v-.38c.26.063.515.125.775.192l.261-.38h1.035v-.19h.26c.158.455.085.352.515.571V8.44c1.357-.161 1.145-.023 2.326.38.133-.447.375-.716.775-.952.297.219 0 .076.515.192v-.38h.775V7.3c.43.063.86.125 1.29.192v.38h.515V7.3c.563.027.859.192 1.035.192V7.3l.775-.192c.085.125.17.255.261.38.823.179 2.059-.398 2.586-.572l-.261-.572h.775c.158.456.085.353.515.572.218.214-.03.027.261.192.018-.5.102-.648.26-.952.515-.062 1.036-.125 1.55-.192.218.215-.03.027.261.192-.2.193-.315.188-.515.38h.775l-.26-.572.26-.192c.382.09.412.22 1.036.192v-.192h.26v.192c.345.063.69.125 1.036.192v.193c1.053.295 1.532-.139 2.065.192.805.393.121.245.515.764l.514.192v.38h.261c.236.259.193.335.26.764l-1.035-.193c.205.617.478.657.514 1.524-.29.16-.036-.022-.26.192h-.261c-.078-.572-.036-.518-.514-.764v.192h.26c-.17.255-.345.51-.515.764-.672.01-.89.04-1.29.192v.192c-.442.112-.448-.178-.514-.192-.927-.174-1.514.242-1.811.572h-.261c-.084.38-.169.764-.26 1.144h-.515l-.26-.38c-.345.063-.69.125-1.036.192.055.451.109.474.261.764-.6-.018-.66-.152-1.036-.192l-.26.38c-.345.062-.691.125-1.036.192-.188.527-.072.424-.775.572-.908.603-1.671-.241-1.811-.192v.192c-.43.192-.86.38-1.29.572.14.665.255.353 0 .951h.261v-.192h1.035v.38l.776-.192v-.192l.775.192v-.572c.26.063.514.125.775.192v-.192l-.261-.192h1.551c.085.192.169.38.26.572.17-.063.515-.38.515-.38.26.063.515.125.775.192v-.192c.382-.147.43-.143 1.036-.192v-.38h.514v-.38h1.036v.38c.581-.049.684-.018 1.036-.192v-.192h.514v-.192h.515v-.192c.46-.273.618-.43 1.29-.572v.572h1.036c.084-.317.169-.635.26-.952h.515c-.085.192-.17.38-.261.572h.261c.369-.273 1.441-.487 2.065-.572v-.38c.345-.062.69-.125 1.035-.192v-.572h.515v.572h.515v-.572h1.29c-.085.192-.17.38-.261.572h.515c.267-.219.479-.366 1.036-.38v.193h.26l.261-.193c.242-.344.357-.299.514-.764l.776-.192v-.192l.26.192.775-.192v.572h.515c.054-.451.109-.474.26-.764l.515.192v-.192c.37-.237.4-.527.775-.764.079.09.527.693.775.572l.261-.572c1.12-.062 2.241-.125 3.361-.192v.192c-.715.139-.575.054-.775.572.642-.085.951-.174 1.811-.192v-.192h-.261v-.952c.43.063.86.125 1.29.192.085-.192.17-.38.26-.572.297.22.103 0 .261.38l.775.192v-.192c.533-.214.466-.295 1.29-.38v-.571c.551-.023.884-.197 1.035-.193l.261.193v-.38l1.29-.192v.38c.169-.063.345-.126.515-.193V7.1c.411-.036.321.33.514.38h1.036c.085-.317.17-.634.26-.952.43.063.86.125 1.29.192l.261-.38h.26v.193c.261-.063.515-.125.775-.192v-.38c.297.219.103 0 .261.38h.514c.121-.456.297-.599.515-.952.86.009 2.326.192 2.326.192v-.192h.514v-.192h.776c.084-.125.169-.255.26-.38.26.063.515.125.775.192V5.2h1.29v-.38l1.036-.191v.38h.514c.164.522.34.433.515.95h.775c.188.528.073.425.776.573v.38c-1.545.232-1.339.764-1.811 1.715h1.55l.261-.764c1.078-.12.732-.187 1.81-.38v.38c1.224-.38 1.042-.38 2.065 0v-.38c.346-.062.691-.125 1.036-.192v-.38h.515v.193h.26v-.192c.588-.085.697.098 1.036.192v-.192h-.261c-.478-.184.515-.193.515-.193v-.38h.515v-.38c.811.113 1.151.31 2.065.38l.26-.571s-.551-.031-.26-.192h.515v.192h1.55v-.572c.824.125.509.281.775.38.43-.032.479-.376.515-.38.497-.103.357.125.515.192h.26v-.192c.345.063.691.125 1.036.192.188-.527.072-.424.775-.572v.38h1.036c.242-.344.357-.3.514-.764l.775.192v-.192c.17-.063.346-.125.515-.192v.38h.515l-.26-.572c.617-.09.811-.22 1.289-.38v.764c1.345-.26.921-.42 2.586-.192v-.572h.775v.192c-.109.112-.423.027-.26.38h.26c.418-1.18.552-.322 1.551-.764.587-.26-.018-.702 1.29-.952v.192l.775-.192v.38h.26v-.38c.915.072.788.237 1.551.38v.38c.242.3 1.847.353 1.035.951h.515V5l-.515.192c-.012.063.243.425.261.764h.514c-.121.456-.296.6-.514.952-.461.018-.933.201-1.036.192v-.192h-1.035V7.1l-1.551.192v.38c-.345.125-.69.255-1.035.38V7.86h-.261v.572l-1.811.38c.297.218 0 .075.515.191v.193c.454.156.83-.112 1.036-.193V8.81h.775v-.38c1.205-.044 1.472-.276 2.326-.571v-.192h1.81v.192h-.26c-.297.219 0 .076-.515.192v.38c1.054-.224.273-.175.775-.572l.515.192v-.192h.515v-.192h.775c.272-.117.642-.943 1.29-.764v.192h.515v-.572c.26.062.514.125.775.192v-.192c.515-.063 1.035-.125 1.55-.192v.38h.515c.085.192.169.38.26.571h.261v-.38h.514c.152-.71.152-.437 0-1.143.079.022 2.489.415 2.586.38v-.192h.261v-.764h.26c.527.348 1.175.053 2.065 0v-.38c.521.107.224-.023.515.192.951-.201.709-.384 1.29-.764v-.192c.654-.3 2.041-.014 3.101 0 .163-.523.339-.434.514-.952 1.109-.031.885-.12 1.551-.38v.572h1.035c.055-.45.109-.473.261-.764l.775.192.26-.38h.515v-.191c.26-.063.515-.126.775-.193l.261.572c.654-.388.109-.46 1.29-.572v.193c-.297.174-.303.138-.515.38h.26v.191c.539-.21.46-.308 1.29-.38.218.215-.03.027.261.193-.303.362-.219.183-.776.38v.192h.515c-.085.38-.169.764-.26 1.143h.26v.192h-.26v.38c.085.447.169.89.26 1.336h-.26c-.218.22-.134.268-.515.38V6.33h-.26c-.17.192-.346.38-.515.572h-.775l-.261.38c-.345.062-.69.124-1.035.191-.085.193-.17.38-.261.572l-.775.192-.26.38h-.261v-.192c-.951-.165-1.247.648-1.811.192v.38h-.514c.085.255.169.51.26.764h-.26c-.291.326-.164.26-.775.38-.025-.04-.37-.693-.515-.572v.192l-.515.192c-.085.192-.17.38-.26.572h-.776c-.866.313-.339.505-1.81.572.084.192.169.38.26.572.345-.063.691-.125 1.036-.192v.572h.26v-.193h1.036c.787-.219 1.15-.531 2.325-.571v-.38c.733-.12.685-.353.775-.38h1.036v.192l1.036-.192s.115.237.514.192v-.192l1.036.192v-.192c.297-.219.103 0 .26-.38h-.26v.192c-.224.362-.261-.38-.261-.38.945.063 1.896.126 2.841.193l.26-.38c.261-.058.472.295 1.036.192V9.77h1.29v.192h.26V9.77h1.036l.26-.572h.261l-.261-.38h.775c.297.22 0 .076.515.192v-.38c.618.09.811.22 1.29.38v-.19h-.261c-.478-.183.515-.192.515-.192v.192c.297.22.103 0 .261.38.551-.022.878-.192 1.035-.192V9.2h.515c.073-.34.26-.38.26-.38-.084-.192-.169-.38-.26-.572h.26v-.192c.733.242 1.066.492 2.065.572v-.38c1.508-.254.146-.482 1.551 0v-.764h.26v.193c.345-.193.691-.38 1.036-.572v.764h.26c.127-.09-.072-.309.261-.192v.192h.26s-.073.683.261.38v-.193c.296-.219.102 0 .26-.38h-.775c.2-.571.157-.5 1.035-.571v.192l.775-.192v.192h.776v.192c.666.103 1.417-.594 1.81-.764l.776.192v-.192c.43-.206.429-.26 1.035-.38-.085.192-.169.38-.26.572h.26v.192c.261-.125.515-.255.775-.38v-.192h.515c.466-.152.563-.433.775-.764l1.29.764c.158-.375.012-.464.515-.572.085.023.079.358.515.38.551-.54.23-.384 1.035-.192.085-.617.236-.558.515-.952.902.103.478.188 1.29 0v1.144h.26c.291-.326.164-.259.775-.38.485.6.957.541 1.036 1.524.709.022 1.871.264 2.065 0h.261v.192c.714.125 1.526.532 1.81.952v.572h.261c.357.352.599.442.775.951a46.211 46.211 0 0 1-.775-.192v.192h.26v.572h.261c.236.281.23.47.26.952-.297.219-.103 0-.26.38-.86.062-1.72.125-2.586.192v-.38c-.346.062-.691.125-1.036.192v-.38c-.17.063-.345.125-.515.192-.085-.125-.169-.254-.26-.38-.006 0-.763.26-1.29 0l-.261-.571c-.302-.157-.442.558-1.035.38v-.193c-.297-.219-.103 0-.26-.38l-.776.193v-.193h-.26c.085-.192.17-.38.26-.571 0 0-.321-.059-.26-.38 0 0 .43-.085.26-.38h-.26c-.297.219 0 .076-.515.192-.085.192-.169.38-.26.572-.606-.053-.642-.063-1.036-.192V9.78c-.436.022-.436.362-.515.38-.587.152-1.041-.237-1.289-.193v.193c-.879.259-1.072.594-2.066.764.085-.192.17-.38.261-.572h-.515c-.381.518-.793.87-1.811.951v-.572h-.26c-.2.572-.157.5-1.036.572v-.38c-1.078.434-1.223.39-2.585.193v-.38h-.261c-.018.737.042.786-.775.951v.193c-.248.353-.261-.38-.261-.38h-.514c-.085.125-.17.255-.261.38-.43-.063-.86-.125-1.29-.193v.38h-.775v.192c-.297.22-.103 0-.26.38l-1.551.192v-.38l-2.585.193v.38h-.776v.192c-.23.357-.26-.38-.26-.38-.83.147-.557.286-1.55.38v.571c-1.526-.116-1.411-.674-3.101-.764-.006.635-.133.863-.26 1.336h-.515c.079-.165.496-.42.26-.764h-.26v.192c-.297.22-.103 0-.261.38l-1.55.192v.38c-.866-.116-1.629-.523-2.586-.192-.169.192-.345.38-.515.572-.702.152-.799-.514-1.035-.572-.467-.116-.188.214-.261.38-.26-.063-.514-.125-.775-.192v.764h-.515l-.26.38c-.424.093-.478-.188-.515-.193-.624-.08-.672.192-1.035.192v-.192c-.515-.062-1.036-.125-1.551-.192v.38c-1.714.134-2.586.165-3.875 0l-.261.572c-.484-.094-1.235-.08-2.065-.192v-.193c.297-.218.103 0 .26-.38-.617.019-.642.126-1.035.193v-.192c-.43-.206-.424-.273-1.036-.38v-.38h-.514a24.32 24.32 0 0 0-.261-.572l-1.55-.192v-.38c.206.063.811.39 1.29.192v-.192c-.763-.366-.63-.759-.515-1.335.345-.125.351-.3.515-.38.169.062.345.125.514.192v-.764h.261c-.085-.38-.17-.764-.261-1.144-.26-.062-.514-.125-.775-.192.085.125.17.255.261.38l-.776-.192v.38h-.26c-.085.125-.169.254-.26.38h-.775c.06.442.284.116 0 .571l-.515-.192v.38c-.279.335-.261-.38-.261-.38-.43.063-.86.125-1.29.192 0 0-.121-.286-.514-.192-.085.125-.17.255-.261.38h-.775c-.085.192-.17.38-.26.572-.4-.157-1.145-.688-1.811-.572-.085.125-.17.254-.26.38-.497-.036-.43-.371-.515-.38h-.261v.192h-1.29v.192h.515c-.085.38-.169.764-.26 1.144h-.515c-.236-.076-.17-.581-1.036-.38l-.26.38h-1.29v-.192c-.375-.152-.436-.134-1.036-.192v.571a51.49 51.49 0 0 1-.775-.192v.192c-.296.22-.103 0-.26.38-.963.201-.696.393-1.29.764v.192h-.775v-.572h-.515v.38h-1.29v-.192h-.26c-.17.255-.345.51-.515.764l-.515-.192v.192l-.775.38V15.1h-.26v.192l-.776-.192v.192c-.363-.013.103-.16-.26-.192l-1.55.192v.572h-.261v-.192c-.702-.277-1.265.268-1.55.38-.145-.6-.254-.8-1.036-.952.146.464.273.42.515.764h-.515c-.411.281-1.52.21-2.325.192v-.38h-.515v.38c-.515-.063-1.035-.125-1.55-.192-.127-.451-.242-.451-.515-.764.351-.224.254.143.515-.192-.339-.157-.303-.134-.515-.38h.515c.054-.451.109-.473.26-.764-.733-.125-.975-.353-1.29-.764h.776c.169-.51.345-1.019.514-1.523-.339-.157-.303-.134-.514-.38-.552.232-.564.429-1.29.572v-.38h-.261v.572c-1.005.062-1.163.308-1.811.572-.054-.452-.109-.474-.26-.764-.291.16-.036-.023-.26.192h-.261l.261.192-.261.572c-1.096-.139-1.241-.031-2.586 0l.261.572h-.261c-.212.25-.181.223-.514.38v-.765c-1.315.054-1.139.34-2.586.38-.194.648-.551.88-1.551.952v-.38h-.26v.192c-.224.362-.261-.38-.261-.38a51.49 51.49 0 0 1-.775-.192l.261.38h-.515c-.412.281-.636.657-.775 1.144h-.775v-.38c-1.66.045-2.078.697-3.361.952.163-.523.339-.434.514-.952-1.653.268-2.828 1.108-3.876-.192 1.163-.5.551-.71.261-1.524h-1.036c-.218-.214.031-.026-.26-.192.079-.165.496-.42.26-.764h-.26v-.192h-.775c-.436.527-1.109.384-1.551.764l-.26.572h-.775v.192c-.261.063-.515.125-.775.192v-.38c-.806.13-1.175.572-1.811.764h-1.036v.193c-.26-.063-.514-.126-.775-.192v.38l-1.55.191v.193h-1.036c-.085.013-.066.263-.515.192v-.193h-.514v-.192l-1.811-.192c-.188.268-.466.577-.775.764v-.764h-.261v.38a51.49 51.49 0 0 1-.775-.192c-.121.447-.43.59-.515.952h.261c.085.192.169.38.26.571-1.471.014-1.623-.2-2.586-.38-.381.519-.793.872-1.81.952v-.38h-.515v.765h-.515v.192h-1.811v.192h-.514v.192c-.17-.063-.346-.125-.515-.192v.192h-.261c-.381-.228.218-.139-.26-.38.03.603.503.357-.261.572v-.38c-1.453.13-.835.474-1.55.764h-.515c-.084.192-.169.38-.26.572h-1.29v-.192c.642-.349.333-.148.261-.764h-.515v.572c-2.247.004-2.641.33-4.651.38v-.38c-.345.125-.691.255-1.036.38.085.254.17.509.261.764-.673-.032-.885-.04-1.29-.193v-.192l-.776.192c-.042-.004-.09-.268-.514-.192v.192h-.515v.193h-.515v.192c-.357.174-.454.134-1.035.192v-.572h-.261v.192h-1.29c-.175.058-.012.246-.775.38-.085.192-.169.38-.26.572h.26c.382.232-.939.187-1.035.192v-.192c-1.036-.125-2.066-.255-3.101-.38.139-.532.2-.018 0-.572-.279.107-.539.514-1.036.38v-.192h-.26l.26-.38h-.26c-.297-.219 0-.076-.515-.192a24.27 24.27 0 0 0-.26-.572h.514a20.64 20.64 0 0 0-.26-.572h.26v.192c.224.362.261-.38.261-.38h.26v-.192c-.169-.062-.345-.125-.515-.192.085-.192.17-.38.261-.572h-.261v-.192h.776v-.192c-.339-.156-.303-.134-.515-.38.442-.214.351-.12.515-.572l1.035-.192c.03-.013.4-.706.515-.572v.38h.775c.242-.344.357-.3.515-.764-.351-.223-.394-.348-.515-.764h.515v-.38h.515v-.192c-.515.063-1.036.125-1.551.193v-.193c-.339.014-.648.327-1.29.193v-.193a168.03 168.03 0 0 1-1.55-.192v.764h-.515v.38c-.26-.125-.514-.255-.775-.38v-.38l-.26.193c-.297.219-.103 0-.261.38h-1.035v.38c-.515-.063-1.036-.126-1.551-.193-.084.317-.169.634-.26.952-.63.107-.569.196-1.035.38v-.193c-.267-.165-.358-.33-.515-.572-.297.22-.103 0-.261.38-.514.063-1.035.125-1.55.192v.38c-.612.04-.642.08-1.036.192v-.38h.261l-.261-.571h-.26v.38c-.17-.063-.345-.126-.515-.193-.297.152-.103.451-.775.38-.085-.125-.17-.255-.26-.38h-.261v.38l-.775.192c-.133-.027-.157-.482-.515-.38-.26.255-.514.51-.775.764-.26-.062-.515-.125-.775-.192v.38h-.515v.38c-.29-.161-.036.022-.26-.192-.279-.175-.049.03-.261-.193h.261v-.192h-.775v.192h-.261v-.192h-.775c-.085-.125-.17-.254-.26-.38-.17.063-.345.126-.515.193-.351.076.109.205-.261.192v-.192h-.514c-.006.59.072.983.26 1.336h-1.035v.38h-.261v-.572h-.515l-.26.571c-.291-.16-.036.023-.26-.192h-.261l.261-.572c-.261.063-.515.125-.776.193v.192h-.514c-.085.125-.17.254-.261.38h-1.035v.191h-.261c-.127-.085.073-.308-.26-.192l-.261.38-1.29.192v-.38h-.26l-.26.38h-.261l-.26-.38c-.357-.12-.727-.093-1.036-.192-.018.737.043.787-.775.952v-.38h-.515v.38h-1.29l-.514.952h-.515v-.193c-.085-.008-.594.17-1.036.193.146-.465.273-.42.515-.764h-.515l-.26.571-1.811-.192c-.272.099-.188.43 0 .572h-.515c-.224.197-.448.264-.775.38v-.572c-1.156.072-.751.12-1.81 0v.192c.296.22.102 0 .26.38h-1.29c-.067-.009-.085-.246-.515-.192v.192h-.515c-.084.192-.169.38-.26.572-.291-.161-.036.022-.26-.192-.291-.161-.037.022-.261-.192.339-.157.303-.134.515-.38h-1.036c-.23.2-.454.25-.775.38v.192l-.775-.192v.192c.339.156.303.134.515.38h-.515c-.303-.26-.472-.29-1.035-.38v.38c-.485-.134-1.012-.188-1.811-.193-.285-.397-.418-.34-.515-.951h-.515v-.38c-.29.16-.036-.022-.26.192h-.261v.38l-.514.192v.572h-.261c-.26-.255-.515-.51-.775-.764h-.26c-.339-.425.139-.532-.515-.952.085-.254.169-.51.26-.764 0 0-.333-.093-.26-.38h.26v-.951s.158 0 .261-.38c.714-.138.575-.054.775-.572h.515v.192l.775-.192v-.38l1.29.193c.187-.528.072-.425.775-.572v-.764h.26l-.26-.38h.26c.218-.214-.03-.027.261-.192v-.192c.248-.353.26.38.26.38l.775.192v-.192h-.26c.085-.193.169-.38.26-.572h1.551v.192c.605-.063 1.205-.125 1.81-.192v-.38h1.036v-.38c-.884-.009-1.787-.13-2.326-.192-.169.192-.345.38-.514.572l-1.551.192c.146-.465.273-.42.515-.764h-1.035v.192h.26c.297.3-.636.179-.775.192v.572h-.261v.192c-.43.063-.86.125-1.289.192.084-.317.169-.634.26-.951-.63.107-.575.196-1.036.38v.192c-.514-.126-1.035-.255-1.55-.38v.192c-.297.219-.103 0-.26.38-.424.058-1.127.397-1.29.38v-.193h-.776c-.357-.053.097-.25-.26-.192l-.26.38h-.515l.26-.38h-.26c-.297.22 0 .076-.515.192v.38c-.43.063-.86.125-1.29.192-.048-.009-.085-.272-.515-.192v.192h-.514v.192c-.255-.04-.303-.514-.515-.38-.424.26.284.367-.775.572v.572h-.261v-.38h-.26c-.085.126-.17.255-.261.38h-1.035c-.309-.415-.569-.63-1.29-.764v.192h-1.036l-.26.38-.775-.192v.572h-.515c-.636.8-.575.223-1.29.572.085.125.17.255.261.38-.515-.063-1.036-.126-1.551-.193-.024.005-.133.331-.515.38v-.192h-1.035l-.261-.192v.192c-.732.349-.756.55-2.065.572-.29-.326-.163-.26-.775-.38v.38h-.515v-.192c-.327-.076-.678.54-.775.572-.533.174-.739-.165-1.035-.192v.192c-.515.062-1.036.125-1.551.192l-.26-.572c-.715.139-.575.054-.775.572-.775.062-1.551.125-2.326.192l-.26.38h-1.811v.192c-.672.147-1.205.018-1.811.192-.145-.465-.272-.42-.514-.764-.291.16-.037-.022-.261.192-.908.474-.06.68-1.29.952v.192h-1.29l-.26.38c-.575.17-.727-.237-1.036-.193v.193c-.514.076-.327-.085-.514-.193h-.261v.38c-.26-.062-.515-.125-.775-.192v-.192l-.775.192v-.192h-1.036l-.26-.38c-.363 0-.121-.058-.261.192-.321-.218-.096 0-.26-.38h1.036v-.38h-1.036c-.242-.343-.357-.299-.515-.763h.515c-.151-.786-.279-.912-.775-1.716-.339.099.073.076-.261.192h-.775v.192c.521.108.224-.022.515.193-.739-.018-1.108-.036-1.55-.193v.193c.296.218.103 0 .26.38-1.266 0-1.471.218-2.325.38v-.573h-.261v.192h-.26l-.515-.192v.572h-.775v-.38h-.261v.38h.261v.572c-.86-.005-1.169-.098-1.811-.192v.38c-.611-.023-.654-.058-1.036-.192v.192c-.296.219-.102 0-.26.38-1.362-.112-.593-.412-1.811-.193v-.38c-.411-.044-.327.327-.514.38-.97.268-1.769.108-2.586 0v.572l-.515-.192v.192c-.52.326.024.29-.26.572h-.26c-.625-.688-2.417-.116-3.616 0v.572c-.485-.098-1.411-.684-1.811-.572v.192h-.26v.572c-.776.063-1.55.125-2.326.192v.38h.26c-.084.192-.17.38-.26.572-.612-.023-.654-.058-1.035-.192v.192h-.26v-.572h-.516v.572h-.26v-.192h-1.036v.192l-.514-.192v.192c-.57.13-.854.058-1.29.192v.572c-1.29.143-1.278.17-2.326-.38l-.26.572h-1.036v.192c-.345.063-.69.125-1.035.192v-.38h-.515c-.158.67-.279.876-1.29.952v-.192c.297-.22.103 0 .26-.38-.345-.063-.69-.125-1.035-.192v-.192c-.49-.112-.358.107-.515.192l-.775-.192v.192h.26v.764h-.514v-.38c-.71.304-.467.47-1.55.572-.189.527-.074.425-.776.572-.697.607-1.508.46-2.586.38v-.38h1.035a24.1 24.1 0 0 0-.26-.572c-.394.112-.424.148-1.035.192-.043-.518-.085-1.148-.515-1.336v-.192c.188-.2.2.165.515-.192h-.515c-.46-.201.515-.192.515-.192-.146-.465-.273-.42-.515-.764h.775c.212.25.182.223.515.38-.63-1.001-.951-1.926 1.29-1.908.296.219 0 .076.514.192.085-.317.17-.634.26-.951h-.514v.38h-.515l.26-.573h-.26c-.193.362.182.197-.26.38-.34-.223.309-.29-.26-.38v.38l-.515-.192v.192h.26c-.17.255-.345.51-.515.764h-.26v-.572h-.26v.192h-.776c-.17.192-.345.38-.514.572h-.515v.192h-.775v.193h-.515v.192c-1.042.272-1.823-.264-2.325 0-.703.335-.818 1.054-1.036 1.143h-2.326c-.296-.219 0-.076-.514-.192v-.38h-.26c.084.255.169.51.26.764h-.26c-.491.313-1.37.201-2.066.38v.192c-.381.09-1.011-.205-1.035-.192v.38h-1.29c-.26.447-.515.889-.776 1.336h-.26v-.572h-.515c-.054.451-.109.474-.26.764-.29-.16-.036.022-.26-.192-.297-.22-.104 0-.261-.38.442-.214.351-.12.515-.572h-.775v1.144c-.43-.063-.86-.125-1.29-.192v-.192c.297-.22.103 0 .26-.38h-.515l.26-.38h-.26c-.296.22 0 .076-.514.192-.067.371-.255.371-.26.38-.413.938.23 1.22-1.29 1.336v-.38c-.358.094-.57.076-1.036.192v.192c-.26-.062-.515-.125-.776-.192v.192h-.514l.26.38h-1.55v.192c.297.22.103 0 .26.38-.418-.013-1.81-.192-1.81-.192-.085.125-.17.255-.26.38-.703.281-.825.049-1.29 0v.192h-.516l-.26.38c-.43.062-.86.125-1.29.192v.192c-.345-.063-.69-.125-1.035-.192-.43.062-.86.125-1.29.192v.192c-.77.16-1.048-.304-1.55-.38v.192c-.297.22-.104 0-.261.38h-1.036l-.26-.192c-.133.044-.073.34-.515.38v-.193l-.775-.192v.192c-.26.063-.515.126-.775.193v-.38c-.467.179-.406.263-1.036.38v.38h-.26v-.573c-1.454-.013-2.562-.455-3.1-1.143l.514-.192c.018-.268-.255.08-.26-.192.084-.318.169-.635.26-.952h.515c-.57-1.189.636-1.85.775-3.052.8-.107 1.726-.192 2.84-.192v-.572h.775c.176-.558.285-.625 1.036-.763v-.38c1.508-.255.145-.483 1.55 0v-.38c.575-.08.884-.183 1.29-.38v-.192c.515-.036.182.29.515 0 .297-.219.103 0 .26-.38h.515c.297-.773.527-.38 1.036-.951l1.55.38v-.193h.26v-.764c-1.483.023-1.895.157-3.1 0-.146.6-.255.8-1.036.952v-.38h-.515v.572c-.526.206-1.017.563-1.81.572l-.26-.192c-.934.518.084.889-1.812.951l.26-.764h-.514v.193h.26c.019.067-.442.688-.514.951h-.515v-.38h-.515v.38l-.26-.192c-.515.125-1.036.255-1.55.38-.085.125-.17.255-.261.38-.34.107.054-.143-.26-.192-.26.062-.515.125-.776.192v-.192h-.775v-.193h-.26v.193s-.715-.175-1.036-.193c-.17.318-.345.635-.515.952-.224-.058-.569-.366-1.035-.192v.192h-.26v.572h-.26v-.572h-.261v.764c.042.268.272-.08.26.192l-.26.192c-.448-.165-.091-.022-.26-.38h-.261v.38l-1.29.192.26-.38h-.26c-.4.331-.466.188-1.036.38v.192c-.381.108-.987.05-1.035-.192h-.26v.572h-.261v-.192h-.26v.38h-.515v.38c-.654-.152-1.599-.014-2.84 0-.085.446-.17.889-.26 1.335h-.516v-.38c-.393.112-.424.148-1.035.193v.572c-.515.125-1.036.254-1.55.38v.192h-.515v.192c-1.266.353-1.563-.295-2.326.572h-.26l.26.192c-.085.192-.17.38-.26.572-.345-.063-.69-.126-1.036-.193v.572c-.914.072-.787.237-1.55.38v-.38h-.26v.572c-.515.063-1.036.125-1.55.192l-.261.572h-.515c-.085.192-.17.38-.26.572h-.26v-.572h-.261l-.26.38-.776-.192v-.192c-.502-.094-.345.107-.515.192l-1.035-.192.26-.192v-.192h-.26v-.572h.26v-.192h-.514c-.007-.635-.134-.863-.261-1.336H.787c-.46-.201.515-.193.515-.193.085-.192.17-.38.26-.571 1.333.044 1.278.362 1.29-.764.43-.063.86-.125 1.29-.192v-.764l.776-.193c.296-.219 0-.076.514-.192v.38h.515v-.38c.26.063.515.125.775.192v-.38h-.26l.26-.571h.26v-.192h.776c-.006-.268.054-.054-.26-.192v-.193h.774v-.192h.261l.26.38c.86.125 1.72.255 2.586.38.024-.715.236-.876.515-1.336.26.063.515.125.775.192v-.38h.775l-.26.38h.26v-.192h.515c.285-.165.115-.46.515-.572.23.17.097.322.515.38.17-.192.345-.38.514-.572h.776v-.192h.26v-.764h.515v.38c1.102-.076 1.169-.393 2.065-.572.206-.617.478-.657.515-1.524h2.325v.193l.775-.193v-.192c.388-.076.351.34.515.38l.775-.192v.38h.26v-.38c.291-.16.037.022.261-.192l-.515.192v-.764h.26v-.764h1.29l-.26.572h.775c.412-.371.939-.51 1.29-.952.267.165.358.33.515.572.26-.125.515-.255.775-.38v-.192h.515l.26-.38c.17.063.346.125.515.192.345-.192-.315-.321.26-.38v.193c.26.062.515.125.776.192v-.38c-.297-.219-.103 0-.26-.38.666.09 1.144.184 2.064.193.37-.407.679-.385 1.29-.572l-.26-.572h1.035v-.192h.26v.192h.516v-.38c1.465-.031.963-.295 1.81-.572h1.036v-.192c.297-.219.103 0 .26-.38h.776v.38h.514c.212-.612.303-.554 1.29-.572v.38c.606-.205.842-.438 1.55-.572v-.572h.515v-.38c1.363.005 2.041-.223 3.101-.38.188.528.073.425.775.573a28.91 28.91 0 0 0-.26-.572h.26c.285-.268.902-.559 1.29-.764V9.53h.775v.192h.26v.572h.261c.085-.76.267-.88 1.29-.952v.192c.345.09-.097-.12.26-.192 1.036-.125 2.066-.255 3.101-.38-.26-.594-.145-.29 0-.951.63-.108.57-.197 1.036-.38v.192h.26c.206.281-.26.38-.26.38l.26.38c.594-.367.327-.572 1.29-.764.085-.193.17-.38.26-.572.74.223 1.218.362 2.326.38.26-.38.515-.765.775-1.144h.515l.26.38 1.811-.38V6.29h1.81l.261-.38h.515c.163-.523.34-.434.515-.952.345.063.69.125 1.035.192v-.19c.285-.17.055.031.26-.192h-.26c-.254-.317.37-.16.515-.192v-.192c.26.062.515.125.775.192-.084.125-.17.255-.26.38h.26c.812-.688 1.52 0 2.586.192.176-.25.321-.206.515-.38l-.26-.38h.514v-.192l.515-.192c.036-.268-.055.031-.26-.192l.26-.38c.872.134.993.416 1.81.572v-.572c.71.12.588.25 1.29.38V3.24c.285.063.51.34 1.036.192V3.24h.776v-.192c.514-.317 1.035-.634 1.55-.952v-.38h.514v.193c.358.053-.048-.04.26-.192l.516.192-.26.572c1.44.08 2.173.34 3.1-.38-.509-.215-.606-.268-.775-.764l.775-.192c.085.125.17.254.26.38h.515V.758c.563.08.739.126 1.036.38l1.55-.38-.26-.38h1.29V0l.127.045Zm-2.58 2.859v.38h.26v-.38h-.26Zm230.219.38v.38h.26v-.38h-.26Zm-229.444.572v.38h.26v-.38h-.26Zm-3.615.38v.38h.26v-.38h-.26Zm226.597.571c.297.22 0 .076.515.192-.297-.219 0-.076-.515-.192ZM288.217 5c.297.22 0 .076.515.192-.297-.218 0-.075-.515-.192Zm-217.816.572c.024.648 0 .693.515.952V6.33h-.26v-.764h-.261l.006.004Zm213.941.192c.296.22 0 .076.514.192-.296-.218 0-.076-.514-.192Zm-28.167.188v.38h.261v-.38h-.261Zm18.089.192-.26.38s.751-.304.515-.38h-.261.006Zm26.611 0h.514c-.218.215.031.027-.26.192v.192c-.297-.219-.103 0-.261-.38l.007-.004Zm-228.67.192c.297.22 0 .076.516.192-.297-.219 0-.076-.515-.192Zm144.957.188v.38h.261v-.38h-.261Zm-142.11.764v.192h-.26c-.49.165.514.192.514.192.219-.214-.03-.027.26-.192-.296-.219 0-.076-.514-.192Zm198.437 0v.192h-.26c-.491.165.515.192.515.192.218-.214-.031-.027.26-.192-.297-.219 0-.076-.515-.192Zm66.144 0v.192h-.261c-.49.165.515.192.515.192.218-.214-.03-.027.261-.192-.297-.219 0-.076-.515-.192Zm-173.117.192v.38h.26v-.38h-.26Zm-63.818.188v.38h.26v-.38h-.26Zm66.144 0v.38h.26v-.38h-.26Zm47.8 0c.436.41.514.38.514.38.188-.184-.448-.336-.514-.38Zm66.149 0c.436.41.515.38.515.38.188-.184-.448-.336-.515-.38Zm18.344 0v.38h.26v-.38h-.26Zm47.8 0c.436.41.515.38.515.38.187-.184-.448-.336-.515-.38ZM65.229 8.05h-.514v.192h.26v.192h.26v-.38l-.006-.004Zm3.361 1.144h.515c-.085-.255-.17-.51-.26-.764h-.26v.764h.005Zm198.437 0h.515l-.26-.764h-.261v.764h.006Zm66.144 0h.515l-.26-.764h-.261v.764h.006ZM65.751 8.81v.764h.26V8.81h-.26Zm66.143 0v.764h.26V8.81h-.26Zm132.293 0v.764h.261V8.81h-.261Zm38.238.385v.571h.26c.261-.344.57-.567 1.036-.764V8.81h-.515c-.291.326-.164.26-.775.38l-.006.005Zm27.906-.385v.764h.26V8.81h-.26Zm-148.051.192v.38h.26v-.38h-.26Zm66.143.38h.515V9.19c-.29-.16-.036.022-.26-.192h-.261v.38l.006.004Zm-144.435-.187v.571h.26v-.571h-.26Zm66.143 0v.571h.261v-.571h-.261Zm113.175.76c.188.526.073.424.775.57.164-.522.339-.432.515-.95h-.26c-.327.361-.261.317-1.036.38h.006Zm2.325-.38v.38c.679-.014.879-.077 1.29-.193V9.57h-1.29v.004Zm-136.423.191v.572h.26v-.192c.291-.16.037.022.261-.192l-.515-.192-.006.004Zm66.144 0v.572h.26v-.192c.291-.16.036.022.26-.192l-.514-.192-.006.004Zm66.143 0v.572h.261v-.192c.29-.16.036.022.26-.192l-.515-.192-.006.004Zm66.15 0v.572h.26v-.192c.291-.16.037.022.261-.192l-.515-.192-.006.004Zm-165.626.188v.38h.261v-.38h-.261Zm119.891 0c.436.411.515.38.515.38.188-.183-.448-.335-.515-.38Zm-136.684.384v.572h-.515v.38l.515-.192.26-.572c.291-.16.037.022.261-.192h-.515l-.006.004Zm10.852 0v.38h.261v-.38h-.261Zm66.144 0v.38h.26v-.38h-.26Zm40.569.38h-.775v.38h.515c.242-.344.357-.3.515-.764h-.261v.38l.006.004Zm25.575-.38v.38h.26v-.38h-.26Zm-164.584.76v-.38c-.291.16-.037-.022-.261.192h-.26c.297.22 0 .076.515.192l.006-.004Zm65.368-.38v.572h.261c.296-.219 0-.076.514-.192v-.38h-.775Zm36.687.38v-.38h-.775v.192h.261c.297.22 0 .076.514.192v-.004Zm30.232 0v-.38c-.291.16-.036-.022-.26.192h-.261c.297.22 0 .076.515.192l.006-.004Zm20.415-.38v.38c.291-.161.036.022.26-.192h.261c-.297-.22 0-.076-.515-.192l-.006.004Zm36.687.192v.38h.261v-.38h-.261Zm-171.046.76h.515c-.218-.215.03-.027-.26-.192v-.38h-.261v.572h.006Zm-72.866-.38v.38h.26v-.38h-.26Zm66.15 0v.572h.261v-.572h-.261Zm132.288 0v.38h.26v-.38h-.26Zm50.386 0c.296.219.103 0 .26.38h-.26v-.38Zm15.763 0v.38h.261v-.38h-.261Zm-300.76.192v.38h.261v-.38h-.26Zm66.145 0v.38h.26v-.38h-.26Zm132.293 0v.38h.261v-.38h-.261Zm66.144 0v.38h.26v-.38h-.26Zm-182.413.188c.024.04.369.692.515.572v-.193h.26c-.224-.196-.448-.263-.775-.38Zm66.658.956h.515v-.38h-.515l.261-.38a47.106 47.106 0 0 1-.775-.192v.192c.351.224.393.349.514.764v-.004Zm-68.208-.764.26.572h.26c-.157-.456-.084-.353-.514-.572h-.006Zm66.143 0c.085.192.17.38.261.572h.26c-.157-.456-.085-.353-.515-.572h-.006Zm4.912 0h-.515c.218.214-.03.027.26.192v.192h.261v-.38l-.006-.004Zm102.061.764h.515v-.38h.261c-.085-.125-.17-.255-.261-.38-.29.161-.036-.022-.26.192h-.261v.572l.006-.004Zm-215.75-.572c.296.219 0 .076.514.192-.297-.219 0-.076-.515-.192Zm43.923 0v.572h.261v-.572h-.261Zm66.144 0v.572h.261v-.572h-.261Zm4.912 0h-.515c.218.214-.03.027.26.192v.192h.261v-.38l-.006-.004Zm29.971 0v.572h.26v-.572h-.26Zm66.149 0v.572h.261v-.572h-.261Zm-261.486.188v.38h.26v-.38h-.26Zm12.143 0v.38h.26v-.38h-.26Zm66.149 0v.38h.261v-.38h-.261Zm17.308.384v-.38c-.29.16-.036-.022-.26.192h-.26c.296.22 0 .076.514.192l.006-.004Zm48.836-.384v.38h.26v-.38h-.26Zm19.894 0v1.143h.26v-1.143h-.26Zm33.072 0v.38h.26v-.38h-.26Zm1.035 0v.38h.261v-.38h-.261Zm12.143 0v.38h.26v-.38h-.26Zm52.972 0v.38h.26v-.38h-.26Zm1.035 0v.38h.261v-.38h-.261Zm12.142 0v.38h.261v-.38h-.261Zm-271.042.192c.297.219 0 .076.515.192-.297-.22 0-.076-.515-.192Zm66.144 0c.296.219-.001.076.514.192-.296-.22 0-.076-.514-.192Zm198.437 0c.296.219 0 .076.515.192-.297-.22-.001-.076-.515-.192Zm-180.094.38.261.571h.26c-.157-.455-.085-.353-.515-.572h-.006Zm66.15 0c.085.191.17.38.26.571h.261c-.158-.455-.085-.353-.515-.572h-.006Zm16.793.192v.38h.261v-.38h-.261Zm-163.3.951c-.188-.527-.073-.424-.775-.572.085.255.17.51.26.764h.776v.192c.363.036-.097-.134.26-.192h1.035v-.764c-.29-.16-.036.023-.26-.192h-.515v.192h.26c.085.344-.641.5-1.035.572h-.006Zm33.593-.76-.26.38s.75-.303.514-.38h-.26.006Zm198.437 0-.26.38s.75-.303.514-.38h-.26.006Zm-242.622.952h.515v-.192c-.29-.16-.036.022-.26-.192h-.261v.38l.006.004Zm9.042-.38v.38c.29-.16.036.023.26-.192h.26c-.296-.219 0-.076-.514-.192l-.006.005Zm57.102.38h.515v-.192c-.291-.16-.037.022-.261-.192h-.26v.38l.006.004Zm9.048-.38v.38c.29-.16.036.023.26-.192h.26c-.297-.219 0-.076-.514-.192l-.006.005Zm66.143 0v.38c.291-.16.036.023.261-.192h.26c-.297-.219 0-.076-.515-.192l-.006.005Zm123.252.38h.515v-.192c-.291-.16-.037.022-.261-.192h-.26v.38l.006.004Zm9.042-.38v.38c.29-.16.036.023.26-.192h.26c-.296-.219 0-.076-.514-.192l-.006.005ZM44.82 14.914v-.38l-.775.193.26.764h-.26v.192c-.605.062-1.205.125-1.81.192v.38c.339.035 1.604.232 1.81.192l.26-.38.776.192c.085-.317.17-.634.26-.952h.26c.297-.218 0-.075.515-.192v.38h1.29v-.38h.515c-.17-.38-.345-.764-.514-1.144h-.26l-.261.572c-.37.193-1.49.344-2.066.38v-.009Zm29.196-.956v.572h.26v-.572h-.26Zm-34.622.384v.38h.26v-.38h-.26Zm40.31 0v.38h.26v-.38h-.26Zm25.834 0v.38h.26v-.38h-.26Zm66.144 0v.38h.26v-.38h-.26Zm76.741 0c.297.22 0 .076.515.193-.297-.22 0-.076-.515-.193Zm29.717 0v.38h.261v-.38h-.261Zm25.835 0v.38h.261v-.38h-.261Zm-234.87.188c.297.219.103 0 .26.38h-.26v-.38Zm65.889.192c.291.326.164.26.776.38-.224-.197-.449-.264-.776-.38Zm29.457.38h.515v-.192c-.291-.161-.037.022-.261-.192h-.26v.38l.006.004Zm-95.86-.188h.514v.192c-.52-.107-.224.023-.515-.192Zm72.09 0c.297.22.103 0 .26.38h-.26v-.38Zm69.505.76h-.515v-.764h-.26v.192c-.297.219-.103 0-.261.38.261.125.515.254.775.38.218.214-.03.026.261.191v-.38Zm-71.83-.572v.38h.26v-.38h-.26Zm-84.754.384v.38h.26v-.38h-.26Zm66.149 0v.38h.261v-.38h-.261Zm57.103.188c.296.219-.001.076.514.192-.296-.219 0-.076-.514-.192Zm-91.73.572v-.38c-.291.16-.037-.023-.261.192h-.26c.296.219 0 .076.514.192l.006-.004Zm132.293 0v-.38c-.291.16-.037-.023-.261.192h-.26c.297.219 0 .076.515.192l.006-.004Zm-155.288.384v.38h.26v-.38h-.26Zm5.171 0v.38h.26v-.38h-.26Zm-19.379.188v.38h.26v-.38h-.26Zm20.67.384c-.013.773-.122.822.514 1.143v-.192c-.436-.41.2-.92.515-1.335h-.26c-.291.326-.164.259-.776.38l.006.004Zm4.65-.384c.297.218 0 .075.515.192-.297-.22 0-.076-.515-.192Zm13.433 0c-.085.192-.17.38-.26.571h.26v-.192c.109-.111.423-.027.26-.38h-.26Zm27.391 0v.38h.26v-.38h-.26Zm86.819.384c-.012.773-.121.822.515 1.143v-.192c-.436-.41.199-.92.514-1.335h-.26c-.291.326-.164.259-.775.38l.006.004Zm4.651-.384c.296.218 0 .075.515.192-.297-.22 0-.076-.515-.192Zm-115.5.192v.38h.26v-.38h-.26Zm28.941.38h.515v-.193c-.291-.16-.036.023-.26-.192h-.261v.38l.006.004Zm37.208-.38v.38h.261v-.38h-.261Zm22.995 0c.297.218.103 0 .261.38h-.261v-.38Zm-56.848.192c-.084.125-.169.254-.26.38l.515.192c.187-.228-.545-.166 0-.572h-.261.006Zm-31.782.187-.26.572h.26v-.38h.26v-.192h-.26Zm66.15 0-.26.38s.751-.304.514-.38h-.26.006Zm-135.654.764h.514v-.192c-.29-.16-.036.023-.26-.192h-.26v.38l.006.004Zm145.471 0h-.515c.218.215-.03.027.261.192v.193h.26v-.38l-.006-.005Zm-136.684.38v.38h.26v-.38h-.26Zm37.208 0v.764h.26v-.192h.26c-.084-.125-.169-.255-.26-.38h.26c-.296-.219 0-.076-.514-.192h-.006Zm95.085 0v.38h.261v-.38h-.261Zm39.013 0c-.297.22 0 .076-.515.192v.192h.515c.085-.125.17-.254.261-.38h-.261v-.004Zm-120.405.572-.26.38s.75-.304.514-.38h-.26.006Zm-9.817.384v.38h.26v-.38h-.26Zm5.686 0v.38h.26v-.38h-.26Zm-12.148.38h.515c-.212.25-.182.223-.515.38v.192h-.26l.26-.572Zm9.048 0-.26.38s.75-.304.514-.38h-.26.006Zm-19.9.764v.38h.26v-.38h-.26Zm-19.894.952v.38h.26v-.38h-.26Zm5.686.192v.572h1.036v.38h.775c.212-.25.182-.224.515-.38v-.572c-1.078.138-1.084.049-2.326 0Zm-20.93.38c.298.218 0 .075.516.192-.297-.22 0-.076-.515-.192Zm53.487.192v.38h.26v-.38h-.26ZM7.867 25.395c-.085.192-.17.38-.26.571h.26v-.38h.26v-.191h-.26Zm33.332.192v.38h.26v-.38h-.26Z" fill="#FDE6AD"/></svg>