<svg width="107" height="25" viewBox="0 0 107 25" fill="none" xmlns="http://www.w3.org/2000/svg">
<mask id="mask0_1293_10931" style="mask-type:alpha" maskUnits="userSpaceOnUse" x="0" y="0" width="107" height="25">
<rect x="0.232666" y="0.918945" width="106" height="24" fill="#FDE6AD"/>
</mask>
<g mask="url(#mask0_1293_10931)">
<path fill-rule="evenodd" clip-rule="evenodd" d="M-34.6858 2.95283C-33.9996 3.09857 -33.8981 3.47138 -33.1004 3.53239C-32.9854 3.31208 -32.8131 2.98331 -32.3804 3.09855V3.24431C-32.012 3.37988 -32.2181 3.09858 -31.9477 3.39006H-31.8024V3.96962L-31.515 4.11534V4.40347H-31.3697C-31.3224 4.54921 -31.2751 4.69153 -31.2244 4.83727H-31.8024V5.27111C-32.2013 5.37618 -32.1235 5.31179 -32.2351 5.70495C-32.7387 5.82697 -32.9077 6.07101 -33.5331 6.13879C-33.5229 6.5184 -33.4756 6.63024 -33.3877 6.86072C-33.8812 6.82344 -34.5201 6.74546 -34.5404 6.71496V7.00304H-34.395C-33.9387 7.00643 -34.8277 7.1488 -34.8277 7.1488C-35.0103 6.92172 -35.213 6.7963 -35.5477 6.71496C-35.764 7.10812 -36.048 7.33182 -36.5584 7.43688V7.1488L-36.8457 7.29452C-36.9303 7.51482 -36.9573 7.5318 -36.9911 7.87412C-37.2953 7.89784 -37.8632 8.0029 -38.0018 8.1622C-38.1775 8.36556 -37.8734 8.32151 -38.2891 8.59604V8.01644H-38.4345V8.59604H-38.8671V8.30792C-39.0869 8.39265 -39.1038 8.41979 -39.4452 8.45368V8.1656L-39.8778 8.31131C-39.9725 8.55873 -40.0164 8.7655 -40.0232 9.179H-40.7432C-40.7432 9.179 -40.8886 9.40946 -41.0306 9.46708V9.61284H-41.1759V9.32471H-41.4632V9.179H-41.6086V9.32471H-42.0413V9.47047C-42.2914 9.69417 -42.3454 10.1483 -42.4739 10.4839C-43.0046 10.433 -43.4238 10.2297 -43.7719 10.6296C-43.8193 10.7754 -43.8666 10.9177 -43.9173 11.0634C-44.3026 11.1109 -44.688 11.1584 -45.07 11.2092V11.3549L-45.3573 11.5007V11.7888L-45.79 11.643L-45.9353 11.9311H-46.368C-46.3916 11.9447 -46.537 12.148 -46.6553 12.2192V12.365C-46.8953 12.3175 -47.1353 12.27 -47.3753 12.2192V12.0735C-47.4598 12.0633 -47.8689 12.3175 -48.0953 12.3616C-48.1934 12.6361 -48.2813 13.2461 -48.3827 13.5173L-48.8153 13.3716V13.2258C-49.0147 13.1885 -48.7579 13.3309 -48.9607 13.3716C-49.3055 13.4394 -49.3325 13.2631 -49.5387 13.2258L-49.826 13.6597H-50.4041V13.8054L-50.8367 13.9511V14.385H-50.5494V14.5307H-50.6947C-50.7725 14.5985 -51.8509 14.8968 -51.8475 14.5307H-51.9928V14.8188L-52.7128 14.6731C-52.706 15.1916 -52.7466 15.5848 -53.0001 15.8288V15.6831H-53.1454V15.1035H-53.4328C-53.4429 15.4831 -53.4902 15.595 -53.5781 15.8254C-53.879 15.7373 -54.1663 15.6628 -54.4435 15.9712V16.2593H-54.5888V16.405L-55.4542 16.2593C-55.5015 16.3542 -55.5488 16.4525 -55.5995 16.5474C-55.7922 16.5948 -55.9849 16.6423 -56.1776 16.6931V16.9812H-56.7556V17.2693C-57.1004 17.2015 -57.2086 17.1032 -57.4756 16.9812V17.7031C-57.8136 17.7506 -58.1483 17.798 -58.4863 17.8488V17.9946C-58.9088 18.0929 -58.9595 18.1539 -59.0643 18.5742C-58.8615 18.5843 -59.0846 18.5505 -58.919 18.4284C-58.6925 18.2624 -58.7838 18.7843 -58.7737 18.8622C-59.0204 19.0249 -58.9697 18.9538 -59.0609 19.2961C-58.8683 19.2486 -58.6756 19.2012 -58.4829 19.1504L-58.3376 18.8622C-58.3106 18.8589 -57.9996 18.9978 -57.7596 19.008V18.7199C-57.6142 18.7674 -57.4722 18.8148 -57.3269 18.8656L-57.1815 18.5776C-57.0057 18.4928 -56.759 18.4996 -56.6035 18.4318V17.8522C-56.2621 17.7946 -55.8092 17.5777 -55.3055 17.7065V17.8522H-54.7274V17.7065H-54.4401V17.1269H-54.1528V17.415C-53.7201 17.3201 -53.2875 17.2218 -52.8548 17.1269L-52.7094 17.2727C-52.3139 16.9948 -52.5776 16.7779 -51.8441 16.6931C-51.6785 16.8592 -51.8441 16.7507 -51.5567 16.8388V16.405L-50.8367 16.2593V15.9712C-50.3601 16.0491 -50.181 16.1542 -49.9714 15.9712H-49.826C-49.6435 15.7475 -49.9815 15.6797 -49.6807 15.5374V15.6831H-49.5353V15.2493C-49.2176 15.1984 -48.7883 15.0595 -48.3827 15.2493C-48.3354 15.3442 -48.288 15.4424 -48.2373 15.5374H-47.95V15.2493C-47.6593 15.3306 -47.8249 15.2323 -47.6626 15.395L-47.23 15.2493V15.1035H-46.7973C-46.7026 14.9578 -46.6046 14.8154 -46.51 14.6697C-46.27 14.7171 -46.03 14.7646 -45.79 14.8154V14.9611C-45.6852 14.9815 -45.2593 14.8324 -44.7793 14.8154L-44.9246 14.3816H-44.6373V14.5273H-44.0593L-43.9139 14.6731V14.5273L-43.4813 14.3816C-43.4914 14.002 -43.5387 13.8901 -43.6266 13.6597H-42.7612C-42.5956 13.4936 -42.7612 13.6021 -42.4739 13.5139C-42.3623 13.0801 -42.386 13.1343 -41.8959 13.0801C-41.7336 13.3275 -41.8046 13.2767 -41.4632 13.3682C-41.3178 13.0055 -41.1657 12.6124 -40.8852 12.7886H-40.7398V13.2224H-40.4525C-40.3477 12.8225 -40.4119 12.9005 -40.0198 12.7886V12.6429L-39.1545 12.4971C-39.1545 12.4971 -39.0902 12.7073 -38.8671 12.6429L-38.7218 12.3548H-38.2891V12.0667L-38.0018 12.2124V12.3582C-37.8125 12.4293 -37.9714 12.2904 -37.8564 12.2124C-37.4948 12.1141 -37.6232 12.1379 -37.4238 11.9243H-37.2784V11.6362L-36.9911 11.4905C-36.8221 11.3075 -36.7477 11.0702 -36.5584 10.9109V11.0567H-36.1258C-36.0785 11.2499 -36.0311 11.4431 -35.9804 11.6362H-35.835C-35.4835 11.0465 -35.0272 11.1007 -34.2497 10.9143C-34.2058 10.9042 -34.2125 10.7143 -33.9624 10.7686V10.9143C-33.675 11.0092 -33.3843 11.1075 -33.097 11.2024V11.0567H-32.9517L-33.097 10.6228C-33.0023 10.5754 -32.9044 10.5279 -32.8097 10.4771C-32.6103 10.1754 -32.8739 10.2737 -32.5224 10.0432V9.89753L-31.8024 9.75177C-31.8801 10.1551 -31.9139 9.76534 -31.8024 10.1856H-31.657V9.89753C-31.3697 9.94498 -31.079 9.99241 -30.7917 10.0432V9.89753C-30.6362 9.76535 -30.7646 9.92124 -30.6463 9.75177H-30.7917V9.60605H-30.359C-30.3286 9.94837 -30.2982 9.96531 -30.2137 10.1856C-30.048 10.0195 -30.1562 10.1856 -30.0683 9.89753C-29.9026 9.73145 -30.0108 9.89754 -29.9229 9.60945C-29.4903 9.46371 -29.0576 9.32134 -28.6249 9.1756L-28.4795 9.32136C-28.4322 8.85364 -28.3477 8.8977 -28.1922 8.59944H-27.9049V8.74515H-27.7596V8.59944H-27.1815L-27.0362 8.1656C-26.6609 8.31811 -26.4277 8.42995 -25.8835 8.45368C-25.9308 8.35878 -25.9781 8.2605 -26.0288 8.1656C-25.9308 8.0063 -25.2176 7.96223 -25.0181 7.73175L-25.1635 7.44367H-25.0181V7.29791C-24.6362 7.46738 -24.4739 7.57583 -23.8655 7.58599V7.44028H-24.0108V7.00644C-23.5545 7.10134 -23.7201 7.22673 -23.5781 7.29452C-23.4091 7.28435 -23.0643 7.00306 -22.7128 7.1488L-22.5674 7.43688H-22.2801C-22.4187 7.91478 -22.4153 8.28759 -22.1348 8.73837H-22.2801C-22.4457 8.90445 -22.2801 8.79601 -22.5674 8.88413V9.60605H-22.7128C-22.75 9.84669 -22.5776 9.85685 -22.5674 9.89414V10.6161C-23.0846 10.6364 -23.3854 10.8228 -23.7201 10.9041L-24.0074 10.7584C-24.1021 10.9042 -24.2001 11.0465 -24.2948 11.1922C-24.3759 11.2261 -25.0824 11.0838 -25.3055 11.0465C-25.3934 11.4261 -25.7145 11.8125 -26.1708 11.7684C-26.1708 11.7684 -26.2486 11.5854 -26.4581 11.6227L-26.3128 11.9108H-26.8908C-26.9382 12.1514 -26.9855 12.392 -27.0362 12.6327L-27.7562 12.487L-27.9015 12.7751C-28.2903 12.8733 -28.2801 12.4971 -28.3342 12.487L-28.7669 12.6327L-28.6215 12.7784C-28.6147 12.8361 -28.75 13.1038 -28.7669 13.358C-29.2469 13.4055 -29.7269 13.4529 -30.2103 13.5038V13.2157C-30.5517 13.1852 -30.5686 13.1547 -30.7883 13.0699V13.5038C-30.8187 13.5648 -31.7787 14.2325 -31.221 14.5172H-31.6536V14.3714C-31.7922 14.1037 -31.799 14.6595 -31.799 14.6595C-31.9613 14.7815 -31.8193 14.6426 -31.9443 14.8052C-31.5387 14.6697 -31.5421 14.6527 -31.079 14.8052V14.951L-30.6463 14.8052L-30.7917 14.6595L-30.6463 14.2257C-29.9702 14.4867 -29.524 14.3104 -29.0609 13.9376C-29.0136 13.8427 -28.9663 13.7444 -28.9156 13.6495H-28.1956C-28.1956 13.6495 -28.2091 13.5648 -27.9083 13.5038V13.9376H-27.763V13.6495C-27.1478 13.6393 -26.8063 13.619 -26.4649 13.3614L-26.3196 13.0733C-26.0796 13.1208 -25.8395 13.1682 -25.5995 13.2191C-25.7652 13.053 -25.5996 13.1614 -25.8869 13.0733V12.7852C-25.7415 12.8327 -25.5996 12.8801 -25.4542 12.9309V12.6429H-25.1669V12.9309C-24.3319 12.8632 -23.7336 12.3921 -23.1488 12.0633V12.4971H-22.8616V12.209H-21.8508V12.0633H-21.4182V11.9175C-21.1309 11.965 -20.8401 12.0125 -20.5528 12.0633C-20.4311 11.9006 -20.5697 12.043 -20.4075 11.9175V11.338C-20.1202 11.2905 -19.8294 11.2431 -19.5421 11.1922C-19.5894 11.338 -19.6367 11.4803 -19.6874 11.6261H-19.5421V11.7718C-19.3798 11.6498 -19.5218 11.7888 -19.3968 11.6261C-19.2311 11.46 -19.3392 11.6261 -19.2514 11.338C-19.0249 11.3482 -18.2407 11.4837 -18.2407 11.4837V11.338H-18.0953V10.9041C-17.9365 10.7008 -17.4463 10.755 -17.0846 10.7584V10.9041L-16.2193 10.7584V10.6127H-15.932V10.4669H-15.4993L-15.6446 10.9008H-15.4993C-15.3945 10.5008 -15.4587 10.5788 -15.0666 10.4669V10.755C-14.9213 10.7076 -14.7793 10.6601 -14.6339 10.6093V10.4636C-14.2959 10.4161 -13.9613 10.3686 -13.6232 10.3178V10.172H-13.1905L-13.0452 9.88396C-12.9235 9.83651 -12.0953 10.0365 -11.8925 10.172V9.88396L-11.4598 9.73824V9.59248C-11.2637 9.53148 -11.5173 9.69757 -11.3145 9.73824C-11.0745 9.78569 -11.0576 9.59926 -11.0272 9.59248C-10.7635 9.53825 -10.4694 9.78228 -10.3072 9.88057V9.73485C-9.85757 9.32474 -10.2733 9.12138 -9.44178 9.01292V9.15864H-9.00909L-9.1545 9.44677C-8.96859 9.68063 -8.88407 9.28744 -8.72182 9.88057C-8.53252 9.72805 -8.50547 9.58573 -8.28913 9.44677V9.88057H-8.00178C-8.0491 9.59247 -8.09648 9.30101 -8.14719 9.01292C-7.47113 8.78245 -7.66041 9.12477 -7.28181 8.291H-7.13648C-7.15339 8.59943 -7.28519 8.78582 -7.28181 8.87056L-7.13648 9.01632C-6.87283 8.83329 -7.11952 8.81974 -6.99107 8.72823C-6.82544 8.60622 -6.89983 8.86039 -6.84574 8.87395C-6.70039 8.8265 -6.55841 8.77907 -6.41306 8.72823V8.44011C-6.08855 8.38249 -5.8587 8.20288 -5.40236 8.29439C-5.40236 8.29439 -5.39565 8.48417 -5.11508 8.44011V8.29439H-4.39504V8.44011C-4.73983 8.52823 -4.66209 8.48759 -4.82773 8.72823H-4.54037C-4.1246 8.0402 -3.4317 8.28084 -2.66438 8.00631L-2.51897 7.57247C-2.10658 7.57247 -1.90035 7.62328 -1.65359 7.71818V7.13862H-1.50826C-1.41362 7.28436 -1.31564 7.42672 -1.22099 7.57247H-1.07558L-1.22099 7.86055H-1.07558V8.00631C-0.663185 8.30457 -0.703766 7.74869 -0.497566 8.44011H-0.210289V8.72823H0.0770645C0.0297394 8.87397 -0.0175552 9.01629 -0.0682602 9.16203H0.0770645C0.175095 9.37895 0.178452 9.4027 0.222397 9.74163H0.50975V10.0297C0.732849 10.1585 0.810608 10.2433 0.942436 10.4636C1.40892 10.2094 1.21626 10.1178 1.80781 10.3178L1.6624 9.88396H1.94975V9.59588H2.23703V9.74163H2.38244V9.59588L2.81512 9.74163L2.66972 10.1754H2.95707C3.06186 9.7755 2.99764 9.85348 3.38976 9.74163C3.60609 9.48744 3.77852 9.46707 4.25513 9.45351V9.16543C4.54246 9.07053 4.8331 8.97224 5.12042 8.87734C5.13057 9.25695 5.17795 9.36879 5.26584 9.59927C5.42809 9.47725 5.28609 9.6162 5.41116 9.45351H5.5565V9.01971C5.98917 9.06716 6.42188 9.11459 6.85455 9.16543V8.87734H7.14183L7.28724 8.4435C7.47991 8.49095 7.67258 8.53842 7.86525 8.58926C7.91257 8.49436 7.95988 8.39608 8.01058 8.30118L8.73063 8.44689V8.73498C9.09908 8.51128 9.72443 7.83682 10.174 8.15542H10.4613V8.4435H10.6066V8.15542C11.2996 8.11813 11.303 8.05374 11.9047 8.15542C11.952 7.91478 11.9993 7.67413 12.05 7.43349C12.7159 7.30809 13.2196 7.30809 13.6354 7.43349V7.14541H14.5007V7.29113H14.9334V7.43688C15.0787 7.38943 15.2207 7.34197 15.3661 7.29113V7.14541C15.2004 6.97933 15.3086 7.14542 15.2207 6.85733C15.694 6.86749 15.6466 7.04035 15.9407 6.85733L16.0861 6.5692L16.9514 6.85733V7.14541C17.3401 7.14541 17.7694 7.19284 17.9621 6.99965V6.71157L18.2495 6.85733V6.71157C18.5368 6.66412 18.8275 6.61669 19.1148 6.56585C19.2501 6.65397 19.0641 6.77257 19.2602 6.71157L19.4055 6.42348C19.588 6.42348 19.774 6.68105 20.1255 6.5692V6.42348C20.3655 6.37603 20.6055 6.32856 20.8455 6.27772L20.7002 6.71157H20.8455C21.1666 7.06067 21.116 6.91494 21.5655 6.85733C21.5486 7.31488 21.285 7.12844 21.7109 7.29113C21.7751 7.65039 21.8427 7.82329 21.8562 8.30457C21.4573 8.40964 21.5351 8.34521 21.4235 8.73837H21.2782V9.46029C20.9334 9.52808 20.8253 9.62636 20.5582 9.74838V9.31458H20.4128C20.1999 10.1246 20.1627 9.61282 19.6929 9.89414V10.0399L19.1148 10.4737C19.1622 10.328 19.2095 10.1856 19.2602 10.0399H19.1148C19.027 10.2704 18.9863 10.3822 18.9694 10.7618C18.4252 10.8771 18.1616 11.0431 17.3841 11.0499V10.7618H17.0968V11.0499H16.3768V11.1956H16.5221C16.4308 11.4024 16.3531 11.3041 16.2348 11.4837H15.9475L16.0929 11.1956H15.9475C15.8055 11.3922 15.863 11.4803 15.5148 11.4837C15.5148 11.4837 15.4134 11.277 15.2275 11.338C15.1802 11.4329 15.1328 11.5312 15.0821 11.6261H14.7948L14.6495 12.4938L14.0714 12.6395V12.0599H13.7841C13.6793 12.5242 13.588 12.5852 13.0641 12.6395L13.2095 12.2056H13.0641C13.01 12.3717 13.0236 12.7208 12.7768 12.6395L12.6314 12.2056C12.486 12.2531 12.3441 12.3005 12.1988 12.3514V12.6395C11.9689 12.5513 11.8573 12.5107 11.4788 12.4938V12.0599H11.3334V12.4938C11.4991 12.6598 11.3909 12.4937 11.4788 12.7818C11.1407 12.8293 10.8061 12.8767 10.4681 12.9276V13.2157C9.95763 13.2699 10.0286 13.3953 9.60268 13.5038V13.9376C9.25113 13.8563 9.28495 13.7851 9.02467 13.6495V13.9376H8.87934V14.3714H9.02467V14.0833H9.31203V14.3714C9.55202 14.324 9.79198 14.2765 10.032 14.2257V14.6595H10.3193V14.2257C10.5593 14.2731 10.7993 14.3206 11.0393 14.3714C11.1069 14.0257 11.205 13.9172 11.3267 13.6495C11.7965 13.6529 12.3678 13.5851 12.6247 13.7952H12.77C12.8174 13.7003 12.8647 13.6021 12.9154 13.5072H13.2027V13.3614H13.49V13.2157L13.7774 13.3614V13.2157H15.2207C15.1734 13.0699 15.1261 12.9276 15.0754 12.7818H15.3627V12.6361H15.508V12.7818L15.9407 12.9276C15.9509 13.1309 15.9745 12.9682 15.7954 13.0733C15.9576 13.2258 15.7954 13.1377 16.0827 13.2191V13.0733H16.2281V12.6395H16.3734C16.4985 12.4395 16.4815 12.3887 16.5187 12.0599C16.8601 12.043 16.8839 12.0158 17.0968 11.9142V12.0599H17.2421V12.2056L17.0968 12.4938H17.5295V12.2056C17.8675 12.1582 18.2022 12.1108 18.5402 12.0599V12.2056H18.6855C18.8478 12.0904 18.6314 12.0159 18.8309 12.0599V12.2056H19.4089V12.4938H19.5543C19.6016 12.2057 19.6489 11.9142 19.6996 11.6261H19.9869V11.9142H20.1323V11.4804C20.4636 11.4939 20.5075 11.6023 20.7103 11.6261L20.8557 11.338C20.8557 11.338 21.2511 11.4735 21.4337 11.4837V11.1956L21.5791 11.3414C21.7718 11.2939 21.9644 11.2465 22.1571 11.1956V11.3414H22.8771V10.9075H23.1644V11.0533H23.3097V10.9075L23.5971 11.0533L23.7424 10.6195C24.1244 10.4771 24.0433 10.9347 24.3204 10.9075V10.7618C24.9526 10.6127 25.1148 10.4059 25.7638 10.328V10.4737H25.6185C25.3447 10.5991 25.9058 10.6195 25.9058 10.6195C26.0275 10.7821 25.8889 10.6398 26.0512 10.7652V10.4771L26.7711 10.3314C26.8185 10.2365 26.8658 10.1381 26.9165 10.0432L27.0619 10.189C27.9171 10.2432 28.0287 9.88737 28.5053 9.60945V10.0432H28.6506C28.8162 9.87717 28.6506 9.98565 28.938 9.89753V9.60945C29.0833 9.6569 29.2252 9.70432 29.3706 9.75516L29.516 9.46708H30.094V9.32136H30.2393C30.3272 9.66707 30.2867 9.58909 30.5267 9.75516V9.32136C31.2839 9.19935 31.1655 9.30441 31.8247 9.60945C31.899 9.27051 32.0342 9.06715 32.2573 8.88752C32.423 9.0536 32.2574 8.94512 32.5447 9.03324V8.74515H32.9774V8.45707C33.2174 8.50452 33.4573 8.55195 33.6973 8.60279V8.89091H33.9847V8.45707C34.2991 8.47741 34.4647 8.60279 34.5627 8.60279V8.45707L34.9954 8.31131C35.0427 8.40621 35.09 8.50454 35.1407 8.59944C35.6004 8.73501 36.29 8.29778 36.5841 8.1656L36.4388 7.73175H36.8715C36.9594 8.07746 36.9187 7.99952 37.1587 8.1656C37.2804 8.32828 37.1419 8.18591 37.3042 8.31131C37.3143 7.93171 37.3616 7.81986 37.4495 7.58939C37.7368 7.54194 38.0275 7.49451 38.3149 7.44367C38.4365 7.60636 38.2979 7.46398 38.4602 7.58939C38.3486 7.73513 38.2844 7.73177 38.1728 7.87751H38.6055L38.4602 7.44367L38.6055 7.29791C38.8185 7.3657 38.8354 7.46401 39.1835 7.44367V7.29791H39.3289V7.44367C39.5216 7.49112 39.7143 7.53855 39.907 7.58939V7.73515C40.4951 7.95884 40.7621 7.6301 41.0596 7.8809C41.5092 8.17916 41.1272 8.0673 41.347 8.46046L41.6342 8.60618V8.89431H41.7796C41.9115 9.09089 41.8878 9.14849 41.925 9.47387L41.347 9.32811C41.4619 9.79583 41.614 9.82635 41.6342 10.4839C41.472 10.6059 41.614 10.4669 41.4889 10.6296H41.3436C41.2996 10.1958 41.3233 10.2364 41.0562 10.05V10.1958H41.2015C41.1069 10.389 41.0089 10.5822 40.9143 10.7753C40.5391 10.7821 40.4173 10.8059 40.1942 10.9211V11.0668C39.9475 11.1516 39.9441 10.9313 39.907 10.9211C39.3898 10.7889 39.0619 11.1041 38.8963 11.3549H38.7508C38.7035 11.643 38.6562 11.9345 38.6055 12.2226H38.3182L38.1728 11.9345C37.9802 11.982 37.7875 12.0294 37.5948 12.0802C37.6252 12.4225 37.6556 12.4395 37.7401 12.6598C37.4055 12.6463 37.3717 12.5446 37.1621 12.5141L37.0168 12.8022C36.8241 12.8496 36.6315 12.8971 36.4388 12.9479C36.334 13.3478 36.3982 13.2699 36.0061 13.3818C35.4991 13.8393 35.0731 13.1987 34.9954 13.236V13.3818C34.7554 13.5275 34.5154 13.6698 34.2754 13.8156C34.3531 14.3206 34.4173 14.0833 34.2754 14.5375H34.4208V14.3918H34.9988V14.6798L35.4315 14.5341V14.3884L35.8642 14.5341V14.1003C36.0095 14.1477 36.1514 14.1952 36.2968 14.246V14.1003L36.1514 13.9545H37.0168C37.0641 14.1003 37.1114 14.2426 37.1621 14.3884C37.2568 14.3409 37.4495 14.1003 37.4495 14.1003C37.5948 14.1477 37.7368 14.1952 37.8822 14.246V14.1003C38.0951 13.9884 38.1222 13.9918 38.4602 13.9545V13.6664H38.7475V13.3784H39.3256V13.6664C39.6501 13.6292 39.7075 13.6529 39.9036 13.5207V13.375H40.1908V13.2292H40.4782V13.0835C40.7351 12.8767 40.823 12.7581 41.1982 12.6496V13.0835H41.7763C41.8236 12.8429 41.8709 12.6022 41.9216 12.3616H42.2089C42.1615 12.5073 42.1142 12.6497 42.0635 12.7954H42.2089C42.4151 12.5887 43.0134 12.426 43.3616 12.3616V12.0735C43.5543 12.026 43.7469 11.9786 43.9396 11.9277V11.4939H44.227V11.9277H44.5142V11.4939H45.2343C45.187 11.6396 45.1396 11.782 45.0889 11.9277H45.3762C45.525 11.7616 45.6433 11.6498 45.9542 11.6396V11.7854H46.0996L46.245 11.6396C46.3802 11.3787 46.4444 11.4125 46.5323 11.06L46.965 10.9143V10.7686L47.1103 10.9143L47.543 10.7686V11.2024H47.8303C47.8607 10.8601 47.8911 10.8432 47.9756 10.6228L48.263 10.7686V10.6228C48.4692 10.4432 48.4861 10.2229 48.6957 10.0432C48.7396 10.111 48.9898 10.5686 49.1284 10.4771L49.2737 10.0432C49.899 9.9958 50.5244 9.94837 51.1498 9.89753V10.0432C50.7509 10.1483 50.8286 10.0839 50.7171 10.4771C51.0754 10.4127 51.2478 10.3449 51.7278 10.3314V10.1856H51.5825V9.46369C51.8225 9.51114 52.0624 9.55861 52.3024 9.60945C52.3497 9.46371 52.397 9.32134 52.4478 9.1756C52.6134 9.34168 52.5053 9.1756 52.5932 9.46369L53.0258 9.60945V9.46369C53.3232 9.301 53.2861 9.24 53.7458 9.1756V8.74176C54.0534 8.72482 54.2393 8.59266 54.3238 8.59604L54.4691 8.74176V8.45368L55.1892 8.30792V8.59604C55.2838 8.54859 55.3818 8.50113 55.4765 8.45029V8.30457C55.7063 8.27745 55.6557 8.55537 55.7638 8.59265H56.3418C56.3892 8.35201 56.4366 8.11137 56.4873 7.87073C56.7272 7.91818 56.9672 7.9656 57.2072 8.01644L57.3525 7.72836H57.498V7.87412C57.6433 7.82667 57.7852 7.7792 57.9306 7.72836V7.44028C58.0962 7.60635 57.9881 7.44027 58.076 7.72836H58.3633C58.4308 7.38265 58.5289 7.27419 58.6506 7.00644C59.1306 7.01321 59.9487 7.15219 59.9487 7.15219V7.00644H60.2359V6.86072H60.6686C60.7159 6.76582 60.7632 6.66749 60.8139 6.57259C60.9593 6.62004 61.1013 6.66751 61.2466 6.71835V6.86411H61.9667V6.57599L62.5447 6.43027V6.71835H62.832C62.9232 7.1149 63.0213 7.04712 63.1193 7.44028H63.552C63.6568 7.84022 63.5926 7.76227 63.9847 7.87412V8.1622C63.1227 8.33845 63.2377 8.74176 62.974 9.46369H63.8394L63.9847 8.88413C64.5864 8.79262 64.3937 8.74179 64.9954 8.59604V8.88413C65.6782 8.59604 65.5768 8.59604 66.148 8.88413V8.59604C66.3407 8.54859 66.5334 8.50113 66.7261 8.45029V8.1622H67.0134V8.30792H67.1587V8.1622C67.4866 8.09781 67.5475 8.23674 67.7368 8.30792V8.1622H67.5914C67.3244 8.02324 67.8788 8.01644 67.8788 8.01644V7.72836H68.1661V7.44028C68.619 7.52501 68.8084 7.67413 69.3188 7.72836L69.4641 7.29452C69.4641 7.29452 69.1565 7.27082 69.3188 7.1488H69.6061V7.29452H70.4714V6.86072C70.9312 6.95562 70.7554 7.07424 70.9041 7.1488C71.1441 7.12508 71.1712 6.86411 71.1915 6.86072C71.4687 6.78276 71.3909 6.9556 71.4788 7.00644H71.6241V6.86072C71.8168 6.90817 72.0095 6.9556 72.2022 7.00644C72.307 6.6065 72.2427 6.68444 72.6348 6.57259V6.86072H73.2129C73.3481 6.59974 73.4123 6.63361 73.5002 6.28112L73.9328 6.42688V6.28112C74.0275 6.23367 74.1255 6.18624 74.2202 6.1354V6.42348H74.5075L74.3621 5.98964C74.7069 5.92185 74.8151 5.82357 75.0821 5.70156V6.28112C75.8325 6.08454 75.5959 5.96254 76.5255 6.1354V5.70156H76.9582V5.84732C76.8973 5.93205 76.7216 5.86764 76.8129 6.1354H76.9582C77.1914 5.24062 77.2658 5.89134 77.8235 5.5558C78.1514 5.35922 77.8134 5.02368 78.5436 4.83387V4.97963L78.9762 4.83387V5.122H79.1216V4.83387C79.632 4.8881 79.561 5.01354 79.9869 5.122V5.41008C80.1221 5.63717 81.0179 5.67784 80.565 6.13201H80.8523V6.71157L80.565 6.85733C80.5582 6.90478 80.7002 7.1793 80.7103 7.43688H80.9976C80.93 7.78259 80.832 7.89105 80.7103 8.15881C80.4534 8.17237 80.1898 8.31135 80.1323 8.30457V8.15881H79.5543V8.30457L78.6889 8.45029V8.73837C78.4962 8.83327 78.3036 8.93155 78.1109 9.02645V8.88074H77.9655V9.31458L76.9548 9.60266C77.1204 9.76874 76.9548 9.66026 77.2422 9.74838V9.89414C77.4957 10.0128 77.7052 9.80939 77.8202 9.74838V9.60266H78.2529V9.31458C78.9255 9.28068 79.0743 9.10443 79.5509 8.88074V8.73498H80.5616V8.88074H80.4162C80.2506 9.04681 80.4162 8.93833 80.1289 9.02645V9.31458C80.7171 9.14511 80.2811 9.18238 80.5616 8.88074L80.8489 9.02645V8.88074H81.1362V8.73498H81.5689C81.721 8.64685 81.9272 8.01984 82.2889 8.15542V8.30118H82.5762V7.86733C82.7216 7.91478 82.8636 7.96221 83.0089 8.01305V7.86733C83.2962 7.81988 83.5869 7.77242 83.8742 7.72158V8.00966H84.1616C84.2089 8.1554 84.2562 8.29776 84.3069 8.4435H84.4523V8.15542H84.7396C84.8241 7.61652 84.8241 7.82329 84.7396 7.28777C84.7835 7.30472 86.1289 7.60297 86.183 7.57586V7.4301H86.3283V6.85054H86.4737C86.7678 7.11491 87.1295 6.89121 87.6264 6.85054V6.56246C87.9171 6.6438 87.7515 6.54549 87.9137 6.70817C88.4444 6.55566 88.3092 6.41671 88.6337 6.12861V5.98286C88.9987 5.75577 89.7729 5.97269 90.3644 5.98286C90.4557 5.58631 90.5537 5.65409 90.6517 5.26093C91.2703 5.23721 91.1452 5.16943 91.5171 4.97285V5.40669H92.0951C92.1255 5.06437 92.1559 5.04744 92.2404 4.82713L92.6731 4.97285L92.8185 4.68476H93.1058V4.53901C93.2511 4.49156 93.3931 4.44413 93.5385 4.39329L93.6838 4.82713C94.0489 4.53226 93.7447 4.47802 94.4038 4.39329V4.53901C94.2382 4.67119 94.2348 4.64411 94.1165 4.82713H94.2619V4.97285C94.5627 4.81355 94.5188 4.73899 94.9819 4.68476C95.1035 4.84745 94.9649 4.70512 95.1272 4.83052C94.9582 5.10506 95.0055 4.96948 94.6945 5.11861V5.26432H94.9819C94.9345 5.55241 94.8872 5.84392 94.8365 6.13201H94.9819V6.27772H94.8365V6.56585C94.8839 6.90478 94.9312 7.24032 94.9819 7.57925H94.8365C94.7148 7.74533 94.7621 7.7826 94.5492 7.86733V7.72158H94.4038C94.3092 7.86732 94.2111 8.00968 94.1165 8.15542H93.6838L93.5385 8.4435C93.3458 8.49095 93.1531 8.53842 92.9605 8.58926C92.9131 8.735 92.8658 8.87736 92.8151 9.0231L92.3824 9.16882L92.237 9.4569H92.0917V9.31118C91.561 9.18578 91.3954 9.80261 91.081 9.4569V9.74503H90.7937C90.841 9.93822 90.8884 10.1314 90.9391 10.3246H90.7937C90.6315 10.572 90.7025 10.5212 90.361 10.6127C90.3475 10.5822 90.1548 10.0873 90.0737 10.1788V10.3246L89.7863 10.4703C89.739 10.616 89.6917 10.7584 89.641 10.9041H89.2083C88.7249 11.1414 89.019 11.2871 88.1976 11.338C88.2449 11.4837 88.2923 11.6261 88.343 11.7718C88.5357 11.7244 88.7284 11.6769 88.921 11.6261V12.0599H89.0664V11.9142H89.6444C90.0838 11.7481 90.2867 11.5109 90.9424 11.4804V11.1922C91.3515 11.1007 91.3244 10.9245 91.3751 10.9041H91.9531V11.0499L92.5312 10.9041C92.5312 10.9041 92.5954 11.0838 92.8185 11.0499V10.9041L93.3965 11.0499V10.9041C93.5622 10.7381 93.454 10.9042 93.5419 10.6161H93.3965V10.7618C93.2715 11.0364 93.2511 10.4737 93.2511 10.4737C93.7784 10.5211 94.3092 10.5686 94.8365 10.6195L94.9819 10.3314C95.1272 10.2873 95.2455 10.555 95.5599 10.4771V10.3314H96.2799V10.4771H96.4252V10.3314H97.0033L97.1486 9.89753H97.294L97.1486 9.60945H97.5813C97.7469 9.77552 97.5813 9.66704 97.8686 9.75516V9.46708C98.2134 9.53487 98.3215 9.63315 98.5886 9.75516V9.60945H98.4433C98.1762 9.47048 98.7306 9.46369 98.7306 9.46369V9.60945C98.8963 9.77552 98.7881 9.60944 98.8759 9.89753C99.1836 9.88058 99.3661 9.75177 99.454 9.75177V9.89753H99.7413C99.7819 9.63994 99.8867 9.60945 99.8867 9.60945C99.8393 9.46371 99.792 9.32134 99.7413 9.1756H99.8867V9.02985C100.296 9.21287 100.482 9.40268 101.039 9.46369V9.1756C101.881 8.98241 101.12 8.80956 101.905 9.1756V8.59604H102.05V8.74176C102.243 8.59602 102.435 8.45366 102.628 8.30792V8.88752H102.773C102.844 8.81973 102.733 8.65364 102.919 8.74176V8.88752H103.064C103.064 8.88752 103.024 9.40608 103.21 9.1756V9.02985C103.375 8.86377 103.267 9.02985 103.355 8.74176H102.922C103.034 8.30793 103.01 8.36215 103.5 8.30792V8.45368L103.933 8.30792V8.45368H104.366V8.59944C104.737 8.67739 105.157 8.14863 105.376 8.01984L105.809 8.1656V8.01984C106.049 7.86393 106.049 7.82326 106.387 7.73175C106.34 7.87749 106.292 8.01985 106.242 8.1656H106.387V8.31131C106.532 8.21641 106.674 8.11813 106.82 8.02323V7.87751H107.107C107.367 7.76228 107.421 7.54872 107.54 7.29791C107.78 7.4911 108.02 7.68432 108.26 7.87751C108.348 7.59281 108.266 7.52501 108.547 7.44367C108.594 7.46062 108.591 7.71481 108.834 7.73175C109.142 7.32165 108.963 7.44025 109.412 7.58599C109.46 7.11827 109.544 7.16237 109.7 6.86411C110.203 6.94206 109.967 7.00646 110.42 6.86411V7.73175H110.565C110.727 7.48433 110.656 7.53518 110.998 7.44367C111.268 7.89784 111.532 7.85379 111.576 8.59944C111.971 8.61638 112.62 8.79941 112.728 8.59944H112.874V8.74515C113.273 8.84005 113.725 9.14848 113.884 9.46708V9.90092H114.03C114.229 10.1687 114.364 10.2365 114.462 10.6228C114.317 10.5754 114.175 10.5279 114.03 10.4771V10.6228H114.175V11.0567H114.32C114.452 11.2702 114.449 11.4126 114.466 11.7786C114.3 11.9447 114.408 11.7786 114.32 12.0667C113.84 12.1141 113.36 12.1616 112.877 12.2124V11.9243C112.684 11.9718 112.492 12.0193 112.299 12.0701V11.782C112.204 11.8294 112.106 11.8769 112.012 11.9277C111.964 11.8328 111.917 11.7345 111.866 11.6396C111.863 11.6396 111.44 11.8362 111.146 11.6396L111.001 11.2058C110.832 11.0872 110.754 11.6295 110.423 11.4939V11.3482C110.257 11.1821 110.366 11.3481 110.278 11.06L109.845 11.2058V11.06H109.7C109.747 10.9143 109.794 10.772 109.845 10.6262C109.845 10.6262 109.666 10.5822 109.7 10.3382C109.7 10.3382 109.94 10.2737 109.845 10.05H109.7C109.534 10.2161 109.7 10.1077 109.412 10.1958C109.365 10.3415 109.318 10.4839 109.267 10.6296C108.929 10.589 108.909 10.5822 108.689 10.4839V10.3382C108.446 10.3551 108.446 10.6127 108.402 10.6262C108.074 10.7415 107.82 10.4466 107.682 10.4805V10.6262C107.191 10.8228 107.083 11.077 106.529 11.2058C106.576 11.0601 106.624 10.9177 106.674 10.772H106.387C106.174 11.1651 105.944 11.4329 105.376 11.4939V11.06H105.231C105.119 11.4939 105.143 11.4397 104.653 11.4939V11.2058C104.051 11.5346 103.97 11.5007 103.21 11.3516V11.0634H103.064C103.054 11.6227 103.088 11.66 102.631 11.7854V11.9311C102.493 12.1989 102.486 11.643 102.486 11.643H102.199C102.151 11.7379 102.104 11.8362 102.053 11.9311C101.813 11.8837 101.573 11.8362 101.333 11.7854V12.0735H100.901V12.2192C100.735 12.3853 100.843 12.2192 100.755 12.5073L99.89 12.653V12.365L98.4467 12.5107V12.7988H98.014V12.9445C97.8855 13.2157 97.8686 12.6564 97.8686 12.6564C97.4055 12.7683 97.5576 12.8733 97.0033 12.9445V13.3784C96.1514 13.2902 96.2157 12.8665 95.2726 12.7988C95.2692 13.28 95.1982 13.4529 95.1272 13.8122H94.8399C94.8839 13.6868 95.1171 13.4936 94.9852 13.2326H94.8399V13.3784C94.6743 13.5444 94.7824 13.3784 94.6945 13.6664L93.8292 13.8122V14.1003C93.3458 14.0122 92.9199 13.7037 92.3858 13.9545C92.2912 14.1003 92.1931 14.2426 92.0985 14.3884C91.7064 14.5036 91.6523 13.9986 91.5205 13.9545C91.2602 13.8664 91.4157 14.1172 91.3751 14.2426C91.2298 14.1952 91.0878 14.1477 90.9424 14.0969V14.6765H90.6551L90.5098 14.9645C90.2731 15.0357 90.2427 14.8222 90.2224 14.8188C89.8742 14.7578 89.8472 14.9645 89.6444 14.9645V14.8188C89.3571 14.7714 89.0663 14.7239 88.779 14.6731V14.9611C87.8224 15.0628 87.3357 15.0865 86.6157 14.9611L86.4703 15.395C86.1999 15.3238 85.7807 15.334 85.3176 15.2493V15.1035C85.4832 14.9374 85.3751 15.1035 85.463 14.8154C85.1182 14.829 85.1046 14.9103 84.8849 14.9611V14.8154C84.6449 14.6595 84.6483 14.6087 84.3069 14.5273V14.2392H84.0196C83.9723 14.0935 83.9249 13.9512 83.8742 13.8054L83.0089 13.6597V13.3716C83.1239 13.419 83.4619 13.6664 83.7289 13.5173V13.3716C83.303 13.0937 83.3774 12.7954 83.4416 12.3582C83.6343 12.2633 83.6376 12.1311 83.7289 12.0701C83.8235 12.1175 83.9216 12.165 84.0163 12.2158V11.6362H84.1616C84.1143 11.3482 84.067 11.0567 84.0163 10.7686C83.8709 10.7211 83.7289 10.6737 83.5836 10.6228C83.6309 10.7177 83.6782 10.816 83.7289 10.9109L83.2962 10.7652V11.0533H83.1509C83.1035 11.1482 83.0562 11.2465 83.0056 11.3414H82.5729C82.6067 11.6769 82.7317 11.4295 82.5729 11.7752L82.2855 11.6295V11.9175C82.13 12.1717 82.1402 11.6295 82.1402 11.6295C81.9002 11.6769 81.6601 11.7244 81.4201 11.7752C81.4201 11.7752 81.3526 11.5583 81.1329 11.6295C81.0855 11.7244 81.0382 11.8226 80.9875 11.9175H80.5548C80.5075 12.0633 80.4601 12.2056 80.4094 12.3514C80.1863 12.2328 79.7706 11.8294 79.3987 11.9175C79.3514 12.0124 79.3041 12.1107 79.2534 12.2056C78.9762 12.1785 79.0135 11.9243 78.9661 11.9175H78.8207V12.0633H78.1008V12.209H78.388C78.3407 12.4971 78.2934 12.7886 78.2427 13.0767H77.9553C77.8235 13.0191 77.8607 12.6361 77.3773 12.7886L77.232 13.0767H76.512V12.9309C76.3025 12.8157 76.2686 12.8293 75.9339 12.7852V13.2191C75.7886 13.1716 75.6467 13.1242 75.5013 13.0733V13.2191C75.3357 13.3851 75.4438 13.2191 75.3559 13.5072C74.8185 13.6597 74.9672 13.8054 74.636 14.0867V14.2325H74.2033V13.7986H73.9159V14.0867H73.196V13.941H73.0506C72.956 14.1341 72.8579 14.3274 72.7633 14.5206L72.4759 14.3748V14.5206L72.0432 14.8086V14.3748H71.8979V14.5206L71.4652 14.3748V14.5206C71.2624 14.5104 71.5227 14.3985 71.3199 14.3748L70.4545 14.5206V14.9544H70.3092V14.8086C69.9171 14.5985 69.6027 15.012 69.4438 15.0967C69.3627 14.6426 69.3019 14.49 68.8658 14.3748C68.9469 14.7273 69.0179 14.6934 69.1532 14.9544H68.8658C68.6359 15.1679 68.0173 15.1137 67.5677 15.1001V14.812H67.2805V15.1001C66.9931 15.0527 66.7024 15.0052 66.4151 14.9544C66.3441 14.6121 66.2799 14.6121 66.1277 14.3748C66.3238 14.2053 66.2697 14.4833 66.4151 14.2291C66.2258 14.1105 66.246 14.1274 66.1277 13.941H66.4151C66.4455 13.5986 66.4759 13.5817 66.5604 13.3614C66.1514 13.2665 66.0162 13.0937 65.8405 12.7818H66.2731C66.3678 12.3955 66.4658 12.0091 66.5604 11.6261C66.3711 11.5074 66.3915 11.5244 66.2731 11.338C65.9655 11.5142 65.9587 11.6634 65.5531 11.7718V11.4837H65.4078V11.9175C64.8466 11.965 64.7588 12.1514 64.3971 12.3514C64.3667 12.0091 64.3363 11.9921 64.2518 11.7718C64.0895 11.8938 64.2314 11.7549 64.1063 11.9175H63.961L64.1063 12.0633L63.961 12.4971C63.3492 12.3921 63.2681 12.4734 62.5176 12.4971L62.6629 12.9309H62.5176C62.3993 13.1207 62.4163 13.1004 62.2303 13.2191V12.6395C61.4968 12.6801 61.5948 12.8971 60.787 12.9276C60.6788 13.419 60.4793 13.5953 59.9216 13.6495V13.3614H59.7763V13.5072C59.6512 13.7817 59.6308 13.2191 59.6308 13.2191C59.4855 13.1716 59.3435 13.1242 59.1982 13.0733L59.3436 13.3614H59.0562C58.8264 13.5749 58.7013 13.8596 58.6235 14.2291H58.1908V13.941C57.2646 13.9748 57.0315 14.4697 56.3148 14.6629C56.4061 14.2663 56.5041 14.3341 56.6021 13.941C55.6793 14.1443 55.0236 14.7815 54.4388 13.7952C55.0878 13.4156 54.7464 13.2563 54.5841 12.6395H54.0061C53.8844 12.4768 54.023 12.6192 53.8608 12.4938C53.9047 12.3684 54.1379 12.1751 54.0061 11.9142H53.8608V11.7684H53.4281C53.1847 12.1684 52.8095 12.0599 52.5627 12.348L52.4174 12.7818H51.9847V12.9276C51.8393 12.975 51.6974 13.0225 51.552 13.0733V12.7852C51.1024 12.8835 50.8962 13.219 50.5413 13.3648H49.9633V13.5105C49.8179 13.4631 49.676 13.4156 49.5306 13.3648V13.6529L48.6652 13.7986V13.9443H48.0872C48.0399 13.9545 48.05 14.1443 47.7999 14.0901V13.9443H47.5126V13.7986L46.5019 13.6529C46.3971 13.8562 46.2416 14.0901 46.0692 14.2325V13.6529H45.9239V13.941C45.7785 13.8935 45.6365 13.8461 45.4912 13.7952C45.4236 14.1342 45.2512 14.2426 45.2038 14.5172H45.3492C45.3965 14.6629 45.4439 14.8053 45.4946 14.951C44.6732 14.9612 44.5886 14.7985 44.0512 14.6629C43.8382 15.056 43.6084 15.3238 43.0405 15.3848V15.0967H42.7531V15.6763H42.4658V15.822H41.4551V15.9678H41.1678V16.1135C41.0731 16.0661 40.9751 16.0186 40.8804 15.9678V16.1135H40.7351C40.5221 15.9407 40.8568 16.0085 40.5898 15.8254C40.6067 16.283 40.8703 16.0966 40.4444 16.2593V15.9712C39.6331 16.0695 39.978 16.3304 39.5791 16.5508H39.2917C39.2444 16.6965 39.1971 16.8389 39.1464 16.9846H38.4264V16.8388C38.7847 16.5745 38.6123 16.727 38.5718 16.2593H38.2844V16.6931C37.0303 16.6965 36.8106 16.9439 35.6884 16.9812V16.6931C35.4957 16.788 35.3029 16.8863 35.1103 16.9812C35.1576 17.1744 35.205 17.3676 35.2557 17.5608C34.8805 17.537 34.7621 17.5302 34.5356 17.415V17.2693L34.103 17.415C34.0793 17.4116 34.0523 17.2117 33.8157 17.2693V17.415H33.5283V17.5608H33.2411V17.7065C33.0416 17.8387 32.9875 17.8082 32.663 17.8522V17.4184H32.5176V17.5642H31.7977C31.6996 17.6082 31.7909 17.7506 31.365 17.8522C31.3177 17.998 31.2704 18.1403 31.2197 18.2861H31.365C31.5779 18.4623 30.841 18.4284 30.787 18.4318V18.2861C30.2089 18.1912 29.6342 18.0929 29.0562 17.998C29.134 17.5947 29.1678 17.9844 29.0562 17.5642C28.9007 17.6455 28.7554 17.9539 28.4782 17.8522V17.7065H28.3329L28.4782 17.4184H28.3329C28.1672 17.2523 28.3328 17.3608 28.0455 17.2727C27.9982 17.1269 27.9509 16.9846 27.9002 16.8388H28.1875C28.1401 16.6931 28.0928 16.5507 28.0421 16.405H28.1875V16.5508C28.3125 16.8253 28.3329 16.2627 28.3329 16.2627H28.4782V16.1169C28.3836 16.0695 28.2855 16.022 28.1908 15.9712C28.2382 15.8255 28.2856 15.6831 28.3363 15.5374H28.1908V15.3916H28.6235V15.2459C28.4342 15.1272 28.4546 15.1442 28.3363 14.9578C28.583 14.7951 28.5323 14.8663 28.6235 14.5239L29.2015 14.3782C29.2185 14.368 29.4247 13.8427 29.4889 13.9443V14.2325H29.9216C30.0568 13.9715 30.121 14.0054 30.2089 13.6529C30.0128 13.4834 29.9892 13.3885 29.9216 13.0733H30.2089V12.7852H30.4962V12.6395C30.2089 12.6869 29.9182 12.7344 29.6309 12.7852V12.6395C29.4416 12.6496 29.2692 12.8869 28.9109 12.7852V12.6395C28.6236 12.592 28.3328 12.5446 28.0455 12.4938V13.0733H27.7582V13.3614C27.6128 13.2665 27.4709 13.1682 27.3256 13.0733V12.7852L27.1801 12.9309C27.0145 13.097 27.1227 12.931 27.0348 13.2191H26.4568V13.5072C26.1695 13.4597 25.8788 13.4122 25.5914 13.3614C25.5441 13.602 25.4968 13.8427 25.4461 14.0833C25.0946 14.1647 25.1284 14.2324 24.8681 14.3714V14.2257C24.7194 14.1003 24.6686 13.9749 24.5807 13.7918C24.4151 13.9579 24.5233 13.7918 24.4354 14.0799C24.1481 14.1274 23.8574 14.1748 23.57 14.2257V14.5138C23.2286 14.5443 23.2117 14.5748 22.992 14.6595V14.3714H23.1373L22.992 13.9376H22.8467V14.2257C22.752 14.1782 22.654 14.1308 22.5593 14.0799C22.3937 14.1952 22.5019 14.4222 22.1266 14.368C22.0793 14.2731 22.032 14.1748 21.9813 14.0799H21.836V14.368L21.4033 14.5138C21.3289 14.4934 21.3154 14.1477 21.1159 14.2257C20.9706 14.4189 20.8286 14.6121 20.6833 14.8052C20.5379 14.7578 20.3959 14.7104 20.2506 14.6595V14.9476H19.9633V15.2357C19.801 15.1137 19.943 15.2526 19.8179 15.0899C19.6624 14.9578 19.7909 15.1137 19.6726 14.9442H19.8179V14.7985H19.3853V14.9442H19.2399V14.7985H18.8072C18.7599 14.7036 18.7126 14.6053 18.6618 14.5104C18.5672 14.5578 18.4692 14.6053 18.3746 14.6561C18.1785 14.7138 18.4354 14.812 18.2292 14.8019V14.6561H17.9419C17.9385 15.1035 17.9824 15.4018 18.0872 15.6695H17.5092V15.9576H17.3638V15.5238H17.0765L16.9312 15.9576C16.7689 15.8356 16.9109 15.9746 16.7858 15.8119H16.6404L16.7858 15.3781C16.6404 15.4255 16.4984 15.4729 16.3531 15.5238V15.6695H16.0658C16.0185 15.7644 15.9712 15.8627 15.9205 15.9576H15.3424V16.1033H15.1971C15.1261 16.0389 15.2376 15.8695 15.0517 15.9576L14.9064 16.2457L14.1864 16.3915V16.1033H14.041L13.8957 16.3915H13.7503L13.605 16.1033C13.4055 16.0118 13.1993 16.0322 13.0269 15.9576C13.0168 16.5169 13.0506 16.5541 12.5943 16.6795V16.3915H12.3069V16.6795H11.5869L11.2996 17.4015H11.0123V17.2557C10.965 17.2489 10.681 17.3845 10.4342 17.4015C10.5153 17.049 10.5864 17.0828 10.7216 16.8219H10.4342L10.2889 17.2557L9.27819 17.11C9.12608 17.1846 9.1734 17.4353 9.27819 17.5438H8.99091C8.86584 17.6929 8.74076 17.7438 8.55823 17.8319V17.3981C7.91259 17.4523 8.13908 17.4896 7.54752 17.3981V17.5438C7.71316 17.7099 7.60497 17.5438 7.69286 17.8319H6.97282C6.93563 17.8251 6.92554 17.6455 6.68554 17.6862V17.8319H6.39818C6.35086 17.9777 6.30356 18.12 6.25285 18.2657C6.0906 18.1437 6.2326 18.2827 6.10752 18.12C5.94527 17.998 6.08718 18.1369 5.96211 17.9742C6.15141 17.8556 6.13116 17.8726 6.24947 17.6862H5.67146C5.54301 17.8387 5.41792 17.876 5.23877 17.9742V18.12L4.80608 17.9742V18.12C4.99538 18.2386 4.97513 18.2217 5.09344 18.4081H4.80608C4.63707 18.2115 4.54243 18.1878 4.22807 18.12V18.4081C3.95764 18.3064 3.66356 18.2657 3.21736 18.2623C3.05849 17.9607 2.98409 18.0048 2.93 17.5404H2.64273V17.2523C2.48048 17.3743 2.62239 17.2354 2.49731 17.3981H2.35199V17.6862L2.06471 17.8319V18.2657H1.9193C1.77395 18.0725 1.63197 17.8794 1.48662 17.6862H1.34129C1.15199 17.3642 1.419 17.2828 1.05393 16.9642C1.10126 16.771 1.14864 16.5779 1.19934 16.3847C1.19934 16.3847 1.01337 16.3135 1.05393 16.0966H1.19934V15.3747C1.19934 15.3747 1.28721 15.3746 1.34467 15.0865C1.74355 14.9815 1.66581 15.0459 1.77736 14.6527H2.06471V14.7985L2.49731 14.6527V14.3646L3.21736 14.5104C3.32215 14.1104 3.25794 14.1884 3.65005 14.0765V13.497H3.79538L3.65005 13.2089H3.79538C3.91707 13.0462 3.77846 13.1885 3.94071 13.0631V12.9174C4.0793 12.6497 4.08612 13.2055 4.08612 13.2055L4.51872 13.3512V13.2055H4.3734C4.42072 13.0598 4.46802 12.9174 4.51872 12.7717H5.38409V12.9174C5.72212 12.87 6.05677 12.8225 6.3948 12.7717V12.4836H6.97282V12.1955C6.47929 12.1887 5.97569 12.0972 5.67484 12.0497C5.58019 12.1955 5.48213 12.3378 5.38748 12.4836L4.52211 12.6293C4.60323 12.2768 4.67426 12.3107 4.80946 12.0497H4.23145V12.1955H4.37678C4.54241 12.4226 4.02184 12.331 3.94409 12.3412V12.7751H3.79877V12.9208C3.55876 12.9683 3.3188 13.0157 3.0788 13.0665C3.12612 12.8259 3.17342 12.5852 3.22413 12.3446C2.87258 12.4259 2.90302 12.4937 2.64611 12.6327V12.7784C2.35879 12.6835 2.06806 12.5853 1.78074 12.4904V12.6361C1.6151 12.8022 1.7233 12.6361 1.63541 12.9242C1.3988 12.9682 1.00664 13.2258 0.915367 13.2123V13.0665H0.482681C0.283249 13.0259 0.536789 12.8767 0.337357 12.9208L0.192024 13.2089H-0.0953293L0.0499954 12.9208H-0.0953293C-0.260963 13.0869 -0.0953674 12.9784 -0.38269 13.0665V13.3546C-0.622688 13.4021 -0.862648 13.4495 -1.10265 13.5004C-1.12969 13.4936 -1.15001 13.2936 -1.39001 13.3546V13.5004H-1.67728V13.6461C-1.81925 13.6156 -1.84633 13.2563 -1.96464 13.358C-2.20126 13.5546 -1.80577 13.6359 -2.39732 13.7918V14.2257H-2.54266V13.9376H-2.68798C-2.73531 14.0325 -2.78269 14.1308 -2.83339 14.2257H-3.41141C-3.5838 13.9105 -3.72911 13.7478 -4.13137 13.6461V13.7918H-4.70938L-4.8548 14.0799L-5.2874 13.9342V14.368H-5.57475C-5.92969 14.9747 -5.89593 14.5375 -6.2948 14.8019C-6.24747 14.8968 -6.20009 14.995 -6.14938 15.0899C-6.43671 15.0425 -6.72743 14.9951 -7.01476 14.9442C-7.02828 14.9476 -7.08916 15.195 -7.30212 15.2323V15.0865H-7.88013L-8.02546 14.9408V15.0865C-8.43447 15.3509 -8.44797 15.5034 -9.17811 15.5204C-9.34036 15.273 -9.26939 15.3238 -9.61079 15.2323V15.5204H-9.89815V15.3747C-10.0807 15.3171 -10.2767 15.7847 -10.3308 15.8085C-10.6283 15.9407 -10.7432 15.6831 -10.9089 15.6628V15.8085C-11.1962 15.8559 -11.4869 15.9034 -11.7742 15.9542L-11.9195 15.5204C-12.3184 15.6255 -12.2407 15.5611 -12.3522 15.9542C-12.7849 16.0017 -13.2176 16.0491 -13.6503 16.1L-13.7956 16.3881H-14.8063V16.5338C-15.1815 16.6456 -15.479 16.5474 -15.817 16.6795C-15.8982 16.3271 -15.9691 16.361 -16.1043 16.1C-16.2666 16.222 -16.1246 16.083 -16.2497 16.2457C-16.7568 16.605 -16.2835 16.7609 -16.9697 16.9676V17.1134H-17.6897L-17.835 17.4015C-18.1562 17.5303 -18.2407 17.2218 -18.4131 17.2557V17.4015C-18.7004 17.4591 -18.5956 17.3371 -18.7004 17.2557H-18.8457V17.5438C-18.9911 17.4963 -19.1331 17.4489 -19.2784 17.3981V17.2523L-19.7111 17.3981V17.2523H-20.2891L-20.4345 16.9642C-20.6373 16.9642 -20.5021 16.9202 -20.5799 17.11C-20.759 16.9439 -20.6339 17.11 -20.7252 16.8219H-20.1472V16.5338H-20.7252C-20.8604 16.2728 -20.9246 16.3067 -21.0125 15.9542H-20.7252C-20.8097 15.3577 -20.8807 15.2628 -21.1579 14.6527C-21.3472 14.7273 -21.1173 14.7103 -21.3032 14.7985H-21.7359V14.9442C-21.4452 15.0256 -21.6108 14.9273 -21.4485 15.0899C-21.8609 15.0764 -22.0672 15.0628 -22.3139 14.9442V15.0899C-22.1483 15.256 -22.2565 15.09 -22.1686 15.3781C-22.8751 15.3781 -22.9899 15.5441 -23.4666 15.6661V15.2323H-23.612V15.3781H-23.7573L-24.0447 15.2323V15.6661H-24.4773V15.3781H-24.6227V15.6661H-24.4773V16.1C-24.9573 16.0966 -25.1297 16.0254 -25.488 15.9542V16.2423C-25.8294 16.2254 -25.8531 16.1983 -26.0661 16.0966V16.2423C-26.2317 16.4084 -26.1235 16.2423 -26.2114 16.5304C-26.972 16.4457 -26.5427 16.2186 -27.2221 16.3847V16.0966C-27.452 16.0627 -27.4047 16.344 -27.5094 16.3847C-28.0503 16.588 -28.4964 16.466 -28.9528 16.3847V16.8185L-29.2401 16.6728V16.8185C-29.5308 17.0659 -29.2266 17.0388 -29.3854 17.2523H-29.5308C-29.879 16.7304 -30.8796 17.1642 -31.5489 17.2523V17.6862C-31.8193 17.6116 -32.3365 17.1676 -32.5596 17.2523V17.3981H-32.7049V17.8319C-33.1376 17.8794 -33.5703 17.9268 -34.003 17.9776V18.2657H-33.8575C-33.9049 18.4115 -33.9523 18.5538 -34.003 18.6996C-34.3444 18.6826 -34.368 18.6555 -34.581 18.5538V18.6996H-34.7263V18.2657H-35.0137V18.6996H-35.159V18.5538H-35.737V18.6996L-36.0244 18.5538V18.6996C-36.3421 18.7979 -36.5009 18.7436 -36.7443 18.8453V19.2791C-37.4643 19.3876 -37.4576 19.4079 -38.0424 18.991L-38.1877 19.4249H-38.7657V19.5706C-38.9584 19.6181 -39.1511 19.6655 -39.3437 19.7164V19.4283H-39.6311C-39.719 19.9367 -39.7866 20.0926 -40.3511 20.1502V20.0044C-40.1855 19.8384 -40.2936 20.0044 -40.2057 19.7164C-40.3984 19.6689 -40.5911 19.6215 -40.7837 19.5706V19.4249C-41.0575 19.3401 -40.9832 19.5062 -41.0711 19.5706L-41.5038 19.4249V19.5706H-41.3584V20.1502H-41.6457V19.8621C-42.0412 20.0926 -41.906 20.218 -42.5111 20.2959C-42.6159 20.6959 -42.5517 20.6179 -42.9438 20.7298C-43.3325 21.1907 -43.7855 21.0789 -44.3872 21.0178V20.7298H-43.8092C-43.8565 20.584 -43.9038 20.4417 -43.9545 20.2959C-44.1742 20.3807 -44.1911 20.4078 -44.5325 20.4417C-44.5562 20.0485 -44.5799 19.5706 -44.8199 19.4283V19.2825C-44.7151 19.13 -44.7083 19.4079 -44.5325 19.1368H-44.8199C-45.0768 18.9843 -44.5325 18.991 -44.5325 18.991C-44.6136 18.6386 -44.6846 18.6725 -44.8199 18.4115H-44.3872C-44.2689 18.6013 -44.2857 18.5809 -44.0998 18.6996C-44.4514 17.9404 -44.6306 17.2388 -43.3799 17.2523C-43.2142 17.4184 -43.3798 17.31 -43.0925 17.3981C-43.0452 17.1574 -42.9979 16.9168 -42.9472 16.6762H-43.2344V16.9642H-43.5218L-43.3765 16.5304H-43.5218C-43.63 16.8049 -43.4204 16.6796 -43.6671 16.8185C-43.8564 16.6491 -43.4948 16.5982 -43.8125 16.5304V16.8185L-44.0998 16.6728V16.8185H-43.9545C-44.0491 17.0117 -44.1472 17.2049 -44.2418 17.3981H-44.3872V16.9642H-44.5325V17.11H-44.9652C-45.0598 17.2557 -45.1579 17.3981 -45.2525 17.5438H-45.5398V17.6896H-45.9725V17.8353H-46.2599V17.981C-46.8413 18.1878 -47.2773 17.7811 -47.5578 17.981C-47.9499 18.2352 -48.0142 18.7809 -48.1358 18.8487H-49.4339C-49.5995 18.6826 -49.4339 18.7911 -49.7213 18.703V18.4149H-49.8666C-49.8193 18.6081 -49.772 18.8012 -49.7213 18.9944H-49.8666C-50.1404 19.2317 -50.6305 19.1469 -51.0192 19.2825V19.4283C-51.2322 19.4961 -51.5837 19.2723 -51.5973 19.2825V19.5706H-52.3173C-52.4626 19.9096 -52.6046 20.2451 -52.75 20.584H-52.8953V20.1502H-53.1827C-53.2131 20.4925 -53.2435 20.5095 -53.328 20.7298C-53.4903 20.6077 -53.3483 20.7467 -53.4733 20.584C-53.639 20.418 -53.5309 20.584 -53.6187 20.2959C-53.372 20.1332 -53.4226 20.2044 -53.3314 19.8621H-53.7641V20.7298C-54.0041 20.6823 -54.244 20.6349 -54.484 20.584V20.4383C-54.3184 20.2722 -54.4266 20.4383 -54.3387 20.1502H-54.6261L-54.4806 19.8621H-54.6261C-54.7917 20.0282 -54.626 19.9197 -54.9133 20.0078C-54.9505 20.2891 -55.0554 20.2891 -55.0587 20.2959C-55.2886 21.0077 -54.9303 21.2212 -55.7787 21.3094V21.0212C-55.9781 21.0924 -56.0964 21.0789 -56.3567 21.167V21.3127C-56.5021 21.2653 -56.6441 21.2178 -56.7894 21.167V21.3127H-57.0768L-56.9313 21.6008H-57.7967V21.7466C-57.6311 21.9126 -57.7393 21.7465 -57.6514 22.0346C-57.8846 22.0245 -58.6621 21.8889 -58.6621 21.8889C-58.7094 21.9838 -58.7567 22.0821 -58.8074 22.177C-59.1995 22.3905 -59.2672 22.2143 -59.5275 22.177V22.3228H-59.8147L-59.9601 22.6108C-60.2001 22.6583 -60.4401 22.7057 -60.6801 22.7566V22.9023C-60.8728 22.8549 -61.0654 22.8074 -61.2581 22.7566C-61.4981 22.804 -61.7382 22.8515 -61.9782 22.9023V23.0481C-62.4075 23.1701 -62.5629 22.8176 -62.8435 22.76V22.9057C-63.0091 23.0718 -62.901 22.9057 -62.9889 23.1938H-63.5669L-63.7122 23.0481C-63.7866 23.082 -63.7528 23.3057 -63.9996 23.3362V23.1904L-64.4323 23.0447V23.1904C-64.5776 23.2379 -64.7195 23.2853 -64.8649 23.3362V23.0481C-65.1251 23.1837 -65.0914 23.248 -65.443 23.3362V23.6242H-65.5883V23.1904C-66.3996 23.1802 -67.0181 22.8447 -67.3189 22.3228L-67.0317 22.177C-67.0215 21.9736 -67.1736 22.238 -67.177 22.0313C-67.1297 21.7906 -67.0824 21.55 -67.0317 21.3094H-66.7443C-67.0621 20.4078 -66.3894 19.9062 -66.3116 18.9944C-65.8654 18.9131 -65.3483 18.8487 -64.7263 18.8487V18.4149H-64.2936C-64.1956 17.9912 -64.1348 17.9404 -63.7156 17.8353V17.5472C-62.8739 17.354 -63.6345 17.1811 -62.8502 17.5472V17.2591C-62.5291 17.1981 -62.3567 17.1202 -62.1303 16.971V16.8253C-61.8429 16.7982 -62.0288 17.0456 -61.8429 16.8253C-61.6773 16.6592 -61.7855 16.8253 -61.6976 16.5372H-61.4102C-61.2446 15.9508 -61.1161 16.2491 -60.8322 15.8153C-60.5449 15.9102 -60.2542 16.0084 -59.9668 16.1033V15.9576H-59.8215V15.3781C-60.6497 15.395 -60.8796 15.4967 -61.5522 15.3781C-61.6334 15.8322 -61.6942 15.9848 -62.1303 16.1V15.8119H-62.4175V16.2457C-62.7116 16.4016 -62.9854 16.6728 -63.4282 16.6795L-63.5737 16.5338C-64.0942 16.9269 -63.5263 17.2083 -64.5844 17.2557L-64.439 16.6762H-64.7263V16.8219H-64.581C-64.5708 16.8727 -64.8277 17.3438 -64.8682 17.5438H-65.1556V17.2557H-65.443V17.5438L-65.5883 17.3981C-65.8756 17.493 -66.1663 17.5913 -66.4537 17.6862C-66.501 17.7811 -66.5483 17.8793 -66.599 17.9742C-66.7883 18.0556 -66.5685 17.8658 -66.7443 17.8285C-66.8897 17.876 -67.0317 17.9234 -67.177 17.9742V17.8285H-67.6097V17.6828H-67.755V17.8285C-67.755 17.8285 -68.1539 17.6963 -68.333 17.6828C-68.4277 17.9234 -68.5257 18.1641 -68.6204 18.4047C-68.7455 18.3606 -68.9381 18.1268 -69.1984 18.259V18.4047H-69.3437V18.8385H-69.4891V18.4047H-69.6345V18.9843C-69.6108 19.1876 -69.4824 18.9233 -69.4891 19.13L-69.6345 19.2758C-69.8846 19.1504 -69.6852 19.2588 -69.7798 18.9876H-69.9252V19.2758L-70.6452 19.4215L-70.4998 19.1334H-70.6452C-70.8683 19.3842 -70.9054 19.2757 -71.2232 19.4215V19.5672C-71.4361 19.6486 -71.7742 19.6045 -71.8012 19.4215H-71.9466V19.8553H-72.0919V19.7096H-72.2373V19.9977H-72.5246V20.2858C-72.8897 20.1705 -73.417 20.2756 -74.11 20.2858C-74.1573 20.6247 -74.2046 20.9603 -74.2553 21.2992H-74.5426V21.0111C-74.7624 21.0958 -74.7793 21.1229 -75.1207 21.1568V21.5907C-75.408 21.6856 -75.6987 21.7838 -75.986 21.8787V22.0245H-76.2733V22.1702C-76.9798 22.438 -77.1455 21.9465 -77.5714 22.6041H-77.7167L-77.5714 22.7498C-77.6187 22.8956 -77.666 23.0379 -77.7167 23.1836C-77.9094 23.1362 -78.1021 23.0887 -78.2948 23.0379V23.4717C-78.8052 23.526 -78.7342 23.6514 -79.1601 23.7598V23.4717H-79.3055V23.9055C-79.5928 23.953 -79.8835 24.0005 -80.1708 24.0513L-80.3162 24.4851H-80.6035C-80.6508 24.6309 -80.6982 24.7732 -80.7489 24.9189H-80.8942V24.4851H-81.0395L-81.1849 24.7732L-81.6176 24.6275V24.4818C-81.8981 24.4106 -81.8103 24.5631 -81.9049 24.6275L-82.4829 24.4818L-82.3376 24.336V24.1903H-82.4829V23.7564H-82.3376V23.6107H-82.6249C-82.6283 23.1294 -82.6993 22.9565 -82.7703 22.5973H-83.0576C-83.3145 22.4448 -82.7703 22.4516 -82.7703 22.4516C-82.723 22.3058 -82.6756 22.1635 -82.6249 22.0177C-81.8812 22.0516 -81.9117 22.2923 -81.9049 21.4382C-81.6649 21.3907 -81.4249 21.3432 -81.1849 21.2924V20.7128L-80.7522 20.5671C-80.5866 20.401 -80.7522 20.5095 -80.4649 20.4214V20.7094H-80.1776V20.4214C-80.0322 20.4688 -79.8902 20.5162 -79.7449 20.5671V20.279H-79.8903L-79.7449 19.8452H-79.5995V19.6994H-79.1669C-79.1702 19.4961 -79.1365 19.6587 -79.3123 19.5537V19.4079H-78.8796V19.2622H-78.7342L-78.5888 19.5503C-78.1088 19.6452 -77.6288 19.7435 -77.1455 19.8384C-77.1319 19.2961 -77.0137 19.1741 -76.8582 18.825C-76.7128 18.8724 -76.5708 18.9199 -76.4255 18.9707V18.6826H-75.9928L-76.1381 18.9707H-75.9928V18.825H-75.7054C-75.5466 18.6996 -75.6413 18.4759 -75.4182 18.3911C-75.2897 18.5199 -75.3641 18.6352 -75.1308 18.6793C-75.0362 18.5335 -74.9381 18.3911 -74.8435 18.2454H-74.4109V18.0996H-74.2654V17.5201H-73.9782V17.8082C-73.363 17.7506 -73.3257 17.5099 -72.8254 17.3743C-72.7105 16.9066 -72.5584 16.8761 -72.5382 16.2186H-71.2401V16.3643L-70.8074 16.2186V16.0728C-70.5911 16.0152 -70.6114 16.3304 -70.5201 16.3609L-70.0875 16.2152V16.5033H-69.942V16.2152C-69.7798 16.0932 -69.9218 16.2321 -69.7967 16.0695L-70.0841 16.2152V15.6356H-69.9387V15.0561H-69.2187L-69.364 15.4899H-68.9313C-68.7015 15.2086 -68.4074 15.1035 -68.2114 14.768C-68.0627 14.8934 -68.0119 15.0188 -67.924 15.2018C-67.7787 15.1069 -67.6367 15.0086 -67.4913 14.9137V14.768H-67.2041L-67.0587 14.4799C-66.9641 14.5273 -66.866 14.5748 -66.7714 14.6256C-66.5787 14.4799 -66.9472 14.3816 -66.6261 14.3375V14.4833C-66.4807 14.5307 -66.3387 14.5782 -66.1934 14.629V14.3409C-66.359 14.1748 -66.2508 14.3409 -66.3387 14.0528C-65.9669 14.1206 -65.6999 14.1918 -65.1861 14.1985C-64.9799 13.8901 -64.8074 13.9071 -64.466 13.7647L-64.6113 13.3309H-64.0333V13.1851H-63.888V13.3309H-63.6006V13.0428C-62.7826 13.0191 -63.0632 12.8191 -62.5899 12.609H-62.0119V12.4632C-61.8463 12.2971 -61.9545 12.4632 -61.8666 12.1751H-61.4339V12.4632H-61.1465C-61.0282 11.9989 -60.9776 12.043 -60.4266 12.0294V12.3175C-60.0886 12.1616 -59.9567 11.9853 -59.5612 11.8837V11.4498H-59.2739V11.1617C-58.5134 11.1651 -58.1347 10.9923 -57.5432 10.8737C-57.4384 11.2736 -57.5026 11.1956 -57.1105 11.3075C-57.1578 11.1618 -57.2052 11.0194 -57.2559 10.8737H-57.1105C-56.9516 10.6703 -56.6069 10.45 -56.3906 10.2941V10.1483H-55.9579V10.2941H-55.8125V10.7279H-55.6671C-55.6198 10.1517 -55.5184 10.0602 -54.9472 10.006V10.1517C-54.7545 10.2195 -55.0013 10.0602 -54.8018 10.006C-54.2238 9.91107 -53.6491 9.81279 -53.0711 9.71789C-53.2164 9.26711 -53.1522 9.49758 -53.0711 8.99596C-52.7195 8.91462 -52.7534 8.84684 -52.4931 8.70788V8.85364H-52.3477C-52.2328 9.06716 -52.4931 9.14172 -52.4931 9.14172L-52.3477 9.4298C-52.0165 9.15188 -52.1652 8.99598 -51.6277 8.85024C-51.5804 8.7045 -51.5331 8.56214 -51.4824 8.4164C-51.07 8.58587 -50.8029 8.69093 -50.1843 8.70448C-50.039 8.41639 -49.897 8.12493 -49.7516 7.83684H-49.4644L-49.3189 8.12493L-48.3082 7.83684V7.69108H-47.2975L-47.1522 7.403H-46.8649C-46.7736 7.00645 -46.6756 7.07423 -46.5776 6.68107C-46.3849 6.72852 -46.1922 6.77595 -45.9996 6.82679V6.68107C-45.8407 6.55228 -45.9691 6.70478 -45.8542 6.53532H-45.9996C-46.1415 6.29467 -45.7933 6.41332 -45.7122 6.3896V6.24384C-45.5669 6.29129 -45.4249 6.33876 -45.2795 6.3896C-45.3269 6.4845 -45.3742 6.58278 -45.4249 6.67768H-45.2795C-44.8266 6.15573 -44.4311 6.67766 -43.8361 6.8234C-43.7381 6.6336 -43.657 6.6675 -43.5489 6.53532L-43.6942 6.24723H-43.4068V6.10152L-43.1196 5.95576C-43.0993 5.7524 -43.15 5.97946 -43.2649 5.81L-43.1196 5.52191C-42.6328 5.62359 -42.5652 5.83713 -42.1089 5.95576V5.52191C-41.7134 5.61343 -41.7809 5.71171 -41.3888 5.81V5.3762C-41.2299 5.42365 -41.1049 5.63376 -40.8108 5.52191V5.3762H-40.3781V5.23044C-40.0908 4.9898 -39.8001 4.74915 -39.5127 4.50851V4.22043H-39.2255V4.36615C-39.026 4.40682 -39.2525 4.33567 -39.0801 4.22043L-38.7928 4.36615L-38.9381 4.79999C-38.1336 4.861 -37.7246 5.05759 -37.2075 4.51191C-37.4914 4.34922 -37.5455 4.30856 -37.6401 3.93235L-37.2075 3.78659C-37.1601 3.88149 -37.1128 3.97977 -37.062 4.07467H-36.7748V3.49511C-36.4604 3.55612 -36.3624 3.59 -36.1968 3.7832L-35.3314 3.49511L-35.4767 3.20703H-34.7568V2.91895L-34.6858 2.95283ZM-36.1258 5.122V5.41008H-35.9804V5.122H-36.1258ZM92.3757 5.41008V5.69817H92.521V5.41008H92.3757ZM-35.6931 5.84392V6.13201H-35.5477V5.84392H-35.6931ZM-37.7111 6.13201V6.42009H-37.5658V6.13201H-37.7111ZM88.7689 6.56585C88.9346 6.73193 88.7689 6.62344 89.0562 6.71157C88.8906 6.54549 89.0563 6.65397 88.7689 6.56585ZM77.3773 6.71157C77.543 6.87764 77.3774 6.7692 77.6647 6.85733C77.4991 6.69125 77.6647 6.79969 77.3773 6.71157ZM-44.2012 7.14541C-44.1877 7.63686 -44.2012 7.67075 -43.9139 7.86733V7.72158H-44.0593V7.14202H-44.2046L-44.2012 7.14541ZM75.214 7.29113C75.3796 7.4572 75.214 7.34876 75.5013 7.43688C75.3357 7.27081 75.5013 7.37925 75.214 7.29113ZM59.4923 7.43349V7.72158H59.6376V7.43349H59.4923ZM69.5891 7.57925L69.4438 7.86733C69.4438 7.86733 69.863 7.63687 69.7312 7.57925H69.5858H69.5891ZM84.4422 7.57925H84.7294C84.6078 7.74194 84.7464 7.59956 84.5841 7.72497V7.87073C84.4185 7.70465 84.5267 7.87073 84.4388 7.58264L84.4422 7.57925ZM-43.1939 7.72497C-43.0283 7.89104 -43.1939 7.7826 -42.9066 7.87073C-43.0722 7.70465 -42.9066 7.81309 -43.1939 7.72497ZM37.7165 7.86733V8.15542H37.8619V7.86733H37.7165ZM-41.6052 8.44689V8.59265H-41.7505C-42.0243 8.71806 -41.4632 8.73837 -41.4632 8.73837C-41.3415 8.57568 -41.4801 8.71806 -41.3178 8.59265C-41.4835 8.42658 -41.3179 8.53502 -41.6052 8.44689ZM69.1565 8.44689V8.59265H69.0111C68.7373 8.71806 69.2985 8.73837 69.2985 8.73837C69.4202 8.57568 69.2816 8.71806 69.4438 8.59265C69.2782 8.42658 69.4439 8.53502 69.1565 8.44689ZM106.076 8.44689V8.59265H105.931C105.657 8.71806 106.218 8.73837 106.218 8.73837C106.34 8.57568 106.201 8.71806 106.363 8.59265C106.198 8.42658 106.363 8.53502 106.076 8.44689ZM9.4472 8.59265V8.88074H9.59253V8.59265H9.4472ZM-26.1742 8.73498V9.0231H-26.0288V8.73498H-26.1742ZM10.7453 8.73498V9.0231H10.8906V8.73498H10.7453ZM37.4258 8.73498C37.6692 9.04679 37.7132 9.0231 37.7132 9.0231C37.8179 8.88414 37.463 8.76887 37.4258 8.73498ZM74.3486 8.73498C74.592 9.04679 74.636 9.0231 74.636 9.0231C74.7408 8.88414 74.3858 8.76887 74.3486 8.73498ZM84.5875 8.73498V9.0231H84.7328V8.73498H84.5875ZM111.268 8.73498C111.511 9.04679 111.555 9.0231 111.555 9.0231C111.66 8.88414 111.305 8.76887 111.268 8.73498ZM-47.088 9.02645H-47.3753V9.17221H-47.23V9.31797H-47.0846V9.02985L-47.088 9.02645ZM-45.2119 9.89414H-44.9246C-44.9719 9.70095 -45.0193 9.50777 -45.07 9.31458H-45.2153V9.89414H-45.2119ZM65.5497 9.89414H65.8371L65.6918 9.31458H65.5463V9.89414H65.5497ZM102.469 9.89414H102.757L102.611 9.31458H102.466V9.89414H102.469ZM-46.7973 9.60266V10.1822H-46.6519V9.60266H-46.7973ZM-9.87785 9.60266V10.1822H-9.73252V9.60266H-9.87785ZM63.9644 9.60266V10.1822H64.1097V9.60266H63.9644ZM85.3074 9.89414V10.328H85.4529C85.5982 10.067 85.7706 9.89751 86.0309 9.74838V9.60266H85.7435C85.5813 9.85008 85.6523 9.79923 85.3108 9.89074L85.3074 9.89414ZM100.884 9.60266V10.1822H101.029V9.60266H100.884ZM18.2461 9.74838V10.0365H18.3914V9.74838H18.2461ZM55.1655 10.0365H55.4529V9.89074C55.2906 9.76873 55.4325 9.90771 55.3074 9.74503H55.1621V10.0331L55.1655 10.0365ZM-25.4542 9.89414V10.328H-25.3089V9.89414H-25.4542ZM11.4652 9.89414V10.328H11.6106V9.89414H11.4652ZM74.636 10.4703C74.7408 10.8702 74.6765 10.7923 75.0686 10.9041C75.1599 10.5076 75.2579 10.5754 75.3559 10.1822H75.2106C75.0281 10.4568 75.0653 10.4229 74.6326 10.4703H74.636ZM75.9339 10.1822V10.4703C76.3125 10.4601 76.4241 10.4127 76.654 10.3246V10.1788H75.9339V10.1822ZM-0.213676 10.328V10.7618H-0.0682602V10.6161C0.0939941 10.494 -0.0480042 10.633 0.0770645 10.4703L-0.210289 10.3246L-0.213676 10.328ZM36.7058 10.328V10.7618H36.8512V10.6161C37.0134 10.494 36.8714 10.633 36.9965 10.4703L36.7092 10.3246L36.7058 10.328ZM73.6253 10.328V10.7618H73.7706V10.6161C73.9328 10.494 73.7908 10.633 73.9159 10.4703L73.6286 10.3246L73.6253 10.328ZM110.548 10.328V10.7618H110.693V10.6161C110.856 10.494 110.714 10.633 110.839 10.4703L110.551 10.3246L110.548 10.328ZM18.1008 10.4703V10.7584H18.2461V10.4703H18.1008ZM85.0202 10.4703C85.2636 10.7821 85.3074 10.7584 85.3074 10.7584C85.4122 10.6195 85.0574 10.5042 85.0202 10.4703ZM8.72724 10.7618V11.1956H8.43989V11.4837L8.72724 11.338L8.87257 10.9041C9.03482 10.7821 8.89283 10.9211 9.0179 10.7584H8.73063L8.72724 10.7618ZM14.7847 10.7618V11.0499H14.93V10.7618H14.7847ZM51.7041 10.7618V11.0499H51.8494V10.7618H51.7041ZM74.3486 11.0499H73.9159V11.338H74.2033C74.3385 11.077 74.4027 11.1109 74.4906 10.7584H74.3452V11.0465L74.3486 11.0499ZM88.6235 10.7618V11.0499H88.7689V10.7618H88.6235ZM-3.24239 11.338V11.0499C-3.40465 11.1719 -3.26265 11.0329 -3.38773 11.1956H-3.53305C-3.36742 11.3617 -3.5331 11.2533 -3.24578 11.3414L-3.24239 11.338ZM33.2444 11.0499V11.4837H33.3898C33.5554 11.3176 33.3897 11.4261 33.677 11.338V11.0499H33.2444ZM53.7221 11.338V11.0499H53.2894V11.1956H53.4348C53.6005 11.3617 53.4348 11.2533 53.7221 11.3414V11.338ZM70.5965 11.338V11.0499C70.4343 11.1719 70.5762 11.0329 70.4511 11.1956H70.3058C70.4714 11.3617 70.3058 11.2533 70.5932 11.3414L70.5965 11.338ZM81.9915 11.0499V11.338C82.1537 11.216 82.0117 11.3549 82.1368 11.1922H82.2821C82.1165 11.0262 82.2822 11.1346 81.9948 11.0465L81.9915 11.0499ZM102.469 11.1956V11.4837H102.615V11.1956H102.469ZM6.9965 11.7718H7.28385C7.16216 11.6091 7.3007 11.7515 7.13844 11.6261V11.338H6.99311V11.7718H6.9965ZM-33.6751 11.4837V11.7718H-33.5297V11.4837H-33.6751ZM3.24781 11.4837V11.9175H3.39314V11.4837H3.24781ZM77.0867 11.4837V11.7718H77.232V11.4837H77.0867ZM105.211 11.4837C105.376 11.6498 105.268 11.4837 105.356 11.7718H105.211V11.4837ZM114.009 11.4837V11.7718H114.155V11.4837H114.009ZM-53.8655 11.6295V11.9175H-53.7201V11.6295H-53.8655ZM-16.9461 11.6295V11.9175H-16.8007V11.6295H-16.9461ZM56.8963 11.6295V11.9175H57.0416V11.6295H56.8963ZM93.8157 11.6295V11.9175H93.961V11.6295H93.8157ZM-8.00178 11.7718C-7.98825 11.8023 -7.79562 12.2971 -7.7145 12.2056V12.0599H-7.56909C-7.69416 11.9108 -7.81924 11.86 -8.00178 11.7718ZM29.2049 12.4971H29.4923V12.209H29.2049L29.3503 11.9209C29.205 11.8735 29.063 11.8261 28.9177 11.7752V11.9209C29.1137 12.0904 29.1373 12.1853 29.2049 12.5005V12.4971ZM-8.86715 11.9175L-8.72182 12.3514H-8.57648C-8.66438 12.0057 -8.62376 12.0836 -8.86376 11.9175H-8.86715ZM28.0523 11.9175C28.0996 12.0633 28.1469 12.2056 28.1976 12.3514H28.343C28.2551 12.0057 28.2957 12.0836 28.0557 11.9175H28.0523ZM30.7937 11.9175H30.5064C30.6281 12.0802 30.4894 11.9379 30.6517 12.0633V12.209H30.7971V11.9209L30.7937 11.9175ZM87.7616 12.4971H88.0489V12.209H88.1942C88.1469 12.1141 88.0996 12.0158 88.0489 11.9209C87.8866 12.043 88.0286 11.904 87.9036 12.0667H87.7582V12.5005L87.7616 12.4971ZM-32.6644 12.0633C-32.4987 12.2294 -32.6643 12.1209 -32.377 12.209C-32.5427 12.0429 -32.3771 12.1514 -32.6644 12.0633ZM-8.14719 12.0633V12.4971H-8.00178V12.0633H-8.14719ZM28.7722 12.0633V12.4971H28.9177V12.0633H28.7722ZM31.5137 12.0633H31.2263C31.348 12.226 31.2095 12.0836 31.3717 12.209V12.3548H31.5171V12.0667L31.5137 12.0633ZM48.2427 12.0633V12.4971H48.388V12.0633H48.2427ZM85.1655 12.0633V12.4971H85.3108V12.0633H85.1655ZM-60.7883 12.2056V12.4938H-60.6429V12.2056H-60.7883ZM-54.0108 12.2056V12.4938H-53.8655V12.2056H-54.0108ZM-17.088 12.2056V12.4938H-16.9427V12.2056H-17.088ZM-7.42714 12.4971V12.209C-7.58939 12.331 -7.4474 12.1921 -7.57247 12.3548H-7.71788C-7.55225 12.5209 -7.71785 12.4124 -7.43053 12.5005L-7.42714 12.4971ZM19.8314 12.2056V12.4938H19.9768V12.2056H19.8314ZM30.9357 12.2056V13.0733H31.081V12.2056H30.9357ZM49.3953 12.2056V12.4938H49.5408V12.2056H49.3953ZM49.9734 12.2056V12.4938H50.1188V12.2056H49.9734ZM56.7508 12.2056V12.4938H56.8963V12.2056H56.7508ZM86.3182 12.2056V12.4938H86.4636V12.2056H86.3182ZM86.8963 12.2056V12.4938H87.0416V12.2056H86.8963ZM93.6737 12.2056V12.4938H93.8191V12.2056H93.6737ZM-57.6142 12.3514C-57.4485 12.5175 -57.6142 12.409 -57.3269 12.4971C-57.4925 12.3311 -57.3268 12.4395 -57.6142 12.3514ZM-20.6947 12.3514C-20.5291 12.5175 -20.6948 12.409 -20.4075 12.4971C-20.5731 12.3311 -20.4074 12.4395 -20.6947 12.3514ZM90.0669 12.3514C90.2326 12.5175 90.067 12.409 90.3543 12.4971C90.1886 12.3311 90.3542 12.4395 90.0669 12.3514ZM-10.4559 12.6395L-10.3105 13.0733H-10.1652C-10.2531 12.7276 -10.2125 12.8055 -10.4525 12.6395H-10.4559ZM26.4669 12.6395C26.5143 12.7852 26.5616 12.9276 26.6123 13.0733H26.7576C26.6697 12.7276 26.7103 12.8055 26.4703 12.6395H26.4669ZM35.8405 12.7852V13.0733H35.9858V12.7852H35.8405ZM-55.3089 13.5072C-55.4137 13.1072 -55.3494 13.1852 -55.7415 13.0733C-55.6942 13.2665 -55.6469 13.4597 -55.5962 13.6529H-55.1635V13.7986C-54.9606 13.8257 -55.2176 13.6969 -55.0181 13.6529H-54.4401V13.0733C-54.6024 12.9513 -54.4604 13.0902 -54.5855 12.9276H-54.8728V13.0733H-54.7274C-54.6801 13.3343 -55.0858 13.4529 -55.3055 13.5072H-55.3089ZM-36.5584 12.9309L-36.7038 13.2191C-36.7038 13.2191 -36.2846 12.9886 -36.4164 12.9309H-36.5618H-36.5584ZM74.2033 12.9309L74.058 13.2191C74.058 13.2191 74.4771 12.9886 74.3452 12.9309H74.1999H74.2033ZM-61.221 13.6529H-60.9336V13.5072C-61.0959 13.3851 -60.9539 13.5241 -61.079 13.3614H-61.2244V13.6495L-61.221 13.6529ZM-56.1742 13.3648V13.6529C-56.0119 13.5309 -56.1539 13.6698 -56.0288 13.5072H-55.8835C-56.0491 13.3411 -55.8835 13.4495 -56.1708 13.3614L-56.1742 13.3648ZM-24.3015 13.6529H-24.0142V13.5072C-24.1765 13.3851 -24.0345 13.5241 -24.1595 13.3614H-24.3049V13.6495L-24.3015 13.6529ZM-19.2514 13.3648V13.6529C-19.0891 13.5309 -19.2311 13.6698 -19.106 13.5072H-18.9607C-19.1263 13.3411 -18.9607 13.4495 -19.248 13.3614L-19.2514 13.3648ZM17.6681 13.3648V13.6529C17.8303 13.5309 17.6883 13.6698 17.8134 13.5072H17.9587C17.7931 13.3411 17.9588 13.4495 17.6715 13.3614L17.6681 13.3648ZM86.4636 13.6529H86.7508V13.5072C86.5886 13.3851 86.7306 13.5241 86.6055 13.3614H86.4602V13.6495L86.4636 13.6529ZM91.5103 13.3648V13.6529C91.6726 13.5309 91.5306 13.6698 91.6556 13.5072H91.801C91.6354 13.3411 91.801 13.4495 91.5137 13.3614L91.5103 13.3648ZM-58.4795 14.2325V13.9443L-58.9122 14.0901L-58.7669 14.6697H-58.9122V14.8154C-59.2503 14.8629 -59.5849 14.9103 -59.9229 14.9611V15.2493C-59.7336 15.2764 -59.0272 15.4255 -58.9122 15.395L-58.7669 15.1069L-58.3342 15.2527C-58.2869 15.012 -58.2395 14.7714 -58.1888 14.5307H-58.0435C-57.8778 14.3647 -58.0435 14.4731 -57.7562 14.385V14.6731H-57.0362V14.385H-56.7489C-56.8435 14.0969 -56.9415 13.8054 -57.0362 13.5173H-57.1815L-57.3269 13.9511C-57.5331 14.0969 -58.1584 14.2121 -58.4795 14.2392V14.2325ZM-42.1832 13.5072V13.941H-42.0379V13.5072H-42.1832ZM-61.5083 13.7986V14.0867H-61.3629V13.7986H-61.5083ZM-39.0091 13.7986V14.0867H-38.8638V13.7986H-39.0091ZM-24.5888 13.7986V14.0867H-24.4435V13.7986H-24.5888ZM12.3306 13.7986V14.0867H12.4759V13.7986H12.3306ZM55.1655 13.7986C55.3311 13.9647 55.1655 13.8562 55.4529 13.9443C55.2872 13.7783 55.4528 13.8868 55.1655 13.7986ZM71.7526 13.7986V14.0867H71.8979V13.7986H71.7526ZM86.1728 13.7986V14.0867H86.3182V13.7986H86.1728ZM-44.9246 13.941C-44.7589 14.107 -44.8671 13.941 -44.7793 14.2291H-44.9246V13.941ZM-8.14719 14.0867C-7.98493 14.3341 -8.05591 14.2833 -7.7145 14.3748C-7.83957 14.2257 -7.96465 14.1748 -8.14719 14.0867ZM8.29456 14.3748H8.58183V14.2291C8.41958 14.1071 8.56157 14.246 8.4365 14.0833H8.29118V14.3714L8.29456 14.3748ZM-45.2119 14.2325H-44.9246V14.3782C-45.2153 14.2968 -45.0497 14.3952 -45.2119 14.2325ZM-4.97305 14.2325C-4.80742 14.3986 -4.91561 14.2325 -4.82773 14.5206H-4.97305V14.2325ZM33.8224 14.8086H33.5351V14.2291H33.3898V14.3748C33.2241 14.5409 33.3323 14.3748 33.2444 14.6629C33.3898 14.7578 33.5317 14.8561 33.677 14.951C33.7987 15.1137 33.6602 14.9713 33.8224 15.0967V14.8086ZM-6.27111 14.3748V14.6629H-6.12579V14.3748H-6.27111ZM-53.5781 14.6663V14.9544H-53.4328V14.6663H-53.5781ZM-16.6553 14.6663V14.9544H-16.51V14.6663H-16.6553ZM15.2174 14.8086C15.383 14.9747 15.2173 14.8663 15.5046 14.9544C15.339 14.7883 15.5047 14.8968 15.2174 14.8086ZM-35.9838 15.2425V14.9544C-36.146 15.0764 -36.0041 14.9374 -36.1292 15.1001H-36.2745C-36.1089 15.2662 -36.2745 15.1578 -35.9871 15.2459L-35.9838 15.2425ZM37.8585 15.2425V14.9544C37.6962 15.0764 37.8382 14.9374 37.7132 15.1001H37.5677C37.7334 15.2662 37.5678 15.1578 37.8551 15.2459L37.8585 15.2425ZM-48.8187 15.534V15.822H-48.6733V15.534H-48.8187ZM-45.932 15.534V15.822H-45.7866V15.534H-45.932ZM-56.7489 15.6763V15.9644H-56.6035V15.6763H-56.7489ZM-45.2119 15.9678C-45.2187 16.5542 -45.2795 16.5914 -44.9246 16.8354V16.6897C-45.168 16.3779 -44.8131 15.9915 -44.6373 15.6763H-44.7826C-44.9449 15.9237 -44.8739 15.8729 -45.2153 15.9644L-45.2119 15.9678ZM-42.6159 15.6763C-42.4503 15.8424 -42.6159 15.7339 -42.3285 15.822C-42.4942 15.656 -42.3286 15.7644 -42.6159 15.6763ZM-35.1184 15.6763C-35.1657 15.8221 -35.2131 15.9644 -35.2638 16.1101H-35.1184V15.9644C-35.0575 15.8797 -34.8818 15.9441 -34.9731 15.6763H-35.1184ZM-19.8294 15.6763V15.9644H-19.684V15.6763H-19.8294ZM28.6303 15.9678C28.6235 16.5542 28.5627 16.5914 28.9177 16.8354V16.6897C28.6743 16.3779 29.0292 15.9915 29.2049 15.6763H29.0596C28.8973 15.9237 28.9683 15.8729 28.6269 15.9644L28.6303 15.9678ZM31.2263 15.6763C31.392 15.8424 31.2264 15.7339 31.5137 15.822C31.3481 15.656 31.5137 15.7644 31.2263 15.6763ZM-33.2424 15.822V16.1101H-33.097V15.822H-33.2424ZM-17.088 16.1101H-16.8007V15.9644C-16.9629 15.8424 -16.821 15.9813 -16.9461 15.8186H-17.0914V16.1067L-17.088 16.1101ZM3.68042 15.822V16.1101H3.82584V15.822H3.68042ZM16.5154 15.822C16.6811 15.9881 16.5729 15.822 16.6608 16.1101H16.5154V15.822ZM-15.2153 15.9678C-15.2626 16.0627 -15.31 16.161 -15.3607 16.2559L-15.0734 16.4016C-14.9686 16.2287 -15.3776 16.2762 -15.0734 15.9678H-15.2187H-15.2153ZM-32.955 16.1101L-33.1004 16.544H-32.955V16.2559H-32.8097V16.1101H-32.955ZM3.96778 16.1101L3.82245 16.3982C3.82245 16.3982 4.24155 16.1677 4.10973 16.1101H3.96439H3.96778ZM-71.7505 16.6897H-71.4632V16.544C-71.6254 16.422 -71.4835 16.5609 -71.6086 16.3982H-71.7539V16.6863L-71.7505 16.6897ZM9.4472 16.6897H9.15993C9.28162 16.8524 9.14301 16.71 9.30526 16.8354V16.9812H9.45058V16.6931L9.4472 16.6897ZM-66.8457 16.9778V17.2659H-66.7004V16.9778H-66.8457ZM-46.0773 16.9778V17.5574H-45.932V17.4117H-45.7866C-45.8339 17.3167 -45.8813 17.2184 -45.932 17.1235H-45.7866C-45.9522 16.9574 -45.7866 17.0659 -46.0739 16.9778H-46.0773ZM6.9965 16.9778V17.2659H7.14183V16.9778H6.9965ZM28.7722 16.9778C28.6066 17.1439 28.7723 17.0354 28.485 17.1235V17.2693H28.7722C28.8196 17.1744 28.867 17.0761 28.9177 16.9812H28.7722V16.9778ZM-38.4345 17.4117L-38.5799 17.6997C-38.5799 17.6997 -38.1607 17.4693 -38.2925 17.4117H-38.4378H-38.4345ZM-43.9139 17.7031V17.9912H-43.7686V17.7031H-43.9139ZM-40.7398 17.7031V17.9912H-40.5945V17.7031H-40.7398ZM-47.5207 17.9912H-47.2333C-47.3517 18.181 -47.3348 18.1607 -47.5207 18.2793V18.4251H-47.666L-47.5207 17.9912ZM-42.4705 17.9912L-42.6159 18.2793C-42.6159 18.2793 -42.1967 18.0488 -42.3285 17.9912H-42.4739H-42.4705ZM-53.5781 18.5708V18.8589H-53.4328V18.5708H-53.5781ZM-64.6824 19.2927V19.5808H-64.537V19.2927H-64.6824ZM-61.5083 19.4385V19.8723H-60.9302V20.1604H-60.4976C-60.3793 19.9706 -60.3962 19.9909 -60.2103 19.8723V19.4385C-60.812 19.5435 -60.8153 19.4757 -61.5083 19.4385ZM-73.1905 19.7265C-73.0249 19.8926 -73.1905 19.7841 -72.9032 19.8723C-73.0688 19.7062 -72.9032 19.8147 -73.1905 19.7265ZM-43.3359 19.8723V20.1604H-43.1905V19.8723H-43.3359ZM-79.106 22.1838C-79.1534 22.3295 -79.2007 22.4719 -79.2514 22.6176H-79.106V22.3295H-78.9607V22.1838H-79.106ZM-60.5009 22.3295V22.6176H-60.3556V22.3295H-60.5009Z" fill="#9FCCB9"/>
</g>
</svg>
