<svg width="259" height="28" viewBox="0 0 259 28" fill="none" xmlns="http://www.w3.org/2000/svg">
<path fill-rule="evenodd" clip-rule="evenodd" d="M63.4826 0.960531C64.3786 1.13939 64.5111 1.59694 65.5527 1.67181C65.7028 1.40143 65.9278 0.997939 66.4928 1.13937V1.31825C66.9739 1.48464 66.7047 1.13941 67.0577 1.49714H67.2475V2.20841L67.6227 2.38725V2.74086H67.8125C67.8743 2.91972 67.936 3.09439 68.0022 3.27325H67.2475V3.80569C66.7267 3.93464 66.8282 3.85562 66.6825 4.33813C66.0249 4.48788 65.8043 4.78738 64.9877 4.87058C65.001 5.33645 65.0628 5.47372 65.1775 5.75658C64.5331 5.71082 63.699 5.61513 63.6725 5.57769V5.93125H63.8622C64.4581 5.93541 63.2973 6.11013 63.2973 6.11013C63.0589 5.83144 62.7942 5.67752 62.3572 5.57769C62.0747 6.0602 61.704 6.33474 61.0375 6.46369V6.11013L60.6623 6.28897C60.552 6.55934 60.5167 6.58017 60.4725 7.00029C60.0753 7.02941 59.3338 7.15835 59.1529 7.35385C58.9233 7.60343 59.3205 7.54937 58.7776 7.88629V7.17497H58.5879V7.88629H58.0229V7.53269C57.736 7.63668 57.714 7.66998 57.2682 7.71157V7.35802L56.7032 7.53685C56.5796 7.8405 56.5223 8.09426 56.5135 8.60174H55.5733C55.5733 8.60174 55.3835 8.88458 55.1981 8.95529V9.13418H55.0083V8.78057H54.6332V8.60174H54.4434V8.78057H53.8784V8.95946C53.5518 9.23399 53.4813 9.79137 53.3135 10.2032C52.6206 10.1408 52.0732 9.89123 51.6186 10.3821C51.5568 10.5609 51.4951 10.7356 51.4289 10.9145C50.9257 10.9727 50.4225 11.0309 49.9237 11.0933V11.2722L49.5486 11.4511V11.8046L48.9837 11.6258L48.7939 11.9793H48.2289C48.1981 11.996 48.0082 12.2455 47.8537 12.3329V12.5118C47.5404 12.4535 47.227 12.3953 46.9137 12.3329V12.1541C46.8033 12.1416 46.2692 12.4535 45.9735 12.5076C45.8455 12.8445 45.7307 13.5932 45.5983 13.926L45.0334 13.7472V13.5683C44.773 13.5225 45.1084 13.6973 44.8436 13.7472C44.3934 13.8304 44.3581 13.614 44.0888 13.5683L43.7137 14.1007H42.9589V14.2796L42.3941 14.4584V14.9909H42.7691V15.1698H42.5794C42.4779 15.253 41.0698 15.619 41.0742 15.1698H40.8845V15.5233L39.9444 15.3444C39.9533 15.9809 39.9002 16.4634 39.5692 16.7629V16.584H39.3795V15.8727H39.0043C38.991 16.3386 38.9292 16.4759 38.8145 16.7587C38.4217 16.6506 38.0465 16.5591 37.6846 16.9376V17.2912H37.4948V17.47L36.3649 17.2912C36.3031 17.4076 36.2413 17.5283 36.1751 17.6447C35.9235 17.703 35.672 17.7612 35.4204 17.8236V18.1772H34.6657V18.5307C34.2155 18.4475 34.0742 18.3269 33.7255 18.1772V19.0632C33.2841 19.1214 32.8472 19.1796 32.4058 19.242V19.4209C31.8541 19.5415 31.7879 19.6164 31.6511 20.1322C31.9159 20.1446 31.6246 20.1031 31.8408 19.9533C32.1365 19.7495 32.0173 20.3901 32.0306 20.4857C31.7084 20.6854 31.7747 20.598 31.6555 21.0182C31.9071 20.9599 32.1586 20.9017 32.4102 20.8393L32.6 20.4857C32.6353 20.4816 33.0413 20.6521 33.3547 20.6646V20.3111C33.5445 20.3693 33.7299 20.4275 33.9197 20.4899L34.1095 20.1363C34.339 20.0323 34.6612 20.0406 34.8643 19.9574V19.2462C35.31 19.1755 35.9014 18.9093 36.559 19.0673V19.2462H37.3139V19.0673H37.689V18.356H38.0642V18.7096C38.6291 18.5931 39.194 18.4725 39.759 18.356L39.9488 18.5349C40.4652 18.1938 40.1209 17.9276 41.0787 17.8236C41.2949 18.0274 41.0787 17.8943 41.4539 18.0024V17.47L42.3941 17.2912V16.9376C43.0164 17.0333 43.2502 17.1622 43.5239 16.9376H43.7137C43.9521 16.6631 43.5107 16.5799 43.9035 16.4052V16.584H44.0933V16.0516C44.5081 15.9892 45.0686 15.8187 45.5983 16.0516C45.6601 16.1681 45.722 16.2887 45.7882 16.4052H46.1633V16.0516C46.5428 16.1514 46.3266 16.0308 46.5385 16.2304L47.1034 16.0516V15.8727H47.6684C47.792 15.6939 47.9199 15.5191 48.0435 15.3403C48.3569 15.3985 48.6703 15.4568 48.9837 15.5192V15.698C49.1205 15.723 49.6766 15.54 50.3034 15.5192L50.1136 14.9867H50.4887V15.1656H51.2434L51.4333 15.3444V15.1656L51.9982 14.9867C51.9849 14.5209 51.9232 14.3836 51.8084 14.1007H52.9383C53.1546 13.8969 52.9384 14.03 53.3135 13.9219C53.4592 13.3895 53.4283 13.456 54.0683 13.3895C54.2801 13.6931 54.1874 13.6307 54.6332 13.743C54.823 13.2979 55.0216 12.8154 55.388 13.0317H55.5777V13.5641H55.9529C56.0897 13.0733 56.0059 13.169 56.5179 13.0317V12.8528L57.6477 12.674C57.6477 12.674 57.7316 12.9319 58.0229 12.8528L58.2127 12.4993H58.7776V12.1457L59.1529 12.3246V12.5035C59.4 12.5908 59.1925 12.4202 59.3426 12.3246C59.8149 12.2039 59.6472 12.2331 59.9076 11.971H60.0973V11.6175L60.4725 11.4386C60.6932 11.2139 60.7903 10.9228 61.0375 10.7273V10.9062H61.6024C61.6642 11.1433 61.726 11.3804 61.7922 11.6175H61.982C62.441 10.8937 63.0368 10.9602 64.052 10.7315C64.1094 10.719 64.1006 10.486 64.4272 10.5526V10.7315C64.8024 10.8479 65.182 10.9685 65.5571 11.085V10.9062H65.7469L65.5571 10.3737C65.6807 10.3155 65.8086 10.2572 65.9322 10.1948C66.1926 9.82464 65.8484 9.94526 66.3074 9.66241V9.48357L67.2475 9.30468C67.146 9.79968 67.1019 9.32134 67.2475 9.83713H67.4374V9.48357C67.8125 9.54181 68.192 9.60001 68.5672 9.66241V9.48357C68.7702 9.32135 68.6026 9.51267 68.7571 9.30468H68.5672V9.12585H69.1322C69.1719 9.54597 69.2116 9.56675 69.3219 9.83713C69.5382 9.63331 69.397 9.83714 69.5118 9.48357C69.7281 9.27975 69.5868 9.48358 69.7015 9.13001C70.2665 8.95115 70.8315 8.77643 71.3964 8.59757L71.5862 8.77646C71.648 8.20243 71.7584 8.2565 71.9614 7.89046H72.3365V8.06929H72.5263V7.89046H73.2811L73.4709 7.35802C73.9608 7.5452 74.2653 7.68245 74.9759 7.71157C74.9141 7.5951 74.8523 7.47448 74.7861 7.35802C74.9141 7.16251 75.8454 7.10843 76.1058 6.82557L75.9161 6.47202H76.1058V6.29313C76.6046 6.50111 76.8164 6.63421 77.6109 6.64669V6.46785H77.4211V5.93541C78.017 6.05188 77.8007 6.20577 77.9861 6.28897C78.2068 6.27649 78.657 5.93127 79.116 6.11013L79.3058 6.46369H79.681C79.5 7.05019 79.5044 7.50774 79.8707 8.06097H79.681C79.4647 8.26479 79.6809 8.1317 79.3058 8.23985V9.12585H79.116C79.0675 9.42118 79.2925 9.43365 79.3058 9.47941V10.3654C78.6305 10.3904 78.2377 10.6191 77.8007 10.719L77.4255 10.5401C77.3019 10.719 77.1739 10.8937 77.0503 11.0725C76.9444 11.1141 76.0219 10.9394 75.7306 10.8937C75.6159 11.3596 75.1966 11.8338 74.6008 11.7797C74.6008 11.7797 74.4992 11.555 74.2256 11.6008L74.4154 11.9544H73.6606C73.5988 12.2497 73.5371 12.545 73.4709 12.8404L72.5307 12.6615L72.3409 13.0151C71.8334 13.1357 71.8466 12.674 71.776 12.6615L71.211 12.8404L71.4009 13.0192C71.4097 13.09 71.2331 13.4185 71.211 13.7305C70.5843 13.7888 69.9575 13.847 69.3263 13.9094V13.5558C68.8806 13.5184 68.8585 13.481 68.5716 13.377V13.9094C68.5319 13.9843 67.2784 14.8037 68.0066 15.1531H67.4418V14.9742C67.2608 14.6456 67.2519 15.3278 67.2519 15.3278C67.0401 15.4776 67.2255 15.307 67.0622 15.5067C67.5918 15.3403 67.5874 15.3195 68.1921 15.5067V15.6856L68.7571 15.5067L68.5672 15.3278L68.7571 14.7954C69.6398 15.1157 70.2224 14.8994 70.8271 14.4418C70.8889 14.3254 70.9506 14.2047 71.0168 14.0882H71.957C71.957 14.0882 71.9393 13.9843 72.3321 13.9094V14.4418H72.5219V14.0882C73.3251 14.0758 73.771 14.0508 74.2168 13.7347L74.4065 13.3811C74.7199 13.4394 75.0333 13.4976 75.3467 13.56C75.1304 13.3562 75.3466 13.4893 74.9715 13.3811V13.0276C75.1613 13.0858 75.3467 13.144 75.5364 13.2064V12.8528H75.9117V13.2064C77.0018 13.1232 77.7831 12.5451 78.5466 12.1416V12.674H78.9217V12.3204H80.2415V12.1416H80.8064V11.9627C81.1815 12.0209 81.5611 12.0792 81.9363 12.1416C82.0952 11.9419 81.9142 12.1166 82.1261 11.9627V11.2514C82.5012 11.1932 82.8808 11.1349 83.256 11.0725C83.1942 11.2514 83.1324 11.4261 83.0662 11.605H83.256V11.7838C83.4679 11.6341 83.2825 11.8046 83.4458 11.605C83.662 11.4011 83.5209 11.605 83.6356 11.2514C83.9313 11.2639 84.9553 11.4302 84.9553 11.4302V11.2514H85.1451V10.719C85.3525 10.4694 85.9925 10.536 86.4648 10.5401V10.719L87.5947 10.5401V10.3612H87.9698V10.1824H88.5348L88.345 10.7148H88.5348C88.6716 10.224 88.5877 10.3196 89.0997 10.1824V10.536C89.2895 10.4777 89.4749 10.4195 89.6647 10.3571V10.1782C90.1061 10.12 90.543 10.0618 90.9844 9.99936V9.82047H91.5494L91.7391 9.46692C91.898 9.40868 92.9794 9.65409 93.2443 9.82047V9.46692L93.8092 9.28808V9.1092C94.0652 9.03432 93.7342 9.23817 93.999 9.28808C94.3124 9.34632 94.3344 9.11751 94.3741 9.1092C94.7184 9.04264 95.1024 9.34212 95.3143 9.46275V9.28392C95.9013 8.7806 95.3584 8.53103 96.4442 8.39792V8.57675H97.0092L96.8193 8.93036C97.062 9.21737 97.1724 8.73482 97.3843 9.46275C97.6314 9.27557 97.6667 9.1009 97.9492 8.93036V9.46275H98.3244C98.2626 9.10919 98.2008 8.75148 98.1346 8.39792C99.0173 8.11506 98.7702 8.53518 99.2645 7.51192H99.4543C99.4322 7.89044 99.2601 8.11921 99.2645 8.2232L99.4543 8.40208C99.7985 8.17746 99.4764 8.16083 99.6441 8.04852C99.8604 7.89878 99.7633 8.21072 99.8339 8.22736C100.024 8.16913 100.209 8.11092 100.399 8.04852V7.69492C100.823 7.6242 101.123 7.40377 101.719 7.51608C101.719 7.51608 101.727 7.74899 102.094 7.69492V7.51608H103.034V7.69492C102.584 7.80307 102.685 7.75319 102.469 8.04852H102.844C103.387 7.20412 104.292 7.49945 105.294 7.16253L105.483 6.63008C106.022 6.63008 106.291 6.69245 106.613 6.80892V6.09764H106.803C106.927 6.2765 107.055 6.45122 107.178 6.63008H107.368L107.178 6.98364H107.368V7.16253C107.907 7.52857 107.854 6.84636 108.123 7.69492H108.498V8.04852H108.873C108.811 8.22739 108.75 8.40205 108.683 8.58092H108.873C109.001 8.84713 109.006 8.87628 109.063 9.29224H109.438V9.6458C109.729 9.80387 109.831 9.90787 110.003 10.1782C110.612 9.86627 110.361 9.75394 111.133 9.99936L110.943 9.46692H111.318V9.11336H111.693V9.29224H111.883V9.11336L112.448 9.29224L112.258 9.82464H112.634C112.77 9.3338 112.687 9.42951 113.199 9.29224C113.481 8.98027 113.706 8.95528 114.329 8.93864V8.58508C114.704 8.46861 115.083 8.34799 115.458 8.23152C115.472 8.6974 115.533 8.83467 115.648 9.11752C115.86 8.96778 115.675 9.1383 115.838 8.93864H116.028V8.40625C116.593 8.46448 117.158 8.52269 117.723 8.58508V8.23152H118.098L118.288 7.69908C118.539 7.75732 118.791 7.81557 119.042 7.87797C119.104 7.7615 119.166 7.64088 119.232 7.52441L120.172 7.70324V8.0568C120.653 7.78227 121.47 6.95452 122.057 7.34552H122.432V7.69908H122.622V7.34552C123.527 7.29977 123.531 7.22074 124.317 7.34552C124.378 7.05019 124.44 6.75486 124.506 6.45953C125.376 6.30562 126.034 6.30562 126.577 6.45953V6.10597H127.706V6.2848H128.271V6.46369C128.461 6.40545 128.646 6.3472 128.836 6.2848V6.10597C128.62 5.90215 128.761 6.10598 128.647 5.75241C129.264 5.76489 129.203 5.97703 129.587 5.75241L129.776 5.3988L130.906 5.75241V6.10597C131.414 6.10597 131.974 6.16418 132.226 5.92708V5.57353L132.601 5.75241V5.57353C132.976 5.51529 133.356 5.45709 133.731 5.39469C133.908 5.50284 133.665 5.6484 133.921 5.57353L134.111 5.21997C134.349 5.21997 134.592 5.53607 135.051 5.3988V5.21997C135.364 5.16173 135.678 5.10348 135.991 5.04108L135.801 5.57353H135.991C136.41 6.00197 136.344 5.82312 136.931 5.75241C136.909 6.31396 136.565 6.08514 137.121 6.2848C137.205 6.72572 137.293 6.93791 137.311 7.52857C136.79 7.65752 136.891 7.57845 136.746 8.06097H136.556V8.94696C136.106 9.03016 135.964 9.15077 135.616 9.30052V8.76813H135.426C135.148 9.76228 135.099 9.13416 134.486 9.47941V9.65829L133.731 10.1907C133.793 10.0118 133.855 9.83716 133.921 9.65829H133.731C133.616 9.94115 133.563 10.0784 133.541 10.5443C132.831 10.6857 132.486 10.8895 131.471 10.8978V10.5443H131.096V10.8978H130.156V11.0767H130.346C130.227 11.3304 130.125 11.2098 129.971 11.4302H129.595L129.785 11.0767H129.595C129.41 11.3179 129.485 11.4261 129.03 11.4302C129.03 11.4302 128.898 11.1765 128.655 11.2514C128.594 11.3679 128.532 11.4885 128.465 11.605H128.09L127.901 12.6698L127.146 12.8487V12.1374H126.771C126.634 12.7073 126.515 12.7821 125.831 12.8487L126.02 12.3162H125.831C125.76 12.5201 125.778 12.9485 125.455 12.8487L125.266 12.3162C125.076 12.3745 124.89 12.4327 124.701 12.4951V12.8487C124.401 12.7405 124.255 12.6906 123.761 12.6698V12.1374H123.571V12.6698C123.787 12.8737 123.646 12.6698 123.761 13.0234C123.319 13.0816 122.882 13.1398 122.441 13.2022V13.5558C121.774 13.6224 121.867 13.7763 121.311 13.9094V14.4418C120.852 14.342 120.896 14.2546 120.556 14.0882V14.4418H120.366V14.9742H120.556V14.6207H120.931V14.9742C121.245 14.916 121.558 14.8578 121.871 14.7954V15.3278H122.247V14.7954C122.56 14.8536 122.873 14.9118 123.187 14.9742C123.275 14.55 123.403 14.4168 123.562 14.0882C124.175 14.0924 124.921 14.0092 125.257 14.2671H125.447C125.508 14.1507 125.57 14.03 125.636 13.9136H126.012V13.7347H126.387V13.5558L126.762 13.7347V13.5558H128.647C128.585 13.377 128.523 13.2023 128.457 13.0234H128.832V12.8445H129.022V13.0234L129.587 13.2022C129.6 13.4518 129.631 13.2522 129.397 13.3811C129.609 13.5683 129.397 13.4602 129.772 13.56V13.3811H129.962V12.8487H130.152C130.315 12.6033 130.293 12.5409 130.341 12.1374C130.787 12.1166 130.818 12.0833 131.096 11.9585V12.1374H131.286V12.3162L131.096 12.6698H131.661V12.3162C132.102 12.258 132.539 12.1998 132.981 12.1374V12.3162H133.171C133.382 12.1748 133.1 12.0833 133.36 12.1374V12.3162H134.115V12.6698H134.305C134.367 12.3163 134.428 11.9585 134.495 11.605H134.87V11.9585H135.06V11.4261C135.492 11.4428 135.55 11.5758 135.814 11.605L136.004 11.2514C136.004 11.2514 136.521 11.4178 136.759 11.4302V11.0767L136.949 11.2556C137.2 11.1973 137.452 11.1391 137.703 11.0767V11.2556H138.644V10.7231H139.019V10.902H139.208V10.7231L139.584 10.902L139.773 10.3696C140.272 10.1949 140.166 10.7564 140.528 10.7231V10.5443C141.354 10.3613 141.565 10.1075 142.413 10.0118V10.1907H142.223C141.866 10.3446 142.598 10.3696 142.598 10.3696C142.757 10.5692 142.576 10.3945 142.788 10.5484V10.1948L143.728 10.016C143.79 9.89954 143.852 9.77887 143.918 9.66241L144.108 9.84129C145.224 9.90784 145.37 9.4711 145.992 9.13001V9.66241H146.182C146.398 9.45858 146.182 9.59172 146.557 9.48357V9.13001C146.747 9.18825 146.932 9.24645 147.122 9.30885L147.312 8.95529H148.067V8.77646H148.257C148.371 9.20074 148.318 9.10503 148.632 9.30885V8.77646C149.62 8.62671 149.466 8.75565 150.327 9.13001C150.424 8.71405 150.6 8.46447 150.892 8.24401C151.108 8.44784 150.892 8.3147 151.267 8.42285V8.06929H151.832V7.71574C152.145 7.77397 152.458 7.83218 152.772 7.89457V8.24818H153.147V7.71574C153.557 7.74069 153.774 7.89457 153.902 7.89457V7.71574L154.467 7.53685C154.528 7.65332 154.59 7.77399 154.656 7.89046C155.257 8.05684 156.157 7.52024 156.541 7.35802L156.351 6.82557H156.916C157.031 7.24985 156.978 7.15419 157.291 7.35802C157.45 7.55768 157.269 7.38294 157.481 7.53685C157.495 7.07097 157.556 6.9337 157.671 6.65085C158.046 6.59262 158.426 6.53441 158.801 6.47202C158.96 6.67168 158.779 6.49695 158.991 6.65085C158.845 6.82971 158.761 6.8256 158.616 7.00446H159.18L158.991 6.47202L159.18 6.29313C159.459 6.37632 159.481 6.49697 159.935 6.47202V6.29313H160.125V6.47202C160.377 6.53025 160.628 6.58846 160.88 6.65085V6.82974C161.648 7.10427 161.996 6.70081 162.385 7.00862C162.972 7.37467 162.473 7.23738 162.76 7.7199L163.135 7.89873V8.25234H163.325C163.497 8.4936 163.466 8.5643 163.515 8.96362L162.76 8.78473C162.91 9.35876 163.109 9.39621 163.135 10.2032C162.923 10.3529 163.109 10.1824 162.945 10.3821H162.756C162.698 9.84963 162.729 9.89951 162.38 9.67073V9.84962H162.57C162.447 10.0867 162.319 10.3238 162.195 10.5609C161.705 10.5692 161.546 10.5984 161.255 10.7398V10.9186C160.933 11.0226 160.928 10.7523 160.88 10.7398C160.204 10.5776 159.776 10.9644 159.56 11.2722H159.37C159.308 11.6258 159.247 11.9835 159.18 12.3371H158.805L158.616 11.9835C158.364 12.0417 158.112 12.0999 157.861 12.1623C157.9 12.5825 157.94 12.6033 158.051 12.8737C157.614 12.857 157.569 12.7322 157.296 12.6948L157.106 13.0483C156.854 13.1066 156.603 13.1648 156.351 13.2272C156.215 13.7181 156.298 13.6224 155.786 13.7597C155.124 14.3212 154.568 13.535 154.467 13.5808V13.7597C154.153 13.9385 153.84 14.1132 153.526 14.2921C153.628 14.9118 153.712 14.6207 153.526 15.1781H153.716V14.9992H154.471V15.3528L155.036 15.1739V14.9951L155.601 15.1739V14.6415C155.791 14.6997 155.976 14.7579 156.166 14.8203V14.6415L155.976 14.4626H157.106C157.168 14.6415 157.23 14.8162 157.296 14.9951C157.419 14.9368 157.671 14.6415 157.671 14.6415C157.861 14.6997 158.046 14.7579 158.236 14.8203V14.6415C158.514 14.5042 158.549 14.5084 158.991 14.4626V14.1091H159.366V13.7555H160.121V14.1091C160.544 14.0633 160.619 14.0924 160.875 13.9302V13.7513H161.25V13.5724H161.626V13.3936C161.961 13.1399 162.076 12.9943 162.566 12.8612V13.3936H163.321C163.382 13.0983 163.444 12.8029 163.51 12.5076H163.885C163.824 12.6865 163.762 12.8612 163.696 13.0401H163.885C164.155 12.7863 164.936 12.5866 165.391 12.5076V12.1541C165.642 12.0958 165.894 12.0376 166.145 11.9752V11.4427H166.521V11.9752H166.896V11.4427H167.836C167.774 11.6216 167.712 11.7963 167.646 11.9752H168.021C168.215 11.7714 168.37 11.6341 168.776 11.6216V11.8005H168.966L169.155 11.6216C169.332 11.3013 169.416 11.3429 169.531 10.9103L170.096 10.7315V10.5526L170.285 10.7315L170.85 10.5526V11.085H171.225C171.265 10.6649 171.305 10.6441 171.415 10.3737L171.79 10.5526V10.3737C172.06 10.1533 172.082 9.88286 172.355 9.66241C172.413 9.7456 172.739 10.3072 172.92 10.1948L173.11 9.66241C173.927 9.60417 174.743 9.54596 175.56 9.48357V9.66241C175.039 9.79135 175.14 9.71233 174.995 10.1948C175.463 10.1158 175.688 10.0327 176.314 10.016V9.83713H176.125V8.95113C176.438 9.00936 176.751 9.06762 177.065 9.13001C177.127 8.95115 177.188 8.77643 177.255 8.59757C177.471 8.80139 177.33 8.59756 177.444 8.95113L178.009 9.13001V8.95113C178.398 8.75147 178.349 8.6766 178.949 8.59757V8.06513C179.351 8.04433 179.594 7.88213 179.704 7.88629L179.894 8.06513V7.71157L180.834 7.53269V7.88629C180.958 7.82806 181.086 7.7698 181.209 7.70741V7.52857C181.509 7.4953 181.443 7.83637 181.584 7.88213H182.339C182.401 7.5868 182.463 7.29146 182.529 6.99613C182.842 7.05437 183.156 7.11257 183.469 7.17497L183.659 6.82141H183.849V7.00029C184.038 6.94206 184.224 6.8838 184.414 6.82141V6.46785C184.63 6.67167 184.489 6.46784 184.603 6.82141H184.979C185.067 6.39713 185.195 6.26402 185.354 5.93541C185.98 5.94373 187.049 6.1143 187.049 6.1143V5.93541H187.424V5.75658H187.989C188.05 5.64011 188.112 5.51944 188.178 5.40297C188.368 5.4612 188.554 5.51946 188.743 5.58185V5.76074H189.684V5.40713L190.438 5.2283V5.58185H190.813C190.933 6.06853 191.061 5.98534 191.189 6.46785H191.754C191.89 6.95869 191.807 6.86303 192.319 7.00029V7.35385C191.193 7.57015 191.343 8.06513 190.999 8.95113H192.129L192.319 8.23985C193.104 8.12754 192.853 8.06516 193.638 7.88629V8.23985C194.53 7.88628 194.397 7.88628 195.143 8.23985V7.88629C195.395 7.82806 195.646 7.7698 195.898 7.70741V7.35385H196.273V7.53269H196.463V7.35385C196.891 7.27482 196.971 7.44533 197.218 7.53269V7.35385H197.028C196.679 7.18331 197.403 7.17497 197.403 7.17497V6.82141H197.778V6.46785C198.37 6.57184 198.617 6.75486 199.283 6.82141L199.473 6.28897C199.473 6.28897 199.072 6.25988 199.283 6.11013H199.658V6.28897H200.788V5.75658C201.389 5.87304 201.159 6.01862 201.353 6.11013C201.667 6.08101 201.702 5.76073 201.729 5.75658C202.091 5.6609 201.989 5.87302 202.104 5.93541H202.293V5.75658C202.545 5.81481 202.797 5.87302 203.048 5.93541C203.185 5.44458 203.101 5.54023 203.613 5.40297V5.75658H204.368C204.545 5.43629 204.628 5.47785 204.743 5.04525L205.308 5.22413V5.04525C205.432 4.98701 205.56 4.92881 205.683 4.86641V5.21997H206.058L205.869 4.68753C206.319 4.60433 206.46 4.48372 206.809 4.33397V5.04525C207.788 4.80399 207.48 4.65427 208.693 4.86641V4.33397H209.258V4.51286C209.179 4.61685 208.949 4.5378 209.069 4.86641H209.258C209.563 3.76827 209.66 4.56689 210.388 4.15508C210.816 3.91383 210.375 3.50202 211.328 3.26908V3.44797L211.893 3.26908V3.62269H212.083V3.26908C212.75 3.33564 212.657 3.48958 213.213 3.62269V3.97625C213.389 4.25494 214.559 4.30486 213.968 4.86225H214.343V5.57353L213.968 5.75241C213.959 5.81065 214.144 6.14756 214.158 6.46369H214.533C214.444 6.88797 214.316 7.02108 214.158 7.34969C213.822 7.36633 213.478 7.53689 213.403 7.52857V7.34969H212.648V7.52857L211.518 7.70741V8.06097C211.267 8.17743 211.015 8.29805 210.763 8.41452V8.23569H210.574V8.76813L209.254 9.12169C209.47 9.32551 209.254 9.19237 209.629 9.30052V9.47941C209.96 9.62499 210.234 9.37539 210.384 9.30052V9.12169H210.949V8.76813C211.827 8.72653 212.021 8.51022 212.644 8.23569V8.0568H213.963V8.23569H213.773C213.557 8.43951 213.774 8.30637 213.398 8.41452V8.76813C214.166 8.56015 213.597 8.60589 213.963 8.23569L214.338 8.41452V8.23569H214.714V8.0568H215.279C215.477 7.94865 215.746 7.17914 216.219 7.34552V7.52441H216.594V6.99197C216.784 7.0502 216.969 7.10841 217.159 7.1708V6.99197C217.534 6.93373 217.914 6.87548 218.289 6.81308V7.16664H218.664C218.726 7.3455 218.787 7.52022 218.854 7.69908H219.044V7.34552H219.419C219.529 6.68415 219.529 6.93791 219.419 6.28069C219.476 6.30149 221.233 6.66752 221.303 6.63425V6.45536H221.493V5.74408H221.683C222.067 6.06853 222.539 5.794 223.188 5.74408V5.39053C223.568 5.49036 223.351 5.3697 223.563 5.56936C224.256 5.38218 224.079 5.21165 224.503 4.85808V4.6792C224.98 4.40051 225.991 4.66672 226.763 4.6792C226.882 4.19252 227.01 4.27571 227.138 3.7932C227.946 3.76408 227.783 3.6809 228.268 3.43964V3.97209H229.023C229.063 3.55196 229.102 3.53118 229.213 3.26081L229.778 3.43964L229.967 3.08609H230.343V2.9072C230.532 2.84897 230.718 2.79076 230.908 2.72837L231.097 3.26081C231.574 2.89892 231.177 2.83236 232.037 2.72837V2.9072C231.821 3.06943 231.817 3.03619 231.662 3.26081H231.852V3.43964C232.245 3.24414 232.187 3.15264 232.792 3.08609C232.951 3.28575 232.77 3.11107 232.982 3.26497C232.761 3.6019 232.823 3.43551 232.417 3.61853V3.79736H232.792C232.73 4.15093 232.669 4.50868 232.602 4.86225H232.792V5.04108H232.602V5.39469C232.664 5.81065 232.726 6.22245 232.792 6.63841H232.602C232.444 6.84223 232.505 6.88798 232.227 6.99197V6.81308H232.037C231.914 6.99195 231.786 7.16666 231.662 7.34552H231.097L230.908 7.69908C230.656 7.75732 230.404 7.81557 230.153 7.87797C230.091 8.05683 230.029 8.23155 229.963 8.41041L229.398 8.58924L229.208 8.9428H229.018V8.76397C228.325 8.61006 228.109 9.36708 227.699 8.9428V9.29641H227.324C227.385 9.53351 227.447 9.77059 227.513 10.0077H227.324C227.112 10.3113 227.204 10.2489 226.759 10.3612C226.741 10.3238 226.489 9.71649 226.383 9.8288V10.0077L226.008 10.1865C225.946 10.3654 225.885 10.5401 225.818 10.719H225.254C224.622 11.0101 225.006 11.189 223.934 11.2514C223.996 11.4303 224.057 11.605 224.124 11.7838C224.375 11.7256 224.627 11.6674 224.878 11.605V12.1374H225.068V11.9585H225.823C226.397 11.7547 226.662 11.4636 227.518 11.4261V11.0725C228.052 10.9602 228.017 10.7439 228.083 10.719H228.837V10.8978L229.592 10.719C229.592 10.719 229.676 10.9394 229.967 10.8978V10.719L230.722 10.8978V10.719C230.938 10.5151 230.797 10.719 230.912 10.3654H230.722V10.5443C230.559 10.8812 230.532 10.1907 230.532 10.1907C231.221 10.2489 231.914 10.3072 232.602 10.3696L232.792 10.016C232.982 9.96194 233.136 10.2905 233.547 10.1948V10.016H234.487V10.1948H234.677V10.016H235.432L235.621 9.48357H235.811L235.621 9.13001H236.186C236.403 9.33383 236.186 9.2007 236.561 9.30885V8.95529C237.012 9.03848 237.153 9.1591 237.502 9.30885V9.13001H237.312C236.963 8.95947 237.687 8.95113 237.687 8.95113V9.13001C237.903 9.33383 237.762 9.13 237.877 9.48357C238.278 9.46277 238.517 9.30468 238.631 9.30468V9.48357H239.007C239.06 9.16744 239.196 9.13001 239.196 9.13001C239.135 8.95115 239.073 8.77643 239.007 8.59757H239.196V8.41869C239.73 8.6433 239.973 8.87626 240.701 8.95113V8.59757C241.8 8.36047 240.807 8.14833 241.831 8.59757V7.88629H242.021V8.06513C242.273 7.88627 242.524 7.71155 242.776 7.53269V8.24401H242.966C243.058 8.16082 242.913 7.95698 243.156 8.06513V8.24401H243.345C243.345 8.24401 243.292 8.88042 243.535 8.59757V8.41869C243.751 8.21486 243.61 8.4187 243.725 8.06513H243.16C243.306 7.5327 243.275 7.59924 243.915 7.53269V7.71157L244.48 7.53269V7.71157H245.045V7.89046C245.53 7.98613 246.077 7.33719 246.364 7.17913L246.929 7.35802V7.17913C247.243 6.98779 247.243 6.93788 247.684 6.82557C247.622 7.00444 247.56 7.17915 247.494 7.35802H247.684V7.53685C247.874 7.42038 248.059 7.29976 248.249 7.18329V7.00446H248.624C248.964 6.86303 249.035 6.60094 249.189 6.29313C249.502 6.53023 249.816 6.76736 250.129 7.00446C250.244 6.65505 250.138 6.57185 250.504 6.47202C250.566 6.49281 250.562 6.80477 250.879 6.82557C251.281 6.32226 251.047 6.46782 251.634 6.64669C251.696 6.07266 251.806 6.12678 252.009 5.76074C252.667 5.85641 252.358 5.93544 252.949 5.76074V6.82557H253.139C253.351 6.52192 253.258 6.58433 253.704 6.47202C254.057 7.0294 254.402 6.97534 254.459 7.89046C254.975 7.91126 255.823 8.13587 255.964 7.89046H256.154V8.06929C256.675 8.18576 257.266 8.56429 257.474 8.95529V9.48773H257.663C257.924 9.81634 258.1 9.89954 258.228 10.3737C258.038 10.3155 257.853 10.2572 257.663 10.1948V10.3737H257.853V10.9062H258.043C258.215 11.1682 258.211 11.3429 258.233 11.7922C258.016 11.996 258.158 11.7922 258.043 12.1457C257.416 12.204 256.789 12.2622 256.158 12.3246V11.971C255.907 12.0292 255.655 12.0875 255.404 12.1499V11.7963C255.28 11.8545 255.152 11.9128 255.028 11.9752C254.967 11.8587 254.905 11.7381 254.839 11.6216C254.834 11.6216 254.282 11.8629 253.898 11.6216L253.709 11.0892C253.488 10.9436 253.386 11.6091 252.954 11.4427V11.2639C252.738 11.0601 252.879 11.2639 252.764 10.9103L252.199 11.0892V10.9103H252.009C252.071 10.7314 252.133 10.5568 252.199 10.3779C252.199 10.3779 251.965 10.3238 252.009 10.0243C252.009 10.0243 252.323 9.94527 252.199 9.67073H252.009C251.793 9.87455 252.009 9.74147 251.634 9.84962C251.572 10.0285 251.511 10.2032 251.444 10.3821C251.003 10.3321 250.977 10.3238 250.69 10.2032V10.0243C250.372 10.0451 250.372 10.3613 250.315 10.3779C249.886 10.5193 249.555 10.1574 249.374 10.199V10.3779C248.734 10.6192 248.593 10.9311 247.869 11.0892C247.931 10.9103 247.993 10.7356 248.059 10.5567H247.684C247.406 11.0392 247.106 11.3679 246.364 11.4427V10.9103H246.175C246.029 11.4427 246.06 11.3762 245.42 11.4427V11.0892C244.634 11.4927 244.528 11.4511 243.535 11.2681V10.9145H243.345C243.332 11.6008 243.376 11.6465 242.78 11.8005V11.9793C242.599 12.3079 242.591 11.6258 242.591 11.6258H242.215C242.154 11.7422 242.092 11.8629 242.026 11.9793C241.712 11.9211 241.399 11.8628 241.086 11.8005V12.1541H240.521V12.3329C240.304 12.5367 240.446 12.3329 240.331 12.6865L239.201 12.8653V12.5118L237.316 12.6906V13.0442H236.751V13.2231C236.584 13.5558 236.561 12.8695 236.561 12.8695C235.957 13.0068 236.155 13.1357 235.432 13.2231V13.7555C234.319 13.6473 234.403 13.1274 233.172 13.0442C233.167 13.6348 233.075 13.847 232.982 14.2879H232.607C232.664 14.134 232.969 13.8969 232.797 13.5766H232.607V13.7555C232.391 13.9593 232.532 13.7555 232.417 14.1091L231.287 14.2879V14.6415C230.656 14.5333 230.1 14.1548 229.402 14.4626C229.279 14.6415 229.151 14.8162 229.027 14.9951C228.515 15.1365 228.445 14.5167 228.273 14.4626C227.933 14.3545 228.136 14.6623 228.083 14.8162C227.893 14.7579 227.708 14.6997 227.518 14.6373V15.3486H227.143L226.953 15.7022C226.644 15.7895 226.604 15.5275 226.578 15.5233C226.123 15.4485 226.088 15.7022 225.823 15.7022V15.5233C225.448 15.4651 225.068 15.4068 224.693 15.3444V15.698C223.444 15.8228 222.808 15.8519 221.868 15.698L221.678 16.2304C221.325 16.1431 220.778 16.1556 220.173 16.0516V15.8727C220.39 15.6689 220.248 15.8727 220.363 15.5192C219.913 15.5358 219.895 15.6356 219.608 15.698V15.5192C219.295 15.3278 219.299 15.2654 218.854 15.1656V14.812H218.479C218.417 14.6331 218.355 14.4585 218.289 14.2796L217.159 14.1007V13.7472C217.309 13.8054 217.75 14.109 218.099 13.926V13.7472C217.543 13.4061 217.64 13.04 217.724 12.5035C217.975 12.387 217.98 12.2248 218.099 12.1499C218.223 12.2081 218.351 12.2663 218.474 12.3287V11.6175H218.664C218.602 11.2639 218.54 10.9061 218.474 10.5526C218.284 10.4943 218.099 10.4361 217.909 10.3737C217.971 10.4902 218.033 10.6108 218.099 10.7273L217.534 10.5484V10.902H217.344C217.282 11.0185 217.221 11.1391 217.154 11.2556H216.589C216.634 11.6674 216.797 11.3637 216.589 11.788L216.214 11.6091V11.9627C216.011 12.2747 216.025 11.6091 216.025 11.6091C215.711 11.6674 215.398 11.7256 215.084 11.788C215.084 11.788 214.996 11.5218 214.709 11.6091C214.647 11.7256 214.586 11.8462 214.519 11.9627H213.955C213.893 12.1415 213.831 12.3163 213.765 12.4951C213.473 12.3495 212.93 11.8545 212.445 11.9627C212.383 12.0792 212.321 12.1998 212.255 12.3162C211.893 12.283 211.942 11.971 211.88 11.9627H211.69V12.1416H210.75V12.3204H211.125C211.063 12.674 211.002 13.0317 210.936 13.3853H210.56C210.388 13.3146 210.437 12.8445 209.806 13.0317L209.616 13.3853H208.676V13.2064C208.402 13.065 208.358 13.0816 207.921 13.0276V13.56C207.731 13.5018 207.546 13.4435 207.356 13.3811V13.56C207.14 13.7638 207.281 13.56 207.166 13.9136C206.464 14.1007 206.659 14.2796 206.226 14.6248V14.8037H205.661V14.2713H205.286V14.6248H204.346V14.446H204.156C204.033 14.6831 203.905 14.9202 203.781 15.1573L203.406 14.9784V15.1573L202.841 15.5108V14.9784H202.651V15.1573L202.086 14.9784V15.1573C201.821 15.1448 202.161 15.0075 201.896 14.9784L200.766 15.1573V15.6897H200.577V15.5108C200.065 15.2529 199.654 15.7604 199.447 15.8644C199.341 15.307 199.261 15.1198 198.692 14.9784C198.798 15.411 198.891 15.3694 199.067 15.6897H198.692C198.392 15.9518 197.584 15.8852 196.997 15.8686V15.515H196.622V15.8686C196.247 15.8103 195.867 15.7521 195.492 15.6897C195.399 15.2696 195.315 15.2696 195.117 14.9784C195.373 14.7704 195.302 15.1115 195.492 14.7996C195.245 14.654 195.271 14.6747 195.117 14.446H195.492C195.532 14.0258 195.571 14.0051 195.682 13.7347C195.148 13.6182 194.971 13.4061 194.742 13.0234H195.307C195.43 12.5492 195.558 12.075 195.682 11.605C195.435 11.4594 195.461 11.4802 195.307 11.2514C194.905 11.4677 194.896 11.6507 194.366 11.7838V11.4302H194.177V11.9627C193.444 12.0209 193.329 12.2497 192.857 12.4951C192.817 12.075 192.778 12.0542 192.667 11.7838C192.455 11.9336 192.641 11.763 192.477 11.9627H192.288L192.477 12.1416L192.288 12.674C191.489 12.5451 191.383 12.6449 190.403 12.674L190.593 13.2064H190.403C190.248 13.4393 190.271 13.4144 190.028 13.56V12.8487C189.07 12.8986 189.198 13.1648 188.143 13.2022C188.002 13.8054 187.742 14.0217 187.013 14.0882V13.7347H186.824V13.9136C186.66 14.2505 186.634 13.56 186.634 13.56C186.444 13.5018 186.258 13.4435 186.069 13.3811L186.259 13.7347H185.883C185.583 13.9967 185.42 14.3462 185.318 14.7996H184.753V14.446C183.544 14.4876 183.24 15.0949 182.304 15.332C182.423 14.8453 182.551 14.9285 182.679 14.446C181.474 14.6955 180.618 15.4776 179.854 14.2671C180.702 13.8012 180.256 13.6057 180.044 12.8487H179.289C179.13 12.649 179.311 12.8238 179.1 12.6698C179.157 12.5159 179.461 12.2788 179.289 11.9585H179.1V11.7797H178.535C178.217 12.2705 177.727 12.1374 177.405 12.491L177.215 13.0234H176.65V13.2022C176.46 13.2605 176.275 13.3187 176.085 13.3811V13.0276C175.498 13.1482 175.229 13.56 174.765 13.7388H174.011V13.9177C173.821 13.8595 173.635 13.8012 173.446 13.7388V14.0924L172.316 14.2713V14.4501H171.561C171.499 14.4626 171.512 14.6956 171.186 14.629V14.4501H170.811V14.2713L169.491 14.0924C169.354 14.342 169.151 14.629 168.926 14.8037V14.0924H168.736V14.446C168.546 14.3877 168.361 14.3295 168.171 14.2671C168.083 14.6831 167.858 14.8162 167.796 15.1531H167.986C168.048 15.332 168.109 15.5067 168.176 15.6856C167.103 15.698 166.993 15.4983 166.291 15.332C166.013 15.8145 165.713 16.1431 164.971 16.218V15.8644H164.596V16.5757H164.221V16.7546H162.901V16.9334H162.526V17.1123C162.403 17.054 162.274 16.9958 162.151 16.9334V17.1123H161.961C161.683 16.9001 162.12 16.9833 161.771 16.7587C161.793 17.3203 162.138 17.0915 161.581 17.2912V16.9376C160.522 17.0582 160.972 17.3785 160.452 17.6489H160.076C160.015 17.8278 159.953 18.0025 159.887 18.1813H158.947V18.0024C159.414 17.678 159.189 17.8652 159.136 17.2912H158.761V17.8236C157.124 17.8278 156.837 18.1314 155.372 18.1772V17.8236C155.12 17.9401 154.868 18.0607 154.617 18.1772C154.678 18.4143 154.74 18.6513 154.807 18.8884C154.317 18.8593 154.162 18.851 153.866 18.7096V18.5307L153.301 18.7096C153.27 18.7054 153.235 18.46 152.926 18.5307V18.7096H152.551V18.8884H152.176V19.0673C151.916 19.2296 151.845 19.1921 151.421 19.2462V18.7137H151.231V18.8926H150.291C150.163 18.9467 150.282 19.1214 149.726 19.2462C149.665 19.425 149.603 19.5997 149.537 19.7786H149.726C150.004 19.9949 149.042 19.9533 148.972 19.9574V19.7786C148.217 19.6621 147.467 19.5415 146.712 19.4251C146.813 18.9301 146.857 19.4084 146.712 18.8926C146.509 18.9924 146.319 19.371 145.957 19.2462V19.0673H145.767L145.957 18.7137H145.767C145.551 18.5099 145.767 18.643 145.392 18.5349C145.33 18.356 145.269 18.1813 145.202 18.0024H145.577C145.516 17.8236 145.454 17.6489 145.388 17.47H145.577V17.6489C145.741 17.9858 145.767 17.2953 145.767 17.2953H145.957V17.1164C145.833 17.0582 145.705 17 145.582 16.9376C145.644 16.7587 145.706 16.584 145.772 16.4052H145.582V16.2263H146.147V16.0474C145.9 15.9019 145.926 15.9226 145.772 15.6938C146.094 15.4942 146.028 15.5816 146.147 15.1614L146.902 14.9826C146.924 14.9701 147.193 14.3253 147.277 14.4501V14.8037H147.842C148.018 14.4834 148.102 14.525 148.217 14.0924C147.961 13.8844 147.93 13.768 147.842 13.3811H148.217V13.0276H148.592V12.8487C148.217 12.9069 147.837 12.9652 147.462 13.0276V12.8487C147.215 12.8612 146.99 13.1524 146.522 13.0276V12.8487C146.147 12.7904 145.767 12.7322 145.392 12.6698V13.3811H145.017V13.7347C144.827 13.6182 144.642 13.4976 144.452 13.3811V13.0276L144.262 13.2064C144.046 13.4102 144.187 13.2064 144.072 13.56H143.318V13.9136C142.942 13.8553 142.563 13.7971 142.188 13.7347C142.126 14.03 142.064 14.3253 141.998 14.6207C141.539 14.7205 141.583 14.8037 141.243 14.9742V14.7954C141.049 14.6415 140.983 14.4876 140.868 14.263C140.652 14.4668 140.793 14.2629 140.678 14.6165C140.303 14.6748 139.924 14.733 139.548 14.7954V15.149C139.103 15.1864 139.081 15.2239 138.794 15.3278V14.9742H138.983L138.794 14.4418H138.604V14.7954C138.48 14.7372 138.352 14.6789 138.229 14.6165C138.012 14.7579 138.154 15.0366 137.664 14.9701C137.602 14.8536 137.54 14.733 137.474 14.6165H137.284V14.9701L136.719 15.149C136.622 15.124 136.604 14.6997 136.344 14.7954C136.154 15.0325 135.969 15.2696 135.779 15.5067C135.589 15.4484 135.404 15.3902 135.214 15.3278V15.6814H134.839V16.035C134.627 15.8852 134.812 16.0557 134.649 15.8561C134.446 15.6938 134.614 15.8852 134.459 15.6772H134.649V15.4984H134.084V15.6772H133.894V15.4984H133.329C133.268 15.3819 133.206 15.2613 133.14 15.1448C133.016 15.203 132.888 15.2613 132.765 15.3237C132.509 15.3944 132.844 15.515 132.575 15.5025V15.3237H132.2C132.195 15.8727 132.253 16.2388 132.389 16.5674H131.635V16.921H131.445V16.3885H131.07L130.88 16.921C130.668 16.7712 130.853 16.9417 130.69 16.7421H130.5L130.69 16.2097C130.5 16.2679 130.315 16.3261 130.125 16.3885V16.5674H129.75C129.688 16.6839 129.626 16.8045 129.56 16.921H128.805V17.0998H128.616C128.523 17.0208 128.669 16.8128 128.426 16.921L128.236 17.2745L127.296 17.4534V17.0998H127.106L126.916 17.4534H126.727L126.537 17.0998C126.276 16.9875 126.007 17.0125 125.782 16.921C125.769 17.6073 125.813 17.6531 125.217 17.807V17.4534H124.842V17.807H123.902L123.527 18.693H123.151V18.5141C123.09 18.5058 122.719 18.6722 122.397 18.693C122.503 18.2604 122.595 18.3019 122.772 17.9816H122.397L122.207 18.5141L120.887 18.3352C120.689 18.4267 120.75 18.7345 120.887 18.8676H120.512C120.349 19.0506 120.185 19.1131 119.947 19.2212V18.6888C119.104 18.7553 119.4 18.8011 118.627 18.6888V18.8676C118.844 19.0714 118.702 18.8677 118.817 19.2212H117.877C117.828 19.2129 117.815 18.9924 117.502 19.0423V19.2212H117.127C117.065 19.4001 117.003 19.5748 116.937 19.7536C116.725 19.6039 116.911 19.7745 116.747 19.5748C116.535 19.425 116.721 19.5956 116.557 19.3959C116.805 19.2503 116.778 19.2711 116.933 19.0423H116.178C116.01 19.2295 115.847 19.2753 115.613 19.3959V19.5748L115.048 19.3959V19.5748C115.295 19.7204 115.269 19.6996 115.423 19.9283H115.048C114.827 19.6871 114.704 19.658 114.293 19.5748V19.9283C113.94 19.8036 113.556 19.7536 112.973 19.7495C112.766 19.3793 112.669 19.4334 112.598 18.8635H112.223V18.5099C112.011 18.6597 112.197 18.4891 112.033 18.6888H111.844V19.0423L111.468 19.2212V19.7536H111.279C111.089 19.5165 110.903 19.2794 110.714 19.0423H110.524C110.277 18.6472 110.625 18.5474 110.149 18.1563C110.21 17.9193 110.272 17.6822 110.339 17.4451C110.339 17.4451 110.096 17.3577 110.149 17.0915H110.339V16.2055C110.339 16.2055 110.453 16.2055 110.528 15.8519C111.049 15.723 110.948 15.802 111.093 15.3195H111.468V15.4984L112.033 15.3195V14.9659L112.973 15.1448C113.11 14.654 113.026 14.7496 113.538 14.6124V13.9011H113.728L113.538 13.5475H113.728C113.887 13.3479 113.706 13.5225 113.918 13.3686V13.1898C114.099 12.8612 114.108 13.5434 114.108 13.5434L114.673 13.7222V13.5434H114.483C114.545 13.3645 114.606 13.1898 114.673 13.0109H115.803V13.1898C116.244 13.1316 116.681 13.0733 117.122 13.0109V12.6574H117.877V12.3038C117.233 12.2955 116.575 12.1831 116.182 12.1249C116.059 12.3038 115.931 12.4785 115.807 12.6574L114.677 12.8362C114.783 12.4036 114.876 12.4452 115.052 12.1249H114.298V12.3038H114.487C114.704 12.5825 114.024 12.4702 113.922 12.4826V13.0151H113.733V13.194C113.419 13.2522 113.106 13.3104 112.793 13.3728C112.854 13.0775 112.916 12.7821 112.982 12.4868C112.523 12.5866 112.563 12.6698 112.228 12.8404V13.0192C111.852 12.9028 111.473 12.7822 111.098 12.6657V12.8445C110.881 13.0483 111.023 12.8445 110.908 13.1981C110.599 13.2521 110.087 13.5683 109.968 13.5517V13.3728H109.403C109.142 13.3229 109.473 13.1399 109.213 13.194L109.023 13.5475H108.648L108.838 13.194H108.648C108.432 13.3978 108.648 13.2646 108.273 13.3728V13.7264C107.959 13.7846 107.646 13.8428 107.333 13.9052C107.297 13.8969 107.271 13.6515 106.958 13.7264V13.9052H106.582V14.0841C106.397 14.0466 106.362 13.6057 106.207 13.7305C105.898 13.9718 106.415 14.0716 105.642 14.263V14.7954H105.453V14.4418H105.263C105.201 14.5583 105.139 14.6789 105.073 14.7954H104.318C104.093 14.4086 103.903 14.2089 103.378 14.0841V14.263H102.623L102.434 14.6165L101.869 14.4377V14.9701H101.493C101.03 15.7146 101.074 15.1781 100.553 15.5025C100.615 15.619 100.677 15.7396 100.743 15.8561C100.368 15.7978 99.9884 15.7396 99.6132 15.6772C99.5955 15.6814 99.5161 15.985 99.238 16.0308V15.8519H98.4833L98.2935 15.6731V15.8519C97.7594 16.1764 97.7418 16.3636 96.7885 16.3844C96.5766 16.0807 96.6693 16.1431 96.2235 16.0308V16.3844H95.8483V16.2055C95.61 16.1348 95.354 16.7088 95.2833 16.7379C94.8949 16.9001 94.7449 16.584 94.5286 16.5591V16.7379C94.1534 16.7961 93.7738 16.8544 93.3987 16.9168L93.2089 16.3844C92.6881 16.5133 92.7896 16.4343 92.644 16.9168C92.079 16.975 91.514 17.0333 90.9491 17.0957L90.7593 17.4492H89.4396V17.6281C88.9497 17.7653 88.5613 17.6447 88.1199 17.807C88.014 17.3744 87.9214 17.416 87.7448 17.0957C87.533 17.2454 87.7182 17.0749 87.5549 17.2745C86.8929 17.7154 87.5109 17.9068 86.6149 18.1605V18.3394H85.6747L85.4849 18.693C85.0656 18.851 84.9553 18.4725 84.7302 18.5141V18.693C84.355 18.7637 84.4918 18.6139 84.355 18.5141H84.1652V18.8676C83.9755 18.8094 83.7901 18.7512 83.6003 18.6888V18.5099L83.0353 18.6888V18.5099H82.2806L82.0908 18.1563C81.826 18.1563 82.0025 18.1023 81.901 18.3352C81.667 18.1314 81.8304 18.3352 81.7112 17.9816H82.4659V17.6281H81.7112C81.5347 17.3078 81.4509 17.3494 81.3361 16.9168H81.7112C81.6009 16.1847 81.5082 16.0682 81.1462 15.3195C80.8991 15.411 81.1992 15.3902 80.9565 15.4984H80.3915V15.6772C80.7711 15.7771 80.5549 15.6564 80.7667 15.8561C80.2282 15.8394 79.959 15.8228 79.6368 15.6772V15.8561C79.8531 16.0599 79.7118 15.8561 79.8265 16.2097C78.9041 16.2097 78.7541 16.4135 78.1318 16.5632V16.0308H77.9419V16.2097H77.7521L77.3769 16.0308V16.5632H76.8121V16.2097H76.6222V16.5632H76.8121V17.0957C76.1853 17.0915 75.9602 17.0041 75.4924 16.9168V17.2703C75.0466 17.2496 75.0156 17.2163 74.7375 17.0915V17.2703C74.5213 17.4742 74.6625 17.2703 74.5478 17.6239C73.5547 17.5199 74.1152 17.2413 73.2281 17.4451V17.0915C72.928 17.0499 72.9897 17.3952 72.8529 17.4451C72.1467 17.6946 71.5642 17.5449 70.9683 17.4451V17.9775L70.5931 17.7986V17.9775C70.2135 18.2812 70.6108 18.2479 70.4034 18.5099H70.2135C69.7589 17.8693 68.4524 18.4018 67.5785 18.5099V19.0423C67.2254 18.9508 66.5501 18.4059 66.2588 18.5099V18.6888H66.0691V19.2212C65.5041 19.2795 64.9391 19.3377 64.3742 19.4001V19.7536H64.564C64.5023 19.9325 64.4404 20.1072 64.3742 20.2861C63.9284 20.2653 63.8975 20.232 63.6195 20.1072V20.2861H63.4297V19.7536H63.0545V20.2861H62.8647V20.1072H62.11V20.2861L61.7348 20.1072V20.2861C61.3199 20.4067 61.1125 20.3402 60.7947 20.465V20.9973C59.8546 21.1305 59.8634 21.1554 59.0998 20.6438L58.9101 21.1762H58.1553V21.3551C57.9038 21.4134 57.6522 21.4716 57.4006 21.534V21.1804H57.0254C56.9107 21.8043 56.8223 21.9957 56.0852 22.0664V21.8875C56.3015 21.6837 56.1604 21.8875 56.2751 21.534C56.0235 21.4757 55.772 21.4175 55.5204 21.3551V21.1762C55.1629 21.0722 55.2599 21.2761 55.1452 21.3551L54.5802 21.1762V21.3551H54.77V22.0664H54.3949V21.7128C53.8785 21.9957 54.055 22.1496 53.2649 22.2452C53.1281 22.7361 53.212 22.6404 52.7 22.7777C52.1924 23.3434 51.601 23.2061 50.8153 23.1312V22.7777H51.57C51.5082 22.5988 51.4465 22.4241 51.3803 22.2452C51.0934 22.3492 51.0713 22.3825 50.6256 22.4241C50.5947 21.9416 50.5637 21.3551 50.2503 21.1804V21.0015C50.3872 20.8143 50.396 21.1554 50.6256 20.8227H50.2503C49.9149 20.6355 50.6256 20.6438 50.6256 20.6438C50.5196 20.2112 50.4269 20.2528 50.2503 19.9325H50.8153C50.9698 20.1654 50.9478 20.1405 51.1905 20.2861C50.7315 19.3543 50.4975 18.4933 52.1306 18.5099C52.3469 18.7137 52.1306 18.5806 52.5058 18.6888C52.5676 18.3935 52.6293 18.0981 52.6956 17.8028H52.3205V18.1563H51.9452L52.135 17.6239H51.9452C51.804 17.9608 52.0777 17.807 51.7555 17.9775C51.5083 17.7695 51.9805 17.7071 51.5656 17.6239V17.9775L51.1905 17.7986V17.9775H51.3803C51.2567 18.2146 51.1287 18.4517 51.0051 18.6888H50.8153V18.1563H50.6256V18.3352H50.0606C49.937 18.5141 49.809 18.6888 49.6854 18.8676H49.3103V19.0465H48.7453V19.2254H48.3701V19.4042C47.611 19.658 47.0417 19.1588 46.6753 19.4042C46.1633 19.7162 46.0795 20.3859 45.9206 20.4691H44.2257C44.0094 20.2653 44.2257 20.3984 43.8505 20.2902V19.9367H43.6607C43.7225 20.1738 43.7843 20.4109 43.8505 20.648H43.6607C43.3032 20.9391 42.6633 20.8351 42.1557 21.0015V21.1804C41.8776 21.2636 41.4186 20.989 41.401 21.0015V21.3551H40.4608C40.271 21.7711 40.0856 22.1829 39.8958 22.5988H39.7061V22.0664H39.3309C39.2911 22.4865 39.2514 22.5073 39.1411 22.7777C38.9292 22.6279 39.1147 22.7985 38.9513 22.5988C38.7351 22.395 38.8762 22.5988 38.7615 22.2452C39.0837 22.0456 39.0175 22.133 39.1367 21.7128H38.5717V22.7777C38.2583 22.7194 37.945 22.6612 37.6317 22.5988V22.42C37.8479 22.2161 37.7067 22.42 37.8214 22.0664H37.4462L37.6361 21.7128H37.4462C37.2299 21.9167 37.4463 21.7835 37.0711 21.8917C37.0226 22.2369 36.8857 22.2369 36.8812 22.2452C36.5811 23.1187 37.049 23.3808 35.9412 23.489V23.1354C35.6808 23.2227 35.5263 23.2061 35.1864 23.3143V23.4931C34.9967 23.4349 34.8113 23.3767 34.6215 23.3143V23.4931H34.2463L34.4361 23.8467H33.3062V24.0256C33.5225 24.2294 33.3812 24.0255 33.496 24.3791C33.1914 24.3666 32.1763 24.2003 32.1763 24.2003C32.1145 24.3167 32.0527 24.4374 31.9865 24.5538C31.4745 24.8159 31.3862 24.5996 31.0463 24.5538V24.7327H30.6712L30.4814 25.0863C30.168 25.1445 29.8547 25.2027 29.5413 25.2651V25.444C29.2897 25.3858 29.0382 25.3275 28.7866 25.2651C28.4732 25.3233 28.1598 25.3816 27.8464 25.444V25.6229C27.2859 25.7726 27.0829 25.34 26.7166 25.2693V25.4482C26.5003 25.652 26.6415 25.4482 26.5267 25.8017H25.772L25.5822 25.6229C25.4851 25.6645 25.5292 25.939 25.207 25.9764V25.7976L24.6421 25.6187V25.7976C24.4523 25.8558 24.267 25.914 24.0772 25.9764V25.6229C23.7373 25.7893 23.7814 25.8683 23.3224 25.9764V26.33H23.1326V25.7976C22.0733 25.7851 21.2657 25.3733 20.8728 24.7327L21.2479 24.5538C21.2612 24.3043 21.0626 24.6287 21.0582 24.375C21.12 24.0797 21.1817 23.7843 21.2479 23.489H21.6232C21.2083 22.3825 22.0866 21.7669 22.1881 20.648C22.7707 20.5481 23.446 20.4691 24.2581 20.4691V19.9367H24.8231C24.9511 19.4167 25.0305 19.3543 25.5778 19.2254V18.8718C26.6768 18.6347 25.6838 18.4226 26.7077 18.8718V18.5182C27.127 18.4434 27.3521 18.3477 27.6478 18.1647V17.9858C28.023 17.9525 27.7803 18.2562 28.023 17.9858C28.2393 17.782 28.098 17.9858 28.2128 17.6322H28.588C28.8043 16.9126 28.972 17.2787 29.3427 16.7462C29.7179 16.8627 30.0975 16.9833 30.4726 17.0998V16.921H30.6624V16.2097C29.581 16.2305 29.2809 16.3553 28.4025 16.2097C28.2966 16.7671 28.2172 16.9543 27.6478 17.0957V16.7421H27.2727V17.2745C26.8887 17.4659 26.5312 17.7986 25.953 17.807L25.7632 17.6281C25.0834 18.1106 25.8249 18.4558 24.4435 18.5141L24.6332 17.8028H24.2581V17.9816H24.4479C24.4611 18.044 24.1257 18.6222 24.0728 18.8676H23.6976V18.5141H23.3224V18.8676L23.1326 18.6888C22.7574 18.8053 22.3778 18.9259 22.0027 19.0423C21.9409 19.1588 21.8791 19.2794 21.8129 19.3959C21.5657 19.4957 21.8527 19.2628 21.6232 19.2171C21.4334 19.2753 21.248 19.3335 21.0582 19.3959V19.2171H20.4932V19.0382H20.3035V19.2171C20.3035 19.2171 19.7827 19.0548 19.5487 19.0382C19.4252 19.3335 19.2971 19.6289 19.1735 19.9242C19.0102 19.8701 18.7587 19.5831 18.4188 19.7453V19.9242H18.229V20.4566H18.0392V19.9242H17.8494V20.6355C17.8803 20.885 18.048 20.5606 18.0392 20.8143L17.8494 20.9932C17.5228 20.8393 17.7832 20.9724 17.6597 20.6396H17.4698V20.9932L16.5297 21.1721L16.7195 20.8185H16.5297C16.2384 21.1263 16.1899 20.9932 15.775 21.1721V21.351C15.4969 21.4508 15.0556 21.3967 15.0203 21.1721H14.8304V21.7045H14.6407V21.5256H14.4509V21.8792H14.0757V22.2328C13.599 22.0914 12.9105 22.2203 12.0057 22.2328C11.9439 22.6488 11.8821 23.0605 11.8159 23.4765H11.4407V23.123C11.1538 23.2269 11.1318 23.2602 10.686 23.3018V23.8342C10.3108 23.9507 9.93123 24.0713 9.55606 24.1878V24.3667H9.18096V24.5455C8.2585 24.8741 8.04219 24.271 7.48606 25.0779H7.2963L7.48606 25.2568C7.42427 25.4357 7.36251 25.6104 7.2963 25.7892C7.04472 25.731 6.79305 25.6728 6.54147 25.6104V26.1428C5.875 26.2094 5.96777 26.3633 5.41165 26.4964V26.1428H5.22178V26.6752C4.84661 26.7335 4.46712 26.7917 4.09195 26.8541L3.90209 27.3866H3.52699C3.4652 27.5654 3.40333 27.7401 3.33712 27.9189H3.14736V27.3866H2.9576L2.76784 27.7401L2.20288 27.5612V27.3824C1.83654 27.295 1.95125 27.4822 1.82767 27.5612L1.07294 27.3824L1.2627 27.2035V27.0247H1.07294V26.4922H1.2627V26.3133H0.887604C0.88319 25.7227 0.790425 25.5105 0.697737 25.0696H0.322638C-0.0128035 24.8824 0.697737 24.8908 0.697737 24.8908C0.759529 24.7119 0.821399 24.5372 0.887604 24.3583C1.85862 24.3999 1.81884 24.6953 1.82767 23.6471C2.14104 23.5888 2.45447 23.5306 2.76784 23.4682V22.7569L3.33281 22.578C3.54908 22.3742 3.33275 22.5073 3.70791 22.3992V22.7527H4.08312V22.3992C4.27291 22.4574 4.4583 22.5156 4.64808 22.578V22.2245H4.45822L4.64808 21.692H4.83784V21.5132H5.40281C5.3984 21.2636 5.44246 21.4632 5.21294 21.3343V21.1554H5.77791V20.9766H5.96778L6.15754 21.3301C6.78428 21.4466 7.41103 21.5672 8.04219 21.6837C8.05985 21.0182 8.21426 20.8684 8.41729 20.44C8.60708 20.4982 8.79247 20.5565 8.98226 20.6189V20.2653H9.54723L9.35747 20.6189H9.54723V20.44H9.92243C10.1299 20.2861 10.0062 20.0115 10.2975 19.9075C10.4653 20.0656 10.3682 20.2071 10.6727 20.2611C10.7963 20.0823 10.9244 19.9076 11.0479 19.7287H11.6128V19.5498H11.8027V18.8385H12.1778V19.1921C12.9811 19.1214 13.0297 18.826 13.6829 18.6596C13.833 18.0856 14.0315 18.0482 14.058 17.2413H15.7529V17.4201L16.3179 17.2413V17.0624C16.6004 16.9917 16.5738 17.3785 16.693 17.4159L17.2579 17.2371V17.5906H17.4478V17.2371C17.6597 17.0873 17.4743 17.2579 17.6376 17.0582L17.2624 17.2371V16.5258H17.4522V15.8145H18.3923L18.2025 16.3469H18.7675C19.0676 16.0017 19.4516 15.8727 19.7076 15.4609C19.9018 15.6148 19.968 15.7688 20.0828 15.9934C20.2726 15.8769 20.458 15.7563 20.6477 15.6398V15.4609H21.0228L21.2126 15.1074C21.3362 15.1656 21.4642 15.2238 21.5878 15.2862C21.8394 15.1073 21.3583 14.9867 21.7776 14.9327V15.1115C21.9674 15.1698 22.1527 15.228 22.3425 15.2904V14.9368C22.1263 14.733 22.2675 14.9368 22.1528 14.5833C22.6383 14.6665 22.9869 14.7538 23.6578 14.7621C23.927 14.3836 24.1522 14.4044 24.598 14.2297L24.4082 13.6973H25.163V13.5184H25.3527V13.6973H25.7279V13.3437C26.796 13.3146 26.4297 13.0692 27.0476 12.8113H27.8023V12.6324C28.0186 12.4286 27.8773 12.6324 27.9921 12.2788H28.5571V12.6324H28.9323C29.0867 12.0625 29.1529 12.1166 29.8723 12.1V12.4535C30.3137 12.2622 30.4859 12.0459 31.0023 11.9211V11.3887H31.3774V11.0351C32.3704 11.0393 32.8648 10.8271 33.6372 10.6815C33.7741 11.1724 33.6902 11.0767 34.2022 11.214C34.1404 11.0351 34.0785 10.8604 34.0123 10.6815H34.2022C34.4096 10.432 34.8598 10.1616 35.1423 9.97026V9.79138H35.7072V9.97026H35.897V10.5027H36.0869C36.1486 9.79552 36.281 9.68321 37.0269 9.61666V9.79554C37.2785 9.87873 36.9563 9.68321 37.2167 9.61666C37.9714 9.50019 38.7218 9.37957 39.4765 9.2631C39.2868 8.70987 39.3706 8.99272 39.4765 8.3771C39.9356 8.27727 39.8914 8.19409 40.2313 8.02354V8.20243H40.421C40.5711 8.46448 40.2313 8.55599 40.2313 8.55599L40.421 8.90954C40.8536 8.56845 40.6594 8.37713 41.3612 8.19827C41.423 8.0194 41.4848 7.84469 41.551 7.66582C42.0894 7.8738 42.4382 8.00274 43.2459 8.01938C43.4357 7.66581 43.621 7.30811 43.8108 6.95455H44.1859L44.3758 7.3081L45.6955 6.95455V6.77566H47.0152L47.2049 6.4221H47.5801C47.6993 5.93543 47.8272 6.01862 47.9552 5.5361C48.2068 5.59434 48.4584 5.65254 48.71 5.71494V5.5361C48.9174 5.37804 48.7498 5.5652 48.8998 5.35722H48.71C48.5246 5.06189 48.9793 5.2075 49.0852 5.17838V4.9995C49.275 5.05773 49.4604 5.11599 49.6501 5.17838C49.5884 5.29485 49.5265 5.41547 49.4603 5.53194H49.6501C50.2416 4.89136 50.758 5.53191 51.5348 5.71077C51.6628 5.47784 51.7687 5.51944 51.9099 5.35722L51.7201 5.00366H52.0954V4.82483L52.4705 4.64594C52.4969 4.39636 52.4308 4.67504 52.2807 4.46706L52.4705 4.1135C53.106 4.23829 53.1943 4.50035 53.7901 4.64594V4.1135C54.3065 4.22581 54.2183 4.34643 54.7303 4.46706V3.93466C54.9378 3.9929 55.1011 4.25077 55.485 4.1135V3.93466H56.05V3.75578C56.4252 3.46045 56.8048 3.16511 57.1799 2.86978V2.51622H57.555V2.69506C57.8154 2.74497 57.5197 2.65765 57.7448 2.51622L58.12 2.69506L57.9302 3.2275C58.9807 3.30237 59.5147 3.54364 60.19 2.87394C59.8193 2.67428 59.7486 2.62438 59.625 2.16267L60.19 1.98378C60.2518 2.10025 60.3137 2.22087 60.3799 2.33734H60.755V1.62606C61.1654 1.70093 61.2934 1.74252 61.5097 1.97962L62.6396 1.62606L62.4499 1.2725H63.3899V0.918945L63.4826 0.960531ZM61.6024 3.62269V3.97625H61.7922V3.62269H61.6024ZM229.389 3.97625V4.32981H229.579V3.97625H229.389ZM62.1673 4.50869V4.86225H62.3572V4.50869H62.1673ZM59.5324 4.86225V5.21581H59.7221V4.86225H59.5324ZM224.68 5.39469C224.896 5.59851 224.68 5.46538 225.055 5.57353C224.839 5.3697 225.055 5.50284 224.68 5.39469ZM209.806 5.57353C210.022 5.77735 209.806 5.64426 210.181 5.75241C209.965 5.54859 210.181 5.68168 209.806 5.57353ZM51.0581 6.10597C51.0757 6.70911 51.0581 6.75071 51.4333 6.99197V6.81308H51.2434V6.1018H51.0537L51.0581 6.10597ZM206.981 6.2848C207.197 6.48862 206.981 6.35554 207.356 6.46369C207.14 6.25987 207.356 6.39295 206.981 6.2848ZM186.453 6.45953V6.81308H186.642V6.45953H186.453ZM199.636 6.63841L199.447 6.99197C199.447 6.99197 199.994 6.70912 199.822 6.63841H199.632H199.636ZM219.03 6.63841H219.405C219.246 6.83807 219.427 6.66334 219.216 6.81725V6.99613C218.999 6.79231 219.141 6.99614 219.026 6.64257L219.03 6.63841ZM52.3734 6.81725C52.5896 7.02107 52.3734 6.88798 52.7486 6.99613C52.5323 6.79231 52.7485 6.9254 52.3734 6.81725ZM158.02 6.99197V7.34552H158.209V6.99197H158.02ZM54.4478 7.70324V7.88213H54.258C53.9005 8.03604 54.6332 8.06097 54.6332 8.06097C54.7921 7.8613 54.6111 8.03604 54.823 7.88213C54.6067 7.67831 54.8229 7.81139 54.4478 7.70324ZM199.072 7.70324V7.88213H198.882C198.524 8.03604 199.257 8.06097 199.257 8.06097C199.416 7.8613 199.235 8.03604 199.447 7.88213C199.23 7.67831 199.447 7.81139 199.072 7.70324ZM247.278 7.70324V7.88213H247.088C246.731 8.03604 247.463 8.06097 247.463 8.06097C247.622 7.8613 247.441 8.03604 247.653 7.88213C247.437 7.67831 247.653 7.81139 247.278 7.70324ZM121.108 7.88213V8.23569H121.298V7.88213H121.108ZM74.5964 8.0568V8.41041H74.7861V8.0568H74.5964ZM122.803 8.0568V8.41041H122.993V8.0568H122.803ZM157.64 8.0568C157.958 8.43949 158.015 8.41041 158.015 8.41041C158.152 8.23986 157.689 8.0984 157.64 8.0568ZM205.851 8.0568C206.169 8.43949 206.226 8.41041 206.226 8.41041C206.363 8.23986 205.899 8.0984 205.851 8.0568ZM219.22 8.0568V8.41041H219.41V8.0568H219.22ZM254.057 8.0568C254.375 8.43949 254.433 8.41041 254.433 8.41041C254.569 8.23986 254.106 8.0984 254.057 8.0568ZM47.2888 8.41452H46.9137V8.59341H47.1034V8.77229H47.2932V8.41869L47.2888 8.41452ZM49.7384 9.47941H50.1136C50.0518 9.24231 49.9899 9.00523 49.9237 8.76813H49.734V9.47941H49.7384ZM194.362 9.47941H194.737L194.548 8.76813H194.358V9.47941H194.362ZM242.568 9.47941H242.944L242.754 8.76813H242.564V9.47941H242.568ZM47.6684 9.12169V9.83296H47.8582V9.12169H47.6684ZM95.8748 9.12169V9.83296H96.0646V9.12169H95.8748ZM192.292 9.12169V9.83296H192.482V9.12169H192.292ZM220.16 9.47941V10.0118H220.35C220.54 9.69156 220.765 9.48354 221.105 9.30052V9.12169H220.729C220.518 9.42534 220.61 9.36293 220.165 9.47524L220.16 9.47941ZM240.498 9.12169V9.83296H240.688V9.12169H240.498ZM132.597 9.30052V9.65413H132.787V9.30052H132.597ZM180.803 9.65413H181.178V9.47524C180.967 9.3255 181.152 9.49607 180.989 9.29641H180.799V9.64997L180.803 9.65413ZM75.5364 9.47941V10.0118H75.7262V9.47941H75.5364ZM123.743 9.47941V10.0118H123.933V9.47941H123.743ZM206.226 10.1865C206.363 10.6774 206.279 10.5817 206.791 10.719C206.91 10.2323 207.038 10.3155 207.166 9.83296H206.976C206.738 10.1699 206.787 10.1283 206.222 10.1865H206.226ZM207.921 9.83296V10.1865C208.415 10.174 208.561 10.1158 208.861 10.0077V9.8288H207.921V9.83296ZM108.493 10.0118V10.5443H108.683V10.3654C108.895 10.2157 108.71 10.3862 108.873 10.1865L108.498 10.0077L108.493 10.0118ZM156.7 10.0118V10.5443H156.89V10.3654C157.102 10.2157 156.916 10.3862 157.08 10.1865L156.704 10.0077L156.7 10.0118ZM204.906 10.0118V10.5443H205.096V10.3654C205.308 10.2157 205.123 10.3862 205.286 10.1865L204.911 10.0077L204.906 10.0118ZM253.117 10.0118V10.5443H253.307V10.3654C253.519 10.2157 253.333 10.3862 253.497 10.1865L253.122 10.0077L253.117 10.0118ZM132.407 10.1865V10.5401H132.597V10.1865H132.407ZM219.785 10.1865C220.103 10.5692 220.16 10.5401 220.16 10.5401C220.297 10.3696 219.834 10.2281 219.785 10.1865ZM120.168 10.5443V11.0767H119.793V11.4302L120.168 11.2514L120.358 10.719C120.569 10.5692 120.384 10.7398 120.547 10.5401H120.172L120.168 10.5443ZM128.077 10.5443V10.8978H128.267V10.5443H128.077ZM176.284 10.5443V10.8978H176.473V10.5443H176.284ZM205.851 10.8978H205.286V11.2514H205.661C205.838 10.9311 205.922 10.9727 206.036 10.5401H205.846V10.8937L205.851 10.8978ZM224.49 10.5443V10.8978H224.68V10.5443H224.49ZM104.539 11.2514V10.8978C104.327 11.0476 104.512 10.877 104.349 11.0767H104.159C104.376 11.2805 104.159 11.1474 104.534 11.2556L104.539 11.2514ZM152.18 10.8978V11.4302H152.37C152.586 11.2264 152.37 11.3596 152.745 11.2514V10.8978H152.18ZM178.919 11.2514V10.8978H178.354V11.0767H178.543C178.76 11.2805 178.543 11.1474 178.919 11.2556V11.2514ZM200.952 11.2514V10.8978C200.74 11.0476 200.925 10.877 200.762 11.0767H200.572C200.788 11.2805 200.572 11.1474 200.947 11.2556L200.952 11.2514ZM215.83 10.8978V11.2514C216.042 11.1017 215.857 11.2722 216.02 11.0725H216.21C215.994 10.8687 216.21 11.0018 215.835 10.8937L215.83 10.8978ZM242.568 11.0767V11.4302H242.758V11.0767H242.568ZM117.908 11.7838H118.283C118.124 11.5842 118.305 11.7589 118.093 11.605V11.2514H117.904V11.7838H117.908ZM64.8023 11.4302V11.7838H64.9922V11.4302H64.8023ZM113.013 11.4302V11.9627H113.203V11.4302H113.013ZM209.426 11.4302V11.7838H209.616V11.4302H209.426ZM246.148 11.4302C246.364 11.6341 246.223 11.4303 246.338 11.7838H246.148V11.4302ZM257.637 11.4302V11.7838H257.827V11.4302H257.637ZM38.4393 11.6091V11.9627H38.6292V11.6091H38.4393ZM86.6457 11.6091V11.9627H86.8356V11.6091H86.6457ZM183.063 11.6091V11.9627H183.253V11.6091H183.063ZM231.269 11.6091V11.9627H231.459V11.6091H231.269ZM98.3244 11.7838C98.3421 11.8213 98.5936 12.4285 98.6995 12.3162V12.1374H98.8894C98.7261 11.9544 98.5628 11.892 98.3244 11.7838ZM146.906 12.674H147.281V12.3204H146.906L147.096 11.9668C146.906 11.9086 146.721 11.8504 146.531 11.788V11.9668C146.787 12.1748 146.818 12.2913 146.906 12.6781V12.674ZM97.1945 11.9627L97.3843 12.4951H97.574C97.4593 12.0708 97.5123 12.1665 97.1989 11.9627H97.1945ZM145.401 11.9627C145.463 12.1415 145.524 12.3163 145.591 12.4951H145.781C145.666 12.0708 145.719 12.1665 145.405 11.9627H145.401ZM148.98 11.9627H148.605C148.764 12.1623 148.583 11.9877 148.795 12.1416V12.3204H148.985V11.9668L148.98 11.9627ZM223.364 12.674H223.74V12.3204H223.929C223.868 12.2039 223.806 12.0833 223.74 11.9668C223.528 12.1166 223.713 11.9461 223.55 12.1457H223.36V12.6781L223.364 12.674ZM66.122 12.1416C66.3383 12.3454 66.122 12.2123 66.4972 12.3204C66.2809 12.1166 66.4972 12.2497 66.122 12.1416ZM98.1346 12.1416V12.674H98.3244V12.1416H98.1346ZM146.341 12.1416V12.674H146.531V12.1416H146.341ZM149.921 12.1416H149.545C149.704 12.3412 149.523 12.1665 149.735 12.3204V12.4993H149.925V12.1457L149.921 12.1416ZM171.764 12.1416V12.674H171.954V12.1416H171.764ZM219.975 12.1416V12.674H220.165V12.1416H219.975ZM29.4 12.3162V12.6698H29.5899V12.3162H29.4ZM38.2495 12.3162V12.6698H38.4393V12.3162H38.2495ZM86.4604 12.3162V12.6698H86.6501V12.3162H86.4604ZM99.0747 12.674V12.3204C98.8629 12.4701 99.0483 12.2996 98.885 12.4993H98.6951C98.9114 12.7031 98.6952 12.57 99.0703 12.6781L99.0747 12.674ZM134.667 12.3162V12.6698H134.857V12.3162H134.667ZM149.166 12.3162V13.3811H149.356V12.3162H149.166ZM173.269 12.3162V12.6698H173.459V12.3162H173.269ZM174.024 12.3162V12.6698H174.214V12.3162H174.024ZM182.873 12.3162V12.6698H183.063V12.3162H182.873ZM221.48 12.3162V12.6698H221.67V12.3162H221.48ZM222.235 12.3162V12.6698H222.424V12.3162H222.235ZM231.084 12.3162V12.6698H231.274V12.3162H231.084ZM33.5446 12.4951C33.7608 12.6989 33.5445 12.5659 33.9197 12.674C33.7034 12.4702 33.9197 12.6033 33.5446 12.4951ZM81.751 12.4951C81.9672 12.6989 81.7509 12.5659 82.1261 12.674C81.9098 12.4702 82.1261 12.6033 81.751 12.4951ZM226.375 12.4951C226.591 12.6989 226.375 12.5659 226.75 12.674C226.534 12.4702 226.75 12.6033 226.375 12.4951ZM95.1201 12.8487L95.3098 13.3811H95.4996C95.3848 12.9568 95.4379 13.0525 95.1245 12.8487H95.1201ZM143.331 12.8487C143.393 13.0275 143.454 13.2023 143.521 13.3811H143.71C143.596 12.9568 143.649 13.0525 143.335 12.8487H143.331ZM155.57 13.0276V13.3811H155.76V13.0276H155.57ZM36.5546 13.9136C36.4178 13.4227 36.5018 13.5184 35.9898 13.3811C36.0516 13.6182 36.1133 13.8553 36.1795 14.0924H36.7445V14.2713C37.0093 14.3046 36.6738 14.1465 36.9343 14.0924H37.689V13.3811C37.4771 13.2314 37.6625 13.4019 37.4992 13.2022H37.124V13.3811H37.3139C37.3757 13.7014 36.8459 13.847 36.559 13.9136H36.5546ZM61.0375 13.2064L60.8476 13.56C60.8476 13.56 61.395 13.2771 61.2228 13.2064H61.0331H61.0375ZM205.661 13.2064L205.471 13.56C205.471 13.56 206.019 13.2771 205.846 13.2064H205.657H205.661ZM28.8351 14.0924H29.2103V13.9136C28.9984 13.7638 29.1838 13.9343 29.0205 13.7347H28.8307V14.0882L28.8351 14.0924ZM35.4248 13.7388V14.0924C35.6367 13.9427 35.4513 14.1132 35.6146 13.9136H35.8043C35.588 13.7097 35.8044 13.8428 35.4292 13.7347L35.4248 13.7388ZM77.0416 14.0924H77.4167V13.9136C77.2048 13.7638 77.3902 13.9343 77.2269 13.7347H77.0372V14.0882L77.0416 14.0924ZM83.6356 13.7388V14.0924C83.8475 13.9427 83.6621 14.1132 83.8254 13.9136H84.0151C83.7989 13.7097 84.0152 13.8428 83.64 13.7347L83.6356 13.7388ZM131.842 13.7388V14.0924C132.054 13.9427 131.868 14.1132 132.032 13.9136H132.222C132.005 13.7097 132.222 13.8428 131.846 13.7347L131.842 13.7388ZM221.67 14.0924H222.045V13.9136C221.833 13.7638 222.018 13.9343 221.855 13.7347H221.665V14.0882L221.67 14.0924ZM228.259 13.7388V14.0924C228.471 13.9427 228.286 14.1132 228.449 13.9136H228.639C228.423 13.7097 228.639 13.8428 228.264 13.7347L228.259 13.7388ZM32.4146 14.8037V14.4501L31.8497 14.629L32.0394 15.3403H31.8497V15.5192C31.4083 15.5774 30.9713 15.6356 30.53 15.698V16.0516C30.7771 16.0849 31.6996 16.2679 31.8497 16.2304L32.0394 15.8769L32.6044 16.0558C32.6662 15.7604 32.7281 15.4651 32.7943 15.1698H32.984C33.2003 14.966 32.9839 15.099 33.3591 14.9909V15.3444H34.2993V14.9909H34.6744C34.5508 14.6373 34.4229 14.2796 34.2993 13.926H34.1095L33.9197 14.4584C33.6504 14.6373 32.8339 14.7787 32.4146 14.812V14.8037ZM53.6931 13.9136V14.446H53.8828V13.9136H53.6931ZM28.46 14.2713V14.6248H28.6497V14.2713H28.46ZM57.8376 14.2713V14.6248H58.0273V14.2713H57.8376ZM76.6664 14.2713V14.6248H76.8561V14.2713H76.6664ZM124.873 14.2713V14.6248H125.063V14.2713H124.873ZM180.803 14.2713C181.019 14.4751 180.803 14.342 181.178 14.4501C180.962 14.2463 181.178 14.3794 180.803 14.2713ZM202.461 14.2713V14.6248H202.651V14.2713H202.461ZM221.29 14.2713V14.6248H221.48V14.2713H221.29ZM50.1136 14.446C50.3299 14.6498 50.1886 14.446 50.3034 14.7996H50.1136V14.446ZM98.1346 14.6248C98.3464 14.9285 98.2537 14.8661 98.6995 14.9784C98.5362 14.7954 98.3729 14.733 98.1346 14.6248ZM119.603 14.9784H119.978V14.7996C119.766 14.6498 119.952 14.8203 119.788 14.6207H119.598V14.9742L119.603 14.9784ZM49.7384 14.8037H50.1136V14.9826C49.734 14.8827 49.9503 15.0034 49.7384 14.8037ZM102.279 14.8037C102.495 15.0076 102.354 14.8037 102.469 15.1573H102.279V14.8037ZM152.935 15.5108H152.56V14.7996H152.37V14.9784C152.154 15.1822 152.295 14.9784 152.18 15.332C152.37 15.4484 152.555 15.5691 152.745 15.6856C152.904 15.8852 152.723 15.7105 152.935 15.8644V15.5108ZM100.584 14.9784V15.332H100.774V14.9784H100.584ZM38.8145 15.3361V15.6897H39.0043V15.3361H38.8145ZM87.0253 15.3361V15.6897H87.2151V15.3361H87.0253ZM128.642 15.5108C128.858 15.7147 128.642 15.5816 129.017 15.6897C128.801 15.4859 129.017 15.619 128.642 15.5108ZM61.7878 16.0433V15.6897C61.576 15.8395 61.7613 15.6689 61.5979 15.8686H61.4082C61.6245 16.0724 61.4082 15.9393 61.7834 16.0474L61.7878 16.0433ZM158.205 16.0433V15.6897C157.993 15.8395 158.179 15.6689 158.015 15.8686H157.825C158.042 16.0724 157.825 15.9393 158.201 16.0474L158.205 16.0433ZM45.029 16.401V16.7546H45.2188V16.401H45.029ZM48.7982 16.401V16.7546H48.9881V16.401H48.7982ZM34.6744 16.5757V16.9293H34.8643V16.5757H34.6744ZM49.7384 16.9334C49.7296 17.6531 49.6502 17.6988 50.1136 17.9983V17.8194C49.7958 17.4368 50.2592 16.9626 50.4887 16.5757H50.2989C50.0871 16.8794 50.1798 16.817 49.734 16.9293L49.7384 16.9334ZM53.1281 16.5757C53.3444 16.7795 53.1281 16.6464 53.5033 16.7546C53.287 16.5507 53.5033 16.6839 53.1281 16.5757ZM62.9177 16.5757C62.856 16.7546 62.7941 16.9293 62.7279 17.1081H62.9177V16.9293C62.9972 16.8253 63.2267 16.9043 63.1075 16.5757H62.9177ZM82.8809 16.5757V16.9293H83.0707V16.5757H82.8809ZM146.156 16.9334C146.147 17.6531 146.067 17.6988 146.531 17.9983V17.8194C146.213 17.4368 146.676 16.9626 146.906 16.5757H146.716C146.504 16.8794 146.597 16.817 146.151 16.9293L146.156 16.9334ZM149.545 16.5757C149.762 16.7795 149.545 16.6464 149.921 16.7546C149.704 16.5507 149.921 16.6839 149.545 16.5757ZM65.3673 16.7546V17.1081H65.5571V16.7546H65.3673ZM86.4604 17.1081H86.8356V16.9293C86.6237 16.7795 86.809 16.9501 86.6457 16.7504H86.4559V17.104L86.4604 17.1081ZM113.578 16.7546V17.1081H113.768V16.7546H113.578ZM130.337 16.7546C130.553 16.9584 130.412 16.7546 130.527 17.1081H130.337V16.7546ZM88.9056 16.9334C88.8438 17.0499 88.782 17.1705 88.7158 17.287L89.0909 17.4658C89.2277 17.2537 88.6937 17.312 89.0909 16.9334H88.9011H88.9056ZM65.7425 17.1081L65.5527 17.6406H65.7425V17.287H65.9322V17.1081H65.7425ZM113.953 17.1081L113.764 17.4617C113.764 17.4617 114.311 17.1788 114.139 17.1081H113.949H113.953ZM15.0864 17.8194H15.4616V17.6406C15.2498 17.4908 15.4351 17.6613 15.2718 17.4617H15.082V17.8153L15.0864 17.8194ZM121.108 17.8194H120.733C120.892 18.0191 120.711 17.8444 120.923 17.9983V18.1772H121.112V17.8236L121.108 17.8194ZM21.4907 18.173V18.5266H21.6805V18.173H21.4907ZM48.6085 18.173V18.8843H48.7982V18.7054H48.9881C48.9263 18.589 48.8644 18.4683 48.7982 18.3518H48.9881C48.7718 18.148 48.988 18.2812 48.6129 18.173H48.6085ZM117.908 18.173V18.5266H118.098V18.173H117.908ZM146.341 18.173C146.125 18.3768 146.341 18.2437 145.966 18.3518V18.5307H146.341C146.403 18.4143 146.465 18.2936 146.531 18.1772H146.341V18.173ZM58.5879 18.7054L58.398 19.059C58.398 19.059 58.9454 18.7762 58.7732 18.7054H58.5835H58.5879ZM51.4333 19.0632V19.4167H51.6231V19.0632H51.4333ZM55.5777 19.0632V19.4167H55.7675V19.0632H55.5777ZM46.7238 19.4167H47.099C46.9445 19.6497 46.9666 19.6247 46.7238 19.7703V19.9492H46.534L46.7238 19.4167ZM53.318 19.4167L53.1281 19.7703C53.1281 19.7703 53.6754 19.4874 53.5033 19.4167H53.3135H53.318ZM38.8145 20.128V20.4816H39.0043V20.128H38.8145ZM24.3154 21.014V21.3676H24.5053V21.014H24.3154ZM28.46 21.1929V21.7253H29.2147V22.0789H29.7797C29.9341 21.8459 29.912 21.8709 30.1548 21.7253V21.1929C29.3691 21.3218 29.3648 21.2386 28.46 21.1929ZM13.2062 21.5464C13.4225 21.7503 13.2062 21.6171 13.5814 21.7253C13.3651 21.5215 13.5814 21.6546 13.2062 21.5464ZM52.188 21.7253V22.0789H52.3778V21.7253H52.188ZM5.48223 24.5622C5.42043 24.741 5.35867 24.9157 5.29247 25.0946H5.48223V24.741H5.67198V24.5622H5.48223ZM29.7752 24.741V25.0946H29.965V24.741H29.7752Z" fill="#9FCCB9"/>
</svg>
