<svg width="190" height="22" fill="none" xmlns="http://www.w3.org/2000/svg"><path fill-rule="evenodd" clip-rule="evenodd" d="M46.58.034c.66.146.757.518 1.524.58.11-.22.276-.55.693-.434v.145c.354.136.156-.145.416.146h.14v.58l.276.145v.289h.14c.045.145.09.288.14.433h-.557v.434c-.383.105-.308.04-.416.434-.484.122-.647.366-1.248.434.01.38.055.491.14.722-.475-.038-1.089-.115-1.109-.146v.288h.14c.439.003-.416.146-.416.146-.175-.227-.37-.353-.692-.434-.208.393-.481.617-.972.722V4.23l-.276.146c-.082.22-.108.237-.14.58-.293.023-.839.128-.972.287-.169.204.124.16-.276.434v-.58h-.14v.58h-.416V5.39c-.211.085-.228.112-.556.146v-.288l-.416.145c-.09.248-.133.455-.14.868h-.692s-.14.23-.276.288v.146h-.14v-.288h-.276V6.26h-.14v.146h-.416v.146c-.24.223-.293.677-.416 1.013-.51-.05-.914-.254-1.248.146a22.73 22.73 0 0 1-.14.433c-.37.048-.741.095-1.109.146v.146l-.276.146v.288l-.416-.146-.14.288h-.416c-.022.014-.162.217-.276.288v.146a42.6 42.6 0 0 1-.692-.146v-.145c-.081-.01-.475.244-.693.288-.094.274-.178.884-.276 1.155l-.416-.145v-.146c-.192-.037.055.105-.14.146-.331.067-.357-.109-.556-.146l-.276.434h-.556v.146l-.416.145v.434h.277v.146h-.14c-.075.068-1.112.366-1.109 0h-.14v.288l-.692-.146c.007.519-.032.912-.276 1.156v-.146h-.14v-.58h-.276c-.01.38-.055.492-.14.723-.29-.089-.565-.163-.832.145v.288h-.14v.146l-.832-.146c-.045.095-.09.194-.14.288-.185.048-.37.095-.555.146v.288h-.556v.288c-.332-.067-.436-.166-.692-.288v.722a96.17 96.17 0 0 0-.972.146v.146c-.407.098-.455.159-.556.58.195.01-.02-.024.14-.147.217-.166.13.356.14.434-.238.163-.19.092-.277.434.185-.047.37-.095.556-.146l.14-.288c.026-.003.325.136.555.146v-.288c.14.047.277.095.416.146l.14-.288c.17-.085.407-.078.556-.146v-.58c.328-.057.764-.274 1.248-.145v.145h.556v-.145h.276v-.58h.277v.288l1.248-.288.14.146c.38-.278.126-.495.832-.58.159.166 0 .058.276.146v-.434l.692-.146v-.288c.459.078.63.183.832 0h.14c.176-.223-.15-.291.14-.434v.146h.14v-.434c.305-.05.718-.19 1.108 0 .046.095.091.194.14.288h.276v-.288c.28.082.12-.017.276.146l.416-.146v-.145h.416c.092-.146.186-.289.277-.434.23.047.461.095.692.146v.145c.1.02.51-.129.972-.146l-.14-.433h.276v.145h.556l.14.146v-.146l.416-.145c-.01-.38-.055-.492-.14-.722h.833c.159-.166 0-.058.276-.146.107-.434.084-.38.556-.434.156.248.087.197.416.288.14-.362.286-.756.555-.58h.14v.434h.276c.101-.4.04-.321.417-.433v-.146l.832-.146s.061.21.276.146l.14-.288h.416v-.288l.276.145v.146c.182.071.03-.068.14-.146.348-.098.224-.074.416-.288h.14v-.288l.276-.145c.163-.183.234-.42.416-.58v.146h.416c.045.193.091.386.14.58h.14c.338-.59.776-.536 1.524-.723.042-.01.036-.2.276-.145v.145c.277.095.556.194.832.288v-.145h.14l-.14-.434c.091-.048.186-.095.277-.146.191-.302-.062-.203.276-.434V6.98l.692-.146c-.074.403-.107.013 0 .434h.14V6.98c.276.047.556.094.832.145V6.98c.15-.133.026.023.14-.146h-.14v-.146h.416c.03.342.059.36.14.58.16-.166.055 0 .14-.288.159-.166.055 0 .14-.288.416-.146.832-.289 1.248-.434l.14.145c.045-.467.126-.423.276-.722h.276v.146h.14V5.68h.556l.14-.433c.36.152.584.264 1.108.288-.046-.095-.091-.193-.14-.288.094-.16.78-.204.972-.434l-.14-.288h.14v-.146c.367.17.523.278 1.108.288v-.146h-.14v-.434c.44.095.28.22.416.289.163-.01.495-.292.833-.146l.14.288h.276c-.134.478-.13.85.14 1.301h-.14c-.16.167 0 .058-.277.146v.722h-.14c-.035.24.13.25.14.288v.722c-.497.02-.786.207-1.108.288l-.276-.146c-.091.146-.186.289-.277.434-.078.034-.757-.108-.971-.145-.085.38-.394.766-.833.721 0 0-.074-.183-.276-.145l.14.288h-.556c-.045.24-.09.481-.14.722l-.692-.146-.14.288c-.374.098-.364-.278-.416-.288l-.416.146.14.146c.006.057-.124.325-.14.58-.461.046-.923.094-1.388.145v-.288c-.328-.03-.344-.061-.556-.146v.434c-.029.06-.952.728-.416 1.013h-.416v-.146c-.133-.267-.14.289-.14.289-.155.122-.019-.017-.14.145.39-.135.388-.152.833 0v.146l.416-.146-.14-.145.14-.434c.65.26 1.08.085 1.524-.288.046-.095.091-.194.14-.289h.693s-.014-.084.276-.145v.434h.14v-.289c.591-.01.92-.03 1.248-.287l.14-.289c.23.048.461.095.692.146-.16-.166 0-.058-.276-.146v-.288c.14.048.276.095.416.146v-.288h.276v.288c.803-.068 1.378-.539 1.94-.868v.434h.276V9.29h.973v-.146h.416V9c.276.047.555.095.832.145.117-.162-.017-.02.14-.145v-.58c.276-.047.555-.095.831-.146-.045.146-.09.288-.14.434h.14v.146c.157-.122.02.017.14-.146.16-.166.056 0 .14-.288.218.01.972.146.972.146V8.42h.14v-.434c.152-.203.624-.149.971-.146v.146l.833-.146v-.145h.276v-.146h.416l-.14.434h.14c.1-.4.039-.322.416-.434v.288c.14-.047.276-.095.416-.146v-.145c.325-.048.647-.095.972-.146v-.146h.416l.14-.288c.117-.047.913.153 1.108.288v-.288l.416-.146v-.145c.189-.061-.055.105.14.145.23.048.247-.139.276-.145.254-.055.537.19.693.288v-.146c.432-.41.032-.614.832-.722v.146h.416l-.14.288c.179.234.26-.16.416.434.182-.153.208-.295.416-.434v.434h.276c-.045-.288-.09-.58-.14-.868.65-.23.469.112.833-.722h.14c-.017.308-.144.495-.14.58l.14.145c.253-.183.016-.196.14-.288.159-.122.087.132.139.146.14-.047.276-.095.416-.146v-.288c.312-.057.533-.237.972-.146 0 0 .006.19.276.146v-.146h.693v.146c-.332.088-.257.048-.416.288h.276c.4-.688 1.066-.447 1.804-.722l.14-.433c.396 0 .594.05.832.145v-.58h.14c.09.146.185.289.276.435h.14l-.14.288h.14v.145c.396.299.357-.257.555.434h.277v.288h.276a24.28 24.28 0 0 1-.14.434h.14c.094.217.097.24.14.58h.276v.288c.214.129.29.213.416.434.448-.255.263-.346.832-.146l-.14-.434h.276v-.288h.277v.146h.14v-.146l.416.146-.14.433h.276c.1-.4.04-.321.416-.433.208-.255.374-.275.832-.288v-.289c.277-.094.556-.193.832-.288.01.38.056.492.14.722.156-.122.02.017.14-.145h.14V6.1c.416.047.832.095 1.248.145v-.288h.276l.14-.433c.185.047.37.094.556.145.045-.095.09-.193.14-.288l.692.146v.288c.354-.224.956-.898 1.388-.58h.276v.289h.14v-.289c.666-.037.67-.101 1.248 0 .045-.24.09-.48.14-.721.64-.126 1.124-.126 1.524 0v-.289h.832v.146h.416v.146c.14-.048.277-.095.416-.146v-.146c-.159-.166-.055 0-.14-.288.456.01.41.183.693 0l.14-.288.832.288v.288c.374 0 .786.048.972-.145v-.288l.276.145v-.145c.276-.048.556-.095.832-.146.13.088-.049.207.14.146l.14-.288c.175 0 .354.257.692.145v-.145c.23-.048.461-.095.692-.146l-.14.434h.14c.309.349.26.203.693.145-.017.458-.27.271.139.434.062.36.127.532.14 1.014-.383.105-.309.04-.416.433h-.14v.722c-.331.068-.435.166-.692.288v-.433h-.14c-.205.81-.24.298-.692.58v.145l-.556.434c.046-.146.091-.288.14-.434h-.14c-.085.23-.124.342-.14.722-.523.115-.777.281-1.524.288v-.288h-.276v.288h-.693v.146h.14c-.088.206-.162.108-.276.288h-.277l.14-.288h-.14c-.136.196-.08.284-.416.288 0 0-.097-.207-.276-.146-.045.095-.091.193-.14.288h-.276l-.14.868-.556.146v-.58h-.276c-.1.464-.188.525-.692.58l.14-.434h-.14c-.052.166-.04.515-.276.434l-.14-.434c-.14.047-.276.095-.416.145v.289c-.221-.089-.329-.13-.693-.146V9.14h-.14v.434c.16.166.056 0 .14.288a81.25 81.25 0 0 0-.971.146v.288c-.491.054-.423.18-.833.288v.434c-.338-.082-.305-.153-.555-.289v.289h-.14v.434h.14v-.289h.276v.289c.23-.048.461-.095.692-.146v.434h.277v-.434c.23.047.461.095.692.146.065-.346.16-.455.276-.723.452.004 1.001-.064 1.248.146h.14c.046-.095.091-.193.14-.288h.276v-.145h.276v-.146l.277.146v-.146h1.388a22.068 22.068 0 0 0-.14-.434h.276v-.146h.14v.146l.416.146c.01.203.032.04-.14.145.156.153 0 .065.276.146v-.146h.14V9.72h.14c.12-.2.104-.251.14-.58.328-.017.35-.044.556-.146v.146h.14v.146l-.14.288h.416v-.288c.325-.048.647-.095.971-.146v.146h.14c.156-.116-.052-.19.14-.146v.146h.556v.288h.14c.045-.288.09-.58.14-.868h.276v.288h.14V8.56c.318.014.36.122.555.146l.14-.288s.38.136.556.146v-.288l.14.145c.185-.047.37-.094.555-.145v.145h.693V7.99h.276v.145h.14V7.99l.276.145.14-.433c.367-.143.289.315.556.288v-.146c.607-.15.763-.356 1.388-.434v.146h-.14c-.263.125.276.146.276.146.117.162-.016.02.14.145v-.288l.692-.146c.046-.094.091-.193.14-.288l.14.146c.822.054.929-.302 1.388-.58v.434h.139c.16-.166 0-.057.277-.145v-.29c.14.047.276.094.416.145l.14-.288h.555v-.146h.14c.085.346.046.268.276.434v-.434c.728-.122.615-.017 1.249.288.071-.338.201-.542.416-.721.159.166 0 .057.276.145v-.288h.416v-.288c.231.048.461.095.692.146v.288h.277v-.434c.302.02.461.146.555.146v-.146l.416-.146c.046.095.091.194.14.288.442.136 1.105-.301 1.388-.433l-.14-.434h.416c.085.346.046.268.277.434.117.162-.017.02.139.145.01-.38.056-.491.14-.722.277-.047.556-.094.832-.145.117.162-.016.02.14.145-.107.146-.169.143-.276.289h.416l-.14-.434.14-.146c.205.068.221.166.556.146v-.146h.139v.146c.186.047.371.095.556.145v.146c.566.224.823-.105 1.109.146.432.298.065.186.276.58l.276.145v.288h.14c.127.197.104.255.14.58l-.556-.146c.11.468.257.498.276 1.156-.156.122-.019-.017-.14.146h-.139c-.043-.434-.02-.394-.277-.58v.146h.14c-.091.193-.185.386-.276.58-.361.006-.478.03-.693.145v.146c-.237.085-.24-.136-.276-.146-.497-.132-.812.183-.972.434h-.139c-.046.288-.091.58-.14.868h-.276l-.14-.288c-.186.047-.371.094-.556.145.029.343.058.36.14.58-.322-.014-.355-.115-.556-.146l-.14.288c-.185.048-.37.095-.556.146-.1.4-.039.322-.416.434-.487.457-.897-.183-.972-.146v.146c-.23.146-.461.288-.692.434.075.505.137.267 0 .721h.14v-.145h.556v.288l.416-.146v-.146l.416.146v-.434c.14.048.276.095.416.146v-.146l-.14-.145h.832c.046.145.091.288.14.433.091-.047.276-.288.276-.288.14.048.277.095.416.146v-.146c.205-.111.231-.108.556-.145v-.288h.276v-.289h.556v.289c.312-.038.367-.014.556-.146v-.146h.276v-.146h.277v-.146c.247-.206.331-.325.692-.433v.434h.556c.045-.241.091-.482.139-.722h.277c-.046.145-.091.288-.14.433h.14c.198-.206.773-.369 1.108-.433v-.288c.185-.048.371-.095.556-.146v-.434h.276v.434h.277v-.434h.692a24.28 24.28 0 0 1-.14.434h.276c.143-.166.257-.278.556-.288v.145h.14l.14-.145c.13-.261.191-.227.276-.58l.416-.146V7.85l.14.145.416-.145v.433h.276c.029-.342.059-.359.14-.58l.276.147v-.146c.199-.18.215-.4.416-.58.043.068.283.526.416.434l.14-.434c.601-.047 1.203-.095 1.804-.145v.145c-.383.105-.309.041-.416.434.345-.064.51-.132.972-.146v-.145h-.14v-.722c.231.047.462.095.692.146.046-.146.091-.289.14-.434.159.166.056 0 .14.288l.416.146v-.146c.286-.163.25-.224.692-.288v-.434c.296-.017.475-.15.556-.146l.14.146v-.288l.692-.146v.288c.091-.047.186-.095.277-.146v-.145c.221-.027.172.25.276.288h.556c.045-.24.091-.482.139-.722.231.047.462.095.693.146l.14-.289h.139v.146c.14-.047.277-.095.416-.146v-.288c.16.166.056 0 .14.288h.276c.065-.345.16-.454.277-.722.461.007 1.248.146 1.248.146v-.146h.276v-.145h.416c.046-.095.091-.193.14-.288.14.047.276.095.416.145v.146h.692v-.288l.556-.146V3.8h.276c.088.397.182.33.277.722h.416c.101.4.039.322.416.434v.288c-.829.176-.718.58-.972 1.302h.832l.14-.58c.578-.091.393-.142.972-.288v.288c.656-.288.559-.288 1.108 0v-.288c.185-.047.371-.095.556-.146v-.288h.276v.146h.14v-.146c.315-.064.374.075.556.146v-.146h-.14c-.257-.139.276-.146.276-.146V4.81h.277v-.288c.435.085.617.234 1.108.288l.14-.433s-.296-.024-.14-.146h.276v.146h.832v-.434c.442.095.273.213.416.288.231-.024.257-.285.277-.288.266-.078.191.095.276.145h.14v-.145c.185.047.37.095.556.145.1-.4.039-.321.416-.433v.288h.555c.13-.261.192-.227.277-.58l.416.146v-.146c.091-.047.185-.095.276-.146v.289h.276l-.139-.434c.331-.068.435-.166.692-.288v.58c.721-.197.494-.32 1.388-.147v-.433h.416v.145c-.059.085-.228.02-.14.288h.14c.224-.894.296-.244.832-.58.315-.196-.01-.531.692-.721v.146l.416-.146v.288h.14v-.288c.491.054.423.18.832.288v.288c.13.227.992.268.556.722h.276v.58l-.276.145c-.006.048.13.322.14.58h.276c-.065.346-.159.454-.276.722-.247.013-.501.152-.556.146V5.24h-.556v.146l-.832.145v.288c-.185.095-.37.194-.556.289v-.146h-.14v.434l-.971.288c.159.166 0 .057.276.145v.146c.244.119.445-.085.556-.146v-.145h.416v-.288c.647-.034.79-.21 1.248-.434v-.146h.972v.146h-.14c-.159.166 0 .057-.276.146v.288c.565-.17.146-.133.416-.434l.276.146v-.146h.276v-.146h.416c.147-.088.345-.715.693-.58v.146h.276v-.434c.14.048.276.095.416.146v-.146c.276-.047.556-.095.832-.145v.288h.276c.046.145.091.288.14.434h.14v-.289h.276c.082-.538.082-.332 0-.867.043.017 1.336.315 1.388.288V4.51h.14v-.58h.14c.283.265.63.041 1.108 0v-.287c.28.08.12-.017.276.145.511-.152.381-.291.693-.58v-.145c.351-.227 1.095-.01 1.664 0 .088-.397.182-.329.276-.722.595-.024.475-.092.832-.288v.434h.556c.029-.343.059-.36.14-.58l.416.146.14-.288h.276V1.62c.14-.047.276-.095.416-.146l.14.434c.351-.295.058-.349.692-.434v.146c-.159.132-.162.105-.276.288h.14v.146c.289-.16.247-.234.692-.288.117.163-.016.02.14.146-.163.274-.117.139-.416.288v.145h.276c-.046.288-.091.58-.14.868h.14v.146h-.14v.288c.046.339.091.674.14 1.013h-.14c-.117.166-.071.204-.276.288v-.145h-.14c-.091.145-.185.288-.276.433h-.416l-.14.289c-.185.047-.37.094-.556.145a24.23 24.23 0 0 1-.139.434l-.417.146-.139.288h-.14v-.146c-.51-.125-.67.492-.972.146v.288h-.276c.045.193.091.386.14.58h-.14c-.156.247-.088.196-.416.288-.013-.03-.199-.526-.277-.434v.146l-.276.145a18.21 18.21 0 0 1-.14.434h-.416c-.465.237-.182.383-.972.434.046.146.091.288.14.434.186-.048.371-.095.556-.146v.434h.14v-.146h.556c.422-.166.617-.403 1.248-.434v-.288c.393-.091.367-.267.416-.288h.556v.146l.555-.146s.062.18.277.146v-.146l.556.146v-.146c.159-.166.055 0 .139-.288h-.139v.146c-.121.274-.14-.288-.14-.288.507.047 1.017.095 1.524.146l.14-.289c.14-.044.254.224.556.146v-.146h.692v.146h.14v-.146h.556l.139-.433h.14l-.14-.288h.417c.159.166 0 .057.276.145v-.288c.331.068.435.166.692.288V6.69h-.14c-.256-.138.277-.145.277-.145v.146c.159.166.055 0 .139.288.296-.017.472-.146.556-.146v.146h.277c.039-.258.139-.288.139-.288a24.215 24.215 0 0 0-.139-.434h.139V6.11c.394.183.572.373 1.109.434v-.288c.809-.194.078-.366.832 0v-.58h.14v.146c.185-.146.37-.288.555-.434v.58h.14c.068-.068-.039-.234.14-.146v.146h.14s-.039.518.139.288V6.11c.16-.166.056 0 .14-.288h-.416c.107-.434.085-.38.556-.434v.146l.416-.146v.146h.416v.145c.358.078.761-.45.972-.58l.416.147V5.1c.231-.156.231-.197.556-.288a24.28 24.28 0 0 1-.14.434h.14v.145c.14-.095.276-.193.416-.288V4.96h.276c.25-.116.302-.33.416-.58l.693.58c.084-.285.006-.353.276-.434.045.017.042.27.276.288.296-.41.124-.292.556-.146.045-.468.127-.424.276-.722.485.078.257.143.693 0v.868h.139c.156-.248.088-.197.416-.288.26.454.514.41.556 1.155.381.017 1.005.2 1.109 0h.139v.146c.384.095.819.404.972.722v.434h.14c.192.268.322.336.416.722-.14-.048-.276-.095-.416-.146v.146h.14v.434h.14c.126.213.123.356.139.722-.159.166-.055 0-.139.288-.462.047-.924.095-1.388.145v-.288c-.186.048-.371.095-.556.146v-.288c-.091.047-.186.095-.277.146-.045-.095-.091-.193-.139-.288-.004 0-.41.196-.693 0l-.139-.434c-.163-.119-.238.424-.556.288V8.43c-.159-.166-.055 0-.14-.288l-.416.146V8.14h-.14c.046-.146.091-.288.14-.434 0 0-.172-.044-.14-.288 0 0 .231-.064.14-.288h-.14c-.159.166 0 .058-.276.146a24.28 24.28 0 0 1-.14.434c-.325-.041-.344-.048-.556-.146v-.146c-.234.017-.234.275-.276.288-.315.116-.559-.18-.692-.145v.145c-.472.197-.576.451-1.109.58.046-.146.091-.288.14-.434h-.276c-.205.393-.426.66-.972.722V8.14h-.14c-.107.434-.084.38-.556.434v-.288c-.578.329-.656.295-1.388.146v-.289h-.139c-.01.56.022.597-.416.722v.146c-.134.268-.14-.288-.14-.288h-.276c-.046.095-.091.193-.14.288a50.39 50.39 0 0 1-.693-.146v.289h-.416V9.3c-.159.166-.055 0-.139.288l-.832.146v-.288l-1.388.146v.288h-.416v.146c-.124.27-.14-.289-.14-.289-.445.112-.299.217-.832.289v.433c-.819-.088-.758-.511-1.664-.58-.004.482-.072.655-.14 1.014h-.277c.043-.125.267-.318.14-.58h-.14v.146c-.159.167-.055 0-.139.289l-.832.145v.288c-.465-.088-.875-.396-1.388-.145-.091.145-.186.288-.277.433-.377.116-.429-.39-.555-.433-.251-.088-.101.162-.14.288-.14-.048-.276-.095-.416-.146v.58h-.277l-.139.288c-.228.07-.257-.143-.277-.146-.334-.061-.36.146-.555.146V11.9c-.277-.048-.556-.095-.833-.146v.288c-.919.102-1.387.126-2.08 0l-.139.434c-.261-.071-.664-.06-1.109-.146v-.145c.159-.167.055 0 .14-.289-.332.014-.345.095-.556.146v-.146c-.231-.155-.228-.206-.556-.288v-.288h-.276a24.002 24.002 0 0 0-.14-.434l-.832-.145v-.288c.111.047.436.295.692.145v-.145c-.409-.278-.338-.577-.276-1.014.185-.095.189-.227.276-.288.091.048.186.095.277.146v-.58h.139a82.36 82.36 0 0 0-.139-.867c-.14-.048-.277-.095-.416-.146.045.095.091.193.139.288l-.416-.146v.288h-.139c-.046.095-.091.194-.14.288h-.416c.032.336.153.089 0 .434l-.277-.145v.288c-.149.254-.139-.288-.139-.288a50.39 50.39 0 0 0-.693.145s-.065-.217-.276-.145c-.045.094-.091.193-.14.288h-.416c-.045.145-.091.288-.14.433-.214-.118-.614-.522-.971-.433-.046.095-.091.193-.14.288-.267-.027-.231-.282-.276-.288h-.14v.145h-.692v.146h.276c-.046.288-.091.58-.14.868h-.276c-.127-.058-.091-.44-.556-.288l-.14.288h-.692v-.146c-.202-.115-.234-.102-.556-.146v.434c-.14-.047-.276-.095-.416-.146v.146c-.159.166-.055 0-.14.288-.517.153-.374.299-.692.58v.146h-.416v-.434h-.277v.288h-.692v-.146h-.14c-.091.193-.185.386-.276.58l-.276-.146v.146l-.416.288v-.434h-.14v.146l-.416-.146v.146c-.195-.01.055-.122-.14-.146l-.832.146v.434h-.14v-.146c-.377-.21-.679.203-.832.288-.078-.454-.136-.607-.556-.722.078.352.147.319.277.58h-.277c-.221.213-.815.159-1.248.145v-.288h-.276v.288a80.445 80.445 0 0 1-.832-.145c-.068-.343-.13-.343-.276-.58.188-.17.136.108.276-.146-.182-.119-.163-.102-.276-.288h.276c.029-.342.058-.36.14-.58-.394-.094-.524-.267-.693-.58h.416c.091-.385.186-.772.277-1.155-.182-.119-.163-.102-.277-.288-.295.176-.302.325-.692.434v-.288h-.14v.434c-.539.047-.624.233-.972.433-.029-.342-.058-.359-.139-.58-.156.123-.02-.016-.14.147h-.14l.14.145-.14.434c-.588-.105-.666-.024-1.388 0l.14.434h-.14c-.114.19-.097.17-.276.288v-.58c-.705.041-.611.258-1.388.289-.104.491-.296.667-.832.721v-.287h-.14v.145c-.12.275-.14-.288-.14-.288a22.5 22.5 0 0 1-.416-.146l.14.289h-.276c-.221.213-.342.498-.416.867h-.416v-.288c-.891.034-1.115.529-1.804.722.087-.397.182-.329.276-.722-.887.203-1.518.84-2.08-.146.624-.38.295-.539.139-1.155h-.555c-.117-.163.016-.02-.14-.146.042-.126.266-.319.14-.58h-.14V8.85h-.416c-.234.4-.595.292-.832.58l-.14.434h-.416v.146c-.14.047-.276.095-.416.145v-.288c-.432.099-.631.434-.972.58h-.556v.146a19.61 19.61 0 0 1-.416-.146v.288l-.832.146v.145h-.556c-.045.01-.036.2-.276.146v-.146h-.276v-.145l-.972-.146c-.101.203-.25.437-.416.58v-.58h-.14v.288c-.14-.047-.276-.095-.416-.146-.065.34-.231.448-.276.722h.139c.046.146.091.288.14.434-.79.01-.871-.152-1.388-.288-.205.393-.426.66-.972.722v-.288h-.276v.58h-.276v.145h-.972v.146h-.276v.146c-.091-.048-.186-.095-.277-.146v.146h-.139c-.205-.173.117-.106-.14-.289.016.458.27.272-.14.434v-.288c-.78.098-.448.36-.832.58h-.276a24.26 24.26 0 0 1-.14.434h-.692v-.146c.344-.264.178-.112.139-.58h-.276v.434c-1.206.004-1.417.251-2.496.288v-.288c-.186.095-.371.193-.556.288.045.193.091.387.14.58-.361-.024-.475-.03-.693-.146v-.146l-.416.146c-.022-.003-.048-.203-.276-.146v.146h-.276v.146h-.277v.146c-.191.132-.243.101-.555.145V14.5h-.14v.146h-.692c-.095.044-.007.187-.417.288-.045.146-.09.288-.139.434h.139c.205.176-.503.142-.555.146v-.146c-.556-.095-1.109-.193-1.665-.288.075-.403.108-.014 0-.434-.149.082-.289.39-.555.288v-.145h-.14l.14-.289h-.14c-.159-.166 0-.057-.276-.145a24.26 24.26 0 0 0-.14-.434h.276a18.202 18.202 0 0 0-.14-.434h.14v.146c.12.274.14-.288.14-.288h.14v-.146c-.091-.048-.186-.095-.277-.146.046-.146.091-.288.14-.434h-.14v-.145h.416v-.146c-.182-.119-.162-.102-.276-.288.237-.163.189-.092.276-.434l.556-.146c.016-.01.215-.535.277-.434v.288h.416c.13-.26.191-.227.276-.58-.189-.168-.211-.263-.276-.579h.276v-.288h.276v-.145c-.276.047-.556.094-.832.145v-.145c-.182.01-.348.247-.692.145v-.145c-.277-.048-.556-.095-.832-.146v.58h-.277v.288c-.139-.095-.276-.194-.416-.289v-.288l-.14.146c-.159.166-.055 0-.139.288h-.556v.288a80.445 80.445 0 0 1-.832-.145c-.046.24-.091.48-.14.721-.338.082-.305.15-.556.289v-.146c-.143-.126-.192-.251-.276-.434-.159.166-.055 0-.14.288-.276.047-.556.095-.832.146v.288c-.328.03-.344.06-.556.146v-.288h.14l-.14-.434h-.139v.288c-.092-.048-.186-.095-.277-.146-.159.115-.055.342-.416.288-.045-.095-.091-.193-.14-.288h-.139v.288l-.416.146c-.072-.02-.085-.366-.277-.288l-.416.58a20.19 20.19 0 0 1-.416-.146v.288h-.276v.288c-.156-.122-.02.017-.14-.146-.15-.132-.026.024-.14-.146h.14v-.146h-.416v.146h-.14v-.146h-.416c-.045-.094-.09-.193-.14-.288-.09.048-.185.095-.276.146-.188.058.059.156-.14.146v-.146h-.276c-.003.448.04.746.14 1.014h-.556v.288h-.14v-.434h-.276l-.14.434c-.156-.122-.02.017-.14-.146h-.14l.14-.434c-.14.048-.276.095-.416.146v.146h-.276c-.045.095-.09.193-.14.288h-.555v.145h-.14c-.068-.064.039-.233-.14-.145l-.14.288-.692.146v-.289h-.14l-.14.289h-.14l-.14-.289c-.19-.091-.39-.07-.555-.145-.01.559.023.596-.416.722v-.288h-.276v.288h-.693l-.276.722h-.276v-.146c-.046-.007-.319.129-.556.146.078-.353.146-.32.276-.58h-.276l-.14.434-.972-.146c-.146.075-.1.325 0 .434h-.276c-.12.149-.24.2-.416.288v-.434c-.62.054-.403.092-.972 0v.146c.16.166.055 0 .14.288h-.692c-.036-.007-.046-.187-.277-.146v.146h-.276a18.21 18.21 0 0 1-.14.434c-.156-.122-.02.017-.14-.146-.156-.122-.019.017-.14-.146.183-.118.163-.101.277-.288h-.556c-.123.153-.244.19-.416.288v.146l-.416-.146v.146c.182.119.163.102.276.288h-.276c-.162-.196-.253-.22-.556-.288v.288c-.26-.102-.543-.142-.972-.146-.152-.301-.224-.257-.276-.722h-.276v-.288c-.156.122-.02-.017-.14.146h-.14v.288l-.276.146v.434h-.14c-.14-.193-.276-.387-.416-.58h-.14c-.182-.322.075-.403-.276-.722.046-.193.091-.386.14-.58 0 0-.179-.07-.14-.287h.14v-.722s.084 0 .14-.288c.383-.105.308-.041.416-.434h.276v.146l.416-.146v-.288l.692.145c.101-.4.04-.322.416-.433v-.58h.14l-.14-.288h.14c.117-.163-.016-.02.14-.146v-.146c.133-.267.14.289.14.289l.416.145v-.145h-.14c.045-.146.091-.289.14-.434h.832v.145c.325-.047.647-.094.972-.145v-.288h.556v-.288c-.475-.007-.96-.099-1.249-.146-.09.146-.185.288-.276.434l-.832.145c.078-.352.146-.318.276-.58h-.556v.147h.14c.16.227-.341.135-.416.145v.434h-.14v.146c-.23.047-.461.095-.692.146a57.3 57.3 0 0 1 .14-.722c-.338.081-.309.149-.556.288v.146l-.832-.289v.146c-.16.166-.055 0-.14.288-.227.044-.604.302-.692.288v-.145h-.416c-.192-.041.052-.19-.14-.146l-.14.288h-.276l.14-.288h-.14c-.16.166 0 .057-.276.146v.288c-.231.047-.462.095-.693.145-.026-.006-.045-.206-.276-.145v.145h-.276v.146c-.137-.03-.163-.39-.276-.288-.228.197.152.278-.416.434v.434h-.14v-.288h-.14c-.046.095-.091.193-.14.288h-.556c-.165-.316-.305-.478-.692-.58v.146h-.556l-.14.288-.416-.146v.434h-.276c-.341.607-.309.17-.692.434.045.095.09.193.14.288a57.834 57.834 0 0 1-.832-.146c-.014.004-.072.251-.277.288v-.145h-.556l-.14-.146v.146c-.393.264-.406.417-1.108.433-.156-.247-.088-.196-.416-.288v.288h-.276v-.145c-.176-.058-.364.41-.416.434-.286.132-.397-.126-.556-.146v.146c-.276.047-.556.094-.832.145l-.14-.434c-.383.105-.309.041-.416.434-.416.048-.832.095-1.248.146l-.14.288h-.972v.146c-.36.112-.647.013-.972.146-.078-.353-.146-.319-.276-.58-.156.122-.02-.017-.14.146-.487.359-.032.515-.692.722v.145h-.692l-.14.288c-.309.13-.39-.18-.556-.145v.146c-.276.057-.175-.065-.276-.146h-.14v.288c-.14-.048-.276-.095-.416-.146v-.146l-.416.146v-.146h-.556l-.14-.288c-.195 0-.065-.044-.14.146-.172-.166-.051 0-.14-.288h.557v-.288h-.556c-.13-.261-.192-.227-.276-.58h.276c-.081-.596-.15-.691-.416-1.301-.182.074.039.057-.14.146h-.416v.145c.28.082.12-.017.276.146-.396-.014-.595-.027-.832-.146v.146c.16.166.055 0 .14.288-.68 0-.79.166-1.248.288v-.434h-.14v.146h-.14l-.276-.146v.434h-.416v-.288h-.14v.288h.14v.434c-.462-.003-.627-.074-.972-.146v.288c-.328-.017-.351-.044-.556-.145v.145c-.16.166-.055 0-.14.288-.73-.084-.318-.311-.971-.145v-.288c-.221-.034-.176.247-.277.288-.52.203-.949.081-1.388 0v.434l-.276-.146v.146c-.28.247.013.22-.14.433h-.14c-.334-.522-1.296-.088-1.94 0v.434c-.26-.074-.757-.518-.972-.434v.146h-.14v.434c-.416.047-.832.095-1.248.146v.288h.14a22.05 22.05 0 0 1-.14.434c-.328-.017-.35-.044-.556-.146v.146h-.14v-.434h-.276v.434h-.14v-.146h-.555v.146l-.277-.146v.146c-.305.098-.458.044-.692.145v.434c-.692.109-.686.129-1.248-.288l-.14.434h-.556v.146c-.185.047-.37.095-.555.145v-.288h-.277c-.084.509-.15.665-.692.722v-.146c.16-.166.055 0 .14-.288-.185-.047-.37-.095-.556-.145v-.146c-.263-.085-.192.081-.276.146l-.416-.146v.146h.14v.58h-.277v-.289c-.38.23-.25.356-.832.434-.1.4-.039.322-.416.434-.374.46-.81.349-1.388.288v-.288h.556a22.73 22.73 0 0 0-.14-.434c-.211.085-.227.112-.556.146-.022-.393-.045-.871-.276-1.014v-.145c.1-.153.107.125.276-.146h-.276c-.247-.153.276-.146.276-.146-.078-.352-.146-.318-.276-.58h.416c.114.19.098.17.276.289-.338-.76-.51-1.461.693-1.448.159.166 0 .058.276.146.045-.24.09-.481.14-.722h-.277v.288h-.276l.14-.434h-.14c-.104.275.098.15-.14.289-.182-.17.166-.22-.14-.289v.289l-.276-.146v.146h.14c-.09.193-.185.386-.276.58h-.14v-.435h-.14v.146h-.416c-.09.146-.185.288-.276.434h-.276v.146h-.416v.145h-.277v.146c-.559.207-.978-.2-1.248 0-.377.254-.439.8-.556.868h-1.248c-.16-.166 0-.058-.276-.146v-.288h-.14c.046.193.091.386.14.58h-.14c-.263.237-.734.152-1.108.288v.145c-.205.068-.543-.156-.556-.145v.288h-.692l-.417 1.013h-.14v-.434h-.275c-.03.343-.059.36-.14.58-.156-.122-.02.017-.14-.146-.16-.166-.055 0-.14-.288.238-.163.189-.091.277-.434h-.417v.868c-.23-.048-.461-.095-.692-.146v-.146c.16-.166.055 0 .14-.288h-.276l.14-.288h-.14c-.16.166 0 .058-.277.146-.035.281-.136.281-.14.288-.22.712.124.925-.692 1.013v-.288c-.192.072-.305.058-.556.146v.146c-.14-.048-.276-.095-.416-.146v.146h-.276l.14.288h-.832v.146c.159.166.055 0 .14.288-.225-.01-.972-.146-.972-.146-.046.095-.091.193-.14.288-.377.214-.442.037-.693 0v.146h-.276l-.14.288c-.23.047-.461.095-.692.146v.145c-.185-.047-.37-.095-.556-.145-.23.047-.461.095-.692.145v.146c-.413.122-.562-.23-.832-.288v.146c-.16.166-.055 0-.14.288h-.556l-.14-.146c-.071.034-.038.258-.276.288v-.146l-.416-.145v.145c-.14.048-.276.095-.416.146v-.288c-.25.136-.218.2-.556.288v.288h-.14v-.433c-.78-.01-1.374-.346-1.664-.868l.277-.146c.01-.203-.137.061-.14-.146.045-.24.09-.48.14-.722h.276c-.306-.901.341-1.403.416-2.314a8.017 8.017 0 0 1 1.524-.146v-.434h.416c.095-.424.153-.475.556-.58v-.288c.81-.193.078-.366.832 0v-.288a1.63 1.63 0 0 0 .693-.288v-.146c.276-.027.097.22.276 0 .16-.166.055 0 .14-.288h.276c.16-.586.283-.288.556-.722l.832.288v-.145h.14v-.58c-.797.017-1.018.119-1.665 0-.078.454-.136.607-.555.722v-.288h-.277v.434c-.282.156-.546.427-.971.434l-.14-.146c-.5.393.045.674-.972.722l.14-.58h-.277v.146h.14c.01.05-.237.522-.276.722h-.276v-.288h-.277v.288l-.14-.146-.832.288c-.045.095-.09.193-.14.288-.181.082.03-.108-.14-.145-.139.047-.275.095-.415.145v-.145h-.416v-.146h-.14v.146s-.383-.133-.556-.146c-.09.24-.185.481-.276.722-.12-.044-.306-.278-.556-.146v.146h-.14v.434h-.14v-.434h-.14v.58c.024.203.147-.062.14.145l-.14.146c-.24-.126-.048-.017-.139-.288h-.14v.288l-.692.146.14-.288h-.14c-.215.25-.25.142-.556.288v.145c-.205.082-.53.038-.556-.145h-.14v.433h-.14v-.145h-.139v.288h-.276v.288c-.351-.115-.858-.01-1.525 0-.045.339-.09.674-.14 1.013h-.276v-.288c-.211.085-.227.112-.556.146v.434l-.832.288v.146H6.59v.145c-.68.268-.839-.223-1.248.434h-.14l.14.146a24.28 24.28 0 0 1-.14.434c-.185-.048-.37-.095-.556-.146v.434c-.49.054-.422.18-.832.288v-.288h-.14v.434c-.276.047-.555.095-.832.145l-.14.434h-.276c-.045.146-.09.288-.14.434h-.14v-.434h-.139l-.14.288-.416-.145v-.146c-.27-.071-.185.081-.276.146l-.556-.146.14-.146v-.146h-.14v-.434h.14v-.145H.483c-.004-.482-.072-.654-.14-1.014H.067c-.248-.152.276-.145.276-.145.045-.146.09-.289.14-.434.715.034.685.274.692-.58.23-.047.461-.095.692-.145v-.58l.416-.146c.16-.166 0-.058.277-.146v.289h.276v-.289c.14.048.276.095.416.146v-.288h-.14l.14-.434h.14v-.145h.416c-.004-.204.029-.041-.14-.146v-.146h.416v-.146h.14l.14.288c.461.095.923.194 1.387.288.013-.542.127-.664.277-1.013.14.047.276.095.416.146v-.288h.416l-.14.288h.14v-.146h.276c.153-.125.062-.35.276-.434.124.129.052.244.277.288.09-.145.185-.288.276-.434h.416v-.145h.14v-.58h.276v.288c.592-.057.627-.298 1.108-.434.111-.467.257-.498.277-1.155h1.248v.145l.416-.145v-.146c.208-.058.188.258.276.288l.416-.146v.288h.14v-.288c.156-.122.02.017.14-.146l-.277.146v-.58h.14v-.579h.693l-.14.434h.416c.221-.281.504-.386.692-.722.143.125.192.25.276.434.14-.095.277-.193.417-.288v-.146h.276l.14-.288c.09.047.185.095.276.146.185-.146-.17-.244.14-.288v.145c.14.048.276.095.416.146v-.288c-.16-.166-.056 0-.14-.288.357.068.614.139 1.108.146.199-.309.364-.292.693-.434l-.14-.434h.556v-.146h.14v.146h.276v-.288c.786-.024.517-.224.972-.434h.555v-.146c.16-.166.056 0 .14-.288h.416v.288h.277c.113-.464.162-.42.692-.434V9.4c.325-.156.452-.333.832-.434V8.53h.276v-.288c.732.003 1.096-.17 1.665-.288.1.4.039.322.416.434a22.054 22.054 0 0 0-.14-.434h.14c.152-.204.484-.424.692-.58V7.23h.416v.146h.14v.434h.14c.045-.576.142-.668.692-.722v.146c.185.068-.052-.092.14-.146.555-.095 1.108-.193 1.664-.288-.14-.45-.078-.22 0-.722.338-.081.305-.15.556-.288v.146h.14c.11.213-.14.288-.14.288l.14.288c.318-.278.175-.434.692-.58.045-.145.09-.288.14-.434.396.17.653.275 1.248.289.14-.289.276-.58.416-.868h.276l.14.288.972-.288v-.146h.971l.14-.288h.276c.088-.396.182-.329.277-.722.185.048.37.095.556.146v-.146c.152-.129.029.024.14-.146h-.14c-.137-.24.198-.122.276-.145v-.146c.14.047.276.095.416.146-.046.095-.091.193-.14.288h.14c.435-.522.816 0 1.388.145.094-.19.172-.155.276-.288l-.14-.288h.277v-.145l.276-.146c.02-.204-.03.024-.14-.146l.14-.288c.468.102.533.315.972.434v-.434c.38.091.315.19.692.288v-.434c.153.048.273.258.556.146v-.146h.416v-.146c.276-.24.556-.48.832-.721V1.3h.276v.146c.192.04-.026-.03.14-.146l.276.146-.14.434c.774.061 1.168.258 1.665-.288-.273-.163-.325-.203-.416-.58l.416-.145c.045.095.09.193.14.288h.276v-.58c.302.061.397.095.556.288l.832-.288-.14-.288h.692V0l.069.034Zm-1.385 2.17v.287h.14v-.288h-.14Zm123.564.287v.288h.14v-.288h-.14Zm-123.148.434v.288h.14v-.288h-.14Zm-1.94.288v.288h.14v-.288h-.14Zm121.62.434c.159.166 0 .058.276.146-.159-.166 0-.058-.276-.146Zm-10.954.146c.159.166 0 .057.276.145-.159-.166 0-.057-.276-.145ZM37.43 4.226c.013.492 0 .526.276.722v-.145h-.14v-.58h-.14l.004.003Zm114.827.146c.159.166 0 .058.276.146-.159-.166 0-.058-.276-.146Zm-15.118.143v.288h.14v-.288h-.14Zm9.709.145-.14.288s.403-.23.277-.288h-.14.003Zm14.282 0h.277c-.118.163.016.02-.14.146v.146c-.16-.166-.055 0-.14-.288l.003-.004Zm-122.732.146c.16.166 0 .058.277.146-.16-.166 0-.058-.277-.146Zm77.802.142v.288h.14v-.288h-.14Zm-76.274.58v.146h-.14c-.263.125.277.145.277.145.117-.162-.017-.02.14-.145-.16-.166 0-.058-.277-.146Zm106.506 0v.146h-.14c-.263.125.276.145.276.145.117-.162-.016-.02.14-.145-.159-.166 0-.058-.276-.146Zm35.501 0v.146h-.14c-.263.125.276.145.276.145.117-.162-.016-.02.14-.145-.159-.166 0-.058-.276-.146Zm-92.916.146v.288h.14v-.288h-.14Zm-34.253.142v.288h.14v-.288h-.14Zm35.501 0v.288h.14v-.288h-.14Zm25.655 0c.234.312.277.288.277.288.101-.139-.241-.254-.277-.288Zm35.505 0c.234.312.276.288.276.288.101-.139-.241-.254-.276-.288Zm9.845 0v.288h.14v-.288h-.14Zm25.655 0c.234.312.277.288.277.288.1-.139-.241-.254-.277-.288Zm-152.271.292h-.276v.145h.14V6.4h.14v-.288l-.004-.003Zm1.804.867h.276a36.937 36.937 0 0 0-.14-.58h-.14v.58h.004Zm106.506 0h.276l-.14-.58h-.14v.58h.004Zm35.501 0h.276l-.14-.58h-.14v.58h.004ZM34.934 6.684v.58h.14v-.58h-.14Zm35.5 0v.58h.14v-.58h-.14Zm71.005 0v.58h.14v-.58h-.14Zm20.523.291v.434h.14a1.4 1.4 0 0 1 .556-.58v-.145h-.276c-.156.247-.088.196-.416.288l-.004.003Zm14.978-.291v.58h.14v-.58h-.14Zm-79.462.145v.289h.14v-.289h-.14Zm35.501.289h.276v-.146c-.156-.122-.02.017-.14-.146h-.14v.288l.004.004Zm-77.523-.143v.434h.14v-.434h-.14Zm35.501 0v.434h.14v-.434h-.14Zm60.744.576c.101.4.039.322.416.434.088-.396.182-.329.276-.722h-.14c-.175.275-.139.24-.555.288h.003Zm1.248-.288v.288c.364-.01.471-.057.692-.145V7.26h-.692v.003Zm-73.222.146v.434h.14v-.146c.156-.122.02.017.14-.146l-.276-.145-.004.003Zm35.501 0v.434h.14v-.146c.156-.122.019.017.14-.146l-.277-.145-.003.003Zm35.501 0v.434h.14v-.146c.156-.122.019.017.139-.146l-.276-.145-.003.003Zm35.504 0v.434h.14v-.146c.156-.122.019.017.14-.146l-.277-.145-.003.003Zm-88.895.142v.288h.14v-.288h-.14Zm64.348 0c.234.312.276.288.276.288.101-.138-.24-.254-.276-.288Zm-73.361.292v.434h-.277v.288l.277-.146.14-.434c.155-.122.019.017.14-.146h-.277l-.003.004Zm5.824 0v.288h.14v-.288h-.14Zm35.501 0v.288h.14v-.288h-.14Zm21.775.288h-.417v.288h.277c.13-.26.192-.227.276-.58h-.14v.289l.004.003Zm13.726-.288v.288h.14v-.288h-.14Zm-88.336.576v-.288c-.156.122-.02-.017-.14.146h-.14c.16.166 0 .057.277.145l.003-.003Zm35.085-.288v.434h.139c.16-.166 0-.058.277-.146v-.288h-.416Zm19.691.288v-.288h-.416v.146h.139c.16.166 0 .057.277.145V8.42Zm16.226 0v-.288c-.156.122-.02-.017-.14.146h-.14c.159.166 0 .057.276.145l.004-.003Zm10.957-.288v.288c.156-.122.019.017.139-.146h.14c-.159-.166 0-.057-.276-.145l-.003.003Zm19.691.146v.288h.139v-.288h-.139Zm-91.805.576h.277c-.117-.163.016-.02-.14-.146V8.42h-.14v.434h.003Zm-39.108-.288v.288h.14v-.288h-.14Zm35.504 0v.434h.14v-.434h-.14Zm71.001 0v.288h.14v-.288h-.14Zm27.044 0c.159.166.055 0 .139.288h-.139v-.288Zm8.46 0v.288h.14v-.288h-.14ZM28.137 8.71v.288h.14V8.71h-.14Zm35.5 0v.288h.14V8.71h-.14Zm71.006 0v.288h.14V8.71h-.14Zm35.501 0v.288h.139V8.71h-.139Zm-97.906.142c.013.03.199.525.277.434V9.14h.14c-.12-.15-.241-.2-.417-.288Zm35.777.725h.277V9.29h-.277l.14-.288a22.575 22.575 0 0 1-.416-.146v.146c.189.17.211.264.276.58v-.004Zm-36.609-.58.14.434h.14c-.085-.345-.046-.267-.277-.433h-.003Zm35.501 0c.046.146.091.289.14.434h.14c-.085-.345-.046-.267-.277-.433h-.003Zm2.636 0h-.276c.117.163-.016.021.14.146v.146h.139v-.288l-.003-.003Zm54.779.58h.276V9.29h.14c-.045-.095-.091-.193-.14-.288-.156.122-.019-.017-.139.146h-.14v.434l.003-.004ZM48.523 9.144c.16.166 0 .058.277.146-.16-.166 0-.058-.277-.146Zm23.575 0v.434h.14v-.434h-.14Zm35.501 0v.434h.14v-.434h-.14Zm2.636 0h-.276c.117.163-.016.02.14.146v.146h.14v-.288l-.004-.004Zm16.087 0v.434h.139v-.434h-.139Zm35.504 0v.434h.14v-.434h-.14ZM21.48 9.287v.288h.14v-.288h-.14Zm6.517 0v.288h.14v-.288h-.14Zm35.504 0v.288h.14v-.288h-.14Zm9.29.291V9.29c-.156.122-.02-.017-.14.146h-.14c.16.166 0 .057.277.146l.003-.004Zm26.211-.291v.288h.14v-.288h-.14Zm10.678 0v.867h.139v-.867h-.139Zm17.75 0v.288h.14v-.288h-.14Zm.556 0v.288h.14v-.288h-.14Zm6.517 0v.288h.14v-.288h-.14Zm28.431 0v.288h.14v-.288h-.14Zm.556 0v.288h.14v-.288h-.14Zm6.517 0v.288h.14v-.288h-.14Zm-145.475.145c.16.167 0 .058.276.146-.159-.166 0-.057-.276-.146Zm35.501 0c.16.167 0 .058.276.146-.159-.166 0-.057-.276-.146Zm106.506 0c.159.167 0 .058.276.146-.159-.166 0-.057-.276-.146Zm-96.66.289.14.433h.14c-.085-.345-.046-.267-.277-.433h-.003Zm35.504 0c.045.145.091.288.139.433h.14c-.084-.345-.045-.267-.276-.433h-.003Zm9.013.145v.288h.14v-.288h-.14Zm-87.647.722c-.1-.4-.039-.322-.416-.434.046.194.091.387.14.58h.416v.146c.195.027-.052-.102.14-.146h.555v-.58c-.156-.122-.02.017-.14-.145h-.276v.145h.14c.046.261-.345.38-.556.434h-.003Zm18.03-.576-.14.288s.403-.23.276-.288h-.14.004Zm106.506 0-.14.288s.403-.23.276-.288h-.139.003Zm-130.221.722h.276v-.146c-.156-.122-.02.017-.14-.145h-.14v.287l.004.004Zm4.853-.288v.288c.156-.122.02.017.14-.146h.14c-.16-.166 0-.057-.277-.145l-.003.003Zm30.648.288h.276v-.146c-.156-.122-.02.017-.14-.145h-.14v.287l.004.004Zm4.856-.288v.288c.156-.122.02.017.14-.146h.14c-.16-.166 0-.057-.277-.145l-.003.003Zm35.5 0v.288c.157-.122.02.017.14-.146h.14c-.159-.166 0-.057-.276-.145l-.003.003Zm66.153.288h.276v-.146c-.156-.122-.019.017-.14-.145h-.139v.287l.003.004Zm4.853-.288v.288c.156-.122.019.017.14-.146h.139c-.159-.166 0-.057-.276-.145l-.003.003ZM23.7 11.313v-.288l-.416.146.14.58h-.14v.146c-.325.047-.647.094-.972.145v.288c.182.027.862.177.972.146l.14-.288.416.146c.045-.24.091-.482.14-.722h.14c.159-.166 0-.058.276-.146v.288h.692v-.288h.276c-.09-.288-.185-.58-.276-.868h-.14l-.14.434c-.198.146-.8.261-1.108.288v-.007Zm15.67-.725v.434h.14v-.434h-.14Zm-18.582.292v.288h.14v-.288h-.14Zm21.634 0v.288h.14v-.288h-.14Zm13.867 0v.288h.14v-.288h-.14Zm35.5 0v.288h.14v-.288h-.14Zm41.19 0c.159.166 0 .057.276.145-.159-.166 0-.057-.276-.145Zm15.949 0v.288h.14v-.288h-.14Zm13.866 0v.288h.14v-.288h-.14Zm-126.06.142c.16.166.055 0 .14.288h-.14v-.288Zm35.364.146c.157.247.088.196.417.288-.12-.15-.24-.2-.416-.288Zm15.81.288h.277v-.146c-.156-.122-.02.017-.14-.146h-.14v.289l.004.003Zm-51.45-.143h.276v.146c-.28-.081-.12.017-.276-.146Zm38.693 0c.159.167.055 0 .14.289h-.14v-.289Zm37.305.577h-.277v-.58h-.14v.146c-.159.166-.055 0-.139.288.14.095.276.193.416.288.117.163-.016.02.14.146v-.288Zm-38.553-.434v.288h.14v-.288h-.14Zm-45.49.291v.289h.14v-.289h-.14Zm35.504 0v.289h.14v-.289h-.14Zm30.648.143c.16.166 0 .057.277.146-.16-.167 0-.058-.277-.146Zm-49.233.433v-.287c-.157.122-.02-.018-.14.145h-.14c.16.166 0 .058.276.146l.004-.004Zm71.005 0v-.287c-.157.122-.02-.018-.14.145h-.14c.159.166 0 .058.276.146l.004-.004Zm-83.347.292v.288h.14v-.288h-.14Zm2.776 0v.288h.14v-.288h-.14Zm-10.402.142v.289h.14v-.289h-.14Zm11.094.292c-.006.586-.065.623.276.867v-.145c-.234-.312.108-.698.276-1.014h-.14c-.155.248-.087.197-.415.289l.003.003Zm2.496-.292c.16.167 0 .058.277.146-.16-.166 0-.058-.277-.146Zm7.21 0a24.28 24.28 0 0 1-.14.434h.14v-.146c.058-.084.227-.02.14-.288h-.14Zm14.701 0v.289h.14v-.289h-.14Zm46.598.292c-.007.586-.065.623.276.867v-.145c-.234-.312.107-.698.276-1.014h-.139c-.156.248-.088.197-.416.289l.003.003Zm2.496-.292c.159.167 0 .058.276.146-.159-.166 0-.058-.276-.146Zm-61.991.146v.288h.14v-.288h-.14Zm15.533.288h.277v-.146c-.157-.122-.02.017-.14-.145h-.14v.288l.003.003Zm19.97-.288v.288h.14v-.288h-.14Zm12.343 0c.159.166.055 0 .14.288h-.14v-.288Zm-30.512.146c-.046.095-.091.193-.14.288l.276.146c.101-.173-.292-.126 0-.434h-.14.004Zm-17.058.142-.14.434h.14v-.288h.14v-.146h-.14Zm35.504 0-.14.288s.403-.23.276-.288h-.14.004Zm-72.809.58h.276v-.146c-.156-.122-.02.017-.14-.146h-.14v.288l.004.004Zm78.078 0h-.276c.117.162-.017.02.14.145v.146h.14v-.288l-.004-.003Zm-73.362.288v.288h.14v-.288h-.14Zm19.97 0v.58h.14v-.146h.14c-.045-.095-.09-.194-.14-.288h.14c-.159-.166 0-.058-.276-.146h-.003Zm51.035 0v.288h.14v-.288h-.14Zm20.939 0c-.159.166 0 .058-.276.146v.145h.276c.046-.095.091-.193.14-.288h-.14v-.003Zm-64.624.434-.14.288s.403-.23.276-.288h-.14.004Zm-5.269.291v.288h.14v-.288h-.14Zm3.052 0v.288h.14v-.288h-.14Zm-6.52.288h.276c-.114.19-.097.17-.276.288v.146h-.14l.14-.434Zm4.856 0-.14.288s.403-.23.277-.288h-.14.003Zm-10.68.58v.288h.139v-.288h-.14Zm-10.678.722v.288h.14v-.288h-.14Zm3.052.146v.433h.556v.288h.416c.113-.19.097-.17.276-.288v-.433c-.579.105-.582.037-1.248 0Zm-11.234.288c.16.166 0 .057.277.145-.16-.166 0-.057-.277-.145Zm28.708.145v.288h.14v-.288h-.14ZM3.866 19.265c-.045.146-.09.288-.14.434h.14v-.288h.14v-.146h-.14Zm17.89.146v.288h.14v-.288h-.14Z" fill="#FDE6AD"/></svg>