<svg width="152" height="227" fill="none" xmlns="http://www.w3.org/2000/svg"><path d="M102.314 40.385c.287 0 5.073.04 5.439.01.149.614.426 3.09.714 3.873.743 2.002 2.318 4.33 3.616 5.975 3.31 4.488-15.397 3.368-13.574 1.278 1.684-1.903 3.2-4.914 3.775-7.897.208-1.1.03-2.823.03-3.24Z" fill="#FFDBB0"/><path d="M111.995 38.254c-1.229 3.527-3.776 5.667-6.173 6.143-2.398.485-4.796.168-7.124-.773-1.923-1.08-3.587-2.972-4.033-3.844-.416-.803-.674-1.793-.753-2.774-.178-2.299-1.734-1.952-1.04-6.797.208-1.476 1.932-8.391 8.323-10.036 5.618-1.446 13.376 10.71 10.809 18.091l-.009-.01Z" fill="#FFDBB0"/><path d="M99.451 28.01c-2.447-3.04-6.193 5.985-7.124 3.994-2.487-5.301 3.428-11.176 5.925-12.375 2.646-1.278 5.063-1.962 8.858-1.219 3.349.654 3.24 1.863 4.627 2.854 3.577 2.546 4.895 6.251 5.192 9.749.139 1.605-.991 5.776-2.447 7.787-.555.763-3.002 2.606-4.429 3.408-1.13.634-.277-4.587 1.12-5.706 1.882-2.388 1.347-3.161.772-3.934-.574-.773-2.13-1.09-2.437-.257-1.536 4.131-.832.138-2.021-.545-3.24-1.873-1.338 2.07-8.036-3.755Z" fill="#003F67"/><path d="M109.895 23.085c.634-1.15 1.496-3.498 2.388-4.469.891-.97 1.852-2.04 3.269-2.367 2.19-.516 3.339-.436 4.499.218 1.03.574 2.605 3.388 2.665 5.39.386 2.605 2.19 3.328 3.399 3.823 1.724.704 4.656.11 4.359 1.368-.862 3.685-2.863 4.32-5.023 4.062-6.956-.842-3.389-7.361-7.64-8.085-4.25-.723-4.577-.119-7.916.06Z" fill="#003F67"/><path d="M80.625 45.328c-2.517-2.368-7.818-11.513-9.542-15.267-3.448-7.53-3.844-14.099-4.26-14.94-.645-1.289-2.13-4.915-3.072-7.243-.387-.941-.09-2.487.594-5.519.308-1.337 1.516.595 2.507-.683 1.655-2.16 2.2-.397 3.002-.595 1.388-.356 1.764-.485 1.883 1.427s-.03 3.15-.178 4.012c-.15.862-.08 2.21 1.09 1.1 1.159-1.11 1.872-1.644 2.982-1.496 1.12.149 1.258.99-.297 2.18-1.507 1.753-2.16 4.765-2.765 5.954-.257.515 2.022 7.45 3.815 11.473.941 2.11 9.8 13.84 10.632 14.831 3.447 4.043-3.934 7.104-6.401 4.786l.01-.02Zm52.346-.039c2.586-2.289 8.164-11.265 9.997-14.97 3.676-7.42 4.271-13.98 4.716-14.802.684-1.268 2.279-4.845 3.29-7.143.416-.931.168-2.487-.436-5.538-.268-1.348-1.536.554-2.477-.753-1.595-2.21-2.18-.456-2.983-.684-1.377-.396-1.753-.535-1.932 1.367-.178 1.912-.069 3.15.05 4.013.119.872 0 2.21-1.12 1.06-1.129-1.14-1.813-1.704-2.942-1.585-1.12.119-1.289.95.227 2.18 1.447 1.803 2.022 4.834 2.586 6.033.248.515-2.249 7.381-4.161 11.344-1.001 2.08-10.215 13.544-11.077 14.495-3.567 3.943 3.715 7.222 6.252 4.973l.01.01Z" fill="#FFDBB0"/><path d="M114.204 213.794c.148-.377.277-.743.337-1.07.436-2.329-.882-8.184-.654-9.759 0 0 7.788.475 7.956 2.734.179 2.259-.802 7.679.456 9.492.277.396.892.881 1.694 1.416-3.487 1.249-6.698-.762-9.789-2.813Z" fill="#003F67"/><path d="M114.204 213.793c3.091 2.051 6.302 4.062 9.789 2.814 2.894 1.932 8.363 4.557 10.454 6.41 2.675 2.368-2.012 3.874-4.231 3.517-2.22-.347-14.159-3.131-16.814-5.39-2.279-1.942-.129-5.043.802-7.351Zm-21.898 3.221c-2.388.991-6.321.872-8.71 2.249-3.24 1.872-6.231 5.013.744 6.41 6.966 1.397 14.506-1.684 16.319-3.735 1.774-2.002-.832-3.081-.793-4.27-2.566.297-5.192.158-7.55-.664l-.01.01Z" fill="#003F67"/><path d="M103.344 204.342s-7.56-1.575-8.025-.386c-.466 1.189 0 8.619-1.2 11.473-.316.752-.97 1.238-1.822 1.585 2.358.822 4.993.961 7.55.664v-.08c.158-1.218 3.864-11.354 3.487-13.266l.01.01Z" fill="#003F67"/><path d="M124.38 102.356c1.486.336 4.924 8.243 4.251 21.885-.278 5.489-1.922 14.762-2.388 17.219-1.576 8.422-1.546 72.919-2.071 73.068-5.786 1.704-10.562 1.218-13.545 1.367-2.972.139-2.625-47.437-2.893-53.104-.198-4.121.05-26.72-2.536-26.998-2.032-.218-2.041 31.744-1.942 37.064.109 5.994.287 42.533-1.229 42.998-1.595.496-10.156.823-12.326.615-2.17-.208-1.754-49.468-1.813-59.564-.05-8.342-1.209-53.916 1.179-53.599 1.229.158 35.323-.961 35.323-.961l-.01.01Z" fill="#A2A2A2"/><path d="M91.118 40.938c2.754 2.923 7.58 8.56 8.105 7.411.713-1.565-.327-1.833 3.785-2.12 3.041-.218 4.617-.198 5.816-.178 2.14.05 2.824 1.1 3.646 1.297 2.695.645 10.433-5.954 12.385-8.52 2.814-3.695 3.349-1.942 7.313.882 3.636 2.586 5.964 3.012 2.199 7.4-5.281 6.163-8.63 12.86-7.748 16.913.634 2.903 1.229 19.726 1.229 28.533 0 4.062.673 12.662.782 19.984.04 3.091-13.891 2.932-16.546 2.566-2.23-.308-11.425-.724-14.476.178-2.081.614-11.108.357-11.246-3.081-.357-9.274 2.457-13.94 2.457-18.507 0-4.677.376-22.797-1.08-30.783-1.407-7.747-6.847-11.8-8.927-14.088-1.764-1.942-.367-4.26 3.23-7.163 4.577-3.696 3.527-6.609 9.076-.704v-.02Z" fill="#E2C2BC"/><path d="M99.718 111.867c-.178 0-.317-.198-.317-.436.01-3.775-.129-50.588-.188-54.491 0-.238.139-.436.317-.436s.317.188.327.426c.06 3.904.198 50.736.188 54.511 0 .238-.138.426-.317.426h-.01Zm2.863 3.654c.773.04 1.665-.039 2.547-.119.693-.059 1.357-.119 1.862-.109.446.01 1.388.06 2.616.119 4.588.218 12.257.585 14.328.228a.314.314 0 0 0 .257-.367.309.309 0 0 0-.366-.257c-1.992.347-9.928-.04-14.179-.238-1.239-.059-2.19-.109-2.636-.119-.545-.01-1.218.05-1.932.109-1.407.129-3.151.288-3.745-.228a.574.574 0 0 1-.208-.436.308.308 0 0 0-.337-.297.32.32 0 0 0-.297.337c.029.357.168.654.436.882.386.327.981.465 1.674.495h-.02Zm-6.776.437c-.357 0-.793 0-1.328-.03-2.001-.089-4.548-.604-6.48-1.298-.119-.039-.188-.218-.158-.386s.138-.277.257-.238c1.913.684 4.42 1.189 6.401 1.278 2.13.099 2.507 0 3.3-.555.109-.079.237 0 .287.149.05.159 0 .347-.1.426-.673.466-1.119.634-2.17.654h-.01Zm19.766-41.914.198-.003-.013-.892-.198.003.013.892Z" fill="#003F67"/><path d="M114.729 60.693c0-.188.218-.347.506-.347h.505c.278-.01.505.139.515.327l.169 11.612c0 .188-.218.346-.506.346h-.505c-.277.01-.505-.138-.515-.326l-.169-11.612Z" fill="#F2A096"/><path d="M115.096 59.92s.119-.039.258-.049h.257c.139 0 .258.01.258.03l.02 1.407s-.119.04-.258.05h-.258c-.138 0-.257-.01-.257-.03l-.02-1.407Zm-.08 12.306s.179-.09.416-.09h.436c.238 0 .426.03.416.08l-.287 1.476s-.099.02-.218.03h-.218c-.119 0-.218 0-.218-.02l-.327-1.466v-.01Z" fill="#F2A096"/><path d="m113.314 74.073.198-.003-.012-.891-.198.002.012.892Zm-.843-13.351c0-.188.218-.346.505-.346h.505c.278-.01.506.138.516.326l.168 11.612c0 .188-.218.347-.505.347h-.506c-.277.01-.505-.139-.515-.327l-.168-11.612Z" fill="#E2C2BC"/><path d="M112.838 59.96s.119-.04.257-.05h.258c.139 0 .257.01.257.03l.02 1.407s-.119.04-.257.05h-.258c-.139 0-.258-.01-.258-.03l-.019-1.407Zm-.07 12.305s.178-.09.416-.09h.436c.238 0 .426.03.416.08l-.287 1.476s-.099.02-.218.03h-.218c-.119 0-.218 0-.218-.02l-.327-1.466v-.01Z" fill="#E2C2BC"/><path d="m109.527 74.428 7.778-.11-.143-10.055-7.777.11.142 10.055Z" fill="#9FA198"/><path d="M117.206 66.936a.288.288 0 0 0 .288-.288l-.02-1.624a.288.288 0 0 0-.575 0l.02 1.624c0 .159.129.288.287.288Zm-8.095.117c.159 0 .278-.128.288-.287v-.535c-.02-1.308.049-1.803.802-1.833.634-.03 1.992-.04 3.3-.05 1.327-.01 2.576-.02 3.121-.039.158 0 .277-.139.277-.297 0-.159-.148-.278-.297-.278-.525.02-1.774.03-3.091.04-1.318.01-2.676.02-3.32.05-1.377.059-1.367 1.307-1.347 2.417v.525c0 .159.129.287.287.287h-.02Z" fill="#003F67"/><path d="M95.042 54.514c6.827.486 13.326.238 16.15.238 3.993 0 5.697-1.882 6.163 3.29.466 5.171 2.814 16.674 7.986 23.956 5.172 7.281 4.935 7.747 4.935 13.622s.445 35.479.941 43.217c.703 11.037 1.407 12.216-3.755 12.216-5.163 0-18.321.465-28.417 0-10.097-.466-15.507.941-14.793-5.172.703-6.103.94-14.564 1.179-22.55.168-5.875.792-31.743 2.348-37.103 2.11-7.282 4.23-18.784 4.23-25.135 0-6.35-.237-6.807 3.052-6.579h-.02Z" fill="#EE8084"/><path d="M93.981 44.715c-1.03 3.3-1.862 9.59-2.001 12.414-.129 2.834 1.238 2.358 2.992 2.259 1.754-.1 1.962.06 1.992-1.942.03-2.001.584-8.689.525-9.749-.06-1.06-.535-1.516-1.645-2.408-.911-.733-1.496-1.832-1.882-.584l.02.01Zm18.44 3.17c0-1.535 4.399-3.348 4.399-1.347s.525 7.629.406 9.868c-.119 2.229-.693 1.753-2.467 1.645-.941-.06-2.071.316-2.17-2.765a394.853 394.853 0 0 1-.178-7.4h.01Z" fill="#EE8084"/><path d="M127.352 111.086H116.78c-.951 0-1.615-.208-2.031-.644-.515-.535-.555-1.308-.535-1.843.03-.813 0-4.795-.02-7.996-.01-1.822-.02-3.477-.02-4.32 0-.177.139-.316.318-.316.178 0 .317.139.317.317 0 .852.009 2.496.019 4.319.02 3.369.05 7.193.02 8.026-.02.663.089 1.099.357 1.377.297.307.812.455 1.575.455h10.572c.179 0 .318.139.318.317a.313.313 0 0 1-.318.317v-.009Zm1.229-1.279a.313.313 0 0 1-.317-.317c0-.257 0-.852.01-1.654.02-2.834.059-8.105-.01-9.6a.33.33 0 0 1 .307-.338c.149 0 .327.13.337.308.069 1.515.03 6.796.01 9.64 0 .802-.01 1.396-.01 1.654a.313.313 0 0 1-.317.317l-.01-.01Zm-39.207 1.328c-1.258 0-2.566-.03-3.131-.05a.316.316 0 0 1-.307-.337.31.31 0 0 1 .337-.307c1.139.05 4.121.089 5.38 0 1.179-.079 1.595-.505 1.595-1.615 0-2.506 0-10.839-.04-12.632 0-.178.14-.327.308-.327.188 0 .326.139.326.307.04 1.754.04 9.432.04 12.642 0 1.457-.674 2.16-2.19 2.259-.564.04-1.426.05-2.318.05v.01Z" fill="#9FA198"/><path d="M11.408 217.846c.376-.475.604-.961.565-1.625-.1-1.476-.793-3.844.267-6.717 1.06-2.883.862-2.467 1.902-5.003s1.06-4.112.664-6.648c-.396-2.536-.05-4.973 1.387-7.44 1.437-2.467 3.052-2.705 6.094-2.784 3.042-.08 2.834 2.714 3.121 6.251.238 2.259.387 4.241-.98 6.569-1.378 2.328-2.2 5.053-2.418 6.499-.337 2.259-2.22 6.45-2.973 7.629-.812 1.278-2.1 3.735-1.258 5.31.158.297.307.496.456.654-2.547.902-5.282-.386-6.827-2.705v.01Z" fill="#FFDBB0"/><path d="M11.408 217.846c1.546 2.318 4.27 3.606 6.827 2.704.634.694 1.189.486 1.852 2.705 1.06 3.567-2.03 4.042-4.964 2.507-2.05-1.08-6.638-4.795-4.954-6.579.486-.515.922-.921 1.239-1.327v-.01Zm26.544.764c1.328.98 1.585-.218 3.32 1.892 2.288 2.784-.377 4.924-3.637 5.072-2.289.1-7.877-.901-6.985-3.507.376-1.09.733-1.922.772-2.685 2.368.961 4.44.416 6.53-.782v.01Z" fill="#003F67"/><path d="M25.586 191.612c.406-3.121 8.65-1.605 10.216 4.27.763 2.883 1.208 6.013 1.545 7.49.525 2.318-.248 6.43-.456 9.313-.118 1.575-.326 4.864 1.03 5.895.01 0 .02.01.03.019-2.08 1.199-4.16 1.744-6.529.783.02-.366-.03-.723-.208-1.09-.634-1.337-2.14-3.19-2.23-6.489-.089-3.299-.118-2.804-.098-5.766.02-2.963-.545-4.459-1.843-6.638-1.298-2.18-1.873-4.667-1.467-7.787h.01Z" fill="#FFDBB0"/><path d="M36.1 169.053c-1.784-1.179-8.572-1.03-12.495-1.476-3.815-.436-5.737.188-9.918-.822-3.26-.793-2.378 2.952-6.153 10.492-2.497 4.983-8.977 11.998-7.025 13.712 1.952 1.714 6.777 3.992 9.512 3.239 2.734-.743 3.606-.961 6.806.615 2.785 1.377 7.511-.02 11.217-.337 3.101-.268 5.063-.02 7.48.564 4.648 1.13 8.175-.396 8.958-1.02 1.13-.902 1.12-5.38-2.834-11.106-3.954-5.727-3.36-11.503-5.549-13.861Z" fill="#A2A2A2"/><path d="M31.898 139.29c.268-.584 5.529.486 6.837-1.169 1.981-2.497 4.29-5.32 4.27-5.756-.04-.723-.119-3.448.347-4.389.822-1.635 1.863.436 2.596.059.733-.386 1.902-1.922 2.735-2.278.832-.357 1.02.792 1.486 1.456.466.664 1.565-.773 2.001-.01.298.525-.158 1.882.704 2.2.862.317.961.604.604 1.486-.366.871-.872 1.189-.674 1.971.199.783 0 .932-.564 1.417-.565.485-2.507.892-4.152 1.357-1.12.317-2.19 3.191-3.815 6.331-.763 1.476-4.032 3.626-6.757 3.993-1.595.218-4.24.614-4.716-1.09-.426-1.506-1.546-4.141-.892-5.548l-.01-.03Z" fill="#FFDBB0"/><path d="M29.273 128.53c.336-.624.812-1.892 1.297-2.427.486-.525 1.011-1.11 1.774-1.288 1.189-.278 1.813-.238 2.438.119.554.317 1.416 1.843 1.446 2.922.208 1.417 1.19 1.814 1.843 2.081.931.376 2.527.059 2.368.743-.466 2.001-1.556 2.348-2.725 2.2-3.775-.456-1.833-3.993-4.141-4.389-2.309-.387-2.487-.06-4.3.029v.01Z" fill="#003F67"/><path d="M11.814 163.316c.832-4.062-2.864-4.429-2.933-10.462-.05-4.835 3.002-10.274 6.55-13.256 2.833-2.378 5.845-5.301 9.927-4.736 1.853.258 6.124 3.626 7.877 3.388 3.36-.455 2.993.169 3.815 3.706.704 3.021 3.23 5.578.902 6.301-1.952.604-1.586 4.072-1.239 5.845.317 1.585.852 4.27.664 11.255-.08 2.863 1.615 5.657-1.179 5.271-12.128-1.675-18.747 1.159-23.988-.525-4.072-1.308-1.16-3.081-.406-6.787h.01Z" fill="#EE8084"/><path d="M19.463 134.733c2.705 1.833 5.697 2.011 7.739 1.11 2.04-.902 3.676-2.368 4.944-4.231.892-1.753 1.179-3.943 1.07-4.785-.1-.773-.406-1.605-.842-2.338-1.03-1.704.307-2.259-2.666-5.301-.901-.921-5.697-4.874-11.315-2.724-4.944 1.892-4.587 14.415 1.08 18.269h-.01Z" fill="#FFDBB0"/><path d="M30.204 117.058c-.674-1.021-2.28-2.18-4.25-2.457-1.834-.258-2.676-1.159-5.619-.545-3.448.723-6.183 2.903-6.985 4.032-1.734 2.438-1.407 4.033-1.744 5.638-.614 2.893.733 9.124 7.164 10.888 1.02.277.812-.297.693-.703-.644-2.358-1.506-2.091-2.507-2.854-1.03-.783-.94-3.041.634-2.714 1.299.277.753.336 2.666-1.536 1.367-1.338 2.378-3.379 4.459-6.638.931-1.457 4.33 1.298 6.549.991 1.13-.159.297-2.021-1.08-4.092l.02-.01Z" fill="#003F67"/><path d="M14.32 129.303c-.663-.386-1.822-1.308-2.566-1.525-.743-.218-1.555-.466-2.368-.199-1.258.407-1.813.793-2.2 1.477-.346.604-.287 2.506.298 3.527.594 1.436-.09 2.348-.555 2.962-.654.882-2.318 1.466-1.783 2.021 1.555 1.595 2.764 1.308 3.775.515 3.25-2.536-.535-4.745 1.397-6.4 1.932-1.654 2.269-1.446 4.013-2.378h-.01Z" fill="#003F67"/><path d="M12.398 126.202c.367.258.862.654.595 1.318-.268.674-.595 1.02-1.001.991-.763-.06-.852-.189-1.219-.704-.366-.525-.238-.882.218-1.387.466-.505.852-.426 1.407-.218Z" fill="#F8CED2"/><path d="M13.647 127.759c.366.257.862.654.594 1.317-.267.674-.594 1.021-1 .991-.764-.059-.853-.188-1.22-.703-.366-.525-.237-.882.219-1.387.455-.506.852-.426 1.407-.218Z" fill="#F8CED2"/><path d="M13.943 148.346c1.03-1.248 7.065-5.013 7.204-5.726.148-.714.753-3.369 1.446-4.161 1.209-1.378 1.695.891 2.497.703.803-.188 2.329-1.377 3.23-1.516.902-.139.793 1.021 1.07 1.784.278.762 1.715-.357 1.942.495.159.575-.624 1.783.13 2.298.752.516.782.833.207 1.586-.575.753-1.15.931-1.15 1.733 0 .803-.237.902-.9 1.229-.665.327-2.656.228-4.36.267-1.705.04-2.715 5.182-7.59 7.5-2.963 1.407-5.846-3.606-3.716-6.202l-.01.01Z" fill="#FFDBB0"/></svg>