<svg width="137" height="137" viewBox="0 0 137 137" fill="none" xmlns="http://www.w3.org/2000/svg">
<circle cx="68.8203" cy="68.9189" r="68" fill="#FEFCF6"/>
<path d="M30.8164 72.2805L87.6105 33.8486" stroke="#EB613E" stroke-width="3" stroke-linecap="round" stroke-linejoin="round"/>
<path d="M77.6855 33.8486H87.6129L83.814 43.4295" stroke="#EB613E" stroke-width="3" stroke-linecap="round" stroke-linejoin="round"/>
<path d="M91.7356 21.9189L90.9609 25.9524" stroke="#F18A38" stroke-width="3" stroke-linecap="round" stroke-linejoin="round"/>
<path d="M95.0684 29.0332L99.4324 25.9521" stroke="#F18A38" stroke-width="3" stroke-linecap="round" stroke-linejoin="round"/>
<path d="M96.0957 33.9111L100.678 35.0057" stroke="#F18A38" stroke-width="3" stroke-linecap="round" stroke-linejoin="round"/>
<path d="M107.275 87.6084C107.275 83.8894 100.825 80.874 92.8678 80.874C84.911 80.874 78.4609 83.8894 78.4609 87.6084V95.1476C78.4609 98.8666 84.911 101.882 92.8678 101.882C100.825 101.882 107.275 98.8666 107.275 95.1476V87.6084Z" fill="#F9BF50"/>
<path d="M92.8678 94.3427C100.824 94.3427 107.275 91.3276 107.275 87.6084C107.275 83.8891 100.824 80.874 92.8678 80.874C84.9111 80.874 78.4609 83.8891 78.4609 87.6084C78.4609 91.3276 84.9111 94.3427 92.8678 94.3427Z" fill="#FFE750"/>
<path d="M107.275 80.0664C107.275 76.3474 100.825 73.332 92.8678 73.332C84.911 73.332 78.4609 76.3474 78.4609 80.0664V87.6056C78.4609 91.3246 84.911 94.34 92.8678 94.34C100.825 94.34 107.275 91.3246 107.275 87.6056V80.0664Z" fill="#F39949"/>
<path d="M92.8678 86.8007C100.824 86.8007 107.275 83.7856 107.275 80.0664C107.275 76.3471 100.824 73.332 92.8678 73.332C84.9111 73.332 78.4609 76.3471 78.4609 80.0664C78.4609 83.7856 84.9111 86.8007 92.8678 86.8007Z" fill="#FFE750"/>
<path d="M107.275 72.5273C107.275 68.8083 100.825 65.793 92.8678 65.793C84.911 65.793 78.4609 68.8083 78.4609 72.5273V80.0666C78.4609 83.7856 84.911 86.8009 92.8678 86.8009C100.825 86.8009 107.275 83.7856 107.275 80.0666V72.5273Z" fill="#F9BF50"/>
<path d="M92.8678 79.2616C100.824 79.2616 107.275 76.2466 107.275 72.5273C107.275 68.808 100.824 65.793 92.8678 65.793C84.9111 65.793 78.4609 68.808 78.4609 72.5273C78.4609 76.2466 84.9111 79.2616 92.8678 79.2616Z" fill="#FFE750"/>
<path d="M107.275 64.9863C107.275 61.2673 100.825 58.252 92.8678 58.252C84.911 58.252 78.4609 61.2673 78.4609 64.9863V72.5255C78.4609 76.2445 84.911 79.2599 92.8678 79.2599C100.825 79.2599 107.275 76.2445 107.275 72.5255V64.9863Z" fill="#F39949"/>
<path d="M92.8678 71.7206C100.824 71.7206 107.275 68.7056 107.275 64.9863C107.275 61.267 100.824 58.252 92.8678 58.252C84.9111 58.252 78.4609 61.267 78.4609 64.9863C78.4609 68.7056 84.9111 71.7206 92.8678 71.7206Z" fill="#FFE750"/>
<path d="M107.275 57.4472C107.275 53.7282 100.825 50.7129 92.8678 50.7129C84.911 50.7129 78.4609 53.7282 78.4609 57.4472V64.9865C78.4609 68.7055 84.911 71.7208 92.8678 71.7208C100.825 71.7208 107.275 68.7055 107.275 64.9865V57.4472Z" fill="#FAC451"/>
<path d="M92.8678 64.1816C100.824 64.1816 107.275 61.1665 107.275 57.4472C107.275 53.728 100.824 50.7129 92.8678 50.7129C84.9111 50.7129 78.4609 53.728 78.4609 57.4472C78.4609 61.1665 84.9111 64.1816 92.8678 64.1816Z" fill="#FFE750"/>
<path d="M84.7141 94.7148C84.7141 90.9958 78.2641 87.9805 70.3073 87.9805C62.3504 87.9805 55.9004 90.9958 55.9004 94.7148V102.254C55.9004 105.973 62.3504 108.988 70.3073 108.988C78.2641 108.988 84.7141 105.973 84.7141 102.254V94.7148Z" fill="#FAC451"/>
<path d="M70.3073 101.449C78.2639 101.449 84.7141 98.4341 84.7141 94.7148C84.7141 90.9955 78.2639 87.9805 70.3073 87.9805C62.3506 87.9805 55.9004 90.9955 55.9004 94.7148C55.9004 98.4341 62.3506 101.449 70.3073 101.449Z" fill="#FFE750"/>
<path d="M84.7141 87.1738C84.7141 83.4548 78.2641 80.4395 70.3073 80.4395C62.3504 80.4395 55.9004 83.4548 55.9004 87.1738V94.713C55.9004 98.432 62.3504 101.447 70.3073 101.447C78.2641 101.447 84.7141 98.432 84.7141 94.713V87.1738Z" fill="#F4A34B"/>
<path d="M70.3073 93.9081C78.2639 93.9081 84.7141 90.8931 84.7141 87.1738C84.7141 83.4545 78.2639 80.4395 70.3073 80.4395C62.3506 80.4395 55.9004 83.4545 55.9004 87.1738C55.9004 90.8931 62.3506 93.9081 70.3073 93.9081Z" fill="#FFE750"/>
<path d="M84.7141 79.6347C84.7141 75.9157 78.2641 72.9004 70.3073 72.9004C62.3504 72.9004 55.9004 75.9157 55.9004 79.6347V87.174C55.9004 90.893 62.3504 93.9083 70.3073 93.9083C78.2641 93.9083 84.7141 90.893 84.7141 87.174V79.6347Z" fill="#FAC451"/>
<path d="M70.3073 86.3691C78.2639 86.3691 84.7141 83.354 84.7141 79.6347C84.7141 75.9155 78.2639 72.9004 70.3073 72.9004C62.3506 72.9004 55.9004 75.9155 55.9004 79.6347C55.9004 83.354 62.3506 86.3691 70.3073 86.3691Z" fill="#FFE750"/>
<path d="M84.7141 72.0937C84.7141 68.3747 78.2641 65.3594 70.3073 65.3594C62.3504 65.3594 55.9004 68.3747 55.9004 72.0937V79.633C55.9004 83.352 62.3504 86.3673 70.3073 86.3673C78.2641 86.3673 84.7141 83.352 84.7141 79.633V72.0937Z" fill="#F4A34B"/>
<path d="M70.3073 78.828C78.2639 78.828 84.7141 75.813 84.7141 72.0937C84.7141 68.3744 78.2639 65.3594 70.3073 65.3594C62.3506 65.3594 55.9004 68.3744 55.9004 72.0937C55.9004 75.813 62.3506 78.828 70.3073 78.828Z" fill="#FFE750"/>
<path d="M60.7278 101.644C60.7278 97.9255 54.2777 94.9102 46.3209 94.9102C38.3641 94.9102 31.9141 97.9255 31.9141 101.644V109.184C31.9141 112.903 38.3641 115.918 46.3209 115.918C54.2777 115.918 60.7278 112.903 60.7278 109.184V101.644Z" fill="#FCCC52"/>
<path d="M46.3209 108.379C54.2776 108.379 60.7278 105.364 60.7278 101.644C60.7278 97.9252 54.2776 94.9102 46.3209 94.9102C38.3642 94.9102 31.9141 97.9252 31.9141 101.644C31.9141 105.364 38.3642 108.379 46.3209 108.379Z" fill="#FFE750"/>
<path d="M60.7278 94.1035C60.7278 90.3845 54.2777 87.3691 46.3209 87.3691C38.3641 87.3691 31.9141 90.3845 31.9141 94.1035V101.643C31.9141 105.362 38.3641 108.377 46.3209 108.377C54.2777 108.377 60.7278 105.362 60.7278 101.643V94.1035Z" fill="#F5A94C"/>
<path d="M46.3209 100.838C54.2776 100.838 60.7278 97.8227 60.7278 94.1035C60.7278 90.3842 54.2776 87.3691 46.3209 87.3691C38.3642 87.3691 31.9141 90.3842 31.9141 94.1035C31.9141 97.8227 38.3642 100.838 46.3209 100.838Z" fill="#FFE750"/>
<path d="M60.7278 86.5644C60.7278 82.8454 54.2777 79.8301 46.3209 79.8301C38.3641 79.8301 31.9141 82.8454 31.9141 86.5644V94.1037C31.9141 97.8227 38.3641 100.838 46.3209 100.838C54.2777 100.838 60.7278 97.8227 60.7278 94.1037V86.5644Z" fill="#FCCC52"/>
<path d="M46.3209 93.2987C54.2776 93.2987 60.7278 90.2837 60.7278 86.5644C60.7278 82.8451 54.2776 79.8301 46.3209 79.8301C38.3642 79.8301 31.9141 82.8451 31.9141 86.5644C31.9141 90.2837 38.3642 93.2987 46.3209 93.2987Z" fill="#FFE750"/>
</svg>
