<svg width="137" height="137" viewBox="0 0 137 137" fill="none" xmlns="http://www.w3.org/2000/svg">
<circle cx="68.2637" cy="68.9189" r="68" fill="#FEFCF6"/>
<path d="M66.922 101.919C67.2813 89.6795 68.4973 75.7815 61.0595 66.4204C60.4638 65.6696 59.5144 64.7505 58.3173 63.5516C64.7585 58.5457 67.2057 48.4225 61.0273 40.4173C56.0442 33.959 45.5824 33.231 38.6798 38.0174C31.2079 43.1973 29.6345 55.6731 37.0099 62.3545C37.233 62.5568 38.2032 63.4381 38.2996 63.7236C38.2732 64.0243 37.5129 64.6484 37.0099 65.1287C30.8315 70.9913 29.9503 87.2229 30.3436 101.919H66.922Z" fill="#AAABAB"/>
<path d="M71.2807 101.919C70.9252 89.8387 70.1687 80.1315 76.0955 71.8105C76.6439 71.0408 77.4193 70.203 78.7166 69.5298C72.3586 64.5901 71.0897 53.9241 75.9934 47.5377C80.8971 41.1533 90.8161 40.0791 97.6053 44.4079C105.17 49.2322 106.844 62.4891 98.7078 68.5426C98.4696 68.7204 97.9987 69.3293 97.9022 69.6111C97.9287 69.908 98.4298 70.6115 98.9499 71.0578C104.841 76.1147 105.72 91.2022 105.72 101.919H71.2788H71.2807Z" fill="#AAABAB"/>
<path d="M59.5205 88.7C57.1698 92.3897 57.0261 96.796 57.1869 101.919H76.4141C76.4575 95.6121 76.2722 90.6914 73.4185 88.2424C73.1027 87.97 72.7982 87.5427 72.7812 87.363C72.8398 87.1909 73.1254 86.8221 73.271 86.7125C78.2182 83.0323 77.2008 74.9704 72.5996 72.0372C68.4713 69.4048 62.4404 70.0591 59.46 73.9416C56.4796 77.8241 57.2493 84.3088 61.1148 87.3138C60.3262 87.7223 59.8288 88.2159 59.5205 88.7Z" fill="#807F80"/>
</svg>
