<svg width="137" height="137" viewBox="0 0 137 137" fill="none" xmlns="http://www.w3.org/2000/svg">
<circle cx="68.7656" cy="68.9189" r="68" fill="#FEFCF6"/>
<path d="M38.8652 104.14H72.467" stroke="#949495" stroke-width="3" stroke-linecap="round" stroke-linejoin="round"/>
<path d="M35.9043 108.157H75.4344" stroke="#949495" stroke-width="3" stroke-linecap="round" stroke-linejoin="round"/>
<path d="M42.2041 99.3779L31.9004 112.919" stroke="#949495" stroke-width="3" stroke-linecap="round" stroke-linejoin="round"/>
<path d="M69.123 99.3779L79.4267 112.919" stroke="#949495" stroke-width="3" stroke-linecap="round" stroke-linejoin="round"/>
<path d="M43.4707 34.585H66.1949" stroke="#807F80" stroke-width="3" stroke-linecap="round" stroke-linejoin="round"/>
<path d="M48.4482 34.9141L46.2656 43.1719" stroke="#807F80" stroke-width="3" stroke-linecap="round" stroke-linejoin="round"/>
<path d="M61.2109 34.9141L63.3936 43.1719" stroke="#807F80" stroke-width="3" stroke-linecap="round" stroke-linejoin="round"/>
<path d="M37.6038 40.6348H72.0563C75.8307 40.6348 78.8945 43.6985 78.8945 47.4729V96.9539C78.8945 98.9087 77.3061 100.497 75.3513 100.497H34.3088C32.3541 100.497 30.7656 98.9087 30.7656 96.9539V47.4729C30.7656 43.6985 33.8294 40.6348 37.6038 40.6348Z" fill="#EA553D"/>
<path d="M78.8945 48.8066H30.7656V78.185H78.8945V48.8066Z" fill="#B0D8EA"/>
<path d="M59.0561 54.6522H50.6059C49.8311 54.6522 49.2031 54.0242 49.2031 53.2494C49.2031 52.4746 49.8311 51.8467 50.6059 51.8467H59.0561C59.8309 51.8467 60.4589 52.4746 60.4589 53.2494C60.4589 54.0242 59.8309 54.6522 59.0561 54.6522Z" fill="white"/>
<path d="M41.5819 88.3336C43.1965 88.3336 44.5055 87.0247 44.5055 85.41C44.5055 83.7953 43.1965 82.4863 41.5819 82.4863C39.9672 82.4863 38.6582 83.7953 38.6582 85.41C38.6582 87.0247 39.9672 88.3336 41.5819 88.3336Z" fill="#FDE6C2"/>
<path d="M68.076 88.3336C69.6907 88.3336 70.9997 87.0247 70.9997 85.41C70.9997 83.7953 69.6907 82.4863 68.076 82.4863C66.4613 82.4863 65.1523 83.7953 65.1523 85.41C65.1523 87.0247 66.4613 88.3336 68.076 88.3336Z" fill="#FDE6C2"/>
<path d="M104.536 58.4785C106.58 55.2426 107.58 51.3297 107.58 47.2245C107.58 34.9053 97.5935 24.9189 85.2743 24.9189C72.9551 24.9189 62.9688 34.9053 62.9688 47.2245C62.9688 59.5436 72.9551 69.53 85.2743 69.53C92.1209 69.53 98.299 66.4899 102.338 61.5912C103.55 60.121 104.236 58.9562 104.538 58.4785H104.536Z" fill="#FFE857"/>
<path d="M97.8667 34.5488C98.8086 35.4874 99.6593 36.5441 100.397 37.7189C105.648 46.0746 103.132 57.1042 94.7759 62.3539C90.647 64.9484 85.8631 65.6473 81.4473 64.68" stroke="#F39949" stroke-width="3" stroke-linecap="round" stroke-linejoin="round"/>
<path d="M77.455 63.2943C74.5483 61.8848 71.9876 59.6684 70.1425 56.7312C64.8911 48.3755 67.408 37.346 75.7637 32.0963C81.876 28.256 89.4181 28.57 95.0831 32.287" stroke="#F39949" stroke-width="3" stroke-linecap="round" stroke-linejoin="round"/>
<path d="M91.1959 38.1836L85.2709 45.383L79.3477 38.1836" stroke="#EC6637" stroke-width="3" stroke-linecap="round" stroke-linejoin="round"/>
<path d="M79.3555 45.918H91.1851" stroke="#EC6637" stroke-width="3" stroke-linecap="round" stroke-linejoin="round"/>
<path d="M79.3555 51.4512H91.1851" stroke="#EC6637" stroke-width="3" stroke-linecap="round" stroke-linejoin="round"/>
<path d="M85.2715 47.0371V57.8219" stroke="#EC6637" stroke-width="3" stroke-linecap="round" stroke-linejoin="round"/>
</svg>
