<svg width="137" height="137" viewBox="0 0 137 137" fill="none" xmlns="http://www.w3.org/2000/svg">
<circle cx="68.1426" cy="68.9189" r="68" fill="#FEFCF6"/>
<path d="M20.5293 70.0666L31.1736 69.1367" stroke="#949495" stroke-width="3" stroke-linecap="round" stroke-linejoin="round"/>
<path d="M19.1445 75.0423L35.6817 73.5977" stroke="#949495" stroke-width="3" stroke-linecap="round" stroke-linejoin="round"/>
<path d="M30.3594 78.913L36.7713 78.3525" stroke="#949495" stroke-width="3" stroke-linecap="round" stroke-linejoin="round"/>
<path d="M22.918 79.5647L26.7435 79.2305" stroke="#949495" stroke-width="3" stroke-linecap="round" stroke-linejoin="round"/>
<path d="M62.4338 58.3681C60.4286 54.2271 58.0104 49.2578 56.0032 45.1167C55.7624 44.6186 55.5424 43.9834 55.9658 43.5703C56.2024 43.3399 56.5719 43.2631 56.9165 43.1988C59.0109 42.8065 61.2485 42.4806 63.3429 42.0883C63.9511 41.9741 64.578 41.8599 65.1862 41.9534C65.9645 42.0737 66.6101 42.518 67.212 42.958C69.5784 44.6871 78.1158 52.7284 81.5241 55.8918L62.4358 58.3681H62.4338Z" fill="#93C2DA"/>
<path d="M37.8382 51.0098C39.8828 54.1358 43.3804 59.2649 43.9014 59.5347C44.3767 59.7797 77.6588 55.6137 91.948 53.7331C94.5737 53.3864 97.7496 53.2411 100.348 53.7476C102.551 54.1752 104.095 55.0013 106.005 56.1658C108.722 57.8243 111.244 59.7983 113.506 62.0359C115.53 64.0348 118.498 66.3534 117.34 69.5272C115.738 73.9132 109.685 74.0087 105.666 74.4155C100.114 74.9801 93.1062 75.3288 86.7047 75.6838C85.0794 75.7751 82.5014 78.7974 80.6 80.9104C76.7828 85.1532 72.1519 90.9548 68.2765 95.1436C67.7991 95.6604 67.3445 96.0133 66.7031 96.306C66.2465 96.5136 65.74 96.5862 65.2418 96.6485C62.5102 96.9827 59.7412 97.0076 57.0033 96.7211C56.4636 96.6651 55.6707 96.5758 55.2369 96.2458C54.5062 95.6895 54.5996 94.7658 54.9463 93.9169C55.2929 93.0679 55.8949 91.8411 56.3453 91.042C59.6083 85.2736 61.6965 81.9981 64.0358 77.7117C57.5243 78.3033 50.2863 79.5446 46.0934 77.6619C43.3285 76.4206 40.5927 72.4893 38.845 68.9751C36.3873 64.0328 33.1284 58.3391 30.6833 52.7409C30.6272 52.6101 30.6251 52.4461 30.7019 52.3278C30.7704 52.222 30.8971 52.1639 31.0195 52.1431C33.3651 51.7819 35.9514 51.3938 37.8341 51.0118L37.8382 51.0098Z" fill="#A8CDE1"/>
<path d="M98.1151 64.5477C97.3471 64.3941 96.7327 63.761 96.6372 62.9411C96.5209 61.924 97.2495 61.0045 98.2666 60.8882C101.835 60.4772 103.67 59.9604 105.54 58.8416C106.283 58.3953 107.182 57.7041 107.715 57.2744C108.137 57.538 109.722 58.6651 110.752 59.5535C110.721 59.5868 110.677 59.6283 110.642 59.6594C110.393 59.8815 108.834 61.1892 107.445 62.0216C104.778 63.6178 102.217 64.1658 98.6921 64.5706C98.4949 64.5934 98.2998 64.5851 98.1151 64.5477Z" fill="#7D7D7D"/>
<path d="M91.4592 63.7607L89.3711 64.0223" stroke="#7D7D7D" stroke-width="3" stroke-linecap="round" stroke-linejoin="round"/>
<path d="M83.1152 64.6162L81.6934 64.8259" stroke="#7D7D7D" stroke-width="3" stroke-linecap="round" stroke-linejoin="round"/>
<path d="M75.2949 65.5254L73.873 65.735" stroke="#7D7D7D" stroke-width="3" stroke-linecap="round" stroke-linejoin="round"/>
<path d="M67.9278 66.5254L66.5039 66.735" stroke="#7D7D7D" stroke-width="3" stroke-linecap="round" stroke-linejoin="round"/>
<path d="M61.0371 67.5078L59.6152 67.7154" stroke="#7D7D7D" stroke-width="3" stroke-linecap="round" stroke-linejoin="round"/>
</svg>
