<svg width="137" height="137" viewBox="0 0 137 137" fill="none" xmlns="http://www.w3.org/2000/svg">
<circle cx="68.0918" cy="68.9189" r="68" fill="#FEFCF6"/>
<path d="M61.7373 107.918H30.0898V76.2545L45.9046 51.3906L61.7373 76.2545V107.918Z" fill="#DBB98D"/>
<path d="M79.8255 51.3906L94.5351 76.2545H61.737L45.9043 51.3906H79.8255Z" fill="#EA553D"/>
<path d="M94.5403 76.2549H61.7422V107.919H94.5403V76.2549Z" fill="#E5CCA7"/>
<path d="M49.9923 90.8438H41.75V107.918H49.9923V90.8438Z" fill="#9A7855"/>
<path d="M75.286 88.4541H71.2129V96.5742H75.286V88.4541Z" fill="#8A9296"/>
<path d="M86.075 88.4541H82.002V96.5742H86.075V88.4541Z" fill="#8A9296"/>
<path d="M47.8065 70.9238H43.9355V77.5982H47.8065V70.9238Z" fill="#8A9296"/>
<path d="M103.043 60.846C104.927 57.8633 105.847 54.258 105.847 50.475C105.847 39.1229 96.6426 29.9189 85.2905 29.9189C73.9383 29.9189 64.7344 39.1229 64.7344 50.475C64.7344 61.8272 73.9383 71.0311 85.2905 71.0311C91.5998 71.0311 97.2929 68.2294 101.016 63.7146C102.132 62.3602 102.763 61.2877 103.042 60.846H103.043Z" fill="#FFE857"/>
<path d="M96.9017 38.792C97.7704 39.6558 98.5544 40.6321 99.2341 41.7127C104.073 49.4123 101.754 59.5763 94.0543 64.4154C90.2485 66.8064 85.8413 67.4502 81.7715 66.5587" stroke="#F39949" stroke-width="3" stroke-linecap="round" stroke-linejoin="round"/>
<path d="M78.0867 65.2846C75.4072 63.9856 73.0487 61.9433 71.3471 59.2361C66.508 51.5365 68.8274 41.3726 76.5269 36.5334C82.1598 32.9933 89.1113 33.2851 94.3318 36.7095" stroke="#F39949" stroke-width="3" stroke-linecap="round" stroke-linejoin="round"/>
<path d="M90.7523 42.1436L85.2921 48.7772L79.832 42.1436" stroke="#EC6637" stroke-width="3" stroke-linecap="round" stroke-linejoin="round"/>
<path d="M79.8379 49.2715H90.7385" stroke="#EC6637" stroke-width="3" stroke-linecap="round" stroke-linejoin="round"/>
<path d="M79.8379 54.3691H90.7385" stroke="#EC6637" stroke-width="3" stroke-linecap="round" stroke-linejoin="round"/>
<path d="M85.291 50.3008V60.2398" stroke="#EC6637" stroke-width="3" stroke-linecap="round" stroke-linejoin="round"/>
</svg>
