<svg width="137" height="137" viewBox="0 0 137 137" fill="none" xmlns="http://www.w3.org/2000/svg">
<circle cx="68.6328" cy="68.9189" r="68" fill="#FEFCF6"/>
<path d="M65.8516 22.3809L67.0302 26.3694" stroke="#F39949" stroke-width="3" stroke-linecap="round" stroke-linejoin="round"/>
<path d="M76.5908 21.9189L75.8516 26.5977" stroke="#F39949" stroke-width="3" stroke-linecap="round" stroke-linejoin="round"/>
<path d="M86.6483 25.7061L84.127 29.5644" stroke="#F39949" stroke-width="3" stroke-linecap="round" stroke-linejoin="round"/>
<path d="M99.7877 42.1636L49.6348 33.3203L36.6297 107.076L86.7825 115.919L99.7877 42.1636Z" fill="#ECDBC8"/>
<path d="M43.3457 72.8512C46.6082 73.3491 53.1916 74.6654 54.9284 74.9709C56.8821 75.316 59.7938 75.8704 62.4981 75.1877C64.4782 74.6861 67.058 74.1637 68.7797 73.0662C70.7957 71.7801 72.0799 70.9428 74.0732 71.3897C78.7369 72.4363 78.1768 79.5817 73.7432 81.0941C71.8404 81.7429 70.4487 81.2865 68.8665 80.0494C67.2824 78.8104 65.7115 77.0283 64.9817 75.1557C62.5075 68.8118 62.979 61.2723 63.9766 54.5361" stroke="#EA553D" stroke-width="3" stroke-linecap="round" stroke-linejoin="round"/>
<path d="M79.9473 57.3535C79.0421 62.3434 77.4995 67.7519 74.9951 71.6273C72.6982 75.1821 66.5372 80.8226 62.0848 80.0381C59.0618 79.5044 57.8832 75.6177 58.4207 73.8356C58.7639 72.6984 59.2825 71.7669 59.9538 71.0653C60.8967 70.0772 62.6393 69.3756 64.0404 69.5623C67.2595 69.9923 67.6612 72.2854 69.1529 73.8808C72.4964 77.4545 76.9281 78.8537 79.0496 79.2271C82.1367 79.7721 91.9958 81.3864 91.9958 81.3864" stroke="#EA553D" stroke-width="3" stroke-linecap="round" stroke-linejoin="round"/>
</svg>
