<svg width="137" height="137" viewBox="0 0 137 137" fill="none" xmlns="http://www.w3.org/2000/svg">
<circle cx="68.5996" cy="68.9189" r="68" fill="#FEFCF6"/>
<path d="M40.2869 105.559C39.903 105.632 39.7554 105.5 40.2869 105.559Z" fill="#FFE0BA"/>
<path d="M40.9213 105.264C40.7736 105.382 40.5817 105.47 40.375 105.544C40.5374 105.5 40.7293 105.411 40.9213 105.264Z" fill="#FFE0BA"/>
<path d="M59.6138 102.384C59.289 102.472 59.2152 102.384 59.6138 102.384Z" fill="#FFE0BA"/>
<path d="M102.223 78.4349C103.626 77.106 107.007 75.8361 105.752 73.5623C104.143 71.9233 102.386 73.326 100.762 74.4334C99.2556 75.467 97.7496 76.5006 96.2437 77.5342C90.9136 81.1812 85.5984 84.8283 80.2684 88.4754C79.4416 89.0512 78.7772 89.6271 77.7437 89.7452C71.0996 90.07 64.3522 89.4794 57.6786 89.6271C56.5565 89.6271 55.3605 88.6082 55.4639 87.4122C55.6411 85.9357 55.3753 83.6471 57.2652 83.2189C62.5804 82.3772 67.8957 81.5651 73.2109 80.7235C75.0122 80.4282 78.4523 78.996 76.4887 76.5597C75.1156 74.8469 69.756 76.0281 67.8366 76.1905C61.7241 76.6778 55.5968 77.165 49.4843 77.6523C48.5246 77.6375 47.7421 77.8442 46.871 78.361C41.8362 82.4215 36.6981 86.3639 31.6191 90.3506V104.452C33.76 103.536 35.9009 102.621 38.027 101.72C40.404 100.701 43.0617 101.321 45.5864 101.484C50.2668 101.794 54.9471 102.074 59.6275 102.384C65.179 101.041 70.7009 99.5495 76.2524 98.2206C84.8897 91.6204 93.5712 85.035 102.223 78.4349Z" fill="#FFE0BA"/>
<path d="M76.1647 98.3086C76.0909 98.3824 76.0909 98.3677 76.1647 98.3086Z" fill="#FFE0BA"/>
<path d="M107.081 80.2653C110.24 77.888 111.909 74.2262 109.207 70.8006C105.914 66.4448 100.658 68.7482 97.1735 71.5537C90.5147 76.1457 83.7968 80.6787 77.138 85.2707C75.824 85.3593 74.5985 85.3003 73.2844 85.3003C78.6883 84.7983 83.162 80.4129 80.652 74.9645C77.6252 69.2798 70.3758 71.9375 65.2378 71.9818C60.897 72.3214 56.5562 72.6758 52.2154 73.0154C50.1631 73.2664 47.978 73.0893 46.0291 73.8423C45.8519 73.9161 45.6747 73.9899 45.4975 74.0638C44.9069 74.2853 44.8479 74.3591 45.3499 74.2853C45.468 74.2853 45.5713 74.2853 45.6895 74.2853C45.2908 74.2853 44.9217 74.3886 44.5674 74.5806C41.895 76.6477 39.2521 78.7739 36.5798 80.8411C33.7745 83.0412 30.7625 85.1083 28.1196 87.4856C27.1747 88.342 27.1895 89.346 27.1895 90.5125V107.773C27.1895 109.604 29.0351 110.328 30.5263 109.693C33.804 108.334 37.0227 106.843 40.3447 105.558C46.8263 106.016 53.3523 106.4 59.8339 106.814C64.0271 106.06 68.1464 104.702 72.3247 103.772C74.5247 103.226 77.197 103.034 79.0426 101.631C88.4033 94.4991 97.7641 87.3822 107.11 80.2505L107.081 80.2653ZM76.1635 98.3086C76.0897 98.3825 76.0897 98.3677 76.1635 98.3086ZM76.2964 98.1905C76.2964 98.1905 76.2817 98.2053 76.2669 98.22C70.7154 99.5489 65.1935 101.04 59.642 102.384C54.9616 102.074 50.2812 101.793 45.6009 101.483C43.0614 101.321 40.4185 100.701 38.0414 101.719C35.9006 102.635 33.7597 103.55 31.6336 104.451V90.3501C36.7274 86.3634 41.8507 82.421 46.8854 78.3605C47.7565 77.8437 48.539 77.637 49.4987 77.6518C55.6113 77.1645 61.7386 76.6773 67.8511 76.19C69.7557 76.0423 75.1152 74.8611 76.5031 76.5591C78.4668 78.9954 75.0414 80.4277 73.2254 80.723C67.9102 81.5646 62.5949 82.3915 57.2797 83.2183C55.3898 83.6465 55.6555 85.9352 55.4784 87.4117C55.375 88.6077 56.571 89.6265 57.6931 89.6265C64.3666 89.4789 71.114 90.0695 77.7581 89.7447C78.7916 89.6413 79.456 89.0507 80.2829 88.4748C85.6129 84.8278 90.9281 81.1807 96.2581 77.5337C97.7641 76.5001 99.27 75.4665 100.776 74.4329C102.385 73.3255 104.157 71.908 105.766 73.5617C106.579 75.0088 105.619 75.8356 104.364 76.8249C95.0179 83.9419 85.6572 91.0736 76.3112 98.1905H76.2964ZM59.6125 102.384C59.2877 102.472 59.2138 102.384 59.6125 102.384ZM40.2856 105.558C39.9017 105.632 39.7541 105.499 40.2856 105.558ZM40.3743 105.544C40.581 105.47 40.7729 105.381 40.9205 105.263C40.7286 105.426 40.5367 105.499 40.3743 105.544Z" fill="#FCC684"/>
<path d="M86.551 53.846C88.4351 50.8633 89.3544 47.258 89.3544 43.475C89.3544 32.1229 80.1504 22.9189 68.7983 22.9189C57.4462 22.9189 48.2422 32.1229 48.2422 43.475C48.2422 54.8272 57.4462 64.0311 68.7983 64.0311C75.1076 64.0311 80.8008 61.2294 84.5234 56.7146C85.6399 55.3602 86.2706 54.2877 86.5493 53.846H86.551Z" fill="#FFE857"/>
<path d="M80.4095 31.792C81.2782 32.6558 82.0622 33.6321 82.7419 34.7127C87.581 42.4123 85.2617 52.5763 77.5621 57.4154C73.7563 59.8064 69.3491 60.4502 65.2793 59.5587" stroke="#F39949" stroke-width="3" stroke-linecap="round" stroke-linejoin="round"/>
<path d="M61.5945 58.2846C58.915 56.9856 56.5566 54.9433 54.855 52.2361C50.0158 44.5365 52.3352 34.3726 60.0347 29.5334C65.6676 25.9933 72.6191 26.2851 77.8396 29.7095" stroke="#F39949" stroke-width="3" stroke-linecap="round" stroke-linejoin="round"/>
<path d="M74.2601 35.1436L68.8 41.7772L63.3398 35.1436" stroke="#EC6637" stroke-width="3" stroke-linecap="round" stroke-linejoin="round"/>
<path d="M63.3457 42.2715H74.2463" stroke="#EC6637" stroke-width="3" stroke-linecap="round" stroke-linejoin="round"/>
<path d="M63.3457 47.3691H74.2463" stroke="#EC6637" stroke-width="3" stroke-linecap="round" stroke-linejoin="round"/>
<path d="M68.7988 43.3008V53.2398" stroke="#EC6637" stroke-width="3" stroke-linecap="round" stroke-linejoin="round"/>
</svg>
