<svg width="137" height="137" viewBox="0 0 137 137" fill="none" xmlns="http://www.w3.org/2000/svg">
<circle cx="68.3848" cy="68.9189" r="68" fill="#FEFCF6"/>
<path d="M78.4264 40.6656C81.1412 37.9508 81.1412 33.5492 78.4264 30.8344C75.7116 28.1196 71.3101 28.1196 68.5953 30.8344C65.8805 33.5492 65.8805 37.9508 68.5953 40.6656C71.3101 43.3804 75.7116 43.3804 78.4264 40.6656Z" fill="#FEDC55"/>
<path d="M101.65 63.017C102.347 62.902 103.498 62.5328 104.099 62.1541C105.01 61.5804 106.163 60.7541 106.691 58.878C106.732 58.731 106.696 58.5696 106.747 58.4241C106.798 58.2803 106.937 58.1493 107.087 58.1764C107.18 58.1924 107.253 58.2627 107.317 58.3315C108.81 59.9168 108.668 62.3906 107.73 64.1996C106.884 65.8297 105.631 66.6031 104.794 67.0123L101.65 63.017Z" fill="#F29C97"/>
<path d="M42.1484 62.1648C42.2635 59.8635 42.9842 55.3937 43.6746 53.1963C43.7529 52.9454 43.844 52.6833 44.0422 52.5091C44.5104 52.1016 45.2327 52.4133 45.7569 52.7457C47.6746 53.9602 49.5316 54.8935 50.6982 55.6925L42.1484 62.1648Z" fill="#EE8080"/>
<path d="M29.8171 72.6357C32.7975 70.6125 33.8315 69.855 36.374 67.2469C40.5258 62.988 43.4615 59.1446 48.104 56.2985C63.2746 46.9944 84.4077 47.3779 98.0154 58.849C105.05 64.7795 107.172 69.7144 108.224 78.7979C109.263 87.7696 106.842 97.3213 100.138 104.561C99.7957 104.93 99.198 104.984 98.888 105.38C98.4357 105.959 98.4725 106.776 98.1784 107.447C97.194 109.692 93.9962 109.82 92.363 108.393C91.2891 107.452 90.6482 106.031 89.4113 105.317C88.299 104.674 87.6278 104.856 86.3462 104.936C77.1012 105.512 67.9138 107.148 58.5299 107.88C58.2262 107.904 57.913 107.881 57.627 107.985C56.1487 108.516 56.561 110.971 55.2985 111.909C54.3221 112.634 52.8343 111.984 52.2094 110.939C51.5846 109.895 51.5526 108.617 51.428 107.407C51.3768 106.902 51.2905 106.368 50.9549 105.988C50.7104 105.713 50.3653 105.556 50.0297 105.406C43.4551 102.464 37.3409 99.2902 32.7623 94.44C31.2633 92.8515 30.1575 90.6253 29.3424 89.3053C26.6225 84.9074 27.0636 77.6473 28.6856 74.2913C28.9765 73.6872 29.2545 73.0176 29.8171 72.6373V72.6357Z" fill="#F3A69D"/>
<path d="M39.0649 69.6444C39.6659 69.6444 40.1532 69.1571 40.1532 68.5561C40.1532 67.955 39.6659 67.4678 39.0649 67.4678C38.4638 67.4678 37.9766 67.955 37.9766 68.5561C37.9766 69.1571 38.4638 69.6444 39.0649 69.6444Z" fill="#352F2D"/>
<path d="M43.2344 70.7309C43.2344 71.3317 43.7218 71.8192 44.3227 71.8192C44.9236 71.8192 45.411 71.3317 45.411 70.7309C45.411 70.13 44.9236 69.6426 44.3227 69.6426C43.7218 69.6426 43.2344 70.13 43.2344 70.7309Z" fill="#352F2D"/>
<path d="M66.3184 53.9378C69.4234 52.8319 78.6108 53.201 80.9393 54.5514" stroke="#C46D6F" stroke-width="3" stroke-linecap="round" stroke-linejoin="round"/>
<path d="M60.6019 72.3668C61.7956 69.9073 62.7033 68.6768 63.3937 66.1534C63.5711 65.5062 63.8316 64.6816 63.6366 64.0408C63.3937 63.2369 61.9666 63.0052 60.8464 63.0324C58.4764 63.0915 56.116 63.4239 54.3262 63.8043C54.3262 63.8043 58.7289 68.4227 60.6019 72.3684V72.3668Z" fill="#ED7472"/>
<path d="M29.5849 89.7047C30.2049 90.4526 31.5185 90.7914 32.5237 90.6811C33.5066 90.5725 34.117 89.9253 34.6891 89.1758C35.2613 88.4263 35.6624 87.4003 35.8989 86.5085C36.6788 83.5649 36.8961 80.1849 36.1178 77.2412C35.9197 76.4949 35.4339 75.0647 34.8282 74.3375C33.9061 73.2316 32.8929 72.6787 31.4802 72.6787C30.8186 72.6787 29.5689 73.254 29.115 73.6919C29.0367 73.767 28.9121 73.9156 28.797 74.061C28.7602 74.1377 28.7235 74.2145 28.6883 74.2896C27.0679 77.6472 26.6268 84.9057 29.3451 89.3036C29.4218 89.4282 29.5034 89.5641 29.5865 89.7047H29.5849Z" fill="#EF8582"/>
<path d="M33.3527 78.8076C33.3527 78.8076 33.3527 83.7377 32.707 85.9047" stroke="#BD6A61" stroke-width="3" stroke-linecap="round" stroke-linejoin="round"/>
<path d="M30.589 77.5176C30.589 77.5176 29.897 81.2044 30.3125 84.3846" stroke="#BD6A61" stroke-width="3" stroke-linecap="round" stroke-linejoin="round"/>
</svg>
