<svg width="453" height="51" viewBox="0 0 453 51" fill="none" xmlns="http://www.w3.org/2000/svg">
<path fill-rule="evenodd" clip-rule="evenodd" d="M111.288 0.0785513C112.858 0.416404 113.09 1.28065 114.915 1.42208C115.178 0.911367 115.572 0.149211 116.562 0.41635V0.754246C117.405 1.06853 116.933 0.416435 117.552 1.09214H117.884V2.43566L118.542 2.77346V3.44139H118.874C118.982 3.77924 119.091 4.10916 119.207 4.44702H117.884V5.45274C116.972 5.69631 117.15 5.54705 116.895 6.45847C115.742 6.74132 115.356 7.30705 113.925 7.46419C113.949 8.34418 114.057 8.60347 114.258 9.13775C113.129 9.05132 111.668 8.87056 111.621 8.79985V9.46768H111.954C112.997 9.47554 110.964 9.80558 110.964 9.80558C110.546 9.27915 110.082 8.98842 109.317 8.79985C108.822 9.71127 108.172 10.2298 107.005 10.4734V9.80558L106.347 10.1434C106.154 10.6541 106.092 10.6934 106.015 11.487C105.319 11.542 104.02 11.7855 103.703 12.1548C103.301 12.6262 103.997 12.5241 103.046 13.1605V11.8169H102.713V13.1605H101.723V12.4926C101.221 12.689 101.182 12.7519 100.401 12.8305V12.1627L99.4114 12.5005C99.1949 13.0741 99.0945 13.5534 99.079 14.5119H97.4319C97.4319 14.5119 97.0993 15.0462 96.7745 15.1798V15.5177H96.4421V14.8497H95.7849V14.5119H95.4523V14.8497H94.4625V15.1876C93.8903 15.7062 93.7667 16.759 93.4729 17.5369C92.2589 17.419 91.3 16.9476 90.5036 17.8748C90.3953 18.2126 90.2871 18.5426 90.1711 18.8804C89.2896 18.9904 88.408 19.1004 87.5342 19.2183V19.5562L86.877 19.894V20.5618L85.8873 20.224L85.5548 20.8919H84.565C84.5109 20.9233 84.1783 21.3947 83.9077 21.5597V21.8976C83.3587 21.7876 82.8098 21.6775 82.2607 21.5597V21.2219C82.0674 21.1983 81.1317 21.7876 80.6136 21.8897C80.3894 22.5261 80.1883 23.9403 79.9563 24.5689L78.9667 24.2311V23.8932C78.5105 23.8068 79.098 24.1368 78.634 24.2311C77.8453 24.3882 77.7835 23.9796 77.3118 23.8932L76.6547 24.8989H75.3322V25.2368L74.3426 25.5746V26.5803H74.9998V26.9182H74.6674C74.4895 27.0754 72.0227 27.7668 72.0304 26.9182H71.698V27.5861L70.0511 27.2482C70.0665 28.4503 69.9737 29.3617 69.3937 29.9275V29.5896H69.0613V28.246H68.4039C68.3807 29.126 68.2725 29.3853 68.0715 29.9196C67.3833 29.7153 66.726 29.5425 66.0919 30.2575V30.9253H65.7595V31.2631L63.7799 30.9253C63.6716 31.1453 63.5634 31.3731 63.4474 31.5931C63.0067 31.7031 62.566 31.8132 62.1252 31.931V32.5989H60.803V33.2667C60.0143 33.1096 59.7667 32.8817 59.1559 32.5989V34.2724C58.3826 34.3824 57.6171 34.4924 56.8438 34.6102V34.9481C55.8773 35.176 55.7613 35.3174 55.5216 36.2916C55.9856 36.3152 55.4752 36.2367 55.8541 35.9538C56.3721 35.5688 56.1633 36.7788 56.1865 36.9595C55.622 37.3366 55.7381 37.1716 55.5293 37.9652C55.9701 37.8552 56.4108 37.7452 56.8516 37.6274L57.184 36.9595C57.2459 36.9516 57.9572 37.2738 58.5063 37.2974V36.6295C58.8388 36.7395 59.1635 36.8495 59.496 36.9673L59.8287 36.2995C60.2308 36.1031 60.7952 36.1187 61.1509 35.9616V34.6181C61.9319 34.4845 62.9679 33.9817 64.1201 34.2803V34.6181H65.4425V34.2803H66.0997V32.9367H66.757V33.6045C67.7468 33.3845 68.7364 33.1567 69.7262 32.9367L70.0588 33.2746C70.9635 32.6303 70.3602 32.1275 72.0382 31.931C72.4171 32.316 72.0383 32.0646 72.6955 32.2688V31.2631L74.3426 30.9253V30.2575C75.4329 30.4382 75.8426 30.6818 76.322 30.2575H76.6547C77.0722 29.7389 76.2989 29.5818 76.9871 29.2518V29.5896H77.3196V28.5839C78.0464 28.4661 79.0284 28.1439 79.9563 28.5839C80.0645 28.8039 80.1729 29.0318 80.2889 29.2518H80.9461V28.5839C81.6111 28.7725 81.2322 28.5446 81.6034 28.9217L82.5932 28.5839V28.246H83.583C83.7995 27.9082 84.0236 27.5782 84.2401 27.2403C84.7891 27.3503 85.3382 27.4603 85.8873 27.5782V27.916C86.127 27.9631 87.1013 27.6175 88.1993 27.5782L87.8668 26.5725H88.524V26.9104H89.8462L90.1788 27.2482V26.9104L91.1684 26.5725C91.1452 25.6925 91.037 25.4332 90.836 24.8989H92.8156C93.1945 24.5139 92.8156 24.7654 93.4729 24.5611C93.7281 23.5554 93.6739 23.6811 94.7951 23.5554C95.1663 24.129 95.0039 24.0111 95.7849 24.2232C96.1174 23.3825 96.4654 22.4711 97.1072 22.8797H97.4396V23.8853H98.0969C98.3367 22.9582 98.1898 23.139 99.0867 22.8797V22.5418L101.066 22.204C101.066 22.204 101.213 22.6911 101.723 22.5418L102.056 21.874H103.046V21.2062L103.703 21.544V21.8818C104.136 22.0468 103.773 21.7247 104.035 21.544C104.863 21.3161 104.569 21.3711 105.025 20.8761H105.358V20.2083L106.015 19.8704C106.402 19.4461 106.572 18.8962 107.005 18.5269V18.8648H107.994C108.103 19.3126 108.211 19.7604 108.327 20.2083H108.66C109.464 18.8412 110.508 18.9669 112.286 18.5347C112.387 18.5112 112.371 18.0711 112.943 18.1968V18.5347C113.601 18.7547 114.266 18.9826 114.923 19.2026V18.8648H115.255L114.923 17.859C115.139 17.749 115.364 17.639 115.58 17.5212C116.036 16.8219 115.433 17.0497 116.237 16.5154V16.1776L117.884 15.8397C117.707 16.7747 117.629 15.8712 117.884 16.8455H118.217V16.1776C118.874 16.2876 119.539 16.3976 120.196 16.5154V16.1776C120.552 15.8712 120.258 16.2326 120.529 15.8397H120.196V15.5019H121.186C121.256 16.2955 121.325 16.3347 121.519 16.8455C121.898 16.4605 121.65 16.8455 121.851 16.1776C122.23 15.7926 121.983 16.1776 122.184 15.5098C123.173 15.1719 124.163 14.8419 125.153 14.5041L125.485 14.842C125.594 13.7577 125.787 13.8598 126.143 13.1684H126.8V13.5062H127.132V13.1684H128.455L128.787 12.1627C129.646 12.5163 130.179 12.7755 131.424 12.8305C131.316 12.6105 131.208 12.3827 131.092 12.1627C131.316 11.7934 132.947 11.6912 133.404 11.157L133.071 10.4891H133.404V10.1512C134.277 10.5441 134.648 10.7955 136.04 10.8191V10.4813H135.708V9.47554C136.752 9.69554 136.373 9.98623 136.698 10.1434C137.084 10.1198 137.873 9.46772 138.677 9.80558L139.01 10.4734H139.667C139.35 11.5812 139.358 12.4455 139.999 13.4905H139.667C139.288 13.8755 139.667 13.6241 139.01 13.8284V15.5019H138.677C138.592 16.0598 138.986 16.0833 139.01 16.1698V17.8433C137.827 17.8905 137.138 18.3226 136.373 18.5111L135.716 18.1733C135.499 18.5112 135.275 18.8411 135.058 19.179C134.873 19.2575 133.257 18.9276 132.746 18.8412C132.545 19.7212 131.811 20.6169 130.767 20.5147C130.767 20.5147 130.589 20.0904 130.11 20.1768L130.442 20.8447H129.12C129.011 21.4025 128.903 21.9604 128.787 22.5182L127.14 22.1804L126.808 22.8482C125.918 23.0761 125.942 22.204 125.818 22.1804L124.828 22.5182L125.161 22.8561C125.176 22.9897 124.867 23.6104 124.828 24.1996C123.73 24.3096 122.632 24.4197 121.526 24.5375V23.8697C120.745 23.799 120.707 23.7282 120.204 23.5318V24.5375C120.135 24.679 117.938 26.2268 119.214 26.8868H118.225V26.5489C117.908 25.9282 117.892 27.2168 117.892 27.2168C117.521 27.4997 117.846 27.1775 117.56 27.5546C118.488 27.2403 118.48 27.201 119.539 27.5546V27.8925L120.529 27.5546L120.196 27.2168L120.529 26.2111C122.076 26.8161 123.096 26.4075 124.156 25.5433C124.264 25.3233 124.372 25.0953 124.488 24.8753H126.135C126.135 24.8753 126.104 24.679 126.792 24.5375V25.5433H127.125V24.8753C128.532 24.8518 129.313 24.8046 130.094 24.2075L130.426 23.5397C130.976 23.6497 131.525 23.7597 132.074 23.8776C131.695 23.4926 132.074 23.744 131.416 23.5397V22.8718C131.749 22.9818 132.074 23.0918 132.406 23.2096V22.5418H133.063V23.2096C134.973 23.0525 136.342 21.9604 137.68 21.1983V22.204H138.337V21.5361H140.649V21.1983H141.639V20.8604C142.296 20.9704 142.961 21.0804 143.618 21.1983C143.897 20.8212 143.58 21.1511 143.951 20.8604V19.5169C144.608 19.4069 145.273 19.2968 145.93 19.179C145.822 19.5168 145.714 19.8468 145.598 20.1847H145.93V20.5226C146.301 20.2397 145.977 20.5618 146.263 20.1847C146.642 19.7997 146.394 20.1847 146.595 19.5169C147.113 19.5404 148.907 19.8547 148.907 19.8547V19.5169H149.24V18.5111C149.603 18.0397 150.724 18.1655 151.552 18.1733V18.5111L153.531 18.1733V17.8355H154.189V17.4976H155.178L154.846 18.5033H155.178C155.418 17.5761 155.271 17.7568 156.168 17.4976V18.1655C156.501 18.0555 156.825 17.9454 157.158 17.8276V17.4898C157.931 17.3798 158.697 17.2697 159.47 17.1519V16.814H160.46L160.792 16.1462C161.071 16.0362 162.965 16.4997 163.429 16.814V16.1462L164.419 15.8084V15.4705C164.867 15.329 164.287 15.7141 164.751 15.8084C165.3 15.9184 165.339 15.4862 165.408 15.4705C166.012 15.3448 166.684 15.9104 167.056 16.1383V15.8005C168.084 14.8498 167.133 14.3784 169.035 14.1269V14.4647H170.025L169.692 15.1327C170.118 15.6748 170.311 14.7633 170.682 16.1383C171.115 15.7847 171.177 15.4548 171.672 15.1327V16.1383H172.329C172.221 15.4705 172.113 14.7948 171.997 14.1269C173.543 13.5927 173.11 14.3862 173.976 12.4534H174.309C174.27 13.1684 173.968 13.6005 173.976 13.7969L174.309 14.1348C174.912 13.7105 174.347 13.6791 174.641 13.467C175.02 13.1841 174.85 13.7734 174.974 13.8048C175.306 13.6948 175.631 13.5848 175.963 13.467V12.7991C176.706 12.6655 177.232 12.2491 178.275 12.4613C178.275 12.4613 178.291 12.9012 178.933 12.7991V12.4613H180.58V12.7991C179.791 13.0033 179.969 12.9091 179.59 13.467H180.247C181.198 11.872 182.783 12.4299 184.539 11.7934L184.871 10.7877C185.815 10.7877 186.286 10.9055 186.851 11.1255V9.78198H187.183C187.4 10.1198 187.624 10.4499 187.841 10.7877H188.173L187.841 11.4555H188.173V11.7934C189.117 12.4849 189.024 11.1962 189.495 12.7991H190.153V13.467H190.81C190.702 13.8048 190.593 14.1348 190.477 14.4726H190.81C191.034 14.9755 191.042 15.0305 191.142 15.8162H191.8V16.4841C192.31 16.7826 192.488 16.9791 192.789 17.4898C193.857 16.9005 193.416 16.6883 194.769 17.1519L194.436 16.1462H195.094V15.4783H195.751V15.8162H196.084V15.4783L197.073 15.8162L196.741 16.8219H197.398C197.638 15.8947 197.491 16.0755 198.388 15.8162C198.883 15.227 199.277 15.1797 200.367 15.1483V14.4805C201.025 14.2605 201.689 14.0326 202.347 13.8126C202.37 14.6926 202.478 14.9519 202.679 15.4862C203.051 15.2033 202.726 15.5254 203.012 15.1483H203.344V14.1427C204.334 14.2527 205.324 14.3626 206.314 14.4805V13.8126H206.971L207.303 12.8069C207.744 12.9169 208.185 13.027 208.626 13.1448C208.734 12.9248 208.842 12.697 208.958 12.477L210.605 12.8148V13.4826C211.448 12.9641 212.879 11.4005 213.907 12.1391H214.564V12.8069H214.897V12.1391C216.482 12.0527 216.49 11.9034 217.866 12.1391C217.974 11.5812 218.082 11.0234 218.198 10.4655C219.722 10.1748 220.874 10.1748 221.825 10.4655V9.79771H223.805V10.1355H224.794V10.4734C225.127 10.3634 225.452 10.2534 225.784 10.1355V9.79771C225.405 9.41272 225.653 9.79773 225.452 9.12988C226.534 9.15345 226.426 9.55416 227.099 9.12988L227.431 8.46196L229.411 9.12988V9.79771C230.3 9.79771 231.282 9.90767 231.723 9.45982V8.79199L232.38 9.12988V8.79199C233.037 8.68199 233.702 8.57204 234.36 8.45419C234.669 8.65847 234.243 8.93341 234.692 8.79199L235.024 8.12416C235.442 8.12416 235.867 8.72124 236.672 8.46196V8.12416C237.221 8.01416 237.769 7.90412 238.318 7.78626L237.986 8.79199H238.318C239.053 9.60126 238.937 9.26345 239.966 9.12988C239.927 10.1906 239.324 9.75837 240.298 10.1355C240.445 10.9684 240.6 11.3692 240.63 12.4849C239.718 12.7284 239.896 12.5791 239.641 13.4905H239.308V15.164C238.52 15.3212 238.272 15.549 237.661 15.8319V14.8262H237.329C236.842 16.7041 236.757 15.5176 235.682 16.1698V16.5077L234.36 17.5133C234.468 17.1754 234.576 16.8455 234.692 16.5077H234.36C234.158 17.0419 234.066 17.3012 234.027 18.1812C232.782 18.4484 232.179 18.8333 230.4 18.849V18.1812H229.743V18.849H228.096V19.1868H228.429C228.22 19.6661 228.042 19.4382 227.771 19.8547H227.114L227.447 19.1868H227.114C226.789 19.6425 226.921 19.8468 226.124 19.8547C226.124 19.8547 225.892 19.3754 225.467 19.5169C225.359 19.7369 225.25 19.9647 225.134 20.1847H224.477L224.145 22.1961L222.822 22.5339V21.1904H222.165C221.926 22.2668 221.717 22.4082 220.518 22.5339L220.851 21.5282H220.518C220.394 21.9132 220.426 22.7225 219.861 22.5339L219.528 21.5282C219.196 21.6382 218.871 21.7483 218.539 21.8661V22.5339C218.013 22.3297 217.758 22.2354 216.892 22.1961V21.1904H216.559V22.1961C216.938 22.5811 216.691 22.1961 216.892 22.864C216.118 22.974 215.353 23.0839 214.58 23.2018V23.8697C213.412 23.9954 213.574 24.2861 212.6 24.5375V25.5433C211.796 25.3547 211.873 25.1896 211.278 24.8753V25.5433H210.945V26.5489H211.278V25.8811H211.935V26.5489C212.484 26.4389 213.033 26.3289 213.582 26.2111V27.2168H214.239V26.2111C214.788 26.3211 215.337 26.431 215.886 26.5489C216.041 25.7475 216.265 25.496 216.544 24.8753C217.619 24.8832 218.925 24.7261 219.513 25.2132H219.846C219.954 24.9932 220.062 24.7654 220.178 24.5454H220.835V24.2075H221.492V23.8697L222.15 24.2075V23.8697H225.452C225.343 23.5318 225.235 23.2018 225.119 22.864H225.776V22.5261H226.109V22.864L227.099 23.2018C227.122 23.6732 227.176 23.2961 226.766 23.5397C227.137 23.8932 226.766 23.689 227.423 23.8776V23.5397H227.756V22.5339H228.088C228.374 22.0704 228.336 21.9526 228.421 21.1904C229.202 21.1511 229.256 21.0882 229.743 20.8525V21.1904H230.076V21.5282L229.743 22.1961H230.733V21.5282C231.506 21.4182 232.272 21.3083 233.045 21.1904V21.5282H233.377C233.749 21.2611 233.254 21.0883 233.71 21.1904V21.5282H235.032V22.1961H235.365C235.473 21.5283 235.581 20.8525 235.697 20.1847H236.354V20.8525H236.687V19.8469C237.445 19.8783 237.545 20.1297 238.009 20.1847L238.342 19.5169C238.342 19.5169 239.246 19.8311 239.664 19.8547V19.1868L239.997 19.5247C240.437 19.4147 240.878 19.3047 241.319 19.1868V19.5247H242.966V18.519H243.623V18.8569H243.956V18.519L244.613 18.8569L244.945 17.8512C245.819 17.5212 245.633 18.5819 246.268 18.519V18.1812C247.714 17.8355 248.085 17.3562 249.569 17.1755V17.5133H249.237C248.611 17.804 249.894 17.8512 249.894 17.8512C250.172 18.2283 249.856 17.8983 250.227 18.189V17.5212L251.874 17.1834C251.982 16.9634 252.09 16.7354 252.206 16.5154L252.539 16.8533C254.495 16.979 254.75 16.1541 255.841 15.5098V16.5154H256.173C256.552 16.1304 256.173 16.3819 256.83 16.1776V15.5098C257.163 15.6198 257.487 15.7297 257.82 15.8476L258.153 15.1798H259.475V14.842H259.807C260.008 15.6434 259.916 15.4626 260.465 15.8476V14.842C262.197 14.5591 261.926 14.8027 263.434 15.5098C263.604 14.7241 263.913 14.2527 264.424 13.8362C264.802 14.2212 264.424 13.9698 265.081 14.174V13.5062H266.071V12.8384C266.62 12.9484 267.169 13.0583 267.718 13.1762V13.8441H268.375V12.8384C269.094 12.8855 269.473 13.1762 269.697 13.1762V12.8384L270.687 12.5005C270.795 12.7205 270.903 12.9484 271.019 13.1684C272.071 13.4827 273.648 12.4691 274.321 12.1627L273.989 11.157H274.979C275.18 11.9584 275.087 11.7777 275.636 12.1627C275.914 12.5398 275.597 12.2098 275.968 12.5005C275.991 11.6205 276.1 11.3612 276.301 10.8269C276.958 10.7169 277.623 10.607 278.28 10.4891C278.559 10.8663 278.242 10.5362 278.613 10.8269C278.358 11.1648 278.211 11.157 277.955 11.4949H278.945L278.613 10.4891L278.945 10.1512C279.432 10.3084 279.471 10.5363 280.267 10.4891V10.1512H280.6V10.4891C281.041 10.5991 281.482 10.7091 281.922 10.8269V11.1648C283.268 11.6834 283.879 10.9213 284.559 11.5027C285.587 12.1941 284.714 11.9348 285.216 12.8462L285.874 13.184V13.852H286.206C286.508 14.3077 286.454 14.4412 286.539 15.1955L285.216 14.8576C285.479 15.9419 285.827 16.0126 285.874 17.5369C285.502 17.8197 285.827 17.4976 285.541 17.8748H285.209C285.108 16.8691 285.162 16.9633 284.551 16.5312V16.869H284.884C284.667 17.3169 284.443 17.7647 284.227 18.2126C283.368 18.2283 283.09 18.2833 282.579 18.5505V18.8883C282.015 19.0847 282.007 18.574 281.922 18.5505C280.739 18.244 279.989 18.9748 279.61 19.5562H279.278C279.169 20.224 279.061 20.8997 278.945 21.5675H278.288L277.955 20.8997C277.515 21.0097 277.074 21.1197 276.633 21.2375C276.703 22.0311 276.772 22.0704 276.966 22.5811C276.2 22.5497 276.123 22.314 275.643 22.2432L275.311 22.9111C274.87 23.0211 274.429 23.1311 273.989 23.249C273.749 24.1761 273.896 23.9954 272.999 24.2547C271.839 25.3154 270.865 23.8304 270.687 23.9168V24.2547C270.138 24.5925 269.589 24.9225 269.04 25.2603C269.218 26.431 269.365 25.881 269.04 26.9339H269.372V26.5961H270.695V27.2639L271.684 26.926V26.5882L272.674 26.926V25.9204C273.007 26.0304 273.331 26.1403 273.664 26.2582V25.9204L273.331 25.5825H275.311C275.419 25.9203 275.527 26.2504 275.643 26.5882C275.86 26.4782 276.301 25.9204 276.301 25.9204C276.633 26.0304 276.958 26.1403 277.291 26.2582V25.9204C277.778 25.6611 277.84 25.6689 278.613 25.5825V24.9147H279.27V24.2468H280.592V24.9147C281.335 24.8282 281.466 24.8832 281.915 24.5768V24.239H282.572V23.9011H283.229V23.5633C283.817 23.084 284.018 22.809 284.876 22.5575V23.5633H286.198C286.307 23.0054 286.415 22.4476 286.531 21.8897H287.188C287.08 22.2276 286.972 22.5576 286.856 22.8954H287.188C287.66 22.4162 289.028 22.039 289.825 21.8897V21.2219C290.266 21.1119 290.706 21.0018 291.147 20.884V19.8783H291.805V20.884H292.462V19.8783H294.109C294.001 20.2161 293.892 20.5461 293.776 20.884H294.433C294.774 20.499 295.044 20.2397 295.756 20.2162V20.554H296.088L296.421 20.2162C296.73 19.6112 296.877 19.6897 297.078 18.8725L298.068 18.5347V18.1968L298.4 18.5347L299.39 18.1968V19.2026H300.047C300.117 18.409 300.186 18.3698 300.38 17.859L301.037 18.1968V17.859C301.509 17.4426 301.547 16.9318 302.027 16.5154C302.127 16.6726 302.7 17.7333 303.017 17.5212L303.349 16.5154C304.78 16.4054 306.21 16.2955 307.641 16.1776V16.5154C306.728 16.759 306.906 16.6097 306.651 17.5212C307.471 17.3719 307.865 17.2148 308.963 17.1834V16.8455H308.63V15.1719C309.179 15.2819 309.728 15.3919 310.277 15.5098C310.386 15.1719 310.494 14.8419 310.61 14.5041C310.989 14.8891 310.741 14.5041 310.943 15.1719L311.932 15.5098V15.1719C312.613 14.7948 312.528 14.6534 313.579 14.5041V13.4983C314.283 13.4591 314.708 13.1527 314.901 13.1605L315.234 13.4983V12.8305L316.881 12.4926V13.1605C317.098 13.0505 317.322 12.9405 317.538 12.8227V12.4849C318.064 12.422 317.948 13.0663 318.196 13.1527H319.518C319.626 12.5948 319.734 12.037 319.85 11.4791C320.399 11.5891 320.948 11.6991 321.497 11.8169L321.83 11.1491H322.162V11.487C322.495 11.377 322.82 11.267 323.152 11.1491V10.4813C323.531 10.8663 323.284 10.4813 323.485 11.1491H324.142C324.296 10.3477 324.521 10.0963 324.799 9.47554C325.897 9.49126 327.768 9.81344 327.768 9.81344V9.47554H328.426V9.13775H329.415C329.524 8.91775 329.632 8.68982 329.748 8.46982C330.08 8.57982 330.405 8.68986 330.738 8.80772V9.14561H332.385V8.47768L333.707 8.13989V8.80772H334.364C334.573 9.72699 334.797 9.56985 335.022 10.4813H336.011C336.251 11.4084 336.104 11.2277 337.001 11.487V12.1548C335.029 12.5634 335.292 13.4984 334.689 15.1719H336.669L337.001 13.8284C338.377 13.6162 337.937 13.4984 339.313 13.1605V13.8284C340.875 13.1605 340.643 13.1605 341.95 13.8284V13.1605C342.391 13.0505 342.831 12.9405 343.272 12.8227V12.1548H343.929V12.4926H344.262V12.1548C345.012 12.0055 345.151 12.3276 345.584 12.4926V12.1548H345.252C344.641 11.8327 345.909 11.8169 345.909 11.8169V11.1491H346.566V10.4813C347.602 10.6777 348.035 11.0234 349.203 11.1491L349.535 10.1434C349.535 10.1434 348.832 10.0884 349.203 9.80558H349.86V10.1434H351.84V9.13775C352.891 9.35774 352.489 9.63272 352.83 9.80558C353.379 9.75058 353.44 9.1456 353.487 9.13775C354.121 8.95703 353.943 9.35769 354.144 9.47554H354.476V9.13775C354.917 9.24774 355.358 9.35769 355.799 9.47554C356.039 8.54841 355.892 8.7291 356.789 8.46982V9.13775H358.111C358.42 8.53275 358.567 8.61126 358.768 7.79413L359.758 8.13202V7.79413C359.974 7.68413 360.199 7.57418 360.415 7.45633V8.12416H361.072L360.74 7.11843C361.529 6.96129 361.776 6.73346 362.387 6.4506V7.79413C364.103 7.33842 363.562 7.05562 365.689 7.45633V6.4506H366.678V6.7885C366.539 6.98492 366.137 6.83562 366.346 7.45633H366.678C367.212 5.38207 367.382 6.89055 368.658 6.11271C369.408 5.657 368.635 4.87915 370.305 4.43915V4.77705L371.295 4.43915V5.10708H371.627V4.43915C372.795 4.56487 372.632 4.85565 373.607 5.10708V5.77491C373.916 6.30133 375.965 6.39562 374.929 7.44846H375.586V8.79199L374.929 9.12988C374.914 9.23988 375.238 9.87627 375.262 10.4734H375.919C375.764 11.2748 375.54 11.5263 375.262 12.147C374.674 12.1784 374.071 12.5006 373.939 12.4849V12.147H372.617V12.4849L370.638 12.8227V13.4905C370.197 13.7105 369.756 13.9383 369.315 14.1583V13.8205H368.983V14.8262L366.671 15.4941C367.05 15.8791 366.671 15.6276 367.328 15.8319V16.1698C367.908 16.4448 368.387 15.9733 368.65 15.8319V15.4941H369.64V14.8262C371.179 14.7477 371.519 14.3391 372.609 13.8205V13.4826H374.921V13.8205H374.589C374.21 14.2055 374.589 13.954 373.932 14.1583V14.8262C375.277 14.4334 374.28 14.5198 374.921 13.8205L375.579 14.1583V13.8205H376.236V13.4826H377.226C377.574 13.2783 378.045 11.8248 378.873 12.1391V12.477H379.53V11.4713C379.862 11.5813 380.187 11.6912 380.52 11.8091V11.4713C381.177 11.3613 381.842 11.2512 382.499 11.1334V11.8012H383.156C383.265 12.1391 383.373 12.4691 383.489 12.8069H383.822V12.1391H384.479C384.672 10.8898 384.672 11.3692 384.479 10.1277C384.579 10.167 387.657 10.8584 387.781 10.7956V10.4577H388.113V9.11415H388.446C389.118 9.727 389.946 9.20844 391.082 9.11415V8.44632C391.747 8.63489 391.369 8.40698 391.74 8.78412C392.954 8.43055 392.644 8.10845 393.387 7.4406V7.1027C394.222 6.57628 395.993 7.07913 397.346 7.1027C397.555 6.18343 397.779 6.34057 398.003 5.42915C399.418 5.37415 399.132 5.21703 399.982 4.76132V5.76704H401.305C401.374 4.97348 401.444 4.93423 401.637 4.42352L402.627 4.76132L402.96 4.09349H403.617V3.75559C403.949 3.6456 404.274 3.53565 404.607 3.41779L404.939 4.42352C405.774 3.73996 405.078 3.61422 406.586 3.41779V3.75559C406.207 4.06202 406.199 3.99924 405.929 4.42352H406.261V4.76132C406.95 4.39204 406.849 4.2192 407.908 4.09349C408.187 4.47063 407.87 4.14067 408.241 4.43138C407.854 5.0678 407.962 4.7535 407.251 5.09921V5.43701H407.908C407.8 6.10486 407.692 6.78061 407.576 7.44846H407.908V7.78626H407.576V8.45419C407.684 9.23989 407.792 10.0177 407.908 10.8034H407.576C407.298 11.1884 407.406 11.2748 406.919 11.4713V11.1334H406.586C406.37 11.4712 406.145 11.8012 405.929 12.1391H404.939L404.607 12.8069C404.166 12.9169 403.725 13.027 403.284 13.1448C403.176 13.4827 403.068 13.8127 402.952 14.1505L401.962 14.4883L401.629 15.1562H401.297V14.8184C400.083 14.5277 399.704 15.9576 398.985 15.1562V15.8241H398.328C398.436 16.2719 398.544 16.7198 398.66 17.1676H398.328C397.957 17.7412 398.119 17.6233 397.338 17.8355C397.307 17.7647 396.866 16.6176 396.681 16.8297V17.1676L396.023 17.5054C395.915 17.8433 395.807 18.1733 395.691 18.5111H394.701C393.595 19.0611 394.268 19.399 392.389 19.5169C392.497 19.8547 392.606 20.1847 392.722 20.5226C393.162 20.4126 393.603 20.3026 394.044 20.1847V21.1904H394.376V20.8525H395.699C396.704 20.4675 397.168 19.9176 398.668 19.8469V19.179C399.604 18.9668 399.542 18.5583 399.658 18.5111H400.98V18.849L402.302 18.5111C402.302 18.5111 402.449 18.9276 402.96 18.849V18.5111L404.282 18.849V18.5111C404.661 18.1262 404.413 18.5112 404.614 17.8433H404.282V18.1812C403.996 18.8176 403.949 17.5133 403.949 17.5133C405.155 17.6233 406.37 17.7333 407.576 17.8512L407.908 17.1834C408.241 17.0812 408.511 17.7019 409.231 17.5212V17.1834H410.878V17.5212H411.21V17.1834H412.532L412.865 16.1776H413.197L412.865 15.5098H413.855C414.233 15.8948 413.855 15.6433 414.512 15.8476V15.1798C415.301 15.3369 415.548 15.5647 416.159 15.8476V15.5098H415.826C415.216 15.1877 416.484 15.1719 416.484 15.1719V15.5098C416.863 15.8948 416.615 15.5098 416.816 16.1776C417.52 16.1383 417.937 15.8397 418.138 15.8397V16.1776H418.796C418.889 15.5805 419.128 15.5098 419.128 15.5098C419.02 15.1719 418.912 14.8419 418.796 14.5041H419.128V14.1662C420.064 14.5905 420.489 15.0305 421.765 15.1719V14.5041C423.69 14.0562 421.951 13.6555 423.745 14.5041V13.1605H424.077V13.4983C424.518 13.1605 424.959 12.8305 425.399 12.4926V13.8362H425.732C425.894 13.6791 425.639 13.2941 426.064 13.4983V13.8362H426.397C426.397 13.8362 426.304 15.0384 426.729 14.5041V14.1662C427.108 13.7812 426.861 14.1662 427.062 13.4983H426.072C426.327 12.4926 426.273 12.6183 427.394 12.4926V12.8305L428.384 12.4926V12.8305H429.374V13.1684C430.224 13.3491 431.183 12.1234 431.686 11.8248L432.676 12.1627V11.8248C433.225 11.4634 433.225 11.3691 433.998 11.157C433.89 11.4948 433.781 11.8248 433.665 12.1627H433.998V12.5005C434.33 12.2805 434.655 12.0527 434.988 11.8327V11.4949H435.645C436.24 11.2277 436.364 10.7327 436.635 10.1512C437.184 10.5991 437.733 11.047 438.282 11.4949C438.483 10.8349 438.297 10.6777 438.939 10.4891C439.047 10.5284 439.039 11.1177 439.596 11.157C440.3 10.2063 439.89 10.4812 440.918 10.8191C441.027 9.7348 441.22 9.83703 441.576 9.14561C442.728 9.32632 442.187 9.47561 443.223 9.14561V11.157H443.555C443.927 10.5834 443.764 10.7013 444.545 10.4891C445.164 11.542 445.767 11.4399 445.867 13.1684C446.772 13.2077 448.257 13.632 448.504 13.1684H448.837V13.5062C449.749 13.7262 450.785 14.4412 451.149 15.1798V16.1855H451.481C451.937 16.8062 452.247 16.9633 452.471 17.859C452.138 17.749 451.814 17.639 451.481 17.5212V17.859H451.814V18.8648H452.146C452.448 19.3598 452.44 19.6898 452.479 20.5383C452.1 20.9233 452.347 20.5383 452.146 21.2062C451.048 21.3162 449.95 21.4261 448.844 21.544V20.8761C448.404 20.9861 447.963 21.0962 447.522 21.214V20.5461C447.306 20.6561 447.081 20.7661 446.865 20.884C446.756 20.664 446.648 20.4362 446.532 20.2162C446.525 20.2162 445.558 20.6719 444.885 20.2162L444.553 19.2104C444.166 18.9354 443.988 20.1925 443.23 19.8783V19.5405C442.852 19.1555 443.099 19.5404 442.898 18.8725L441.908 19.2104V18.8725H441.576C441.684 18.5347 441.792 18.2048 441.908 17.8669C441.908 17.8669 441.498 17.7648 441.576 17.1991C441.576 17.1991 442.125 17.0497 441.908 16.5312H441.576C441.197 16.9161 441.576 16.6648 440.918 16.869C440.81 17.2069 440.702 17.5369 440.586 17.8748C439.813 17.7805 439.766 17.7647 439.264 17.5369V17.1991C438.707 17.2384 438.707 17.8355 438.606 17.8669C437.856 18.134 437.277 17.4504 436.959 17.529V17.8669C435.838 18.3226 435.591 18.9119 434.323 19.2104C434.431 18.8726 434.539 18.5426 434.655 18.2047H433.998C433.511 19.1161 432.985 19.7368 431.686 19.8783V18.8725H431.353C431.098 19.8782 431.152 19.7526 430.031 19.8783V19.2104C428.655 19.9726 428.469 19.894 426.729 19.5483V18.8804H426.397C426.374 20.1768 426.451 20.2632 425.407 20.554V20.8919C425.09 21.5126 425.074 20.224 425.074 20.224H424.417C424.309 20.444 424.201 20.6719 424.085 20.8919C423.536 20.7819 422.987 20.6718 422.438 20.554V21.2219H421.448V21.5597C421.069 21.9447 421.317 21.5597 421.116 22.2275L419.136 22.5654V21.8976L415.834 22.2354V22.9032H414.844V23.2411C414.551 23.8697 414.512 22.5733 414.512 22.5733C413.453 22.8326 413.8 23.0761 412.532 23.2411V24.2468C410.584 24.0425 410.731 23.0603 408.573 22.9032C408.566 24.0189 408.403 24.4197 408.241 25.2526H407.584C407.684 24.9618 408.218 24.5139 407.916 23.9089H407.584V24.2468C407.205 24.6318 407.452 24.2468 407.251 24.9147L405.272 25.2526V25.9204C404.166 25.7161 403.192 25.0011 401.97 25.5825C401.753 25.9203 401.529 26.2504 401.312 26.5882C400.415 26.8553 400.292 25.6846 399.99 25.5825C399.395 25.3782 399.751 25.9596 399.658 26.2503C399.325 26.1403 399 26.0304 398.668 25.9125V27.256H398.011L397.678 27.9239C397.137 28.0889 397.067 27.5939 397.021 27.5861C396.224 27.4446 396.163 27.9239 395.699 27.9239V27.5861C395.041 27.4761 394.376 27.366 393.719 27.2482V27.916C391.531 28.1517 390.417 28.2067 388.77 27.916L388.438 28.9217C387.819 28.7567 386.86 28.7804 385.801 28.5839V28.246C386.18 27.861 385.933 28.2461 386.134 27.5782C385.345 27.6096 385.314 27.7981 384.811 27.916V27.5782C384.262 27.2168 384.27 27.0989 383.489 26.9104V26.2424H382.832C382.724 25.9046 382.615 25.5747 382.499 25.2368L380.52 24.8989V24.2311C380.783 24.3411 381.556 24.9146 382.167 24.5689V24.2311C381.192 23.5868 381.363 22.8954 381.51 21.8818C381.95 21.6619 381.958 21.3554 382.167 21.214C382.383 21.324 382.608 21.434 382.824 21.5518V20.2083H383.156C383.048 19.5404 382.94 18.8647 382.824 18.1968C382.492 18.0868 382.167 17.9769 381.834 17.859C381.943 18.079 382.051 18.3069 382.167 18.5269L381.177 18.189V18.8569H380.844C380.736 19.0769 380.628 19.3047 380.512 19.5247H379.522C379.6 20.3026 379.886 19.729 379.522 20.5305L378.865 20.1926V20.8604C378.509 21.4497 378.532 20.1926 378.532 20.1926C377.983 20.3026 377.434 20.4126 376.885 20.5305C376.885 20.5305 376.731 20.0276 376.228 20.1926C376.12 20.4126 376.012 20.6404 375.896 20.8604H374.906C374.798 21.1982 374.689 21.5283 374.573 21.8661C374.063 21.5911 373.112 20.6561 372.261 20.8604C372.153 21.0804 372.045 21.3082 371.929 21.5282C371.295 21.4654 371.38 20.8761 371.272 20.8604H370.939V21.1983H369.292V21.5361H369.949C369.841 22.2039 369.733 22.8797 369.617 23.5475H368.959C368.658 23.414 368.743 22.5261 367.637 22.8797L367.305 23.5475H365.658V23.2096C365.178 22.9425 365.101 22.974 364.335 22.8718V23.8776C364.003 23.7676 363.678 23.6575 363.346 23.5397V23.8776C362.967 24.2626 363.214 23.8775 363.013 24.5454C361.784 24.899 362.124 25.2368 361.366 25.8889V26.2268H360.376V25.2211H359.719V25.8889H358.072V25.551H357.74C357.523 25.9989 357.299 26.4468 357.082 26.8946L356.425 26.5568V26.8946L355.435 27.5625V26.5568H355.103V26.8946L354.113 26.5568V26.8946C353.649 26.8711 354.245 26.6117 353.781 26.5568L351.801 26.8946V27.9004H351.469V27.5625C350.572 27.0753 349.852 28.0339 349.489 28.2303C349.303 27.1775 349.164 26.8239 348.167 26.5568C348.352 27.3739 348.515 27.2954 348.824 27.9004H348.167C347.641 28.3954 346.226 28.2696 345.197 28.2382V27.5703H344.54V28.2382C343.883 28.1282 343.218 28.0182 342.561 27.9004C342.398 27.1068 342.251 27.1067 341.903 26.5568C342.352 26.1639 342.228 26.8082 342.561 26.219C342.128 25.944 342.174 25.9832 341.903 25.551H342.561C342.63 24.7575 342.7 24.7182 342.893 24.2075C341.958 23.9875 341.648 23.5868 341.246 22.864H342.236C342.453 21.9683 342.677 21.0725 342.893 20.1847C342.46 19.9097 342.507 19.949 342.236 19.5169C341.532 19.9254 341.517 20.2712 340.589 20.5226V19.8547H340.256V20.8604C338.973 20.9704 338.772 21.4026 337.944 21.8661C337.875 21.0726 337.805 21.0333 337.612 20.5226C337.241 20.8054 337.565 20.4833 337.279 20.8604H336.947L337.279 21.1983L336.947 22.204C335.547 21.9604 335.362 22.149 333.645 22.204L333.978 23.2096H333.645C333.374 23.6496 333.413 23.6026 332.988 23.8776V22.5339C331.31 22.6282 331.534 23.1311 329.686 23.2018C329.439 24.341 328.982 24.7496 327.707 24.8753V24.2075H327.374V24.5454C327.088 25.1818 327.041 23.8776 327.041 23.8776C326.709 23.7676 326.384 23.6575 326.052 23.5397L326.384 24.2075H325.727C325.201 24.7025 324.915 25.3625 324.737 26.219H323.747V25.551C321.629 25.6296 321.095 26.7767 319.456 27.2246C319.665 26.3053 319.889 26.4624 320.113 25.551C318.002 26.0224 316.502 27.4996 315.164 25.2132C316.649 24.3332 315.868 23.9639 315.497 22.5339H314.175C313.896 22.1568 314.213 22.4869 313.842 22.1961C313.943 21.9054 314.476 21.4575 314.175 20.8525H313.842V20.5147H312.852C312.296 21.4419 311.437 21.1904 310.873 21.8583L310.54 22.864H309.551V23.2018C309.218 23.3118 308.893 23.4218 308.561 23.5397V22.8718C307.532 23.0997 307.061 23.8775 306.249 24.2154H304.927V24.5533C304.594 24.4433 304.269 24.3332 303.937 24.2154V24.8832L301.957 25.2211V25.5589H300.635C300.527 25.5825 300.55 26.0225 299.978 25.8968V25.5589H299.32V25.2211L297.008 24.8832C296.769 25.3546 296.413 25.8968 296.019 26.2268V24.8832H295.686V25.551C295.354 25.441 295.029 25.3311 294.696 25.2132C294.542 25.9989 294.147 26.2504 294.039 26.8868H294.372C294.48 27.2246 294.588 27.5547 294.704 27.8925C292.825 27.9161 292.632 27.5389 291.402 27.2246C290.915 28.136 290.389 28.7567 289.09 28.8981V28.2303H288.433V29.5739H287.776V29.9117H285.464V30.2496H284.807V30.5874C284.59 30.4774 284.366 30.3675 284.149 30.2496V30.5874H283.817C283.33 30.1867 284.095 30.3439 283.484 29.9196C283.523 30.9803 284.126 30.5482 283.152 30.9253V30.2575C281.296 30.4853 282.085 31.0903 281.172 31.601H280.515C280.407 31.9389 280.298 32.2689 280.182 32.6067H278.535V32.2688C279.355 31.656 278.961 32.0096 278.868 30.9253H278.211V31.931C275.342 31.9389 274.839 32.5124 272.272 32.5989V31.931C271.831 32.151 271.39 32.3789 270.95 32.5989C271.058 33.0467 271.166 33.4945 271.282 33.9424C270.424 33.8874 270.153 33.8716 269.635 33.6045V33.2667L268.645 33.6045C268.591 33.5966 268.53 33.1331 267.988 33.2667V33.6045H267.331V33.9424H266.674V34.2803C266.218 34.5867 266.094 34.5159 265.351 34.6181V33.6124H265.019V33.9503H263.372C263.148 34.0524 263.356 34.3824 262.382 34.6181C262.274 34.9559 262.166 35.286 262.05 35.6238H262.382C262.869 36.0324 261.184 35.9538 261.06 35.9616V35.6238C259.738 35.4038 258.423 35.176 257.101 34.956C257.279 34.021 257.356 34.9245 257.101 33.9503C256.745 34.1388 256.413 34.8538 255.779 34.6181V34.2803H255.446L255.779 33.6124H255.446C255.067 33.2274 255.446 33.4788 254.789 33.2746C254.681 32.9367 254.572 32.6067 254.456 32.2688H255.114C255.005 31.931 254.897 31.601 254.781 31.2631H255.114V31.601C255.4 32.2374 255.446 30.9332 255.446 30.9332H255.779V30.5953C255.562 30.4853 255.338 30.3753 255.121 30.2575C255.23 29.9196 255.338 29.5896 255.454 29.2518H255.121V28.9139H256.111V28.5761C255.678 28.3011 255.725 28.3403 255.454 27.9081C256.018 27.531 255.902 27.6961 256.111 26.9025L257.433 26.5646C257.472 26.541 257.944 25.3232 258.091 25.5589V26.2268H259.08C259.39 25.6218 259.536 25.7003 259.738 24.8832C259.289 24.4903 259.235 24.2704 259.08 23.5397H259.738V22.8718H260.395V22.5339C259.738 22.6439 259.073 22.754 258.415 22.8718V22.5339C257.982 22.5575 257.588 23.1076 256.768 22.8718V22.5339C256.111 22.4239 255.446 22.314 254.789 22.1961V23.5397H254.131V24.2075C253.799 23.9875 253.474 23.7597 253.142 23.5397V22.8718L252.809 23.2096C252.43 23.5946 252.678 23.2097 252.477 23.8776H251.155V24.5454C250.497 24.4354 249.832 24.3254 249.175 24.2075C249.067 24.7654 248.959 25.3232 248.843 25.8811C248.038 26.0696 248.116 26.2267 247.52 26.5489V26.2111C247.18 25.9204 247.064 25.6296 246.863 25.2054C246.484 25.5904 246.732 25.2053 246.531 25.8732C245.873 25.9832 245.208 26.0932 244.551 26.2111V26.8789C243.77 26.9496 243.731 27.0204 243.229 27.2168V26.5489H243.561L243.229 25.5433H242.896V26.2111C242.68 26.1011 242.455 25.991 242.239 25.8732C241.86 26.1403 242.107 26.6667 241.249 26.541C241.141 26.321 241.033 26.0932 240.917 25.8732H240.584V26.541L239.594 26.8789C239.424 26.8318 239.393 26.0304 238.937 26.2111C238.605 26.6589 238.28 27.1068 237.947 27.5546C237.615 27.4446 237.29 27.3347 236.958 27.2168V27.8846H236.3V28.5525C235.929 28.2696 236.254 28.5917 235.968 28.2146C235.612 27.9082 235.906 28.2696 235.635 27.8768H235.968V27.5389H234.978V27.8768H234.646V27.5389H233.656C233.547 27.3189 233.439 27.091 233.323 26.8711C233.107 26.981 232.883 27.0911 232.666 27.2089C232.218 27.3425 232.805 27.5703 232.334 27.5467V27.2089H231.676C231.669 28.2461 231.769 28.9375 232.009 29.5582H230.687V30.226H230.354V29.2203H229.697L229.364 30.226C228.993 29.9432 229.318 30.2653 229.032 29.8881H228.699L229.032 28.8825C228.699 28.9925 228.374 29.1024 228.042 29.2203V29.5582H227.385C227.277 29.7782 227.168 30.006 227.052 30.226H225.73V30.5638H225.397C225.235 30.4145 225.49 30.0217 225.065 30.226L224.733 30.8939L223.085 31.2317V30.5638H222.753L222.421 31.2317H222.088L221.755 30.5638C221.299 30.3517 220.828 30.3989 220.433 30.226C220.41 31.5224 220.487 31.6089 219.443 31.8996V31.2317H218.786V31.8996H217.139L216.482 33.5731H215.825V33.2352C215.716 33.2195 215.067 33.5338 214.502 33.5731C214.688 32.756 214.85 32.8345 215.16 32.2295H214.502L214.17 33.2352L211.858 32.8974C211.51 33.0703 211.618 33.6516 211.858 33.9031H211.201C210.915 34.2488 210.628 34.3667 210.211 34.571V33.5653C208.734 33.691 209.252 33.7774 207.899 33.5653V33.9031C208.278 34.2881 208.03 33.9031 208.231 34.571H206.584C206.499 34.5553 206.476 34.1388 205.927 34.2331V34.571H205.27C205.161 34.9088 205.053 35.2388 204.937 35.5766C204.566 35.2938 204.891 35.616 204.605 35.2388C204.234 34.956 204.558 35.2781 204.272 34.9009C204.705 34.6259 204.659 34.6652 204.929 34.2331H203.607C203.313 34.5867 203.027 34.6731 202.617 34.9009V35.2388L201.628 34.9009V35.2388C202.061 35.5138 202.014 35.4745 202.285 35.9067H201.628C201.241 35.4509 201.025 35.396 200.305 35.2388V35.9067C199.687 35.6709 199.014 35.5766 197.993 35.5688C197.63 34.8695 197.46 34.9717 197.336 33.8953H196.679V33.2274C196.308 33.5102 196.632 33.1881 196.346 33.5653H196.014V34.2331L195.357 34.571V35.5766H195.024C194.692 35.1288 194.367 34.6809 194.034 34.2331H193.702C193.269 33.4867 193.88 33.2981 193.044 32.5595C193.153 32.1117 193.261 31.6639 193.377 31.216C193.377 31.216 192.952 31.051 193.044 30.5482H193.377V28.8746C193.377 28.8746 193.578 28.8746 193.71 28.2067C194.622 27.9631 194.444 28.1125 194.699 27.2011H195.357V27.5389L196.346 27.2011V26.5332L197.993 26.8711C198.233 25.9439 198.086 26.1246 198.983 25.8653V24.5218H199.316L198.983 23.854H199.316C199.594 23.4768 199.277 23.8068 199.648 23.5161V23.1783C199.965 22.5576 199.981 23.8461 199.981 23.8461L200.97 24.1839V23.8461H200.638C200.746 23.5083 200.854 23.1782 200.97 22.8404H202.95V23.1783C203.723 23.0683 204.489 22.9582 205.262 22.8404V22.1726H206.584V21.5047C205.455 21.489 204.303 21.2768 203.615 21.1668C203.398 21.5047 203.174 21.8347 202.958 22.1726L200.978 22.5104C201.164 21.6932 201.326 21.7718 201.635 21.1668H200.313V21.5047H200.646C201.025 22.0311 199.834 21.819 199.656 21.8425V22.8482H199.323V23.1861C198.774 23.2961 198.225 23.4061 197.676 23.5239C197.785 22.9661 197.893 22.4082 198.009 21.8504C197.205 22.039 197.274 22.1961 196.687 22.5182V22.8561C196.029 22.6361 195.364 22.4083 194.707 22.1883V22.5261C194.328 22.9111 194.576 22.5261 194.375 23.1939C193.833 23.2961 192.936 23.8933 192.728 23.8618V23.5239H191.738C191.282 23.4297 191.862 23.084 191.405 23.1861L191.073 23.854H190.416L190.748 23.1861H190.416C190.037 23.5711 190.415 23.3197 189.758 23.5239V24.1918C189.209 24.3018 188.66 24.4118 188.111 24.5297C188.049 24.514 188.003 24.0503 187.454 24.1918V24.5297H186.797V24.8675C186.472 24.7968 186.41 23.9639 186.139 24.1996C185.598 24.6553 186.503 24.8439 185.15 25.2054V26.2111H184.817V25.5433H184.485C184.376 25.7633 184.268 25.9911 184.152 26.2111H182.83C182.435 25.4804 182.103 25.1032 181.183 24.8675V25.2054H179.861L179.528 25.8732L178.538 25.5354V26.541H177.881C177.069 27.9474 177.146 26.9339 176.234 27.5467C176.342 27.7667 176.451 27.9946 176.567 28.2146C175.909 28.1046 175.244 27.9946 174.587 27.8768C174.556 27.8846 174.417 28.4582 173.93 28.5446V28.2067H172.607L172.275 27.8689V28.2067C171.339 28.8196 171.309 29.1731 169.638 29.2124C169.267 28.6389 169.429 28.7567 168.649 28.5446V29.2124H167.991V28.8746C167.574 28.7411 167.125 29.8253 167.001 29.8803C166.321 30.1867 166.058 29.5896 165.679 29.5425V29.8803C165.022 29.9903 164.357 30.1003 163.7 30.2182L163.367 29.2124C162.455 29.456 162.633 29.3067 162.377 30.2182C161.388 30.3282 160.398 30.4382 159.408 30.5561L159.076 31.2239H156.764V31.5617C155.905 31.821 155.225 31.5932 154.452 31.8996C154.266 31.0824 154.104 31.161 153.794 30.5561C153.423 30.8389 153.748 30.5167 153.462 30.8939C152.302 31.7267 153.384 32.0881 151.815 32.5674V32.9053H150.168L149.835 33.5731C149.101 33.8717 148.907 33.1567 148.513 33.2352V33.5731C147.856 33.7067 148.095 33.4238 147.856 33.2352H147.523V33.9031C147.191 33.7931 146.866 33.6831 146.533 33.5653V33.2274L145.544 33.5653V33.2274H144.221L143.889 32.5595C143.425 32.5595 143.734 32.4574 143.556 32.8974C143.146 32.5124 143.433 32.8974 143.224 32.2295H144.546V31.5617H143.224C142.915 30.9567 142.768 31.0353 142.567 30.2182H143.224C143.031 28.8353 142.868 28.6153 142.234 27.2011C141.801 27.3739 142.327 27.3346 141.902 27.5389H140.912V27.8768C141.577 28.0653 141.198 27.8374 141.569 28.2146C140.626 28.1831 140.154 28.1518 139.59 27.8768V28.2146C139.969 28.5996 139.721 28.2147 139.922 28.8825C138.306 28.8825 138.043 29.2675 136.953 29.5503V28.5446H136.62V28.8825H136.288L135.63 28.5446V29.5503H134.641V28.8825H134.308V29.5503H134.641V30.5561C133.543 30.5482 133.149 30.3832 132.329 30.2182V30.886C131.548 30.8467 131.494 30.7839 131.006 30.5482V30.886C130.628 31.271 130.875 30.886 130.674 31.5538C128.934 31.3574 129.916 30.831 128.362 31.216V30.5482C127.836 30.4696 127.944 31.1217 127.705 31.216C126.467 31.6874 125.447 31.4046 124.403 31.216V32.2217L123.746 31.8838V32.2217C123.081 32.7953 123.777 32.7324 123.413 33.2274H123.081C122.284 32.0174 119.995 33.0231 118.464 33.2274V34.2331C117.846 34.0602 116.663 33.0309 116.152 33.2274V33.5653H115.82V34.571C114.83 34.681 113.84 34.7909 112.85 34.9088V35.5766H113.183C113.075 35.9145 112.966 36.2445 112.85 36.5823C112.069 36.5431 112.015 36.4803 111.528 36.2445V36.5823H111.196V35.5766H110.538V36.5823H110.206V36.2445H108.884V36.5823L108.226 36.2445V36.5823C107.5 36.8102 107.136 36.6845 106.58 36.9202V37.9259C104.932 38.1773 104.948 38.2245 103.61 37.258L103.278 38.2638H101.955V38.6017C101.515 38.7117 101.074 38.8216 100.633 38.9395V38.2716H99.9759C99.7748 39.4502 99.6201 39.8116 98.3288 39.9452V39.6073C98.7077 39.2223 98.4604 39.6073 98.6614 38.9395C98.2207 38.8295 97.7799 38.7195 97.3392 38.6017V38.2638C96.7128 38.0673 96.8829 38.4524 96.6818 38.6017L95.692 38.2638V38.6017H96.0245V39.9452H95.3673V39.2774C94.4626 39.8116 94.7719 40.1023 93.3878 40.283C93.1481 41.2101 93.295 41.0294 92.398 41.2887C91.5087 42.3573 90.4726 42.098 89.0962 41.9565V41.2887H90.4184C90.3102 40.9509 90.202 40.6208 90.086 40.283C89.5834 40.4794 89.5447 40.5423 88.7637 40.6209C88.7096 39.7095 88.6554 38.6016 88.1064 38.2716V37.9337C88.3461 37.5802 88.3616 38.2245 88.7637 37.5959H88.1064C87.5187 37.2424 88.7637 37.258 88.7637 37.258C88.5782 36.4409 88.4157 36.5195 88.1064 35.9145H89.0962C89.3668 36.3545 89.3282 36.3073 89.7535 36.5823C88.9493 34.8224 88.5394 33.1959 91.4005 33.2274C91.7794 33.6124 91.4005 33.361 92.0578 33.5653C92.1661 33.0074 92.2743 32.4496 92.3902 31.8917H91.7331V32.5595H91.0758L91.4082 31.5538H91.0758C90.8283 32.1902 91.3078 31.8996 90.7433 32.2217C90.3103 31.8289 91.1375 31.711 90.4107 31.5538V32.2217L89.7535 31.8838V32.2217H90.086C89.8695 32.6696 89.6451 33.1174 89.4286 33.5653H89.0962V32.5595H88.7637V32.8974H87.7739C87.5574 33.2353 87.3331 33.5652 87.1166 33.9031H86.4595V34.241H85.4697V34.5789H84.8123V34.9167C83.4823 35.3959 82.485 34.4531 81.8432 34.9167C80.9462 35.5059 80.7993 36.771 80.5209 36.9281H77.5516C77.1727 36.5431 77.5515 36.7945 76.8942 36.5902V35.9224H76.5618C76.67 36.3702 76.7782 36.8181 76.8942 37.2659H76.5618C75.9354 37.8159 74.8143 37.6195 73.9251 37.9337V38.2716C73.4379 38.4288 72.6338 37.9102 72.6028 37.9337V38.6017H70.9557C70.6232 39.3874 70.2984 40.1652 69.9659 40.9509H69.6335V39.9452H68.9761C68.9065 40.7387 68.837 40.778 68.6437 41.2887C68.2725 41.0059 68.5973 41.328 68.3112 40.9509C67.9323 40.5659 68.1796 40.9508 67.9786 40.283C68.5431 39.9058 68.4272 40.0709 68.6359 39.2774H67.6462V41.2887C67.0971 41.1787 66.5482 41.0688 65.9992 40.9509V40.613C66.3781 40.228 66.1306 40.613 66.3317 39.9452H65.6743L66.007 39.2774H65.6743C65.2954 39.6623 65.6744 39.4109 65.0172 39.6152C64.9321 40.2673 64.6923 40.2673 64.6845 40.283C64.1587 41.933 64.9785 42.428 63.0376 42.6323V41.9644C62.5814 42.1294 62.3108 42.098 61.7154 42.3023V42.6401C61.3829 42.5301 61.0581 42.4202 60.7256 42.3023V42.6401H60.0682L60.4009 43.308H58.4213V43.6458C58.8002 44.0308 58.5527 43.6458 58.7537 44.3136C58.2202 44.2901 56.4417 43.9759 56.4417 43.9759C56.3335 44.1958 56.2253 44.4237 56.1093 44.6437C55.2123 45.1387 55.0576 44.7301 54.4622 44.6437V44.9816H53.805L53.4724 45.6494C52.9234 45.7594 52.3744 45.8693 51.8254 45.9872V46.3251C51.3847 46.2151 50.944 46.1051 50.5032 45.9872C49.9542 46.0972 49.4051 46.2072 48.8561 46.3251V46.663C47.874 46.9458 47.5185 46.1286 46.8767 45.9951V46.333C46.4978 46.718 46.7451 46.3329 46.5441 47.0008H45.2218L44.8894 46.663C44.7193 46.7416 44.7965 47.2601 44.232 47.3308V46.9929L43.2423 46.6551V46.9929C42.9098 47.1029 42.5852 47.213 42.2527 47.3308V46.663C41.6573 46.9773 41.7344 47.1265 40.9302 47.3308V47.9987H40.5978V46.9929C38.742 46.9694 37.327 46.1916 36.6388 44.9816L37.296 44.6437C37.3192 44.1723 36.9713 44.7852 36.9635 44.3059C37.0718 43.748 37.18 43.1902 37.296 42.6323H37.9533C37.2265 40.5424 38.7653 39.3794 38.9431 37.2659C39.9638 37.0773 41.1468 36.9281 42.5696 36.9281V35.9224H43.5594C43.7836 34.9403 43.9228 34.8224 44.8816 34.5789V33.9109C46.807 33.4631 45.0673 33.0624 46.8612 33.9109V33.2431C47.5958 33.1017 47.9901 32.921 48.5081 32.5753V32.2374C49.1654 32.1745 48.7402 32.7481 49.1655 32.2374C49.5444 31.8524 49.2969 32.2374 49.4979 31.5695H50.1553C50.5342 30.2103 50.828 30.9017 51.4775 29.896C52.1348 30.116 52.7998 30.3438 53.4571 30.5638V30.226H53.7895V28.8825C51.8951 28.9218 51.3692 29.1575 49.8304 28.8825C49.6448 29.9353 49.5056 30.2889 48.5081 30.5561V29.8881H47.851V30.8939C47.1783 31.2553 46.5519 31.8839 45.539 31.8996L45.2063 31.5617C44.0155 32.4731 45.3146 33.1252 42.8943 33.2352L43.2268 31.8917H42.5696V32.2295H42.9021C42.9253 32.3474 42.3377 33.4395 42.2449 33.9031H41.5876V33.2352H40.9302V33.9031L40.5978 33.5653C39.9405 33.7853 39.2755 34.0131 38.6182 34.2331C38.51 34.4531 38.4018 34.6809 38.2858 34.9009C37.8527 35.0895 38.3554 34.6496 37.9533 34.5631C37.6208 34.6731 37.296 34.7831 36.9635 34.9009V34.5631H35.9738V34.2252H35.6413V34.5631C35.6413 34.5631 34.7289 34.2567 34.3191 34.2252C34.1026 34.7831 33.8782 35.3409 33.6617 35.8988C33.3756 35.7966 32.9349 35.2546 32.3395 35.561V35.8988H32.0071V36.9045H31.6744V35.8988H31.342V37.2423C31.3961 37.7137 31.6899 37.1009 31.6744 37.5802L31.342 37.9181C30.7698 37.6274 31.226 37.8787 31.0095 37.2502H30.6769V37.9181L29.03 38.2559L29.3624 37.5881H29.03C28.5196 38.1695 28.4346 37.918 27.7077 38.2559V38.5938C27.2206 38.7824 26.4474 38.6802 26.3855 38.2559H26.0529V39.2616H25.7204V38.9237H25.388V39.5917H24.7306V40.2595C23.8955 39.9923 22.6893 40.2359 21.1041 40.2595C20.9959 41.0452 20.8877 41.823 20.7717 42.6087H20.1143V41.9409C19.6117 42.1373 19.5731 42.2001 18.7921 42.2787V43.2844C18.1348 43.5044 17.4698 43.7323 16.8125 43.9523V44.2902H16.1554V44.628C14.5393 45.2487 14.1603 44.1094 13.186 45.6337H12.8536L13.186 45.9716C13.0778 46.3094 12.9696 46.6393 12.8536 46.9772C12.4128 46.8672 11.9719 46.7573 11.5312 46.6394V47.6451C10.3635 47.7708 10.5261 48.0615 9.55177 48.313V47.6451H9.21913V48.6508C8.56187 48.7608 7.89701 48.8708 7.23975 48.9886L6.90711 49.9944H6.24996C6.14171 50.3322 6.03332 50.6621 5.91733 51H5.58488V49.9944H5.25244L4.91999 50.6622L3.9302 50.3243V49.9865C3.2884 49.8215 3.48937 50.175 3.27286 50.3243L1.95063 49.9865L2.28308 49.6486V49.3108H1.95063V48.3051H2.28308V47.9672H1.62593C1.61819 46.8515 1.45567 46.4508 1.29329 45.6179H0.63614C0.0484682 45.2644 1.29329 45.2801 1.29329 45.2801C1.40155 44.9423 1.50994 44.6123 1.62593 44.2744C3.32708 44.353 3.2574 44.9109 3.27286 42.9309C3.82187 42.8209 4.37098 42.7109 4.91999 42.593V41.2495L5.90978 40.9116C6.28867 40.5266 5.90966 40.7781 6.56693 40.5738V41.2416H7.22427V40.5738C7.55677 40.6838 7.88156 40.7937 8.21405 40.9116V40.2438H7.88142L8.21405 39.238H8.5465V38.9002H9.53629C9.52855 38.4288 9.60574 38.8059 9.20365 38.5623V38.2244H10.1934V37.8866H10.5261L10.8585 38.5545C11.9565 38.7745 13.0546 39.0023 14.1603 39.2223C14.1913 37.9652 14.4618 37.6823 14.8175 36.8731C15.15 36.9831 15.4748 37.0931 15.8073 37.2109V36.5431H16.797L16.4646 37.2109H16.797V36.8731H17.4544C17.8178 36.5823 17.6012 36.0638 18.1115 35.8673C18.4054 36.1659 18.2353 36.4331 18.7689 36.5353C18.9854 36.1974 19.2097 35.8674 19.4262 35.5295H20.4158V35.1916H20.7485V33.8481H21.4056V34.5159C22.8129 34.3824 22.8981 33.8245 24.0425 33.5102C24.3054 32.4259 24.6533 32.3553 24.6997 30.831H27.669V31.1688L28.6588 30.831V30.4931C29.1537 30.3596 29.1072 31.0903 29.316 31.161L30.3057 30.8232V31.491H30.6384V30.8232C31.0095 30.5403 30.6847 30.8624 30.9708 30.4853L30.3135 30.8232V29.4795H30.6461V28.136H32.2931L31.9606 29.1417H32.9504C33.4762 28.4896 34.1489 28.246 34.5973 27.4682C34.9376 27.7589 35.0536 28.0496 35.2547 28.4739C35.5872 28.2539 35.912 28.0261 36.2445 27.8061V27.4682H36.9016L37.2341 26.8004C37.4506 26.9104 37.6749 27.0203 37.8914 27.1382C38.3322 26.8003 37.4893 26.5725 38.2238 26.4703V26.8082C38.5563 26.9182 38.8811 27.0282 39.2136 27.146V26.4782C38.8347 26.0932 39.0822 26.4782 38.8812 25.8104C39.7318 25.9675 40.3426 26.1325 41.5179 26.1482C41.9896 25.4332 42.3841 25.4725 43.165 25.1425L42.8326 24.1368H44.1548V23.7989H44.4873V24.1368H45.1446V23.469C47.0159 23.414 46.3741 22.9504 47.4566 22.4633H48.7789V22.1254C49.1578 21.7404 48.9103 22.1254 49.1113 21.4575H50.1011V22.1254H50.7584C51.0291 21.049 51.145 21.1512 52.4054 21.1197V21.7876C53.1786 21.4261 53.4802 21.0176 54.3849 20.7818V19.7761H55.0421V19.1083C56.7819 19.1161 57.6481 18.7155 59.0012 18.4405C59.241 19.3676 59.0941 19.1869 59.991 19.4462C59.8828 19.1083 59.7744 18.7783 59.6584 18.4405H59.991C60.3545 17.969 61.1431 17.4584 61.638 17.0969V16.759H62.6278V17.0969H62.9602V18.1026H63.2928C63.4011 16.7669 63.633 16.5547 64.9398 16.429V16.7669C65.3805 16.924 64.816 16.5547 65.2722 16.429C66.5945 16.209 67.9091 15.9812 69.2314 15.7612C68.8989 14.7162 69.0458 15.2505 69.2314 14.0876C70.0355 13.8991 69.9582 13.7419 70.5536 13.4198V13.7577H70.886C71.1489 14.2527 70.5536 14.4255 70.5536 14.4255L70.886 15.0934C71.6438 14.4491 71.3037 14.0877 72.5332 13.7498C72.6414 13.412 72.7496 13.082 72.8656 12.7441C73.809 13.137 74.4199 13.3805 75.835 13.4119C76.1675 12.7441 76.4923 12.0684 76.8248 11.4006H77.4819L77.8145 12.0684L80.1266 11.4006V11.0627H82.4386L82.771 10.3949H83.4284C83.6371 9.47558 83.8613 9.63272 84.0855 8.7213C84.5263 8.8313 84.967 8.94124 85.4077 9.0591V8.7213C85.7712 8.42273 85.4775 8.77626 85.7404 8.3834H85.4077C85.083 7.82555 85.8795 8.1006 86.0651 8.04561V7.70771C86.3976 7.81771 86.7224 7.92775 87.0549 8.04561C86.9466 8.2656 86.8382 8.49344 86.7222 8.71343H87.0549C88.091 7.50345 88.9958 8.71338 90.3567 9.05123C90.5809 8.61124 90.7664 8.68983 91.0138 8.3834L90.6814 7.71557H91.3387V7.37778L91.9959 7.03988C92.0423 6.56846 91.9263 7.09484 91.6634 6.70199L91.9959 6.03416C93.1094 6.26987 93.264 6.76488 94.3079 7.03988V6.03416C95.2126 6.2463 95.058 6.47413 95.955 6.70199V5.69636C96.3185 5.80636 96.6045 6.29344 97.2773 6.03416V5.69636H98.267V5.35846C98.9243 4.80061 99.5893 4.24276 100.247 3.68491V3.01708H100.904V3.35488C101.36 3.44916 100.842 3.28422 101.236 3.01708L101.894 3.35488L101.561 4.3606C103.401 4.50203 104.337 4.95776 105.52 3.69277C104.871 3.31563 104.747 3.22138 104.53 2.34925L105.52 2.01135C105.628 2.23135 105.737 2.45919 105.853 2.67918H106.51V1.33566C107.229 1.47709 107.453 1.55564 107.832 2.00349L109.812 1.33566L109.479 0.66783H111.126V0L111.288 0.0785513ZM107.994 5.10708V5.77491H108.327V5.10708H107.994ZM401.947 5.77491V6.44274H402.279V5.77491H401.947ZM108.984 6.78063V7.44846H109.317V6.78063H108.984ZM104.368 7.44846V8.11629H104.7V7.44846H104.368ZM393.696 8.45419C394.075 8.83918 393.696 8.5877 394.353 8.79199C393.974 8.40699 394.353 8.65847 393.696 8.45419ZM367.637 8.79199C368.016 9.17698 367.637 8.9256 368.295 9.12988C367.916 8.74489 368.295 8.99627 367.637 8.79199ZM89.5215 9.79771C89.5524 10.937 89.5216 11.0156 90.1788 11.4713V11.1334H89.8462V9.78985H89.5138L89.5215 9.79771ZM362.689 10.1355C363.067 10.5205 362.689 10.2691 363.346 10.4734C362.967 10.0884 363.346 10.3398 362.689 10.1355ZM326.725 10.4655V11.1334H327.057V10.4655H326.725ZM349.821 10.8034L349.489 11.4713C349.489 11.4713 350.448 10.937 350.146 10.8034H349.814H349.821ZM383.798 10.8034H384.456C384.177 11.1806 384.494 10.8505 384.123 11.1412V11.4791C383.744 11.0941 383.992 11.4791 383.791 10.8113L383.798 10.8034ZM91.8258 11.1412C92.2047 11.5262 91.8259 11.2748 92.4831 11.4791C92.1042 11.0941 92.483 11.3455 91.8258 11.1412ZM276.912 11.4713V12.1391H277.244V11.4713H276.912ZM95.46 12.8148V13.1527H95.1276C94.5013 13.4434 95.7849 13.4905 95.7849 13.4905C96.0633 13.1133 95.7462 13.4434 96.1174 13.1527C95.7385 12.7677 96.1173 13.0191 95.46 12.8148ZM348.832 12.8148V13.1527H348.499C347.873 13.4434 349.157 13.4905 349.157 13.4905C349.435 13.1133 349.118 13.4434 349.489 13.1527C349.11 12.7677 349.489 13.0191 348.832 12.8148ZM433.287 12.8148V13.1527H432.954C432.328 13.4434 433.611 13.4905 433.611 13.4905C433.89 13.1133 433.573 13.4434 433.944 13.1527C433.565 12.7677 433.944 13.0191 433.287 12.8148ZM212.244 13.1527V13.8205H212.577V13.1527H212.244ZM130.759 13.4826V14.1505H131.092V13.4826H130.759ZM215.214 13.4826V14.1505H215.546V13.4826H215.214ZM276.247 13.4826C276.803 14.2055 276.904 14.1505 276.904 14.1505C277.144 13.8284 276.332 13.5612 276.247 13.4826ZM360.709 13.4826C361.266 14.2055 361.366 14.1505 361.366 14.1505C361.606 13.8284 360.794 13.5612 360.709 13.4826ZM384.131 13.4826V14.1505H384.463V13.4826H384.131ZM445.164 13.4826C445.72 14.2055 445.821 14.1505 445.821 14.1505C446.061 13.8284 445.249 13.5612 445.164 13.4826ZM82.9179 14.1583H82.2607V14.4962H82.5932V14.8341H82.9256V14.1662L82.9179 14.1583ZM87.2095 16.1698H87.8668C87.7586 15.7219 87.6502 15.2741 87.5342 14.8262H87.2017V16.1698H87.2095ZM340.581 16.1698H341.238L340.906 14.8262H340.573V16.1698H340.581ZM425.036 16.1698H425.693L425.361 14.8262H425.028V16.1698H425.036ZM83.583 15.4941V16.8376H83.9154V15.4941H83.583ZM168.038 15.4941V16.8376H168.37V15.4941H168.038ZM336.955 15.4941V16.8376H337.287V15.4941H336.955ZM385.778 16.1698V17.1755H386.11C386.443 16.5705 386.837 16.1776 387.433 15.8319V15.4941H386.775C386.404 16.0676 386.566 15.9498 385.785 16.1619L385.778 16.1698ZM421.409 15.4941V16.8376H421.742V15.4941H421.409ZM232.372 15.8319V16.4998H232.705V15.8319H232.372ZM316.827 16.4998H317.484V16.1619C317.113 15.879 317.438 16.2012 317.152 15.8241H316.819V16.4919L316.827 16.4998ZM132.406 16.1698V17.1755H132.739V16.1698H132.406ZM216.861 16.1698V17.1755H217.193V16.1698H216.861ZM361.366 17.5054C361.606 18.4326 361.459 18.2519 362.356 18.5111C362.565 17.5919 362.789 17.749 363.013 16.8376H362.681C362.263 17.474 362.348 17.3954 361.359 17.5054H361.366ZM364.335 16.8376V17.5054C365.201 17.4818 365.457 17.3719 365.983 17.1676V16.8297H364.335V16.8376ZM190.145 17.1755V18.1812H190.477V17.8433C190.849 17.5605 190.524 17.8826 190.81 17.5054L190.153 17.1676L190.145 17.1755ZM274.6 17.1755V18.1812H274.932V17.8433C275.303 17.5605 274.978 17.8826 275.265 17.5054L274.607 17.1676L274.6 17.1755ZM359.054 17.1755V18.1812H359.387V17.8433C359.758 17.5605 359.433 17.8826 359.719 17.5054L359.062 17.1676L359.054 17.1755ZM443.517 17.1755V18.1812H443.849V17.8433C444.22 17.5605 443.895 17.8826 444.182 17.5054L443.524 17.1676L443.517 17.1755ZM232.04 17.5054V18.1733H232.372V17.5054H232.04ZM385.121 17.5054C385.677 18.2283 385.778 18.1733 385.778 18.1733C386.017 17.8512 385.206 17.584 385.121 17.5054ZM210.597 18.1812V19.1868H209.94V19.8547L210.597 19.5169L210.93 18.5111C211.301 18.2283 210.976 18.5505 211.262 18.1733H210.605L210.597 18.1812ZM224.454 18.1812V18.849H224.787V18.1812H224.454ZM308.909 18.1812V18.849H309.241V18.1812H308.909ZM360.709 18.849H359.719V19.5169H360.376C360.686 18.9119 360.833 18.9905 361.034 18.1733H360.701V18.8412L360.709 18.849ZM393.363 18.1812V18.849H393.696V18.1812H393.363ZM183.216 19.5169V18.849C182.845 19.1319 183.17 18.8097 182.884 19.1868H182.552C182.93 19.5718 182.551 19.3205 183.209 19.5247L183.216 19.5169ZM266.682 18.849V19.8547H267.014C267.393 19.4697 267.014 19.7212 267.671 19.5169V18.849H266.682ZM313.525 19.5169V18.849H312.535V19.1868H312.868C313.247 19.5718 312.868 19.3205 313.525 19.5247V19.5169ZM352.126 19.5169V18.849C351.755 19.1319 352.079 18.8097 351.793 19.1868H351.461C351.84 19.5718 351.461 19.3205 352.118 19.5247L352.126 19.5169ZM378.192 18.849V19.5169C378.563 19.234 378.239 19.5561 378.525 19.179H378.857C378.478 18.794 378.857 19.0455 378.2 18.8412L378.192 18.849ZM425.036 19.1868V19.8547H425.368V19.1868H425.036ZM206.638 20.5226H207.296C207.017 20.1455 207.334 20.4754 206.963 20.1847V19.5169H206.631V20.5226H206.638ZM113.601 19.8547V20.5226H113.933V19.8547H113.601ZM198.063 19.8547V20.8604H198.396V19.8547H198.063ZM366.972 19.8547V20.5226H367.305V19.8547H366.972ZM431.307 19.8547C431.686 20.2397 431.438 19.8547 431.639 20.5226H431.307V19.8547ZM451.435 19.8547V20.5226H451.767V19.8547H451.435ZM67.4141 20.1926V20.8604H67.7468V20.1926H67.4141ZM151.869 20.1926V20.8604H152.201V20.1926H151.869ZM320.786 20.1926V20.8604H321.118V20.1926H320.786ZM405.241 20.1926V20.8604H405.573V20.1926H405.241ZM172.329 20.5226C172.36 20.5933 172.801 21.7404 172.986 21.5282V21.1904H173.319C173.033 20.8447 172.747 20.7269 172.329 20.5226ZM257.441 22.204H258.098V21.5361H257.441L257.774 20.8683C257.441 20.7583 257.116 20.6483 256.784 20.5305V20.8683C257.232 21.2611 257.286 21.4811 257.441 22.2118V22.204ZM170.35 20.8604L170.682 21.8661H171.015C170.813 21.0647 170.906 21.2454 170.357 20.8604H170.35ZM254.804 20.8604C254.913 21.1982 255.021 21.5283 255.137 21.8661H255.469C255.268 21.0647 255.361 21.2454 254.812 20.8604H254.804ZM261.075 20.8604H260.418C260.696 21.2375 260.379 20.9076 260.751 21.1983V21.5361H261.083V20.8683L261.075 20.8604ZM391.392 22.204H392.049V21.5361H392.381C392.273 21.3161 392.165 21.0883 392.049 20.8683C391.678 21.1511 392.003 20.829 391.716 21.2062H391.384V22.2118L391.392 22.204ZM115.913 21.1983C116.291 21.5833 115.913 21.3318 116.57 21.5361C116.191 21.1511 116.57 21.4026 115.913 21.1983ZM171.997 21.1983V22.204H172.329V21.1983H171.997ZM256.451 21.1983V22.204H256.784V21.1983H256.451ZM262.722 21.1983H262.065C262.343 21.5754 262.027 21.2454 262.398 21.5361V21.874H262.73V21.2062L262.722 21.1983ZM300.991 21.1983V22.204H301.323V21.1983H300.991ZM385.453 21.1983V22.204H385.785V21.1983H385.453ZM51.5779 21.5282V22.1961H51.9106V21.5282H51.5779ZM67.0817 21.5282V22.1961H67.4141V21.5282H67.0817ZM151.544 21.5282V22.1961H151.877V21.5282H151.544ZM173.644 22.204V21.5361C173.273 21.8189 173.597 21.4968 173.311 21.874H172.979C173.358 22.259 172.979 22.0075 173.636 22.2118L173.644 22.204ZM235.999 21.5282V22.1961H236.331V21.5282H235.999ZM261.4 21.5282V23.5397H261.733V21.5282H261.4ZM303.627 21.5282V22.1961H303.96V21.5282H303.627ZM304.95 21.5282V22.1961H305.282V21.5282H304.95ZM320.453 21.5282V22.1961H320.786V21.5282H320.453ZM388.09 21.5282V22.1961H388.422V21.5282H388.09ZM389.412 21.5282V22.1961H389.745V21.5282H389.412ZM404.916 21.5282V22.1961H405.248V21.5282H404.916ZM58.8389 21.8661C59.2178 22.2511 58.8388 21.9997 59.496 22.204C59.1171 21.819 59.4962 22.0704 58.8389 21.8661ZM143.294 21.8661C143.672 22.2511 143.293 21.9997 143.951 22.204C143.572 21.819 143.951 22.0704 143.294 21.8661ZM396.665 21.8661C397.044 22.2511 396.665 21.9997 397.323 22.204C396.944 21.819 397.322 22.0704 396.665 21.8661ZM166.715 22.5339L167.048 23.5397H167.38C167.179 22.7383 167.272 22.9189 166.723 22.5339H166.715ZM251.178 22.5339C251.286 22.8718 251.394 23.2018 251.51 23.5397H251.843C251.642 22.7383 251.735 22.9189 251.186 22.5339H251.178ZM272.62 22.8718V23.5397H272.953V22.8718H272.62ZM64.1123 24.5454C63.8726 23.6183 64.0197 23.799 63.1227 23.5397C63.231 23.9875 63.3392 24.4353 63.4552 24.8832H64.445V25.2211C64.9089 25.2839 64.3212 24.9853 64.7774 24.8832H66.0997V23.5397C65.7285 23.2568 66.0533 23.5789 65.7672 23.2018H65.1099V23.5397H65.4425C65.5508 24.1447 64.6227 24.4197 64.1201 24.5454H64.1123ZM107.005 23.2096L106.672 23.8776C106.672 23.8776 107.631 23.3432 107.33 23.2096H106.997H107.005ZM360.376 23.2096L360.044 23.8776C360.044 23.8776 361.003 23.3432 360.701 23.2096H360.369H360.376ZM50.5882 24.8832H51.2455V24.5454C50.8743 24.2625 51.1992 24.5846 50.9131 24.2075H50.5804V24.8753L50.5882 24.8832ZM62.133 24.2154V24.8832C62.5041 24.6003 62.1793 24.9225 62.4654 24.5454H62.7978C62.419 24.1604 62.798 24.4118 62.1407 24.2075L62.133 24.2154ZM135.043 24.8832H135.7V24.5454C135.329 24.2625 135.654 24.5846 135.368 24.2075H135.035V24.8753L135.043 24.8832ZM146.595 24.2154V24.8832C146.966 24.6003 146.642 24.9225 146.928 24.5454H147.26C146.881 24.1604 147.26 24.4118 146.603 24.2075L146.595 24.2154ZM231.05 24.2154V24.8832C231.421 24.6003 231.096 24.9225 231.382 24.5454H231.715C231.336 24.1604 231.715 24.4118 231.058 24.2075L231.05 24.2154ZM388.422 24.8832H389.08V24.5454C388.708 24.2625 389.033 24.5846 388.747 24.2075H388.415V24.8753L388.422 24.8832ZM399.967 24.2154V24.8832C400.338 24.6003 400.013 24.9225 400.299 24.5454H400.632C400.253 24.1604 400.632 24.4118 399.975 24.2075L399.967 24.2154ZM56.8593 26.2268V25.5589L55.8695 25.8968L56.202 27.2403H55.8695V27.5782C55.0963 27.6882 54.3308 27.7981 53.5575 27.916V28.5839C53.9905 28.6468 55.6066 28.9924 55.8695 28.9217L56.202 28.2539L57.1918 28.5918C57.3 28.0339 57.4084 27.4761 57.5244 26.9182H57.8568C58.2357 26.5332 57.8567 26.7846 58.514 26.5803V27.2482H60.1611V26.5803H60.8183C60.6018 25.9125 60.3776 25.2367 60.1611 24.5689H59.8287L59.496 25.5746C59.0244 25.9125 57.5939 26.1796 56.8593 26.2424V26.2268ZM94.1378 24.5454V25.551H94.4702V24.5454H94.1378ZM49.931 25.2211V25.8889H50.2635V25.2211H49.931ZM101.399 25.2211V25.8889H101.731V25.2211H101.399ZM134.386 25.2211V25.8889H134.718V25.2211H134.386ZM218.84 25.2211V25.8889H219.173V25.2211H218.84ZM316.827 25.2211C317.206 25.6061 316.827 25.3546 317.484 25.5589C317.105 25.1739 317.484 25.4254 316.827 25.2211ZM354.77 25.2211V25.8889H355.103V25.2211H354.77ZM387.757 25.2211V25.8889H388.09V25.2211H387.757ZM87.8668 25.551C88.2457 25.936 87.9982 25.5511 88.1993 26.219H87.8668V25.551ZM171.997 25.8889C172.368 26.4625 172.205 26.3446 172.986 26.5568C172.7 26.211 172.414 26.0932 171.997 25.8889ZM209.608 26.5568H210.265V26.219C209.894 25.9361 210.219 26.2582 209.932 25.8811H209.6V26.5489L209.608 26.5568ZM87.2095 26.2268H87.8668V26.5646C87.2018 26.376 87.5806 26.604 87.2095 26.2268ZM179.258 26.2268C179.636 26.6118 179.389 26.2268 179.59 26.8946H179.258V26.2268ZM268.004 27.5625H267.346V26.219H267.014V26.5568C266.635 26.9417 266.883 26.5567 266.682 27.2246C267.014 27.4446 267.339 27.6725 267.671 27.8925C267.949 28.2696 267.633 27.9396 268.004 28.2303V27.5625ZM176.288 26.5568V27.2246H176.621V26.5568H176.288ZM68.0715 27.2324V27.9004H68.4039V27.2324H68.0715ZM152.534 27.2324V27.9004H152.866V27.2324H152.534ZM225.444 27.5625C225.823 27.9475 225.444 27.6961 226.101 27.9004C225.722 27.5154 226.101 27.7668 225.444 27.5625ZM108.319 28.5682V27.9004C107.948 28.1832 108.273 27.861 107.987 28.2382H107.654C108.033 28.6232 107.654 28.3718 108.312 28.5761L108.319 28.5682ZM277.236 28.5682V27.9004C276.865 28.1832 277.19 27.861 276.904 28.2382H276.571C276.95 28.6232 276.571 28.3718 277.229 28.5761L277.236 28.5682ZM78.9589 29.2439V29.9117H79.2914V29.2439H78.9589ZM85.5624 29.2439V29.9117H85.895V29.2439H85.5624ZM60.8183 29.5739V30.2418H61.1509V29.5739H60.8183ZM87.2095 30.2496C87.194 31.6089 87.0549 31.6953 87.8668 32.261V31.9232C87.3101 31.2003 88.1219 30.3046 88.524 29.5739H88.1915C87.8204 30.1475 87.9827 30.0296 87.2017 30.2418L87.2095 30.2496ZM93.148 29.5739C93.5269 29.9589 93.1481 29.7074 93.8054 29.9117C93.4265 29.5267 93.8053 29.7782 93.148 29.5739ZM110.299 29.5739C110.191 29.9118 110.082 30.2417 109.966 30.5796H110.299V30.2418C110.438 30.0453 110.84 30.1946 110.631 29.5739H110.299ZM145.273 29.5739V30.2418H145.606V29.5739H145.273ZM256.127 30.2496C256.111 31.6089 255.972 31.6953 256.784 32.261V31.9232C256.227 31.2003 257.039 30.3046 257.441 29.5739H257.109C256.737 30.1475 256.9 30.0296 256.119 30.2418L256.127 30.2496ZM262.065 29.5739C262.444 29.9589 262.065 29.7074 262.722 29.9117C262.343 29.5267 262.722 29.7782 262.065 29.5739ZM114.59 29.9117V30.5796H114.923V29.9117H114.59ZM151.544 30.5796H152.201V30.2418C151.83 29.9589 152.155 30.281 151.869 29.9039H151.536V30.5717L151.544 30.5796ZM199.053 29.9117V30.5796H199.385V29.9117H199.053ZM228.413 29.9117C228.792 30.2967 228.545 29.9117 228.746 30.5796H228.413V29.9117ZM155.828 30.2496C155.72 30.4696 155.611 30.6975 155.495 30.9174L156.153 31.2552C156.392 30.8545 155.457 30.9646 156.153 30.2496H155.82H155.828ZM115.248 30.5796L114.915 31.5853H115.248V30.9174H115.58V30.5796H115.248ZM199.71 30.5796L199.378 31.2474C199.378 31.2474 200.336 30.7131 200.035 30.5796H199.702H199.71ZM26.5014 31.9232H27.1587V31.5853C26.7876 31.3024 27.1122 31.6245 26.8261 31.2474H26.4937V31.9153L26.5014 31.9232ZM212.244 31.9232H211.587C211.866 32.3003 211.549 31.9703 211.92 32.261V32.5989H212.252V31.931L212.244 31.9232ZM37.7213 32.591V33.2588H38.0538V32.591H37.7213ZM85.2299 32.591V33.9345H85.5624V33.5967H85.895C85.7867 33.3767 85.6783 33.1488 85.5624 32.9288H85.895C85.5161 32.5438 85.8949 32.7953 85.2377 32.591H85.2299ZM206.638 32.591V33.2588H206.971V32.591H206.638ZM256.451 32.591C256.072 32.976 256.451 32.7245 255.794 32.9288V33.2667H256.451C256.559 33.0467 256.668 32.8189 256.784 32.5989H256.451V32.591ZM102.713 33.5967L102.381 34.2646C102.381 34.2646 103.34 33.7303 103.038 33.5967H102.705H102.713ZM90.1788 34.2724V34.9403H90.5113V34.2724H90.1788ZM97.4396 34.2724V34.9403H97.7721V34.2724H97.4396ZM81.9281 34.9403H82.5855C82.3148 35.3802 82.3534 35.3331 81.9281 35.6081V35.946H81.5957L81.9281 34.9403ZM93.4807 34.9403L93.148 35.6081C93.148 35.6081 94.1069 35.0738 93.8054 34.9403H93.4729H93.4807ZM68.0715 36.2838V36.9516H68.4039V36.2838H68.0715ZM42.6701 37.9573V38.6252H43.0027V37.9573H42.6701ZM49.931 38.2952V39.3009H51.2532V39.9688H52.243C52.5137 39.5288 52.4749 39.5758 52.9002 39.3009V38.2952C51.5238 38.5388 51.5162 38.3817 49.931 38.2952ZM23.2073 38.9631C23.5862 39.348 23.2074 39.0966 23.8647 39.3009C23.4858 38.9159 23.8646 39.1673 23.2073 38.9631ZM91.5011 39.3009V39.9688H91.8335V39.3009H91.5011ZM9.67542 44.6594C9.56716 44.9973 9.45896 45.3273 9.34297 45.6651H9.67542V44.9972H10.0079V44.6594H9.67542ZM52.2353 44.9972V45.6651H52.5677V44.9972H52.2353Z" fill="#FDE6AD"/>
</svg>
