<svg width="553" height="64" viewBox="0 0 553 64" fill="none" xmlns="http://www.w3.org/2000/svg">
<path fill-rule="evenodd" clip-rule="evenodd" d="M136.282 0.817737C138.199 1.23508 138.483 2.30268 140.712 2.47738C141.033 1.84651 141.514 0.905023 142.723 1.23502V1.65242C143.752 2.04065 143.176 1.23512 143.932 2.06982H144.338V3.72946L145.14 4.14675V4.97183H145.546C145.679 5.38918 145.811 5.79673 145.952 6.21408H144.338V7.45644C143.223 7.75732 143.44 7.57294 143.129 8.69881C141.722 9.04822 141.25 9.74706 139.503 9.94117C139.531 11.0282 139.663 11.3485 139.909 12.0085C138.53 11.9017 136.745 11.6785 136.689 11.5911V12.4161H137.095C138.37 12.4258 135.886 12.8335 135.886 12.8335C135.376 12.1832 134.81 11.824 133.875 11.5911C133.27 12.717 132.477 13.3576 131.051 13.6584V12.8335L130.248 13.2508C130.012 13.8816 129.937 13.9302 129.842 14.9105C128.992 14.9785 127.406 15.2793 127.019 15.7355C126.528 16.3178 127.378 16.1917 126.216 16.9778V15.3181H125.81V16.9778H124.601V16.1528C123.987 16.3954 123.94 16.4731 122.987 16.5702V15.7452L121.778 16.1625C121.513 16.871 121.391 17.4631 121.372 18.6472H119.36C119.36 18.6472 118.954 19.3072 118.557 19.4722V19.8896H118.151V19.0645H117.349V18.6472H116.943V19.0645H115.734V19.4819C115.035 20.1225 114.884 21.423 114.525 22.3839C113.043 22.2383 111.872 21.656 110.899 22.8013C110.767 23.2187 110.635 23.6262 110.493 24.0436C109.417 24.1794 108.34 24.3154 107.273 24.461V24.8784L106.47 25.2956V26.1206L105.262 25.7033L104.856 26.5283H103.647C103.581 26.5671 103.174 27.1494 102.844 27.3532V27.7706C102.174 27.6348 101.503 27.4988 100.833 27.3532V26.936C100.597 26.9069 99.4538 27.6348 98.8211 27.7609C98.5473 28.5471 98.3017 30.2941 98.0184 31.0705L96.8098 30.6532V30.2358C96.2527 30.1291 96.9702 30.5368 96.4036 30.6532C95.4404 30.8473 95.3649 30.3426 94.7888 30.2358L93.9863 31.4782H92.3713V31.8956L91.1628 32.3129V33.5552H91.9653V33.9726H91.5593C91.3421 34.1668 88.3296 35.0209 88.339 33.9726H87.933V34.7976L85.9217 34.3802C85.9406 35.8652 85.8272 36.9911 85.119 37.6899V37.2725H84.713V35.6129H83.9102C83.8819 36.6999 83.7497 37.0202 83.5042 37.6802C82.6637 37.4278 81.861 37.2144 81.0867 38.0976V38.9226H80.6807V39.3398L78.2631 38.9226C78.1309 39.1943 77.9988 39.4758 77.8571 39.7475C77.3189 39.8834 76.7806 40.0193 76.2424 40.1649V40.9899H74.6276V41.8149C73.6644 41.6207 73.3621 41.3393 72.6161 40.9899V43.0572C71.6718 43.1931 70.7369 43.3289 69.7926 43.4745V43.8919C68.6122 44.1734 68.4705 44.348 68.1778 45.5515C68.7444 45.5807 68.1211 45.4837 68.5838 45.1343C69.2165 44.6587 68.9615 46.1533 68.9898 46.3765C68.3004 46.8424 68.4422 46.6386 68.1872 47.6189C68.7255 47.483 69.2637 47.3472 69.802 47.2016L70.208 46.3765C70.2836 46.3668 71.1523 46.7648 71.8228 46.7939V45.9689C72.2288 46.1048 72.6255 46.2406 73.0315 46.3862L73.4378 45.5613C73.9288 45.3186 74.6181 45.338 75.0525 45.1439V43.4842C76.0063 43.3192 77.2715 42.6981 78.6786 43.0669V43.4842H80.2936V43.0669H81.0961V41.4072H81.8989V42.2321C83.1076 41.9604 84.3162 41.6789 85.525 41.4072L85.9312 41.8246C87.036 41.0287 86.2993 40.4076 88.3485 40.1649C88.8112 40.6405 88.3486 40.3299 89.1512 40.5822V39.3398L91.1628 38.9226V38.0976C92.4943 38.3208 92.9946 38.6217 93.5801 38.0976H93.9863C94.4962 37.457 93.5519 37.2629 94.3923 36.8552V37.2725H94.7983V36.0303C95.686 35.8847 96.8852 35.4867 98.0184 36.0303C98.1506 36.302 98.2829 36.5835 98.4246 36.8552H99.2271V36.0303C100.039 36.2632 99.5766 35.9817 100.03 36.4475L101.239 36.0303V35.6129H102.447C102.712 35.1955 102.986 34.7878 103.25 34.3705C103.92 34.5064 104.591 34.6423 105.262 34.7879V35.2052C105.554 35.2634 106.744 34.8364 108.085 34.7879L107.679 33.5455H108.482V33.9629H110.096L110.503 34.3802V33.9629L111.711 33.5455C111.683 32.4585 111.551 32.1382 111.305 31.4782H113.723C114.185 31.0026 113.723 31.3133 114.525 31.0609C114.837 29.8186 114.771 29.9738 116.14 29.8186C116.593 30.5271 116.395 30.3815 117.349 30.6435C117.755 29.605 118.18 28.4792 118.964 28.9839H119.37V30.2261H120.172C120.465 29.0808 120.286 29.3042 121.381 28.9839V28.5665L123.799 28.1492C123.799 28.1492 123.978 28.7509 124.601 28.5665L125.007 27.7415H126.216V26.9165L127.019 27.3338V27.7512C127.548 27.955 127.104 27.5571 127.425 27.3338C128.435 27.0524 128.076 27.1203 128.634 26.5089H129.04V25.6839L129.842 25.2665C130.315 24.7424 130.522 24.063 131.051 23.6068V24.0242H132.26C132.392 24.5775 132.524 25.1307 132.666 25.6839H133.072C134.054 23.9951 135.329 24.1504 137.501 23.6166C137.623 23.5874 137.605 23.0439 138.303 23.1992V23.6166C139.106 23.8883 139.918 24.1698 140.721 24.4415V24.0242H141.127L140.721 22.7819C140.985 22.646 141.259 22.5101 141.524 22.3645C142.081 21.5007 141.344 21.7821 142.326 21.1221V20.7048L144.338 20.2874C144.12 21.4424 144.026 20.3263 144.338 21.5298H144.744V20.7048C145.547 20.8407 146.358 20.9765 147.161 21.1221V20.7048C147.596 20.3263 147.237 20.7727 147.567 20.2874H147.161V19.8701H148.37C148.455 20.8504 148.54 20.8989 148.776 21.5298C149.239 21.0542 148.937 21.5298 149.182 20.7048C149.645 20.2292 149.343 20.7049 149.588 19.8799C150.797 19.4625 152.006 19.0548 153.214 18.6375L153.62 19.0549C153.753 17.7155 153.989 17.8417 154.423 16.9876H155.226V17.4048H155.632V16.9876H157.247L157.653 15.7452C158.701 16.182 159.352 16.5022 160.873 16.5702C160.741 16.2984 160.608 16.017 160.467 15.7452C160.741 15.289 162.733 15.1628 163.29 14.5028L162.884 13.6779H163.29V13.2605C164.357 13.7458 164.811 14.0563 166.51 14.0854V13.6682H166.104V12.4258C167.379 12.6975 166.917 13.0566 167.313 13.2508C167.785 13.2216 168.749 12.4161 169.731 12.8335L170.137 13.6584H170.939C170.552 15.0269 170.562 16.0945 171.345 17.3854H170.939C170.477 17.861 170.939 17.5505 170.137 17.8028V19.8701H169.731C169.627 20.5593 170.108 20.5883 170.137 20.6951V22.7624C168.692 22.8207 167.851 23.3545 166.917 23.5874L166.114 23.1701C165.849 23.5875 165.575 23.995 165.311 24.4124C165.084 24.5094 163.111 24.1019 162.488 23.9951C162.242 25.0821 161.345 26.1886 160.07 26.0624C160.07 26.0624 159.853 25.5383 159.267 25.645L159.673 26.47H158.059C157.927 27.1591 157.794 27.8482 157.653 28.5373L155.641 28.12L155.235 28.945C154.149 29.2265 154.178 28.1492 154.026 28.12L152.818 28.5373L153.224 28.9547C153.243 29.1197 152.865 29.8864 152.818 30.6144C151.477 30.7503 150.136 30.8862 148.785 31.0318V30.2068C147.832 30.1195 147.784 30.032 147.171 29.7894V31.0318C147.086 31.2065 144.404 33.1185 145.962 33.9338H144.753V33.5164C144.366 32.7496 144.347 34.3415 144.347 34.3415C143.894 34.6909 144.29 34.2929 143.941 34.7587C145.074 34.3705 145.065 34.322 146.359 34.7587V35.1761L147.567 34.7587L147.161 34.3415L147.567 33.0991C149.456 33.8464 150.702 33.3418 151.996 32.2741C152.128 32.0024 152.261 31.7208 152.402 31.4491H154.414C154.414 31.4491 154.376 31.2065 155.216 31.0318V32.2741H155.622V31.4491C157.341 31.4199 158.295 31.3617 159.249 30.6241L159.655 29.7991C160.325 29.935 160.996 30.0709 161.666 30.2165C161.203 29.7409 161.666 30.0515 160.863 29.7991V28.9742C161.269 29.11 161.666 29.2458 162.072 29.3914V28.5665H162.875V29.3914C165.207 29.1973 166.879 27.8483 168.512 26.9068V28.1492H169.315V27.3241H172.139V26.9068H173.347V26.4894C174.15 26.6253 174.962 26.7612 175.765 26.9068C176.105 26.4409 175.718 26.8485 176.171 26.4894V24.8298C176.973 24.6939 177.786 24.558 178.588 24.4124C178.456 24.8297 178.324 25.2374 178.182 25.6547H178.588V26.0721C179.042 25.7227 178.645 26.1206 178.994 25.6547C179.457 25.1792 179.155 25.6548 179.401 24.8298C180.033 24.8589 182.224 25.2471 182.224 25.2471V24.8298H182.63V23.5874C183.074 23.0051 184.443 23.1604 185.454 23.1701V23.5874L187.871 23.1701V22.7527H188.674V22.3353H189.882L189.476 23.5777H189.882C190.175 22.4324 189.996 22.6556 191.091 22.3353V23.1604C191.497 23.0245 191.894 22.8886 192.3 22.743V22.3257C193.244 22.1899 194.179 22.0539 195.124 21.9083V21.4909H196.332L196.738 20.666C197.078 20.5301 199.392 21.1027 199.959 21.4909V20.666L201.167 20.2487V19.8313C201.715 19.6566 201.007 20.1322 201.573 20.2487C202.244 20.3846 202.291 19.8507 202.376 19.8313C203.112 19.676 203.934 20.3748 204.387 20.6563V20.239C205.643 19.0646 204.482 18.4822 206.805 18.1716V18.5889H208.014L207.607 19.414C208.127 20.0837 208.363 18.9577 208.816 20.6563C209.345 20.2195 209.421 19.8119 210.025 19.414V20.6563H210.828C210.696 19.8313 210.563 18.9966 210.422 18.1716C212.31 17.5116 211.781 18.4919 212.839 16.1043H213.245C213.198 16.9875 212.83 17.5213 212.839 17.764L213.245 18.1814C213.982 17.6572 213.292 17.6184 213.651 17.3564C214.114 17.007 213.906 17.7348 214.057 17.7737C214.463 17.6378 214.86 17.502 215.266 17.3564V16.5313C216.173 16.3663 216.815 15.852 218.09 16.114C218.09 16.114 218.108 16.6575 218.892 16.5313V16.114H220.904V16.5313C219.94 16.7837 220.158 16.6673 219.695 17.3564H220.498C221.659 15.3861 223.595 16.0752 225.739 15.2891L226.145 14.0467C227.297 14.0467 227.873 14.1922 228.562 14.464V12.8043H228.968C229.233 13.2217 229.506 13.6293 229.771 14.0467H230.177L229.771 14.8717H230.177V15.2891C231.329 16.1432 231.216 14.5513 231.792 16.5313H232.594V17.3564H233.397C233.265 17.7737 233.133 18.1813 232.991 18.5986H233.397C233.671 19.2198 233.68 19.2878 233.803 20.2584H234.606V21.0834C235.229 21.4522 235.446 21.6949 235.815 22.3257C237.118 21.5978 236.58 21.3357 238.232 21.9083L237.826 20.666H238.629V19.841H239.431V20.2584H239.837V19.841L241.046 20.2584L240.64 21.5006H241.443C241.736 20.3554 241.556 20.5787 242.652 20.2584C243.256 19.5305 243.738 19.4721 245.069 19.4333V18.6084C245.872 18.3366 246.684 18.0551 247.486 17.7834C247.515 18.8704 247.647 19.1907 247.893 19.8507C248.346 19.5013 247.949 19.8992 248.299 19.4333H248.705V18.1911C249.913 18.327 251.122 18.4628 252.331 18.6084V17.7834H253.133L253.54 16.541C254.078 16.6769 254.616 16.8128 255.154 16.9584C255.287 16.6867 255.419 16.4052 255.56 16.1335L257.572 16.5507V17.3757C258.601 16.7351 260.348 14.8037 261.604 15.7161H262.407V16.541H262.813V15.7161C264.749 15.6093 264.758 15.4249 266.439 15.7161C266.571 15.0269 266.703 14.3378 266.845 13.6487C268.705 13.2896 270.113 13.2896 271.274 13.6487V12.8238H273.691V13.241H274.9V13.6584C275.306 13.5226 275.703 13.3866 276.109 13.241V12.8238C275.646 12.3482 275.948 12.8238 275.703 11.9988C277.025 12.0279 276.893 12.5229 277.714 11.9988L278.121 11.1737L280.538 11.9988V12.8238C281.624 12.8238 282.823 12.9596 283.361 12.4064V11.5814L284.164 11.9988V11.5814C284.967 11.4455 285.779 11.3097 286.582 11.1641C286.959 11.4165 286.44 11.7561 286.988 11.5814L287.394 10.7564C287.904 10.7564 288.423 11.494 289.405 11.1737V10.7564C290.076 10.6205 290.746 10.4846 291.416 10.339L291.01 11.5814H291.416C292.314 12.5811 292.172 12.1638 293.428 11.9988C293.381 13.3091 292.644 12.7752 293.834 13.241C294.013 14.2698 294.202 14.765 294.24 16.1432C293.126 16.444 293.343 16.2595 293.031 17.3854H292.625V19.4527C291.662 19.6469 291.36 19.9283 290.614 20.2777V19.0355H290.208C289.613 21.3551 289.509 19.8895 288.196 20.6951V21.1125L286.582 22.3548C286.714 21.9374 286.846 21.5299 286.988 21.1125H286.582C286.336 21.7725 286.223 22.0928 286.175 23.1798C284.655 23.5098 283.919 23.9854 281.747 24.0048V23.1798H280.944V24.0048H278.932V24.4221H279.338C279.084 25.0141 278.866 24.7327 278.536 25.2471H277.733L278.139 24.4221H277.733C277.337 24.985 277.497 25.2374 276.524 25.2471C276.524 25.2471 276.241 24.6551 275.722 24.8298C275.59 25.1015 275.457 25.383 275.316 25.6547H274.513L274.107 28.1395L272.492 28.5568V26.8971H271.69C271.397 28.2268 271.142 28.4015 269.678 28.5568L270.084 27.3144H269.678C269.527 27.79 269.565 28.7897 268.876 28.5568L268.469 27.3144C268.063 27.4503 267.667 27.5862 267.261 27.7318V28.5568C266.619 28.3044 266.307 28.188 265.249 28.1395V26.8971H264.843V28.1395C265.306 28.6151 265.004 28.1394 265.249 28.9644C264.305 29.1003 263.37 29.2361 262.426 29.3817V30.2068C261 30.3621 261.198 30.7212 260.008 31.0318V32.2741C259.026 32.0412 259.121 31.8373 258.393 31.4491V32.2741H257.987V33.5164H258.393V32.6914H259.196V33.5164C259.867 33.3805 260.537 33.2447 261.207 33.0991V34.3415H262.01V33.0991C262.681 33.235 263.351 33.3708 264.022 33.5164C264.21 32.5264 264.484 32.2158 264.824 31.4491C266.137 31.4588 267.733 31.2647 268.451 31.8665H268.857C268.989 31.5947 269.121 31.3132 269.263 31.0415H270.065V30.6241H270.868V30.2068L271.671 30.6241V30.2068H275.703C275.571 29.7895 275.439 29.3818 275.297 28.9644H276.1V28.547H276.506V28.9644L277.714 29.3817C277.743 29.9641 277.809 29.4982 277.308 29.7991C277.762 30.2359 277.308 29.9836 278.111 30.2165V29.7991H278.517V28.5568H278.923C279.272 27.9841 279.225 27.8386 279.329 26.8971C280.283 26.8486 280.349 26.7709 280.944 26.4797V26.8971H281.35V27.3144L280.944 28.1395H282.153V27.3144C283.097 27.1785 284.032 27.0427 284.976 26.8971V27.3144H285.382C285.836 26.9844 285.231 26.7709 285.788 26.8971V27.3144H287.403V28.1395H287.809C287.942 27.3145 288.074 26.4797 288.215 25.6547H289.018V26.4797H289.424V25.2375C290.349 25.2763 290.472 25.5868 291.039 25.6547L291.445 24.8298C291.445 24.8298 292.55 25.2179 293.06 25.2471V24.4221L293.466 24.8395C294.004 24.7036 294.542 24.5677 295.081 24.4221V24.8395H297.092V23.5971H297.895V24.0145H298.301V23.5971L299.103 24.0145L299.509 22.7722C300.576 22.3645 300.35 23.6748 301.124 23.5971V23.1798C302.89 22.7528 303.343 22.1607 305.156 21.9375V22.3548H304.75C303.986 22.7139 305.553 22.7722 305.553 22.7722C305.893 23.238 305.506 22.8303 305.959 23.1894V22.3645L307.971 21.9472C308.103 21.6754 308.235 21.3939 308.377 21.1221L308.783 21.5395C311.172 21.6948 311.484 20.6757 312.815 19.8799V21.1221H313.221C313.684 20.6465 313.221 20.9572 314.024 20.7048V19.8799C314.43 20.0157 314.826 20.1516 315.232 20.2971L315.639 19.4722H317.253V19.0549H317.659C317.905 20.0449 317.792 19.8216 318.462 20.2971V19.0549C320.577 18.7055 320.247 19.0063 322.088 19.8799C322.296 18.9093 322.674 18.3269 323.297 17.8125C323.76 18.2881 323.297 17.9775 324.1 18.2298V17.4048H325.308V16.5799C325.979 16.7158 326.649 16.8516 327.32 16.9972V17.8222H328.123V16.5799C329.001 16.6381 329.463 16.9972 329.737 16.9972V16.5799L330.946 16.1625C331.078 16.4342 331.21 16.7158 331.352 16.9876C332.636 17.3758 334.563 16.1237 335.384 15.7452L334.978 14.5028H336.187C336.433 15.4928 336.319 15.2696 336.99 15.7452C337.33 16.2111 336.943 15.8034 337.396 16.1625C337.424 15.0754 337.556 14.7551 337.802 14.0951C338.605 13.9593 339.417 13.8235 340.219 13.6779C340.559 14.1437 340.172 13.736 340.625 14.0951C340.314 14.5125 340.134 14.5029 339.823 14.9202H341.031L340.625 13.6779L341.031 13.2605C341.626 13.4546 341.674 13.7361 342.646 13.6779V13.2605H343.052V13.6779C343.591 13.8137 344.129 13.9496 344.667 14.0951V14.5125C346.31 15.1531 347.056 14.2117 347.887 14.9299C349.143 15.7841 348.076 15.4637 348.69 16.5896L349.493 17.0069V17.832H349.899C350.267 18.3949 350.201 18.5599 350.305 19.4916L348.69 19.0742C349.011 20.4136 349.436 20.501 349.493 22.3839C349.039 22.7333 349.436 22.3354 349.087 22.8013H348.681C348.558 21.559 348.624 21.6754 347.878 21.1415V21.5589H348.284C348.019 22.1122 347.746 22.6654 347.481 23.2186C346.433 23.238 346.093 23.306 345.47 23.636V24.0533C344.78 24.2959 344.771 23.6651 344.667 23.636C343.222 23.2575 342.306 24.1601 341.844 24.8784H341.437C341.305 25.7033 341.173 26.538 341.031 27.363H340.229L339.823 26.538C339.284 26.6739 338.746 26.8097 338.208 26.9553C338.293 27.9356 338.378 27.9842 338.614 28.615C337.679 28.5762 337.585 28.285 336.999 28.1976L336.593 29.0226C336.055 29.1585 335.517 29.2944 334.978 29.44C334.686 30.5853 334.865 30.3621 333.77 30.6824C332.353 31.9927 331.163 30.1582 330.946 30.265V30.6824C330.276 31.0997 329.605 31.5073 328.935 31.9246C329.152 33.3708 329.331 32.6914 328.935 33.992H329.341V33.5747H330.956V34.3996L332.164 33.9822V33.565L333.373 33.9822V32.74C333.779 32.8759 334.176 33.0117 334.582 33.1573V32.74L334.176 32.3226H336.593C336.725 32.7399 336.857 33.1476 336.999 33.565C337.264 33.4291 337.802 32.74 337.802 32.74C338.208 32.8759 338.605 33.0117 339.011 33.1573V32.74C339.606 32.4197 339.681 32.4294 340.625 32.3226V31.4976H341.428V30.6727H343.043V31.4976C343.949 31.3909 344.11 31.4588 344.658 31.0802V30.6629H345.46V30.2455H346.263V29.8283C346.981 29.2362 347.226 28.8965 348.274 28.5859V29.8283H349.889C350.022 29.1392 350.154 28.45 350.295 27.7609H351.098C350.966 28.1783 350.833 28.586 350.692 29.0033H351.098C351.674 28.4112 353.345 27.9453 354.318 27.7609V26.936C354.856 26.8001 355.395 26.6642 355.933 26.5186V25.2762H356.736V26.5186H357.538V25.2762H359.55C359.418 25.6936 359.285 26.1012 359.144 26.5186H359.946C360.362 26.043 360.692 25.7227 361.561 25.6936V26.1109H361.967L362.373 25.6936C362.751 24.9463 362.93 25.0432 363.176 24.0338L364.385 23.6166V23.1992L364.791 23.6166L365.999 23.1992V24.4415H366.802C366.887 23.4612 366.972 23.4127 367.208 22.7819L368.011 23.1992V22.7819C368.587 22.2675 368.634 21.6365 369.22 21.1221C369.342 21.3162 370.041 22.6265 370.428 22.3645L370.834 21.1221C372.581 20.9862 374.328 20.8504 376.075 20.7048V21.1221C374.961 21.423 375.178 21.2386 374.867 22.3645C375.868 22.1801 376.349 21.986 377.69 21.9472V21.5298H377.284V19.4625C377.955 19.5983 378.625 19.7343 379.296 19.8799C379.428 19.4625 379.56 19.0548 379.702 18.6375C380.164 19.1131 379.862 18.6375 380.108 19.4625L381.316 19.8799V19.4625C382.147 18.9966 382.044 18.8219 383.328 18.6375V17.3951C384.187 17.3466 384.706 16.9681 384.943 16.9778L385.349 17.3951V16.5702L387.36 16.1528V16.9778C387.625 16.842 387.898 16.706 388.163 16.5605V16.1432C388.805 16.0655 388.663 16.8614 388.965 16.9681H390.58C390.712 16.279 390.845 15.5899 390.986 14.9008C391.657 15.0367 392.327 15.1725 392.998 15.3181L393.404 14.4931H393.81V14.9105C394.216 14.7746 394.612 14.6387 395.018 14.4931V13.6682C395.481 14.1437 395.179 13.6681 395.425 14.4931H396.227C396.416 13.5031 396.69 13.1925 397.03 12.4258C398.371 12.4452 400.656 12.8432 400.656 12.8432V12.4258H401.459V12.0085H402.668C402.8 11.7367 402.932 11.4552 403.074 11.1834C403.48 11.3193 403.876 11.4552 404.282 11.6008V12.0182H406.294V11.1931L407.909 10.7759V11.6008H408.711C408.966 12.7364 409.24 12.5423 409.514 13.6682H410.723C411.015 14.8134 410.836 14.5902 411.931 14.9105V15.7355C409.523 16.2402 409.845 17.3951 409.108 19.4625H411.526L411.931 17.8028C413.612 17.5408 413.074 17.3952 414.755 16.9778V17.8028C416.663 16.9778 416.379 16.9778 417.975 17.8028V16.9778C418.513 16.842 419.052 16.706 419.59 16.5605V15.7355H420.393V16.1528H420.799V15.7355C421.715 15.5511 421.885 15.9489 422.413 16.1528V15.7355H422.007C421.261 15.3375 422.81 15.3181 422.81 15.3181V14.4931H423.613V13.6682C424.878 13.9108 425.407 14.3378 426.833 14.4931L427.239 13.2508C427.239 13.2508 426.38 13.1829 426.833 12.8335H427.636V13.2508H430.053V12.0085C431.337 12.2803 430.846 12.6199 431.262 12.8335C431.932 12.7655 432.008 12.0182 432.065 12.0085C432.839 11.7853 432.622 12.2802 432.867 12.4258H433.273V12.0085C433.811 12.1444 434.35 12.2802 434.888 12.4258C435.181 11.2805 435.001 11.5037 436.097 11.1834V12.0085H437.712C438.089 11.2612 438.269 11.3581 438.514 10.3487L439.723 10.7661V10.3487C439.987 10.2129 440.261 10.077 440.526 9.93146V10.7564H441.328L440.922 9.51406C441.885 9.31994 442.188 9.0385 442.934 8.68909V10.3487C445.03 9.78581 444.369 9.43647 446.966 9.93146V8.68909H448.175V9.10649C448.005 9.34914 447.514 9.1647 447.769 9.93146H448.175C448.826 7.36914 449.034 9.23256 450.592 8.27169C451.508 7.70876 450.564 6.74788 452.604 6.20436V6.62176L453.812 6.20436V7.02945H454.218V6.20436C455.644 6.35965 455.446 6.71886 456.636 7.02945V7.85441C457.013 8.5047 459.516 8.62117 458.251 9.92174H459.053V11.5814L458.251 11.9988C458.232 12.1347 458.628 12.9208 458.657 13.6584H459.459C459.27 14.6484 458.997 14.959 458.657 15.7258C457.939 15.7646 457.203 16.1626 457.042 16.1432V15.7258H455.427V16.1432L453.01 16.5605V17.3854C452.471 17.6572 451.933 17.9386 451.395 18.2104V17.7931H450.989V19.0355L448.165 19.8604C448.628 20.336 448.165 20.0254 448.968 20.2777V20.6951C449.676 21.0348 450.262 20.4524 450.583 20.2777V19.8604H451.791V19.0355C453.671 18.9384 454.086 18.4337 455.418 17.7931V17.3757H458.241V17.7931H457.835C457.372 18.2687 457.835 17.958 457.033 18.2104V19.0355C458.676 18.5502 457.458 18.6569 458.241 17.7931L459.044 18.2104V17.7931H459.847V17.3757H461.055C461.48 17.1234 462.056 15.3278 463.067 15.7161V16.1335H463.869V14.8911C464.276 15.027 464.672 15.1628 465.078 15.3084V14.8911C465.881 14.7552 466.693 14.6193 467.496 14.4737V15.2987H468.298C468.43 15.716 468.563 16.1237 468.704 16.541H469.111V15.7161H469.913C470.149 14.1728 470.149 14.765 469.913 13.2314C470.036 13.28 473.794 14.1341 473.945 14.0564V13.639H474.351V11.9794H474.758C475.579 12.7364 476.589 12.0958 477.978 11.9794V11.1544C478.79 11.3873 478.327 11.1058 478.78 11.5717C480.263 11.1349 479.885 10.737 480.792 9.91203V9.49463C481.812 8.84434 483.974 9.46551 485.627 9.49463C485.882 8.35906 486.155 8.55317 486.429 7.4273C488.157 7.35936 487.808 7.16527 488.847 6.60233V7.8447H490.462C490.547 6.86442 490.632 6.81592 490.868 6.18505L492.076 6.60233L492.483 5.77737H493.285V5.35997C493.691 5.22409 494.088 5.08827 494.494 4.94268L494.9 6.18505C495.92 5.34065 495.07 5.18533 496.911 4.94268V5.35997C496.449 5.73849 496.439 5.66094 496.109 6.18505H496.515V6.60233C497.355 6.14616 497.232 5.93266 498.526 5.77737C498.866 6.24324 498.479 5.83565 498.932 6.19477C498.46 6.98093 498.592 6.59268 497.723 7.01973V7.43701H498.526C498.394 8.262 498.262 9.09675 498.12 9.92174H498.526V10.339H498.12V11.1641C498.252 12.1347 498.385 13.0955 498.526 14.0661H498.12C497.78 14.5417 497.912 14.6484 497.317 14.8911V14.4737H496.911C496.647 14.891 496.373 15.2987 496.109 15.7161H494.9L494.494 16.541C493.956 16.6769 493.417 16.8128 492.879 16.9584C492.747 17.3758 492.615 17.7834 492.473 18.2008L491.264 18.6181L490.858 19.443H490.452V19.0258C488.97 18.6666 488.507 20.433 487.629 19.443V20.2681H486.826C486.958 20.8213 487.09 21.3745 487.232 21.9278H486.826C486.373 22.6363 486.571 22.4907 485.617 22.7527C485.58 22.6654 485.041 21.2483 484.815 21.5104V21.9278L484.012 22.345C483.88 22.7624 483.747 23.1701 483.606 23.5874H482.397C481.047 24.2668 481.868 24.6842 479.573 24.8298C479.706 25.2471 479.838 25.6548 479.98 26.0721C480.518 25.9363 481.056 25.8003 481.594 25.6547V26.8971H482V26.4797H483.615C484.843 26.0041 485.41 25.3248 487.242 25.2375V24.4124C488.384 24.1503 488.309 23.6456 488.45 23.5874H490.065V24.0048L491.68 23.5874C491.68 23.5874 491.859 24.1019 492.483 24.0048V23.5874L494.097 24.0048V23.5874C494.56 23.1118 494.258 23.5874 494.503 22.7624H494.097V23.1798C493.748 23.966 493.691 22.3548 493.691 22.3548C495.164 22.4906 496.647 22.6266 498.12 22.7722L498.526 21.9472C498.932 21.821 499.263 22.5877 500.141 22.3645V21.9472H502.152V22.3645H502.558V21.9472H504.173L504.579 20.7048H504.985L504.579 19.8799H505.788C506.251 20.3554 505.788 20.0448 506.591 20.2971V19.4722C507.554 19.6663 507.856 19.9477 508.602 20.2971V19.8799H508.196C507.45 19.4819 508.999 19.4625 508.999 19.4625V19.8799C509.462 20.3554 509.159 19.8798 509.405 20.7048C510.264 20.6563 510.774 20.2874 511.02 20.2874V20.7048H511.822C511.936 19.9672 512.228 19.8799 512.228 19.8799C512.096 19.4625 511.964 19.0548 511.822 18.6375H512.228V18.2201C513.371 18.7442 513.89 19.2878 515.448 19.4625V18.6375C517.8 18.0843 515.675 17.5893 517.866 18.6375V16.9778H518.272V17.3951C518.81 16.9778 519.349 16.5701 519.887 16.1528V17.8125H520.293C520.491 17.6184 520.18 17.1428 520.699 17.3951V17.8125H521.105C521.105 17.8125 520.992 19.2975 521.511 18.6375V18.2201C521.974 17.7445 521.672 18.2201 521.917 17.3951H520.708C521.02 16.1528 520.954 16.3081 522.323 16.1528V16.5702L523.532 16.1528V16.5702H524.741V16.9876C525.779 17.2108 526.95 15.6966 527.564 15.3278L528.773 15.7452V15.3278C529.443 14.8813 529.443 14.7649 530.388 14.5028C530.256 14.9202 530.123 15.3279 529.982 15.7452H530.388V16.1625C530.794 15.8907 531.19 15.6093 531.597 15.3375V14.9202H532.399C533.126 14.5902 533.277 13.9787 533.608 13.2605C534.278 13.8137 534.949 14.367 535.619 14.9202C535.865 14.1049 535.638 13.9108 536.422 13.6779C536.554 13.7264 536.545 14.4543 537.225 14.5028C538.084 13.3284 537.583 13.6681 538.839 14.0854C538.972 12.746 539.208 12.8723 539.642 12.0182C541.049 12.2415 540.388 12.4259 541.653 12.0182V14.5028H542.06C542.513 13.7943 542.314 13.9399 543.268 13.6779C544.024 14.9784 544.76 14.8523 544.883 16.9876C545.988 17.0361 547.801 17.5602 548.103 16.9876H548.509V17.4048C549.624 17.6766 550.889 18.5598 551.333 19.4722V20.7145H551.739C552.296 21.4813 552.674 21.6754 552.948 22.7819C552.542 22.646 552.145 22.5101 551.739 22.3645V22.7819H552.145V24.0242H552.551C552.919 24.6357 552.91 25.0434 552.957 26.0916C552.494 26.5672 552.797 26.0915 552.551 26.9165C551.21 27.0524 549.869 27.1882 548.519 27.3338V26.5089C547.98 26.6447 547.442 26.7807 546.904 26.9263V26.1012C546.64 26.237 546.366 26.373 546.101 26.5186C545.969 26.2468 545.837 25.9654 545.695 25.6936C545.686 25.6936 544.505 26.2565 543.684 25.6936L543.278 24.4512C542.806 24.1115 542.588 25.6644 541.663 25.2762V24.8589C541.2 24.3833 541.502 24.8588 541.257 24.0338L540.048 24.4512V24.0338H539.642C539.774 23.6165 539.907 23.2089 540.048 22.7916C540.048 22.7916 539.548 22.6654 539.642 21.9666C539.642 21.9666 540.313 21.7821 540.048 21.1415H539.642C539.179 21.6171 539.642 21.3066 538.839 21.5589C538.707 21.9763 538.575 22.384 538.433 22.8013C537.489 22.6848 537.432 22.6654 536.819 22.3839V21.9666C536.139 22.0152 536.139 22.7528 536.016 22.7916C535.1 23.1216 534.392 22.2771 534.005 22.3742V22.7916C532.635 23.3545 532.333 24.0824 530.784 24.4512C530.916 24.0339 531.049 23.6262 531.191 23.2089H530.388C529.793 24.3347 529.151 25.1015 527.564 25.2762V24.0338H527.158C526.847 25.2762 526.913 25.1209 525.543 25.2762V24.4512C523.863 25.3927 523.636 25.2957 521.511 24.8686V24.0436H521.105C521.077 25.645 521.171 25.7518 519.896 26.1109V26.5283C519.509 27.295 519.49 25.7033 519.49 25.7033H518.688C518.555 25.9751 518.423 26.2565 518.281 26.5283C517.611 26.3924 516.941 26.2565 516.27 26.1109V26.936H515.061V27.3532C514.599 27.8288 514.901 27.3532 514.655 28.1782L512.238 28.5956V27.7706L508.206 28.1879V29.0129H506.997V29.4303C506.638 30.2068 506.591 28.6053 506.591 28.6053C505.297 28.9256 505.722 29.2265 504.173 29.4303V30.6727C501.794 30.4203 501.973 29.207 499.338 29.0129C499.329 30.3911 499.13 30.8862 498.932 31.915H498.13C498.252 31.5559 498.904 31.0026 498.536 30.2553H498.13V30.6727C497.667 31.1482 497.969 30.6726 497.723 31.4976L495.306 31.915V32.74C493.956 32.4876 492.766 31.6044 491.274 32.3226C491.009 32.7399 490.735 33.1476 490.471 33.565C489.376 33.895 489.225 32.4488 488.856 32.3226C488.129 32.0702 488.564 32.7884 488.45 33.1476C488.044 33.0117 487.648 32.8759 487.242 32.7303V34.3899H486.439L486.033 35.2149C485.372 35.4187 485.287 34.8073 485.23 34.7976C484.257 34.6229 484.182 35.2149 483.615 35.2149V34.7976C482.813 34.6617 482 34.5258 481.198 34.3802V35.2052C478.525 35.4963 477.166 35.5643 475.154 35.2052L474.748 36.4475C473.993 36.2437 472.822 36.2729 471.528 36.0303V35.6129C471.991 35.1373 471.689 35.6129 471.934 34.7879C470.971 34.8267 470.933 35.0596 470.319 35.2052V34.7879C469.649 34.3414 469.658 34.1959 468.704 33.9629V33.1378H467.902C467.77 32.7205 467.637 32.3129 467.496 31.8956L465.078 31.4782V30.6532C465.399 30.7891 466.343 31.4976 467.09 31.0705V30.6532C465.9 29.8574 466.108 29.0033 466.287 27.7512C466.825 27.4795 466.835 27.101 467.09 26.9263C467.354 27.0621 467.628 27.1979 467.892 27.3435V25.6839H468.298C468.166 24.8589 468.034 24.0241 467.892 23.1992C467.486 23.0633 467.09 22.9275 466.684 22.7819C466.816 23.0536 466.948 23.3351 467.09 23.6068L465.881 23.1894V24.0145H465.475C465.343 24.2863 465.21 24.5677 465.069 24.8395H463.86C463.954 25.8004 464.304 25.0919 463.86 26.0819L463.057 25.6645V26.4894C462.623 27.2174 462.651 25.6645 462.651 25.6645C461.981 25.8003 461.31 25.9363 460.64 26.0819C460.64 26.0819 460.451 25.4606 459.837 25.6645C459.705 25.9362 459.573 26.2177 459.431 26.4894H458.222C458.09 26.9068 457.958 27.3144 457.816 27.7318C457.193 27.3921 456.031 26.2371 454.993 26.4894C454.86 26.7612 454.728 27.0426 454.587 27.3144C453.812 27.2367 453.916 26.5088 453.784 26.4894H453.378V26.9068H451.367V27.3241H452.169C452.037 28.1491 451.905 28.9838 451.763 29.8088H450.96C450.592 29.6438 450.696 28.5471 449.346 28.9839L448.94 29.8088H446.928V29.3914C446.343 29.0614 446.248 29.1003 445.313 28.9742V30.2165C444.907 30.0806 444.511 29.9447 444.105 29.7991V30.2165C443.642 30.6921 443.944 30.2165 443.699 31.0415C442.197 31.4782 442.613 31.8956 441.687 32.7011V33.1185H440.478V31.8762H439.676V32.7011H437.664V32.2837H437.258C436.994 32.837 436.72 33.3903 436.456 33.9435L435.653 33.5261V33.9435L434.444 34.7685V33.5261H434.038V33.9435L432.829 33.5261V33.9435C432.263 33.9144 432.99 33.594 432.423 33.5261L430.006 33.9435V35.1859H429.6V34.7685C428.504 34.1667 427.626 35.3508 427.182 35.5934C426.956 34.2929 426.786 33.8561 425.568 33.5261C425.794 34.5355 425.993 34.4385 426.37 35.1859H425.568C424.925 35.7973 423.197 35.642 421.941 35.6031V34.7782H421.139V35.6031C420.336 35.4673 419.524 35.3315 418.721 35.1859C418.523 34.2056 418.343 34.2055 417.918 33.5261C418.466 33.0408 418.315 33.8367 418.721 33.1088C418.192 32.7691 418.249 32.8175 417.918 32.2837H418.721C418.806 31.3035 418.891 31.255 419.127 30.6241C417.985 30.3523 417.607 29.8574 417.116 28.9644H418.325C418.589 27.858 418.863 26.7515 419.127 25.6547C418.598 25.315 418.655 25.3636 418.325 24.8298C417.465 25.3345 417.446 25.7616 416.313 26.0721V25.2471H415.907V26.4894C414.339 26.6253 414.094 27.1591 413.084 27.7318C412.999 26.7515 412.914 26.703 412.678 26.0721C412.224 26.4215 412.621 26.0235 412.271 26.4894H411.865L412.271 26.9068L411.865 28.1492C410.156 27.8483 409.929 28.0812 407.833 28.1492L408.239 29.3914H407.833C407.503 29.935 407.55 29.8768 407.03 30.2165V28.5568C404.981 28.6732 405.255 29.2944 402.998 29.3817C402.696 30.7891 402.139 31.2938 400.581 31.4491V30.6241H400.175V31.0415C399.825 31.8277 399.768 30.2165 399.768 30.2165C399.362 30.0806 398.966 29.9447 398.56 29.7991L398.966 30.6241H398.163C397.521 31.2355 397.172 32.0509 396.954 33.1088H395.746V32.2837C393.158 32.3808 392.507 33.7978 390.505 34.3511C390.76 33.2155 391.033 33.4096 391.307 32.2837C388.729 32.8661 386.897 34.6908 385.264 31.8665C387.077 30.7794 386.123 30.3232 385.67 28.5568H384.055C383.715 28.0909 384.102 28.4986 383.649 28.1395C383.772 27.7804 384.423 27.2271 384.055 26.4797H383.649V26.0624H382.44C381.76 27.2077 380.712 26.8971 380.023 27.7221L379.617 28.9644H378.408V29.3817C378.002 29.5176 377.605 29.6535 377.199 29.7991V28.9742C375.943 29.2556 375.367 30.2165 374.376 30.6338H372.761V31.0512C372.355 30.9153 371.958 30.7794 371.552 30.6338V31.4588L369.135 31.8762V32.2934H367.52C367.388 32.3226 367.416 32.8661 366.717 32.7108V32.2934H365.914V31.8762L363.091 31.4588C362.798 32.0411 362.364 32.7109 361.882 33.1185V31.4588H361.476V32.2837C361.07 32.1479 360.674 32.012 360.267 31.8665C360.079 32.837 359.597 33.1476 359.465 33.9338H359.871C360.003 34.3511 360.135 34.7588 360.277 35.1761C357.982 35.2053 357.746 34.7393 356.245 34.3511C355.65 35.4769 355.008 36.2437 353.421 36.4184V35.5934H352.618V37.2532H351.816V37.6705H348.992V38.0879H348.189V38.5052C347.925 38.3693 347.651 38.2335 347.387 38.0879V38.5052H346.981C346.386 38.0102 347.321 38.2043 346.575 37.6802C346.622 38.9905 347.358 38.4567 346.168 38.9226V38.0976C343.902 38.3791 344.865 39.1264 343.751 39.7572H342.948C342.816 40.1746 342.684 40.5823 342.542 40.9996H340.531V40.5822C341.532 39.8252 341.05 40.262 340.937 38.9226H340.134V40.1649C336.631 40.1746 336.017 40.8831 332.882 40.9899V40.1649C332.344 40.4367 331.805 40.7181 331.267 40.9899C331.399 41.5431 331.532 42.0963 331.673 42.6495C330.625 42.5816 330.294 42.5621 329.662 42.2321V41.8149L328.453 42.2321C328.387 42.2224 328.311 41.6499 327.65 41.8149V42.2321H326.848V42.6495H326.045V43.0669C325.488 43.4455 325.337 43.358 324.43 43.4842V42.2419H324.024V42.6593H322.013C321.739 42.7854 321.994 43.193 320.804 43.4842C320.672 43.9016 320.54 44.3092 320.398 44.7266H320.804C321.399 45.2313 319.34 45.1342 319.189 45.1439V44.7266C317.574 44.4548 315.969 44.1734 314.354 43.9016C314.571 42.7466 314.666 43.8628 314.354 42.6593C313.92 42.8922 313.514 43.7754 312.739 43.4842V43.0669H312.333L312.739 42.2419H312.333C311.871 41.7663 312.333 42.0769 311.531 41.8246C311.398 41.4072 311.266 40.9996 311.125 40.5822H311.927C311.795 40.1649 311.663 39.7572 311.521 39.3398H311.927V39.7572C312.277 40.5434 312.333 38.9323 312.333 38.9323H312.739V38.5149C312.475 38.379 312.201 38.2432 311.937 38.0976C312.069 37.6802 312.201 37.2726 312.343 36.8552H311.937V36.4378H313.145V36.0205C312.617 35.6808 312.673 35.7293 312.343 35.1955C313.032 34.7296 312.89 34.9335 313.145 33.9532L314.76 33.5358C314.807 33.5067 315.384 32.0023 315.563 32.2934V33.1185H316.772C317.149 32.3712 317.329 32.4682 317.574 31.4588C317.027 30.9735 316.961 30.7018 316.772 29.7991H317.574V28.9742H318.377V28.5568C317.574 28.6926 316.762 28.8286 315.959 28.9742V28.5568C315.431 28.5859 314.949 29.2653 313.948 28.9742V28.5568C313.146 28.4209 312.333 28.2851 311.531 28.1395V29.7991H310.728V30.6241C310.322 30.3523 309.925 30.0709 309.519 29.7991V28.9742L309.113 29.3914C308.65 29.867 308.953 29.3915 308.707 30.2165H307.092V31.0415C306.29 30.9056 305.478 30.7697 304.675 30.6241C304.543 31.3132 304.41 32.0023 304.269 32.6914C303.287 32.9244 303.381 33.1184 302.654 33.5164V33.0991C302.239 32.74 302.097 32.3808 301.851 31.8567C301.389 32.3323 301.691 31.8567 301.445 32.6817C300.643 32.8176 299.83 32.9535 299.028 33.0991V33.9241C298.074 34.0114 298.027 34.0988 297.413 34.3415V33.5164H297.819L297.413 32.2741H297.007V33.0991C296.743 32.9632 296.469 32.8273 296.204 32.6817C295.742 33.0117 296.044 33.662 294.995 33.5067C294.863 33.2349 294.731 32.9535 294.589 32.6817H294.184V33.5067L292.975 33.9241C292.767 33.8658 292.729 32.8759 292.172 33.0991C291.766 33.6523 291.369 34.2055 290.963 34.7587C290.557 34.6229 290.16 34.4871 289.754 34.3415V35.1664H288.952V35.9914C288.499 35.642 288.895 36.0399 288.546 35.574C288.111 35.1955 288.47 35.642 288.14 35.1567H288.546V34.7393H287.337V35.1567H286.931V34.7393H285.722C285.59 34.4676 285.458 34.1861 285.316 33.9144C285.052 34.0502 284.778 34.1862 284.514 34.3318C283.966 34.4968 284.683 34.7782 284.107 34.749V34.3318H283.305C283.295 35.6129 283.418 36.467 283.711 37.2338H282.096V38.0587H281.69V36.8164H280.887L280.481 38.0587C280.028 37.7093 280.424 38.1072 280.075 37.6413H279.669L280.075 36.3991C279.669 36.535 279.272 36.6708 278.866 36.8164V37.2338H278.064C277.932 37.5055 277.799 37.787 277.658 38.0587H276.043V38.476H275.637C275.438 38.2916 275.75 37.8064 275.231 38.0587L274.825 38.8837L272.813 39.3011V38.476H272.407L272.001 39.3011H271.595L271.189 38.476C270.632 38.214 270.056 38.2723 269.574 38.0587C269.546 39.6602 269.64 39.7669 268.366 40.1261V39.3011H267.563V40.1261H265.551L264.749 42.1934H263.946V41.776C263.814 41.7566 263.021 42.1449 262.331 42.1934C262.558 41.184 262.756 41.281 263.134 40.5336H262.331L261.925 41.776L259.102 41.3587C258.677 41.5722 258.809 42.2904 259.102 42.601H258.299C257.95 43.028 257.6 43.1737 257.09 43.426V42.1837C255.287 42.339 255.919 42.4457 254.267 42.1837V42.601C254.73 43.0765 254.427 42.6011 254.673 43.426H252.661C252.557 43.4066 252.529 42.8922 251.859 43.0086V43.426H251.056C250.924 43.8434 250.792 44.2509 250.65 44.6683C250.197 44.3189 250.593 44.7169 250.244 44.251C249.791 43.9016 250.187 44.2995 249.838 43.8336C250.367 43.4939 250.31 43.5425 250.641 43.0086H249.026C248.667 43.4454 248.317 43.5521 247.817 43.8336V44.251L246.608 43.8336V44.251C247.137 44.5907 247.08 44.5422 247.411 45.076H246.608C246.136 44.513 245.872 44.4451 244.993 44.251V45.076C244.238 44.7848 243.416 44.6683 242.17 44.6586C241.726 43.7948 241.518 43.9211 241.367 42.5914H240.565V41.7663C240.111 42.1157 240.508 41.7178 240.158 42.1837H239.752V43.0086L238.95 43.426V44.6683H238.544C238.138 44.1151 237.741 43.5619 237.335 43.0086H236.929C236.4 42.0866 237.146 41.8537 236.126 40.9413C236.258 40.3881 236.391 39.8349 236.532 39.2817C236.532 39.2817 236.013 39.0779 236.126 38.4567H236.532V36.3894C236.532 36.3894 236.778 36.3893 236.938 35.5643C238.053 35.2634 237.835 35.4479 238.147 34.322H238.95V34.7393L240.158 34.322V33.497L242.17 33.9144C242.463 32.7691 242.283 32.9923 243.379 32.672V31.0123H243.785L243.379 30.1874H243.785C244.125 29.7215 243.737 30.1291 244.191 29.77V29.3527C244.578 28.5859 244.597 30.1777 244.597 30.1777L245.805 30.5949V30.1777H245.399C245.532 29.7603 245.664 29.3526 245.805 28.9353H248.223V29.3527C249.167 29.2168 250.102 29.0809 251.047 28.9353V28.1103H252.661V27.2854C251.283 27.266 249.876 27.0038 249.035 26.868C248.771 27.2853 248.497 27.693 248.232 28.1103L245.815 28.5276C246.042 27.5182 246.24 27.6153 246.618 26.868H245.003V27.2854H245.409C245.872 27.9356 244.417 27.6735 244.2 27.7026V28.945H243.794V29.3624C243.124 29.4983 242.453 29.6341 241.783 29.7797C241.915 29.0906 242.047 28.4015 242.189 27.7124C241.207 27.9453 241.292 28.1394 240.574 28.5373V28.9547C239.771 28.683 238.959 28.4015 238.157 28.1298V28.547C237.694 29.0226 237.996 28.547 237.751 29.372C237.09 29.4982 235.994 30.2359 235.739 30.1971V29.7797H234.53C233.973 29.6632 234.681 29.2362 234.124 29.3624L233.718 30.1874H232.915L233.321 29.3624H232.915C232.453 29.838 232.915 29.5273 232.113 29.7797V30.6047C231.442 30.7405 230.772 30.8765 230.101 31.0221C230.026 31.0026 229.969 30.43 229.299 30.6047V31.0221H228.496V31.4393C228.099 31.352 228.024 30.3232 227.693 30.6144C227.032 31.1773 228.137 31.4103 226.485 31.8567V33.0991H226.079V32.2741H225.673C225.54 32.5459 225.408 32.8273 225.266 33.0991H223.652C223.17 32.1965 222.764 31.7305 221.64 31.4393V31.8567H220.026L219.619 32.6817L218.411 32.2644V33.5067H217.608C216.616 35.244 216.711 33.992 215.596 34.749C215.729 35.0208 215.861 35.3022 216.003 35.574C215.2 35.4381 214.388 35.3023 213.585 35.1567C213.547 35.1664 213.377 35.8749 212.782 35.9817V35.5643H211.168L210.762 35.147V35.5643C209.619 36.3213 209.581 36.7581 207.542 36.8066C207.088 36.0981 207.287 36.2437 206.333 35.9817V36.8066H205.53V36.3894C205.02 36.2244 204.472 37.5637 204.321 37.6316C203.49 38.0101 203.169 37.2726 202.706 37.2143V37.6316C201.904 37.7675 201.092 37.9034 200.289 38.049L199.883 36.8066C198.769 37.1075 198.986 36.9231 198.674 38.049C197.465 38.1849 196.257 38.3208 195.048 38.4664L194.642 39.2914H191.818V39.7087C190.77 40.029 189.939 39.7475 188.995 40.1261C188.768 39.1167 188.57 39.2138 188.192 38.4664C187.739 38.8158 188.135 38.4178 187.786 38.8837C186.37 39.9125 187.692 40.359 185.775 40.951V41.3684H183.763L183.357 42.1934C182.46 42.5622 182.224 41.6789 181.742 41.776V42.1934C180.94 42.3584 181.232 42.0089 180.94 41.776H180.534V42.601C180.128 42.4651 179.731 42.3293 179.325 42.1837V41.7663L178.116 42.1837V41.7663H176.501L176.095 40.9413C175.529 40.9413 175.906 40.8152 175.689 41.3587C175.189 40.8831 175.538 41.3586 175.283 40.5336H176.898V39.7087H175.283C174.905 38.9613 174.726 39.0584 174.481 38.049H175.283C175.047 36.3408 174.849 36.0691 174.074 34.322C173.546 34.5356 174.188 34.487 173.668 34.7393H172.46V35.1567C173.272 35.3897 172.809 35.1081 173.262 35.574C172.11 35.5352 171.534 35.4964 170.845 35.1567V35.574C171.308 36.0496 171.005 35.5741 171.251 36.3991C169.277 36.3991 168.956 36.8746 167.625 37.224V35.9817H167.219V36.3991H166.813L166.01 35.9817V37.224H164.801V36.3991H164.395V37.224H164.801V38.4664C163.46 38.4567 162.979 38.2528 161.978 38.049V38.874C161.024 38.8255 160.958 38.7479 160.363 38.4567V38.874C159.9 39.3496 160.202 38.874 159.957 39.6989C157.832 39.4563 159.031 38.8061 157.133 39.2817V38.4567C156.491 38.3596 156.623 39.1652 156.331 39.2817C154.82 39.864 153.573 39.5146 152.298 39.2817V40.524L151.496 40.1066V40.524C150.684 41.2326 151.534 41.1548 151.09 41.7663H150.683C149.711 40.2716 146.916 41.5139 145.046 41.7663V43.0086C144.29 42.7951 142.846 41.5236 142.222 41.7663V42.1837H141.816V43.426C140.608 43.5619 139.399 43.6977 138.19 43.8433V44.6683H138.596C138.464 45.0856 138.332 45.4933 138.19 45.9107C137.236 45.8621 137.17 45.7845 136.575 45.4934V45.9107H136.169V44.6683H135.367V45.9107H134.961V45.4934H133.346V45.9107L132.543 45.4934V45.9107C131.655 46.1921 131.212 46.0369 130.532 46.3281V47.5703C128.52 47.8809 128.539 47.9391 126.905 46.7453L126.499 47.9877H124.885V48.4051C124.346 48.541 123.808 48.6768 123.27 48.8224V47.9974H122.467C122.222 49.4533 122.033 49.8998 120.456 50.0648V49.6474C120.918 49.1718 120.616 49.6474 120.862 48.8224C120.324 48.6865 119.785 48.5507 119.247 48.4051V47.9877C118.482 47.7451 118.69 48.2207 118.444 48.4051L117.236 47.9877V48.4051H117.642V50.0648H116.839V49.2398C115.734 49.8998 116.112 50.2588 114.421 50.482C114.129 51.6273 114.308 51.4041 113.213 51.7244C112.127 53.0444 110.861 52.7241 109.18 52.5494V51.7244H110.795C110.663 51.307 110.531 50.8994 110.389 50.482C109.775 50.7247 109.728 50.8024 108.774 50.8994C108.708 49.7736 108.642 48.4051 107.972 47.9974V47.58C108.264 47.1433 108.283 47.9392 108.774 47.1627H107.972C107.254 46.726 108.774 46.7453 108.774 46.7453C108.548 45.7359 108.349 45.833 107.972 45.0857H109.18C109.511 45.6292 109.464 45.571 109.983 45.9107C109.001 43.7366 108.5 41.7275 111.994 41.7663C112.457 42.2419 111.995 41.9313 112.797 42.1837C112.929 41.4946 113.062 40.8055 113.203 40.1163H112.401V40.9413H111.598L112.004 39.6989H111.598C111.296 40.4851 111.881 40.1261 111.192 40.524C110.663 40.0387 111.673 39.8931 110.786 39.6989V40.524L109.983 40.1066V40.524H110.389C110.125 41.0773 109.851 41.6305 109.586 42.1837H109.18V40.9413H108.774V41.3587H107.566C107.301 41.7761 107.027 42.1836 106.763 42.601H105.96V43.0184H104.752V43.4358H103.949V43.853C102.325 44.4451 101.106 43.2804 100.323 43.853C99.2273 44.581 99.0479 46.1437 98.7079 46.3378H95.0816C94.6189 45.8622 95.0816 46.1727 94.2789 45.9204V45.0954H93.8729C94.0051 45.6486 94.1372 46.2018 94.2789 46.7551H93.8729C93.108 47.4345 91.7388 47.1918 90.6528 47.58V47.9974C90.0579 48.1915 89.0758 47.5509 89.038 47.58V48.4051H87.0265C86.6205 49.3757 86.2238 50.3365 85.8177 51.3071H85.4118V50.0648H84.609C84.524 51.045 84.4391 51.0935 84.203 51.7244C83.7497 51.375 84.1464 51.773 83.797 51.3071C83.3343 50.8315 83.6363 51.307 83.3908 50.482C84.0801 50.0162 83.9386 50.2201 84.1935 49.2398H82.9848V51.7244C82.3143 51.5885 81.6439 51.4527 80.9735 51.3071V50.8897C81.4362 50.4141 81.1339 50.8897 81.3795 50.0648H80.5767L80.9829 49.2398H80.5767C80.114 49.7154 80.5768 49.4047 79.7742 49.6571C79.6703 50.4626 79.3774 50.4626 79.3679 50.482C78.7258 52.5202 79.7269 53.1318 77.3566 53.3842V52.5591C76.7995 52.7629 76.469 52.7241 75.7419 52.9765V53.3938C75.3358 53.2579 74.9392 53.1221 74.5331 52.9765V53.3938H73.7303L74.1366 54.2188H71.719V54.6361C72.1817 55.1117 71.8795 54.6361 72.125 55.4611C71.4734 55.432 69.3015 55.0438 69.3015 55.0438C69.1693 55.3156 69.0371 55.597 68.8955 55.8688C67.8001 56.4802 67.6111 55.9755 66.884 55.8688V56.2862H66.0814L65.6752 57.1111C65.0047 57.247 64.3344 57.3828 63.6639 57.5284V57.9458C63.1256 57.8099 62.5874 57.674 62.0491 57.5284C61.3787 57.6643 60.7081 57.8002 60.0376 57.9458V58.3632C58.8383 58.7126 58.4041 57.7031 57.6203 57.5381V57.9555C57.1576 58.4311 57.4596 57.9555 57.2141 58.7805H55.5993L55.1933 58.3632C54.9856 58.4603 55.0799 59.1008 54.3905 59.1882V58.7708L53.1818 58.3535V58.7708C52.7757 58.9067 52.3793 59.0426 51.9732 59.1882V58.3632C51.2461 58.7515 51.3403 58.9358 50.3582 59.1882V60.0132H49.9522V58.7708C47.6859 58.7417 45.9579 57.7809 45.1174 56.2862L45.92 55.8688C45.9483 55.2864 45.5234 56.0435 45.514 55.4515C45.6462 54.7624 45.7783 54.0733 45.92 53.3842H46.7227C45.8351 50.8024 47.7143 49.3659 47.9315 46.7551C49.178 46.5221 50.6228 46.3378 52.3603 46.3378V45.0954H53.5691C53.8429 43.8822 54.0129 43.7366 55.1839 43.4358V42.6107C57.5352 42.0574 55.4105 41.5625 57.6014 42.6107V41.7857C58.4985 41.611 58.98 41.3878 59.6127 40.9607V40.5433C60.4154 40.4657 59.8961 41.1742 60.4155 40.5433C60.8782 40.0678 60.5759 40.5434 60.8215 39.7184H61.6242C62.0869 38.0393 62.4458 38.8934 63.239 37.651C64.0417 37.9228 64.8538 38.2043 65.6565 38.476V38.0587H66.0625V36.3991C63.7489 36.4476 63.1067 36.7388 61.2275 36.3991C61.0008 37.6997 60.8309 38.1364 59.6127 38.4664V37.6413H58.8102V38.8837C57.9886 39.3302 57.2237 40.1067 55.9866 40.1261L55.5804 39.7087C54.1261 40.8345 55.7126 41.6401 52.7569 41.776L53.1629 40.1163H52.3603V40.5336H52.7663C52.7947 40.6792 52.0771 42.0283 51.9638 42.601H51.161V41.776H50.3582V42.601L49.9522 42.1837C49.1496 42.4554 48.3374 42.7369 47.5347 43.0086C47.4025 43.2804 47.2704 43.5618 47.1287 43.8336C46.5999 44.0665 47.2138 43.5231 46.7227 43.4163C46.3167 43.5522 45.92 43.688 45.514 43.8336V43.4163H44.3052V42.9989H43.8992V43.4163C43.8992 43.4163 42.7849 43.0378 42.2844 42.9989C42.02 43.688 41.7461 44.3772 41.4817 45.0663C41.1323 44.9401 40.594 44.2705 39.8669 44.649V45.0663H39.4609V46.3086H39.0547V45.0663H38.6487V46.7259C38.7148 47.3083 39.0736 46.5513 39.0547 47.1433L38.6487 47.5607C37.9499 47.2016 38.5071 47.5121 38.2427 46.7356H37.8365V47.5607L35.8252 47.978L36.2312 47.153H35.8252C35.2019 47.8712 35.0981 47.5606 34.2104 47.978V48.3954C33.6155 48.6283 32.6712 48.5021 32.5956 47.978H32.1894V49.2204H31.7834V48.803H31.3774V49.628H30.5747V50.453C29.5548 50.123 28.0817 50.4239 26.1458 50.453C26.0136 51.4236 25.8815 52.3844 25.7398 53.355H24.9371V52.5301C24.3232 52.7727 24.2761 52.8503 23.3223 52.9473V54.1897C22.5196 54.4615 21.7074 54.7429 20.9048 55.0147V55.4321H20.1022V55.8493C18.1286 56.6161 17.6658 55.2088 16.4759 57.0917H16.0699L16.4759 57.5091C16.3437 57.9265 16.2116 58.334 16.0699 58.7514C15.5317 58.6155 14.9932 58.4797 14.4549 58.3341V59.5764C13.029 59.7317 13.2275 60.0908 12.0376 60.4014V59.5764H11.6314V60.8187C10.8287 60.9546 10.0168 61.0905 9.21411 61.2361L8.80789 62.4785H8.00535C7.87314 62.8958 7.74077 63.3034 7.59912 63.7207H7.19312V62.4785H6.78713L6.38113 63.3034L5.17237 62.886V62.4687C4.38858 62.2649 4.63401 62.7016 4.3696 62.886L2.75484 62.4687L3.16083 62.0513V61.6341H2.75484V60.3917H3.16083V59.9743H2.35829C2.34885 58.5961 2.15038 58.1011 1.95207 57.0723H1.14953C0.431841 56.6355 1.95207 56.655 1.95207 56.655C2.08427 56.2377 2.21665 55.83 2.35829 55.4126C4.43581 55.5097 4.35071 56.1988 4.3696 53.753C5.04007 53.6171 5.71066 53.4812 6.38113 53.3356V51.6759L7.5899 51.2585C8.05262 50.783 7.58976 51.0936 8.39244 50.8413V51.6662H9.19521V50.8413C9.60127 50.9771 9.99791 51.113 10.404 51.2585V50.4336H9.99775L10.404 49.1912H10.81V48.7739H12.0187C12.0093 48.1916 12.1036 48.6574 11.6125 48.3565V47.9391H12.8213V47.5218H13.2275L13.6335 48.3468C14.9744 48.6186 16.3154 48.9 17.6658 49.1718C17.7036 47.6189 18.0339 47.2695 18.4683 46.2698C18.8744 46.4056 19.271 46.5416 19.6771 46.6872V45.8622H20.8859L20.4799 46.6872H20.8859V46.2698H21.6886C22.1325 45.9107 21.8679 45.27 22.4912 45.0274C22.85 45.3962 22.6423 45.7263 23.2939 45.8525C23.5583 45.4351 23.8323 45.0275 24.0967 44.6101H25.3052V44.1927H25.7115V42.5331H26.514V43.358C28.2327 43.193 28.3367 42.5039 29.7343 42.1157C30.0554 40.7763 30.4802 40.689 30.5368 38.8061H34.1631V39.2234L35.3719 38.8061V38.3887C35.9763 38.2237 35.9195 39.1263 36.1744 39.2137L37.3832 38.7964V39.6213H37.7894V38.7964C38.2427 38.447 37.846 38.8449 38.1954 38.379L37.3927 38.7964V37.1366H37.7989V35.477H39.8102L39.4042 36.7193H40.613C41.2551 35.9138 42.0766 35.6129 42.6243 34.652C43.0398 35.0111 43.1815 35.3703 43.427 35.8944C43.8331 35.6226 44.2297 35.3412 44.6358 35.0694V34.652H45.4383L45.8443 33.827C46.1087 33.9629 46.3827 34.0987 46.6471 34.2443C47.1854 33.827 46.156 33.5455 47.0531 33.4193V33.8367C47.4592 33.9726 47.8558 34.1084 48.2619 34.254V33.4291C47.7991 32.9535 48.1014 33.4291 47.8559 32.6041C48.8946 32.7982 49.6406 33.002 51.0759 33.0214C51.652 32.1382 52.1337 32.1868 53.0875 31.7791L52.6815 30.5368H54.2962V30.1194H54.7022V30.5368H55.505V29.7118C57.7903 29.6439 57.0065 29.0712 58.3285 28.4694H59.9433V28.052C60.406 27.5765 60.1038 28.0521 60.3493 27.2271H61.5581V28.052H62.3608C62.6913 26.7223 62.8329 26.8486 64.3721 26.8098V27.6348C65.3165 27.1883 65.6848 26.6836 66.7897 26.3924V25.15H67.5922V24.3251C69.7169 24.3348 70.7747 23.8398 72.4273 23.5001C72.72 24.6454 72.5406 24.4222 73.636 24.7425C73.5038 24.3251 73.3715 23.9174 73.2298 23.5001H73.636C74.0799 22.9177 75.043 22.2869 75.6473 21.8404V21.423H76.8561V21.8404H77.2621V23.0827H77.6683C77.8005 21.4327 78.0837 21.1707 79.6796 21.0154V21.4328C80.2179 21.6269 79.5285 21.1707 80.0856 21.0154C81.7004 20.7436 83.3059 20.4622 84.9207 20.1904C84.5146 18.8995 84.694 19.5595 84.9207 18.1231C85.9028 17.8901 85.8083 17.696 86.5354 17.2981V17.7155H86.9414C87.2625 18.327 86.5354 18.5405 86.5354 18.5405L86.9414 19.3654C87.8669 18.5696 87.4515 18.1231 88.953 17.7058C89.0852 17.2884 89.2173 16.8808 89.359 16.4634C90.5111 16.9487 91.2572 17.2496 92.9853 17.2884C93.3913 16.4634 93.788 15.6288 94.194 14.8038H94.9966L95.4028 15.6287L98.2263 14.8038V14.3864H101.05L101.456 13.5614H102.259C102.514 12.4258 102.787 12.6199 103.061 11.4941C103.599 11.63 104.138 11.7658 104.676 11.9114V11.4941C105.12 11.1253 104.761 11.562 105.082 11.0767H104.676C104.279 10.3876 105.252 10.7273 105.479 10.6594V10.242C105.885 10.3779 106.281 10.5138 106.687 10.6594C106.555 10.9312 106.423 11.2126 106.281 11.4844H106.687C107.953 9.98967 109.058 11.4843 110.72 11.9016C110.994 11.3581 111.22 11.4552 111.522 11.0767L111.116 10.2517H111.919V9.83443L112.722 9.41703C112.778 8.83468 112.637 9.48491 112.316 8.99963L112.722 8.17466C114.081 8.46583 114.27 9.07732 115.545 9.41703V8.17466C116.65 8.43672 116.461 8.71816 117.557 8.99963V7.75738C118 7.89326 118.35 8.49495 119.171 8.17466V7.75738H120.38V7.33998C121.183 6.65087 121.995 5.96176 122.798 5.27265V4.44768H123.6V4.86496C124.157 4.98143 123.525 4.77768 124.006 4.44768L124.809 4.86496L124.403 6.10733C126.651 6.28203 127.793 6.84499 129.238 5.28236C128.445 4.81649 128.293 4.70005 128.029 3.62272L129.238 3.20532C129.37 3.47708 129.502 3.75852 129.644 4.03028H130.447V2.37063C131.325 2.54534 131.599 2.64237 132.061 3.1956L134.479 2.37063L134.073 1.54567H136.084V0.720703L136.282 0.817737ZM132.26 7.02945V7.85441H132.666V7.02945H132.26ZM491.245 7.85441V8.67938H491.651V7.85441H491.245ZM133.468 9.09678V9.92174H133.875V9.09678H133.468ZM127.831 9.92174V10.7467H128.237V9.92174H127.831ZM481.17 11.1641C481.632 11.6397 481.169 11.329 481.972 11.5814C481.509 11.1058 481.972 11.4165 481.17 11.1641ZM449.346 11.5814C449.808 12.057 449.346 11.7464 450.148 11.9988C449.686 11.5232 450.148 11.8337 449.346 11.5814ZM109.7 12.8238C109.738 14.2311 109.7 14.3282 110.503 14.8911V14.4737H110.096V12.814H109.69L109.7 12.8238ZM443.302 13.241C443.765 13.7166 443.302 13.4061 444.105 13.6584C443.642 13.1829 444.105 13.4934 443.302 13.241ZM399.381 13.6487V14.4737H399.787V13.6487H399.381ZM427.588 14.0661L427.182 14.8911C427.182 14.8911 428.353 14.2311 427.985 14.0661H427.579H427.588ZM469.082 14.0661H469.885C469.545 14.532 469.932 14.1243 469.479 14.4834V14.9008C469.016 14.4252 469.318 14.9008 469.073 14.0758L469.082 14.0661ZM112.514 14.4834C112.977 14.959 112.514 14.6485 113.317 14.9008C112.854 14.4252 113.317 14.7358 112.514 14.4834ZM338.548 14.8911V15.7161H338.954V14.8911H338.548ZM116.952 16.5507V16.9681H116.546C115.781 17.3272 117.349 17.3854 117.349 17.3854C117.689 16.9195 117.302 17.3272 117.755 16.9681C117.292 16.4926 117.755 16.8031 116.952 16.5507ZM426.38 16.5507V16.9681H425.974C425.209 17.3272 426.776 17.3854 426.776 17.3854C427.116 16.9195 426.729 17.3272 427.182 16.9681C426.72 16.4926 427.182 16.8031 426.38 16.5507ZM529.519 16.5507V16.9681H529.113C528.348 17.3272 529.916 17.3854 529.916 17.3854C530.256 16.9195 529.868 17.3272 530.322 16.9681C529.859 16.4926 530.322 16.8031 529.519 16.5507ZM259.574 16.9681V17.7931H259.98V16.9681H259.574ZM160.061 17.3757V18.2008H160.467V17.3757H160.061ZM263.2 17.3757V18.2008H263.606V17.3757H263.2ZM337.736 17.3757C338.416 18.2686 338.538 18.2008 338.538 18.2008C338.831 17.8028 337.84 17.4728 337.736 17.3757ZM440.884 17.3757C441.564 18.2686 441.687 18.2008 441.687 18.2008C441.98 17.8028 440.988 17.4728 440.884 17.3757ZM469.488 17.3757V18.2008H469.894V17.3757H469.488ZM544.024 17.3757C544.704 18.2686 544.827 18.2008 544.827 18.2008C545.119 17.8028 544.128 17.4728 544.024 17.3757ZM101.635 18.2104H100.833V18.6278H101.239V19.0452H101.645V18.2201L101.635 18.2104ZM106.876 20.6951H107.679C107.547 20.1419 107.414 19.5887 107.273 19.0355H106.867V20.6951H106.876ZM416.304 20.6951H417.106L416.7 19.0355H416.294V20.6951H416.304ZM519.443 20.6951H520.246L519.84 19.0355H519.433V20.6951H519.443ZM102.447 19.8604V21.5201H102.853V19.8604H102.447ZM205.587 19.8604V21.5201H205.993V19.8604H205.587ZM411.875 19.8604V21.5201H412.281V19.8604H411.875ZM471.499 20.6951V21.9375H471.906C472.312 21.1901 472.793 20.7048 473.52 20.2777V19.8604H472.718C472.264 20.569 472.463 20.4233 471.509 20.6854L471.499 20.6951ZM515.014 19.8604V21.5201H515.42V19.8604H515.014ZM284.155 20.2777V21.1028H284.561V20.2777H284.155ZM387.294 21.1028H388.097V20.6854C387.643 20.336 388.04 20.734 387.69 20.2681H387.284V21.0931L387.294 21.1028ZM162.072 20.6951V21.9375H162.478V20.6951H162.072ZM265.211 20.6951V21.9375H265.618V20.6951H265.211ZM441.687 22.345C441.98 23.4903 441.801 23.2671 442.896 23.5874C443.151 22.4518 443.425 22.6459 443.699 21.5201H443.293C442.783 22.3062 442.887 22.2092 441.678 22.345H441.687ZM445.313 21.5201V22.345C446.371 22.3159 446.683 22.1801 447.325 21.9278V21.5104H445.313V21.5201ZM232.585 21.9375V23.1798H232.991V22.7624C233.444 22.413 233.048 22.8109 233.397 22.345L232.594 21.9278L232.585 21.9375ZM335.724 21.9375V23.1798H336.13V22.7624C336.584 22.413 336.187 22.8109 336.536 22.345L335.734 21.9278L335.724 21.9375ZM438.864 21.9375V23.1798H439.27V22.7624C439.723 22.413 439.326 22.8109 439.676 22.345L438.873 21.9278L438.864 21.9375ZM542.012 21.9375V23.1798H542.418V22.7624C542.872 22.413 542.475 22.8109 542.824 22.345L542.022 21.9278L542.012 21.9375ZM283.749 22.345V23.1701H284.155V22.345H283.749ZM470.697 22.345C471.377 23.238 471.499 23.1701 471.499 23.1701C471.792 22.7722 470.801 22.4421 470.697 22.345ZM257.562 23.1798V24.4221H256.76V25.2471L257.562 24.8298L257.968 23.5874C258.422 23.238 258.025 23.636 258.374 23.1701H257.572L257.562 23.1798ZM274.485 23.1798V24.0048H274.891V23.1798H274.485ZM377.624 23.1798V24.0048H378.03V23.1798H377.624ZM440.884 24.0048H439.676V24.8298H440.478C440.856 24.0824 441.035 24.1795 441.281 23.1701H440.875V23.9951L440.884 24.0048ZM480.763 23.1798V24.0048H481.17V23.1798H480.763ZM224.124 24.8298V24.0048C223.67 24.3542 224.067 23.9562 223.718 24.4221H223.312C223.774 24.8977 223.312 24.5871 224.114 24.8395L224.124 24.8298ZM326.055 24.0048V25.2471H326.461C326.923 24.7715 326.46 25.0821 327.263 24.8298V24.0048H326.055ZM383.262 24.8298V24.0048H382.053V24.4221H382.459C382.922 24.8977 382.459 24.5871 383.262 24.8395V24.8298ZM430.403 24.8298V24.0048C429.949 24.3542 430.346 23.9562 429.996 24.4221H429.59C430.053 24.8977 429.59 24.5871 430.393 24.8395L430.403 24.8298ZM462.236 24.0048V24.8298C462.689 24.4804 462.292 24.8783 462.642 24.4124H463.048C462.585 23.9368 463.048 24.2474 462.245 23.9951L462.236 24.0048ZM519.443 24.4221V25.2471H519.849V24.4221H519.443ZM252.727 26.0721H253.53C253.19 25.6063 253.577 26.0139 253.124 25.6547V24.8298H252.718V26.0721H252.727ZM139.106 25.2471V26.0721H139.512V25.2471H139.106ZM242.255 25.2471V26.4894H242.661V25.2471H242.255ZM448.534 25.2471V26.0721H448.94V25.2471H448.534ZM527.102 25.2471C527.564 25.7226 527.262 25.2472 527.507 26.0721H527.102V25.2471ZM551.682 25.2471V26.0721H552.088V25.2471H551.682ZM82.7014 25.6645V26.4894H83.1077V25.6645H82.7014ZM185.841 25.6645V26.4894H186.247V25.6645H185.841ZM392.129 25.6645V26.4894H392.535V25.6645H392.129ZM495.268 25.6645V26.4894H495.674V25.6645H495.268ZM210.828 26.0721C210.866 26.1595 211.404 27.5764 211.63 27.3144V26.8971H212.037C211.687 26.4701 211.338 26.3245 210.828 26.0721ZM314.77 28.1492H315.572V27.3241H314.77L315.176 26.4991C314.77 26.3633 314.373 26.2274 313.967 26.0819V26.4991C314.515 26.9844 314.581 27.2561 314.77 28.1588V28.1492ZM208.41 26.4894L208.816 27.7318H209.222C208.977 26.7418 209.09 26.965 208.42 26.4894H208.41ZM311.55 26.4894C311.682 26.9068 311.814 27.3144 311.956 27.7318H312.362C312.116 26.7418 312.229 26.965 311.559 26.4894H311.55ZM319.208 26.4894H318.405C318.745 26.9553 318.358 26.5477 318.811 26.9068V27.3241H319.218V26.4991L319.208 26.4894ZM478.355 28.1492H479.158V27.3241H479.564C479.432 27.0523 479.3 26.7709 479.158 26.4991C478.705 26.8485 479.101 26.4507 478.752 26.9165H478.346V28.1588L478.355 28.1492ZM141.93 26.9068C142.392 27.3824 141.93 27.0718 142.732 27.3241C142.27 26.8485 142.732 27.1592 141.93 26.9068ZM210.422 26.9068V28.1492H210.828V26.9068H210.422ZM313.561 26.9068V28.1492H313.967V26.9068H313.561ZM321.219 26.9068H320.417C320.757 27.3727 320.37 26.965 320.823 27.3241V27.7415H321.229V26.9165L321.219 26.9068ZM367.954 26.9068V28.1492H368.36V26.9068H367.954ZM471.103 26.9068V28.1492H471.509V26.9068H471.103ZM63.3616 27.3144V28.1395H63.7679V27.3144H63.3616ZM82.2954 27.3144V28.1395H82.7014V27.3144H82.2954ZM185.444 27.3144V28.1395H185.85V27.3144H185.444ZM212.433 28.1492V27.3241C211.98 27.6735 212.376 27.2756 212.027 27.7415H211.621C212.084 28.2171 211.621 27.9064 212.424 28.1588L212.433 28.1492ZM288.583 27.3144V28.1395H288.99V27.3144H288.583ZM319.605 27.3144V29.7991H320.011V27.3144H319.605ZM371.174 27.3144V28.1395H371.58V27.3144H371.174ZM372.789 27.3144V28.1395H373.195V27.3144H372.789ZM391.723 27.3144V28.1395H392.129V27.3144H391.723ZM474.323 27.3144V28.1395H474.729V27.3144H474.323ZM475.938 27.3144V28.1395H476.344V27.3144H475.938ZM494.872 27.3144V28.1395H495.278V27.3144H494.872ZM72.229 27.7318C72.6917 28.2074 72.2289 27.8968 73.0315 28.1492C72.5688 27.6736 73.0317 27.9841 72.229 27.7318ZM175.368 27.7318C175.831 28.2074 175.368 27.8968 176.171 28.1492C175.708 27.6736 176.171 27.9841 175.368 27.7318ZM484.796 27.7318C485.258 28.2074 484.796 27.8968 485.598 28.1492C485.136 27.6736 485.598 27.9841 484.796 27.7318ZM203.972 28.5568L204.378 29.7991H204.784C204.538 28.8091 204.652 29.0323 203.981 28.5568H203.972ZM307.121 28.5568C307.253 28.9741 307.385 29.3818 307.527 29.7991H307.933C307.687 28.8091 307.801 29.0323 307.13 28.5568H307.121ZM333.307 28.9742V29.7991H333.713V28.9742H333.307ZM78.6691 31.0415C78.3764 29.8962 78.556 30.1194 77.4606 29.7991C77.5928 30.3523 77.7249 30.9055 77.8666 31.4588H79.0754V31.8762C79.642 31.9538 78.9242 31.5849 79.4814 31.4588H81.0961V29.7991C80.6428 29.4497 81.0395 29.8476 80.6901 29.3817H79.8874V29.7991H80.2936C80.4258 30.5465 79.2924 30.8862 78.6786 31.0415H78.6691ZM131.051 29.3914L130.645 30.2165C130.645 30.2165 131.816 29.5564 131.448 29.3914H131.042H131.051ZM440.478 29.3914L440.072 30.2165C440.072 30.2165 441.243 29.5564 440.875 29.3914H440.469H440.478ZM62.1529 31.4588H62.9556V31.0415C62.5024 30.6921 62.899 31.09 62.5496 30.6241H62.1434V31.4491L62.1529 31.4588ZM76.2518 30.6338V31.4588C76.7051 31.1094 76.3084 31.5074 76.6578 31.0415H77.0638C76.6011 30.5659 77.064 30.8764 76.2613 30.6241L76.2518 30.6338ZM165.292 31.4588H166.095V31.0415C165.642 30.6921 166.038 31.09 165.689 30.6241H165.283V31.4491L165.292 31.4588ZM179.401 30.6338V31.4588C179.854 31.1094 179.457 31.5074 179.807 31.0415H180.213C179.75 30.5659 180.213 30.8764 179.41 30.6241L179.401 30.6338ZM282.54 30.6338V31.4588C282.993 31.1094 282.596 31.5074 282.946 31.0415H283.352C282.889 30.5659 283.352 30.8764 282.549 30.6241L282.54 30.6338ZM474.729 31.4588H475.532V31.0415C475.078 30.6921 475.475 31.09 475.126 30.6241H474.72V31.4491L474.729 31.4588ZM488.828 30.6338V31.4588C489.281 31.1094 488.885 31.5074 489.234 31.0415H489.64C489.177 30.5659 489.64 30.8764 488.837 30.6241L488.828 30.6338ZM69.8115 33.1185V32.2934L68.6027 32.7108L69.0087 34.3705H68.6027V34.7879C67.6584 34.9238 66.7235 35.0596 65.7792 35.2052V36.0303C66.308 36.1079 68.2816 36.5349 68.6027 36.4475L69.0087 35.6226L70.2175 36.04C70.3497 35.3509 70.482 34.6618 70.6237 33.9726H71.0297C71.4924 33.4971 71.0295 33.8076 71.8322 33.5552V34.3802H73.8438V33.5552H74.6463C74.3819 32.7303 74.1082 31.8955 73.8438 31.0705H73.4378L73.0315 32.3129C72.4555 32.7302 70.7086 33.0602 69.8115 33.1378V33.1185ZM115.337 31.0415V32.2837H115.743V31.0415H115.337ZM61.3503 31.8762V32.7011H61.7563V31.8762H61.3503ZM124.205 31.8762V32.7011H124.611V31.8762H124.205ZM164.49 31.8762V32.7011H164.896V31.8762H164.49ZM267.629 31.8762V32.7011H268.035V31.8762H267.629ZM387.294 31.8762C387.757 32.3517 387.294 32.0411 388.097 32.2934C387.634 31.8179 388.097 32.1285 387.294 31.8762ZM433.632 31.8762V32.7011H434.038V31.8762H433.632ZM473.917 31.8762V32.7011H474.323V31.8762H473.917ZM107.679 32.2837C108.142 32.7593 107.84 32.2838 108.085 33.1088H107.679V32.2837ZM210.422 32.7011C210.875 33.4097 210.677 33.264 211.63 33.5261C211.281 33.099 210.931 32.9535 210.422 32.7011ZM256.354 33.5261H257.156V33.1088C256.703 32.7594 257.1 33.1573 256.75 32.6914H256.344V33.5164L256.354 33.5261ZM106.876 33.1185H107.679V33.5358C106.867 33.3029 107.33 33.5844 106.876 33.1185ZM219.289 33.1185C219.752 33.5941 219.449 33.1185 219.695 33.9435H219.289V33.1185ZM327.669 34.7685H326.867V33.1088H326.461V33.5261C325.998 34.0017 326.3 33.5261 326.055 34.3511C326.461 34.6228 326.857 34.9044 327.263 35.1761C327.603 35.642 327.216 35.2343 327.669 35.5934V34.7685ZM215.663 33.5261V34.3511H216.069V33.5261H215.663ZM83.5042 34.3608V35.1859H83.9102V34.3608H83.5042ZM186.653 34.3608V35.1859H187.059V34.3608H186.653ZM275.694 34.7685C276.156 35.244 275.693 34.9335 276.496 35.1859C276.033 34.7103 276.496 35.0208 275.694 34.7685ZM132.656 36.0108V35.1859C132.203 35.5353 132.6 35.1373 132.25 35.6031H131.844C132.307 36.0787 131.844 35.7682 132.647 36.0205L132.656 36.0108ZM338.944 36.0108V35.1859C338.491 35.5353 338.888 35.1373 338.538 35.6031H338.132C338.595 36.0787 338.132 35.7682 338.935 36.0205L338.944 36.0108ZM96.8004 36.8455V37.6705H97.2064V36.8455H96.8004ZM104.865 36.8455V37.6705H105.271V36.8455H104.865ZM74.6463 37.2532V38.0782H75.0525V37.2532H74.6463ZM106.876 38.0879C106.857 39.767 106.687 39.8737 107.679 40.5725V40.1552C106.999 39.2623 107.991 38.1558 108.482 37.2532H108.076C107.622 37.9617 107.821 37.8161 106.867 38.0782L106.876 38.0879ZM114.129 37.2532C114.591 37.7288 114.129 37.4181 114.931 37.6705C114.469 37.1949 114.931 37.5055 114.129 37.2532ZM135.074 37.2532C134.942 37.6705 134.809 38.0781 134.668 38.4954H135.074V38.0782C135.244 37.8355 135.735 38.02 135.48 37.2532H135.074ZM177.786 37.2532V38.0782H178.192V37.2532H177.786ZM313.164 38.0879C313.145 39.767 312.976 39.8737 313.967 40.5725V40.1552C313.287 39.2623 314.279 38.1558 314.77 37.2532H314.364C313.91 37.9617 314.109 37.8161 313.155 38.0782L313.164 38.0879ZM320.417 37.2532C320.879 37.7288 320.417 37.4181 321.219 37.6705C320.757 37.1949 321.219 37.5055 320.417 37.2532ZM140.315 37.6705V38.4954H140.721V37.6705H140.315ZM185.444 38.4954H186.247V38.0782C185.794 37.7288 186.19 38.1266 185.841 37.6608H185.435V38.4857L185.444 38.4954ZM243.464 37.6705V38.4954H243.87V37.6705H243.464ZM279.32 37.6705C279.783 38.1461 279.48 37.6705 279.726 38.4954H279.32V37.6705ZM190.676 38.0879C190.544 38.3596 190.411 38.6411 190.27 38.9128L191.072 39.3301C191.365 38.8351 190.222 38.9711 191.072 38.0879H190.666H190.676ZM141.118 38.4954L140.712 39.7378H141.118V38.9128H141.524V38.4954H141.118ZM244.266 38.4954L243.86 39.3204C243.86 39.3204 245.031 38.6604 244.663 38.4954H244.257H244.266ZM32.7372 40.1552H33.54V39.7378C33.0867 39.3884 33.4831 39.7863 33.1337 39.3204H32.7277V40.1455L32.7372 40.1552ZM259.574 40.1552H258.771C259.111 40.6211 258.724 40.2134 259.177 40.5725V40.9899H259.583V40.1649L259.574 40.1552ZM46.4394 40.9802V41.8051H46.8454V40.9802H46.4394ZM104.459 40.9802V42.6398H104.865V42.2225H105.271C105.139 41.9508 105.006 41.6692 104.865 41.3975H105.271C104.808 40.9219 105.271 41.2325 104.468 40.9802H104.459ZM252.727 40.9802V41.8051H253.133V40.9802H252.727ZM313.561 40.9802C313.098 41.4558 313.561 41.1451 312.758 41.3975V41.8149H313.561C313.693 41.5431 313.825 41.2617 313.967 40.9899H313.561V40.9802ZM125.81 42.2225L125.404 43.0475C125.404 43.0475 126.575 42.3875 126.207 42.2225H125.801H125.81ZM110.503 43.0572V43.8822H110.909V43.0572H110.503ZM119.37 43.0572V43.8822H119.776V43.0572H119.37ZM100.426 43.8822H101.229C100.899 44.4257 100.946 44.3675 100.426 44.7072V45.1246H100.02L100.426 43.8822ZM114.535 43.8822L114.129 44.7072C114.129 44.7072 115.3 44.0472 114.931 43.8822H114.525H114.535ZM83.5042 45.5418V46.3668H83.9102V45.5418H83.5042ZM52.483 47.6092V48.4341H52.8892V47.6092H52.483ZM61.3503 48.0266V49.2688H62.9651V50.0939H64.1739C64.5044 49.5504 64.457 49.6085 64.9764 49.2688V48.0266C63.2955 48.3274 63.2862 48.1333 61.3503 48.0266ZM28.7144 48.8515C29.1771 49.3271 28.7145 49.0165 29.5171 49.2688C29.0544 48.7932 29.517 49.1039 28.7144 48.8515ZM112.117 49.2688V50.0939H112.523V49.2688H112.117ZM12.1886 55.8882C12.0564 56.3056 11.9243 56.7132 11.7827 57.1306H12.1886V56.3055H12.5946V55.8882H12.1886ZM64.1644 56.3055V57.1306H64.5704V56.3055H64.1644Z" fill="#FDE6AD"/>
</svg>
