<svg width="204" height="50" viewBox="0 0 204 50" fill="none" xmlns="http://www.w3.org/2000/svg">
<path d="M23.0786 3.16651C23.4225 2.35142 24.5775 2.35142 24.9214 3.16651L30.2569 15.8143C30.3999 16.1533 30.7176 16.3864 31.084 16.4211L44.5517 17.6962C45.4196 17.7784 45.7741 18.8543 45.1251 19.4363L34.9344 28.5752C34.6658 28.8161 34.5478 29.1829 34.6256 29.5353L37.603 43.021C37.7926 43.8801 36.8605 44.5478 36.1081 44.0918L24.5184 37.0666C24.1998 36.8735 23.8002 36.8735 23.4816 37.0666L11.8919 44.0918C11.1395 44.5478 10.2074 43.8801 10.397 43.021L13.3744 29.5353C13.4522 29.1829 13.3342 28.8161 13.0656 28.5752L2.87489 19.4363C2.22591 18.8543 2.58043 17.7784 3.44828 17.6962L16.916 16.4211C17.2824 16.3864 17.6001 16.1533 17.7431 15.8143L23.0786 3.16651Z" fill="#FFDF27"/>
<path d="M75.0786 3.16651C75.4225 2.35142 76.5775 2.35142 76.9214 3.16651L82.2569 15.8143C82.3999 16.1533 82.7176 16.3864 83.084 16.4211L96.5517 17.6962C97.4196 17.7784 97.7741 18.8543 97.1251 19.4363L86.9344 28.5752C86.6658 28.8161 86.5478 29.1829 86.6256 29.5353L89.603 43.021C89.7926 43.8801 88.8605 44.5478 88.1081 44.0918L76.5184 37.0666C76.1998 36.8735 75.8002 36.8735 75.4816 37.0666L63.8919 44.0918C63.1395 44.5478 62.2074 43.8801 62.397 43.021L65.3744 29.5353C65.4522 29.1829 65.3342 28.8161 65.0656 28.5752L54.8749 19.4363C54.2259 18.8543 54.5804 17.7784 55.4483 17.6962L68.916 16.4211C69.2824 16.3864 69.6001 16.1533 69.7431 15.8143L75.0786 3.16651Z" fill="#FFDF27"/>
<path d="M127.079 3.16651C127.422 2.35142 128.578 2.35142 128.921 3.16651L134.257 15.8143C134.4 16.1533 134.718 16.3864 135.084 16.4211L148.552 17.6962C149.42 17.7784 149.774 18.8543 149.125 19.4363L138.934 28.5752C138.666 28.8161 138.548 29.1829 138.626 29.5353L141.603 43.021C141.793 43.8801 140.86 44.5478 140.108 44.0918L128.518 37.0666C128.2 36.8735 127.8 36.8735 127.482 37.0666L115.892 44.0918C115.14 44.5478 114.207 43.8801 114.397 43.021L117.374 29.5353C117.452 29.1829 117.334 28.8161 117.066 28.5752L106.875 19.4363C106.226 18.8543 106.58 17.7784 107.448 17.6962L120.916 16.4211C121.282 16.3864 121.6 16.1533 121.743 15.8143L127.079 3.16651Z" fill="#FFDF27"/>
<path d="M179.079 3.16651C179.422 2.35142 180.578 2.35142 180.921 3.16651L186.257 15.8143C186.4 16.1533 186.718 16.3864 187.084 16.4211L200.552 17.6962C201.42 17.7784 201.774 18.8543 201.125 19.4363L190.934 28.5752C190.666 28.8161 190.548 29.1829 190.626 29.5353L193.603 43.021C193.793 43.8801 192.86 44.5478 192.108 44.0918L180.518 37.0666C180.2 36.8735 179.8 36.8735 179.482 37.0666L167.892 44.0918C167.14 44.5478 166.207 43.8801 166.397 43.021L169.374 29.5353C169.452 29.1829 169.334 28.8161 169.066 28.5752L158.875 19.4363C158.226 18.8543 158.58 17.7784 159.448 17.6962L172.916 16.4211C173.282 16.3864 173.6 16.1533 173.743 15.8143L179.079 3.16651Z" fill="#FFDF27"/>
</svg>
