<svg width="205" height="50" viewBox="0 0 205 50" fill="none" xmlns="http://www.w3.org/2000/svg">
<path d="M23.5786 3.16651C23.9225 2.35142 25.0775 2.35142 25.4214 3.16651L30.7569 15.8143C30.8999 16.1533 31.2176 16.3864 31.584 16.4211L45.0517 17.6962C45.9196 17.7784 46.2741 18.8543 45.6251 19.4363L35.4344 28.5752C35.1658 28.8161 35.0478 29.1829 35.1256 29.5353L38.103 43.021C38.2926 43.8801 37.3605 44.5478 36.6081 44.0918L25.0184 37.0666C24.6998 36.8735 24.3002 36.8735 23.9816 37.0666L12.3919 44.0918C11.6395 44.5478 10.7074 43.8801 10.897 43.021L13.8744 29.5353C13.9522 29.1829 13.8342 28.8161 13.5656 28.5752L3.37489 19.4363C2.72591 18.8543 3.08043 17.7784 3.94828 17.6962L17.416 16.4211C17.7824 16.3864 18.1001 16.1533 18.2431 15.8143L23.5786 3.16651Z" fill="#FFDF27"/>
<path d="M75.5786 3.16651C75.9225 2.35142 77.0775 2.35142 77.4214 3.16651L82.7569 15.8143C82.8999 16.1533 83.2176 16.3864 83.584 16.4211L97.0517 17.6962C97.9196 17.7784 98.2741 18.8543 97.6251 19.4363L87.4344 28.5752C87.1658 28.8161 87.0478 29.1829 87.1256 29.5353L90.103 43.021C90.2926 43.8801 89.3605 44.5478 88.6081 44.0918L77.0184 37.0666C76.6998 36.8735 76.3002 36.8735 75.9816 37.0666L64.3919 44.0918C63.6395 44.5478 62.7074 43.8801 62.897 43.021L65.8744 29.5353C65.9522 29.1829 65.8342 28.8161 65.5656 28.5752L55.3749 19.4363C54.7259 18.8543 55.0804 17.7784 55.9483 17.6962L69.416 16.4211C69.7824 16.3864 70.1001 16.1533 70.2431 15.8143L75.5786 3.16651Z" fill="#FFDF27"/>
<path d="M127.579 3.16651C127.922 2.35142 129.078 2.35142 129.421 3.16651L134.757 15.8143C134.9 16.1533 135.218 16.3864 135.584 16.4211L149.052 17.6962C149.92 17.7784 150.274 18.8543 149.625 19.4363L139.434 28.5752C139.166 28.8161 139.048 29.1829 139.126 29.5353L142.103 43.021C142.293 43.8801 141.36 44.5478 140.608 44.0918L129.018 37.0666C128.7 36.8735 128.3 36.8735 127.982 37.0666L116.392 44.0918C115.64 44.5478 114.707 43.8801 114.897 43.021L117.874 29.5353C117.952 29.1829 117.834 28.8161 117.566 28.5752L107.375 19.4363C106.726 18.8543 107.08 17.7784 107.948 17.6962L121.416 16.4211C121.782 16.3864 122.1 16.1533 122.243 15.8143L127.579 3.16651Z" fill="#FFDF27"/>
<path d="M179.579 3.16651C179.922 2.35142 181.078 2.35142 181.421 3.16651L186.757 15.8143C186.9 16.1533 187.218 16.3864 187.584 16.4211L201.052 17.6962C201.92 17.7784 202.274 18.8543 201.625 19.4363L191.434 28.5752C191.166 28.8161 191.048 29.1829 191.126 29.5353L194.103 43.021C194.293 43.8801 193.36 44.5478 192.608 44.0918L181.018 37.0666C180.7 36.8735 180.3 36.8735 179.982 37.0666L168.392 44.0918C167.64 44.5478 166.707 43.8801 166.897 43.021L169.874 29.5353C169.952 29.1829 169.834 28.8161 169.566 28.5752L159.375 19.4363C158.726 18.8543 159.08 17.7784 159.948 17.6962L173.416 16.4211C173.782 16.3864 174.1 16.1533 174.243 15.8143L179.579 3.16651Z" fill="#E1E1E1"/>
</svg>
