<svg width="190" height="22" viewBox="0 0 190 22" fill="none" xmlns="http://www.w3.org/2000/svg">
<path fill-rule="evenodd" clip-rule="evenodd" d="M46.5797 0.0338849C47.2395 0.179625 47.3371 0.552436 48.1042 0.613444C48.2147 0.393139 48.3804 0.0643655 48.7965 0.179602V0.325361C49.1507 0.460933 48.9525 0.179639 49.2125 0.471119H49.3523V1.05068L49.6286 1.1964V1.48452H49.7683C49.8138 1.63026 49.8593 1.77258 49.9081 1.91832H49.3523V2.35216C48.9687 2.45723 49.0435 2.39285 48.9362 2.78601C48.4519 2.90802 48.2894 3.15206 47.6881 3.21985C47.6978 3.59945 47.7433 3.7113 47.8278 3.94177C47.3533 3.90449 46.739 3.82652 46.7195 3.79601V4.0841H46.8592C47.298 4.08749 46.4432 4.22986 46.4432 4.22986C46.2676 4.00277 46.0727 3.87736 45.7509 3.79601C45.5428 4.18917 45.2698 4.41287 44.779 4.51794V4.22986L44.5027 4.37557C44.4214 4.59588 44.3954 4.61285 44.3629 4.95517C44.0704 4.9789 43.5243 5.08396 43.3911 5.24326C43.2221 5.44662 43.5146 5.40256 43.1148 5.6771V5.0975H42.975V5.6771H42.559V5.38897C42.3477 5.47371 42.3314 5.50084 42.0032 5.53473V5.24665L41.5871 5.39237C41.4961 5.63979 41.4538 5.84655 41.4473 6.26005H40.755C40.755 6.26005 40.6152 6.49052 40.4787 6.54813V6.69389H40.3389V6.40577H40.0627V6.26005H39.9229V6.40577H39.5068V6.55153C39.2663 6.77522 39.2143 7.22939 39.0908 7.56493C38.5805 7.51409 38.1774 7.31075 37.8426 7.71069C37.7971 7.85643 37.7516 7.99875 37.7029 8.14449C37.3323 8.19194 36.9617 8.23941 36.5944 8.29025V8.436L36.3182 8.58172V8.86981L35.9021 8.72409L35.7624 9.01217H35.3463C35.3236 9.02573 35.1838 9.22908 35.07 9.30025V9.44601C34.8392 9.39856 34.6085 9.35109 34.3777 9.30025V9.15454C34.2965 9.14437 33.9031 9.39856 33.6854 9.44262C33.5911 9.71716 33.5066 10.3272 33.409 10.5983L32.9931 10.4526V10.3069C32.8013 10.2696 33.0483 10.412 32.8532 10.4526C32.5217 10.5204 32.4957 10.3442 32.2974 10.3069L32.0212 10.7407H31.4653V10.8865L31.0493 11.0322V11.466H31.3256V11.6118H31.1858C31.1111 11.6796 30.0741 11.9778 30.0774 11.6118H29.9376V11.8999L29.2453 11.7541C29.2518 12.2727 29.2128 12.6659 28.969 12.9099V12.7641H28.8293V12.1846H28.553C28.5432 12.5642 28.4977 12.676 28.4132 12.9065C28.1239 12.8184 27.8476 12.7438 27.5811 13.0522V13.3403H27.4414V13.486L26.6092 13.3403C26.5637 13.4352 26.5182 13.5335 26.4695 13.6284C26.2842 13.6759 26.099 13.7233 25.9137 13.7742V14.0623H25.3579V14.3503C25.0263 14.2826 24.9223 14.1843 24.6655 14.0623V14.7842C24.3405 14.8316 24.0187 14.8791 23.6936 14.9299V15.0757C23.2873 15.1739 23.2386 15.2349 23.1378 15.6552C23.3329 15.6654 23.1183 15.6315 23.2776 15.5095C23.4953 15.3434 23.4076 15.8653 23.4173 15.9433C23.18 16.106 23.2288 16.0348 23.1411 16.3771C23.3264 16.3297 23.5116 16.2823 23.6969 16.2314L23.8366 15.9433C23.8626 15.9399 24.1617 16.0789 24.3924 16.0891V15.801C24.5322 15.8484 24.6687 15.8959 24.8085 15.9467L24.9483 15.6586C25.1173 15.5739 25.3546 15.5806 25.5041 15.5129V14.9333C25.8324 14.8757 26.2679 14.6588 26.7522 14.7876V14.9333H27.3081V14.7876H27.5843V14.208H27.8607V14.4961C28.2767 14.4012 28.6927 14.3029 29.1088 14.208L29.2486 14.3537C29.6289 14.0758 29.3753 13.8589 30.0806 13.7742C30.2399 13.9402 30.0807 13.8318 30.3569 13.9199V13.486L31.0493 13.3403V13.0522C31.5076 13.1302 31.6798 13.2353 31.8814 13.0522H32.0212C32.1967 12.8286 31.8717 12.7608 32.1609 12.6184V12.7641H32.3007V12.3303C32.6062 12.2795 33.019 12.1405 33.409 12.3303C33.4545 12.4252 33.5001 12.5235 33.5489 12.6184H33.8251V12.3303C34.1046 12.4117 33.9454 12.3134 34.1014 12.476L34.5175 12.3303V12.1846H34.9335C35.0245 12.0388 35.1188 11.8965 35.2098 11.7507C35.4406 11.7982 35.6714 11.8456 35.9021 11.8965V12.0422C36.0029 12.0625 36.4125 11.9134 36.874 11.8965L36.7343 11.4626H37.0105V11.6084H37.5663L37.7061 11.7541V11.6084L38.1221 11.4626C38.1124 11.083 38.0669 10.9712 37.9824 10.7407H38.8145C38.9738 10.5746 38.8145 10.6831 39.0908 10.595C39.1981 10.1612 39.1753 10.2154 39.6466 10.1612C39.8026 10.4086 39.7344 10.3577 40.0627 10.4492C40.2024 10.0866 40.3487 9.69343 40.6185 9.86968H40.7582V10.3035H41.0345C41.1353 9.90354 41.0736 9.98152 41.4506 9.86968V9.72392L42.2826 9.5782C42.2826 9.5782 42.3444 9.78832 42.559 9.72392L42.6987 9.43584H43.1148V9.14775L43.3911 9.29347V9.43923C43.5731 9.5104 43.4203 9.37142 43.5308 9.29347C43.8786 9.19518 43.7551 9.21891 43.9469 9.00539H44.0866V8.7173L44.3629 8.57154C44.5255 8.38852 44.597 8.15128 44.779 7.99198V8.13774H45.195C45.2405 8.33093 45.2861 8.52411 45.3348 8.7173H45.4746C45.8126 8.12756 46.2514 8.18179 46.999 7.99538C47.0412 7.98521 47.0348 7.79539 47.2753 7.84962V7.99538C47.5516 8.09028 47.8311 8.18856 48.1074 8.28346V8.13774H48.2472L48.1074 7.7039C48.1984 7.65645 48.2926 7.60898 48.3836 7.55814C48.5754 7.25649 48.3219 7.35477 48.66 7.1243V6.97858L49.3523 6.83283C49.2775 7.23615 49.245 6.84639 49.3523 7.26667H49.4921V6.97858C49.7684 7.02603 50.0478 7.07346 50.3241 7.1243V6.97858C50.4736 6.8464 50.3502 7.00229 50.4639 6.83283H50.3241V6.68711H50.7402C50.7694 7.02943 50.7987 7.04636 50.8799 7.26667C51.0392 7.10059 50.9352 7.26668 51.0198 6.97858C51.179 6.81251 51.075 6.97859 51.1595 6.6905C51.5755 6.54476 51.9916 6.4024 52.4077 6.25666L52.5474 6.40242C52.5929 5.93469 52.6742 5.97875 52.8237 5.68049H53.1V5.82621H53.2397V5.68049H53.7956L53.9354 5.24665C54.2961 5.39917 54.5204 5.51101 55.0437 5.53473C54.9982 5.43983 54.9527 5.34155 54.904 5.24665C54.9982 5.08735 55.6841 5.04328 55.8758 4.81281L55.7361 4.52472H55.8758V4.37897C56.2431 4.54843 56.3991 4.65688 56.9842 4.66705V4.52133H56.8444V4.08749C57.2832 4.18239 57.124 4.30779 57.2605 4.37557C57.423 4.36541 57.7546 4.08412 58.0926 4.22986L58.2324 4.51794H58.5087C58.3754 4.99583 58.3786 5.36865 58.6484 5.81942H58.5087C58.3494 5.9855 58.5087 5.87706 58.2324 5.96518V6.68711H58.0926C58.0569 6.92775 58.2226 6.93791 58.2324 6.97519V7.69712C57.7351 7.71745 57.4458 7.90386 57.124 7.9852L56.8477 7.83948C56.7567 7.98522 56.6624 8.12754 56.5714 8.27328C56.4934 8.30718 55.814 8.16485 55.5995 8.12757C55.515 8.50717 55.2063 8.89355 54.7675 8.84949C54.7675 8.84949 54.6927 8.66645 54.4912 8.70373L54.6309 8.99182H54.0751C54.0296 9.23246 53.9841 9.4731 53.9354 9.71374L53.243 9.56802L53.1032 9.85611C52.7294 9.9544 52.7392 9.57819 52.6872 9.56802L52.2711 9.71374L52.4109 9.8595C52.4174 9.91712 52.2874 10.1849 52.2711 10.4391C51.8096 10.4865 51.348 10.534 50.8832 10.5848V10.2967C50.5549 10.2662 50.5387 10.2357 50.3274 10.151V10.5848C50.2981 10.6458 49.375 11.3135 49.9113 11.5982H49.4953V11.4525C49.3621 11.1847 49.3555 11.7406 49.3555 11.7406C49.1995 11.8626 49.336 11.7236 49.2158 11.8863C49.6058 11.7507 49.6026 11.7338 50.0479 11.8863V12.0321L50.4639 11.8863L50.3241 11.7406L50.4639 11.3067C51.114 11.5677 51.5431 11.3915 51.9884 11.0187C52.0339 10.9238 52.0794 10.8254 52.1281 10.7305H52.8205C52.8205 10.7305 52.8074 10.6458 53.0967 10.5848V11.0187H53.2365V10.7305C53.828 10.7204 54.1564 10.7 54.4846 10.4425L54.6244 10.1544C54.8552 10.2018 55.086 10.2493 55.3168 10.3001C55.1575 10.1341 55.3167 10.2425 55.0405 10.1544V9.86628C55.1802 9.91374 55.3167 9.96116 55.4565 10.012V9.72392H55.7328V10.012C56.5357 9.94422 57.111 9.47312 57.6733 9.14436V9.5782H57.9495V9.29008H58.9215V9.14436H59.3375V8.9986C59.6138 9.04605 59.8933 9.09352 60.1696 9.14436C60.2866 8.98167 60.1533 9.12401 60.3093 8.9986V8.41904C60.5856 8.37159 60.8652 8.32412 61.1415 8.27328C61.096 8.41902 61.0505 8.56138 61.0017 8.70713H61.1415V8.85288C61.2975 8.73087 61.1609 8.86981 61.2812 8.70713C61.4405 8.54105 61.3365 8.70713 61.421 8.41904C61.6388 8.42921 62.3929 8.56476 62.3929 8.56476V8.41904H62.5326V7.9852C62.6854 7.78184 63.1567 7.83609 63.5045 7.83948V7.9852L64.3366 7.83948V7.69372H64.6129V7.54797H65.0289L64.8892 7.98181H65.0289C65.1297 7.58187 65.0679 7.65981 65.445 7.54797V7.83609C65.5848 7.78864 65.7213 7.74117 65.861 7.69033V7.54461C66.1861 7.49716 66.5079 7.44969 66.8329 7.39886V7.2531H67.249L67.3887 6.96501C67.5057 6.91756 68.3021 7.11752 68.4972 7.2531V6.96501L68.9132 6.8193V6.67354C69.1017 6.61253 68.8579 6.77862 69.053 6.8193C69.2837 6.86675 69.2999 6.68032 69.3292 6.67354C69.5827 6.61931 69.8656 6.86333 70.0216 6.96162V6.8159C70.4539 6.4058 70.0541 6.20244 70.8537 6.09398V6.2397H71.2698L71.1299 6.52782C71.3087 6.76168 71.39 6.36849 71.546 6.96162C71.728 6.8091 71.754 6.66678 71.962 6.52782V6.96162H72.2384C72.1929 6.67353 72.1473 6.38207 72.0985 6.09398C72.7486 5.8635 72.5666 6.20582 72.9307 5.37205H73.0704C73.0542 5.68048 72.9274 5.86688 72.9307 5.95161L73.0704 6.09737C73.3239 5.91435 73.0867 5.9008 73.2102 5.80929C73.3695 5.68727 73.298 5.94145 73.35 5.955C73.4897 5.90755 73.6263 5.86013 73.766 5.80929V5.52116C74.0781 5.46354 74.2991 5.28393 74.7379 5.37545C74.7379 5.37545 74.7444 5.56522 75.0141 5.52116V5.37545H75.7065V5.52116C75.375 5.60928 75.4497 5.56865 75.2905 5.80929H75.5668C75.9666 5.12126 76.6328 5.3619 77.3707 5.08736L77.5105 4.65352C77.9071 4.65352 78.1053 4.70434 78.3426 4.79924V4.21968H78.4824C78.5734 4.36542 78.6676 4.50778 78.7586 4.65352H78.8984L78.7586 4.9416H78.8984V5.08736C79.295 5.38562 79.256 4.82974 79.4542 5.52116H79.7305V5.80929H80.0068C79.9613 5.95503 79.9158 6.09735 79.867 6.24309H80.0068C80.101 6.46 80.1043 6.48376 80.1465 6.82269H80.4228V7.11077C80.6374 7.23957 80.7121 7.32431 80.8389 7.54461C81.2875 7.29042 81.1022 7.19889 81.671 7.39886L81.5312 6.96501H81.8075V6.67693H82.0838V6.82269H82.2236V6.67693L82.6396 6.82269L82.4998 7.25649H82.7761C82.8769 6.85655 82.8151 6.93454 83.1922 6.82269C83.4002 6.56849 83.566 6.54812 84.0243 6.53456V6.24648C84.3006 6.15158 84.5801 6.0533 84.8564 5.9584C84.8661 6.338 84.9117 6.44985 84.9962 6.68032C85.1522 6.55831 85.0157 6.69725 85.1359 6.53456H85.2757V6.10076C85.6917 6.14821 86.1078 6.19564 86.5239 6.24648V5.9584H86.8001L86.9399 5.52456C87.1252 5.57201 87.3104 5.61947 87.4957 5.67031C87.5412 5.57541 87.5867 5.47713 87.6355 5.38223L88.3278 5.52795V5.81603C88.6821 5.59234 89.2835 4.91788 89.7158 5.23647H89.992V5.52456H90.1318V5.23647C90.7981 5.19919 90.8014 5.13479 91.3799 5.23647C91.4254 4.99583 91.4709 4.75519 91.5197 4.51455C92.16 4.38914 92.6444 4.38914 93.0442 4.51455V4.22646H93.8762V4.37218H94.2923V4.51794C94.432 4.47049 94.5686 4.42302 94.7083 4.37218V4.22646C94.5491 4.06039 94.6531 4.22647 94.5686 3.93838C95.0236 3.94855 94.9781 4.1214 95.2609 3.93838L95.4007 3.65026L96.2328 3.93838V4.22646C96.6066 4.22646 97.0193 4.2739 97.2046 4.0807V3.79262L97.4809 3.93838V3.79262C97.7572 3.74517 98.0368 3.69774 98.3131 3.6469C98.4431 3.73503 98.2643 3.85363 98.4528 3.79262L98.5925 3.50454C98.7681 3.50454 98.9469 3.7621 99.2849 3.65026V3.50454C99.5157 3.45709 99.7464 3.40962 99.9772 3.35878L99.8375 3.79262H99.9772C100.286 4.14172 100.237 3.996 100.67 3.93838C100.653 4.39594 100.4 4.20949 100.809 4.37218C100.871 4.73145 100.936 4.90434 100.949 5.38562C100.566 5.49069 100.64 5.42626 100.533 5.81942H100.393V6.54135C100.062 6.60914 99.9578 6.70742 99.701 6.82943V6.39563H99.5612C99.3564 7.20568 99.3207 6.69388 98.8689 6.97519V7.12095L98.3131 7.55475C98.3586 7.40901 98.404 7.26669 98.4528 7.12095H98.3131C98.2285 7.35142 98.1895 7.46327 98.1732 7.84288C97.6499 7.95811 97.3964 8.12418 96.6488 8.13096V7.84288H96.3726V8.13096H95.6802V8.27668H95.8199C95.7322 8.48342 95.6575 8.38513 95.5437 8.56476H95.2674L95.4072 8.27668H95.2674C95.1309 8.47326 95.1861 8.56137 94.8513 8.56476C94.8513 8.56476 94.7539 8.35803 94.5751 8.41904C94.5296 8.51394 94.484 8.61222 94.4353 8.70713H94.159L94.0193 9.57481L93.4634 9.72053V9.14097H93.1872C93.0864 9.6053 92.9986 9.6663 92.4948 9.72053L92.6346 9.28668H92.4948C92.4428 9.45276 92.4558 9.80187 92.2186 9.72053L92.0787 9.28668C91.939 9.33413 91.8025 9.3816 91.6628 9.43244V9.72053C91.4417 9.6324 91.3344 9.59176 90.9704 9.57481V9.14097H90.8306V9.57481C90.9899 9.74089 90.8859 9.5748 90.9704 9.86289C90.6453 9.91034 90.3236 9.95777 89.9985 10.0086V10.2967C89.5077 10.351 89.5759 10.4764 89.1664 10.5848V11.0187C88.8284 10.9373 88.8609 10.8661 88.6106 10.7305V11.0187H88.4708V11.4525H88.6106V11.1644H88.8869V11.4525C89.1177 11.405 89.3484 11.3576 89.5792 11.3067V11.7406H89.8555V11.3067C90.0863 11.3542 90.317 11.4016 90.5478 11.4525C90.6128 11.1068 90.7071 10.9983 90.8241 10.7305C91.2759 10.7339 91.8253 10.6662 92.0723 10.8763H92.2121C92.2576 10.7814 92.303 10.6831 92.3518 10.5882H92.6281V10.4425H92.9044V10.2967L93.1807 10.4425V10.2967H94.5686C94.5231 10.151 94.4776 10.0086 94.4288 9.86289H94.7051V9.71713H94.8448V9.86289L95.2609 10.0086C95.2706 10.212 95.2934 10.0493 95.1211 10.1544C95.2772 10.3069 95.1212 10.2188 95.3975 10.3001V10.1544H95.5372V9.72053H95.677C95.7972 9.52056 95.7809 9.46973 95.8167 9.14097C96.145 9.12402 96.1678 9.09689 96.3726 8.99521V9.14097H96.5123V9.28668L96.3726 9.57481H96.7886V9.28668C97.1137 9.23923 97.4355 9.19181 97.7605 9.14097V9.28668H97.9003C98.0563 9.17145 97.8482 9.09691 98.04 9.14097V9.28668H98.5958V9.57481H98.7356C98.7811 9.28672 98.8266 8.99522 98.8754 8.70713H99.1516V8.99521H99.2914V8.56141C99.61 8.57497 99.6522 8.6834 99.8472 8.70713L99.987 8.41904C99.987 8.41904 100.367 8.55459 100.543 8.56476V8.27668L100.683 8.42243C100.868 8.37498 101.053 8.32752 101.238 8.27668V8.42243H101.931V7.98859H102.207V8.13435H102.347V7.98859L102.623 8.13435L102.763 7.70051C103.13 7.55816 103.052 8.01571 103.319 7.98859V7.84288C103.926 7.69375 104.082 7.48699 104.707 7.40903V7.55475H104.567C104.304 7.68015 104.843 7.70051 104.843 7.70051C104.96 7.8632 104.827 7.72082 104.983 7.84623V7.55814L105.675 7.41243C105.721 7.31752 105.766 7.2192 105.815 7.1243L105.955 7.27006C106.777 7.32429 106.884 6.96842 107.343 6.6905V7.1243H107.482C107.642 6.95822 107.482 7.06671 107.759 6.97858V6.6905C107.899 6.73795 108.035 6.78538 108.175 6.83622L108.315 6.54813H108.87V6.40242H109.01C109.095 6.74813 109.056 6.67014 109.286 6.83622V6.40242C110.014 6.2804 109.901 6.38546 110.535 6.6905C110.606 6.35157 110.736 6.14821 110.951 5.96858C111.11 6.13465 110.951 6.02617 111.227 6.11429V5.82621H111.643V5.53813C111.874 5.58558 112.104 5.633 112.335 5.68384V5.97197H112.612V5.53813C112.914 5.55846 113.073 5.68384 113.167 5.68384V5.53813L113.583 5.39237C113.629 5.48727 113.674 5.58559 113.723 5.68049C114.165 5.81606 114.828 5.37883 115.111 5.24665L114.971 4.81281H115.387C115.472 5.15852 115.433 5.08057 115.664 5.24665C115.781 5.40934 115.647 5.26696 115.803 5.39237C115.813 5.01276 115.859 4.90092 115.943 4.67044C116.22 4.62299 116.499 4.57556 116.775 4.52472C116.892 4.68741 116.759 4.54504 116.915 4.67044C116.808 4.81618 116.746 4.81283 116.639 4.95857H117.055L116.915 4.52472L117.055 4.37897C117.26 4.44675 117.276 4.54506 117.611 4.52472V4.37897H117.75V4.52472C117.936 4.57217 118.121 4.6196 118.306 4.67044V4.8162C118.872 5.0399 119.129 4.71115 119.415 4.96196C119.847 5.26022 119.48 5.14836 119.691 5.54152L119.967 5.68724V5.97536H120.107C120.234 6.17194 120.211 6.22955 120.247 6.55492L119.691 6.40916C119.801 6.87689 119.948 6.9074 119.967 7.56493C119.811 7.68694 119.948 7.548 119.827 7.71069H119.688C119.645 7.27685 119.668 7.3175 119.411 7.13109V7.27684H119.551C119.46 7.47004 119.366 7.66321 119.275 7.8564C118.914 7.86318 118.797 7.88693 118.582 8.00216V8.14788C118.345 8.23261 118.342 8.01233 118.306 8.00216C117.809 7.86998 117.494 8.1852 117.334 8.436H117.195C117.149 8.7241 117.104 9.01556 117.055 9.30365H116.779L116.639 9.01556C116.453 9.06301 116.268 9.11044 116.083 9.16128C116.112 9.5036 116.141 9.52058 116.223 9.74088C115.901 9.72732 115.868 9.62563 115.667 9.59512L115.527 9.88321C115.342 9.93066 115.157 9.97813 114.971 10.029C114.871 10.4289 114.932 10.351 114.555 10.4628C114.068 10.9204 113.658 10.2798 113.583 10.317V10.4628C113.353 10.6085 113.122 10.7509 112.891 10.8966C112.966 11.4016 113.028 11.1644 112.891 11.6185H113.031V11.4728H113.587V11.7609L114.003 11.6151V11.4694L114.419 11.6151V11.1813C114.559 11.2288 114.695 11.2762 114.835 11.3271V11.1813L114.695 11.0356H115.527C115.573 11.1813 115.618 11.3237 115.667 11.4694C115.758 11.422 115.943 11.1813 115.943 11.1813C116.083 11.2288 116.22 11.2762 116.359 11.3271V11.1813C116.564 11.0695 116.59 11.0729 116.915 11.0356V10.7475H117.191V10.4594H117.747V10.7475C118.059 10.7102 118.114 10.7339 118.303 10.6017V10.456H118.579V10.3103H118.856V10.1645C119.103 9.9578 119.187 9.83916 119.548 9.7307V10.1645H120.104C120.149 9.9239 120.195 9.68326 120.243 9.44262H120.52C120.474 9.58836 120.429 9.73072 120.38 9.87646H120.52C120.718 9.66971 121.293 9.50702 121.628 9.44262V9.15454C121.813 9.10709 121.999 9.05962 122.184 9.00878V8.57494H122.46V9.00878H122.737V8.57494H123.429C123.383 8.72068 123.338 8.86304 123.289 9.00878H123.565C123.708 8.8427 123.822 8.73086 124.121 8.7207V8.86641H124.261L124.401 8.7207C124.531 8.45972 124.592 8.49358 124.677 8.14109L125.093 7.99538V7.84962L125.233 7.99538L125.649 7.84962V8.28346H125.925C125.954 7.94114 125.984 7.92421 126.065 7.7039L126.341 7.84962V7.7039C126.54 7.52427 126.556 7.30393 126.757 7.1243C126.8 7.19209 127.04 7.64965 127.173 7.55814L127.313 7.1243C127.914 7.07685 128.516 7.02942 129.117 6.97858V7.1243C128.734 7.22937 128.808 7.16498 128.701 7.55814C129.046 7.49375 129.211 7.42598 129.673 7.41243V7.26667H129.533V6.54474C129.764 6.59219 129.995 6.63966 130.225 6.6905C130.271 6.54476 130.316 6.4024 130.365 6.25666C130.524 6.42273 130.421 6.25665 130.505 6.54474L130.921 6.6905V6.54474C131.207 6.38205 131.171 6.32106 131.613 6.25666V5.82282C131.909 5.80587 132.088 5.67371 132.169 5.6771L132.309 5.82282V5.53473L133.001 5.38897V5.6771C133.092 5.62965 133.187 5.58218 133.278 5.53134V5.38562C133.499 5.35851 133.45 5.63642 133.554 5.67371H134.11C134.155 5.43307 134.201 5.19242 134.249 4.95178C134.48 4.99923 134.711 5.04666 134.942 5.0975L135.082 4.80942H135.221V4.95517C135.361 4.90772 135.498 4.86025 135.637 4.80942V4.52133C135.797 4.68741 135.693 4.52132 135.777 4.80942H136.053C136.118 4.46371 136.213 4.35525 136.33 4.08749C136.791 4.09427 137.578 4.23325 137.578 4.23325V4.08749H137.854V3.94177H138.27C138.316 3.84687 138.361 3.74855 138.41 3.65365C138.55 3.7011 138.686 3.74857 138.826 3.79941V3.94517H139.518V3.65704L140.074 3.51132V3.79941H140.35C140.438 4.19596 140.532 4.12817 140.627 4.52133H141.043C141.144 4.92127 141.082 4.84333 141.459 4.95517V5.24326C140.63 5.4195 140.741 5.82282 140.487 6.54474H141.319L141.459 5.96518C142.037 5.87367 141.852 5.82284 142.431 5.6771V5.96518C143.087 5.67709 142.99 5.67709 143.539 5.96518V5.6771C143.724 5.62965 143.91 5.58218 144.095 5.53134V5.24326H144.371V5.38897H144.511V5.24326C144.826 5.17886 144.885 5.3178 145.067 5.38897V5.24326H144.927C144.67 5.1043 145.203 5.0975 145.203 5.0975V4.80942H145.48V4.52133C145.915 4.60606 146.097 4.75519 146.588 4.80942L146.728 4.37557C146.728 4.37557 146.432 4.35187 146.588 4.22986H146.864V4.37557H147.696V3.94177C148.138 4.03667 147.969 4.15529 148.112 4.22986C148.343 4.20613 148.369 3.94516 148.389 3.94177C148.655 3.86382 148.58 4.03665 148.665 4.08749H148.805V3.94177C148.99 3.98922 149.175 4.03665 149.361 4.08749C149.461 3.68755 149.4 3.7655 149.777 3.65365V3.94177H150.332C150.462 3.6808 150.524 3.71466 150.609 3.36217L151.025 3.50793V3.36217C151.116 3.31472 151.21 3.26729 151.301 3.21645V3.50454H151.577L151.438 3.0707C151.769 3.00291 151.873 2.90463 152.13 2.78261V3.36217C152.851 3.16559 152.624 3.0436 153.518 3.21645V2.78261H153.934V2.92837C153.875 3.0131 153.706 2.9487 153.794 3.21645H153.934C154.158 2.32168 154.23 2.9724 154.766 2.63685C155.081 2.44027 154.756 2.10473 155.458 1.91493V2.06069L155.874 1.91493V2.20305H156.014V1.91493C156.505 1.96916 156.437 2.0946 156.846 2.20305V2.49114C156.976 2.71822 157.838 2.75889 157.402 3.21306H157.678V3.79262L157.402 3.93838C157.396 3.98583 157.532 4.26035 157.542 4.51794H157.818C157.753 4.86365 157.659 4.97211 157.542 5.23986C157.295 5.25342 157.041 5.3924 156.986 5.38562V5.23986H156.43V5.38562L155.598 5.53134V5.81942C155.413 5.91432 155.228 6.01261 155.042 6.10751V5.96179H154.902V6.39563L153.931 6.68372C154.09 6.84979 153.931 6.74131 154.207 6.82943V6.97519C154.451 7.09382 154.652 6.89044 154.763 6.82943V6.68372H155.179V6.39563C155.826 6.36174 155.969 6.18548 156.427 5.96179V5.81603H157.399V5.96179H157.259C157.1 6.12787 157.259 6.01939 156.983 6.10751V6.39563C157.548 6.22617 157.129 6.26344 157.399 5.96179L157.675 6.10751V5.96179H157.951V5.81603H158.367C158.514 5.72791 158.712 5.1009 159.06 5.23647V5.38223H159.336V4.94839C159.476 4.99584 159.612 5.04327 159.752 5.09411V4.94839C160.028 4.90094 160.308 4.85347 160.584 4.80263V5.09071H160.86C160.906 5.23645 160.951 5.37881 161 5.52456H161.14V5.23647H161.416C161.498 4.69757 161.498 4.90434 161.416 4.36883C161.459 4.38578 162.752 4.68403 162.804 4.65691V4.51115H162.944V3.93159H163.084C163.367 4.19596 163.714 3.97227 164.192 3.93159V3.64351C164.472 3.72485 164.312 3.62654 164.468 3.78923C164.979 3.63671 164.849 3.49776 165.161 3.20967V3.06391C165.512 2.83683 166.256 3.05374 166.825 3.06391C166.913 2.66736 167.007 2.73515 167.101 2.34199C167.696 2.31826 167.576 2.25048 167.933 2.0539V2.48774H168.489C168.518 2.14542 168.548 2.12849 168.629 1.90818L169.045 2.0539L169.185 1.76582H169.461V1.62006C169.601 1.57261 169.737 1.52518 169.877 1.47434L170.017 1.90818C170.368 1.61331 170.075 1.55908 170.709 1.47434V1.62006C170.55 1.75224 170.547 1.72516 170.433 1.90818H170.573V2.0539C170.862 1.8946 170.82 1.82005 171.265 1.76582C171.382 1.92851 171.249 1.78617 171.405 1.91158C171.242 2.18611 171.288 2.05053 170.989 2.19966V2.34538H171.265C171.219 2.63347 171.174 2.92497 171.125 3.21306H171.265V3.35878H171.125V3.6469C171.171 3.98584 171.216 4.32137 171.265 4.66031H171.125C171.008 4.82638 171.054 4.86366 170.849 4.94839V4.80263H170.709C170.618 4.94837 170.524 5.09073 170.433 5.23647H170.017L169.877 5.52456C169.692 5.57201 169.507 5.61947 169.321 5.67031C169.276 5.81605 169.23 5.95842 169.182 6.10416L168.765 6.24987L168.626 6.53796H168.486V6.39224C167.976 6.26683 167.816 6.88367 167.514 6.53796V6.82608H167.238C167.283 7.01927 167.329 7.21245 167.378 7.40564H167.238C167.082 7.65306 167.15 7.60221 166.822 7.69372C166.809 7.66322 166.623 7.16837 166.545 7.25988V7.40564L166.269 7.55136C166.224 7.6971 166.178 7.83946 166.129 7.9852H165.713C165.248 8.22245 165.531 8.3682 164.741 8.41904C164.787 8.56478 164.832 8.70714 164.881 8.85288C165.067 8.80543 165.252 8.75796 165.437 8.70713V9.14097H165.577V8.99521H166.133C166.555 8.82913 166.75 8.59191 167.381 8.56141V8.27328C167.774 8.18177 167.748 8.00554 167.797 7.9852H168.353V8.13096L168.908 7.9852C168.908 7.9852 168.97 8.16485 169.185 8.13096V7.9852L169.741 8.13096V7.9852C169.9 7.81912 169.796 7.98521 169.88 7.69712H169.741V7.84288C169.62 8.11741 169.601 7.55475 169.601 7.55475C170.108 7.6022 170.618 7.64967 171.125 7.70051L171.265 7.41243C171.405 7.36836 171.519 7.6361 171.821 7.55814V7.41243H172.513V7.55814H172.653V7.41243H173.209L173.348 6.97858H173.488L173.348 6.6905H173.765C173.924 6.85658 173.765 6.7481 174.041 6.83622V6.54813C174.372 6.61592 174.476 6.7142 174.733 6.83622V6.6905H174.593C174.337 6.55154 174.87 6.54474 174.87 6.54474V6.6905C175.029 6.85658 174.925 6.69049 175.009 6.97858C175.305 6.96164 175.481 6.83283 175.565 6.83283V6.97858H175.842C175.881 6.721 175.981 6.6905 175.981 6.6905C175.936 6.54476 175.89 6.4024 175.842 6.25666H175.981V6.1109C176.375 6.29392 176.553 6.48373 177.09 6.54474V6.25666C177.899 6.06347 177.168 5.89061 177.922 6.25666V5.6771H178.062V5.82282C178.247 5.67708 178.432 5.53471 178.617 5.38897V5.96858H178.757C178.825 5.90079 178.718 5.73469 178.897 5.82282V5.96858H179.037C179.037 5.96858 178.998 6.48713 179.176 6.25666V6.1109C179.336 5.94482 179.232 6.11091 179.316 5.82282H178.9C179.007 5.38898 178.985 5.4432 179.456 5.38897V5.53473L179.872 5.38897V5.53473H180.288V5.68049C180.646 5.75845 181.049 5.22969 181.26 5.10089L181.676 5.24665V5.10089C181.907 4.94498 181.907 4.90432 182.232 4.81281C182.186 4.95855 182.141 5.10091 182.092 5.24665H182.232V5.39237C182.372 5.29747 182.508 5.19918 182.648 5.10428V4.95857H182.924C183.174 4.84333 183.226 4.62977 183.34 4.37897C183.571 4.57216 183.802 4.76538 184.033 4.95857C184.117 4.67386 184.039 4.60607 184.309 4.52472C184.354 4.54167 184.351 4.79586 184.585 4.81281C184.881 4.4027 184.709 4.52131 185.141 4.66705C185.186 4.19932 185.268 4.24342 185.417 3.94517C185.902 4.02312 185.674 4.08752 186.11 3.94517V4.81281H186.249C186.405 4.56539 186.337 4.61624 186.665 4.52472C186.925 4.97889 187.179 4.93484 187.221 5.68049C187.602 5.69744 188.226 5.88046 188.33 5.68049H188.469V5.82621C188.853 5.92111 189.288 6.22954 189.441 6.54813V6.98198H189.581C189.773 7.24973 189.903 7.31752 189.997 7.7039C189.857 7.65645 189.721 7.60898 189.581 7.55814V7.7039H189.721V8.13774H189.861C189.987 8.35127 189.984 8.49362 190 8.85967C189.841 9.02575 189.945 8.85966 189.861 9.14775C189.399 9.1952 188.937 9.24263 188.473 9.29347V9.00539C188.287 9.05284 188.102 9.10031 187.917 9.15114V8.86302C187.826 8.91047 187.731 8.95794 187.64 9.00878C187.595 8.91388 187.549 8.8156 187.501 8.7207C187.497 8.7207 187.091 8.91728 186.808 8.7207L186.669 8.28685C186.506 8.16823 186.431 8.71051 186.113 8.57494V8.42922C185.954 8.26314 186.058 8.42919 185.973 8.14109L185.557 8.28685V8.14109H185.417C185.463 7.99535 185.508 7.85303 185.557 7.70729C185.557 7.70729 185.385 7.66324 185.417 7.41921C185.417 7.41921 185.648 7.35478 185.557 7.13109H185.417C185.258 7.29716 185.417 7.18872 185.141 7.27684C185.095 7.42259 185.05 7.56495 185.001 7.71069C184.676 7.67002 184.657 7.66322 184.445 7.56493V7.41921C184.211 7.43616 184.211 7.69374 184.169 7.70729C183.854 7.82253 183.61 7.52764 183.477 7.56154V7.70729C183.005 7.90387 182.901 8.15806 182.368 8.28685C182.414 8.14111 182.459 7.99875 182.508 7.85301H182.232C182.027 8.24617 181.806 8.51393 181.26 8.57494V8.14109H181.12C181.013 8.57493 181.036 8.52071 180.564 8.57494V8.28685C179.986 8.61562 179.908 8.58174 179.176 8.43261V8.14449H179.037C179.027 8.70372 179.059 8.74101 178.621 8.86641V9.01217C178.487 9.27993 178.481 8.72409 178.481 8.72409H178.205C178.159 8.81899 178.114 8.91727 178.065 9.01217C177.834 8.96472 177.603 8.91725 177.372 8.86641V9.15454H176.956V9.30025C176.797 9.46633 176.901 9.30025 176.817 9.58834L175.985 9.7341V9.44601L174.597 9.59173V9.87981H174.181V10.0256C174.057 10.2967 174.041 9.73749 174.041 9.73749C173.596 9.84934 173.742 9.9544 173.209 10.0256V10.4594C172.39 10.3713 172.451 9.9476 171.545 9.87981C171.541 10.3611 171.473 10.534 171.405 10.8933H171.128C171.171 10.7679 171.395 10.5746 171.268 10.3137H171.128V10.4594C170.969 10.6255 171.073 10.4594 170.989 10.7475L170.157 10.8933V11.1813C169.692 11.0932 169.282 10.7848 168.769 11.0356C168.678 11.1813 168.583 11.3237 168.492 11.4694C168.115 11.5847 168.063 11.0796 167.937 11.0356C167.686 10.9475 167.836 11.1983 167.797 11.3237C167.657 11.2762 167.521 11.2288 167.381 11.1779V11.7575H167.104L166.965 12.0456C166.737 12.1168 166.708 11.9033 166.688 11.8999C166.354 11.8389 166.328 12.0456 166.133 12.0456V11.8999C165.856 11.8524 165.577 11.805 165.3 11.7541V12.0422C164.381 12.1439 163.913 12.1676 163.22 12.0422L163.081 12.476C162.82 12.4049 162.417 12.4151 161.972 12.3303V12.1846C162.131 12.0185 162.027 12.1846 162.112 11.8965C161.78 11.91 161.767 11.9914 161.556 12.0422V11.8965C161.325 11.7406 161.328 11.6897 161 11.6084V11.3203H160.724C160.678 11.1745 160.633 11.0322 160.584 10.8865L159.752 10.7407V10.4526C159.863 10.5001 160.188 10.7475 160.444 10.5983V10.4526C160.035 10.1747 160.106 9.87645 160.168 9.43923C160.353 9.34433 160.357 9.21215 160.444 9.15114C160.535 9.1986 160.63 9.24602 160.721 9.29686V8.7173H160.86C160.815 8.42921 160.769 8.13771 160.721 7.84962C160.581 7.80217 160.444 7.75474 160.305 7.7039C160.35 7.7988 160.396 7.89708 160.444 7.99198L160.028 7.84623V8.13435H159.889C159.843 8.22925 159.798 8.32753 159.749 8.42243H159.333C159.365 8.75798 159.486 8.51057 159.333 8.85628L159.056 8.71052V8.9986C158.907 9.2528 158.917 8.71052 158.917 8.71052C158.686 8.75797 158.455 8.80544 158.224 8.85628C158.224 8.85628 158.159 8.63934 157.948 8.71052C157.903 8.80542 157.857 8.9037 157.808 8.9986H157.392C157.347 9.14434 157.301 9.2867 157.252 9.43244C157.038 9.31382 156.638 8.91048 156.281 8.9986C156.235 9.0935 156.19 9.19178 156.141 9.28668C155.874 9.25957 155.91 9.00538 155.865 8.9986H155.725V9.14436H155.033V9.29008H155.309C155.263 9.57817 155.218 9.86967 155.169 10.1578H154.893C154.766 10.1001 154.802 9.71716 154.337 9.86968L154.197 10.1578H153.505V10.012C153.303 9.89677 153.271 9.91035 152.949 9.86628V10.3001C152.809 10.2527 152.673 10.2052 152.533 10.1544V10.3001C152.374 10.4662 152.478 10.3001 152.393 10.5882C151.876 10.7407 152.019 10.8865 151.701 11.1678V11.3135H151.285V10.8797H151.008V11.1678H150.316V11.022H150.176C150.085 11.2152 149.991 11.4084 149.9 11.6016L149.624 11.4559V11.6016L149.208 11.8897V11.4559H149.068V11.6016L148.652 11.4559V11.6016C148.457 11.5914 148.707 11.4796 148.512 11.4559L147.68 11.6016V12.0355H147.54V11.8897C147.163 11.6796 146.861 12.093 146.708 12.1778C146.63 11.7236 146.572 11.5711 146.152 11.4559C146.23 11.8083 146.299 11.7745 146.429 12.0355H146.152C145.931 12.249 145.337 12.1947 144.904 12.1812V11.8931H144.628V12.1812C144.352 12.1337 144.072 12.0863 143.796 12.0355C143.728 11.6931 143.666 11.6931 143.52 11.4559C143.708 11.2864 143.656 11.5643 143.796 11.3101C143.614 11.1915 143.633 11.2084 143.52 11.022H143.796C143.825 10.6797 143.854 10.6628 143.936 10.4425C143.542 10.3476 143.412 10.1747 143.243 9.86289H143.659C143.75 9.47651 143.845 9.09012 143.936 8.70713C143.754 8.5885 143.773 8.60545 143.659 8.41904C143.364 8.59529 143.357 8.74443 142.967 8.85288V8.56476H142.827V8.9986C142.288 9.04605 142.203 9.23247 141.855 9.43244C141.826 9.09012 141.797 9.07319 141.716 8.85288C141.56 8.9749 141.696 8.83591 141.576 8.9986H141.436L141.576 9.14436L141.436 9.5782C140.848 9.47313 140.77 9.55448 140.048 9.5782L140.188 10.012H140.048C139.934 10.2018 139.951 10.1815 139.772 10.3001V9.72053C139.067 9.7612 139.161 9.97811 138.384 10.0086C138.28 10.5001 138.088 10.6763 137.552 10.7305V10.4425H137.412V10.5882C137.292 10.8627 137.272 10.3001 137.272 10.3001C137.133 10.2527 136.996 10.2052 136.856 10.1544L136.996 10.4425H136.72C136.499 10.656 136.378 10.9407 136.304 11.3101H135.888V11.022C134.997 11.0559 134.773 11.5507 134.084 11.7439C134.171 11.3474 134.266 11.4152 134.36 11.022C133.473 11.2254 132.842 11.8626 132.28 10.8763C132.904 10.4967 132.575 10.3374 132.419 9.72053H131.864C131.747 9.55784 131.88 9.70021 131.724 9.57481C131.766 9.4494 131.99 9.25619 131.864 8.99521H131.724V8.84949H131.308C131.074 9.24943 130.713 9.14096 130.476 9.42905L130.336 9.86289H129.92V10.0086C129.78 10.0561 129.644 10.1035 129.504 10.1544V9.86628C129.072 9.96458 128.873 10.3001 128.532 10.4458H127.976V10.5916C127.836 10.5442 127.7 10.4967 127.56 10.4458V10.7339L126.728 10.8797V11.0254H126.172C126.127 11.0356 126.136 11.2254 125.896 11.1712V11.0254H125.62V10.8797L124.648 10.7339C124.547 10.9373 124.398 11.1712 124.232 11.3135V10.7339H124.092V11.022C123.952 10.9746 123.816 10.9271 123.676 10.8763C123.611 11.2152 123.445 11.3237 123.4 11.5982H123.539C123.585 11.744 123.63 11.8863 123.679 12.0321C122.889 12.0422 122.808 11.8795 122.291 11.7439C122.086 12.1371 121.865 12.4049 121.319 12.4659V12.1778H121.043V12.7574H120.767V12.9031H119.795V13.0489H119.519V13.1946C119.428 13.1471 119.333 13.0997 119.242 13.0489V13.1946H119.103C118.898 13.0217 119.22 13.0895 118.963 12.9065C118.979 13.364 119.233 13.1776 118.823 13.3403V13.0522C118.043 13.1505 118.375 13.4115 117.991 13.6318H117.715C117.669 13.7775 117.624 13.9199 117.575 14.0656H116.883V13.9199C117.227 13.6555 117.061 13.8081 117.022 13.3403H116.746V13.7742C115.54 13.7776 115.329 14.025 114.25 14.0623V13.7742C114.064 13.8691 113.879 13.9674 113.694 14.0623C113.739 14.2554 113.785 14.4486 113.834 14.6418C113.473 14.6181 113.359 14.6113 113.141 14.4961V14.3503L112.725 14.4961C112.703 14.4927 112.677 14.2927 112.449 14.3503V14.4961H112.173V14.6418H111.896V14.7876C111.705 14.9198 111.653 14.8892 111.341 14.9333V14.4994H111.201V14.6452H110.509C110.414 14.6893 110.502 14.8316 110.092 14.9333C110.047 15.079 110.002 15.2214 109.953 15.3671H110.092C110.297 15.5434 109.589 15.5095 109.537 15.5129V15.3671C108.981 15.2722 108.428 15.174 107.872 15.079C107.947 14.6757 107.98 15.0655 107.872 14.6452C107.723 14.7266 107.583 15.035 107.317 14.9333V14.7876H107.177L107.317 14.4994H107.177C107.018 14.3334 107.177 14.4419 106.901 14.3537C106.855 14.208 106.81 14.0656 106.761 13.9199H107.037C106.992 13.7741 106.946 13.6318 106.897 13.486H107.037V13.6318C107.157 13.9063 107.177 13.3437 107.177 13.3437H107.317V13.198C107.226 13.1505 107.131 13.1031 107.04 13.0522C107.086 12.9065 107.131 12.7641 107.18 12.6184H107.04V12.4726H107.456V12.3269C107.274 12.2083 107.294 12.2252 107.18 12.0388C107.417 11.8761 107.369 11.9473 107.456 11.605L108.012 11.4592C108.028 11.4491 108.227 10.9237 108.289 11.0254V11.3135H108.705C108.835 11.0526 108.896 11.0864 108.981 10.7339C108.792 10.5645 108.77 10.4696 108.705 10.1544H108.981V9.86628H109.257V9.72053C108.981 9.76798 108.701 9.81545 108.425 9.86628V9.72053C108.243 9.73069 108.077 9.96796 107.733 9.86628V9.72053C107.456 9.67308 107.177 9.62565 106.901 9.57481V10.1544H106.624V10.4425C106.485 10.3476 106.348 10.2493 106.208 10.1544V9.86628L106.068 10.012C105.909 10.1781 106.013 10.012 105.929 10.3001H105.373V10.5882C105.097 10.5408 104.817 10.4933 104.541 10.4425C104.495 10.6831 104.45 10.9237 104.401 11.1644C104.063 11.2457 104.096 11.3135 103.845 11.4525V11.3067C103.702 11.1813 103.653 11.0559 103.569 10.8729C103.41 11.039 103.514 10.8729 103.429 11.161C103.153 11.2084 102.873 11.2559 102.597 11.3067V11.5948C102.269 11.6253 102.253 11.6559 102.041 11.7406V11.4525H102.181L102.041 11.0187H101.902V11.3067C101.81 11.2593 101.716 11.2118 101.625 11.161C101.466 11.2762 101.57 11.5033 101.209 11.4491C101.164 11.3542 101.118 11.2559 101.069 11.161H100.93V11.4491L100.514 11.5948C100.442 11.5745 100.429 11.2288 100.237 11.3067C100.098 11.4999 99.961 11.6931 99.8212 11.8863C99.6814 11.8389 99.5449 11.7914 99.4051 11.7406V12.0287H99.1289V12.3168C98.9729 12.1947 99.1094 12.3337 98.9891 12.171C98.8396 12.0388 98.9631 12.1947 98.8493 12.0253H98.9891V11.8795H98.5731V12.0253H98.4333V11.8795H98.0172C97.9717 11.7846 97.9262 11.6863 97.8775 11.5914C97.7865 11.6389 97.6923 11.6864 97.6012 11.7372C97.4127 11.7948 97.6597 11.8931 97.4614 11.8829V11.7372H97.1852C97.1819 12.1846 97.2242 12.4828 97.3249 12.7506H96.7691V13.0387H96.6293V12.6048H96.3531L96.2133 13.0387C96.0573 12.9167 96.1938 13.0556 96.0735 12.8929H95.9337L96.0735 12.4591C95.9337 12.5066 95.7972 12.554 95.6574 12.6048V12.7506H95.3812C95.3357 12.8455 95.2902 12.9438 95.2414 13.0387H94.6856V13.1844H94.5458C94.4776 13.12 94.5848 12.9506 94.4061 13.0387L94.2663 13.3268L93.574 13.4725V13.1844H93.4342L93.2945 13.4725H93.1546L93.0149 13.1844C92.8231 13.0929 92.6249 13.1132 92.4591 13.0387C92.4493 13.5979 92.4818 13.6352 92.043 13.7606V13.4725H91.7667V13.7606H91.0744L90.7981 14.4825H90.5219V14.3368C90.4764 14.33 90.2033 14.4656 89.966 14.4825C90.044 14.13 90.1123 14.1639 90.2423 13.9029H89.966L89.8262 14.3368L88.8544 14.1911C88.7081 14.2656 88.7536 14.5164 88.8544 14.6249H88.5781C88.4579 14.774 88.3376 14.8249 88.1621 14.913V14.4791C87.5412 14.5334 87.759 14.5706 87.1902 14.4791V14.6249C87.3495 14.7909 87.2454 14.6249 87.3299 14.913H86.6376C86.6018 14.9062 86.5921 14.7265 86.3613 14.7672V14.913H86.085C86.0395 15.0587 85.994 15.201 85.9453 15.3468C85.7893 15.2248 85.9258 15.3637 85.8055 15.2011C85.6495 15.079 85.786 15.218 85.6657 15.0553C85.8477 14.9367 85.8283 14.9536 85.942 14.7672H85.3862C85.2627 14.9197 85.1424 14.957 84.9702 15.0553V15.2011L84.5541 15.0553V15.2011C84.7361 15.3197 84.7166 15.3027 84.8304 15.4891H84.5541C84.3916 15.2926 84.3006 15.2688 83.9983 15.2011V15.4891C83.7383 15.3875 83.4555 15.3468 83.0264 15.3434C82.8737 15.0417 82.8021 15.0858 82.7501 14.6215H82.4739V14.3334C82.3178 14.4554 82.4543 14.3164 82.334 14.4791H82.1943V14.7672L81.9181 14.913V15.3468H81.7782C81.6385 15.1536 81.5019 14.9604 81.3622 14.7672H81.2224C81.0404 14.4452 81.2972 14.3639 80.9461 14.0453C80.9916 13.8521 81.0372 13.6589 81.0859 13.4657C81.0859 13.4657 80.9071 13.3946 80.9461 13.1777H81.0859V12.4557C81.0859 12.4557 81.1704 12.4557 81.2257 12.1676C81.6092 12.0625 81.5345 12.127 81.6417 11.7338H81.9181V11.8795L82.334 11.7338V11.4457L83.0264 11.5914C83.1272 11.1915 83.0654 11.2694 83.4425 11.1576V10.578H83.5822L83.4425 10.2899H83.5822C83.6992 10.1273 83.566 10.2696 83.722 10.1442V9.99847C83.8552 9.73072 83.8618 10.2866 83.8618 10.2866L84.2778 10.4323V10.2866H84.138C84.1835 10.1408 84.229 9.99845 84.2778 9.85271H85.1099V9.99847C85.4349 9.95102 85.7567 9.90355 86.0818 9.85271V9.56463H86.6376V9.27655C86.163 9.26977 85.6788 9.17824 85.3895 9.13079C85.2985 9.27653 85.2042 9.41889 85.1132 9.56463L84.281 9.71035C84.359 9.35786 84.4273 9.39177 84.5573 9.13079H84.0015V9.27655H84.1413C84.3006 9.50363 83.8 9.4121 83.7252 9.42227V9.85611H83.5855V10.0019C83.3547 10.0493 83.124 10.0967 82.8932 10.1476C82.9387 9.90694 82.9842 9.6663 83.0329 9.42566C82.6949 9.507 82.7242 9.57478 82.4771 9.71374V9.8595C82.2008 9.7646 81.9213 9.66632 81.645 9.57142V9.71713C81.4857 9.88321 81.5898 9.71713 81.5053 10.0052C81.2777 10.0493 80.9006 10.3069 80.8129 10.2933V10.1476H80.3968C80.205 10.1069 80.4488 9.9578 80.2571 10.0019L80.1173 10.2899H79.841L79.9808 10.0019H79.841C79.6817 10.1679 79.841 10.0595 79.5647 10.1476V10.4357C79.3339 10.4831 79.1032 10.5306 78.8724 10.5814C78.8464 10.5746 78.8269 10.3747 78.5961 10.4357V10.5814H78.3198V10.7271C78.1833 10.6966 78.1573 10.3374 78.0435 10.4391C77.816 10.6356 78.1963 10.717 77.6275 10.8729V11.3067H77.4877V11.0187H77.348C77.3025 11.1136 77.2569 11.2118 77.2082 11.3067H76.6524C76.4866 10.9915 76.3469 10.8288 75.9601 10.7271V10.8729H75.4043L75.2644 11.161L74.8484 11.0153V11.4491H74.5721C74.2308 12.0558 74.2633 11.6185 73.8798 11.8829C73.9253 11.9778 73.9708 12.0761 74.0196 12.171C73.7433 12.1235 73.4637 12.0761 73.1875 12.0253C73.1745 12.0287 73.1159 12.2761 72.9111 12.3134V12.1676H72.3553L72.2156 12.0219V12.1676C71.8223 12.432 71.8093 12.5845 71.1072 12.6014C70.9512 12.354 71.0195 12.4049 70.6912 12.3134V12.6014H70.4149V12.4557C70.2393 12.3981 70.0508 12.8658 69.9988 12.8895C69.7128 13.0217 69.6023 12.7641 69.443 12.7438V12.8895C69.1667 12.937 68.8872 12.9844 68.6109 13.0353L68.4711 12.6014C68.0876 12.7065 68.1623 12.6421 68.0551 13.0353C67.639 13.0827 67.2229 13.1302 66.8069 13.181L66.6671 13.4691H65.6953V13.6148C65.3345 13.7267 65.0484 13.6284 64.7234 13.7606C64.6454 13.4081 64.5772 13.442 64.4472 13.181C64.2911 13.3031 64.4276 13.1641 64.3073 13.3268C63.8198 13.686 64.2749 13.8419 63.615 14.0487V14.1944H62.9227L62.7829 14.4825C62.4741 14.6113 62.3929 14.3029 62.2271 14.3368V14.4825C61.9508 14.5401 62.0516 14.4181 61.9508 14.3368H61.8111V14.6249C61.6713 14.5774 61.5348 14.53 61.395 14.4791V14.3334L60.9789 14.4791V14.3334H60.4231L60.2834 14.0453C60.0884 14.0453 60.2183 14.0013 60.1436 14.1911C59.9713 14.025 60.0916 14.191 60.0038 13.9029H60.5596V13.6148H60.0038C59.8738 13.3539 59.8121 13.3878 59.7276 13.0353H60.0038C59.9226 12.4388 59.8543 12.3439 59.5878 11.7338C59.4057 11.8084 59.6268 11.7914 59.448 11.8795H59.032V12.0253C59.3115 12.1066 59.1523 12.0083 59.3083 12.171C58.9117 12.1574 58.7134 12.1439 58.4761 12.0253V12.171C58.6354 12.3371 58.5314 12.171 58.6159 12.4591C57.9366 12.4591 57.8261 12.6252 57.3678 12.7472V12.3134H57.228V12.4591H57.0882L56.8119 12.3134V12.7472H56.3959V12.4591H56.2561V12.7472H56.3959V13.181C55.9344 13.1777 55.7686 13.1065 55.4241 13.0353V13.3234C55.0958 13.3064 55.0729 13.2793 54.8682 13.1777V13.3234C54.7089 13.4894 54.8129 13.3234 54.7284 13.6115C53.9971 13.5267 54.4099 13.2997 53.7566 13.4657V13.1777C53.5355 13.1438 53.581 13.4251 53.4802 13.4657C52.9602 13.6691 52.5312 13.5471 52.0924 13.4657V13.8996L51.8161 13.7538V13.8996C51.5366 14.147 51.8291 14.1198 51.6763 14.3334H51.5365C51.2017 13.8114 50.2396 14.2453 49.596 14.3334V14.7672C49.336 14.6927 48.8387 14.2486 48.6242 14.3334V14.4791H48.4844V14.913C48.0684 14.9604 47.6523 15.0079 47.2362 15.0587V15.3468H47.3761C47.3306 15.4925 47.285 15.6349 47.2362 15.7806C46.908 15.7637 46.8852 15.7366 46.6804 15.6349V15.7806H46.5407V15.3468H46.2644V15.7806H46.1246V15.6349H45.5688V15.7806L45.2925 15.6349V15.7806C44.987 15.8789 44.8342 15.8247 44.6002 15.9264V16.3602C43.9079 16.4686 43.9144 16.489 43.352 16.0721L43.2123 16.5059H42.6565V16.6517C42.4712 16.6991 42.286 16.7466 42.1007 16.7974V16.5093H41.8244C41.7399 17.0177 41.6748 17.1736 41.132 17.2313V17.0855C41.2913 16.9194 41.1873 17.0855 41.2718 16.7974C41.0865 16.75 40.9013 16.7025 40.716 16.6517V16.5059C40.4527 16.4212 40.5242 16.5873 40.4397 16.6517L40.0236 16.5059V16.6517H40.1634V17.2313H39.8871V16.9432C39.5068 17.1736 39.6368 17.299 39.055 17.377C38.9543 17.7769 39.016 17.699 38.639 17.8108C38.2652 18.2718 37.8296 18.1599 37.251 18.0989V17.8108H37.8068C37.7613 17.6651 37.7158 17.5227 37.6671 17.377C37.4558 17.4617 37.4396 17.4888 37.1113 17.5227C37.0885 17.1296 37.0657 16.6517 36.835 16.5093V16.3636C36.9357 16.2111 36.9423 16.489 37.1113 16.2179H36.835C36.5879 16.0653 37.1113 16.0721 37.1113 16.0721C37.0333 15.7196 36.965 15.7535 36.835 15.4925H37.251C37.3648 15.6823 37.3486 15.662 37.5273 15.7806C37.1893 15.0214 37.017 14.3198 38.2196 14.3334C38.3789 14.4995 38.2197 14.391 38.496 14.4791C38.5415 14.2385 38.5869 13.9979 38.6357 13.7572H38.3595V14.0453H38.0832L38.2229 13.6115H38.0832C37.9791 13.886 38.1807 13.7606 37.9434 13.8996C37.7614 13.7301 38.1091 13.6792 37.8036 13.6115V13.8996L37.5273 13.7538V13.8996H37.6671C37.5761 14.0928 37.4818 14.2859 37.3908 14.4791H37.251V14.0453H37.1113V14.1911H36.6952C36.6042 14.3368 36.5099 14.4791 36.4189 14.6249H36.1427V14.7706H35.7266V14.9164H35.4503V15.0621C34.8912 15.2688 34.472 14.8621 34.2022 15.0621C33.8252 15.3163 33.7634 15.862 33.6464 15.9298H32.3982C32.2389 15.7637 32.3982 15.8721 32.1219 15.784V15.4959H31.9821C32.0277 15.6891 32.0731 15.8823 32.1219 16.0755H31.9821C31.7189 16.3127 31.2476 16.228 30.8738 16.3636V16.5093C30.669 16.5771 30.331 16.3534 30.318 16.3636V16.6517H29.6256C29.4858 16.9906 29.3493 17.3262 29.2095 17.6651H29.0698V17.2313H28.7935C28.7642 17.5736 28.735 17.5905 28.6537 17.8108C28.4977 17.6888 28.6343 17.8278 28.514 17.6651C28.3547 17.499 28.4587 17.6651 28.3742 17.377C28.6115 17.2143 28.5627 17.2855 28.6505 16.9432H28.2344V17.8108C28.0037 17.7634 27.7729 17.7159 27.5421 17.6651V17.5193C27.7014 17.3533 27.5974 17.5193 27.6819 17.2313H27.4056L27.5454 16.9432H27.4056C27.2463 17.1092 27.4056 17.0008 27.1293 17.0889C27.0936 17.3702 26.9928 17.3702 26.9895 17.377C26.7685 18.0887 27.1131 18.3023 26.2972 18.3904V18.1023C26.1054 18.1735 25.9917 18.1599 25.7414 18.248V18.3938C25.6016 18.3463 25.4651 18.2989 25.3253 18.248V18.3938H25.049L25.1888 18.6819H24.3567V18.8276C24.516 18.9937 24.412 18.8276 24.4965 19.1157C24.2722 19.1055 23.5246 18.97 23.5246 18.97C23.4791 19.0649 23.4336 19.1632 23.3849 19.2581C23.0078 19.4716 22.9428 19.2953 22.6925 19.2581V19.4038H22.4162L22.2764 19.6919C22.0456 19.7394 21.8149 19.7868 21.5841 19.8376V19.9834C21.3989 19.9359 21.2136 19.8885 21.0283 19.8376C20.7975 19.8851 20.5667 19.9325 20.3359 19.9834V20.1291C19.9231 20.2511 19.7737 19.8986 19.5039 19.841V19.9868C19.3446 20.1528 19.4486 19.9868 19.3641 20.2749H18.8083L18.6685 20.1291C18.597 20.163 18.6295 20.3867 18.3922 20.4172V20.2715L17.9762 20.1257V20.2715C17.8364 20.3189 17.6999 20.3664 17.5602 20.4172V20.1291C17.3099 20.2647 17.3423 20.3291 17.0043 20.4172V20.7053H16.8645V20.2715C16.0844 20.2613 15.4897 19.9258 15.2004 19.4038L15.4766 19.2581C15.4864 19.0547 15.3401 19.3191 15.3369 19.1123C15.3824 18.8717 15.4279 18.6311 15.4766 18.3904H15.7529C15.4474 17.4889 16.0942 16.9872 16.169 16.0755C16.598 15.9941 17.0953 15.9298 17.6934 15.9298V15.4959H18.1095C18.2037 15.0723 18.2622 15.0214 18.6653 14.9164V14.6282C19.4746 14.4351 18.7433 14.2622 19.4974 14.6282V14.3402C19.8062 14.2792 19.9719 14.2012 20.1897 14.0521V13.9063C20.466 13.8792 20.2872 14.1266 20.466 13.9063C20.6253 13.7402 20.5212 13.9063 20.6058 13.6182H20.8821C21.0413 13.0319 21.1648 13.3301 21.4379 12.8963C21.7142 12.9912 21.9937 13.0895 22.27 13.1844V13.0387H22.4097V12.4591C21.6134 12.4761 21.3923 12.5777 20.7455 12.4591C20.6675 12.9133 20.609 13.0658 20.1897 13.181V12.8929H19.9135V13.3268C19.6307 13.4827 19.3674 13.7538 18.9416 13.7606L18.8018 13.6148C18.3012 14.008 18.8473 14.2893 17.8299 14.3368L17.9696 13.7572H17.6934V13.9029H17.8332C17.8429 13.9538 17.5959 14.4249 17.5569 14.6249H17.2806V14.3368H17.0043V14.6249L16.8645 14.4791C16.5883 14.574 16.3087 14.6723 16.0324 14.7672C15.9869 14.8621 15.9414 14.9604 15.8927 15.0553C15.7107 15.1366 15.9219 14.9469 15.7529 14.9096C15.6132 14.957 15.4766 15.0045 15.3369 15.0553V14.9096H14.9208V14.7638H14.7811V14.9096C14.7811 14.9096 14.3975 14.7774 14.2253 14.7638C14.1342 15.0045 14.04 15.2451 13.9489 15.4858C13.8287 15.4417 13.6434 15.2079 13.3931 15.34V15.4858H13.2534V15.9196H13.1136V15.4858H12.9738V16.0653C12.9966 16.2687 13.1201 16.0043 13.1136 16.2111L12.9738 16.3568C12.7333 16.2314 12.9251 16.3398 12.8341 16.0687H12.6943V16.3568L12.002 16.5025L12.1417 16.2145H12.002C11.7874 16.4653 11.7517 16.3568 11.4462 16.5025V16.6483C11.2414 16.7296 10.9163 16.6856 10.8903 16.5025H10.7505V16.9364H10.6108V16.7906H10.471V17.0788H10.1947V17.3668C9.84367 17.2516 9.33663 17.3567 8.6703 17.3668C8.62479 17.7058 8.57931 18.0413 8.53055 18.3802H8.25424V18.0922C8.04296 18.1769 8.02672 18.204 7.69843 18.2379V18.6717C7.42215 18.7666 7.14259 18.8649 6.86631 18.9598V19.1056H6.59007V19.2513C5.91074 19.519 5.75144 19.0276 5.34189 19.6851H5.20215L5.34189 19.8309C5.29639 19.9766 5.2509 20.1189 5.20215 20.2647C5.01688 20.2172 4.83154 20.1698 4.64626 20.119V20.5528C4.15545 20.607 4.22377 20.7324 3.81422 20.8409V20.5528H3.6744V20.9866C3.39811 21.034 3.11864 21.0815 2.84236 21.1324L2.70253 21.5662H2.42629C2.38079 21.7119 2.33523 21.8543 2.28647 22H2.14673V21.5662H2.00698L1.86724 21.8543L1.45118 21.7085V21.5628C1.18139 21.4916 1.26587 21.6441 1.17486 21.7085L0.619054 21.5628L0.758799 21.417V21.2713H0.619054V20.8375H0.758799V20.6917H0.482563C0.479312 20.2104 0.410997 20.0376 0.342739 19.6783H0.0665023C-0.180528 19.5258 0.342739 19.5326 0.342739 19.5326C0.388244 19.3869 0.433807 19.2445 0.482563 19.0988C1.19765 19.1327 1.16836 19.3733 1.17486 18.5192C1.40564 18.4718 1.63646 18.4243 1.86724 18.3735V17.7939L2.2833 17.6481C2.44257 17.4821 2.28325 17.5905 2.55953 17.5024V17.7905H2.83585V17.5024C2.97562 17.5499 3.11214 17.5973 3.25191 17.6481V17.3601H3.11208L3.25191 16.9262H3.39165V16.7805H3.80771C3.80446 16.5771 3.83691 16.7398 3.66789 16.6347V16.489H4.08395V16.3433H4.22377L4.36352 16.6313C4.82508 16.7262 5.28664 16.8245 5.75145 16.9194C5.76445 16.3771 5.87816 16.2551 6.02768 15.906C6.16745 15.9535 6.30398 16.0009 6.44374 16.0518V15.7637H6.8598L6.72006 16.0518H6.8598V15.906H7.13612C7.28889 15.7806 7.19783 15.5569 7.41236 15.4722C7.53587 15.601 7.46439 15.7162 7.68867 15.7603C7.77968 15.6146 7.87398 15.4722 7.96499 15.3265H8.38097V15.1807H8.52079V14.6011H8.79703V14.8892C9.3886 14.8316 9.42441 14.591 9.90547 14.4554C10.016 13.9877 10.1622 13.9572 10.1817 13.2997H11.4299V13.4454L11.8459 13.2997V13.1539C12.054 13.0963 12.0344 13.4115 12.1222 13.442L12.5382 13.2963V13.5844H12.6781V13.2963C12.8341 13.1743 12.6975 13.3132 12.8178 13.1505L12.5415 13.2963V12.7167H12.6813V12.1371H13.3736L13.2339 12.571H13.6499C13.871 12.2896 14.1537 12.1846 14.3422 11.849C14.4852 11.9744 14.534 12.0998 14.6185 12.2829C14.7583 12.188 14.8948 12.0897 15.0346 11.9948V11.849H15.3108L15.4506 11.5609C15.5416 11.6084 15.6359 11.6558 15.7269 11.7067C15.9122 11.5609 15.5579 11.4626 15.8666 11.4186V11.5643C16.0064 11.6118 16.1429 11.6592 16.2827 11.7101V11.422C16.1234 11.2559 16.2275 11.422 16.143 11.1339C16.5005 11.2017 16.7573 11.2728 17.2513 11.2796C17.4496 10.9712 17.6154 10.9882 17.9437 10.8458L17.8039 10.412H18.3598V10.2662H18.4995V10.412H18.7758V10.1239C19.5624 10.1002 19.2926 9.90017 19.7477 9.69003H20.3035V9.54428C20.4628 9.3782 20.3587 9.54428 20.4432 9.25619H20.8593V9.54428H21.1356C21.2494 9.07994 21.2981 9.12403 21.8279 9.11047V9.39856C22.1529 9.24265 22.2797 9.0664 22.66 8.96472V8.53087H22.9363V8.24279C23.6676 8.24618 24.0317 8.07333 24.6005 7.95471C24.7013 8.35465 24.6395 8.2767 25.0166 8.38855C24.9711 8.24281 24.9255 8.10045 24.8767 7.95471H25.0166C25.1693 7.75135 25.5008 7.53106 25.7089 7.37515V7.22939H26.1249V7.37515H26.2647V7.80895H26.4045C26.45 7.23277 26.5475 7.14125 27.0968 7.08702V7.23278C27.2821 7.30057 27.0448 7.14125 27.2365 7.08702C27.7924 6.99212 28.345 6.89384 28.9008 6.79894C28.761 6.34816 28.8228 6.57863 28.9008 6.07701C29.2388 5.99567 29.2063 5.92789 29.4566 5.78893V5.93469H29.5963C29.7068 6.14822 29.4566 6.22277 29.4566 6.22277L29.5963 6.51086C29.9149 6.23293 29.7719 6.07704 30.2887 5.9313C30.3342 5.78556 30.3797 5.6432 30.4284 5.49746C30.825 5.66692 31.0818 5.77198 31.6766 5.78554C31.8164 5.49745 31.9529 5.20599 32.0927 4.9179H32.3689L32.5088 5.20598L33.4806 4.9179V4.77214H34.4525L34.5922 4.48405H34.8685C34.9563 4.0875 35.0505 4.15529 35.1448 3.76213C35.3301 3.80958 35.5153 3.85701 35.7006 3.90785V3.76213C35.8534 3.63334 35.7299 3.78584 35.8404 3.61637H35.7006C35.5641 3.37573 35.8989 3.49438 35.9769 3.47065V3.32489C36.1167 3.37234 36.2532 3.41981 36.393 3.47065C36.3475 3.56555 36.3019 3.66384 36.2531 3.75874H36.393C36.8285 3.23678 37.2088 3.75871 37.7809 3.90445C37.8751 3.71465 37.9531 3.74855 38.0571 3.61637L37.9174 3.32829H38.1937V3.18257L38.4699 3.03681C38.4894 2.83345 38.4407 3.06052 38.3302 2.89105L38.4699 2.60297C38.938 2.70465 39.003 2.91819 39.4418 3.03681V2.60297C39.8221 2.69448 39.7571 2.79276 40.1342 2.89105V2.45725C40.2869 2.5047 40.4072 2.71482 40.69 2.60297V2.45725H41.106V2.31149C41.3823 2.07085 41.6619 1.83021 41.9382 1.58957V1.30148H42.2144V1.4472C42.4062 1.48787 42.1884 1.41672 42.3541 1.30148L42.6305 1.4472L42.4907 1.88104C43.2643 1.94205 43.6576 2.13864 44.1549 1.59296C43.8818 1.43027 43.8298 1.38961 43.7388 1.0134L44.1549 0.867643C44.2004 0.962543 44.2459 1.06083 44.2947 1.15573H44.5709V0.576167C44.8732 0.637174 44.9675 0.671059 45.1267 0.86425L45.9589 0.576167L45.8191 0.288083H46.5114V0L46.5797 0.0338849ZM45.195 2.20305V2.49114H45.3348V2.20305H45.195ZM168.759 2.49114V2.77922H168.899V2.49114H168.759ZM45.611 2.92498V3.21306H45.7509V2.92498H45.611ZM43.6706 3.21306V3.50115H43.8103V3.21306H43.6706ZM165.291 3.6469C165.45 3.81298 165.291 3.7045 165.567 3.79262C165.408 3.62654 165.567 3.73503 165.291 3.6469ZM154.337 3.79262C154.496 3.9587 154.337 3.85026 154.613 3.93838C154.454 3.7723 154.613 3.88074 154.337 3.79262ZM37.4298 4.22646C37.4428 4.71791 37.4299 4.75181 37.7061 4.94839V4.80263H37.5663V4.22307H37.4266L37.4298 4.22646ZM152.257 4.37218C152.416 4.53826 152.257 4.42982 152.533 4.51794C152.374 4.35186 152.533 4.4603 152.257 4.37218ZM137.139 4.51455V4.80263H137.279V4.51455H137.139ZM146.848 4.66031L146.708 4.94839C146.708 4.94839 147.111 4.71792 146.985 4.66031H146.845H146.848ZM161.13 4.66031H161.407C161.289 4.82299 161.423 4.68062 161.267 4.80602V4.95178C161.107 4.7857 161.212 4.95179 161.127 4.6637L161.13 4.66031ZM38.3984 4.80602C38.5577 4.9721 38.3985 4.86366 38.6747 4.95178C38.5155 4.7857 38.6747 4.89414 38.3984 4.80602ZM116.2 4.94839V5.23647H116.34V4.94839H116.2ZM39.9261 5.52795V5.67371H39.7864C39.5231 5.79911 40.0627 5.81942 40.0627 5.81942C40.1797 5.65674 40.0464 5.79911 40.2024 5.67371C40.0431 5.50763 40.2024 5.61607 39.9261 5.52795ZM146.432 5.52795V5.67371H146.292C146.029 5.79911 146.568 5.81942 146.568 5.81942C146.685 5.65674 146.552 5.79911 146.708 5.67371C146.549 5.50763 146.708 5.61607 146.432 5.52795ZM181.933 5.52795V5.67371H181.793C181.53 5.79911 182.069 5.81942 182.069 5.81942C182.186 5.65674 182.053 5.79911 182.209 5.67371C182.05 5.50763 182.209 5.61607 181.933 5.52795ZM89.0169 5.67371V5.96179H89.1566V5.67371H89.0169ZM54.7642 5.81603V6.10416H54.904V5.81603H54.7642ZM90.2651 5.81603V6.10416H90.4048V5.81603H90.2651ZM115.92 5.81603C116.154 6.12785 116.197 6.10416 116.197 6.10416C116.298 5.96519 115.956 5.84992 115.92 5.81603ZM151.425 5.81603C151.659 6.12785 151.701 6.10416 151.701 6.10416C151.802 5.96519 151.46 5.84992 151.425 5.81603ZM161.27 5.81603V6.10416H161.41V5.81603H161.27ZM186.925 5.81603C187.159 6.12785 187.202 6.10416 187.202 6.10416C187.302 5.96519 186.961 5.84992 186.925 5.81603ZM34.654 6.10751H34.3777V6.25327H34.5175V6.39902H34.6572V6.1109L34.654 6.10751ZM36.458 6.97519H36.7343C36.6888 6.782 36.6432 6.58882 36.5944 6.39563H36.4547V6.97519H36.458ZM142.964 6.97519H143.24L143.1 6.39563H142.96V6.97519H142.964ZM178.465 6.97519H178.741L178.601 6.39563H178.461V6.97519H178.465ZM34.9335 6.68372V7.26327H35.0733V6.68372H34.9335ZM70.4344 6.68372V7.26327H70.5741V6.68372H70.4344ZM141.439 6.68372V7.26327H141.579V6.68372H141.439ZM161.962 6.97519V7.40903H162.102C162.242 7.14806 162.408 6.97856 162.658 6.82943V6.68372H162.382C162.226 6.93114 162.294 6.88029 161.966 6.9718L161.962 6.97519ZM176.94 6.68372V7.26327H177.08V6.68372H176.94ZM97.4777 6.82943V7.11756H97.6174V6.82943H97.4777ZM132.979 7.11756H133.255V6.9718C133.099 6.84978 133.235 6.98877 133.115 6.82608H132.975V7.11416L132.979 7.11756ZM55.4565 6.97519V7.40903H55.5963V6.97519H55.4565ZM90.9574 6.97519V7.40903H91.0972V6.97519H90.9574ZM151.701 7.55136C151.802 7.9513 151.74 7.87335 152.117 7.9852C152.205 7.58865 152.299 7.65643 152.393 7.26327H152.253C152.078 7.53781 152.114 7.50391 151.698 7.55136H151.701ZM152.949 7.26327V7.55136C153.313 7.54119 153.42 7.49376 153.641 7.40564V7.25988H152.949V7.26327ZM79.7272 7.40903V7.84288H79.867V7.69712C80.0231 7.5751 79.8865 7.71404 80.0068 7.55136L79.7305 7.40564L79.7272 7.40903ZM115.228 7.40903V7.84288H115.368V7.69712C115.524 7.5751 115.387 7.71404 115.508 7.55136L115.231 7.40564L115.228 7.40903ZM150.729 7.40903V7.84288H150.869V7.69712C151.025 7.5751 150.888 7.71404 151.008 7.55136L150.732 7.40564L150.729 7.40903ZM186.233 7.40903V7.84288H186.373V7.69712C186.529 7.5751 186.392 7.71404 186.513 7.55136L186.236 7.40564L186.233 7.40903ZM97.3379 7.55136V7.83948H97.4777V7.55136H97.3379ZM161.686 7.55136C161.92 7.86317 161.962 7.83948 161.962 7.83948C162.063 7.70052 161.722 7.58525 161.686 7.55136ZM88.3246 7.84288V8.27668H88.0483V8.56476L88.3246 8.41904L88.4643 7.9852C88.6204 7.86318 88.4838 8.00217 88.6041 7.83948H88.3278L88.3246 7.84288ZM94.1493 7.84288V8.13096H94.289V7.84288H94.1493ZM129.65 7.84288V8.13096H129.79V7.84288H129.65ZM151.425 8.13096H151.008V8.41904H151.285C151.415 8.15806 151.477 8.19197 151.561 7.83948H151.421V8.12757L151.425 8.13096ZM165.151 7.84288V8.13096H165.291V7.84288H165.151ZM76.8149 8.41904V8.13096C76.6589 8.25297 76.7954 8.11399 76.6751 8.27668H76.5354C76.6947 8.44275 76.5353 8.33431 76.8116 8.42243L76.8149 8.41904ZM111.9 8.13096V8.56476H112.039C112.199 8.39868 112.039 8.50716 112.316 8.41904V8.13096H111.9ZM131.591 8.41904V8.13096H131.175V8.27668H131.314C131.474 8.44275 131.314 8.33431 131.591 8.42243V8.41904ZM147.817 8.41904V8.13096C147.661 8.25297 147.797 8.11399 147.677 8.27668H147.537C147.696 8.44275 147.537 8.33431 147.813 8.42243L147.817 8.41904ZM158.774 8.13096V8.41904C158.93 8.29703 158.793 8.43597 158.913 8.27328H159.053C158.894 8.10721 159.053 8.21569 158.777 8.12757L158.774 8.13096ZM178.465 8.27668V8.56476H178.604V8.27668H178.465ZM86.6603 8.85288H86.9367C86.8196 8.6902 86.9529 8.83253 86.7968 8.70713V8.41904H86.6571V8.85288H86.6603ZM47.5515 8.56476V8.85288H47.6913V8.56476H47.5515ZM83.0557 8.56476V8.9986H83.1954V8.56476H83.0557ZM154.057 8.56476V8.85288H154.197V8.56476H154.057ZM181.101 8.56476C181.26 8.73084 181.156 8.56479 181.24 8.85288H181.101V8.56476ZM189.561 8.56476V8.85288H189.701V8.56476H189.561ZM28.1369 8.71052V8.9986H28.2767V8.71052H28.1369ZM63.6377 8.71052V8.9986H63.7776V8.71052H63.6377ZM134.643 8.71052V8.9986H134.783V8.71052H134.643ZM170.144 8.71052V8.9986H170.283V8.71052H170.144ZM72.2384 8.85288C72.2514 8.88339 72.4366 9.3782 72.5146 9.28668V9.14097H72.6544C72.5342 8.99184 72.4139 8.94101 72.2384 8.85288ZM108.015 9.5782H108.292V9.29008H108.015L108.155 9.00199C108.016 8.95454 107.879 8.90712 107.739 8.85628V9.00199C107.928 9.17146 107.95 9.26635 108.015 9.58155V9.5782ZM71.4062 8.9986L71.546 9.43244H71.6857C71.6012 9.08673 71.6403 9.16468 71.4095 8.9986H71.4062ZM106.907 8.9986C106.953 9.14434 106.998 9.2867 107.047 9.43244H107.187C107.102 9.08673 107.141 9.16468 106.91 8.9986H106.907ZM109.543 8.9986H109.267C109.384 9.16129 109.251 9.01896 109.407 9.14436V9.29008H109.546V9.00199L109.543 8.9986ZM164.322 9.5782H164.598V9.29008H164.738C164.693 9.19518 164.647 9.09689 164.598 9.00199C164.442 9.12401 164.579 8.98507 164.459 9.14775H164.319V9.58155L164.322 9.5782ZM48.5234 9.14436C48.6827 9.31044 48.5234 9.20195 48.7997 9.29008C48.6404 9.124 48.7997 9.23248 48.5234 9.14436ZM72.0985 9.14436V9.5782H72.2384V9.14436H72.0985ZM107.599 9.14436V9.5782H107.739V9.14436H107.599ZM110.235 9.14436H109.959C110.076 9.30705 109.943 9.16467 110.099 9.29008V9.43584H110.239V9.14775L110.235 9.14436ZM126.322 9.14436V9.5782H126.461V9.14436H126.322ZM161.826 9.14436V9.5782H161.966V9.14436H161.826ZM21.4801 9.28668V9.57481H21.6199V9.28668H21.4801ZM27.9972 9.28668V9.57481H28.1369V9.28668H27.9972ZM63.5013 9.28668V9.57481H63.641V9.28668H63.5013ZM72.7909 9.5782V9.29008C72.6349 9.41209 72.7714 9.27315 72.6512 9.43584H72.5113C72.6706 9.60191 72.5114 9.49343 72.7877 9.58155L72.7909 9.5782ZM99.0021 9.28668V9.57481H99.1419V9.28668H99.0021ZM109.68 9.28668V10.1544H109.819V9.28668H109.68ZM127.43 9.28668V9.57481H127.57V9.28668H127.43ZM127.986 9.28668V9.57481H128.126V9.28668H127.986ZM134.503 9.28668V9.57481H134.643V9.28668H134.503ZM162.934 9.28668V9.57481H163.074V9.28668H162.934ZM163.49 9.28668V9.57481H163.63V9.28668H163.49ZM170.007 9.28668V9.57481H170.147V9.28668H170.007ZM24.5323 9.43244C24.6915 9.59852 24.5322 9.49008 24.8085 9.5782C24.6492 9.41213 24.8085 9.52057 24.5323 9.43244ZM60.0331 9.43244C60.1924 9.59852 60.0331 9.49008 60.3093 9.5782C60.1501 9.41213 60.3094 9.52057 60.0331 9.43244ZM166.539 9.43244C166.698 9.59852 166.539 9.49008 166.815 9.5782C166.656 9.41213 166.815 9.52057 166.539 9.43244ZM69.8786 9.72053L70.0183 10.1544H70.1581C70.0736 9.80866 70.1126 9.8866 69.8818 9.72053H69.8786ZM105.383 9.72053C105.428 9.86627 105.474 10.0086 105.522 10.1544H105.662C105.578 9.80866 105.617 9.8866 105.386 9.72053H105.383ZM114.396 9.86628V10.1544H114.536V9.86628H114.396ZM26.749 10.5882C26.6482 10.1883 26.71 10.2662 26.333 10.1544C26.3785 10.3476 26.424 10.5407 26.4727 10.7339H26.8888V10.8797C27.0838 10.9068 26.8368 10.778 27.0285 10.7339H27.5843V10.1544C27.4283 10.0324 27.5649 10.1713 27.4446 10.0086H27.1683V10.1544H27.3081C27.3536 10.4153 26.9635 10.534 26.7522 10.5882H26.749ZM44.779 10.012L44.6392 10.3001C44.6392 10.3001 45.0423 10.0696 44.9155 10.012H44.7758H44.779ZM151.285 10.012L151.145 10.3001C151.145 10.3001 151.548 10.0696 151.421 10.012H151.282H151.285ZM21.064 10.7339H21.3403V10.5882C21.1843 10.4662 21.3209 10.6051 21.2006 10.4425H21.0608V10.7305L21.064 10.7339ZM25.9169 10.4458V10.7339C26.073 10.6119 25.9364 10.7509 26.0567 10.5882H26.1964C26.0372 10.4221 26.1965 10.5306 25.9202 10.4425L25.9169 10.4458ZM56.565 10.7339H56.8412V10.5882C56.6852 10.4662 56.8217 10.6051 56.7014 10.4425H56.5617V10.7305L56.565 10.7339ZM61.421 10.4458V10.7339C61.577 10.6119 61.4405 10.7509 61.5608 10.5882H61.7005C61.5412 10.4221 61.7006 10.5306 61.4243 10.4425L61.421 10.4458ZM96.9219 10.4458V10.7339C97.0779 10.6119 96.9414 10.7509 97.0616 10.5882H97.2014C97.0421 10.4221 97.2014 10.5306 96.9251 10.4425L96.9219 10.4458ZM163.074 10.7339H163.35V10.5882C163.194 10.4662 163.331 10.6051 163.21 10.4425H163.071V10.7305L163.074 10.7339ZM167.927 10.4458V10.7339C168.083 10.6119 167.946 10.7509 168.067 10.5882H168.206C168.047 10.4221 168.206 10.5306 167.93 10.4425L167.927 10.4458ZM23.7001 11.3135V11.0254L23.2841 11.1712L23.4238 11.7507H23.2841V11.8965C22.959 11.9439 22.6373 11.9914 22.3122 12.0422V12.3303C22.4942 12.3574 23.1736 12.5065 23.2841 12.476L23.4238 12.188L23.8399 12.3337C23.8854 12.0931 23.931 11.8524 23.9797 11.6118H24.1195C24.2787 11.4457 24.1194 11.5542 24.3957 11.466V11.7541H25.0881V11.466H25.3643C25.2733 11.1779 25.1791 10.8864 25.0881 10.5983H24.9483L24.8085 11.0322C24.6102 11.1779 24.0089 11.2932 23.7001 11.3203V11.3135ZM39.3703 10.5882V11.022H39.51V10.5882H39.3703ZM20.7878 10.8797V11.1678H20.9275V10.8797H20.7878ZM42.4225 10.8797V11.1678H42.5622V10.8797H42.4225ZM56.2886 10.8797V11.1678H56.4284V10.8797H56.2886ZM91.7895 10.8797V11.1678H91.9292V10.8797H91.7895ZM132.979 10.8797C133.138 11.0458 132.979 10.9373 133.255 11.0254C133.096 10.8593 133.255 10.9678 132.979 10.8797ZM148.928 10.8797V11.1678H149.068V10.8797H148.928ZM162.794 10.8797V11.1678H162.934V10.8797H162.794ZM36.7343 11.022C36.8935 11.1881 36.7895 11.022 36.874 11.3101H36.7343V11.022ZM72.0985 11.1678C72.2546 11.4152 72.1863 11.3643 72.5146 11.4559C72.3943 11.3067 72.2741 11.2559 72.0985 11.1678ZM87.9085 11.4559H88.1848V11.3101C88.0287 11.1881 88.1653 11.3271 88.045 11.1644H87.9053V11.4525L87.9085 11.4559ZM36.458 11.3135H36.7343V11.4592C36.4547 11.3779 36.614 11.4762 36.458 11.3135ZM75.1507 11.3135C75.31 11.4796 75.2059 11.3135 75.2905 11.6016H75.1507V11.3135ZM112.456 11.8897H112.179V11.3101H112.039V11.4559C111.88 11.6219 111.984 11.4558 111.9 11.7439C112.04 11.8388 112.176 11.9372 112.316 12.0321C112.433 12.1947 112.3 12.0524 112.456 12.1778V11.8897ZM73.9025 11.4559V11.7439H74.0423V11.4559H73.9025ZM28.4132 11.7473V12.0355H28.553V11.7473H28.4132ZM63.9173 11.7473V12.0355H64.0571V11.7473H63.9173ZM94.5653 11.8897C94.7246 12.0558 94.5653 11.9473 94.8416 12.0355C94.6823 11.8694 94.8416 11.9778 94.5653 11.8897ZM45.3316 12.3235V12.0355C45.1755 12.1575 45.312 12.0185 45.1917 12.1812H45.052C45.2113 12.3472 45.052 12.2388 45.3283 12.3269L45.3316 12.3235ZM116.337 12.3235V12.0355C116.18 12.1575 116.317 12.0185 116.197 12.1812H116.057C116.216 12.3472 116.057 12.2388 116.333 12.3269L116.337 12.3235ZM32.9898 12.615V12.9031H33.1295V12.615H32.9898ZM35.7656 12.615V12.9031H35.9054V12.615H35.7656ZM25.3643 12.7574V13.0455H25.5041V12.7574H25.3643ZM36.458 13.0489C36.4515 13.6352 36.393 13.6725 36.7343 13.9165V13.7708C36.5002 13.459 36.8415 13.0726 37.0105 12.7574H36.8708C36.7147 13.0048 36.783 12.954 36.4547 13.0455L36.458 13.0489ZM38.9542 12.7574C39.1135 12.9235 38.9543 12.815 39.2306 12.9031C39.0713 12.737 39.2305 12.8455 38.9542 12.7574ZM46.1637 12.7574C46.1182 12.9031 46.0726 13.0454 46.0239 13.1912H46.1637V13.0455C46.2222 12.9607 46.3912 13.0251 46.3034 12.7574H46.1637ZM60.8652 12.7574V13.0455H61.005V12.7574H60.8652ZM107.463 13.0489C107.456 13.6352 107.398 13.6725 107.739 13.9165V13.7708C107.505 13.459 107.846 13.0726 108.015 12.7574H107.876C107.72 13.0048 107.788 12.954 107.46 13.0455L107.463 13.0489ZM109.959 12.7574C110.118 12.9235 109.959 12.815 110.235 12.9031C110.076 12.737 110.235 12.8455 109.959 12.7574ZM47.9676 12.9031V13.1912H48.1074V12.9031H47.9676ZM63.5013 13.1912H63.7776V13.0455C63.6215 12.9234 63.758 13.0624 63.6377 12.8997H63.498V13.1878L63.5013 13.1912ZM83.4717 12.9031V13.1912H83.6115V12.9031H83.4717ZM95.8135 12.9031C95.9728 13.0692 95.8688 12.9031 95.9533 13.1912H95.8135V12.9031ZM65.302 13.0489C65.2565 13.1438 65.211 13.242 65.1622 13.3369L65.4385 13.4827C65.5392 13.3098 65.1459 13.3573 65.4385 13.0489H65.2987H65.302ZM48.2439 13.1912L48.1042 13.625H48.2439V13.3369H48.3836V13.1912H48.2439ZM83.748 13.1912L83.6083 13.4793C83.6083 13.4793 84.0113 13.2488 83.8845 13.1912H83.7447H83.748ZM10.9391 13.7708H11.2154V13.625C11.0594 13.503 11.1958 13.6419 11.0756 13.4793H10.9358V13.7674L10.9391 13.7708ZM89.0169 13.7708H88.7407C88.8577 13.9335 88.7244 13.7911 88.8804 13.9165V14.0623H89.0201V13.7742L89.0169 13.7708ZM15.6554 14.0589V14.3469H15.7951V14.0589H15.6554ZM35.6258 14.0589V14.6384H35.7656V14.4927H35.9054C35.8599 14.3978 35.8143 14.2995 35.7656 14.2046H35.9054C35.7461 14.0385 35.9054 14.147 35.6291 14.0589H35.6258ZM86.6603 14.0589V14.3469H86.8001V14.0589H86.6603ZM107.599 14.0589C107.44 14.2249 107.599 14.1165 107.323 14.2046V14.3503H107.599C107.645 14.2554 107.69 14.1572 107.739 14.0623H107.599V14.0589ZM42.975 14.4927L42.8352 14.7808C42.8352 14.7808 43.2383 14.5503 43.1115 14.4927H42.9718H42.975ZM37.7061 14.7842V15.0723H37.8459V14.7842H37.7061ZM40.7582 14.7842V15.0723H40.898V14.7842H40.7582ZM34.2379 15.0723H34.5142C34.4005 15.2621 34.4167 15.2417 34.2379 15.3603V15.5061H34.0982L34.2379 15.0723ZM39.0941 15.0723L38.9542 15.3603C38.9542 15.3603 39.3573 15.1299 39.2306 15.0723H39.0908H39.0941ZM28.4132 15.6518V15.9399H28.553V15.6518H28.4132ZM17.7356 16.3737V16.6618H17.8754V16.3737H17.7356ZM20.7878 16.5195V16.9533H21.3436V17.2414H21.7597C21.8734 17.0516 21.8571 17.0719 22.0359 16.9533V16.5195C21.4573 16.6246 21.4541 16.5568 20.7878 16.5195ZM9.5544 16.8076C9.71367 16.9737 9.55443 16.8652 9.83071 16.9533C9.67144 16.7872 9.83068 16.8957 9.5544 16.8076ZM38.2619 16.9533V17.2414H38.4017V16.9533H38.2619ZM3.8662 19.2648C3.82069 19.4106 3.77521 19.5529 3.72645 19.6987H3.8662V19.4106H4.00594V19.2648H3.8662ZM21.7564 19.4106V19.6987H21.8962V19.4106H21.7564Z" fill="#FDE6AD"/>
</svg>
