<svg width="152" height="227" viewBox="0 0 152 227" fill="none" xmlns="http://www.w3.org/2000/svg">
<path d="M102.314 40.3848C102.601 40.3848 107.387 40.4244 107.753 40.3947C107.902 41.0089 108.179 43.4858 108.467 44.2685C109.21 46.2698 110.785 48.5981 112.083 50.2427C115.393 54.7308 96.6859 53.6112 98.509 51.5208C100.193 49.6185 101.709 46.6067 102.284 43.6245C102.492 42.5248 102.314 40.8009 102.314 40.3848Z" fill="#FFDBB0"/>
<path d="M111.995 38.2541C110.766 41.7811 108.219 43.9211 105.822 44.3967C103.424 44.8822 101.026 44.5651 98.6976 43.6239C96.7754 42.544 95.1108 40.6517 94.6649 39.7798C94.2488 38.9773 93.9912 37.9866 93.9119 37.0057C93.7336 34.7072 92.1779 35.054 92.8715 30.2092C93.0796 28.733 94.8037 21.8176 101.195 20.173C106.813 18.7265 114.571 30.8829 112.004 38.264L111.995 38.2541Z" fill="#FFDBB0"/>
<path d="M99.4511 28.0108C97.0038 24.9692 93.2584 33.9949 92.3271 32.0035C89.8401 26.703 95.7553 20.8279 98.2522 19.6291C100.898 18.351 103.315 17.6674 107.11 18.4105C110.459 19.0643 110.35 20.2731 111.737 21.2638C115.314 23.81 116.632 27.5154 116.929 31.0127C117.068 32.6177 115.938 36.7888 114.482 38.8C113.927 39.5629 111.48 41.4057 110.053 42.2082C108.923 42.8422 109.776 37.621 111.173 36.5015C113.055 34.1138 112.52 33.341 111.945 32.5682C111.371 31.7954 109.815 31.4784 109.508 32.3106C107.972 36.442 108.676 32.4493 107.487 31.7657C104.247 29.8932 106.149 33.8364 99.4511 28.0108Z" fill="#003F67"/>
<path d="M109.895 23.0848C110.529 21.9355 111.391 19.5874 112.283 18.6165C113.174 17.6456 114.135 16.5756 115.552 16.2486C117.742 15.7334 118.891 15.8127 120.051 16.4666C121.081 17.0412 122.656 19.8549 122.716 21.8562C123.102 24.4619 124.906 25.1851 126.115 25.6805C127.839 26.3839 130.771 25.7895 130.474 27.0477C129.612 30.7333 127.611 31.3674 125.451 31.1098C118.495 30.2677 122.062 23.7486 117.811 23.0253C113.561 22.3021 113.234 22.9064 109.895 23.0848Z" fill="#003F67"/>
<path d="M80.6246 45.328C78.1079 42.9601 72.807 33.8155 71.0829 30.0606C67.6349 22.5309 67.2385 15.9623 66.8224 15.1201C66.1784 13.8322 64.6921 10.206 63.7508 7.87779C63.3644 6.93658 63.6616 5.39102 64.3453 2.35934C64.6525 1.02183 65.8613 2.95378 66.8521 1.67572C68.5068 -0.484105 69.0518 1.27942 69.8543 1.08127C71.2415 0.724606 71.618 0.595811 71.7369 2.50795C71.8558 4.42009 71.7072 5.65852 71.5585 6.52046C71.4099 7.38241 71.4793 8.72983 72.6484 7.62019C73.8077 6.51056 74.5211 5.97556 75.6308 6.12417C76.7505 6.27278 76.8892 7.11491 75.3336 8.30381C73.8275 10.0574 73.1736 13.0693 72.5692 14.2582C72.3116 14.7734 74.5905 21.7086 76.3839 25.731C77.3252 27.8413 86.1832 39.5717 87.0155 40.5625C90.4635 44.6047 83.0819 47.6661 80.6147 45.3478L80.6246 45.328Z" fill="#FFDBB0"/>
<path d="M132.971 45.289C135.557 43.0004 141.135 34.0243 142.968 30.3189C146.644 22.8982 147.239 16.3394 147.684 15.5171C148.368 14.249 149.963 10.6724 150.974 8.37385C151.39 7.44255 151.142 5.88709 150.538 2.83559C150.27 1.48818 149.002 3.39041 148.061 2.08262C146.466 -0.12674 145.881 1.62688 145.078 1.39901C143.701 1.00271 143.325 0.864007 143.146 2.76624C142.968 4.67838 143.077 5.9168 143.196 6.77875C143.315 7.65061 143.196 8.98812 142.076 7.83885C140.947 6.69949 140.263 6.13477 139.134 6.25366C138.014 6.37255 137.845 7.20477 139.361 8.4333C140.808 10.2365 141.383 13.2681 141.947 14.4669C142.195 14.9821 139.698 21.848 137.786 25.811C136.785 27.8915 127.571 39.3545 126.709 40.3056C123.142 44.2488 130.424 47.5281 132.961 45.2791L132.971 45.289Z" fill="#FFDBB0"/>
<path d="M114.204 213.794C114.352 213.417 114.481 213.051 114.541 212.724C114.977 210.395 113.659 204.54 113.887 202.965C113.887 202.965 121.675 203.44 121.843 205.699C122.022 207.958 121.041 213.378 122.299 215.191C122.576 215.587 123.191 216.072 123.993 216.607C120.506 217.856 117.295 215.845 114.204 213.794Z" fill="#003F67"/>
<path d="M114.204 213.793C117.295 215.844 120.506 217.855 123.993 216.607C126.887 218.539 132.356 221.164 134.447 223.017C137.122 225.385 132.435 226.891 130.216 226.534C127.996 226.187 116.057 223.403 113.402 221.144C111.123 219.202 113.273 216.101 114.204 213.793Z" fill="#003F67"/>
<path d="M92.3063 217.014C89.9184 218.005 85.9848 217.886 83.5969 219.263C80.3569 221.135 77.3646 224.276 84.34 225.673C91.3056 227.07 98.8458 223.989 100.659 221.938C102.433 219.936 99.8267 218.857 99.8663 217.668C97.3001 217.965 94.6744 217.826 92.3162 217.004L92.3063 217.014Z" fill="#003F67"/>
<path d="M103.344 204.342C103.344 204.342 95.7843 202.767 95.3186 203.956C94.853 205.145 95.3187 212.575 94.1198 215.429C93.8027 216.181 93.1487 216.667 92.2966 217.014C94.6548 217.836 97.2904 217.975 99.8467 217.678C99.8467 217.648 99.8467 217.628 99.8467 217.598C100.005 216.38 103.711 206.244 103.334 204.332L103.344 204.342Z" fill="#003F67"/>
<path d="M124.38 102.356C125.866 102.692 129.304 110.599 128.631 124.241C128.353 129.73 126.709 139.003 126.243 141.46C124.667 149.882 124.697 214.379 124.172 214.528C118.386 216.232 113.61 215.746 110.627 215.895C107.655 216.034 108.002 168.458 107.734 162.791C107.536 158.67 107.784 136.071 105.198 135.793C103.166 135.575 103.157 167.537 103.256 172.857C103.365 178.851 103.543 215.39 102.027 215.855C100.432 216.351 91.871 216.678 89.7011 216.47C87.5312 216.262 87.9473 167.002 87.8879 156.906C87.8383 148.564 86.6791 102.99 89.067 103.307C90.2956 103.465 124.39 102.346 124.39 102.346L124.38 102.356Z" fill="#A2A2A2"/>
<path d="M91.1177 40.9384C93.8722 43.8611 98.6975 49.4984 99.2226 48.3491C99.936 46.7837 98.8957 46.5162 103.008 46.2289C106.049 46.011 107.625 46.0308 108.824 46.0506C110.964 46.1001 111.648 47.1503 112.47 47.3485C115.165 47.9925 122.903 41.3941 124.855 38.8281C127.669 35.1326 128.204 36.8862 132.168 39.7098C135.804 42.2957 138.132 42.7217 134.367 47.1107C129.086 53.2731 125.737 59.9706 126.619 64.0227C127.253 66.9256 127.848 83.7485 127.848 92.5562C127.848 96.6182 128.521 105.218 128.63 112.54C128.67 115.631 114.739 115.472 112.084 115.106C109.854 114.798 100.659 114.382 97.6076 115.284C95.5268 115.898 86.5004 115.641 86.3617 112.203C86.005 102.929 88.8189 98.2629 88.8189 93.6956C88.8189 89.0192 89.1955 70.8985 87.7389 62.9131C86.332 55.1655 80.8923 51.1133 78.8116 48.8247C77.0479 46.8828 78.445 44.5645 82.0417 41.6616C86.6193 37.9661 85.569 35.0533 91.1177 40.9582V40.9384Z" fill="#E2C2BC"/>
<path d="M99.7183 111.867C99.54 111.867 99.4012 111.669 99.4012 111.431C99.4112 107.656 99.2725 60.8434 99.213 56.9398C99.213 56.7021 99.3517 56.5039 99.5301 56.5039C99.7084 56.5039 99.8471 56.6922 99.857 56.9299C99.9165 60.8335 100.055 107.666 100.045 111.441C100.045 111.679 99.9066 111.867 99.7282 111.867H99.7183Z" fill="#003F67"/>
<path d="M102.581 115.521C103.354 115.561 104.246 115.482 105.128 115.402C105.821 115.343 106.485 115.283 106.99 115.293C107.436 115.303 108.378 115.353 109.606 115.412C114.194 115.63 121.863 115.997 123.934 115.64C124.112 115.61 124.221 115.442 124.191 115.273C124.162 115.095 124.003 114.986 123.825 115.016C121.833 115.363 113.897 114.976 109.646 114.778C108.407 114.719 107.456 114.669 107.01 114.659C106.465 114.649 105.792 114.709 105.078 114.768C103.671 114.897 101.927 115.056 101.333 114.54C101.204 114.431 101.135 114.293 101.125 114.104C101.115 113.926 100.976 113.797 100.788 113.807C100.61 113.817 100.481 113.976 100.491 114.144C100.52 114.501 100.659 114.798 100.927 115.026C101.313 115.353 101.908 115.491 102.601 115.521H102.581Z" fill="#003F67"/>
<path d="M95.8049 115.958C95.4482 115.958 95.0122 115.958 94.4772 115.928C92.4757 115.839 89.9293 115.324 87.9972 114.63C87.8783 114.591 87.8089 114.412 87.8387 114.244C87.8684 114.076 87.9774 113.967 88.0963 114.006C90.0086 114.69 92.5154 115.195 94.497 115.284C96.6273 115.383 97.0038 115.284 97.7965 114.729C97.9055 114.65 98.0343 114.729 98.0838 114.878C98.1334 115.037 98.0838 115.225 97.9847 115.304C97.311 115.77 96.8651 115.938 95.8148 115.958H95.8049Z" fill="#003F67"/>
<path d="M115.571 74.0439L115.769 74.041L115.756 73.1494L115.558 73.1523L115.571 74.0439Z" fill="#003F67"/>
<path d="M114.729 60.6929C114.729 60.5047 114.947 60.3462 115.235 60.3462H115.74C116.018 60.3363 116.245 60.4849 116.255 60.6731L116.424 72.2847C116.424 72.4729 116.206 72.6314 115.918 72.6314H115.413C115.136 72.6413 114.908 72.4927 114.898 72.3045L114.729 60.6929Z" fill="#F2A096"/>
<path d="M115.096 59.9206C115.096 59.9206 115.215 59.881 115.354 59.8711H115.611C115.75 59.8711 115.869 59.881 115.869 59.9008L115.889 61.3077C115.889 61.3077 115.77 61.3473 115.631 61.3572H115.373C115.235 61.3572 115.116 61.3473 115.116 61.3275L115.096 59.9206Z" fill="#F2A096"/>
<path d="M115.016 72.2259C115.016 72.2259 115.195 72.1367 115.432 72.1367H115.868C116.106 72.1367 116.294 72.1664 116.284 72.216L115.997 73.6922C115.997 73.6922 115.898 73.712 115.779 73.7219H115.561C115.442 73.7219 115.343 73.7219 115.343 73.7021L115.016 72.2358V72.2259Z" fill="#F2A096"/>
<path d="M113.314 74.073L113.512 74.0703L113.5 73.1787L113.302 73.1814L113.314 74.073Z" fill="#E2C2BC"/>
<path d="M112.471 60.7222C112.471 60.534 112.689 60.3755 112.976 60.3755H113.481C113.759 60.3656 113.987 60.5142 113.997 60.7024L114.165 72.314C114.165 72.5022 113.947 72.6607 113.66 72.6607H113.154C112.877 72.6706 112.649 72.522 112.639 72.3338L112.471 60.7222Z" fill="#E2C2BC"/>
<path d="M112.838 59.9597C112.838 59.9597 112.957 59.9201 113.095 59.9102H113.353C113.492 59.9102 113.61 59.9201 113.61 59.9399L113.63 61.3467C113.63 61.3467 113.511 61.3864 113.373 61.3963H113.115C112.976 61.3963 112.857 61.3864 112.857 61.3666L112.838 59.9597Z" fill="#E2C2BC"/>
<path d="M112.768 72.2649C112.768 72.2649 112.946 72.1758 113.184 72.1758H113.62C113.858 72.1758 114.046 72.2055 114.036 72.255L113.749 73.7312C113.749 73.7312 113.65 73.7511 113.531 73.761H113.313C113.194 73.761 113.095 73.761 113.095 73.7412L112.768 72.2749V72.2649Z" fill="#E2C2BC"/>
<path d="M109.527 74.4283L117.305 74.3184L117.162 64.2633L109.385 64.3733L109.527 74.4283Z" fill="#9FA198"/>
<path d="M117.206 66.9358C117.365 66.9358 117.494 66.807 117.494 66.6485L117.474 65.0236C117.474 64.8651 117.345 64.7363 117.187 64.7363C117.028 64.7363 116.899 64.8651 116.899 65.0236L116.919 66.6485C116.919 66.807 117.048 66.9358 117.206 66.9358Z" fill="#003F67"/>
<path d="M109.111 67.0534C109.27 67.0534 109.389 66.9246 109.399 66.7661C109.399 66.5877 109.399 66.3995 109.399 66.2311C109.379 64.9233 109.448 64.4279 110.201 64.3982C110.835 64.3685 112.193 64.3586 113.501 64.3486C114.828 64.3387 116.077 64.3288 116.622 64.309C116.78 64.309 116.899 64.1703 116.899 64.0118C116.899 63.8533 116.751 63.7344 116.602 63.7344C116.077 63.7542 114.828 63.7641 113.511 63.774C112.193 63.7839 110.835 63.7938 110.191 63.8235C108.814 63.883 108.824 65.1313 108.844 66.241C108.844 66.4094 108.844 66.5877 108.844 66.7661C108.844 66.9246 108.973 67.0534 109.131 67.0534H109.111Z" fill="#003F67"/>
<path d="M95.0417 54.5143C101.869 54.9998 108.368 54.7521 111.192 54.7521C115.185 54.7521 116.889 52.8696 117.355 58.0413C117.821 63.213 120.169 74.7156 125.341 81.9976C130.513 89.2795 130.276 89.7452 130.276 95.6203C130.276 101.495 130.721 131.099 131.217 138.837C131.92 149.874 132.624 151.053 127.462 151.053C122.299 151.053 109.141 151.518 99.0447 151.053C88.9481 150.587 83.5382 151.994 84.2516 145.881C84.9551 139.778 85.1929 131.317 85.4307 123.331C85.5991 117.456 86.2233 91.588 87.7789 86.228C89.8894 78.9461 92.0098 67.4435 92.0098 61.0928C92.0098 54.7422 91.772 54.2864 95.0615 54.5143H95.0417Z" fill="#EE8084"/>
<path d="M93.9813 44.7149C92.9508 48.0141 92.1186 54.3053 91.9798 57.1289C91.851 59.9625 93.2184 59.4869 94.9721 59.3878C96.7259 59.2888 96.934 59.4473 96.9637 57.446C96.9934 55.4447 97.5483 48.7571 97.4888 47.697C97.4294 46.6369 96.9538 46.1812 95.8441 45.2895C94.9325 44.5564 94.3479 43.4566 93.9615 44.705L93.9813 44.7149Z" fill="#EE8084"/>
<path d="M112.421 47.8854C112.421 46.3497 116.82 44.5367 116.82 46.538C116.82 48.5393 117.345 54.1667 117.226 56.4058C117.107 58.635 116.533 58.1594 114.759 58.0505C113.818 57.991 112.688 58.3675 112.589 55.2863C112.47 51.6998 112.411 48.2421 112.411 47.8854H112.421Z" fill="#EE8084"/>
<path d="M127.352 111.086H116.78C115.829 111.086 115.165 110.878 114.749 110.442C114.234 109.907 114.194 109.134 114.214 108.599C114.244 107.786 114.214 103.804 114.194 100.603C114.184 98.7805 114.174 97.126 114.174 96.2838C114.174 96.1055 114.313 95.9668 114.492 95.9668C114.67 95.9668 114.809 96.1055 114.809 96.2838C114.809 97.1359 114.818 98.7805 114.828 100.603C114.848 103.972 114.878 107.796 114.848 108.629C114.828 109.292 114.937 109.728 115.205 110.006C115.502 110.313 116.017 110.461 116.78 110.461H127.352C127.531 110.461 127.67 110.6 127.67 110.778C127.67 110.957 127.531 111.095 127.352 111.095V111.086Z" fill="#9FA198"/>
<path d="M128.581 109.807C128.403 109.807 128.264 109.668 128.264 109.49C128.264 109.233 128.264 108.638 128.274 107.836C128.294 105.002 128.333 99.7313 128.264 98.2353C128.264 98.057 128.393 97.9083 128.571 97.8984C128.72 97.8984 128.898 98.0272 128.908 98.2056C128.977 99.7214 128.938 105.002 128.918 107.846C128.918 108.648 128.908 109.242 128.908 109.5C128.908 109.678 128.769 109.817 128.591 109.817L128.581 109.807Z" fill="#9FA198"/>
<path d="M89.3739 111.135C88.1155 111.135 86.8076 111.105 86.2428 111.085C86.0645 111.085 85.9258 110.927 85.9357 110.748C85.9357 110.57 86.0843 110.431 86.2726 110.441C87.412 110.491 90.3944 110.53 91.6528 110.441C92.8319 110.362 93.248 109.936 93.248 108.826C93.248 106.32 93.248 97.9874 93.2084 96.1941C93.2084 96.0158 93.3471 95.8672 93.5155 95.8672C93.7038 95.8672 93.8425 96.0059 93.8425 96.1743C93.8821 97.9279 93.8821 105.606 93.8821 108.816C93.8821 110.273 93.2084 110.976 91.6924 111.075C91.1276 111.115 90.2656 111.125 89.3739 111.125V111.135Z" fill="#9FA198"/>
<path d="M11.4077 217.846C11.7842 217.371 12.0121 216.885 11.9725 216.221C11.8734 214.745 11.1798 212.377 12.24 209.504C13.3002 206.621 13.102 207.037 14.1424 204.501C15.1828 201.965 15.2026 200.389 14.8063 197.853C14.4099 195.317 14.7567 192.88 16.1934 190.413C17.6301 187.946 19.2452 187.708 22.287 187.629C25.3289 187.549 25.1208 190.343 25.4081 193.88C25.6459 196.139 25.7946 198.121 24.4272 200.449C23.05 202.777 22.2276 205.502 22.0096 206.948C21.6727 209.207 19.7901 213.398 19.0371 214.577C18.2246 215.855 16.9366 218.312 17.7788 219.887C17.9373 220.184 18.0859 220.383 18.2345 220.541C15.6881 221.443 12.9534 220.155 11.4077 217.836V217.846Z" fill="#FFDBB0"/>
<path d="M11.4078 217.846C12.9535 220.164 15.6783 221.452 18.2346 220.55C18.8688 221.244 19.4236 221.036 20.0875 223.255C21.1477 226.822 18.0563 227.297 15.1234 225.762C13.0724 224.682 8.48488 220.967 10.1693 219.183C10.6548 218.668 11.0908 218.262 11.4078 217.856V217.846Z" fill="#003F67"/>
<path d="M37.9519 218.61C39.2796 219.59 39.5372 218.392 41.2711 220.502C43.56 223.286 40.8946 225.426 37.6348 225.574C35.346 225.674 29.7577 224.673 30.6495 222.067C31.026 220.977 31.3827 220.145 31.4223 219.382C33.7904 220.343 35.8612 219.798 37.9519 218.6V218.61Z" fill="#003F67"/>
<path d="M25.5861 191.612C25.9923 188.491 34.236 190.007 35.8016 195.882C36.5645 198.765 37.0104 201.895 37.3472 203.372C37.8724 205.69 37.0995 209.802 36.8914 212.685C36.7725 214.26 36.5645 217.549 37.9219 218.58C37.9318 218.58 37.9417 218.59 37.9516 218.599C35.8709 219.798 33.7902 220.343 31.4221 219.382C31.4419 219.016 31.3924 218.659 31.214 218.292C30.5799 216.955 29.0738 215.102 28.9847 211.803C28.8955 208.504 28.8657 208.999 28.8856 206.037C28.9054 203.074 28.3406 201.578 27.0426 199.399C25.7446 197.219 25.17 194.732 25.5762 191.612H25.5861Z" fill="#FFDBB0"/>
<path d="M36.0992 169.053C34.3157 167.874 27.5285 168.023 23.6048 167.577C19.7901 167.141 17.8679 167.765 13.6866 166.755C10.4268 165.962 11.3086 169.707 7.53357 177.247C5.03668 182.23 -1.44334 189.245 0.508593 190.959C2.46053 192.673 7.28587 194.951 10.0206 194.198C12.7552 193.455 13.6272 193.237 16.8275 194.813C19.6118 196.19 24.338 194.793 28.0437 194.476C31.145 194.208 33.1069 194.456 35.5245 195.04C40.1715 196.17 43.6988 194.644 44.4816 194.02C45.6111 193.118 45.6012 188.64 41.6478 182.914C37.6944 177.187 38.2889 171.411 36.0992 169.053Z" fill="#A2A2A2"/>
<path d="M31.898 139.29C32.1655 138.706 37.4268 139.776 38.7347 138.121C40.7164 135.624 43.025 132.801 43.0052 132.365C42.9656 131.642 42.8863 128.917 43.352 127.976C44.1744 126.341 45.2147 128.412 45.948 128.035C46.6812 127.649 47.8504 126.113 48.6827 125.757C49.5149 125.4 49.7032 126.549 50.1689 127.213C50.6346 127.877 51.7344 126.44 52.1704 127.203C52.4676 127.728 52.0118 129.085 52.8738 129.403C53.7359 129.72 53.835 130.007 53.4783 130.889C53.1117 131.76 52.6063 132.078 52.8045 132.86C53.0026 133.643 52.8045 133.792 52.2397 134.277C51.675 134.762 49.7329 135.169 48.0881 135.634C46.9685 135.951 45.8984 138.825 44.2735 141.965C43.5105 143.441 40.2408 145.591 37.516 145.958C35.9208 146.176 33.2752 146.572 32.7996 144.868C32.3736 143.362 31.254 140.727 31.9079 139.32L31.898 139.29Z" fill="#FFDBB0"/>
<path d="M29.2725 128.53C29.6093 127.906 30.0849 126.638 30.5704 126.103C31.056 125.578 31.5811 124.993 32.344 124.815C33.533 124.537 34.1572 124.577 34.7815 124.934C35.3363 125.251 36.1984 126.777 36.2281 127.856C36.4362 129.273 37.4171 129.67 38.071 129.937C39.0024 130.313 40.5977 129.996 40.4391 130.68C39.9734 132.681 38.8835 133.028 37.7143 132.88C33.9393 132.424 35.8813 128.887 33.5727 128.491C31.2641 128.104 31.0857 128.431 29.2725 128.52V128.53Z" fill="#003F67"/>
<path d="M11.8137 163.316C12.646 159.254 8.9502 158.887 8.88084 152.854C8.8313 148.019 11.883 142.58 15.4302 139.598C18.264 137.22 21.2761 134.297 25.3583 134.862C27.2112 135.12 31.4816 138.488 33.2354 138.25C36.5943 137.795 36.2277 138.419 37.0501 141.956C37.7536 144.977 40.2802 147.534 37.9518 148.257C35.9998 148.861 36.3664 152.329 36.7132 154.102C37.0303 155.687 37.5653 158.372 37.3771 165.357C37.2978 168.22 38.9921 171.014 36.198 170.628C24.0703 168.953 17.4515 171.787 12.21 170.103C8.13771 168.795 11.0508 167.022 11.8038 163.316H11.8137Z" fill="#EE8084"/>
<path d="M19.4633 134.733C22.1682 136.566 25.1605 136.744 27.2017 135.843C29.2428 134.941 30.8776 133.475 32.1459 131.612C33.0377 129.859 33.325 127.669 33.216 126.827C33.1169 126.054 32.8097 125.222 32.3738 124.489C31.3433 122.785 32.6809 122.23 29.7084 119.188C28.8068 118.267 24.0112 114.314 18.3932 116.464C13.449 118.356 13.8057 130.879 19.4732 134.733H19.4633Z" fill="#FFDBB0"/>
<path d="M30.2037 117.058C29.53 116.037 27.9249 114.878 25.9531 114.601C24.1201 114.343 23.2779 113.442 20.3351 114.056C16.887 114.779 14.1523 116.959 13.3498 118.088C11.6158 120.526 11.9428 122.121 11.6059 123.726C10.9916 126.619 12.3391 132.85 18.7696 134.614C19.7902 134.891 19.5821 134.317 19.4632 133.911C18.8191 131.553 17.9571 131.82 16.9564 131.057C15.9259 130.274 16.0151 128.016 17.5905 128.343C18.8885 128.62 18.3435 128.679 20.2558 126.807C21.6232 125.469 22.6338 123.428 24.7146 120.169C25.646 118.712 29.0445 121.467 31.2639 121.16C32.3935 121.001 31.5612 119.139 30.1839 117.068L30.2037 117.058Z" fill="#003F67"/>
<path d="M14.3206 129.303C13.6568 128.917 12.4975 127.995 11.7544 127.778C11.0113 127.56 10.1988 127.312 9.38633 127.579C8.12798 127.986 7.57312 128.372 7.18669 129.056C6.8399 129.66 6.89934 131.562 7.48393 132.583C8.07843 134.019 7.39476 134.931 6.92907 135.545C6.27512 136.427 4.61054 137.011 5.14559 137.566C6.70119 139.161 7.91 138.874 8.92064 138.081C12.1706 135.545 8.3856 133.336 10.3177 131.681C12.2498 130.027 12.5867 130.235 14.3306 129.303H14.3206Z" fill="#003F67"/>
<path d="M12.3982 126.202C12.7648 126.46 13.2602 126.856 12.9927 127.52C12.7251 128.194 12.3982 128.54 11.9919 128.511C11.229 128.451 11.1398 128.322 10.7732 127.807C10.4066 127.282 10.5354 126.925 10.9912 126.42C11.4569 125.915 11.8433 125.994 12.3982 126.202Z" fill="#F8CED2"/>
<path d="M13.6466 127.759C14.0132 128.016 14.5086 128.413 14.2411 129.076C13.9736 129.75 13.6466 130.097 13.2403 130.067C12.4774 130.008 12.3883 129.879 12.0216 129.364C11.655 128.839 11.7838 128.482 12.2396 127.977C12.6954 127.471 13.0917 127.551 13.6466 127.759Z" fill="#F8CED2"/>
<path d="M13.9433 148.346C14.9738 147.098 21.0079 143.333 21.1466 142.62C21.2953 141.906 21.8997 139.251 22.5932 138.459C23.802 137.081 24.2875 139.35 25.0901 139.162C25.8927 138.974 27.4186 137.785 28.3202 137.646C29.2219 137.507 29.1129 138.667 29.3903 139.43C29.6678 140.192 31.1045 139.073 31.3324 139.925C31.4909 140.5 30.7081 141.708 31.4612 142.223C32.2142 142.739 32.2439 143.056 31.6692 143.809C31.0945 144.562 30.5199 144.74 30.5199 145.542C30.5199 146.345 30.2821 146.444 29.6182 146.771C28.9544 147.098 26.9628 146.999 25.2586 147.038C23.5543 147.078 22.5437 152.22 17.6688 154.538C14.7062 155.945 11.8229 150.932 13.9532 148.336L13.9433 148.346Z" fill="#FFDBB0"/>
</svg>
