<svg width="351" height="40" fill="none" xmlns="http://www.w3.org/2000/svg"><path fill-rule="evenodd" clip-rule="evenodd" d="M86.05.68c1.219.259 1.399.92 2.816 1.028.204-.39.51-.974 1.28-.77v.259c.654.24.287-.258.768.258h.258v1.028l.51.258v.51h.258c.085.26.169.511.259.77h-1.027v.769c-.709.186-.57.072-.769.769-.895.216-1.195.649-2.306.769.019.673.103.871.259 1.28-.877-.066-2.012-.205-2.048-.259v.511h.258c.81.006-.768.258-.768.258-.325-.402-.685-.624-1.28-.769-.384.697-.888 1.094-1.795 1.28v-.51l-.51.258c-.15.39-.198.42-.258 1.027-.54.042-1.55.229-1.796.511-.312.36.228.282-.51.77V9.656h-.258v1.027h-.769v-.51c-.39.15-.42.198-1.027.258V9.92l-.768.258c-.168.439-.246.806-.258 1.538h-1.28s-.258.409-.51.511v.259h-.258v-.511h-.51v-.259h-.259v.259h-.768v.258c-.445.397-.54 1.202-.769 1.797-.943-.09-1.687-.45-2.306.258-.084.258-.168.51-.258.77-.684.083-1.369.167-2.047.258v.258l-.51.258v.51l-.77-.258-.258.511h-.768c-.042.024-.3.385-.51.51v.26c-.427-.085-.853-.169-1.28-.26v-.257c-.15-.018-.876.432-1.279.51-.174.487-.33 1.568-.51 2.05l-.769-.26v-.258c-.354-.066.102.187-.258.259-.612.12-.66-.192-1.027-.259l-.51.77h-1.027v.258l-.768.258v.77h.51v.258h-.258c-.138.12-2.054.649-2.048 0h-.258v.51l-1.28-.258c.013.92-.06 1.616-.51 2.049v-.259h-.258V22.22h-.51c-.018.673-.102.871-.258 1.28-.535-.156-1.045-.289-1.538.258v.51h-.258v.26l-1.537-.26c-.084.17-.168.343-.258.512-.342.084-.685.168-1.027.258v.51h-1.027v.511c-.612-.12-.804-.294-1.279-.51v1.28c-.6.084-1.195.168-1.795.258v.258c-.75.174-.84.283-1.027 1.027.36.019-.036-.041.258-.258.403-.294.24.631.258.77-.438.288-.348.162-.51.768.342-.084.685-.168 1.027-.258l.258-.51c.048-.007.6.24 1.027.258v-.511c.258.084.51.168.769.258l.258-.51c.312-.15.75-.139 1.027-.259v-1.027c.606-.102 1.41-.487 2.305-.259v.259h1.027v-.259h.51v-1.027h.51v.51c.77-.168 1.538-.342 2.307-.51l.258.258c.703-.492.234-.877 1.537-1.027.294.294 0 .102.51.258v-.769l1.28-.258v-.51c.846.137 1.164.324 1.537 0h.258c.324-.397-.276-.518.258-.77v.258h.258v-.769c.565-.09 1.327-.336 2.048 0 .084.169.168.343.258.511h.51v-.51c.517.144.223-.03.51.258l.77-.259v-.258h.768c.168-.258.342-.51.51-.77.427.085.853.17 1.28.26v.258c.186.036.942-.229 1.795-.259l-.258-.769h.51v.259H69.4l.258.258v-.258l.769-.259c-.018-.673-.102-.871-.258-1.28h1.537c.294-.294 0-.102.51-.258.198-.769.156-.673 1.027-.769.288.439.162.349.769.51.258-.642.528-1.34 1.026-1.027h.258v.77h.51c.187-.71.073-.571.77-.77v-.258l1.537-.258s.114.372.51.258l.258-.51h.769v-.511l.51.258v.258c.337.127.054-.12.258-.258.643-.174.415-.132.77-.51h.257v-.512l.51-.258c.301-.324.433-.745.77-1.027v.258h.768c.084.343.168.685.258 1.027h.258c.625-1.045 1.435-.949 2.816-1.28.079-.017.067-.354.51-.258v.259c.511.168 1.028.342 1.538.51v-.258h.258l-.258-.769c.168-.084.342-.168.51-.258.355-.535-.114-.36.51-.77v-.258l1.28-.258c-.138.715-.198.024 0 .769h.258v-.51c.51.083 1.027.167 1.537.258v-.259c.276-.234.048.042.258-.258h-.258v-.258h.769c.054.606.108.636.258 1.027.294-.295.102 0 .258-.51.294-.295.102 0 .258-.511.77-.259 1.538-.511 2.306-.77l.258.259c.085-.83.235-.751.51-1.28h.511v.258h.258v-.258h1.027l.258-.769c.667.27 1.081.469 2.048.51-.084-.167-.168-.342-.258-.51.174-.282 1.441-.36 1.795-.77l-.258-.51h.258v-.258c.679.3.967.493 2.048.51v-.258h-.258v-.769c.81.168.516.39.768.51.301-.017.913-.516 1.538-.258l.258.511h.51c-.246.847-.24 1.508.258 2.307h-.258c-.294.295 0 .103-.51.259v1.28h-.258c-.067.426.24.444.258.51v1.28c-.919.036-1.453.367-2.048.51l-.51-.258c-.168.259-.343.511-.511.77-.144.06-1.399-.193-1.795-.259-.156.673-.727 1.358-1.537 1.28 0 0-.138-.325-.511-.259l.258.511h-1.026a82.86 82.86 0 0 1-.259 1.28l-1.279-.258-.258.51c-.69.175-.672-.492-.768-.51l-.769.258.258.258c.012.103-.228.577-.258 1.028-.853.084-1.705.168-2.564.258v-.51c-.606-.055-.636-.109-1.027-.259v.77c-.054.107-1.76 1.29-.768 1.796h-.769v-.259c-.246-.474-.258.511-.258.511-.288.216-.036-.03-.258.258.72-.24.714-.27 1.537 0v.259l.769-.259-.259-.258.258-.77c1.202.463 1.994.151 2.817-.51.084-.168.168-.342.258-.51h1.279s-.024-.15.51-.259v.77h.258v-.512c1.093-.018 1.7-.054 2.306-.51l.258-.511c.427.084.853.168 1.279.258-.294-.294 0-.102-.51-.258v-.51c.258.084.51.168.769.258v-.511h.51v.51c1.483-.12 2.546-.955 3.585-1.537v.769h.51v-.511h1.796v-.258h.768v-.259c.511.084 1.027.168 1.537.259.217-.289-.03-.037.259-.259v-1.027c.51-.084 1.026-.168 1.537-.259a38.64 38.64 0 0 1-.258.77h.258v.258c.288-.216.036.03.258-.259.294-.294.102 0 .258-.51.403.018 1.796.258 1.796.258v-.258h.258v-.77c.282-.36 1.153-.264 1.795-.258v.259l1.537-.259v-.258h.511v-.258h.768l-.258.769h.258c.187-.71.072-.571.769-.77v.511c.258-.084.51-.168.769-.258v-.258c.6-.084 1.195-.169 1.795-.259v-.258h.769l.258-.51c.216-.085 1.687.27 2.048.51v-.51l.768-.26v-.258c.348-.108-.102.187.258.259.427.084.457-.246.511-.258.468-.097.99.336 1.279.51v-.258c.798-.727.06-1.088 1.537-1.28v.258h.769l-.259.511c.33.415.481-.282.769.77.336-.271.384-.524.768-.77v.77h.511c-.084-.511-.168-1.028-.258-1.539 1.201-.409.864.198 1.537-1.28h.258c-.03.547-.264.877-.258 1.028l.258.258c.468-.324.03-.348.258-.51.295-.217.162.234.258.258.259-.084.511-.168.769-.259v-.51c.577-.102.985-.42 1.795-.259 0 0 .012.337.511.259v-.259h1.279v.259c-.613.156-.475.084-.769.51h.511c.738-1.22 1.969-.793 3.332-1.28l.258-.768c.733 0 1.099.09 1.538.258V8.1h.258c.168.259.342.511.51.77h.258l-.258.51h.258v.259c.733.528.661-.457 1.027.769h.511v.51h.51a38.64 38.64 0 0 1-.258.77h.258c.174.384.18.426.258 1.027h.511v.51c.396.229.534.38.768.77.829-.451.487-.613 1.538-.259l-.259-.769h.511v-.51h.51v.258h.258v-.258l.769.258-.258.769h.51c.186-.71.072-.57.769-.77.384-.45.69-.486 1.537-.51v-.51c.51-.169 1.027-.343 1.537-.511.018.673.102.87.258 1.28.289-.217.036.03.258-.259h.259v-.769c.768.084 1.537.168 2.305.258v-.51h.511l.258-.77c.342.085.685.169 1.027.259.084-.168.168-.342.258-.51l1.279.258v.51c.655-.396 1.765-1.592 2.564-1.027h.51v.51h.259v-.51c1.231-.066 1.237-.18 2.305 0 .084-.427.169-.853.259-1.28 1.183-.222 2.077-.222 2.816 0v-.51h1.537v.258h.769v.258c.258-.084.51-.168.768-.258v-.259c-.294-.294-.102 0-.258-.51.841.018.757.324 1.279 0l.258-.511 1.537.51v.511c.691 0 1.454.085 1.796-.258v-.51l.51.258v-.259c.511-.084 1.027-.168 1.537-.258.241.156-.09.367.259.258l.258-.51c.324 0 .654.456 1.279.258v-.258a99.9 99.9 0 0 0 1.279-.259l-.258.77h.258c.57.618.48.36 1.279.258-.03.81-.499.48.258.769.114.637.234.943.258 1.796-.708.187-.57.072-.768.77h-.259v1.28c-.612.12-.804.293-1.279.51v-.77h-.258c-.378 1.437-.444.53-1.279 1.028v.259l-1.027.769c.085-.259.169-.511.259-.77h-.259c-.156.41-.228.607-.258 1.28-.967.205-1.435.5-2.816.511v-.51h-.51v.51h-1.279v.258h.258c-.162.367-.3.193-.511.511h-.51l.258-.51h-.258c-.252.348-.15.504-.769.51 0 0-.18-.366-.51-.258-.084.168-.168.342-.258.51h-.511l-.258 1.539-1.027.258v-1.027h-.51c-.186.823-.348.93-1.279 1.027l.258-.77h-.258c-.096.295-.072.914-.51.77l-.259-.77c-.258.085-.51.17-.768.26v.51c-.408-.156-.607-.228-1.279-.258v-.77h-.258v.77c.294.294.102 0 .258.51-.601.085-1.195.169-1.796.259v.51c-.906.097-.78.319-1.537.511v.77c-.624-.145-.564-.271-1.027-.512v.511h-.258v.77h.258v-.511h.511v.51a99.84 99.84 0 0 0 1.279-.258v.769h.51v-.77c.427.085.853.17 1.279.26.12-.614.294-.806.511-1.28.834.005 1.849-.115 2.306.258h.258c.084-.168.168-.343.258-.51h.51v-.26h.511v-.258l.51.259v-.259h2.564a38.78 38.78 0 0 0-.258-.769h.51v-.258h.258v.258l.769.259c.018.36.06.072-.258.258.288.27 0 .114.51.258v-.258h.258v-.769h.259c.222-.355.192-.445.258-1.027.606-.03.648-.079 1.027-.259v.259h.258v.258l-.258.51h.768v-.51a184.79 184.79 0 0 0 1.796-.258v.258h.258c.288-.204-.096-.336.258-.258v.258h1.027v.51h.258c.084-.51.168-1.027.258-1.538h.511v.511h.258v-.769c.588.024.666.216 1.027.258l.258-.51s.702.24 1.027.258v-.51l.258.258a67.06 67.06 0 0 0 1.027-.259v.259h1.279v-.77h.51v.26h.258v-.26l.511.26.258-.77c.678-.252.534.559 1.027.51v-.258c1.122-.264 1.411-.63 2.564-.769v.259h-.259c-.486.222.511.258.511.258.216.288-.03.036.258.258v-.51l1.279-.259c.084-.168.168-.342.258-.51l.258.258c1.52.096 1.718-.535 2.564-1.027v.769h.259c.294-.295 0-.102.51-.259v-.51c.258.084.51.168.769.258l.258-.51h1.027v-.26h.258c.156.614.084.476.51.77v-.77c1.345-.215 1.135-.03 2.306.512.132-.601.372-.962.769-1.28.294.294 0 .102.51.258v-.51h.769v-.511c.426.084.852.168 1.279.258v.51h.51v-.768c.558.036.853.258 1.027.258v-.258l.768-.259c.085.168.169.343.259.511.816.24 2.041-.535 2.564-.769l-.259-.77h.769c.156.614.084.476.51.77.217.288-.03.036.259.258.018-.673.102-.87.258-1.28.51-.084 1.027-.168 1.537-.258.216.289-.03.036.258.259-.198.258-.312.252-.51.51h.768l-.258-.769.258-.258c.379.12.409.294 1.027.258v-.258h.258v.258c.343.084.685.168 1.027.259v.258c1.045.396 1.519-.186 2.048.258.798.529.12.33.51 1.028l.511.258v.51h.258c.234.35.192.451.258 1.028l-1.027-.258c.204.829.475.883.511 2.049-.289.216-.036-.03-.259.258h-.258c-.078-.769-.036-.697-.51-1.027v.258h.258c-.168.343-.342.685-.51 1.027-.667.012-.883.054-1.279.259v.258c-.439.15-.445-.24-.511-.258-.918-.235-1.501.324-1.795.769h-.258c-.084.51-.169 1.027-.259 1.538h-.51l-.258-.51c-.342.083-.685.167-1.027.258.054.606.108.636.258 1.027-.594-.024-.654-.204-1.027-.258l-.258.51c-.342.084-.684.169-1.027.259-.186.709-.072.57-.768.769-.901.81-1.657-.325-1.796-.259v.259c-.426.258-.852.51-1.279.769.138.895.253.474 0 1.28h.259v-.259h1.026v.511l.769-.258v-.259l.769.259v-.77c.258.085.51.169.768.259v-.258l-.258-.259h1.537c.084.259.168.51.258.77.169-.085.511-.511.511-.511.258.084.51.168.768.258v-.258c.379-.199.427-.193 1.027-.259v-.51h.511v-.511h1.026v.51c.577-.066.679-.024 1.027-.258v-.258h.511v-.259h.51v-.258c.456-.366.612-.577 1.279-.769v.77h1.027c.084-.428.168-.854.258-1.28h.51c-.084.258-.168.51-.258.768h.258c.367-.366 1.43-.654 2.048-.769v-.51c.342-.084.685-.169 1.027-.259v-.769h.51v.77h.511v-.77h1.279c-.084.258-.169.51-.259.77h.511c.264-.295.474-.493 1.027-.512v.259h.258l.258-.259c.24-.462.354-.402.51-1.027l.769-.258v-.259l.258.259.769-.259v.77h.51c.054-.607.108-.637.258-1.028l.511.258v-.258c.366-.318.396-.709.768-1.027.079.12.523.93.769.769l.258-.77c1.111-.084 2.222-.168 3.333-.258v.259c-.709.186-.571.072-.769.769.637-.114.943-.235 1.796-.259v-.258h-.259v-1.28c.427.084.853.168 1.279.259.084-.259.168-.511.259-.77.294.295.102 0 .258.511l.768.259v-.259c.529-.288.463-.396 1.279-.51v-.77c.547-.03.877-.264 1.027-.258l.258.258v-.51l1.279-.259v.511c.169-.084.343-.168.511-.258v-.259c.408-.048.318.445.51.511h1.027c.084-.427.168-.853.258-1.28.427.084.853.168 1.279.259l.258-.511h.259v.258c.258-.084.51-.168.768-.258v-.51c.294.294.102 0 .258.51h.511c.12-.613.294-.805.51-1.28.853.012 2.306.259 2.306.259v-.259h.51v-.258h.769c.084-.168.168-.343.258-.511.258.084.511.168.769.258v.259h1.279v-.511l1.027-.258v.51h.51c.162.703.336.583.51 1.28h.769c.186.71.072.571.769.77v.51c-1.532.312-1.327 1.027-1.796 2.307h1.537l.259-1.027c1.068-.162.726-.253 1.795-.51v.51c1.213-.51 1.033-.51 2.048 0v-.51c.342-.085.684-.17 1.026-.26v-.51h.511v.258h.258v-.258c.582-.114.69.132 1.027.258v-.258h-.258c-.475-.246.51-.258.51-.258v-.511h.51v-.51c.805.15 1.141.414 2.048.51l.258-.77s-.546-.041-.258-.258h.51v.259h1.538v-.77c.816.169.504.38.768.511.427-.042.475-.504.511-.51.492-.138.354.168.51.258h.258v-.258c.342.084.685.168 1.027.258.186-.709.072-.57.769-.769v.51h1.026c.241-.462.355-.402.511-1.027l.768.259V6.58c.168-.084.343-.168.511-.258v.51h.51l-.258-.768c.612-.12.805-.295 1.279-.511V6.58c1.333-.348.913-.564 2.564-.258v-.77h.769v.26c-.109.15-.421.035-.259.51h.259c.414-1.586.546-.433 1.537-1.027.582-.349-.018-.944 1.279-1.28v.258l.768-.258v.51h.259v-.51c.906.096.78.318 1.537.51v.511c.24.403 1.831.475 1.027 1.28h.51v1.027l-.51.259c-.012.084.24.57.258 1.027h.51c-.12.613-.294.805-.51 1.28-.457.024-.925.27-1.027.258V9.91h-1.027v.258l-1.537.259v.51c-.342.169-.685.343-1.027.511v-.258h-.258v.769l-1.795.51c.294.295 0 .103.51.259v.258c.45.21.823-.15 1.027-.258v-.258h.768v-.511c1.195-.06 1.46-.373 2.306-.77v-.258h1.796v.259h-.259c-.294.294 0 .102-.51.258v.51c1.045-.3.27-.234.769-.768l.51.258v-.258h.51v-.259h.769c.27-.156.636-1.267 1.279-1.027v.258h.51v-.769c.259.084.511.168.769.259v-.259c.51-.084 1.027-.168 1.537-.258v.51h.511c.084.259.168.511.258.77h.258v-.511h.51c.15-.955.15-.589 0-1.538.078.03 2.468.559 2.564.51v-.258h.258V7.59h.259c.522.468 1.165.072 2.047 0v-.51c.517.143.223-.031.511.257.943-.27.702-.516 1.279-1.027v-.258c.648-.403 2.023-.018 3.074 0 .162-.703.336-.583.511-1.28 1.098-.042.876-.162 1.537-.51v.768h1.027c.054-.607.108-.637.258-1.027l.768.258.259-.51h.51v-.259c.258-.084.51-.168.769-.258l.258.769c.648-.523.108-.62 1.279-.77v.259c-.294.234-.301.186-.511.51h.259v.26c.534-.283.456-.415 1.279-.512.216.289-.031.037.258.259-.301.486-.216.246-.769.51v.259h.511c-.085.51-.169 1.027-.259 1.538h.259v.258h-.259v.511c.084.6.168 1.196.259 1.797h-.259c-.216.294-.132.36-.51.51v-.258h-.258c-.168.258-.343.51-.511.769h-.768l-.258.51c-.343.085-.685.169-1.027.259-.084.258-.168.51-.258.77l-.769.257-.258.511h-.258v-.258c-.943-.223-1.237.871-1.796.258v.51h-.51c.084.343.168.686.258 1.028h-.258c-.288.439-.162.349-.769.511-.024-.054-.366-.931-.51-.77v.26l-.511.258c-.084.258-.168.51-.258.769h-.769c-.858.42-.336.679-1.795.769.084.258.168.51.258.769.343-.084.685-.168 1.027-.259v.77h.258v-.259h1.027c.781-.294 1.141-.715 2.306-.769v-.51c.727-.163.679-.475.769-.511h1.026v.258l1.027-.258s.114.318.511.258v-.258l1.026.258v-.258c.295-.295.102 0 .259-.511h-.259v.258c-.222.487-.258-.51-.258-.51.937.084 1.88.168 2.816.258l.259-.51c.258-.079.468.396 1.026.258v-.259h1.279v.259h.259v-.259h1.026l.258-.769h.259l-.259-.51h.769c.294.294 0 .102.511.258v-.51c.612.12.804.294 1.278.51v-.258h-.258c-.474-.247.511-.259.511-.259v.259c.294.294.102 0 .258.51.546-.03.871-.258 1.027-.258v.258h.51c.072-.456.258-.51.258-.51a38.64 38.64 0 0 0-.258-.77h.258v-.258c.727.325 1.057.661 2.048.77v-.512c1.495-.342.144-.648 1.537 0v-1.027h.258v.258c.343-.258.685-.51 1.027-.769v1.028h.258c.126-.12-.072-.415.259-.259v.259h.258s-.072.919.258.51v-.258c.294-.294.102 0 .258-.51h-.768c.198-.77.156-.674 1.026-.77v.259l.769-.259v.259h.769v.258c.66.138 1.405-.8 1.795-1.027l.769.258v-.258c.426-.277.426-.349 1.026-.511-.084.258-.168.51-.258.769h.258v.258c.259-.168.511-.342.769-.51V9.41h.51c.463-.204.559-.583.769-1.027l1.279 1.027c.156-.504.012-.625.51-.769.084.03.078.48.511.51.546-.726.228-.516 1.027-.257.084-.83.234-.751.51-1.28.895.138.474.252 1.279 0v1.538h.258c.288-.439.162-.349.769-.51.48.804.949.726 1.027 2.048.702.03 1.855.355 2.047 0h.258v.258c.709.169 1.513.715 1.796 1.28v.77h.258c.354.474.594.594.768 1.279a38.47 38.47 0 0 1-.768-.258v.258h.258v.77h.258c.234.378.228.63.258 1.279-.294.294-.102 0-.258.51-.852.085-1.705.169-2.564.259v-.51c-.342.083-.684.168-1.026.258v-.511c-.169.084-.343.168-.511.258-.084-.168-.168-.342-.258-.51-.006 0-.757.348-1.279 0l-.258-.77c-.301-.21-.439.751-1.027.511v-.258c-.294-.295-.102 0-.258-.51l-.769.257v-.258h-.258c.084-.258.168-.51.258-.769 0 0-.318-.078-.258-.51 0 0 .426-.115.258-.511h-.258c-.294.294 0 .102-.51.258-.085.258-.169.51-.259.77-.6-.073-.636-.085-1.026-.26v-.258c-.433.03-.433.487-.511.511-.582.204-1.033-.318-1.279-.258v.258c-.871.349-1.063.8-2.048 1.027.085-.258.169-.51.259-.769h-.511c-.378.697-.786 1.172-1.795 1.28v-.769h-.258c-.198.77-.156.673-1.027.77v-.512c-1.069.583-1.213.523-2.564.259v-.51h-.258c-.018.99.042 1.057-.769 1.279v.258c-.246.475-.258-.51-.258-.51h-.51c-.084.168-.169.342-.259.51a98.171 98.171 0 0 1-1.279-.258v.51h-.768v.259c-.294.294-.102 0-.258.51l-1.538.259v-.51l-2.564.258v.51h-.768v.259c-.228.48-.258-.511-.258-.511-.823.198-.553.384-1.538.51v.77c-1.513-.156-1.399-.907-3.074-1.028-.006.854-.132 1.16-.258 1.797h-.511c.078-.222.493-.565.259-1.028h-.259v.259c-.294.294-.102 0-.258.51l-1.537.259v.51c-.859-.156-1.615-.702-2.564-.258-.168.259-.342.51-.51.77-.697.204-.793-.692-1.027-.77-.463-.156-.186.289-.258.51a36.524 36.524 0 0 1-.769-.257v1.027h-.51l-.259.51c-.42.127-.474-.252-.51-.258-.619-.108-.667.259-1.027.259v-.259c-.51-.084-1.027-.168-1.537-.258v.51c-1.699.18-2.564.223-3.843 0l-.258.77c-.481-.126-1.225-.108-2.048-.259v-.258c.294-.294.102 0 .258-.51-.612.023-.636.168-1.027.258v-.259c-.426-.276-.42-.366-1.026-.51v-.511h-.511a38.34 38.34 0 0 0-.258-.77l-1.537-.258v-.51c.204.084.805.523 1.279.258v-.258c-.757-.493-.624-1.022-.51-1.797.342-.168.348-.402.51-.51.168.084.342.168.51.258v-1.027h.259c-.085-.511-.169-1.028-.259-1.539a38.47 38.47 0 0 1-.768-.258c.084.168.168.343.258.51l-.769-.258v.511h-.258c-.084.168-.168.343-.258.51h-.769c.06.596.283.157 0 .77l-.51-.259v.511c-.276.45-.258-.51-.258-.51-.427.084-.853.168-1.279.258 0 0-.12-.385-.511-.259-.084.169-.168.343-.258.511h-.768c-.084.259-.169.51-.259.77-.396-.211-1.135-.926-1.795-.77-.084.168-.168.343-.258.51-.493-.047-.427-.498-.511-.51h-.258v.259h-1.279v.258h.51c-.084.51-.168 1.027-.258 1.538h-.51c-.234-.102-.168-.781-1.027-.51l-.258.51h-1.279v-.258c-.372-.205-.432-.18-1.027-.259v.77c-.258-.085-.51-.169-.768-.259v.258c-.295.295-.103 0-.259.511-.954.27-.69.529-1.279 1.027v.259h-.768v-.77h-.511v.512h-1.279v-.259h-.258c-.168.343-.342.685-.51 1.028l-.511-.259v.259l-.768.51v-.769h-.258v.259l-.769-.259v.259c-.36-.018.102-.217-.258-.259l-1.537.259v.769h-.259v-.259c-.696-.372-1.255.36-1.537.511-.144-.805-.252-1.075-1.027-1.28.144.625.271.565.511 1.028h-.511c-.408.378-1.507.282-2.305.258v-.51h-.511v.51c-.51-.084-1.027-.168-1.537-.258-.126-.607-.24-.607-.51-1.028.348-.3.252.192.51-.258-.336-.21-.3-.18-.51-.51h.51c.054-.608.108-.638.258-1.028-.726-.169-.967-.475-1.279-1.028h.769c.168-.685.342-1.37.51-2.049-.336-.21-.3-.18-.51-.51-.547.312-.559.577-1.279.769v-.51h-.258v.768c-.997.084-1.153.415-1.796.77-.054-.608-.108-.638-.258-1.028-.288.216-.036-.03-.258.258h-.258l.258.259-.258.769c-1.087-.187-1.231-.042-2.564 0l.258.769h-.258c-.211.336-.181.3-.511.51v-1.027c-1.303.072-1.129.457-2.564.51-.192.872-.546 1.184-1.537 1.28v-.51h-.258v.258c-.222.487-.258-.51-.258-.51a35.96 35.96 0 0 1-.769-.259l.258.51h-.51c-.409.38-.631.884-.769 1.539h-.768v-.51c-1.646.06-2.06.936-3.333 1.279.162-.703.336-.583.51-1.28-1.639.36-2.804 1.49-3.843-.258 1.153-.673.547-.956.259-2.049h-1.027c-.216-.288.03-.036-.258-.258.078-.223.492-.565.258-1.028h-.258v-.258h-.769c-.432.709-1.099.517-1.537 1.027l-.258.77h-.769v.258c-.258.084-.51.168-.769.258v-.51c-.798.174-1.165.768-1.795 1.027h-1.027v.258a38.47 38.47 0 0 1-.768-.258v.51l-1.538.259v.258h-1.026c-.084.018-.067.355-.511.259v-.259h-.51v-.258l-1.796-.259c-.186.36-.462.776-.768 1.028v-1.028h-.258v.511a36.524 36.524 0 0 1-.769-.258c-.12.6-.426.793-.51 1.28h.258c.084.258.168.51.258.769-1.459.018-1.609-.27-2.564-.511-.378.697-.787 1.171-1.795 1.28v-.511h-.511v1.027h-.51v.259h-1.796v.258h-.51v.259c-.168-.085-.342-.169-.51-.259v.259h-.259c-.378-.307.217-.187-.258-.511.03.81.499.48-.258.769v-.51c-1.441.173-.829.636-1.537 1.027h-.511c-.084.258-.168.51-.258.769h-1.279v-.259c.637-.468.331-.198.258-1.027h-.51v.769c-2.228.006-2.618.445-4.612.51v-.51c-.342.168-.684.342-1.026.51.084.343.168.686.258 1.028-.667-.042-.877-.054-1.279-.258v-.259l-.769.259c-.042-.006-.09-.36-.51-.259v.259h-.511v.258h-.51v.258c-.354.235-.45.18-1.027.259v-.77h-.258v.26h-1.279c-.174.077-.012.33-.769.51-.084.258-.168.51-.258.769h.258c.379.312-.93.252-1.026.258v-.258c-1.027-.168-2.048-.343-3.075-.51.138-.716.198-.025 0-.77-.276.144-.534.691-1.027.51v-.258h-.258l.258-.51h-.258c-.294-.295 0-.102-.51-.259-.084-.258-.168-.51-.258-.769h.51c-.084-.258-.168-.51-.258-.769h.258v.259c.222.486.258-.511.258-.511h.258v-.258c-.168-.085-.342-.169-.51-.259.084-.258.168-.51.258-.769h-.258v-.258h.769v-.259c-.337-.21-.301-.18-.511-.51.439-.289.348-.163.511-.77l1.026-.258c.03-.018.397-.95.511-.769v.51h.768c.241-.462.355-.402.511-1.027-.349-.3-.39-.468-.511-1.027h.511v-.51h.51v-.259c-.51.084-1.027.168-1.537.258v-.258c-.336.018-.642.439-1.279.258v-.258c-.51-.084-1.027-.168-1.537-.258v1.027h-.511v.51c-.258-.168-.51-.342-.768-.51v-.51l-.258.258c-.295.294-.102 0-.259.51h-1.026v.511c-.511-.084-1.027-.168-1.538-.258-.084.426-.168.853-.258 1.28-.624.144-.564.264-1.027.51v-.258c-.264-.222-.354-.445-.51-.77-.294.295-.102 0-.258.512-.511.084-1.027.168-1.537.258v.51c-.607.055-.637.109-1.027.259v-.51h.258l-.258-.77h-.258v.51c-.168-.083-.343-.167-.511-.258-.294.205-.102.607-.768.511-.084-.168-.169-.342-.259-.51h-.258v.51l-.768.259c-.132-.037-.157-.65-.511-.511-.258.342-.51.685-.768 1.027a36.524 36.524 0 0 1-.769-.258v.51h-.51v.511c-.289-.216-.036.03-.259-.258-.276-.234-.048.042-.258-.258h.258v-.259h-.768v.259h-.258v-.259h-.769c-.084-.168-.168-.342-.258-.51-.168.084-.342.168-.511.258-.348.102.108.276-.258.258v-.258h-.51c-.006.793.072 1.322.258 1.796h-1.027v.511h-.258v-.769H178l-.259.77c-.288-.217-.036.03-.258-.26h-.258l.258-.768c-.258.084-.51.168-.768.258v.258h-.511c-.084.169-.168.343-.258.511h-1.027v.258h-.258c-.126-.114.072-.414-.258-.258l-.258.51-1.279.26v-.512h-.259l-.258.511h-.258l-.258-.51c-.354-.163-.721-.127-1.027-.259-.018.991.042 1.058-.769 1.28v-.51h-.51v.51h-1.279l-.51 1.28h-.511v-.259c-.084-.012-.588.229-1.027.259.144-.625.271-.565.511-1.028h-.511l-.258.77-1.795-.259c-.27.132-.186.577 0 .769h-.511c-.222.264-.444.355-.768.51v-.768c-1.147.096-.745.162-1.796 0v.258c.295.294.102 0 .259.51h-1.279c-.067-.011-.084-.33-.511-.258v.259h-.51c-.084.258-.168.51-.258.769-.289-.216-.036.03-.259-.259-.288-.216-.036.03-.258-.258.336-.21.3-.18.511-.51h-1.027c-.228.27-.451.336-.769.51v.258l-.768-.258v.258c.336.21.3.18.51.511h-.51c-.301-.348-.469-.39-1.027-.51v.51c-.481-.18-1.003-.252-1.796-.258-.282-.535-.414-.457-.51-1.28h-.51v-.51c-.289.216-.036-.03-.259.258h-.258v.51l-.51.259v.769h-.258c-.259-.343-.511-.685-.769-1.028h-.258c-.336-.57.138-.715-.511-1.28.084-.342.169-.684.259-1.027 0 0-.331-.126-.259-.51h.259V22.7s.156 0 .258-.511c.708-.186.57-.072.768-.77h.511v.26l.768-.26v-.51l1.279.259c.187-.71.072-.571.769-.77v-1.027h.258l-.258-.51h.258c.216-.289-.03-.037.258-.259v-.258c.247-.475.259.51.259.51l.768.259v-.259h-.258c.084-.258.168-.51.258-.769h1.537v.259c.601-.084 1.195-.169 1.796-.259v-.51h1.027v-.511c-.877-.012-1.772-.174-2.306-.259-.168.259-.342.511-.511.77l-1.537.258c.144-.625.27-.565.511-1.027h-1.027v.258h.258c.294.402-.631.24-.769.258v.77h-.258v.258a99.84 99.84 0 0 0-1.279.258c.084-.427.168-.853.258-1.28-.624.144-.57.265-1.026.51v.26c-.511-.169-1.027-.343-1.538-.511v.258c-.294.294-.102 0-.258.51-.42.079-1.117.535-1.279.511v-.258h-.768c-.355-.072.096-.336-.259-.258l-.258.51h-.51l.258-.51h-.258c-.294.294 0 .102-.511.258v.51c-.426.085-.852.169-1.279.26-.048-.013-.084-.367-.51-.26v.26h-.51v.257c-.253-.054-.301-.69-.511-.51-.42.348.282.492-.768.769v.769h-.259v-.51h-.258c-.084.167-.168.342-.258.51h-1.027c-.306-.559-.564-.847-1.279-1.028v.259h-1.027l-.258.51-.768-.258v.77h-.511c-.63 1.075-.57.3-1.279.768.084.169.168.343.258.511-.51-.084-1.026-.168-1.537-.258-.024.006-.132.444-.51.51v-.258h-1.027l-.258-.258v.258c-.727.469-.751.739-2.048.769-.288-.439-.162-.348-.768-.51v.51h-.511V22.7c-.324-.102-.672.727-.768.769-.529.234-.733-.223-1.027-.259v.259c-.511.084-1.027.168-1.537.258l-.259-.769c-.708.186-.57.072-.768.77-.769.083-1.537.167-2.306.258l-.258.51h-1.796v.259c-.666.198-1.195.024-1.795.258-.144-.625-.27-.565-.51-1.027-.289.216-.036-.03-.259.258-.9.637-.06.913-1.279 1.28v.258h-1.279l-.258.51c-.57.229-.72-.318-1.027-.258v.259c-.51.102-.324-.114-.51-.259h-.258v.511a38.568 38.568 0 0 1-.769-.258v-.259l-.768.259v-.259h-1.027l-.258-.51c-.361 0-.121-.078-.259.258-.318-.294-.096 0-.258-.51h1.027v-.511h-1.027c-.24-.463-.354-.403-.51-1.028h.51c-.15-1.057-.276-1.226-.768-2.307-.337.132.072.102-.259.258h-.768v.259c.516.144.222-.03.51.258-.732-.024-1.099-.048-1.537-.258v.258c.294.294.102 0 .258.51-1.255 0-1.459.295-2.306.511v-.769h-.258v.259h-.258l-.51-.259v.77h-.769v-.511h-.258v.51h.258v.77c-.853-.006-1.159-.133-1.795-.259v.51c-.607-.03-.649-.077-1.027-.258v.259c-.294.294-.102 0-.258.51-1.352-.15-.589-.552-1.796-.258v-.51c-.408-.06-.324.438-.51.51-.961.36-1.754.144-2.564 0v.77l-.51-.26v.26c-.517.438.023.39-.259.768h-.258c-.618-.925-2.396-.156-3.585 0v.77c-.48-.133-1.399-.92-1.795-.77v.259h-.258v.769c-.769.084-1.538.168-2.306.258v.51h.258c-.084.26-.168.512-.258.77-.607-.03-.649-.078-1.027-.258v.258h-.258v-.77h-.51v.77h-.259v-.258h-1.027v.258l-.51-.258v.258c-.564.174-.847.078-1.279.258v.77c-1.279.191-1.267.228-2.306-.511l-.258.769h-1.027v.258c-.342.084-.684.168-1.027.258v-.51h-.51c-.156.9-.276 1.177-1.279 1.28v-.259c.294-.294.102 0 .258-.51-.342-.085-.684-.169-1.026-.259v-.258c-.487-.15-.355.144-.511.258l-.769-.258v.258h.259v1.027h-.51v-.51c-.703.408-.463.63-1.538.769-.186.709-.072.57-.769.769-.69.817-1.495.619-2.564.51v-.51h1.027c-.084-.259-.168-.51-.258-.77-.39.151-.42.2-1.027.26-.042-.698-.084-1.545-.51-1.797v-.259c.186-.27.198.223.51-.258h-.51c-.457-.27.51-.258.51-.258-.144-.625-.27-.565-.51-1.028h.768c.21.337.18.3.51.51-.624-1.345-.942-2.589 1.28-2.565.294.295 0 .102.51.259.084-.427.168-.854.258-1.28h-.51v.51h-.51l.258-.768h-.258c-.192.486.18.264-.258.51-.337-.3.306-.39-.259-.51v.51l-.51-.258v.258h.258c-.168.343-.342.685-.51 1.028h-.259v-.77h-.258v.259h-.768c-.169.258-.343.51-.51.769h-.511v.258H66v.259h-.51v.258c-1.033.367-1.807-.354-2.306 0-.697.45-.81 1.418-1.027 1.538h-2.305c-.295-.294 0-.102-.511-.258v-.51h-.258c.084.342.168.684.258 1.027h-.258c-.486.42-1.357.27-2.048.51v.259c-.378.12-1.002-.277-1.026-.259v.511h-1.28c-.258.6-.51 1.196-.768 1.797h-.258v-.77h-.51c-.055.607-.109.637-.259 1.028-.288-.217-.036.03-.258-.259-.294-.294-.102 0-.258-.51.438-.289.348-.162.51-.77h-.769v1.539a85.203 85.203 0 0 1-1.279-.259v-.258c.295-.294.102 0 .259-.51h-.51l.258-.511h-.259c-.294.294 0 .102-.51.258-.066.499-.252.499-.258.51-.409 1.263.228 1.641-1.28 1.797v-.51c-.354.126-.564.102-1.026.258v.258c-.258-.084-.51-.168-.769-.258v.258h-.51l.258.511h-1.537v.258c.294.295.102 0 .258.511-.414-.018-1.795-.258-1.795-.258-.084.168-.168.342-.259.51-.696.379-.816.066-1.279 0v.259h-.51l-.258.51c-.426.085-.853.169-1.28.259v.258a64.226 64.226 0 0 1-1.026-.258c-.426.084-.853.168-1.279.258v.259c-.763.216-1.039-.409-1.537-.511v.258c-.294.295-.102 0-.258.51h-1.027l-.258-.257c-.132.06-.072.456-.51.51v-.258l-.77-.258v.258c-.258.084-.51.168-.768.258v-.51c-.462.24-.402.354-1.027.51v.511h-.258v-.77c-1.441-.017-2.54-.612-3.074-1.537l.51-.259c.018-.36-.252.109-.258-.258.084-.426.168-.853.258-1.28h.51c-.564-1.598.631-2.487.77-4.103a15.425 15.425 0 0 1 2.815-.259v-.769h.769c.174-.75.282-.841 1.027-1.027v-.511c1.495-.343.144-.649 1.537 0v-.51c.57-.109.877-.247 1.279-.511v-.259c.51-.048.18.39.51 0 .294-.294.102 0 .258-.51h.51c.295-1.04.523-.511 1.028-1.28.51.168 1.026.342 1.537.51v-.258h.258v-1.027c-1.471.03-1.88.21-3.074 0-.145.805-.253 1.075-1.027 1.28v-.511h-.51v.769c-.523.276-1.01.757-1.796.769l-.258-.258c-.925.697.084 1.195-1.796 1.28l.259-1.028h-.51v.258h.257c.018.09-.438.926-.51 1.28h-.51v-.51h-.51v.51l-.259-.258c-.51.168-1.027.342-1.537.51-.084.169-.168.343-.258.511-.337.144.054-.192-.258-.258-.259.084-.51.168-.77.258v-.258h-.768v-.259h-.258v.259s-.708-.235-1.027-.259c-.168.427-.342.853-.51 1.28-.222-.078-.564-.492-1.027-.258v.258h-.258v.77h-.258v-.77h-.258V29.1c.041.361.27-.108.258.259l-.258.258c-.445-.222-.09-.03-.259-.51h-.258v.51l-1.279.259.258-.511h-.258c-.396.445-.462.252-1.027.51v.259c-.378.144-.978.066-1.026-.258h-.259v.769h-.258v-.259h-.258v.511h-.51v.51c-.65-.203-1.586-.017-2.817 0-.084.602-.168 1.196-.258 1.797h-.51v-.51c-.39.15-.42.198-1.027.258v.769c-.51.168-1.027.342-1.537.51v.26h-.51v.257c-1.256.475-1.55-.396-2.307.77H9.61l.258.258c-.084.258-.168.51-.258.769-.342-.084-.684-.168-1.027-.258v.769c-.906.096-.78.318-1.537.51v-.51h-.258v.769c-.51.084-1.027.168-1.537.258l-.258.77h-.51c-.085.258-.169.51-.259.768h-.258v-.769h-.258l-.258.51-.77-.258v-.258c-.498-.126-.341.144-.51.258l-1.026-.258.258-.258v-.259h-.258v-.769h.258v-.258h-.51c-.006-.853-.133-1.16-.259-1.797h-.51c-.456-.27.51-.258.51-.258.084-.258.168-.51.259-.769 1.32.06 1.266.487 1.278-1.027.427-.085.853-.169 1.28-.259v-1.027l.768-.259c.294-.294 0-.102.51-.258v.51h.51v-.51c.26.084.511.168.77.258v-.51h-.259l.259-.77h.258v-.258h.768c-.006-.36.054-.072-.258-.258v-.258h.769v-.259h.258l.258.51c.853.17 1.705.343 2.564.512.024-.962.234-1.178.51-1.797.259.084.51.168.769.259v-.511h.769l-.258.51h.258v-.258h.51c.282-.222.114-.619.51-.769.229.228.097.433.51.51.169-.258.343-.51.511-.768h.769v-.259h.258v-1.027h.51v.51c1.093-.101 1.16-.528 2.048-.768.204-.83.474-.884.51-2.05h2.306v.26l.769-.26v-.258c.384-.102.348.457.51.511l.769-.258v.51h.258v-.51c.288-.216.036.03.258-.259l-.51.259v-1.028h.258v-1.027h1.279l-.258.769h.768c.409-.499.931-.685 1.28-1.28.264.223.354.445.51.77.258-.169.51-.343.768-.511v-.259h.51l.259-.51c.168.084.342.168.51.258.343-.259-.312-.433.259-.51v.258c.258.084.51.168.768.258v-.51c-.294-.295-.102 0-.258-.511.66.12 1.135.246 2.048.258.366-.547.672-.517 1.279-.77l-.258-.768h1.026v-.259h.258v.259h.51v-.511c1.454-.042.956-.397 1.796-.77h1.027v-.258c.294-.294.102 0 .258-.51h.769v.51h.51c.21-.823.3-.745 1.28-.769v.511c.6-.276.834-.589 1.536-.769v-.769h.51v-.51c1.352.005 2.024-.301 3.075-.511.186.709.072.57.769.769a33.159 33.159 0 0 0-.259-.77h.259c.282-.36.894-.75 1.279-1.027v-.258h.768v.258h.259v.77h.258c.084-1.022.264-1.184 1.279-1.28v.258c.342.12-.096-.162.258-.258 1.027-.169 2.048-.343 3.074-.511-.258-.8-.144-.39 0-1.28.625-.144.565-.264 1.027-.51v.258h.258c.205.378-.258.51-.258.51l.258.511c.589-.493.325-.769 1.28-1.027.084-.259.168-.511.258-.77.732.301 1.207.487 2.305.511.259-.51.51-1.027.77-1.538h.51l.258.51 1.795-.51V9.08h1.796l.258-.51h.51c.162-.704.336-.584.51-1.28.343.083.685.168 1.027.258v-.259c.282-.228.054.042.258-.258h-.258c-.252-.427.367-.216.51-.258v-.259c.259.084.511.169.77.259-.085.168-.169.342-.26.51h.26c.804-.925 1.506 0 2.563.259.174-.337.318-.277.51-.511l-.258-.51h.51v-.26l.511-.257c.036-.36-.054.042-.258-.259l.258-.51c.865.18.985.558 1.796.769v-.77c.702.163.582.337 1.279.511v-.769c.282.084.504.457 1.026.258v-.258h.769v-.258c.51-.427 1.027-.853 1.537-1.28v-.51h.51v.258c.355.072-.047-.054.259-.259l.51.259-.258.769c1.43.108 2.156.456 3.074-.511-.504-.288-.6-.36-.768-1.027l.768-.259c.084.168.169.343.259.51h.51V1.642c.558.109.733.169 1.027.511l1.537-.51-.258-.511h1.279V.62l.126.06Zm-2.558 3.846v.51h.258v-.51h-.258Zm228.268.51v.51h.258v-.51h-.258Zm-227.5.77v.51h.259v-.51h-.259Zm-3.584.51v.51h.258v-.51h-.258Zm224.677.77c.294.293 0 .101.51.257-.294-.294 0-.102-.51-.258Zm-20.236.257c.294.295 0 .103.511.259-.295-.295 0-.102-.511-.259Zm-215.97.77c.024.87 0 .93.51 1.28v-.26H69.4V8.107h-.258l.006.006Zm212.127.258c.294.294 0 .102.511.258-.295-.294 0-.102-.511-.258Zm-27.928.252v.51h.259v-.51h-.259Zm17.936.259-.258.51s.745-.408.511-.51h-.259.006Zm26.385 0h.51c-.216.288.03.036-.258.258v.258c-.294-.294-.102 0-.258-.51l.006-.006Zm-226.73.258c.293.294 0 .102.51.258-.295-.294 0-.102-.51-.258Zm143.727.252v.511h.258v-.51h-.258ZM73.758 10.42v.258H73.5c-.486.222.51.258.51.258.217-.288-.03-.036.259-.258-.294-.294 0-.102-.51-.258Zm196.756 0v.258h-.258c-.487.222.51.258.51.258.216-.288-.03-.036.258-.258-.294-.294 0-.102-.51-.258Zm65.583 0v.258h-.258c-.487.222.51.258.51.258.216-.288-.03-.036.258-.258-.294-.294 0-.102-.51-.258Zm-171.65.258v.51h.258v-.51h-.258Zm-63.277.252v.511h.258v-.51h-.258Zm65.583 0v.511h.258v-.51h-.258Zm47.395 0c.432.553.51.511.51.511.186-.246-.444-.45-.51-.51Zm65.589 0c.432.553.51.511.51.511.187-.246-.444-.45-.51-.51Zm18.188 0v.511h.258v-.51h-.258Zm47.395 0c.432.553.511.511.511.511.186-.246-.445-.45-.511-.51Zm-281.301.517h-.51v.259h.258v.258h.258v-.51l-.006-.007Zm3.332 1.538h.51a65.659 65.659 0 0 0-.258-1.027h-.258v1.027h.006Zm196.756 0h.51l-.258-1.027h-.258v1.027h.006Zm65.583 0h.51l-.258-1.027h-.258v1.027h.006ZM64.535 12.47v1.027h.258V12.47h-.258Zm65.583 0v1.027h.258V12.47h-.258Zm131.173 0v1.027h.258V12.47h-.258Zm37.913.516v.77h.258a2.533 2.533 0 0 1 1.027-1.028v-.258h-.51c-.289.438-.162.348-.769.51l-.006.006Zm27.67-.516v1.027h.258V12.47h-.258Zm-146.797.258v.51h.258v-.51h-.258Zm65.583.51h.511v-.258c-.288-.216-.036.03-.258-.258h-.259v.51l.006.007Zm-143.211-.252v.77h.258v-.77h-.258Zm65.583 0v.77h.258v-.77h-.258Zm112.215 1.022c.187.709.072.57.769.769.162-.703.336-.583.51-1.28h-.258c-.324.487-.258.426-1.027.51h.006Zm2.306-.511v.51c.673-.017.871-.101 1.279-.258v-.258h-1.279v.006Zm-135.267.258v.77h.258v-.259c.288-.216.036.03.258-.258l-.51-.259-.006.006Zm65.583 0v.77h.258v-.259c.288-.216.036.03.258-.258l-.51-.259-.006.006Zm65.583 0v.77h.258v-.259c.288-.216.036.03.258-.258l-.51-.259-.006.006Zm65.589 0v.77h.258v-.259c.289-.216.036.03.258-.258l-.51-.259-.006.006Zm-164.222.253v.51h.258v-.51h-.258Zm118.875 0c.432.552.51.51.51.51.186-.246-.444-.45-.51-.51Zm-135.526.516v.77h-.51v.51l.51-.258.258-.77c.288-.216.036.03.258-.258h-.51l-.006.006Zm10.76 0v.511h.259v-.51h-.259Zm65.584 0v.511h.258v-.51h-.258Zm40.225.511h-.769v.51h.511c.24-.462.354-.402.51-1.027h-.258v.511l.006.006Zm25.358-.51v.51h.258v-.51h-.258Zm-163.19 1.02v-.51c-.288.216-.036-.03-.258.258h-.258c.294.295 0 .103.51.259l.006-.006Zm64.815-.51v.77h.258c.294-.295 0-.103.511-.26v-.51h-.769Zm36.376.51v-.51h-.768v.258h.258c.294.295 0 .103.51.259v-.006Zm29.976 0v-.51c-.288.216-.036-.03-.258.258h-.259c.295.295 0 .103.511.259l.006-.006Zm20.242-.51v.51c.288-.216.036.03.258-.258h.258c-.294-.294 0-.102-.51-.258l-.006.006Zm36.376.258v.511h.258v-.51h-.258Zm-169.596 1.022h.51c-.216-.288.03-.036-.258-.259v-.51h-.258v.769h.006Zm-72.249-.51v.51h.258v-.51h-.258Zm65.59 0v.768h.258v-.769h-.258Zm131.166 0v.51h.258v-.51h-.258Zm49.959 0c.294.293.102 0 .258.51h-.258v-.51Zm15.63 0v.51h.258v-.51h-.258Zm-298.21.257v.511h.258v-.51h-.259Zm65.582 0v.511h.259v-.51h-.259Zm131.173 0v.511h.258v-.51h-.258Zm65.583 0v.511h.258v-.51h-.258Zm-180.867.253c.024.054.366.931.51.769v-.258h.259c-.223-.265-.445-.355-.769-.511Zm66.093 1.286h.511v-.511h-.511l.259-.51a36.524 36.524 0 0 1-.769-.26v.26c.348.3.39.468.51 1.027V17.6Zm-67.63-1.028.258.77h.258c-.156-.614-.084-.475-.51-.77h-.006Zm65.583 0c.084.259.168.51.258.77h.258c-.156-.614-.084-.475-.51-.77h-.006Zm4.87 0h-.511c.216.289-.03.036.258.259v.258h.259v-.51l-.006-.007ZM303.563 17.6h.511v-.511h.258c-.084-.168-.168-.343-.258-.51-.288.215-.036-.03-.258.258h-.259v.769l.006-.006Zm-213.922-.77c.294.295 0 .103.51.259-.294-.294 0-.102-.51-.258Zm43.552 0v.77h.258v-.77h-.258Zm65.583 0v.77h.258v-.77h-.258Zm4.87 0h-.511c.216.289-.03.037.258.259v.258h.259v-.51l-.006-.006Zm29.717 0v.77h.258v-.77h-.258Zm65.589 0v.77h.258v-.77h-.258Zm-259.27.253v.51h.258v-.51h-.258Zm12.04 0v.51h.257v-.51h-.258Zm65.588 0v.51h.258v-.51h-.258Zm17.162.517v-.511c-.289.216-.036-.03-.258.258h-.259c.294.295 0 .102.511.259l.006-.006Zm48.421-.517v.51h.259v-.51h-.259Zm19.726 0v1.538h.258v-1.538h-.258Zm32.791 0v.51h.259v-.51h-.259Zm1.027 0v.51h.258v-.51h-.258Zm12.04 0v.51h.258v-.51h-.258Zm52.523 0v.51h.258v-.51H301Zm1.026 0v.51h.259v-.51h-.259Zm12.04 0v.51h.258v-.51h-.258ZM45.32 17.34c.294.295 0 .102.51.259-.294-.295 0-.103-.51-.259Zm65.583 0c.295.295 0 .102.511.259-.295-.295 0-.103-.511-.259Zm196.756 0c.294.295 0 .102.51.259-.294-.295 0-.103-.51-.259Zm-178.568.511.259.769h.258c-.156-.613-.084-.475-.51-.769h-.007Zm65.59 0c.084.258.168.51.258.769h.258c-.156-.613-.084-.475-.51-.769h-.006Zm16.651.258v.511h.258v-.51h-.258ZM49.415 19.39c-.186-.709-.072-.57-.768-.769.084.343.168.685.258 1.027h.769v.259c.36.048-.097-.18.258-.259h1.026v-1.027c-.288-.216-.035.03-.258-.258h-.51v.258h.258c.084.463-.636.673-1.027.77h-.006Zm33.308-1.021-.258.51s.745-.408.51-.51h-.258.006Zm196.756 0-.258.51s.744-.408.51-.51h-.258.006Zm-240.566 1.28h.51v-.259c-.288-.216-.035.03-.258-.258h-.258v.51l.006.006Zm8.965-.511v.51c.288-.216.036.03.258-.258h.258c-.294-.294 0-.102-.51-.258l-.006.006Zm56.618.51h.511v-.258c-.289-.216-.036.03-.259-.258h-.258v.51l.006.006Zm8.971-.51v.51c.289-.216.036.03.258-.258h.259c-.295-.294 0-.102-.511-.258l-.006.006Zm65.583 0v.51c.289-.216.036.03.259-.258h.258c-.294-.294 0-.102-.511-.258l-.006.006Zm122.208.51h.51v-.258c-.288-.216-.036.03-.258-.258h-.258v.51l.006.006Zm8.965-.51v.51c.288-.216.036.03.258-.258h.258c-.294-.294 0-.102-.51-.258l-.006.006Zm-266.44 1.538v-.51l-.769.258.258 1.027h-.258v.258c-.6.084-1.195.169-1.795.259v.51c.336.048 1.591.313 1.795.259l.258-.511.77.258a94.7 94.7 0 0 1 .257-1.28h.259c.294-.294 0-.102.51-.258v.511h1.279v-.51h.51c-.168-.511-.342-1.028-.51-1.539h-.258l-.258.77c-.367.258-1.478.462-2.048.51v-.012ZM72.73 19.39v.77h.259v-.77h-.258Zm-34.328.517v.51h.258v-.51h-.258Zm39.967 0v.51h.258v-.51h-.258Zm25.616 0v.51h.258v-.51h-.258Zm65.583 0v.51h.258v-.51h-.258Zm76.091 0c.295.294 0 .102.511.258-.294-.294 0-.102-.511-.258Zm29.465 0v.51h.259v-.51h-.259Zm25.616 0v.51h.26v-.51h-.259Zm-232.88.252c.295.294.103 0 .259.51h-.258v-.51Zm65.332.259c.288.438.162.348.768.51-.222-.264-.444-.354-.768-.51Zm29.206.51h.511v-.258c-.288-.216-.036.03-.258-.259h-.259v.511l.006.006Zm-95.048-.252h.51v.258c-.516-.144-.222.03-.51-.258Zm71.48 0c.294.294.102 0 .258.51h-.258v-.51Zm68.916 1.021h-.511V20.67h-.258v.258c-.294.295-.102 0-.258.51.258.17.51.343.769.512.216.288-.03.036.258.258v-.51Zm-71.222-.769v.51h.258v-.51h-.258Zm-84.035.517v.51h.258v-.51h-.258Zm65.589 0v.51h.258v-.51h-.258Zm56.618.252c.294.295 0 .102.51.259-.294-.295 0-.102-.51-.259Zm-90.953.77v-.511c-.288.216-.036-.03-.258.258h-.258c.294.294 0 .102.51.258l.006-.006Zm131.172 0v-.511c-.288.216-.036-.03-.258.258h-.258c.294.294 0 .102.51.258l.006-.006Zm-153.972.516v.51h.258v-.51h-.258Zm5.128 0v.51h.258v-.51h-.258Zm-19.215.252v.511h.259v-.51h-.259Zm20.494.517c-.012 1.04-.12 1.106.51 1.538v-.258c-.432-.553.199-1.238.511-1.797h-.258c-.288.44-.162.349-.769.511l.006.006Zm4.612-.517c.294.295 0 .103.51.259-.294-.295 0-.102-.51-.259Zm13.318 0a38.64 38.64 0 0 1-.258.77h.258v-.259c.108-.15.42-.036.258-.51h-.258Zm27.16 0v.511h.258v-.51h-.258Zm86.083.517c-.012 1.04-.12 1.106.51 1.538v-.258c-.432-.553.198-1.238.51-1.797h-.258c-.288.44-.162.349-.768.511l.006.006Zm4.611-.517c.294.295 0 .103.511.259-.295-.295 0-.102-.511-.259Zm-114.521.259v.51h.258v-.51h-.258Zm28.696.51h.511v-.258c-.289-.216-.036.03-.259-.258h-.258v.51l.006.006Zm36.893-.51v.51h.258v-.51h-.258Zm22.8 0c.294.294.102 0 .258.51h-.258v-.51Zm-56.366.258c-.084.168-.168.343-.258.51l.51.26c.186-.307-.54-.223 0-.77h-.258.006Zm-31.513.253-.258.769h.258v-.511h.258v-.259h-.258Zm65.589 0-.258.51s.745-.408.511-.51h-.259.006ZM20.208 25.032h.511v-.258c-.288-.217-.036.03-.258-.259h-.258v.51l.006.007Zm144.239 0h-.51c.216.288-.03.036.258.258v.259h.258v-.511l-.006-.006Zm-135.526.51v.511h.259v-.51h-.259Zm36.893 0v1.028h.258v-.258h.258c-.084-.169-.168-.343-.258-.511h.258c-.294-.294 0-.102-.51-.258h-.006Zm94.28 0v.511h.258v-.51h-.258Zm38.682 0c-.294.295 0 .103-.511.259v.258h.511c.084-.168.168-.342.258-.51h-.258v-.006Zm-119.385.77-.259.51s.745-.408.51-.51h-.257.006Zm-9.734.516v.511h.258v-.51h-.258Zm5.639 0v.511h.258v-.51h-.258Zm-12.046.511h.51c-.21.337-.18.3-.51.51v.26h-.258l.258-.77Zm8.971 0-.258.51s.745-.408.51-.51h-.258.006ZM52.49 28.366v.511h.258v-.51h-.258Zm-19.726 1.28v.511h.259v-.51h-.259Zm5.639.259v.769h1.026v.51h.77c.21-.336.18-.3.51-.51v-.77c-1.07.187-1.075.067-2.306 0Zm-20.752.51c.294.295 0 .102.51.259-.294-.295 0-.102-.51-.259Zm53.033.259v.51h.258v-.51h-.258ZM7.142 34.77a38.64 38.64 0 0 1-.258.77h.258v-.511H7.4v-.259h-.258Zm33.05.259v.51h.258v-.51h-.258Z" fill="#FDE6AD"/></svg>