<svg width="27" height="25" fill="none" xmlns="http://www.w3.org/2000/svg"><g clip-path="url(#a)"><path d="M14.811 22.635c0-1.926-.454-8.077 0-9.165.456-1.088 2.331-1.589 4.061-2.008 1.73-.418 6.92-2.26 7.467-5.104.546-2.845-5.19-4.77-9.288-1.255-4.097 3.513-3.277 7.196-3.733 7.196-.455 0 .365-3.683-3.733-7.196C5.487 1.588-.25 3.513.298 6.358c.545 2.845 5.736 4.686 7.465 5.104 1.73.42 3.605.837 4.061 1.925.455 1.088 0 7.322 0 9.248h2.987Z" fill="#0D8352"/></g><defs><clipPath id="a"><path fill="#fff" transform="translate(.261 .919)" d="M0 0h26.113v24H0z"/></clipPath></defs></svg>