<svg width="146" height="151" fill="none" xmlns="http://www.w3.org/2000/svg"><path d="M58.307 126.664c-.574-.428-.97-.908-1.106-1.67-.323-1.69-.24-4.57-2.275-7.513-2.035-2.942-1.7-2.535-3.62-5.092-1.92-2.556-2.4-4.341-2.703-7.314-.303-2.985-1.41-5.624-3.757-7.993-2.348-2.369-4.247-2.16-7.701-1.346-3.455.814-2.4 3.902-1.69 7.972.396 2.629.803 4.904 3.036 7.137 2.233 2.233 3.976 5.061 4.643 6.626 1.044 2.452 4.404 6.626 5.594 7.753 1.294 1.21 3.464 3.61 2.984 5.634a3.952 3.952 0 0 1-.313.877c3.141.271 5.854-1.993 6.908-5.051v-.02Z" fill="#FFDBB0"/><path d="M58.306 126.664c-1.064 3.067-3.767 5.321-6.908 5.05-.512.97-1.2.897-1.294 3.6-.146 4.341 3.475 3.975 6.345 1.367 2.003-1.826 6.094-7.367 3.662-8.89-.699-.439-1.304-.762-1.794-1.138l-.011.011Zm-38.16 4.225c-1.544 1.147-1.847-.261-3.882 2.201-2.671 3.256.439 5.75 4.248 5.927 2.67.125 9.193-1.043 8.15-4.09-.439-1.273-.856-2.244-.908-3.131-2.755 1.117-5.187.491-7.618-.907h.01Z" fill="#003F67"/><path d="M34.577 99.387c-.48-3.641-10.102-1.878-11.928 4.978-.897 3.36-1.409 7.012-1.795 8.744-.616 2.713.282 7.502.532 10.872.136 1.837.387 5.677-1.2 6.877-.01 0-.02.021-.041.031 2.431 1.398 4.852 2.024 7.617.908a2.65 2.65 0 0 1 .24-1.273c.741-1.565 2.505-3.725 2.61-7.576.104-3.85.135-3.266.114-6.73-.02-3.454.637-5.207 2.15-7.753 1.513-2.546 2.191-5.446 1.711-9.088l-.01.01Z" fill="#FFDBB0"/><path d="M22.546 72.696c2.202-1.18 10.07-.272 14.682-.365 4.477-.094 6.648.845 11.605.125 3.882-.564 2.441 3.683 6 12.865 2.358 6.063 9.13 14.922 6.678 16.696-2.452 1.773-8.306 3.902-11.405 2.733-3.1-1.168-4.091-1.513-7.973-.031-3.381 1.294-8.724-.835-13.002-1.617-3.57-.647-5.875-.574-8.756-.157-5.52.814-9.454-1.346-10.289-2.16-1.22-1.179-.72-6.365 4.498-12.594 5.218-6.23 5.155-13.001 7.962-15.506v.01Z" fill="#A2A2A2"/><path d="M23.232 32.106c-.782-1.712-8.17-10.236-8.118-11.071.052-.845.156-4.007-.387-5.103-.95-1.91-2.16.501-3.015.053-.856-.45-2.202-2.244-3.173-2.661-.97-.428-1.19.908-1.732 1.68-.543.772-1.816-.908-2.327-.021-.344.605.177 2.18-.835 2.546-1.002.365-1.127.699-.71 1.722.418 1.022 1.013 1.387.773 2.295-.24.908 0 1.085.647 1.649.647.563 2.911 1.043 4.82 1.596 1.91.553 3.684 7.503 7.535 12.459 1.263 1.617 8.119-1.586 6.501-5.134l.021-.01Zm32.004 2.682c1.43-1.221 12.178-6.417 12.48-7.2.314-.783 1.545-3.704 2.505-4.466 1.67-1.325 1.754 1.367 2.714 1.315.96-.052 2.942-1.106 3.996-1.075 1.054.02.7 1.325.866 2.254.167.929 2.035-.052 2.119.96.062.699-1.075 1.91-.324 2.66.762.752.72 1.117-.083 1.858-.804.751-1.503.824-1.67 1.753-.167.918-.459.98-1.283 1.22-.825.24-3.079-.281-5.04-.584-1.963-.302-8.203 6.334-13.786 9.193-1.826.94-5.447-5.363-2.494-7.888Z" fill="#FFDBB0"/><path d="M50.71 53.716c-.637-3.12 4.403-5.75 10.758-10.289 2.807-2.003 1.18-4.382-.27-6.187-3.34-4.174-3.643-5.77-6.283-3.903-1.847 1.304-3.788 2.045-7.618 2.849-4.226.887-5.583.376-10.132 0-2.17-.178-8.944-.418-12.325-4.529-1.92-2.337-1.617-3.161-5.342-1.137-3.83 2.076-6.283 3.558-6.366 4.215-.23 1.785 1.304 3.141 3.694 6.553 3.809 5.437 5.01 6.511 4.686 9.59-.199 1.878-.47 5.144-2.077 12.26-1.638 7.262-1.127 10.35 2.077 11.113 6.71 1.575 29.949 1.45 31.535-.574 3.444-3.61-1.46-15.631-2.337-19.95v-.011Z" fill="#EE8084"/><path d="M44.53 34.465c-2.598 2.796-5.958 3.766-8.515 3.276-2.557-.5-4.8-1.732-6.72-3.527-1.472-1.753-2.359-4.174-2.463-5.165-.094-.908.042-1.93.355-2.88.73-2.201-.94-2.494 1.649-6.73.782-1.284 5.207-7.033 12.167-6.041 6.115.866 8.964 15.213 3.527 21.056v.01Z" fill="#FFDBB0"/><path d="M27.42 17.018c.365-.96 2.326-3.005 4.612-3.453 2.817-.553 3.172-2.421 6.115-2.41 4.101.02 7.785 1.69 9.006 2.775 2.608 2.316 2.65 4.226 3.454 5.958 1.45 3.13.74 9.495-4.55 14.024-.94.803-1.169 1.92-1.743-.397-.459-2.817 1.169-2.775 2.108-3.892.97-1.148.282-3.704-1.42-2.921-1.408.647-8.556-5.426-9.767-7.127-1.607-2.264-9.37 6.761-7.795-2.556h-.02Z" fill="#003F67"/><path d="M7.36 21.662c-.533.542-1.357.605-1.816.146l-.97-.96c-.46-.46-.397-1.273.135-1.816l8.755-8.796c.532-.543 1.357-.605 1.816-.146l.97.96c.46.459.397 1.273-.135 1.815l-8.756 8.797Z" fill="#E2C2BC"/><path d="M24.362 6.531c-1.096 3.934-6.397 12-9.329 9.089l-4.33-4.31C7.78 8.4 15.815 3.057 19.75 1.94l3.433-.98c.449-.126.98.052 1.294.365l.47.47c.313.312.5.844.375 1.293l-.96 3.433v.01ZM6.734 21.682l-2.035-2.024a1.392 1.392 0 0 0-1.951 0L1.245 21.17a1.392 1.392 0 0 0 0 1.951l2.035 2.024a1.39 1.39 0 0 0 1.951 0l1.503-1.513a1.392 1.392 0 0 0 0-1.95Zm-1.983 2.39a.84.84 0 0 1-1.19 0L2.32 22.83a.84.84 0 0 1 0-1.19l.918-.918a.84.84 0 0 1 1.19 0l1.241 1.242a.84.84 0 0 1 0 1.19l-.918.918Z" fill="#E2C2BC"/><path d="M15.531 12.406c.877-.876 1.222-1.95.773-2.39-.449-.437-1.513-.093-2.39.794a3.825 3.825 0 0 0-.386.449l-1.44 1.45 1.544 1.544 1.44-1.45a4.98 4.98 0 0 0 .45-.386l.01-.01Z" fill="#E2E5D8"/><path d="M48.645 18.5c.522-.856 1.263-2.63 1.983-3.34.72-.709 1.492-1.492 2.577-1.7 1.691-.324 2.568-.22 3.434.313.772.48 1.878 2.681 1.857 4.215.209 2.004 1.565 2.63 2.473 3.047 1.294.595 3.559.24 3.287 1.2-.782 2.786-2.337 3.204-3.986 2.932-5.29-.876-2.337-5.75-5.572-6.448-3.235-.7-3.496-.24-6.063-.22h.01Z" fill="#003F67"/><path d="M109.485 138.026c2.139.814 4.998 2.024 6.376 2.233 1.377.219.824.219-.365 1.941-.334.49-.856 1.471-.95 2.661-.094 1.189-2.411.876-5.061.334-2.661-.543-4.842-2.327-3.82-2.839 1.013-.511 1.67-.751 2.432-2.149.793-1.44.198-2.63 1.388-2.17v-.011Z" fill="#A2A2A2"/><path d="M114.804 144.287c.021-.449-4.341 1.617-7.555-.188-1.67-.939-1.19-1.993-1.43-1.93-1.085.292-1.701.292-3.433 1.68-3.464 2.754-.678 5.342 3.235 5.759 2.745.293 9.747-.333 9.256-3.213-.135-.825-.094-1.492-.073-2.108Z" fill="#003F67"/><path d="M114.282 89.381c3.433-1.053 8.891.574 13.399 1.221 4.351.616 4.633 1.91 4.174 6.094-.668 6.135.501 11.551-3.6 16.539-1.983 2.42-4.842 2.723-7.075 12.01-.804 3.349-1.441 17.999-5.312 17.237-3.235-.636-6.219-.553-8.995-.814-2.432-.229.563-13.408.762-17.143.365-6.741 1.669-14.16 2.254-19.607 1.074-9.86 1.074-14.525 4.393-15.537Z" fill="#E2C2BC"/><path d="M108.03 63.973c-1.878.428-9.058 4.831-9.893 4.612-.835-.219-2.619-.438-4.132.407-1.492.835-.992 1.826-1.92 2.66-1.117 1.003-1.764 3.152-1.106 3.851.657.7-.45 1.388.334 2.077.532.47 1.231.041 1.388 1.127.156 1.074.761 1.69 1.867 1.481 1.106-.208.877-.532 1.733-.115.855.418 1.085.22 1.784-.313.7-.532 1.639-2.692 2.588-4.486.95-1.785 6.94-.146 11.969-4.08 3.068-2.4-.73-8.108-4.612-7.231v.01Z" fill="#FFDBB0"/><path d="M126.148 67.656c-1.857 3.057-5.165 3.287-9.798 4.622-4.634 1.336-5.312 1.628-6.366-.72-1.336-2.984-1.711-5.624-2.275-7.44-.991-3.182 1.033-3.797 3.35-4.423 3.924-1.075 3.851-3.162 4.915-4.372 3.245-3.694 11.385 10.361 10.185 12.333h-.011Zm8.733 70.517c2.181-.72 5.144-1.586 6.355-2.296 1.2-.709.782-.355.939 1.732.052.595.261 1.68.95 2.661.678.981-1.315 2.202-3.715 3.454-2.4 1.252-5.218 1.252-4.759.209.459-1.033.814-1.639.532-3.204-.292-1.617-1.513-2.16-.302-2.567v.011Z" fill="#A2A2A2"/><path d="M142.971 139.665c-.272-.355-2.338 3.996-5.98 4.633-1.878.323-2.181-.793-2.327-.595-.658.908-1.127 1.305-1.597 3.475-.939 4.32 2.849 4.57 6.147 2.421 2.316-1.503 7.336-6.418 5.144-8.337-.626-.554-1.012-1.096-1.387-1.597Z" fill="#003F67"/><path d="M115.575 92.345c2.849-2.567 8.995-3.725 13.733-5.311 4.571-1.524 5.479-.522 7.065 3.39 2.337 5.75 6.136 9.976 4.55 16.341-.762 3.089-3.413 4.716-1.075 13.993.845 3.349 7.378 16.601 3.203 17.769-3.485.981-6.365 2.484-9.214 3.569-2.504.96-6-12.114-7.628-15.526-2.932-6.136-5.28-13.315-7.357-18.417-3.767-9.235-6.032-13.356-3.277-15.83v.022Z" fill="#E2C2BC"/><path d="M144.9 74.22c-.136-10.07-4.362-15.412-10.696-20.316-2.922-2.254-9.559-3.277-12.189-3.068-2.389.198-5.155 2.609-6.699 5.447-.96 1.763-3.684 8.535-4.122 11.05-.532 3.005-2.672 20.4-3.924 27.61-1.607 9.286-.209 9.307 9.935 9.307 8.035 0 30.21 3.819 27.684-3.996-1.544-4.769.042-23.03 0-26.024l.011-.01Z" fill="#A2A2A2"/><path d="M133.023 48.29c-2.4 3.11-5.75 4.446-8.411 4.216-2.661-.24-5.071-1.262-7.221-2.87-1.669-1.627-2.817-3.985-3.015-4.977-.178-.907-.136-1.961.093-2.953.533-2.316-1.2-2.43 1.054-7.001.679-1.388 4.675-7.68 11.897-7.398 6.344.24 10.623 14.494 5.603 20.994v-.01Z" fill="#FFDBB0"/><path d="M117.267 34.141c-2.014.46-1.794 2.056-2.483.751-1.607-3.078 3.6-8.754 5.583-8.89 1.753-.114 3.193-4.132 10.946-2.034 1.92.521 5.239 1.294 7.065 4.11 3.078 4.759 5.197 7.868 2.87 14.014-1.096 2.89-3.663 5.604-8.63 7.523-3.173 1.221-2.713 2.682-4.54 2.588-.469-.02-1.283-.856-1.648-1.847-.418-1.127-.136-3.6.553-3.975 2.202-.616 2.525-2.546 2.055-3.214-.532-.762-2.024-.334-2.848.282-4.143 3.057-2.15-5.53-4.55-6.136-5.03-1.262-3.287-3.59-4.373-3.161v-.01Z" fill="#003F67"/><path d="M105.518 95.84a.968.968 0 0 1-.302-.052.864.864 0 0 1-.501-1.117c.605-1.575.981-3.516 1.221-6.281.219-2.463-.553-7.283-3.548-9.725-2.713-2.212-7.284-3.923-11.208-1.46-3.016 1.898-6.574 7.178-7.304 10.861a.858.858 0 0 1-1.013.679.858.858 0 0 1-.678-1.013c.751-3.735 4.247-9.578 8.077-11.989 4.706-2.953 10.06-.991 13.211 1.576 3.548 2.89 4.446 8.285 4.185 11.217-.261 2.932-.668 5.008-1.326 6.74a.863.863 0 0 1-.803.554l-.011.01Z" fill="#E2C2BC"/><path d="M85.105 87.7c3.058-.124 13.598 2.474 17.782 2.902 3.663.375 4.414.542 3.506 3.704-1.356 4.737-2.827 15.537-5.728 17.571-2.891 2.035-6.356 2.672-11.177 1.326-4.257-1.19-7.054-2.776-7.148-8.619-.094-5.844-.417-11.53-.156-15.913.104-1.69.73-.876 2.911-.97h.01Z" fill="#E2C2BC"/><path d="M82.424 89.215c-.678-1.952.845-3.6 4.163-3.684 2.64-.062 7.691.376 11.229 1.18 4.164.939 8.171 3.245 8.745 4.445.511 1.074.25 2.462-1.284 2.963-1.753.574-7.68.72-13.764-.94-3.85-1.043-8.672-2.785-9.09-3.964Z" fill="#A2A2A2"/><path d="M105.193 92.355a.315.315 0 0 1-.24-.105c-.72-.772-3.183-1.92-6.178-1.92h-.115c-2.932 0-3.788-.125-7.45-1.575-3.455-1.357-4.759-.866-6.502.125a.323.323 0 0 1-.438-.125.323.323 0 0 1 .125-.438c1.795-1.013 3.35-1.628 7.065-.167 3.631 1.43 4.372 1.512 7.315 1.523h.01c2.922 0 5.677 1.075 6.648 2.118a.319.319 0 0 1-.021.46.306.306 0 0 1-.219.083v.02Z" fill="#fff"/><path d="M115.639 72.76c-1.847.521-7.42 2.92-8.203 2.587-.793-.334-2.535-.803-4.142-.188-1.586.616-1.242 1.67-2.275 2.358-1.253.835-2.192 2.86-1.649 3.652.553.783-.637 1.315.031 2.098.46.542 1.211.219 1.211 1.314 0 1.086.511 1.785 1.638 1.733 1.127-.053.939-.407 1.732.135.783.543 1.044.376 1.806-.052.772-.428 2.014-2.431 3.203-4.07 1.19-1.638 4.988 1.013 9.987-1.23 1.743-.783.803-2.38 0-5.187-.939-3.286-.939-3.829-3.329-3.15h-.01Z" fill="#FFDBB0"/></svg>