<svg width="198" height="158" fill="none" xmlns="http://www.w3.org/2000/svg"><path d="M57.877 32.22c1.02-1.944 14.878-17.953 14.864-18.932 0-.979.07-4.67.783-5.9 1.23-2.154 2.489.726 3.495.251 1.021-.461 2.7-2.46 3.86-2.88 1.16-.434 1.328 1.132 1.902 2.07.573.922 2.167-.938 2.698.125.364.727-.35 2.53.797 3.02 1.147.49 1.259.895.714 2.041-.546 1.147-1.259 1.538-1.05 2.615.21 1.063-.07 1.258-.866 1.874-.797.615-3.454 1.02-5.705 1.538-2.252.517-10.614 20.54-15.41 26.034-1.566 1.804-8.208-7.83-6.097-11.843l.014-.014ZM29.77 28.514C28.779 26.557 15.173 10.338 15.2 9.36c.014-.979 0-4.67-.685-5.915-1.202-2.167-2.489.686-3.496.196-1.007-.475-2.67-2.503-3.817-2.95C6.055.243 5.86 1.809 5.258 2.731c-.587.923-2.153-.964-2.699.084-.377.713.308 2.531-.853 3.006-1.146.476-1.272.867-.74 2.042.53 1.16 1.244 1.566 1.006 2.628-.238 1.063.056 1.259.84 1.888.782.63 3.439 1.077 5.676 1.622 2.238.545 10.306 20.693 15.004 26.272 1.538 1.832 8.32-7.704 6.279-11.745v-.014Z" fill="#FFDBB0"/><path d="M83.69 136.232c2.531.755 3.02-.825 7.145.615 5.454 1.902 3.594 7.047-.74 9.97-3.035 2.041-11.509 5.341-12.46 1.02-.391-1.803-1.049-3.104-1.636-4.18-1.776-2.377-6.74-6.754-6.432-8.138.475-2.181 8.67-7.522 9.9-5.607.545.839 2.545 5.831 4.223 6.334v-.014Zm-65.176 9.186c-2.027 1.692-3.16.49-6.376 3.454-4.251 3.915-.336 7.76 4.936 8.613 3.705.601 12.976.098 12.025-4.139-.405-1.776-.35-3.202-.265-4.404.629-2.853 3.79-5.3 2.908-6.418-1.37-1.762-9.173-4.223-10.725-3.971-1.007.168-1.16 5.747-2.517 6.879l.014-.014Z" fill="#003F67"/><path d="M24.709 83.17c2.587-1.678 10.99-2.013 16.696-2.21 5.97-.195 10.431.574 18.388 1.133 4.838.336 6.865 4.698 10.445 16.345 2.783 9.075 10.124 19.547 13.06 26.538 2.63 6.278 3.342 8.152-3.398 11.577-3.943 2.014-5.845 5.481-10.976 5.551-5.272.07-16.934-28.383-21.66-28.677-4.475-.266-10.781 21.546-11.327 25.112-1.02 6.725-1.692 6.935-9.984 5.033-10.501-2.405-9.536-1.398-8.362-13.129 1.007-9.997 3.93-43.89 7.132-47.273h-.014Z" fill="#E2E5D8"/><path d="M62.842 58.254c.35-5.425 5.9-17.603 7.41-20.413 2.63-4.88-.293-4.978-4.907-7.663-2.657-1.552-7.146-4.236-8.264-3.048-1.832 1.972-4.167 3.776-6.67 4.922-.867.392-5.65 1.119-9.943-.238-1.845-.587-6.683-3.285-8.417-4.544-.993-.713-2.238-3.831-6.46-.713-3.329 2.46-10.055 5.37-8.027 8.39 1.398 2.083 5.51 9.465 5.034 14.289-.364 3.733-.336 16.093-3.524 27.07-3.244 11.157.518 11.618 5.118 12.723 6.446 1.538 12.613 1.384 25.114.447 9.872-.74 21.059 2.783 18.695-7.06-1.44-6.013-5.257-22.735-5.16-24.162Z" fill="#A2A2A2"/><path d="M34.804 29.325c2.965 3.705 7.034 5.243 10.236 4.865 3.202-.377 6.11-1.692 8.655-3.733 1.217-1.244 1.58-2.894 2.21-4.209.391-.825 1.258-1.538 1.678-2.055.363-.461.853-1.063.867-1.706.07-2.586-1.23-1.216-1.385-1.79-.699-2.796-.042-2.614-2.852-8.109-.853-1.664-7.16-6.166-11.62-5.495-3.524.531-9.914 4.726-10.558 11.717-.14 1.538-1.454 1.51-1.496 3.02-.056 2.447 1.594 1.93 2.014 3.09.447 1.244 1.44 3.426 2.223 4.404h.028Z" fill="#FFDBB0"/><path d="M32.161 15.986c-.713 2.964.364 1.44 2.321-.671.98-1.063 2.671-.098 3.636-.503 1.216-.518 1.258-2.112 2.895-1.776.95.196 1.943-.671 3.16.937 2.363 3.104 3.495 2.53 5.719 2.377 2.223-.154 3.146.293 4.432 1.635 1.287 1.343 1.595 3.538 3.09 2.615 1.12-.685 1.609-4.978.7-6.418-1.189-1.901-2.251-3.202-3.3-4.614C53.765 8.17 51.766 5.85 47.5 4.283 40.173 1.6 38.789 5.793 36.9 6.94c-1.887 1.16-5.411 1.482-4.74 9.032v.014Z" fill="#003F67"/><path d="M171.243 142.664c-.685-.518-1.175-1.105-1.343-2.028-.391-2.055-.293-5.551-2.768-9.116-2.475-3.579-2.07-3.076-4.391-6.18-2.335-3.104-2.922-5.271-3.286-8.879-.364-3.621-1.706-6.837-4.559-9.703-2.852-2.866-5.145-2.629-9.34-1.636-4.195.993-2.923 4.74-2.056 9.689.489 3.188.979 5.957 3.692 8.669 2.712 2.713 4.824 6.138 5.635 8.054 1.272 2.978 5.342 8.054 6.796 9.41 1.566 1.468 4.209 4.376 3.621 6.837a4.523 4.523 0 0 1-.377 1.063c3.817.321 7.103-2.419 8.39-6.138l-.014-.042Z" fill="#FFDBB0"/><path d="M171.242 142.664c-1.287 3.719-4.573 6.46-8.39 6.138-.629 1.175-1.454 1.091-1.58 4.363-.182 5.271 4.223 4.823 7.691 1.663 2.433-2.209 7.397-8.948 4.446-10.794-.853-.531-1.58-.936-2.181-1.37h.014Zm-46.325 5.131c-1.874 1.384-2.251-.307-4.713 2.671-3.244 3.943.532 6.977 5.16 7.187 3.244.153 11.159-1.273 9.9-4.964-.531-1.552-1.048-2.727-1.104-3.803-3.356 1.356-6.293.587-9.243-1.105v.014Z" fill="#003F67"/><path d="M142.438 109.554c-.587-4.418-12.264-2.279-14.487 6.04-1.091 4.083-1.706 8.515-2.181 10.613-.741 3.285.349 9.102.643 13.199.168 2.223.461 6.893-1.454 8.347-.014 0-.028.014-.042.028 2.95 1.692 5.901 2.461 9.243 1.104a3.033 3.033 0 0 1 .293-1.538c.895-1.887 3.035-4.53 3.161-9.2.125-4.67.167-3.971.139-8.165-.028-4.195.769-6.32 2.615-9.41 1.832-3.09 2.657-6.614 2.084-11.032l-.014.014Z" fill="#FFDBB0"/><path d="M127.825 77.144c2.671-1.427 12.221-.322 17.828-.434 5.44-.112 8.069 1.02 14.096.154 4.712-.685 2.964 4.474 7.285 15.618 2.866 7.368 11.074 18.107 8.11 20.274-2.978 2.167-10.082 4.726-13.857 3.314-3.762-1.413-4.964-1.832-9.677-.042-4.111 1.566-10.599-1.021-15.787-1.958-4.335-.783-7.131-.699-10.627-.182-6.698.993-11.48-1.635-12.501-2.614-1.482-1.426-.881-7.732 5.467-15.296 6.335-7.565 6.251-15.786 9.663-18.82v-.014Z" fill="#A2A2A2"/><path d="M128.664 27.857c-.951-2.083-9.914-12.43-9.858-13.45.056-1.021.196-4.866-.475-6.194-1.161-2.307-2.629.615-3.664.07-1.035-.546-2.671-2.727-3.859-3.23-1.175-.518-1.455 1.104-2.112 2.041-.657.937-2.209-1.105-2.824-.028-.42.741.209 2.657-1.007 3.09-1.217.433-1.371.853-.853 2.097.503 1.23 1.23 1.678.937 2.783-.28 1.104 0 1.314.797 2 .783.684 3.538 1.272 5.845 1.929 2.307.67 4.474 9.116 9.159 15.114 1.538 1.972 9.858-1.93 7.9-6.222h.014Zm38.845 3.272c1.734-1.482 14.78-7.788 15.158-8.739.378-.95 1.874-4.502 3.034-5.41 2.028-1.609 2.126 1.663 3.286 1.607 1.161-.056 3.566-1.342 4.853-1.3 1.286.028.853 1.608 1.048 2.74.196 1.119 2.475-.07 2.573 1.16.07.84-1.314 2.322-.391 3.23.923.91.881 1.357-.112 2.252-.979.909-1.818 1.006-2.028 2.125-.209 1.119-.559 1.188-1.566 1.482-1.007.294-3.747-.35-6.124-.713-2.378-.364-9.957 7.69-16.738 11.172-2.224 1.132-6.614-6.516-3.021-9.578l.028-.028Z" fill="#FFDBB0"/><path d="M162.028 54.088c-.769-3.79 5.342-6.977 13.06-12.486 3.412-2.433 1.427-5.313-.321-7.509-4.055-5.061-4.419-7.005-7.621-4.74-2.237 1.58-4.6 2.49-9.243 3.468-5.132 1.077-6.782.447-12.305 0-2.629-.21-10.851-.503-14.962-5.495-2.335-2.838-1.972-3.845-6.488-1.384-4.643 2.517-7.635 4.32-7.733 5.117-.28 2.168 1.594 3.817 4.489 7.956 4.628 6.6 6.082 7.914 5.691 11.633-.238 2.28-.574 6.25-2.517 14.89-1.986 8.81-1.371 12.57 2.517 13.48 8.152 1.915 36.356 1.761 38.286-.7 4.181-4.39-1.776-18.987-2.839-24.23h-.014Z" fill="#EE8084"/><path d="M154.882 31.619c-3.663 2.838-7.872 3.355-10.836 2.265-2.965-1.09-5.412-3.02-7.37-5.537-1.412-2.39-2.013-5.467-1.943-6.67.07-1.104.433-2.306.979-3.383 1.3-2.503-.63-3.174 3.286-7.746 1.188-1.384 7.62-7.41 15.759-4.866 7.159 2.237 7.774 19.98.112 25.923l.013.014Z" fill="#FFDBB0"/><path d="M137.795 7.388c.616-1.077 3.384-3.146 6.195-3.23 3.482-.112 4.279-2.28 7.803-1.692 4.908.825 9.005 3.551 10.249 5.075 2.671 3.286 2.349 5.58 2.979 7.802 1.118 4.041 8.487 14.052-6.992 18.666-1.44.434-2.978-.67-3.216-3.551 0-3.467 1.944-3.09 3.286-4.25 1.384-1.189 1.063-4.39-1.133-3.776-1.818.504-2.125-.531-2.782-4.278-.797-4.558-20.08.098-16.375-10.752l-.014-.014Z" fill="#003F67"/><path d="M151.709 15.553c-1.091-.224-2.042.042-1.692.965.349.923 1.006 2.503 1.314 2.95.308.434.699.979 1.496-.321.797-1.287.923-1.37 1.497-1.916.573-.531.587-.405 1.859.07 1.259.475 2.238.937 2.671.461.434-.475.322-1.23-.168-2.516-.503-1.287-.657-2.643-1.356-2-.699.643-1.398 1.51-1.678 1.958-.28.447-.839.88-1.636.769-.811-.098-1.566-.182-2.293-.42h-.014Z" fill="#EE8084"/><path d="M153.876 15.19c-.252.266-.573.685-.224 1.482.364.811.713 1.23 1.035 1.23.615 0 .671-.14.867-.727.196-.573.014-1.006-.475-1.635-.49-.63-.797-.574-1.217-.364l.014.014Z" fill="#EE8084"/></svg>