<svg width="259" height="30" fill="none" xmlns="http://www.w3.org/2000/svg"><path fill-rule="evenodd" clip-rule="evenodd" d="M64.074.464c.896.192 1.028.683 2.07.764.15-.29.375-.724.94-.572v.192c.481.179.212-.192.565.192h.19v.764l.375.192v.38h.19c.062.192.123.38.19.572h-.755v.572c-.521.138-.42.053-.565.571-.658.161-.878.483-1.695.572.013.5.075.648.19.952-.645-.05-1.479-.152-1.505-.192v.38h.19c.595.004-.565.192-.565.192-.239-.3-.504-.465-.94-.572-.283.518-.654.813-1.32.951v-.38l-.375.193c-.11.29-.146.313-.19.764-.397.031-1.139.17-1.32.38-.23.268.168.21-.375.571v-.764h-.19v.764h-.565v-.38c-.287.112-.309.148-.755.193v-.38l-.565.192c-.123.326-.18.599-.19 1.144h-.94s-.19.304-.375.38v.192h-.19v-.38h-.374V8.67h-.19v.192h-.565v.192c-.327.295-.397.894-.565 1.336-.693-.067-1.24-.335-1.695.192a31.9 31.9 0 0 1-.19.572c-.503.062-1.006.125-1.505.192v.192l-.375.192v.38l-.565-.192-.19.38h-.565c-.03.018-.22.286-.375.38v.191a69.913 69.913 0 0 1-.94-.192v-.192c-.11-.013-.645.322-.94.38-.128.362-.243 1.166-.375 1.524l-.565-.193v-.192c-.26-.049.075.139-.19.192-.45.09-.486-.143-.755-.192l-.375.572h-.755v.192l-.565.192v.572h.376v.192h-.19c-.102.09-1.51.483-1.505 0h-.19v.38l-.94-.192c.009.684-.044 1.202-.376 1.523v-.192h-.19v-.764h-.374c-.014.5-.075.648-.19.952-.393-.116-.768-.214-1.13.192v.38h-.19v.192l-1.13-.192c-.062.125-.123.255-.19.38-.251.062-.503.125-.754.192v.38h-.755v.38c-.45-.09-.591-.22-.94-.38v.951c-.442.063-.879.125-1.32.192v.192c-.552.13-.618.21-.755.764.265.014-.026-.03.19-.192.296-.219.177.47.19.572-.322.215-.256.12-.375.572.251-.063.503-.125.755-.192l.19-.38c.035-.004.44.179.754.192v-.38c.19.063.375.126.565.193l.19-.38c.23-.112.551-.103.755-.192v-.764c.445-.076 1.037-.362 1.694-.192v.192h.755v-.192h.375v-.764h.376v.38c.564-.126 1.13-.255 1.694-.38l.19.192c.517-.367.172-.652 1.13-.764.216.219 0 .076.375.192v-.572l.94-.192v-.38c.623.103.857.241 1.13 0h.19c.238-.295-.203-.384.19-.572v.192h.19v-.571c.414-.067.975-.25 1.505 0 .061.125.123.254.19.38h.375v-.38c.38.107.163-.023.375.192l.565-.192v-.193h.565c.123-.192.251-.38.375-.572.313.063.627.126.94.193v.192c.137.027.693-.17 1.32-.192l-.19-.572h.375v.192h.755l.19.192v-.192l.565-.192c-.014-.5-.076-.648-.19-.952h1.13c.216-.219 0-.076.375-.192.145-.572.115-.5.755-.572.211.326.119.26.565.38.19-.478.388-.996.754-.764h.19V14h.375c.137-.527.053-.425.565-.572v-.192l1.13-.192s.084.277.375.192l.19-.38h.565v-.38l.375.192v.193c.247.093.04-.09.19-.193.472-.13.305-.098.565-.38h.19v-.38l.375-.191c.22-.242.318-.554.565-.764v.192h.565c.061.255.123.51.19.764h.19c.458-.777 1.054-.706 2.07-.952.057-.013.048-.263.374-.192v.192c.376.125.755.255 1.13.38v-.192h.19l-.19-.572c.124-.063.252-.125.376-.192.26-.398-.084-.268.375-.572v-.192l.94-.192c-.102.532-.146.018 0 .572h.19v-.38c.375.063.754.125 1.13.192v-.192c.203-.174.035.031.19-.192h-.19v-.192h.564c.04.451.08.473.19.764.216-.22.075 0 .19-.38.216-.219.075 0 .19-.38.565-.192 1.13-.38 1.695-.572l.19.192c.061-.616.172-.558.375-.951h.375v.192h.19v-.192h.754l.19-.572c.49.201.795.348 1.505.38-.062-.125-.123-.255-.19-.38.128-.21 1.06-.268 1.32-.572l-.19-.38h.19V6.19c.499.224.71.367 1.505.38v-.192h-.19v-.572c.596.125.38.29.565.38.221-.014.671-.384 1.13-.192l.19.38h.375c-.18.63-.176 1.12.19 1.715h-.19c-.216.219 0 .076-.375.192v.952h-.19c-.048.317.177.33.19.38v.951c-.675.027-1.068.273-1.505.38l-.375-.192c-.124.192-.252.38-.375.572-.106.044-1.029-.143-1.32-.192-.115.5-.534 1.01-1.13.951 0 0-.101-.241-.375-.192l.19.38h-.755c-.062.317-.124.634-.19.951l-.94-.192-.19.38c-.507.13-.494-.366-.565-.38l-.565.192.19.193c.009.075-.168.428-.19.764-.626.062-1.253.125-1.884.192v-.38c-.446-.04-.468-.08-.755-.192v.572c-.04.08-1.293.96-.565 1.335h-.565v-.192c-.18-.353-.19.38-.19.38-.212.161-.026-.022-.19.192.53-.178.526-.2 1.13 0v.192l.565-.192-.19-.192.19-.572c.883.344 1.466.112 2.07-.38.062-.125.124-.254.19-.38h.94s-.017-.11.375-.191v.572h.19v-.38c.803-.014 1.25-.04 1.695-.38l.19-.38c.313.063.627.125.94.192-.216-.219 0-.076-.375-.192v-.38c.19.063.375.126.565.193v-.38h.375v.38c1.09-.09 1.871-.71 2.635-1.144v.572h.375v-.38h1.32v-.192h.565v-.192c.375.062.755.125 1.13.192.158-.215-.023-.027.19-.192v-.764c.374-.063.754-.125 1.13-.192-.063.192-.124.38-.19.572h.19v.192c.211-.161.026.022.19-.193.215-.218.074 0 .189-.38.296.014 1.32.193 1.32.193v-.192h.19v-.572c.207-.268.847-.197 1.32-.192v.192l1.129-.192v-.192h.375v-.193h.565l-.19.572h.19c.137-.527.053-.424.565-.572v.38c.19-.062.375-.125.565-.192v-.192c.441-.062.878-.125 1.32-.192V9.98h.565l.19-.38c.158-.062 1.24.201 1.505.38V9.6l.564-.192v-.192c.256-.08-.075.138.19.192.314.063.336-.183.375-.192.345-.072.729.25.94.38v-.192c.588-.541.045-.81 1.13-.952v.192h.566l-.19.38c.242.308.353-.21.565.572.247-.201.282-.389.564-.572v.572h.376c-.062-.38-.124-.764-.19-1.144.883-.304.636.147 1.13-.952h.19c-.023.407-.195.653-.19.764l.19.192c.344-.24.022-.259.189-.38.217-.16.12.175.19.193.19-.063.375-.125.565-.192v-.38c.424-.076.724-.313 1.32-.192 0 0 .009.25.375.192v-.192h.94v.192c-.45.116-.349.062-.565.38h.375c.543-.907 1.448-.59 2.45-.952l.19-.572c.538 0 .807.067 1.13.192v-.764h.189c.124.192.252.38.376.572h.189l-.189.38h.189v.192c.539.393.486-.34.755.572h.375v.38h.375c-.061.192-.123.38-.189.571h.189c.128.286.133.318.19.764h.375v.38c.292.17.393.282.565.572.609-.335.358-.456 1.13-.192l-.19-.572h.376v-.38h.375v.192h.19V9.22l.565.192-.19.572h.375c.137-.527.053-.424.565-.572.282-.335.507-.361 1.13-.38v-.38c.375-.124.754-.254 1.13-.379.013.5.075.648.19.952.211-.161.026.022.189-.192h.19V8.46c.565.062 1.13.125 1.695.192v-.38h.375l.19-.572c.251.063.503.125.755.192.061-.125.123-.254.189-.38l.941.193v.38c.481-.295 1.297-1.184 1.884-.764h.375v.38h.19v-.38c.905-.05.909-.134 1.695 0 .062-.318.124-.635.19-.952.869-.165 1.527-.165 2.07 0v-.38h1.13v.192h.565v.192c.189-.062.375-.125.565-.192V5.99c-.217-.219-.075 0-.19-.38.618.014.556.242.94 0l.19-.38 1.13.38v.38c.507 0 1.068.063 1.319-.192v-.38l.375.192v-.192a85.92 85.92 0 0 0 1.13-.192c.177.116-.066.273.19.192l.19-.38c.238 0 .481.34.94.193v-.192c.313-.063.627-.126.94-.193l-.19.572h.19c.419.46.353.268.94.192-.022.604-.366.358.19.572.084.474.172.702.19 1.336-.521.139-.419.054-.565.572h-.19v.952c-.45.089-.591.219-.94.38V8.85h-.19c-.278 1.067-.326.393-.94.764v.192l-.755.572c.062-.193.124-.38.19-.572h-.19c-.114.304-.167.45-.189.951-.711.152-1.055.371-2.07.38v-.38h-.376v.38h-.94v.192h.19c-.119.273-.221.143-.375.38h-.375l.19-.38h-.19c-.186.26-.111.375-.565.38 0 0-.133-.273-.375-.192-.062.125-.124.254-.19.38h-.375l-.19 1.143-.755.192v-.764h-.375c-.137.613-.256.693-.94.764l.19-.571h-.19c-.071.218-.053.679-.375.571l-.19-.571c-.19.062-.375.125-.565.192v.38c-.3-.117-.446-.17-.94-.193v-.572h-.19v.572c.216.22.075 0 .19.38-.442.063-.878.125-1.32.192v.38c-.666.071-.574.237-1.13.38v.572c-.459-.108-.415-.202-.755-.38v.38h-.189v.571h.189v-.38h.376v.38a65.3 65.3 0 0 0 .94-.192v.572h.375v-.572c.313.063.627.125.94.192.088-.455.216-.598.375-.951.614.004 1.36-.085 1.695.192h.19c.062-.125.123-.255.19-.38h.375v-.192h.375v-.192l.375.192v-.192h1.885a31.9 31.9 0 0 0-.19-.572h.375v-.192h.19v.192l.565.192c.013.268.044.054-.19.192.212.201 0 .085.375.192v-.192h.19v-.572h.19c.163-.263.141-.33.19-.764.445-.022.476-.058.754-.192v.192h.19v.193l-.19.38h.565v-.38c.442-.063.879-.126 1.32-.193v.193h.19c.212-.152-.071-.25.19-.193v.193h.754v.38h.19c.062-.38.124-.765.19-1.145h.375v.38h.19v-.572c.432.018.49.161.755.192l.189-.38s.517.18.755.193v-.38l.19.192c.252-.062.503-.125.755-.192v.192h.94v-.572h.375v.193h.19v-.193l.375.193.19-.572c.499-.188.393.415.754.38v-.193c.826-.196 1.038-.469 1.885-.572v.192h-.19c-.357.166.375.193.375.193.159.214-.022.026.19.192v-.38l.94-.192c.062-.125.124-.255.19-.38l.19.192c1.117.072 1.262-.397 1.885-.764v.572h.189c.217-.219 0-.076.376-.192v-.38c.189.063.375.125.565.192l.189-.38h.755v-.192h.19c.115.456.062.353.375.572v-.572c.989-.16.834-.022 1.695.38.097-.447.274-.715.565-.951.216.219 0 .076.375.192v-.38h.565v-.38c.313.063.627.125.94.192v.38h.375V7.72c.411.027.627.192.755.192V7.72l.565-.192c.062.125.124.255.19.38.6.179 1.5-.398 1.884-.572l-.189-.572h.565c.114.456.061.353.375.572.159.214-.022.027.19.192.013-.5.075-.648.189-.952a88.84 88.84 0 0 0 1.13-.192c.159.215-.022.027.19.192-.146.193-.23.188-.375.38h.565l-.19-.572.19-.192c.278.09.3.22.755.192v-.192h.189v.192c.252.063.504.125.755.192v.193c.768.294 1.117-.139 1.505.192.587.393.088.245.375.764l.375.192v.38h.19c.172.259.142.335.19.764l-.755-.193c.15.617.349.657.375 1.524-.211.16-.026-.022-.189.192h-.19c-.057-.572-.027-.518-.375-.764v.192h.189c-.123.255-.251.51-.375.764-.49.009-.649.04-.94.192v.192c-.322.112-.326-.178-.375-.192-.675-.174-1.103.242-1.32.572h-.189c-.062.38-.124.764-.19 1.144h-.375l-.19-.38a46.39 46.39 0 0 0-.755.192c.04.451.08.474.19.764-.437-.018-.481-.152-.755-.192l-.19.38c-.251.062-.503.125-.754.192-.137.527-.053.424-.565.572-.662.603-1.219-.242-1.32-.192v.192c-.313.192-.627.38-.94.572.101.665.185.353 0 .951h.19v-.192h.754v.38l.565-.192v-.192l.565.192v-.572c.19.063.375.125.565.192v-.192l-.19-.192h1.13c.062.192.124.38.19.572.124-.063.375-.38.375-.38.19.063.376.125.565.192v-.192c.278-.147.314-.143.755-.192v-.38h.375v-.38h.755v.38c.424-.049.499-.018.755-.192v-.192h.375v-.192h.375v-.192c.335-.273.45-.43.94-.572v.572h.755c.062-.317.123-.635.19-.952h.375a31.9 31.9 0 0 1-.19.572h.19c.269-.273 1.05-.487 1.505-.572v-.38c.251-.062.503-.125.755-.192v-.572h.375v.572h.375v-.572h.94a31.9 31.9 0 0 1-.19.572h.375c.195-.219.349-.366.755-.38v.193h.19l.19-.193c.176-.344.26-.299.375-.764l.565-.192v-.192l.19.192.565-.192v.572h.375c.04-.451.079-.473.19-.764l.375.192v-.192c.269-.237.291-.527.565-.764.057.09.384.693.565.572l.189-.572c.817-.062 1.634-.125 2.45-.192v.192c-.521.139-.419.054-.565.572.468-.085.693-.174 1.32-.192v-.192h-.19v-.952c.313.063.627.125.94.192a31.9 31.9 0 0 1 .19-.572c.216.22.075 0 .19.38l.565.192v-.192c.388-.214.339-.295.94-.38v-.572c.401-.022.644-.196.754-.192l.19.192v-.38l.94-.191v.38c.124-.063.252-.126.376-.193v-.192c.3-.036.233.33.375.38h.754c.062-.317.124-.635.19-.952.314.063.627.125.94.192l.19-.38h.19v.193c.19-.063.375-.125.565-.192v-.38c.216.219.075 0 .19.38h.375c.088-.456.216-.6.375-.952.627.009 1.695.192 1.695.192v-.192h.375v-.192h.565c.062-.125.124-.255.19-.38.19.063.375.125.565.192v.192h.94v-.38l.755-.191v.38h.375c.119.522.247.433.375.95h.565c.137.528.053.425.565.573v.38c-1.126.232-.976.763-1.32 1.715h1.13l.19-.764c.786-.12.534-.187 1.32-.38v.38c.891-.38.759-.38 1.505 0v-.38c.251-.062.503-.125.754-.192v-.38h.376v.193h.189V7.33c.428-.085.508.098.755.192V7.33h-.19c-.348-.184.375-.193.375-.193v-.38h.376v-.38c.591.113.838.31 1.505.38l.189-.571s-.401-.032-.189-.192h.375v.192h1.13v-.572c.6.125.37.281.565.38.313-.032.348-.376.375-.38.362-.103.26.125.375.192h.19v-.192c.251.062.503.125.755.192.136-.527.052-.424.564-.572v.38h.755c.177-.344.261-.3.375-.764l.565.192V4.85c.124-.063.252-.125.376-.192v.38h.375l-.19-.572c.45-.09.591-.22.94-.38v.764c.98-.26.671-.42 1.885-.192v-.572h.565v.192c-.08.112-.309.027-.19.38h.19c.304-1.18.401-.322 1.13-.764.428-.26-.014-.702.94-.952v.192l.565-.192v.38h.189v-.38c.667.072.574.237 1.13.38v.38c.177.299 1.347.353.755.951h.375v.764l-.375.192c-.009.063.177.425.19.764h.375c-.088.456-.216.6-.375.952-.336.018-.68.201-.755.192v-.192h-.755v.192l-1.13.192v.38c-.251.125-.503.255-.754.38v-.192h-.19v.572l-1.32.38c.216.218 0 .075.375.191v.193c.331.156.605-.112.755-.193v-.19h.565v-.38c.878-.044 1.073-.276 1.695-.571v-.192h1.32v.192h-.19c-.216.219 0 .076-.375.192v.38c.768-.224.198-.175.565-.572l.375.192v-.192h.375v-.192h.565c.199-.117.468-.943.94-.764v.192h.375v-.572c.19.062.375.125.565.192v-.192c.375-.063.755-.125 1.13-.192v.38h.375c.062.192.124.38.19.571h.19v-.38h.375c.11-.71.11-.437 0-1.143.057.022 1.814.415 1.885.38v-.193h.189v-.764h.19c.384.349.856.054 1.505 0v-.38c.38.108.164-.022.375.193.693-.201.517-.384.941-.764v-.192c.476-.3 1.487-.014 2.259 0 .12-.523.247-.434.375-.952.808-.031.645-.12 1.13-.38v.572h.755c.04-.451.08-.473.19-.764l.565.192.19-.38h.375v-.192c.19-.062.375-.125.565-.192l.19.572c.476-.388.079-.46.94-.572v.192c-.217.175-.221.139-.375.38h.189v.192c.393-.21.336-.308.94-.38.159.215-.022.027.19.193-.22.362-.159.183-.565.38v.192h.375c-.061.38-.123.764-.189 1.143h.189v.192h-.189v.38c.061.447.123.89.189 1.336h-.189c-.159.219-.097.268-.375.38V6.75h-.19c-.124.192-.252.38-.375.572h-.565l-.19.38c-.252.062-.503.124-.755.191-.062.193-.123.38-.19.572l-.565.192-.19.38h-.189v-.192c-.693-.165-.909.648-1.32.192v.38h-.375c.062.255.123.51.19.764h-.19c-.212.326-.119.259-.565.38-.018-.04-.269-.693-.375-.572v.192l-.375.192a31.9 31.9 0 0 1-.19.572h-.565c-.631.313-.247.505-1.32.572.062.192.124.38.19.572.252-.063.503-.126.755-.193v.572h.189v-.192h.755c.574-.219.839-.531 1.695-.572v-.38c.534-.12.499-.352.565-.38h.755v.193l.755-.192s.083.237.375.192v-.192l.754.192v-.192c.217-.219.075 0 .19-.38h-.19v.192c-.163.362-.189-.38-.189-.38.688.063 1.381.126 2.07.193l.189-.38c.19-.058.345.295.755.192v-.192h.94v.192h.19v-.192h.755l.19-.572h.189l-.189-.38h.565c.216.22 0 .076.375.192v-.38c.45.09.591.22.94.38v-.192h-.19c-.349-.183.375-.192.375-.192v.192c.217.22.075 0 .19.38.402-.022.64-.192.755-.192v.192h.375c.053-.34.19-.38.19-.38a31.89 31.89 0 0 0-.19-.572h.19v-.192c.534.241.777.492 1.505.572v-.38c1.099-.254.106-.482 1.13 0v-.764h.189v.192c.252-.192.504-.38.755-.571v.764h.19c.093-.09-.053-.309.19-.193v.193h.19s-.053.683.189.38v-.193c.217-.219.075 0 .19-.38h-.565c.146-.571.115-.5.755-.571v.192l.565-.192v.192h.565v.192c.485.103 1.033-.594 1.32-.764l.565.192v-.192c.313-.206.313-.26.754-.38-.062.192-.123.38-.189.572h.189v.192c.19-.125.375-.255.565-.38v-.192h.375c.34-.152.411-.433.565-.764l.94.764c.115-.375.009-.464.376-.572.061.023.057.358.375.38.401-.54.168-.384.755-.192.061-.617.172-.558.375-.952.657.103.348.188.94 0v1.144h.19c.212-.326.119-.259.565-.38.353.599.697.541.754 1.524.517.022 1.364.263 1.505 0h.19v.192c.521.125 1.112.532 1.32.952v.571h.19c.26.353.437.443.565.952-.19-.063-.376-.125-.565-.192v.192h.189v.572h.19c.172.281.168.47.19.952-.216.218-.075 0-.19.38-.627.062-1.253.124-1.884.191v-.38c-.252.063-.504.126-.755.193v-.38c-.124.063-.252.125-.375.192-.062-.125-.124-.255-.19-.38-.005 0-.556.26-.94 0l-.19-.572c-.221-.156-.322.559-.755.38v-.192c-.216-.219-.075 0-.19-.38l-.565.192v-.192h-.189c.062-.192.123-.38.189-.571 0 0-.233-.059-.189-.38 0 0 .313-.085.189-.38h-.189c-.217.219 0 .076-.375.192a31.9 31.9 0 0 1-.19.572c-.442-.054-.468-.063-.755-.192v-.192c-.318.022-.318.362-.375.38-.428.151-.759-.237-.94-.193v.193c-.64.259-.782.594-1.505.763.061-.192.123-.38.189-.571h-.375c-.278.518-.578.87-1.319.951v-.572h-.19c-.146.572-.115.5-.755.572v-.38c-.786.434-.891.39-1.885.193v-.38h-.189c-.014.737.03.786-.565.952v.192c-.181.353-.19-.38-.19-.38h-.375c-.062.125-.124.255-.19.38-.313-.063-.627-.125-.94-.192v.38h-.565v.191c-.216.22-.075 0-.19.38l-1.13.192v-.38l-1.884.193v.38h-.565v.191c-.168.358-.19-.38-.19-.38-.605.148-.406.287-1.13.38v.572c-1.112-.116-1.028-.674-2.26-.764-.004.635-.097.863-.19 1.336h-.375c.058-.165.362-.42.19-.764h-.19v.192c-.216.22-.075 0-.19.38l-1.13.192v.38c-.631-.116-1.187-.523-1.884-.192-.124.192-.252.38-.375.572-.512.152-.583-.514-.755-.572-.34-.116-.137.214-.19.38-.19-.063-.375-.126-.565-.193v.764h-.375l-.19.38c-.309.094-.349-.187-.375-.192-.455-.08-.49.192-.755.192v-.192a88.84 88.84 0 0 1-1.13-.192v.38c-1.249.134-1.884.165-2.824 0l-.19.572c-.353-.094-.901-.08-1.505-.192v-.193c.216-.218.075 0 .19-.38-.451.018-.468.126-.755.193V16.1c-.314-.206-.309-.273-.755-.38v-.38h-.375a31.9 31.9 0 0 0-.19-.572l-1.13-.192v-.38c.15.063.592.39.94.193v-.193c-.556-.366-.459-.76-.375-1.335.252-.126.256-.3.375-.38.124.062.252.125.375.192v-.764h.19c-.062-.38-.123-.764-.19-1.144a30.883 30.883 0 0 1-.565-.192c.062.125.124.255.19.38l-.565-.192v.38h-.189c-.062.125-.124.254-.19.38h-.565c.044.442.207.115 0 .571l-.375-.192v.38c-.203.335-.19-.38-.19-.38-.314.063-.627.125-.94.192 0 0-.089-.286-.375-.192-.062.125-.124.255-.19.38h-.565a31.9 31.9 0 0 1-.19.572c-.291-.157-.834-.688-1.32-.572-.062.125-.123.254-.189.38-.362-.036-.314-.371-.376-.38h-.189v.192h-.941v.192h.376c-.062.38-.124.764-.19 1.144h-.375c-.173-.076-.124-.581-.755-.38l-.19.38h-.94v-.192c-.274-.152-.318-.134-.755-.193v.572c-.19-.062-.375-.125-.565-.192v.192c-.216.22-.075 0-.189.38-.702.201-.508.393-.941.764v.192h-.565v-.572h-.375v.38h-.94v-.192h-.19c-.123.255-.251.51-.375.764l-.375-.192v.192l-.565.38v-.572h-.19v.192l-.565-.192v.192c-.264-.013.075-.16-.189-.192l-1.13.192v.572h-.19v-.192c-.512-.277-.923.268-1.13.38-.106-.6-.185-.8-.755-.952.106.465.199.42.375.764h-.375c-.3.281-1.108.21-1.695.192v-.38h-.375v.38c-.375-.063-.755-.125-1.13-.192-.092-.451-.176-.451-.375-.764.256-.223.186.143.375-.192-.247-.157-.22-.134-.375-.38h.375c.04-.451.08-.474.19-.764-.534-.125-.711-.353-.94-.764h.565c.124-.51.251-1.019.375-1.524-.247-.156-.221-.134-.375-.38-.402.233-.411.43-.94.573v-.38h-.19v.572c-.733.062-.847.308-1.32.572-.039-.452-.079-.474-.189-.764-.212.16-.027-.023-.19.192h-.19l.19.192-.19.572c-.799-.139-.905-.031-1.885 0l.19.572h-.19c-.154.25-.132.223-.375.38v-.765c-.958.054-.83.34-1.884.38-.142.648-.402.88-1.13.952v-.38h-.19v.192c-.163.362-.19-.38-.19-.38-.19-.062-.375-.125-.565-.192l.19.38h-.375c-.3.282-.464.657-.565 1.144h-.565v-.38c-1.21.045-1.514.697-2.45.952.119-.523.247-.434.375-.952-1.205.268-2.061 1.108-2.824-.192.847-.5.401-.71.189-1.524h-.754c-.159-.214.022-.026-.19-.192.057-.165.362-.42.19-.764h-.19v-.192h-.565c-.318.527-.808.384-1.13.764l-.19.572h-.565v.192c-.19.063-.375.125-.565.192v-.38c-.587.13-.856.572-1.319.764h-.755v.193c-.19-.063-.375-.126-.565-.193v.38l-1.13.192v.192h-.755c-.062.014-.048.264-.375.193v-.193h-.375v-.192l-1.32-.192c-.137.268-.34.577-.565.764v-.764h-.189v.38c-.19-.063-.376-.125-.565-.192-.089.447-.314.59-.376.951h.19c.062.193.124.38.19.572-1.073.014-1.183-.2-1.885-.38-.278.519-.578.872-1.319.952v-.38h-.376v.764h-.375v.193h-1.32v.192h-.375v.192c-.123-.063-.251-.125-.375-.192v.192h-.19c-.278-.228.159-.139-.189-.38.022.603.366.358-.19.572v-.38c-1.059.13-.609.474-1.13.764h-.375a31.9 31.9 0 0 1-.19.572h-.94v-.192c.468-.349.243-.148.19-.764h-.376v.572c-1.637.004-1.924.33-3.389.38v-.38c-.252.125-.503.255-.755.38.062.254.124.509.19.764-.49-.032-.645-.04-.94-.193v-.192l-.565.192c-.031-.004-.066-.268-.375-.192v.192h-.376v.192h-.375v.193c-.26.174-.331.134-.755.192v-.572h-.189v.192h-.94c-.128.058-.009.246-.565.38a31.9 31.9 0 0 1-.19.572h.19c.278.232-.684.187-.755.192v-.192c-.755-.125-1.505-.255-2.26-.38.102-.532.146-.018 0-.572-.203.107-.393.514-.755.38v-.192h-.189l.189-.38h-.189c-.217-.22 0-.076-.376-.192-.061-.192-.123-.38-.189-.572h.375a31.9 31.9 0 0 0-.19-.572h.19v.192c.163.362.19-.38.19-.38h.189v-.192c-.123-.062-.251-.125-.375-.192a31.9 31.9 0 0 1 .19-.572h-.19v-.192h.565v-.192c-.247-.156-.221-.134-.375-.38.322-.214.256-.12.375-.572l.755-.192c.022-.013.291-.706.375-.572v.38h.565c.177-.344.26-.3.375-.764-.256-.223-.287-.348-.375-.764h.375v-.38h.375v-.192c-.375.063-.754.126-1.13.193v-.193c-.247.014-.472.327-.94.193v-.193a91.965 91.965 0 0 1-1.13-.192v.764h-.375v.38c-.19-.125-.375-.255-.565-.38v-.38l-.19.193c-.216.218-.075 0-.189.38h-.755v.38c-.375-.063-.755-.126-1.13-.193a80.02 80.02 0 0 1-.19.952c-.459.107-.415.196-.754.38v-.193c-.195-.165-.261-.33-.376-.572-.216.22-.075 0-.189.38-.376.063-.755.125-1.13.192v.38c-.446.04-.468.08-.755.192v-.38h.19l-.19-.572h-.19v.38c-.123-.062-.251-.125-.375-.192-.216.152-.075.451-.565.38-.062-.125-.124-.255-.19-.38h-.19v.38l-.564.192c-.098-.027-.115-.482-.376-.38-.189.255-.375.51-.565.764a30.883 30.883 0 0 1-.565-.192v.38h-.375v.38c-.212-.161-.026.022-.19-.193-.203-.174-.035.032-.189-.192h.189v-.192h-.564v.192h-.19v-.192h-.565c-.062-.125-.124-.254-.19-.38-.124.063-.252.126-.375.193-.256.076.079.205-.19.192v-.192h-.375c-.005.59.053.983.19 1.336h-.755v.38h-.19v-.573h-.375l-.19.572c-.212-.16-.026.023-.19-.192h-.189l.189-.572a34.25 34.25 0 0 0-.565.192v.193h-.375c-.062.125-.123.254-.189.38h-.755v.191h-.19c-.093-.084.053-.308-.19-.192l-.19.38-.94.192v-.38h-.19l-.189.38h-.19l-.19-.38c-.26-.12-.53-.093-.755-.192-.013.737.031.787-.565.952v-.38h-.375v.38h-.94l-.375.951h-.375v-.192c-.062-.009-.433.17-.755.192.106-.464.199-.42.375-.764h-.375l-.19.572-1.319-.192c-.199.099-.137.43 0 .572h-.376c-.163.197-.326.264-.565.38v-.572c-.843.072-.547.12-1.319 0v.192c.216.22.075 0 .19.38h-.941c-.048-.009-.061-.246-.375-.192v.192h-.375a31.9 31.9 0 0 1-.19.572c-.212-.161-.026.022-.189-.192-.212-.161-.027.022-.19-.192.247-.157.22-.134.375-.38h-.755c-.168.2-.331.25-.565.38v.192l-.565-.192v.192c.247.156.221.134.375.38h-.375c-.22-.26-.344-.29-.755-.38v.38c-.353-.135-.737-.188-1.319-.193-.208-.397-.305-.34-.375-.951h-.376v-.38c-.211.16-.026-.022-.189.192h-.19v.38l-.375.192v.572h-.19c-.19-.255-.375-.51-.565-.764h-.19c-.247-.425.102-.532-.375-.952.062-.255.124-.51.19-.764 0 0-.243-.094-.19-.38h.19v-.951s.115 0 .19-.38c.52-.138.419-.053.565-.572h.375v.192l.565-.192v-.38l.94.193c.137-.528.053-.425.565-.572v-.764h.19l-.19-.38h.19c.158-.215-.023-.027.189-.192v-.192c.181-.353.19.38.19.38l.565.192v-.192h-.19c.062-.193.124-.38.19-.572h1.13v.192c.441-.063.878-.125 1.32-.192v-.38h.754v-.38c-.644-.009-1.302-.13-1.694-.192-.124.192-.252.38-.376.572l-1.13.192c.106-.465.199-.42.376-.764h-.755v.192h.19c.216.3-.464.179-.565.192v.572h-.19v.192c-.313.063-.627.125-.94.192.062-.317.123-.634.19-.951-.459.107-.42.196-.755.38v.192c-.375-.126-.755-.255-1.13-.38v.192c-.216.219-.075 0-.19.38-.309.058-.821.397-.94.38v-.193h-.565c-.26-.053.071-.25-.19-.192l-.189.38h-.376l.19-.38h-.19c-.216.22 0 .076-.375.192v.38c-.313.063-.627.125-.94.192-.035-.009-.062-.272-.375-.192v.192h-.375v.192c-.186-.04-.221-.513-.375-.38-.309.26.207.367-.565.572v.572h-.19v-.38h-.19c-.062.126-.124.255-.19.38h-.755c-.225-.415-.414-.63-.94-.764v.192h-.754l-.19.38-.565-.192v.572h-.375c-.464.8-.42.223-.94.572.061.125.123.254.189.38-.375-.063-.754-.126-1.129-.193-.018.005-.098.331-.376.38v-.192h-.754l-.19-.192v.192c-.534.349-.552.55-1.505.572-.212-.326-.12-.26-.565-.38v.38h-.375v-.192c-.239-.076-.495.54-.565.572-.389.174-.539-.166-.755-.192v.192a88.84 88.84 0 0 0-1.13.192l-.19-.572c-.52.138-.42.054-.565.572-.565.062-1.13.125-1.695.192l-.19.38h-1.32v.192c-.489.147-.877.018-1.319.192-.106-.465-.198-.42-.375-.764-.212.16-.026-.022-.19.192-.662.474-.044.68-.94.952v.192h-.94l-.19.38c-.42.17-.53-.237-.754-.193v.192c-.376.076-.239-.084-.376-.192h-.19v.38c-.19-.062-.375-.125-.564-.192v-.192l-.565.192v-.192h-.755l-.19-.38c-.265 0-.088-.058-.19.192-.234-.219-.07 0-.19-.38h.755v-.38h-.755c-.176-.343-.26-.298-.375-.763h.375c-.11-.787-.203-.912-.565-1.716-.247.099.053.076-.19.192h-.564v.192c.38.108.163-.022.375.192-.538-.017-.808-.035-1.13-.192v.192c.216.22.075 0 .19.38-.923 0-1.073.22-1.695.38v-.572h-.19v.192h-.19l-.375-.192v.572h-.565v-.38h-.19v.38h.19v.572c-.626-.005-.852-.098-1.32-.192v.38c-.445-.023-.476-.058-.754-.192v.192c-.216.219-.075 0-.19.38-.993-.112-.432-.412-1.32-.193v-.38c-.3-.044-.238.327-.375.38-.706.268-1.288.107-1.884 0v.572l-.376-.192v.192c-.38.326.018.29-.19.572h-.19c-.454-.688-1.76-.116-2.634 0v.572c-.353-.099-1.029-.684-1.32-.572v.192h-.19v.572c-.565.063-1.13.125-1.694.192v.38h.19a31.9 31.9 0 0 1-.19.572c-.446-.023-.477-.058-.755-.192v.192h-.19v-.572h-.375v.572h-.19v-.192h-.755v.192l-.375-.192v.192c-.415.13-.622.058-.94.192v.572c-.94.143-.931.17-1.695-.38l-.19.572h-.754v.192c-.252.063-.504.125-.755.192v-.38h-.375c-.115.67-.203.876-.94.952v-.192c.216-.22.075 0 .19-.38-.252-.063-.504-.125-.755-.192v-.192c-.358-.112-.26.107-.376.192l-.564-.192v.192h.19v.764h-.376v-.38c-.516.304-.34.47-1.13.572-.137.527-.053.424-.565.572-.507.607-1.099.46-1.884.38v-.38h.754c-.061-.192-.123-.38-.19-.572-.286.112-.308.147-.754.192-.031-.518-.062-1.148-.375-1.336v-.192c.136-.2.145.165.375-.192h-.375c-.336-.201.375-.192.375-.192-.106-.465-.199-.42-.375-.764h.565c.154.25.132.223.375.38-.46-1.001-.693-1.926.94-1.908.216.219 0 .076.375.192.062-.317.124-.634.19-.952h-.375v.38h-.375l.19-.572h-.19c-.142.362.132.197-.19.38-.247-.223.225-.29-.19-.38v.38l-.375-.192v.192h.19c-.124.255-.252.51-.376.764h-.19v-.572h-.19v.192h-.564c-.124.192-.252.38-.375.572h-.375v.192h-.565v.192h-.376v.192c-.759.273-1.328-.263-1.694 0-.512.336-.596 1.055-.755 1.144h-1.695c-.216-.219 0-.076-.375-.192v-.38h-.19c.062.255.124.51.19.764h-.19c-.358.313-.997.201-1.505.38v.192c-.278.09-.737-.205-.755-.192v.38h-.94l-.565 1.336h-.19v-.572h-.375c-.04.451-.08.473-.19.764-.211-.161-.026.022-.19-.192-.216-.22-.075 0-.19-.38.323-.215.257-.12.376-.572h-.565v1.144c-.313-.063-.627-.125-.94-.192v-.192c.216-.22.075 0 .19-.38h-.375l.19-.38h-.19c-.217.219 0 .076-.376.192-.048.371-.185.371-.19.38-.3.938.168 1.22-.94 1.336v-.38c-.26.094-.414.076-.754.192v.192c-.19-.062-.375-.125-.565-.192v.192h-.375l.19.38h-1.13v.192c.216.22.074 0 .19.38-.305-.014-1.32-.192-1.32-.192-.062.125-.124.255-.19.38-.512.281-.6.049-.94 0v.192h-.376l-.19.38a65.3 65.3 0 0 0-.94.192v.192a47.415 47.415 0 0 1-.754-.192 71.21 71.21 0 0 0-.94.192v.192c-.56.16-.764-.304-1.13-.38v.192c-.216.22-.075 0-.19.38h-.755l-.19-.192c-.097.044-.052.34-.375.38v-.193l-.565-.192v.192c-.19.063-.375.125-.564.192v-.38c-.34.18-.296.264-.755.38v.38h-.19v-.572c-1.06-.013-1.867-.455-2.26-1.143l.375-.192c.014-.268-.185.08-.19-.192.062-.318.124-.635.19-.952h.376c-.415-1.189.463-1.85.564-3.052a11.205 11.205 0 0 1 2.07-.192v-.572h.565c.128-.558.208-.625.755-.764v-.38c1.1-.254.106-.482 1.13 0v-.38c.42-.08.644-.182.94-.379v-.192c.375-.036.133.29.375 0 .217-.219.075 0 .19-.38h.375c.217-.773.384-.38.755-.951.375.125.755.254 1.13.38v-.193h.19v-.764c-1.082.023-1.382.157-2.26 0-.106.599-.186.8-.755.952v-.38h-.375v.572c-.384.206-.742.563-1.32.572l-.19-.192c-.68.518.062.889-1.32.951l.19-.764h-.375v.192h.19c.013.067-.322.689-.375.952h-.375v-.38h-.375v.38l-.19-.192c-.375.125-.755.255-1.13.38-.062.125-.124.255-.19.38-.247.107.04-.143-.19-.192-.19.062-.375.125-.564.192v-.192h-.566v-.193h-.19v.193s-.52-.175-.754-.193c-.123.318-.252.635-.375.952-.163-.058-.415-.366-.755-.192v.192h-.19v.572h-.19v-.572h-.19v.764c.032.268.2-.08.19.192l-.19.192c-.326-.165-.065-.022-.189-.38h-.19v.38l-.94.192.19-.38h-.19c-.291.331-.34.188-.755.38v.192c-.278.108-.72.05-.754-.192h-.19v.572h-.19v-.192h-.19v.38h-.375v.38c-.477-.152-1.165-.014-2.07 0-.062.446-.124.889-.19 1.335h-.375v-.38c-.287.112-.309.148-.755.193v.572c-.375.125-.754.254-1.13.38v.192h-.375v.192c-.922.353-1.139-.295-1.695.572h-.19l.19.192c-.061.192-.123.38-.19.572-.251-.063-.503-.126-.754-.193v.572c-.667.072-.574.237-1.13.38v-.38h-.19v.572c-.375.063-.755.125-1.13.192l-.19.572h-.375c-.062.192-.123.38-.19.572h-.19v-.572h-.19l-.189.38-.565-.192v-.192c-.366-.094-.251.107-.375.192l-.755-.192.19-.192v-.193h-.19v-.571h.19v-.193h-.375c-.005-.634-.097-.862-.19-1.335H.914c-.335-.202.375-.193.375-.193.062-.192.124-.38.19-.571.97.044.931.361.94-.764.313-.063.627-.125.94-.192v-.764l.565-.193c.216-.218 0-.075.375-.192v.38h.375v-.38c.19.063.376.125.565.192v-.38h-.19l.19-.571h.19v-.192h.565c-.004-.268.04-.054-.19-.193v-.192h.565v-.192h.19l.19.38c.627.125 1.253.255 1.885.38.017-.715.172-.876.375-1.336.19.063.375.125.565.192v-.38h.565l-.19.38h.19v-.192h.375c.207-.165.084-.46.375-.572.168.17.07.322.375.38.124-.192.252-.38.375-.572h.565v-.192h.19v-.764h.375v.38c.803-.076.852-.393 1.505-.572.15-.617.349-.657.375-1.524h1.695v.192l.565-.192v-.192c.283-.076.256.34.375.38l.565-.192v.38h.19v-.38c.212-.161.027.022.19-.192l-.375.192v-.764h.19v-.764h.94l-.19.572h.565c.3-.371.684-.51.94-.952.194.165.26.33.375.572.19-.125.375-.255.565-.38v-.192h.375l.19-.38c.123.063.252.125.375.192.252-.192-.23-.321.19-.38v.193c.19.062.375.125.565.192v-.38c-.216-.219-.075 0-.19-.38.486.09.834.184 1.505.192.27-.406.495-.384.94-.571l-.19-.572h.755v-.192h.19v.192h.375v-.38c1.068-.031.702-.295 1.32-.572h.755V13c.216-.219.075 0 .19-.38h.564V13h.376c.154-.612.22-.554.94-.572v.38c.441-.206.613-.438 1.13-.572v-.572h.375v-.38c.993.005 1.487-.223 2.26-.38.136.528.053.425.565.573-.062-.193-.124-.38-.19-.572h.19c.207-.268.657-.559.94-.764v-.192h.564v.192h.19v.572h.19c.062-.76.194-.88.94-.952v.192c.252.09-.07-.12.19-.192.755-.125 1.505-.255 2.26-.38-.19-.594-.106-.29 0-.951.459-.108.415-.197.755-.38v.192h.19c.15.281-.19.38-.19.38l.19.38c.432-.367.238-.572.94-.765.061-.192.123-.38.19-.571.538.223.886.361 1.694.38.19-.38.375-.765.565-1.144h.375l.19.38 1.32-.38v-.193h1.32l.19-.38h.375c.119-.522.247-.433.375-.95.251.062.503.124.754.191v-.192c.208-.17.04.031.19-.192h-.19c-.185-.317.27-.16.375-.192v-.192c.19.062.376.125.566.192-.062.125-.124.255-.19.38h.19c.59-.688 1.107 0 1.884.192.128-.25.234-.206.375-.38l-.19-.38h.376v-.192l.375-.192c.026-.268-.04.031-.19-.192l.19-.38c.635.134.724.416 1.32.572V3.85c.516.12.428.25.94.38v-.572c.207.063.37.34.754.192v-.192h.565v-.192l1.13-.952v-.38h.375v.193c.26.053-.035-.04.19-.192l.375.192-.19.571c1.051.08 1.585.34 2.26-.38-.37-.214-.441-.267-.565-.763l.565-.192c.062.125.124.254.19.38h.375v-.765c.41.08.539.126.755.38l1.13-.38-.19-.38h.94v-.38l.093.046Zm-1.88 2.859v.38h.19v-.38h-.19Zm167.787.38v.38h.189v-.38h-.189Zm-167.222.572v.38h.19v-.38h-.19Zm-2.635.38v.38h.19v-.38h-.19Zm165.147.571c.216.22 0 .076.375.192-.216-.219 0-.076-.375-.192Zm-14.874.192c.216.22 0 .076.375.192-.216-.218 0-.076-.375-.192ZM51.649 5.99c.018.648 0 .693.376.952V6.75h-.19v-.764h-.19l.004.004Zm155.923.192c.216.22 0 .076.375.192-.216-.219 0-.076-.375-.192Zm-20.528.188v.38h.19v-.38h-.19Zm13.184.192-.19.38s.547-.304.375-.38h-.19.005Zm19.394 0h.375c-.159.215.022.027-.19.192v.192c-.216-.219-.075 0-.19-.38l.005-.004Zm-166.657.192c.216.22 0 .076.375.192-.216-.219 0-.076-.375-.192Zm105.646.188v.38h.19v-.38h-.19Zm-103.572.764v.192h-.19c-.357.165.376.192.376.192.158-.214-.023-.027.19-.192-.217-.219 0-.076-.376-.192Zm144.624 0v.192h-.19c-.358.165.375.192.375.192.159-.214-.022-.027.19-.192-.216-.219 0-.076-.375-.192Zm48.206 0v.192h-.19c-.357.165.376.192.376.192.158-.214-.022-.027.189-.192-.216-.219 0-.076-.375-.192Zm-126.17.192v.38h.19v-.38h-.19Zm-46.511.188v.38h.19v-.38h-.19Zm48.206 0v.38h.19v-.38h-.19Zm34.837 0c.318.41.376.38.376.38.136-.184-.327-.336-.376-.38Zm48.211 0c.318.41.375.38.375.38.137-.184-.326-.336-.375-.38Zm13.369 0v.38h.19v-.38h-.19Zm34.838 0c.317.41.375.38.375.38.137-.184-.327-.336-.375-.38ZM47.88 8.47h-.375v.192h.19v.192h.19v-.38l-.005-.004Zm2.45 1.144h.375c-.062-.255-.124-.51-.19-.764h-.19v.764h.005Zm144.623 0h.376l-.19-.764h-.19v.764h.004Zm48.207 0h.375l-.19-.764h-.19v.764h.005Zm-194.9-.385v.764h.19V9.23h-.19Zm48.206 0v.764h.19V9.23h-.19Zm96.417 0v.764h.19V9.23h-.19Zm27.868.385v.571h.19a1.87 1.87 0 0 1 .755-.764V9.23h-.375c-.212.326-.119.26-.565.38l-.005.005Zm20.339-.385v.764h.19V9.23h-.19Zm-107.902.192v.38h.19v-.38h-.19Zm48.206.38h.376V9.61c-.212-.16-.027.022-.19-.192h-.19v.38l.004.004ZM76.128 9.614v.571h.19v-.571h-.19Zm48.206 0v.571h.19v-.571h-.19Zm82.483.759c.137.527.053.425.565.572.12-.523.248-.434.376-.952h-.19c-.239.362-.19.317-.755.38h.004Zm1.695-.38v.38c.495-.013.64-.076.94-.192v-.192h-.94v.004Zm-99.427.192v.572h.19v-.192c.212-.16.026.023.189-.192l-.375-.192-.004.004Zm48.206 0v.572h.19v-.192c.212-.16.027.023.19-.192l-.375-.192-.005.004Zm48.207 0v.572h.19v-.192c.211-.16.026.023.189-.192l-.375-.192-.004.004Zm48.211 0v.572h.189v-.192c.212-.16.027.023.19-.192l-.375-.192-.004.004Zm-120.711.188v.38h.19v-.38h-.19Zm87.378 0c.318.411.375.38.375.38.137-.183-.326-.335-.375-.38Zm-99.617.384v.572h-.375v.38l.375-.192.19-.572c.212-.16.026.022.19-.192h-.375l-.005.004Zm7.909 0v.38h.19v-.38h-.19Zm48.207 0v.38h.19v-.38h-.19Zm29.567.38h-.565v.38h.375c.177-.344.261-.3.376-.764h-.19v.38l.004.004Zm18.639-.38v.38h.19v-.38h-.19Zm-119.951.76v-.38c-.212.16-.026-.022-.19.192h-.189c.216.219 0 .076.375.192l.004-.004Zm47.642-.38v.572h.189c.217-.22 0-.076.376-.192v-.38h-.565Zm26.738.38v-.38h-.565v.192h.19c.216.219 0 .076.375.192v-.004Zm22.033 0v-.38c-.212.16-.026-.022-.19.192h-.19c.217.219.001.076.376.192l.004-.004Zm14.879-.38v.38c.212-.161.026.022.189-.192h.19c-.216-.22 0-.076-.375-.192l-.004.004Zm26.738.192v.38h.19v-.38h-.19Zm-124.661.76h.375c-.158-.215.022-.027-.189-.193v-.38h-.19v.573h.004Zm-53.105-.38v.38h.19v-.38h-.19Zm48.211 0v.572h.189v-.572h-.189Zm96.412 0v.38h.19v-.38h-.19Zm36.722 0c.217.219.075 0 .19.38h-.19v-.38Zm11.489 0v.38h.19v-.38h-.19ZM39.031 11.9v.38h.19v-.38h-.19Zm48.206 0v.38h.19v-.38h-.19Zm96.417 0v.38h.19v-.38h-.19Zm48.207 0v.38h.19v-.38h-.19Zm-132.945.188c.017.04.269.692.375.572v-.193h.19c-.164-.196-.327-.263-.565-.38Zm48.581.956h.375v-.38h-.375l.19-.38c-.19-.062-.375-.125-.565-.192v.192c.256.224.287.349.375.764v-.004Zm-49.711-.764.19.572h.19c-.115-.456-.062-.353-.376-.572h-.004Zm48.206 0c.062.192.124.38.19.572h.19c-.115-.456-.062-.353-.375-.572h-.005Zm3.58 0h-.375c.158.214-.023.027.189.192v.192h.19v-.38l-.004-.004Zm74.384.764h.375v-.38h.19c-.062-.125-.124-.255-.19-.38-.212.161-.026-.022-.19.192h-.19v.572l.005-.004Zm-157.243-.572c.217.219 0 .076.376.192-.217-.219 0-.076-.376-.192Zm32.013 0v.572h.19v-.572h-.19Zm48.206 0v.572h.19v-.572h-.19Zm3.58 0h-.375c.159.214-.022.027.19.192v.192h.189v-.38l-.004-.004Zm21.843 0v.572h.19v-.572h-.19Zm48.211 0v.572h.19v-.572h-.19Zm-190.575.188v.38h.19v-.38h-.19Zm8.85 0v.38h.19v-.38h-.19Zm48.21 0v.38h.19v-.38h-.19Zm12.615.384v-.38c-.212.16-.026-.022-.19.192h-.19c.217.219 0 .076.376.192l.004-.004Zm35.592-.384v.38h.19v-.38h-.19Zm14.499 0v1.143h.19V12.66h-.19Zm24.103 0v.38h.19v-.38h-.19Zm.755 0v.38h.19v-.38h-.19Zm8.849 0v.38h.19v-.38h-.19Zm38.607 0v.38h.19v-.38h-.19Zm.755 0v.38h.19v-.38h-.19Zm8.849 0v.38h.19v-.38h-.19Zm-197.54.192c.217.219 0 .076.376.192-.216-.22 0-.076-.375-.192Zm48.207 0c.216.219 0 .076.375.192-.216-.22 0-.076-.375-.192Zm144.624 0c.216.219 0 .076.375.192-.216-.22 0-.076-.375-.192Zm-131.255.38.19.571h.19c-.115-.456-.062-.353-.375-.572h-.005Zm48.211 0c.062.191.124.38.19.571h.19c-.115-.456-.062-.353-.375-.572h-.005Zm12.239.191v.38h.19v-.38h-.19Zm-119.015.952c-.137-.527-.053-.424-.565-.572.062.255.124.51.19.764h.565v.192c.265.036-.07-.134.19-.192h.754v-.764c-.212-.16-.026.023-.19-.192h-.375v.192h.19c.062.344-.468.5-.755.572h-.004Zm24.483-.76-.19.38s.547-.303.375-.38h-.19.005Zm144.623 0-.189.38s.547-.303.375-.38h-.19.004Zm-176.826.952h.376v-.192c-.212-.16-.027.022-.19-.192h-.19v.38l.004.004Zm6.59-.38v.38c.212-.16.027.023.19-.192h.19c-.217-.219 0-.076-.376-.192l-.004.005Zm41.617.38h.375v-.192c-.212-.16-.026.022-.19-.192h-.19v.38l.005.004Zm6.594-.38v.38c.212-.16.026.023.19-.192h.19c-.217-.219 0-.076-.376-.192l-.004.005Zm48.206 0v.38c.212-.16.027.023.19-.192h.19c-.216-.219 0-.076-.375-.192l-.005.005Zm89.828.38h.375v-.192c-.212-.16-.026.022-.19-.192h-.189v.38l.004.004Zm6.59-.38v.38c.211-.16.026.023.189-.192h.19c-.216-.219 0-.076-.375-.192l-.004.005ZM33.006 15.332v-.38l-.565.193.19.764h-.19v.192c-.441.062-.878.125-1.32.192v.38c.247.035 1.17.232 1.32.192l.19-.38.565.192c.062-.317.123-.634.19-.952h.19c.216-.218 0-.076.374-.192v.38h.94v-.38h.376c-.124-.38-.252-.764-.375-1.143h-.19l-.19.571c-.27.192-1.086.344-1.505.38v-.009Zm21.278-.956v.572h.19v-.572h-.19Zm-25.233.384v.38h.19v-.38h-.19Zm29.378 0v.38h.19v-.38h-.19Zm18.829 0v.38h.19v-.38h-.19Zm48.206 0v.38h.19v-.38h-.19Zm55.93 0c.217.22.001.076.376.192-.217-.219 0-.075-.376-.192Zm21.659 0v.38h.189v-.38h-.189Zm18.828 0v.38h.19v-.38h-.19Zm-171.176.188c.216.219.075 0 .19.38h-.19v-.38Zm48.02.192c.213.326.12.26.566.38-.163-.197-.327-.264-.565-.38Zm21.469.38h.375v-.192c-.212-.161-.026.022-.189-.192h-.19v.38l.004.004Zm-69.864-.188h.375v.192c-.38-.107-.163.023-.375-.192Zm52.54 0c.217.22.075 0 .19.38h-.19v-.38Zm50.656.76h-.375v-.764h-.19v.192c-.216.219-.075 0-.189.38.19.125.375.254.565.38.158.214-.022.026.189.191v-.38Zm-52.351-.572v.38h.19v-.38h-.19Zm-61.77.384v.38h.19v-.38h-.19Zm48.212 0v.38h.19v-.38h-.19Zm41.616.188c.217.219 0 .076.376.192-.217-.22 0-.076-.376-.192Zm-66.854.572v-.38c-.212.16-.026-.022-.19.192H62c.217.219 0 .076.376.192l.004-.004Zm96.417 0v-.38c-.211.16-.026-.022-.189.192h-.19c.216.219 0 .076.375.192l.004-.004Zm-113.176.384v.38h.19v-.38h-.19Zm3.77 0v.38h.19v-.38h-.19Zm-14.124.188v.38h.19v-.38h-.19Zm15.064.384c-.01.773-.088.822.375 1.143v-.192c-.318-.41.145-.92.375-1.336h-.19c-.212.327-.119.26-.565.38l.005.005Zm3.39-.385c.216.22 0 .076.375.193-.217-.22 0-.076-.376-.193Zm9.79 0c-.063.193-.125.38-.19.572h.19v-.192c.079-.111.308-.027.189-.38h-.19Zm19.962 0v.38h.19v-.38h-.19Zm63.275.385c-.009.773-.088.822.375 1.143v-.192c-.318-.41.146-.92.375-1.336h-.19c-.211.327-.119.26-.564.38l.004.005Zm3.39-.385c.216.22 0 .076.375.193-.216-.22 0-.076-.375-.193Zm-84.178.193v.38h.19v-.38h-.19Zm21.093.38h.375v-.193c-.212-.16-.027.023-.19-.192h-.19v.38l.005.004Zm27.117-.38v.38h.19v-.38h-.19Zm16.759 0c.217.218.075 0 .19.38h-.19v-.38Zm-41.431.192c-.062.125-.124.254-.19.38l.375.192c.137-.228-.397-.166 0-.572h-.19.005Zm-23.163.187-.19.572h.19V18h.19v-.192h-.19Zm48.211 0-.19.38s.547-.304.375-.38h-.19.005Zm-98.867.764h.375v-.192c-.212-.16-.027.022-.19-.192h-.19v.38l.005.004Zm106.021 0h-.375c.159.215-.022.027.19.192v.193h.19v-.38l-.005-.005Zm-99.617.38v.38h.19v-.38h-.19Zm27.118 0v.764h.19v-.192h.19c-.062-.125-.124-.255-.19-.38h.19c-.217-.219 0-.076-.376-.192H49.2Zm69.299 0v.38h.19v-.38h-.19Zm28.433 0c-.216.219 0 .076-.375.192v.192h.375c.062-.125.124-.254.19-.38h-.19v-.004Zm-87.753.572-.19.38s.548-.304.376-.38h-.19.004Zm-7.154.384v.38h.19v-.38h-.19Zm4.144 0v.38h.19v-.38h-.19Zm-8.854.38h.375c-.154.25-.132.223-.375.38v.192h-.19l.19-.572Zm6.594 0-.19.38s.548-.304.376-.38h-.19.004Zm-14.503.764v.38h.19v-.38h-.19Zm-14.5.952v.38h.19v-.38h-.19Zm4.145.192v.572h.755v.38h.565c.155-.25.132-.224.375-.38v-.572c-.786.138-.79.049-1.695 0Zm-15.253.38c.216.218 0 .075.375.192-.217-.22 0-.076-.376-.193Zm38.981.192v.38h.19v-.38h-.19ZM6.074 25.814c-.062.192-.124.38-.19.571h.19v-.38h.19v-.191h-.19Zm24.293.192v.38h.19v-.38h-.19Z" fill="#FDE6AD"/></svg>