<svg width="218" height="217" viewBox="0 0 218 217" fill="none" xmlns="http://www.w3.org/2000/svg">
<path d="M180.345 92.3847C177.399 89.0854 176.223 86.1191 173.808 88.1278C170.717 90.6986 167.802 99.2851 166.636 103.844C166.293 105.197 166.095 106.519 165.908 107.736C164.867 114.606 174.589 114.939 176.837 109.828C178.263 106.904 179.45 103.771 180.303 101.856C181.927 98.2131 182.572 94.8826 180.345 92.3847Z" fill="#FFDBB0"/>
<path d="M163.66 112.368C161.86 112.555 160.787 115.511 162.037 117.176C163.889 119.643 166.2 120.382 169.167 120.663C174.996 121.215 173.965 120.018 174.465 116.146C174.694 114.429 176.234 112.389 177.129 109.953C177.733 108.288 165.669 105.852 165.596 107.695C165.17 110.723 165.336 112.18 163.66 112.357V112.368Z" fill="#003F67"/>
<path d="M177.274 78.1987C174.495 81.7687 168.989 87.1391 169.478 92.5617C169.842 96.6416 175.536 102.074 175.567 106.061C175.598 110.047 182.583 109.693 188.682 109.912C190.327 109.974 201.797 108.933 208.167 108.361C211.685 108.049 209.177 103.532 209.146 100.159C209.114 96.7873 209.916 96.0275 210.52 92.6865C211.092 89.5329 210.301 83.6317 208.48 79.8952C207.168 77.2204 202.765 71.5481 198.3 71.0901C194.657 70.7154 192.2 70.705 187.589 71.2046C182.759 71.725 179.897 74.8266 177.274 78.1987Z" fill="#EE8084"/>
<path d="M195.98 71.1007C192.368 73.0158 188.631 72.818 186.217 71.4234C183.802 70.0183 181.98 67.9888 180.658 65.5013C179.784 63.2115 179.732 60.443 179.982 59.4126C180.211 58.4655 180.7 57.4768 181.345 56.6233C182.854 54.6458 181.272 53.7715 185.384 50.3994C186.633 49.369 193.18 46.9336 198.915 51.7941C203.578 55.7491 203.537 67.0937 195.98 71.1007Z" fill="#FFDBB0"/>
<path d="M184.362 49.057C185.06 48.2764 187.693 47.0586 190.035 47.4646C192.929 47.9745 192.981 46.2052 196.947 46.965C201.516 47.8392 203.993 50.462 205.44 53.1056C207.158 56.2384 207.199 58.4241 207.199 60.3704C207.199 65.0747 203.129 77.2728 189.119 72.8078C187.423 72.2666 186.35 72.3915 187.6 69.3108C189.286 67.7392 191.898 66.2716 191.992 65.2829C192.086 64.2941 190.774 63.8258 189.837 63.9299C187.485 64.19 188.162 63.7113 188.266 60.5161C188.401 56.6235 180.261 53.293 184.352 49.057H184.362Z" fill="#003F67"/>
<path d="M182.053 104.905C186.341 105.644 191.92 104.166 195.751 104.291C202.173 104.499 209.709 103.427 210.188 105.457C210.656 107.487 211.728 114.023 211.218 118.092C210.489 123.931 207.398 126.71 200.56 128.219C194.314 129.593 187.725 127.865 183.208 127.969C177.983 128.094 171.706 123.931 170.489 119.331C169.229 114.585 170.613 103.198 172.685 100.701C173.976 99.1393 178.639 104.312 182.063 104.895L182.053 104.905Z" fill="#A2A2A2"/>
<path d="M203.619 59.788C204.66 59.2051 206.461 57.8209 207.616 57.5086C208.772 57.1964 210.031 56.8425 211.28 57.2693C213.216 57.9354 214.059 58.5494 214.632 59.611C215.142 60.5582 214.996 63.4828 214.08 65.0544C213.122 67.2505 214.153 68.6763 214.84 69.6443C215.829 71.0181 218.368 71.9756 217.536 72.8083C215.09 75.2229 213.237 74.7441 211.707 73.4952C206.763 69.4881 212.664 66.1992 209.74 63.5764C206.815 60.9641 206.273 61.2763 203.619 59.788Z" fill="#003F67"/>
<path d="M148.346 163.109C151.542 166.346 154.092 169.593 153.707 174.547C153.395 178.606 149.595 183.04 149.335 185.965C149.013 189.628 151.833 192.241 151.813 194.468C151.781 198.454 141.799 196.487 135.419 196.695C133.701 196.758 122.033 198.173 115.361 197.611C111.676 197.299 113.966 190.315 113.997 186.943C114.029 183.571 111.031 183.217 108.96 178.835C107.211 175.151 108.387 170.665 111.676 165.513C114.539 161.017 120.669 158.342 125.343 157.884C129.163 157.509 131.734 157.499 136.553 157.999C141.612 158.519 145.286 160.018 148.346 163.119V163.109Z" fill="#E2C2BC"/>
<path d="M140.79 192.438C136.324 192.438 128.372 192.032 124.437 192.064C117.828 192.116 113.206 190.783 112.676 192.802C112.145 194.822 110.635 200.202 111.291 205.105C112.061 210.943 115.663 214.212 122.637 215.877C129.017 217.396 135.825 215.825 140.477 216.043C145.838 216.293 152.385 212.276 153.738 207.707C155.143 202.992 153.707 193.864 151.636 191.314C150.345 189.722 144.984 192.438 140.8 192.428L140.79 192.438Z" fill="#A2A2A2"/>
<path d="M121.148 156.042C123.542 158.238 127.643 158.009 131.005 157.613C134.367 157.218 137.25 158.508 139.53 157.155C140.81 155.844 142.174 154.636 142.83 153.263C143.235 152.388 144.151 151.649 144.578 151.108C144.963 150.619 145.484 149.995 145.494 149.318C145.494 146.976 144.204 148.048 144.047 147.445C143.319 144.51 143.995 144.718 141.06 138.962C140.165 137.214 133.566 132.499 128.903 133.207C125.218 133.769 118.525 138.15 117.848 145.478C117.703 147.091 116.287 147.059 116.287 148.631C116.287 150.744 117.963 150.65 118.4 151.868C118.869 153.169 120.336 155.022 121.148 156.042Z" fill="#FFDBB0"/>
<path d="M117.566 146.383C117.764 147.278 118.118 149.911 118.274 152.18C118.43 154.501 120.012 156.385 121.074 157.478C122.5 158.966 124.748 160.736 125.8 160.496C127.59 160.08 128.464 161.017 130.9 161.017C132.669 161.017 134.73 159.435 136.042 160.132C137.697 161.017 140.049 158.467 141.402 156.541C142.839 154.501 143.068 152.326 143.109 150.577C143.161 148.371 145.514 146.3 144.327 143.511C143.411 141.356 142.797 138.796 141.704 137.328C140.611 135.861 138.28 133.79 133.679 132.582C126.185 130.605 123.728 134.685 121.751 135.892C119.773 137.099 116.577 141.7 117.587 146.373L117.566 146.383Z" fill="#003F67"/>
<path d="M40.6316 166.65C40.642 167.087 41.2769 167.42 42.0472 167.42C42.8174 167.42 43.4419 167.066 43.4524 166.629L44.2122 130.357C44.2435 129.067 43.1505 128.005 41.787 128.016C40.4234 128.016 39.3513 129.098 39.393 130.389L40.6316 166.65Z" fill="#003F67"/>
<path d="M3.15896 145.563C3.16936 146 3.80429 146.333 4.57454 146.333C5.34479 146.333 5.96929 145.979 5.9797 145.542L6.73958 109.271C6.77081 107.98 5.67787 106.918 4.31432 106.929C2.95076 106.929 1.87867 108.011 1.92031 109.302L3.15896 145.563Z" fill="#003F67"/>
<path d="M4.73967 55.4097L38.5786 49.2377C40.9831 48.8006 42.9399 50.4347 42.9399 52.8805V98.2382C42.9399 98.5505 42.9087 98.8523 42.8566 99.1645C43.6789 99.2374 44.4908 99.4351 45.0841 99.7265L84.6063 118.981C85.7825 119.554 85.7096 120.272 84.4293 120.584L43.8351 130.326C42.5652 130.628 40.5771 130.378 39.4218 129.764L4.06314 110.853C2.31446 109.885 1.37767 109.177 1.33604 107.345L0.461674 60.6448C0.420038 58.2094 2.34565 55.8468 4.73967 55.4097Z" fill="#F2A096"/>
<path d="M42.742 122.822C44.2201 122.822 46.1873 122.385 48.2587 121.917C49.3308 121.677 50.4446 121.427 51.5583 121.23C51.7873 121.188 51.933 120.969 51.8913 120.74C51.8497 120.512 51.6312 120.366 51.4022 120.407C50.278 120.616 49.1539 120.865 48.0713 121.105C45.8543 121.604 43.7621 122.062 42.3569 121.969C41.3577 121.906 38.8179 121.074 32.4582 117.514C32.2604 117.4 32.0002 117.472 31.8857 117.681C31.7712 117.878 31.844 118.139 32.0522 118.253C37.2774 121.167 40.7228 122.708 42.3049 122.812C42.4402 122.812 42.5859 122.822 42.7316 122.822H42.742Z" fill="#003F67"/>
<path d="M12.0071 102.006C12.0071 102.006 12.0383 102.006 12.0591 102.006C13.8286 101.736 17.3468 101.121 20.74 100.518C23.3526 100.06 25.8508 99.6123 27.3392 99.3729C27.5682 99.3313 27.7244 99.1231 27.6827 98.8942C27.6411 98.6652 27.4225 98.509 27.2039 98.5507C25.7154 98.7901 23.207 99.2376 20.5943 99.6955C17.2011 100.299 13.6933 100.913 11.9342 101.184C11.7052 101.215 11.5491 101.434 11.5803 101.663C11.6115 101.871 11.7989 102.027 12.0071 102.017V102.006Z" fill="#003F67"/>
<path d="M8.38515 106.731C8.54128 106.731 8.69741 106.638 8.77027 106.481C8.86395 106.273 8.77032 106.024 8.56215 105.93C6.63652 105.056 6.64691 103.994 6.65732 101.892V101.309C6.65732 100.289 6.59485 97.5619 6.51158 94.4083C6.39709 89.8184 6.26176 84.604 6.30339 83.0845C6.30339 82.8555 6.12643 82.6578 5.89744 82.6578C5.66844 82.6369 5.4707 82.8347 5.4707 83.0636C5.42907 84.604 5.5644 89.8288 5.67889 94.4291C5.76216 97.5723 5.82463 100.289 5.82463 101.298V101.871C5.80381 104.025 5.79339 105.586 8.21864 106.679C8.27068 106.7 8.33312 106.721 8.39557 106.721L8.38515 106.731Z" fill="#003F67"/>
<path d="M11.3704 57.7727C11.3704 57.7727 11.4016 57.7727 11.4225 57.7727C13.192 57.5021 16.7101 56.888 20.1034 56.2844C22.716 55.8264 25.2141 55.3789 26.7026 55.1395C26.9316 55.0979 27.0876 54.8897 27.046 54.6608C27.0044 54.4318 26.7858 54.2756 26.5672 54.3173C25.0788 54.5567 22.5702 55.0042 19.9576 55.4622C16.5644 56.0658 13.0566 56.6799 11.2975 56.9505C11.0685 56.9817 10.9124 57.2003 10.9436 57.4293C10.9749 57.6374 11.1622 57.7935 11.3704 57.7831V57.7727Z" fill="#003F67"/>
<path d="M62.4272 159.198C62.5625 158.823 62.6562 158.47 62.7082 158.147C63.0309 155.878 63.0725 145.709 63.2182 144.169C63.2182 144.169 69.9215 142.764 70.1921 144.939C70.4628 147.115 69.0263 158.48 70.317 160.176C70.5981 160.541 71.2122 160.988 72.0137 161.467C68.7037 162.83 65.5082 161.03 62.4272 159.188V159.198Z" fill="#FFDBB0"/>
<path d="M62.4277 159.198C65.5087 161.04 68.7042 162.841 72.0142 161.478C74.8974 163.216 80.2996 165.505 82.4021 167.202C85.0876 169.367 80.6327 171.032 78.4781 170.793C76.3234 170.553 64.6552 168.409 61.9905 166.338C59.7006 164.569 61.6366 161.478 62.4381 159.198H62.4277Z" fill="#003F67"/>
<path d="M85.6062 157.99C87.8025 159.177 91.6121 159.447 93.7772 161.008C96.7124 163.121 99.2834 166.441 92.4344 167.107C85.5854 167.774 78.6324 164.068 77.0919 161.924C75.5826 159.822 78.1952 159.041 78.2785 157.896C80.7141 158.427 83.2643 158.563 85.6166 158.001L85.6062 157.99Z" fill="#003F67"/>
<path d="M77.4769 144.949C77.4769 144.949 83.4411 143.128 83.7638 144.315C84.0865 145.501 83.1393 153.421 84.0032 156.284C84.2322 157.033 84.815 157.574 85.5957 157.991C83.2433 158.553 80.7036 158.428 78.2575 157.886C78.2575 157.866 78.2575 157.834 78.2575 157.814C78.2263 156.617 76.9044 146.75 77.456 144.939L77.4769 144.949Z" fill="#FFDBB0"/>
<path d="M24.2895 81.2428C24.0813 81.5967 17.7632 92.7748 23.9043 106.263C28.8069 117.025 51.3315 119.534 53.663 121.719C56.182 124.071 56.2653 156.94 59.3046 156.919C60.4704 156.919 64.2176 158.199 69.8175 157.897C77.4159 157.481 73.3669 154.39 75.6048 154.244C77.2077 154.14 81.3609 154.712 85.5868 154.14C87.3251 153.9 86.8359 139.964 86.6797 135.052C86.5236 130.014 86.357 116.671 85.2121 107.762C84.5043 102.267 69.5364 94.9396 65.248 93.1286C60.8763 91.276 55.724 83.1579 53.0697 81.8985C49.4162 80.1708 24.279 81.2428 24.279 81.2428H24.2895Z" fill="#E2E5D8"/>
<path d="M74.0634 143.722C74.2508 143.722 74.3965 143.576 74.3965 143.389C74.3965 140.391 73.6887 126.58 73.3452 119.95C73.2723 118.493 73.2098 117.39 73.189 116.828C73.0433 113.841 72.9184 111.27 70.4619 109.594C68.3385 108.148 61.0628 103.412 55.7023 100.81C55.5357 100.727 55.338 100.8 55.2547 100.966C55.1714 101.133 55.2443 101.33 55.4108 101.414C60.7297 103.995 67.9638 108.71 70.0768 110.146C72.1482 111.561 72.3563 113.622 72.5124 116.859C72.5437 117.421 72.5957 118.535 72.6686 119.981C73.0121 126.611 73.7199 140.412 73.7199 143.389C73.7199 143.576 73.8656 143.722 74.053 143.722H74.0634Z" fill="#003F67"/>
<path d="M37.5709 22.8125C37.2898 22.8125 30.8572 22.8749 30.5033 22.8437C30.3679 23.4474 32.0125 26.9132 31.0133 29.1509C29.7434 31.9819 23.0818 33.6159 23.9978 36.3844C26.881 43.2953 39.8087 41.0263 42.5046 37.7895C43.483 31.6384 39.4756 33.8241 37.6645 29.1509C36.4467 26.0077 37.5812 23.208 37.5812 22.8125H37.5709Z" fill="#FFDBB0"/>
<path d="M27.2752 23.5728C29.0447 27.2156 31.8967 29.089 34.3323 29.1826C36.7784 29.2659 39.0892 28.4853 41.2334 27.0178C42.9612 25.4774 44.304 23.094 44.6058 22.0532C44.8869 21.0957 44.991 19.9612 44.9077 18.8684C44.7204 16.308 46.3024 16.4121 44.866 11.2082C44.4289 9.62618 44.1166 6.24361 37.5487 5.60872C31.7718 5.0571 19.0002 11.9992 27.2648 23.5728H27.2752Z" fill="#FFDBB0"/>
<path d="M43.0746 10.7081C44.5735 11.9362 44.7817 15.7872 46.0307 14.5382C48.4351 12.134 47.9043 5.26476 44.5214 4.20315C41.0449 3.11032 44.1155 1.88218 36.7148 0.622824C31.3127 -0.293072 20.3834 7.26309 23.0064 13.1332C24.7343 17.0153 22.9544 20.9078 27.732 24.4569C28.6272 25.123 28.2733 20.8974 27.7528 20.4603C25.2547 18.1706 25.7023 17.2235 26.2019 16.2763C26.6911 15.3292 28.3462 14.6943 28.8354 15.5478C31.2606 19.8046 30.3238 14.9233 32.5929 15.35C37.3602 16.2555 42.3668 9.87547 43.0954 10.6873L43.0746 10.7081Z" fill="#003F67"/>
<path d="M38.4434 34.6149C40.546 31.5862 43.3772 31.326 47.4367 35.5829C53.6195 42.067 53.1199 46.2822 55.8366 49.925C57.5228 52.1731 70.2527 57.325 74.3954 58.9486C77.4452 60.1456 78.1426 62.2896 78.1426 63.934C78.1426 68.118 75.9984 70.7824 74.5515 70.5118C71.6579 69.981 48.0196 57.3354 47.4471 54.6502C46.7497 51.3509 37.2568 36.3322 38.4434 34.6149Z" fill="#003F67"/>
<path d="M52.2989 54.5257C51.029 43.0666 43.618 32.7732 42.3794 32.3881C39.059 31.3577 41.7964 33.6058 35.7281 33.6683C30.4405 33.7932 30.3676 29.1512 27.6822 30.0463C21.9365 31.951 18.1061 34.1054 15.5871 36.187C13.037 38.2998 21.6034 45.5437 18.8243 51.3721C18.6681 51.7052 18.5536 62.5814 18.8243 73.9573C18.9179 77.8811 19.303 89.7045 21.1454 90.2561C22.6026 90.6932 29.1394 89.6732 31.7208 89.4755C33.178 89.3714 52.4863 88.7261 53.6729 87.9664C57.42 85.5517 54.4015 82.4085 54.6409 78.235C55.2134 68.3787 53.9018 69.0344 52.2885 54.5153L52.2989 54.5257Z" fill="#003F67"/>
<path d="M45.8337 42.8057C41.8055 43.222 30.4807 43.3053 27.6911 44.0963C24.8912 44.8977 27.0562 52.9743 24.8495 58.8131C23.5172 62.331 22.7054 70.1161 18.1151 70.6157C16.5225 70.7926 18.0838 77.2663 18.9998 84.6039C19.9158 91.9519 19.7597 99.9244 21.2377 104.712C22.7054 109.5 34.9045 119.418 38.3394 118.648C41.7743 117.878 53.0157 114.485 56.409 113.288C59.8023 112.091 70.898 104.889 76.6228 104.119C82.3477 103.338 84.6793 102.412 80.0161 98.0613C76.3522 94.6475 65.9331 89.9536 60.3956 85.6759C55.1079 81.5856 51.2358 58.4592 50.2262 52.2769C49.2269 46.0946 49.7578 42.3998 45.8337 42.8057Z" fill="#A2A2A2"/>
<path d="M28.1799 31.264C28.8045 33.4913 30.2825 41.8072 30.3762 44.5965C30.4803 47.3858 31.084 46.6885 29.0335 46.6885C26.9829 46.6885 27.9197 47.084 27.0558 43.2955C26.1918 39.507 25.2967 33.4705 24.8491 32.3568C24.4015 31.2432 24.464 30.8893 25.8588 30.3689C27.2536 29.8589 27.7636 29.7548 28.1799 31.2536V31.264Z" fill="#A2A2A2"/>
<path d="M44.7426 34.1152C45.3671 36.3425 46.179 43.3054 46.2727 46.1051C46.3768 48.8945 46.9804 48.1971 44.9299 48.1971C42.8794 48.1971 43.5144 48.603 42.6504 44.8145C41.7865 41.0261 41.0475 35.5515 40.8914 34.3546C40.5895 31.9504 40.7976 31.6173 42.2757 31.9296C43.7329 32.2418 44.3262 32.6269 44.7426 34.1256V34.1152Z" fill="#A2A2A2"/>
<path d="M75.6552 46.5213C69.6806 47.125 65.0695 47.7703 60.5313 50.4763C57.0755 52.5267 57.4919 51.2777 49.883 50.7157C44.3976 50.3098 31.9904 52.6932 30.4187 54.3168C29.6796 55.0766 31.0432 64.1627 31.4491 68.7734C31.8446 73.2384 33.4788 83.2821 33.864 86.8624C34.2491 90.3386 35.9874 89.0689 39.5888 88.0072C45.2408 86.342 50.3306 85.0098 56.9818 84.8641C62.0717 84.76 63.0293 84.5622 67.7653 81.9915C71.1794 80.1389 77.3622 78.5673 79.6105 78.3175C81.4841 78.1093 80.8492 77.0061 80.6306 72.7805C80.3704 67.7118 79.8291 57.3351 79.3607 53.1303C78.8923 48.9255 79.6522 46.1154 75.6552 46.5213Z" fill="#F2A096"/>
<path d="M76.5517 47.8849C70.577 48.4886 64.9459 49.1755 60.5638 52.1209C57.5348 54.1505 57.3059 52.1209 50.7796 52.0689C45.2733 52.0169 33.6883 54.0256 32.1165 55.6596C31.3775 56.4194 32.9076 65.3806 33.3136 69.9913C33.7091 74.4563 35.0519 82.8243 35.2809 86.311C35.5098 89.7976 36.6027 89.9433 40.1938 88.8817C45.8457 87.2164 51.2271 86.3734 57.8783 86.2381C62.9682 86.134 63.9258 85.9363 68.6618 83.3655C72.0759 81.5129 78.2588 79.9413 80.507 79.6915C82.3806 79.4833 81.7457 78.3801 81.5271 74.1545C81.2669 69.0858 80.7256 58.7092 80.2572 54.5044C79.7784 50.2996 80.5486 47.4894 76.5517 47.8953V47.8849Z" fill="#E2C2BC"/>
<path d="M61.5107 83.3237C61.6564 83.3237 61.7812 83.1988 61.7812 83.0531C61.7812 78.4944 60.8132 69.9495 60.0326 63.0699C59.7099 60.2597 59.4393 57.8243 59.2623 56.0133C59.2519 55.8676 59.1167 55.7531 58.9709 55.7739C58.8252 55.7843 58.7107 55.9196 58.7315 56.0654C58.9084 57.8867 59.1791 60.3222 59.5017 63.1323C60.2824 69.9911 61.2505 78.536 61.2505 83.0531C61.2505 83.1988 61.3753 83.3237 61.521 83.3237H61.5107Z" fill="#F2A096"/>
<path d="M84.4198 71.1156C83.9098 69.3359 84.7737 68.6906 82.796 66.2343C82.515 65.8908 80.2979 63.164 79.84 65.0374C79.4236 66.7235 78.3099 65.8804 78.2786 67.5561C78.2578 68.9404 79.0072 68.8779 78.5909 69.6273C77.8831 70.9075 79.2154 70.8242 79.2467 72.0523C78.9864 73.1452 79.944 74.9874 81.5678 74.6335C82.5358 74.4253 84.9298 72.885 84.4198 71.1052V71.1156Z" fill="#FFDBB0"/>
<path d="M41.3182 75.841C40.7249 74.9459 40.142 74.6857 40.5167 73.9363C40.8914 73.1869 41.9739 72.958 41.9427 72.1774C41.9011 71.2615 40.9435 71.2927 39.9963 71.2823C39.0491 71.2823 37.0506 71.9484 36.2283 72.2086C35.7911 72.3439 34.2507 72.6249 34.7711 71.5217C35.7079 69.565 35.3748 69.1487 35.1042 68.5242C34.8856 68.0142 33.8343 68.0975 33.1889 69.3985C32.5332 70.7099 31.4403 72.7914 30.6804 73.4784C30.2329 73.8843 26.111 72.2502 22.9155 71.3864C18.9185 70.2936 18.6479 69.1279 19.262 65.5579C19.6471 63.3202 19.6679 59.3652 19.6471 57.5751C19.6263 55.8057 10.3729 54.64 9.97735 56.0243C9.48814 57.7624 10.0502 60.1666 9.67546 64.0592C9.2591 68.3889 9.05093 75.5287 14.2345 76.8505C18.9497 78.0474 25.8299 78.7968 29.1919 78.8696C29.6811 78.8696 32.8559 80.7119 33.47 80.816C35.1979 81.1282 37.1651 81.7006 37.9353 81.3884C38.7056 81.0761 38.9762 80.9929 39.2364 79.8792C39.4967 78.7656 39.7048 78.9425 40.5167 78.0162C41.3286 77.0899 41.9115 76.7361 41.3182 75.841Z" fill="#FFDBB0"/>
<path d="M21.9356 35.1977C19.4167 33.98 17.4286 33.6262 13.4108 38.4034C11.5788 40.5891 8.92461 47.4895 8.40417 54.7438C8.03986 59.7396 7.15514 65.3078 8.10234 68.6592C8.37297 69.6271 11.5684 70.491 16.5022 69.5439C19.604 68.9506 22.0813 69.0026 23.2054 68.1804C24.5898 67.1604 22.1542 59.8229 22.1542 57.1168C22.1542 54.8375 23.778 48.0932 23.9133 46.9483C24.1006 45.283 24.6315 41.6194 24.6002 40.0582C24.569 38.4138 23.1951 35.8222 21.9356 35.2082V35.1977Z" fill="#003F67"/>
</svg>
