<svg width="453" height="52" viewBox="0 0 453 52" fill="none" xmlns="http://www.w3.org/2000/svg">
<path fill-rule="evenodd" clip-rule="evenodd" d="M111.458 0.625426C113.028 0.963279 113.26 1.82752 115.085 1.96895C115.348 1.45824 115.742 0.696086 116.732 0.963225V1.30112C117.575 1.6154 117.103 0.96331 117.722 1.63902H118.054V2.98254L118.712 3.32034V3.98826H119.044C119.152 4.32612 119.261 4.65604 119.377 4.99389H118.054V5.99962C117.142 6.24319 117.32 6.09392 117.064 7.00534C115.912 7.2882 115.526 7.85393 114.095 8.01107C114.119 8.89106 114.227 9.15034 114.428 9.68462C113.299 9.59819 111.837 9.41744 111.791 9.34673V10.0146H112.123C113.167 10.0224 111.134 10.3525 111.134 10.3525C110.716 9.82603 110.252 9.53529 109.487 9.34673C108.992 10.2581 108.342 10.7767 107.175 11.0203V10.3525L106.517 10.6902C106.324 11.201 106.262 11.2403 106.185 12.0339C105.489 12.0889 104.19 12.3324 103.873 12.7017C103.471 13.1731 104.167 13.071 103.216 13.7074V12.3638H102.883V13.7074H101.893V13.0395C101.391 13.2359 101.352 13.2988 100.571 13.3774V12.7096L99.5814 13.0474C99.3648 13.6209 99.2644 14.1003 99.2489 15.0588H97.6018C97.6018 15.0588 97.2692 15.5931 96.9444 15.7266V16.0645H96.612V15.3966H95.9549V15.0588H95.6222V15.3966H94.6324V15.7345C94.0602 16.2531 93.9367 17.3059 93.6428 18.0838C92.4288 17.9659 91.4699 17.4945 90.6735 18.4216C90.5652 18.7595 90.457 19.0894 90.341 19.4273C89.4595 19.5373 88.5779 19.6473 87.7041 19.7652V20.1031L87.047 20.4409V21.1087L86.0572 20.7709L85.7247 21.4387H84.7349C84.6808 21.4702 84.3482 21.9416 84.0776 22.1066V22.4445C83.5286 22.3345 82.9797 22.2244 82.4307 22.1066V21.7688C82.2374 21.7452 81.3016 22.3344 80.7835 22.4366C80.5593 23.073 80.3582 24.4872 80.1262 25.1158L79.1366 24.778V24.4401C78.6804 24.3536 79.2679 24.6837 78.804 24.778C78.0153 24.9351 77.9534 24.5265 77.4817 24.4401L76.8246 25.4458H75.5022V25.7837L74.5126 26.1215V27.1272H75.1697V27.4651H74.8373C74.6594 27.6223 72.1926 28.3137 72.2004 27.4651H71.8679V28.1329L70.221 27.795C70.2364 28.9972 70.1436 29.9086 69.5636 30.4743V30.1364H69.2312V28.7929H68.5739C68.5507 29.6729 68.4425 29.9322 68.2414 30.4665C67.5532 30.2622 66.8959 30.0894 66.2618 30.8044V31.4722H65.9294V31.81L63.9498 31.4722C63.8416 31.6922 63.7334 31.92 63.6174 32.14C63.1766 32.25 62.7359 32.3601 62.2951 32.4779V33.1457H60.9729V33.8136C60.1842 33.6564 59.9366 33.4286 59.3258 33.1457V34.8193C58.5525 34.9293 57.787 35.0392 57.0138 35.1571V35.495C56.0472 35.7228 55.9312 35.8642 55.6915 36.8385C56.1555 36.8621 55.6451 36.7836 56.024 36.5007C56.5421 36.1157 56.3332 37.3256 56.3564 37.5063C55.7919 37.8835 55.908 37.7185 55.6993 38.5121C56.14 38.4021 56.5807 38.2921 57.0215 38.1743L57.3539 37.5063C57.4158 37.4985 58.1272 37.8207 58.6762 37.8442V37.1764C59.0087 37.2864 59.3335 37.3964 59.666 37.5142L59.9986 36.8464C60.4007 36.65 60.9651 36.6656 61.3208 36.5085V35.165C62.1018 35.0314 63.1379 34.5286 64.29 34.8272V35.165H65.6124V34.8272H66.2696V33.4835H66.9269V34.1514C67.9167 33.9314 68.9063 33.7035 69.8961 33.4835L70.2287 33.8214C71.1334 33.1772 70.5301 32.6743 72.2081 32.4779C72.587 32.8629 72.2082 32.6114 72.8654 32.8157V31.81L74.5126 31.4722V30.8044C75.6029 30.9851 76.0125 31.2286 76.492 30.8044H76.8246C77.2421 30.2858 76.4688 30.1286 77.157 29.7986V30.1364H77.4895V29.1308C78.2163 29.0129 79.1983 28.6908 80.1262 29.1308C80.2345 29.3508 80.3428 29.5786 80.4588 29.7986H81.116V29.1308C81.781 29.3194 81.4022 29.0915 81.7733 29.4686L82.7631 29.1308V28.7929H83.7529C83.9694 28.4551 84.1935 28.125 84.4101 27.7872C84.9591 27.8972 85.5082 28.0072 86.0572 28.1251V28.4629C86.2969 28.51 87.2712 28.1644 88.3692 28.1251L88.0368 27.1194H88.6939V27.4572H90.0161L90.3488 27.795V27.4572L91.3384 27.1194C91.3152 26.2394 91.207 25.9801 91.0059 25.4458H92.9855C93.3644 25.0608 92.9856 25.3123 93.6428 25.108C93.898 24.1023 93.8438 24.228 94.9651 24.1023C95.3362 24.6758 95.1739 24.558 95.9549 24.7701C96.2873 23.9294 96.6353 23.018 97.2771 23.4266H97.6095V24.4322H98.2669C98.5066 23.5051 98.3597 23.6859 99.2567 23.4266V23.0887L101.236 22.7509C101.236 22.7509 101.383 23.238 101.893 23.0887L102.226 22.4209H103.216V21.753L103.873 22.0908V22.4287C104.306 22.5937 103.942 22.2715 104.205 22.0908C105.033 21.863 104.739 21.918 105.195 21.423H105.528V20.7552L106.185 20.4173C106.572 19.993 106.742 19.443 107.175 19.0737V19.4116H108.164C108.273 19.8595 108.381 20.3073 108.497 20.7552H108.829C109.634 19.388 110.677 19.5138 112.456 19.0816C112.556 19.058 112.541 18.618 113.113 18.7437V19.0816C113.771 19.3016 114.436 19.5294 115.093 19.7494V19.4116H115.425L115.093 18.4059C115.309 18.2959 115.533 18.1859 115.75 18.068C116.206 17.3687 115.603 17.5966 116.407 17.0623V16.7245L118.054 16.3866C117.876 17.3216 117.799 16.4181 118.054 17.3923H118.387V16.7245C119.044 16.8345 119.709 16.9444 120.366 17.0623V16.7245C120.722 16.4181 120.428 16.7795 120.699 16.3866H120.366V16.0488H121.356C121.426 16.8424 121.495 16.8816 121.689 17.3923C122.067 17.0073 121.82 17.3923 122.021 16.7245C122.4 16.3395 122.153 16.7245 122.354 16.0567C123.343 15.7188 124.333 15.3888 125.323 15.0509L125.655 15.3888C125.764 14.3046 125.957 14.4067 126.313 13.7153H126.97V14.0531H127.302V13.7153H128.625L128.957 12.7096C129.816 13.0631 130.349 13.3224 131.594 13.3774C131.486 13.1574 131.377 12.9296 131.261 12.7096C131.486 12.3403 133.117 12.2381 133.574 11.7038L133.241 11.036H133.574V10.6981C134.447 11.091 134.818 11.3424 136.21 11.3659V11.0281H135.878V10.0224C136.922 10.2424 136.543 10.5331 136.868 10.6902C137.254 10.6667 138.043 10.0146 138.847 10.3525L139.18 11.0203H139.837C139.52 12.1281 139.528 12.9924 140.169 14.0374H139.837C139.458 14.4224 139.837 14.171 139.18 14.3753V16.0488H138.847C138.762 16.6067 139.156 16.6302 139.18 16.7166V18.3902C137.997 18.4373 137.308 18.8695 136.543 19.058L135.886 18.7202C135.669 19.0581 135.445 19.388 135.228 19.7258C135.043 19.8044 133.427 19.4745 132.916 19.3881C132.715 20.268 131.981 21.1637 130.937 21.0616C130.937 21.0616 130.759 20.6373 130.279 20.7237L130.612 21.3915H129.29C129.181 21.9494 129.073 22.5072 128.957 23.0651L127.31 22.7273L126.978 23.3951C126.088 23.623 126.112 22.7509 125.988 22.7273L124.998 23.0651L125.331 23.403C125.346 23.5366 125.037 24.1572 124.998 24.7465C123.9 24.8565 122.802 24.9666 121.696 25.0844V24.4166C120.915 24.3459 120.877 24.2751 120.374 24.0787V25.0844C120.304 25.2258 118.108 26.7737 119.384 27.4337H118.395V27.0958C118.078 26.4751 118.062 27.7637 118.062 27.7637C117.691 28.0465 118.016 27.7243 117.73 28.1015C118.657 27.7872 118.65 27.7479 119.709 28.1015V28.4394L120.699 28.1015L120.366 27.7637L120.699 26.758C122.245 27.363 123.266 26.9544 124.325 26.0901C124.434 25.8701 124.542 25.6422 124.658 25.4222H126.305C126.305 25.4222 126.274 25.2258 126.962 25.0844V26.0901H127.295V25.4222C128.702 25.3986 129.483 25.3515 130.264 24.7544L130.596 24.0865C131.145 24.1965 131.695 24.3066 132.244 24.4244C131.865 24.0394 132.243 24.2908 131.586 24.0865V23.4187C131.919 23.5287 132.243 23.6387 132.576 23.7565V23.0887H133.233V23.7565C135.143 23.5994 136.512 22.5073 137.85 21.7452V22.7509H138.507V22.083H140.819V21.7452H141.809V21.4073C142.466 21.5173 143.131 21.6273 143.788 21.7452C144.067 21.368 143.749 21.698 144.121 21.4073V20.0637C144.778 19.9537 145.443 19.8437 146.1 19.7258C145.992 20.0637 145.884 20.3937 145.768 20.7316H146.1V21.0695C146.471 20.7866 146.147 21.1087 146.433 20.7316C146.812 20.3466 146.564 20.7316 146.765 20.0637C147.283 20.0873 149.077 20.4015 149.077 20.4015V20.0637H149.41V19.058C149.773 18.5866 150.894 18.7124 151.722 18.7202V19.058L153.701 18.7202V18.3823H154.358V18.0444H155.348L155.016 19.0502H155.348C155.588 18.123 155.441 18.3037 156.338 18.0444V18.7124C156.671 18.6024 156.995 18.4923 157.328 18.3745V18.0367C158.101 17.9267 158.867 17.8166 159.64 17.6988V17.3609H160.63L160.962 16.693C161.24 16.583 163.135 17.0466 163.599 17.3609V16.693L164.589 16.3552V16.0173C165.037 15.8759 164.457 16.261 164.921 16.3552C165.47 16.4652 165.509 16.0331 165.578 16.0173C166.181 15.8916 166.854 16.4573 167.225 16.6852V16.3474C168.254 15.3967 167.303 14.9252 169.205 14.6738V15.0116H170.195L169.862 15.6795C170.288 16.2217 170.481 15.3102 170.852 16.6852C171.285 16.3316 171.347 16.0017 171.842 15.6795V16.6852H172.499C172.391 16.0173 172.282 15.3417 172.166 14.6738C173.713 14.1395 173.28 14.9331 174.146 13.0003H174.479C174.44 13.7153 174.138 14.1474 174.146 14.3438L174.479 14.6817C175.082 14.2574 174.517 14.226 174.811 14.0139C175.19 13.731 175.02 14.3202 175.144 14.3517C175.476 14.2417 175.801 14.1317 176.133 14.0139V13.3459C176.876 13.2124 177.402 12.796 178.445 13.0081C178.445 13.0081 178.461 13.4481 179.103 13.3459V13.0081H180.75V13.3459C179.961 13.5502 180.139 13.456 179.76 14.0139H180.417C181.368 12.4189 182.953 12.9767 184.709 12.3403L185.041 11.3346C185.985 11.3346 186.456 11.4524 187.021 11.6724V10.3289H187.353C187.57 10.6667 187.794 10.9967 188.01 11.3346H188.343L188.01 12.0024H188.343V12.3403C189.286 13.0317 189.194 11.7431 189.665 13.3459H190.322V14.0139H190.98C190.872 14.3517 190.763 14.6816 190.647 15.0195H190.98C191.204 15.5223 191.212 15.5774 191.312 16.3631H191.97V17.0309C192.48 17.3295 192.658 17.526 192.959 18.0367C194.026 17.4474 193.586 17.2352 194.939 17.6988L194.606 16.693H195.264V16.0252H195.921V16.3631H196.253V16.0252L197.243 16.3631L196.911 17.3687H197.568C197.808 16.4416 197.661 16.6224 198.558 16.3631C199.053 15.7738 199.447 15.7266 200.537 15.6952V15.0274C201.195 14.8074 201.859 14.5795 202.517 14.3595C202.54 15.2395 202.648 15.4988 202.849 16.0331C203.22 15.7502 202.896 16.0723 203.182 15.6952H203.514V14.6896C204.504 14.7996 205.494 14.9095 206.484 15.0274V14.3595H207.141L207.473 13.3538C207.914 13.4638 208.355 13.5738 208.796 13.6917C208.904 13.4717 209.012 13.2439 209.128 13.0239L210.775 13.3617V14.0295C211.618 13.5109 213.049 11.9474 214.077 12.686H214.734V13.3538H215.067V12.686C216.652 12.5995 216.66 12.4503 218.036 12.686C218.144 12.1281 218.252 11.5703 218.368 11.0124C219.892 10.7217 221.044 10.7217 221.995 11.0124V10.3446H223.974V10.6824H224.964V11.0203C225.297 10.9103 225.622 10.8002 225.954 10.6824V10.3446C225.575 9.95959 225.823 10.3446 225.622 9.67676C226.704 9.70033 226.596 10.101 227.268 9.67676L227.601 9.00883L229.581 9.67676V10.3446C230.47 10.3446 231.452 10.4545 231.893 10.0067V9.33886L232.55 9.67676V9.33886C233.207 9.22886 233.872 9.11892 234.529 9.00106C234.839 9.20534 234.413 9.48029 234.862 9.33886L235.194 8.67103C235.612 8.67103 236.037 9.26811 236.841 9.00883V8.67103C237.39 8.56103 237.939 8.45099 238.488 8.33314L238.156 9.33886H238.488C239.223 10.1481 239.107 9.81033 240.136 9.67676C240.097 10.7375 239.494 10.3052 240.468 10.6824C240.615 11.5152 240.769 11.916 240.8 13.0317C239.888 13.2753 240.066 13.1259 239.811 14.0374H239.478V15.7109C238.689 15.8681 238.442 16.0959 237.831 16.3787V15.3731H237.499C237.011 17.2509 236.927 16.0645 235.852 16.7166V17.0545L234.529 18.0602C234.638 17.7223 234.746 17.3924 234.862 17.0545H234.529C234.328 17.5888 234.235 17.8481 234.197 18.7281C232.952 18.9952 232.349 19.3802 230.57 19.3959V18.7281H229.913V19.3959H228.266V19.7337H228.598C228.39 20.213 228.212 19.9851 227.941 20.4015H227.284L227.617 19.7337H227.284C226.959 20.1894 227.091 20.3937 226.294 20.4015C226.294 20.4015 226.062 19.9223 225.637 20.0637C225.529 20.2837 225.42 20.5116 225.304 20.7316H224.647L224.315 22.743L222.992 23.0808V21.7373H222.335C222.096 22.8137 221.887 22.9551 220.688 23.0808L221.021 22.0751H220.688C220.564 22.4601 220.595 23.2694 220.031 23.0808L219.698 22.0751C219.366 22.1851 219.041 22.2951 218.709 22.413V23.0808C218.183 22.8765 217.928 22.7823 217.062 22.743V21.7373H216.729V22.743C217.108 23.128 216.861 22.743 217.062 23.4109C216.288 23.5209 215.523 23.6308 214.75 23.7487V24.4166C213.582 24.5423 213.744 24.833 212.77 25.0844V26.0901C211.966 25.9016 212.043 25.7365 211.448 25.4222V26.0901H211.115V27.0958H211.448V26.4279H212.105V27.0958C212.654 26.9858 213.203 26.8758 213.752 26.758V27.7637H214.409V26.758C214.958 26.868 215.507 26.9779 216.056 27.0958C216.211 26.2943 216.435 26.0429 216.714 25.4222C217.788 25.4301 219.095 25.273 219.683 25.7601H220.015C220.124 25.5401 220.232 25.3123 220.348 25.0923H221.005V24.7544H221.662V24.4166L222.32 24.7544V24.4166H225.622C225.513 24.0787 225.405 23.7487 225.289 23.4109H225.946V23.073H226.279V23.4109L227.268 23.7487C227.292 24.2201 227.346 23.843 226.936 24.0865C227.307 24.4401 226.936 24.2359 227.593 24.4244V24.0865H227.926V23.0808H228.258C228.544 22.6173 228.506 22.4994 228.591 21.7373C229.372 21.698 229.426 21.6351 229.913 21.3994V21.7373H230.246V22.0751L229.913 22.743H230.903V22.0751C231.676 21.9651 232.442 21.8552 233.215 21.7373V22.0751H233.547C233.919 21.808 233.424 21.6352 233.88 21.7373V22.0751H235.202V22.743H235.535C235.643 22.0752 235.751 21.3994 235.867 20.7316H236.524V21.3994H236.857V20.3938C237.615 20.4252 237.715 20.6766 238.179 20.7316L238.512 20.0637C238.512 20.0637 239.416 20.378 239.834 20.4015V19.7337L240.166 20.0716C240.607 19.9616 241.048 19.8516 241.489 19.7337V20.0716H243.136V19.0659H243.793V19.4038H244.125V19.0659L244.783 19.4038L245.115 18.3981C245.989 18.0681 245.803 19.1287 246.437 19.0659V18.7281C247.883 18.3824 248.255 17.9031 249.739 17.7224V18.0602H249.407C248.78 18.3509 250.064 18.3981 250.064 18.3981C250.342 18.7752 250.025 18.4451 250.397 18.7359V18.068L252.044 17.7302C252.152 17.5102 252.26 17.2823 252.376 17.0623L252.709 17.4002C254.665 17.5259 254.92 16.7009 256.01 16.0567V17.0623H256.343C256.722 16.6773 256.343 16.9288 257 16.7245V16.0567C257.333 16.1667 257.657 16.2766 257.99 16.3945L258.322 15.7266H259.645V15.3888H259.977C260.178 16.1903 260.085 16.0095 260.634 16.3945V15.3888C262.367 15.106 262.096 15.3495 263.604 16.0567C263.774 15.271 264.083 14.7995 264.593 14.3831C264.972 14.7681 264.593 14.5166 265.251 14.7209V14.0531H266.241V13.3853C266.79 13.4953 267.338 13.6052 267.887 13.7231V14.391H268.545V13.3853C269.264 13.4324 269.643 13.7231 269.867 13.7231V13.3853L270.857 13.0474C270.965 13.2674 271.073 13.4953 271.189 13.7153C272.241 14.0296 273.818 13.016 274.491 12.7096L274.159 11.7038H275.148C275.349 12.5053 275.257 12.3246 275.806 12.7096C276.084 13.0867 275.767 12.7567 276.138 13.0474C276.161 12.1674 276.27 11.9081 276.471 11.3738C277.128 11.2638 277.793 11.1539 278.45 11.036C278.729 11.4131 278.412 11.0831 278.783 11.3738C278.528 11.7117 278.381 11.7039 278.125 12.0417H279.115L278.783 11.036L279.115 10.6981C279.602 10.8553 279.641 11.0832 280.437 11.036V10.6981H280.77V11.036C281.211 11.146 281.651 11.256 282.092 11.3738V11.7117C283.438 12.2303 284.048 11.4682 284.729 12.0496C285.757 12.741 284.884 12.4817 285.386 13.3931L286.043 13.7309V14.3988H286.376C286.678 14.8546 286.623 14.9881 286.709 15.7424L285.386 15.4045C285.649 16.4887 285.997 16.5595 286.043 18.0838C285.672 18.3666 285.997 18.0445 285.711 18.4216H285.379C285.278 17.4159 285.332 17.5102 284.721 17.078V17.4159H285.054C284.837 17.8638 284.613 18.3116 284.397 18.7594C283.538 18.7752 283.26 18.8302 282.749 19.0973V19.4351C282.185 19.6316 282.177 19.1209 282.092 19.0973C280.909 18.7909 280.159 19.5216 279.78 20.1031H279.448C279.339 20.7709 279.231 21.4466 279.115 22.1144H278.458L278.125 21.4466C277.685 21.5566 277.244 21.6665 276.803 21.7844C276.873 22.578 276.942 22.6173 277.136 23.128C276.37 23.0966 276.293 22.8608 275.813 22.7901L275.481 23.4579C275.04 23.5679 274.599 23.678 274.159 23.7958C273.919 24.723 274.066 24.5423 273.169 24.8016C272.009 25.8623 271.035 24.3772 270.857 24.4637V24.8016C270.308 25.1394 269.759 25.4693 269.21 25.8072C269.388 26.9779 269.534 26.4279 269.21 27.4807H269.542V27.1429H270.865V27.8108L271.854 27.4729V27.1351L272.844 27.4729V26.4673C273.177 26.5773 273.501 26.6872 273.834 26.8051V26.4673L273.501 26.1294H275.481C275.589 26.4672 275.697 26.7972 275.813 27.1351C276.03 27.0251 276.471 26.4673 276.471 26.4673C276.803 26.5773 277.128 26.6872 277.46 26.8051V26.4673C277.948 26.208 278.009 26.2158 278.783 26.1294V25.4615H279.44V24.7937H280.762V25.4615C281.505 25.3751 281.636 25.4301 282.084 25.1236V24.7858H282.742V24.4479H283.399V24.1101C283.987 23.6309 284.188 23.3558 285.046 23.1044V24.1101H286.368C286.477 23.5523 286.585 22.9944 286.701 22.4366H287.358C287.25 22.7744 287.141 23.1045 287.025 23.4423H287.358C287.83 22.963 289.198 22.5859 289.995 22.4366V21.7688C290.436 21.6588 290.876 21.5487 291.317 21.4309V20.4251H291.974V21.4309H292.632V20.4251H294.279C294.17 20.763 294.062 21.093 293.946 21.4309H294.603C294.944 21.0459 295.214 20.7866 295.926 20.763V21.1008H296.258L296.591 20.763C296.9 20.158 297.047 20.2365 297.248 19.4194L298.238 19.0816V18.7437L298.57 19.0816L299.56 18.7437V19.7494H300.217C300.287 18.9559 300.356 18.9166 300.55 18.4059L301.207 18.7437V18.4059C301.679 17.9895 301.717 17.4787 302.197 17.0623C302.297 17.2194 302.87 18.2802 303.187 18.068L303.519 17.0623C304.95 16.9523 306.38 16.8424 307.811 16.7245V17.0623C306.898 17.3059 307.076 17.1566 306.821 18.068C307.64 17.9187 308.035 17.7617 309.133 17.7302V17.3923H308.8V15.7188C309.349 15.8288 309.898 15.9388 310.447 16.0567C310.556 15.7188 310.664 15.3888 310.78 15.0509C311.159 15.4359 310.911 15.0509 311.112 15.7188L312.102 16.0567V15.7188C312.782 15.3416 312.698 15.2002 313.749 15.0509V14.0452C314.453 14.0059 314.878 13.6996 315.071 13.7074L315.404 14.0452V13.3774L317.051 13.0395V13.7074C317.267 13.5974 317.492 13.4874 317.708 13.3695V13.0317C318.234 12.9689 318.118 13.6131 318.365 13.6996H319.688C319.796 13.1417 319.904 12.5839 320.02 12.026C320.569 12.136 321.118 12.2459 321.667 12.3638L322 11.696H322.332V12.0339C322.665 11.9239 322.989 11.8138 323.322 11.696V11.0281C323.701 11.4131 323.454 11.0281 323.655 11.696H324.312C324.466 10.8946 324.691 10.6431 324.969 10.0224C326.067 10.0381 327.938 10.3603 327.938 10.3603V10.0224H328.596V9.68462H329.585C329.694 9.46462 329.802 9.23669 329.918 9.0167C330.25 9.12669 330.575 9.23673 330.908 9.35459V9.69249H332.555V9.02456L333.877 8.68676V9.35459H334.534C334.743 10.2739 334.967 10.1167 335.191 11.0281H336.181C336.421 11.9553 336.274 11.7746 337.171 12.0339V12.7017C335.199 13.1103 335.462 14.0452 334.859 15.7188H336.839L337.171 14.3753C338.547 14.1631 338.107 14.0453 339.483 13.7074V14.3753C341.045 13.7074 340.813 13.7074 342.12 14.3753V13.7074C342.561 13.5974 343.001 13.4874 343.442 13.3695V12.7017H344.099V13.0395H344.432V12.7017C345.182 12.5524 345.321 12.8745 345.754 13.0395V12.7017H345.422C344.811 12.3796 346.079 12.3638 346.079 12.3638V11.696H346.736V11.0281C347.772 11.2246 348.205 11.5703 349.373 11.696L349.705 10.6902C349.705 10.6902 349.002 10.6353 349.373 10.3525H350.03V10.6902H352.01V9.68462C353.061 9.90462 352.659 10.1796 352.999 10.3525C353.548 10.2975 353.61 9.69248 353.657 9.68462C354.291 9.50391 354.113 9.90456 354.314 10.0224H354.646V9.68462C355.087 9.79462 355.528 9.90456 355.969 10.0224C356.209 9.09529 356.061 9.27598 356.958 9.0167V9.68462H358.281C358.59 9.07963 358.737 9.15813 358.938 8.341L359.928 8.6789V8.341C360.144 8.231 360.369 8.12106 360.585 8.0032V8.67103H361.242L360.91 7.66531C361.699 7.50817 361.946 7.28033 362.557 6.99748V8.341C364.273 7.88529 363.732 7.60249 365.859 8.0032V6.99748H366.848V7.33537C366.709 7.5318 366.307 7.3825 366.516 8.0032H366.848C367.382 5.92894 367.552 7.43743 368.828 6.65958C369.578 6.20387 368.805 5.42602 370.475 4.98603V5.32392L371.465 4.98603V5.65395H371.797V4.98603C372.965 5.11174 372.802 5.40253 373.777 5.65395V6.32178C374.086 6.8482 376.135 6.94249 375.099 7.99534H375.756V9.33886L375.099 9.67676C375.084 9.78675 375.408 10.4231 375.432 11.0203H376.089C375.934 11.8217 375.71 12.0731 375.432 12.6938C374.844 12.7253 374.241 13.0474 374.109 13.0317V12.6938H372.787V13.0317L370.808 13.3695V14.0374C370.367 14.2574 369.926 14.4852 369.485 14.7052V14.3674H369.153V15.3731L366.841 16.0409C367.22 16.4259 366.841 16.1745 367.498 16.3787V16.7166C368.078 16.9916 368.557 16.5202 368.82 16.3787V16.0409H369.81V15.3731C371.349 15.2945 371.689 14.886 372.779 14.3674V14.0295H375.091V14.3674H374.759C374.38 14.7524 374.759 14.5009 374.102 14.7052V15.3731C375.447 14.9803 374.45 15.0667 375.091 14.3674L375.749 14.7052V14.3674H376.406V14.0295H377.396C377.744 13.8252 378.215 12.3717 379.043 12.686V13.0239H379.7V12.0181C380.032 12.1281 380.357 12.2381 380.69 12.3559V12.0181C381.347 11.9081 382.012 11.7981 382.669 11.6802V12.3481H383.326C383.435 12.6859 383.543 13.0159 383.659 13.3538H383.991V12.686H384.649C384.842 11.4367 384.842 11.916 384.649 10.6746C384.749 10.7139 387.827 11.4053 387.95 11.3424V11.0046H388.283V9.66103H388.616C389.288 10.2739 390.116 9.75531 391.252 9.66103V8.9932C391.917 9.18177 391.538 8.95386 391.91 9.331C393.124 8.97743 392.814 8.65532 393.557 7.98747V7.64958C394.392 7.12316 396.162 7.62601 397.516 7.64958C397.724 6.7303 397.949 6.88744 398.173 5.97602C399.588 5.92102 399.302 5.7639 400.152 5.30819V6.31392H401.475C401.544 5.52036 401.614 5.4811 401.807 4.97039L402.797 5.30819L403.13 4.64036H403.787V4.30247C404.119 4.19247 404.444 4.08253 404.776 3.96467L405.109 4.97039C405.944 4.28683 405.248 4.1611 406.756 3.96467V4.30247C406.377 4.60889 406.369 4.54611 406.099 4.97039H406.431V5.30819C407.12 4.93891 407.019 4.76608 408.078 4.64036C408.357 5.0175 408.04 4.68755 408.411 4.97826C408.024 5.61468 408.132 5.30038 407.421 5.64609V5.98389H408.078C407.97 6.65174 407.862 7.32749 407.746 7.99534H408.078V8.33314H407.746V9.00106C407.854 9.78677 407.962 10.5646 408.078 11.3503H407.746C407.467 11.7353 407.576 11.8217 407.088 12.0181V11.6802H406.756C406.54 12.0181 406.315 12.3481 406.099 12.686H405.109L404.776 13.3538C404.336 13.4638 403.895 13.5738 403.454 13.6917C403.346 14.0295 403.238 14.3596 403.122 14.6974L402.132 15.0352L401.799 15.703H401.467V15.3652C400.253 15.0745 399.874 16.5045 399.155 15.703V16.371H398.498C398.606 16.8188 398.714 17.2666 398.83 17.7145H398.498C398.127 18.2881 398.289 18.1702 397.508 18.3823C397.477 18.3116 397.036 17.1645 396.851 17.3766V17.7145L396.193 18.0523C396.085 18.3901 395.977 18.7202 395.861 19.058H394.871C393.765 19.608 394.438 19.9459 392.559 20.0637C392.667 20.4016 392.776 20.7316 392.892 21.0695C393.332 20.9595 393.773 20.8494 394.214 20.7316V21.7373H394.546V21.3994H395.869C396.874 21.0144 397.338 20.4645 398.838 20.3938V19.7258C399.774 19.5137 399.712 19.1052 399.828 19.058H401.15V19.3959L402.472 19.058C402.472 19.058 402.619 19.4745 403.13 19.3959V19.058L404.452 19.3959V19.058C404.831 18.673 404.583 19.058 404.784 18.3902H404.452V18.7281C404.166 19.3645 404.119 18.0602 404.119 18.0602C405.325 18.1702 406.54 18.2802 407.746 18.3981L408.078 17.7302C408.411 17.6281 408.681 18.2487 409.4 18.068V17.7302H411.048V18.068H411.38V17.7302H412.702L413.035 16.7245H413.367L413.035 16.0567H414.025C414.403 16.4417 414.025 16.1902 414.682 16.3945V15.7266C415.471 15.8838 415.718 16.1116 416.329 16.3945V16.0567H415.996C415.385 15.7345 416.654 15.7188 416.654 15.7188V16.0567C417.033 16.4417 416.785 16.0567 416.986 16.7245C417.69 16.6852 418.107 16.3866 418.308 16.3866V16.7245H418.966C419.058 16.1274 419.298 16.0567 419.298 16.0567C419.19 15.7188 419.082 15.3888 418.966 15.0509H419.298V14.7131C420.234 15.1373 420.659 15.5773 421.935 15.7188V15.0509C423.86 14.6031 422.12 14.2024 423.914 15.0509V13.7074H424.247V14.0452C424.688 13.7074 425.129 13.3774 425.569 13.0395V14.3831H425.902C426.064 14.226 425.809 13.8409 426.234 14.0452V14.3831H426.567C426.567 14.3831 426.474 15.5852 426.899 15.0509V14.7131C427.278 14.3281 427.031 14.7131 427.232 14.0452H426.242C426.497 13.0395 426.443 13.1652 427.564 13.0395V13.3774L428.554 13.0395V13.3774H429.544V13.7153C430.394 13.896 431.353 12.6702 431.856 12.3717L432.846 12.7096V12.3717C433.395 12.0102 433.395 11.916 434.168 11.7038C434.06 12.0417 433.951 12.3717 433.835 12.7096H434.168V13.0474C434.5 12.8274 434.825 12.5995 435.158 12.3795V12.0417H435.815C436.41 11.7746 436.534 11.2795 436.805 10.6981C437.354 11.146 437.903 11.5939 438.452 12.0417C438.653 11.3817 438.467 11.2246 439.109 11.036C439.217 11.0753 439.209 11.6646 439.766 11.7038C440.47 10.7531 440.06 11.0281 441.088 11.3659C441.197 10.2817 441.39 10.3839 441.746 9.69249C442.898 9.8732 442.356 10.0225 443.393 9.69249V11.7038H443.725C444.096 11.1303 443.934 11.2481 444.715 11.036C445.333 12.0889 445.937 11.9867 446.037 13.7153C446.942 13.7546 448.427 14.1789 448.674 13.7153H449.006V14.0531C449.919 14.2731 450.955 14.9881 451.318 15.7266V16.7324H451.651C452.107 17.3531 452.416 17.5102 452.641 18.4059C452.308 18.2959 451.984 18.1859 451.651 18.068V18.4059H451.984V19.4116H452.316C452.618 19.9066 452.61 20.2366 452.648 21.0852C452.27 21.4702 452.517 21.0852 452.316 21.753C451.218 21.863 450.12 21.973 449.014 22.0908V21.423C448.573 21.533 448.133 21.643 447.692 21.7609V21.093C447.475 21.203 447.251 21.313 447.035 21.4309C446.926 21.2109 446.818 20.983 446.702 20.763C446.694 20.763 445.728 21.2187 445.055 20.763L444.723 19.7573C444.336 19.4823 444.158 20.7394 443.4 20.4251V20.0873C443.021 19.7023 443.269 20.0873 443.068 19.4194L442.078 19.7573V19.4194H441.746C441.854 19.0816 441.962 18.7516 442.078 18.4138C442.078 18.4138 441.668 18.3117 441.746 17.746C441.746 17.746 442.295 17.5966 442.078 17.078H441.746C441.367 17.463 441.746 17.2116 441.088 17.4159C440.98 17.7538 440.872 18.0838 440.756 18.4216C439.983 18.3274 439.936 18.3116 439.434 18.0838V17.746C438.877 17.7852 438.877 18.3824 438.776 18.4138C438.026 18.6809 437.446 17.9973 437.129 18.0759V18.4138C436.008 18.8695 435.761 19.4587 434.492 19.7573C434.601 19.4195 434.709 19.0894 434.825 18.7516H434.168C433.681 19.663 433.155 20.2837 431.856 20.4251V19.4194H431.523C431.268 20.4251 431.322 20.2994 430.201 20.4251V19.7573C428.825 20.5194 428.639 20.4409 426.899 20.0952V19.4273H426.567C426.543 20.7237 426.621 20.8101 425.577 21.1008V21.4387C425.26 22.0594 425.244 20.7709 425.244 20.7709H424.587C424.479 20.9909 424.371 21.2187 424.255 21.4387C423.706 21.3287 423.157 21.2187 422.608 21.1008V21.7688H421.618V22.1066C421.239 22.4916 421.487 22.1065 421.285 22.7744L419.306 23.1123V22.4445L416.004 22.7823V23.4501H415.014V23.788C414.72 24.4165 414.682 23.1201 414.682 23.1201C413.622 23.3794 413.97 23.623 412.702 23.788V24.7937C410.754 24.5894 410.901 23.6072 408.743 23.4501C408.736 24.5658 408.573 24.9666 408.411 25.7994H407.754C407.854 25.5087 408.388 25.0608 408.086 24.4558H407.754V24.7937C407.375 25.1787 407.622 24.7937 407.421 25.4615L405.442 25.7994V26.4673C404.336 26.263 403.361 25.5479 402.14 26.1294C401.923 26.4672 401.699 26.7972 401.482 27.1351C400.585 27.4022 400.462 26.2315 400.16 26.1294C399.565 25.9251 399.92 26.5065 399.828 26.7972C399.495 26.6872 399.17 26.5772 398.838 26.4594V27.8029H398.181L397.848 28.4707C397.307 28.6357 397.237 28.1408 397.191 28.1329C396.394 27.9915 396.333 28.4707 395.869 28.4707V28.1329C395.211 28.0229 394.546 27.9129 393.889 27.795V28.4629C391.701 28.6986 390.587 28.7536 388.94 28.4629L388.608 29.4686C387.989 29.3036 387.03 29.3272 385.971 29.1308V28.7929C386.35 28.4079 386.102 28.7929 386.304 28.1251C385.515 28.1565 385.484 28.345 384.981 28.4629V28.1251C384.432 27.7637 384.44 27.6458 383.659 27.4572V26.7893H383.002C382.893 26.4515 382.785 26.1215 382.669 25.7837L380.69 25.4458V24.778C380.953 24.888 381.726 25.4615 382.337 25.1158V24.778C381.362 24.1337 381.533 23.4423 381.679 22.4287C382.12 22.2087 382.128 21.9023 382.337 21.7609C382.553 21.8709 382.777 21.9808 382.994 22.0987V20.7552H383.326C383.218 20.0873 383.11 19.4116 382.994 18.7437C382.661 18.6337 382.337 18.5238 382.004 18.4059C382.112 18.6259 382.221 18.8538 382.337 19.0737L381.347 18.7359V19.4038H381.014C380.906 19.6238 380.798 19.8516 380.682 20.0716H379.692C379.769 20.8495 380.056 20.2759 379.692 21.0773L379.035 20.7394V21.4073C378.679 21.9965 378.702 20.7394 378.702 20.7394C378.153 20.8494 377.604 20.9595 377.055 21.0773C377.055 21.0773 376.901 20.5744 376.398 20.7394C376.29 20.9594 376.182 21.1873 376.066 21.4073H375.076C374.968 21.7451 374.859 22.0751 374.743 22.413C374.233 22.138 373.282 21.203 372.431 21.4073C372.323 21.6273 372.215 21.8551 372.099 22.0751C371.465 22.0122 371.55 21.423 371.442 21.4073H371.109V21.7452H369.462V22.083H370.119C370.011 22.7508 369.903 23.4266 369.787 24.0944H369.129C368.828 23.9608 368.913 23.073 367.807 23.4266L367.475 24.0944H365.828V23.7565C365.348 23.4894 365.271 23.5209 364.505 23.4187V24.4244C364.173 24.3144 363.848 24.2044 363.516 24.0865V24.4244C363.137 24.8094 363.384 24.4244 363.183 25.0923C361.954 25.4458 362.294 25.7837 361.536 26.4358V26.7737H360.546V25.768H359.889V26.4358H358.242V26.0979H357.91C357.693 26.5458 357.469 26.9937 357.252 27.4415L356.595 27.1036V27.4415L355.605 28.1093V27.1036H355.273V27.4415L354.283 27.1036V27.4415C353.819 27.4179 354.415 27.1586 353.951 27.1036L351.971 27.4415V28.4472H351.639V28.1093C350.742 27.6222 350.022 28.5808 349.659 28.7772C349.473 27.7243 349.334 27.3708 348.337 27.1036C348.522 27.9208 348.685 27.8423 348.994 28.4472H348.337C347.811 28.9422 346.396 28.8165 345.367 28.785V28.1172H344.71V28.785C344.053 28.675 343.388 28.5651 342.731 28.4472C342.568 27.6537 342.421 27.6536 342.073 27.1036C342.522 26.7108 342.398 27.3551 342.731 26.7658C342.298 26.4908 342.344 26.53 342.073 26.0979H342.731C342.8 25.3043 342.87 25.2651 343.063 24.7544C342.127 24.5344 341.818 24.1337 341.416 23.4109H342.406C342.622 22.5152 342.847 21.6194 343.063 20.7316C342.63 20.4566 342.677 20.4959 342.406 20.0637C341.702 20.4723 341.687 20.818 340.759 21.0695V20.4015H340.426V21.4073C339.143 21.5173 338.942 21.9494 338.114 22.413C338.045 21.6194 337.975 21.5802 337.782 21.0695C337.411 21.3523 337.735 21.0301 337.449 21.4073H337.117L337.449 21.7452L337.117 22.7509C335.717 22.5073 335.532 22.6959 333.815 22.7509L334.147 23.7565H333.815C333.544 24.1965 333.583 24.1494 333.158 24.4244V23.0808C331.48 23.1751 331.704 23.6779 329.856 23.7487C329.609 24.8879 329.152 25.2965 327.876 25.4222V24.7544H327.544V25.0923C327.258 25.7287 327.211 24.4244 327.211 24.4244C326.879 24.3144 326.554 24.2044 326.222 24.0865L326.554 24.7544H325.897C325.371 25.2494 325.085 25.9094 324.907 26.7658H323.917V26.0979C321.799 26.1765 321.265 27.3236 319.626 27.7715C319.835 26.8522 320.059 27.0093 320.283 26.0979C318.172 26.5693 316.672 28.0465 315.334 25.7601C316.819 24.8801 316.038 24.5108 315.667 23.0808H314.345C314.066 22.7037 314.383 23.0337 314.012 22.743C314.113 22.4523 314.646 22.0044 314.345 21.3994H314.012V21.0616H313.022C312.466 21.9887 311.607 21.7373 311.043 22.4051L310.71 23.4109H309.721V23.7487C309.388 23.8587 309.063 23.9687 308.731 24.0865V23.4187C307.702 23.6466 307.231 24.4244 306.419 24.7622H305.096V25.1001C304.764 24.9901 304.439 24.8801 304.107 24.7622V25.4301L302.127 25.768V26.1058H300.805C300.697 26.1293 300.72 26.5694 300.148 26.4437V26.1058H299.49V25.768L297.178 25.4301C296.939 25.9015 296.583 26.4437 296.189 26.7737V25.4301H295.856V26.0979C295.524 25.9879 295.199 25.878 294.866 25.7601C294.712 26.5458 294.317 26.7972 294.209 27.4337H294.541C294.65 27.7715 294.758 28.1015 294.874 28.4394C292.995 28.463 292.802 28.0857 291.572 27.7715C291.085 28.6829 290.559 29.3036 289.26 29.445V28.7772H288.603V30.1208H287.946V30.4586H285.634V30.7965H284.976V31.1343C284.76 31.0243 284.536 30.9143 284.319 30.7965V31.1343H283.987C283.5 30.7336 284.265 30.8907 283.654 30.4665C283.693 31.5272 284.296 31.095 283.322 31.4722V30.8044C281.466 31.0322 282.255 31.6372 281.342 32.1479H280.685C280.577 32.4857 280.468 32.8158 280.352 33.1536H278.705V32.8157C279.525 32.2029 279.131 32.5565 279.038 31.4722H278.381V32.4779C275.512 32.4858 275.009 33.0593 272.442 33.1457V32.4779C272.001 32.6979 271.56 32.9257 271.12 33.1457C271.228 33.5936 271.336 34.0414 271.452 34.4893C270.594 34.4343 270.323 34.4185 269.805 34.1514V33.8136L268.815 34.1514C268.761 34.1435 268.699 33.68 268.158 33.8136V34.1514H267.501V34.4893H266.844V34.8272C266.387 35.1336 266.264 35.0628 265.521 35.165V34.1592H265.189V34.4971H263.542C263.318 34.5993 263.526 34.9292 262.552 35.165C262.444 35.5028 262.336 35.8328 262.22 36.1707H262.552C263.039 36.5793 261.354 36.5006 261.23 36.5085V36.1707C259.908 35.9507 258.593 35.7229 257.271 35.5029C257.449 34.5679 257.526 35.4714 257.271 34.4971C256.915 34.6857 256.583 35.4007 255.949 35.165V34.8272H255.616L255.949 34.1592H255.616C255.237 33.7742 255.616 34.0257 254.959 33.8214C254.85 33.4836 254.742 33.1536 254.626 32.8157H255.283C255.175 32.4779 255.067 32.1478 254.951 31.81H255.283V32.1479C255.57 32.7843 255.616 31.4801 255.616 31.4801H255.949V31.1422C255.732 31.0322 255.508 30.9222 255.291 30.8044C255.399 30.4665 255.508 30.1365 255.624 29.7986H255.291V29.4607H256.281V29.1229C255.848 28.8479 255.894 28.8872 255.624 28.455C256.188 28.0779 256.072 28.2429 256.281 27.4494L257.603 27.1115C257.642 27.0879 258.114 25.8701 258.261 26.1058V26.7737H259.25C259.56 26.1687 259.706 26.2472 259.907 25.4301C259.459 25.0372 259.405 24.8173 259.25 24.0865H259.907V23.4187H260.565V23.0808C259.908 23.1908 259.242 23.3009 258.585 23.4187V23.0808C258.152 23.1044 257.758 23.6544 256.938 23.4187V23.0808C256.281 22.9708 255.616 22.8609 254.959 22.743V24.0865H254.301V24.7544C253.969 24.5344 253.644 24.3065 253.312 24.0865V23.4187L252.979 23.7565C252.6 24.1415 252.848 23.7566 252.647 24.4244H251.324V25.0923C250.667 24.9823 250.002 24.8722 249.345 24.7544C249.237 25.3122 249.128 25.8701 249.012 26.4279C248.208 26.6165 248.286 26.7736 247.69 27.0958V26.758C247.35 26.4673 247.234 26.1765 247.033 25.7522C246.654 26.1372 246.901 25.7522 246.7 26.4201C246.043 26.5301 245.378 26.6401 244.721 26.758V27.4258C243.94 27.4965 243.901 27.5673 243.399 27.7637V27.0958H243.731L243.399 26.0901H243.066V26.758C242.85 26.648 242.625 26.5379 242.409 26.4201C242.03 26.6872 242.277 27.2136 241.419 27.0879C241.311 26.8679 241.203 26.6401 241.087 26.4201H240.754V27.0879L239.764 27.4258C239.594 27.3786 239.563 26.5772 239.107 26.758C238.775 27.2058 238.45 27.6536 238.117 28.1015C237.785 27.9915 237.46 27.8815 237.127 27.7637V28.4315H236.47V29.0993C236.099 28.8165 236.424 29.1386 236.138 28.7615C235.782 28.455 236.076 28.8165 235.805 28.4237H236.138V28.0858H235.148V28.4237H234.815V28.0858H233.826C233.717 27.8658 233.609 27.6379 233.493 27.4179C233.277 27.5279 233.053 27.638 232.836 27.7558C232.388 27.8894 232.975 28.1172 232.503 28.0936V27.7558H231.846C231.839 28.793 231.939 29.4844 232.179 30.1051H230.856V30.7729H230.524V29.7672H229.867L229.534 30.7729C229.163 30.49 229.488 30.8121 229.202 30.435H228.869L229.202 29.4294C228.869 29.5394 228.544 29.6493 228.212 29.7672V30.1051H227.555C227.446 30.3251 227.338 30.5529 227.222 30.7729H225.9V31.1107H225.567C225.405 30.9614 225.66 30.5686 225.235 30.7729L224.902 31.4407L223.255 31.7786V31.1107H222.923L222.59 31.7786H222.258L221.925 31.1107C221.469 30.8986 220.998 30.9458 220.603 30.7729C220.58 32.0693 220.657 32.1557 219.613 32.4465V31.7786H218.956V32.4465H217.309L216.652 34.12H215.995V33.7821C215.886 33.7664 215.237 34.0807 214.672 34.12C214.858 33.3029 215.02 33.3814 215.33 32.7764H214.672L214.34 33.7821L212.028 33.4443C211.68 33.6172 211.788 34.1985 212.028 34.4499H211.371C211.084 34.7957 210.798 34.9136 210.381 35.1179V34.1121C208.904 34.2379 209.422 34.3243 208.069 34.1121V34.4499C208.448 34.8349 208.2 34.45 208.401 35.1179H206.754C206.669 35.1022 206.646 34.6857 206.097 34.78V35.1179H205.44C205.331 35.4557 205.223 35.7856 205.107 36.1235C204.736 35.8406 205.061 36.1628 204.775 35.7857C204.404 35.5028 204.728 35.8249 204.442 35.4478C204.875 35.1728 204.829 35.2121 205.099 34.78H203.777C203.483 35.1335 203.197 35.2199 202.787 35.4478V35.7857L201.798 35.4478V35.7857C202.231 36.0607 202.184 36.0214 202.455 36.4535H201.798C201.411 35.9978 201.194 35.9428 200.475 35.7857V36.4535C199.857 36.2178 199.184 36.1235 198.163 36.1156C197.8 35.4164 197.63 35.5186 197.506 34.4422H196.849V33.7742C196.478 34.0571 196.802 33.735 196.516 34.1121H196.184V34.78L195.527 35.1179V36.1235H195.194C194.861 35.6756 194.537 35.2278 194.204 34.78H193.872C193.439 34.0336 194.05 33.845 193.214 33.1064C193.323 32.6586 193.431 32.2107 193.547 31.7629C193.547 31.7629 193.122 31.5979 193.214 31.0951H193.547V29.4215C193.547 29.4215 193.748 29.4214 193.879 28.7536C194.792 28.51 194.614 28.6594 194.869 27.748H195.527V28.0858L196.516 27.748V27.08L198.163 27.4179C198.403 26.4908 198.256 26.6715 199.153 26.4122V25.0687H199.486L199.153 24.4008H199.486C199.764 24.0237 199.447 24.3537 199.818 24.063V23.7252C200.135 23.1044 200.151 24.393 200.151 24.393L201.14 24.7308V24.393H200.808C200.916 24.0551 201.024 23.7251 201.14 23.3873H203.12V23.7252C203.893 23.6152 204.659 23.5051 205.432 23.3873V22.7194H206.754V22.0516C205.625 22.0359 204.473 21.8237 203.785 21.7137C203.568 22.0516 203.344 22.3816 203.128 22.7194L201.148 23.0572C201.334 22.2401 201.496 22.3187 201.805 21.7137H200.483V22.0516H200.816C201.194 22.578 200.004 22.3658 199.826 22.3894V23.3951H199.493V23.733C198.944 23.843 198.395 23.953 197.846 24.0708C197.955 23.513 198.063 22.9551 198.179 22.3973C197.375 22.5858 197.444 22.743 196.857 23.0651V23.403C196.199 23.183 195.534 22.9552 194.877 22.7352V23.073C194.498 23.458 194.746 23.0729 194.545 23.7408C194.003 23.8429 193.106 24.4401 192.897 24.4087V24.0708H191.908C191.451 23.9765 192.031 23.6309 191.575 23.733L191.243 24.4008H190.585L190.918 23.733H190.585C190.207 24.118 190.585 23.8665 189.928 24.0708V24.7386C189.379 24.8486 188.83 24.9587 188.281 25.0765C188.219 25.0608 188.173 24.5972 187.624 24.7386V25.0765H186.967V25.4143C186.642 25.3436 186.58 24.5108 186.309 24.7465C185.768 25.2022 186.673 25.3908 185.32 25.7522V26.758H184.987V26.0901H184.655C184.546 26.3101 184.438 26.538 184.322 26.758H183C182.605 26.0273 182.273 25.6501 181.353 25.4143V25.7522H180.031L179.698 26.4201L178.708 26.0823V27.0879H178.051C177.239 28.4943 177.316 27.4808 176.404 28.0936C176.512 28.3136 176.621 28.5415 176.737 28.7615C176.079 28.6515 175.414 28.5415 174.757 28.4237C174.726 28.4315 174.587 29.0051 174.1 29.0915V28.7536H172.777L172.445 28.4158V28.7536C171.509 29.3664 171.478 29.72 169.808 29.7593C169.437 29.1857 169.599 29.3036 168.818 29.0915V29.7593H168.161V29.4215C167.744 29.2879 167.295 30.3721 167.171 30.4271C166.491 30.7336 166.228 30.1365 165.849 30.0893V30.4271C165.192 30.5371 164.527 30.6472 163.87 30.765L163.537 29.7593C162.625 30.0029 162.802 29.8536 162.547 30.765C161.558 30.875 160.568 30.9851 159.578 31.1029L159.245 31.7708H156.933V32.1086C156.075 32.3678 155.395 32.14 154.621 32.4465C154.436 31.6293 154.274 31.7079 153.964 31.1029C153.593 31.3858 153.918 31.0636 153.632 31.4407C152.472 32.2736 153.554 32.635 151.985 33.1143V33.4522H150.338L150.005 34.12C149.271 34.4186 149.077 33.7035 148.683 33.7821V34.12C148.026 34.2536 148.265 33.9707 148.026 33.7821H147.693V34.4499C147.361 34.3399 147.036 34.23 146.703 34.1121V33.7742L145.714 34.1121V33.7742H144.391L144.059 33.1064C143.595 33.1064 143.904 33.0043 143.726 33.4443C143.316 33.0593 143.603 33.4442 143.394 32.7764H144.716V32.1086H143.394C143.084 31.5036 142.938 31.5822 142.737 30.765H143.394C143.2 29.3822 143.038 29.1622 142.404 27.748C141.971 27.9208 142.497 27.8815 142.072 28.0858H141.082V28.4237C141.747 28.6122 141.368 28.3843 141.739 28.7615C140.796 28.73 140.324 28.6986 139.76 28.4237V28.7615C140.138 29.1464 139.891 28.7615 140.092 29.4294C138.476 29.4294 138.213 29.8144 137.123 30.0972V29.0915H136.79V29.4294H136.458L135.8 29.0915V30.0972H134.811V29.4294H134.478V30.0972H134.811V31.1029C133.713 31.0951 133.318 30.93 132.499 30.765V31.4329C131.718 31.3936 131.664 31.3308 131.176 31.0951V31.4329C130.797 31.8179 131.045 31.4328 130.844 32.1007C129.104 31.9043 130.086 31.3779 128.532 31.7629V31.0951C128.006 31.0165 128.114 31.6686 127.875 31.7629C126.637 32.2343 125.617 31.9515 124.573 31.7629V32.7686L123.916 32.4307V32.7686C123.251 33.3422 123.947 33.2793 123.583 33.7742H123.251C122.454 32.5643 120.165 33.57 118.634 33.7742V34.78C118.016 34.6071 116.833 33.5778 116.322 33.7742V34.1121H115.99V35.1179C115 35.2279 114.01 35.3378 113.02 35.4557V36.1235H113.353C113.245 36.4613 113.136 36.7914 113.02 37.1292C112.239 37.0899 112.185 37.0271 111.698 36.7914V37.1292H111.366V36.1235H110.708V37.1292H110.376V36.7914H109.054V37.1292L108.396 36.7914V37.1292C107.67 37.3571 107.306 37.2314 106.749 37.4671V38.4727C105.102 38.7242 105.118 38.7713 103.78 37.8049L103.448 38.8106H102.125V39.1485C101.685 39.2585 101.244 39.3685 100.803 39.4863V38.8185H100.146C99.9448 39.9971 99.79 40.3585 98.4987 40.4921V40.1542C98.8776 39.7692 98.6303 40.1542 98.8313 39.4863C98.3906 39.3763 97.9499 39.2664 97.5091 39.1485V38.8106C96.8828 38.6142 97.0528 38.9993 96.8518 39.1485L95.862 38.8106V39.1485H96.1944V40.4921H95.5373V39.8242C94.6326 40.3585 94.9418 40.6491 93.5577 40.8299C93.318 41.757 93.4649 41.5763 92.5679 41.8356C91.6787 42.9041 90.6425 42.6448 89.2661 42.5034V41.8356H90.5883C90.4801 41.4977 90.3719 41.1677 90.2559 40.8299C89.7533 41.0263 89.7146 41.0892 88.9337 41.1678C88.8795 40.2563 88.8253 39.1485 88.2763 38.8185V38.4806C88.516 38.127 88.5316 38.7714 88.9337 38.1428H88.2763C87.6886 37.7892 88.9337 37.8049 88.9337 37.8049C88.7481 36.9878 88.5856 37.0664 88.2763 36.4614H89.2661C89.5367 36.9014 89.4982 36.8542 89.9234 37.1292C89.1193 35.3692 88.7093 33.7428 91.5704 33.7742C91.9493 34.1592 91.5705 33.9079 92.2277 34.1121C92.336 33.5543 92.4442 32.9964 92.5602 32.4386H91.903V33.1064H91.2457L91.5781 32.1007H91.2457C90.9982 32.7371 91.4777 32.4465 90.9132 32.7686C90.4802 32.3758 91.3075 32.2578 90.5806 32.1007V32.7686L89.9234 32.4307V32.7686H90.2559C90.0394 33.2165 89.8151 33.6643 89.5985 34.1121H89.2661V33.1064H88.9337V33.4443H87.9439C87.7274 33.7822 87.503 34.1121 87.2865 34.4499H86.6294V34.7878H85.6396V35.1257H84.9823V35.4635C83.6523 35.9428 82.6549 35 82.0131 35.4635C81.1161 36.0528 80.9692 37.3178 80.6908 37.475H77.7215C77.3426 37.09 77.7214 37.3414 77.0642 37.1371V36.4693H76.7317C76.84 36.9171 76.9482 37.3649 77.0642 37.8128H76.7317C76.1054 38.3628 74.9842 38.1663 74.095 38.4806V38.8185C73.6078 38.9756 72.8037 38.457 72.7727 38.4806V39.1485H71.1256C70.7931 39.9342 70.4683 40.7121 70.1358 41.4978H69.8034V40.4921H69.1461C69.0765 41.2856 69.0069 41.3249 68.8136 41.8356C68.4424 41.5527 68.7673 41.8749 68.4812 41.4978C68.1023 41.1128 68.3496 41.4977 68.1485 40.8299C68.713 40.4527 68.5971 40.6178 68.8059 39.8242H67.8161V41.8356C67.2671 41.7256 66.7181 41.6156 66.1691 41.4978V41.1599C66.548 40.7749 66.3005 41.1599 66.5016 40.4921H65.8442L66.1769 39.8242H65.8442C65.4654 40.2092 65.8444 39.9577 65.1871 40.162C65.102 40.8142 64.8622 40.8141 64.8545 40.8299C64.3286 42.4798 65.1484 42.9749 63.2075 43.1792V42.5113C62.7513 42.6763 62.4807 42.6449 61.8853 42.8492V43.187C61.5528 43.077 61.228 42.967 60.8955 42.8492V43.187H60.2382L60.5708 43.8549H58.5912V44.1927C58.9701 44.5777 58.7226 44.1927 58.9237 44.8605C58.3901 44.837 56.6117 44.5227 56.6117 44.5227C56.5034 44.7427 56.3952 44.9706 56.2792 45.1906C55.3822 45.6855 55.2275 45.277 54.6321 45.1906V45.5285H53.9749L53.6423 46.1963C53.0933 46.3063 52.5444 46.4162 51.9954 46.5341V46.872C51.5546 46.762 51.1139 46.6519 50.6731 46.5341C50.1241 46.6441 49.575 46.7541 49.026 46.872V47.2099C48.044 47.4927 47.6884 46.6755 47.0466 46.5419V46.8798C46.6677 47.2648 46.915 46.8798 46.714 47.5477H45.3917L45.0593 47.2099C44.8892 47.2884 44.9664 47.807 44.402 47.8777V47.5398L43.4122 47.202V47.5398C43.0797 47.6498 42.7551 47.7598 42.4226 47.8777V47.2099C41.8272 47.5242 41.9043 47.6734 41.1002 47.8777V48.5455H40.7677V47.5398C38.9119 47.5162 37.4969 46.7384 36.8088 45.5285L37.4659 45.1906C37.4891 44.7191 37.1412 45.332 37.1335 44.8528C37.2417 44.2949 37.3499 43.7371 37.4659 43.1792H38.1232C37.3964 41.0892 38.9352 39.9263 39.113 37.8128C40.1337 37.6242 41.3168 37.475 42.7395 37.475V36.4693H43.7293C43.9536 35.4871 44.0927 35.3693 45.0516 35.1257V34.4578C46.977 34.01 45.2372 33.6092 47.0311 34.4578V33.79C47.7657 33.6486 48.16 33.4679 48.6781 33.1221V32.7843C49.3353 32.7214 48.9101 33.295 49.3354 32.7843C49.7143 32.3993 49.4668 32.7843 49.6679 32.1164H50.3252C50.7041 30.7572 50.9979 31.4486 51.6474 30.4429C52.3047 30.6629 52.9697 30.8907 53.627 31.1107V30.7729H53.9594V29.4294C52.065 29.4687 51.5391 29.7044 50.0003 29.4294C49.8147 30.4822 49.6756 30.8358 48.6781 31.1029V30.435H48.0209V31.4407C47.3482 31.8022 46.7219 32.4307 45.7089 32.4465L45.3763 32.1086C44.1855 33.02 45.4845 33.6721 43.0642 33.7821L43.3967 32.4386H42.7395V32.7764H43.072C43.0952 32.8942 42.5076 33.9864 42.4148 34.4499H41.7575V33.7821H41.1002V34.4499L40.7677 34.1121C40.1104 34.3321 39.4454 34.56 38.7881 34.78C38.6799 35 38.5717 35.2278 38.4557 35.4478C38.0227 35.6364 38.5253 35.1964 38.1232 35.11C37.7907 35.22 37.466 35.3299 37.1335 35.4478V35.11H36.1437V34.7721H35.8112V35.11C35.8112 35.11 34.8988 34.8035 34.489 34.7721C34.2725 35.33 34.0482 35.8878 33.8317 36.4457C33.5456 36.3435 33.1048 35.8014 32.5094 36.1079V36.4457H32.177V37.4514H31.8443V36.4457H31.5119V37.7892C31.566 38.2606 31.8598 37.6478 31.8443 38.1271L31.5119 38.465C30.9397 38.1743 31.396 38.4256 31.1795 37.7971H30.8468V38.465L29.1999 38.8028L29.5323 38.1349H29.1999C28.6895 38.7164 28.6045 38.4649 27.8776 38.8028V39.1407C27.3905 39.3292 26.6173 39.2271 26.5554 38.8028H26.2228V39.8085H25.8903V39.4706H25.5579V40.1385H24.9005V40.8064C24.0654 40.5392 22.8592 40.7828 21.274 40.8064C21.1658 41.5921 21.0576 42.3699 20.9416 43.1556H20.2843V42.4878C19.7816 42.6842 19.743 42.747 18.962 42.8256V43.8313C18.3048 44.0513 17.6397 44.2791 16.9824 44.4991V44.837H16.3253V45.1748C14.7092 45.7955 14.3302 44.6563 13.3559 46.1806H13.0235L13.3559 46.5184C13.2477 46.8563 13.1395 47.1862 13.0235 47.5241C12.5827 47.4141 12.1418 47.3041 11.7011 47.1863V48.192C10.5335 48.3177 10.696 48.6084 9.72169 48.8598V48.192H9.38905V49.1976C8.73179 49.3076 8.06694 49.4177 7.40967 49.5355L7.07704 50.5412H6.41988C6.31163 50.8791 6.20324 51.209 6.08725 51.5469H5.7548V50.5412H5.42236L5.08991 51.2091L4.10013 50.8712V50.5334C3.45833 50.3684 3.6593 50.7219 3.44279 50.8712L2.12055 50.5334L2.453 50.1955V49.8577H2.12055V48.852H2.453V48.5141H1.79585C1.78812 47.3984 1.6256 46.9977 1.46321 46.1648H0.806062C0.21839 45.8113 1.46321 45.827 1.46321 45.827C1.57147 45.4892 1.67986 45.1592 1.79585 44.8213C3.497 44.8999 3.42732 45.4577 3.44279 43.4778C3.9918 43.3678 4.5409 43.2577 5.08991 43.1399V41.7964L6.0797 41.4585C6.45859 41.0735 6.07959 41.3249 6.73685 41.1207V41.7885H7.39419V41.1207C7.72669 41.2307 8.05148 41.3406 8.38398 41.4585V40.7906H8.05134L8.38398 39.7849H8.71642V39.4471H9.70621C9.69848 38.9757 9.77567 39.3528 9.37357 39.1092V38.7713H10.3634V38.4335H10.696L11.0284 39.1013C12.1265 39.3213 13.2245 39.5492 14.3302 39.7692C14.3612 38.512 14.6317 38.2292 14.9874 37.4199C15.3199 37.5299 15.6447 37.64 15.9772 37.7578V37.09H16.967L16.6345 37.7578H16.967V37.4199H17.6243C17.9877 37.1292 17.7711 36.6106 18.2815 36.4142C18.5753 36.7128 18.4053 36.98 18.9388 37.0821C19.1553 36.7443 19.3796 36.4143 19.5961 36.0764H20.5857V35.7385H20.9184V34.395H21.5755V35.0628C22.9828 34.9292 23.068 34.3714 24.2124 34.0571C24.4753 32.9728 24.8232 32.9022 24.8696 31.3779H27.8389V31.7157L28.8287 31.3779V31.04C29.3236 30.9064 29.2771 31.6371 29.4859 31.7078L30.4757 31.37V32.0379H30.8083V31.37C31.1795 31.0872 30.8546 31.4093 31.1408 31.0321L30.4834 31.37V30.0264H30.816V28.6829H32.463L32.1305 29.6886H33.1203C33.6461 29.0365 34.3188 28.7929 34.7673 28.0151C35.1075 28.3058 35.2236 28.5965 35.4246 29.0208C35.7571 28.8008 36.0819 28.573 36.4144 28.353V28.0151H37.0715L37.404 27.3472C37.6205 27.4572 37.8448 27.5672 38.0613 27.685C38.5021 27.3472 37.6592 27.1194 38.3938 27.0172V27.3551C38.7263 27.4651 39.0511 27.575 39.3836 27.6929V27.0251C39.0047 26.6401 39.2522 27.0251 39.0511 26.3572C39.9017 26.5144 40.5125 26.6793 41.6878 26.695C42.1595 25.9801 42.554 26.0194 43.335 25.6894L43.0025 24.6837H44.3247V24.3458H44.6572V24.6837H45.3145V24.0159C47.1858 23.9609 46.544 23.4973 47.6266 23.0101H48.9488V22.6722C49.3277 22.2872 49.0802 22.6723 49.2812 22.0044H50.271V22.6722H50.9284C51.199 21.5958 51.3149 21.698 52.5753 21.6666V22.3344C53.3485 21.973 53.6502 21.5644 54.5549 21.3287V20.323H55.212V19.6552C56.9518 19.663 57.818 19.2623 59.1712 18.9873C59.4109 19.9145 59.264 19.7338 60.161 19.9931C60.0527 19.6552 59.9443 19.3252 59.8283 18.9873H60.161C60.5244 18.5159 61.313 18.0052 61.8079 17.6438V17.3059H62.7977V17.6438H63.1301V18.6494H63.4628C63.571 17.3137 63.8029 17.1016 65.1097 16.9759V17.3138C65.5504 17.4709 64.9859 17.1016 65.4421 16.9759C66.7644 16.7559 68.079 16.5281 69.4013 16.3081C69.0688 15.2631 69.2157 15.7973 69.4013 14.6345C70.2055 14.4459 70.1281 14.2888 70.7235 13.9667V14.3046H71.056C71.3189 14.7996 70.7235 14.9724 70.7235 14.9724L71.056 15.6402C71.8137 14.9959 71.4736 14.6346 72.7031 14.2967C72.8113 13.9588 72.9195 13.6288 73.0355 13.291C73.9789 13.6838 74.5898 13.9274 76.0049 13.9588C76.3374 13.291 76.6622 12.6153 76.9947 11.9475H77.6518L77.9845 12.6153L80.2965 11.9475V11.6096H82.6085L82.9409 10.9417H83.5983C83.8071 10.0225 84.0312 10.1796 84.2554 9.26817C84.6962 9.37817 85.1369 9.48812 85.5777 9.60597V9.26817C85.9411 8.96961 85.6474 9.32313 85.9103 8.93028H85.5777C85.2529 8.37243 86.0494 8.64748 86.235 8.59248V8.25459C86.5675 8.36458 86.8923 8.47462 87.2248 8.59248C87.1165 8.81248 87.0082 9.04031 86.8922 9.26031H87.2248C88.261 8.05032 89.1657 9.26026 90.5266 9.59811C90.7508 9.15811 90.9363 9.2367 91.1838 8.93028L90.8513 8.26245H91.5086V7.92465L92.1658 7.58676C92.2122 7.11533 92.0963 7.64171 91.8334 7.24886L92.1658 6.58103C93.2793 6.81674 93.4339 7.31176 94.4778 7.58676V6.58103C95.3825 6.79317 95.228 7.02101 96.1249 7.24886V6.24323C96.4884 6.35323 96.7744 6.84031 97.4472 6.58103V6.24323H98.437V5.90534C99.0942 5.34749 99.7593 4.78963 100.417 4.23178V3.56395H101.074V3.90175C101.53 3.99604 101.012 3.83109 101.406 3.56395L102.063 3.90175L101.731 4.90748C103.571 5.0489 104.507 5.50463 105.69 4.23965C105.04 3.86251 104.917 3.76826 104.7 2.89612L105.69 2.55823C105.798 2.77823 105.907 3.00606 106.023 3.22606H106.68V1.88253C107.399 2.02396 107.623 2.10251 108.002 2.55036L109.982 1.88253L109.649 1.2147H111.296V0.546875L111.458 0.625426ZM108.164 5.65395V6.32178H108.497V5.65395H108.164ZM402.116 6.32178V6.98961H402.449V6.32178H402.116ZM109.154 7.32751V7.99534H109.487V7.32751H109.154ZM104.538 7.99534V8.66317H104.87V7.99534H104.538ZM393.866 9.00106C394.245 9.38606 393.866 9.13458 394.523 9.33886C394.144 8.95387 394.523 9.20534 393.866 9.00106ZM367.807 9.33886C368.186 9.72386 367.807 9.47247 368.465 9.67676C368.086 9.29176 368.464 9.54314 367.807 9.33886ZM89.6914 10.3446C89.7224 11.4839 89.6915 11.5624 90.3488 12.0181V11.6802H90.0161V10.3367H89.6837L89.6914 10.3446ZM362.858 10.6824C363.237 11.0674 362.859 10.816 363.516 11.0203C363.137 10.6353 363.516 10.8867 362.858 10.6824ZM326.894 11.0124V11.6802H327.227V11.0124H326.894ZM349.991 11.3503L349.659 12.0181C349.659 12.0181 350.618 11.4839 350.316 11.3503H349.984H349.991ZM383.968 11.3503H384.625C384.347 11.7274 384.664 11.3974 384.293 11.6881V12.026C383.914 11.641 384.162 12.026 383.961 11.3582L383.968 11.3503ZM91.9957 11.6881C92.3746 12.0731 91.9958 11.8217 92.653 12.026C92.2742 11.641 92.653 11.8924 91.9957 11.6881ZM277.082 12.0181V12.686H277.414V12.0181H277.082ZM95.63 13.3617V13.6996H95.2975C94.6712 13.9903 95.9549 14.0374 95.9549 14.0374C96.2332 13.6602 95.9161 13.9903 96.2873 13.6996C95.9084 13.3146 96.2872 13.5659 95.63 13.3617ZM349.002 13.3617V13.6996H348.669C348.043 13.9903 349.327 14.0374 349.327 14.0374C349.605 13.6602 349.288 13.9903 349.659 13.6996C349.28 13.3146 349.659 13.5659 349.002 13.3617ZM433.456 13.3617V13.6996H433.124C432.497 13.9903 433.781 14.0374 433.781 14.0374C434.06 13.6602 433.742 13.9903 434.114 13.6996C433.735 13.3146 434.114 13.5659 433.456 13.3617ZM212.414 13.6996V14.3674H212.747V13.6996H212.414ZM130.929 14.0295V14.6974H131.261V14.0295H130.929ZM215.384 14.0295V14.6974H215.716V14.0295H215.384ZM276.416 14.0295C276.973 14.7523 277.074 14.6974 277.074 14.6974C277.314 14.3753 276.502 14.1081 276.416 14.0295ZM360.879 14.0295C361.436 14.7523 361.536 14.6974 361.536 14.6974C361.776 14.3753 360.964 14.1081 360.879 14.0295ZM384.301 14.0295V14.6974H384.633V14.0295H384.301ZM445.334 14.0295C445.89 14.7523 445.991 14.6974 445.991 14.6974C446.231 14.3753 445.419 14.1081 445.334 14.0295ZM83.0878 14.7052H82.4307V15.0431H82.7631V15.381H83.0956V14.7131L83.0878 14.7052ZM87.3794 16.7166H88.0368C87.9285 16.2688 87.8201 15.821 87.7041 15.3731H87.3717V16.7166H87.3794ZM340.751 16.7166H341.408L341.076 15.3731H340.743V16.7166H340.751ZM425.206 16.7166H425.863L425.531 15.3731H425.198V16.7166H425.206ZM83.7529 16.0409V17.3845H84.0853V16.0409H83.7529ZM168.208 16.0409V17.3845H168.54V16.0409H168.208ZM337.125 16.0409V17.3845H337.457V16.0409H337.125ZM385.948 16.7166V17.7224H386.28C386.613 17.1174 387.007 16.7245 387.603 16.3787V16.0409H386.945C386.574 16.6145 386.736 16.4966 385.955 16.7088L385.948 16.7166ZM421.579 16.0409V17.3845H421.912V16.0409H421.579ZM232.542 16.3787V17.0467H232.875V16.3787H232.542ZM316.997 17.0467H317.654V16.7088C317.283 16.4259 317.608 16.7481 317.321 16.371H316.989V17.0388L316.997 17.0467ZM132.576 16.7166V17.7224H132.908V16.7166H132.576ZM217.031 16.7166V17.7224H217.363V16.7166H217.031ZM361.536 18.0523C361.776 18.9794 361.629 18.7987 362.526 19.058C362.735 18.1387 362.959 18.2959 363.183 17.3845H362.851C362.433 18.0209 362.518 17.9423 361.528 18.0523H361.536ZM364.505 17.3845V18.0523C365.371 18.0287 365.627 17.9188 366.153 17.7145V17.3766H364.505V17.3845ZM190.315 17.7224V18.7281H190.647V18.3902C191.019 18.1073 190.694 18.4294 190.98 18.0523L190.322 17.7145L190.315 17.7224ZM274.77 17.7224V18.7281H275.102V18.3902C275.473 18.1073 275.148 18.4294 275.434 18.0523L274.777 17.7145L274.77 17.7224ZM359.224 17.7224V18.7281H359.557V18.3902C359.928 18.1073 359.603 18.4294 359.889 18.0523L359.232 17.7145L359.224 17.7224ZM443.687 17.7224V18.7281H444.019V18.3902C444.39 18.1073 444.065 18.4294 444.351 18.0523L443.694 17.7145L443.687 17.7224ZM232.21 18.0523V18.7202H232.542V18.0523H232.21ZM385.291 18.0523C385.847 18.7751 385.948 18.7202 385.948 18.7202C386.187 18.3981 385.376 18.1309 385.291 18.0523ZM210.767 18.7281V19.7337H210.11V20.4015L210.767 20.0637L211.1 19.058C211.471 18.7752 211.146 19.0974 211.432 18.7202H210.775L210.767 18.7281ZM224.624 18.7281V19.3959H224.956V18.7281H224.624ZM309.079 18.7281V19.3959H309.411V18.7281H309.079ZM360.879 19.3959H359.889V20.0637H360.546C360.856 19.4588 361.003 19.5374 361.204 18.7202H360.871V19.3881L360.879 19.3959ZM393.533 18.7281V19.3959H393.866V18.7281H393.533ZM183.386 20.0637V19.3959C183.015 19.6788 183.34 19.3566 183.054 19.7337H182.722C183.1 20.1187 182.721 19.8673 183.379 20.0716L183.386 20.0637ZM266.851 19.3959V20.4015H267.184C267.563 20.0165 267.184 20.268 267.841 20.0637V19.3959H266.851ZM313.695 20.0637V19.3959H312.705V19.7337H313.038C313.417 20.1187 313.038 19.8673 313.695 20.0716V20.0637ZM352.296 20.0637V19.3959C351.925 19.6788 352.249 19.3566 351.963 19.7337H351.631C352.01 20.1187 351.631 19.8673 352.288 20.0716L352.296 20.0637ZM378.362 19.3959V20.0637C378.733 19.7809 378.409 20.103 378.695 19.7258H379.027C378.648 19.3409 379.027 19.5923 378.37 19.3881L378.362 19.3959ZM425.206 19.7337V20.4015H425.538V19.7337H425.206ZM206.808 21.0695H207.466C207.187 20.6923 207.504 21.0223 207.133 20.7316V20.0637H206.801V21.0695H206.808ZM113.77 20.4015V21.0695H114.103V20.4015H113.77ZM198.233 20.4015V21.4073H198.565V20.4015H198.233ZM367.142 20.4015V21.0695H367.475V20.4015H367.142ZM431.477 20.4015C431.856 20.7865 431.608 20.4016 431.809 21.0695H431.477V20.4015ZM451.605 20.4015V21.0695H451.937V20.4015H451.605ZM67.5841 20.7394V21.4073H67.9167V20.7394H67.5841ZM152.039 20.7394V21.4073H152.371V20.7394H152.039ZM320.956 20.7394V21.4073H321.288V20.7394H320.956ZM405.411 20.7394V21.4073H405.743V20.7394H405.411ZM172.499 21.0695C172.53 21.1402 172.971 22.2872 173.156 22.0751V21.7373H173.489C173.203 21.3916 172.917 21.2738 172.499 21.0695ZM257.611 22.7509H258.268V22.083H257.611L257.944 21.4151C257.611 21.3051 257.286 21.1952 256.954 21.0773V21.4151C257.402 21.808 257.456 22.028 257.611 22.7587V22.7509ZM170.52 21.4073L170.852 22.413H171.184C170.983 21.6116 171.076 21.7923 170.527 21.4073H170.52ZM254.974 21.4073C255.082 21.7451 255.191 22.0751 255.307 22.413H255.639C255.438 21.6116 255.531 21.7923 254.982 21.4073H254.974ZM261.245 21.4073H260.588C260.866 21.7844 260.549 21.4545 260.92 21.7452V22.083H261.253V21.4151L261.245 21.4073ZM391.561 22.7509H392.219V22.083H392.551C392.443 21.863 392.335 21.6351 392.219 21.4151C391.848 21.698 392.172 21.3759 391.886 21.753H391.554V22.7587L391.561 22.7509ZM116.082 21.7452C116.461 22.1302 116.083 21.8787 116.74 22.083C116.361 21.698 116.74 21.9494 116.082 21.7452ZM172.166 21.7452V22.7509H172.499V21.7452H172.166ZM256.621 21.7452V22.7509H256.954V21.7452H256.621ZM262.892 21.7452H262.235C262.513 22.1223 262.196 21.7923 262.568 22.083V22.4209H262.9V21.753L262.892 21.7452ZM301.161 21.7452V22.7509H301.493V21.7452H301.161ZM385.623 21.7452V22.7509H385.955V21.7452H385.623ZM51.7479 22.0751V22.743H52.0805V22.0751H51.7479ZM67.2516 22.0751V22.743H67.5841V22.0751H67.2516ZM151.714 22.0751V22.743H152.046V22.0751H151.714ZM173.814 22.7509V22.083C173.442 22.3658 173.767 22.0437 173.481 22.4209H173.149C173.527 22.8059 173.149 22.5544 173.806 22.7587L173.814 22.7509ZM236.169 22.0751V22.743H236.501V22.0751H236.169ZM261.57 22.0751V24.0865H261.903V22.0751H261.57ZM303.797 22.0751V22.743H304.13V22.0751H303.797ZM305.12 22.0751V22.743H305.452V22.0751H305.12ZM320.623 22.0751V22.743H320.956V22.0751H320.623ZM388.26 22.0751V22.743H388.592V22.0751H388.26ZM389.582 22.0751V22.743H389.915V22.0751H389.582ZM405.086 22.0751V22.743H405.418V22.0751H405.086ZM59.0088 22.413C59.3877 22.798 59.0087 22.5466 59.666 22.7509C59.2871 22.3659 59.6661 22.6173 59.0088 22.413ZM143.463 22.413C143.842 22.798 143.463 22.5466 144.121 22.7509C143.742 22.3659 144.121 22.6173 143.463 22.413ZM396.835 22.413C397.214 22.798 396.835 22.5466 397.492 22.7509C397.114 22.3659 397.492 22.6173 396.835 22.413ZM166.885 23.0808L167.218 24.0865H167.55C167.349 23.2851 167.442 23.4658 166.893 23.0808H166.885ZM251.348 23.0808C251.456 23.4187 251.564 23.7487 251.68 24.0865H252.013C251.812 23.2851 251.904 23.4658 251.355 23.0808H251.348ZM272.79 23.4187V24.0865H273.122V23.4187H272.79ZM64.2823 25.0923C64.0426 24.1651 64.1896 24.3458 63.2927 24.0865C63.4009 24.5344 63.5091 24.9822 63.6251 25.4301H64.6149V25.768C65.0788 25.8308 64.4911 25.5322 64.9473 25.4301H66.2696V24.0865C65.8984 23.8037 66.2232 24.1258 65.9371 23.7487H65.2798V24.0865H65.6124C65.7207 24.6915 64.7926 24.9666 64.29 25.0923H64.2823ZM107.175 23.7565L106.842 24.4244C106.842 24.4244 107.801 23.8901 107.499 23.7565H107.167H107.175ZM360.546 23.7565L360.214 24.4244C360.214 24.4244 361.173 23.8901 360.871 23.7565H360.539H360.546ZM50.7581 25.4301H51.4154V25.0923C51.0443 24.8094 51.3691 25.1315 51.083 24.7544H50.7503V25.4222L50.7581 25.4301ZM62.3029 24.7622V25.4301C62.674 25.1472 62.3492 25.4694 62.6353 25.0923H62.9678C62.5889 24.7073 62.9679 24.9587 62.3106 24.7544L62.3029 24.7622ZM135.213 25.4301H135.87V25.0923C135.499 24.8094 135.824 25.1315 135.538 24.7544H135.205V25.4222L135.213 25.4301ZM146.765 24.7622V25.4301C147.136 25.1472 146.812 25.4694 147.098 25.0923H147.43C147.051 24.7073 147.43 24.9587 146.773 24.7544L146.765 24.7622ZM231.22 24.7622V25.4301C231.591 25.1472 231.266 25.4694 231.552 25.0923H231.885C231.506 24.7073 231.885 24.9587 231.228 24.7544L231.22 24.7622ZM388.592 25.4301H389.249V25.0923C388.878 24.8094 389.203 25.1315 388.917 24.7544H388.585V25.4222L388.592 25.4301ZM400.137 24.7622V25.4301C400.508 25.1472 400.183 25.4694 400.469 25.0923H400.802C400.423 24.7073 400.802 24.9587 400.145 24.7544L400.137 24.7622ZM57.0292 26.7737V26.1058L56.0395 26.4437L56.3719 27.7872H56.0395V28.1251C55.2662 28.2351 54.5007 28.345 53.7274 28.4629V29.1308C54.1605 29.1937 55.7765 29.5393 56.0395 29.4686L56.3719 28.8008L57.3617 29.1387C57.4699 28.5808 57.5783 28.023 57.6943 27.4651H58.0268C58.4057 27.0801 58.0267 27.3315 58.6839 27.1272V27.795H60.331V27.1272H60.9882C60.7717 26.4594 60.5476 25.7836 60.331 25.1158H59.9986L59.666 26.1215C59.1943 26.4593 57.7638 26.7265 57.0292 26.7893V26.7737ZM94.3077 25.0923V26.0979H94.6402V25.0923H94.3077ZM50.1009 25.768V26.4358H50.4334V25.768H50.1009ZM101.569 25.768V26.4358H101.901V25.768H101.569ZM134.556 25.768V26.4358H134.888V25.768H134.556ZM219.01 25.768V26.4358H219.343V25.768H219.01ZM316.997 25.768C317.376 26.153 316.997 25.9015 317.654 26.1058C317.275 25.7208 317.654 25.9722 316.997 25.768ZM354.94 25.768V26.4358H355.273V25.768H354.94ZM387.927 25.768V26.4358H388.26V25.768H387.927ZM88.0368 26.0979C88.4156 26.4829 88.1682 26.098 88.3692 26.7658H88.0368V26.0979ZM172.166 26.4358C172.538 27.0094 172.375 26.8915 173.156 27.1036C172.87 26.7579 172.584 26.6401 172.166 26.4358ZM209.778 27.1036H210.435V26.7658C210.064 26.483 210.388 26.8051 210.102 26.4279H209.77V27.0958L209.778 27.1036ZM87.3794 26.7737H88.0368V27.1115C87.3718 26.9229 87.7506 27.1508 87.3794 26.7737ZM179.427 26.7737C179.806 27.1587 179.559 26.7737 179.76 27.4415H179.427V26.7737ZM268.174 28.1093H267.516V26.7658H267.184V27.1036C266.805 27.4886 267.052 27.1036 266.851 27.7715C267.184 27.9915 267.509 28.2194 267.841 28.4394C268.119 28.8165 267.803 28.4865 268.174 28.7772V28.1093ZM176.458 27.1036V27.7715H176.791V27.1036H176.458ZM68.2414 27.7793V28.4472H68.5739V27.7793H68.2414ZM152.704 27.7793V28.4472H153.036V27.7793H152.704ZM225.614 28.1093C225.993 28.4943 225.614 28.243 226.271 28.4472C225.892 28.0622 226.271 28.3136 225.614 28.1093ZM108.489 29.1151V28.4472C108.118 28.7301 108.443 28.4079 108.157 28.785H107.824C108.203 29.17 107.824 28.9187 108.482 29.1229L108.489 29.1151ZM277.406 29.1151V28.4472C277.035 28.7301 277.36 28.4079 277.074 28.785H276.741C277.12 29.17 276.741 28.9187 277.399 29.1229L277.406 29.1151ZM79.1289 29.7908V30.4586H79.4613V29.7908H79.1289ZM85.7323 29.7908V30.4586H86.0649V29.7908H85.7323ZM60.9882 30.1208V30.7886H61.3208V30.1208H60.9882ZM87.3794 30.7965C87.3639 32.1558 87.2248 32.2421 88.0368 32.8078V32.47C87.48 31.7472 88.2918 30.8515 88.6939 30.1208H88.3615C87.9903 30.6944 88.1527 30.5765 87.3717 30.7886L87.3794 30.7965ZM93.3179 30.1208C93.6968 30.5058 93.318 30.2543 93.9753 30.4586C93.5964 30.0736 93.9752 30.3251 93.3179 30.1208ZM110.469 30.1208C110.361 30.4587 110.252 30.7886 110.136 31.1264H110.469V30.7886C110.608 30.5922 111.01 30.7415 110.801 30.1208H110.469ZM145.443 30.1208V30.7886H145.775V30.1208H145.443ZM256.296 30.7965C256.281 32.1558 256.142 32.2421 256.954 32.8078V32.47C256.397 31.7472 257.209 30.8515 257.611 30.1208H257.278C256.907 30.6944 257.07 30.5765 256.289 30.7886L256.296 30.7965ZM262.235 30.1208C262.614 30.5058 262.235 30.2543 262.892 30.4586C262.513 30.0736 262.892 30.3251 262.235 30.1208ZM114.76 30.4586V31.1264H115.093V30.4586H114.76ZM151.714 31.1264H152.371V30.7886C152 30.5058 152.325 30.8279 152.039 30.4507H151.706V31.1186L151.714 31.1264ZM199.223 30.4586V31.1264H199.555V30.4586H199.223ZM228.583 30.4586C228.962 30.8436 228.715 30.4586 228.916 31.1264H228.583V30.4586ZM155.998 30.7965C155.89 31.0165 155.781 31.2443 155.665 31.4643L156.323 31.8021C156.562 31.4014 155.627 31.5115 156.323 30.7965H155.99H155.998ZM115.418 31.1264L115.085 32.1322H115.418V31.4643H115.75V31.1264H115.418ZM199.88 31.1264L199.548 31.7943C199.548 31.7943 200.506 31.26 200.205 31.1264H199.872H199.88ZM26.6713 32.47H27.3287V32.1322C26.9575 31.8493 27.2821 32.1714 26.996 31.7943H26.6636V32.4622L26.6713 32.47ZM212.414 32.47H211.757C212.036 32.8472 211.718 32.5171 212.09 32.8078V33.1457H212.422V32.4779L212.414 32.47ZM37.8912 33.1379V33.8057H38.2237V33.1379H37.8912ZM85.3998 33.1379V34.4814H85.7323V34.1436H86.0649C85.9567 33.9236 85.8483 33.6957 85.7323 33.4757H86.0649C85.686 33.0907 86.0648 33.3422 85.4076 33.1379H85.3998ZM206.808 33.1379V33.8057H207.141V33.1379H206.808ZM256.621 33.1379C256.242 33.5229 256.621 33.2714 255.964 33.4757V33.8136H256.621C256.729 33.5936 256.838 33.3657 256.954 33.1457H256.621V33.1379ZM102.883 34.1436L102.551 34.8114C102.551 34.8114 103.509 34.2772 103.208 34.1436H102.875H102.883ZM90.3488 34.8193V35.4871H90.6812V34.8193H90.3488ZM97.6095 34.8193V35.4871H97.942V34.8193H97.6095ZM82.098 35.4871H82.7554C82.4847 35.9271 82.5233 35.88 82.098 36.155V36.4929H81.7656L82.098 35.4871ZM93.6506 35.4871L93.3179 36.155C93.3179 36.155 94.2768 35.6207 93.9753 35.4871H93.6428H93.6506ZM68.2414 36.8306V37.4985H68.5739V36.8306H68.2414ZM42.84 38.5042V39.172H43.1726V38.5042H42.84ZM50.1009 38.8421V39.8477H51.4232V40.5157H52.4129C52.6836 40.0757 52.6448 40.1227 53.0701 39.8477V38.8421C51.6937 39.0857 51.6861 38.9285 50.1009 38.8421ZM23.3773 39.5099C23.7562 39.8949 23.3773 39.6434 24.0346 39.8477C23.6557 39.4627 24.0345 39.7142 23.3773 39.5099ZM91.671 39.8477V40.5157H92.0034V39.8477H91.671ZM9.84534 45.2063C9.73709 45.5441 9.62888 45.8742 9.5129 46.212H9.84534V45.5441H10.1778V45.2063H9.84534ZM52.4052 45.5441V46.212H52.7376V45.5441H52.4052Z" fill="#FDE6AD"/>
</svg>
