<svg width="276" height="167" viewBox="0 0 276 167" fill="none" xmlns="http://www.w3.org/2000/svg">
<path d="M104.906 166.411C108.043 165.052 111.158 163.059 114.018 160.42C117.413 157.289 120.902 155.836 124.633 154.04C133.726 149.667 142.797 145.153 151.837 140.446C169.233 131.39 186.535 121.7 203.576 110.773C215.182 103.329 293.207 54.6156 271.109 18.5302C266.075 10.3362 258.586 7.11581 252.025 4.85638C242.65 1.6266 233.027 0.61409 223.485 0.365646C205.256 -0.112493 186.992 2.55945 168.945 6.89551C132.89 15.5583 97.3908 31.4727 63.2411 53.3781C47.0197 63.7846 30.5617 75.2974 15.9396 91.5635C10.6767 97.4183 4.56442 104.567 1.65612 114.57C-1.94566 126.965 3.74461 135.913 9.93752 140.263C26.0165 151.556 45.6139 150.665 62.6686 150.81C70.5925 150.876 80.3523 147.679 88.0101 150.796C90.7867 151.931 93.7568 152.503 96.485 150.703C101.82 147.187 96.2995 142.527 93.152 142.621C90.0932 142.715 87.3488 145.035 84.3196 145.11C79.9813 145.218 75.6431 145.27 71.3048 145.246C61.9241 145.19 52.5353 144.81 43.1733 143.671C35.3919 142.729 -6.11458 138.027 7.72001 111.978C18.9715 90.7947 37.6873 79.1929 52.7207 68.8004C69.4824 57.2125 86.6661 47.4435 104.035 39.0198C135.25 23.8788 167.392 13.491 199.748 9.87684C215.416 8.12835 231.404 7.61272 246.969 11.7003C253.853 13.5098 262.651 15.8583 267.951 24.4976C274.429 35.04 264.629 48.8686 260.033 54.9344C247.523 71.3739 232.624 82.6101 218.236 93.012C202.885 104.112 187.215 113.849 171.448 122.989C156.339 131.751 141.117 139.916 125.842 147.731C122.369 149.507 118.891 151.265 115.413 153.009C112.43 152.503 109.293 153.454 106.385 154.532C103.909 155.451 100.143 156.614 99.0707 161.386C97.7832 167.1 103.191 167.142 104.906 166.406C108.89 164.676 102.068 167.62 104.906 166.406V166.411Z" fill="#FFB502"/>
</svg>
