<svg width="156" height="193" fill="none" xmlns="http://www.w3.org/2000/svg"><path d="M100.717 119.043c-.266-.321-1.027.605-1.394-.441-.972-2.76-1.412-4.356-1.21-6.419.202-2.054 3.173-6.172 3.879-7.089.321-.421 1.605-3.732 2.953-8.354 1.789.34 3.439.862 5.182 1.45-1.165 2.237-2.091 3.988-2.366 4.52-1.046 2.027-1.99 3.072-1.77 4.136.22 1.064-1.037 4.631-1.624 5.731-.33.633-1.32 5.09-1.76 6.594-.248.834-1.128.789-1.88-.138l-.01.01Z" fill="#FFDBB0"/><path d="M101.617 59.802c.275 2.596.917 6.878 1.311 12.179.394 5.29-.211 11.783.248 15.928.385 3.476-2.917 11.821-1.697 13.132 2.008 2.155 8.978 4.081 10.171 1.853 1.192-2.229 3.503-6.585 4.604-12.27 1.394-7.19 1.265-16.608.394-21.074-.844-4.31-.66-12.902-4.833-15.048-4.173-2.146-10.74.293-10.198 5.31v-.01Z" fill="#F2A096"/><path d="M116.712 22.561c-.697 4.411-3.109 7.3-5.659 8.17-2.549.872-5.236.78-7.969-.073-2.311-1.072-4.485-3.163-5.145-4.163-.596-.917-1.073-2.09-1.34-3.264-.623-2.752-2.255-2.146-2.402-8.089-.046-1.806-.798-5.474 5.934-8.244 5.915-2.43 21.598.816 16.581 15.663Z" fill="#FFDBB0"/><path d="M95.94 14.041c-1.184 1.77-.184 5.897-1.9 4.98-3.31-1.77-4.933-9.18-1.705-11.371 3.32-2.265-.321-2.577 7.09-6.264 5.401-2.687 19.341 1.798 18.452 8.822-.587 4.65 2.531 8.18-1.367 13.444-.724.981-1.706-3.586-1.293-4.21 1.898-3.209 1.128-4.062.303-4.905-.817-.844-2.761-.982-2.999.073-1.202 5.264-1.761-.183-4.017.99-4.733 2.476-12.051-2.66-12.556-1.559h-.009Zm22.432 174.842c1.55-1.696 6.429-3.769 7.998-6.171 1.797-2.761-.679-8.07-.734-9.941-.055-1.862 6.621-2.265 6.621-2.265.321 1.275 1.725 8.739 1.881 9.033.962 1.815 3.659 6.281 1.953 8.079-1.981 2.091-11.794 4.75-13.582 5.227-1.789.477-6.127-1.798-4.146-3.971l.009.009Z" fill="#003F67"/><path d="M105.083 184.445c1.981-1.11 3.21-1.733 5.191-2.522.706-.284-3.109-6.557-2.714-7.529.394-.972 8.997-.733 8.997-.733.293 1.577 1.274 5.594 1.806 8.189 0 .018 2.238 3.338.761 4.97-1.513 1.669-7.758 4.136-13.481 2.907s-3.238-3.787-.55-5.291l-.01.009Z" fill="#003F67"/><path d="M140.979 87.98c5.328-1.962 8.767.698 9.84 6.41 1.513 8.135 2.687 14.93.33 23.037-2.815 9.674-15.774 16.864-18.333 22.971-1.77 4.237 6.218 38.296 3.834 39.304-.917.386-8.465 2.431-11.226 2.807-6.419.871-3.42-3.467-5.218-2.816-1.284.459-7.841 3.32-11.895 2.632-1.476-.247-2.513-9.995-3.586-14.205-1.064-4.154-6.594-20.954-5.897-28.574.422-4.613 9.162-19.653 11.418-22.917 4.522-6.529 3.329-24.054 5.815-24.393 5.521-.743 18.993-2.073 24.918-4.255Z" fill="#A2A2A2"/><path d="M108.256 25.623c.284-.1 4.118-1.11 4.466-1.266.349.55 1.568 2.605 2.174 3.22.605.614 7.227 9.49 9.758 9.82 7.364 2.266-19.195 12.225-15.894 8.465-.477-4.21.578-12.435.404-14.003-.129-1.147-.761-5.833-.899-6.236h-.009Z" fill="#FFDBB0"/><path d="M114.208 94.63c-.248-1.944-4.201-10.444-6.97-18.02-2.972-8.133-7.63-18.862-6.604-29.665.276-2.925 5.017-11.326 7.658-11.738 1.229-.193.266 2.265 2.201 2.173 1.312-.064 3.559-1.495 4.861-4.072.706-1.384.413-3.695 1.238-4.3 2.568-1.853 8.777-1.073 11.528.256 3.284 1.578 9.868 5.842 12.537 9.63 3.944 5.584 5.732 16.368 4.687 25.97-.358 3.246 5.851 19.019 6.383 25.502.798 5.108-9.988 4.97-17.948 7.107-6.356 1.706-8.759 6.456-15.178 7.263-4.98.624-4.072-7.538-4.393-10.105Z" fill="#F2A096"/><path d="M117.749 169.525h.064a.277.277 0 0 0 .211-.339c-.743-3.311-2.183-12.38-3.338-19.671-.734-4.621-1.367-8.611-1.67-10.197-.623-3.219.853-5.539 3.788-10.161.67-1.054 1.412-2.219 2.219-3.54a.291.291 0 0 0-.091-.394.294.294 0 0 0-.395.092c-.807 1.32-1.54 2.485-2.21 3.53-2.916 4.595-4.53 7.126-3.87 10.574.303 1.568.935 5.557 1.669 10.179 1.156 7.299 2.596 16.378 3.338 19.698.028.128.147.22.276.22l.009.009Z" fill="#003F67"/><path d="M119.711 43.221c-4.366 1.23-13.803 3.402-13.592 6.062.211 2.66 1.357 14.856 2.284 20.147.926 5.3 4.127 21.12 4.815 26.998.687 5.878-8.42 12.756-11.29 19.175-1.899 4.255-3.384 12.967-4.31 16.626-.817 3.2 12.958 3.466 19.681 2.87 6.722-.596 13.215-.807 22.359-.385 5.723.266 15.582-11.234 15.912-19.386.192-4.732-.67-15.535-1.935-21.615-3.531-16.837-4.402-20.56-8.438-20.175-5.933.56-15.27-4.41-16.737-9.482-1.467-5.07-3.925-22.192-8.74-20.844l-.009.01Z" fill="#003F67"/><path d="M120.609 119.603c-.247-.422-1.348.394-1.568-.835-.587-3.237-.78-5.071-.11-7.245.669-2.173 5.062-5.869 6.08-6.676.468-.376 1.789-6.648 3.632-5.814 2.064.826 4.292 2.742 3.861 3.247-1.669 1.925-3.136 4.273-3.091 5.474.046 1.202-2.191 4.741-3.127 5.787-.532.596-2.623 5.163-3.467 6.685-.458.835-1.504.569-2.21-.623Z" fill="#FFDBB0"/><path d="M127.716 52.823c-.165 2.605 2.046 15.434 1.67 20.725-.376 5.3-.863 11.509-2.073 15.792-.954 3.365-4.604 11.27-3.586 12.746 1.669 2.421 8.291 5.347 9.795 3.32 1.504-2.027 4.429-6.007 6.346-11.463 2.421-6.905 3.228-16.24 3.458-20.79.311-6.17 1.77-20.11-2.055-22.842-3.815-2.733-13.27-1.743-13.545 2.521l-.01-.009Z" fill="#F2A096"/><path d="M117.215 29.32c-.623 3.338-1.531 12.297.11 15.598 1.404 2.843.523 1.587 2.642 1.293 2.934-.412.623-3.218.715-5.869.211-6.263 1.587-11.022 1.431-12.205-.083-.596-.872-.45-1.981-.395-1.468.064-2.678.349-2.907 1.578h-.01Zm-9.903 6.337c.027 2.403 1.33 11.344 2.063 12.775.734 1.43-1.238 1.806-1.861 1.843-.624.036-.661 1.495-1.404-.981-.742-2.476-2.026-8.556-1.898-10.134.128-1.586.431-1.889 1.311-2.953.881-1.063 1.77-1.384 1.78-.55h.009ZM67.88 177.329c1.808 1.227 2.086-.379 4.489 2.301 3.174 3.554-.215 6.525-4.515 6.905-3.01.265-10.446-.746-9.409-4.236.43-1.467.86-2.58.873-3.592 3.174 1.138 5.88.304 8.574-1.391l-.013.013Z" fill="#003F67"/><path d="M54.928 142.806c3.63-1.707 8.094 2.555 8.84 4.654 1.315 3.705 1.935 7.865 2.454 9.8.822 3.035.038 8.497-.076 12.316-.064 2.087-.165 6.437 1.682 7.727.012 0 .025.012.05.025-2.68 1.694-5.4 2.529-8.574 1.391 0-.493-.089-.961-.329-1.416-.91-1.733-3.01-4.098-3.313-8.435-.304-4.35-.316-3.692-.455-7.6-.14-3.907-2.163-8.952-3.39-12.076-1.656-4.198-.657-4.615 3.099-6.386h.012Zm-30.174 36.393c.481-.645.772-1.29.696-2.162-.177-1.947-1.163-5.045.14-8.89 1.302-3.844 1.061-3.287 2.351-6.676 1.29-3.389 1.404-7.233.797-10.572-1.252-6.967 5.185-9.876 9.194-9.876 5.767 0 5.197 11.634 3.452 14.757-1.732 3.124-2.744 6.74-2.984 8.662-.38 2.997-2.732 8.586-3.68 10.18-1.025 1.719-2.656 5.007-1.493 7.056.215.379.418.645.62.847-3.339 1.277-6.993-.341-9.093-3.351v.025Z" fill="#FFDBB0"/><path d="M24.754 179.199c2.112 3.01 5.754 4.616 9.093 3.351.86.898 1.593.595 2.53 3.516 1.517 4.678-2.543 5.412-6.476 3.464-2.744-1.365-8.928-6.12-6.753-8.535.62-.696 1.189-1.239 1.594-1.796h.012Z" fill="#003F67"/><path d="M57.42 68.604c.682-1.834 11.166-17.565 11.065-18.437-.114-.873-.456-4.148.038-5.311.847-2.049 2.276.367 3.123-.164.847-.532 2.125-2.479 3.099-2.985.973-.505 1.302.86 1.922 1.619.62.759 1.82-1.075 2.403-.19.404.607-.026 2.276 1.05 2.58 1.061.303 1.213.645.86 1.732-.355 1.088-.95 1.505-.646 2.428.304.923.076 1.126-.556 1.758-.633.632-2.947 1.29-4.882 1.998-1.935.708-7.056 17.298-10.686 22.71-1.189 1.77-8.195-3.945-6.778-7.726l-.013-.012Zm-29.846 6.095c-.973-1.695-13.898-15.503-13.923-16.376-.038-.872-.228-4.16-.898-5.235-1.176-1.871-2.188.734-3.111.354s-2.504-2.099-3.54-2.44c-1.05-.342-1.152 1.062-1.632 1.91-.48.846-1.973-.76-2.403.202-.29.657.392 2.238-.607 2.718-1 .48-1.088.835-.557 1.846.532 1.012 1.177 1.328 1.025 2.29-.152.96.114 1.112.834 1.643.721.519 3.111.797 5.135 1.176 2.023.38 7.93 14.238 12.393 18.968 1.467 1.555 9.308-3.553 7.284-7.056Z" fill="#FFDBB0"/><path d="M61.846 118.096c-2.251-1.479-12.672-1.327-17.654-1.441-9.548-.215-12.52-1.669-15.34 3.756-4.793 9.218-2.53 11.62-3.478 14.756-1.707 5.691-2.795 11.267.582 12.443 3.237 1.126 11.862.481 16.351.582 4.604.101 3.225-6.651 4.123-6.398 1.189.328 1.088 2.175 1.088 5.311 0 2.604 5.008.948 12.267-.645 9.18-2.024 6.487-2.77 5.539-13.025-.81-8.738-.709-12.354-3.478-15.339Z" fill="#003F67"/><path d="M23.136 89.785c-1.948-3.477-4.704-6.145-6.652-9.294-1.29-2.074 2.39-3.755 5.855-6.36 3.718-2.795 3.2-3.781 7.234-.076 2.719 2.49 7.765 3.25 10.382 2.175 1.847-.759 3.352.265 6.4-.822 2.213-.797 5.083-4.692 9.206-9.459 1.682-1.947 5.982 2.087 10.332 5.336 1.555 1.164 3.313 3.895 1.517 6.513-1.239 1.808-6.436 7.321-6.044 11.545.29 3.262 2.655 19.145 3.515 24.923 1.505 10.028-8.89 8.182-19.791 7.284-8.612-.708-22.447 3.338-20.335-5.235 1.29-5.235-.038-23.71-1.62-26.517v-.013Z" fill="#F2A096"/><path d="M35.314 75.686c3.718 2.049 7.6 1.91 10.117.506 2.53-1.416 4.464-3.49 5.868-6.044.948-2.365 1.05-5.223.81-6.298-.216-.986-.722-2.023-1.367-2.908-1.53-2.074.127-2.96-4.072-6.525-1.277-1.088-7.942-5.615-14.935-2.162-6.159 3.034-4.186 19.17 3.592 23.456l-.013-.025Z" fill="#FFDBB0"/><path d="M47.328 51.343c-.709-.885-3.503-2.365-6.07-2.049-3.162.392-4.2-1.454-7.297-.417-4.325 1.442-7.639 4.49-8.537 6.044-1.947 3.351-1.34 5.387-1.58 7.486-.443 3.807.569 10.939 7.714 11.925 1.353.19 3.63 1.669 3.49.948-.48-1.91-2.01-3.2-3.402-4.059-1.416-.885-1.58-3.819.493-3.579 1.72.19 1.847-.783 1.91-4.26.076-4.237 18.173-2.77 13.279-12.052v.013Z" fill="#003F67"/></svg>