<svg width="255" height="21" fill="none" xmlns="http://www.w3.org/2000/svg"><path fill-rule="evenodd" clip-rule="evenodd" d="M62.851.628c.882.133 1.013.472 2.038.527.148-.2.37-.499.926-.394v.132c.474.124.208-.132.556.133h.187v.527l.37.132v.262h.186c.06.133.122.262.187.395h-.743v.394c-.513.095-.413.037-.556.394-.648.111-.865.333-1.669.395.013.345.074.447.187.656-.634-.034-1.456-.105-1.482-.132v.261h.187c.587.004-.556.133-.556.133-.235-.206-.495-.32-.926-.394-.278.357-.643.56-1.299.656v-.262l-.37.132c-.108.2-.143.216-.186.527-.391.022-1.121.117-1.3.262-.225.185.166.145-.369.395v-.527h-.187v.527h-.556v-.262c-.282.077-.304.101-.743.132v-.262l-.556.133c-.122.225-.178.413-.187.789h-.925s-.187.21-.37.262v.132h-.187v-.262h-.369V6.29h-.187v.132h-.556v.133c-.322.203-.39.616-.556.92-.682-.045-1.221-.23-1.669.133-.06.133-.121.262-.187.395-.495.043-.99.086-1.481.132v.133l-.37.132v.262l-.556-.132-.187.262h-.556c-.03.012-.217.197-.37.261v.133a95.566 95.566 0 0 1-.925-.133V8.92c-.108-.01-.634.222-.925.262-.126.25-.24.804-.37 1.05l-.556-.132v-.132c-.256-.034.074.095-.187.132-.443.062-.478-.099-.743-.132l-.369.394h-.743v.132l-.556.133v.394h.369v.133h-.187c-.1.062-1.486.333-1.482 0h-.186v.262l-.926-.133c.009.472-.043.83-.37 1.05v-.132h-.186v-.527h-.37c-.013.346-.073.447-.186.657-.387-.08-.756-.148-1.113.132v.262h-.187v.133l-1.112-.133c-.06.087-.122.176-.187.262-.248.043-.495.086-.743.133v.262h-.743v.261c-.443-.061-.582-.15-.925-.261v.656c-.435.043-.865.086-1.3.132v.133c-.543.09-.608.145-.743.527.261.009-.026-.022.187-.133.291-.15.174.324.187.395-.317.147-.252.083-.37.394.248-.043.496-.086.744-.133l.186-.261c.035-.004.435.123.743.132v-.262c.187.043.37.086.557.133l.187-.262c.226-.077.543-.071.743-.133v-.527c.439-.052 1.02-.25 1.668-.132v.132h.743v-.132h.37v-.527h.369v.262c.556-.086 1.112-.176 1.669-.262l.186.133c.509-.253.17-.45 1.113-.527.213.15 0 .052.37.132v-.394l.925-.133v-.262c.612.071.843.167 1.112 0h.187c.235-.203-.2-.265.187-.394v.132h.187v-.394c.408-.046.96-.173 1.481 0 .061.086.122.176.187.262h.37v-.262c.373.074.16-.015.369.133l.556-.133v-.133h.556c.122-.132.248-.261.37-.394.308.043.617.086.925.133v.132c.135.019.682-.117 1.3-.132l-.187-.395h.369v.133h.743l.187.132v-.132l.556-.133c-.013-.345-.074-.447-.187-.656h1.113c.213-.151 0-.052.369-.133.143-.394.113-.345.743-.394.209.225.117.179.556.262.187-.33.383-.687.743-.527h.187v.394h.37c.134-.363.052-.292.556-.394v-.132l1.112-.133s.083.191.37.133l.186-.262h.556v-.262l.37.132v.133c.243.064.039-.062.187-.133.464-.09.3-.068.556-.262h.187v-.262l.369-.132c.217-.166.313-.382.556-.527v.133H61c.061.175.122.35.187.526h.187c.452-.536 1.038-.486 2.038-.656.056-.01.048-.182.37-.132v.132c.369.086.742.176 1.112.262v-.132h.186l-.186-.395c.121-.043.247-.086.369-.132.256-.275-.083-.185.37-.395v-.132l.925-.133c-.1.367-.144.013 0 .395h.187v-.262c.37.043.743.086 1.112.132v-.132c.2-.12.035.021.187-.133h-.187v-.132h.556c.04.311.079.326.187.527.213-.151.074 0 .187-.262.213-.151.074 0 .187-.262.556-.133 1.112-.262 1.668-.394l.187.132c.061-.425.17-.385.37-.656h.369v.132h.187v-.132h.743l.187-.395c.482.139.782.24 1.481.262-.06-.086-.121-.175-.186-.262.126-.144 1.042-.185 1.299-.394l-.187-.262h.187v-.132c.49.154.7.252 1.482.261v-.132h-.187v-.394c.586.086.374.2.556.261.217-.009.66-.265 1.112-.132l.187.262h.37c-.179.434-.174.773.186 1.183H78.8c-.213.151 0 .052-.37.133v.656h-.187c-.047.219.174.228.187.262v.656c-.665.019-1.051.188-1.481.262l-.37-.133c-.122.133-.248.262-.37.395-.104.03-1.012-.099-1.299-.133-.113.345-.525.697-1.112.657 0 0-.1-.167-.37-.133l.188.262h-.743c-.061.219-.122.438-.187.656l-.926-.132-.187.262c-.5.09-.486-.253-.556-.262l-.556.132.187.133c.008.052-.165.296-.187.527-.617.043-1.234.086-1.855.132v-.262c-.44-.027-.461-.055-.743-.132v.394c-.04.056-1.274.663-.557.921h-.556v-.132c-.178-.243-.187.262-.187.262-.208.11-.026-.016-.187.132.522-.123.517-.138 1.113 0v.133l.556-.133-.187-.132.187-.395c.87.238 1.443.078 2.038-.261.06-.087.122-.176.187-.262h.925s-.017-.077.37-.133v.395h.187v-.262c.79-.01 1.23-.028 1.668-.262l.187-.262c.308.043.617.086.925.132-.212-.15 0-.052-.369-.132v-.262c.187.043.37.086.556.132v-.261h.37v.261c1.073-.061 1.842-.49 2.594-.788v.394h.37v-.262h1.298v-.132h.556v-.133c.37.043.744.086 1.113.133.156-.148-.022-.019.187-.133v-.527c.37-.043.743-.086 1.112-.132-.06.132-.121.262-.187.394h.187v.133c.209-.111.026.015.187-.133.213-.15.074 0 .187-.262.291.01 1.3.133 1.3.133V8.25h.186v-.394c.204-.185.834-.136 1.3-.133v.133l1.112-.133v-.132h.369v-.133h.556l-.187.395h.187c.135-.364.052-.293.556-.395v.262c.187-.043.37-.086.556-.132v-.133c.435-.043.865-.086 1.3-.132V7.19h.556l.187-.262c.156-.043 1.22.14 1.482.262v-.26l.556-.132v-.132c.252-.056-.074.095.187.132.308.043.33-.126.369-.132.339-.05.717.172.925.261v-.132c.578-.373.044-.558 1.113-.656v.132h.556l-.187.262c.24.213.348-.145.556.394.244-.138.278-.268.557-.394v.394h.369c-.06-.261-.122-.526-.187-.788.87-.21.626.101 1.113-.657h.186c-.021.28-.19.45-.186.527l.186.133c.34-.167.022-.179.187-.262.213-.111.118.12.187.132.187-.043.37-.086.556-.132v-.262c.417-.052.713-.216 1.299-.133 0 0 .009.173.37.133v-.133h.925v.133c-.443.08-.343.043-.556.262h.37c.534-.626 1.425-.407 2.411-.656l.187-.395c.53 0 .795.046 1.112.133v-.527h.187c.122.132.248.262.37.394h.186l-.186.262h.186v.133c.531.27.478-.235.743.394h.37v.262h.369c-.061.132-.121.262-.187.394h.187c.126.197.13.219.187.527h.369v.262c.287.117.387.194.557.394.599-.23.352-.314 1.112-.132l-.187-.395h.369v-.261h.37V6.8h.187v-.132l.556.132-.187.394h.369c.135-.363.052-.292.557-.394.278-.231.499-.25 1.112-.262v-.262l1.112-.262c.013.345.074.447.187.657.209-.111.026.015.187-.133h.187v-.394c.556.043 1.112.086 1.668.132v-.262h.37l.187-.394c.247.043.495.086.743.132.06-.086.121-.175.186-.261l.926.132v.262c.474-.203 1.278-.817 1.856-.527h.369v.262h.187v-.262c.89-.034.895-.092 1.668 0 .061-.219.122-.437.187-.656.856-.114 1.504-.114 2.038 0V4.44h1.112v.132h.557v.133c.186-.043.369-.086.556-.133V4.44c-.213-.151-.074 0-.187-.262.608.01.547.166.925 0l.187-.262 1.113.262v.262c.499 0 1.051.043 1.299-.133v-.262l.369.133v-.133c.37-.043.743-.086 1.113-.132.174.08-.065.188.187.132l.186-.261c.235 0 .474.234.926.132v-.132c.308-.044.617-.087.925-.133l-.186.394h.186c.413.318.348.185.926.133-.022.416-.361.246.187.394.082.327.169.484.187.922-.513.095-.413.037-.557.394h-.186v.656c-.444.062-.583.151-.926.262v-.394h-.187c-.274.736-.321.271-.925.527v.132l-.743.395c.061-.133.121-.262.187-.395h-.187c-.113.21-.165.311-.187.657-.7.104-1.039.255-2.038.261v-.261h-.369v.261h-.926v.133h.187c-.117.188-.217.098-.369.262h-.37l.187-.262h-.187c-.182.179-.108.259-.556.262 0 0-.13-.188-.369-.133-.061.087-.122.176-.187.262h-.37l-.186.789-.743.133v-.527h-.37c-.134.422-.252.477-.925.527l.187-.395h-.187c-.07.151-.052.468-.37.395l-.187-.395c-.186.043-.369.086-.556.133v.261c-.295-.08-.439-.117-.925-.132v-.394h-.187v.394c.213.151.074 0 .187.262-.435.043-.865.086-1.3.132v.262c-.656.05-.564.164-1.112.262v.395c-.452-.074-.408-.14-.743-.262v.262h-.187v.394h.187v-.262h.369v.262c.309-.043.617-.086.926-.133v.395h.369v-.395c.309.044.617.087.926.133.087-.314.213-.413.369-.656.604.003 1.339-.059 1.669.132h.187c.06-.086.121-.175.186-.262h.37v-.132h.369v-.133l.37.133v-.133h1.855a17.571 17.571 0 0 0-.187-.394h.369V9.43h.187v.133l.556.132c.014.185.044.037-.186.133.208.139 0 .058.369.132v-.13h.187v-.395h.187c.16-.181.139-.227.186-.526.439-.016.47-.04.744-.133v.133h.186v.132l-.186.262h.556V9.04c.434-.043.865-.086 1.299-.132v.132h.187c.208-.105-.07-.172.187-.132v.132h.743v.262h.187c.06-.262.121-.527.186-.789h.37v.262h.187v-.394c.425.012.482.11.743.132l.187-.262s.508.124.743.133v-.262l.186.132c.248-.043.496-.086.743-.132v.132h.926V7.86h.369v.133h.187V7.86l.37.133.186-.395c.491-.13.387.287.743.262v-.132c.813-.136 1.022-.324 1.856-.395v.133h-.187c-.352.114.369.132.369.132.157.148-.021.019.187.133v-.262l.926-.133c.061-.086.121-.175.187-.262l.186.133c1.1.05 1.243-.274 1.856-.527v.394h.187c.213-.15 0-.052.369-.132V6.68c.187.043.369.086.556.132l.187-.261h.743v-.133h.187c.113.314.061.243.369.394v-.394c.974-.11.822-.015 1.669.262.095-.308.269-.493.556-.656.213.15 0 .052.369.132v-.262h.557v-.262c.308.043.617.087.925.133v.262h.37v-.395c.404.019.617.133.743.133v-.133l.556-.132c.061.086.121.175.187.262.591.123 1.477-.274 1.855-.395l-.187-.394h.556c.113.314.061.243.37.394.156.148-.022.019.187.133.013-.345.073-.447.186-.656.37-.044.744-.087 1.113-.133.156.148-.022.019.187.133-.144.132-.226.129-.37.261h.557l-.187-.394.187-.132c.273.061.295.15.743.132v-.132h.186v.132c.248.043.496.086.743.133v.132c.757.203 1.1-.095 1.482.133.578.27.087.169.37.526l.369.133v.262h.187c.169.179.139.23.187.527l-.743-.133c.147.425.343.453.369 1.05-.209.112-.026-.015-.187.133h-.187c-.056-.394-.026-.357-.369-.527v.133h.187c-.122.176-.248.351-.37.527-.482.006-.638.028-.925.132v.133c-.317.077-.322-.123-.37-.133-.664-.12-1.086.167-1.299.395h-.187c-.06.262-.121.527-.186.789h-.37l-.187-.262c-.247.043-.495.086-.743.132.039.311.078.327.187.527-.43-.012-.474-.105-.743-.133l-.187.262c-.247.044-.495.087-.743.133-.134.364-.052.293-.556.394-.652.416-1.199-.166-1.299-.132v.132c-.309.133-.617.262-.926.395.1.459.183.243 0 .656h.187v-.133h.743v.262l.556-.132v-.133l.557.133v-.395c.186.044.369.087.556.133v-.133l-.187-.132h1.112c.061.132.122.262.187.394.122-.043.369-.261.369-.261.187.043.37.086.557.132v-.133c.273-.101.308-.098.743-.132v-.262h.369v-.262h.743v.262c.417-.034.491-.012.743-.132v-.133h.369v-.132h.37v-.133c.33-.188.443-.296.925-.394v.394h.743c.061-.219.122-.437.187-.656h.37c-.061.132-.122.262-.187.394h.187c.265-.188 1.034-.336 1.481-.394V8.92c.248-.043.496-.086.743-.133v-.394h.37v.394h.369v-.394h.926c-.061.133-.122.262-.187.394h.369c.191-.15.343-.252.743-.261v.132h.187l.187-.132c.174-.238.256-.207.369-.527l.556-.133v-.132l.187.132.556-.132v.394h.37c.039-.311.078-.327.187-.527l.369.133V7.6c.265-.163.287-.363.556-.527.057.062.378.478.556.395l.187-.395c.804-.043 1.608-.086 2.412-.132v.132c-.513.096-.413.037-.556.395.46-.059.682-.12 1.299-.133v-.132h-.187v-.657c.309.044.617.087.926.133.06-.133.121-.262.186-.394.213.15.074 0 .187.261l.556.133v-.133c.383-.147.335-.203.926-.261V5.89c.395-.015.634-.135.743-.132l.187.132v-.26l.925-.132v.262c.122-.043.248-.087.37-.133v-.132c.295-.025.23.228.369.262h.743c.061-.22.122-.438.187-.657.309.043.617.087.926.133l.186-.262h.187v.132c.187-.043.37-.086.556-.132v-.262c.213.15.074 0 .187.262h.37c.087-.314.213-.413.369-.656.617.006 1.669.132 1.669.132v-.132h.369V4.18h.556c.061-.086.122-.176.187-.262.187.043.369.086.556.133v.132h.926v-.262l.743-.132v.262h.369c.117.36.243.299.369.656h.557c.134.364.052.293.556.394v.262c-1.108.16-.96.527-1.299 1.183h1.112l.187-.526c.773-.084.526-.13 1.299-.262v.262c.878-.262.747-.262 1.482 0v-.262c.247-.043.495-.087.743-.133v-.262h.369v.133h.187v-.133c.421-.058.5.068.743.133v-.133h-.187c-.343-.126.37-.132.37-.132V4.97h.369v-.262c.582.077.826.213 1.482.262l.187-.395s-.396-.021-.187-.132h.369v.132h1.112v-.394c.591.086.365.194.557.262.308-.022.343-.259.369-.262.356-.07.256.086.369.133h.187V4.18c.248.043.496.086.743.133.135-.364.052-.293.556-.395v.262h.743c.174-.237.257-.206.37-.527l.556.133v-.133c.122-.043.248-.086.369-.132v.262h.37l-.187-.395c.443-.061.582-.15.925-.262v.527c.965-.179.661-.29 1.856-.132v-.395h.556v.133c-.078.077-.304.018-.187.262h.187c.3-.814.395-.222 1.112-.527.422-.179-.013-.484.926-.657v.133l.556-.133V2.6h.187v-.262c.656.05.565.164 1.112.262v.262c.174.207 1.326.244.743.657h.37v.526l-.37.133c-.008.043.174.293.187.527h.37c-.087.314-.213.413-.37.656-.33.012-.669.139-.743.133V5.36h-.743v.133l-1.112.132v.262c-.248.086-.496.176-.743.262v-.133h-.187v.395l-1.299.262c.212.15 0 .052.369.132v.133c.326.108.595-.077.743-.133v-.132h.556v-.262c.865-.03 1.056-.191 1.669-.395v-.132H211v.132h-.187c-.213.151 0 .053-.369.133v.262c.756-.154.195-.12.556-.395l.369.133v-.133h.37v-.132h.556c.195-.08.46-.65.925-.527v.133h.37v-.395c.187.043.369.086.556.133v-.133c.369-.043.743-.086 1.112-.132v.262h.37c.061.132.121.261.187.394H216v-.262h.37c.108-.49.108-.302 0-.789.056.016 1.786.287 1.855.262V4.7h.187v-.527h.187c.378.24.843.037 1.482 0V3.91c.373.074.16-.015.369.132.682-.138.508-.265.926-.526v-.133c.469-.206 1.464-.01 2.224 0 .118-.36.244-.299.37-.656.795-.022.634-.083 1.112-.262v.394h.743c.039-.311.078-.326.187-.527l.556.133.187-.262h.369V2.07c.187-.043.37-.086.556-.132l.187.394c.47-.268.079-.317.926-.394v.132c-.213.12-.217.096-.369.262h.186v.133c.387-.145.331-.213.926-.262.156.148-.022.018.187.132-.218.25-.157.127-.556.262v.133h.369c-.061.262-.122.527-.187.789h.187v.132h-.187v.262c.061.308.122.613.187.921h-.187c-.156.151-.096.185-.369.262v-.132h-.187c-.122.132-.248.262-.369.394h-.557l-.187.262c-.247.043-.495.086-.743.132-.06.133-.121.262-.186.395l-.557.132-.186.262h-.187V6.41c-.682-.114-.895.447-1.3.132v.262h-.369c.061.176.122.351.187.527h-.187c-.208.225-.117.179-.556.262-.017-.028-.265-.478-.369-.394v.132l-.37.133c-.061.132-.121.261-.187.394h-.556c-.621.216-.243.348-1.299.394.061.133.122.262.187.395.248-.043.495-.087.743-.133v.395h.187v-.133h.743c.565-.15.825-.367 1.668-.394V8.12c.526-.083.491-.244.557-.262h.743v.132l.743-.132s.082.163.369.132v-.132l.743.132v-.132c.213-.151.074 0 .187-.262h-.187v.133c-.161.25-.187-.262-.187-.262.678.043 1.36.086 2.038.132l.187-.262c.187-.04.339.204.743.133v-.133h.926v.133h.186v-.133h.743l.187-.394h.187l-.187-.262h.556c.213.15 0 .052.37.132v-.261c.443.061.582.15.925.261V6.68h-.187c-.343-.126.37-.133.37-.133v.133c.213.15.074 0 .187.262.395-.016.63-.133.743-.133v.133h.369c.052-.234.187-.262.187-.262a17.571 17.571 0 0 0-.187-.394h.187v-.133c.526.166.765.339 1.482.394v-.261c1.082-.176.104-.333 1.112 0v-.527h.187v.132l.743-.394v.527h.187c.091-.062-.052-.213.187-.133v.133h.186s-.052.471.187.262v-.133c.213-.151.074 0 .187-.262h-.556c.143-.394.113-.345.743-.394v.132l.556-.132v.132h.556v.133c.478.07 1.017-.41 1.3-.527l.556.132v-.132c.308-.142.308-.179.743-.262-.061.132-.122.262-.187.394h.187V5.5c.187-.086.369-.176.556-.262v-.133h.369c.335-.104.404-.298.557-.526l.925.526c.113-.258.009-.32.369-.394.061.015.057.247.37.262.395-.373.165-.265.743-.133.061-.425.169-.385.369-.656.648.071.343.13.926 0v.789h.187c.208-.225.117-.179.556-.262.347.413.686.373.743 1.05.508.016 1.343.183 1.482 0h.186v.133c.513.086 1.095.367 1.3.657v.394h.187c.256.243.43.305.556.656-.187-.043-.37-.086-.556-.132V7.6h.186v.395h.187c.17.194.165.323.187.656-.213.15-.074 0-.187.262-.617.043-1.234.086-1.855.132v-.262c-.248.044-.496.087-.743.133v-.262c-.122.043-.248.086-.37.132-.06-.086-.121-.175-.186-.261-.005 0-.548.178-.926 0l-.187-.395c-.217-.108-.317.385-.743.262V8.26c-.213-.151-.074 0-.187-.262l-.556.132V8h-.187c.061-.133.122-.262.187-.395 0 0-.23-.04-.187-.262 0 0 .309-.058.187-.262h-.187c-.213.151 0 .053-.369.133-.061.132-.122.262-.187.394-.434-.037-.461-.043-.743-.132v-.133c-.313.016-.313.25-.369.262-.422.105-.748-.163-.926-.132v.132c-.63.179-.769.41-1.482.527.061-.132.122-.262.187-.394h-.369c-.274.357-.569.6-1.299.656V8h-.187c-.144.394-.113.345-.743.394v-.262c-.774.299-.878.268-1.856.133v-.262h-.187c-.013.508.031.542-.556.656v.133c-.178.243-.187-.262-.187-.262h-.369c-.061.086-.122.175-.187.262-.308-.044-.617-.087-.925-.133v.262h-.556v.132c-.213.151-.074 0-.187.262l-1.113.133v-.262l-1.855.132v.262h-.556v.133c-.165.246-.187-.262-.187-.262-.595.102-.4.197-1.113.262v.394c-1.095-.08-1.012-.465-2.224-.527-.005.438-.096.595-.187.922h-.37c.057-.114.357-.29.187-.527h-.187v.132c-.212.151-.073 0-.186.262l-1.113.133v.261c-.621-.08-1.169-.36-1.855-.132-.122.132-.248.262-.37.394-.504.105-.573-.354-.743-.394-.334-.08-.134.148-.186.262-.187-.043-.37-.086-.557-.133v.527h-.369l-.187.262c-.304.065-.343-.13-.369-.132-.448-.056-.483.132-.743.132v-.132a140.6 140.6 0 0 1-1.113-.133v.262c-1.229.092-1.855.114-2.781 0l-.186.395c-.348-.065-.887-.056-1.482-.133v-.133c.213-.15.074 0 .187-.261-.444.012-.461.086-.743.132v-.132c-.309-.142-.305-.188-.743-.262v-.262h-.37a14.057 14.057 0 0 0-.187-.395l-1.112-.132V10.1c.148.043.582.268.926.133V10.1c-.548-.253-.452-.524-.37-.921.248-.087.252-.207.37-.262.121.043.247.086.369.132v-.527h.187c-.061-.261-.122-.526-.187-.788a36.228 36.228 0 0 1-.556-.133c.061.086.121.176.187.262l-.557-.132v.262h-.187c-.06.086-.121.175-.186.261h-.557c.044.305.205.08 0 .395l-.369-.133v.262c-.2.231-.187-.262-.187-.262-.308.043-.617.087-.925.133 0 0-.087-.197-.37-.133-.06.087-.121.176-.186.262h-.557c-.06.133-.121.262-.187.395-.286-.108-.821-.475-1.299-.395-.061.086-.121.176-.187.262-.356-.025-.308-.256-.369-.262h-.187v.133h-.925v.132h.369c-.061.262-.122.527-.187.789h-.369c-.17-.052-.122-.4-.743-.262l-.187.262h-.926v-.133c-.269-.104-.313-.092-.743-.132v.394a36.347 36.347 0 0 1-.556-.132v.132c-.213.151-.074 0-.187.262-.691.139-.499.271-.925.527v.133h-.556v-.395h-.37v.262h-.925v-.132h-.187c-.122.175-.248.35-.37.527l-.369-.133v.133l-.556.261v-.394h-.187v.133l-.556-.133v.133c-.261-.01.074-.111-.187-.133l-1.112.133v.394h-.187v-.133c-.504-.19-.908.185-1.113.262-.104-.412-.182-.551-.743-.656.105.32.196.29.37.527h-.37c-.295.194-1.09.145-1.668.132v-.261h-.37v.261c-.369-.043-.743-.086-1.112-.132-.091-.311-.174-.311-.369-.527.252-.154.182.099.369-.132-.243-.108-.217-.093-.369-.262h.369c.039-.312.078-.327.187-.527-.526-.086-.7-.244-.926-.527h.557c.121-.351.247-.703.369-1.05-.243-.109-.217-.093-.369-.263-.396.16-.405.296-.926.395v-.262h-.187v.394c-.721.043-.834.213-1.299.395-.039-.312-.078-.327-.187-.527-.208.11-.026-.016-.187.132h-.187l.187.133-.187.394c-.786-.095-.89-.021-1.855 0l.187.394h-.187c-.152.173-.13.155-.369.262v-.527c-.943.037-.817.235-1.856.262-.139.447-.395.607-1.112.657v-.262h-.187v.132c-.161.25-.187-.262-.187-.262a36.347 36.347 0 0 1-.556-.132l.187.262h-.37c-.295.194-.456.453-.556.789h-.556v-.262c-1.191.03-1.49.48-2.412.656.118-.36.244-.299.37-.656-1.187.184-2.029.764-2.781-.133.834-.345.395-.49.187-1.05h-.743c-.157-.148.021-.019-.187-.133.056-.114.356-.29.187-.527h-.187v-.132h-.556c-.313.363-.796.265-1.113.527l-.187.394h-.556v.132c-.187.044-.369.087-.556.133v-.262c-.578.09-.843.394-1.299.527h-.743v.132a37.44 37.44 0 0 1-.557-.132v.262l-1.112.132v.133h-.743c-.061.009-.048.182-.369.132v-.132h-.37v-.133l-1.299-.132a1.972 1.972 0 0 1-.556.527v-.527h-.187v.262a37.316 37.316 0 0 1-.556-.133c-.087.308-.309.407-.37.657h.187c.061.132.122.261.187.394-1.056.01-1.164-.139-1.855-.262-.274.357-.569.6-1.299.656v-.262h-.37v.527h-.369v.133h-1.299v.132h-.37v.133c-.121-.043-.247-.086-.369-.133v.133h-.187c-.274-.157.157-.096-.187-.262.022.416.361.246-.187.394v-.262c-1.043.09-.599.327-1.112.527h-.369a17.61 17.61 0 0 1-.187.395h-.926v-.133c.461-.24.239-.102.187-.527h-.369v.395c-1.612.003-1.895.228-3.337.262v-.262c-.248.086-.496.175-.744.262.061.175.122.35.187.526-.482-.021-.634-.027-.925-.132v-.133l-.556.133c-.031-.003-.066-.185-.37-.133v.133h-.369v.132h-.369v.133c-.257.12-.326.092-.743.132v-.394h-.187v.133h-.926c-.126.04-.009.169-.556.261a17.61 17.61 0 0 1-.187.395h.187c.274.16-.674.13-.743.132v-.132c-.743-.086-1.482-.176-2.225-.262.1-.367.144-.012 0-.394-.2.073-.387.354-.743.261v-.132h-.187l.187-.262h-.187c-.213-.151 0-.052-.369-.133a17.571 17.571 0 0 0-.187-.394h.369c-.06-.132-.121-.262-.186-.394h.186v.132c.161.25.187-.262.187-.262h.187v-.132c-.122-.043-.248-.086-.369-.133.061-.132.121-.262.187-.394h-.187v-.133h.556v-.132c-.243-.108-.217-.093-.369-.262.317-.148.252-.083.369-.394l.743-.133c.022-.01.287-.487.369-.394v.262h.557c.173-.238.256-.207.369-.527-.252-.154-.283-.24-.369-.527h.369v-.262h.369v-.133c-.369.044-.743.087-1.112.133v-.133c-.244.01-.465.225-.926.133v-.133c-.369-.043-.743-.086-1.112-.132v.527h-.369v.262c-.187-.086-.37-.176-.557-.262v-.262l-.187.132c-.212.151-.073 0-.186.262h-.743v.262c-.37-.043-.743-.086-1.113-.132-.061.219-.121.437-.187.656-.451.074-.408.136-.743.262v-.133c-.191-.114-.256-.227-.369-.394-.213.151-.074 0-.187.262-.369.043-.743.086-1.112.133v.261c-.439.028-.461.056-.743.133v-.262h.187l-.187-.394h-.187v.261c-.122-.043-.248-.086-.369-.132-.213.105-.074.311-.557.262-.061-.086-.121-.176-.186-.262h-.187v.262l-.557.132c-.095-.018-.113-.332-.369-.261-.187.175-.369.35-.556.526a37.316 37.316 0 0 1-.556-.132v.262h-.37v.262c-.208-.111-.026.015-.187-.133-.199-.12-.034.022-.186-.132h.186v-.133h-.556v.133h-.187v-.133h-.556c-.061-.086-.121-.175-.187-.262-.121.043-.247.087-.369.133-.252.052.078.141-.187.132v-.132h-.369c-.004.406.052.678.187.921h-.743v.262h-.187v-.394h-.369l-.187.394c-.209-.11-.026.015-.187-.133h-.187l.187-.394c-.187.043-.37.086-.556.133v.132h-.37c-.061.086-.121.176-.187.262h-.743v.133h-.186c-.092-.06.052-.213-.187-.133l-.187.262-.926.132v-.261h-.187l-.186.261h-.187l-.187-.261c-.256-.084-.521-.065-.743-.133-.013.508.03.542-.556.656v-.262h-.37v.262h-.925l-.37.657h-.369v-.133c-.061-.006-.426.117-.743.133.104-.32.196-.29.369-.527h-.369l-.187.394-1.299-.132c-.196.067-.135.295 0 .394h-.369c-.161.135-.322.182-.557.262v-.394c-.829.049-.538.083-1.299 0v.132c.213.151.074 0 .187.262h-.926c-.047-.006-.06-.17-.369-.133v.133h-.369c-.061.132-.122.262-.187.394-.209-.11-.026.016-.187-.132-.208-.111-.026.015-.187-.133.244-.107.218-.092.37-.262h-.743c-.166.14-.326.173-.557.262v.133l-.556-.133v.133c.244.108.217.092.37.262h-.37c-.217-.179-.339-.2-.743-.262v.262c-.347-.093-.726-.13-1.299-.133-.204-.274-.3-.234-.369-.656h-.37v-.262c-.208.11-.026-.015-.187.133h-.187v.261l-.369.133v.394h-.187c-.187-.175-.369-.351-.556-.527h-.187c-.243-.292.1-.366-.369-.656.061-.175.122-.351.187-.527 0 0-.239-.065-.187-.262h.187v-.656s.113 0 .187-.262c.512-.095.412-.037.556-.394h.369v.132l.556-.132v-.262l.926.132c.135-.363.052-.292.556-.394v-.527h.187l-.187-.262h.187c.156-.148-.022-.018.187-.132v-.133c.178-.243.187.262.187.262l.556.133v-.133h-.187c.061-.132.122-.262.187-.394h1.112v.132c.435-.043.865-.086 1.299-.132v-.262h.743V9.03c-.634-.006-1.281-.09-1.668-.133-.122.133-.248.262-.369.395l-1.113.132c.104-.32.196-.29.37-.527h-.744v.133h.187c.213.206-.456.123-.556.132v.395h-.187v.132c-.308.043-.617.087-.925.133.061-.219.121-.438.187-.657-.452.074-.413.136-.743.262v.133c-.37-.086-.743-.176-1.113-.262v.132c-.213.151-.074 0-.187.262-.304.04-.808.275-.925.262v-.132h-.556c-.257-.037.069-.173-.187-.133l-.187.262h-.369l.186-.262h-.186c-.213.151-.001.053-.37.133v.262c-.308.043-.617.086-.925.132-.035-.006-.061-.188-.37-.132v.132h-.369v.133c-.183-.028-.217-.355-.369-.262-.305.178.204.252-.557.394v.395h-.186v-.262h-.187c-.061.086-.122.175-.187.261h-.743c-.222-.286-.409-.434-.926-.526v.132h-.743l-.187.262-.556-.133v.395h-.369c-.456.551-.413.154-.926.394.061.087.122.176.187.262-.37-.043-.743-.086-1.112-.132-.018.003-.096.228-.37.262v-.133h-.743l-.186-.132v.132c-.526.24-.544.38-1.482.394-.209-.224-.118-.178-.556-.261v.261h-.37v-.132c-.234-.052-.486.373-.556.394-.382.12-.53-.114-.743-.132v.132c-.37.043-.743.087-1.112.133l-.187-.395c-.513.096-.413.037-.556.395-.557.043-1.113.086-1.669.132l-.187.262h-1.3v.133c-.481.101-.864.012-1.298.132-.105-.32-.196-.29-.37-.527-.208.111-.026-.015-.186.133-.652.327-.044.468-.926.656v.133h-.926l-.186.262c-.413.117-.522-.164-.744-.133v.133c-.369.052-.234-.059-.369-.133h-.187v.262a37.64 37.64 0 0 1-.556-.133v-.132l-.556.133v-.133h-.743l-.187-.262c-.26 0-.087-.04-.187.133-.23-.151-.07 0-.187-.262h.743v-.262h-.743c-.173-.237-.256-.207-.369-.527h.37c-.11-.542-.2-.629-.557-1.183-.243.067.052.052-.187.132h-.556v.133c.374.074.16-.016.37.132-.53-.012-.796-.024-1.113-.132v.132c.213.151.074 0 .187.262-.908 0-1.056.151-1.669.262v-.394h-.186v.132H76.9l-.37-.132v.394h-.556v-.262h-.187v.262h.187v.394c-.617-.003-.839-.067-1.3-.132v.262c-.438-.016-.469-.04-.742-.133v.133c-.213.15-.074 0-.187.262-.978-.077-.426-.284-1.3-.133v-.262c-.295-.03-.234.225-.369.262-.695.185-1.268.074-1.855 0v.395l-.37-.133v.133c-.373.225.018.2-.186.394h-.187c-.448-.475-1.734-.08-2.594 0v.394c-.348-.067-1.013-.471-1.3-.394v.133h-.186v.394c-.556.043-1.113.086-1.669.132v.262h.187c-.06.133-.122.262-.187.395-.439-.016-.47-.04-.743-.133v.133H62.8v-.395h-.37v.395h-.186v-.133H61.5v.133l-.37-.133v.133c-.408.089-.612.04-.925.132v.394c-.925.1-.917.118-1.669-.261l-.186.394h-.743v.133c-.248.043-.496.086-.743.132v-.262h-.37c-.113.462-.2.604-.925.656v-.132c.213-.151.074 0 .187-.262a62.21 62.21 0 0 1-.743-.132v-.133c-.352-.077-.257.074-.37.133l-.556-.133v.133h.187v.526h-.37V16c-.508.21-.334.324-1.112.395-.135.364-.052.293-.556.394-.5.42-1.082.318-1.855.262v-.262h.742c-.06-.132-.121-.262-.186-.394-.283.077-.304.102-.743.132-.03-.357-.061-.792-.37-.92v-.133c.135-.139.144.114.37-.133h-.37c-.33-.138.37-.132.37-.132-.105-.32-.196-.29-.37-.527h.556c.152.172.13.154.37.262-.452-.69-.682-1.328.925-1.316.213.151 0 .052.37.133.06-.22.121-.438.186-.657h-.369v.262h-.37l.188-.394h-.187c-.14.25.13.135-.187.262-.243-.154.222-.2-.187-.262v.262l-.37-.133v.133h.188c-.122.175-.248.35-.37.527h-.187v-.395h-.186v.133h-.557c-.121.132-.247.261-.369.394h-.37v.132h-.556v.133h-.369v.133c-.747.187-1.308-.182-1.668 0-.504.23-.587.727-.743.788h-1.669c-.213-.15 0-.052-.37-.132v-.262h-.186c.06.175.121.351.187.527h-.187c-.352.215-.982.138-1.482.262v.132c-.274.062-.726-.142-.743-.132v.262h-.925l-.557.92h-.187v-.394h-.369c-.04.312-.078.327-.187.527-.208-.11-.026.016-.187-.132-.213-.151-.074 0-.187-.262.318-.148.253-.083.37-.395h-.556v.79a91.982 91.982 0 0 1-.926-.133v-.133c.213-.15.074 0 .187-.262h-.37l.188-.262h-.187c-.213.151 0 .053-.37.133-.047.256-.182.256-.187.262-.295.647.166.841-.925.921v-.262c-.257.065-.409.053-.743.133v.132c-.187-.043-.37-.086-.556-.132v.132h-.37l.187.262h-1.112v.133c.213.15.074 0 .187.262-.3-.01-1.3-.133-1.3-.133-.06.086-.121.176-.186.262-.505.194-.591.034-.926 0v.133h-.37l-.186.261c-.309.044-.617.087-.926.133v.132c-.247-.043-.495-.086-.743-.132-.308.043-.617.086-.925.132v.133c-.552.11-.752-.21-1.113-.262v.132c-.213.151-.074 0-.187.262h-.743l-.186-.132c-.096.03-.053.234-.37.262v-.133l-.556-.132v.132c-.187.043-.37.087-.556.133v-.262c-.335.123-.291.182-.743.262v.262h-.187v-.395c-1.043-.009-1.838-.314-2.225-.788l.37-.133c.013-.185-.183.055-.187-.133.06-.218.121-.437.186-.656h.37c-.409-.82.456-1.275.556-2.104a15.641 15.641 0 0 1 2.038-.133v-.394h.556c.126-.385.204-.431.743-.527v-.262c1.082-.176.105-.333 1.113 0v-.262c.412-.055.634-.126.925-.262v-.132c.37-.025.13.2.37 0 .212-.151.073 0 .186-.262h.37c.213-.533.378-.262.743-.656.37.086.743.175 1.112.262v-.133h.187v-.527c-1.065.016-1.36.108-2.225 0-.104.413-.182.552-.743.656v-.261h-.37v.394c-.377.142-.73.388-1.298.394l-.187-.132c-.67.357.06.613-1.3.656l.187-.527h-.369v.133h.187c.013.046-.317.474-.37.656h-.369v-.262h-.37v.262l-.186-.133-1.112.262c-.061.087-.122.176-.187.262-.244.074.039-.098-.187-.132-.187.043-.37.086-.556.132v-.132h-.556v-.133h-.187v.133s-.513-.12-.743-.133c-.122.22-.248.438-.37.657-.16-.04-.408-.253-.743-.133v.133H18.3v.394h-.186v-.394h-.187v.527c.03.184.195-.056.187.132l-.187.132c-.322-.114-.066-.015-.187-.261h-.187v.261l-.926.133.187-.262h-.187c-.286.228-.334.13-.743.262v.133c-.273.073-.708.033-.743-.133h-.187v.394h-.186v-.132h-.187v.262h-.37v.262c-.469-.105-1.147-.01-2.038 0-.06.308-.121.613-.186.921h-.37v-.262c-.282.077-.304.102-.743.132v.395c-.37.086-.743.176-1.112.262v.132h-.37v.133c-.908.243-1.12-.204-1.668.394h-.187l.187.133c-.06.132-.122.262-.187.394a62.271 62.271 0 0 1-.743-.132v.394c-.656.05-.565.163-1.112.262v-.262h-.187v.394c-.37.044-.743.087-1.113.133l-.186.394h-.37c-.06.133-.121.262-.187.395h-.186v-.395h-.187l-.187.262-.556-.132V20.2c-.361-.064-.248.074-.37.133L1.41 20.2l.187-.132v-.133H1.41v-.394h.187v-.133h-.37c-.004-.437-.095-.594-.186-.921H.67c-.33-.139.37-.132.37-.132.06-.133.122-.262.187-.395.956.031.917.25.925-.527.309-.043.617-.086.926-.132v-.527l.556-.133c.213-.15 0-.052.37-.132v.262h.369v-.262c.187.043.37.086.556.132v-.261h-.187l.187-.395h.187v-.132h.556c-.004-.185.04-.037-.187-.133v-.132h.556v-.133h.187l.187.262c.617.086 1.234.176 1.855.262.018-.493.17-.604.37-.921.187.043.37.086.556.132v-.262h.556l-.187.262h.187v-.132h.37c.204-.114.082-.318.369-.395.165.117.07.222.37.262.12-.132.247-.262.369-.394h.556v-.133h.187v-.527h.369v.262c.79-.052.839-.27 1.482-.394.148-.425.343-.453.369-1.05h1.669v.132l.556-.133v-.132c.278-.053.252.234.37.262l.555-.133v.262h.187v-.262c.209-.11.026.016.187-.132l-.37.132v-.527h.188v-.527h.925l-.187.395h.556c.296-.256.674-.351.926-.656.191.114.256.228.37.394.186-.086.369-.176.556-.262v-.133h.369l.187-.261c.121.043.247.086.37.132.247-.132-.227-.222.186-.262v.133c.187.043.37.086.556.132v-.262c-.213-.15-.074 0-.187-.262.478.062.822.127 1.482.133.265-.28.487-.265.926-.395l-.187-.394h.743v-.132h.187v.132h.369v-.262c1.052-.021.69-.203 1.3-.394h.742v-.133c.213-.15.074 0 .187-.262h.556v.262h.37c.152-.422.217-.382.925-.394v.262c.435-.142.604-.302 1.113-.395v-.394h.369v-.262c.978.003 1.464-.154 2.225-.262.134.364.052.293.556.395a15.97 15.97 0 0 0-.187-.395h.187c.204-.185.647-.385.925-.527V7.17h.557v.132h.186v.395h.187c.061-.524.191-.607.926-.657v.133c.248.062-.07-.083.187-.133.743-.086 1.481-.175 2.224-.261-.186-.41-.104-.2 0-.657.452-.074.409-.135.744-.262v.133h.186c.148.194-.186.262-.186.262l.186.262c.426-.253.235-.395.926-.527.06-.133.122-.262.187-.395.53.154.873.25 1.668.262.187-.262.37-.527.557-.789h.369l.187.262 1.299-.262v-.132h1.3l.186-.262h.37c.117-.36.243-.299.369-.656.247.043.495.086.743.132v-.132c.204-.117.039.021.187-.133h-.187c-.183-.218.265-.11.37-.132V3.62c.186.043.369.087.555.133-.06.086-.121.175-.187.262h.187c.583-.475 1.091 0 1.856.132.126-.172.23-.142.37-.262l-.188-.262h.37v-.132l.369-.133c.026-.184-.04.022-.187-.132l.187-.262c.626.092.712.287 1.3.394v-.394c.508.083.42.173.925.262v-.394c.204.043.365.234.743.132v-.132h.556v-.133l1.112-.656V1.78h.37v.132c.256.037-.035-.027.187-.132l.369.132-.187.395c1.034.055 1.56.234 2.225-.262-.365-.148-.435-.185-.556-.527l.556-.133c.06.087.121.176.187.262h.369V1.12c.404.056.53.087.743.262l1.112-.262-.186-.261h.925V.598l.091.03ZM61.001 2.6v.262h.186V2.6H61Zm165.185.262v.262h.187v-.262h-.187Zm-164.63.395v.262h.187v-.262h-.187Zm-2.594.262v.262h.187v-.262h-.187Zm162.587.394c.213.151 0 .052.37.132-.213-.15 0-.052-.37-.132Zm-14.643.132c.213.151 0 .053.369.133-.213-.151 0-.052-.369-.133ZM50.62 4.44c.017.447 0 .477.369.656v-.132h-.187v-.527h-.187l.005.003Zm153.505.132c.213.151 0 .053.369.133-.213-.151 0-.053-.369-.133Zm-20.21.13v.262h.187v-.262h-.187Zm12.979.132-.187.262s.539-.21.37-.262h-.187.004Zm19.093 0h.37c-.157.148.021.019-.187.133v.132c-.213-.15-.074 0-.187-.262l.004-.003Zm-164.073.133c.213.15 0 .052.37.132-.213-.15 0-.052-.37-.132Zm104.009.13v.261h.187v-.262h-.187Zm-101.966.526v.133h-.187c-.352.114.37.132.37.132.156-.148-.023-.018.186-.132-.213-.151 0-.053-.37-.133Zm142.381 0v.133h-.187c-.352.114.37.132.37.132.156-.148-.022-.018.186-.132-.213-.151 0-.053-.369-.133Zm47.459 0v.133h-.187c-.352.114.37.132.37.132.156-.148-.022-.018.186-.132-.212-.151 0-.053-.369-.133Zm-124.214.133v.261h.187v-.261h-.187Zm-45.79.129v.262h.187v-.262h-.187Zm47.459 0v.262h.187v-.262h-.187Zm34.297 0c.313.283.369.262.369.262.135-.126-.321-.231-.369-.262Zm47.463 0c.313.283.37.262.37.262.134-.126-.322-.231-.37-.262Zm13.162 0v.262h.187v-.262h-.187Zm34.297 0c.313.283.37.262.37.262.135-.126-.322-.231-.37-.262ZM46.909 6.15h-.37v.132h.187v.133h.187v-.262l-.004-.003Zm2.411.789h.37a27.65 27.65 0 0 0-.187-.527h-.187v.527h.004Zm142.382 0h.369l-.187-.527h-.187v.527h.005Zm47.459 0h.369l-.187-.527h-.187v.527h.005ZM47.282 6.674V7.2h.187v-.527h-.187Zm47.46 0V7.2h.186v-.527h-.187Zm94.922 0V7.2h.187v-.527h-.187Zm27.436.265v.394h.187c.186-.237.408-.391.743-.527v-.132h-.37c-.208.225-.117.178-.556.262l-.004.003Zm20.023-.265V7.2h.187v-.527h-.187Zm-106.229.132v.262h.187v-.262h-.187Zm47.459.262h.369v-.132c-.208-.111-.026.015-.187-.133h-.186v.262l.004.003Zm-103.635-.13v.395h.187V6.94h-.187Zm47.459 0v.395h.187V6.94h-.187Zm81.205.525c.134.363.052.292.556.394.117-.36.243-.299.369-.656h-.187c-.234.25-.186.218-.743.262h.005Zm1.668-.262v.262c.487-.01.63-.053.926-.133v-.132h-.926V7.2Zm-97.886.132v.395h.187v-.133c.209-.11.026.015.187-.132l-.369-.133-.005.003Zm47.46 0v.395h.186v-.133c.209-.11.026.015.187-.132l-.369-.133-.004.003Zm47.459 0v.395h.186v-.133c.209-.11.026.015.187-.132l-.369-.133-.004.003Zm47.463 0v.395h.187v-.133c.208-.11.026.015.187-.132l-.37-.133-.004.003Zm-118.839.13v.261h.187v-.261h-.187Zm86.023 0c.313.283.37.261.37.261.134-.126-.322-.23-.37-.261Zm-98.072.265v.394h-.37v.262l.37-.133.187-.394c.208-.111.026.015.186-.133h-.369l-.004.004Zm7.786 0v.261h.187v-.261h-.187Zm47.459 0v.261h.187v-.261h-.187Zm29.109.261h-.556v.262h.37c.173-.237.256-.206.369-.527h-.187v.262l.004.003Zm18.35-.261v.261h.187v-.261h-.187Zm-118.091.523V7.99c-.209.111-.026-.015-.187.133h-.187c.213.15 0 .052.37.132l.004-.003Zm46.903-.262v.395h.187c.213-.151 0-.053.369-.133V7.99h-.556Zm26.324.262V7.99h-.557v.133h.187c.213.15 0 .052.37.132v-.003Zm21.691 0V7.99c-.208.111-.026-.015-.187.133h-.187c.213.15.001.052.37.132l.004-.003Zm14.648-.262v.262c.209-.11.026.016.187-.132h.187c-.213-.151 0-.053-.37-.133l-.004.003Zm26.324.133v.262h.187v-.262h-.187Zm-122.728.524h.369c-.156-.148.022-.019-.187-.133v-.262h-.186v.395h.004Zm-52.282-.262v.262h.187v-.262h-.187Zm47.463 0v.394h.187v-.394h-.187Zm94.918 0v.262h.187v-.262h-.187Zm36.153 0c.213.15.074 0 .187.262h-.187v-.262Zm11.31 0v.262h.187v-.262h-.187Zm-215.799.132v.262h.187v-.262h-.187Zm47.46 0v.262h.186v-.262h-.187Zm94.922 0v.262h.187v-.262h-.187Zm47.459 0v.262h.187v-.262h-.187Zm-130.884.13c.017.027.265.477.37.394v-.132h.186c-.16-.136-.321-.182-.556-.262Zm47.828.66h.37v-.263h-.37l.187-.262a36.464 36.464 0 0 1-.556-.132v.132c.252.154.282.24.369.527v-.003Zm-48.94-.528.186.395h.187c-.113-.315-.06-.244-.37-.395h-.003Zm47.459 0c.06.133.121.262.186.395h.187c-.113-.315-.061-.244-.369-.395h-.004Zm3.524 0h-.37c.157.148-.021.019.187.133v.132h.187v-.262l-.004-.003Zm73.23.527h.37v-.262h.187c-.061-.086-.122-.175-.187-.262-.209.111-.026-.015-.187.133h-.187v.394l.004-.003ZM65.45 8.911c.213.15 0 .052.37.132-.214-.15 0-.052-.37-.132Zm31.516 0v.394h.187v-.394h-.187Zm47.459 0v.394h.187v-.394h-.187Zm3.524 0h-.369c.156.148-.022.018.187.132v.133h.187v-.262l-.005-.003Zm21.505 0v.394h.187v-.394h-.187Zm47.463 0v.394h.187v-.394h-.187Zm-187.62.13v.261h.187V9.04h-.187Zm8.713 0v.261h.186V9.04h-.186Zm47.463 0v.261h.187V9.04h-.187Zm12.419.264v-.262c-.209.111-.026-.015-.187.133h-.187c.213.15 0 .052.37.132l.004-.003Zm35.04-.265v.262h.187V9.04h-.187Zm14.274 0v.789h.187V9.04h-.187Zm23.73 0v.262h.187V9.04h-.187Zm.743 0v.262h.187V9.04h-.187Zm8.712 0v.262h.187V9.04h-.187Zm38.008 0v.262h.187V9.04h-.187Zm.743 0v.262h.187V9.04h-.187Zm8.712 0v.262h.187V9.04h-.187Zm-194.477.133c.213.15 0 .052.37.132-.213-.15 0-.052-.37-.132Zm47.46 0c.212.15 0 .052.369.132-.213-.15 0-.052-.37-.132Zm142.381 0c.213.15 0 .052.369.132-.213-.15 0-.052-.369-.132Zm-129.22.261.187.395h.187c-.113-.314-.06-.244-.37-.395h-.004Zm47.464 0c.061.133.121.262.187.395h.186c-.113-.314-.06-.244-.369-.395h-.004Zm12.049.133v.262h.187v-.262h-.187Zm-117.17.656c-.135-.363-.052-.292-.556-.394.06.175.121.351.187.527h.556v.132c.26.025-.07-.092.187-.132h.743v-.527c-.209-.111-.026.015-.187-.133h-.37v.133h.187c.061.237-.46.345-.743.394h-.004ZM60.444 9.7l-.187.262s.54-.21.37-.262h-.187.004Zm142.382 0-.187.262s.539-.21.369-.262h-.187.005Zm-174.085.657h.37v-.133c-.21-.11-.027.016-.187-.132h-.187v.262l.004.003Zm6.488-.262v.262c.208-.111.026.015.186-.133h.187c-.213-.15 0-.052-.37-.132l-.003.003Zm40.971.262h.37v-.133c-.21-.11-.027.016-.187-.132h-.187v.262l.004.003Zm6.492-.262v.262c.209-.111.026.015.187-.133h.187c-.213-.15 0-.052-.37-.132l-.004.003Zm47.459 0v.262c.209-.111.026.015.187-.133h.187c-.213-.15 0-.052-.37-.132l-.004.003Zm88.435.262h.369v-.133c-.208-.11-.026.016-.187-.132h-.186v.262l.004.003Zm6.487-.262v.262c.209-.111.026.015.187-.133h.187c-.213-.15 0-.052-.369-.132l-.005.003Zm-192.808.789v-.262l-.556.132.187.527h-.187v.133c-.435.043-.865.086-1.3.132v.262c.244.025 1.152.16 1.3.133l.187-.262.556.132c.06-.219.122-.437.187-.656h.187c.212-.151 0-.053.369-.133v.262h.925v-.262h.37l-.37-.789h-.186l-.187.395c-.265.132-1.07.237-1.482.262v-.006Zm20.949-.66v.395h.186v-.395h-.186Zm-24.842.265v.262h.186v-.262h-.186Zm28.922 0v.262h.187v-.262h-.187Zm18.537 0v.262h.186v-.262h-.186Zm47.459 0v.262h.187v-.262h-.187Zm55.063 0c.213.151 0 .053.369.133-.213-.151 0-.053-.369-.133Zm21.322 0v.262h.187v-.262h-.187Zm18.537 0v.262h.187v-.262h-.187Zm-168.522.13c.213.15.074 0 .186.262h-.186v-.262Zm47.276.132c.209.225.117.179.556.262-.16-.136-.321-.182-.556-.262Zm21.136.262h.369v-.132c-.209-.111-.026.015-.187-.133h-.187v.262l.005.003Zm-68.782-.13h.37v.133c-.374-.074-.161.016-.37-.132Zm51.726 0c.213.152.074 0 .187.263h-.187v-.262Zm49.871.524h-.369v-.526h-.187v.132c-.213.151-.074 0-.187.262.187.086.369.176.556.262.157.148-.022.018.187.132v-.261Zm-51.54-.394v.262h.188v-.262h-.187Zm-60.811.265v.262h.186v-.262h-.186Zm47.463 0v.262h.187v-.262h-.187Zm40.972.13c.213.15 0 .052.369.132-.213-.151 0-.052-.369-.133Zm-65.818.394v-.262c-.209.11-.026-.015-.187.132h-.187c.213.151 0 .053.37.133l.004-.003Zm94.922 0v-.262c-.208.11-.026-.015-.187.132h-.187c.213.151.001.053.37.133l.004-.003Zm-111.421.265v.262h.187v-.262h-.187Zm3.71 0v.262h.188v-.262h-.187Zm-13.904.13v.261h.187v-.262h-.187Zm14.83.264c-.008.533-.087.567.37.789v-.133c-.313-.283.143-.634.369-.92h-.187c-.209.224-.117.178-.556.261l.004.003Zm3.337-.265c.213.151 0 .053.37.133-.213-.151 0-.053-.37-.133Zm9.638 0c-.06.133-.122.262-.187.395h.187v-.133c.078-.077.304-.018.187-.262h-.187Zm19.654 0v.262h.187v-.262h-.187Zm62.294.265c-.009.533-.087.567.369.789v-.133c-.313-.283.143-.634.369-.92h-.187c-.208.224-.117.178-.556.261l.005.003Zm3.337-.265c.213.151 0 .053.369.133-.213-.151 0-.053-.369-.133Zm-82.873.133v.262h.187v-.262h-.187Zm20.766.262h.37v-.133c-.21-.11-.027.016-.188-.132h-.186v.262l.004.003Zm26.697-.262v.262h.187v-.262h-.187Zm16.499 0c.213.15.074 0 .187.262h-.187v-.262Zm-40.789.132c-.06.086-.121.176-.187.262l.37.133c.134-.158-.392-.114 0-.395h-.187.004Zm-22.804.13-.187.394h.187v-.262h.187v-.132h-.187Zm47.464 0-.187.261s.538-.209.369-.261h-.187.005Zm-97.335.527h.37v-.133c-.209-.11-.026.015-.187-.133h-.187v.262l.005.004Zm104.378 0h-.369c.156.147-.022.018.187.132v.133h.187v-.262l-.005-.003Zm-98.072.261v.262h.186v-.262h-.186Zm26.697 0v.527h.187v-.132h.187c-.061-.086-.122-.176-.187-.262h.187c-.213-.151 0-.052-.37-.133h-.004Zm68.225 0v.262h.187v-.262h-.187Zm27.992 0c-.213.151 0 .053-.369.133v.132h.369c.061-.086.122-.175.187-.261h-.187v-.004Zm-86.393.395-.186.262s.538-.21.369-.262h-.187.005Zm-7.043.265v.262h.187v-.262h-.187Zm4.08 0v.262h.187v-.262h-.187Zm-8.717.262h.37c-.152.172-.13.154-.37.262v.132h-.186l.186-.394Zm6.492 0-.187.262s.54-.21.37-.262h-.187.004Zm-14.278.527v.261h.186v-.261h-.186Zm-14.275.656v.262h.187v-.262h-.187Zm4.08.132v.395h.744v.262h.556c.152-.173.13-.154.37-.262v-.395c-.774.096-.779.034-1.67 0Zm-15.017.262c.213.151 0 .053.37.133-.213-.151 0-.053-.37-.133Zm38.378.133v.262h.187v-.262h-.187ZM5.75 18.11c-.06.133-.121.262-.187.395h.187v-.262h.187v-.133H5.75Zm23.917.133v.262h.186v-.262h-.186Z" fill="#FDE6AD"/></svg>