<svg width="211" height="260" fill="none" xmlns="http://www.w3.org/2000/svg"><path d="M143.228 245.947c-1.816 1.232-2.096-.381-4.509 2.312-3.189 3.57.216 6.555 4.535 6.936 3.023.267 10.493-.75 9.451-4.256-.432-1.473-.863-2.591-.876-3.607-3.189 1.143-5.907.305-8.613-1.397l.012.012Z" fill="#003F67"/><path d="M156.238 211.269c-3.646-1.715-8.131 2.566-8.88 4.675-1.322 3.722-1.944 7.901-2.465 9.844-.826 3.049-.038 8.536.076 12.373.064 2.096.165 6.465-1.689 7.761-.013 0-.026.013-.051.025 2.693 1.703 5.424 2.541 8.613 1.398 0-.496.089-.966.33-1.423.915-1.74 3.024-4.116 3.329-8.473.305-4.369.317-3.709.457-7.634.14-3.925 2.172-8.993 3.405-12.131 1.664-4.217.66-4.636-3.113-6.415h-.012Zm30.31 36.558c-.482-.648-.775-1.296-.698-2.172.177-1.957 1.168-5.069-.14-8.93-1.309-3.862-1.067-3.303-2.363-6.707-1.296-3.405-1.41-7.266-.8-10.62 1.257-6.999-5.209-9.92-9.236-9.92-5.793 0-5.221 11.686-3.468 14.824 1.74 3.137 2.757 6.77 2.998 8.701.381 3.01 2.744 8.625 3.697 10.225 1.029 1.728 2.668 5.031 1.499 7.089a3.882 3.882 0 0 1-.623.851c3.354 1.283 7.026-.343 9.134-3.367v.026Z" fill="#FFDBB0"/><path d="M186.548 247.827c-2.122 3.023-5.78 4.637-9.134 3.366-.864.902-1.601.597-2.541 3.532-1.524 4.7 2.554 5.436 6.504 3.48 2.757-1.372 8.969-6.148 6.784-8.574-.622-.699-1.194-1.245-1.6-1.804h-.013Z" fill="#003F67"/><path d="M153.734 136.73c-.686-1.842-11.217-17.644-11.115-18.52.114-.877.457-4.167-.039-5.335-.851-2.058-2.286.368-3.137-.165-.851-.534-2.135-2.49-3.113-2.998-.978-.508-1.308.863-1.931 1.626-.622.762-1.829-1.08-2.413-.191-.407.61.025 2.287-1.055 2.591-1.067.305-1.219.648-.864 1.741.356 1.092.953 1.511.648 2.439-.305.927-.076 1.13.559 1.765s2.96 1.296 4.904 2.007c1.943.712 7.088 17.378 10.734 22.814 1.195 1.779 8.232-3.963 6.81-7.761l.012-.013Zm29.981 6.123c.978-1.703 13.961-15.574 13.986-16.45.038-.877.229-4.179.902-5.259 1.182-1.88 2.198.737 3.125.355.928-.381 2.516-2.108 3.557-2.451 1.055-.343 1.156 1.067 1.639 1.918.483.851 1.982-.762 2.414.203.292.661-.394 2.249.61 2.731 1.003.483 1.092.839.559 1.855-.534 1.016-1.182 1.334-1.029 2.299.152.965-.115 1.118-.839 1.651-.724.521-3.125.801-5.157 1.182-2.033.381-7.966 14.303-12.45 19.054-1.474 1.562-9.35-3.57-7.317-7.088Z" fill="#FFDBB0"/><path d="M149.287 186.448c2.261-1.486 12.729-1.334 17.735-1.448 9.591-.216 12.576-1.677 15.409 3.773 4.815 9.26 2.541 11.674 3.494 14.824 1.715 5.716 2.807 11.318-.585 12.499-3.252 1.131-11.916.483-16.426.585-4.624.101-3.239-6.682-4.141-6.428-1.194.33-1.093 2.185-1.093 5.335 0 2.617-5.03.953-12.322-.648-9.223-2.032-6.517-2.782-5.564-13.083.813-8.778.711-12.411 3.493-15.409Z" fill="#003F67"/><path d="M188.174 158.007c1.956-3.493 4.725-6.173 6.682-9.336 1.295-2.083-2.401-3.773-5.882-6.39-3.735-2.807-3.214-3.798-7.267-.076-2.731 2.503-7.8 3.265-10.429 2.185-1.855-.762-3.367.267-6.428-.826-2.224-.8-5.107-4.712-9.249-9.501-1.689-1.956-6.009 2.096-10.379 5.36-1.562 1.169-3.328 3.913-1.524 6.542 1.245 1.817 6.466 7.355 6.072 11.598-.292 3.277-2.668 19.231-3.531 25.037-1.512 10.073 8.93 8.218 19.881 7.316 8.651-.711 22.549 3.354 20.427-5.259-1.295-5.258.039-23.817 1.627-26.637v-.013Z" fill="#F2A096"/><path d="M175.939 143.843c-3.735 2.058-7.635 1.918-10.163.508-2.541-1.422-4.484-3.506-5.894-6.072-.953-2.375-1.055-5.246-.814-6.325.216-.991.725-2.033 1.372-2.922 1.538-2.083-.127-2.972 4.091-6.555 1.283-1.092 7.978-5.64 15.003-2.172 6.187 3.049 4.205 19.257-3.608 23.564l.013-.026Z" fill="#FFDBB0"/><path d="M163.871 119.391c.712-.89 3.519-2.376 6.098-2.058 3.176.394 4.218-1.461 7.33-.419 4.345 1.448 7.673 4.509 8.575 6.071 1.957 3.367 1.347 5.412 1.588 7.52.445 3.824-.571 10.988-7.749 11.979-1.359.191-3.646 1.677-3.506.953.482-1.918 2.02-3.214 3.417-4.078 1.423-.889 1.588-3.836-.495-3.595-1.728.191-1.855-.787-1.919-4.28-.076-4.256-18.255-2.782-13.339-12.106v.013ZM69.646 245.858c1.992 2.272 6.174 4.193 7.966 6.876 2.425 3.642 3.936 8.48-4.1 6.336-8.036-2.143-14.338-9.288-15.181-12.369-.82-3.022 2.46-2.799 3.045-4.064 2.53 1.64 5.365 2.858 8.27 3.221Z" fill="#003F67"/><path d="M64.644 226.848s8.75 2.272 8.61 3.748c-.14 1.476-4.463 9.042-4.697 12.65-.059.949.375 1.804 1.09 2.612-2.906-.363-5.729-1.581-8.271-3.221.012-.023.035-.047.047-.082.468-1.359 1.827-13.904 3.221-15.719v.012Zm36.783 17.418c2.776 1.183 7.392 1.101 10.168 2.741 3.772 2.225 7.228 5.938-.949 7.496-8.165 1.558-16.95-2.143-19.047-4.568-2.05-2.366 1.007-3.596.984-4.99 2.999.375 6.068.246 8.844-.679Z" fill="#003F67"/><path d="M88.67 229.296s8.868-1.746 9.395-.352c.528 1.394-.105 10.085 1.254 13.435.351.879 1.124 1.464 2.108 1.886-2.776.937-5.845 1.054-8.844.679v-.093c-.164-1.429-4.381-13.33-3.912-15.555Z" fill="#003F67"/><path d="M57.71 113.03c-1.745.375-5.868 9.582-5.236 25.547.258 6.419 2.074 17.289 2.577 20.17 1.746 9.874.902 85.308 1.523 85.495 6.747 2.061 12.347 1.558 15.826 1.769 3.48.199 3.666-55.451 4.041-62.081.281-4.825.27-31.25 3.304-31.543 2.378-.235 4.076 37.26 4.568 44.006.504 6.993 3.526 45.143 3.714 46.982.257 2.53 14.912 2.94 15.462.445 1.769-8.129.293-53.693-.702-65.781-.797-9.734-.961-63.779-3.76-63.439-1.442.176-41.305-1.558-41.305-1.558l-.012-.012Z" fill="#F2A096"/><path d="M84.349 34.645c-.34 0-5.963.047-6.396.012-.176.726-.504 3.631-.844 4.557-.867 2.354-2.73 5.095-4.252 7.028-3.89 5.282 18.122 3.959 15.978 1.499-1.991-2.237-3.772-5.775-4.451-9.289-.246-1.288-.035-3.326-.035-3.806Z" fill="#FFDBB0"/><path d="M72.774 33.11c1.628 4.089 4.732 6.455 7.579 6.9 2.847.445 5.646-.059 8.329-1.277 2.202-1.37 4.053-3.69 4.545-4.732.445-.96.703-2.144.738-3.303.094-2.706 1.933-2.378.867-8.047-.316-1.722-2.706-9.758-10.309-11.362-6.689-1.417-15.158 13.283-11.76 21.833l.01-.011Z" fill="#FFDBB0"/><path d="M86.983 20.402c2.706-3.701 7.591 6.712 8.587 4.322 2.647-6.36-4.616-12.954-7.614-14.243-3.175-1.359-6.057-2.038-10.473-.96-3.9.948-3.714 2.354-5.295 3.595-4.076 3.175-5.435 7.602-5.6 11.737-.07 1.898 1.465 6.735 3.28 9.02.692.878 3.667 2.916 5.378 3.783 1.358.68.093-5.412-1.617-6.653-2.331-2.718-1.745-3.643-1.113-4.58.633-.937 2.448-1.394 2.847-.434 2.014 4.768.984.117 2.343-.75 3.701-2.365 1.686 2.367 9.254-4.837h.023Z" fill="#003F67"/><path d="M74.45 15.166c-.797-1.312-1.946-4.03-3.047-5.13-1.1-1.102-2.284-2.296-3.96-2.613-2.6-.492-3.947-.34-5.27.492-1.184.727-2.894 4.123-2.859 6.478-.328 3.08-2.401 4.03-3.795 4.673-1.98.914-5.47.375-5.049 1.84 1.207 4.286 3.596 4.93 6.115 4.509 8.13-1.359 3.596-8.832 8.551-9.898 4.955-1.066 5.377-.375 9.313-.34v-.011Z" fill="#003F67"/><path d="M106.956 46.077c3.702-1.675 13.097-9.827 16.447-13.353 6.712-7.063 9.664-14.231 10.449-15.004 1.219-1.183 4.253-4.662 6.185-6.888.785-.902 1.043-2.73 1.441-6.372.176-1.605-1.921.094-2.53-1.71-1.019-3.034-2.296-1.277-3.104-1.804-1.406-.925-1.781-1.218-2.648.867-.867 2.085-1.171 3.514-1.335 4.533-.164 1.019-.762 2.483-1.628.808-.867-1.675-1.453-2.542-2.753-2.8-1.301-.257-1.781.622-.504 2.53 1.007 2.53.586 6.139.808 7.685.094.667-5.095 7.52-8.621 11.315-1.851 1.98-16.189 11.666-17.501 12.45-5.377 3.187 1.675 9.406 5.294 7.767v-.024Zm-54.33 25.5c-2.554 3.163-12.206 6.817-17.794 9.465-8.809 4.17-16.2 5.786-17.15 6.348-1.452.879-5.575 2.94-8.223 4.264-1.078.539-2.905.328-6.536-.2-1.605-.233.562-1.838-1.031-2.869-2.683-1.745-.656-2.542-.973-3.467-.538-1.593-.726-2.026 1.512-2.343 2.237-.316 3.69-.257 4.72-.164 1.031.094 2.59-.105 1.184-1.37-1.406-1.265-2.097-2.038-2.027-3.374.082-1.323 1.054-1.57 2.577.153 2.202 1.604 5.787 2.108 7.24 2.706.62.257 8.55-3.046 13.108-5.517 2.39-1.289 16.54-10.566 17.618-11.632 4.44-4.404 8.247 4.896 5.752 8h.023Z" fill="#FFDBB0"/><path d="M98.944 37.702c-3.796 2.811-10.332 7.66-10.953 6.302-.843-1.84.387-2.155-4.451-2.495-3.585-.258-5.436-.234-6.841-.211-2.519.059-3.327 1.3-4.288 1.523-3.174.75-3.456 1.991-10.32 5.774-4.791 2.648-9.043 6.583-13.706 9.898-4.275 3.034-3.584 3.62 0 10.87 2.894 5.856 4.733 5.868 6.959 5.376 3.408-.761-1.031 10.917-1.031 21.271 0 4.78-.797 14.9-.914 23.509-.047 3.643 16.353 3.455 19.47 3.022 2.623-.363 13.447-.855 17.032.211 2.448.726 13.073.422 13.237-3.631.421-10.917-2.894-16.411-2.894-21.787 0-5.505-.445-26.823 1.265-36.217 1.664-9.125 7.439-11.585 10.473-14.782 2.589-2.73.422-3.151-3.093-7.72-4.229-5.493-4.357-5.06-9.945-.925v.012Z" fill="#EE8084"/><path d="M92.91 51.266c-8.035.574-15.684.281-19 .281-4.697 0-6.7-2.213-7.25 3.866-.551 6.079-3.316 19.62-9.395 28.194-6.08 8.562-5.799 9.124-5.799 16.023 0 6.899-3.69 42.402-4.276 51.503-.831 12.99-.234 13.681 5.846 13.681s23.311.598 35.19.036c11.877-.563 22.76.117 21.928-7.075-.831-7.18-3.655-16.727-3.936-26.121-.199-6.911-2.905-36.78-4.732-43.093-2.484-8.562-4.979-22.114-4.979-29.576 0-7.461.281-8.011-3.596-7.742v.023Z" fill="#E2C2BC"/><path d="M93.848 44.25c1.207 3.889 2.25 6.922 2.296 10.26.023 1.898-.398 3.187-2.46 3.07-2.062-.118-2.987-.012-3.022-2.366-.035-2.355-2.331-9.617-2.261-10.859.07-1.241 1.722-2.213 3.397-2.073 1.066.082 1.605.516 2.05 1.98v-.012Zm-21.391-.785c0-1.803-5.693.469-5.693 2.823 0 2.355-.117 4.569.023 7.192.141 2.624.82 2.062 2.906 1.933 1.1-.07 2.436.363 2.553-3.245.14-4.216.211-8.292.211-8.703Z" fill="#E2C2BC"/><path d="M54.898 117.832h12.44c1.113 0 1.898-.246 2.39-.761.61-.632.644-1.534.633-2.167-.036-.96 0-5.646.023-9.406.012-2.155.023-4.088.023-5.083a.37.37 0 0 0-.374-.375.37.37 0 0 0-.375.375c0 .995-.012 2.928-.024 5.083-.023 3.971-.058 8.469-.023 9.441.023.785-.106 1.3-.41 1.617-.34.351-.949.527-1.851.527H54.91a.37.37 0 0 0-.375.375c0 .21.164.374.375.374h-.012Zm-1.453-1.499a.37.37 0 0 0 .375-.375c0-.292 0-1.007-.012-1.944-.023-3.338-.07-9.535.012-11.303 0-.211-.152-.387-.363-.387-.176 0-.386.153-.386.363-.082 1.781-.036 8 0 11.339v1.944a.37.37 0 0 0 .374.375v-.012Zm46.131 1.558c1.477 0 3.011-.035 3.691-.059.21 0 .363-.187.363-.386a.363.363 0 0 0-.387-.363c-1.335.058-4.85.105-6.337 0-1.383-.094-1.875-.586-1.875-1.91 0-2.951 0-12.755.047-14.864a.386.386 0 0 0-.363-.386.378.378 0 0 0-.386.363c-.047 2.061-.047 11.092-.047 14.876 0 1.722.796 2.53 2.577 2.659.668.047 1.687.058 2.73.058l-.013.012Z" fill="#9FA198"/></svg>