<svg width="334" height="249" viewBox="0 0 334 249" fill="none" xmlns="http://www.w3.org/2000/svg">
<path d="M66.9267 235.676C68.8352 237.853 72.8583 239.708 74.5862 242.272C76.9202 245.763 78.3644 250.414 70.6533 248.353C62.9423 246.291 56.8818 239.451 56.0694 236.488C55.2828 233.589 58.442 233.808 58.9965 232.584C61.4336 234.156 64.1415 235.328 66.9396 235.676H66.9267Z" fill="#003F67"/>
<path d="M62.1197 217.434C62.1197 217.434 70.5142 219.611 70.3981 221.041C70.2692 222.458 66.1171 229.711 65.885 233.177C65.8205 234.091 66.246 234.903 66.9294 235.676C64.1442 235.328 61.4234 234.156 58.9863 232.584C58.9863 232.558 59.0121 232.532 59.025 232.507C59.4763 231.193 60.7787 219.16 62.1197 217.434Z" fill="#003F67"/>
<path d="M97.4456 234.143C100.115 235.276 104.538 235.199 107.207 236.771C110.83 238.909 114.144 242.465 106.304 243.959C98.4642 245.454 90.0311 241.898 88.0195 239.579C86.0466 237.312 88.9866 236.139 88.9608 234.8C91.8363 235.16 94.7892 235.044 97.4584 234.143H97.4456Z" fill="#003F67"/>
<path d="M85.2013 219.791C85.2013 219.791 93.7118 218.116 94.2147 219.456C94.7176 220.796 94.1115 229.131 95.4139 232.352C95.7621 233.202 96.4842 233.756 97.4384 234.156C94.7821 235.057 91.8163 235.173 88.9407 234.813C88.9407 234.787 88.9407 234.761 88.9407 234.722C88.786 233.344 84.7371 221.942 85.1884 219.791H85.2013Z" fill="#003F67"/>
<path d="M55.4684 108.225C53.7921 108.585 49.8334 117.423 50.4395 132.741C50.6845 138.899 52.4252 149.334 52.9152 152.091C54.5916 161.56 53.7792 233.949 54.3723 234.13C60.8584 236.114 66.2226 235.624 69.5624 235.817C72.9021 236.011 73.0826 182.611 73.4437 176.26C73.7145 171.635 73.7015 146.268 76.6158 145.985C78.8981 145.766 80.5229 181.735 81 188.215C81.49 194.927 84.3913 231.527 84.5718 233.292C84.8168 235.727 98.8978 236.114 99.4136 233.718C101.116 225.91 99.6974 182.199 98.7302 170.591C97.9566 161.251 97.8018 109.397 95.1197 109.719C93.74 109.886 55.4555 108.225 55.4555 108.225H55.4684Z" fill="#A2A2A2"/>
<path d="M81.0458 33.0258C80.7105 33.0258 75.3205 33.0773 74.9079 33.0258C74.7403 33.7214 74.4308 36.517 74.0955 37.3931C73.2574 39.6476 71.4779 42.2886 70.0079 44.1309C66.2684 49.1939 87.4158 47.9313 85.3527 45.5738C83.4442 43.4352 81.7292 40.0341 81.0845 36.6588C80.8395 35.422 81.0458 33.4638 81.0458 33V33.0258Z" fill="#FFDBB0"/>
<path d="M69.9329 31.5452C71.4931 35.4616 74.4848 37.7419 77.2184 38.167C79.9521 38.5922 82.6342 38.1155 85.226 36.9431C87.3408 35.6291 89.1202 33.4003 89.5844 32.3955C90.01 31.4679 90.255 30.3342 90.2936 29.2262C90.3839 26.6239 92.1505 26.946 91.1318 21.5094C90.8224 19.8603 88.5271 12.1434 81.2287 10.5975C74.8071 9.24477 66.6705 23.3516 69.9329 31.5452Z" fill="#FFDBB0"/>
<path d="M83.5724 19.3575C86.1772 15.8018 90.858 25.7989 91.8122 23.5058C94.3524 17.3993 87.3763 11.0737 84.5008 9.83695C81.4447 8.52289 78.6853 7.87874 74.4429 8.90938C70.7035 9.82407 70.884 11.1639 69.3624 12.3491C65.4424 15.4024 64.153 19.6409 63.9853 23.6088C63.908 25.4253 65.3908 30.0761 67.1316 32.2662C67.8022 33.1036 70.6519 35.0618 72.3024 35.8863C73.6048 36.5433 72.3927 30.6945 70.7551 29.5092C68.5114 26.9069 69.0787 26.0051 69.6848 25.1161C70.2908 24.2143 72.0316 23.7763 72.4184 24.7039C74.3527 29.2774 73.3598 24.8199 74.675 23.9825C78.234 21.7022 76.2869 26.2499 83.5595 19.3446L83.5724 19.3575Z" fill="#003F67"/>
<path d="M71.5435 14.3333C70.7699 13.0708 69.6738 10.4684 68.6164 9.41203C67.559 8.35562 66.4115 7.20902 64.8125 6.89983C62.3109 6.42316 61.0214 6.57776 59.7448 7.36362C58.6101 8.0593 56.9725 11.3187 56.9983 13.5732C56.6888 16.5363 54.6901 17.4381 53.3491 18.0565C51.4407 18.9325 48.1009 18.4172 48.5007 19.8214C49.6612 23.9311 51.9564 24.5495 54.3807 24.1501C62.182 22.8489 57.8364 15.6731 62.5946 14.6554C67.3656 13.6247 67.7525 14.2947 71.5306 14.3333H71.5435Z" fill="#003F67"/>
<path d="M102.76 43.9898C106.319 42.3794 115.333 34.5594 118.556 31.1712C125.004 24.3948 127.828 17.5153 128.589 16.7809C129.749 15.6343 132.663 12.3106 134.533 10.172C135.294 9.30882 135.539 7.54386 135.913 4.05257C136.08 2.50662 134.069 4.14275 133.489 2.40355C132.509 -0.508003 131.284 1.17967 130.497 0.664349C129.143 -0.224576 128.782 -0.495116 127.957 1.50174C127.131 3.4986 126.835 4.87708 126.667 5.85618C126.512 6.83529 125.945 8.23954 125.107 6.62917C124.269 5.0188 123.714 4.18141 122.464 3.93663C121.213 3.69186 120.749 4.54213 121.986 6.37151C122.954 8.80639 122.554 12.259 122.76 13.7405C122.85 14.3847 117.873 20.955 114.482 24.588C112.702 26.4947 98.9436 35.7833 97.6799 36.5305C92.5091 39.5967 99.2789 45.5615 102.773 43.9769L102.76 43.9898Z" fill="#FFDBB0"/>
<path d="M50.5906 68.4541C48.1407 71.4945 38.8693 74.9987 33.5051 77.5366C25.0462 81.5432 17.9541 83.0892 17.0385 83.6303C15.6459 84.4677 11.6872 86.4516 9.14697 87.7142C8.11539 88.2295 6.34883 88.0234 2.88015 87.5209C1.34568 87.289 3.42172 85.756 1.90014 84.764C-0.678808 83.0892 1.26833 82.3291 0.971755 81.4402C0.455966 79.9071 0.275434 79.4948 2.41596 79.1985C4.55648 78.9022 5.96203 78.9538 6.95493 79.0439C7.94782 79.1341 9.44354 78.9409 8.08959 77.7299C6.73565 76.5189 6.07808 75.7717 6.14255 74.4962C6.21992 73.2208 7.14832 72.9889 8.61832 74.638C10.7331 76.1839 14.176 76.6606 15.5686 77.2403C16.1618 77.4851 23.7825 74.3159 28.1538 71.9454C30.4491 70.7087 44.0402 61.8065 45.0717 60.7759C49.327 56.5503 52.9891 65.4782 50.5906 68.4413V68.4541Z" fill="#FFDBB0"/>
<path d="M95.0663 35.9511C91.4171 38.6565 85.1374 43.2943 84.5443 42.006C83.7319 40.2411 84.9053 39.9319 80.2761 39.6098C76.8332 39.365 75.0666 39.3779 73.7127 39.4166C71.2885 39.4681 70.5148 40.6662 69.5863 40.8852C66.5432 41.6067 66.2724 42.7919 59.6832 46.4249C55.0798 48.9629 51.0051 52.7376 46.5177 55.9197C42.4172 58.8312 43.0748 59.3852 46.5177 66.3549C49.2901 71.9718 51.0567 71.9847 53.1972 71.508C56.4725 70.7737 52.2043 81.9819 52.2043 91.9275C52.2043 96.5139 51.4435 106.228 51.3274 114.486C51.2759 117.977 67.0332 117.797 70.0248 117.384C72.5393 117.036 82.9324 116.56 86.3753 117.578C88.735 118.273 98.9347 117.977 99.0766 114.099C99.4892 103.625 96.3043 98.3561 96.3043 93.2029C96.3043 87.9209 95.8787 67.4628 97.5164 58.4576C99.1153 49.7101 104.66 47.3525 107.574 44.2735C110.063 41.6453 107.974 41.246 104.608 36.8658C100.547 31.5966 100.431 32.0089 95.0663 35.9768V35.9511Z" fill="#6B6B6B"/>
<path d="M89.2733 48.9762C81.5493 49.5301 74.2122 49.2467 71.0272 49.2467C66.514 49.2467 64.5928 47.121 64.0641 52.957C63.5354 58.793 60.8791 71.779 55.0378 79.9984C49.1965 88.2177 49.4672 88.7459 49.4672 95.3806C49.4672 102.015 45.9212 136.065 45.3667 144.787C44.5672 157.245 45.1346 157.915 50.9759 157.915C56.8172 157.915 73.3612 158.481 84.773 157.953C96.1848 157.425 106.63 158.069 105.83 151.164C105.031 144.259 102.31 135.125 102.052 126.106C101.859 119.472 99.2667 90.82 97.513 84.765C95.1275 76.5457 92.7419 63.5468 92.7419 56.3968C92.7419 49.2467 93.0127 48.7056 89.2862 48.9762H89.2733Z" fill="#E2C2BC"/>
<path d="M90.1589 42.2378C91.3194 45.961 92.3253 48.8854 92.3639 52.0804C92.3897 53.8969 91.9771 55.1466 90.0042 55.0306C88.0313 54.9147 87.1415 55.0177 87.1029 52.7503C87.0642 50.4958 84.8592 43.5261 84.9366 42.328C85.001 41.1428 86.587 40.2023 88.1989 40.3312C89.2176 40.4085 89.7334 40.8336 90.1718 42.2249L90.1589 42.2378Z" fill="#E2C2BC"/>
<path d="M69.642 41.4781C69.642 39.7518 64.1746 41.929 64.1746 44.1835C64.1746 46.4381 64.0585 48.5637 64.2004 51.0888C64.3293 53.6139 64.987 53.0728 66.9857 52.944C68.043 52.8795 69.3325 53.2918 69.4356 49.8263C69.5646 45.781 69.6291 41.8775 69.6291 41.4781H69.642Z" fill="#E2C2BC"/>
<path d="M52.7751 112.837H64.7156C65.7859 112.837 66.5337 112.592 67.0108 112.102C67.5911 111.497 67.6298 110.621 67.6169 110.028C67.5911 109.114 67.6169 104.617 67.6427 100.997C67.6556 98.936 67.6685 97.068 67.6685 96.1146C67.6685 95.9214 67.5009 95.7539 67.3075 95.7539C67.114 95.7539 66.9464 95.9214 66.9464 96.1146C66.9464 97.068 66.9464 98.936 66.9206 100.997C66.8948 104.811 66.869 109.126 66.8948 110.054C66.9206 110.801 66.7917 111.304 66.4951 111.613C66.1598 111.961 65.5796 112.128 64.7156 112.128H52.7751C52.5817 112.128 52.4141 112.296 52.4141 112.489C52.4141 112.682 52.5817 112.85 52.7751 112.85V112.837Z" fill="#003F67"/>
<path d="M51.3803 111.393C51.5737 111.393 51.7414 111.226 51.7414 111.032C51.7414 110.749 51.7414 110.066 51.7414 109.164C51.7156 105.969 51.6769 100.018 51.7414 98.317C51.7414 98.1237 51.5995 97.9562 51.3932 97.9434C51.2256 97.9434 51.0322 98.0851 51.0193 98.2912C50.9419 100.005 50.9806 105.969 51.0193 109.177C51.0193 110.079 51.0193 110.749 51.0193 111.045C51.0193 111.239 51.1869 111.406 51.3803 111.406V111.393Z" fill="#003F67"/>
<path d="M95.6737 112.901C97.0921 112.901 98.575 112.876 99.2069 112.85C99.4003 112.85 99.5551 112.67 99.5551 112.476C99.5551 112.283 99.3874 112.116 99.1811 112.128C97.8916 112.18 94.5261 112.232 93.0948 112.128C91.7666 112.038 91.2895 111.562 91.2895 110.299C91.2895 107.465 91.2895 98.0603 91.341 96.0377C91.341 95.8444 91.1864 95.6769 90.9929 95.6641C90.7866 95.6641 90.6318 95.8186 90.6189 96.0119C90.5674 97.9959 90.5674 106.653 90.5674 110.286C90.5674 111.935 91.3281 112.721 93.0431 112.837C93.6879 112.876 94.655 112.901 95.6608 112.901H95.6737Z" fill="#003F67"/>
<path d="M229.249 172.043C228.746 172.043 228.307 171.669 228.256 171.154C227.895 167.856 226.451 164.558 224.645 160.384C223.781 158.387 222.789 156.119 221.809 153.569C221.602 153.053 221.86 152.474 222.376 152.267C222.892 152.061 223.472 152.319 223.678 152.834C224.658 155.346 225.625 157.588 226.489 159.572C228.372 163.901 229.868 167.328 230.255 170.922C230.319 171.476 229.919 171.966 229.365 172.03C229.326 172.03 229.287 172.03 229.249 172.03V172.043Z" fill="#F2A096"/>
<path d="M195.849 202.988C192.367 201.493 188.293 205.642 187.648 207.639C186.513 211.169 186.062 215.111 185.636 216.953C184.953 219.839 185.856 224.966 186.088 228.561C186.204 230.519 186.333 234.68 184.966 235.994C184.837 236.123 184.682 236.69 185.288 236.973C185.881 237.244 192.69 238.171 192.625 237.05C192.6 236.587 192.87 236.071 193.09 235.62C193.902 233.959 195.797 231.665 195.952 227.569C196.107 223.459 196.133 224.077 196.146 220.38C196.158 216.683 197.912 211.877 198.97 208.901C200.401 204.895 199.447 204.521 195.849 202.975V202.988Z" fill="#FFDBB0"/>
<path d="M225.417 236.38C224.94 235.787 224.657 235.182 224.695 234.37C224.811 232.528 225.637 229.578 224.296 225.996C222.954 222.415 223.199 222.93 221.871 219.774C220.556 216.618 220.324 212.997 220.788 209.841C221.755 203.232 215.604 200.694 211.813 200.823C206.372 201.003 207.274 211.954 209.002 214.84C210.743 217.725 211.8 221.114 212.084 222.904C212.523 225.726 214.921 230.918 215.862 232.386C216.881 233.971 218.519 237.024 217.487 238.995C217.294 239.356 217.113 239.614 216.933 239.82C220.118 240.915 223.509 239.279 225.417 236.38Z" fill="#FFDBB0"/>
<path d="M190.575 132.144C189.788 130.469 180.942 120.549 180.981 119.725C181.02 118.9 181.097 115.795 180.556 114.726C179.601 112.871 178.441 115.241 177.603 114.803C176.765 114.378 175.424 112.626 174.469 112.227C173.515 111.827 173.309 113.129 172.78 113.889C172.251 114.649 170.988 113.013 170.498 113.889C170.162 114.481 170.691 116.027 169.711 116.388C168.731 116.749 168.615 117.084 169.041 118.076C169.466 119.068 170.046 119.428 169.827 120.317C169.608 121.206 169.84 121.374 170.485 121.928C171.13 122.482 173.348 122.92 175.23 123.448C177.1 123.976 180.569 133.097 184.385 137.903C185.636 139.474 192.212 135.584 190.588 132.131L190.575 132.144Z" fill="#FFDBB0"/>
<path d="M227.619 130.212C228.483 128.589 233.242 123.874 233.242 123.049C233.242 122.225 233.332 119.12 233.938 118.089C234.982 116.286 236.027 118.708 236.891 118.321C237.755 117.935 239.186 116.26 240.153 115.912C241.133 115.564 241.262 116.878 241.752 117.664C242.229 118.45 243.583 116.891 244.022 117.78C244.318 118.398 243.712 119.906 244.679 120.318C245.646 120.73 245.737 121.078 245.259 122.044C244.782 123.01 244.189 123.333 244.357 124.234C244.537 125.136 244.292 125.291 243.622 125.806C242.951 126.321 240.708 126.643 238.812 127.069C236.917 127.494 236.22 132.724 232.145 137.323C230.804 138.831 225.814 133.574 227.619 130.212Z" fill="#FFDBB0"/>
<path d="M188.566 179.914C190.642 178.446 200.481 178.265 205.174 178.008C214.175 177.505 216.934 176.062 219.758 181.087C224.568 189.628 222.505 191.96 223.485 194.897C225.277 200.205 226.477 205.436 223.317 206.647C220.3 207.806 212.138 207.471 207.908 207.69C203.563 207.922 204.659 201.519 203.82 201.777C202.699 202.125 202.866 203.864 202.957 206.827C203.034 209.288 198.263 207.87 191.364 206.582C182.634 204.946 185.162 204.173 185.742 194.472C186.245 186.214 186.026 182.8 188.553 179.914H188.566Z" fill="#A2A2A2"/>
<path d="M224.218 152.048C225.959 148.711 236.52 136.679 238.274 133.651C239.421 131.654 233.657 129.142 230.305 126.797C226.707 124.285 221.356 133.793 217.668 137.413C215.179 139.848 207.816 139.268 205.147 139.178C203.161 139.113 202.078 138.444 199.19 137.516C197.075 136.833 193.09 129.297 189.054 124.929C187.404 123.139 185.315 122.185 179.964 125.818C178.455 126.849 174.135 129.361 175.902 131.783C177.127 133.445 188.397 148.814 188.165 152.808C187.984 155.9 182.362 176.642 181.73 182.117C180.621 191.612 187.778 192.191 198.029 191.006C206.14 190.066 232.639 196.868 230.382 188.855C229.002 183.959 222.839 154.766 224.244 152.061L224.218 152.048Z" fill="#E2C2BC"/>
<path d="M201.229 148.016C200.79 148.339 200.223 148.828 200.571 149.627C200.919 150.426 201.332 150.825 201.809 150.773C202.724 150.67 202.827 150.516 203.24 149.884C203.653 149.24 203.498 148.815 202.918 148.223C202.337 147.63 201.873 147.746 201.216 148.016H201.229Z" fill="white"/>
<path d="M200.18 160.113C199.741 160.435 199.174 160.925 199.522 161.723C199.87 162.522 200.283 162.922 200.76 162.87C201.675 162.767 201.779 162.612 202.191 161.981C202.604 161.337 202.449 160.912 201.869 160.319C201.289 159.727 200.824 159.843 200.167 160.113H200.18Z" fill="white"/>
<path d="M199.06 172.211C198.621 172.533 198.054 173.022 198.402 173.821C198.75 174.62 199.163 175.019 199.64 174.968C200.555 174.865 200.659 174.71 201.071 174.079C201.484 173.435 201.329 173.01 200.749 172.417C200.169 171.824 199.704 171.94 199.047 172.211H199.06Z" fill="white"/>
<path d="M211.617 153.143C210.431 153.813 210.148 155.656 210.831 157.743C211.514 159.843 212.92 160.873 214.764 160.925C216.427 160.976 217.949 160.1 218.787 158.374C219.483 156.97 219.445 154.728 218.091 153.169C217.807 152.847 216.814 153.955 216.453 154.02C216.118 154.084 215.383 152.564 214.919 152.551C214.416 152.538 213.668 154.174 213.255 154.213C212.868 154.251 211.927 152.976 211.63 153.156L211.617 153.143Z" fill="#F2A096"/>
<path d="M215.626 155.386C216.955 155.411 217.135 155.347 217.148 156.751C217.148 157.692 217.406 158.4 216.323 158.503C215.24 158.606 214.608 158.593 213.641 158.568C212.674 158.542 212.506 158.452 212.429 157.486C212.39 156.983 212.429 155.836 212.712 155.605C213.099 155.27 214.672 155.373 215.614 155.398L215.626 155.386Z" fill="white"/>
<path d="M196.534 138.019C195.967 139.758 196.689 142.116 198.172 142.889C199.745 143.7 201.795 143.623 203.072 142.438C203.768 141.794 204.464 140.312 204.787 142.103C205.096 143.868 206.489 145.259 208.797 145.62C210.847 145.955 213.826 143.675 213.968 141.446C214.097 139.269 214.251 138.444 211.698 138.946C209.235 139.436 206.553 140.106 205.238 139.719C203.381 139.178 201.563 138.715 200.093 137.504C198.198 135.932 197.179 136.048 196.547 138.006L196.534 138.019Z" fill="white"/>
<path d="M212.3 139.126C208.857 141.175 205.195 141.162 202.771 139.912C200.347 138.663 198.451 136.756 197.046 134.385C196.079 132.182 195.898 129.49 196.092 128.472C196.259 127.532 196.698 126.54 197.291 125.677C198.67 123.667 197.084 122.894 200.94 119.403C202.113 118.346 208.251 113.863 214.969 116.903C220.875 119.583 219.508 134.836 212.3 139.113V139.126Z" fill="#FFDBB0"/>
<path d="M200.224 116.556C200.869 115.705 203.461 114.224 205.885 114.443C208.89 114.713 209.792 112.935 212.758 113.824C216.884 115.061 220.095 117.818 220.998 119.261C222.932 122.366 222.416 124.298 222.713 126.269C223.241 129.851 222.507 136.601 215.801 137.748C214.525 137.967 212.423 139.436 212.539 138.753C212.926 136.949 214.344 135.674 215.621 134.824C216.936 133.948 217 131.178 215.053 131.474C213.441 131.706 213.287 130.791 213.119 127.519C212.913 123.525 195.892 125.471 200.224 116.568V116.556Z" fill="#003F67"/>
<path d="M224.295 128.756C227.687 123.745 225.495 116.324 219.395 112.201C213.296 108.079 205.585 108.787 202.194 113.812C202.142 113.889 202.091 113.979 202.039 114.057L224.025 129.13C224.115 129.001 224.205 128.885 224.295 128.756Z" fill="#F2A096"/>
<path d="M226.837 131.861C225.69 133.561 218.378 130.624 210.513 125.303C202.647 119.983 197.205 114.301 198.353 112.601C199.501 110.9 206.812 113.837 214.678 119.158C222.543 124.479 227.985 130.16 226.837 131.861Z" fill="#F2A096"/>
<path d="M220.166 112.923C219.883 113.335 219.277 113.4 218.787 113.078C218.31 112.755 218.142 112.15 218.426 111.738C218.709 111.325 219.315 111.261 219.805 111.583C220.282 111.905 220.45 112.511 220.166 112.923Z" fill="#F2A096"/>
<path d="M212.501 122.456C212.294 122.314 212.101 122.185 211.908 122.044C209.341 120.24 205.718 117.148 204.119 115.125C204.042 115.022 204.055 114.894 204.145 114.842C204.235 114.778 204.377 114.816 204.454 114.919C206.028 116.903 209.599 119.944 212.127 121.722C215.183 123.873 219.683 126.256 222.352 127.158C222.468 127.197 222.559 127.326 222.533 127.429C222.507 127.532 222.391 127.596 222.275 127.558C219.683 126.694 215.595 124.556 212.501 122.469V122.456Z" fill="#003F67"/>
<path d="M208.643 116.839C208.643 116.839 208.63 116.839 208.617 116.826C208.514 116.749 208.501 116.607 208.566 116.53C209.198 115.834 211.17 114.43 212.563 113.786C213.878 113.181 216.096 112.601 217.798 112.64C217.927 112.64 218.03 112.743 218.043 112.859C218.056 112.974 217.979 113.065 217.85 113.065C216.212 113.026 214.059 113.593 212.795 114.173C211.467 114.778 209.507 116.169 208.914 116.839C208.849 116.917 208.72 116.917 208.617 116.852L208.643 116.839Z" fill="#003F67"/>
<path d="M219.068 123.886C218.965 123.822 218.926 123.706 218.978 123.616C219.365 122.804 219.932 120.485 220.009 119.016C220.074 117.625 219.816 115.422 219.158 113.915C219.107 113.799 219.158 113.683 219.274 113.657C219.39 113.631 219.519 113.696 219.571 113.812C220.241 115.383 220.525 117.664 220.448 119.094C220.37 120.627 219.803 122.971 219.39 123.822C219.339 123.925 219.21 123.95 219.094 123.886C219.094 123.886 219.081 123.886 219.068 123.873V123.886Z" fill="#003F67"/>
<path d="M186.528 231.923C188.901 232.348 192.563 233.044 194.033 232.992C195.503 232.941 194.227 234.307 193.44 235.479C192.808 236.407 192.95 236.729 193.092 237.965C193.234 239.202 190.784 239.344 187.934 239.292C185.084 239.241 182.492 237.837 183.447 237.115C184.388 236.394 185.02 236.007 185.536 234.435C186.077 232.799 185.226 231.691 186.541 231.923H186.528Z" fill="#E2C2BC"/>
<path d="M184.679 235.93C182.693 237.347 181.842 236.497 180.514 238.236C177.793 241.817 180.913 244.381 184.988 244.613C187.838 244.767 194.827 243.595 193.744 240.336C193.292 238.97 193.254 236.767 192.815 236.986C191.165 237.643 188.418 238.017 186.755 237.463C185.44 237.025 185.053 235.633 184.692 235.93H184.679Z" fill="#003F67"/>
<path d="M217.358 233.971C219.692 233.404 222.877 232.772 224.192 232.141C225.508 231.51 225.044 231.845 225.031 234.035C225.031 234.653 225.16 235.813 225.779 236.895C226.41 237.977 224.218 239.085 221.588 240.18C218.957 241.275 216.017 241.03 216.597 239.987C217.178 238.943 217.59 238.351 217.436 236.689C217.268 234.975 216.043 234.306 217.345 233.983L217.358 233.971Z" fill="#E2C2BC"/>
<path d="M225.674 236.226C225.429 235.827 222.876 240.194 219.02 240.529C217.022 240.696 216.802 239.511 216.635 239.704C215.861 240.593 215.345 240.967 214.649 243.183C213.282 247.615 217.215 248.207 220.864 246.249C223.417 244.883 229.104 240.207 226.976 238.004C226.37 237.373 226.009 236.767 225.674 236.226Z" fill="#003F67"/>
<path d="M212.922 187.309C212.729 182.954 211.826 177.118 213.258 174.336C214.135 172.648 217.255 170.896 219.486 170.187C225.727 168.191 227.61 168.435 229.918 168.886C231.143 169.118 234.431 169.943 234.959 172.043C235.669 174.812 235.411 176.912 235.424 177.943C235.424 180.017 235.514 181.46 235.578 184.088C235.604 185.157 235.359 186.51 232.819 188.378C230.872 189.808 225.095 192.423 221.433 192.462C219.46 192.488 216.675 192.604 215.295 192.076C213.541 191.393 213 189.164 212.91 187.309H212.922Z" fill="#F2A096"/>
<path d="M220.831 176.436C218.884 176.436 216.396 176.05 215.016 175.56C214.823 175.496 214.719 175.277 214.784 175.083C214.861 174.89 215.08 174.787 215.261 174.852C217.04 175.483 220.87 175.934 222.495 175.534C224.223 175.109 229.484 172.996 231.586 171.798C231.766 171.695 231.998 171.76 232.101 171.94C232.205 172.12 232.14 172.352 231.96 172.455C229.768 173.705 224.468 175.831 222.675 176.269C222.198 176.385 221.554 176.436 220.831 176.436Z" fill="#003F67"/>
<path d="M221.676 190.607C221.483 190.607 221.315 190.452 221.303 190.246C221.251 189.151 221.135 186.716 221.019 184.294C220.903 181.911 220.8 179.54 220.748 178.51C220.748 178.304 220.89 178.123 221.109 178.11C221.367 178.11 221.496 178.265 221.509 178.471C221.56 179.502 221.676 181.872 221.78 184.268C221.896 186.69 221.999 189.125 222.063 190.207C222.063 190.414 221.921 190.594 221.702 190.607C221.702 190.607 221.689 190.607 221.676 190.607Z" fill="#003F67"/>
<path d="M221.293 182.491C221.293 182.491 221.254 182.491 221.229 182.491H221.125C219.81 182.439 215.8 182.285 213.93 181.512C213.737 181.434 213.647 181.215 213.724 181.022C213.801 180.829 214.021 180.739 214.214 180.816C215.968 181.537 219.875 181.692 221.151 181.744H221.254C222.157 181.769 226.27 180.661 227.908 179.94C229.533 179.219 232.55 177.698 233.788 176.977C233.969 176.874 234.201 176.938 234.304 177.119C234.407 177.299 234.343 177.531 234.162 177.634C232.911 178.355 229.842 179.901 228.205 180.623C226.593 181.344 222.467 182.504 221.28 182.504L221.293 182.491Z" fill="#003F67"/>
<path d="M228.891 178.356C229.432 178.034 230.051 177.66 230.219 178.098C230.386 178.536 230.58 180.108 230.606 180.816C230.631 181.525 230.747 181.654 229.832 181.937C228.916 182.233 228.981 182.53 228.813 181.216C228.646 179.902 228.13 178.819 228.904 178.356H228.891Z" fill="#003F67"/>
<path d="M214.506 178.922C214.3 178.922 214.08 178.857 213.9 178.716C209.954 175.727 196.595 146.959 196.273 137.181C196.26 136.627 196.685 136.163 197.24 136.15C197.24 136.15 197.266 136.15 197.279 136.15C197.82 136.15 198.259 136.576 198.284 137.117C198.607 146.856 211.888 174.67 215.112 177.118C215.55 177.453 215.641 178.084 215.305 178.522C215.112 178.78 214.802 178.922 214.506 178.922Z" fill="#F2A096"/>
<path d="M295.625 206.762C292.272 205.255 288.262 209.21 287.604 211.142C286.457 214.556 285.954 218.357 285.503 220.134C284.793 222.917 285.593 227.903 285.748 231.394C285.838 233.301 285.889 237.32 284.535 238.583C284.406 238.712 284.252 239.253 284.832 239.536C285.399 239.807 291.989 240.824 291.937 239.729C291.911 239.278 292.195 238.776 292.414 238.351C293.226 236.753 295.109 234.563 295.328 230.582C295.548 226.602 295.56 227.207 295.638 223.626C295.715 220.044 297.482 215.406 298.565 212.546C300.022 208.681 299.106 208.321 295.638 206.762H295.625Z" fill="#FFDBB0"/>
<path d="M286.121 234.654C288.403 235.105 291.949 235.839 293.368 235.813C294.786 235.788 293.535 237.089 292.749 238.21C292.13 239.098 292.246 239.408 292.362 240.619C292.478 241.83 290.105 241.907 287.346 241.817C284.586 241.727 282.098 240.322 283.026 239.627C283.954 238.944 284.56 238.583 285.089 237.063C285.631 235.491 284.831 234.396 286.108 234.654H286.121Z" fill="#E2C2BC"/>
<path d="M284.284 238.506C282.337 239.846 281.525 239.008 280.21 240.683C277.515 244.11 280.506 246.648 284.439 246.931C287.199 247.125 293.994 246.107 292.988 242.925C292.576 241.598 292.576 239.459 292.137 239.665C290.525 240.271 287.856 240.593 286.257 240.039C284.994 239.601 284.632 238.235 284.284 238.519V238.506Z" fill="#003F67"/>
<path d="M317.182 236.702C316.718 236.122 316.434 235.543 316.486 234.744C316.589 232.966 317.402 230.093 316.086 226.628C314.784 223.162 315.016 223.652 313.727 220.599C312.437 217.545 312.231 214.041 312.669 210.962C313.598 204.559 307.627 202.099 303.952 202.227C298.678 202.395 299.555 213.01 301.244 215.819C302.934 218.615 303.965 221.9 304.236 223.639C304.674 226.37 306.995 231.394 307.911 232.824C308.904 234.358 310.49 237.321 309.484 239.227C309.304 239.588 309.123 239.833 308.943 240.026C312.037 241.082 315.326 239.498 317.157 236.689L317.182 236.702Z" fill="#FFDBB0"/>
<path d="M309.367 234.383C311.637 233.829 314.719 233.211 315.995 232.605C317.272 232 316.82 232.309 316.807 234.434C316.807 235.04 316.936 236.161 317.542 237.204C318.149 238.248 316.021 239.317 313.481 240.386C310.94 241.456 308.091 241.211 308.645 240.193C309.2 239.188 309.612 238.609 309.457 236.998C309.303 235.336 308.116 234.679 309.367 234.383Z" fill="#E2C2BC"/>
<path d="M317.422 236.56C317.177 236.174 314.714 240.412 310.974 240.734C309.04 240.902 308.834 239.742 308.666 239.935C307.918 240.799 307.415 241.159 306.745 243.311C305.429 247.601 309.233 248.18 312.767 246.287C315.242 244.96 320.748 240.425 318.685 238.286C318.092 237.668 317.757 237.088 317.422 236.56Z" fill="#003F67"/>
<path d="M284.457 178.819C286.623 177.428 294.798 177.698 299.531 177.222C304.134 176.758 306.442 177.531 311.484 176.384C315.43 175.482 314.295 179.966 318.731 189.113C321.658 195.155 329.369 203.683 326.996 205.719C324.624 207.754 318.77 210.421 315.482 209.481C312.193 208.54 311.149 208.27 307.28 210.112C303.902 211.722 298.228 209.97 293.767 209.532C290.04 209.158 287.668 209.429 284.753 210.099C279.144 211.387 274.915 209.506 273.986 208.733C272.632 207.625 272.71 202.24 277.571 195.412C282.419 188.572 281.788 181.615 284.47 178.806L284.457 178.819Z" fill="#6B6B6B"/>
<path d="M289.309 143.21C288.986 142.502 282.655 143.79 281.069 141.806C278.671 138.804 275.898 135.403 275.924 134.888C275.976 134.012 276.079 130.74 275.498 129.606C274.506 127.635 273.255 130.134 272.378 129.67C271.501 129.206 270.083 127.364 269.077 126.926C268.071 126.488 267.839 127.88 267.285 128.678C266.73 129.477 265.389 127.751 264.873 128.665C264.512 129.297 265.067 130.933 264.022 131.306C262.978 131.693 262.862 132.041 263.3 133.097C263.739 134.154 264.358 134.527 264.113 135.468C263.868 136.408 264.112 136.588 264.796 137.168C265.466 137.748 267.826 138.237 269.799 138.804C271.14 139.191 272.442 142.643 274.402 146.418C275.318 148.196 279.264 150.773 282.539 151.223C284.46 151.481 287.645 151.958 288.226 149.909C288.741 148.106 290.082 144.924 289.309 143.223V143.21Z" fill="#FFDBB0"/>
<path d="M323.471 161.775C325.083 158.374 318.378 147.333 309.764 140.878C306.772 138.624 299.074 139.062 296.392 138.946C292.098 138.779 289.442 140.956 286.541 141.896C284.606 142.515 283.652 140.582 280.996 137.658C279.358 135.854 278.082 136.344 274.213 139.693C272.834 140.891 268.978 142.927 270.835 145.272C271.441 146.045 273.93 148.57 276.354 151.442C279.036 154.612 284.503 154.019 284.465 156.119C284.4 159.211 280.867 174.941 278.133 180.674C274.02 189.306 275.606 193.531 291.273 191.006C299.332 189.705 326.076 195.541 323.51 187.605C321.937 182.761 322.169 164.532 323.471 161.775Z" fill="#E2C2BC"/>
<path d="M292.826 147.939C292.401 148.274 291.846 148.789 292.22 149.562C292.607 150.348 293.02 150.734 293.51 150.657C294.425 150.515 294.515 150.361 294.915 149.704C295.302 149.047 295.134 148.634 294.528 148.067C293.935 147.501 293.471 147.629 292.826 147.926V147.939Z" fill="white"/>
<path d="M292.244 160.062C291.819 160.409 291.264 160.912 291.638 161.685C292.025 162.471 292.438 162.857 292.928 162.78C293.843 162.638 293.933 162.484 294.333 161.827C294.72 161.17 294.552 160.757 293.946 160.19C293.34 159.624 292.889 159.752 292.244 160.049V160.062Z" fill="white"/>
<path d="M291.59 172.197C291.164 172.532 290.61 173.048 290.984 173.821C291.371 174.606 291.783 174.993 292.273 174.916C293.189 174.774 293.279 174.619 293.679 173.962C294.066 173.305 293.898 172.893 293.292 172.326C292.699 171.759 292.235 171.888 291.59 172.184V172.197Z" fill="white"/>
<path d="M300.519 150.373C299.281 150.953 298.855 152.757 299.358 154.895C299.861 157.047 301.176 158.18 303.007 158.387C304.658 158.58 306.244 157.82 307.237 156.171C308.036 154.831 308.191 152.602 306.966 150.914C306.721 150.567 305.638 151.597 305.264 151.636C304.929 151.674 304.31 150.09 303.858 150.038C303.355 149.987 302.479 151.546 302.053 151.559C301.666 151.559 300.828 150.219 300.519 150.36V150.373Z" fill="#F2A096"/>
<path d="M304.329 152.95C305.644 153.092 305.838 153.04 305.735 154.444C305.657 155.385 305.851 156.106 304.768 156.119C303.684 156.132 303.053 156.068 302.098 155.965C301.131 155.862 300.977 155.758 300.977 154.779C300.977 154.277 301.118 153.143 301.415 152.924C301.828 152.628 303.388 152.86 304.329 152.95Z" fill="white"/>
<path d="M289.423 141.729C289.591 142.515 290.545 143.391 291.564 143.726C292.918 144.177 294.852 143.79 296.025 142.27C296.683 141.42 296.748 140.441 297.302 141.549C298.101 143.146 299.894 144.383 301.841 144.383C303.156 144.383 305.477 143.236 306.303 141.587C307.257 139.694 307.179 139.359 304.394 138.869C301.905 138.431 299.455 138.702 298.269 138.714C296.335 138.714 295.123 138.444 293.034 139.14C290.687 139.913 289.049 139.964 289.423 141.729Z" fill="white"/>
<path d="M306.019 186.742C305.658 182.401 304.524 176.591 305.852 173.769C306.664 172.043 309.72 170.175 311.912 169.389C318.076 167.16 319.959 167.328 322.293 167.676C323.518 167.869 326.844 168.552 327.463 170.626C328.276 173.37 328.108 175.47 328.147 176.513C328.224 178.588 328.366 180.03 328.534 182.646C328.598 183.715 328.405 185.068 325.942 187.039C324.059 188.546 318.373 191.38 314.723 191.561C312.751 191.664 309.978 191.883 308.573 191.406C306.793 190.801 306.161 188.585 306.007 186.742H306.019Z" fill="#F2A096"/>
<path d="M312.872 175.598C311.041 175.598 308.913 175.328 307.662 174.941C307.469 174.877 307.353 174.671 307.417 174.465C307.482 174.271 307.688 174.155 307.894 174.22C309.7 174.787 313.542 175.083 315.141 174.619C316.843 174.13 322.027 171.811 324.09 170.535C324.271 170.419 324.503 170.484 324.606 170.651C324.722 170.832 324.658 171.064 324.49 171.167C322.349 172.494 317.14 174.825 315.348 175.341C314.729 175.521 313.852 175.598 312.872 175.598Z" fill="#003F67"/>
<path d="M314.889 189.705C314.696 189.705 314.528 189.563 314.515 189.357C314.412 188.262 314.206 185.827 314 183.405C313.793 181.022 313.6 178.664 313.51 177.647C313.484 177.441 313.639 177.26 313.845 177.234C314.077 177.234 314.232 177.363 314.257 177.569C314.348 178.6 314.554 180.958 314.747 183.341C314.954 185.75 315.16 188.198 315.263 189.28C315.289 189.486 315.134 189.666 314.928 189.692C314.928 189.692 314.902 189.692 314.889 189.692V189.705Z" fill="#003F67"/>
<path d="M314.145 181.615H314.029C312.713 181.615 308.716 181.615 306.808 180.919C306.614 180.842 306.511 180.636 306.588 180.43C306.666 180.237 306.872 180.133 307.065 180.211C308.845 180.868 312.739 180.868 314.029 180.868H314.145C315.06 180.868 319.109 179.592 320.721 178.807C322.32 178.021 325.273 176.385 326.485 175.624C326.665 175.508 326.897 175.56 327.001 175.74C327.117 175.921 327.052 176.153 326.885 176.256C325.66 177.029 322.655 178.678 321.056 179.476C319.444 180.275 315.254 181.615 314.145 181.615Z" fill="#003F67"/>
<path d="M321.648 177.183C322.176 176.835 322.782 176.436 322.963 176.874C323.143 177.299 323.401 178.871 323.453 179.58C323.504 180.288 323.621 180.404 322.718 180.739C321.815 181.074 321.893 181.357 321.673 180.069C321.454 178.781 320.9 177.699 321.661 177.196L321.648 177.183Z" fill="#003F67"/>
<path d="M307.257 178.316C307.064 178.316 306.858 178.252 306.677 178.136C302.744 175.379 289.166 151.507 288.431 141.213C288.393 140.659 288.805 140.183 289.36 140.144C289.94 140.105 290.391 140.518 290.43 141.072C291.126 150.901 304.717 174.31 307.825 176.487C308.276 176.809 308.392 177.427 308.07 177.878C307.876 178.162 307.567 178.303 307.245 178.303L307.257 178.316Z" fill="#F2A096"/>
<path d="M314.214 164.004C314.988 165.795 320.726 172.159 320.649 173.022C320.584 173.898 320.404 177.17 320.945 178.317C321.887 180.314 323.202 177.84 324.066 178.317C324.943 178.794 326.297 180.687 327.303 181.138C328.295 181.602 328.553 180.224 329.134 179.438C329.714 178.652 331.003 180.417 331.545 179.515C331.919 178.897 331.416 177.248 332.46 176.9C333.505 176.539 333.634 176.191 333.234 175.135C332.822 174.066 332.215 173.679 332.473 172.752C332.731 171.824 332.499 171.631 331.829 171.025C331.171 170.42 328.824 169.879 326.864 169.273C324.904 168.655 325.446 162.381 320.572 158.078C317.606 155.463 312.603 160.307 314.202 164.017L314.214 164.004Z" fill="#FFDBB0"/>
<path d="M292.476 130.263C292.064 129.516 291.496 127.983 290.916 127.339C290.336 126.708 289.704 126.012 288.776 125.793C287.344 125.458 286.596 125.51 285.836 125.935C285.165 126.308 284.134 128.151 284.095 129.452C283.837 131.152 282.663 131.629 281.877 131.951C280.755 132.415 278.834 132.015 279.027 132.84C279.595 135.249 280.897 135.661 282.315 135.494C286.854 134.94 284.533 130.689 287.306 130.212C290.078 129.735 290.297 130.135 292.476 130.251V130.263Z" fill="#003F67"/>
<path d="M304.283 137.722C301.02 139.938 297.423 140.144 294.96 139.062C292.497 137.98 290.537 136.215 289.003 133.973C287.932 131.873 287.584 129.232 287.713 128.214C287.829 127.287 288.203 126.282 288.732 125.406C289.97 123.358 288.358 122.688 291.942 119.016C293.026 117.908 298.803 113.141 305.585 115.731C311.543 118.011 311.104 133.084 304.283 137.722Z" fill="#FFDBB0"/>
<path d="M291.36 116.452C292.172 115.229 294.107 113.837 296.479 113.489C298.684 113.18 299.703 112.085 303.249 112.832C307.401 113.695 310.702 116.324 311.669 117.689C313.758 120.626 313.371 122.546 313.771 124.466C314.506 127.944 312.894 135.442 305.132 137.568C303.907 137.903 304.152 137.207 304.293 136.717C305.067 133.87 306.099 134.205 307.311 133.29C308.549 132.35 308.446 129.632 306.55 130.031C304.977 130.353 305.647 130.43 303.339 128.176C301.689 126.566 300.477 124.105 297.962 120.188C296.84 118.423 292.74 121.747 290.071 121.387C288.704 121.206 289.722 118.965 291.373 116.452H291.36Z" fill="#003F67"/>
<path d="M310.497 131.191C311.297 130.727 312.689 129.619 313.592 129.348C314.494 129.078 315.462 128.794 316.442 129.103C317.963 129.593 318.634 130.057 319.098 130.881C319.51 131.603 319.446 133.896 318.75 135.133C318.028 136.859 318.853 137.954 319.407 138.701C320.194 139.758 322.193 140.466 321.561 141.123C319.678 143.043 318.234 142.695 317.022 141.742C313.102 138.688 317.667 136.035 315.346 134.038C313.024 132.041 312.612 132.286 310.51 131.178L310.497 131.191Z" fill="#003F67"/>
<path d="M312.799 127.455C312.347 127.764 311.767 128.241 312.089 129.039C312.412 129.851 312.812 130.263 313.289 130.225C314.204 130.147 314.32 130.006 314.759 129.374C315.197 128.743 315.055 128.318 314.488 127.712C313.921 127.107 313.456 127.197 312.799 127.455Z" fill="#6B6B6B"/>
<path d="M311.3 129.336C310.848 129.645 310.268 130.122 310.59 130.92C310.913 131.732 311.313 132.144 311.79 132.106C312.705 132.028 312.821 131.886 313.26 131.255C313.698 130.624 313.556 130.199 312.989 129.593C312.421 128.988 311.957 129.078 311.3 129.336Z" fill="#6B6B6B"/>
<path d="M316.808 149.704C320.263 150.824 321.269 154.032 323.68 158.297C326.092 162.561 326.969 164.313 324.893 165.91C322.249 167.933 318.819 169.724 316.885 169.865C314.951 170.007 311.031 163.45 310.489 161.079C309.754 157.884 310.257 154.303 310.85 152.77C311.443 151.237 314.577 148.969 316.808 149.691V149.704Z" fill="#E2C2BC"/>
<path d="M315.36 126.295C318.364 121.039 315.617 113.812 309.222 110.153C302.826 106.494 295.192 107.795 292.188 113.052C292.136 113.142 292.097 113.219 292.046 113.309L315.115 126.682C315.192 126.553 315.282 126.424 315.36 126.282V126.295Z" fill="#F2A096"/>
<path d="M318.127 129.207C317.108 130.984 309.603 128.601 301.35 123.899C293.111 119.184 287.244 113.927 288.262 112.15C289.281 110.372 296.786 112.755 305.038 117.457C313.291 122.173 319.145 127.429 318.127 129.207Z" fill="#F2A096"/>
<path d="M310.055 110.823C309.81 111.248 309.204 111.364 308.688 111.08C308.172 110.797 307.979 110.204 308.224 109.779C308.469 109.354 309.075 109.238 309.59 109.521C310.106 109.805 310.3 110.397 310.055 110.823Z" fill="#F2A096"/>
<path d="M303.129 120.911C302.909 120.795 302.703 120.666 302.497 120.55C299.802 118.939 295.959 116.144 294.206 114.237C294.115 114.147 294.128 114.018 294.206 113.954C294.296 113.889 294.438 113.915 294.528 114.005C296.243 115.86 300.034 118.617 302.69 120.215C305.901 122.134 310.556 124.17 313.303 124.866C313.432 124.891 313.509 125.007 313.496 125.123C313.483 125.239 313.367 125.304 313.238 125.265C310.582 124.595 306.352 122.779 303.103 120.923L303.129 120.911Z" fill="#003F67"/>
<path d="M298.856 115.59C298.856 115.59 298.843 115.59 298.83 115.577C298.727 115.5 298.688 115.371 298.765 115.281C299.346 114.533 301.203 112.988 302.544 112.24C303.807 111.545 305.974 110.785 307.676 110.694C307.805 110.694 307.921 110.772 307.947 110.888C307.972 111.004 307.895 111.094 307.766 111.107C306.128 111.197 304.026 111.918 302.814 112.601C301.538 113.31 299.694 114.843 299.139 115.551C299.075 115.629 298.959 115.641 298.856 115.59Z" fill="#003F67"/>
<path d="M309.799 121.838C309.696 121.773 309.644 121.67 309.683 121.567C310.018 120.73 310.405 118.372 310.366 116.904C310.328 115.512 309.902 113.335 309.141 111.879C309.09 111.776 309.141 111.647 309.244 111.622C309.36 111.583 309.49 111.647 309.554 111.751C310.341 113.271 310.792 115.512 310.831 116.955C310.869 118.488 310.482 120.872 310.121 121.748C310.083 121.851 309.954 121.889 309.838 121.838C309.838 121.838 309.825 121.838 309.812 121.838H309.799Z" fill="#003F67"/>
</svg>
