<svg width="359" height="42" viewBox="0 0 359 42" fill="none" xmlns="http://www.w3.org/2000/svg">
<path fill-rule="evenodd" clip-rule="evenodd" d="M88.201 0.625649C89.4442 0.897256 89.6281 1.59204 91.0734 1.70574C91.2817 1.29517 91.5939 0.682454 92.3779 0.897213V1.16885C93.0454 1.42151 92.6719 0.897281 93.1618 1.4405H93.4251V2.52058L93.9458 2.79215V3.32911H94.2091C94.2948 3.60071 94.3805 3.86595 94.4724 4.13755H93.4251V4.94608C92.7024 5.14189 92.8433 5.02189 92.6412 5.7546C91.7286 5.98199 91.4225 6.4368 90.2895 6.56312C90.3079 7.27057 90.3936 7.47901 90.5528 7.90853C89.6586 7.83905 88.5012 7.69374 88.4644 7.63689V8.17377H88.7277C89.5545 8.18009 87.9438 8.44541 87.9438 8.44541C87.6131 8.02221 87.2457 7.78848 86.6394 7.63689C86.2474 8.3696 85.7329 8.78649 84.8082 8.9823V8.44541L84.2875 8.71698C84.1344 9.12755 84.0855 9.15918 84.0242 9.79714C83.473 9.84136 82.4441 10.0372 82.193 10.334C81.8745 10.713 82.4257 10.6309 81.6724 11.1425V10.0624H81.4091V11.1425H80.6251V10.6056C80.227 10.7635 80.1964 10.8141 79.5779 10.8772V10.3403L78.7939 10.6119C78.6224 11.073 78.5429 11.4584 78.5306 12.229H77.226C77.226 12.229 76.9626 12.6585 76.7054 12.7658V13.0375H76.4421V12.5005H75.9216V12.229H75.6581V12.5005H74.8742V12.7722C74.421 13.189 74.3231 14.0354 74.0904 14.6608C73.1289 14.566 72.3694 14.1871 71.7386 14.9324C71.6528 15.204 71.5671 15.4693 71.4753 15.7409C70.7771 15.8293 70.0788 15.9178 69.3867 16.0125V16.2841L68.8662 16.5557V17.0926L68.0823 16.821L67.819 17.3579H67.035C66.9922 17.3832 66.7288 17.7621 66.5144 17.8948V18.1664C66.0796 18.078 65.6448 17.9895 65.21 17.8948V17.6232C65.0569 17.6043 64.3157 18.078 63.9054 18.1601C63.7278 18.6717 63.5685 19.8086 63.3847 20.314L62.601 20.0424V19.7708C62.2396 19.7013 62.705 19.9666 62.3375 20.0424C61.7128 20.1687 61.6638 19.8402 61.2902 19.7708L60.7698 20.5793H59.7223V20.8509L58.9386 21.1225V21.931H59.459V22.2027H59.1957C59.0549 22.329 57.1011 22.8848 57.1072 22.2027H56.8439V22.7395L55.5395 22.4679C55.5517 23.4343 55.4782 24.167 55.0188 24.6218V24.3502H54.7555V23.2701H54.2349C54.2165 23.9775 54.1308 24.186 53.9716 24.6155C53.4265 24.4513 52.9059 24.3123 52.4037 24.8871V25.424H52.1404V25.6956L50.5725 25.424C50.4867 25.6009 50.401 25.784 50.3092 25.9609C49.9601 26.0493 49.611 26.1378 49.2619 26.2325V26.7694H48.2147V27.3063C47.59 27.18 47.3939 26.9968 46.9101 26.7694V28.1148C46.2976 28.2033 45.6913 28.2917 45.0789 28.3864V28.658C44.3133 28.8412 44.2215 28.9549 44.0316 29.7381C44.3991 29.7571 43.9948 29.694 44.2949 29.4666C44.7053 29.1571 44.5399 30.1297 44.5582 30.275C44.1112 30.5782 44.2031 30.4456 44.0378 31.0835C44.3868 30.9951 44.7359 30.9067 45.085 30.812L45.3483 30.275C45.3973 30.2687 45.9607 30.5277 46.3956 30.5467V30.0098C46.6589 30.0982 46.9162 30.1866 47.1795 30.2813L47.443 29.7445C47.7614 29.5865 48.2085 29.5991 48.4902 29.4728V28.3927C49.1088 28.2853 49.9294 27.8811 50.8419 28.1212V28.3927H51.8893V28.1212H52.4098V27.041H52.9304V27.5779C53.7144 27.401 54.4982 27.2179 55.2821 27.041L55.5456 27.3126C56.2621 26.7947 55.7843 26.3905 57.1133 26.2325C57.4134 26.5421 57.1134 26.3399 57.634 26.5041V25.6956L58.9386 25.424V24.8871C59.8021 25.0324 60.1266 25.2282 60.5063 24.8871H60.7698C61.1005 24.4703 60.488 24.3439 61.0331 24.0786V24.3502H61.2964V23.5417C61.8721 23.447 62.6498 23.188 63.3847 23.5417C63.4705 23.7186 63.5563 23.9018 63.6482 24.0786H64.1687V23.5417C64.6954 23.6933 64.3954 23.5101 64.6893 23.8133L65.4733 23.5417V23.2701H66.2572C66.4287 22.9985 66.6062 22.7332 66.7777 22.4616C67.2125 22.55 67.6475 22.6385 68.0823 22.7332V23.0048C68.2721 23.0427 69.0438 22.7648 69.9135 22.7332L69.6502 21.9247H70.1707V22.1963H71.2179L71.4814 22.4679V22.1963L72.2652 21.9247C72.2468 21.2172 72.1611 21.0088 72.0019 20.5793H73.5698C73.8699 20.2698 73.5698 20.4719 74.0904 20.3077C74.2925 19.4992 74.2496 19.6003 75.1377 19.4992C75.4316 19.9603 75.303 19.8655 75.9216 20.0361C76.1849 19.3602 76.4605 18.6275 76.9689 18.956H77.2322V19.7644H77.7528C77.9427 19.0191 77.8263 19.1644 78.5367 18.956V18.6843L80.1045 18.4128C80.1045 18.4128 80.2209 18.8044 80.6251 18.6843L80.8884 18.1475H81.6724V17.6106L82.193 17.8821V18.1538C82.536 18.2864 82.2481 18.0274 82.4563 17.8821C83.1116 17.699 82.8789 17.7432 83.2403 17.3453H83.5036V16.8084L84.0242 16.5367C84.3304 16.1957 84.4652 15.7535 84.8082 15.4567V15.7283H85.5919C85.6777 16.0883 85.7635 16.4483 85.8554 16.8084H86.1187C86.7557 15.7093 87.5824 15.8104 88.991 15.463C89.0707 15.444 89.0585 15.0903 89.5117 15.1913V15.463C90.0323 15.6398 90.559 15.823 91.0796 15.9999V15.7283H91.3429L91.0796 14.9198C91.2511 14.8313 91.4286 14.7429 91.6001 14.6481C91.9614 14.086 91.4838 14.2691 92.1207 13.8396V13.568L93.4251 13.2964C93.2843 14.0481 93.223 13.3217 93.4251 14.1049H93.6886V13.568C94.2092 13.6565 94.7357 13.7449 95.2563 13.8396V13.568C95.538 13.3217 95.3054 13.6122 95.5198 13.2964H95.2563V13.0248H96.0403C96.0954 13.6628 96.1505 13.6944 96.3036 14.1049C96.6037 13.7954 96.4078 14.1049 96.567 13.568C96.8671 13.2585 96.6711 13.5681 96.8303 13.0312C97.6143 12.7596 98.3983 12.4942 99.1822 12.2226L99.4455 12.4943C99.5312 11.6226 99.6844 11.7047 99.9661 11.1489H100.487V11.4204H100.75V11.1489H101.797L102.061 10.3403C102.74 10.6246 103.163 10.833 104.149 10.8772C104.063 10.7004 103.978 10.5172 103.886 10.3403C104.063 10.0435 105.356 9.96134 105.717 9.53182L105.454 8.99494H105.717V8.7233C106.409 9.03912 106.703 9.24123 107.805 9.26018V8.98862H107.542V8.18009C108.369 8.35696 108.069 8.59065 108.326 8.71698C108.632 8.69803 109.257 8.17381 109.894 8.44541L110.157 8.9823H110.678C110.427 9.87291 110.433 10.5677 110.941 11.4078H110.678C110.378 11.7173 110.678 11.5152 110.157 11.6794V13.0248H109.894C109.826 13.4733 110.139 13.4922 110.157 13.5617V14.9071C109.22 14.945 108.675 15.2924 108.069 15.444L107.548 15.1724C107.377 15.4441 107.199 15.7093 107.027 15.9809C106.88 16.0441 105.6 15.7788 105.196 15.7093C105.037 16.4168 104.455 17.1368 103.629 17.0547C103.629 17.0547 103.488 16.7136 103.108 16.7831L103.371 17.32H102.324C102.238 17.7684 102.153 18.2169 102.061 18.6654L100.756 18.3938L100.493 18.9307C99.7884 19.1139 99.8068 18.4128 99.7088 18.3938L98.9249 18.6654L99.1883 18.937C99.2006 19.0444 98.9555 19.5434 98.9249 20.0171C98.0552 20.1055 97.1855 20.194 96.3097 20.2888V19.7519C95.6911 19.695 95.6605 19.6381 95.2625 19.4802V20.2888C95.2073 20.4024 93.468 21.6468 94.4785 22.1774H93.6947V21.9057C93.4436 21.4067 93.4313 22.4427 93.4313 22.4427C93.1373 22.6701 93.3946 22.4111 93.1679 22.7142C93.9029 22.4616 93.8968 22.43 94.7358 22.7142V22.9859L95.5198 22.7142L95.2563 22.4427L95.5198 21.6342C96.7447 22.1205 97.5531 21.7921 98.3921 21.0973C98.4779 20.9204 98.5636 20.7372 98.6554 20.5603H99.96C99.96 20.5603 99.9354 20.4024 100.48 20.2888V21.0973H100.744V20.5603C101.858 20.5414 102.477 20.5035 103.096 20.0234L103.359 19.4865C103.794 19.575 104.229 19.6634 104.664 19.7582C104.363 19.4487 104.663 19.6508 104.143 19.4865V18.9497C104.406 19.0381 104.663 19.1265 104.927 19.2212V18.6843H105.447V19.2212C106.96 19.0949 108.044 18.217 109.104 17.6043V18.4128H109.624V17.8758H111.456V17.6043H112.239V17.3326C112.76 17.421 113.287 17.5095 113.807 17.6043C114.028 17.3011 113.777 17.5663 114.071 17.3326V16.2525C114.591 16.1641 115.118 16.0756 115.638 15.9809C115.553 16.2525 115.467 16.5178 115.375 16.7894H115.638V17.0611C115.932 16.8337 115.675 17.0926 115.902 16.7894C116.202 16.4799 116.006 16.7894 116.165 16.2525C116.576 16.2715 117.996 16.5241 117.996 16.5241V16.2525H118.26V15.444C118.548 15.065 119.436 15.1661 120.091 15.1724V15.444L121.659 15.1724V14.9008H122.179V14.6292H122.963L122.7 15.4377H122.963C123.153 14.6923 123.037 14.8376 123.747 14.6292V15.1661C124.011 15.0777 124.268 14.9892 124.531 14.8945V14.6229C125.144 14.5345 125.75 14.446 126.362 14.3513V14.0796H127.146L127.41 13.5428C127.63 13.4543 129.131 13.827 129.498 14.0796V13.5428L130.282 13.2712V12.9995C130.637 12.8859 130.178 13.1954 130.545 13.2712C130.98 13.3596 131.011 13.0122 131.066 12.9995C131.544 12.8985 132.076 13.3533 132.37 13.5364V13.2649C133.185 12.5006 132.432 12.1216 133.938 11.9195V12.191H134.722L134.459 12.728C134.796 13.1638 134.949 12.4311 135.243 13.5364C135.586 13.2522 135.635 12.987 136.027 12.728V13.5364H136.547C136.462 12.9995 136.376 12.4564 136.284 11.9195C137.509 11.4899 137.166 12.1279 137.852 10.5741H138.115C138.084 11.1488 137.846 11.4962 137.852 11.6541L138.115 11.9258C138.593 11.5847 138.146 11.5594 138.379 11.3889C138.679 11.1615 138.544 11.6352 138.642 11.6605C138.905 11.572 139.162 11.4836 139.426 11.3889V10.8519C140.014 10.7446 140.43 10.4098 141.257 10.5804C141.257 10.5804 141.269 10.9341 141.778 10.8519V10.5804H143.082V10.8519C142.457 11.0162 142.598 10.9404 142.298 11.3889H142.819C143.572 10.1067 144.827 10.5551 146.218 10.0435L146.481 9.23497C147.228 9.23497 147.602 9.32967 148.049 9.50653V8.42645H148.312C148.484 8.69805 148.661 8.96336 148.833 9.23497H149.096L148.833 9.77185H149.096V10.0435C149.844 10.5993 149.77 9.56338 150.144 10.8519H150.664V11.3889H151.185C151.099 11.6605 151.013 11.9257 150.921 12.1973H151.185C151.362 12.6016 151.368 12.6459 151.448 13.2775H151.969V13.8144C152.373 14.0544 152.514 14.2123 152.753 14.6229C153.598 14.1492 153.249 13.9786 154.32 14.3513L154.057 13.5428H154.578V13.0059H155.098V13.2775H155.362V13.0059L156.146 13.2775L155.882 14.086H156.403C156.593 13.3406 156.476 13.486 157.187 13.2775C157.579 12.8038 157.891 12.7658 158.755 12.7406V12.2037C159.275 12.0268 159.802 11.8436 160.322 11.6668C160.341 12.3742 160.427 12.5827 160.586 13.0122C160.88 12.7848 160.622 13.0437 160.849 12.7406H161.112V11.9321C161.896 12.0205 162.68 12.1089 163.464 12.2037V11.6668H163.985L164.248 10.8583C164.597 10.9467 164.946 11.0352 165.295 11.1299C165.381 10.953 165.467 10.7699 165.559 10.593L166.863 10.8646V11.4015C167.531 10.9846 168.664 9.72763 169.478 10.3214H169.999V10.8583H170.262V10.3214C171.518 10.2519 171.524 10.1319 172.614 10.3214C172.7 9.87291 172.786 9.42444 172.877 8.97597C174.084 8.74226 174.997 8.74226 175.75 8.97597V8.43909H177.318V8.71065H178.102V8.9823C178.365 8.89387 178.622 8.8054 178.886 8.71065V8.43909C178.585 8.12958 178.781 8.43911 178.622 7.90221C179.48 7.92116 179.394 8.2433 179.927 7.90221L180.19 7.36525L181.758 7.90221V8.43909C182.462 8.43909 183.24 8.52749 183.589 8.16745V7.63057L184.11 7.90221V7.63057C184.63 7.54214 185.157 7.45375 185.678 7.359C185.923 7.52323 185.586 7.74426 185.941 7.63057L186.204 7.09368C186.535 7.09368 186.872 7.57369 187.509 7.36525V7.09368C187.944 7.00525 188.378 6.91679 188.813 6.82204L188.55 7.63057H188.813C189.395 8.28116 189.303 8.00959 190.118 7.90221C190.087 8.75493 189.609 8.40747 190.381 8.71065C190.497 9.3802 190.62 9.70241 190.644 10.5993C189.922 10.7952 190.063 10.6751 189.86 11.4078H189.597V12.7532C188.972 12.8795 188.777 13.0627 188.293 13.2901V12.4816H188.029C187.643 13.9913 187.576 13.0375 186.725 13.5617V13.8334L185.678 14.6418C185.763 14.3702 185.849 14.105 185.941 13.8334H185.678C185.518 14.2629 185.445 14.4713 185.414 15.1788C184.428 15.3935 183.95 15.703 182.542 15.7156V15.1788H182.021V15.7156H180.717V15.9872H180.98C180.815 16.3725 180.674 16.1893 180.46 16.5241H179.939L180.202 15.9872H179.939C179.682 16.3536 179.786 16.5178 179.155 16.5241C179.155 16.5241 178.971 16.1388 178.634 16.2525C178.549 16.4294 178.463 16.6126 178.371 16.7894H177.851L177.587 18.4065L176.54 18.678V17.5979H176.019C175.829 18.4633 175.664 18.577 174.715 18.678L174.978 17.8695H174.715C174.617 18.179 174.641 18.8296 174.194 18.678L173.931 17.8695C173.667 17.9579 173.41 18.0464 173.147 18.1411V18.678C172.731 18.5138 172.528 18.438 171.842 18.4065V17.5979H171.579V18.4065C171.879 18.716 171.683 18.4064 171.842 18.9433C171.23 19.0318 170.624 19.1202 170.011 19.2149V19.7519C169.086 19.8529 169.215 20.0866 168.443 20.2888V21.0973C167.806 20.9457 167.868 20.813 167.396 20.5603V21.0973H167.133V21.9057H167.396V21.3688H167.917V21.9057C168.352 21.8173 168.786 21.7289 169.221 21.6342V22.4427H169.742V21.6342C170.177 21.7226 170.611 21.811 171.046 21.9057C171.169 21.2614 171.346 21.0593 171.567 20.5603C172.418 20.5666 173.453 20.4403 173.919 20.832H174.182C174.268 20.6551 174.353 20.4719 174.445 20.2951H174.966V20.0234H175.486V19.7519L176.007 20.0234V19.7519H178.622C178.536 19.4803 178.451 19.215 178.359 18.9433H178.879V18.6717H179.143V18.9433L179.927 19.2149C179.945 19.5939 179.988 19.2907 179.663 19.4865C179.957 19.7708 179.663 19.6066 180.184 19.7582V19.4865H180.447V18.678H180.711C180.937 18.3054 180.907 18.2106 180.974 17.5979C181.592 17.5664 181.635 17.5158 182.021 17.3263V17.5979H182.285V17.8695L182.021 18.4065H182.805V17.8695C183.418 17.7811 184.024 17.6927 184.636 17.5979V17.8695H184.9C185.194 17.6547 184.802 17.5158 185.163 17.5979V17.8695H186.21V18.4065H186.474C186.56 17.8696 186.645 17.3263 186.737 16.7894H187.258V17.3263H187.521V16.5179C188.121 16.5431 188.201 16.7452 188.568 16.7894L188.832 16.2525C188.832 16.2525 189.548 16.5051 189.879 16.5241V15.9872L190.142 16.2589C190.491 16.1704 190.84 16.082 191.19 15.9872V16.2589H192.494V15.4503H193.015V15.722H193.278V15.4503L193.799 15.722L194.062 14.9134C194.754 14.6482 194.607 15.5009 195.109 15.4503V15.1788C196.254 14.9008 196.548 14.5155 197.724 14.3702V14.6418H197.461C196.965 14.8755 197.981 14.9134 197.981 14.9134C198.202 15.2166 197.951 14.9513 198.245 15.185V14.6481L199.549 14.3766C199.635 14.1997 199.721 14.0165 199.813 13.8396L200.076 14.1112C201.626 14.2123 201.828 13.5491 202.691 13.0312V13.8396H202.955C203.255 13.5301 202.955 13.7323 203.475 13.568V13.0312C203.739 13.1196 203.996 13.208 204.259 13.3027L204.522 12.7658H205.57V12.4943H205.833C205.992 13.1386 205.919 12.9932 206.354 13.3027V12.4943C207.726 12.2669 207.511 12.4627 208.705 13.0312C208.84 12.3995 209.085 12.0205 209.489 11.6858C209.789 11.9953 209.489 11.7931 210.01 11.9573V11.4204H210.794V10.8836C211.229 10.972 211.663 11.0604 212.098 11.1551V11.6921H212.619V10.8836C213.189 10.9215 213.489 11.1551 213.666 11.1551V10.8836L214.45 10.6119C214.536 10.7888 214.622 10.972 214.713 11.1489C215.546 11.4015 216.796 10.5867 217.329 10.3403L217.065 9.53182H217.849C218.008 10.1761 217.935 10.0308 218.37 10.3403C218.59 10.6435 218.339 10.3782 218.633 10.6119C218.652 9.90447 218.737 9.69602 218.897 9.2665C219.417 9.17807 219.944 9.08969 220.464 8.99494C220.685 9.29813 220.434 9.0328 220.728 9.2665C220.526 9.53811 220.409 9.53186 220.207 9.80346H220.991L220.728 8.99494L220.991 8.7233C221.377 8.84963 221.407 9.03284 222.038 8.99494V8.7233H222.302V8.99494C222.651 9.08337 223 9.17176 223.349 9.2665V9.53815C224.415 9.95503 224.898 9.34237 225.437 9.80979C226.252 10.3656 225.56 10.1572 225.958 10.8899L226.478 11.1614V11.6984H226.742C226.981 12.0648 226.938 12.1721 227.005 12.7785L225.958 12.5068C226.166 13.3785 226.442 13.4354 226.478 14.6608C226.185 14.8882 226.442 14.6292 226.215 14.9324H225.952C225.872 14.1239 225.915 14.1997 225.431 13.8523V14.1239H225.695C225.523 14.4839 225.346 14.8439 225.174 15.204C224.494 15.2166 224.274 15.2609 223.869 15.4756V15.7472C223.422 15.9051 223.416 15.4946 223.349 15.4756C222.412 15.2293 221.818 15.8167 221.518 16.2841H221.254C221.169 16.821 221.083 17.3642 220.991 17.9011H220.471L220.207 17.3642C219.858 17.4527 219.509 17.5411 219.16 17.6358C219.215 18.2738 219.27 18.3054 219.423 18.716C218.817 18.6907 218.756 18.5012 218.376 18.4443L218.113 18.9812C217.763 19.0696 217.414 19.1581 217.065 19.2528C216.875 19.9982 216.992 19.8529 216.281 20.0614C215.363 20.9141 214.591 19.7202 214.45 19.7897V20.0614C214.015 20.333 213.58 20.5982 213.146 20.8698C213.286 21.811 213.403 21.3688 213.146 22.2152H213.409V21.9437H214.456V22.4805L215.24 22.2089V21.9373L216.024 22.2089V21.4005C216.288 21.4889 216.545 21.5773 216.808 21.672V21.4005L216.545 21.1288H218.113C218.198 21.4004 218.284 21.6657 218.376 21.9373C218.547 21.8489 218.897 21.4005 218.897 21.4005C219.16 21.4889 219.417 21.5773 219.68 21.672V21.4005C220.066 21.192 220.115 21.1983 220.728 21.1288V20.5919H221.248V20.055H222.296V20.5919C222.884 20.5224 222.988 20.5666 223.343 20.3203V20.0487H223.863V19.7771H224.384V19.5055C224.849 19.1202 225.009 18.8991 225.688 18.697V19.5055H226.736C226.822 19.057 226.907 18.6086 226.999 18.1601H227.52C227.434 18.4317 227.348 18.697 227.256 18.9686H227.52C227.893 18.5833 228.977 18.2801 229.608 18.1601V17.6232C229.957 17.5348 230.306 17.4463 230.655 17.3516V16.5431H231.176V17.3516H231.697V16.5431H233.001C232.915 16.8147 232.83 17.08 232.738 17.3516H233.258C233.528 17.0421 233.742 16.8337 234.306 16.8147V17.0863H234.569L234.832 16.8147C235.077 16.3283 235.194 16.3915 235.353 15.7345L236.137 15.463V15.1913L236.4 15.463L237.184 15.1913V15.9999H237.705C237.76 15.3619 237.815 15.3303 237.968 14.9198L238.489 15.1913V14.9198C238.862 14.585 238.893 14.1744 239.273 13.8396C239.352 13.9659 239.805 14.8187 240.056 14.6481L240.32 13.8396C241.453 13.7512 242.586 13.6628 243.719 13.568V13.8396C242.996 14.0354 243.137 13.9154 242.935 14.6481C243.584 14.5281 243.896 14.4018 244.766 14.3766V14.1049H244.503V12.7595C244.938 12.8479 245.372 12.9364 245.807 13.0312C245.893 12.7596 245.979 12.4942 246.071 12.2226C246.371 12.5321 246.175 12.2226 246.334 12.7595L247.118 13.0312V12.7595C247.657 12.4563 247.589 12.3426 248.422 12.2226V11.4141C248.98 11.3825 249.317 11.1362 249.47 11.1425L249.733 11.4141V10.8772L251.038 10.6056V11.1425C251.209 11.0541 251.387 10.9657 251.558 10.8709V10.5993C251.974 10.5488 251.883 11.0667 252.079 11.1362H253.126C253.212 10.6878 253.298 10.2393 253.389 9.79082C253.824 9.87925 254.259 9.96764 254.694 10.0624L254.957 9.5255H255.221V9.79714C255.484 9.70871 255.741 9.62025 256.004 9.5255V8.98862C256.304 9.29812 256.109 8.9886 256.268 9.5255H256.788C256.911 8.88122 257.088 8.67909 257.309 8.18009C258.179 8.19273 259.661 8.45174 259.661 8.45174V8.18009H260.181V7.90853H260.965C261.051 7.73167 261.137 7.54843 261.229 7.37157C261.492 7.46 261.749 7.54847 262.012 7.64321V7.91485H263.317V7.37789L264.364 7.10633V7.64321H264.885C265.05 8.38224 265.228 8.25591 265.405 8.98862H266.189C266.379 9.73396 266.263 9.5887 266.973 9.79714V10.334C265.412 10.6625 265.62 11.4141 265.142 12.7595H266.71L266.973 11.6794C268.063 11.5089 267.714 11.4142 268.805 11.1425V11.6794C270.042 11.1425 269.858 11.1425 270.893 11.6794V11.1425C271.242 11.0541 271.591 10.9657 271.94 10.8709V10.334H272.461V10.6056H272.724V10.334C273.318 10.214 273.428 10.4729 273.771 10.6056V10.334H273.508C273.024 10.0751 274.029 10.0624 274.029 10.0624V9.5255H274.549V8.98862C275.37 9.14653 275.713 9.42444 276.638 9.5255L276.901 8.71698C276.901 8.71698 276.344 8.67281 276.638 8.44541H277.158V8.71698H278.726V7.90853C279.559 8.08539 279.241 8.30645 279.51 8.44541C279.945 8.4012 279.994 7.91485 280.031 7.90853C280.533 7.76325 280.392 8.08535 280.551 8.18009H280.814V7.90853C281.164 7.99696 281.513 8.08535 281.862 8.18009C282.052 7.43475 281.935 7.58001 282.646 7.37157V7.90853H283.693C283.938 7.42216 284.054 7.48528 284.214 6.82837L284.997 7.10001V6.82837C285.169 6.73994 285.347 6.65155 285.518 6.5568V7.09368H286.039L285.775 6.28516C286.4 6.15883 286.596 5.97567 287.08 5.74828V6.82837C288.439 6.46201 288.011 6.23466 289.695 6.5568V5.74828H290.479V6.01992C290.369 6.17783 290.05 6.0578 290.216 6.5568H290.479C290.901 4.88926 291.036 6.10197 292.047 5.47664C292.641 5.11028 292.028 4.48495 293.351 4.13123V4.40287L294.135 4.13123V4.66819H294.399V4.13123C295.323 4.23229 295.195 4.46606 295.966 4.66819V5.20507C296.211 5.62827 297.834 5.70408 297.014 6.55048H297.534V7.63057L297.014 7.90221C297.001 7.99064 297.259 8.50225 297.277 8.9823H297.798C297.675 9.62657 297.497 9.8287 297.277 10.3277C296.812 10.353 296.334 10.612 296.23 10.5993V10.3277H295.183V10.5993L293.615 10.8709V11.4078C293.266 11.5847 292.916 11.7678 292.567 11.9447V11.6731H292.304V12.4816L290.473 13.0185C290.773 13.328 290.473 13.1259 290.993 13.2901V13.5617C291.453 13.7828 291.832 13.4038 292.041 13.2901V13.0185H292.825V12.4816C294.043 12.4185 294.313 12.09 295.176 11.6731V11.4015H297.008V11.6731H296.744C296.444 11.9826 296.744 11.7804 296.224 11.9447V12.4816C297.289 12.1658 296.499 12.2353 297.008 11.6731L297.528 11.9447V11.6731H298.049V11.4015H298.833C299.108 11.2372 299.482 10.0687 300.137 10.3214V10.593H300.658V9.7845C300.921 9.87293 301.178 9.96131 301.442 10.0561V9.7845C301.962 9.69607 302.489 9.6076 303.009 9.51286V10.0497H303.53C303.616 10.3213 303.701 10.5867 303.793 10.8583H304.057V10.3214H304.577C304.73 9.31706 304.73 9.70241 304.577 8.70441C304.657 8.73599 307.094 9.29182 307.192 9.24129V8.96965H307.456V7.88956H307.719C308.252 8.38225 308.907 7.96536 309.808 7.88956V7.35268C310.334 7.50427 310.034 7.32105 310.328 7.62424C311.29 7.34 311.045 7.08105 311.633 6.54416V6.27252C312.294 5.84931 313.697 6.25357 314.768 6.27252C314.934 5.53349 315.111 5.65982 315.289 4.92711C316.41 4.88289 316.183 4.75658 316.857 4.39023V5.19875H317.904C317.959 4.56079 318.014 4.52923 318.167 4.11866L318.951 4.39023L319.215 3.85334H319.735V3.5817C319.999 3.49327 320.256 3.40489 320.519 3.31014L320.783 4.11866C321.444 3.56913 320.893 3.46805 322.087 3.31014V3.5817C321.787 3.82804 321.781 3.77757 321.566 4.11866H321.83V4.39023C322.375 4.09335 322.295 3.95441 323.134 3.85334C323.355 4.15653 323.104 3.89128 323.398 4.12499C323.091 4.63662 323.177 4.38394 322.614 4.66187V4.93343H323.134C323.049 5.47033 322.963 6.01358 322.871 6.55048H323.134V6.82204H322.871V7.359C322.957 7.99065 323.042 8.61597 323.134 9.24761H322.871C322.651 9.55712 322.736 9.62659 322.35 9.7845V9.51286H322.087C321.916 9.78446 321.738 10.0498 321.566 10.3214H320.783L320.519 10.8583C320.17 10.9467 319.821 11.0352 319.472 11.1299C319.386 11.4015 319.301 11.6668 319.209 11.9384L318.425 12.21L318.161 12.7469H317.898V12.4753C316.936 12.2416 316.636 13.3912 316.067 12.7469V13.2838H315.546C315.632 13.6439 315.718 14.0039 315.81 14.3639H315.546C315.252 14.825 315.381 14.7303 314.762 14.9008C314.738 14.844 314.389 13.9217 314.242 14.0923V14.3639L313.721 14.6355C313.635 14.9071 313.55 15.1724 313.458 15.444H312.674C311.798 15.8862 312.331 16.1578 310.843 16.2525C310.928 16.5241 311.014 16.7894 311.106 17.0611C311.455 16.9726 311.804 16.8842 312.153 16.7894V17.5979H312.417V17.3263H313.464C314.26 17.0168 314.628 16.5747 315.816 16.5179V15.9809C316.557 15.8103 316.508 15.4819 316.6 15.444H317.647V15.7156L318.694 15.444C318.694 15.444 318.811 15.7788 319.215 15.7156V15.444L320.262 15.7156V15.444C320.562 15.1345 320.366 15.444 320.525 14.9071H320.262V15.1788C320.035 15.6904 319.999 14.6418 319.999 14.6418C320.954 14.7302 321.916 14.8187 322.871 14.9134L323.134 14.3766C323.398 14.2945 323.612 14.7934 324.182 14.6481V14.3766H325.486V14.6481H325.75V14.3766H326.797L327.06 13.568H327.324L327.06 13.0312H327.844C328.144 13.3407 327.844 13.1385 328.365 13.3027V12.7658C328.989 12.8922 329.185 13.0753 329.669 13.3027V13.0312H329.406C328.922 12.7722 329.926 12.7595 329.926 12.7595V13.0312C330.227 13.3407 330.03 13.0311 330.19 13.568C330.747 13.5365 331.078 13.2964 331.237 13.2964V13.568H331.758C331.831 13.088 332.021 13.0312 332.021 13.0312C331.935 12.7596 331.849 12.4942 331.758 12.2226H332.021V11.951C332.762 12.2921 333.099 12.6458 334.109 12.7595V12.2226C335.634 11.8626 334.256 11.5405 335.677 12.2226V11.1425H335.941V11.4141C336.29 11.1425 336.639 10.8772 336.988 10.6056V11.6858H337.251C337.38 11.5594 337.178 11.2499 337.515 11.4141V11.6858H337.778C337.778 11.6858 337.704 12.6522 338.041 12.2226V11.951C338.341 11.6415 338.145 11.951 338.305 11.4141H337.521C337.723 10.6056 337.68 10.7067 338.568 10.6056V10.8772L339.352 10.6056V10.8772H340.136V11.1489C340.809 11.2941 341.569 10.3087 341.967 10.0687L342.751 10.3403V10.0687C343.186 9.77815 343.186 9.70237 343.798 9.53182C343.712 9.80343 343.627 10.0687 343.535 10.3403H343.798V10.6119C344.062 10.4351 344.319 10.2519 344.582 10.075V9.80346H345.103C345.574 9.58871 345.672 9.19072 345.887 8.7233C346.321 9.08334 346.756 9.44343 347.191 9.80346C347.35 9.27288 347.203 9.14654 347.712 8.99494C347.797 9.02652 347.791 9.50024 348.232 9.53182C348.79 8.76753 348.465 8.98858 349.28 9.26018C349.365 8.38851 349.518 8.4707 349.8 7.91485C350.713 8.06013 350.284 8.18014 351.105 7.91485V9.53182H351.368C351.662 9.07072 351.533 9.16548 352.152 8.99494C352.642 9.84134 353.12 9.75925 353.199 11.1489C353.916 11.1805 355.092 11.5215 355.288 11.1489H355.551V11.4204C356.274 11.5973 357.094 12.1721 357.382 12.7658V13.5744H357.646C358.007 14.0734 358.252 14.1997 358.429 14.9198C358.166 14.8313 357.909 14.7429 357.646 14.6481V14.9198H357.909V15.7283H358.172C358.411 16.1262 358.405 16.3915 358.436 17.0737C358.135 17.3832 358.331 17.0737 358.172 17.6106C357.303 17.699 356.433 17.7874 355.557 17.8821V17.3453C355.208 17.4337 354.859 17.5222 354.51 17.6169V17.0799C354.338 17.1684 354.161 17.2568 353.989 17.3516C353.903 17.1747 353.818 16.9916 353.726 16.8147C353.72 16.8147 352.954 17.1811 352.421 16.8147L352.158 16.0062C351.852 15.7851 351.711 16.7957 351.111 16.5431V16.2715C350.811 15.962 351.007 16.2714 350.847 15.7345L350.063 16.0062V15.7345H349.8C349.886 15.4629 349.972 15.1977 350.063 14.9261C350.063 14.9261 349.739 14.844 349.8 14.3892C349.8 14.3892 350.235 14.2691 350.063 13.8523H349.8C349.5 14.1618 349.8 13.9597 349.28 14.1239C349.194 14.3955 349.108 14.6608 349.016 14.9324C348.404 14.8566 348.367 14.844 347.969 14.6608V14.3892C347.528 14.4208 347.528 14.9008 347.448 14.9261C346.854 15.1409 346.395 14.5913 346.144 14.6545V14.9261C345.256 15.2924 345.06 15.7662 344.055 16.0062C344.141 15.7346 344.227 15.4693 344.319 15.1977H343.798C343.412 15.9304 342.996 16.4294 341.967 16.5431V15.7345H341.704C341.502 16.543 341.544 16.442 340.656 16.5431V16.0062C339.566 16.6189 339.419 16.5557 338.041 16.2778V15.7409H337.778C337.759 16.7831 337.821 16.8526 336.994 17.0863V17.3579C336.743 17.8569 336.731 16.821 336.731 16.821H336.21C336.124 16.9979 336.038 17.181 335.947 17.3579C335.512 17.2695 335.077 17.181 334.642 17.0863V17.6232H333.858V17.8948C333.558 18.2043 333.754 17.8948 333.595 18.4317L332.027 18.7033V18.1664L329.412 18.438V18.9749H328.628V19.2465C328.395 19.7518 328.365 18.7096 328.365 18.7096C327.526 18.9181 327.801 19.1139 326.797 19.2465V20.055C325.253 19.8908 325.37 19.1012 323.661 18.9749C323.655 19.8718 323.526 20.194 323.398 20.8636H322.877C322.957 20.6299 323.379 20.2698 323.14 19.7834H322.877V20.055C322.577 20.3646 322.773 20.055 322.614 20.5919L321.046 20.8636V21.4005C320.17 21.2362 319.398 20.6614 318.431 21.1288C318.259 21.4004 318.082 21.6657 317.91 21.9373C317.2 22.1521 317.102 21.2109 316.863 21.1288C316.391 20.9646 316.673 21.432 316.6 21.6657C316.336 21.5773 316.079 21.4889 315.816 21.3941V22.4742H315.295L315.032 23.0111C314.603 23.1437 314.548 22.7459 314.511 22.7395C313.88 22.6258 313.831 23.0111 313.464 23.0111V22.7395C312.943 22.6511 312.417 22.5626 311.896 22.4679V23.0048C310.163 23.1943 309.281 23.2385 307.976 23.0048L307.713 23.8133C307.223 23.6807 306.464 23.6996 305.625 23.5417V23.2701C305.925 22.9606 305.729 23.2701 305.888 22.7332C305.263 22.7585 305.239 22.91 304.841 23.0048V22.7332C304.406 22.4427 304.412 22.3479 303.793 22.1963V21.6594H303.273C303.187 21.3878 303.101 21.1225 303.009 20.8509L301.442 20.5793V20.0424C301.65 20.1308 302.262 20.5919 302.746 20.314V20.0424C301.974 19.5245 302.109 18.9686 302.226 18.1538C302.575 17.9769 302.581 17.7306 302.746 17.6169C302.918 17.7053 303.095 17.7937 303.267 17.8885V16.8084H303.53C303.444 16.2715 303.359 15.7282 303.267 15.1913C303.003 15.1029 302.746 15.0145 302.483 14.9198C302.569 15.0966 302.654 15.2798 302.746 15.4567L301.962 15.185V15.722H301.699C301.613 15.8988 301.527 16.082 301.436 16.2589H300.652C300.713 16.8842 300.939 16.4231 300.652 17.0674L300.131 16.7957V17.3326C299.849 17.8064 299.868 16.7957 299.868 16.7957C299.433 16.8842 298.998 16.9726 298.563 17.0674C298.563 17.0674 298.441 16.6631 298.043 16.7957C297.957 16.9726 297.871 17.1558 297.779 17.3326H296.995C296.91 17.6042 296.824 17.8695 296.732 18.1411C296.328 17.9201 295.574 17.1684 294.901 17.3326C294.815 17.5095 294.729 17.6926 294.637 17.8695C294.135 17.819 294.203 17.3453 294.117 17.3326H293.853V17.6043H292.549V17.8758H293.069C292.984 18.4127 292.898 18.956 292.806 19.4929H292.286C292.047 19.3855 292.114 18.6717 291.238 18.956L290.975 19.4929H289.671V19.2212C289.291 19.0065 289.229 19.0318 288.623 18.9497V19.7582C288.36 19.6698 288.103 19.5813 287.839 19.4865V19.7582C287.539 20.0677 287.735 19.7582 287.576 20.2951C286.602 20.5793 286.872 20.8509 286.271 21.3752V21.6468H285.487V20.8383H284.967V21.3752H283.662V21.1035H283.399C283.228 21.4636 283.05 21.8236 282.878 22.1837L282.358 21.912V22.1837L281.574 22.7206V21.912H281.311V22.1837L280.527 21.912V22.1837C280.159 22.1647 280.631 21.9563 280.263 21.912L278.695 22.1837V22.9922H278.432V22.7206C277.722 22.3289 277.152 23.0995 276.864 23.2574C276.717 22.411 276.607 22.1268 275.817 21.912C275.964 22.569 276.093 22.5058 276.338 22.9922H275.817C275.401 23.3901 274.28 23.289 273.465 23.2638V22.7269H272.945V23.2638C272.424 23.1753 271.897 23.087 271.377 22.9922C271.248 22.3542 271.132 22.3542 270.856 21.912C271.211 21.5962 271.113 22.1142 271.377 21.6405C271.034 21.4194 271.07 21.4509 270.856 21.1035H271.377C271.432 20.4656 271.487 20.434 271.64 20.0234C270.899 19.8466 270.654 19.5245 270.336 18.9433H271.12C271.291 18.2233 271.469 17.5032 271.64 16.7894C271.297 16.5683 271.334 16.5999 271.12 16.2525C270.562 16.581 270.55 16.8589 269.815 17.0611V16.5241H269.552V17.3326C268.535 17.421 268.376 17.7685 267.72 18.1411C267.665 17.5032 267.61 17.4716 267.457 17.0611C267.163 17.2884 267.42 17.0294 267.194 17.3326H266.93L267.194 17.6043L266.93 18.4128C265.822 18.217 265.675 18.3686 264.315 18.4128L264.579 19.2212H264.315C264.101 19.575 264.132 19.5371 263.795 19.7582V18.678C262.466 18.7538 262.643 19.1581 261.18 19.2149C260.984 20.1308 260.622 20.4593 259.612 20.5603V20.0234H259.348V20.2951C259.122 20.8067 259.085 19.7582 259.085 19.7582C258.822 19.6698 258.564 19.5813 258.301 19.4865L258.564 20.0234H258.044C257.627 20.4214 257.401 20.952 257.26 21.6405H256.476V21.1035C254.798 21.1667 254.375 22.0889 253.077 22.4489C253.242 21.7099 253.42 21.8362 253.598 21.1035C251.926 21.4825 250.737 22.67 249.678 20.832C250.854 20.1245 250.235 19.8276 249.941 18.678H248.894C248.673 18.3748 248.925 18.6402 248.631 18.4065C248.71 18.1728 249.133 17.8127 248.894 17.3263H248.631V17.0547H247.847C247.406 17.8001 246.726 17.5979 246.279 18.1348L246.016 18.9433H245.232V19.2149C244.968 19.3033 244.711 19.3918 244.448 19.4865V18.9497C243.633 19.1328 243.259 19.7581 242.616 20.0298H241.569V20.3014C241.306 20.213 241.049 20.1245 240.785 20.0298V20.5666L239.217 20.8383V21.1098H238.17C238.084 21.1288 238.103 21.4825 237.649 21.3815V21.1098H237.129V20.8383L235.298 20.5666C235.108 20.9456 234.826 21.3815 234.514 21.6468V20.5666H234.251V21.1035C233.987 21.0151 233.73 20.9267 233.467 20.832C233.344 21.4636 233.032 21.6657 232.946 22.1774H233.209C233.295 22.449 233.381 22.7143 233.473 22.9859C231.984 23.0048 231.831 22.7016 230.858 22.4489C230.472 23.1816 230.055 23.6806 229.026 23.7943V23.2574H228.506V24.3376H227.985V24.6092H226.154V24.8808H225.633V25.1524C225.462 25.064 225.284 24.9756 225.113 24.8808V25.1524H224.849C224.464 24.8302 225.07 24.9566 224.586 24.6155C224.617 25.4682 225.094 25.1208 224.323 25.424V24.8871C222.853 25.0703 223.478 25.5567 222.755 25.9672H222.234C222.149 26.2388 222.063 26.5041 221.971 26.7758H220.666V26.5041C221.316 26.0114 221.003 26.2957 220.93 25.424H220.409V26.2325C218.137 26.2389 217.739 26.7 215.706 26.7694V26.2325C215.357 26.4094 215.007 26.5926 214.658 26.7694C214.744 27.1295 214.83 27.4895 214.922 27.8495C214.242 27.8053 214.028 27.7926 213.617 27.5779V27.3063L212.833 27.5779C212.79 27.5716 212.741 27.1989 212.313 27.3063V27.5779H211.792V27.8495H211.272V28.1212C210.91 28.3675 210.812 28.3106 210.224 28.3927V27.5842H209.961V27.8558H208.656C208.479 27.938 208.644 28.2032 207.873 28.3927C207.787 28.6643 207.701 28.9296 207.609 29.2012H207.873C208.258 29.5297 206.923 29.4665 206.825 29.4728V29.2012C205.778 29.0244 204.737 28.8412 203.689 28.6644C203.83 27.9127 203.892 28.6391 203.689 27.8558C203.408 28.0074 203.144 28.5822 202.642 28.3927V28.1212H202.379L202.642 27.5842H202.379C202.079 27.2747 202.379 27.4769 201.858 27.3126C201.773 27.041 201.687 26.7757 201.595 26.5041H202.115C202.03 26.2325 201.944 25.9672 201.852 25.6956H202.115V25.9672C202.342 26.4789 202.379 25.4303 202.379 25.4303H202.642V25.1587C202.471 25.0703 202.293 24.9819 202.122 24.8871C202.207 24.6155 202.293 24.3502 202.385 24.0786H202.122V23.807H202.906V23.5354C202.563 23.3143 202.599 23.3459 202.385 22.9985C202.832 22.6953 202.74 22.828 202.906 22.19L203.953 21.9184C203.983 21.8994 204.357 20.9203 204.473 21.1098V21.6468H205.257C205.502 21.1604 205.619 21.2235 205.778 20.5666C205.423 20.2508 205.38 20.074 205.257 19.4865H205.778V18.9497H206.299V18.678C205.778 18.7665 205.251 18.8549 204.731 18.9497V18.678C204.388 18.697 204.075 19.1392 203.426 18.9497V18.678C202.906 18.5896 202.379 18.5012 201.858 18.4065V19.4865H201.338V20.0234C201.074 19.8466 200.817 19.6634 200.554 19.4865V18.9497L200.29 19.2212C199.99 19.5307 200.186 19.2213 200.027 19.7582H198.98V20.2951C198.459 20.2066 197.933 20.1182 197.412 20.0234C197.326 20.4719 197.24 20.9204 197.149 21.3688C196.512 21.5204 196.573 21.6467 196.101 21.9057V21.6342C195.832 21.4004 195.74 21.1667 195.581 20.8256C195.281 21.1351 195.477 20.8256 195.317 21.3625C194.797 21.4509 194.27 21.5394 193.75 21.6342V22.171C193.131 22.2279 193.1 22.2848 192.702 22.4427V21.9057H192.966L192.702 21.0973H192.439V21.6342C192.267 21.5457 192.09 21.4573 191.918 21.3625C191.618 21.5773 191.814 22.0005 191.134 21.8994C191.049 21.7225 190.963 21.5394 190.871 21.3625H190.608V21.8994L189.824 22.171C189.689 22.1331 189.665 21.4889 189.303 21.6342C189.04 21.9942 188.783 22.3542 188.519 22.7142C188.256 22.6258 187.999 22.5374 187.735 22.4427V22.9796H187.215V23.5164C186.921 23.2891 187.178 23.548 186.951 23.2448C186.67 22.9985 186.902 23.2891 186.688 22.9732H186.951V22.7016H186.168V22.9732H185.904V22.7016H185.12C185.034 22.5247 184.949 22.3416 184.857 22.1647C184.685 22.2531 184.508 22.3416 184.336 22.4364C183.981 22.5437 184.446 22.7269 184.073 22.7079V22.4364H183.552C183.546 23.2701 183.626 23.826 183.816 24.325H182.768V24.8619H182.505V24.0533H181.985L181.721 24.8619C181.427 24.6345 181.684 24.8934 181.458 24.5902H181.194L181.458 23.7818C181.194 23.8702 180.937 23.9586 180.674 24.0533V24.325H180.153C180.068 24.5018 179.982 24.685 179.89 24.8619H178.843V25.1334H178.579C178.451 25.0134 178.653 24.6976 178.316 24.8619L178.053 25.3987L176.748 25.6704V25.1334H176.485L176.221 25.6704H175.958L175.695 25.1334C175.333 24.9629 174.96 25.0008 174.647 24.8619C174.629 25.9041 174.69 25.9735 173.864 26.2073V25.6704H173.343V26.2073H172.038L171.518 27.5527H170.997V27.281C170.912 27.2684 170.397 27.5211 169.95 27.5527C170.097 26.8958 170.226 26.9589 170.471 26.4725H169.95L169.687 27.281L167.855 27.0095C167.58 27.1484 167.666 27.6158 167.855 27.8179H167.335C167.108 28.0958 166.882 28.1906 166.551 28.3549V27.5463C165.381 27.6474 165.792 27.7169 164.72 27.5463V27.8179C165.02 28.1274 164.824 27.818 164.983 28.3549H163.679C163.611 28.3422 163.593 28.0074 163.158 28.0832V28.3549H162.637C162.552 28.6265 162.466 28.8917 162.374 29.1633C162.08 28.9359 162.337 29.1949 162.111 28.8917C161.817 28.6644 162.074 28.9233 161.847 28.6201C162.19 28.399 162.154 28.4306 162.368 28.0832H161.321C161.088 28.3675 160.861 28.4369 160.537 28.6201V28.8917L159.753 28.6201V28.8917C160.096 29.1128 160.059 29.0812 160.273 29.4286H159.753C159.447 29.0623 159.275 29.0181 158.706 28.8917V29.4286C158.216 29.2391 157.683 29.1633 156.874 29.157C156.586 28.5948 156.452 28.677 156.354 27.8117H155.833V27.2747C155.539 27.5021 155.796 27.2432 155.57 27.5463H155.306V28.0832L154.786 28.3549V29.1633H154.522C154.259 28.8033 154.002 28.4433 153.739 28.0832H153.475C153.132 27.4832 153.616 27.3316 152.955 26.7378C153.04 26.3778 153.126 26.0178 153.218 25.6577C153.218 25.6577 152.881 25.5251 152.955 25.1208H153.218V23.7754C153.218 23.7754 153.377 23.7754 153.481 23.2385C154.204 23.0427 154.063 23.1627 154.265 22.43H154.786V22.7016L155.57 22.43V21.8931L156.874 22.1647C157.064 21.4194 156.948 21.5646 157.658 21.3562V20.2761H157.922L157.658 19.7392H157.922C158.142 19.436 157.891 19.7013 158.185 19.4676V19.196C158.436 18.697 158.448 19.7329 158.448 19.7329L159.232 20.0045V19.7329H158.969C159.055 19.4613 159.14 19.196 159.232 18.9244H160.8V19.196C161.412 19.1076 162.019 19.0191 162.631 18.9244V18.3875H163.679V17.8506C162.784 17.838 161.872 17.6674 161.327 17.579C161.155 17.8506 160.978 18.1159 160.806 18.3875L159.238 18.6591C159.385 18.0021 159.514 18.0653 159.759 17.579H158.712V17.8506H158.975C159.275 18.2738 158.332 18.1032 158.191 18.1222V18.9307H157.928V19.2023C157.493 19.2908 157.058 19.3792 156.623 19.4739C156.709 19.0254 156.795 18.577 156.887 18.1285C156.25 18.2801 156.305 18.4064 155.839 18.6654V18.937C155.319 18.7602 154.792 18.577 154.271 18.4001V18.6717C153.971 18.9812 154.167 18.6717 154.008 19.2086C153.579 19.2907 152.869 19.7708 152.704 19.7455V19.4739H151.92C151.558 19.3981 152.018 19.1202 151.656 19.2023L151.393 19.7392H150.872L151.136 19.2023H150.872C150.572 19.5118 150.872 19.3097 150.352 19.4739V20.0108C149.917 20.0992 149.482 20.1877 149.047 20.2824C148.998 20.2698 148.961 19.8971 148.527 20.0108V20.2824H148.006V20.554C147.749 20.4971 147.7 19.8276 147.486 20.0171C147.057 20.3835 147.773 20.5351 146.702 20.8256V21.6342H146.438V21.0973H146.175C146.089 21.2741 146.003 21.4573 145.912 21.6342H144.864C144.552 21.0467 144.289 20.7435 143.56 20.554V20.8256H142.513L142.249 21.3625L141.465 21.091V21.8994H140.945C140.302 23.03 140.363 22.2152 139.64 22.7079C139.726 22.8848 139.812 23.0679 139.904 23.2448C139.383 23.1564 138.856 23.068 138.336 22.9732C138.311 22.9796 138.201 23.4406 137.815 23.5101V23.2385H136.768L136.504 22.9669V23.2385C135.763 23.7312 135.739 24.0154 134.416 24.047C134.122 23.5859 134.251 23.6807 133.632 23.5101V24.047H133.111V23.7754C132.781 23.6681 132.426 24.5397 132.328 24.5839C131.789 24.8302 131.58 24.3502 131.28 24.3123V24.5839C130.76 24.6723 130.233 24.7608 129.712 24.8555L129.449 24.047C128.726 24.2428 128.867 24.1228 128.665 24.8555C127.881 24.944 127.097 25.0324 126.313 25.1272L126.05 25.6641H124.219V25.9356C123.539 26.1441 123 25.9609 122.388 26.2073C122.241 25.5503 122.112 25.6135 121.867 25.1272C121.573 25.3546 121.83 25.0955 121.604 25.3987C120.685 26.0683 121.542 26.3588 120.299 26.7441V27.0158H118.995L118.731 27.5527C118.15 27.7927 117.996 27.2179 117.684 27.281V27.5527C117.164 27.66 117.353 27.4326 117.163 27.281H116.9V27.8179C116.637 27.7295 116.38 27.6411 116.116 27.5463V27.2747L115.332 27.5463V27.2747H114.285L114.022 26.7378C113.654 26.7378 113.899 26.6557 113.758 27.0095C113.434 26.7 113.66 27.0094 113.495 26.4725H114.542V25.9356H113.495C113.25 25.4493 113.134 25.5124 112.974 24.8555H113.495C113.342 23.7438 113.213 23.567 112.711 22.43C112.368 22.569 112.785 22.5374 112.448 22.7016H111.664V22.9732C112.19 23.1248 111.89 22.9416 112.184 23.2448C111.437 23.2195 111.064 23.1943 110.616 22.9732V23.2448C110.917 23.5543 110.721 23.2449 110.88 23.7818C109.6 23.7818 109.392 24.0913 108.528 24.3186V23.5101H108.265V23.7818H108.001L107.481 23.5101V24.3186H106.697V23.7818H106.433V24.3186H106.697V25.1272C105.827 25.1209 105.515 24.9882 104.866 24.8555V25.3924C104.247 25.3608 104.204 25.3103 103.818 25.1208V25.3924C103.518 25.7019 103.714 25.3924 103.555 25.9293C102.177 25.7714 102.955 25.3482 101.724 25.6577V25.1208C101.307 25.0577 101.393 25.5819 101.203 25.6577C100.223 26.0367 99.4149 25.8093 98.5881 25.6577V26.4663L98.0675 26.1946V26.4663C97.5408 26.9274 98.092 26.8768 97.8042 27.2747H97.5407C96.9099 26.302 95.0971 27.1105 93.8845 27.2747V28.0832C93.3945 27.9443 92.4575 27.1168 92.0533 27.2747V27.5463H91.7899V28.3549C91.006 28.4433 90.222 28.5317 89.4381 28.6264V29.1633H89.7016C89.6158 29.4349 89.53 29.7002 89.4381 29.9718C88.8195 29.9403 88.7767 29.8898 88.3909 29.7003V29.9718H88.1275V29.1633H87.6069V29.9718H87.3436V29.7003H86.2963V29.9718L85.7757 29.7003V29.9718C85.2 30.155 84.9122 30.054 84.4713 30.2435V31.0519C83.1668 31.254 83.179 31.292 82.1194 30.515L81.8561 31.3236H80.8089V31.5952C80.4598 31.6836 80.1107 31.772 79.7616 31.8668V31.3299H79.241C79.0818 32.2774 78.9592 32.5679 77.9364 32.6753V32.4037C78.2365 32.0941 78.0406 32.4037 78.1999 31.8668C77.8508 31.7783 77.5017 31.69 77.1526 31.5952V31.3236C76.6565 31.1657 76.7912 31.4752 76.632 31.5952L75.848 31.3236V31.5952H76.1113V32.6753H75.5909V32.1384C74.8743 32.5679 75.1192 32.8016 74.023 32.9469C73.8331 33.6922 73.9495 33.5469 73.239 33.7554C72.5347 34.6144 71.714 34.406 70.6239 34.2923V33.7554H71.6711C71.5854 33.4838 71.4997 33.2185 71.4078 32.9469C71.0097 33.1048 70.9791 33.1553 70.3606 33.2185C70.3177 32.4858 70.2748 31.5952 69.8399 31.3299V31.0582C70.0298 30.774 70.0421 31.292 70.3606 30.7867H69.8399C69.3745 30.5024 70.3606 30.515 70.3606 30.515C70.2136 29.8581 70.0849 29.9213 69.8399 29.435H70.6239C70.8382 29.7887 70.8077 29.7508 71.1445 29.9718C70.5076 28.557 70.1829 27.2494 72.4489 27.2747C72.749 27.5842 72.449 27.3821 72.9696 27.5463C73.0553 27.0979 73.141 26.6494 73.2329 26.2009H72.7124V26.7378H72.1918L72.4551 25.9293H72.1918C71.9958 26.4409 72.3755 26.2073 71.9285 26.4663C71.5855 26.1504 72.2407 26.0556 71.665 25.9293V26.4663L71.1445 26.1946V26.4663H71.4078C71.2363 26.8263 71.0587 27.1863 70.8872 27.5463H70.6239V26.7378H70.3606V27.0095H69.5766C69.4051 27.2811 69.2275 27.5463 69.056 27.8179H68.5355V28.0895H67.7515V28.3612H67.2309V28.6328C66.1775 29.0181 65.3876 28.2601 64.8792 28.6328C64.1688 29.1065 64.0524 30.1235 63.832 30.2498H61.4801C61.18 29.9403 61.4801 30.1424 60.9595 29.9782V29.4413H60.6962C60.7819 29.8013 60.8676 30.1613 60.9595 30.5214H60.6962C60.2001 30.9635 59.3121 30.8056 58.6078 31.0582V31.3299C58.222 31.4562 57.5851 31.0393 57.5606 31.0582V31.5952H56.256C55.9926 32.2269 55.7354 32.8522 55.472 33.4838H55.2087V32.6753H54.6881C54.633 33.3133 54.5779 33.3448 54.4248 33.7554C54.1308 33.528 54.3881 33.787 54.1615 33.4838C53.8614 33.1743 54.0572 33.4838 53.898 32.9469C54.3451 32.6437 54.2533 32.7764 54.4186 32.1384H53.6347V33.7554C53.1999 33.667 52.7651 33.5786 52.3303 33.4838V33.2122C52.6304 32.9027 52.4343 33.2122 52.5936 32.6753H52.0729L52.3364 32.1384H52.0729C51.7728 32.4479 52.073 32.2457 51.5524 32.41C51.4851 32.9342 51.2951 32.9342 51.289 32.9469C50.8725 34.2733 51.5218 34.6713 49.9846 34.8355V34.2986C49.6232 34.4312 49.4089 34.406 48.9373 34.5702V34.8418C48.6739 34.7534 48.4167 34.665 48.1534 34.5702V34.8418H47.6327L47.8962 35.3788H46.3283V35.6503C46.6284 35.9598 46.4324 35.6503 46.5916 36.1872C46.169 36.1682 44.7604 35.9156 44.7604 35.9156C44.6747 36.0925 44.589 36.2757 44.4971 36.4525C43.7867 36.8505 43.6641 36.522 43.1925 36.4525V36.7242H42.672L42.4086 37.261C41.9737 37.3495 41.539 37.4379 41.1041 37.5326V37.8042C40.755 37.7158 40.406 37.6274 40.0569 37.5326C39.622 37.621 39.1871 37.7095 38.7523 37.8042V38.0759C37.9745 38.3033 37.6929 37.6463 37.1845 37.5389V37.8106C36.8844 38.1201 37.0803 37.8106 36.9211 38.3475H35.8738L35.6105 38.0759C35.4758 38.1391 35.537 38.5559 35.0899 38.6128V38.3411L34.3059 38.0696V38.3411C34.0426 38.4296 33.7855 38.518 33.5221 38.6128V38.0759C33.0506 38.3285 33.1117 38.4485 32.4747 38.6128V39.1497H32.2114V38.3411C30.7416 38.3222 29.6209 37.6969 29.0758 36.7242L29.5963 36.4525C29.6147 36.0735 29.3391 36.5663 29.333 36.181C29.4187 35.7325 29.5044 35.284 29.5963 34.8355H30.1169C29.5412 33.1554 30.76 32.2205 30.9009 30.5214C31.7093 30.3698 32.6463 30.2498 33.7732 30.2498V29.4413H34.5571C34.7347 28.6517 34.845 28.557 35.6044 28.3612V27.8242C37.1294 27.4642 35.7514 27.1421 37.1723 27.8242V27.2873C37.7541 27.1736 38.0664 27.0284 38.4767 26.7505V26.4788C38.9973 26.4283 38.6605 26.8894 38.9974 26.4788C39.2974 26.1693 39.1014 26.4788 39.2607 25.9419H39.7813C40.0814 24.8492 40.3141 25.405 40.8286 24.5965C41.3491 24.7734 41.8759 24.9566 42.3964 25.1334V24.8619H42.6598V23.7818C41.1593 23.8133 40.7427 24.0028 39.524 23.7818C39.377 24.6282 39.2668 24.9124 38.4767 25.1272V24.5902H37.9562V25.3987C37.4234 25.6893 36.9273 26.1946 36.125 26.2073L35.8616 25.9356C34.9184 26.6683 35.9473 27.1926 34.0304 27.281L34.2937 26.2009H33.7732V26.4725H34.0365C34.0549 26.5672 33.5895 27.4452 33.516 27.8179H32.9954V27.281H32.4747V27.8179L32.2114 27.5463C31.6909 27.7232 31.1641 27.9064 30.6435 28.0832C30.5578 28.2601 30.4721 28.4432 30.3802 28.6201C30.0373 28.7717 30.4354 28.418 30.1169 28.3485C29.8536 28.437 29.5963 28.5254 29.333 28.6201V28.3485H28.549V28.0769H28.2857V28.3485C28.2857 28.3485 27.5631 28.1022 27.2385 28.0769C27.067 28.5254 26.8893 28.9738 26.7178 29.4223C26.4912 29.3402 26.1422 28.9044 25.6706 29.1507V29.4223H25.4073V30.2308H25.1438V29.4223H24.8805V30.5024C24.9234 30.8814 25.1561 30.3887 25.1438 30.774L24.8805 31.0457C24.4273 30.812 24.7887 31.014 24.6172 30.5087H24.3537V31.0457L23.0493 31.3172L23.3126 30.7804H23.0493C22.6451 31.2478 22.5777 31.0456 22.002 31.3172V31.5889C21.6162 31.7405 21.0038 31.6583 20.9548 31.3172H20.6913V32.1258H20.428V31.8541H20.1647V32.3911H19.6441V32.928C18.9826 32.7132 18.0273 32.909 16.7718 32.928C16.686 33.5596 16.6003 34.1849 16.5084 34.8166H15.9878V34.2797C15.5897 34.4376 15.5591 34.4881 14.9406 34.5513V35.3598C14.42 35.5366 13.8932 35.7198 13.3727 35.8967V36.1683H12.8522V36.4399C11.5722 36.9389 11.272 36.023 10.5003 37.2484H10.237L10.5003 37.52C10.4146 37.7916 10.3289 38.0569 10.237 38.3285C9.88794 38.2401 9.53872 38.1517 9.18962 38.0569V38.8654C8.26483 38.9665 8.39356 39.2002 7.62188 39.4023V38.8654H7.35842V39.6739C6.83785 39.7623 6.31126 39.8508 5.79068 39.9455L5.52722 40.7541H5.00674C4.92099 41.0257 4.83515 41.2909 4.74328 41.5625H4.47997V40.7541H4.21666L3.95335 41.2909L3.16941 41.0193V40.7477C2.66108 40.6151 2.82025 40.8993 2.64877 41.0193L1.60152 40.7477L1.86482 40.4761V40.2045H1.60152V39.396H1.86482V39.1244H1.34434C1.33821 38.2274 1.20949 37.9053 1.08088 37.2357H0.560391C0.0949341 36.9515 1.08088 36.9642 1.08088 36.9642C1.16662 36.6926 1.25247 36.4273 1.34434 36.1557C2.69171 36.2188 2.63652 36.6673 2.64877 35.0756C3.0836 34.9871 3.51852 34.8987 3.95335 34.8039V33.7238L4.7373 33.4522C5.03739 33.1427 4.73721 33.3449 5.25778 33.1806V33.7175H5.77842V33.1806C6.04177 33.2691 6.29902 33.3575 6.56237 33.4522V32.9153H6.29891L6.56237 32.1068H6.82568V31.8352H7.60962C7.6035 31.4562 7.66463 31.7594 7.34616 31.5636V31.292H8.13011V31.0204H8.39357L8.65688 31.5573C9.52655 31.7341 10.3962 31.9173 11.272 32.0942C11.2965 31.0835 11.5108 30.8561 11.7925 30.2055C12.0559 30.294 12.3131 30.3824 12.5765 30.4772V29.9403H13.3604L13.0971 30.4772H13.3604V30.2055H13.881C14.1689 29.9718 13.9973 29.5549 14.4015 29.397C14.6343 29.637 14.4996 29.8519 14.9222 29.934C15.0936 29.6624 15.2713 29.3971 15.4428 29.1255H16.2266V28.8538H16.4901V27.7737H17.0105V28.3106C18.1252 28.2032 18.1927 27.7547 19.0991 27.5021C19.3073 26.6304 19.5828 26.5736 19.6196 25.3482H21.9714V25.6198L22.7553 25.3482V25.0766C23.1473 24.9692 23.1105 25.5566 23.2758 25.6135L24.0598 25.3419V25.8788H24.3232V25.3419C24.6172 25.1145 24.3599 25.3735 24.5865 25.0703L24.0659 25.3419V24.2617H24.3294V23.1817H25.6338L25.3705 23.9902H26.1544C26.5709 23.4659 27.1036 23.2701 27.4589 22.6448C27.7283 22.8785 27.8203 23.1122 27.9795 23.4533C28.2428 23.2764 28.5001 23.0933 28.7634 22.9164V22.6448H29.2839L29.5472 22.1079C29.7187 22.1963 29.8964 22.2847 30.0679 22.3795C30.417 22.1078 29.7494 21.9247 30.3312 21.8426V22.1142C30.5945 22.2026 30.8518 22.291 31.1151 22.3858V21.8489C30.815 21.5394 31.0111 21.8489 30.8518 21.312C31.5255 21.4383 32.0093 21.5709 32.9402 21.5836C33.3138 21.0088 33.6262 21.0404 34.2448 20.7751L33.9815 19.9666H35.0287V19.695H35.292V19.9666H35.8127V19.4297C37.2948 19.3855 36.7865 19.0128 37.6439 18.6212H38.6911V18.3496C38.9912 18.0401 38.7952 18.3496 38.9544 17.8127H39.7384V18.3496H40.259C40.4734 17.4842 40.5652 17.5664 41.5635 17.5411V18.078C42.1759 17.7874 42.4148 17.459 43.1313 17.2695V16.4609H43.6518V15.9241C45.0298 15.9304 45.7158 15.6083 46.7876 15.3872C46.9775 16.1325 46.8611 15.9873 47.5716 16.1957C47.4858 15.9241 47.4 15.6588 47.3081 15.3872H47.5716C47.8594 15.0082 48.484 14.5977 48.876 14.3071V14.0355H49.6599V14.3071H49.9233V15.1155H50.1867C50.2725 14.0417 50.4561 13.8712 51.4911 13.7701V14.0418C51.8402 14.1681 51.3931 13.8712 51.7545 13.7701C52.8017 13.5933 53.843 13.4101 54.8902 13.2333C54.6269 12.3932 54.7432 12.8227 54.8902 11.8878C55.5272 11.7363 55.4659 11.6099 55.9375 11.351V11.6226H56.2008C56.409 12.0205 55.9375 12.1595 55.9375 12.1595L56.2008 12.6964C56.801 12.1784 56.5316 11.8879 57.5054 11.6163C57.5911 11.3447 57.6768 11.0794 57.7687 10.8078C58.5159 11.1236 58.9998 11.3194 60.1205 11.3446C60.3839 10.8077 60.6411 10.2646 60.9045 9.72767H61.425L61.6884 10.2646L63.5196 9.72767V9.45603H65.3508L65.6141 8.91915H66.1348C66.3001 8.18012 66.4776 8.30645 66.6552 7.57374C67.0043 7.66217 67.3534 7.75056 67.7025 7.8453V7.57374C67.9904 7.33372 67.7577 7.61792 67.966 7.3021H67.7025C67.4453 6.85363 68.0762 7.07475 68.2231 7.03054V6.75889C68.4865 6.84732 68.7437 6.93579 69.0071 7.03054C68.9213 7.2074 68.8355 7.39056 68.7436 7.56742H69.0071C69.8278 6.59468 70.5443 7.56737 71.6222 7.83898C71.7998 7.48526 71.9467 7.54844 72.1427 7.3021L71.8794 6.76522H72.4V6.49365L72.9205 6.22201C72.9573 5.84302 72.8655 6.26619 72.6572 5.95037L72.9205 5.41349C73.8025 5.60298 73.9249 6.00094 74.7517 6.22201V5.41349C75.4683 5.58403 75.3459 5.76719 76.0563 5.95037V5.14192C76.3442 5.23035 76.5707 5.62193 77.1036 5.41349V5.14192H77.8875V4.87028C78.4081 4.42181 78.9348 3.97334 79.4554 3.52488V2.98799H79.9759V3.25956C80.3372 3.33536 79.9269 3.20275 80.2392 2.98799L80.7598 3.25956L80.4965 4.06808C81.9541 4.18178 82.6951 4.54815 83.6322 3.5312C83.1177 3.22801 83.0197 3.15224 82.8482 2.45111L83.6322 2.17947C83.7179 2.35633 83.8038 2.53949 83.8956 2.71635H84.4161V1.63627C84.9857 1.74996 85.1633 1.81311 85.4634 2.17315L87.0313 1.63627L86.7679 1.09938H88.0724V0.5625L88.201 0.625649ZM85.5919 4.66819V5.20507H85.8554V4.66819H85.5919ZM318.412 5.20507V5.74196H318.676V5.20507H318.412ZM86.3759 6.0136V6.55048H86.6394V6.0136H86.3759ZM82.7196 6.55048V7.08736H82.9829V6.55048H82.7196ZM311.878 7.359C312.178 7.66851 311.878 7.46634 312.398 7.63057C312.098 7.32106 312.398 7.52323 311.878 7.359ZM291.238 7.63057C291.538 7.94007 291.238 7.73798 291.759 7.90221C291.459 7.5927 291.759 7.79479 291.238 7.63057ZM70.9607 8.43909C70.9852 9.35498 70.9608 9.41814 71.4814 9.7845V9.51286H71.2179V8.43277H70.9546L70.9607 8.43909ZM287.319 8.71065C287.619 9.02016 287.319 8.81807 287.839 8.9823C287.539 8.67279 287.839 8.87488 287.319 8.71065ZM258.834 8.97597V9.51286H259.097V8.97597H258.834ZM277.128 9.24761L276.864 9.7845C276.864 9.7845 277.624 9.35499 277.385 9.24761H277.122H277.128ZM304.038 9.24761H304.559C304.338 9.5508 304.59 9.28547 304.296 9.51918V9.79082C303.995 9.48131 304.192 9.79083 304.032 9.25394L304.038 9.24761ZM72.7858 9.51918C73.0859 9.82868 72.7859 9.62659 73.3065 9.79082C73.0064 9.48131 73.3064 9.68341 72.7858 9.51918ZM219.38 9.7845V10.3214H219.644V9.7845H219.38ZM75.6643 10.8646V11.1362H75.401C74.9049 11.3699 75.9216 11.4078 75.9216 11.4078C76.1421 11.1046 75.8909 11.3699 76.1849 11.1362C75.8848 10.8267 76.1848 11.0288 75.6643 10.8646ZM276.344 10.8646V11.1362H276.08C275.584 11.3699 276.601 11.4078 276.601 11.4078C276.821 11.1046 276.57 11.3699 276.864 11.1362C276.564 10.8267 276.864 11.0288 276.344 10.8646ZM343.235 10.8646V11.1362H342.971C342.475 11.3699 343.492 11.4078 343.492 11.4078C343.712 11.1046 343.461 11.3699 343.755 11.1362C343.455 10.8267 343.755 11.0288 343.235 10.8646ZM168.162 11.1362V11.6731H168.425V11.1362H168.162ZM103.622 11.4015V11.9384H103.886V11.4015H103.622ZM170.513 11.4015V11.9384H170.777V11.4015H170.513ZM218.854 11.4015C219.295 11.9826 219.374 11.9384 219.374 11.9384C219.564 11.6795 218.921 11.4646 218.854 11.4015ZM285.751 11.4015C286.192 11.9826 286.271 11.9384 286.271 11.9384C286.461 11.6795 285.818 11.4646 285.751 11.4015ZM304.302 11.4015V11.9384H304.565V11.4015H304.302ZM352.642 11.4015C353.083 11.9826 353.162 11.9384 353.162 11.9384C353.352 11.6795 352.709 11.4646 352.642 11.4015ZM65.7305 11.9447H65.21V12.2163H65.4733V12.488H65.7366V11.951L65.7305 11.9447ZM69.1295 13.5617H69.6502C69.5644 13.2017 69.4786 12.8417 69.3867 12.4816H69.1234V13.5617H69.1295ZM269.809 13.5617H270.33L270.066 12.4816H269.803V13.5617H269.809ZM336.7 13.5617H337.221L336.957 12.4816H336.694V13.5617H336.7ZM66.2572 13.0185V14.0986H66.5205V13.0185H66.2572ZM133.148 13.0185V14.0986H133.412V13.0185H133.148ZM266.937 13.0185V14.0986H267.2V13.0185H266.937ZM305.606 13.5617V14.3702H305.87C306.133 13.8839 306.445 13.568 306.917 13.2901V13.0185H306.396C306.102 13.4796 306.231 13.3849 305.612 13.5554L305.606 13.5617ZM333.828 13.0185V14.0986H334.091V13.0185H333.828ZM184.104 13.2901V13.827H184.367V13.2901H184.104ZM250.995 13.827H251.515V13.5554C251.221 13.328 251.478 13.587 251.252 13.2838H250.988V13.8207L250.995 13.827ZM104.927 13.5617V14.3702H105.19V13.5617H104.927ZM171.818 13.5617V14.3702H172.081V13.5617H171.818ZM286.271 14.6355C286.461 15.3808 286.345 15.2356 287.055 15.444C287.221 14.705 287.398 14.8313 287.576 14.0986H287.313C286.982 14.6102 287.049 14.5471 286.265 14.6355H286.271ZM288.623 14.0986V14.6355C289.309 14.6165 289.511 14.5281 289.928 14.3639V14.0923H288.623V14.0986ZM150.658 14.3702V15.1788H150.921V14.9071C151.215 14.6797 150.958 14.9387 151.185 14.6355L150.664 14.3639L150.658 14.3702ZM217.549 14.3702V15.1788H217.812V14.9071C218.106 14.6797 217.849 14.9387 218.076 14.6355L217.555 14.3639L217.549 14.3702ZM284.44 14.3702V15.1788H284.704V14.9071C284.998 14.6797 284.74 14.9387 284.967 14.6355L284.446 14.3639L284.44 14.3702ZM351.337 14.3702V15.1788H351.601V14.9071C351.895 14.6797 351.637 14.9387 351.864 14.6355L351.344 14.3639L351.337 14.3702ZM183.84 14.6355V15.1724H184.104V14.6355H183.84ZM305.086 14.6355C305.527 15.2166 305.606 15.1724 305.606 15.1724C305.796 14.9135 305.153 14.6986 305.086 14.6355ZM166.857 15.1788V15.9872H166.337V16.5241L166.857 16.2525L167.121 15.444C167.414 15.2166 167.157 15.4756 167.384 15.1724H166.863L166.857 15.1788ZM177.832 15.1788V15.7156H178.095V15.1788H177.832ZM244.723 15.1788V15.7156H244.987V15.1788H244.723ZM285.751 15.7156H284.967V16.2525H285.487C285.732 15.7662 285.849 15.8294 286.008 15.1724H285.745V15.7093L285.751 15.7156ZM311.614 15.1788V15.7156H311.878V15.1788H311.614ZM145.17 16.2525V15.7156C144.876 15.943 145.134 15.684 144.907 15.9872H144.644C144.944 16.2967 144.644 16.0946 145.164 16.2589L145.17 16.2525ZM211.278 15.7156V16.5241H211.541C211.841 16.2146 211.541 16.4168 212.062 16.2525V15.7156H211.278ZM248.379 16.2525V15.7156H247.596V15.9872H247.859C248.159 16.2967 247.859 16.0946 248.379 16.2589V16.2525ZM278.953 16.2525V15.7156C278.659 15.943 278.916 15.684 278.689 15.9872H278.426C278.726 16.2967 278.426 16.0946 278.947 16.2589L278.953 16.2525ZM299.598 15.7156V16.2525C299.892 16.0251 299.635 16.2841 299.862 15.9809H300.125C299.825 15.6714 300.125 15.8736 299.604 15.7093L299.598 15.7156ZM336.7 15.9872V16.5241H336.963V15.9872H336.7ZM163.721 17.0611H164.242C164.022 16.7579 164.273 17.0231 163.979 16.7894V16.2525H163.715V17.0611H163.721ZM90.0322 16.5241V17.0611H90.2956V16.5241H90.0322ZM156.93 16.5241V17.3326H157.193V16.5241H156.93ZM290.712 16.5241V17.0611H290.975V16.5241H290.712ZM341.667 16.5241C341.967 16.8336 341.771 16.5242 341.93 17.0611H341.667V16.5241ZM357.609 16.5241V17.0611H357.872V16.5241H357.609ZM53.4509 16.7957V17.3326H53.7144V16.7957H53.4509ZM120.342 16.7957V17.3326H120.605V16.7957H120.342ZM254.13 16.7957V17.3326H254.394V16.7957H254.13ZM321.021 16.7957V17.3326H321.285V16.7957H321.021ZM136.547 17.0611C136.572 17.1179 136.921 18.04 137.068 17.8695V17.5979H137.331C137.105 17.32 136.878 17.2253 136.547 17.0611ZM203.959 18.4128H204.48V17.8758H203.959L204.222 17.3389C203.959 17.2505 203.702 17.1621 203.438 17.0674V17.3389C203.794 17.6548 203.836 17.8316 203.959 18.419V18.4128ZM134.979 17.3326L135.243 18.1411H135.506C135.347 17.4969 135.42 17.6421 134.986 17.3326H134.979ZM201.871 17.3326C201.956 17.6042 202.042 17.8695 202.134 18.1411H202.397C202.238 17.4969 202.312 17.6421 201.877 17.3326H201.871ZM206.838 17.3326H206.317C206.537 17.6358 206.286 17.3706 206.58 17.6043V17.8758H206.844V17.3389L206.838 17.3326ZM310.053 18.4128H310.573V17.8758H310.836C310.751 17.699 310.665 17.5158 310.573 17.3389C310.279 17.5663 310.536 17.3074 310.31 17.6106H310.046V18.419L310.053 18.4128ZM91.8634 17.6043C92.1635 17.9138 91.8634 17.7116 92.384 17.8758C92.0839 17.5663 92.3839 17.7685 91.8634 17.6043ZM136.284 17.6043V18.4128H136.547V17.6043H136.284ZM203.175 17.6043V18.4128H203.438V17.6043H203.175ZM208.142 17.6043H207.621C207.842 17.9075 207.591 17.6421 207.885 17.8758V18.1475H208.148V17.6106L208.142 17.6043ZM238.452 17.6043V18.4128H238.715V17.6043H238.452ZM305.349 17.6043V18.4128H305.612V17.6043H305.349ZM40.9081 17.8695V18.4065H41.1716V17.8695H40.9081ZM53.1876 17.8695V18.4065H53.4509V17.8695H53.1876ZM120.085 17.8695V18.4065H120.348V17.8695H120.085ZM137.588 18.4128V17.8758C137.295 18.1032 137.552 17.8443 137.325 18.1475H137.062C137.362 18.457 137.062 18.2548 137.582 18.419L137.588 18.4128ZM186.976 17.8695V18.4065H187.239V17.8695H186.976ZM207.095 17.8695V19.4865H207.358V17.8695H207.095ZM240.54 17.8695V18.4065H240.804V17.8695H240.54ZM241.588 17.8695V18.4065H241.851V17.8695H241.588ZM253.867 17.8695V18.4065H254.13V17.8695H253.867ZM307.438 17.8695V18.4065H307.701V17.8695H307.438ZM308.485 17.8695V18.4065H308.748V17.8695H308.485ZM320.764 17.8695V18.4065H321.028V17.8695H320.764ZM46.659 18.1411C46.9591 18.4506 46.6589 18.2486 47.1795 18.4128C46.8794 18.1033 47.1796 18.3054 46.659 18.1411ZM113.55 18.1411C113.85 18.4506 113.55 18.2486 114.071 18.4128C113.77 18.1033 114.071 18.3054 113.55 18.1411ZM314.229 18.1411C314.53 18.4506 314.229 18.2486 314.75 18.4128C314.45 18.1033 314.75 18.3054 314.229 18.1411ZM132.101 18.678L132.364 19.4865H132.628C132.468 18.8423 132.542 18.9875 132.107 18.678H132.101ZM198.998 18.678C199.084 18.9496 199.17 19.2149 199.262 19.4865H199.525C199.366 18.8423 199.439 18.9875 199.004 18.678H198.998ZM215.981 18.9497V19.4865H216.245V18.9497H215.981ZM50.8358 20.2951C50.6459 19.5497 50.7624 19.695 50.052 19.4865C50.1377 19.8466 50.2234 20.2066 50.3153 20.5666H51.0992V20.8383C51.4667 20.8888 51.0012 20.6488 51.3626 20.5666H52.4098V19.4865C52.1158 19.2592 52.3731 19.5181 52.1465 19.2149H51.6259V19.4865H51.8893C51.9751 19.9729 51.24 20.194 50.8419 20.2951H50.8358ZM84.8082 19.2212L84.5447 19.7582C84.5447 19.7582 85.3042 19.3286 85.0653 19.2212H84.802H84.8082ZM285.487 19.2212L285.224 19.7582C285.224 19.7582 285.984 19.3286 285.745 19.2212H285.481H285.487ZM40.1242 20.5666H40.6448V20.2951C40.3508 20.0677 40.6081 20.3266 40.3815 20.0234H40.118V20.5603L40.1242 20.5666ZM49.268 20.0298V20.5666C49.562 20.3392 49.3047 20.5983 49.5314 20.2951H49.7947C49.4946 19.9856 49.7948 20.1877 49.2742 20.0234L49.268 20.0298ZM107.015 20.5666H107.536V20.2951C107.242 20.0677 107.499 20.3266 107.273 20.0234H107.009V20.5603L107.015 20.5666ZM116.165 20.0298V20.5666C116.459 20.3392 116.202 20.5983 116.429 20.2951H116.692C116.392 19.9856 116.692 20.1877 116.171 20.0234L116.165 20.0298ZM183.056 20.0298V20.5666C183.35 20.3392 183.093 20.5983 183.32 20.2951H183.583C183.283 19.9856 183.583 20.1877 183.062 20.0234L183.056 20.0298ZM307.701 20.5666H308.221V20.2951C307.927 20.0677 308.185 20.3266 307.958 20.0234H307.695V20.5603L307.701 20.5666ZM316.845 20.0298V20.5666C317.139 20.3392 316.881 20.5983 317.108 20.2951H317.371C317.071 19.9856 317.371 20.1877 316.851 20.0234L316.845 20.0298ZM45.0911 21.6468V21.1098L44.3072 21.3815L44.5705 22.4616H44.3072V22.7332C43.6947 22.8216 43.0884 22.91 42.476 23.0048V23.5417C42.819 23.5923 44.099 23.8701 44.3072 23.8133L44.5705 23.2764L45.3544 23.5481C45.4402 23.0996 45.526 22.6511 45.6179 22.2027H45.8812C46.1813 21.8931 45.8811 22.0952 46.4017 21.931V22.4679H47.7063V21.931H48.2268C48.0553 21.3941 47.8778 20.8509 47.7063 20.314H47.443L47.1795 21.1225C46.8059 21.3941 45.673 21.6088 45.0911 21.6594V21.6468ZM74.617 20.2951V21.1035H74.8803V20.2951H74.617ZM39.6037 20.8383V21.3752H39.867V20.8383H39.6037ZM80.3679 20.8383V21.3752H80.6312V20.8383H80.3679ZM106.495 20.8383V21.3752H106.758V20.8383H106.495ZM173.386 20.8383V21.3752H173.649V20.8383H173.386ZM250.995 20.8383C251.295 21.1478 250.995 20.9456 251.515 21.1098C251.215 20.8003 251.515 21.0025 250.995 20.8383ZM281.047 20.8383V21.3752H281.311V20.8383H281.047ZM307.174 20.8383V21.3752H307.438V20.8383H307.174ZM69.6502 21.1035C69.9503 21.413 69.7543 21.1036 69.9135 21.6405H69.6502V21.1035ZM136.284 21.3752C136.578 21.8363 136.449 21.7415 137.068 21.912C136.841 21.6341 136.615 21.5394 136.284 21.3752ZM166.073 21.912H166.594V21.6405C166.3 21.4131 166.557 21.672 166.33 21.3688H166.067V21.9057L166.073 21.912ZM69.1295 21.6468H69.6502V21.9184C69.1235 21.7668 69.4235 21.95 69.1295 21.6468ZM142.035 21.6468C142.335 21.9563 142.139 21.6468 142.298 22.1837H142.035V21.6468ZM212.325 22.7206H211.804V21.6405H211.541V21.912C211.241 22.2215 211.437 21.912 211.278 22.4489C211.541 22.6258 211.798 22.809 212.062 22.9859C212.282 23.2891 212.031 23.0237 212.325 23.2574V22.7206ZM139.683 21.912V22.4489H139.946V21.912H139.683ZM53.9716 22.4552V22.9922H54.2349V22.4552H53.9716ZM120.869 22.4552V22.9922H121.132V22.4552H120.869ZM178.616 22.7206C178.916 23.0301 178.616 22.828 179.137 22.9922C178.836 22.6827 179.137 22.8848 178.616 22.7206ZM85.8493 23.5291V22.9922C85.5553 23.2196 85.8124 22.9606 85.5858 23.2638H85.3225C85.6226 23.5733 85.3226 23.3712 85.8431 23.5354L85.8493 23.5291ZM219.638 23.5291V22.9922C219.344 23.2196 219.601 22.9606 219.374 23.2638H219.111C219.411 23.5733 219.111 23.3712 219.631 23.5354L219.638 23.5291ZM62.5948 24.0723V24.6092H62.8581V24.0723H62.5948ZM67.825 24.0723V24.6092H68.0884V24.0723H67.825ZM48.2268 24.3376V24.8745H48.4902V24.3376H48.2268ZM69.1295 24.8808C69.1173 25.9736 69.0071 26.043 69.6502 26.4978V26.2262C69.2092 25.6451 69.8522 24.925 70.1707 24.3376H69.9074C69.6134 24.7987 69.742 24.704 69.1234 24.8745L69.1295 24.8808ZM73.8331 24.3376C74.1332 24.6471 73.8331 24.445 74.3537 24.6092C74.0536 24.2997 74.3536 24.5018 73.8331 24.3376ZM87.4172 24.3376C87.3314 24.6092 87.2456 24.8745 87.1537 25.1461H87.4172V24.8745C87.5274 24.7166 87.8458 24.8366 87.6805 24.3376H87.4172ZM115.118 24.3376V24.8745H115.381V24.3376H115.118ZM202.918 24.8808C202.906 25.9736 202.795 26.043 203.438 26.4978V26.2262C202.997 25.6451 203.64 24.925 203.959 24.3376H203.696C203.402 24.7987 203.53 24.704 202.912 24.8745L202.918 24.8808ZM207.621 24.3376C207.921 24.6471 207.621 24.445 208.142 24.6092C207.842 24.2997 208.142 24.5018 207.621 24.3376ZM90.8161 24.6092V25.1461H91.0796V24.6092H90.8161ZM120.085 25.1461H120.605V24.8745C120.311 24.6471 120.569 24.906 120.342 24.6029H120.079V25.1397L120.085 25.1461ZM157.713 24.6092V25.1461H157.977V24.6092H157.713ZM180.968 24.6092C181.268 24.9187 181.072 24.6092 181.231 25.1461H180.968V24.6092ZM123.478 24.8808C123.392 25.0577 123.306 25.2408 123.214 25.4177L123.735 25.6893C123.925 25.3671 123.184 25.4556 123.735 24.8808H123.472H123.478ZM91.3367 25.1461L91.0734 25.9546H91.3367V25.4177H91.6001V25.1461H91.3367ZM158.234 25.1461L157.971 25.6829C157.971 25.6829 158.73 25.2534 158.491 25.1461H158.228H158.234ZM21.0466 26.2262H21.5672V25.9546C21.2733 25.7272 21.5304 25.9861 21.3038 25.6829H21.0405V26.2199L21.0466 26.2262ZM168.162 26.2262H167.641C167.862 26.5294 167.61 26.2641 167.904 26.4978V26.7694H168.168V26.2325L168.162 26.2262ZM29.9332 26.7631V27.3H30.1965V26.7631H29.9332ZM67.5617 26.7631V27.8432H67.825V27.5716H68.0884C68.0027 27.3948 67.9168 27.2115 67.825 27.0347H68.0884C67.7883 26.7252 68.0884 26.9273 67.5678 26.7631H67.5617ZM163.721 26.7631V27.3H163.985V26.7631H163.721ZM203.175 26.7631C202.875 27.0726 203.175 26.8704 202.654 27.0347V27.3063H203.175C203.261 27.1295 203.347 26.9463 203.438 26.7694H203.175V26.7631ZM81.4091 27.5716L81.1456 28.1085C81.1456 28.1085 81.9051 27.679 81.6662 27.5716H81.4029H81.4091ZM71.4814 28.1148V28.6517H71.7447V28.1148H71.4814ZM77.2322 28.1148V28.6517H77.4955V28.1148H77.2322ZM64.9465 28.6517H65.4671C65.2528 29.0054 65.2834 28.9675 64.9465 29.1886V29.4602H64.6832L64.9465 28.6517ZM74.0965 28.6517L73.8331 29.1886C73.8331 29.1886 74.5926 28.7591 74.3537 28.6517H74.0904H74.0965ZM53.9716 29.7318V30.2687H54.2349V29.7318H53.9716ZM33.8527 31.0772V31.6141H34.1162V31.0772H33.8527ZM39.6037 31.3489V32.1573H40.6509V32.6943H41.4349C41.6492 32.3405 41.6185 32.3784 41.9554 32.1573V31.3489C40.8652 31.5447 40.8592 31.4183 39.6037 31.3489ZM18.4376 31.8857C18.7377 32.1952 18.4376 31.9931 18.9582 32.1573C18.6581 31.8478 18.9582 32.05 18.4376 31.8857ZM72.5286 32.1573V32.6943H72.7919V32.1573H72.5286ZM7.71982 36.4652C7.63408 36.7368 7.54838 37.0021 7.45651 37.2737H7.71982V36.7367H7.98313V36.4652H7.71982ZM41.4287 36.7367V37.2737H41.692V36.7367H41.4287Z" fill="#FDE6AD"/>
</svg>
