<svg width="276" height="167" fill="none" xmlns="http://www.w3.org/2000/svg"><path d="M104.906 166.411c3.137-1.359 6.252-3.352 9.112-5.991 3.395-3.131 6.884-4.584 10.615-6.38a956.08 956.08 0 0 0 27.204-13.594c17.396-9.056 34.698-18.746 51.739-29.673 11.606-7.444 89.631-56.157 67.533-92.243-5.034-8.194-12.523-11.414-19.084-13.674-9.375-3.23-18.998-4.242-28.54-4.49-18.229-.478-36.493 2.193-54.54 6.53-36.055 8.662-71.554 24.577-105.704 46.482-16.221 10.407-32.68 21.92-47.301 38.186-5.263 5.854-11.376 13.003-14.284 23.006-3.602 12.395 2.089 21.343 8.282 25.693 16.078 11.293 35.676 10.402 52.73 10.547 7.925.066 17.684-3.131 25.342-.014 2.777 1.135 5.747 1.707 8.475-.093 5.335-3.516-.186-8.176-3.333-8.082-3.059.094-5.803 2.414-8.832 2.489-4.339.108-8.677.16-13.015.136-9.38-.056-18.77-.436-28.132-1.575-7.781-.942-49.288-5.644-35.453-31.693 11.252-21.183 29.967-32.785 45-43.178 16.762-11.587 33.946-21.356 51.315-29.78 31.215-15.141 63.357-25.529 95.713-29.143 15.668-1.749 31.656-2.264 47.221 1.823 6.884 1.81 15.682 4.158 20.982 12.798 6.478 10.542-3.322 24.37-7.918 30.436-12.51 16.44-27.409 27.676-41.797 38.078-15.351 11.1-31.021 20.837-46.788 29.977-15.109 8.762-30.331 16.927-45.606 24.742a1478.132 1478.132 0 0 1-10.429 5.278c-2.983-.506-6.12.445-9.028 1.523-2.476.919-6.242 2.082-7.314 6.854-1.288 5.714 4.12 5.756 5.835 5.02 3.984-1.73-2.838 1.214 0 0v.005Z" fill="#FFB502"/></svg>