<svg width="553" height="64" fill="none" xmlns="http://www.w3.org/2000/svg"><path fill-rule="evenodd" clip-rule="evenodd" d="M136.236.68c1.917.417 2.2 1.485 4.429 1.66.321-.631.802-1.573 2.011-1.243v.418c1.029.388.453-.418 1.209.417h.406v1.66l.803.417v.825h.406c.132.417.264.825.406 1.242h-1.615V7.32c-1.115.3-.897.116-1.209 1.242-1.407.35-1.879 1.048-3.626 1.242.028 1.087.16 1.408.406 2.068-1.379-.107-3.164-.33-3.22-.418v.825h.406c1.275.01-1.209.418-1.209.418-.51-.65-1.076-1.01-2.011-1.243-.605 1.126-1.398 1.767-2.824 2.068v-.825l-.803.417c-.236.63-.311.68-.406 1.66-.849.068-2.436.369-2.823.825-.491.582.359.456-.803 1.242v-1.66h-.406v1.66h-1.209v-.825c-.613.243-.661.32-1.614.418v-.825l-1.209.417c-.265.708-.387 1.3-.406 2.485h-2.012s-.406.66-.802.824v.418h-.406v-.825h-.803v-.418h-.406v.418h-1.209v.417c-.699.64-.85 1.941-1.208 2.902-1.483-.145-2.654-.728-3.627.418-.132.417-.264.824-.406 1.242-1.076.136-2.153.272-3.22.417v.418l-.803.417v.825l-1.208-.417-.406.825H103.6c-.066.038-.472.62-.803.825v.417c-.67-.136-1.341-.272-2.011-.417v-.418c-.236-.029-1.379.7-2.012.825-.274.786-.52 2.533-.802 3.31l-1.209-.418v-.417c-.557-.107.16.301-.406.418-.963.194-1.039-.311-1.615-.418l-.803 1.242h-1.615v.418l-1.208.417v1.242h.802v.418h-.406c-.217.194-3.23 1.048-3.22 0h-.406v.825l-2.011-.417c.019 1.484-.095 2.61-.803 3.31v-.418h-.406v-1.66h-.803c-.028 1.087-.16 1.407-.406 2.067-.84-.252-1.643-.465-2.417.418v.825h-.406v.417l-2.418-.417c-.132.272-.264.553-.406.825-.538.136-1.076.272-1.615.417v.825h-1.614v.825c-.963-.194-1.266-.475-2.012-.825v2.068c-.944.135-1.879.271-2.823.417v.417c-1.18.282-1.322.456-1.615 1.66.567.029-.057-.068.406-.417.633-.476.378 1.019.406 1.242-.69.466-.548.262-.803 1.242.539-.136 1.077-.272 1.615-.417l.406-.825c.076-.01.944.388 1.615.417v-.825c.406.136.803.272 1.209.417l.406-.824c.49-.243 1.18-.224 1.615-.418v-1.66c.953-.164 2.219-.786 3.626-.417v.417h1.615v-.417h.802v-1.66h.803v.825c1.209-.271 2.417-.553 3.626-.825l.406.418c1.105-.796.368-1.417 2.418-1.66.462.476 0 .165.802.417v-1.242l2.012-.417v-.825c1.331.223 1.832.524 2.417 0h.406c.51-.64-.434-.835.406-1.242v.417h.406v-1.242c.888-.146 2.087-.544 3.22 0 .133.271.265.553.407.825h.802v-.825c.812.233.35-.049.803.417l1.209-.417v-.418h1.209c.264-.417.538-.825.802-1.242.671.136 1.341.272 2.012.417v.418c.292.058 1.482-.37 2.823-.418l-.406-1.242h.803v.417h1.614l.407.417v-.417l1.208-.417c-.028-1.087-.16-1.407-.406-2.068h2.418c.462-.475 0-.164.803-.417.311-1.242.245-1.087 1.614-1.242.454.708.255.563 1.209.825.406-1.039.831-2.165 1.615-1.66h.406v1.242h.803c.292-1.145.113-.922 1.208-1.242v-.417l2.418-.417s.179.601.802.417l.406-.825h1.209v-.825l.803.417v.417c.529.204.085-.194.406-.417 1.01-.281.652-.213 1.209-.825h.406v-.825l.802-.417c.473-.524.68-1.204 1.209-1.66v.418h1.209c.132.553.264 1.106.406 1.66h.406c.982-1.69 2.257-1.534 4.429-2.068.123-.03.104-.573.803-.418v.418c.802.272 1.614.553 2.417.825v-.417h.406l-.406-1.243c.265-.136.538-.272.803-.417.557-.864-.18-.583.802-1.243v-.417l2.012-.417c-.217 1.155-.312.039 0 1.242h.406v-.825c.803.136 1.615.272 2.417.417v-.417c.435-.378.076.068.406-.417h-.406v-.417h1.209c.085.98.17 1.028.406 1.66.463-.477.161 0 .406-.826.463-.475.161 0 .406-.825 1.209-.417 2.418-.825 3.627-1.242l.406.417c.132-1.34.368-1.213.802-2.067h.803v.417h.406v-.417h1.615l.406-1.243c1.048.437 1.7.758 3.22.826-.132-.272-.264-.554-.406-.825.274-.457 2.266-.583 2.823-1.243l-.406-.825h.406v-.417c1.068.485 1.521.796 3.221.825v-.418h-.406v-1.242c1.274.272.812.63 1.208.825.472-.03 1.436-.835 2.418-.417l.406.825h.803c-.388 1.368-.378 2.436.406 3.727h-.406c-.463.475-.001.165-.803.417v2.068h-.406c-.104.689.377.718.406.824v2.068c-1.445.058-2.285.592-3.22.825l-.803-.418c-.264.418-.538.825-.803 1.243-.226.097-2.2-.31-2.823-.418-.246 1.087-1.143 2.194-2.418 2.068 0 0-.217-.524-.802-.418l.406.825h-1.615c-.132.69-.265 1.378-.406 2.068l-2.012-.418-.406.825c-1.086.282-1.057-.795-1.208-.825l-1.209.418.406.417c.019.165-.359.932-.406 1.66-1.341.136-2.682.271-4.033.417v-.825c-.953-.087-1-.175-1.614-.417v1.242c-.085.175-2.767 2.087-1.209 2.902h-1.209v-.417c-.387-.767-.406.825-.406.825-.453.35-.056-.049-.406.417 1.133-.388 1.124-.437 2.418 0v.417l1.208-.417-.406-.417.406-1.243c1.889.748 3.136.243 4.429-.825.133-.271.265-.553.406-.825h2.012s-.038-.242.802-.417v1.242h.406v-.825c1.719-.029 2.673-.087 3.627-.825l.406-.825c.67.136 1.341.272 2.011.418-.462-.476 0-.165-.803-.418v-.825c.407.136.803.272 1.209.418v-.825h.803v.825c2.332-.194 4.004-1.543 5.638-2.485v1.243h.802v-.826h2.824v-.417h1.208v-.417c.803.136 1.615.271 2.418.417.34-.466-.047-.058.406-.417v-1.66c.803-.136 1.615-.272 2.417-.417-.132.417-.264.825-.406 1.242h.406v.417c.454-.349.057.049.406-.417.463-.476.161 0 .407-.825.632.03 2.823.417 2.823.417v-.417h.406V23.45c.444-.583 1.813-.427 2.824-.418v.418l2.417-.418v-.417h.803v-.417h1.209l-.406 1.242h.406c.292-1.145.113-.922 1.208-1.242v.825c.406-.136.803-.272 1.209-.418v-.417c.944-.136 1.879-.272 2.824-.417v-.418h1.208l.406-.825c.34-.136 2.654.437 3.221.825v-.825l1.208-.417v-.417c.548-.175-.16.3.406.417.671.136.718-.398.803-.417.737-.156 1.558.543 2.012.825V20.1c1.255-1.174.094-1.756 2.417-2.067v.417h1.209l-.406.825c.519.67.755-.456 1.208 1.243.529-.437.605-.845 1.209-1.243v1.243h.803c-.132-.825-.265-1.66-.406-2.485 1.888-.66 1.36.32 2.417-2.067h.406c-.047.883-.415 1.417-.406 1.66l.406.417c.737-.524.048-.563.406-.825.463-.35.255.378.406.417a59.47 59.47 0 0 0 1.209-.417v-.825c.907-.165 1.549-.68 2.824-.418 0 0 .018.544.802.418v-.418h2.012v.418c-.963.252-.746.136-1.209.825h.803c1.161-1.97 3.097-1.282 5.241-2.068l.406-1.242c1.152 0 1.728.146 2.417.417v-1.66h.406c.265.418.539.826.803 1.243h.406l-.406.825h.406v.417c1.152.855 1.039-.737 1.615 1.243h.802v.825h.803c-.132.417-.264.825-.406 1.242h.406c.274.621.283.69.406 1.66h.803v.825c.623.368.84.611 1.209 1.242 1.303-.728.765-.99 2.417-.417l-.406-1.243h.803v-.825h.802v.418h.407v-.418l1.208.418-.406 1.242h.803c.293-1.145.113-.922 1.209-1.242.604-.728 1.086-.787 2.417-.825v-.825c.803-.272 1.615-.553 2.418-.825.028 1.087.16 1.407.406 2.067.453-.35.056.049.406-.417h.406v-1.243c1.208.136 2.417.272 3.626.418v-.825h.803l.406-1.243a98.37 98.37 0 0 1 1.615.418c.132-.272.264-.554.406-.825l2.011.417v.825c1.029-.64 2.776-2.572 4.032-1.66h.803v.825h.406v-.825c1.936-.106 1.945-.29 3.626 0 .132-.689.265-1.378.406-2.067 1.861-.36 3.268-.36 4.429 0v-.825h2.418v.417h1.208v.418c.406-.136.803-.272 1.209-.418v-.417c-.463-.476-.16 0-.406-.825 1.322.03 1.19.524 2.011 0l.407-.825 2.417.825v.825c1.086 0 2.285.136 2.823-.417v-.825l.803.417v-.417c.803-.136 1.615-.272 2.418-.418.377.253-.142.592.406.418l.406-.825c.51 0 1.029.737 2.011.417v-.417a148.19 148.19 0 0 0 2.012-.418l-.406 1.243h.406c.897 1 .755.582 2.011.417-.047 1.31-.784.776.406 1.242.18 1.03.368 1.524.406 2.903-1.114.3-.897.116-1.209 1.242h-.406v2.067c-.963.194-1.265.476-2.011.825v-1.242h-.406c-.595 2.32-.699.854-2.011 1.66v.417l-1.615 1.242c.132-.417.264-.825.406-1.242h-.406c-.246.66-.359.98-.406 2.067-1.521.33-2.257.806-4.429.825v-.825h-.803v.825h-2.011v.417h.406c-.255.592-.472.311-.803.825h-.803l.407-.825h-.407c-.396.563-.236.816-1.208.825 0 0-.284-.592-.803-.417-.132.272-.265.553-.406.825h-.803l-.406 2.485-1.615.417v-1.66h-.802c-.293 1.33-.548 1.505-2.012 1.66l.406-1.242h-.406c-.151.475-.113 1.475-.802 1.242l-.407-1.242c-.406.136-.802.271-1.208.417v.825c-.642-.252-.954-.369-2.012-.417v-1.243h-.406v1.243c.463.475.161 0 .406.825-.944.136-1.879.271-2.823.417v.825c-1.426.155-1.228.515-2.418.825v1.242c-.982-.233-.887-.436-1.614-.825v.825h-.406v1.243h.406v-.825h.802v.825a143.77 143.77 0 0 0 2.012-.418v1.243h.802V32.96c.671.136 1.341.272 2.012.418.189-.99.462-1.3.802-2.068 1.313.01 2.909-.184 3.627.418h.406c.132-.272.264-.553.406-.825h.802v-.418h.803v-.417l.803.417v-.417h4.032a60.108 60.108 0 0 0-.406-1.242h.803v-.418h.406v.418l1.208.417c.029.582.095.116-.406.417.454.437 0 .185.803.418v-.418h.406v-1.24h.406c.35-.573.302-.718.406-1.66.954-.048 1.02-.126 1.615-.417v.417h.406v.418l-.406.825h1.209v-.825a274.43 274.43 0 0 0 2.823-.418v.418h.406c.454-.33-.151-.544.406-.418v.418h1.615v.825h.406c.133-.825.265-1.66.406-2.485h.803v.825h.406V25.1c.926.039 1.048.35 1.615.417l.406-.825s1.105.388 1.615.417v-.825l.406.418c.538-.136 1.076-.272 1.615-.418v.418h2.011v-1.243h.803v.418h.406v-.418l.803.418.406-1.242c1.067-.408.84.902 1.614.824v-.417c1.766-.427 2.219-1.019 4.033-1.242v.417h-.406c-.765.36.802.418.802.418.34.465-.047.058.406.417v-.825l2.012-.418c.132-.271.264-.553.406-.825l.406.418c2.389.155 2.701-.864 4.032-1.66v1.242h.406c.463-.475 0-.165.803-.417v-.825c.406.136.802.272 1.208.417l.407-.825h1.614v-.417h.406c.246.99.133.767.803 1.242v-1.242c2.116-.35 1.785-.048 3.626.825.208-.97.586-1.553 1.209-2.067.463.475 0 .165.803.417v-.825h1.209v-.825c.67.136 1.34.272 2.011.418v.825h.803v-1.243c.878.058 1.341.418 1.614.418v-.418l1.209-.417c.132.272.265.553.406.825 1.284.388 3.211-.864 4.032-1.243l-.406-1.242h1.209c.246.99.132.767.803 1.242.34.466-.047.059.406.418.028-1.087.16-1.408.406-2.067.803-.136 1.615-.272 2.418-.418.339.466-.048.058.406.418-.312.417-.492.407-.803.825h1.209l-.406-1.243.406-.417c.594.194.642.475 1.614.417v-.417h.407v.417c.538.136 1.076.272 1.614.418v.417c1.643.64 2.389-.301 3.22.417 1.256.854.189.534.803 1.66l.803.417v.825h.406c.368.563.302.728.406 1.66l-1.615-.418c.321 1.34.746 1.427.803 3.31-.454.35-.057-.048-.406.418h-.406c-.123-1.243-.057-1.126-.803-1.66v.417h.406c-.265.553-.538 1.107-.803 1.66-1.048.02-1.388.087-2.011.417v.418c-.69.242-.699-.389-.803-.418-1.445-.378-2.361.524-2.823 1.243h-.406c-.133.825-.265 1.66-.406 2.484h-.803l-.406-.825c-.539.136-1.077.272-1.615.418.085.98.17 1.028.406 1.66-.935-.04-1.029-.33-1.615-.418l-.406.825c-.538.136-1.076.272-1.615.417-.292 1.146-.113.922-1.208 1.243-1.417 1.31-2.607-.525-2.824-.418v.418c-.67.417-1.341.825-2.011 1.242.217 1.446.396.767 0 2.067h.406v-.417h1.615v.825l1.208-.418v-.417l1.209.417v-1.242c.406.136.803.272 1.209.418v-.418l-.406-.417h2.417c.132.417.265.825.406 1.242.265-.136.803-.825.803-.825.406.136.803.272 1.209.418v-.418c.595-.32.67-.31 1.615-.417v-.825h.802v-.825h1.615v.825c.907-.107 1.067-.039 1.615-.418v-.417h.802v-.417h.803v-.417c.718-.592.963-.932 2.011-1.243v1.243h1.615c.133-.69.265-1.379.406-2.068h.803c-.132.418-.264.825-.406 1.243h.406c.576-.592 2.248-1.058 3.22-1.243v-.825a96.197 96.197 0 0 0 1.615-.417v-1.242h.803v1.242h.802v-1.242h2.012c-.132.417-.265.825-.406 1.242h.802c.416-.476.746-.796 1.615-.825v.417h.406l.406-.417c.378-.747.557-.65.803-1.66l1.209-.417v-.418l.406.418 1.208-.418v1.243h.803c.085-.98.17-1.029.406-1.66l.803.418v-.418c.576-.514.623-1.145 1.209-1.66.123.194.821 1.505 1.209 1.243l.406-1.243c1.747-.136 3.494-.271 5.241-.417v.417c-1.115.301-.898.117-1.209 1.243 1.001-.185 1.482-.379 2.823-.418v-.417h-.406v-2.067c.671.136 1.341.272 2.012.417.132-.417.264-.825.406-1.242.462.475.16 0 .406.825l1.208.417v-.417c.831-.466.728-.64 2.012-.825v-1.243c.859-.048 1.379-.427 1.615-.417l.406.417v-.825l2.011-.417v.825c.265-.136.538-.272.803-.417v-.417c.642-.078.5.718.803.824h1.614c.133-.689.265-1.378.407-2.067.67.136 1.34.272 2.011.417l.406-.825h.406v.418c.406-.136.803-.272 1.209-.418v-.825c.462.476.16 0 .406.825h.802c.189-.99.463-1.3.803-2.067 1.341.02 3.626.418 3.626.418v-.418h.803v-.417h1.209c.132-.272.264-.553.406-.825.406.136.802.272 1.208.417v.418h2.012v-.826l1.615-.417v.825h.802c.255 1.136.529.942.803 2.068h1.209c.293 1.145.113.921 1.209 1.242v.825c-2.408.504-2.087 1.66-2.824 3.727h2.418l.406-1.66c1.681-.262 1.142-.407 2.823-.825v.825c1.908-.825 1.624-.825 3.22 0v-.825c.538-.136 1.077-.272 1.615-.417v-.825h.803v.417h.406v-.417c.916-.185 1.086.213 1.615.417v-.417h-.406c-.747-.398.802-.418.802-.418v-.825h.803v-.825c1.265.243 1.794.67 3.22.825l.406-1.242s-.859-.068-.406-.417h.803v.417h2.417v-1.242c1.284.272.793.611 1.209.825.67-.068.746-.816.803-.825.774-.223.557.271.802.417h.406v-.417c.539.136 1.077.271 1.615.417.293-1.145.113-.922 1.209-1.242v.825h1.615c.378-.748.557-.65.802-1.66l1.209.417v-.417c.264-.136.538-.272.803-.417v.825h.802l-.406-1.243c.964-.194 1.266-.475 2.012-.825v1.66c2.096-.563 1.435-.912 4.032-.417V8.55h1.209v.418c-.17.242-.661.058-.406.825h.406c.651-2.563.859-.7 2.417-1.66.916-.563-.028-1.524 2.012-2.067v.417l1.208-.417v.825h.407v-.825c1.426.155 1.227.514 2.417.825v.825c.378.65 2.88.766 1.615 2.067h.802v1.66l-.802.417c-.019.136.378.922.406 1.66h.802c-.188.99-.462 1.3-.802 2.067-.718.039-1.454.437-1.615.418v-.418h-1.615v.418l-2.417.417v.825c-.538.271-1.077.553-1.615.825v-.418h-.406v1.243l-2.824.825c.463.475 0 .165.803.417v.417c.708.34 1.294-.242 1.615-.417v-.417h1.209v-.825c1.879-.097 2.294-.602 3.626-1.243v-.417h2.823v.417h-.406c-.463.476 0 .165-.802.418v.825c1.643-.485.425-.379 1.208-1.243l.803.418v-.418h.803v-.417h1.208c.425-.252 1.001-2.048 2.012-1.66v.418h.803v-1.243c.406.136.802.272 1.208.418v-.418c.803-.136 1.615-.271 2.418-.417v.825h.802c.133.417.265.825.406 1.242h.407v-.825h.802c.236-1.543.236-.95 0-2.484.123.048 3.881.902 4.032.825V13.5h.406v-1.66h.407c.821.758 1.832.117 3.22 0v-.824c.812.233.349-.049.803.417 1.482-.437 1.104-.835 2.011-1.66v-.417c1.02-.65 3.182-.03 4.835 0 .255-1.136.529-.942.802-2.067 1.729-.068 1.379-.262 2.418-.825v1.242h1.615c.085-.98.17-1.029.406-1.66l1.208.418.407-.825h.802v-.418c.406-.136.803-.271 1.209-.417l.406 1.242c1.02-.844.17-1 2.012-1.242v.417c-.463.379-.473.301-.803.825h.406v.418c.84-.457.718-.67 2.011-.825.34.466-.047.058.406.417-.472.786-.34.398-1.208.825v.417h.802c-.132.825-.264 1.66-.406 2.485h.406v.417h-.406v.825c.133.971.265 1.932.406 2.902h-.406c-.34.476-.208.583-.802.825v-.417h-.406c-.265.417-.539.825-.803 1.242h-1.209l-.406.825c-.538.136-1.076.272-1.615.418-.132.417-.264.825-.406 1.242l-1.209.417-.406.825h-.406v-.417c-1.482-.36-1.945 1.407-2.823.417v.825h-.803c.132.554.265 1.107.406 1.66h-.406c-.453.709-.255.563-1.209.825-.037-.087-.576-1.504-.802-1.242v.417l-.803.417c-.132.418-.264.825-.406 1.243h-1.209c-1.35.68-.529 1.097-2.823 1.242.132.417.264.825.406 1.242a100.4 100.4 0 0 0 1.615-.417v1.242h.406v-.417h1.614c1.228-.476 1.795-1.155 3.627-1.242v-.825c1.142-.262 1.067-.767 1.208-.825h1.615v.417l1.615-.417s.179.514.803.417v-.417l1.614.417v-.417c.463-.476.161 0 .406-.825h-.406v.417c-.349.786-.406-.825-.406-.825 1.473.136 2.956.272 4.429.418l.406-.826c.406-.126.737.641 1.615.418v-.418h2.012v.418h.406v-.418h1.614l.406-1.242h.407l-.407-.825h1.209c.463.476 0 .165.803.417v-.825c.963.195 1.265.476 2.011.825v-.417h-.406c-.746-.398.803-.417.803-.417v.417c.463.476.16 0 .406.825.859-.048 1.369-.417 1.615-.417v.417h.802c.114-.738.406-.825.406-.825a59.716 59.716 0 0 0-.406-1.242h.406v-.418c1.143.524 1.662 1.068 3.221 1.243V18.5c2.351-.553.226-1.048 2.417 0v-1.66h.406v.417c.538-.417 1.077-.825 1.615-1.242v1.66h.406c.198-.194-.113-.67.406-.418v.418h.406s-.113 1.485.406.825v-.418c.463-.475.161 0 .406-.825h-1.208c.311-1.242.245-1.087 1.614-1.242v.418l1.209-.418v.418h1.209v.417c1.039.223 2.21-1.291 2.823-1.66l1.209.418v-.418c.671-.446.671-.563 1.615-.825-.132.418-.264.825-.406 1.242h.406v.418c.406-.272.803-.553 1.209-.825v-.417h.802c.728-.33.878-.942 1.209-1.66l2.011 1.66c.246-.816.019-1.01.803-1.243.132.049.123.777.803.825.859-1.174.359-.835 1.615-.417.132-1.34.368-1.213.802-2.068 1.407.224.746.408 2.012 0v2.485h.406c.453-.708.255-.563 1.208-.825.756 1.3 1.493 1.175 1.615 3.31 1.105.048 2.918.572 3.22 0h.406v.417c1.115.272 2.38 1.155 2.824 2.067v1.243h.406c.557.767.935.96 1.209 2.067a59.474 59.474 0 0 1-1.209-.417v.417h.406v1.243h.406c.368.611.359 1.019.406 2.067-.463.476-.16 0-.406.825-1.341.136-2.682.271-4.032.417v-.825c-.538.136-1.077.272-1.615.418v-.826c-.264.136-.538.272-.803.418-.132-.272-.264-.553-.406-.825-.009 0-1.189.563-2.011 0l-.406-1.242c-.472-.34-.689 1.213-1.615.825v-.418c-.463-.475-.16 0-.406-.825l-1.209.418v-.418h-.406c.133-.417.265-.825.406-1.242 0 0-.5-.126-.406-.825 0 0 .671-.185.406-.825h-.406c-.462.475 0 .165-.802.417a74.95 74.95 0 0 1-.406 1.243c-.945-.117-1.001-.136-1.615-.418v-.417c-.68.049-.68.786-.803.825-.916.33-1.624-.515-2.011-.418v.418c-1.37.563-1.672 1.29-3.221 1.66.133-.418.265-.826.407-1.243h-.803c-.595 1.126-1.237 1.893-2.824 2.067v-1.242h-.406c-.311 1.242-.245 1.087-1.614 1.242v-.825c-1.681.942-1.908.845-4.033.418v-.825h-.406c-.028 1.601.066 1.708-1.209 2.067v.418c-.387.766-.406-.825-.406-.825h-.802c-.132.271-.265.553-.406.825a148.19 148.19 0 0 1-2.012-.418v.825h-1.209v.418c-.462.475-.16 0-.406.825l-2.417.417v-.825l-4.032.417v.825h-1.209v.418c-.359.776-.406-.825-.406-.825-1.294.32-.869.62-2.418.825v1.242c-2.379-.252-2.2-1.466-4.834-1.66-.01 1.378-.208 1.873-.407 2.902h-.802c.123-.359.774-.912.406-1.66h-.406v.418c-.463.476-.161 0-.406.825l-2.418.417v.825c-1.35-.252-2.54-1.135-4.032-.417-.264.417-.538.825-.803 1.242-1.095.33-1.246-1.116-1.615-1.242-.727-.253-.292.466-.406.825a59.387 59.387 0 0 1-1.208-.417v1.66h-.803l-.406.824c-.661.204-.746-.407-.803-.417-.973-.175-1.048.417-1.615.417v-.417c-.802-.136-1.615-.272-2.417-.417v.825c-2.673.29-4.032.359-6.044 0l-.406 1.242c-.755-.204-1.926-.175-3.22-.417v-.418c.463-.475.161 0 .406-.825-.963.039-1.001.272-1.615.418v-.418c-.67-.446-.661-.592-1.615-.825V33h-.802a66.55 66.55 0 0 0-.406-1.242l-2.418-.418v-.825c.321.136 1.266.845 2.012.418v-.418c-1.19-.795-.982-1.65-.803-2.902.538-.271.548-.65.803-.824.264.135.538.271.802.417v-1.66h.406c-.132-.825-.264-1.66-.406-2.485a59.387 59.387 0 0 1-1.208-.417c.132.272.264.553.406.825l-1.209-.417v.825h-.406c-.132.272-.264.553-.406.825h-1.209c.095.96.444.252 0 1.242l-.803-.417v.825c-.434.728-.406-.825-.406-.825-.67.136-1.341.272-2.011.417 0 0-.189-.621-.803-.417-.132.271-.264.553-.406.825h-1.208c-.133.417-.265.825-.407 1.242-.623-.34-1.784-1.495-2.823-1.242-.132.271-.265.553-.406.825-.775-.078-.671-.806-.803-.825h-.406v.417h-2.011v.417h.802c-.132.825-.264 1.66-.406 2.485h-.803c-.368-.165-.264-1.262-1.614-.825l-.406.825h-2.012v-.417c-.585-.33-.68-.291-1.615-.418v1.243a59.392 59.392 0 0 1-1.208-.418v.418c-.463.475-.161 0-.406.825-1.502.436-1.086.854-2.012 1.66v.417h-1.208v-1.243h-.803v.825h-2.011v-.417h-.406c-.265.553-.539 1.107-.803 1.66l-.803-.418v.418l-1.209.825v-1.243h-.406v.418l-1.209-.418v.418c-.566-.03.161-.35-.406-.418l-2.417.418v1.242h-.406v-.417c-1.095-.602-1.974.582-2.418.825-.226-1.3-.396-1.738-1.614-2.068.226 1.01.425.913.802 1.66h-.802c-.643.612-2.371.456-3.627.417v-.825h-.802v.825c-.803-.135-1.615-.271-2.418-.417-.198-.98-.378-.98-.802-1.66.547-.485.396.311.802-.417-.529-.34-.472-.291-.802-.825h.802c.085-.98.17-1.029.406-1.66-1.142-.271-1.52-.766-2.011-1.66h1.209c.264-1.106.538-2.212.802-3.309-.529-.34-.472-.291-.802-.825-.86.505-.879.932-2.012 1.242v-.825h-.406v1.243c-1.567.136-1.813.67-2.823 1.242-.085-.98-.17-1.029-.406-1.66-.454.35-.057-.048-.407.418h-.406l.406.417-.406 1.243c-1.709-.301-1.935-.068-4.032 0l.406 1.242h-.406c-.33.543-.283.485-.802.825v-1.66c-2.05.116-1.776.738-4.033.825-.302 1.407-.859 1.912-2.417 2.067v-.825h-.406v.418c-.35.786-.406-.825-.406-.825a59.474 59.474 0 0 1-1.209-.418l.406.825h-.803c-.642.612-.991 1.427-1.208 2.485h-1.209v-.825c-2.588.097-3.239 1.514-5.241 2.067.255-1.135.529-.941.802-2.067-2.578.582-4.409 2.407-6.043-.417 1.813-1.087.859-1.543.406-3.31h-1.615c-.34-.466.047-.058-.406-.417.123-.36.774-.913.406-1.66h-.406v-.417h-1.209c-.68 1.145-1.728.834-2.417 1.66l-.406 1.242h-1.209v.417a64.08 64.08 0 0 0-1.209.417v-.825c-1.256.282-1.832 1.243-2.823 1.66h-1.615v.418a59.474 59.474 0 0 1-1.209-.418v.825l-2.417.417v.418h-1.615c-.132.029-.104.572-.803.417v-.417h-.802v-.418l-2.824-.417c-.293.582-.727 1.252-1.209 1.66v-1.66h-.406v.825a59.382 59.382 0 0 1-1.208-.417c-.189.97-.671 1.28-.803 2.067h.406c.132.417.264.825.406 1.242-2.295.03-2.531-.436-4.032-.825-.595 1.126-1.237 1.893-2.824 2.068v-.825h-.803v1.66h-.802v.417h-2.824v.417h-.802v.417c-.265-.135-.539-.271-.803-.417v.417h-.406c-.595-.494.34-.3-.406-.825.047 1.31.783.777-.406 1.243v-.825c-2.267.281-1.303 1.029-2.418 1.66h-.802c-.133.417-.265.825-.406 1.242h-2.012v-.418c1.001-.757.52-.32.406-1.66h-.803v1.243c-3.503.01-4.117.718-7.252.825v-.825c-.538.272-1.077.553-1.615.825.132.553.265 1.107.406 1.66-1.048-.068-1.379-.088-2.011-.418v-.417l-1.209.417c-.066-.01-.141-.582-.803-.417v.417h-.802v.418h-.803v.417c-.557.379-.708.291-1.615.417v-1.242h-.406v.418h-2.011c-.274.126-.019.533-1.209.825-.132.417-.264.825-.406 1.242h.406c.595.505-1.464.407-1.615.417v-.417c-1.614-.272-3.22-.553-4.835-.825.218-1.155.312-.039 0-1.242-.434.233-.84 1.116-1.614.825v-.418h-.406l.406-.825h-.406c-.463-.475-.001-.165-.803-.417a66.568 66.568 0 0 0-.406-1.242h.802a60.108 60.108 0 0 0-.406-1.243h.406v.418c.35.786.407-.825.407-.825h.406v-.418c-.265-.136-.539-.272-.803-.417.132-.418.264-.825.406-1.242h-.406V36.3h1.209v-.417c-.529-.34-.472-.291-.803-.825.689-.466.548-.262.803-1.242l1.614-.418c.048-.029.624-1.533.803-1.242v.825h1.209c.378-.748.557-.65.802-1.66-.547-.485-.613-.757-.802-1.66h.802v-.825h.803v-.417c-.803.136-1.615.272-2.417.418v-.418c-.529.03-1.011.709-2.012.418v-.418c-.802-.136-1.615-.272-2.417-.417v1.66h-.803v.824c-.406-.271-.802-.553-1.209-.825v-.825l-.406.418c-.462.475-.16 0-.406.825h-1.615v.825c-.802-.136-1.614-.272-2.417-.418-.132.69-.264 1.379-.406 2.068-.982.233-.888.427-1.615.825v-.418c-.415-.359-.557-.718-.803-1.242-.462.476-.16 0-.406.825-.802.136-1.614.272-2.417.417v.825c-.954.088-1.001.175-1.615.418v-.825h.406l-.406-1.243h-.406v.825c-.264-.136-.538-.271-.803-.417-.462.33-.16.98-1.208.825-.133-.272-.265-.553-.406-.825h-.406v.825l-1.209.417c-.208-.058-.246-1.048-.803-.825-.406.554-.803 1.107-1.209 1.66a59.387 59.387 0 0 1-1.208-.417v.825h-.803v.825c-.453-.35-.057.048-.406-.418-.435-.378-.076.068-.406-.417h.406v-.417h-1.209v.417h-.406v-.417h-1.209c-.132-.272-.264-.554-.406-.825-.264.136-.538.271-.802.417-.548.165.17.447-.406.417v-.417h-.803c-.009 1.281.113 2.135.406 2.902h-1.615v.825h-.406v-1.242h-.803l-.406 1.242c-.453-.35-.056.048-.406-.417h-.406l.406-1.243c-.406.136-.802.272-1.209.418v.417h-.802c-.132.272-.264.553-.406.825h-1.615v.417h-.406c-.198-.184.113-.67-.406-.417l-.406.825-2.012.417v-.825h-.406l-.406.825h-.406l-.406-.825c-.557-.262-1.133-.203-1.615-.417-.028 1.602.067 1.708-1.208 2.067v-.825h-.803v.825h-2.011l-.803 2.068h-.803v-.418c-.132-.02-.925.37-1.615.418.227-1.01.425-.913.803-1.66h-.803l-.406 1.242-2.823-.417c-.425.214-.293.932 0 1.242h-.803c-.349.427-.699.573-1.209.825v-1.242c-1.803.155-1.17.262-2.823 0v.417c.463.476.16 0 .406.825h-2.012c-.103-.02-.132-.533-.802-.417v.417h-.803c-.132.418-.264.825-.406 1.243-.453-.35-.057.048-.406-.418-.453-.35-.057.049-.406-.417.529-.34.472-.291.803-.825h-1.615c-.359.437-.708.543-1.209.825v.417l-1.209-.417v.417c.529.34.473.291.803.825h-.803c-.472-.563-.736-.63-1.614-.825v.825c-.756-.29-1.577-.407-2.824-.417-.444-.864-.652-.738-.803-2.067h-.802v-.825c-.454.349-.057-.049-.406.417h-.406v.825l-.803.417v1.243h-.406c-.406-.554-.803-1.107-1.209-1.66h-.406c-.529-.922.217-1.155-.803-2.067.132-.554.265-1.107.406-1.66 0 0-.519-.204-.406-.825h.406v-2.067s.246 0 .406-.825c1.115-.301.898-.117 1.209-1.243h.803v.418l1.209-.418v-.825l2.011.418c.293-1.146.113-.922 1.209-1.243v-1.66h.406l-.406-.824h.406c.34-.466-.047-.059.406-.418v-.417c.387-.767.406.825.406.825l1.209.417v-.417h-.406c.132-.417.264-.825.406-1.242h2.417v.417c.944-.136 1.879-.272 2.824-.417v-.825h1.614v-.825c-1.378-.02-2.785-.282-3.626-.418-.264.418-.538.825-.802 1.243l-2.418.417c.227-1.01.425-.912.803-1.66h-1.615v.418h.406c.463.65-.992.388-1.209.417v1.242h-.406v.418c-.67.136-1.341.271-2.011.417.132-.69.264-1.378.406-2.067-.982.233-.897.427-1.615.825v.417c-.802-.272-1.615-.553-2.417-.825v.417c-.463.476-.161 0-.406.825-.661.126-1.757.864-2.012.825v-.417h-1.209c-.557-.116.152-.543-.406-.417l-.406.825h-.802l.406-.825h-.406c-.463.475 0 .165-.803.417v.825c-.671.136-1.341.272-2.011.417-.076-.02-.133-.592-.803-.417v.417h-.803v.418c-.396-.088-.472-1.116-.803-.825-.661.563.444.796-1.208 1.242v1.242h-.406v-.825h-.406c-.133.272-.265.554-.407.825h-1.614c-.482-.902-.888-1.368-2.012-1.66v.418h-1.614l-.407.825-1.208-.417v1.242h-.803c-.991 1.737-.897.485-2.011 1.242.132.272.264.553.406.825-.803-.136-1.615-.271-2.418-.417-.038.01-.208.718-.803.825v-.417h-1.614l-.406-.418v.418c-1.143.757-1.181 1.193-3.22 1.242-.454-.709-.255-.563-1.209-.825v.825h-.803v-.417c-.51-.165-1.058 1.174-1.209 1.242-.831.378-1.152-.36-1.614-.417v.417c-.803.136-1.615.272-2.418.417l-.406-1.242c-1.114.3-.897.117-1.209 1.242-1.208.136-2.417.272-3.626.418l-.406.825h-2.824v.417c-1.048.32-1.879.039-2.823.417-.227-1.009-.425-.912-.803-1.66-.453.35-.056-.048-.406.418-1.416 1.029-.094 1.475-2.011 2.067v.418h-2.012l-.406.825c-.897.369-1.133-.515-1.614-.418v.418c-.803.165-.51-.185-.803-.418h-.406v.825a59.47 59.47 0 0 1-1.209-.417v-.417l-1.209.417v-.417h-1.614l-.406-.825c-.567 0-.189-.127-.407.417-.5-.476-.151 0-.406-.825h1.615v-.825h-1.615c-.377-.747-.557-.65-.802-1.66h.802c-.236-1.708-.434-1.98-1.208-3.727-.529.214.113.165-.406.418h-1.209v.417c.812.233.349-.049.803.417-1.153-.038-1.729-.077-2.418-.417v.417c.463.476.161 0 .406.825-1.974 0-2.295.476-3.626.825v-1.242h-.406v.417h-.406l-.803-.417v1.242h-1.209v-.825h-.406v.825h.406v1.243c-1.34-.01-1.822-.214-2.823-.418v.825c-.954-.048-1.02-.126-1.615-.417v.417c-.463.476-.161 0-.406.825-2.125-.242-.925-.893-2.824-.417v-.825c-.642-.097-.51.709-.802.825-1.511.582-2.758.233-4.032 0v1.242l-.803-.417v.417c-.812.709.038.631-.406 1.243h-.406c-.973-1.495-3.768-.253-5.638 0v1.242c-.755-.214-2.2-1.485-2.824-1.242v.417h-.406v1.242c-1.208.136-2.417.272-3.626.418v.825h.406c-.132.417-.264.825-.406 1.242-.954-.049-1.02-.126-1.615-.417v.417h-.406v-1.242h-.802v1.242h-.406v-.417h-1.615v.417l-.803-.417v.417c-.888.281-1.331.126-2.011.417v1.243c-2.012.31-1.993.368-3.626-.825l-.406 1.242h-1.615v.417c-.539.136-1.077.272-1.615.418v-.825h-.803c-.245 1.456-.434 1.902-2.011 2.067v-.417c.462-.476.16 0 .406-.825-.538-.136-1.077-.272-1.615-.418v-.417c-.765-.243-.557.233-.803.417l-1.208-.417v.417h.406v1.66h-.803v-.825c-1.105.66-.727 1.02-2.417 1.242-.293 1.146-.114.922-1.209 1.243-1.086 1.32-2.352 1-4.033.825v-.825h1.615a60.108 60.108 0 0 0-.406-1.243c-.614.243-.661.32-1.614.418-.067-1.126-.133-2.495-.803-2.902v-.418c.292-.436.311.36.803-.417h-.803c-.718-.437.803-.417.803-.417-.227-1.01-.426-.913-.803-1.66h1.208c.331.544.284.485.803.825-.982-2.174-1.482-4.183 2.012-4.144.462.475 0 .165.802.417.133-.69.265-1.378.406-2.067h-.802v.825h-.803l.406-1.243h-.406c-.302.786.283.427-.406.825-.529-.485.481-.63-.406-.825v.825l-.803-.417v.417h.406c-.264.554-.538 1.107-.803 1.66h-.406v-1.242h-.405v.417h-1.209c-.265.417-.539.825-.803 1.242h-.803v.418h-1.208v.417h-.803v.417c-1.624.592-2.842-.572-3.626 0-1.096.728-1.275 2.291-1.615 2.485h-3.626c-.463-.476 0-.165-.803-.417v-.825h-.406c.132.553.264 1.106.406 1.66h-.406c-.765.679-2.134.436-3.22.824v.418c-.595.194-1.577-.447-1.615-.418v.825H86.98c-.406.971-.803 1.932-1.21 2.902h-.405v-1.242h-.803c-.085.98-.17 1.029-.406 1.66-.453-.35-.056.048-.406-.418-.463-.475-.16 0-.406-.825.69-.465.548-.262.803-1.242h-1.21v2.485c-.67-.136-1.34-.272-2.01-.418v-.417c.462-.476.16 0 .406-.825h-.803l.406-.825h-.406c-.463.476 0 .165-.803.417-.104.806-.397.806-.406.825-.642 2.038.359 2.65-2.011 2.902v-.825c-.557.204-.888.165-1.615.418v.417a59.453 59.453 0 0 1-1.209-.417v.417h-.803l.407.825h-2.418v.417c.463.476.16 0 .406.825-.651-.029-2.823-.417-2.823-.417-.133.272-.265.553-.406.825-1.096.611-1.285.107-2.012 0v.417h-.803l-.406.825c-.67.136-1.34.272-2.011.418v.417a98.465 98.465 0 0 1-1.615-.417c-.67.136-1.34.272-2.011.417v.417c-1.2.35-1.634-.66-2.418-.825v.418c-.462.475-.16 0-.406.825h-1.615l-.406-.418c-.207.098-.113.738-.802.825v-.417l-1.21-.417v.417c-.405.136-.802.272-1.208.417v-.825c-.727.389-.633.573-1.615.825v.826h-.406v-1.243c-2.266-.029-3.994-.99-4.834-2.485l.802-.417c.028-.582-.396.175-.406-.417.132-.69.264-1.378.406-2.068h.803c-.888-2.581.991-4.018 1.209-6.629a23.63 23.63 0 0 1 4.428-.417v-1.242h1.21c.273-1.213.443-1.36 1.614-1.66v-.825c2.351-.553.227-1.048 2.417 0v-.825c.898-.175 1.38-.398 2.012-.825v-.417c.802-.078.283.63.803 0 .462-.476.16 0 .406-.825h.802c.463-1.68.822-.825 1.615-2.068.803.272 1.615.554 2.418.825v-.417h.406v-1.66c-2.314.049-2.956.34-4.835 0-.227 1.301-.397 1.738-1.615 2.068v-.825h-.803v1.242c-.821.447-1.586 1.223-2.823 1.242l-.407-.417c-1.454 1.126.133 1.931-2.823 2.067l.406-1.66h-.803v.418h.406c.029.145-.689 1.495-.802 2.067h-.803v-.825h-.803v.825l-.406-.417c-.802.272-1.614.553-2.417.825-.132.272-.264.553-.406.825-.529.233.085-.31-.406-.417a52.43 52.43 0 0 0-1.209.417v-.417h-1.209v-.418h-.406v.418s-1.114-.379-1.614-.418c-.265.69-.539 1.379-.803 2.068-.35-.127-.888-.796-1.615-.418v.418h-.406v1.242h-.406v-1.242h-.406v1.66c.066.582.425-.175.406.417l-.406.417c-.699-.36-.142-.049-.406-.825h-.406v.825l-2.012.417.406-.825h-.406c-.623.719-.727.408-1.614.825v.418c-.595.233-1.54.106-1.615-.418h-.407v1.243h-.406v-.418h-.405v.825h-.803v.825c-1.02-.33-2.493-.029-4.43 0-.131.97-.263 1.932-.405 2.902h-.803v-.825c-.614.243-.66.32-1.615.418v1.242c-.802.272-1.614.553-2.417.825v.417h-.803v.418c-1.973.766-2.436-.64-3.626 1.242h-.406l.406.417c-.132.418-.264.825-.406 1.243-.538-.136-1.077-.272-1.615-.418v1.243c-1.426.155-1.227.514-2.417.825v-.825h-.406v1.242c-.803.136-1.615.272-2.418.417l-.406 1.243h-.803c-.132.417-.264.825-.406 1.242h-.406v-1.242H6.74l-.406.825-1.209-.418v-.417c-.783-.204-.538.233-.802.417l-1.615-.417.406-.417v-.418h-.406v-1.242h.406v-.417h-.803c-.009-1.379-.208-1.874-.406-2.902h-.802c-.718-.437.802-.418.802-.418.132-.417.265-.825.406-1.242 2.078.097 1.993.786 2.012-1.66.67-.136 1.34-.272 2.011-.417v-1.66l1.209-.417c.463-.476 0-.165.803-.417v.825h.802v-.825a54.2 54.2 0 0 1 1.21.417v-.825H9.95l.406-1.242h.406v-.418h1.209c-.01-.582.085-.116-.406-.417V47.8h1.208v-.417h.407l.406.825c1.34.272 2.681.553 4.032.825.038-1.553.368-1.902.803-2.902.405.136.802.272 1.208.418v-.825h1.209l-.406.825h.406v-.418h.803c.444-.359.179-1 .802-1.242.36.368.152.699.803.825.265-.418.538-.825.803-1.243h1.208v-.417h.407v-1.66h.802v.825c1.719-.165 1.823-.854 3.22-1.242.322-1.34.746-1.427.803-3.31h3.626v.418l1.209-.418v-.417c.604-.165.548.738.803.825l1.208-.417v.825h.407v-.825c.453-.35.056.048.406-.418l-.803.418v-1.66h.406v-1.66h2.011l-.406 1.243h1.21c.641-.806 1.463-1.107 2.01-2.068.416.36.558.719.803 1.243.406-.272.803-.553 1.209-.825v-.418h.803l.405-.825c.265.136.539.272.803.418.538-.418-.49-.7.406-.825v.417c.406.136.803.272 1.209.417v-.825c-.463-.475-.16 0-.406-.825 1.039.194 1.785.398 3.22.418.576-.883 1.058-.835 2.012-1.243l-.406-1.242h1.614v-.417h.406v.417h.803v-.825c2.285-.068 1.502-.64 2.824-1.242h1.614v-.418c.463-.475.16 0 .406-.825h1.21v.825h.802c.33-1.33.472-1.203 2.011-1.242v.825c.945-.446 1.313-.951 2.418-1.242v-1.243h.802v-.825c2.125.01 3.183-.485 4.835-.825.293 1.146.114.923 1.21 1.243a62.862 62.862 0 0 0-.407-1.243h.406c.444-.582 1.407-1.213 2.011-1.66v-.417h1.21v.418h.405v1.242h.406c.133-1.65.416-1.912 2.012-2.067v.417c.538.194-.151-.262.406-.417 1.614-.272 3.22-.553 4.835-.825-.406-1.291-.227-.631 0-2.068.982-.233.887-.427 1.615-.825v.418h.406c.32.611-.406.825-.406.825l.406.825c.925-.796.51-1.243 2.011-1.66.132-.417.264-.825.406-1.242 1.152.485 1.898.786 3.626.825.406-.825.803-1.66 1.21-2.485h.802l.406.825 2.824-.825v-.417h2.823l.406-.825h.803c.255-1.136.528-.942.802-2.068.539.136 1.077.272 1.615.418v-.418c.444-.368.085.068.406-.417h-.406c-.397-.69.576-.35.803-.417v-.418c.406.136.803.272 1.209.418-.133.271-.265.553-.407.825h.407c1.265-1.495 2.37 0 4.032.417.274-.544.5-.446.802-.825l-.406-.825h.803v-.417l.803-.418c.056-.582-.085.068-.406-.417l.406-.825c1.36.291 1.548.903 2.823 1.242V8.037c1.105.262.916.543 2.012.825V7.62c.444.136.793.737 1.615.417V7.62h1.208v-.418c.803-.689 1.615-1.378 2.418-2.067V4.31h.802v.417c.558.117-.075-.087.406-.417l.803.417-.406 1.243c2.248.174 3.39.737 4.835-.825-.793-.466-.944-.583-1.209-1.66l1.209-.417c.132.271.265.553.406.825h.803v-1.66c.878.175 1.152.272 1.614.825l2.418-.825-.406-.825h2.011V.583l.199.097Zm-4.023 6.212v.825h.406v-.825h-.406Zm358.986.825v.825h.406v-.825h-.406ZM133.422 8.959v.825h.406V8.96h-.406Zm-5.638.825v.825h.406v-.825h-.406Zm353.339 1.242c.462.476 0 .165.802.418-.462-.476 0-.165-.802-.418Zm-31.824.418c.462.475 0 .165.802.417-.462-.476 0-.165-.802-.417Zm-339.646 1.242c.038 1.407 0 1.505.803 2.067v-.417h-.407v-1.66h-.406l.01.01Zm333.602.417c.463.476 0 .165.803.418-.463-.476 0-.165-.803-.418Zm-43.921.408v.825h.406v-.825h-.406Zm28.207.417-.406.825s1.171-.66.803-.825h-.406.009Zm41.494 0h.803c-.34.466.047.059-.406.418v.417c-.463-.476-.161 0-.406-.825l.009-.01Zm-356.568.418c.463.475 0 .165.803.417-.463-.476 0-.165-.803-.417Zm226.034.407v.825h.406v-.825h-.406Zm-221.596 1.66v.417h-.406c-.765.36.803.418.803.418.34-.466-.047-.058.406-.418-.463-.475 0-.165-.803-.417Zm309.428 0v.417h-.406c-.765.36.802.418.802.418.34-.466-.047-.058.406-.418-.462-.475.001-.165-.802-.417Zm103.139 0v.417h-.406c-.765.36.803.418.803.418.34-.466-.048-.058.406-.418-.463-.475 0-.165-.803-.417Zm-269.945.417v.825h.406v-.825h-.406Zm-99.513.408v.825h.406v-.825h-.406Zm103.139 0v.825h.406v-.825h-.406Zm74.536 0c.68.893.803.825.803.825.292-.398-.699-.728-.803-.825Zm103.149 0c.68.893.802.825.802.825.293-.398-.699-.728-.802-.825Zm28.603 0v.825h.406v-.825h-.406Zm74.536 0c.68.893.803.825.803.825.292-.398-.699-.728-.803-.825Zm-442.389.835h-.802v.417h.406v.418h.406v-.826l-.01-.01Zm5.241 2.484h.803c-.132-.553-.264-1.106-.406-1.66h-.406v1.66h.009Zm309.428 0h.803l-.406-1.66h-.407v1.66h.01Zm103.139 0h.803l-.406-1.66h-.406v1.66h.009Zm-416.995-.834v1.66h.406v-1.66h-.406Zm103.139 0v1.66h.406v-1.66h-.406Zm206.288 0v1.66h.406v-1.66h-.406Zm59.625.834V21.8h.406c.406-.748.887-1.233 1.615-1.66v-.417h-.803c-.453.708-.255.563-1.209.825l-.009.01Zm43.514-.834v1.66h.406v-1.66h-.406Zm-230.859.417v.825h.406v-.825h-.406Zm103.139.825h.803v-.417c-.453-.35-.057.048-.406-.418h-.406v.825l.009.01Zm-225.222-.408V21.8h.406v-1.243h-.406Zm103.14 0V21.8h.406v-1.243h-.406Zm176.475 1.65c.293 1.146.114.922 1.209 1.243.255-1.136.529-.942.803-2.068h-.406c-.51.787-.406.69-1.615.825h.009Zm3.626-.825v.825c1.058-.029 1.37-.165 2.012-.417v-.417h-2.012v.01Zm-212.728.418v1.242h.406v-.417c.453-.35.057.048.406-.418l-.803-.417-.009.01Zm103.14 0v1.242h.406v-.417c.453-.35.056.048.406-.418l-.803-.417-.009.01Zm103.139 0v1.242h.406v-.417c.453-.35.056.048.406-.418l-.803-.417-.009.01Zm103.149 0v1.242h.406v-.417c.453-.35.056.048.406-.418l-.803-.417-.009.01Zm-258.264.407v.825h.406v-.825h-.406Zm186.948 0c.68.893.803.825.803.825.292-.398-.699-.728-.803-.825Zm-213.134.835v1.242h-.803v.825l.803-.417.406-1.242c.453-.35.056.048.406-.418h-.803l-.009.01Zm16.922 0v.825h.406v-.825h-.406Zm103.139 0v.825h.406v-.825h-.406Zm63.261.825h-1.209v.825h.803c.377-.747.557-.65.802-1.66h-.406v.825l.01.01Zm39.878-.825v.825h.407v-.825h-.407Zm-256.639 1.65v-.825c-.453.35-.057-.049-.406.417h-.406c.463.476 0 .165.802.418l.01-.01Zm101.931-.825v1.242h.406c.462-.475-.001-.165.802-.417v-.825h-1.208Zm57.207.825v-.825h-1.209v.417h.406c.463.476 0 .165.803.418v-.01Zm47.141 0v-.825c-.454.35-.057-.049-.407.417h-.406c.463.476.001.165.803.418l.01-.01Zm31.833-.825v.825c.453-.35.057.049.406-.417h.406c-.463-.476 0-.165-.803-.418l-.009.01Zm57.207.417v.825h.406v-.825h-.406Zm-266.715 1.65h.802c-.34-.465.047-.058-.406-.417v-.825h-.406v1.242h.01Zm-113.622-.825v.825h.406v-.825h-.406Zm103.149 0v1.243h.406v-1.243h-.406Zm206.279 0v.825h.406v-.825h-.406Zm78.568 0c.462.476.16 0 .406.825h-.406v-.825Zm24.58 0v.825h.406v-.825h-.406Zm-468.98.418v.825h.406v-.825h-.406Zm103.139 0v.825h.406v-.825h-.406Zm206.288 0v.825h.406v-.825h-.406Zm103.139 0v.825h.406v-.825h-.406Zm-284.44.407c.038.088.576 1.505.802 1.243v-.418h.407c-.35-.427-.699-.572-1.209-.825Zm103.942 2.078h.803v-.826h-.803l.406-.825a59.465 59.465 0 0 1-1.209-.417v.417c.548.486.614.758.803 1.66v-.01Zm-106.36-1.66.406 1.242h.406c-.245-.99-.132-.767-.802-1.242h-.01Zm103.14 0c.132.417.264.825.406 1.242h.406c-.246-.99-.132-.767-.803-1.242h-.009Zm7.658 0h-.802c.339.466-.048.058.406.417v.417h.406v-.825l-.01-.01Zm159.147 1.66h.803v-.826h.406c-.132-.271-.264-.553-.406-.825-.453.35-.056-.048-.406.418h-.406v1.242l.009-.01Zm-336.425-1.243c.462.476 0 .165.802.417-.462-.475 0-.165-.802-.417Zm68.492 0v1.243h.406v-1.243h-.406Zm103.139 0v1.243h.406v-1.243h-.406Zm7.659 0h-.803c.34.466-.047.058.406.417v.418h.406v-.825l-.009-.01Zm46.734 0v1.243h.406v-1.243h-.406Zm103.149 0v1.243h.406v-1.243h-.406Zm-407.741.408v.825h.406v-.825h-.406Zm18.934 0v.825h.406v-.825h-.406Zm103.148 0v.825h.406v-.825h-.406Zm26.989.835v-.826c-.453.35-.056-.048-.406.418h-.406c.463.475 0 .165.803.417l.009-.01Zm76.151-.835v.825h.406v-.825h-.406Zm31.021 0v2.484h.406v-2.484h-.406Zm51.569 0v.825h.407v-.825h-.407Zm1.615 0v.825h.406v-.825h-.406Zm18.934 0v.825h.406v-.825h-.406Zm82.6 0v.825h.406v-.825h-.406Zm1.615 0v.825h.406v-.825h-.406Zm18.934 0v.825h.406v-.825h-.406Zm-422.643.417c.463.476 0 .165.803.418-.463-.476 0-.166-.803-.418Zm103.139 0c.463.476 0 .165.803.418-.463-.476 0-.166-.803-.418Zm309.428 0c.462.476 0 .165.803.418-.463-.476-.001-.166-.803-.418Zm-280.824.825.406 1.242h.406c-.245-.99-.132-.766-.802-1.242h-.01Zm103.149 0c.132.417.264.825.406 1.242h.406c-.246-.99-.132-.766-.803-1.242h-.009Zm26.186.418v.824h.406v-.825h-.406ZM78.622 30.904c-.293-1.145-.113-.922-1.208-1.243.132.554.264 1.107.406 1.66h1.209v.417c.566.078-.152-.29.406-.417h1.614v-1.66c-.453-.349-.056.049-.406-.417h-.802v.417h.406c.132.748-1.001 1.087-1.615 1.243h-.01Zm52.382-1.65-.406.825s1.171-.66.803-.825h-.406.009Zm309.428 0-.406.825s1.17-.66.802-.825h-.406.01ZM62.106 31.32h.803v-.417c-.453-.35-.057.048-.406-.418h-.407v.825l.01.01Zm14.099-.825v.825c.453-.35.057.049.406-.417h.406c-.463-.476 0-.165-.803-.418l-.009.01Zm89.041.825h.802v-.417c-.453-.35-.057.048-.406-.418h-.406v.825l.01.01Zm14.108-.825v.825c.453-.35.056.049.406-.417h.406c-.463-.476 0-.165-.803-.418l-.009.01Zm103.139 0v.825c.453-.35.057.049.406-.417h.406c-.463-.476 0-.165-.803-.418l-.009.01Zm192.189.825h.803v-.417c-.453-.35-.057.048-.406-.418h-.406v.825l.009.01Zm14.099-.825v.825c.453-.35.057.049.406-.417h.406c-.462-.476 0-.165-.802-.418l-.01.01ZM69.765 32.981v-.825l-1.21.417.407 1.66h-.406v.417c-.944.136-1.88.272-2.824.418v.825c.53.077 2.503.504 2.824.417l.406-.825 1.209.417c.132-.689.264-1.378.406-2.067h.406c.462-.476 0-.165.802-.418v.825h2.012v-.825h.802c-.264-.824-.538-1.66-.802-2.484h-.406l-.406 1.242c-.576.418-2.323.748-3.22.825v-.02Zm45.526-2.077v1.242h.406v-1.242h-.406Zm-53.987.834v.825h.405v-.825h-.406Zm62.854 0v.825h.406v-.825h-.406Zm40.285 0v.825h.406v-.825h-.406Zm103.139 0v.825h.406v-.825h-.406Zm119.665 0c.463.476 0 .165.803.418-.463-.476 0-.165-.803-.418Zm46.338 0v.825h.406v-.825h-.406Zm40.285 0v.825h.406v-.825h-.406Zm-366.238.408c.463.476.161 0 .406.825h-.406v-.825Zm102.743.417c.453.709.255.563 1.208.825-.349-.427-.698-.572-1.208-.825Zm45.932.825h.802v-.417c-.453-.35-.056.049-.406-.417h-.406v.825l.01.01Zm-149.478-.407h.803v.417c-.812-.233-.349.049-.803-.417Zm112.413 0c.463.475.161 0 .406.825h-.406v-.825Zm108.38 1.65h-.802v-1.66h-.406v.417c-.463.476-.161 0-.406.825.406.272.802.554 1.208.825.34.466-.047.059.406.418v-.825Zm-112.006-1.243v.825h.406v-.825h-.406Zm-132.159.835v.825h.406v-.825h-.406Zm103.149 0v.825h.406v-.825h-.406Zm89.041.408c.462.475 0 .165.802.417-.463-.475 0-.165-.802-.417ZM132.61 35.873v-.825c-.454.35-.057-.048-.407.417h-.406c.463.476 0 .165.803.418l.01-.01Zm206.288 0v-.825c-.454.35-.057-.048-.406.417h-.407c.463.476 0 .165.803.418l.01-.01Zm-242.145.835v.825h.406v-.825h-.406Zm8.065 0v.825h.406v-.825h-.406Zm-30.219.407v.825h.407v-.825h-.407Zm32.23.835c-.018 1.68-.188 1.786.803 2.485v-.418c-.68-.892.312-1.999.803-2.902h-.406c-.454.709-.255.563-1.209.825l.009.01Zm7.253-.835c.462.476 0 .165.803.418-.463-.476-.001-.165-.803-.418Zm20.945 0a66.55 66.55 0 0 1-.406 1.243h.406v-.417c.17-.243.661-.059.406-.826h-.406Zm42.712 0v.825h.406v-.825h-.406Zm135.378.835c-.018 1.68-.188 1.786.803 2.485v-.418c-.68-.892.312-1.999.803-2.902h-.406c-.454.709-.255.563-1.209.825l.009.01Zm7.253-.835c.463.476 0 .165.803.418-.463-.476-.001-.165-.803-.418Zm-180.102.418v.825h.406v-.825h-.406Zm45.129.825h.803v-.417c-.453-.35-.057.048-.406-.418h-.406v.825l.009.01Zm58.02-.825v.825h.406v-.825h-.406Zm35.856 0c.463.475.16 0 .406.825h-.406v-.825Zm-88.644.417c-.132.272-.264.553-.406.825l.802.417c.293-.495-.849-.359 0-1.242h-.406.01Zm-49.558.408-.406 1.242h.406v-.825h.406v-.417h-.406Zm103.148 0-.406.825s1.171-.66.803-.825h-.406.009ZM32.69 40.018h.803V39.6c-.453-.35-.057.049-.406-.417h-.406v.825l.01.01Zm226.837 0h-.803c.34.465-.047.058.406.417v.417h.406v-.825l-.009-.01Zm-213.135.825v.824h.406v-.825h-.406Zm58.02 0v1.66h.406v-.418h.406c-.132-.272-.264-.553-.406-.825h.406c-.463-.476 0-.165-.803-.417h-.009Zm148.269 0v.824h.406v-.825h-.406Zm60.833 0c-.463.475 0 .164-.803.417v.417h.803c.132-.272.265-.553.406-.825h-.406v-.01Zm-187.751 1.242-.406.825s1.171-.66.803-.825h-.406.009Zm-15.307.834v.826h.406v-.825h-.406Zm8.867 0v.826h.406v-.825h-.406Zm-18.943.826h.802c-.33.543-.283.485-.802.825v.417h-.406l.406-1.242Zm14.108 0-.406.825s1.171-.66.803-.825h-.406.009Zm-31.03 1.66v.824h.405v-.825h-.406ZM52.435 47.47v.825h.406v-.825h-.406Zm8.867.418v1.242h1.615v.825h1.209c.33-.543.283-.485.803-.825v-1.24c-1.681.3-1.69.107-3.627 0Zm-32.635.825c.462.475 0 .165.802.417-.462-.475 0-.165-.802-.417Zm83.402.417v.825h.406v-.825h-.406Zm-99.928 6.62c-.132.417-.265.825-.406 1.242h.406v-.825h.406v-.417h-.406Zm51.976.417v.825h.406v-.825h-.406Z" fill="#FDE6AD"/></svg>