<svg width="85" height="261" viewBox="0 0 85 261" fill="none" xmlns="http://www.w3.org/2000/svg">
<path d="M72.6562 247.937C64.599 247.006 71.1198 239.687 67.4783 232.598C67.4783 232.598 63.0142 229.127 61.7681 232.175C60.8245 234.498 59.3969 243.449 58.8525 249.582C63.5102 251.675 68.9059 250.937 72.6441 247.937H72.6562Z" fill="#FFDBB0"/>
<path d="M72.7168 247.949C72.7168 247.949 72.6806 247.949 72.6564 247.949C68.906 250.961 63.5224 251.687 58.8647 249.594C58.6954 251.506 58.6107 253.151 58.6591 254.24C58.8526 258.788 73.6363 259.55 80.3022 256.03C87.9602 251.99 86.0125 249.413 72.7168 247.949Z" fill="#003F67"/>
<path d="M15.5783 244.55C16.4131 240.449 16.2316 234.945 16.3889 230.965C20.4296 228.158 23.3694 228.267 23.3936 236.469C23.4178 244.658 24.2404 248.953 29.0554 251.759C29.1038 251.784 29.1401 251.808 29.1885 251.832C24.1799 251.384 18.9778 248.566 15.5783 244.55Z" fill="#FFDBB0"/>
<path d="M15.5756 244.55C18.9751 248.566 24.1772 251.385 29.1857 251.832C33.9402 254.614 37.9688 258.002 34.6661 259.502C31.3271 261.014 26.7662 260.518 22.5924 258.074C18.4186 255.631 12.3333 251.796 14.4384 247.937C14.9465 247.005 15.3094 245.844 15.5756 244.55Z" fill="#003F67"/>
<path d="M62.3388 106.476C62.6412 108.206 66.0045 153.932 67.311 158.408C68.6176 162.884 72.7793 241.369 72.7793 242.724C72.7793 245.978 68.1216 245.482 64.1172 245.796C59.5926 246.147 56.3624 245.457 55.5761 242.857C53.6041 236.3 42.353 155.154 42.2079 152.565C42.0627 149.977 41.0465 147.364 40.6109 152.505C40.1754 157.646 28.8638 236.107 28.3678 242.578C28.1017 246.002 24.8715 245.228 21.5688 244.707C17.1651 244.03 13.439 243.679 13.2938 239.373C13.0277 231.498 12.6647 181.38 12.8946 177.086C13.1728 171.896 16.282 108.847 17.8668 106.125C19.4396 103.416 62.3509 106.464 62.3509 106.464L62.3388 106.476Z" fill="#A2A2A2"/>
<path d="M35.9766 30.1084C36.2549 30.1084 39.9206 30.5318 40.2714 30.5076C40.3924 31.1366 40.7553 33.4592 41.082 34.2455C41.4086 35.0318 43.7798 39.5198 44.1064 39.919C39.9206 43.4755 34.2708 42.7739 31.6698 39.3262C32.4199 38.9633 34.8031 34.8988 35.1782 33.3867C35.4443 32.2858 35.9645 30.5318 35.9766 30.1084Z" fill="#FFDBB0"/>
<path d="M49.72 37.9955C46.8407 37.2697 43.5985 37.0761 42.6911 38.2253C41.2031 40.1246 33.7991 38.9995 32.541 38.3826C31.2828 37.7536 24.9677 38.4431 23.0441 39.556C22.6812 39.7012 22.1367 39.9915 21.5076 40.4028C21.06 50.7093 22.3787 61.0885 20.4672 71.3467C20.6003 72.2056 20.3584 74.7943 20.1527 76.3911C19.826 78.9798 18.1928 100.742 17.0919 105.194C15.9789 109.633 15.9426 110.928 17.721 110.529C19.5115 110.117 20.8423 108.992 23.5643 108.968C26.2742 108.944 44.9776 110.698 47.9416 110.504C50.8935 110.299 61.576 111.629 61.6244 110.335C61.6607 109.331 60.1484 89.1412 58.3579 78.7621C55.9262 64.7418 52.3936 51.2174 49.7321 38.0197L49.72 37.9955Z" fill="white"/>
<path d="M62.4228 89.4915C64.4794 87.9914 68.5806 88.2455 75.4039 81.5922C83.086 74.1163 81.0778 64.088 76.287 57.6524C72.9964 53.2249 67.0321 46.6442 56.8214 40.2812C54.5107 38.8417 47.2883 35.0312 42.7153 37.4869C41.8321 37.9586 48.2682 62.9629 48.7279 68.2251C48.0021 96.7133 54.2809 122.008 55.7931 125.661C58.2853 129.194 58.1522 134.347 60.4871 134.903C62.822 135.46 69.2823 135.399 70.3227 133.681C71.6777 131.419 72.4883 120.447 67.7701 109.524C65.169 103.5 60.717 90.7495 62.4228 89.4915Z" fill="#F2A096"/>
<path d="M31.3909 38.0925C30.1327 37.4635 23.8176 38.153 21.8941 39.2659C20.3939 39.8466 16.0992 42.9434 13.365 46.391C10.643 49.8265 5.25944 59.5403 3.61412 64.4033C-6.7296 95.0931 16.7888 89.0689 16.1476 94.2221C15.5064 99.5206 14.8168 103.21 14.2603 105.46C13.1473 109.9 9.54209 135.763 11.8286 140.432C15.0587 147.037 21.1561 138.267 23.866 138.255C25.9106 138.243 33.7379 137.142 37.8028 129.098C38.444 117.521 31.9595 93.956 34.0646 74.7219C35.2986 63.4597 31.7539 38.274 31.3788 38.0804L31.3909 38.0925Z" fill="#F2A096"/>
<path d="M25.0974 25.9591C22.5689 18.8219 22.4601 9.43468 31.3762 6.89433C40.2924 4.35398 45.6639 12.8339 47.285 20.2251C47.5874 19.6928 48.9787 19.1848 49.3174 20.3824C49.4747 20.9388 49.4989 22.0517 49.0392 23.0558C48.5069 24.2171 47.4302 24.5679 46.9946 24.9308C47.0309 26.8905 46.3535 28.8623 45.676 30.072C44.7081 31.8018 41.9861 34.6567 39.0947 35.564C36.784 36.2898 33.324 35.068 31.352 33.8825C29.501 32.7696 28.2429 31.5478 27.2024 30.3018C26.6459 30.2172 25.6297 30.3865 24.5409 29.7212C23.6094 29.1405 22.5085 27.1204 22.8956 26.4792C23.4763 25.5115 24.7829 25.7776 25.0732 25.947L25.0974 25.9591Z" fill="#FFDBB0"/>
<path d="M27.6255 3.96678C28.0852 3.03532 30.7467 0.736906 34.0858 0.930457C37.4248 1.12401 40.0984 2.03128 41.0784 3.48291C42.0583 4.94663 43.8851 5.89019 45.7361 7.36601C50.0913 10.8136 49.1235 14.4064 48.5791 16.5959C48.0468 18.7855 47.7685 20.2492 47.1636 20.4307C46.5587 20.6121 47.091 19.4387 46.4256 19.2331C45.7603 19.0274 44.986 17.0435 43.9577 17.7814C42.6148 18.7371 38.4652 18.9065 31.5452 14.4427C29.9241 13.3903 28.5691 12.7612 27.9642 13.6322C27.6376 14.0919 27.3593 15.8097 27.3109 17.3943C27.2625 18.9911 25.9197 21.6283 25.097 22.3299C24.2864 23.0315 24.7099 23.3823 24.9155 24.3017C25.1212 25.221 26.089 26.4912 23.9114 24.9549C20.4151 22.4871 19.0964 19.6444 18.6488 16.5839C18.2012 13.5112 20.7901 7.39021 23.2097 6.55552C25.6172 5.72083 27.3593 5.21276 27.6134 3.96678H27.6255Z" fill="#003F67"/>
<path d="M39.0985 43.6563C39.0985 42.8821 39.5461 40.0635 38.663 39.9546C37.7919 39.8457 37.0055 40.3175 36.8967 40.7046C36.7878 41.0917 36.195 42.0595 35.4328 41.2611C34.6706 40.4748 33.4366 38.7812 32.868 39.2046C32.1543 39.7248 31.997 39.0473 30.9687 39.5917C30.5815 39.7974 31.005 40.7651 30.3154 40.9466C29.6258 41.128 27.8958 41.878 28.3676 42.6643C28.8394 43.4506 27.7264 43.5837 27.6055 44.4547C27.4845 45.3256 28.5612 45.6402 30.0129 46.4386C31.4647 47.237 30.6662 48.2773 33.0011 48.6281C34.4529 48.8458 35.9167 49.0636 37.1991 47.4305C38.4815 45.7974 39.1953 44.4426 39.0985 43.6684V43.6563Z" fill="#FFDBB0"/>
<path d="M48.416 91.524C49.8194 88.657 52.7955 86.0804 55.8805 87.1086C58.9654 88.1247 60.5382 88.8384 61.2277 91.3667C61.9173 93.895 61.506 96.0361 60.3204 98.0442C59.1227 100.04 58.6509 101.371 58.917 103.827C59.1832 106.282 59.1106 105.871 59.2921 108.617C59.4614 111.363 58.0218 113.129 57.4532 114.327C56.9814 115.331 57.6468 116.105 58.3726 117.363C59.534 119.395 53.6907 121.053 51.247 121.307C47.7628 121.669 44.7625 120.29 46.9643 117.641C48.6459 115.609 49.0209 116.613 50.3638 115.548C51.7188 114.496 51.4889 111.823 50.7388 110.698C50.0009 109.573 48.5612 105.085 48.9242 103.089C49.154 101.806 49.396 100.923 48.7306 98.5402C48.0652 96.1571 47.4603 93.3385 48.4039 91.5119L48.416 91.524Z" fill="#FFDBB0"/>
<path d="M41.398 76.5485C44.4709 76.0647 48.1365 77.2986 50.6045 79.2583C53.0725 81.218 52.637 84.5567 51.9716 86.5527C51.161 88.96 48.1123 91.0769 46.1162 91.2342C42.6562 91.5003 40.5269 87.1696 39.9462 89.4922C39.3655 91.8149 39.4381 91.4277 38.6881 93.9923C37.9259 96.5568 36.0265 97.6818 35.1071 98.5891C34.3449 99.3391 34.6837 100.271 34.9256 101.674C35.3127 103.912 29.421 103.476 27.1103 102.896C23.8197 102.061 21.5332 99.7988 24.4246 98.1173C26.6385 96.8351 26.6385 97.8633 28.2234 97.3552C29.8082 96.8472 30.4978 94.331 30.1953 93.0608C29.8929 91.7907 30.0864 87.218 31.0906 85.5124C31.7317 84.4236 32.252 83.6978 32.4334 81.3026C32.6149 78.9074 38.7002 77.0445 41.4101 76.5607L41.398 76.5485Z" fill="#FFDBB0"/>
<path d="M69.9996 76.5478C69.4915 72.6164 65.2209 74.7212 60.3696 74.7454C53.7642 74.7817 50.2679 74.6123 47.9209 73.9833C45.5739 73.3543 41.2549 72.9188 41.1944 74.564C41.1339 76.2091 38.8595 76.2333 36.1617 76.9592C33.4518 77.685 31.7581 78.8584 31.0685 80.8906C30.3789 82.9229 27.3181 87.3504 29.9676 88.4754C32.6049 89.6004 37.4199 96.169 39.5612 93.9795C41.7025 91.7899 42.4284 91.7174 43.9528 92.177C46.6022 92.9875 47.1829 94.1489 46.9893 96.5198C46.6869 100.221 45.7916 102.653 48.9492 103.088C52.0947 103.524 58.6638 104.383 60.2124 101.758C61.7488 99.1328 62.0634 96.2537 64.0111 93.8585C65.9589 91.4512 67.9913 89.8424 69.4068 87.2536C71.6207 83.2132 70.3262 79.0398 70.0117 76.5478H69.9996Z" fill="#003F67"/>
<path d="M67.0829 46.7411C70.4703 47.2613 74.5473 51.6041 72.2245 55.4751C69.2363 60.459 69.3936 65.455 69.6355 70.318C69.8412 74.3704 71.922 75.6043 71.4502 78.931C71.2566 80.2979 59.2071 80.4552 56.9085 79.8624C51.6701 78.5197 43.6734 78.5923 38.9552 78.5923C35.1443 78.5923 32.1925 76.4874 35.3016 72.1325C37.8543 68.5518 39.923 66.4228 39.9714 63.5921C40.0198 60.7614 40.3465 56.8904 37.8906 55.4509C35.2169 53.8904 33.7894 53.3581 32.3618 51.4468C31.019 49.6323 34.8782 47.5637 36.1606 46.1242C37.4913 44.6241 38.0358 42.2411 41.8708 44.3943C44.1331 45.6645 46.2019 46.4145 49.0812 47.4911C51.9605 48.5677 50.17 48.8944 54.126 47.9266C58.082 46.9589 64.5423 46.6927 67.095 46.729L67.0829 46.7411Z" fill="#A2A2A2"/>
<path d="M58.3725 47.818C54.985 49.4268 51.5734 49.1123 49.42 47.7333C47.2666 46.3542 45.6696 44.4187 44.5566 42.0961C43.8429 39.955 43.9034 37.4267 44.1695 36.4952C44.4115 35.6364 44.9075 34.7412 45.5245 33.9912C46.9883 32.2371 45.5729 31.3783 49.4563 28.4387C50.6419 27.5435 56.7513 23.8903 62.7519 27.3016C68.0266 30.3016 65.4618 44.4308 58.3725 47.8059V47.818Z" fill="#FFDBB0"/>
<path d="M50.3152 26.0676C50.9927 25.3176 53.5211 24.1684 55.7713 24.5797C58.5418 25.0878 59.5459 23.5152 62.2316 24.5797C65.9699 26.0797 68.7282 28.9346 69.4541 30.362C71.0026 33.4225 70.3493 35.1766 70.4582 37.0395C70.6518 40.4266 68.1596 53.2857 54.743 48.9066C53.1219 48.3743 52.0815 48.4832 53.3034 45.5315C54.9366 44.0315 57.453 42.6404 57.5497 41.6847C57.6465 40.7291 56.3883 40.2815 55.4931 40.3661C53.2308 40.596 53.8841 40.1484 54.005 37.0758C54.1502 33.3378 46.3713 30.0838 50.3273 26.0434L50.3152 26.0676Z" fill="#003F67"/>
<path d="M69.8138 76.8625C67.6241 77.7818 66.7288 78.0722 65.7247 77.7455C64.7085 77.4189 62.2163 76.8746 60.7161 76.5842C59.2039 76.2939 58.3691 76.7778 58.4538 77.6246C58.5385 78.4714 59.8088 78.4714 61.8171 79.4512C63.8253 80.4311 62.6639 80.6488 61.8291 81.5319C61.0065 82.4271 56.2157 85.3787 55.381 86.4311C54.5462 87.4835 53.3727 88.5723 54.1349 89.4795C54.897 90.3868 56.3972 88.4392 57.2561 88.6086C58.1151 88.7779 57.8005 89.6368 57.9094 90.9796C58.0183 92.3223 58.7926 91.9594 60.1717 91.778C61.5509 91.5965 61.5993 91.2336 62.6276 91.8143C63.6559 92.3949 63.9463 92.1651 64.8536 91.5602C65.761 90.9554 67.0796 88.3424 68.362 86.2013C69.6565 84.0601 69.5839 83.2133 71.7494 82.7658C71.8825 82.7416 72.8745 82.5722 73.8908 81.9795C76.141 80.044 73.8908 77.3826 71.8099 76.4512C70.9994 76.4875 70.1525 76.7294 69.8017 76.8746L69.8138 76.8625Z" fill="#FFDBB0"/>
<path d="M25.1736 86.8423C29.7467 86.2616 34.8278 84.1326 36.4852 84.2535C38.1305 84.3745 42.6309 84.3624 45.5102 84.3382C46.6837 84.3382 48.1839 83.3462 51.0995 81.2898C52.394 80.3825 49.805 79.947 50.7245 78.3381C52.2851 75.6405 50.18 75.8341 50.047 74.9026C49.8171 73.2816 49.7929 72.8219 47.7121 73.5236C45.6312 74.2373 44.3851 74.9268 43.5383 75.4591C42.6914 75.9913 41.2397 76.4994 41.9051 74.7937C42.5705 73.076 42.8366 72.0961 42.1833 70.9711C41.53 69.8461 40.5864 70.076 40.0057 72.2292C38.7959 74.5881 35.8924 76.6083 34.9004 77.7696C33.9083 78.9309 31.888 78.6043 28.6941 78.9672C25.4882 79.3301 20.6127 87.4108 25.1857 86.8302L25.1736 86.8423Z" fill="#FFDBB0"/>
<path d="M53.1841 24.6286C57.2006 20.3947 64.5077 20.7939 69.5042 25.5238C74.5127 30.2537 75.3112 37.536 71.3068 41.7699C71.2463 41.8425 71.1737 41.903 71.1132 41.9635L52.8937 24.9552C52.9905 24.8464 53.0873 24.7254 53.1841 24.6286Z" fill="#E2C2BC"/>
<path d="M49.8046 22.9475C48.4496 24.387 52.575 30.496 59.0232 36.5928C65.4714 42.6897 71.7986 46.476 73.1536 45.0485C74.5085 43.6211 70.3832 37.5001 63.935 31.4032C57.4868 25.3064 51.1596 21.5201 49.8046 22.9475Z" fill="#E2C2BC"/>
<path d="M68.6803 24.9674C68.3536 25.3182 68.402 25.8989 68.8012 26.2739C69.2005 26.6489 69.7812 26.6731 70.1078 26.3223C70.4345 25.9715 70.3861 25.3908 69.9869 25.0158C69.5876 24.6408 69.0069 24.6166 68.6803 24.9674Z" fill="#E2C2BC"/>
<path d="M61.2869 34.1368C61.4563 34.2941 61.6257 34.4513 61.7829 34.5965C63.9606 36.5683 67.5052 39.2417 69.695 40.282C69.8039 40.3304 69.9248 40.282 69.9611 40.1974C69.9974 40.1006 69.9369 39.9675 69.8281 39.9191C67.6867 38.903 64.1783 36.2659 62.037 34.3183C59.448 31.9594 56.3752 28.3424 55.0323 26.0561C54.9718 25.9472 54.8387 25.9109 54.7419 25.9472C54.6452 25.9956 54.621 26.1166 54.6815 26.2133C55.9759 28.4271 58.7464 31.7295 61.2869 34.1247V34.1368Z" fill="#003F67"/>
<path d="M67.2531 36.4715C67.2531 36.4715 67.2652 36.4716 67.2773 36.4836C67.3741 36.5562 67.4951 36.5441 67.5676 36.4595C68.1 35.7215 69.0194 33.5925 69.3581 32.1651C69.6727 30.8223 69.7937 28.6449 69.4186 27.0723C69.3944 26.9634 69.2855 26.8787 69.1646 26.8908C69.0557 26.8908 68.9831 26.9997 69.0073 27.1085C69.3581 28.6207 69.2372 30.7255 68.9347 32.0199C68.6202 33.3868 67.7007 35.4917 67.2047 36.1933C67.1442 36.278 67.1684 36.3869 67.2531 36.4595V36.4715Z" fill="#003F67"/>
<path d="M58.7031 28.3788C58.7878 28.4514 58.8967 28.4635 58.9814 28.403C59.6588 27.8587 61.7034 26.8304 63.0584 26.4433C64.3407 26.0683 66.4337 25.8385 67.958 26.1046C68.0669 26.1288 68.1637 26.0562 68.1758 25.9353C68.1758 25.8264 68.0911 25.7175 67.9822 25.6933C66.3974 25.4151 64.2198 25.657 62.9011 26.0441C61.4977 26.4554 59.4169 27.4958 58.7031 28.0643C58.6184 28.1248 58.6184 28.2579 58.7031 28.3546C58.7031 28.3546 58.7031 28.3667 58.7273 28.3788H58.7031Z" fill="#003F67"/>
</svg>
