<svg width="213" height="227" viewBox="0 0 213 227" fill="none" xmlns="http://www.w3.org/2000/svg">
<path d="M36.4083 122.903C37.218 121.354 42.7544 116.061 42.7544 115.282C42.7544 114.503 42.805 111.558 43.3616 110.576C44.3434 108.856 45.3454 111.143 46.1551 110.778C46.9648 110.404 48.3008 108.815 49.2219 108.471C50.1429 108.127 50.2846 109.372 50.7401 110.111C51.2057 110.849 52.4708 109.362 52.8959 110.202C53.1895 110.778 52.6227 112.216 53.5437 112.6C54.4546 112.985 54.5457 113.309 54.1105 114.23C53.6753 115.151 53.1085 115.464 53.2806 116.314C53.4526 117.165 53.2198 117.316 52.5923 117.812C51.9648 118.308 49.8393 118.632 48.0478 119.047C46.2563 119.462 46.3171 125.109 41.6916 128.631C38.8779 130.766 34.7382 126.111 36.4083 122.913V122.903Z" fill="#FFDBB0"/>
<path d="M9.46549 215.758C9.76913 215.171 9.91085 214.615 9.73879 213.926C9.33393 212.388 8.1295 210.01 8.66593 206.751C9.20236 203.492 9.0809 203.958 9.67806 201.063C10.2651 198.159 9.97158 196.489 9.04041 193.878C8.10925 191.267 7.98779 188.615 9.01005 185.71C10.0323 182.806 11.7023 182.219 14.9108 181.531C18.1193 180.842 18.4634 183.838 19.4857 187.532C20.1941 189.88 20.7508 191.955 19.769 194.697C18.7873 197.44 18.4533 200.496 18.514 202.075C18.6152 204.545 17.4614 209.362 16.9047 210.769C16.3075 212.287 15.4371 215.151 16.6415 216.659C16.8642 216.942 17.0666 217.124 17.2488 217.266C14.7286 218.734 11.5707 217.924 9.46549 215.778V215.758Z" fill="#FFDBB0"/>
<path d="M22.3906 186.439C22.6942 183.059 30.184 184.961 32.1375 191.226C33.099 194.292 33.7164 197.652 34.1415 199.231C34.8095 201.711 34.1718 206.174 34.0807 209.301C34.0301 211.001 33.9492 214.564 35.4573 215.606C35.4674 215.606 35.4775 215.616 35.4977 215.626C33.3014 217.013 31.0848 217.691 28.4938 216.76C28.4938 216.365 28.4229 215.981 28.2205 215.596C27.4715 214.179 25.761 212.246 25.5181 208.694C25.265 205.141 25.265 205.678 25.1537 202.48C25.0424 199.282 24.5464 196.964 23.0485 194.667C21.5505 192.38 22.0869 189.799 22.3906 186.419V186.439Z" fill="#FFDBB0"/>
<path d="M33.5237 214.078C32.3294 214.018 30.0622 214.251 29.0905 214.827C27.8659 215.566 27.1675 215.728 27.3497 217.509C27.5622 219.584 26.4387 221.294 27.4306 222.863C28.048 223.835 30.1938 223.825 32.4913 223.774C34.7888 223.723 38.7868 223.47 40.801 222.853C42.2685 222.398 44.5054 221.082 42.7544 218.137C41.7726 216.497 38.8374 217.793 37.2888 216.71C35.7403 215.637 36.3071 214.21 33.5338 214.068L33.5237 214.078Z" fill="#003F67"/>
<path d="M15.6192 215.191C14.4957 214.786 12.2589 214.341 11.1557 214.625C9.76903 214.969 9.0504 214.928 8.70627 216.679C8.30142 218.723 7.78525 218.774 8.2812 220.565C8.59496 221.679 9.59695 223.551 11.8034 224.168C14.0099 224.786 16.6718 226.658 19.0503 226.587C20.5887 226.536 22.694 226.486 21.864 223.166C21.4086 221.314 19.6171 220.292 18.443 218.814C17.2689 217.337 18.2305 216.143 15.6192 215.201V215.191Z" fill="#003F67"/>
<path d="M32.3086 165.175C30.3451 163.961 29.333 164.022 25.082 163.667C20.9525 163.333 17.6833 163.637 13.0477 163.657C8.98903 163.667 6.73196 161.259 4.37369 170.995C3.56398 174.365 3.62472 181.641 5.17328 186.104C6.15505 188.938 5.78056 193.553 5.96275 194.221C6.75221 197.186 6.0336 197.986 12.0356 197.52C14.738 197.308 18.7561 197.136 21.2055 196.994C21.9241 196.954 21.4687 195.668 22.1265 195.608C25.8208 195.253 35.1527 194.899 35.7904 194.353C36.9847 193.341 36.3066 189.373 35.1325 182.674C33.8369 175.276 34.758 167.645 32.3086 165.175Z" fill="#A2A2A2"/>
<path d="M21.8647 193.887C21.8647 193.887 21.8749 193.887 21.885 193.887C22.0976 193.877 22.2595 193.695 22.2494 193.482C22.1988 192.622 22.2291 189.909 22.2494 188.118C22.2494 187.45 22.2595 186.894 22.2595 186.58C22.2595 186.367 22.0874 186.195 21.8749 186.195C21.6623 186.195 21.4903 186.367 21.4903 186.58C21.4903 186.894 21.4903 187.45 21.4801 188.118C21.4599 190.031 21.4397 192.652 21.4903 193.533C21.5004 193.735 21.6725 193.897 21.8749 193.897L21.8647 193.887Z" fill="#003F67"/>
<path d="M7.80562 154.517C8.76714 149.902 9.60719 147.878 8.06875 146.987C5.65987 145.591 2.66396 143.779 2.42105 141.684C2.09717 138.81 1.85425 137.808 3.24088 135.764C4.86029 133.375 6.37849 131.513 12.2792 129.519C16.2468 128.183 18.9897 128.912 20.7204 128.75C22.684 128.568 29.6778 127.758 34.6474 121.98C36.3984 119.935 38.1697 123.214 40.285 125.137C45.4165 129.813 42.1271 131.29 41.2364 132.566C40.113 134.195 32.3904 140.217 32.7851 142.231C33.1292 144.032 33.3317 152.392 33.0786 160.316C32.9774 163.565 33.696 166.105 30.5078 166.449C21.8136 167.39 8.20034 167.269 6.6619 165.285C4.49593 163.514 6.9048 158.737 7.78535 154.537L7.80562 154.517Z" fill="#F2A096"/>
<path d="M11.5308 128.459C14.5368 130.634 17.9275 130.948 20.2757 129.987C22.6238 129.035 24.5266 127.436 26.0347 125.362C27.1075 123.408 27.5023 120.929 27.4213 119.967C27.3403 119.087 27.0164 118.126 26.5407 117.286C25.4274 115.312 26.9658 114.735 23.7068 111.173C22.7149 110.09 17.4113 105.434 10.9539 107.681C5.27579 109.655 5.24544 123.894 11.5409 128.459H11.5308Z" fill="#FFDBB0"/>
<path d="M25.3663 111.496C24.84 110.646 21.8137 106.173 19.5465 106.163C16.753 106.163 16.0546 104.442 13.251 105.009C9.33406 105.798 6.12559 108.086 5.17418 109.341C3.11954 112.043 3.43331 113.875 2.99809 115.676C2.19851 118.945 3.11955 127.385 10.4272 128.367C11.6215 128.529 11.4595 129.825 11.5709 127.507C11.4798 124.734 9.94132 125.078 8.82797 124.187C7.68426 123.266 7.86646 120.706 9.6377 121.131C11.1053 121.485 11.0648 122.285 11.5 119.269C11.7531 117.508 16.5 118.409 19.1416 111.77C19.8602 109.958 27.0667 115.98 25.3663 111.486V111.496Z" fill="#003F67"/>
<path d="M15.3061 154.295C16.6623 155.044 17.2089 155.297 17.887 155.155C18.5651 155.014 21.1258 154.538 22.0772 154.842C23.7473 155.378 21.9355 156.663 22.4011 157.301C22.8667 157.938 24.4962 158.819 24.9517 159.558C25.4173 160.297 24.3545 160.641 23.7979 161.177C23.2412 161.713 24.7594 162.543 24.1015 163.059C23.6562 163.414 22.2999 163.191 22.1278 164.051C21.9558 164.911 21.6926 165.053 20.8121 164.841C19.9315 164.628 19.5671 164.193 18.8586 164.497C18.1501 164.8 17.9781 164.628 17.4416 164.173C16.9052 163.717 16.2372 161.936 15.5591 160.448C14.881 158.971 14.0611 158.799 12.6947 158.353C12.6542 158.343 7.92759 157.058 4.48633 155.236C-0.230217 152.747 0.9135 144.033 1.83454 141.665C2.36085 140.379 4.98226 140.481 8.95995 141.715C10.9437 142.657 5.44784 148.496 8.89922 150.47C12.1785 152.352 15.1947 154.255 15.2959 154.315L15.3061 154.295Z" fill="#FFDBB0"/>
<path d="M4.41533 135.047C2.35058 135.512 0.336438 140.37 0.437651 143.619C0.538865 146.868 2.57324 147.212 4.78982 147.596C7.0064 147.981 8.93959 149.509 9.5165 147.1C10.1035 144.692 10.1643 139.216 8.53473 137.729C6.89507 136.241 6.27765 134.632 4.4052 135.047H4.41533Z" fill="#F2A096"/>
<path d="M79.9104 217.328C86.5905 216.64 81.2565 210.517 84.3334 204.677C84.3334 204.677 88.0581 201.844 89.0601 204.384C89.8192 206.317 90.9224 213.735 91.3171 218.826C87.4407 220.516 82.9873 219.858 79.9104 217.338V217.328Z" fill="#FFDBB0"/>
<path d="M79.8592 217.338C79.8592 217.338 79.8896 217.338 79.9098 217.338C82.9867 219.858 87.4401 220.516 91.3166 218.826C91.438 220.415 91.4887 221.771 91.4482 222.671C91.2457 226.436 79.009 226.932 73.5131 223.957C67.2177 220.546 68.8472 218.431 79.8693 217.338H79.8592Z" fill="#003F67"/>
<path d="M127.542 212.387C126.894 208.987 127.086 204.433 126.995 201.143C123.675 198.785 121.236 198.856 121.145 205.637C121.054 212.418 120.325 215.96 116.317 218.237C116.277 218.257 116.246 218.277 116.206 218.298C120.356 217.974 124.687 215.687 127.532 212.397L127.542 212.387Z" fill="#FFDBB0"/>
<path d="M127.542 212.389C124.687 215.678 120.366 217.975 116.216 218.289C112.258 220.546 108.888 223.309 111.611 224.584C114.354 225.869 118.139 225.505 121.621 223.511C125.092 221.527 130.163 218.41 128.453 215.202C128.038 214.433 127.754 213.461 127.552 212.389H127.542Z" fill="#003F67"/>
<path d="M90.6693 94.8281C90.4062 96.2551 87.2078 134.075 86.0844 137.759C84.9609 141.453 82.5317 211.69 82.5621 212.803C82.5925 213.916 85.9528 214.837 87.2787 214.797C88.6046 214.766 91.3677 215.252 92.0357 213.117C93.7361 207.702 106.772 135.28 106.924 133.144C107.076 131.009 107.936 128.843 108.25 133.114C108.564 137.385 120.173 209.615 120.497 210.313C120.821 211.022 126.104 210.354 127.319 210.323C128.533 210.293 128.584 210.06 129.242 206.558C130.153 201.731 132.045 157.312 131.853 153.76C131.671 150.208 128.766 97.2065 127.491 94.9496C126.216 92.6927 90.6693 94.8281 90.6693 94.8281Z" fill="#A2A2A2"/>
<path d="M79.9304 82.046C77.4608 85.4667 73.5236 88.6142 72.8961 90.0007C72.2685 91.3771 70.2949 94.98 69.0196 97.2874C68.5034 98.2286 67.0459 98.9978 64.1208 100.445C62.8253 101.083 63.6047 98.8156 61.9144 98.8561C59.0602 98.9269 60.1432 97.3178 59.4448 96.8016C58.2403 95.9009 57.8861 95.6783 59.3638 94.3221C60.8415 92.9558 61.9448 92.2677 62.7545 91.8122C63.5541 91.3669 64.6067 90.4156 62.9367 90.2031C61.2666 89.9906 60.3658 89.7679 59.7484 88.7558C59.131 87.7438 59.7282 87.0758 61.7221 87.5616C64.1512 87.6325 67.0459 86.1852 68.4022 85.8917C69.7686 85.5983 74.3232 77.2994 76.0134 74.8908C77.7037 72.4821 82.4 78.6353 79.9304 82.0561V82.046Z" fill="#FFDBB0"/>
<path d="M142.966 75.5389C145.021 79.2227 148.564 82.8155 149.019 84.2526C149.474 85.6999 151.023 89.5052 152.025 91.9341C152.43 92.9259 153.786 93.8671 156.529 95.6382C157.744 96.4175 157.227 94.0797 158.908 94.3124C161.731 94.7172 160.841 92.9968 161.59 92.5616C162.885 91.8127 163.27 91.6305 161.954 90.1023C160.638 88.5741 159.626 87.7645 158.877 87.2179C158.128 86.6816 157.207 85.6189 158.887 85.5987C160.567 85.5784 161.499 85.4671 162.227 84.5259C162.956 83.5948 162.44 82.856 160.416 83.109C157.997 82.8965 155.294 81.1153 153.968 80.67C152.642 80.2247 152.238 78.403 150.831 75.8122C149.434 73.2213 140.912 71.8449 142.956 75.5288L142.966 75.5389Z" fill="#FFDBB0"/>
<path d="M96.3166 29.9262C98.8369 31.6972 104.161 30.6548 106.225 29.0052C110.638 25.4833 100.527 23.8741 99.262 21.8702C98.3409 20.4027 97.2073 21.3136 96.2964 24.0462C96.013 24.8862 98.2093 26.3435 96.013 27.8919C94.7782 28.7724 93.9078 28.7927 96.3166 29.9262Z" fill="#003F67"/>
<path d="M113.979 22.468C112.511 26.3138 109.637 28.5706 106.975 29.0261C104.313 29.4815 101.692 29.0463 99.1613 27.9432C97.0864 26.6882 95.3152 24.5528 94.8496 23.5711C94.4245 22.6805 94.1715 21.5774 94.1108 20.4844C93.9893 17.9441 92.2687 18.2781 93.1897 12.9648C93.463 11.3456 95.5885 3.79565 102.684 2.19661C108.918 0.789862 117.046 14.4222 113.969 22.468H113.979Z" fill="#FFDBB0"/>
<path d="M100.517 10.7679C97.9263 7.33703 93.5033 17.1539 92.5418 14.9274C90.4669 10.1303 94.1106 6.2238 97.2482 3.86573C97.9769 3.31922 99.7785 1.76067 101.985 1.02187C106.55 -0.506327 113.199 2.10473 115.598 7.50908C117.511 11.8103 116.954 12.9641 117.491 16.0103C117.774 17.579 117.622 20.7366 118.675 22.2344C120.467 24.805 122.977 23.0845 120.679 25.2301C118.513 27.2542 113.341 28.2966 111.145 27.5376C109.87 27.1024 111.56 21.6778 113.139 20.4836C115.284 17.913 114.718 17.0527 114.12 16.1824C113.513 15.3221 111.813 14.9072 111.448 15.818C109.627 20.3115 110.527 15.9395 109.242 15.1501C105.74 12.9843 107.704 17.3867 100.517 10.7477V10.7679Z" fill="#003F67"/>
<path d="M110.052 23.6211C109.799 23.6413 106.469 24.198 106.155 24.1878C106.074 24.7748 104.859 28.4486 104.647 29.1975C103.584 32.8915 101.145 37.6886 100.851 38.0732C104.849 41.1194 115.436 41.6963 117.653 38.4173C116.954 38.1238 111.347 27.9426 110.942 26.5763C110.639 25.5744 110.092 24.0057 110.052 23.6211Z" fill="#FFDBB0"/>
<path d="M130.456 76.461C130.304 69.9737 127.521 58.0923 130.628 60.8754C131.458 61.6142 134.201 65.3588 136.387 68.3342C139.565 72.6658 141.569 78.2624 143.897 80.58C145.426 82.1082 152.247 76.8962 152.177 75.2263C152.075 72.595 147.065 61.6749 143.169 56.6451C139.434 51.8277 129.576 37.5578 125.082 34.4103C121.823 32.1231 116.802 31.1313 114.363 31.6575C114.151 31.7081 113.098 34.7949 109.991 35.8879C107.228 36.8595 105.416 36.5457 104.09 35.9284C102.653 35.2503 102.663 33.965 101.62 34.0763C99.6468 34.299 94.9201 37.072 91.9646 40.7154C89.0193 44.3588 83.7056 60.5921 83.0781 62.5959C82.2178 65.3285 76.064 70.5405 71.7118 76.795C69.6471 79.7704 71.56 80.4788 73.7462 82.3309C76.7421 84.3955 78.7765 86.956 80.6287 85.3266C82.6935 83.5049 87.1368 78.3535 88.4525 75.8335C89.9201 73.0301 91.8533 67.0489 92.9262 67.646C94.1306 68.3241 92.8047 74.9227 91.9343 79.6186C91.5092 81.9159 88.5031 90.6398 88.24 94.6172C87.9465 99.1512 98.5638 98.4124 105.942 99.8697C112.804 101.226 130.669 100.922 131.438 96.5704C132.177 92.4008 130.557 81.2277 130.446 76.461H130.456Z" fill="#EE8084"/>
<path d="M97.056 40.4396C103.513 40.9051 109.657 40.6622 112.329 40.6622C116.104 40.6622 117.714 38.881 118.159 43.7692C118.604 48.6574 120.821 59.537 125.71 66.4189C130.598 73.3009 132.481 73.9891 132.481 79.5351C132.481 85.0811 134.556 110.312 135.021 117.619C135.689 128.053 144.343 142.161 139.768 143.881C131.479 146.998 100.852 146.33 91.3071 145.885C81.7525 145.44 80.6493 142.363 81.3173 136.594C81.9853 130.816 85.3861 113.246 85.6087 105.697C85.7707 100.14 88.7059 75.4869 90.1735 70.4165C92.1674 63.5346 94.1714 52.6449 94.1714 46.6536C94.1714 40.6623 93.9487 40.2169 97.056 40.4396Z" fill="#E2C2BC"/>
<path d="M94.1307 38.4466C94.1509 40.4606 94.3432 41.4221 94.3027 44.104C94.2825 45.6322 94.7885 45.6018 96.4484 45.5108C98.1083 45.4197 98.8472 45.5006 98.8775 43.6081C98.9079 41.7156 99.1104 38.2746 99.0597 37.2726C98.999 36.2707 98.5739 34.8437 96.995 35.6331C96.0031 36.129 94.1205 37.4953 94.1307 38.4466Z" fill="#E2C2BC"/>
<path d="M114.06 31.5143C114.06 30.0671 118.675 30.6946 118.675 32.5871C118.675 34.4796 118.159 40.1066 118.048 42.2218C117.936 44.3269 117.39 43.8816 115.72 43.7804C114.829 43.7298 113.756 44.0739 113.665 41.1693C113.554 37.7789 114.07 31.8584 114.07 31.5245L114.06 31.5143Z" fill="#E2C2BC"/>
<path d="M127.612 93.9272H117.612C116.722 93.9272 116.084 93.7248 115.689 93.32C115.203 92.814 115.173 92.0853 115.183 91.5793C115.214 90.8101 115.183 87.0453 115.163 84.0192C115.153 82.2886 115.143 80.7301 115.143 79.9306C115.143 79.7687 115.274 79.627 115.446 79.627C115.618 79.627 115.75 79.7585 115.75 79.9306C115.75 80.7301 115.76 82.2886 115.77 84.0192C115.79 87.2072 115.821 90.8202 115.79 91.6096C115.77 92.2371 115.871 92.652 116.124 92.9152C116.398 93.1985 116.894 93.3402 117.612 93.3402H127.612C127.774 93.3402 127.916 93.4718 127.916 93.6439C127.916 93.8159 127.784 93.9475 127.612 93.9475V93.9272Z" fill="#9FA198"/>
<path d="M128.776 92.7231C128.614 92.7231 128.473 92.5916 128.473 92.4195C128.473 92.1766 128.473 91.6098 128.473 90.8508C128.493 88.1689 128.523 83.1896 128.473 81.7727C128.473 81.6108 128.594 81.4691 128.766 81.459C128.908 81.459 129.07 81.5804 129.08 81.7525C129.141 83.1896 129.11 88.179 129.08 90.8609C129.08 91.62 129.08 92.1867 129.08 92.4195C129.08 92.5814 128.948 92.7231 128.776 92.7231Z" fill="#9FA198"/>
<path d="M91.7116 93.9791C90.5274 93.9791 89.2926 93.9487 88.7461 93.9285C88.5841 93.9285 88.4525 93.7767 88.4525 93.6147C88.4525 93.4528 88.5942 93.3111 88.7663 93.3212C89.8392 93.3718 92.663 93.4022 93.8573 93.3212C94.9707 93.2504 95.3654 92.8456 95.3654 91.793C95.3654 89.4248 95.3654 81.541 95.3249 79.8508C95.3249 79.6889 95.4565 79.5472 95.6184 79.5371C95.8006 79.5371 95.9221 79.6687 95.9322 79.8306C95.9727 81.4904 95.9727 88.7468 95.9727 91.793C95.9727 93.1694 95.3351 93.8273 93.8978 93.9285C93.3614 93.9588 92.5416 93.9791 91.7015 93.9791H91.7116Z" fill="#9FA198"/>
<path d="M171.681 128.389C170.578 127.043 164.07 122.985 163.918 122.216C163.766 121.447 163.108 118.583 162.359 117.733C161.054 116.255 160.537 118.694 159.667 118.492C158.797 118.289 157.157 117.004 156.195 116.862C155.224 116.71 155.345 117.965 155.042 118.775C154.738 119.595 153.2 118.39 152.957 119.301C152.795 119.929 153.635 121.214 152.815 121.781C152.005 122.347 151.975 122.681 152.592 123.491C153.21 124.301 153.827 124.493 153.827 125.363C153.827 126.234 154.09 126.335 154.799 126.689C155.517 127.043 157.663 126.932 159.495 126.973C161.337 127.013 162.42 132.559 167.673 135.059C170.861 136.577 173.969 131.173 171.681 128.379V128.389Z" fill="#FFDBB0"/>
<path d="M210.213 213.278C209.636 212.954 209.211 212.57 208.988 211.891C208.482 210.383 208.199 207.742 205.962 205.303C203.725 202.864 204.089 203.198 202.014 201.093C199.94 198.988 199.272 197.429 198.624 194.737C197.976 192.045 196.63 189.768 194.181 187.896C191.731 186.023 190.031 186.448 186.974 187.633C183.917 188.817 185.264 191.509 186.428 195.142C187.126 197.49 187.784 199.524 190.112 201.285C192.44 203.046 194.383 205.414 195.193 206.76C196.458 208.876 200.051 212.266 201.286 213.146C202.622 214.088 204.909 216.01 204.727 217.923C204.697 218.277 204.626 218.541 204.545 218.763C207.45 218.611 209.646 216.203 210.233 213.268L210.213 213.278Z" fill="#FFDBB0"/>
<path d="M210.212 213.277C209.625 216.212 207.439 218.621 204.524 218.773C204.18 219.724 203.532 219.744 203.795 222.224C204.2 226.211 207.479 225.422 209.767 222.679C211.366 220.756 214.412 215.17 211.993 214.087C211.305 213.773 210.698 213.551 210.212 213.277Z" fill="#003F67"/>
<path d="M171.519 218.43C170.092 219.482 169.809 218.187 167.936 220.464C165.466 223.47 168.341 225.777 171.853 225.939C174.323 226.05 180.345 224.968 179.373 222.164C178.968 220.99 178.584 220.1 178.543 219.27C175.993 220.302 173.756 219.725 171.509 218.43H171.519Z" fill="#003F67"/>
<path d="M184.848 189.343C184.403 185.983 175.526 187.613 173.836 193.938C173.006 197.035 172.53 200.415 172.176 202.014C171.609 204.514 172.439 208.936 172.662 212.054C172.783 213.744 173.016 217.296 171.559 218.399C171.549 218.399 171.539 218.419 171.518 218.419C173.765 219.705 176.002 220.292 178.553 219.259C178.532 218.865 178.583 218.48 178.775 218.085C179.464 216.648 181.083 214.644 181.184 211.092C181.285 207.54 181.306 208.076 181.285 204.878C181.265 201.69 181.872 200.071 183.269 197.723C184.666 195.375 185.294 192.693 184.848 189.333V189.343Z" fill="#FFDBB0"/>
<path d="M173.523 165.034C175.446 163.769 182.753 163.921 186.984 163.445C191.093 162.98 193.168 163.648 197.662 162.565C201.184 161.715 200.223 165.743 204.292 173.879C206.974 179.253 213.968 186.803 211.862 188.655C209.757 190.497 204.565 192.957 201.609 192.147C198.654 191.348 197.723 191.105 194.282 192.805C191.276 194.282 186.185 192.785 182.197 192.44C178.857 192.157 176.741 192.41 174.14 193.048C169.13 194.272 165.335 192.623 164.494 191.945C163.27 190.963 163.28 186.156 167.551 179.982C171.812 173.809 171.164 167.585 173.533 165.044L173.523 165.034Z" fill="#A2A2A2"/>
<path d="M180.87 121.375C180.506 120.707 179.99 119.331 179.473 118.764C178.957 118.197 178.39 117.57 177.561 117.377C176.275 117.074 175.607 117.124 174.929 117.499C174.322 117.833 173.401 119.482 173.37 120.646C173.137 122.174 172.095 122.599 171.376 122.883C170.374 123.298 168.654 122.944 168.826 123.682C169.332 125.838 170.506 126.213 171.761 126.051C175.83 125.555 173.735 121.749 176.224 121.324C178.714 120.899 178.897 121.253 180.85 121.365L180.87 121.375Z" fill="#003F67"/>
<path d="M199.686 158.851C198.795 154.469 202.773 154.074 202.844 147.577C202.905 142.365 199.615 136.515 195.779 133.297C192.723 130.736 189.484 127.589 185.081 128.196C183.087 128.469 178.482 129.411 176.599 129.147C172.976 128.652 171.64 124.168 168.816 128.591C163.775 136.485 165.263 135.483 167.075 137.386C169.585 140.017 172.925 145.128 172.854 148.923C172.814 150.664 171.943 153.528 172.136 161.047C172.217 164.134 170.395 167.14 173.401 166.725C186.468 164.923 193.603 167.97 199.251 166.158C203.633 164.751 200.496 162.839 199.686 158.851Z" fill="#EE8084"/>
<path d="M191.437 128.055C188.522 130.038 185.293 130.221 183.097 129.249C180.901 128.277 179.14 126.699 177.773 124.695C176.812 122.812 176.508 120.454 176.62 119.543C176.721 118.714 177.055 117.813 177.53 117.023C178.644 115.192 177.196 114.584 180.405 111.305C181.377 110.314 186.538 106.053 192.601 108.37C197.925 110.405 197.54 123.905 191.437 128.055Z" fill="#FFDBB0"/>
<path d="M179.868 109.008C180.587 107.915 182.318 106.66 184.443 106.356C186.417 106.073 187.328 105.101 190.496 105.769C194.21 106.548 197.156 108.896 198.026 110.121C199.899 112.742 199.544 114.473 199.909 116.193C200.567 119.31 199.119 126.02 192.186 127.923C191.083 128.226 191.316 127.599 191.437 127.164C192.136 124.623 193.057 124.907 194.14 124.097C195.243 123.257 195.162 120.818 193.461 121.172C192.055 121.466 192.652 121.537 190.587 119.513C189.109 118.065 188.026 115.869 185.779 112.357C184.777 110.779 181.113 113.754 178.725 113.42C177.51 113.258 178.411 111.244 179.889 109.008H179.868Z" fill="#003F67"/>
<path d="M196.984 122.206C197.702 121.791 198.947 120.799 199.747 120.556C200.546 120.324 201.427 120.06 202.297 120.344C203.654 120.779 204.251 121.204 204.676 121.933C205.05 122.581 204.98 124.625 204.362 125.738C203.725 127.287 204.463 128.268 204.959 128.936C205.668 129.877 207.449 130.525 206.882 131.112C205.202 132.833 203.907 132.519 202.824 131.669C199.322 128.936 203.401 126.558 201.326 124.767C199.251 122.975 198.876 123.198 197.004 122.206H196.984Z" fill="#003F67"/>
<path d="M199.059 118.864C198.664 119.137 198.138 119.562 198.421 120.281C198.715 121.01 199.059 121.374 199.494 121.344C200.314 121.283 200.415 121.141 200.8 120.584C201.194 120.028 201.063 119.643 200.567 119.097C200.071 118.55 199.646 118.641 199.059 118.864Z" fill="#F8CED2"/>
<path d="M197.703 120.544C197.308 120.817 196.782 121.242 197.065 121.961C197.359 122.689 197.703 123.054 198.138 123.023C198.958 122.962 199.059 122.821 199.444 122.264C199.838 121.708 199.707 121.323 199.211 120.776C198.715 120.23 198.29 120.321 197.703 120.544Z" fill="#F8CED2"/>
<path d="M191.994 139.673C190.658 138.549 184.383 134.268 184.231 133.499C184.079 132.73 183.421 129.866 182.672 129.016C181.367 127.538 180.85 129.977 179.98 129.775C179.11 129.572 177.47 128.287 176.508 128.145C175.537 127.994 175.658 129.249 175.355 130.058C175.051 130.878 173.512 129.674 173.27 130.584C173.108 131.212 173.948 132.497 173.128 133.064C172.308 133.631 172.288 133.965 172.905 134.774C173.523 135.584 174.14 135.776 174.14 136.647C174.14 137.517 174.403 137.618 175.112 137.972C175.83 138.327 177.976 138.215 179.808 138.256C181.65 138.296 182.51 142.83 187.369 146.018C189.099 147.152 193.927 141.302 191.984 139.652L191.994 139.673Z" fill="#FFDBB0"/>
</svg>
