<svg width="355" height="29" viewBox="0 0 355 29" fill="none" xmlns="http://www.w3.org/2000/svg">
<path fill-rule="evenodd" clip-rule="evenodd" d="M87.4487 0.0446664C88.6781 0.236779 88.8598 0.728212 90.2891 0.808631C90.495 0.518228 90.8038 0.0848454 91.5789 0.236748V0.428885C92.239 0.607594 91.8696 0.236796 92.3541 0.621021H92.6145V1.38499L93.1293 1.57707V1.95687H93.3897C93.4744 2.14898 93.5592 2.33658 93.65 2.5287H92.6145V3.10058C91.8999 3.23908 92.0391 3.1542 91.8393 3.67246C90.9369 3.8333 90.6342 4.15499 89.5139 4.24434C89.532 4.74473 89.6168 4.89217 89.7742 5.19597C88.8901 5.14683 87.7455 5.04405 87.7092 5.00384V5.38358H87.9696C88.7871 5.38805 87.1944 5.57572 87.1944 5.57572C86.8674 5.27638 86.5041 5.11106 85.9045 5.00384C85.5169 5.52209 85.0082 5.81697 84.0938 5.95547V5.57572L83.579 5.7678C83.4276 6.0582 83.3792 6.08058 83.3186 6.53182C82.7736 6.56309 81.7561 6.70158 81.5079 6.91157C81.1929 7.17963 81.7379 7.12156 80.993 7.48345V6.71943H80.7327V7.48345H79.9575V7.10365C79.5638 7.21534 79.5336 7.25111 78.9219 7.29578V6.91604L78.1467 7.10812C77.9772 7.43426 77.8985 7.70682 77.8864 8.25189H76.5964C76.5964 8.25189 76.3359 8.55568 76.0816 8.63163V8.82377H75.8212V8.44397H75.3065V8.25189H75.046V8.44397H74.2708V8.6361C73.8227 8.93097 73.7259 9.52965 73.4958 9.97195C72.545 9.90493 71.794 9.63689 71.1702 10.1641C71.0854 10.3562 71.0007 10.5438 70.9098 10.7359C70.2195 10.7985 69.529 10.861 68.8447 10.9281V11.1202L68.33 11.3123V11.692L67.5548 11.4999L67.2944 11.8797H66.5192C66.4769 11.8976 66.2164 12.1656 66.0044 12.2594V12.4516C65.5744 12.389 65.1445 12.3264 64.7146 12.2594V12.0673C64.5632 12.0539 63.8303 12.389 63.4246 12.4471C63.2489 12.809 63.0914 13.6131 62.9097 13.9705L62.1347 13.7785V13.5863C61.7774 13.5372 62.2375 13.7249 61.8742 13.7785C61.2565 13.8678 61.208 13.6355 60.8386 13.5863L60.324 14.1582H59.2883V14.3503L58.5132 14.5424V15.1143H59.0279V15.3064H58.7675C58.6282 15.3958 56.6963 15.789 56.7023 15.3064H56.442V15.6862L55.1521 15.4941C55.1642 16.1776 55.0915 16.6959 54.6373 17.0176V16.8254H54.3769V16.0615H53.8621C53.8439 16.5619 53.7592 16.7093 53.6017 17.0131C53.0628 16.8969 52.548 16.7987 52.0514 17.2052V17.585H51.791V17.7771L50.2406 17.585C50.1558 17.7101 50.0711 17.8396 49.9803 17.9647C49.6351 18.0273 49.2899 18.0898 48.9447 18.1569V18.5366H47.9091V18.9164C47.2914 18.827 47.0976 18.6974 46.6191 18.5366V19.4882C46.0135 19.5508 45.414 19.6133 44.8084 19.6803V19.8725C44.0514 20.002 43.9606 20.0824 43.7728 20.6364C44.1362 20.6498 43.7365 20.6052 44.0332 20.4443C44.439 20.2254 44.2754 20.9134 44.2936 21.0162C43.8515 21.2306 43.9424 21.1368 43.7789 21.588C44.1241 21.5255 44.4693 21.463 44.8145 21.396L45.0748 21.0162C45.1233 21.0117 45.6804 21.1949 46.1104 21.2083V20.8286C46.3708 20.8911 46.6252 20.9536 46.8856 21.0206L47.1461 20.6409C47.461 20.5292 47.9031 20.5381 48.1816 20.4488V19.6848C48.7933 19.6088 49.6047 19.3229 50.5071 19.4927V19.6848H51.5428V19.4927H52.0574V18.7287H52.5722V19.1084C53.3474 18.9833 54.1225 18.8538 54.8977 18.7287L55.1582 18.9208C55.8667 18.5545 55.3942 18.2686 56.7084 18.1569C57.0051 18.3758 56.7085 18.2328 57.2232 18.3489V17.7771L58.5132 17.585V17.2052C59.3671 17.308 59.688 17.4465 60.0634 17.2052H60.324C60.651 16.9104 60.0453 16.821 60.5843 16.6334V16.8254H60.8447V16.2536C61.414 16.1866 62.183 16.0034 62.9097 16.2536C62.9945 16.3787 63.0794 16.5083 63.1703 16.6334H63.6849V16.2536C64.2057 16.3608 63.9091 16.2312 64.1997 16.4457L64.9749 16.2536V16.0615H65.7501C65.9197 15.8694 66.0952 15.6817 66.2648 15.4896C66.6948 15.5521 67.1248 15.6147 67.5548 15.6817V15.8738C67.7425 15.9006 68.5056 15.7041 69.3655 15.6817L69.1052 15.1098H69.6198V15.302H70.6554L70.9159 15.4941V15.302L71.6909 15.1098C71.6728 14.6095 71.588 14.462 71.4306 14.1582H72.981C73.2777 13.9393 72.981 14.0823 73.4958 13.9661C73.6956 13.3943 73.6532 13.4657 74.5313 13.3942C74.822 13.7204 74.6949 13.6534 75.3065 13.774C75.5669 13.2959 75.8394 12.7777 76.3421 13.01H76.6024V13.5819H77.1173C77.305 13.0547 77.1899 13.1575 77.8924 13.01V12.8179L79.4427 12.6258C79.4427 12.6258 79.5578 12.9028 79.9575 12.8179L80.2178 12.4381H80.993V12.0584L81.5079 12.2505V12.4426C81.847 12.5364 81.5623 12.3532 81.7682 12.2505C82.4162 12.1209 82.1861 12.1522 82.5434 11.8707H82.8038V11.491L83.3186 11.2989C83.6214 11.0576 83.7546 10.7449 84.0938 10.5349V10.727H84.8688C84.9536 10.9817 85.0385 11.2363 85.1293 11.491H85.3897C86.0195 10.7136 86.837 10.7851 88.2299 10.5394C88.3087 10.526 88.2966 10.2757 88.7448 10.3472V10.5394C89.2595 10.6645 89.7804 10.794 90.2951 10.9191V10.727H90.5555L90.2951 10.1551C90.4647 10.0926 90.6402 10.03 90.8098 9.96301C91.1671 9.56538 90.6948 9.69493 91.3246 9.39112V9.19904L92.6145 9.00691C92.4752 9.53857 92.4146 9.02479 92.6145 9.57879H92.875V9.19904C93.3897 9.26159 93.9105 9.32411 94.4252 9.39112V9.19904C94.7038 9.0248 94.4738 9.23029 94.6857 9.00691H94.4252V8.81482H95.2004C95.2549 9.26606 95.3094 9.28839 95.4608 9.57879C95.7575 9.35987 95.5638 9.5788 95.7213 9.19904C96.018 8.98012 95.8242 9.19905 95.9816 8.8193C96.7568 8.62718 97.532 8.43953 98.3072 8.24741L98.5676 8.43955C98.6524 7.823 98.8038 7.88108 99.0824 7.48792H99.5971V7.68H99.8574V7.48792H100.893L101.154 6.91604C101.826 7.11709 102.244 7.26451 103.219 7.29578C103.134 7.17069 103.049 7.04113 102.958 6.91604C103.134 6.70605 104.412 6.64796 104.769 6.34416L104.509 5.96441H104.769V5.77227C105.453 5.99566 105.744 6.13862 106.834 6.15202V5.95994H106.574V5.38805C107.391 5.51315 107.094 5.67845 107.349 5.7678C107.652 5.7544 108.269 5.38361 108.899 5.57572L109.16 5.95547H109.674C109.426 6.58542 109.432 7.07685 109.935 7.67106H109.674C109.378 7.88998 109.674 7.74703 109.16 7.86319V8.81482H108.899C108.833 9.13203 109.141 9.14542 109.16 9.19457V10.1462C108.233 10.173 107.694 10.4187 107.094 10.5259L106.58 10.3339C106.41 10.526 106.234 10.7136 106.065 10.9057C105.919 10.9504 104.654 10.7628 104.254 10.7136C104.097 11.214 103.521 11.7233 102.704 11.6652C102.704 11.6652 102.565 11.424 102.189 11.4731L102.449 11.8528H101.414C101.329 12.1701 101.244 12.4873 101.154 12.8045L99.8635 12.6124L99.6031 12.9921C98.9067 13.1217 98.9248 12.6258 98.8279 12.6124L98.0528 12.8045L98.3133 12.9966C98.3254 13.0726 98.083 13.4255 98.0528 13.7606C97.1928 13.8231 96.3328 13.8857 95.4668 13.9527V13.573C94.8552 13.5328 94.8249 13.4925 94.4313 13.3808V13.9527C94.3768 14.0331 92.6568 14.9133 93.6561 15.2886H92.8811V15.0964C92.6328 14.7435 92.6205 15.4762 92.6205 15.4762C92.3298 15.6371 92.5842 15.4539 92.3602 15.6683C93.0869 15.4896 93.0809 15.4673 93.9105 15.6683V15.8604L94.6857 15.6683L94.4252 15.4762L94.6857 14.9043C95.8969 15.2484 96.6963 15.016 97.526 14.5246C97.6107 14.3995 97.6955 14.2699 97.7863 14.1448H99.0763C99.0763 14.1448 99.052 14.0331 99.591 13.9527V14.5246H99.8514V14.1448C100.954 14.1314 101.565 14.1046 102.177 13.765L102.437 13.3853C102.867 13.4479 103.297 13.5104 103.727 13.5774C103.431 13.3585 103.727 13.5015 103.212 13.3853V13.0056C103.473 13.0681 103.727 13.1306 103.988 13.1976V12.8179H104.502V13.1976C105.998 13.1083 107.07 12.4873 108.118 12.0539V12.6258H108.633V12.246H110.443V12.0539H111.219V11.8618C111.733 11.9243 112.254 11.9869 112.769 12.0539C112.987 11.8395 112.739 12.0271 113.029 11.8618V11.0978C113.544 11.0353 114.065 10.9727 114.58 10.9057C114.495 11.0978 114.41 11.2855 114.319 11.4776H114.58V11.6697C114.87 11.5089 114.616 11.692 114.84 11.4776C115.137 11.2587 114.943 11.4776 115.101 11.0978C115.506 11.1112 116.911 11.2899 116.911 11.2899V11.0978H117.172V10.5259C117.456 10.2579 118.334 10.3294 118.982 10.3339V10.5259L120.533 10.3339V10.1417H121.047V9.94959H121.823L121.562 10.5215H121.823C122.01 9.99428 121.895 10.097 122.598 9.94959V10.3294C122.858 10.2668 123.113 10.2043 123.373 10.1373V9.94517C123.979 9.88262 124.578 9.82005 125.184 9.75304V9.5609H125.959L126.219 9.18115C126.437 9.11861 127.921 9.38219 128.284 9.5609V9.18115L129.06 8.98907V8.79694C129.411 8.71652 128.957 8.93546 129.32 8.98907C129.75 9.05162 129.78 8.80587 129.835 8.79694C130.307 8.72545 130.834 9.04712 131.125 9.17668V8.9846C131.93 8.444 131.185 8.17594 132.675 8.03297V8.22505H133.45L133.19 8.60485C133.523 8.91313 133.674 8.39483 133.965 9.17668C134.304 8.97563 134.353 8.78803 134.74 8.60485V9.17668H135.255C135.17 8.79692 135.085 8.41273 134.994 8.03297C136.206 7.72917 135.866 8.1804 136.545 7.08134H136.805C136.775 7.48791 136.539 7.73361 136.545 7.84531L136.805 8.03744C137.277 7.79619 136.836 7.77833 137.066 7.6577C137.362 7.49686 137.229 7.83191 137.326 7.84978C137.586 7.78723 137.841 7.72471 138.101 7.6577V7.2779C138.683 7.20194 139.094 6.96519 139.912 7.08581C139.912 7.08581 139.924 7.33598 140.427 7.2779V7.08581H141.717V7.2779C141.099 7.39406 141.238 7.34049 140.941 7.6577H141.456C142.201 6.75075 143.443 7.06795 144.817 6.70607L145.078 6.13419C145.817 6.13419 146.186 6.20117 146.628 6.32627V5.5623H146.888C147.058 5.75442 147.234 5.94207 147.403 6.13419H147.664L147.403 6.51393H147.664V6.70607C148.402 7.09923 148.33 6.36648 148.699 7.2779H149.214V7.6577H149.729C149.644 7.84981 149.559 8.03741 149.468 8.22952H149.729C149.904 8.51546 149.91 8.54677 149.989 8.99354H150.504V9.37329C150.904 9.54306 151.043 9.65477 151.279 9.94517C152.115 9.61009 151.77 9.48944 152.829 9.75304L152.569 9.18115H153.084V8.80141H153.598V8.99354H153.859V8.80141L154.634 8.99354L154.374 9.56537H154.888C155.076 9.03818 154.961 9.14098 155.664 8.99354C156.051 8.65846 156.36 8.63161 157.214 8.61374V8.234C157.729 8.1089 158.249 7.97935 158.764 7.85425C158.782 8.35464 158.867 8.50207 159.025 8.80588C159.315 8.64504 159.061 8.82819 159.285 8.61374H159.545V8.04191C160.321 8.10446 161.096 8.16698 161.871 8.234V7.85425H162.386L162.646 7.28237C162.991 7.34492 163.337 7.40749 163.682 7.4745C163.767 7.34941 163.851 7.21985 163.942 7.09476L165.232 7.28684V7.66659C165.892 7.37172 167.013 6.48266 167.818 6.90262H168.333V7.28237H168.593V6.90262C169.835 6.85348 169.841 6.76859 170.919 6.90262C171.003 6.58541 171.088 6.2682 171.179 5.95099C172.372 5.78569 173.275 5.78569 174.019 5.95099V5.57125H175.57V5.76333H176.345V5.95547C176.605 5.89292 176.86 5.83034 177.12 5.76333V5.57125C176.823 5.35233 177.017 5.57126 176.86 5.1915C177.707 5.2049 177.623 5.43276 178.15 5.1915L178.41 4.8117L179.96 5.1915V5.57125C180.657 5.57125 181.426 5.63377 181.771 5.37911V4.99936L182.286 5.1915V4.99936C182.801 4.93682 183.321 4.8743 183.836 4.80728C184.078 4.92344 183.745 5.07978 184.097 4.99936L184.357 4.61962C184.684 4.61962 185.017 4.95914 185.647 4.8117V4.61962C186.077 4.55707 186.507 4.4945 186.937 4.42748L186.676 4.99936H186.937C187.512 5.45954 187.421 5.26745 188.227 5.1915C188.197 5.79464 187.724 5.54888 188.487 5.76333C188.602 6.23691 188.723 6.46481 188.748 7.09923C188.033 7.23773 188.172 7.1528 187.972 7.67106H187.712V8.62269C187.094 8.71204 186.901 8.8416 186.422 9.00243V8.43061H186.162C185.78 9.49839 185.714 8.82375 184.872 9.19457V9.38671L183.836 9.95853C183.921 9.76642 184.006 9.57882 184.097 9.38671H183.836C183.679 9.69051 183.606 9.83795 183.576 10.3383C182.601 10.4902 182.128 10.7091 180.735 10.7181V10.3383H180.221V10.7181H178.931V10.9102H179.191C179.028 11.1827 178.888 11.0531 178.676 11.2899H178.162L178.422 10.9102H178.162C177.907 11.1693 178.01 11.2854 177.386 11.2899C177.386 11.2899 177.205 11.0174 176.872 11.0978C176.787 11.2229 176.702 11.3525 176.611 11.4776H176.097L175.836 12.6213L174.801 12.8134V12.0495H174.286C174.098 12.6615 173.935 12.7419 172.996 12.8134L173.256 12.2415H172.996C172.899 12.4605 172.923 12.9206 172.481 12.8134L172.221 12.2415C171.96 12.3041 171.706 12.3667 171.446 12.4337V12.8134C171.034 12.6973 170.834 12.6437 170.156 12.6213V12.0495H169.895V12.6213C170.192 12.8403 169.998 12.6213 170.156 13.0011C169.55 13.0636 168.95 13.1262 168.345 13.1932V13.573C167.43 13.6445 167.558 13.8097 166.794 13.9527V14.5246C166.165 14.4174 166.225 14.3235 165.759 14.1448V14.5246H165.499V15.0964H165.759V14.7167H166.274V15.0964C166.704 15.0339 167.134 14.9714 167.564 14.9043V15.4762H168.078V14.9043C168.508 14.9669 168.938 15.0294 169.368 15.0964C169.489 14.6407 169.665 14.4977 169.883 14.1448C170.725 14.1493 171.748 14.0599 172.209 14.3369H172.469C172.554 14.2118 172.639 14.0823 172.729 13.9572H173.244V13.765H173.759V13.573L174.274 13.765V13.573H176.86C176.775 13.3809 176.69 13.1932 176.599 13.0011H177.114V12.8089H177.374V13.0011L178.15 13.1932C178.168 13.4612 178.21 13.2468 177.889 13.3853C178.18 13.5864 177.889 13.4702 178.404 13.5774V13.3853H178.664V12.8134H178.925C179.149 12.5498 179.118 12.4828 179.185 12.0495C179.797 12.0271 179.839 11.9914 180.221 11.8573V12.0495H180.481V12.2415L180.221 12.6213H180.996V12.2415C181.602 12.179 182.201 12.1165 182.807 12.0495V12.2415H183.067C183.358 12.0896 182.97 11.9914 183.327 12.0495V12.2415H184.363V12.6213H184.623C184.708 12.2416 184.793 11.8573 184.884 11.4776H185.399V11.8573H185.659V11.2855C186.253 11.3034 186.331 11.4463 186.695 11.4776L186.955 11.0978C186.955 11.0978 187.663 11.2765 187.991 11.2899V10.9102L188.251 11.1023C188.596 11.0398 188.941 10.9772 189.287 10.9102V11.1023H190.576V10.5304H191.091V10.7226H191.352V10.5304L191.866 10.7226L192.127 10.1507C192.811 9.96303 192.666 10.5662 193.162 10.5304V10.3383C194.295 10.1418 194.586 9.86921 195.748 9.76645V9.95853H195.488C194.997 10.1238 196.003 10.1507 196.003 10.1507C196.221 10.3651 195.972 10.1774 196.263 10.3428V9.96301L197.553 9.77092C197.638 9.64583 197.722 9.51622 197.813 9.39112L198.074 9.58326C199.606 9.65474 199.806 9.18565 200.66 8.8193V9.39112H200.92C201.217 9.1722 200.92 9.3152 201.435 9.19904V8.8193C201.695 8.88184 201.95 8.94436 202.21 9.01138L202.471 8.63163H203.506V8.43955H203.766C203.924 8.89526 203.851 8.79246 204.281 9.01138V8.43955C205.638 8.27871 205.426 8.4172 206.607 8.8193C206.74 8.37252 206.982 8.10446 207.382 7.86767C207.679 8.08659 207.382 7.94359 207.897 8.05975V7.68H208.672V7.30026C209.102 7.3628 209.532 7.42532 209.962 7.49234V7.87214H210.477V7.30026C211.04 7.32706 211.336 7.49234 211.512 7.49234V7.30026L212.287 7.10812C212.372 7.23322 212.457 7.36282 212.548 7.48792C213.371 7.66663 214.607 7.09028 215.134 6.91604L214.873 6.34416H215.648C215.806 6.79986 215.733 6.69712 216.163 6.91604C216.381 7.13049 216.133 6.94281 216.424 7.10812C216.442 6.60773 216.526 6.4603 216.684 6.15649C217.199 6.09394 217.72 6.03143 218.234 5.96441C218.452 6.17886 218.204 5.99119 218.495 6.15649C218.295 6.3486 218.18 6.34418 217.98 6.53629H218.755L218.495 5.96441L218.755 5.77227C219.137 5.86163 219.167 5.99122 219.791 5.96441V5.77227H220.051V5.96441C220.396 6.02696 220.741 6.08948 221.087 6.15649V6.34863C222.14 6.6435 222.619 6.21015 223.152 6.54076C223.957 6.93392 223.273 6.78647 223.667 7.30473L224.181 7.49681V7.87661H224.442C224.678 8.13574 224.635 8.21167 224.702 8.64058L223.667 8.44844C223.872 9.06499 224.145 9.10521 224.181 9.97195C223.891 10.1328 224.145 9.94964 223.921 10.1641H223.66C223.582 9.59222 223.624 9.64579 223.146 9.40007V9.5922H223.406C223.236 9.84686 223.061 10.1015 222.891 10.3562C222.219 10.3651 222.001 10.3964 221.601 10.5483V10.7404C221.159 10.8521 221.153 10.5617 221.087 10.5483C220.16 10.3741 219.573 10.7896 219.276 11.1202H219.015C218.931 11.4999 218.846 11.8841 218.755 12.2639H218.24L217.98 11.8842C217.635 11.9467 217.29 12.0092 216.944 12.0762C216.999 12.5275 217.053 12.5499 217.205 12.8403C216.605 12.8224 216.545 12.6883 216.169 12.6481L215.909 13.0279C215.564 13.0904 215.218 13.153 214.873 13.22C214.685 13.7472 214.801 13.6444 214.098 13.7919C213.19 14.395 212.427 13.5506 212.287 13.5997V13.7919C211.857 13.984 211.427 14.1716 210.997 14.3637C211.137 15.0294 211.252 14.7167 210.997 15.3153H211.258V15.1233H212.293V15.503L213.069 15.3109V15.1188L213.844 15.3109V14.739C214.104 14.8016 214.358 14.8641 214.619 14.9311V14.739L214.358 14.5469H215.909C215.994 14.739 216.078 14.9267 216.169 15.1188C216.339 15.0562 216.684 14.739 216.684 14.739C216.944 14.8016 217.199 14.8641 217.459 14.9311V14.739C217.841 14.5916 217.889 14.596 218.495 14.5469V14.1672H219.009V13.7874H220.045V14.1672C220.626 14.118 220.729 14.1493 221.081 13.975V13.7829H221.595V13.5908H222.11V13.3987C222.57 13.1262 222.728 12.9698 223.4 12.8268V13.3987H224.436C224.52 13.0815 224.605 12.7643 224.696 12.4471H225.211C225.126 12.6392 225.041 12.8269 224.95 13.019H225.211C225.58 12.7464 226.652 12.532 227.276 12.4471V12.0673C227.621 12.0048 227.966 11.9422 228.311 11.8752V11.3033H228.826V11.8752H229.341V11.3033H230.631C230.546 11.4954 230.461 11.6831 230.37 11.8752H230.885C231.152 11.6563 231.364 11.5089 231.921 11.4955V11.6875H232.181L232.442 11.4955C232.684 11.1514 232.799 11.1961 232.956 10.7314L233.732 10.5394V10.3472L233.992 10.5394L234.767 10.3472V10.9191H235.282C235.336 10.4679 235.391 10.4455 235.542 10.1551L236.057 10.3472V10.1551C236.427 9.91835 236.457 9.62791 236.832 9.39112C236.911 9.48048 237.359 10.0836 237.607 9.96301L237.868 9.39112C238.988 9.32858 240.109 9.26606 241.229 9.19904V9.39112C240.514 9.52962 240.654 9.44475 240.454 9.96301C241.096 9.87812 241.405 9.7888 242.265 9.77092V9.57879H242.004V8.62716C242.434 8.68971 242.864 8.75228 243.294 8.8193C243.379 8.62718 243.464 8.43953 243.554 8.24741C243.851 8.46633 243.657 8.2474 243.815 8.62716L244.59 8.8193V8.62716C245.123 8.41271 245.056 8.3323 245.88 8.24741V7.67553C246.431 7.65319 246.764 7.47898 246.915 7.48345L247.176 7.67553V7.29578L248.466 7.10365V7.48345C248.635 7.4209 248.811 7.35833 248.981 7.29131V7.09923C249.392 7.06349 249.302 7.42983 249.495 7.47898H250.531C250.616 7.16177 250.701 6.84456 250.791 6.52735C251.221 6.5899 251.651 6.65241 252.081 6.71943L252.342 6.33968H252.602V6.53182C252.863 6.46927 253.117 6.4067 253.377 6.33968V5.95994C253.674 6.17886 253.48 5.95993 253.638 6.33968H254.152C254.273 5.88397 254.449 5.74101 254.667 5.38805C255.527 5.39699 256.993 5.58019 256.993 5.58019V5.38805H257.507V5.19597H258.283C258.367 5.07088 258.452 4.94127 258.543 4.81617C258.803 4.87872 259.058 4.94129 259.318 5.00831V5.20044H260.608V4.82064L261.644 4.62856V5.00831H262.158C262.322 5.53103 262.498 5.44168 262.673 5.95994H263.448C263.636 6.48713 263.521 6.38438 264.224 6.53182V6.91157C262.679 7.14389 262.885 7.67553 262.413 8.62716H263.963L264.224 7.86319C265.302 7.74257 264.956 7.67556 266.034 7.48345V7.86319C267.258 7.48344 267.076 7.48344 268.099 7.86319V7.48345C268.445 7.4209 268.79 7.35833 269.135 7.29131V6.91157H269.65V7.10365H269.91V6.91157C270.498 6.82668 270.607 7.00983 270.946 7.10365V6.91157H270.685C270.207 6.72839 271.2 6.71943 271.2 6.71943V6.33968H271.715V5.95994C272.526 6.07163 272.866 6.2682 273.78 6.33968L274.04 5.7678C274.04 5.7678 273.489 5.73656 273.78 5.57572H274.295V5.7678H275.845V5.19597C276.669 5.32107 276.354 5.47743 276.62 5.57572C277.05 5.54444 277.099 5.20044 277.135 5.19597C277.632 5.09321 277.492 5.32104 277.65 5.38805H277.91V5.19597C278.255 5.25852 278.601 5.32104 278.946 5.38805C279.134 4.86086 279.018 4.96361 279.721 4.81617V5.19597H280.757C280.999 4.85196 281.114 4.8966 281.271 4.43195L282.046 4.62409V4.43195C282.216 4.36941 282.392 4.30689 282.561 4.23987V4.61962H283.076L282.816 4.04774C283.433 3.95838 283.627 3.82883 284.105 3.66799V4.43195C285.45 4.17283 285.026 4.01202 286.691 4.23987V3.66799H287.466V3.86013C287.357 3.97182 287.043 3.88692 287.206 4.23987H287.466C287.884 3.06039 288.018 3.91816 289.017 3.47585C289.604 3.21672 288.999 2.77442 290.307 2.52422V2.71636L291.082 2.52422V2.90402H291.342V2.52422C292.257 2.59571 292.13 2.76106 292.893 2.90402V3.28377C293.135 3.58311 294.74 3.63672 293.928 4.2354H294.443V4.99936L293.928 5.1915C293.916 5.25405 294.171 5.61592 294.189 5.95547H294.703C294.582 6.41117 294.407 6.55414 294.189 6.90709C293.728 6.92496 293.256 7.10817 293.153 7.09923V6.90709H292.118V7.09923L290.567 7.29131V7.67106C290.222 7.79615 289.877 7.92571 289.532 8.0508V7.85872H289.271V8.43061L287.46 8.81035C287.757 9.02927 287.46 8.88627 287.975 9.00243V9.19457C288.429 9.35094 288.805 9.08285 289.011 9.00243V8.81035H289.786V8.43061C290.991 8.38593 291.258 8.15359 292.112 7.85872V7.66659H293.922V7.85872H293.662C293.365 8.07764 293.662 7.93464 293.147 8.0508V8.43061C294.201 8.20722 293.42 8.25635 293.922 7.85872L294.437 8.0508V7.85872H294.952V7.66659H295.727C295.999 7.55043 296.369 6.72391 297.017 6.90262V7.09476H297.532V6.52288C297.792 6.58542 298.046 6.64794 298.307 6.71496V6.52288C298.822 6.46033 299.342 6.39776 299.857 6.33074V6.71049H300.372C300.457 6.9026 300.541 7.09026 300.632 7.28237H300.893V6.90262H301.407C301.559 6.19225 301.559 6.46481 301.407 5.75891C301.486 5.78125 303.896 6.1744 303.993 6.13866V5.94652H304.254V5.18256H304.514C305.041 5.53104 305.689 5.23617 306.579 5.18256V4.80281C307.1 4.91004 306.803 4.78044 307.094 4.99489C308.045 4.79384 307.803 4.61068 308.384 4.23093V4.03879C309.038 3.73945 310.425 4.02539 311.485 4.03879C311.648 3.51607 311.824 3.60542 311.999 3.08716C313.108 3.05589 312.884 2.96654 313.55 2.70742V3.2793H314.585C314.64 2.82806 314.694 2.80574 314.846 2.51533L315.621 2.70742L315.881 2.32767H316.396V2.13553C316.656 2.07299 316.911 2.01047 317.171 1.94345L317.432 2.51533C318.086 2.12664 317.541 2.05515 318.722 1.94345V2.13553C318.425 2.30978 318.419 2.27408 318.207 2.51533H318.467V2.70742C319.006 2.49743 318.927 2.39915 319.757 2.32767C319.975 2.54212 319.727 2.3545 320.018 2.51981C319.715 2.88169 319.799 2.70297 319.242 2.89955V3.09163H319.757C319.672 3.47139 319.588 3.85564 319.497 4.2354H319.757V4.42748H319.497V4.80728C319.582 5.25406 319.666 5.69636 319.757 6.14313H319.497C319.279 6.36205 319.363 6.41118 318.982 6.52288V6.33074H318.722C318.552 6.52285 318.376 6.71051 318.207 6.90262H317.432L317.171 7.28237C316.826 7.34492 316.481 7.40749 316.136 7.4745C316.051 7.66662 315.966 7.85427 315.875 8.04639L315.1 8.23847L314.84 8.61822H314.579V8.42613C313.628 8.26083 313.332 9.07392 312.768 8.61822V8.99802H312.254C312.339 9.25268 312.423 9.50732 312.514 9.76198H312.254C311.963 10.0881 312.09 10.0211 311.479 10.1417C311.454 10.1015 311.109 9.44922 310.964 9.56984V9.76198L310.449 9.95406C310.364 10.1462 310.279 10.3338 310.189 10.5259H309.413C308.547 10.8387 309.074 11.0308 307.603 11.0978C307.687 11.2899 307.772 11.4776 307.863 11.6697C308.208 11.6072 308.554 11.5446 308.899 11.4776V12.0495H309.159V11.8573H310.195C310.982 11.6384 311.345 11.3257 312.52 11.2855V10.9057C313.253 10.7851 313.205 10.5528 313.295 10.5259H314.331V10.7181L315.367 10.5259C315.367 10.5259 315.482 10.7628 315.881 10.7181V10.5259L316.917 10.7181V10.5259C317.214 10.307 317.02 10.526 317.177 10.1462H316.917V10.3383C316.693 10.7002 316.656 9.95853 316.656 9.95853C317.601 10.0211 318.552 10.0837 319.497 10.1507L319.757 9.77092C320.018 9.71284 320.229 10.0658 320.793 9.96301V9.77092H322.083V9.96301H322.343V9.77092H323.379L323.639 9.19904H323.9L323.639 8.8193H324.414C324.711 9.03821 324.414 8.89522 324.929 9.01138V8.63163C325.547 8.72099 325.74 8.85054 326.219 9.01138V8.8193H325.958C325.48 8.63612 326.473 8.62716 326.473 8.62716V8.8193C326.77 9.03821 326.576 8.81928 326.734 9.19904C327.285 9.1767 327.612 9.00691 327.769 9.00691V9.19904H328.284C328.357 8.85949 328.544 8.8193 328.544 8.8193C328.46 8.62718 328.375 8.43953 328.284 8.24741H328.544V8.05528C329.277 8.29653 329.61 8.54674 330.609 8.62716V8.24741C332.117 7.99275 330.755 7.7649 332.16 8.24741V7.48345H332.42V7.67553C332.765 7.48342 333.111 7.29576 333.456 7.10365V7.86767H333.716C333.843 7.77831 333.644 7.55937 333.977 7.67553V7.86767H334.237C334.237 7.86767 334.164 8.55122 334.498 8.24741V8.05528C334.794 7.83636 334.6 8.05529 334.758 7.67553H333.983C334.183 7.10366 334.14 7.17513 335.018 7.10365V7.29578L335.793 7.10365V7.29578H336.569V7.48792C337.235 7.59068 337.986 6.89368 338.379 6.7239L339.155 6.91604V6.7239C339.585 6.51839 339.584 6.46478 340.19 6.34416C340.105 6.53627 340.021 6.72393 339.93 6.91604H340.19V7.10812C340.451 6.98302 340.705 6.85347 340.965 6.72837V6.53629H341.48C341.946 6.38439 342.043 6.10288 342.255 5.77227C342.685 6.02693 343.115 6.28163 343.545 6.53629C343.703 6.161 343.557 6.07163 344.06 5.96441C344.145 5.98675 344.139 6.32182 344.575 6.34416C345.126 5.80356 344.805 5.95991 345.61 6.15202C345.695 5.53547 345.846 5.59361 346.125 5.20044C347.027 5.3032 346.603 5.38809 347.415 5.20044V6.34416H347.675C347.966 6.01801 347.839 6.08504 348.45 5.96441C348.935 6.56309 349.407 6.50502 349.486 7.48792C350.195 7.51026 351.357 7.75152 351.551 7.48792H351.812V7.68C352.526 7.8051 353.338 8.21166 353.622 8.63163V9.20351H353.883C354.24 9.55646 354.482 9.64582 354.658 10.1551C354.397 10.0926 354.143 10.03 353.883 9.96301V10.1551H354.143V10.727H354.404C354.64 11.0085 354.634 11.1961 354.664 11.6787C354.367 11.8976 354.561 11.6786 354.404 12.0584C353.544 12.1209 352.684 12.1835 351.818 12.2505V11.8707C351.472 11.9333 351.127 11.9959 350.782 12.0629V11.6831C350.612 11.7456 350.437 11.8082 350.267 11.8752C350.182 11.7501 350.098 11.6206 350.007 11.4955C350.001 11.4955 349.244 11.7546 348.717 11.4955L348.456 10.9236C348.154 10.7672 348.014 11.482 347.421 11.3033V11.1112C347.124 10.8923 347.318 11.1112 347.161 10.7314L346.385 10.9236V10.7314H346.125C346.21 10.5393 346.295 10.3517 346.385 10.1596C346.385 10.1596 346.064 10.1015 346.125 9.77987C346.125 9.77987 346.555 9.69494 346.385 9.40007H346.125C345.828 9.61899 346.125 9.47604 345.61 9.5922C345.525 9.78432 345.441 9.97197 345.35 10.1641C344.744 10.1105 344.708 10.1015 344.314 9.97195V9.77987C343.878 9.80221 343.878 10.1417 343.799 10.1596C343.212 10.3115 342.758 9.9228 342.51 9.96748V10.1596C341.631 10.4187 341.438 10.7538 340.444 10.9236C340.529 10.7315 340.614 10.5438 340.705 10.3517H340.19C339.809 10.87 339.397 11.2229 338.379 11.3033V10.7314H338.119C337.919 11.3033 337.962 11.2318 337.083 11.3033V10.9236C336.005 11.3569 335.86 11.3123 334.498 11.1157V10.7359H334.237C334.219 11.4731 334.279 11.5222 333.462 11.6875V11.8797C333.214 12.2326 333.201 11.4999 333.201 11.4999H332.687C332.602 11.625 332.517 11.7546 332.426 11.8797C331.996 11.8171 331.566 11.7546 331.136 11.6875V12.0673H330.361V12.2594C330.064 12.4783 330.258 12.2594 330.101 12.6392L328.55 12.8313V12.4516L325.965 12.6436V13.0234H325.189V13.2155C324.959 13.5729 324.929 12.8358 324.929 12.8358C324.099 12.9832 324.372 13.1217 323.379 13.2155V13.7874C321.853 13.6712 321.968 13.1127 320.278 13.0234C320.272 13.6578 320.145 13.8857 320.018 14.3593H319.503C319.582 14.194 319.999 13.9393 319.763 13.5953H319.503V13.7874C319.206 14.0063 319.4 13.7874 319.242 14.1672L317.692 14.3593V14.739C316.826 14.6229 316.063 14.2163 315.106 14.5469C314.937 14.739 314.761 14.9267 314.591 15.1188C313.889 15.2707 313.792 14.605 313.556 14.5469C313.089 14.4307 313.368 14.7613 313.295 14.9266C313.035 14.8641 312.781 14.8016 312.52 14.7346V15.4985H312.005L311.745 15.8783C311.321 15.9721 311.267 15.6907 311.23 15.6862C310.606 15.6058 310.558 15.8783 310.195 15.8783V15.6862C309.68 15.6236 309.159 15.5611 308.644 15.4941V15.8738C306.93 16.0078 306.058 16.0391 304.769 15.8738L304.508 16.4457C304.024 16.3519 303.273 16.3653 302.443 16.2536V16.0615C302.74 15.8426 302.546 16.0615 302.703 15.6817C302.086 15.6996 302.061 15.8068 301.668 15.8738V15.6817C301.238 15.4762 301.244 15.4092 300.632 15.302V14.9222H300.118C300.033 14.7301 299.948 14.5425 299.857 14.3503L298.307 14.1582V13.7785C298.513 13.841 299.118 14.1671 299.597 13.9705V13.7785C298.834 13.4121 298.967 13.019 299.082 12.4426C299.427 12.3175 299.433 12.1433 299.597 12.0629C299.766 12.1254 299.942 12.1879 300.111 12.255V11.491H300.372C300.287 11.1112 300.202 10.727 300.111 10.3472C299.851 10.2847 299.597 10.2222 299.336 10.1551C299.421 10.2802 299.506 10.4098 299.597 10.5349L298.821 10.3428V10.7226H298.561C298.476 10.8476 298.392 10.9772 298.301 11.1023H297.526C297.586 11.5446 297.81 11.2185 297.526 11.6742L297.011 11.482V11.8618C296.732 12.1969 296.75 11.482 296.75 11.482C296.32 11.5446 295.89 11.6072 295.46 11.6742C295.46 11.6742 295.339 11.3882 294.946 11.482C294.861 11.6071 294.776 11.7367 294.685 11.8618H293.91C293.825 12.0539 293.74 12.2416 293.65 12.4337C293.25 12.2773 292.505 11.7456 291.839 11.8618C291.754 11.9869 291.669 12.1164 291.579 12.2415C291.082 12.2058 291.149 11.8707 291.064 11.8618H290.803V12.0539H289.513V12.246H290.028C289.943 12.6258 289.859 13.01 289.768 13.3898H289.253C289.017 13.3138 289.083 12.809 288.217 13.01L287.957 13.3898H286.667V13.1976C286.292 13.0457 286.231 13.0636 285.631 13.0056V13.5774C285.371 13.5149 285.117 13.4523 284.856 13.3853V13.5774C284.56 13.7964 284.753 13.5774 284.596 13.9572C283.633 14.1582 283.9 14.3503 283.306 14.7212V14.9133H282.531V14.3414H282.016V14.7212H280.726V14.529H280.466C280.296 14.7837 280.121 15.0384 279.951 15.293L279.436 15.1009V15.293L278.661 15.6728V15.1009H278.401V15.293L277.625 15.1009V15.293C277.262 15.2796 277.728 15.1322 277.365 15.1009L275.815 15.293V15.8649H275.554V15.6728C274.852 15.3958 274.289 15.9408 274.004 16.0525C273.859 15.4538 273.75 15.2528 272.968 15.1009C273.114 15.5655 273.241 15.5209 273.483 15.8649H272.968C272.557 16.1464 271.448 16.0749 270.643 16.057V15.6773H270.128V16.057C269.613 15.9944 269.093 15.9319 268.578 15.8649C268.451 15.4137 268.336 15.4136 268.063 15.1009C268.414 14.8775 268.317 15.2439 268.578 14.9088C268.239 14.7524 268.275 14.7747 268.063 14.529H268.578C268.632 14.0778 268.687 14.0555 268.838 13.765C268.105 13.64 267.863 13.4121 267.548 13.0011H268.324C268.493 12.4918 268.669 11.9824 268.838 11.4776C268.499 11.3212 268.535 11.3436 268.324 11.0978C267.772 11.3301 267.76 11.5267 267.034 11.6697V11.2899H266.773V11.8618C265.768 11.9243 265.61 12.1701 264.962 12.4337C264.908 11.9824 264.853 11.9601 264.702 11.6697C264.411 11.8305 264.666 11.6473 264.442 11.8618H264.181L264.442 12.0539L264.181 12.6258C263.085 12.4873 262.94 12.5945 261.595 12.6258L261.856 13.1976H261.595C261.383 13.4478 261.414 13.4211 261.081 13.5774V12.8134C259.766 12.867 259.942 13.153 258.495 13.1932C258.301 13.841 257.944 14.0733 256.944 14.1448V13.765H256.684V13.9572C256.46 14.3191 256.423 13.5774 256.423 13.5774C256.163 13.5149 255.909 13.4523 255.648 13.3853L255.909 13.765H255.394C254.982 14.0465 254.758 14.4218 254.619 14.9088H253.844V14.529C252.184 14.5737 251.766 15.226 250.483 15.4806C250.646 14.9579 250.822 15.0473 250.997 14.529C249.344 14.7971 248.169 15.637 247.121 14.3369C248.284 13.8365 247.672 13.6265 247.382 12.8134H246.346C246.128 12.599 246.377 12.7866 246.086 12.6213C246.165 12.456 246.582 12.2013 246.346 11.8573H246.086V11.6652H245.311C244.875 12.1924 244.202 12.0494 243.76 12.4292L243.5 13.0011H242.725V13.1932C242.464 13.2557 242.21 13.3183 241.95 13.3853V13.0056C241.144 13.1351 240.775 13.5774 240.139 13.7695H239.103V13.9617C238.843 13.8991 238.589 13.8365 238.328 13.7695V14.1493L236.778 14.3414V14.5335H235.742C235.657 14.5469 235.676 14.7971 235.227 14.7256V14.5335H234.713V14.3414L232.902 14.1493C232.714 14.4173 232.436 14.7256 232.127 14.9133V14.1493H231.866V14.529C231.606 14.4665 231.352 14.4039 231.091 14.3369C230.97 14.7837 230.661 14.9267 230.576 15.2886H230.837C230.922 15.4807 231.006 15.6683 231.097 15.8604C229.626 15.8738 229.474 15.6594 228.511 15.4806C228.13 15.9989 227.718 16.3519 226.701 16.4323V16.0525H226.186V16.8165H225.671V17.0086H223.86V17.2008H223.346V17.3928C223.176 17.3303 223 17.2678 222.831 17.2008V17.3928H222.57C222.189 17.165 222.788 17.2544 222.31 17.0131C222.34 17.6162 222.813 17.3705 222.049 17.585V17.2052C220.596 17.3348 221.214 17.6788 220.499 17.9692H219.984C219.9 18.1613 219.815 18.349 219.724 18.5411H218.434V18.3489C219.076 18.0005 218.767 18.2015 218.695 17.585H218.18V18.1569C215.933 18.1613 215.539 18.4875 213.529 18.5366V18.1569C213.184 18.282 212.838 18.4115 212.493 18.5366C212.578 18.7913 212.663 19.0459 212.754 19.3006C212.081 19.2693 211.869 19.2603 211.464 19.1084V18.9164L210.688 19.1084C210.646 19.104 210.598 18.8404 210.174 18.9164V19.1084H209.659V19.3006H209.144V19.4927C208.787 19.667 208.69 19.6267 208.109 19.6848V19.1129H207.848V19.305H206.558C206.383 19.3631 206.546 19.5508 205.783 19.6848C205.698 19.8769 205.614 20.0646 205.523 20.2567H205.783C206.165 20.489 204.844 20.4443 204.748 20.4488V20.2567C203.712 20.1316 202.682 20.002 201.647 19.8769C201.786 19.3453 201.847 19.859 201.647 19.305C201.368 19.4123 201.108 19.8188 200.611 19.6848V19.4927H200.351L200.611 19.1129H200.351C200.054 18.894 200.351 19.037 199.836 18.9208C199.751 18.7287 199.667 18.5411 199.576 18.3489H200.09C200.006 18.1568 199.921 17.9692 199.83 17.7771H200.09V17.9692C200.314 18.3311 200.351 17.5895 200.351 17.5895H200.611V17.3973C200.442 17.3348 200.266 17.2723 200.096 17.2052C200.181 17.0131 200.266 16.8255 200.357 16.6334H200.096V16.4412H200.872V16.2491C200.533 16.0928 200.569 16.1151 200.357 15.8693C200.799 15.6549 200.708 15.7487 200.872 15.2975L201.907 15.1054C201.937 15.092 202.307 14.3995 202.422 14.5335V14.9133H203.197C203.439 14.5693 203.554 14.6139 203.712 14.1493C203.361 13.9259 203.318 13.8008 203.197 13.3853H203.712V13.0056H204.227V12.8134C203.712 12.876 203.191 12.9385 202.676 13.0056V12.8134C202.337 12.8268 202.028 13.1396 201.386 13.0056V12.8134C200.872 12.7509 200.351 12.6884 199.836 12.6213V13.3853H199.321V13.765C199.061 13.64 198.807 13.5104 198.546 13.3853V13.0056L198.286 13.1976C197.989 13.4166 198.183 13.1977 198.025 13.5774H196.99V13.9572C196.475 13.8946 195.954 13.8321 195.439 13.765C195.355 14.0823 195.27 14.3995 195.179 14.7167C194.549 14.8239 194.61 14.9132 194.144 15.0964V14.9043C193.877 14.739 193.786 14.5737 193.629 14.3325C193.332 14.5514 193.526 14.3324 193.368 14.7122C192.854 14.7748 192.333 14.8373 191.818 14.9043V15.2841C191.206 15.3243 191.176 15.3645 190.782 15.4762V15.0964H191.043L190.782 14.5246H190.522V14.9043C190.352 14.8418 190.177 14.7792 190.007 14.7122C189.71 14.8641 189.904 15.1634 189.232 15.092C189.147 14.9669 189.062 14.8373 188.972 14.7122H188.711V15.092L187.936 15.2841C187.803 15.2573 187.779 14.8016 187.421 14.9043C187.161 15.159 186.907 15.4136 186.646 15.6683C186.386 15.6058 186.131 15.5432 185.871 15.4762V15.856H185.356V16.2357C185.066 16.0749 185.32 16.258 185.096 16.0436C184.817 15.8693 185.047 16.0749 184.835 15.8515H185.096V15.6594H184.321V15.8515H184.06V15.6594H183.285C183.2 15.5343 183.115 15.4047 183.025 15.2796C182.855 15.3422 182.68 15.4047 182.51 15.4718C182.159 15.5477 182.619 15.6772 182.249 15.6638V15.4718H181.735C181.729 16.0615 181.807 16.4546 181.995 16.8076H180.96V17.1873H180.699V16.6155H180.184L179.924 17.1873C179.633 17.0265 179.888 17.2097 179.664 16.9952H179.403L179.664 16.4234C179.403 16.4859 179.149 16.5484 178.888 16.6155V16.8076H178.374C178.289 16.9327 178.204 17.0622 178.113 17.1873H177.078V17.3794H176.817C176.69 17.2945 176.89 17.0712 176.557 17.1873L176.296 17.5671L175.006 17.7592V17.3794H174.746L174.486 17.7592H174.225L173.965 17.3794C173.608 17.2588 173.238 17.2856 172.929 17.1873C172.911 17.9245 172.972 17.9737 172.154 18.139V17.7592H171.639V18.139H170.349L169.835 19.0906H169.32V18.8985C169.235 18.8895 168.726 19.0683 168.284 19.0906C168.43 18.626 168.557 18.6706 168.799 18.3266H168.284L168.024 18.8985L166.213 18.7064C165.941 18.8047 166.025 19.1352 166.213 19.2782H165.698C165.474 19.4748 165.25 19.5419 164.923 19.658V19.0861C163.767 19.1576 164.172 19.2068 163.113 19.0861V19.2782C163.409 19.4971 163.215 19.2783 163.373 19.658H162.083C162.016 19.6491 161.998 19.4123 161.568 19.4659V19.658H161.053C160.969 19.8501 160.884 20.0377 160.793 20.2298C160.502 20.069 160.757 20.2522 160.533 20.0378C160.242 19.8769 160.496 20.0601 160.272 19.8456C160.611 19.6893 160.575 19.7116 160.787 19.4659H159.751C159.521 19.6669 159.297 19.7161 158.976 19.8456V20.0378L158.201 19.8456V20.0378C158.54 20.1941 158.504 20.1718 158.716 20.4175H158.201C157.898 20.1584 157.729 20.1271 157.166 20.0378V20.4175C156.681 20.2835 156.154 20.2298 155.355 20.2254C155.07 19.8277 154.937 19.8859 154.84 19.2738H154.325V18.894C154.035 19.0548 154.289 18.8717 154.065 19.0861H153.804V19.4659L153.29 19.658V20.2298H153.029C152.769 19.9752 152.514 19.7205 152.254 19.4659H151.994C151.655 19.0414 152.133 18.9342 151.479 18.5142C151.564 18.2596 151.648 18.0049 151.739 17.7503C151.739 17.7503 151.406 17.6565 151.479 17.3705H151.739V16.4189C151.739 16.4189 151.897 16.4189 152 16.0391C152.714 15.9006 152.575 15.9855 152.775 15.4673H153.29V15.6594L154.065 15.4673V15.0875L155.355 15.2796C155.542 14.7524 155.427 14.8552 156.13 14.7077V13.9438H156.39L156.13 13.564H156.39C156.608 13.3496 156.36 13.5372 156.651 13.3719V13.1798C156.899 12.8269 156.911 13.5596 156.911 13.5596L157.686 13.7516V13.5596H157.426C157.511 13.3674 157.595 13.1798 157.686 12.9877H159.237V13.1798C159.842 13.1173 160.442 13.0547 161.047 12.9877V12.6079H162.083V12.2282C161.199 12.2192 160.296 12.0986 159.757 12.036C159.588 12.2282 159.412 12.4158 159.243 12.6079L157.692 12.8C157.838 12.3354 157.965 12.3801 158.207 12.036H157.172V12.2282H157.432C157.729 12.5275 156.796 12.4069 156.657 12.4203V12.9921H156.396V13.1843C155.966 13.2468 155.536 13.3093 155.107 13.3764C155.191 13.0592 155.276 12.7419 155.367 12.4247C154.737 12.532 154.792 12.6213 154.331 12.8045V12.9966C153.817 12.8715 153.296 12.742 152.781 12.6169V12.8089C152.484 13.0279 152.678 12.8089 152.521 13.1887C152.097 13.2468 151.394 13.5864 151.231 13.5685V13.3764H150.455C150.098 13.3227 150.552 13.1262 150.195 13.1843L149.935 13.564H149.42L149.68 13.1843H149.42C149.123 13.4032 149.42 13.2602 148.905 13.3764V13.7561C148.475 13.8187 148.045 13.8812 147.615 13.9482C147.567 13.9393 147.53 13.6757 147.1 13.7561V13.9482H146.586V14.1403C146.331 14.1001 146.283 13.6265 146.071 13.7606C145.647 14.0197 146.355 14.1269 145.296 14.3325V14.9043H145.035V14.5246H144.775C144.69 14.6497 144.605 14.7792 144.514 14.9043H143.479C143.17 14.4888 142.91 14.2744 142.189 14.1403V14.3325H141.153L140.893 14.7122L140.118 14.5201V15.092H139.603C138.967 15.8917 139.028 15.3154 138.313 15.6638C138.398 15.7889 138.483 15.9185 138.574 16.0436C138.059 15.981 137.538 15.9185 137.023 15.8515C136.999 15.856 136.89 16.1821 136.508 16.2312V16.0391H135.473L135.212 15.847V16.0391C134.48 16.3876 134.456 16.5887 133.147 16.611C132.857 16.2848 132.984 16.3519 132.372 16.2312V16.611H131.857V16.4189C131.53 16.343 131.179 16.9595 131.082 16.9907C130.549 17.165 130.343 16.8255 130.047 16.7987V16.9907C129.532 17.0533 129.011 17.1159 128.496 17.1829L128.236 16.611C127.521 16.7495 127.661 16.6646 127.461 17.1829C126.686 17.2454 125.91 17.308 125.135 17.375L124.875 17.7548H123.064V17.9468C122.392 18.0943 121.859 17.9647 121.253 18.139C121.108 17.6743 120.981 17.719 120.739 17.375C120.448 17.5358 120.702 17.3526 120.478 17.5671C119.57 18.0407 120.418 18.2462 119.188 18.5187V18.7109H117.898L117.638 19.0906C117.063 19.2604 116.911 18.8538 116.602 18.8985V19.0906C116.088 19.1666 116.275 19.0057 116.088 18.8985H115.827V19.2782C115.567 19.2157 115.312 19.1531 115.052 19.0861V18.894L114.277 19.0861V18.894H113.241L112.981 18.5142C112.618 18.5142 112.86 18.4562 112.72 18.7064C112.399 18.4875 112.624 18.7063 112.46 18.3266H113.496V17.9468H112.46C112.218 17.6028 112.103 17.6475 111.945 17.1829H112.46C112.309 16.3966 112.181 16.2715 111.685 15.4673C111.346 15.5656 111.758 15.5432 111.424 15.6594H110.649V15.8515C111.17 15.9587 110.873 15.8291 111.164 16.0436C110.425 16.0257 110.056 16.0079 109.614 15.8515V16.0436C109.91 16.2625 109.717 16.0436 109.874 16.4234C108.608 16.4234 108.403 16.6423 107.549 16.8031V16.2312H107.288V16.4234H107.028L106.513 16.2312V16.8031H105.738V16.4234H105.477V16.8031H105.738V17.375C104.878 17.3705 104.569 17.2767 103.927 17.1829V17.5626C103.316 17.5403 103.273 17.5046 102.891 17.3705V17.5626C102.595 17.7815 102.789 17.5626 102.631 17.9424C101.269 17.8307 102.038 17.5314 100.82 17.7503V17.3705C100.409 17.3259 100.493 17.6967 100.306 17.7503C99.3366 18.0183 98.5374 17.8575 97.7198 17.7503V18.3222L97.205 18.13V18.3222C96.6842 18.6483 97.2292 18.6125 96.9446 18.894H96.6841C96.0603 18.206 94.2678 18.7778 93.0687 18.894V19.4659C92.5842 19.3676 91.6576 18.7823 91.2579 18.894V19.0861H90.9976V19.658C90.2224 19.7206 89.4472 19.7831 88.672 19.8501V20.2298H88.9325C88.8477 20.422 88.7628 20.6096 88.672 20.8017C88.0604 20.7794 88.018 20.7437 87.6365 20.6096V20.8017H87.3761V20.2298H86.8613V20.8017H86.6009V20.6096H85.5653V20.8017L85.0505 20.6096V20.8017C84.4813 20.9313 84.1967 20.8598 83.7607 20.9939V21.5657C82.4707 21.7087 82.4828 21.7355 81.4351 21.1859L81.1747 21.7578H80.1392V21.95C79.794 22.0125 79.4488 22.075 79.1036 22.142V21.7623H78.5888C78.4314 22.4325 78.3102 22.638 77.2988 22.7139V22.5218C77.5956 22.3029 77.4019 22.5218 77.5593 22.142C77.2141 22.0795 76.869 22.017 76.5238 21.95V21.7578C76.0332 21.6461 76.1664 21.8651 76.009 21.95L75.2338 21.7578V21.95H75.4941V22.7139H74.9795V22.3342C74.2709 22.638 74.5131 22.8033 73.4291 22.906C73.2414 23.4332 73.3564 23.3305 72.6539 23.4779C71.9575 24.0855 71.1459 23.9381 70.068 23.8576V23.4779H71.1035C71.0187 23.2858 70.934 23.0981 70.8432 22.906C70.4495 23.0177 70.4193 23.0535 69.8076 23.0981C69.7652 22.5799 69.7228 21.9499 69.2928 21.7623V21.5702C69.4805 21.3691 69.4927 21.7355 69.8076 21.3781H69.2928C68.8325 21.177 69.8076 21.1859 69.8076 21.1859C69.6623 20.7213 69.535 20.766 69.2928 20.422H70.068C70.2799 20.6722 70.2497 20.6454 70.5828 20.8017C69.953 19.801 69.6319 18.8761 71.8727 18.894C72.1694 19.1129 71.8727 18.97 72.3875 19.0861C72.4723 18.7689 72.557 18.4517 72.6478 18.1345H72.1332V18.5142H71.6184L71.8787 17.9424H71.6184C71.4246 18.3043 71.8001 18.139 71.358 18.3222C71.0188 18.0988 71.6667 18.0317 71.0975 17.9424V18.3222L70.5828 18.13V18.3222H70.8432C70.6736 18.5768 70.4979 18.8315 70.3283 19.0861H70.068V18.5142H69.8076V18.7064H69.0324C68.8629 18.8985 68.6872 19.0861 68.5176 19.2782H68.0029V19.4703H67.2277V19.6625H66.7129V19.8546C65.6713 20.1271 64.8902 19.591 64.3875 19.8546C63.685 20.1896 63.57 20.909 63.352 20.9983H61.0264C60.7297 20.7794 61.0263 20.9224 60.5116 20.8062V20.4265H60.2512C60.336 20.6811 60.4207 20.9358 60.5116 21.1904H60.2512C59.7607 21.5032 58.8826 21.3915 58.1862 21.5702V21.7623C57.8046 21.8517 57.1748 21.5568 57.1506 21.5702V21.95H55.8606C55.6002 22.3967 55.3458 22.839 55.0854 23.2858H54.8251V22.7139H54.3102C54.2557 23.1652 54.2013 23.1875 54.0499 23.4779C53.7592 23.3171 54.0136 23.5003 53.7895 23.2858C53.4928 23.0669 53.6864 23.2858 53.529 22.906C53.9711 22.6916 53.8803 22.7854 54.0438 22.3342H53.2686V23.4779C52.8386 23.4153 52.4087 23.3528 51.9788 23.2858V23.0937C52.2755 22.8748 52.0817 23.0937 52.2391 22.7139H51.7243L51.9848 22.3342H51.7243C51.4276 22.5531 51.7244 22.4101 51.2096 22.5263C51.143 22.8971 50.9552 22.8971 50.9491 22.906C50.5373 23.8442 51.1793 24.1257 49.6593 24.2419V23.8621C49.302 23.9559 49.09 23.9381 48.6237 24.0542V24.2463C48.3633 24.1838 48.1089 24.1213 47.8485 24.0542V24.2463H47.3337L47.5942 24.6261H46.0439V24.8182C46.3406 25.0371 46.1468 24.8182 46.3042 25.198C45.8864 25.1846 44.4935 25.0059 44.4935 25.0059C44.4087 25.131 44.324 25.2605 44.2331 25.3856C43.5306 25.6671 43.4094 25.4348 42.9431 25.3856V25.5778H42.4284L42.1679 25.9575C41.7379 26.0201 41.308 26.0826 40.8781 26.1496V26.3417C40.5329 26.2792 40.1877 26.2166 39.8425 26.1496C39.4125 26.2121 38.9825 26.2747 38.5525 26.3417V26.5339C37.7834 26.6947 37.5049 26.23 37.0023 26.1541V26.3462C36.7055 26.5651 36.8992 26.3462 36.7418 26.7259H35.7062L35.4458 26.5339C35.3126 26.5785 35.3731 26.8734 34.931 26.9136V26.7215L34.1558 26.5294V26.7215C33.8954 26.784 33.6412 26.8466 33.3808 26.9136V26.5339C32.9145 26.7126 32.9749 26.7974 32.3451 26.9136V27.2934H32.0847V26.7215C30.6313 26.7081 29.5231 26.2658 28.9841 25.5778L29.4988 25.3856C29.517 25.1176 29.2445 25.4661 29.2384 25.1935C29.3232 24.8763 29.408 24.5591 29.4988 24.2419H30.0136C29.4444 23.0535 30.6495 22.3922 30.7888 21.1904C31.5882 21.0832 32.5147 20.9983 33.629 20.9983V20.4265H34.4042C34.5798 19.868 34.6888 19.801 35.4398 19.6625V19.2827C36.9477 19.028 35.5852 18.8002 36.9901 19.2827V18.9029C37.5655 18.8225 37.8743 18.7198 38.28 18.5232V18.3311C38.7948 18.2953 38.4617 18.6215 38.7948 18.3311C39.0916 18.1121 38.8977 18.3311 39.0552 17.9513H39.57C39.8668 17.1784 40.0969 17.5716 40.6056 16.9997C41.1203 17.1248 41.6412 17.2543 42.1559 17.3794V17.1873H42.4163V16.4234C40.9326 16.4457 40.5207 16.5798 39.3156 16.4234C39.1702 17.0221 39.0612 17.2231 38.28 17.375V16.9952H37.7653V17.5671C37.2385 17.7726 36.7479 18.13 35.9546 18.139L35.6941 17.9468C34.7615 18.4651 35.7789 18.8359 33.8833 18.8985L34.1437 18.1345H33.629V18.3266H33.8894C33.9076 18.3936 33.4474 19.0146 33.3747 19.2782H32.8599V18.8985H32.3451V19.2782L32.0847 19.0861C31.57 19.2112 31.0491 19.3408 30.5344 19.4659C30.4496 19.591 30.3648 19.7205 30.274 19.8456C29.9348 19.9528 30.3285 19.7027 30.0136 19.6535C29.7532 19.7161 29.4988 19.7786 29.2384 19.8456V19.6535H28.4632V19.4614H28.2029V19.6535C28.2029 19.6535 27.4883 19.4793 27.1673 19.4614C26.9978 19.7786 26.8221 20.0958 26.6525 20.413C26.4284 20.355 26.0833 20.0467 25.617 20.221V20.413H25.3566V20.9849H25.0961V20.413H24.8357V21.177C24.8781 21.4451 25.1082 21.0966 25.0961 21.3691L24.8357 21.5613C24.3876 21.396 24.7449 21.5389 24.5753 21.1815H24.3148V21.5613L23.025 21.7534L23.2853 21.3736H23.025C22.6253 21.7042 22.5587 21.5612 21.9894 21.7534V21.9455C21.6079 22.0527 21.0023 21.9946 20.9539 21.7534H20.6933V22.3252H20.433V22.1331H20.1726V22.5129H19.6578V22.8926C19.0037 22.7407 18.059 22.8792 16.8176 22.8926C16.7328 23.3394 16.648 23.7817 16.5572 24.2285H16.0424V23.8487C15.6487 23.9604 15.6185 23.9962 15.0068 24.0408V24.6127C14.4921 24.7378 13.9712 24.8674 13.4564 24.9925V25.1846H12.9418V25.3767C11.6761 25.7296 11.3793 25.0818 10.6162 25.9486H10.3558L10.6162 26.1407C10.5314 26.3328 10.4467 26.5204 10.3558 26.7125C10.0107 26.65 9.66534 26.5875 9.32015 26.5204V27.0923C8.40569 27.1638 8.53298 27.3291 7.76992 27.4721V27.0923H7.50941V27.6642C6.99465 27.7267 6.47394 27.7893 5.95918 27.8563L5.69867 28.4282H5.18399C5.09921 28.6203 5.01432 28.8079 4.92348 29H4.66311V28.4282H4.40275L4.14238 28.8079L3.36719 28.6158V28.4237C2.86454 28.3299 3.02194 28.5309 2.85237 28.6158L1.81682 28.4237L2.07719 28.2316V28.0395H1.81682V27.4676H2.07719V27.2755H1.56252C1.55646 26.641 1.42918 26.4132 1.302 25.9396H0.787329C0.327072 25.7386 1.302 25.7475 1.302 25.7475C1.38678 25.5554 1.47168 25.3678 1.56252 25.1757C2.89484 25.2203 2.84026 25.5376 2.85237 24.4117C3.28235 24.3491 3.7124 24.2866 4.14238 24.2195V23.4556L4.91757 23.2634C5.21431 23.0445 4.91748 23.1875 5.43224 23.0714V23.4511H5.94706V23.0714C6.20747 23.1339 6.46184 23.1964 6.72224 23.2634V22.8837H6.46173L6.72224 22.3118H6.98261V22.1197H7.7578C7.75174 21.8517 7.81219 22.0661 7.49728 21.9276V21.7355H8.27247V21.5434H8.53298L8.79335 21.9231C9.6533 22.0482 10.5133 22.1778 11.3793 22.3029C11.4035 21.588 11.6154 21.4272 11.8939 20.967C12.1544 21.0296 12.4087 21.0921 12.6691 21.1592V20.7794H13.4443L13.184 21.1592H13.4443V20.967H13.9591C14.2438 20.8017 14.0741 20.5068 14.4738 20.3951C14.7039 20.5649 14.5708 20.7169 14.9886 20.7749C15.1582 20.5828 15.3339 20.3952 15.5035 20.2031H16.2785V20.0109H16.539V19.247H17.0537V19.6267C18.1559 19.5508 18.2226 19.2335 19.1189 19.0548C19.3248 18.4383 19.5972 18.3981 19.6335 17.5314H21.9591V17.7235L22.7343 17.5314V17.3392C23.1219 17.2633 23.0854 17.6788 23.249 17.719L24.0241 17.5269V17.9066H24.2847V17.5269C24.5753 17.3661 24.321 17.5492 24.545 17.3348L24.0302 17.5269V16.7629H24.2907V15.9989H25.5806L25.3202 16.5708H26.0954C26.5072 16.2 27.034 16.0615 27.3853 15.6192C27.6517 15.7845 27.7426 15.9498 27.9001 16.1911C28.1605 16.066 28.4149 15.9364 28.6753 15.8113V15.6192H29.1899L29.4503 15.2394C29.6199 15.302 29.7956 15.3645 29.9651 15.4315C30.3103 15.2394 29.6502 15.1098 30.2255 15.0518V15.2439C30.4859 15.3064 30.7403 15.369 31.0007 15.436V15.0562C30.7039 14.8373 30.8978 15.0562 30.7403 14.6765C31.4065 14.7658 31.8848 14.8596 32.8054 14.8686C33.1748 14.462 33.4837 14.4844 34.0954 14.2967L33.835 13.7249H34.8705V13.5327H35.1309V13.7249H35.6457V13.3451C37.1113 13.3138 36.6086 13.0502 37.4565 12.7732H38.492V12.5811C38.7888 12.3622 38.5949 12.5811 38.7524 12.2013H39.5276V12.5811H40.0424C40.2544 11.969 40.3451 12.0271 41.3323 12.0093V12.389C41.9379 12.1835 42.1741 11.9512 42.8826 11.8171V11.2452H43.3973V10.8655C44.7599 10.87 45.4383 10.6421 46.4981 10.4858C46.6858 11.0129 46.5707 10.9102 47.2732 11.0576C47.1885 10.8655 47.1036 10.6779 47.0127 10.4858H47.2732C47.5579 10.2177 48.1755 9.9273 48.5631 9.72179V9.52965H49.3383V9.72179H49.5987V10.2936H49.8592C49.9439 9.5341 50.1256 9.41347 51.149 9.34199V9.53412C51.4942 9.62348 51.0521 9.41347 51.4094 9.34199C52.445 9.21689 53.4746 9.08734 54.5101 8.96224C54.2497 8.36803 54.3648 8.67183 54.5101 8.01061C55.14 7.90338 55.0794 7.81404 55.5457 7.63086V7.823H55.8061C56.012 8.10447 55.5457 8.20275 55.5457 8.20275L55.8061 8.58249C56.3995 8.21614 56.1332 8.01064 57.0961 7.81853C57.1808 7.62642 57.2656 7.43876 57.3564 7.24665C58.0953 7.47003 58.5737 7.60852 59.682 7.62639C59.9424 7.24663 60.1968 6.86244 60.4572 6.48268H60.9718L61.2324 6.86243L63.0431 6.48268V6.29054H64.8538L65.1142 5.9108H65.629C65.7925 5.38807 65.9681 5.47743 66.1437 4.95917C66.4889 5.02172 66.8341 5.08424 67.1793 5.15125V4.95917C67.4639 4.7894 67.2339 4.99042 67.4398 4.76703H67.1793C66.9249 4.44982 67.5487 4.60623 67.6941 4.57495V4.38282C67.9545 4.44536 68.2089 4.50794 68.4693 4.57495C68.3845 4.70005 68.2996 4.8296 68.2087 4.9547H68.4693C69.2808 4.26667 69.9893 4.95467 71.0552 5.14678C71.2308 4.89659 71.3761 4.94128 71.5699 4.76703L71.3095 4.38729H71.8243V4.19521L72.339 4.00307C72.3753 3.73501 72.2845 4.03432 72.0786 3.81093L72.339 3.43119C73.211 3.56522 73.3322 3.8467 74.1497 4.00307V3.43119C74.8583 3.55182 74.7372 3.68137 75.4397 3.81093V3.2391C75.7244 3.30165 75.9484 3.57862 76.4753 3.43119V3.2391H77.2505V3.04697C77.7652 2.72976 78.2861 2.41255 78.8008 2.09534V1.71559H79.3155V1.90768C79.6728 1.96129 79.267 1.8675 79.5759 1.71559L80.0907 1.90768L79.8303 2.47956C81.2717 2.55998 82.0044 2.81912 82.9309 2.09981C82.4222 1.88536 82.3253 1.83177 82.1557 1.33585L82.9309 1.14371C83.0157 1.26881 83.1006 1.39836 83.1914 1.52346H83.7061V0.759492C84.2693 0.839912 84.4449 0.884578 84.7417 1.13924L86.292 0.759492L86.0317 0.379746H87.3215V0L87.4487 0.0446664ZM84.8688 2.90402V3.28377H85.1293V2.90402H84.8688ZM315.088 3.28377V3.66352H315.348V3.28377H315.088ZM85.644 3.85565V4.2354H85.9045V3.85565H85.644ZM82.0286 4.2354V4.61515H82.289V4.2354H82.0286ZM308.626 4.80728C308.923 5.0262 308.626 4.8832 309.141 4.99936C308.844 4.78045 309.141 4.92344 308.626 4.80728ZM288.217 4.99936C288.514 5.21828 288.217 5.07534 288.732 5.1915C288.435 4.97258 288.732 5.11553 288.217 4.99936ZM70.4011 5.57125C70.4253 6.21907 70.4011 6.26375 70.9159 6.52288V6.33074H70.6554V5.56677H70.395L70.4011 5.57125ZM284.342 5.76333C284.638 5.98225 284.342 5.8393 284.856 5.95547C284.56 5.73655 284.856 5.87949 284.342 5.76333ZM256.175 5.95099V6.33074H256.436V5.95099H256.175ZM274.264 6.14313L274.004 6.52288C274.004 6.52288 274.755 6.21908 274.519 6.14313H274.258H274.264ZM300.875 6.14313H301.389C301.171 6.35758 301.42 6.16991 301.129 6.33521V6.52735C300.832 6.30843 301.026 6.52736 300.868 6.1476L300.875 6.14313ZM72.2058 6.33521C72.5025 6.55413 72.2058 6.41119 72.7206 6.52735C72.4238 6.30843 72.7205 6.45137 72.2058 6.33521ZM217.162 6.52288V6.90262H217.423V6.52288H217.162ZM75.0521 7.28684V7.47898H74.7917C74.3012 7.64428 75.3065 7.67106 75.3065 7.67106C75.5245 7.45661 75.2762 7.64428 75.5669 7.47898C75.2701 7.26006 75.5668 7.403 75.0521 7.28684ZM273.489 7.28684V7.47898H273.229C272.738 7.64428 273.744 7.67106 273.744 7.67106C273.962 7.45661 273.713 7.64428 274.004 7.47898C273.707 7.26006 274.004 7.403 273.489 7.28684ZM339.633 7.28684V7.47898H339.372C338.882 7.64428 339.887 7.67106 339.887 7.67106C340.105 7.45661 339.857 7.64428 340.148 7.47898C339.851 7.26006 340.148 7.403 339.633 7.28684ZM166.516 7.47898V7.85872H166.776V7.47898H166.516ZM102.698 7.66659V8.04639H102.958V7.66659H102.698ZM168.842 7.66659V8.04639H169.102V7.66659H168.842ZM216.642 7.66659C217.078 8.07762 217.156 8.04639 217.156 8.04639C217.344 7.86321 216.708 7.71126 216.642 7.66659ZM282.791 7.66659C283.227 8.07762 283.306 8.04639 283.306 8.04639C283.494 7.86321 282.858 7.71126 282.791 7.66659ZM301.135 7.66659V8.04639H301.395V7.66659H301.135ZM348.935 7.66659C349.371 8.07762 349.45 8.04639 349.45 8.04639C349.637 7.86321 349.002 7.71126 348.935 7.66659ZM65.2292 8.0508H64.7146V8.24294H64.9749V8.43508H65.2353V8.05528L65.2292 8.0508ZM68.5903 9.19457H69.1052C69.0204 8.93991 68.9355 8.68527 68.8447 8.43061H68.5843V9.19457H68.5903ZM267.027 9.19457H267.542L267.282 8.43061H267.021V9.19457H267.027ZM333.171 9.19457H333.686L333.426 8.43061H333.165V9.19457H333.171ZM65.7501 8.81035V9.57432H66.0105V8.81035H65.7501ZM131.894 8.81035V9.57432H132.154V8.81035H131.894ZM264.187 8.81035V9.57432H264.448V8.81035H264.187ZM302.425 9.19457V9.76645H302.685C302.946 9.42244 303.255 9.19901 303.721 9.00243V8.81035H303.206C302.915 9.1365 303.042 9.06947 302.431 9.1901L302.425 9.19457ZM330.331 8.81035V9.57432H330.591V8.81035H330.331ZM182.28 9.00243V9.38223H182.54V9.00243H182.28ZM248.423 9.38223H248.938V9.1901C248.648 9.02926 248.902 9.21247 248.678 8.99802H248.417V9.37776L248.423 9.38223ZM103.988 9.19457V9.76645H104.248V9.19457H103.988ZM170.131 9.19457V9.76645H170.392V9.19457H170.131ZM283.306 9.95406C283.494 10.4813 283.379 10.3785 284.081 10.5259C284.245 10.0032 284.42 10.0926 284.596 9.57432H284.336C284.009 9.9362 284.075 9.89151 283.3 9.95406H283.306ZM285.631 9.57432V9.95406C286.31 9.94066 286.51 9.87814 286.921 9.76198V9.56984H285.631V9.57432ZM149.208 9.76645V10.3383H149.468V10.1462C149.759 9.98536 149.505 10.1685 149.729 9.95406L149.214 9.76198L149.208 9.76645ZM215.352 9.76645V10.3383H215.612V10.1462C215.903 9.98536 215.648 10.1685 215.872 9.95406L215.358 9.76198L215.352 9.76645ZM281.495 9.76645V10.3383H281.756V10.1462C282.046 9.98536 281.792 10.1685 282.016 9.95406L281.501 9.76198L281.495 9.76645ZM347.645 9.76645V10.3383H347.905V10.1462C348.196 9.98536 347.942 10.1685 348.166 9.95406L347.651 9.76198L347.645 9.76645ZM182.019 9.95406V10.3339H182.28V9.95406H182.019ZM301.91 9.95406C302.346 10.3651 302.425 10.3339 302.425 10.3339C302.613 10.1507 301.977 9.99874 301.91 9.95406ZM165.226 10.3383V10.9102H164.711V11.2899L165.226 11.0978L165.486 10.5259C165.777 10.3651 165.523 10.5483 165.747 10.3339H165.232L165.226 10.3383ZM176.078 10.3383V10.7181H176.339V10.3383H176.078ZM242.222 10.3383V10.7181H242.482V10.3383H242.222ZM282.791 10.7181H282.016V11.0978H282.531C282.773 10.7538 282.888 10.7985 283.046 10.3339H282.785V10.7136L282.791 10.7181ZM308.366 10.3383V10.7181H308.626V10.3383H308.366ZM143.782 11.0978V10.7181C143.491 10.8789 143.745 10.6957 143.521 10.9102H143.261C143.558 11.1291 143.261 10.9861 143.776 11.1023L143.782 11.0978ZM209.15 10.7181V11.2899H209.411C209.707 11.071 209.411 11.214 209.925 11.0978V10.7181H209.15ZM245.837 11.0978V10.7181H245.062V10.9102H245.323C245.62 11.1291 245.323 10.9861 245.837 11.1023V11.0978ZM276.069 11.0978V10.7181C275.778 10.8789 276.033 10.6957 275.809 10.9102H275.548C275.845 11.1291 275.548 10.9861 276.063 11.1023L276.069 11.0978ZM296.484 10.7181V11.0978C296.775 10.937 296.52 11.1201 296.744 10.9057H297.005C296.708 10.6868 297.005 10.8298 296.49 10.7136L296.484 10.7181ZM333.171 10.9102V11.2899H333.432V10.9102H333.171ZM162.125 11.6697H162.64C162.422 11.4553 162.67 11.6429 162.38 11.4776V11.0978H162.119V11.6697H162.125ZM89.2594 11.2899V11.6697H89.5199V11.2899H89.2594ZM155.409 11.2899V11.8618H155.67V11.2899H155.409ZM287.697 11.2899V11.6697H287.957V11.2899H287.697ZM338.083 11.2899C338.379 11.5088 338.186 11.29 338.343 11.6697H338.083V11.2899ZM353.846 11.2899V11.6697H354.107V11.2899H353.846ZM53.0869 11.482V11.8618H53.3474V11.482H53.0869ZM119.231 11.482V11.8618H119.491V11.482H119.231ZM251.524 11.482V11.8618H251.785V11.482H251.524ZM317.668 11.482V11.8618H317.928V11.482H317.668ZM135.255 11.6697C135.279 11.7099 135.624 12.3622 135.77 12.2415V12.0495H136.03C135.806 11.8529 135.582 11.7859 135.255 11.6697ZM201.913 12.6258H202.428V12.246H201.913L202.174 11.8663C201.913 11.8037 201.659 11.7412 201.399 11.6742V11.8663C201.75 12.0897 201.792 12.2147 201.913 12.6302V12.6258ZM133.705 11.8618L133.965 12.4337H134.225C134.068 11.978 134.141 12.0807 133.711 11.8618H133.705ZM199.848 11.8618C199.933 12.0539 200.018 12.2416 200.109 12.4337H200.369C200.212 11.978 200.284 12.0807 199.854 11.8618H199.848ZM204.76 11.8618H204.245C204.463 12.0762 204.215 11.8886 204.505 12.0539V12.246H204.766V11.8663L204.76 11.8618ZM306.821 12.6258H307.336V12.246H307.597C307.512 12.1209 307.427 11.9914 307.336 11.8663C307.046 12.0271 307.3 11.8439 307.076 12.0584H306.815V12.6302L306.821 12.6258ZM91.0702 12.0539C91.3669 12.2728 91.0702 12.1298 91.585 12.246C91.2882 12.0271 91.5849 12.1701 91.0702 12.0539ZM134.994 12.0539V12.6258H135.255V12.0539H134.994ZM201.138 12.0539V12.6258H201.399V12.0539H201.138ZM206.05 12.0539H205.535C205.753 12.2684 205.505 12.0807 205.795 12.246V12.4381H206.056V12.0584L206.05 12.0539ZM236.021 12.0539V12.6258H236.281V12.0539H236.021ZM302.17 12.0539V12.6258H302.431V12.0539H302.17ZM40.6842 12.2415V12.6213H40.9447V12.2415H40.6842ZM52.8265 12.2415V12.6213H53.0869V12.2415H52.8265ZM118.976 12.2415V12.6213H119.237V12.2415H118.976ZM136.284 12.6258V12.246C135.994 12.4068 136.248 12.2237 136.024 12.4381H135.764C136.06 12.6571 135.764 12.5141 136.278 12.6302L136.284 12.6258ZM185.12 12.2415V12.6213H185.38V12.2415H185.12ZM205.014 12.2415V13.3853H205.274V12.2415H205.014ZM238.086 12.2415V12.6213H238.346V12.2415H238.086ZM239.121 12.2415V12.6213H239.382V12.2415H239.121ZM251.264 12.2415V12.6213H251.524V12.2415H251.264ZM304.236 12.2415V12.6213H304.496V12.2415H304.236ZM305.271 12.2415V12.6213H305.532V12.2415H305.271ZM317.413 12.2415V12.6213H317.674V12.2415H317.413ZM46.3709 12.4337C46.6676 12.6526 46.3708 12.5096 46.8856 12.6258C46.5888 12.4069 46.8857 12.5498 46.3709 12.4337ZM112.515 12.4337C112.811 12.6526 112.514 12.5096 113.029 12.6258C112.733 12.4069 113.029 12.5498 112.515 12.4337ZM310.952 12.4337C311.248 12.6526 310.952 12.5096 311.467 12.6258C311.17 12.4069 311.466 12.5498 310.952 12.4337ZM130.858 12.8134L131.119 13.3853H131.379C131.222 12.9296 131.294 13.0323 130.864 12.8134H130.858ZM197.008 12.8134C197.093 13.0055 197.178 13.1932 197.268 13.3853H197.529C197.371 12.9296 197.444 13.0323 197.014 12.8134H197.008ZM213.801 13.0056V13.3853H214.062V13.0056H213.801ZM50.501 13.9572C50.3133 13.43 50.4284 13.5327 49.726 13.3853C49.8107 13.64 49.8955 13.8946 49.9863 14.1493H50.7615V14.3414C51.1249 14.3771 50.6646 14.2073 51.0219 14.1493H52.0574V13.3853C51.7667 13.2245 52.0211 13.4076 51.7971 13.1932H51.2822V13.3853H51.5428C51.6275 13.7293 50.9007 13.8857 50.5071 13.9572H50.501ZM84.0938 13.1976L83.8333 13.5774C83.8333 13.5774 84.5843 13.2736 84.3481 13.1976H84.0877H84.0938ZM282.531 13.1976L282.271 13.5774C282.271 13.5774 283.021 13.2736 282.785 13.1976H282.525H282.531ZM39.909 14.1493H40.4239V13.9572C40.1332 13.7963 40.3876 13.9795 40.1635 13.765H39.903V14.1448L39.909 14.1493ZM48.9508 13.7695V14.1493C49.2415 13.9884 48.9871 14.1716 49.2111 13.9572H49.4715C49.1748 13.7383 49.4716 13.8812 48.9568 13.765L48.9508 13.7695ZM106.053 14.1493H106.568V13.9572C106.277 13.7963 106.531 13.9795 106.307 13.765H106.047V14.1448L106.053 14.1493ZM115.101 13.7695V14.1493C115.391 13.9884 115.137 14.1716 115.361 13.9572H115.621C115.324 13.7383 115.621 13.8812 115.107 13.765L115.101 13.7695ZM181.244 13.7695V14.1493C181.535 13.9884 181.28 14.1716 181.505 13.9572H181.765C181.468 13.7383 181.765 13.8812 181.25 13.765L181.244 13.7695ZM304.496 14.1493H305.011V13.9572C304.72 13.7963 304.974 13.9795 304.75 13.765H304.49V14.1448L304.496 14.1493ZM313.538 13.7695V14.1493C313.828 13.9884 313.574 14.1716 313.798 13.9572H314.058C313.762 13.7383 314.058 13.8812 313.544 13.765L313.538 13.7695ZM44.8205 14.9133V14.5335L44.0453 14.7256L44.3057 15.4896H44.0453V15.6817C43.4397 15.7443 42.8402 15.8068 42.2346 15.8738V16.2536C42.5737 16.2893 43.8394 16.4859 44.0453 16.4457L44.3057 16.0659L45.0809 16.2581C45.1657 15.9409 45.2506 15.6237 45.3414 15.3064H45.6018C45.8985 15.0875 45.6017 15.2305 46.1164 15.1143V15.4941H47.4065V15.1143H47.9211C47.7516 14.7346 47.576 14.3503 47.4065 13.9705H47.1461L46.8856 14.5424C46.5162 14.7345 45.3958 14.8864 44.8205 14.9222V14.9133ZM74.0165 13.9572V14.529H74.2769V13.9572H74.0165ZM39.3944 14.3414V14.7212H39.6547V14.3414H39.3944ZM79.7032 14.3414V14.7212H79.9635V14.3414H79.7032ZM105.538 14.3414V14.7212H105.798V14.3414H105.538ZM171.682 14.3414V14.7212H171.942V14.3414H171.682ZM248.423 14.3414C248.72 14.5603 248.423 14.4173 248.938 14.5335C248.641 14.3146 248.938 14.4576 248.423 14.3414ZM278.14 14.3414V14.7212H278.401V14.3414H278.14ZM303.975 14.3414V14.7212H304.236V14.3414H303.975ZM69.1052 14.529C69.4019 14.7479 69.2081 14.5291 69.3655 14.9088H69.1052V14.529ZM134.994 14.7212C135.285 15.0473 135.158 14.9803 135.77 15.1009C135.546 14.9043 135.321 14.8373 134.994 14.7212ZM164.451 15.1009H164.966V14.9088C164.675 14.748 164.929 14.9311 164.705 14.7167H164.445V15.0964L164.451 15.1009ZM68.5903 14.9133H69.1052V15.1054C68.5844 14.9981 68.881 15.1277 68.5903 14.9133ZM140.681 14.9133C140.978 15.1322 140.784 14.9133 140.941 15.293H140.681V14.9133ZM210.186 15.6728H209.671V14.9088H209.411V15.1009C209.114 15.3198 209.308 15.1009 209.15 15.4806C209.411 15.6057 209.665 15.7353 209.925 15.8604C210.143 16.0749 209.895 15.8872 210.186 16.0525V15.6728ZM138.356 15.1009V15.4806H138.616V15.1009H138.356ZM53.6017 15.4851V15.8649H53.8621V15.4851H53.6017ZM119.751 15.4851V15.8649H120.012V15.4851H119.751ZM176.854 15.6728C177.15 15.8917 176.853 15.7488 177.368 15.8649C177.072 15.646 177.368 15.7889 176.854 15.6728ZM85.1233 16.2447V15.8649C84.8326 16.0258 85.0868 15.8425 84.8628 16.057H84.6024C84.8991 16.2759 84.6024 16.133 85.1172 16.2491L85.1233 16.2447ZM217.417 16.2447V15.8649C217.126 16.0258 217.38 15.8425 217.156 16.057H216.896C217.193 16.2759 216.896 16.133 217.411 16.2491L217.417 16.2447ZM62.1286 16.6289V17.0086H62.389V16.6289H62.1286ZM67.3003 16.6289V17.0086H67.5609V16.6289H67.3003ZM47.9211 16.8165V17.1963H48.1816V16.8165H47.9211ZM68.5903 17.2008C68.5782 17.9737 68.4693 18.0228 69.1052 18.3445V18.1524C68.6691 17.7414 69.3049 17.232 69.6198 16.8165H69.3595C69.0688 17.1427 69.1959 17.0757 68.5843 17.1963L68.5903 17.2008ZM73.2413 16.8165C73.5381 17.0355 73.2414 16.8925 73.7561 17.0086C73.4594 16.7897 73.7561 16.9327 73.2413 16.8165ZM86.6736 16.8165C86.5889 17.0087 86.504 17.1963 86.4131 17.3884H86.6736V17.1963C86.7827 17.0846 87.0975 17.1695 86.934 16.8165H86.6736ZM114.065 16.8165V17.1963H114.325V16.8165H114.065ZM200.884 17.2008C200.872 17.9737 200.763 18.0228 201.399 18.3445V18.1524C200.963 17.7414 201.598 17.232 201.913 16.8165H201.653C201.362 17.1427 201.489 17.0757 200.878 17.1963L200.884 17.2008ZM205.535 16.8165C205.831 17.0355 205.535 16.8925 206.05 17.0086C205.753 16.7897 206.05 16.9327 205.535 16.8165ZM90.0346 17.0086V17.3884H90.2951V17.0086H90.0346ZM118.976 17.3884H119.491V17.1963C119.2 17.0355 119.455 17.2186 119.231 17.0042H118.97V17.3839L118.976 17.3884ZM156.184 17.0086V17.3884H156.445V17.0086H156.184ZM179.179 17.0086C179.476 17.2275 179.282 17.0086 179.44 17.3884H179.179V17.0086ZM122.331 17.2008C122.247 17.3259 122.162 17.4554 122.071 17.5805L122.586 17.7726C122.773 17.5447 122.041 17.6073 122.586 17.2008H122.325H122.331ZM90.5494 17.3884L90.2891 17.9603H90.5494V17.5805H90.8098V17.3884H90.5494ZM156.699 17.3884L156.439 17.7681C156.439 17.7681 157.19 17.4643 156.953 17.3884H156.693H156.699ZM21.0446 18.1524H21.5595V17.9603C21.2688 17.7994 21.523 17.9826 21.2989 17.7681H21.0386V18.1479L21.0446 18.1524ZM166.516 18.1524H166.001C166.219 18.3668 165.971 18.1792 166.262 18.3445V18.5366H166.522V18.1569L166.516 18.1524ZM29.8319 18.5321V18.9119H30.0923V18.5321H29.8319ZM67.04 18.5321V19.2961H67.3003V19.104H67.5609C67.4761 18.9789 67.3912 18.8493 67.3003 18.7242H67.5609C67.2641 18.5053 67.5608 18.6483 67.046 18.5321H67.04ZM162.125 18.5321V18.9119H162.386V18.5321H162.125ZM201.138 18.5321C200.841 18.7511 201.138 18.6081 200.623 18.7242V18.9164H201.138C201.223 18.7913 201.308 18.6617 201.399 18.5366H201.138V18.5321ZM80.7327 19.104L80.4722 19.4838C80.4722 19.4838 81.2232 19.18 80.987 19.104H80.7266H80.7327ZM70.9159 19.4882V19.868H71.1763V19.4882H70.9159ZM76.6024 19.4882V19.868H76.8628V19.4882H76.6024ZM64.4541 19.868H64.9689C64.7569 20.1182 64.7871 20.0914 64.4541 20.2477V20.4399H64.1937L64.4541 19.868ZM73.5018 19.868L73.2413 20.2477C73.2413 20.2477 73.9923 19.9439 73.7561 19.868H73.4958H73.5018ZM53.6017 20.6319V21.0117H53.8621V20.6319H53.6017ZM33.7077 21.5836V21.9633H33.9682V21.5836H33.7077ZM39.3944 21.7757V22.3475H40.4299V22.7273H41.2051C41.4171 22.4772 41.3867 22.5039 41.7198 22.3475V21.7757C40.6418 21.9142 40.6358 21.8249 39.3944 21.7757ZM18.4648 22.1555C18.7615 22.3744 18.4648 22.2314 18.9796 22.3475C18.6828 22.1286 18.9795 22.2716 18.4648 22.1555ZM71.9515 22.3475V22.7273H72.2118V22.3475H71.9515ZM7.86676 25.3946C7.78198 25.5867 7.69724 25.7743 7.6064 25.9664H7.86676V25.5866H8.12713V25.3946H7.86676ZM41.199 25.5866V25.9664H41.4594V25.5866H41.199Z" fill="#FDE6AD"/>
</svg>
