<svg width="282" height="196" fill="none" xmlns="http://www.w3.org/2000/svg"><path d="M101.946 60.099c33.447 6.381 88.933-17.979 129.919-4.428 34.205 11.308 45.683 26.604 48.944 54.295 1.994 16.901-7.399 50.704-33.577 63.956-38.782 19.634-68.08 6.233-92.034 13.312-44.177 13.063-100.161 10.091-131.514-12.115-36.398-25.776-25-77.498-4.039-96.753C37.377 62.083 64.85 53.02 101.938 60.09l.009.01Z" fill="#E4E4E4"/><path d="M49.394 102.616c4.967-2.732 11.409-3.988 13.772-.119 2.483 4.068-.13 7.398-.17 9.094-.06 2.652-1.864 5.963-2.872 9.034-.548 1.665-1.605 5.235-.708 6.691.09.139.09.668-.498.767-.578.1-6.672-.638-6.352-1.595.13-.389 0-.907-.08-1.346-.33-1.616-1.446-4.029-.658-7.618.797-3.59-1.736-1.705-3.341-1.416-2.453.438-2.334-3.241-2.583-6.063-.339-3.799.429-5.744 3.5-7.429h-.01Z" fill="#FFDBB0"/><path d="M58.988 123.417c-2.144-.17-5.475-.399-6.731-.768-1.257-.369-.47 1.097-.04 2.283.329.938.14 1.197-.26 2.234-.399 1.047 1.686 1.715 4.159 2.313 2.473.599 5.026-.03 4.378-.867-.658-.838-1.107-1.307-1.197-2.792-.09-1.536.888-2.304-.3-2.403h-.01Z" fill="#A2A2A2"/><path d="M59.665 127.306c1.396 1.675 2.323 1.127 3.081 2.941 1.536 3.71-1.735 5.225-5.315 4.498-2.503-.509-8.277-3.112-6.602-5.684.698-1.077 1.237-2.972 1.566-2.692 1.286.937 3.57 1.894 5.136 1.784 1.236-.079 1.894-1.206 2.134-.857v.01Z" fill="#003F67"/><path d="M52.975 110.553c.847-4.008.528-5.963-1.297-7.339-.598-.448-2.034-5.763-2.273-6.62-2.095-2.125-24.622-1.666-25.908.986-2.623 4.368-4.687 7.06-3.9 12.953.868 6.412 6.273 9.284 9.255 9.603 9.593 1.017 14.2-1.905 16.274-3.48 2.723-2.074 7.08-2.453 7.849-6.103Z" fill="#A2A2A2"/><path d="M65.109 86.313c1.446 1.077 7.19 6.391 7.997 6.372.808-.02 3.84-.03 4.857.528 1.785.967-.549 2.054-.14 2.882.399.827 2.074 2.174 2.443 3.11.37.938-.907 1.108-1.655 1.606-.748.489.808 1.765-.05 2.224-.588.309-2.084-.229-2.463.718s-.708 1.047-1.665.618c-.958-.429-1.297-1.007-2.164-.808-.878.2-1.038-.04-1.556-.678-.519-.638-.907-2.812-1.376-4.656-.469-1.835-5.226-1.666-9.554-5.804-1.535-1.475 3.221-7.678 5.326-6.112Z" fill="#FFDBB0"/><path d="M52.485 102.865c.967-2.722-.23-3.958.399-5.404.887-2.025 1.087-9.334 4.667-5.455 1.705 1.845 4.767-.777 5.594-1.505 4.837-4.238 2.035-5.624.36-7.798-1.297-1.685-3.022-3.25-4.508-6.222-.37-.738-1.995-2.014-4.248-3.29-.828-.46-6.034-1.955-8.218-3.162-2.124-1.166-5.295-.857-9.304 1.456-3.33 1.925-6.581 6.192-7.509 8.336-1.924 4.457-1.605 6.87-4.318 11.098-1.655 2.593-4.348 5.046-5.325 8.097-1.336 4.168 17.103 5.744 20.024 3.46 2.763-2.163 11.788 2.324 12.396.379l-.01.01Z" fill="#EE8084"/><path d="M58.497 95.805c-.509.519-1.297.579-1.736.14l-.927-.917c-.439-.44-.379-1.217.13-1.735l8.366-8.406c.509-.519 1.297-.579 1.736-.14l.927.918c.439.438.379 1.216-.13 1.735l-8.366 8.405Z" fill="#A2A2A2"/><path d="M74.752 81.347c-1.047 3.76-6.113 11.467-8.915 8.685l-4.139-4.118c-2.792-2.782 4.886-7.888 8.646-8.955l3.28-.937c.43-.12.938.05 1.237.35l.45.448c.298.299.478.808.358 1.236l-.917 3.28v.01ZM57.898 95.826l-1.944-1.935a1.33 1.33 0 0 0-1.865 0l-1.436 1.446a1.33 1.33 0 0 0 0 1.865l1.944 1.934a1.33 1.33 0 0 0 1.865 0l1.436-1.446a1.33 1.33 0 0 0 0-1.864Zm-1.894 2.283a.804.804 0 0 1-1.137 0l-1.187-1.186a.803.803 0 0 1 0-1.137l.878-.878a.804.804 0 0 1 1.136 0l1.187 1.187c.31.309.32.828 0 1.137l-.877.877Z" fill="#A2A2A2"/><path d="M66.314 86.96c.838-.837 1.167-1.864.738-2.283-.429-.418-1.446-.09-2.283.758-.14.14-.26.28-.37.429l-1.376 1.386 1.476 1.476 1.377-1.386c.14-.11.289-.23.428-.37l.01-.01Z" fill="#E4E4E4"/><path d="M45.007 69.85c1.725 3.44 4.697 5.345 7.31 5.585 2.612.239 5.136-.32 7.509-1.506 1.925-1.287 3.47-3.37 3.85-4.298.348-.847.508-1.885.478-2.882-.08-2.343 1.615-2.143.309-6.98-.399-1.465-3.051-8.286-10.062-9.313-6.173-.897-13.004 12.185-9.394 19.394Z" fill="#FFDBB0"/><path d="M66.527 57.815c-.08-1.027-1.406-3.57-3.48-4.657-2.573-1.336-2.384-3.25-5.246-4.068-3.979-1.147-8.018-.579-9.504.13-3.18 1.505-3.77 3.34-5.035 4.786-2.294 2.622-11.409 7.488-1.456 16.502.927.838 2.473.569 3.69-1.515 1.246-2.593-.34-3.012-.938-4.368-.608-1.386.778-3.67 2.204-2.423 1.186 1.027 1.785.36 3.62-2.204 2.243-3.13 15.018 7.29 16.135-2.183h.01Z" fill="#003F67"/><path d="M53.153 58.952c.888.23 1.516.767.928 1.326-.589.568-1.656 1.526-2.045 1.735-.389.22-.877.479-1.007-.778-.13-1.256-.2-1.366-.439-1.974-.239-.608-.299-.519-1.416-.618-1.117-.09-2.014-.11-2.173-.619-.15-.518.199-1.037 1.037-1.824.837-.788 1.446-1.745 1.735-1.008.289.738.508 1.636.558 2.075.05.438.31.957.948 1.166.638.21 1.246.429 1.864.509l.01.01Z" fill="#EE8084"/><path d="M51.657 57.894c.09.29.19.728-.369 1.187-.568.478-.977.668-1.216.548-.46-.229-.45-.349-.39-.847.06-.499.35-.758.938-1.057.588-.29.798-.14 1.037.16v.01Z" fill="#EE8084"/><path d="M46.52 81.975c1.605.808 8.207 5.026 8.994 4.866.788-.16 3.77-.698 4.877-.339 1.934.638-.18 2.114.369 2.862.538.738 2.423 1.775 2.952 2.632.538.858-.698 1.257-1.347 1.875-.648.618 1.107 1.596.34 2.194-.53.409-2.095.14-2.294 1.136-.21.998-.509 1.157-1.536.908-1.027-.25-1.446-.768-2.274-.419-.827.35-1.027.15-1.645-.389-.628-.538-1.386-2.612-2.174-4.337-.788-1.725-5.435-.718-10.421-4.029-1.775-1.176 1.825-8.127 4.169-6.95l-.01-.01Zm-6.781 20.332c5.196-2.263 11.727-2.931 13.722 1.137 2.104 4.278-.808 7.359-.997 9.044-.31 2.633-2.404 5.774-3.69 8.725-.698 1.616-2.074 5.066-1.316 6.601.07.15.03.678-.569.718-.588.05-6.582-1.246-6.183-2.164.16-.378.09-.897.04-1.346-.18-1.645-1.077-4.148.05-7.648 1.117-3.5-1.576-1.854-3.201-1.715-2.483.21-2.024-3.44-2.014-6.272.01-3.809.947-5.684 4.158-7.08Z" fill="#FFDBB0"/><path d="M47.387 123.895c-2.114-.369-5.415-.897-6.631-1.386-1.217-.489-.569 1.047-.25 2.274.25.967.03 1.196-.458 2.203-.499.997 1.526 1.855 3.929 2.683 2.403.827 5.016.428 4.438-.469-.579-.898-.988-1.406-.938-2.892.05-1.535 1.097-2.213-.08-2.413h-.01Z" fill="#A2A2A2"/><path d="M47.707 127.834c1.237 1.795 2.214 1.336 2.793 3.211 1.186 3.839-2.214 5.045-5.705 3.998-2.443-.738-7.958-3.849-6.053-6.262.798-1.007 1.496-2.852 1.805-2.532 1.197 1.056 3.38 2.213 4.947 2.253 1.236.03 1.994-1.027 2.203-.658l.01-.01Z" fill="#003F67"/><path d="M170.694 121.084c-.549-.409-.928-.868-1.057-1.596-.31-1.615-.23-4.367-2.174-7.179-1.945-2.812-1.626-2.423-3.461-4.866-1.835-2.443-2.293-4.148-2.582-6.99-.29-2.852-1.347-5.375-3.59-7.638-2.244-2.264-4.059-2.064-7.36-1.287-3.301.778-2.294 3.73-1.616 7.618.379 2.513.768 4.687 2.902 6.821 2.134 2.134 3.8 4.836 4.438 6.332.997 2.343 4.208 6.332 5.345 7.409 1.237 1.156 3.311 3.45 2.852 5.384-.09.359-.189.628-.299.838 3.002.259 5.594-1.905 6.602-4.826v-.02Z" fill="#FFDBB0"/><path d="M170.695 121.083c-1.017 2.932-3.6 5.086-6.602 4.826-.488.928-1.147.858-1.236 3.441-.14 4.148 3.32 3.799 6.063 1.306 1.914-1.745 5.824-7.04 3.5-8.496-.668-.419-1.247-.728-1.715-1.087l-.01.01Zm-36.469 4.039c-1.475 1.097-1.765-.249-3.709 2.104-2.553 3.111.419 5.494 4.058 5.664 2.553.12 8.786-.997 7.789-3.909-.419-1.217-.818-2.144-.868-2.991-2.632 1.067-4.956.468-7.279-.868h.009Z" fill="#003F67"/><path d="M148.015 95.018c-.458-3.48-9.653-1.795-11.398 4.757-.858 3.21-1.346 6.7-1.715 8.356-.589 2.592.269 7.169.508 10.39.13 1.755.369 5.424-1.146 6.571-.01 0-.02.02-.04.03 2.323 1.336 4.637 1.934 7.279.867-.02-.408.04-.807.23-1.216.708-1.496 2.393-3.56 2.493-7.239.1-3.68.129-3.121.11-6.432-.02-3.3.608-4.976 2.054-7.409 1.446-2.433 2.094-5.205 1.635-8.685l-.01.01Z" fill="#FFDBB0"/><path d="M136.52 69.511c2.104-1.126 9.624-.259 14.031-.349 4.278-.09 6.353.808 11.089.12 3.71-.538 2.334 3.52 5.734 12.295 2.254 5.793 8.726 14.26 6.383 15.954-2.344 1.695-7.938 3.73-10.9 2.613-2.962-1.117-3.909-1.446-7.619-.03-3.231 1.236-8.337-.798-12.425-1.546-3.411-.618-5.615-.548-8.367-.15-5.275.778-9.035-1.286-9.833-2.063-1.166-1.127-.688-6.083 4.298-12.036 4.987-5.953 4.927-12.424 7.609-14.818v.01Z" fill="#A2A2A2"/><path d="M137.178 30.723c-.748-1.636-7.808-9.782-7.758-10.58.05-.808.149-3.829-.369-4.876-.908-1.825-2.065.479-2.882.05-.818-.429-2.105-2.144-3.032-2.543-.927-.409-1.137.868-1.655 1.606-.519.737-1.735-.868-2.224-.02-.329.578.169 2.084-.798 2.433-.957.349-1.077.668-.678 1.645.399.977.967 1.326.738 2.194-.229.867 0 1.037.618 1.575.619.539 2.783.997 4.607 1.526 1.825.528 3.521 7.17 7.2 11.906 1.207 1.545 7.759-1.516 6.213-4.906l.02-.01Zm30.584 2.562c1.366-1.167 11.637-6.132 11.927-6.88.299-.748 1.476-3.54 2.393-4.268 1.596-1.266 1.675 1.306 2.593 1.256.917-.05 2.812-1.057 3.819-1.027 1.007.02.668 1.267.828 2.154.159.888 1.944-.05 2.024.918.06.668-1.027 1.824-.309 2.542.728.718.688 1.067-.08 1.775-.768.718-1.436.788-1.595 1.675-.16.878-.439.938-1.227 1.167-.788.23-2.942-.27-4.816-.558-1.875-.29-7.839 6.052-13.174 8.784-1.745.898-5.205-5.125-2.383-7.538Z" fill="#FFDBB0"/><path d="M163.435 51.373c-.609-2.982 4.208-5.494 10.281-9.832 2.683-1.915 1.127-4.188-.259-5.913-3.191-3.989-3.481-5.514-6.003-3.73-1.766 1.247-3.62 1.955-7.28 2.723-4.039.847-5.335.359-9.683 0-2.074-.17-8.547-.4-11.778-4.328-1.834-2.233-1.545-3.021-5.105-1.087-3.66 1.985-6.004 3.4-6.083 4.029-.22 1.705 1.246 3.001 3.53 6.262 3.64 5.195 4.786 6.222 4.477 9.163-.189 1.795-.448 4.916-1.984 11.717-1.566 6.94-1.077 9.892 1.984 10.62 6.413 1.505 28.621 1.386 30.136-.549 3.291-3.45-1.396-14.937-2.233-19.065v-.01Z" fill="#EE8084"/><path d="M157.531 32.976c-2.483 2.672-5.694 3.6-8.138 3.13-2.443-.478-4.587-1.654-6.422-3.37-1.406-1.675-2.253-3.988-2.353-4.935-.09-.868.04-1.845.339-2.752.698-2.104-.898-2.384 1.575-6.432.748-1.227 4.977-6.72 11.628-5.773 5.844.827 8.566 14.538 3.371 20.122v.01Z" fill="#FFDBB0"/><path d="M141.176 16.303c.349-.917 2.223-2.872 4.407-3.3 2.693-.529 3.032-2.314 5.844-2.304 3.919.02 7.439 1.616 8.606 2.653 2.493 2.213 2.533 4.038 3.301 5.693 1.386 2.992.708 9.074-4.348 13.402-.897.768-1.117 1.835-1.665-.379-.439-2.692 1.117-2.652 2.014-3.72.928-1.096.269-3.54-1.356-2.791-1.346.618-8.177-5.185-9.334-6.81-1.536-2.165-8.955 6.46-7.449-2.444h-.02Z" fill="#003F67"/><path d="M122.008 20.741c-.508.518-1.296.578-1.735.14l-.927-.918c-.439-.439-.379-1.216.129-1.735l8.367-8.406c.509-.518 1.297-.578 1.735-.14l.928.918c.438.439.379 1.217-.13 1.735l-8.367 8.406Z" fill="#F8CED2"/><path d="M138.254 6.282c-1.047 3.76-6.113 11.468-8.916 8.685L125.2 10.85c-2.792-2.782 4.886-7.887 8.646-8.954l3.281-.937c.429-.12.937.05 1.236.349l.449.448c.299.3.479.808.359 1.237l-.917 3.28v.01Zm-16.843 14.479-1.945-1.934a1.33 1.33 0 0 0-1.864 0l-1.436 1.446a1.33 1.33 0 0 0 0 1.864l1.944 1.935a1.33 1.33 0 0 0 1.865 0l1.436-1.446a1.33 1.33 0 0 0 0-1.865Zm-1.895 2.284a.804.804 0 0 1-1.137 0l-1.186-1.187a.804.804 0 0 1 0-1.137l.877-.877a.804.804 0 0 1 1.137 0l1.187 1.186a.804.804 0 0 1 0 1.137l-.878.878Z" fill="#F8CED2"/><path d="M129.817 11.896c.838-.837 1.167-1.864.738-2.283-.429-.419-1.446-.09-2.283.758-.14.14-.26.279-.369.428l-1.377 1.387 1.476 1.475 1.376-1.386c.14-.11.29-.23.429-.369l.01-.01Z" fill="#E4E4E4"/><path d="M161.46 17.72c.499-.818 1.207-2.513 1.895-3.19.688-.679 1.426-1.427 2.463-1.626 1.616-.31 2.453-.21 3.281.299.738.459 1.795 2.563 1.775 4.028.199 1.915 1.496 2.513 2.363 2.912 1.237.568 3.401.23 3.142 1.147-.748 2.662-2.234 3.061-3.81 2.802-5.056-.838-2.234-5.494-5.325-6.163-3.091-.668-3.341-.229-5.794-.209h.01Z" fill="#003F67"/><path d="M71.023 128.502c2.453-11.088 5.784-16.692 13.592-22.804 5.724-4.488 8.017-8.845 17.072-7.469 13.154 2.004 16.125 8.845 20.673 17.42 4.547 8.576 2.563 16.214 4.098 19.823 1.536 3.61.21 7.309-12.874 7.758-13.083.449-33.307-2.892-40.697-1.944-7.389.947-3.78-4.168-1.874-12.784h.01Z" fill="#EE8084"/><path d="M84.984 139.87c1.426-4.926 3.57-10.53 7.958-11.198 3.79-.578 7.389.708 8.526 4.328 1.137 3.629 2.922 9.582 1.327 9.951-1.357.309-3.231-.18-5.844-.189-2.613-.01-9.474-.988-10.65-.928-1.466.08-1.776-.439-1.327-1.974l.01.01Z" fill="#003F67"/><path d="M187.02 84.14c1.756-1.487-8.635-1.457-8.007 1.535.309 1.466 2.234 2.194 4.308 1.107 1.256-.658 2.333-1.486 3.699-2.643Zm2.014-3.361c2.304-.04-5.774-6.591-7.17-3.88-.688 1.327.339 3.112 2.633 3.58 1.386.28 2.742.33 4.537.29v.01Zm30.566 51.163c2.044.778 4.776 1.935 6.093 2.134 1.316.209.788.209-.349 1.855-.319.468-.818 1.406-.908 2.542-.089 1.137-2.303.838-4.836.319-2.543-.518-4.627-2.223-3.65-2.712.967-.488 1.595-.718 2.323-2.054.758-1.376.19-2.513 1.327-2.074v-.01Z" fill="#A2A2A2"/><path d="M224.686 137.925c.02-.429-4.148 1.546-7.22-.179-1.595-.898-1.137-1.905-1.366-1.845-1.037.279-1.625.279-3.281 1.605-3.311 2.633-.648 5.106 3.092 5.505 2.622.279 9.314-.319 8.845-3.072-.13-.787-.09-1.425-.07-2.014Z" fill="#003F67"/><path d="M224.186 85.456c3.281-1.007 8.497.548 12.805 1.166 4.158.589 4.427 1.825 3.989 5.824-.639 5.863.478 11.038-3.441 15.805-1.895 2.313-4.627 2.602-6.761 11.477-.768 3.2-1.376 17.2-5.076 16.472-3.091-.608-5.943-.528-8.596-.777-2.323-.22.539-12.814.728-16.383.349-6.442 1.596-13.532 2.154-18.737 1.027-9.423 1.027-13.88 4.198-14.847Z" fill="#E2C2BC"/><path d="M218.212 61.175c-1.795.409-8.656 4.617-9.454 4.407-.798-.21-2.503-.419-3.949.389-1.426.798-.947 1.745-1.835 2.543-1.067.957-1.685 3.011-1.057 3.68.628.667-.429 1.325.319 1.983.509.45 1.177.04 1.327 1.077.149 1.027.728 1.616 1.785 1.416 1.057-.2.837-.508 1.655-.11.818.4 1.037.21 1.705-.299.668-.508 1.566-2.572 2.473-4.287.908-1.705 6.632-.14 11.439-3.899 2.931-2.294-.698-7.748-4.408-6.91v.01Z" fill="#FFDBB0"/><path d="M235.523 64.695c-1.775 2.921-4.936 3.14-9.364 4.417-4.428 1.276-5.076 1.556-6.083-.688-1.277-2.852-1.636-5.375-2.174-7.11-.947-3.04.987-3.63 3.201-4.227 3.75-1.028 3.68-3.022 4.697-4.179 3.101-3.53 10.88 9.902 9.733 11.787h-.01Zm8.347 67.387c2.084-.688 4.916-1.516 6.073-2.194 1.147-.678.748-.339.898 1.655.05.568.249 1.605.907 2.543.648.937-1.256 2.104-3.55 3.3-2.294 1.197-4.986 1.197-4.547.2.438-.987.777-1.566.508-3.062-.279-1.545-1.446-2.064-.289-2.452v.01Z" fill="#A2A2A2"/><path d="M251.599 133.508c-.259-.339-2.234 3.819-5.714 4.427-1.795.309-2.085-.758-2.224-.568-.628.867-1.077 1.246-1.526 3.32-.897 4.129 2.722 4.368 5.874 2.314 2.214-1.436 7.01-6.133 4.916-7.967-.598-.529-.967-1.047-1.326-1.526Z" fill="#003F67"/><path d="M225.423 88.287c2.722-2.453 8.596-3.56 13.123-5.076 4.368-1.455 5.235-.498 6.751 3.241 2.234 5.494 5.864 9.533 4.348 15.615-.728 2.952-3.261 4.507-1.027 13.372.808 3.201 7.05 15.865 3.061 16.981-3.33.938-6.083 2.374-8.805 3.411-2.393.917-5.734-11.577-7.29-14.838-2.802-5.863-5.046-12.723-7.03-17.599-3.6-8.825-5.764-12.764-3.131-15.127v.02Z" fill="#E2C2BC"/><path d="M253.445 70.967c-.129-9.622-4.168-14.728-10.221-19.414-2.792-2.154-9.135-3.131-11.648-2.932-2.283.19-4.926 2.493-6.402 5.205-.917 1.685-3.52 8.157-3.939 10.56-.509 2.872-2.553 19.494-3.75 26.384-1.535 8.875-.199 8.895 9.494 8.895 7.679 0 28.87 3.649 26.456-3.82-1.475-4.556.04-22.006 0-24.868l.01-.01Z" fill="#A2A2A2"/><path d="M242.094 46.188c-2.293 2.972-5.494 4.248-8.037 4.029-2.543-.23-4.847-1.207-6.901-2.742-1.596-1.556-2.693-3.81-2.882-4.757-.17-.867-.13-1.874.09-2.822.508-2.213-1.147-2.323 1.007-6.69.648-1.327 4.467-7.34 11.368-7.07 6.063.23 10.152 13.85 5.355 20.062v-.01Z" fill="#FFDBB0"/><path d="M227.036 32.667c-1.924.438-1.715 1.964-2.373.718-1.536-2.942 3.44-8.366 5.335-8.496 1.675-.11 3.052-3.949 10.461-1.944 1.835.498 5.006 1.236 6.751 3.928 2.942 4.547 4.966 7.519 2.743 13.392-1.047 2.762-3.501 5.355-8.247 7.19-3.032 1.166-2.593 2.562-4.338 2.472-.449-.02-1.227-.817-1.576-1.765-.399-1.077-.13-3.44.528-3.799 2.105-.588 2.414-2.433 1.965-3.071-.509-.728-1.935-.32-2.722.27-3.959 2.92-2.055-5.286-4.348-5.864-4.807-1.206-3.142-3.43-4.179-3.021v-.01Z" fill="#003F67"/><path d="M215.809 91.628a.93.93 0 0 1-.289-.05.825.825 0 0 1-.478-1.067c.578-1.506.937-3.36 1.166-6.003.21-2.353-.528-6.96-3.39-9.293-2.593-2.114-6.961-3.75-10.71-1.396-2.882 1.815-6.283 6.86-6.981 10.38a.82.82 0 0 1-.967.648.82.82 0 0 1-.649-.967c.718-3.57 4.059-9.154 7.719-11.457 4.497-2.822 9.613-.948 12.625 1.505 3.39 2.763 4.248 7.918 3.999 10.72-.25 2.802-.638 4.786-1.267 6.441a.825.825 0 0 1-.768.529l-.01.01Z" fill="#E2C2BC"/><path d="M196.303 83.85c2.922-.12 12.994 2.363 16.993 2.772 3.5.36 4.218.519 3.351 3.54-1.297 4.527-2.703 14.847-5.475 16.792-2.762 1.944-6.073 2.553-10.68 1.266-4.069-1.136-6.741-2.652-6.831-8.236-.09-5.584-.399-11.019-.15-15.207.1-1.615.698-.837 2.782-.927h.01Z" fill="#E2C2BC"/><path d="M193.742 85.296c-.648-1.865.808-3.44 3.979-3.52 2.523-.06 7.35.36 10.73 1.127 3.979.897 7.808 3.101 8.357 4.248.489 1.027.239 2.353-1.227 2.832-1.675.548-7.339.688-13.153-.898-3.68-.997-8.287-2.662-8.686-3.789Z" fill="#A2A2A2"/><path d="M215.5 88.297a.3.3 0 0 1-.229-.1c-.689-.737-3.042-1.834-5.904-1.834h-.11c-2.802 0-3.62-.12-7.12-1.506-3.301-1.296-4.547-.827-6.213.12a.308.308 0 0 1-.299-.538c1.715-.968 3.201-1.556 6.751-.16 3.471 1.366 4.179 1.446 6.991 1.456h.01c2.792 0 5.425 1.027 6.352 2.024.12.13.11.32-.02.439a.291.291 0 0 1-.209.08v.02Z" fill="#fff"/><path d="M225.483 69.571c-1.765.499-7.09 2.792-7.838 2.473-.758-.32-2.423-.768-3.959-.18-1.516.589-1.187 1.596-2.174 2.254-1.197.798-2.094 2.732-1.576 3.49.529.748-.608 1.257.03 2.004.439.519 1.157.21 1.157 1.257 0 1.037.489 1.705 1.566 1.655 1.077-.05.897-.389 1.655.13.748.518.997.359 1.725-.05.738-.409 1.925-2.324 3.062-3.89 1.137-1.565 4.766.968 9.543-1.176 1.666-.748.768-2.273 0-4.956-.897-3.14-.897-3.659-3.181-3.01h-.01Z" fill="#FFDBB0"/></svg>