<svg width="185" height="102" viewBox="0 0 185 102" fill="none" xmlns="http://www.w3.org/2000/svg">
<path d="M162.822 0.108398H33.7542C30.5429 0.108398 27.9099 2.24731 27.9099 4.86564V6.2301C27.9099 8.84843 30.5429 10.9873 33.7542 10.9873H162.822C166.033 10.9873 168.666 8.84843 168.666 6.2301V4.86564C168.666 2.24731 166.033 0.108398 162.822 0.108398Z" fill="#E2C2BC"/>
<path d="M17.7943 86.8323H170.276C177.141 86.8323 182.752 79.4936 182.752 70.52V61.9766H5.30584V70.52C5.30584 79.4936 10.9287 86.8323 17.782 86.8323H17.7943Z" fill="#6B6B6B"/>
<path d="M182.432 42.7023C182.505 41.8787 182.493 41.0305 182.382 40.17L179.196 15.4987C178.31 8.66402 171.739 3.05859 164.603 3.05859H31.1187C23.9825 3.05859 16.4034 8.44278 14.2625 15.0193L5.96962 40.6372C5.55129 41.9156 5.3791 43.1448 5.41601 44.3003C5.35449 44.9764 5.31756 45.6648 5.31756 46.3655V61.9771H182.764V46.3655C182.764 45.0994 182.653 43.8824 182.444 42.7023H182.432Z" fill="#E2C2BC"/>
<path d="M38.8443 101.805C29.9357 101.805 22.7139 94.5903 22.7139 85.6899C22.7139 76.7895 29.9357 69.5742 38.8443 69.5742C47.7528 69.5742 54.9746 76.7895 54.9746 85.6899C54.9746 94.5903 47.7528 101.805 38.8443 101.805Z" fill="#282828"/>
<path d="M32.1836 92.339C28.5078 88.6666 28.5078 82.7124 32.1836 79.0399C35.8594 75.3675 41.819 75.3675 45.4948 79.04C49.1706 82.7124 49.1706 88.6665 45.4948 92.339C41.819 96.0114 35.8594 96.0114 32.1836 92.339Z" fill="white"/>
<path d="M147.86 101.805C138.951 101.805 131.73 94.5903 131.73 85.6899C131.73 76.7895 138.951 69.5742 147.86 69.5742C156.768 69.5742 163.99 76.7895 163.99 85.6899C163.99 94.5903 156.768 101.805 147.86 101.805Z" fill="#282828"/>
<path d="M141.211 92.339C137.535 88.6665 137.535 82.7124 141.211 79.0399C144.887 75.3675 150.846 75.3675 154.522 79.0399C158.198 82.7123 158.198 88.6665 154.522 92.339C150.846 96.0114 144.887 96.0114 141.211 92.339Z" fill="white"/>
<path d="M92.1723 8.34473H107.158C110.06 8.34473 112.412 10.6948 112.412 13.5937V27.4475C112.412 30.3464 110.06 32.6964 107.158 32.6964H92.1723C89.2707 32.6964 86.9186 30.3464 86.9186 27.4475V13.5937C86.9186 10.6948 89.2707 8.34473 92.1723 8.34473Z" fill="#A2A2A2"/>
<path d="M121.309 8.34473H136.295C139.197 8.34473 141.549 10.6948 141.549 13.5937V27.4475C141.549 30.3464 139.197 32.6964 136.295 32.6964H121.309C118.407 32.6964 116.055 30.3464 116.055 27.4475V13.5937C116.055 10.6948 118.407 8.34473 121.309 8.34473Z" fill="#A2A2A2"/>
<path d="M150.43 8.34473H165.416C168.318 8.34473 170.67 10.6948 170.67 13.5937V27.4475C170.67 30.3464 168.318 32.6964 165.416 32.6964H150.43C147.529 32.6964 145.176 30.3464 145.176 27.4475V13.5937C145.176 10.6948 147.529 8.34473 150.43 8.34473Z" fill="#A2A2A2"/>
<path d="M45.3301 39.3708C45.3301 42.5177 42.7585 45.0868 39.6088 45.0868H20.9684C17.8186 45.0868 15.9731 42.616 16.8713 39.6043L24.5242 13.8389C25.4224 10.8273 28.7321 8.35645 31.8819 8.35645H39.6088C42.7585 8.35645 45.3301 10.9256 45.3301 14.0725V39.3708Z" fill="#A2A2A2"/>
<path d="M175.442 82.7393H168.059C166.632 82.7393 165.475 83.403 165.475 84.2267V88.1357C165.475 88.947 166.644 89.6231 168.059 89.6231H175.442C176.869 89.6231 178.025 88.9593 178.025 88.1357V84.2267C178.025 83.4153 176.857 82.7393 175.442 82.7393Z" fill="#A2A2A2"/>
<path d="M61.7545 83.0713H124.959C126.543 83.0713 127.826 84.3536 127.826 85.9355V86.7468C127.826 88.3286 126.543 89.611 124.959 89.611H61.7545C60.1712 89.611 58.8876 88.3286 58.8876 86.7468V85.9355C58.8876 84.3536 60.1712 83.0713 61.7545 83.0713Z" fill="#A2A2A2"/>
<path d="M178.521 41.9275C178.521 43.0461 176.811 43.9681 174.72 43.9681H90.7334C88.6418 43.9681 86.9316 43.0461 86.9316 41.9275V41.3374C86.9316 40.2188 88.6418 39.2969 90.7334 39.2969H174.72C176.811 39.2969 178.521 40.2188 178.521 41.3374V41.9275Z" fill="#A2A2A2"/>
<path d="M81.0215 63.6862C81.0215 72.0451 78.4869 78.8921 75.3864 78.8921H59.2929C56.1923 78.8921 53.6577 72.0451 53.6577 63.6862V23.5507C53.6577 15.1917 56.1923 8.34473 59.2929 8.34473H75.3864C78.4869 8.34473 81.0215 15.1917 81.0215 23.5507V63.6862Z" fill="#A2A2A2"/>
<path d="M5.51615 56.6172H3.78134C3.48605 56.6172 3.21537 56.6909 2.94469 56.8261C1.46823 57.4531 0.385467 59.4814 0.385467 61.903C0.385467 64.3246 1.46823 66.3529 2.94469 66.9799C3.20307 67.1151 3.48605 67.1888 3.78134 67.1888H5.51615C6.98031 67.1888 8.17383 65.3941 8.17383 63.206V60.6123C8.17383 58.4242 6.98031 56.6295 5.51615 56.6295V56.6172Z" fill="#A2A2A2"/>
<path d="M182.112 62.7393H182.69C183.859 62.7393 184.807 63.6859 184.807 64.8536V75.0319C184.807 76.1996 183.859 77.1462 182.69 77.1462H182.112C180.943 77.1462 179.996 76.1996 179.996 75.0319V64.8536C179.996 63.6859 180.943 62.7393 182.112 62.7393Z" fill="#A2A2A2"/>
<path d="M67.2048 10.5449H67.4632C67.6874 10.5449 67.8691 10.7265 67.8691 10.9506V76.2982C67.8691 76.5222 67.6874 76.7038 67.4632 76.7038H67.2048C66.9805 76.7038 66.7987 76.5222 66.7987 76.2982V10.9506C66.7987 10.7265 66.9805 10.5449 67.2048 10.5449Z" fill="white"/>
<path d="M60.6414 44.1279H63.299C63.5233 44.1279 63.7051 44.3095 63.7051 44.5336V45.4555C63.7051 45.6796 63.5233 45.8612 63.299 45.8612H60.6414C60.4171 45.8612 60.2354 45.6796 60.2354 45.4555V44.5336C60.2354 44.3095 60.4171 44.1279 60.6414 44.1279Z" fill="white"/>
<path d="M71.3758 44.1279H74.0334C74.2576 44.1279 74.4395 44.3095 74.4395 44.5336V45.4555C74.4395 45.6796 74.2576 45.8612 74.0334 45.8612H71.3758C71.1516 45.8612 70.9698 45.6796 70.9698 45.4555V44.5336C70.9698 44.3095 71.1516 44.1279 71.3758 44.1279Z" fill="white"/>
</svg>
