<svg width="25" height="25" viewBox="0 0 25 25" fill="none" xmlns="http://www.w3.org/2000/svg">
<g clip-path="url(#clip0_1416_735)">
<path d="M4.61495 6.64062H0.695312V22.2411H4.61495V6.64062Z" fill="#FFB502"/>
<path d="M23.8068 4.48506C23.2615 3.93774 22.4954 3.59593 21.6615 3.59668H14.7284C13.8944 3.59593 13.1283 3.93774 12.583 4.48506C12.0361 5.03035 11.6939 5.79643 11.6947 6.63043V8.66917H10.6947L5.89453 6.64098V22.2414L10.6947 20.2133H21.9739C23.4767 20.2133 24.6951 18.9949 24.6951 17.4921V13.2412V8.66917V6.63043C24.6959 5.79643 24.3537 5.03035 23.8068 4.48506ZM22.295 8.66917H14.0948V6.63043C14.0955 6.45113 14.1639 6.30071 14.2803 6.18235C14.3987 6.06596 14.5495 5.9972 14.7284 5.99677H21.6615C21.8403 5.9972 21.9912 6.06596 22.1095 6.18235C22.2259 6.30071 22.2943 6.45113 22.2951 6.63043V8.66917H22.295Z" fill="#FFB502"/>
</g>
<defs>
<clipPath id="clip0_1416_735">
<rect width="24" height="24" fill="white" transform="translate(0.695312 0.918945)"/>
</clipPath>
</defs>
</svg>
