<svg width="24" height="24" viewBox="0 0 24 24" fill="none" xmlns="http://www.w3.org/2000/svg">
<g clip-path="url(#clip0_1416_701)">
<path d="M12.1964 0.418945L2.03906 6.28291C2.03906 8.41562 2.24148 10.2781 2.58069 11.9189C4.67687 22.0588 12.1964 23.4189 12.1964 23.4189C12.1964 23.4189 19.7158 22.0588 21.8121 11.9189C22.1513 10.2781 22.3537 8.41567 22.3537 6.28291L12.1964 0.418945ZM12.2016 21.385C12.2001 21.3845 12.198 21.3838 12.1964 21.3833V19.2417V11.9189H7.02H4.78972C4.49009 10.5831 4.29068 9.06614 4.23296 7.34006L12.1963 2.74266H12.1964V5.06647V11.9189H17.3745H19.6038C18.0198 18.9898 13.6036 20.9381 12.2016 21.385Z" fill="#FFB502"/>
</g>
<defs>
<clipPath id="clip0_1416_701">
<rect width="23" height="23" fill="white" transform="translate(0.695312 0.418945)"/>
</clipPath>
</defs>
</svg>
