<svg width="24" height="24" viewBox="0 0 24 24" fill="none" xmlns="http://www.w3.org/2000/svg">
<g clip-path="url(#clip0_1416_723)">
<path d="M17.4011 0.418945C14.8601 0.418945 12.8008 2.96125 12.8008 5.83064C12.8008 7.57698 13.622 9.11694 14.6257 10.0758C15.5066 10.918 16.0478 11.5666 16.1559 12.9739V22.2531C16.1559 22.8968 16.6781 23.419 17.3218 23.419H17.4797C18.1234 23.419 18.6456 22.8968 18.6456 22.2531V12.9739C18.7536 11.5666 19.2948 10.918 20.1757 10.0757C21.1795 9.1169 22.0007 7.57693 22.0007 5.83059C22.0006 2.96125 19.9405 0.418945 17.4011 0.418945Z" fill="#FFB502"/>
<path d="M9.1677 1.52189V6.43522C9.1677 6.74895 8.91362 7.00375 8.59984 7.00375H8.44751C8.13445 7.00375 7.87965 6.74895 7.87965 6.43522V1.49943C7.87965 0.690113 7.33498 0.447266 6.81204 0.447266C6.28982 0.447266 5.74515 0.690113 5.74515 1.49943V6.43522C5.74515 6.74895 5.49035 7.00375 5.17661 7.00375H5.025C4.71127 7.00375 4.45715 6.74895 4.45715 6.43522V1.52189C4.45715 0.0724376 2.39074 0.121582 2.39074 1.53801C2.39074 3.23381 2.39074 6.22956 2.39074 6.22956C2.3809 8.83503 3.00352 9.51097 4.03111 10.3231C4.85938 10.9773 5.56757 11.3507 5.56757 12.9749V22.2533C5.56757 22.897 6.08907 23.4192 6.73343 23.4192H6.89137C7.53501 23.4192 8.05723 22.897 8.05723 22.2533V12.9749C8.05723 11.3507 8.76475 10.9772 9.59302 10.3231C10.6213 9.51097 11.2439 8.83503 11.2341 6.22956C11.2341 6.22956 11.2341 3.23381 11.2341 1.53801C11.2341 0.121582 9.1677 0.0724376 9.1677 1.52189Z" fill="#FFB502"/>
</g>
<defs>
<clipPath id="clip0_1416_723">
<rect width="23" height="23" fill="white" transform="translate(0.695312 0.418945)"/>
</clipPath>
</defs>
</svg>
