<svg width="23" height="23" viewBox="0 0 23 23" fill="none" xmlns="http://www.w3.org/2000/svg">
<g clip-path="url(#clip0_1416_712)">
<path d="M20.8571 3.81872C19.6714 2.63304 18.095 1.98047 16.4185 1.98047C14.7421 1.98047 13.1657 2.63308 11.98 3.81872C11.882 3.91741 11.7866 4.01878 11.6953 4.12285C11.604 4.01878 11.5087 3.91741 11.4106 3.81872C10.225 2.63304 8.64857 1.98047 6.9721 1.98047C5.29563 1.98047 3.71924 2.63308 2.53356 3.81872C1.34788 5.00435 0.695312 6.58083 0.695312 8.25726C0.695312 9.57386 1.09814 10.8287 1.84541 11.8814C2.03542 12.15 2.24893 12.4051 2.48389 12.6454C2.5 12.6622 2.5168 12.679 2.53356 12.6958L10.6923 20.8532L11.6953 21.8576L20.8571 12.6958C20.8732 12.679 20.8906 12.6622 20.9061 12.6454C21.1417 12.4051 21.3552 12.15 21.5446 11.8814C22.2925 10.8287 22.6953 9.57386 22.6953 8.25726C22.6953 6.58083 22.0414 5.00439 20.8571 3.81872ZM11.6953 19.8508L4.49001 12.6454H7.32191L8.46191 8.27539L10.8252 16.3146L12.5574 11.0905L14.0727 14.1044L15.4853 12.6455H18.9007L11.6953 19.8508ZM19.8533 11.6921L19.6646 11.8814H15.161L14.2721 12.7992L12.4123 9.09919L10.8695 13.7539L8.41895 5.41732L6.73109 11.8815H3.72594L3.53727 11.6921C1.63994 9.79481 1.63994 6.71919 3.53727 4.82251C4.48593 3.87384 5.72936 3.39986 6.9721 3.39986C8.21553 3.39986 9.45823 3.87384 10.4069 4.82251C11.0642 5.4798 11.4932 6.27807 11.6953 7.12065C11.8968 6.27807 12.3264 5.47976 12.983 4.82251C13.9317 3.87384 15.1751 3.39986 16.4185 3.39986C17.6613 3.39986 18.9047 3.87384 19.8534 4.82251C21.75 6.71911 21.75 9.79477 19.8533 11.6921Z" fill="#FFB502"/>
</g>
<defs>
<clipPath id="clip0_1416_712">
<rect width="22" height="22" fill="white" transform="translate(0.695312 0.918945)"/>
</clipPath>
</defs>
</svg>
