<svg width="275" height="231" viewBox="0 0 275 231" fill="none" xmlns="http://www.w3.org/2000/svg">
<path d="M250.88 218.818C249.116 220.83 245.407 222.526 243.824 224.9C241.676 228.122 240.342 232.407 247.454 230.508C254.566 228.608 260.14 222.288 260.886 219.564C261.609 216.884 258.704 217.088 258.195 215.969C255.956 217.416 253.446 218.501 250.88 218.818Z" fill="#003F67"/>
<path d="M255.3 201.996C255.3 201.996 247.567 204.008 247.68 205.32C247.793 206.631 251.626 213.324 251.829 216.512C251.886 217.349 251.502 218.106 250.868 218.819C253.435 218.502 255.934 217.417 258.184 215.97C258.184 215.947 258.161 215.924 258.15 215.902C257.731 214.692 256.533 203.601 255.3 201.996Z" fill="#003F67"/>
<path d="M222.748 217.404C220.295 218.456 216.213 218.377 213.76 219.835C210.424 221.802 207.372 225.092 214.596 226.46C221.821 227.828 229.589 224.561 231.443 222.424C233.263 220.332 230.55 219.247 230.572 218.015C227.927 218.343 225.202 218.241 222.748 217.416V217.404Z" fill="#003F67"/>
<path d="M234.032 204.167C234.032 204.167 226.185 202.629 225.721 203.85C225.258 205.082 225.812 212.77 224.613 215.732C224.297 216.512 223.619 217.021 222.748 217.394C225.202 218.219 227.926 218.332 230.572 217.993C230.572 217.971 230.572 217.937 230.572 217.914C230.719 216.648 234.45 206.123 234.032 204.144V204.167Z" fill="#003F67"/>
<path d="M261.439 101.297C262.977 101.625 266.629 109.776 266.074 123.896C265.848 129.583 264.243 139.193 263.791 141.748C262.253 150.487 262.999 217.234 262.445 217.392C256.475 219.212 251.523 218.771 248.448 218.952C245.373 219.133 245.203 169.887 244.864 164.031C244.615 159.768 244.626 136.378 241.935 136.118C239.832 135.914 238.329 169.084 237.899 175.053C237.447 181.249 234.779 214.995 234.609 216.623C234.383 218.862 221.414 219.224 220.928 217.019C219.357 209.829 220.668 169.514 221.55 158.819C222.262 150.215 222.398 102.382 224.874 102.687C226.14 102.846 261.416 101.308 261.416 101.308L261.439 101.297Z" fill="#A2A2A2"/>
<path d="M237.865 31.9395C238.17 31.9395 243.145 31.9847 243.518 31.9508C243.665 32.5952 243.959 35.1615 244.264 35.9868C245.033 38.067 246.684 40.4976 248.029 42.2048C251.466 46.8739 231.997 45.7094 233.896 43.5388C235.649 41.5604 237.232 38.4288 237.831 35.3198C238.057 34.1779 237.865 32.3804 237.865 31.9508V31.9395Z" fill="#FFDBB0"/>
<path d="M248.109 30.5822C246.673 34.1999 243.914 36.3028 241.404 36.6871C238.883 37.0715 236.407 36.6419 234.032 35.5566C232.087 34.3469 230.437 32.2893 230.018 31.3736C229.623 30.5257 229.397 29.4743 229.363 28.4455C229.284 26.0488 227.655 26.3427 228.594 21.3231C228.876 19.7969 230.991 12.6858 237.718 11.2726C243.631 10.029 251.127 23.0302 248.12 30.5935L248.109 30.5822Z" fill="#FFDBB0"/>
<path d="M235.536 19.3337C233.139 16.0552 228.82 25.2804 227.939 23.155C225.598 17.5249 232.02 11.6913 234.677 10.5607C237.492 9.35106 240.036 8.75187 243.937 9.71283C247.386 10.5494 247.216 11.793 248.618 12.8897C252.225 15.7047 253.423 19.6164 253.57 23.2793C253.638 24.9525 252.281 29.2373 250.664 31.2609C250.054 32.0297 247.419 33.8386 245.904 34.6073C244.706 35.2178 245.825 29.8251 247.329 28.7172C249.398 26.3205 248.867 25.4952 248.313 24.6699C247.759 23.8446 246.153 23.4376 245.791 24.2855C244.005 28.5024 244.921 24.3872 243.711 23.6185C240.432 21.5157 242.218 25.71 235.525 19.345L235.536 19.3337Z" fill="#003F67"/>
<path d="M246.627 14.711C247.339 13.5466 248.345 11.1498 249.318 10.1775C250.29 9.20528 251.341 8.14257 252.822 7.85994C255.129 7.41903 256.316 7.566 257.492 8.28955C258.532 8.93396 260.047 11.9299 260.013 14.0214C260.296 16.746 262.139 17.5939 263.371 18.1592C265.124 18.9731 268.21 18.487 267.837 19.7871C266.763 23.5745 264.66 24.151 262.422 23.7779C255.231 22.5796 259.244 15.9659 254.846 15.0163C250.448 14.0666 250.098 14.6884 246.604 14.711H246.627Z" fill="#003F67"/>
<path d="M216.79 43.0302C213.827 40.7126 206.727 32.3127 204.002 28.9776C200.689 24.9189 195.455 16.3834 194.754 15.705C193.68 14.6536 191 11.5786 189.281 9.61142C188.58 8.80874 188.354 7.19206 188.004 3.97002C187.845 2.54554 189.7 4.04916 190.242 2.4551C191.147 -0.224284 192.278 1.32456 192.99 0.849731C194.234 0.0357419 194.561 -0.224282 195.33 1.6185C196.099 3.46128 196.37 4.72748 196.517 5.63191C196.664 6.53634 197.185 7.82517 197.953 6.34416C198.722 4.86315 199.242 4.09438 200.396 3.86827C201.549 3.64216 201.967 4.42224 200.837 6.10675C199.955 8.34522 200.316 11.5333 200.124 12.9013C200.045 13.4892 204.647 19.5376 207.756 22.9066C211.238 26.6713 218.621 33.6354 221.267 35.806C225.53 39.3333 219.56 45.1895 216.79 43.0189V43.0302Z" fill="#FFDBB0"/>
<path d="M224.953 34.6514C228.311 37.1386 234.1 41.4234 234.643 40.2363C235.389 38.6083 234.303 38.3257 238.577 38.0204C241.743 37.7943 243.382 37.8056 244.626 37.8396C246.853 37.8848 247.566 38.9927 248.425 39.1962C251.229 39.8632 251.478 40.9485 257.549 44.3062C261.789 46.6465 265.746 49.4502 267.488 54.2098C269.455 59.5799 266.707 56.29 263.53 62.7114C260.975 67.8893 264.435 77.0919 264.435 86.2606C264.435 90.4888 265.136 99.4427 265.249 107.063C265.294 110.285 250.788 110.115 248.018 109.731C245.7 109.414 236.124 108.973 232.947 109.912C230.776 110.556 221.38 110.285 221.245 106.701C220.871 97.046 223.8 92.1846 223.8 87.4251C223.8 82.5524 224.196 63.6837 222.68 55.3855C221.211 47.3135 216.1 45.1429 213.409 42.3052C211.114 39.8858 213.036 39.5128 216.145 35.4767C219.876 30.6154 220.001 30.9998 224.942 34.6627L224.953 34.6514Z" fill="#EE8084"/>
<path d="M230.289 46.6486C237.401 47.1573 244.162 46.8973 247.102 46.8973C251.263 46.8973 253.026 44.9415 253.524 50.3228C254.01 55.7042 257.572 64.7485 262.953 72.3345C268.335 79.9091 266.967 83.3346 266.967 89.4508C266.967 95.5671 270.235 126.962 270.755 135.012C271.49 146.509 270.969 147.12 265.588 147.12C260.206 147.12 244.965 147.64 234.45 147.154C223.935 146.667 214.313 147.255 215.048 140.902C215.783 134.548 218.282 126.103 218.531 117.793C218.712 111.677 221.097 85.2565 222.714 79.6717C224.919 72.097 227.112 60.1133 227.112 53.511C227.112 46.9086 226.863 46.4225 230.289 46.6599V46.6486Z" fill="#E2C2BC"/>
<path d="M229.464 40.442C228.39 43.8789 227.474 46.5696 227.428 49.5203C227.406 51.1935 227.779 52.3466 229.599 52.2336C231.42 52.1318 232.234 52.2223 232.268 50.1421C232.302 48.0619 234.337 41.6291 234.269 40.5325C234.201 39.4359 232.742 38.5766 231.261 38.6897C230.323 38.7688 229.848 39.1532 229.441 40.442H229.464Z" fill="#E2C2BC"/>
<path d="M248.38 39.7387C248.38 38.1447 253.411 40.157 253.411 42.2372C253.411 44.3174 253.513 46.2846 253.389 48.6022C253.264 50.9198 252.665 50.4336 250.822 50.3093C249.838 50.2528 248.663 50.6371 248.561 47.4377C248.436 43.7069 248.38 40.1005 248.38 39.7387Z" fill="#E2C2BC"/>
<path d="M263.927 105.55H252.925C251.942 105.55 251.252 105.335 250.811 104.883C250.268 104.329 250.235 103.526 250.257 102.961C250.291 102.113 250.257 97.9637 250.235 94.6399C250.223 92.7406 250.212 91.0222 250.212 90.1404C250.212 89.9595 250.359 89.8125 250.54 89.8125C250.721 89.8125 250.868 89.9595 250.868 90.1404C250.868 91.0222 250.868 92.7406 250.89 94.6399C250.913 98.1559 250.947 102.135 250.913 102.995C250.89 103.684 251.003 104.148 251.286 104.43C251.591 104.747 252.123 104.905 252.925 104.905H263.927C264.107 104.905 264.254 105.052 264.254 105.233C264.254 105.414 264.107 105.561 263.927 105.561V105.55Z" fill="#A2A2A2"/>
<path d="M265.204 104.215C265.023 104.215 264.876 104.068 264.876 103.887C264.876 103.627 264.876 102.994 264.876 102.169C264.899 99.218 264.933 93.7348 264.876 92.1747C264.876 91.9938 265.012 91.8355 265.193 91.8242C265.351 91.8242 265.532 91.9599 265.543 92.1408C265.611 93.7235 265.577 99.218 265.543 102.169C265.543 103.005 265.543 103.627 265.543 103.887C265.543 104.068 265.396 104.215 265.215 104.215H265.204Z" fill="#A2A2A2"/>
<path d="M224.388 105.595C223.076 105.595 221.72 105.561 221.132 105.538C220.951 105.538 220.804 105.38 220.815 105.188C220.815 105.007 220.973 104.848 221.166 104.871C222.353 104.916 225.462 104.962 226.774 104.871C228.006 104.792 228.436 104.351 228.436 103.187C228.436 100.575 228.436 91.9038 228.39 90.0384C228.39 89.8575 228.526 89.6992 228.718 89.6992C228.91 89.6992 229.057 89.8349 229.057 90.0271C229.103 91.8472 229.103 99.8402 229.103 103.198C229.103 104.713 228.402 105.436 226.819 105.549C226.231 105.583 225.326 105.606 224.399 105.606L224.388 105.595Z" fill="#A2A2A2"/>
<path d="M268.696 66.556C270.709 69.5406 271.297 78.6528 272.088 84.0681C273.332 92.6036 272.778 99.2738 273.004 100.212C273.366 101.671 274.044 105.695 274.474 108.273C274.644 109.324 273.999 110.817 272.608 113.745C271.998 115.034 271.206 112.795 269.906 113.869C267.724 115.678 267.588 113.767 266.729 113.79C265.237 113.835 264.83 113.88 265.135 111.913C265.451 109.946 265.881 108.725 266.232 107.877C266.582 107.029 266.808 105.65 265.384 106.521C263.948 107.38 263.111 107.764 262.003 107.357C260.906 106.95 260.951 106.057 262.794 105.22C264.728 103.773 266.085 100.868 266.967 99.8052C267.351 99.3417 266.616 91.7783 265.712 87.2901C265.237 84.9386 261.076 70.5581 260.443 69.371C257.865 64.4758 266.729 63.6618 268.696 66.5786V66.556Z" fill="#FFDBB0"/>
<path d="M263.304 48.1731C267.94 51.7795 270.405 62.4405 271.015 66.1713C271.626 69.9021 272.372 71.9823 268.155 72.8528C263.937 73.7346 258.748 74.526 257.979 71.5187C256.837 67.0418 254.282 58.7776 254.904 53.4301C255.526 48.0826 260.15 45.7198 263.316 48.1731H263.304Z" fill="#EE8084"/>
<path d="M147.801 119.771C148.694 121.433 149.565 123.841 151.362 124.734C152.957 125.525 153.714 127.56 151.95 129.685C151.012 130.816 148.728 132.161 146.241 131.867C143.821 131.585 143.165 130.986 142.351 128.397C141.594 125.966 142.589 124.214 143.651 122.032C144.714 119.861 147.247 118.731 147.79 119.759L147.801 119.771Z" fill="#003F67"/>
<path d="M133.057 190.418C129.982 189.242 127.664 194.499 127.178 196.263C126.319 199.383 126.059 202.82 125.742 204.436C125.245 206.969 126.206 211.401 126.533 214.532C126.703 216.239 126.963 219.846 125.81 221.044C125.697 221.157 125.584 221.666 126.126 221.881C126.658 222.095 132.605 222.672 132.503 221.7C132.458 221.304 132.684 220.841 132.865 220.434C133.51 218.964 135.092 216.906 135.081 213.322C135.07 209.739 135.115 210.281 135.002 207.059C134.889 203.837 137.523 197.789 138.349 195.155C139.457 191.616 136.246 191.627 133.057 190.406V190.418Z" fill="#FFDBB0"/>
<path d="M127.032 217.426C129.101 217.709 132.323 218.195 133.589 218.104C134.856 218.014 133.804 219.246 133.149 220.286C132.64 221.112 132.764 221.394 132.922 222.468C133.092 223.542 130.955 223.746 128.49 223.802C126.014 223.859 123.719 222.717 124.511 222.061C125.313 221.394 125.833 221.044 126.229 219.653C126.636 218.217 125.867 217.279 127.021 217.437L127.032 217.426Z" fill="#A2A2A2"/>
<path d="M125.573 220.977C123.888 222.277 123.12 221.565 122.034 223.136C119.796 226.347 122.6 228.473 126.138 228.529C128.626 228.574 134.652 227.308 133.601 224.504C133.16 223.329 133.047 221.418 132.674 221.622C131.26 222.243 128.886 222.673 127.416 222.243C126.263 221.904 125.867 220.706 125.573 220.977Z" fill="#003F67"/>
<path d="M161.369 216.353C160.826 215.969 160.453 215.528 160.295 214.827C159.967 213.256 159.978 210.588 158.022 207.897C156.066 205.206 156.383 205.579 154.551 203.239C152.708 200.899 151.691 197.914 151.34 195.145C150.616 189.379 144.862 188.667 141.718 189.65C137.196 191.052 140.486 200.04 142.612 202.075C144.737 204.11 146.41 206.687 147.066 208.134C148.095 210.396 151.306 214.205 152.437 215.212C153.658 216.308 155.738 218.49 155.331 220.378C155.252 220.729 155.162 220.989 155.06 221.204C157.988 221.384 160.453 219.225 161.38 216.353H161.369Z" fill="#FFDBB0"/>
<path d="M154.042 216.207C155.873 215.19 158.394 213.912 159.356 213.087C160.317 212.25 160 212.635 160.497 214.477C160.644 214.997 161.018 215.936 161.786 216.705C162.567 217.462 160.984 218.898 159.039 220.424C157.094 221.95 154.573 222.425 154.81 221.419C155.048 220.413 155.263 219.814 154.743 218.457C154.211 217.055 153.024 216.772 154.042 216.207Z" fill="#A2A2A2"/>
<path d="M161.538 216.184C161.233 215.913 160.113 220.164 156.959 221.34C155.331 221.95 154.867 221 154.765 221.204C154.324 222.131 153.974 222.561 153.917 224.584C153.793 228.62 157.241 228.202 159.842 225.726C161.662 223.985 165.348 218.739 163.053 217.383C162.397 216.998 161.956 216.569 161.538 216.184Z" fill="#003F67"/>
<path d="M121.423 134.32C120.451 132.862 112.378 126.157 112.288 125.377C112.208 124.597 111.824 121.669 111.157 120.753C109.992 119.148 109.246 121.545 108.398 121.262C107.55 120.98 106.035 119.544 105.085 119.295C104.124 119.058 104.124 120.313 103.751 121.104C103.367 121.895 101.942 120.55 101.614 121.432C101.388 122.042 102.101 123.41 101.241 123.896C100.371 124.382 100.314 124.71 100.857 125.581C101.4 126.451 101.999 126.7 101.92 127.571C101.84 128.441 102.089 128.565 102.768 128.984C103.446 129.402 105.606 129.504 107.437 129.719C109.269 129.933 111.96 136.05 116.245 140.007C117.647 141.307 123.458 137.316 121.446 134.309L121.423 134.32Z" fill="#FFDBB0"/>
<path d="M124.126 149.616C123.696 146.315 115.951 142.188 112.627 139.17C109.303 136.151 108.5 134.987 109.846 133.008C111.564 130.499 114.73 129.052 116.291 128.215C119.852 126.282 120.587 127.91 121.842 129.764C124.544 133.777 123.696 133.042 130.005 135.156C131.43 135.631 125.358 159.022 124.126 149.627V149.616Z" fill="#003F67"/>
<path d="M126.703 167.457C128.727 166.327 136.065 167.028 140.35 166.858C144.511 166.7 146.557 167.525 151.147 166.768C154.743 166.169 153.488 170.148 156.959 178.627C159.254 184.223 165.71 192.341 163.471 194.036C161.221 195.732 155.817 197.812 152.9 196.784C149.983 195.755 149.067 195.45 145.483 196.897C142.351 198.163 137.354 196.275 133.362 195.631C130.027 195.088 127.89 195.201 125.222 195.642C120.1 196.501 117.24 195.122 116.448 194.387C115.295 193.313 116.165 187.038 120.914 181.148C125.663 175.258 124.136 169.832 126.703 167.446V167.457Z" fill="#E2C2BC"/>
<path d="M154.359 126.057C155.116 124.474 162.273 115.995 162.239 115.203C162.205 114.423 162.149 111.473 162.68 110.466C163.596 108.714 164.681 110.964 165.484 110.557C166.287 110.15 167.565 108.511 168.48 108.126C169.385 107.742 169.577 108.997 170.074 109.72C170.572 110.444 171.782 108.906 172.234 109.732C172.551 110.297 172.042 111.767 172.969 112.117C173.896 112.468 174.009 112.784 173.602 113.734C173.195 114.683 172.641 115.011 172.845 115.848C173.048 116.696 172.822 116.854 172.211 117.374C171.601 117.894 169.487 118.301 167.7 118.787C165.914 119.273 163.132 127.278 159.469 131.822C158.271 133.315 152.81 129.324 154.359 126.057Z" fill="#FFDBB0"/>
<path d="M160.995 162.268C160.554 162.268 160.158 161.94 160.102 161.488C159.729 158.628 158.428 155.779 156.778 152.184C155.986 150.465 155.093 148.509 154.188 146.305C153.996 145.841 154.222 145.321 154.686 145.129C155.149 144.937 155.67 145.163 155.862 145.627C156.755 147.797 157.637 149.73 158.417 151.449C160.124 155.191 161.481 158.142 161.888 161.273C161.956 161.771 161.605 162.223 161.108 162.279C161.063 162.279 161.029 162.279 160.995 162.279V162.268Z" fill="#ECC128"/>
<path d="M156.303 144.925C157.761 141.997 162.476 132.455 163.901 129.764C165.97 125.875 165.449 125.298 162.035 122.653C156.619 118.47 155.522 119.985 154.075 121.839C152.04 124.439 142.961 132.624 140.643 132.59C138.913 132.568 139.207 132.67 136.675 131.912C134.821 131.358 129.36 133.755 126.601 135.519C124.238 137.033 121.581 143.387 123.401 147.966C124.939 151.844 123.062 157.451 122.655 159.011C121.298 164.257 118.924 171.176 118.189 173.301C116.911 176.964 117.126 181.848 126.024 180.65C128.557 180.311 136.562 179.214 142.701 180.186C153.623 181.916 161.21 183.046 162.035 178.479C163.007 173.12 155.127 147.299 156.303 144.925Z" fill="#003F67"/>
<path d="M136.246 141.793C135.873 142.087 135.387 142.517 135.692 143.206C136.009 143.896 136.37 144.235 136.789 144.19C137.58 144.088 137.671 143.952 138.021 143.387C138.372 142.822 138.225 142.46 137.716 141.951C137.207 141.443 136.8 141.556 136.235 141.804L136.246 141.793Z" fill="white"/>
<path d="M135.533 152.342C135.16 152.636 134.674 153.066 134.979 153.755C135.296 154.445 135.658 154.784 136.076 154.739C136.867 154.637 136.958 154.501 137.308 153.936C137.659 153.371 137.512 153.009 137.003 152.5C136.494 151.992 136.087 152.105 135.522 152.353L135.533 152.342Z" fill="white"/>
<path d="M134.765 162.889C134.392 163.183 133.905 163.612 134.211 164.302C134.527 164.992 134.889 165.331 135.307 165.286C136.099 165.184 136.189 165.048 136.54 164.483C136.89 163.918 136.743 163.556 136.235 163.047C135.726 162.538 135.319 162.651 134.753 162.9L134.765 162.889Z" fill="white"/>
<path d="M132.04 131.731C130.615 132.726 131.102 134.987 132.255 135.812C132.967 136.321 135.161 136.4 136.144 135.518C136.811 134.919 137.185 134.659 138.078 136.016C138.926 137.305 141.696 137.406 143.143 136.932C144.398 136.525 145.653 135.032 146.049 132.624C146.354 130.736 144.161 131.901 142.521 132.33C140.079 132.975 138.213 132.737 136.664 131.901C134.969 130.974 133.906 130.42 132.04 131.72V131.731Z" fill="white"/>
<path d="M147.236 176.093C146.987 172.181 146.071 166.947 147.315 164.437C148.072 162.899 150.843 161.283 152.832 160.604C158.407 158.705 160.091 158.886 162.183 159.248C163.28 159.44 166.253 160.118 166.773 161.995C167.452 164.482 167.271 166.359 167.282 167.297C167.316 169.162 167.418 170.463 167.531 172.814C167.576 173.775 167.372 174.996 165.122 176.714C163.404 178.037 158.26 180.479 154.981 180.581C153.206 180.637 150.718 180.796 149.463 180.332C147.88 179.756 147.349 177.766 147.247 176.093H147.236Z" fill="#ECC128"/>
<path d="M153.884 166.199C152.188 166.199 150.096 165.905 148.92 165.509C148.739 165.453 148.649 165.261 148.705 165.08C148.762 164.899 148.965 164.808 149.135 164.865C150.741 165.408 154.189 165.747 155.636 165.351C157.174 164.944 161.866 162.954 163.732 161.835C163.89 161.745 164.105 161.79 164.195 161.948C164.286 162.106 164.24 162.321 164.082 162.412C162.138 163.565 157.423 165.566 155.806 165.996C155.32 166.131 154.641 166.188 153.884 166.188V166.199Z" fill="#A2A2A2"/>
<path d="M155.151 178.906C154.97 178.906 154.823 178.771 154.812 178.59C154.744 177.606 154.597 175.413 154.461 173.242C154.326 171.094 154.179 168.98 154.122 168.053C154.111 167.872 154.246 167.703 154.439 167.691C154.631 167.691 154.789 167.816 154.8 168.008C154.868 168.935 155.004 171.06 155.14 173.197C155.287 175.368 155.422 177.561 155.49 178.533C155.501 178.714 155.366 178.884 155.174 178.895C155.174 178.895 155.162 178.895 155.151 178.895V178.906Z" fill="#A2A2A2"/>
<path d="M154.642 171.627H154.518C153.331 171.605 149.735 171.537 148.039 170.87C147.87 170.802 147.779 170.61 147.847 170.429C147.915 170.259 148.118 170.169 148.288 170.237C149.871 170.859 153.376 170.926 154.529 170.949H154.62C155.445 170.96 159.108 169.898 160.555 169.208C162.003 168.53 164.694 167.117 165.79 166.45C165.949 166.348 166.163 166.404 166.254 166.563C166.344 166.721 166.299 166.936 166.141 167.026C165.033 167.693 162.308 169.129 160.849 169.819C159.402 170.497 155.671 171.627 154.631 171.627H154.642Z" fill="#A2A2A2"/>
<path d="M161.425 167.783C161.9 167.478 162.454 167.139 162.612 167.523C162.77 167.908 162.974 169.332 163.008 169.954C163.042 170.587 163.144 170.7 162.33 170.983C161.515 171.265 161.572 171.525 161.402 170.361C161.233 169.196 160.747 168.213 161.436 167.783H161.425Z" fill="#A2A2A2"/>
<path d="M148.298 168.508C148.117 168.508 147.925 168.452 147.766 168.339C144.454 165.919 132.842 144.145 132.39 135.203C132.367 134.705 132.752 134.287 133.249 134.253C133.735 134.23 134.165 134.615 134.199 135.112C134.651 143.817 146.376 165.083 148.841 166.88C149.248 167.174 149.327 167.74 149.033 168.135C148.852 168.373 148.581 168.508 148.309 168.508H148.298Z" fill="#ECC128"/>
<path d="M135.985 132.433C139.083 134.163 142.339 134.073 144.464 132.897C146.59 131.721 148.218 129.991 149.405 127.855C150.208 125.876 150.299 123.479 150.106 122.575C149.926 121.75 149.518 120.879 148.976 120.133C147.698 118.392 149.089 117.657 145.595 114.65C144.532 113.734 138.97 109.913 133.09 112.773C127.923 115.283 129.495 128.804 135.985 132.433Z" fill="#FFDBB0"/>
<path d="M146.444 113.713C144.624 111.226 142.679 111.113 140.519 111.158C137.885 111.226 136.879 110.05 134.278 110.909C130.649 112.096 128.082 114.459 127.461 115.838C125.425 120.361 126.94 123.345 126.726 125.097C126.499 126.963 124.136 129.586 125.188 132.401C126.149 134.967 128.908 136.018 133.769 135.284C134.9 135.114 136.313 133.554 136.155 131.349C135.759 128.727 133.713 129.303 132.56 128.58C131.373 127.833 131.248 125.38 132.989 125.584C134.425 125.753 138.676 120.485 139.83 117.817C140.813 115.533 142.351 115.488 144.782 116.415C147.145 117.319 148.298 116.245 146.444 113.713Z" fill="#003F67"/>
<path d="M31.5376 40.2938C29.2311 43.0184 14.2616 76.4032 11.842 79.9418C9.42248 83.4804 -0.199313 99.4662 2.42376 100.857C10.9261 105.345 16.7829 90.2976 17.7213 85.5041C18.6597 80.7106 30.4635 52.2436 31.5489 48.8067C32.363 46.2404 36.5012 38.598 35.4723 37.5692C34.6244 36.7213 32.4195 39.2537 31.5489 40.2938H31.5376Z" fill="#E2C2BC"/>
<path d="M96.9898 93.0438C99.6129 96.3676 101.569 101.048 102.722 102.032C103.887 103.015 106.815 105.921 108.681 107.797C109.438 108.555 109.789 110.171 110.365 113.405C110.625 114.829 108.647 113.45 108.217 115.101C107.493 117.87 106.25 116.389 105.549 116.91C104.35 117.825 104.034 118.108 103.129 116.299C102.225 114.49 101.863 113.235 101.648 112.331C101.433 111.426 100.811 110.16 100.144 111.709C99.4773 113.258 99.0024 114.072 97.8604 114.388C96.7072 114.705 96.2324 113.947 97.25 112.161C97.9849 109.832 97.3856 106.644 97.4874 105.242C97.5891 103.84 96.0514 102.755 94.1972 100.449C92.3316 98.1425 94.3554 89.7087 96.9785 93.0438H96.9898Z" fill="#FFDBB0"/>
<path d="M47.2872 28.5015C47.0271 28.5128 43.5561 28.9877 43.2283 28.9764C43.1265 29.5756 42.8325 31.7914 42.5386 32.5376C42.2559 33.2837 38.2195 40.7001 37.9142 41.0845C41.9619 44.3743 50.6225 42.5089 53.0195 39.1738C52.3072 38.846 48.5083 33.0124 48.1239 31.5879C47.8412 30.5478 47.3211 28.8972 47.2985 28.4902L47.2872 28.5015Z" fill="#FFDBB0"/>
<path d="M16.048 221.667C23.3745 220.66 17.2804 214.126 20.4575 207.58C20.4575 207.58 24.4599 204.335 25.6471 207.083C26.5516 209.185 28.0327 217.303 28.6546 222.888C24.4599 224.889 19.5303 224.335 16.048 221.667Z" fill="#FFDBB0"/>
<path d="M16.0035 221.678C16.0035 221.678 16.0375 221.678 16.0488 221.678C19.5198 224.346 24.4494 224.9 28.6554 222.899C28.8476 224.64 28.9607 226.143 28.9381 227.127C28.8589 231.276 15.4043 232.271 9.25366 229.196C2.19849 225.68 3.91702 223.283 16.0035 221.678Z" fill="#003F67"/>
<path d="M68.2831 214.499C67.4464 210.78 67.4917 205.76 67.2769 202.142C63.5458 199.667 60.8662 199.825 61.0018 207.298C61.1488 214.759 60.4817 218.694 56.1514 221.339C56.1061 221.362 56.0722 221.384 56.0383 221.418C60.5948 220.909 65.2756 218.23 68.2944 214.511L68.2831 214.499Z" fill="#FFDBB0"/>
<path d="M68.2832 214.5C65.2644 218.231 60.5949 220.899 56.0272 221.408C51.7534 224.042 48.1466 227.196 51.188 228.507C54.2521 229.819 58.4129 229.276 62.1553 226.959C65.909 224.641 71.37 221.035 69.38 217.564C68.8939 216.727 68.5433 215.676 68.2832 214.5Z" fill="#003F67"/>
<path d="M23.8375 98.9245C23.5887 100.338 20.5473 139.409 19.8463 144.191C19.281 147.99 17.0649 214.364 17.1214 215.461C17.1893 216.557 22.1867 217.077 23.6452 216.987C25.0924 216.896 30.022 217.156 30.689 215.031C31.6953 211.865 36.3423 169.018 36.8737 165.287C37.5747 160.381 41.5658 140.461 41.5997 139.601C41.7015 137.487 44.7769 135.418 45.2405 139.601C45.7153 143.784 58.0279 205.139 58.3105 211.063C58.4801 214.5 64.2464 212.747 65.5919 212.668C66.9373 212.589 71.4259 211.04 71.5502 207.524C71.7424 202.064 67.5366 164.371 67.4122 160.867C67.2313 155.825 65.7614 137.205 66.4624 130.975C68.6106 111.994 65.1621 98.8228 64.3368 97.6018C62.8669 95.4311 23.8262 98.9358 23.8262 98.9358L23.8375 98.9245Z" fill="#A2A2A2"/>
<path d="M100.426 95.8823C99.9399 95.1587 85.2868 73.2602 84.2806 70.8295C83.2743 68.3989 72.4428 51.7121 66.1 45.2793C60.379 39.4683 52.8716 37.0377 51.5827 37.1733C49.4458 37.3994 46.6982 41.899 43.5777 41.4694C39.1004 40.8476 41.0451 37.9534 39.6884 37.9534C37.3819 37.9534 34.4761 37.9082 30.745 40.0901C27.387 42.0573 22.6383 44.4879 18.3984 52.1078C14.5316 59.0606 13.107 62.4296 8.35837 69.2467C6.21016 72.3218 18.7489 77.9632 22.3556 78.0084C27.3304 78.0763 23.9499 84.3056 23.2489 90.2635C22.0504 100.54 18.5116 106.374 22.8985 107.493C26.867 108.51 31.3555 106.555 34.363 106.227C42.334 105.368 42.7298 108.861 48.9935 108.884C52.3288 108.895 56.9984 108.601 60.3111 108.409C62.7872 108.262 68.5196 112.094 68.6892 107.911C69.0058 100.077 66.9027 93.1351 66.2017 88.2964C65.5233 83.5933 63.7935 75.0917 66.3826 74.3794C68.2256 73.8707 85.6487 96.7189 90.42 101.331C94.038 104.836 102.574 99.0704 100.437 95.871L100.426 95.8823Z" fill="#E2E2E2"/>
<path d="M58.2652 29.7464C56.5127 32.4484 52.4877 33.6129 49.842 32.8215C44.2115 31.1257 50.3056 26.6374 50.7466 24.2068C51.0745 22.4318 50.8823 19.2211 51.4589 17.921C52.0355 16.6208 50.3395 10.0298 55.0429 14.3937C56.2753 15.5355 56.0605 17.1183 58.0052 19.4133C58.6044 20.1255 60.5604 20.589 60.3908 22.1831C60.1873 24.0824 58.6496 24.4894 58.6948 25.6086C58.7401 26.7279 60.1647 27.7227 58.2765 29.7464H58.2652Z" fill="#003F67"/>
<path d="M36.7374 30.5023C39.6544 33.6566 43.3177 34.7306 46.0651 34.1314C48.8126 33.5322 51.1869 32.1077 53.2107 30.0501C54.737 28.0378 55.619 25.2679 55.6869 24.1487C55.7547 23.1199 55.5737 21.9442 55.2006 20.8815C54.33 18.383 56.1277 18.0325 53.1767 13.239C52.2835 11.7806 47.2975 5.2913 39.8014 6.50098C33.2211 7.55238 30.6433 23.9113 36.7374 30.5023Z" fill="#FFDBB0"/>
<path d="M45.2296 13.9523C46.4055 9.62229 54.5009 17.4117 54.5687 14.8793C54.7496 8.16389 45.8288 4.52355 42.6518 4.56878C38.2084 4.63661 28.6432 11.1937 28.4171 17.3552C28.2362 22.2617 29.8643 23.5505 28.0892 26.2412C27.0716 27.7901 28.5301 29.7459 29.9434 31.5209C31.9786 34.0759 28.5188 35.1499 31.4698 36.5857C35.1217 38.3719 38.3214 36.4387 40.3226 34.4376C41.8602 32.9001 38.7849 28.7849 36.795 28.2536C33.7197 26.603 33.9233 25.5403 34.172 24.4663C34.4207 23.3923 35.9132 22.3409 36.6142 23.0757C40.1192 26.7161 37.5525 22.8383 38.491 21.5721C41.0349 18.1126 40.8541 23.1436 45.2296 13.9296V13.9523Z" fill="#003F67"/>
<path d="M17.8339 81.2643C23.0462 80.1789 25.0023 79.5684 26.4156 77.4769C28.8351 73.8931 29.8866 69.0205 30.6781 61.6042C31.3112 55.7254 31.8086 39.3665 33.1088 38.2246C34.2847 37.1958 35.7433 35.5791 36.6817 38.0211C37.6201 40.4744 35.0084 70.1284 35.3023 77.0813C35.5963 84.0341 34.8161 100.608 34.3638 106.227C33.9116 111.857 34.7257 120.098 26.8226 122.619C20.6832 124.575 19.3378 120.765 12.6783 120.562C6.59551 120.37 4.40206 117.939 2.06164 117.023C-0.889314 115.87 0.275289 106.882 1.97124 99.0929C4.09684 89.3476 14.1481 82.0217 17.8339 81.253V81.2643Z" fill="#E2C2BC"/>
<path d="M20.7169 75.4977C23.9844 73.9715 26.5509 73.3271 27.8851 73.0331C29.2192 72.7392 35.4038 71.1677 36.1501 70.5346C36.8963 69.9015 38.7392 68.7032 38.5696 67.6631C38.4 66.623 39.8585 65.2437 40.0733 64.6897C40.2882 64.1358 39.8924 63.1409 38.8861 62.5643C37.8685 61.9878 37.586 60.959 37.6877 59.9528C37.7782 58.9466 37.9591 57.7935 36.7606 57.8839C35.5622 57.963 32.3285 61.4112 31.6049 62.3495C30.8813 63.2879 29.6828 65.1985 29.3776 63.3896C29.0723 61.5695 28.6878 59.7154 28.1677 60.959C27.6476 62.2026 26.1892 65.922 25.737 66.5438C24.9455 67.6292 21.6892 68.0588 19.4279 69.0197C17.4945 69.8337 18.6478 76.4926 20.7395 75.509L20.7169 75.4977Z" fill="#FFDBB0"/>
<path d="M21.5989 66.0145C25.7822 65.2458 26.5171 71.475 26.5624 72.6282C26.6076 73.7814 27.7269 75.7259 24.9681 76.8225C22.2094 77.9191 16.4205 83.9901 9.56888 81.5142C5.23855 79.9541 4.10784 71.102 10.7673 65.6528C14.8263 62.329 14.4193 67.3373 21.5875 66.0145H21.5989Z" fill="#E2E2E2"/>
</svg>
