<svg width="162" height="17" viewBox="0 0 162 17" fill="none" xmlns="http://www.w3.org/2000/svg">
<path fill-rule="evenodd" clip-rule="evenodd" d="M39.7026 0.942612C40.2617 1.04861 40.3444 1.31974 40.9944 1.36411C41.088 1.20389 41.2285 0.96478 41.581 1.04859V1.15459C41.8812 1.25319 41.7132 1.04861 41.9336 1.2606H42.052V1.6821L42.2861 1.78807V1.99762H42.4046C42.4431 2.10361 42.4817 2.20712 42.523 2.31311H42.052V2.62863C41.727 2.70505 41.7903 2.65822 41.6994 2.94415C41.2891 3.03289 41.1514 3.21038 40.6418 3.25968C40.6501 3.53575 40.6886 3.6171 40.7603 3.78471C40.3581 3.7576 39.8376 3.70089 39.8211 3.67871V3.88822H39.9395C40.3113 3.89069 39.5869 3.99423 39.5869 3.99423C39.4382 3.82908 39.273 3.73786 39.0003 3.67871C38.824 3.96464 38.5927 4.12733 38.1768 4.20374V3.99423L37.9426 4.1002C37.8738 4.26043 37.8518 4.27277 37.8242 4.52173C37.5763 4.53899 37.1136 4.61539 37.0007 4.73125C36.8575 4.87914 37.1053 4.84711 36.7665 5.04677V4.62524H36.6481V5.04677H36.2956V4.83722C36.1165 4.89885 36.1028 4.91858 35.8246 4.94323V4.73371L35.472 4.83969C35.3949 5.01963 35.3591 5.17001 35.3536 5.47073H34.7669C34.7669 5.47073 34.6485 5.63834 34.5328 5.68025V5.78625H34.4144V5.57671H34.1803V5.47073H34.0618V5.57671H33.7093V5.68272C33.5054 5.8454 33.4614 6.1757 33.3568 6.41973C32.9244 6.38276 32.5828 6.23488 32.2991 6.52574C32.2605 6.63173 32.222 6.73524 32.1807 6.84123C31.8667 6.87574 31.5527 6.91026 31.2414 6.94724V7.05325L31.0074 7.15922V7.36874L30.6548 7.26276L30.5364 7.47228H30.1838C30.1646 7.48214 30.0461 7.63003 29.9497 7.68179V7.7878C29.7541 7.75329 29.5586 7.71876 29.3631 7.68179V7.57581C29.2942 7.56842 28.9609 7.75328 28.7764 7.78533C28.6965 7.98499 28.6249 8.42866 28.5422 8.62586L28.1897 8.51988V8.41387C28.0272 8.38676 28.2365 8.4903 28.0713 8.51988C27.7903 8.56918 27.7683 8.44099 27.6003 8.41387L27.3662 8.7294H26.8952V8.8354L26.5427 8.94138V9.2569H26.7768V9.36291H26.6583C26.595 9.41221 25.7163 9.62912 25.7191 9.36291H25.6007V9.57242L25.014 9.46642C25.0195 9.84355 24.9865 10.1295 24.7799 10.307V10.201H24.6615V9.77947H24.4273C24.4191 10.0555 24.3805 10.1369 24.3089 10.3045C24.0638 10.2404 23.8297 10.1862 23.6038 10.4105V10.62H23.4854V10.726L22.7803 10.62C22.7417 10.689 22.7032 10.7605 22.6619 10.8295C22.5049 10.8641 22.3479 10.8986 22.1909 10.9355V11.1451H21.7199V11.3546C21.439 11.3053 21.3508 11.2338 21.1332 11.1451V11.6701C20.8578 11.7046 20.5851 11.7391 20.3097 11.7761V11.8821C19.9654 11.9536 19.9241 11.9979 19.8387 12.3036C20.004 12.311 19.8222 12.2863 19.9571 12.1976C20.1417 12.0768 20.0673 12.4564 20.0756 12.5131C19.8745 12.6314 19.9158 12.5797 19.8415 12.8286C19.9985 12.7941 20.1555 12.7596 20.3125 12.7226L20.4309 12.5131C20.4529 12.5106 20.7063 12.6117 20.9018 12.6191V12.4096C21.0203 12.4441 21.136 12.4786 21.2544 12.5156L21.3729 12.306C21.5161 12.2444 21.7172 12.2493 21.8438 12.2V11.7785C22.122 11.7366 22.4911 11.5789 22.9015 11.6726V11.7785H23.3725V11.6726H23.6066V11.251H23.8407V11.4606C24.1933 11.3915 24.5458 11.3201 24.8983 11.251L25.0168 11.357C25.339 11.1549 25.1242 10.9972 25.7218 10.9355C25.8568 11.0563 25.7219 10.9774 25.956 11.0415V10.726L26.5427 10.62V10.4105C26.931 10.4672 27.077 10.5436 27.2477 10.4105H27.3662C27.5149 10.2478 27.2395 10.1985 27.4846 10.095V10.201H27.603V9.88548C27.8619 9.8485 28.2117 9.74744 28.5422 9.88548C28.5808 9.95449 28.6194 10.026 28.6607 10.095H28.8948V9.88548C29.1316 9.94463 28.9967 9.87313 29.1289 9.99145L29.4815 9.88548V9.77947H29.834C29.9112 9.67348 29.991 9.56994 30.0681 9.46395C30.2637 9.49846 30.4592 9.53298 30.6548 9.56995V9.67593C30.7402 9.69072 31.0872 9.58228 31.4783 9.56995L31.3599 9.25443H31.594V9.36044H32.065L32.1834 9.46642V9.36044L32.5359 9.25443C32.5277 8.97836 32.4891 8.89701 32.4175 8.7294H33.1226C33.2576 8.60861 33.1227 8.68751 33.3568 8.62342C33.4477 8.30791 33.4284 8.34734 33.8277 8.3079C33.96 8.48784 33.9021 8.45086 34.1803 8.51741C34.2987 8.25366 34.4227 7.96774 34.6513 8.09592H34.7697V8.41141H35.0038C35.0892 8.12054 35.0369 8.17726 35.3564 8.09592V7.98991L36.0614 7.88393C36.0614 7.88393 36.1138 8.03674 36.2956 7.98991L36.414 7.78039H36.7665V7.57088L37.0007 7.67686V7.78286C37.1549 7.83463 37.0255 7.73355 37.1191 7.67686C37.4138 7.60537 37.3092 7.62263 37.4717 7.46734H37.5901V7.25783L37.8242 7.15182C37.9619 7.01871 38.0225 6.84617 38.1768 6.73032V6.83633H38.5293C38.5678 6.97683 38.6064 7.11732 38.6477 7.25783H38.7662C39.0526 6.82892 39.4244 6.86836 40.0579 6.73279C40.0937 6.72539 40.0882 6.58734 40.292 6.62678V6.73279C40.5262 6.80181 40.763 6.87329 40.9972 6.9423V6.83633H41.1156L40.9972 6.52081C41.0743 6.4863 41.1541 6.45177 41.2312 6.4148C41.3937 6.19542 41.1789 6.2669 41.4654 6.09928V5.9933L42.052 5.8873C41.9887 6.18063 41.9611 5.89716 42.052 6.20282H42.1705V5.9933C42.4046 6.02781 42.6414 6.0623 42.8755 6.09928V5.9933C43.0022 5.89717 42.8976 6.01054 42.994 5.8873H42.8755V5.78132H43.2281C43.2529 6.03028 43.2776 6.0426 43.3465 6.20282C43.4815 6.08203 43.3934 6.20282 43.465 5.9933C43.5999 5.87252 43.5118 5.99331 43.5834 5.78379C43.9359 5.67779 44.2885 5.57426 44.6411 5.46827L44.7595 5.57427C44.798 5.23411 44.8669 5.26615 44.9936 5.04924H45.2277V5.15521H45.3461V5.04924H45.8172L45.9356 4.73371C46.2413 4.84464 46.4313 4.92597 46.8748 4.94323C46.8362 4.87421 46.7977 4.80273 46.7563 4.73371C46.8362 4.61786 47.4174 4.58581 47.5799 4.41819L47.4615 4.20868H47.5799V4.10267C47.8911 4.22592 48.0233 4.30479 48.5191 4.31219V4.20621H48.4006V3.89069C48.7725 3.95971 48.6375 4.0509 48.7532 4.1002C48.8909 4.09281 49.1719 3.88823 49.4583 3.99423L49.5767 4.20374H49.8109C49.6979 4.5513 49.7007 4.82244 49.9293 5.15028H49.8109C49.6759 5.27106 49.8108 5.19219 49.5767 5.25628V5.78132H49.4583C49.428 5.95633 49.5685 5.96372 49.5767 5.99084V6.51587C49.1553 6.53066 48.9102 6.66623 48.6375 6.72539L48.4034 6.61941C48.3263 6.7254 48.2464 6.82891 48.1693 6.9349C48.1032 6.95955 47.5275 6.85604 47.3457 6.82893C47.2741 7.105 47.0125 7.38601 46.6407 7.35396C46.6407 7.35396 46.5773 7.22084 46.4065 7.24796L46.525 7.45747H46.054C46.0154 7.63248 45.9769 7.8075 45.9356 7.98251L45.3489 7.87653L45.2305 8.08605C44.9137 8.15753 44.922 7.88393 44.8779 7.87653L44.5253 7.98251L44.6438 8.08851C44.6493 8.13042 44.5391 8.32514 44.5253 8.51001C44.1342 8.54452 43.7431 8.57904 43.3493 8.61602V8.4065C43.0711 8.38432 43.0573 8.36212 42.8783 8.3005V8.61602C42.8535 8.66039 42.0713 9.14598 42.5257 9.35304H42.1732V9.24703C42.0603 9.0523 42.0548 9.45658 42.0548 9.45658C41.9226 9.54531 42.0382 9.44423 41.9363 9.56255C42.2669 9.46395 42.2641 9.45163 42.6415 9.56255V9.66856L42.994 9.56255L42.8755 9.45658L42.994 9.14105C43.5449 9.33086 43.9084 9.20268 44.2858 8.93154C44.3243 8.86252 44.3629 8.79101 44.4042 8.72199H44.9909C44.9909 8.72199 44.9798 8.66039 45.2249 8.61602V8.93154H45.3434V8.72199C45.8446 8.7146 46.1228 8.69982 46.401 8.51248L46.5194 8.30296C46.715 8.33747 46.9106 8.372 47.1061 8.40897C46.9712 8.28819 47.1061 8.36705 46.872 8.30296V8.09345C46.9904 8.12796 47.1061 8.16245 47.2246 8.19942V7.98991H47.4587V8.19942C48.139 8.15013 48.6265 7.80751 49.103 7.56841V7.88393H49.3371V7.67439H50.1607V7.56841H50.5132V7.46241C50.7473 7.49692 50.9842 7.53144 51.2183 7.56841C51.3174 7.45009 51.2045 7.55361 51.3367 7.46241V7.04091C51.5708 7.0064 51.8077 6.97188 52.0418 6.9349C52.0032 7.04089 51.9647 7.14443 51.9234 7.25042H52.0418V7.35643C52.174 7.26769 52.0583 7.36874 52.1602 7.25042C52.2952 7.12964 52.2071 7.25043 52.2787 7.04091C52.4632 7.0483 53.1022 7.14688 53.1022 7.14688V7.04091H53.2206V6.72539C53.3501 6.57749 53.7495 6.61695 54.0442 6.61941V6.72539L54.7493 6.61941V6.5134H54.9834V6.4074H55.3359L55.2175 6.72292H55.3359C55.4213 6.43205 55.369 6.48874 55.6885 6.4074V6.61694C55.8069 6.58243 55.9226 6.54791 56.041 6.51094V6.40496C56.3165 6.37045 56.5891 6.33593 56.8646 6.29895V6.19295H57.2171L57.3355 5.98343C57.4347 5.94892 58.1095 6.09435 58.2748 6.19295V5.98343L58.6273 5.87746V5.77145C58.7871 5.72708 58.5805 5.84788 58.7458 5.87746C58.9413 5.91197 58.955 5.77638 58.9798 5.77145C59.1947 5.73201 59.4343 5.90948 59.5665 5.98097V5.87499C59.9328 5.57673 59.5941 5.42883 60.2716 5.34995V5.45593H60.6242L60.5057 5.66547C60.6572 5.83556 60.7261 5.5496 60.8583 5.98097C61.0125 5.87004 61.0345 5.76654 61.2108 5.66547V5.98097H61.445C61.4064 5.77144 61.3678 5.55947 61.3265 5.34995C61.8773 5.18234 61.7231 5.43129 62.0316 4.82492H62.15C62.1362 5.04923 62.0288 5.18479 62.0316 5.24641L62.15 5.35242C62.3648 5.21931 62.1638 5.20946 62.2685 5.1429C62.4035 5.05417 62.3428 5.23902 62.3869 5.24888C62.5053 5.21437 62.621 5.17988 62.7395 5.1429V4.93336C63.0039 4.89146 63.1912 4.76083 63.563 4.82738C63.563 4.82738 63.5685 4.9654 63.7971 4.93336V4.82738H64.3838V4.93336C64.1028 4.99745 64.1662 4.96789 64.0312 5.1429H64.2654C64.6041 4.64252 65.1687 4.81753 65.7939 4.61787L65.9124 4.30235C66.2484 4.30235 66.4165 4.3393 66.6175 4.40832V3.98683H66.7359C66.8131 4.09282 66.8929 4.19635 66.97 4.30235H67.0885L66.97 4.51186H67.0885V4.61787C67.4245 4.83478 67.3915 4.43051 67.5595 4.93336H67.7935V5.1429H68.0277C67.9891 5.2489 67.9506 5.3524 67.9093 5.4584H68.0277C68.1076 5.61615 68.1103 5.63343 68.1461 5.87992H68.3802V6.08944C68.562 6.18311 68.6254 6.24474 68.7328 6.40496C69.1129 6.22009 68.9559 6.15352 69.4379 6.29895L69.3194 5.98343H69.5536V5.77392H69.7876V5.87992H69.9061V5.77392L70.2587 5.87992L70.1402 6.19542H70.3743C70.4597 5.90455 70.4074 5.96127 70.7269 5.87992C70.9032 5.69505 71.0437 5.68024 71.432 5.67038V5.46086C71.6661 5.39184 71.9029 5.32037 72.1371 5.25135C72.1453 5.52742 72.1839 5.60877 72.2555 5.77639C72.3877 5.68765 72.272 5.7887 72.374 5.67038H72.4924V5.35489C72.8449 5.3894 73.1975 5.42389 73.55 5.46086V5.25135H73.7841L73.9026 4.93583C74.0596 4.97034 74.2166 5.00486 74.3736 5.04183C74.4121 4.97281 74.4507 4.90134 74.492 4.83232L75.0787 4.93829V5.14781C75.3789 4.98512 75.8884 4.49461 76.2548 4.72631H76.4888V4.93583H76.6073V4.72631C77.1719 4.6992 77.1747 4.65236 77.6649 4.72631C77.7035 4.5513 77.742 4.37629 77.7833 4.20128C78.3259 4.11007 78.7364 4.11007 79.0751 4.20128V3.99176H79.7802V4.09774H80.1328V4.20374C80.2512 4.16923 80.3669 4.13471 80.4853 4.09774V3.99176C80.3503 3.87098 80.4385 3.99177 80.3669 3.78225C80.7525 3.78964 80.7139 3.91535 80.9535 3.78225L81.072 3.5727L81.7771 3.78225V3.99176C82.0938 3.99176 82.4436 4.02626 82.6006 3.88575V3.67624L82.8347 3.78225V3.67624C83.0688 3.64173 83.3057 3.60724 83.5398 3.57026C83.65 3.63435 83.4985 3.72061 83.6582 3.67624L83.7767 3.46672C83.9254 3.46672 84.0769 3.65404 84.3634 3.5727V3.46672C84.5589 3.43221 84.7544 3.39769 84.95 3.36072L84.8316 3.67624H84.95C85.2117 3.93013 85.1704 3.82415 85.5367 3.78225C85.5229 4.11501 85.3081 3.97942 85.6551 4.09774C85.7074 4.35902 85.7625 4.48476 85.7735 4.83479C85.4485 4.9112 85.5119 4.86434 85.421 5.15028H85.3026V5.67531C85.0216 5.72461 84.9335 5.79609 84.7159 5.88483V5.56934H84.5974C84.4239 6.15846 84.3937 5.78624 84.0108 5.99084V6.09684L83.5398 6.41233C83.5784 6.30634 83.6169 6.20283 83.6582 6.09684H83.5398C83.4682 6.26446 83.4351 6.3458 83.4214 6.62188C82.9779 6.70569 82.7631 6.82646 82.1296 6.83139V6.62188H81.8955V6.83139H81.3088V6.93737H81.4273C81.3529 7.08773 81.2896 7.01624 81.1932 7.14688H80.959L81.0775 6.93737H80.959C80.8434 7.08034 80.8902 7.14442 80.6065 7.14688C80.6065 7.14688 80.5239 6.99654 80.3724 7.04091C80.3338 7.10993 80.2952 7.1814 80.2539 7.25042H80.0199L79.9014 7.88147L79.4304 7.98744V7.56594H79.1963C79.1109 7.90364 79.0365 7.948 78.6096 7.98744L78.7281 7.67192H78.6096C78.5656 7.7927 78.5766 8.0466 78.3755 7.98744L78.2571 7.67192C78.1386 7.70643 78.023 7.74095 77.9046 7.77793V7.98744C77.7173 7.92335 77.6264 7.89379 77.3179 7.88147V7.56594H77.1995V7.88147C77.3344 8.00225 77.2463 7.88146 77.3179 8.09098C77.0425 8.12549 76.7698 8.15998 76.4944 8.19696V8.4065C76.0785 8.44594 76.1363 8.53714 75.7892 8.61602V8.93154C75.5028 8.87238 75.5303 8.82059 75.3183 8.72199V8.93154H75.1999V9.24703H75.3183V9.03752H75.5524V9.24703C75.748 9.21252 75.9435 9.17803 76.139 9.14105V9.45658H76.3732V9.14105C76.5687 9.17556 76.7643 9.21006 76.9598 9.24703C77.0149 8.99561 77.0948 8.91673 77.194 8.72199C77.5768 8.72446 78.0423 8.67517 78.2516 8.828H78.37C78.4086 8.75898 78.4471 8.6875 78.4885 8.61849H78.7226V8.51248H78.9567V8.4065L79.1908 8.51248V8.4065H80.3669C80.3283 8.30051 80.2898 8.19697 80.2485 8.09098H80.4826V7.98497H80.601V8.09098L80.9535 8.19696C80.9618 8.34485 80.9811 8.22655 80.8351 8.30296C80.9673 8.41389 80.8351 8.34981 81.0693 8.40897V8.30296H81.1877V7.98744H81.3061C81.408 7.84201 81.3942 7.80505 81.4245 7.56594C81.7027 7.55362 81.722 7.53389 81.8955 7.45994V7.56594H82.014V7.67192L81.8955 7.88147H82.2481V7.67192C82.5235 7.63741 82.7962 7.60292 83.0716 7.56594V7.67192H83.19C83.3222 7.58811 83.146 7.5339 83.3084 7.56594V7.67192H83.7794V7.88147H83.8979C83.9365 7.67195 83.975 7.45994 84.0163 7.25042H84.2504V7.45994H84.3689V7.14445C84.6388 7.15431 84.6746 7.23317 84.8399 7.25042L84.9583 7.04091C84.9583 7.04091 85.2805 7.13949 85.4292 7.14688V6.93737L85.5477 7.04338C85.7047 7.00887 85.8617 6.97434 86.0187 6.93737V7.04338H86.6053V6.72785H86.8395V6.83386H86.9579V6.72785L87.192 6.83386L87.3104 6.51834C87.6217 6.41481 87.5556 6.74757 87.7814 6.72785V6.62188C88.2965 6.51342 88.4287 6.36305 88.9575 6.30636V6.41233H88.8391C88.616 6.50354 89.0732 6.51834 89.0732 6.51834C89.1723 6.63666 89.0594 6.53311 89.1916 6.62432V6.4148L89.7783 6.30882C89.8168 6.23981 89.8554 6.1683 89.8967 6.09928L90.0152 6.20529C90.712 6.24472 90.8029 5.98591 91.1912 5.78379V6.09928H91.3097C91.4446 5.9785 91.3097 6.05739 91.5438 5.9933V5.78379C91.6622 5.8183 91.7779 5.85279 91.8963 5.88976L92.0148 5.68025H92.4857V5.57427H92.6042C92.6758 5.8257 92.6428 5.76898 92.8383 5.88976V5.57427C93.4553 5.48553 93.3588 5.56194 93.8959 5.78379C93.9565 5.53729 94.0667 5.38939 94.2485 5.25875C94.3834 5.37953 94.2485 5.30064 94.4826 5.36473V5.15521H94.8352V4.9457C95.0307 4.98021 95.2262 5.0147 95.4218 5.05167V5.26122H95.6559V4.9457C95.9121 4.96049 96.047 5.05167 96.1269 5.05167V4.9457L96.4795 4.83969C96.518 4.90871 96.5566 4.98022 96.5979 5.04924C96.9725 5.14783 97.5343 4.82985 97.774 4.73371L97.6555 4.41819H98.0081C98.0797 4.66962 98.0466 4.61293 98.2422 4.73371C98.3413 4.85203 98.2285 4.74849 98.3607 4.83969C98.3689 4.56362 98.4075 4.48227 98.4791 4.31465C98.7132 4.28014 98.9501 4.24565 99.1842 4.20868C99.2833 4.327 99.1704 4.22345 99.3026 4.31465C99.2117 4.42065 99.1594 4.41821 99.0685 4.5242H99.421L99.3026 4.20868L99.421 4.10267C99.5945 4.15197 99.6083 4.22347 99.892 4.20868V4.10267H100.01V4.20868C100.167 4.24319 100.324 4.27768 100.481 4.31465V4.42066C100.961 4.58335 101.178 4.34426 101.421 4.52667C101.787 4.74358 101.476 4.66223 101.655 4.94816L101.889 5.05414V5.26369H102.007C102.115 5.40665 102.095 5.44855 102.126 5.68518L101.655 5.57918C101.748 5.91934 101.872 5.94153 101.889 6.41973C101.757 6.50847 101.872 6.40742 101.77 6.52574H101.652C101.616 6.21023 101.635 6.23979 101.418 6.10421V6.21022H101.536C101.459 6.35072 101.379 6.49121 101.302 6.63172C100.996 6.63665 100.897 6.65391 100.716 6.73772V6.8437C100.514 6.90532 100.512 6.74512 100.481 6.73772C100.06 6.64159 99.7929 6.87084 99.6579 7.05325H99.5394C99.5009 7.26277 99.4623 7.47474 99.421 7.68426H99.1869L99.0685 7.47474C98.9115 7.50925 98.7545 7.54374 98.5975 7.58072C98.6223 7.82968 98.647 7.84202 98.7159 8.00225C98.4432 7.99239 98.4157 7.91843 98.2449 7.89624L98.1265 8.10576C97.9695 8.14026 97.8125 8.17479 97.6555 8.21176C97.5702 8.50263 97.6225 8.44594 97.303 8.52728C96.8898 8.86005 96.5428 8.39416 96.4795 8.42128V8.52728C96.2839 8.63328 96.0883 8.73678 95.8928 8.84277C95.9561 9.21005 96.0084 9.03751 95.8928 9.36781H96.0112V9.26184H96.4822V9.47135L96.8348 9.36534V9.25937L97.1873 9.36534V9.04985C97.3058 9.08436 97.4214 9.11885 97.5398 9.15583V9.04985L97.4214 8.94385H98.1265C98.1651 9.04984 98.2036 9.15337 98.2449 9.25937C98.3221 9.22486 98.4791 9.04985 98.4791 9.04985C98.5975 9.08436 98.7132 9.11885 98.8316 9.15583V9.04985C99.0051 8.96851 99.0272 8.97096 99.3026 8.94385V8.73433H99.5367V8.52482H100.008V8.73433C100.272 8.70722 100.319 8.72446 100.479 8.62832V8.52235H100.713V8.41634H100.947V8.31037C101.156 8.16 101.228 8.07372 101.534 7.99484V8.31037H102.005C102.043 8.13535 102.082 7.96034 102.123 7.78533H102.357C102.319 7.89132 102.28 7.99486 102.239 8.10085H102.357C102.525 7.95049 103.013 7.83216 103.296 7.78533V7.57581C103.453 7.54131 103.61 7.50678 103.767 7.46981V7.15429H104.001V7.46981H104.236V7.15429H104.822C104.784 7.26028 104.745 7.36381 104.704 7.46981H104.938C105.059 7.34903 105.155 7.26769 105.409 7.26029V7.36627H105.527L105.646 7.26029C105.756 7.07049 105.808 7.09512 105.88 6.83877L106.232 6.73279V6.62678L106.351 6.73279L106.703 6.62678V6.9423H106.937C106.962 6.69334 106.987 6.68103 107.056 6.52081L107.29 6.62678V6.52081C107.458 6.39016 107.472 6.22992 107.643 6.09928C107.678 6.14858 107.882 6.48135 107.995 6.4148L108.114 6.09928C108.623 6.06477 109.133 6.03028 109.642 5.9933V6.09928C109.317 6.17569 109.381 6.12887 109.29 6.4148C109.582 6.36797 109.722 6.31868 110.113 6.30882V6.20282H109.995V5.67778C110.19 5.71229 110.386 5.74681 110.581 5.78379C110.62 5.67779 110.658 5.57426 110.7 5.46827C110.835 5.58905 110.747 5.46826 110.818 5.67778L111.171 5.78379V5.67778C111.413 5.55946 111.383 5.5151 111.757 5.46827V5.15274C112.008 5.14042 112.16 5.0443 112.228 5.04677L112.347 5.15274V4.94323L112.934 4.83722V5.04677C113.011 5.01226 113.091 4.97774 113.168 4.94076V4.83479C113.355 4.81507 113.314 5.01719 113.402 5.0443H113.873C113.911 4.86929 113.95 4.69428 113.991 4.51926C114.187 4.55377 114.382 4.58827 114.578 4.62524L114.696 4.41573H114.815V4.52173C114.933 4.48722 115.049 4.4527 115.167 4.41573V4.20621C115.302 4.32699 115.214 4.2062 115.286 4.41573H115.52C115.575 4.1643 115.655 4.08542 115.754 3.89069C116.145 3.89562 116.812 3.9967 116.812 3.9967V3.89069H117.046V3.78471H117.398C117.437 3.71569 117.475 3.64419 117.517 3.57517C117.635 3.60968 117.751 3.6442 117.869 3.68117V3.78718H118.456V3.57763L118.927 3.47166V3.68117H119.161C119.235 3.96957 119.315 3.92028 119.395 4.20621H119.748C119.833 4.49707 119.781 4.44039 120.1 4.52173V4.73125C119.398 4.85942 119.492 5.15275 119.277 5.67778H119.982L120.1 5.25628C120.59 5.18973 120.433 5.15276 120.924 5.04677V5.25628C121.48 5.04676 121.397 5.04676 121.863 5.25628V5.04677C122.02 5.01226 122.177 4.97774 122.334 4.94076V4.73125H122.568V4.83722H122.686V4.73125C122.954 4.68441 123.003 4.78546 123.157 4.83722V4.73125H123.039C122.821 4.63018 123.273 4.62524 123.273 4.62524V4.41573H123.507V4.20621C123.876 4.26783 124.031 4.37629 124.446 4.41573L124.565 4.1002C124.565 4.1002 124.314 4.08297 124.446 3.99423H124.681V4.1002H125.386V3.78471C125.76 3.85373 125.617 3.94 125.738 3.99423C125.934 3.97697 125.956 3.78718 125.972 3.78471C126.198 3.72802 126.135 3.85371 126.206 3.89069H126.325V3.78471C126.482 3.81922 126.639 3.85371 126.796 3.89069C126.881 3.59982 126.829 3.65651 127.148 3.57517V3.78471H127.619C127.73 3.59491 127.782 3.61954 127.854 3.36318L128.206 3.46919V3.36318C128.283 3.32868 128.363 3.29418 128.44 3.25721V3.46672H128.674L128.556 3.1512C128.837 3.1019 128.925 3.03043 129.142 2.94169V3.36318C129.754 3.22022 129.561 3.1315 130.319 3.25721V2.94169H130.671V3.04769C130.622 3.10932 130.478 3.06248 130.553 3.25721H130.671C130.861 2.60646 130.922 3.07971 131.376 2.83568C131.643 2.69271 131.368 2.44868 131.963 2.31064V2.41665L132.315 2.31064V2.52019H132.434V2.31064C132.85 2.35008 132.792 2.44131 133.139 2.52019V2.7297C133.249 2.89486 133.979 2.92444 133.61 3.25474H133.844V3.67624L133.61 3.78225C133.604 3.81675 133.72 4.01641 133.728 4.20374H133.962C133.907 4.45517 133.828 4.53405 133.728 4.72878C133.519 4.73864 133.304 4.83972 133.257 4.83479V4.72878H132.786V4.83479L132.081 4.94076V5.15028C131.924 5.2193 131.767 5.29077 131.61 5.35979V5.25382H131.492V5.56934L130.668 5.77885C130.803 5.89964 130.668 5.82074 130.903 5.88483V5.99084C131.109 6.07711 131.28 5.9292 131.373 5.88483V5.77885H131.726V5.56934C132.274 5.54469 132.395 5.4165 132.784 5.25382V5.14781H133.607V5.25382H133.489C133.354 5.3746 133.489 5.2957 133.255 5.35979V5.56934C133.734 5.44609 133.379 5.4732 133.607 5.25382L133.841 5.35979V5.25382H134.075V5.14781H134.428C134.552 5.08372 134.72 4.62771 135.015 4.72631V4.83232H135.249V4.5168C135.367 4.55131 135.483 4.5858 135.601 4.62277V4.5168C135.835 4.48229 136.072 4.44776 136.306 4.41079V4.62031H136.541C136.579 4.7263 136.618 4.82983 136.659 4.93583H136.777V4.72631H137.011C137.08 4.33438 137.08 4.48476 137.011 4.0953C137.047 4.10762 138.144 4.32453 138.188 4.30481V4.19881H138.306V3.77731H138.424C138.664 3.96958 138.959 3.80689 139.364 3.77731V3.5678C139.601 3.62695 139.466 3.55545 139.598 3.67377C140.03 3.56285 139.92 3.46179 140.184 3.25227V3.14627C140.482 2.98112 141.113 3.13887 141.595 3.14627C141.669 2.85787 141.749 2.90717 141.829 2.62123C142.333 2.60398 142.231 2.55468 142.534 2.41172V2.72724H143.005C143.03 2.47828 143.054 2.46596 143.123 2.30574L143.476 2.41172L143.594 2.2022H143.828V2.09619C143.947 2.06168 144.062 2.02719 144.181 1.99022L144.299 2.30574C144.597 2.09129 144.349 2.05184 144.886 1.99022V2.09619C144.751 2.19233 144.748 2.17263 144.652 2.30574H144.77V2.41172C145.015 2.29586 144.98 2.24164 145.357 2.2022C145.456 2.32052 145.343 2.217 145.475 2.30821C145.338 2.50787 145.376 2.40926 145.123 2.51772V2.6237H145.357C145.318 2.83322 145.28 3.04522 145.239 3.25474H145.357V3.36072H145.239V3.57026C145.277 3.81676 145.316 4.06079 145.357 4.30728H145.239C145.139 4.42806 145.178 4.45517 145.004 4.5168V4.41079H144.886C144.809 4.51678 144.729 4.62032 144.652 4.72631H144.299L144.181 4.93583C144.024 4.97034 143.867 5.00486 143.71 5.04183C143.671 5.14783 143.633 5.25136 143.592 5.35735L143.239 5.46333L143.12 5.67285H143.002V5.56687C142.57 5.47567 142.435 5.92427 142.179 5.67285V5.88239H141.944C141.983 6.02289 142.022 6.16339 142.063 6.30389H141.944C141.812 6.48383 141.87 6.44685 141.592 6.5134C141.581 6.49122 141.424 6.13133 141.358 6.19788V6.30389L141.124 6.40987C141.085 6.51586 141.047 6.61939 141.005 6.72539H140.653C140.259 6.89793 140.498 7.00393 139.829 7.04091C139.868 7.1469 139.906 7.25044 139.948 7.35643C140.105 7.32192 140.262 7.2874 140.419 7.25042V7.56594H140.537V7.45994H141.008C141.366 7.33916 141.531 7.16663 142.066 7.14445V6.9349C142.399 6.86835 142.377 6.74018 142.418 6.72539H142.889V6.83139L143.36 6.72539C143.36 6.72539 143.412 6.85604 143.594 6.83139V6.72539L144.065 6.83139V6.72539C144.2 6.6046 144.112 6.72539 144.184 6.51587H144.065V6.62188C143.963 6.82154 143.947 6.41233 143.947 6.41233C144.376 6.44684 144.809 6.48136 145.239 6.51834L145.357 6.30882C145.475 6.27678 145.572 6.47149 145.828 6.4148V6.30882H146.415V6.4148H146.533V6.30882H147.004L147.122 5.9933H147.241L147.122 5.78379H147.475C147.61 5.90457 147.475 5.82567 147.709 5.88976V5.68025C147.99 5.72955 148.078 5.80102 148.296 5.88976V5.78379H148.177C147.96 5.68272 148.412 5.67778 148.412 5.67778V5.78379C148.546 5.90457 148.458 5.78378 148.53 5.9933C148.781 5.98098 148.929 5.8873 149.001 5.8873V5.9933H149.235C149.268 5.80597 149.353 5.78379 149.353 5.78379C149.315 5.67779 149.276 5.57426 149.235 5.46827H149.353V5.36226C149.687 5.49537 149.838 5.63341 150.293 5.67778V5.46827C150.978 5.32776 150.359 5.20205 150.998 5.46827V5.04677H151.116V5.15274C151.273 5.04675 151.43 4.94322 151.587 4.83722V5.25875H151.706C151.763 5.20945 151.673 5.08866 151.824 5.15274V5.25875H151.942C151.942 5.25875 151.909 5.63588 152.061 5.46827V5.36226C152.196 5.24148 152.108 5.36227 152.179 5.15274H151.827C151.918 4.83723 151.898 4.87666 152.298 4.83722V4.94323L152.65 4.83722V4.94323H153.003V5.04924C153.306 5.10593 153.647 4.72138 153.826 4.62771L154.179 4.73371V4.62771C154.375 4.51432 154.375 4.48475 154.65 4.41819C154.611 4.52419 154.573 4.62772 154.532 4.73371H154.65V4.83969C154.768 4.77067 154.884 4.69919 155.003 4.63018V4.5242H155.237C155.449 4.44039 155.493 4.28508 155.589 4.10267C155.785 4.24317 155.98 4.3837 156.176 4.5242C156.247 4.31714 156.181 4.26784 156.41 4.20868C156.448 4.221 156.446 4.40587 156.644 4.41819C156.895 4.11993 156.749 4.20619 157.115 4.31219C157.154 3.97202 157.222 4.0041 157.349 3.78718C157.76 3.84387 157.567 3.89071 157.936 3.78718V4.41819H158.054C158.186 4.23825 158.129 4.27523 158.407 4.20868C158.627 4.53898 158.842 4.50695 158.878 5.04924C159.2 5.06156 159.729 5.19467 159.817 5.04924H159.935V5.15521C160.26 5.22423 160.629 5.44854 160.759 5.68025V5.99577H160.877C161.04 6.1905 161.15 6.2398 161.23 6.52081C161.111 6.4863 160.996 6.45177 160.877 6.4148V6.52081H160.996V6.83633H161.114C161.222 6.99162 161.219 7.09515 161.233 7.36136C161.098 7.48215 161.186 7.36136 161.114 7.57088C160.723 7.60539 160.332 7.63988 159.938 7.67686V7.46734C159.781 7.50185 159.624 7.53637 159.467 7.57335V7.3638C159.39 7.39831 159.31 7.43283 159.233 7.46981C159.194 7.40079 159.156 7.32931 159.115 7.26029C159.112 7.26029 158.768 7.40326 158.528 7.26029L158.41 6.94477C158.272 6.8585 158.208 7.25288 157.939 7.15429V7.04831C157.804 6.92753 157.892 7.04829 157.82 6.83877L157.468 6.94477V6.83877H157.349C157.388 6.73277 157.426 6.62927 157.468 6.52327C157.468 6.52327 157.322 6.49124 157.349 6.31376C157.349 6.31376 157.545 6.2669 157.468 6.10421H157.349C157.214 6.225 157.349 6.14613 157.115 6.21022C157.076 6.31621 157.038 6.41975 156.997 6.52574C156.721 6.49616 156.705 6.49122 156.526 6.41973V6.31376C156.327 6.32608 156.327 6.51341 156.291 6.52327C156.024 6.60708 155.818 6.39262 155.705 6.41727V6.52327C155.305 6.66624 155.217 6.8511 154.766 6.94477C154.804 6.83878 154.843 6.73524 154.884 6.62925H154.65C154.476 6.91518 154.289 7.10992 153.826 7.15429V6.83877H153.708C153.617 7.15428 153.636 7.11485 153.237 7.15429V6.94477C152.747 7.18387 152.681 7.15924 152.061 7.05078V6.84123H151.942C151.934 7.24795 151.962 7.27507 151.59 7.36627V7.47228C151.477 7.66701 151.471 7.26276 151.471 7.26276H151.237C151.199 7.33178 151.16 7.40326 151.119 7.47228C150.923 7.43777 150.728 7.40324 150.532 7.36627V7.57581H150.18V7.68179C150.045 7.80257 150.133 7.68178 150.061 7.89131L149.356 7.99731V7.7878L148.18 7.89377V8.10329H147.828V8.20929C147.723 8.40649 147.709 7.99978 147.709 7.99978C147.332 8.08112 147.456 8.15753 147.004 8.20929V8.52482C146.31 8.46073 146.362 8.15259 145.594 8.10329C145.591 8.45331 145.533 8.57905 145.475 8.84034H145.241C145.277 8.74913 145.467 8.60861 145.36 8.41881H145.241V8.52482C145.106 8.6456 145.194 8.52481 145.123 8.73433L144.418 8.84034V9.04985C144.024 8.98576 143.677 8.76144 143.242 8.94385C143.165 9.04984 143.085 9.15337 143.008 9.25937C142.688 9.34318 142.644 8.97589 142.537 8.94385C142.325 8.87976 142.451 9.06216 142.418 9.15336C142.3 9.11885 142.184 9.08436 142.066 9.04739V9.46888H141.831L141.713 9.6784C141.52 9.73016 141.495 9.57489 141.479 9.57242C141.195 9.52805 141.173 9.6784 141.008 9.6784V9.57242C140.774 9.53791 140.537 9.50339 140.303 9.46642V9.67593C139.523 9.74988 139.127 9.76713 138.54 9.67593L138.422 9.99145C138.201 9.93969 137.86 9.9471 137.482 9.88548V9.77947C137.617 9.65869 137.529 9.77948 137.601 9.56995C137.32 9.57981 137.309 9.63896 137.13 9.67593V9.56995C136.934 9.45657 136.937 9.4196 136.659 9.36044V9.15089H136.425C136.386 9.0449 136.348 8.9414 136.306 8.8354L135.601 8.7294V8.51988C135.695 8.55439 135.97 8.73432 136.188 8.62586V8.51988C135.841 8.31775 135.902 8.10084 135.954 7.78286C136.111 7.71384 136.114 7.61772 136.188 7.57335C136.265 7.60786 136.345 7.64235 136.422 7.67932V7.25783H136.541C136.502 7.0483 136.463 6.8363 136.422 6.62678C136.304 6.59227 136.188 6.55778 136.07 6.52081C136.108 6.58983 136.147 6.6613 136.188 6.73032L135.835 6.62432V6.83386H135.717C135.678 6.90288 135.64 6.97436 135.599 7.04338H135.246C135.274 7.28741 135.375 7.10747 135.246 7.3589L135.012 7.25289V7.46241C134.885 7.64728 134.893 7.25289 134.893 7.25289C134.698 7.2874 134.502 7.32192 134.307 7.3589C134.307 7.3589 134.252 7.20113 134.073 7.25289C134.034 7.32191 133.996 7.39339 133.954 7.46241H133.602C133.563 7.5684 133.525 7.67193 133.483 7.77793C133.301 7.69165 132.963 7.39832 132.66 7.46241C132.621 7.53142 132.583 7.6029 132.541 7.67192C132.315 7.6522 132.346 7.46734 132.307 7.46241H132.189V7.56841H131.602V7.67439H131.836C131.798 7.88391 131.759 8.09591 131.718 8.30543H131.484C131.376 8.26353 131.407 7.98499 131.013 8.09592L130.894 8.30543H130.308V8.19942C130.137 8.11562 130.109 8.12549 129.837 8.09345V8.40897C129.718 8.37446 129.603 8.33994 129.484 8.30296V8.40897C129.349 8.52975 129.437 8.40896 129.366 8.61849C128.928 8.72941 129.049 8.83539 128.779 9.03998V9.14599H128.426V8.83047H128.192V9.03998H127.606V8.93398H127.487C127.41 9.07448 127.33 9.215 127.253 9.3555L127.019 9.2495V9.3555L126.666 9.56502V9.2495H126.548V9.3555L126.195 9.2495V9.3555C126.03 9.34811 126.242 9.26675 126.077 9.2495L125.372 9.3555V9.67103H125.253V9.56502C124.934 9.41219 124.678 9.71291 124.548 9.77453C124.482 9.44423 124.433 9.33331 124.077 9.2495C124.143 9.50585 124.201 9.48122 124.312 9.67103H124.077C123.89 9.82632 123.386 9.78686 123.02 9.777V9.56749H122.786V9.777C122.552 9.74249 122.315 9.708 122.081 9.67103C122.023 9.42207 121.97 9.42204 121.846 9.2495C122.006 9.12625 121.962 9.32839 122.081 9.14352C121.926 9.05725 121.943 9.06955 121.846 8.93398H122.081C122.105 8.68502 122.13 8.6727 122.199 8.51248C121.866 8.44346 121.756 8.31776 121.612 8.09098H121.965C122.042 7.80998 122.122 7.52896 122.199 7.25042C122.045 7.16415 122.061 7.17648 121.965 7.04091C121.714 7.16909 121.709 7.27755 121.378 7.35643V7.14688H121.26V7.46241C120.803 7.49692 120.731 7.63249 120.436 7.77793C120.411 7.52897 120.387 7.51665 120.318 7.35643C120.186 7.44517 120.301 7.34409 120.199 7.46241H120.081L120.199 7.56841L120.081 7.88393C119.582 7.80752 119.516 7.86668 118.905 7.88393L119.023 8.19942H118.905C118.808 8.33746 118.822 8.3227 118.671 8.40897V7.98744C118.073 8.01702 118.153 8.17477 117.495 8.19696C117.407 8.55438 117.244 8.68255 116.79 8.72199V8.51248H116.671V8.61849C116.569 8.81815 116.553 8.40897 116.553 8.40897C116.434 8.37446 116.319 8.33994 116.2 8.30296L116.319 8.51248H116.084C115.897 8.66777 115.795 8.87484 115.732 9.14352H115.379V8.93398C114.625 8.95863 114.435 9.31851 113.851 9.45901C113.925 9.17061 114.005 9.21991 114.085 8.93398C113.333 9.08187 112.799 9.5453 112.322 8.828C112.851 8.55193 112.573 8.43606 112.441 7.98744H111.97C111.87 7.86912 111.983 7.97267 111.851 7.88147C111.887 7.79026 112.077 7.64974 111.97 7.45994H111.851V7.35396H111.499C111.3 7.64483 110.995 7.56594 110.793 7.77546L110.675 8.09098H110.323V8.19696C110.204 8.23147 110.088 8.26599 109.97 8.30296V8.09345C109.604 8.16493 109.436 8.40895 109.146 8.51495H108.675V8.62095C108.557 8.58644 108.441 8.55192 108.323 8.51495V8.72446L107.618 8.83047V8.93644H107.147C107.108 8.94384 107.116 9.08189 106.913 9.04245V8.93644H106.679V8.83047L105.855 8.72446C105.77 8.87236 105.643 9.04246 105.503 9.14599V8.72446H105.384V8.93398C105.266 8.89947 105.15 8.86497 105.032 8.828C104.976 9.0745 104.836 9.15338 104.797 9.35304H104.916C104.954 9.45903 104.993 9.56257 105.034 9.66856C104.365 9.67595 104.296 9.55761 103.858 9.45901C103.685 9.74495 103.497 9.93968 103.035 9.98405V9.77453H102.801V10.1961H102.566V10.302H101.743V10.408H101.509V10.514C101.432 10.4795 101.352 10.445 101.275 10.408V10.514H101.156C100.983 10.3883 101.255 10.4376 101.038 10.3045C101.052 10.6373 101.266 10.5017 100.919 10.62V10.4105C100.258 10.482 100.539 10.6718 100.214 10.832H99.9801C99.9416 10.938 99.903 11.0415 99.8617 11.1475H99.275V11.0415C99.567 10.8493 99.4266 10.9602 99.3935 10.62H99.1594V10.9355C98.1375 10.938 97.9585 11.1179 97.0441 11.1451V10.9355C96.8871 11.0046 96.7301 11.076 96.5731 11.1451C96.6116 11.2856 96.6502 11.4261 96.6916 11.5666C96.3858 11.5493 96.2894 11.5444 96.1049 11.4606V11.3546L95.7523 11.4606C95.733 11.4581 95.711 11.3127 95.5182 11.3546V11.4606H95.2841V11.5666H95.05V11.6726C94.8875 11.7687 94.8434 11.7465 94.579 11.7785V11.463H94.4605V11.569H93.8739C93.794 11.6011 93.8684 11.7046 93.5214 11.7785C93.4828 11.8845 93.4443 11.9881 93.4029 12.0941H93.5214C93.6949 12.2222 93.0945 12.1976 93.0504 12.2V12.0941C92.5794 12.025 92.1111 11.9536 91.6402 11.8846C91.7035 11.5912 91.7311 11.8747 91.6402 11.569C91.5135 11.6282 91.395 11.8525 91.1692 11.7785V11.6726H91.0508L91.1692 11.463H91.0508C90.9158 11.3422 91.0508 11.4211 90.8166 11.357C90.7781 11.2511 90.7395 11.1475 90.6982 11.0415H90.9323C90.8937 10.9355 90.8552 10.832 90.8139 10.726H90.9323V10.832C91.0342 11.0317 91.0508 10.6225 91.0508 10.6225H91.1692V10.5165C91.0921 10.482 91.0122 10.4475 90.9351 10.4105C90.9736 10.3045 91.0122 10.201 91.0535 10.095H90.9351V9.98898H91.2876V9.88301C91.1334 9.79673 91.1499 9.80904 91.0535 9.67346C91.2546 9.55515 91.2132 9.60693 91.2876 9.35797L91.7586 9.25197C91.7724 9.24457 91.9404 8.8625 91.9927 8.93644V9.14599H92.3453C92.4555 8.95619 92.5077 8.98082 92.5794 8.72446C92.4196 8.60121 92.4004 8.5322 92.3453 8.30296H92.5794V8.09345H92.8135V7.98744C92.5794 8.02195 92.3425 8.05647 92.1084 8.09345V7.98744C91.9541 7.99484 91.8137 8.1674 91.5218 8.09345V7.98744C91.2876 7.95293 91.0508 7.91844 90.8166 7.88147V8.30296H90.5825V8.51248C90.4641 8.44346 90.3484 8.37198 90.23 8.30296V8.09345L90.1115 8.19942C89.9766 8.32021 90.0647 8.19945 89.9931 8.40897H89.5221V8.61849C89.288 8.58398 89.0511 8.54945 88.817 8.51248C88.7785 8.68749 88.7399 8.8625 88.6986 9.03752C88.4122 9.09667 88.4397 9.14597 88.2276 9.24703V9.14105C88.1064 9.04985 88.0651 8.95864 87.9935 8.82553C87.8585 8.94632 87.9467 8.82553 87.8751 9.03505C87.641 9.06956 87.4041 9.10408 87.17 9.14105V9.35057C86.8918 9.37275 86.878 9.39495 86.699 9.45658V9.24703H86.8174L86.699 8.93154H86.5806V9.14105C86.5035 9.10655 86.4236 9.07202 86.3464 9.03505C86.2115 9.11886 86.2996 9.284 85.9939 9.24456C85.9553 9.17554 85.9168 9.10407 85.8755 9.03505H85.757V9.24456L85.4045 9.35057C85.3439 9.33578 85.3329 9.08436 85.1703 9.14105C85.0519 9.28156 84.9362 9.42205 84.8178 9.56255C84.6994 9.52804 84.5837 9.49355 84.4652 9.45658V9.66609H84.2312V9.87561C84.099 9.78687 84.2146 9.88792 84.1127 9.7696C83.986 9.67347 84.0907 9.78687 83.9943 9.66362H84.1127V9.55762H83.7602V9.66362H83.6417V9.55762H83.2892C83.2506 9.4886 83.2121 9.41712 83.1707 9.3481C83.0936 9.38261 83.0138 9.41713 82.9367 9.45411C82.7769 9.49601 82.9862 9.56748 82.8182 9.56008V9.45411H82.5841C82.5814 9.77948 82.6171 9.9964 82.7025 10.1911H82.2316V10.4006H82.1131V10.0851H81.879L81.7606 10.4006C81.6284 10.3119 81.744 10.413 81.6421 10.2946H81.5237L81.6421 9.97915C81.5237 10.0137 81.408 10.0481 81.2895 10.0851V10.1911H81.0555C81.0169 10.2601 80.9784 10.3316 80.937 10.4006H80.466V10.5066H80.3476C80.2898 10.4598 80.3807 10.3366 80.2292 10.4006L80.1108 10.6102L79.5241 10.7162V10.5066H79.4057L79.2872 10.7162H79.1688L79.0503 10.5066C78.8878 10.4401 78.7198 10.4549 78.5794 10.4006C78.5711 10.8074 78.5986 10.8345 78.2268 10.9257V10.7162H77.9927V10.9257H77.406L77.1719 11.4507H76.9378V11.3447C76.8993 11.3398 76.6678 11.4384 76.4668 11.4507C76.5329 11.1944 76.5908 11.219 76.7009 11.0292H76.4668L76.3484 11.3447L75.5248 11.2387C75.4009 11.293 75.4395 11.4753 75.5248 11.5542H75.2908C75.1889 11.6627 75.0869 11.6997 74.9382 11.7638V11.4482C74.4121 11.4877 74.5967 11.5148 74.1147 11.4482V11.5542C74.2496 11.675 74.1615 11.5542 74.2331 11.7638H73.6464C73.6161 11.7588 73.6079 11.6282 73.4123 11.6578V11.7638H73.1782C73.1396 11.8698 73.1011 11.9733 73.0598 12.0793C72.9276 11.9905 73.0433 12.0916 72.9414 11.9733C72.8092 11.8845 72.9248 11.9856 72.8229 11.8673C72.9771 11.781 72.9606 11.7933 73.057 11.6578H72.586C72.4814 11.7687 72.3795 11.7958 72.2335 11.8673V11.9733L71.8809 11.8673V11.9733C72.0352 12.0596 72.0187 12.0472 72.1151 12.1828H71.8809C71.7432 12.0398 71.6661 12.0226 71.41 11.9733V12.1828C71.1896 12.1089 70.95 12.0793 70.5864 12.0768C70.457 11.8574 70.3963 11.8895 70.3523 11.5518H70.1182V11.3422C69.986 11.431 70.1016 11.3299 69.9997 11.4482H69.8813V11.6578L69.6472 11.7638V12.0793H69.5288C69.4103 11.9388 69.2946 11.7983 69.1762 11.6578H69.0578C68.9035 11.4236 69.1211 11.3644 68.8236 11.1327C68.8622 10.9922 68.9008 10.8517 68.9421 10.7112C68.9421 10.7112 68.7906 10.6595 68.8236 10.5017H68.9421V9.97668C68.9421 9.97668 69.0137 9.97665 69.0605 9.76713C69.3855 9.69072 69.3222 9.73758 69.4131 9.45164H69.6472V9.55762L69.9997 9.45164V9.2421L70.5864 9.3481C70.6718 9.05724 70.6195 9.11392 70.939 9.03258V8.61108H71.0574L70.939 8.40157H71.0574C71.1566 8.28325 71.0436 8.38677 71.1758 8.29556V8.18959C71.2887 7.99485 71.2943 8.3991 71.2943 8.3991L71.6468 8.50508V8.3991H71.5284C71.5669 8.29311 71.6055 8.18957 71.6468 8.08358H72.3519V8.18959C72.6273 8.15508 72.9 8.12055 73.1754 8.08358V7.87406H73.6464V7.66455C73.2443 7.65962 72.8339 7.59305 72.5888 7.55854C72.5117 7.66454 72.4318 7.76807 72.3547 7.87406L71.6495 7.98004C71.7156 7.72369 71.7735 7.74834 71.8837 7.55854H71.4127V7.66455H71.5311C71.6661 7.8297 71.2419 7.76313 71.1786 7.77052V8.08605H71.0602V8.19205C70.8646 8.22656 70.6691 8.26105 70.4735 8.29803C70.5121 8.12302 70.5506 7.948 70.5919 7.77299C70.3055 7.83215 70.3303 7.88144 70.121 7.98251V8.08851C69.8868 8.0195 69.65 7.94802 69.4158 7.879V7.98497C69.2809 8.10576 69.369 7.98497 69.2974 8.19449C69.1046 8.22653 68.7851 8.4139 68.7107 8.40404V8.29803H68.3582C68.1957 8.26845 68.4023 8.16001 68.2398 8.19205L68.1214 8.40157H67.8872L68.0056 8.19205H67.8872C67.7523 8.31284 67.8872 8.23394 67.6531 8.29803V8.50754C67.4575 8.54205 67.262 8.57658 67.0664 8.61355C67.0444 8.60862 67.0278 8.46318 66.8323 8.50754V8.61355H66.5982V8.71953C66.4825 8.69734 66.4605 8.43606 66.3641 8.51001C66.1713 8.65298 66.4935 8.71215 66.0115 8.82553V9.14105H65.8931V8.93154H65.7747C65.7361 9.00056 65.6975 9.07204 65.6562 9.14105H65.1852C65.0448 8.91181 64.9264 8.79348 64.5986 8.71953V8.82553H64.1276L64.0092 9.03505L63.6567 8.92907V9.24456H63.4225C63.1333 9.68579 63.1608 9.36782 62.8358 9.56008C62.8744 9.6291 62.913 9.70058 62.9543 9.7696C62.7202 9.73509 62.4833 9.7006 62.2492 9.66362C62.2382 9.66609 62.1886 9.84602 62.0151 9.87314V9.76713H61.5441L61.4257 9.66116V9.76713C61.0924 9.9594 61.0814 10.0703 60.4865 10.0827C60.3543 9.90271 60.4121 9.93969 60.1339 9.87314V10.0827H59.8998V9.97668C59.751 9.93477 59.5913 10.2749 59.5472 10.2922C59.3048 10.3883 59.2112 10.201 59.0763 10.1862V10.2922C58.8421 10.3267 58.6053 10.3612 58.3711 10.3982L58.2527 10.0827C57.9277 10.1591 57.9911 10.1122 57.9002 10.3982C57.5476 10.4327 57.195 10.4672 56.8425 10.5042L56.7241 10.7137H55.9006V10.8197C55.5948 10.901 55.3525 10.8295 55.077 10.9257C55.0109 10.6693 54.9531 10.694 54.843 10.5042C54.7107 10.5929 54.8264 10.4918 54.7245 10.6102C54.3113 10.8714 54.697 10.9848 54.1378 11.1352V11.2412H53.5511L53.4327 11.4507C53.1711 11.5444 53.1022 11.3201 52.9618 11.3447V11.4507C52.7276 11.4926 52.813 11.4039 52.7276 11.3447H52.6092V11.5542C52.4908 11.5197 52.3751 11.4852 52.2566 11.4482V11.3422L51.9041 11.4482V11.3422H51.4331L51.3147 11.1327C51.1494 11.1327 51.2596 11.1007 51.1962 11.2387C51.0502 11.118 51.1522 11.2387 51.0778 11.0292H51.5488V10.8197H51.0778C50.9676 10.6299 50.9153 10.6545 50.8437 10.3982H51.0778C51.0089 9.96434 50.9511 9.89533 50.7252 9.45164C50.571 9.50587 50.7583 9.49353 50.6068 9.55762H50.2543V9.66362C50.4911 9.72278 50.3562 9.65128 50.4884 9.7696C50.1524 9.75974 49.9844 9.7499 49.7833 9.66362V9.7696C49.9183 9.89038 49.8301 9.76962 49.9017 9.97915C49.3261 9.97915 49.2325 10.0999 48.8441 10.1887V9.87314H48.7256V9.97915H48.6072L48.3731 9.87314V10.1887H48.0206V9.97915H47.9021V10.1887H48.0206V10.5042C47.6295 10.5017 47.489 10.4499 47.1971 10.3982V10.6077C46.9189 10.5954 46.8995 10.5757 46.726 10.5017V10.6077C46.5911 10.7285 46.6792 10.6077 46.6076 10.8172C45.9879 10.7556 46.3377 10.5904 45.7841 10.7112V10.5017C45.5968 10.4771 45.6353 10.6817 45.5499 10.7112C45.1092 10.8591 44.7457 10.7704 44.3739 10.7112V11.0268L44.1398 10.9207V11.0268C43.9029 11.2067 44.1508 11.187 44.0214 11.3422H43.9029C43.6192 10.9626 42.8039 11.2782 42.2586 11.3422V11.6578C42.0382 11.6035 41.6168 11.2806 41.435 11.3422V11.4482H41.3166V11.7638C40.9641 11.7983 40.6115 11.8328 40.259 11.8697V12.0793H40.3774C40.3389 12.1853 40.3003 12.2888 40.259 12.3948C39.9808 12.3825 39.9615 12.3628 39.788 12.2888V12.3948H39.6696V12.0793H39.4354V12.3948H39.317V12.2888H38.846V12.3948L38.6119 12.2888V12.3948C38.353 12.4663 38.2236 12.4268 38.0253 12.5008V12.8163C37.4386 12.8952 37.4441 12.91 36.9676 12.6068L36.8492 12.9223H36.3782V13.0283C36.2212 13.0628 36.0642 13.0973 35.9072 13.1343V12.9248H35.6731C35.6015 13.2945 35.5464 13.4079 35.0864 13.4498V13.3438C35.2214 13.223 35.1333 13.3438 35.2049 13.1343C35.0479 13.0998 34.8909 13.0653 34.7339 13.0283V12.9223C34.5108 12.8607 34.5714 12.9815 34.4998 13.0283L34.1472 12.9223V13.0283H34.2656V13.4498H34.0316V13.2403C33.7093 13.4079 33.8195 13.4991 33.3264 13.5558C33.2411 13.8466 33.2934 13.7899 32.9739 13.8713C32.6571 14.2065 32.2881 14.1252 31.7978 14.0808V13.8713H32.2688C32.2302 13.7653 32.1917 13.6618 32.1504 13.5558C31.9713 13.6174 31.9576 13.6371 31.6794 13.6618C31.6601 13.3758 31.6408 13.0283 31.4452 12.9248V12.8187C31.5306 12.7078 31.5362 12.91 31.6794 12.7128H31.4452C31.2359 12.6018 31.6794 12.6068 31.6794 12.6068C31.6133 12.3504 31.5554 12.3751 31.4452 12.1853H31.7978C31.8942 12.3233 31.8805 12.3085 32.0319 12.3948C31.7455 11.8426 31.5995 11.3324 32.6186 11.3422C32.7535 11.463 32.6186 11.3842 32.8527 11.4482C32.8913 11.2732 32.9298 11.0982 32.9711 10.9232H32.7371V11.1327H32.5029L32.6213 10.8172H32.5029C32.4148 11.0169 32.5856 10.9257 32.3845 11.0268C32.2303 10.9035 32.5249 10.8665 32.266 10.8172V11.0268L32.0319 10.9207V11.0268H32.1504C32.0732 11.1673 31.9933 11.3077 31.9162 11.4482H31.7978V11.1327H31.6794V11.2387H31.3268C31.2497 11.3447 31.1698 11.4482 31.0927 11.5542H30.8586V11.6602H30.5061V11.7662H30.2719V11.8722C29.7982 12.0226 29.4429 11.7268 29.2143 11.8722C28.8948 12.0571 28.8425 12.454 28.7433 12.5033H27.6857C27.5507 12.3825 27.6856 12.4613 27.4515 12.3973V12.1877H27.3331C27.3717 12.3282 27.4102 12.4687 27.4515 12.6092H27.3331C27.11 12.7818 26.7107 12.7201 26.3939 12.8187V12.9248C26.2204 12.9741 25.934 12.8114 25.923 12.8187V13.0283H25.3363C25.2178 13.2748 25.1021 13.5188 24.9837 13.7653H24.8653V13.4498H24.6312C24.6064 13.6988 24.5816 13.7111 24.5127 13.8713C24.3805 13.7825 24.4962 13.8836 24.3943 13.7653C24.2594 13.6445 24.3474 13.7653 24.2758 13.5558C24.4769 13.4374 24.4356 13.4892 24.51 13.2403H24.1574V13.8713C23.9619 13.8368 23.7663 13.8023 23.5708 13.7653V13.6593C23.7058 13.5385 23.6176 13.6593 23.6892 13.4498H23.4551L23.5735 13.2403H23.4551C23.3201 13.3611 23.4551 13.2822 23.221 13.3463C23.1907 13.5508 23.1053 13.5508 23.1025 13.5558C22.9152 14.0734 23.2072 14.2287 22.5159 14.2928V14.0833C22.3534 14.135 22.257 14.1252 22.0449 14.1893V14.2953C21.9265 14.2607 21.8108 14.2263 21.6924 14.1893V14.2953H21.4582L21.5767 14.5048H20.8716V14.6108C21.0065 14.7316 20.9184 14.6108 20.99 14.8203C20.7999 14.8129 20.1665 14.7143 20.1665 14.7143C20.1279 14.7833 20.0894 14.8548 20.048 14.9238C19.7286 15.0791 19.6734 14.9509 19.4614 14.9238V15.0298H19.2273L19.1088 15.2394C18.9132 15.2739 18.7177 15.3084 18.5222 15.3453V15.4513C18.3652 15.4168 18.2082 15.3823 18.0512 15.3453C17.8556 15.3798 17.66 15.4144 17.4645 15.4513V15.5573C17.1147 15.6461 16.9881 15.3897 16.7594 15.3478V15.4538C16.6245 15.5746 16.7126 15.4538 16.641 15.6633H16.17L16.0516 15.5573C15.991 15.582 16.0185 15.7447 15.8174 15.7669V15.6608L15.4649 15.5549V15.6608C15.3464 15.6954 15.2308 15.7299 15.1124 15.7669V15.5573C14.9003 15.6559 14.9278 15.7028 14.6414 15.7669V15.9764H14.5229V15.6608C13.8619 15.6535 13.3579 15.4094 13.1128 15.0298L13.3469 14.9238C13.3551 14.7759 13.2312 14.9682 13.2284 14.8179C13.267 14.6428 13.3055 14.4678 13.3469 14.2928H13.581C13.3221 13.6371 13.8702 13.2723 13.9335 12.6092C14.2971 12.5501 14.7185 12.5033 15.2253 12.5033V12.1877H15.5779C15.6577 11.8796 15.7073 11.8427 16.0488 11.7662V11.5567C16.7346 11.4162 16.1149 11.2905 16.7539 11.5567V11.3472C17.0156 11.3028 17.156 11.2461 17.3406 11.1377V11.0317C17.5747 11.0119 17.4232 11.1919 17.5747 11.0317C17.7097 10.9109 17.6215 11.0317 17.6931 10.8221H17.9273C18.0622 10.3957 18.1669 10.6126 18.3982 10.2971C18.6324 10.3661 18.8692 10.4376 19.1033 10.5066V10.4006H19.2218V9.97915C18.547 9.99147 18.3596 10.0654 17.8115 9.97915C17.7454 10.3094 17.6959 10.4204 17.3406 10.5042V10.2946H17.1065V10.6102C16.8669 10.7235 16.6438 10.9207 16.283 10.9257L16.1645 10.8197C15.7403 11.1056 16.203 11.3102 15.341 11.3447L15.4594 10.9232H15.2253V11.0292H15.3437C15.352 11.0662 15.1427 11.4088 15.1096 11.5542H14.8755V11.3447H14.6414V11.5542L14.5229 11.4482C14.2888 11.5173 14.0519 11.5887 13.8178 11.6578C13.7793 11.7268 13.7407 11.7983 13.6994 11.8673C13.5452 11.9264 13.7242 11.7884 13.581 11.7613C13.4626 11.7958 13.3469 11.8303 13.2284 11.8673V11.7613H12.8759V11.6553H12.7575V11.7613C12.7575 11.7613 12.4325 11.6652 12.2865 11.6553C12.2094 11.8303 12.1295 12.0053 12.0524 12.1803C11.9504 12.1483 11.7935 11.9782 11.5814 12.0744V12.1803H11.463V12.4959H11.3445V12.1803H11.2261V12.6018C11.2453 12.7497 11.35 12.5575 11.3445 12.7078L11.2261 12.8138C11.0222 12.7226 11.1848 12.8015 11.1077 12.6043H10.9892V12.8138L10.4025 12.9198L10.521 12.7103H10.4025C10.2208 12.8927 10.1905 12.8138 9.93157 12.9198V13.0258C9.75805 13.085 9.48263 13.0529 9.46059 12.9198H9.34211V13.2353H9.2237V13.1293H9.10528V13.3389H8.87114V13.5484C8.57368 13.4646 8.14402 13.541 7.5794 13.5484C7.54084 13.7949 7.50229 14.0389 7.46098 14.2854H7.22684V14.0759C7.04781 14.1375 7.03405 14.1572 6.75587 14.1819V14.4974C6.52175 14.5664 6.28487 14.6379 6.05075 14.7069V14.8129H5.81668V14.9189C5.24103 15.1136 5.10605 14.7562 4.75901 15.2344H4.64059L4.75901 15.3404C4.72045 15.4464 4.68191 15.5499 4.64059 15.6559C4.4836 15.6214 4.32655 15.5869 4.16956 15.5499V15.8655C3.75366 15.9049 3.81155 15.9961 3.46451 16.075V15.8655H3.34603V16.181C3.11191 16.2155 2.8751 16.25 2.64098 16.287L2.5225 16.6025H2.28842C2.24986 16.7085 2.21126 16.812 2.16994 16.918H2.05153V16.6025H1.93311L1.8147 16.812L1.46214 16.706V16.6C1.23353 16.5482 1.30512 16.6592 1.228 16.706L0.757026 16.6L0.875441 16.494V16.388H0.757026V16.0725H0.875441V15.9665H0.641368C0.638613 15.6165 0.580725 15.4908 0.522885 15.2295H0.288811C0.0794854 15.1186 0.522885 15.1235 0.522885 15.1235C0.561445 15.0175 0.600053 14.914 0.641368 14.808C1.24731 14.8326 1.22249 15.0077 1.228 14.3865C1.42355 14.352 1.61914 14.3175 1.8147 14.2805V13.859L2.16725 13.753C2.30221 13.6322 2.16721 13.7111 2.40133 13.647V13.8565H2.63547V13.647C2.7539 13.6815 2.86959 13.716 2.98802 13.753V13.5435H2.86954L2.98802 13.2279H3.10644V13.122H3.459C3.45624 12.9741 3.48374 13.0924 3.34051 13.016V12.91H3.69307V12.804H3.81155L3.92997 13.0135C4.32108 13.0825 4.71219 13.154 5.10605 13.223C5.11707 12.8286 5.21343 12.7399 5.34013 12.486C5.45856 12.5205 5.57425 12.555 5.69268 12.592V12.3825H6.04524L5.92682 12.592H6.04524V12.486H6.27938C6.40883 12.3948 6.33167 12.2321 6.51345 12.1705C6.61812 12.2641 6.55755 12.348 6.7476 12.38C6.82472 12.274 6.90462 12.1705 6.98174 12.0645H7.33423V11.9585H7.45271V11.537H7.68678V11.7465C8.18806 11.7046 8.2184 11.5296 8.62604 11.431C8.71968 11.0908 8.84359 11.0687 8.86011 10.5904H9.91778V10.6964L10.2703 10.5904V10.4844C10.4466 10.4425 10.43 10.6718 10.5044 10.694L10.857 10.588V10.7975H10.9755V10.588C11.1077 10.4992 10.992 10.6003 11.0939 10.482L10.8597 10.588V10.1665H10.9782V9.74496H11.5648L11.4464 10.0605H11.799C11.9863 9.85589 12.2259 9.77947 12.3856 9.53544C12.5068 9.62665 12.5481 9.71786 12.6198 9.85096C12.7382 9.78194 12.8539 9.71047 12.9723 9.64145V9.53544H13.2064L13.3248 9.32593C13.4019 9.36044 13.4818 9.39493 13.5589 9.4319C13.7159 9.32591 13.4157 9.25443 13.6774 9.22239V9.32839C13.7958 9.3629 13.9115 9.3974 14.0299 9.43437V9.22485C13.8949 9.10407 13.9831 9.22486 13.9115 9.01534C14.2145 9.06464 14.432 9.11639 14.8507 9.12132C15.0187 8.897 15.1592 8.90935 15.4374 8.80582L15.319 8.4903H15.7899V8.3843H15.9084V8.4903H16.1425V8.28079C16.809 8.26353 16.5804 8.11809 16.966 7.96527H17.437V7.85926C17.572 7.73848 17.4838 7.85927 17.5554 7.64974H17.908V7.85926H18.1421C18.2385 7.52156 18.2798 7.55363 18.7287 7.54377V7.75328C19.0042 7.6399 19.1116 7.51171 19.4338 7.43776V7.12224H19.6679V6.91273C20.2876 6.91519 20.5961 6.78948 21.0781 6.70321C21.1635 6.99408 21.1112 6.93739 21.4307 7.01873C21.3921 6.91274 21.3535 6.8092 21.3122 6.70321H21.4307C21.5602 6.55531 21.8411 6.3951 22.0173 6.28171V6.17571H22.3699V6.28171H22.4883V6.5972H22.6068C22.6454 6.17816 22.7279 6.11161 23.1934 6.07217V6.17817C23.3504 6.22747 23.1493 6.11161 23.3118 6.07217C23.7828 6.00315 24.2511 5.93167 24.7221 5.86265C24.6036 5.53481 24.656 5.70243 24.7221 5.33762C25.0085 5.27846 24.981 5.22916 25.193 5.1281V5.23411H25.3115C25.4051 5.3894 25.193 5.44362 25.193 5.44362L25.3115 5.65314C25.5814 5.45101 25.4602 5.33763 25.8981 5.23164C25.9367 5.12565 25.9753 5.02211 26.0166 4.91612C26.3526 5.03937 26.5702 5.11577 27.0742 5.12563C27.1927 4.91611 27.3084 4.70414 27.4268 4.49462H27.6609L27.7793 4.70414L28.6029 4.49462V4.38861H29.4264L29.5448 4.1791H29.779C29.8533 3.8907 29.9332 3.94 30.013 3.65406C30.17 3.68857 30.327 3.72306 30.484 3.76004V3.65406C30.6135 3.56039 30.5088 3.6713 30.6025 3.54806H30.484C30.3683 3.37304 30.652 3.45933 30.7181 3.44208V3.33607C30.8366 3.37058 30.9523 3.40511 31.0707 3.44208C31.0321 3.5111 30.9935 3.58258 30.9522 3.6516H31.0707C31.4398 3.27199 31.762 3.65158 32.2468 3.75757C32.3267 3.61953 32.3927 3.64419 32.4809 3.54806L32.3624 3.33854H32.5966V3.23256L32.8307 3.12656C32.8472 2.97866 32.8059 3.1438 32.7122 3.02055L32.8307 2.81104C33.2273 2.88499 33.2824 3.04029 33.6542 3.12656V2.81104C33.9764 2.87759 33.9214 2.94907 34.2409 3.02055V2.70506C34.3703 2.73957 34.4722 2.89238 34.7119 2.81104V2.70506H35.0644V2.59905C35.2985 2.42404 35.5354 2.24903 35.7695 2.07402V1.8645H36.0036V1.97048C36.1661 2.00006 35.9815 1.94831 36.122 1.8645L36.3562 1.97048L36.2377 2.286C36.8933 2.33037 37.2265 2.47334 37.6479 2.07649C37.4165 1.95817 37.3725 1.9286 37.2953 1.65499L37.6479 1.54898C37.6865 1.618 37.7251 1.68948 37.7664 1.7585H38.0005V1.337C38.2566 1.38137 38.3365 1.40601 38.4714 1.54651L39.1765 1.337L39.0581 1.12748H39.6448V0.917969L39.7026 0.942612ZM38.5293 2.52019V2.7297H38.6477V2.52019H38.5293ZM143.233 2.7297V2.93922H143.352V2.7297H143.233ZM38.8818 3.04523V3.25474H39.0003V3.04523H38.8818ZM37.2375 3.25474V3.46426H37.3559V3.25474H37.2375ZM140.295 3.57026C140.43 3.69105 140.295 3.61215 140.529 3.67624C140.394 3.55546 140.529 3.63435 140.295 3.57026ZM131.013 3.67624C131.148 3.79702 131.013 3.71816 131.247 3.78225C131.112 3.66146 131.247 3.74033 131.013 3.67624ZM31.9493 3.99176C31.9603 4.34918 31.9493 4.37383 32.1834 4.5168V4.41079H32.065V3.98929H31.9465L31.9493 3.99176ZM129.25 4.09774C129.385 4.21852 129.25 4.13965 129.484 4.20374C129.349 4.08296 129.484 4.16183 129.25 4.09774ZM116.44 4.20128V4.41079H116.558V4.20128H116.44ZM124.667 4.30728L124.548 4.5168C124.548 4.5168 124.89 4.34919 124.783 4.30728H124.664H124.667ZM136.769 4.30728H137.003C136.904 4.4256 137.017 4.32205 136.885 4.41326V4.51926C136.75 4.39848 136.838 4.51927 136.766 4.30975L136.769 4.30728ZM32.7701 4.41326C32.905 4.53404 32.7701 4.45518 33.0042 4.51926C32.8693 4.39848 33.0042 4.47735 32.7701 4.41326ZM98.6967 4.5168V4.72631H98.8151V4.5168H98.6967ZM34.0646 4.93829V5.0443H33.9462C33.7231 5.1355 34.1803 5.15028 34.1803 5.15028C34.2795 5.03196 34.1665 5.1355 34.2987 5.0443C34.1638 4.92352 34.2987 5.00238 34.0646 4.93829ZM124.314 4.93829V5.0443H124.196C123.973 5.1355 124.43 5.15028 124.43 5.15028C124.529 5.03196 124.416 5.1355 124.548 5.0443C124.413 4.92352 124.548 5.00238 124.314 4.93829ZM154.397 4.93829V5.0443H154.278C154.055 5.1355 154.512 5.15028 154.512 5.15028C154.611 5.03196 154.498 5.1355 154.631 5.0443C154.496 4.92352 154.631 5.00238 154.397 4.93829ZM75.6626 5.0443V5.25382H75.781V5.0443H75.6626ZM46.6379 5.14781V5.35735H46.7563V5.14781H46.6379ZM76.7202 5.14781V5.35735H76.8386V5.14781H76.7202ZM98.4598 5.14781C98.6581 5.37459 98.6939 5.35735 98.6939 5.35735C98.7793 5.25629 98.4901 5.17246 98.4598 5.14781ZM128.545 5.14781C128.743 5.37459 128.779 5.35735 128.779 5.35735C128.864 5.25629 128.575 5.17246 128.545 5.14781ZM136.888 5.14781V5.35735H137.006V5.14781H136.888ZM158.627 5.14781C158.825 5.37459 158.861 5.35735 158.861 5.35735C158.947 5.25629 158.657 5.17246 158.627 5.14781ZM29.5971 5.35979H29.3631V5.4658H29.4815V5.5718H29.5999V5.36226L29.5971 5.35979ZM31.1258 5.99084H31.3599C31.3214 5.85033 31.2827 5.70984 31.2414 5.56934H31.123V5.99084H31.1258ZM121.375 5.99084H121.61L121.491 5.56934H121.373V5.99084H121.375ZM151.458 5.99084H151.692L151.573 5.56934H151.455V5.99084H151.458ZM29.834 5.77885V6.20035H29.9524V5.77885H29.834ZM59.9163 5.77885V6.20035H60.0347V5.77885H59.9163ZM120.084 5.77885V6.20035H120.202V5.77885H120.084ZM137.474 5.99084V6.30636H137.593C137.711 6.11655 137.852 5.99329 138.064 5.88483V5.77885H137.83C137.697 5.95879 137.755 5.92181 137.477 5.98837L137.474 5.99084ZM150.166 5.77885V6.20035H150.284V5.77885H150.166ZM82.832 5.88483V6.09437H82.9504V5.88483H82.832ZM112.914 6.09437H113.148V5.98837C113.016 5.89963 113.132 6.00071 113.03 5.88239H112.911V6.09191L112.914 6.09437ZM47.2246 5.99084V6.30636H47.343V5.99084H47.2246ZM77.3069 5.99084V6.30636H77.4253V5.99084H77.3069ZM128.779 6.40987C128.864 6.70073 128.812 6.64404 129.132 6.72539C129.206 6.43699 129.286 6.48628 129.366 6.20035H129.247C129.098 6.40001 129.129 6.37536 128.776 6.40987H128.779ZM129.837 6.20035V6.40987C130.145 6.40247 130.236 6.36798 130.423 6.30389V6.19788H129.837V6.20035ZM67.7908 6.30636V6.62188H67.9093V6.51587C68.0415 6.42713 67.9258 6.52818 68.0277 6.40987L67.7935 6.30389L67.7908 6.30636ZM97.8731 6.30636V6.62188H97.9916V6.51587C98.1238 6.42713 98.0081 6.52818 98.11 6.40987L97.8759 6.30389L97.8731 6.30636ZM127.955 6.30636V6.62188H128.074V6.51587C128.206 6.42713 128.09 6.52818 128.192 6.40987L127.958 6.30389L127.955 6.30636ZM158.04 6.30636V6.62188H158.159V6.51587C158.291 6.42713 158.175 6.52818 158.277 6.40987L158.043 6.30389L158.04 6.30636ZM82.7136 6.40987V6.61941H82.832V6.40987H82.7136ZM137.24 6.40987C137.438 6.63664 137.474 6.61941 137.474 6.61941C137.56 6.51835 137.27 6.43451 137.24 6.40987ZM75.0759 6.62188V6.93737H74.8418V7.14688L75.0759 7.04091L75.1943 6.72539C75.3265 6.63665 75.2108 6.73773 75.3128 6.61941H75.0787L75.0759 6.62188ZM80.0116 6.62188V6.83139H80.13V6.62188H80.0116ZM110.094 6.62188V6.83139H110.212V6.62188H110.094ZM128.545 6.83139H128.192V7.04091H128.426C128.537 6.85111 128.589 6.87577 128.66 6.61941H128.542V6.82893L128.545 6.83139ZM140.176 6.62188V6.83139H140.295V6.62188H140.176ZM65.323 7.04091V6.83139C65.1908 6.92013 65.3064 6.81905 65.2045 6.93737H65.0861C65.2211 7.05815 65.0861 6.97929 65.3202 7.04338L65.323 7.04091ZM95.0528 6.83139V7.14688H95.1712C95.3061 7.0261 95.1711 7.105 95.4053 7.04091V6.83139H95.0528ZM111.738 7.04091V6.83139H111.386V6.93737H111.504C111.639 7.05815 111.504 6.97929 111.738 7.04338V7.04091ZM125.488 7.04091V6.83139C125.355 6.92013 125.471 6.81905 125.369 6.93737H125.251C125.386 7.05815 125.251 6.97929 125.485 7.04338L125.488 7.04091ZM134.772 6.83139V7.04091C134.904 6.95217 134.789 7.05322 134.891 6.9349H135.009C134.874 6.81412 135.009 6.89301 134.775 6.82893L134.772 6.83139ZM151.458 6.93737V7.14688H151.576V6.93737H151.458ZM73.6657 7.35643H73.8998C73.8007 7.23811 73.9136 7.34163 73.7814 7.25042V7.04091H73.6629V7.35643H73.6657ZM40.5261 7.14688V7.35643H40.6446V7.14688H40.5261ZM70.6112 7.14688V7.46241H70.7297V7.14688H70.6112ZM130.776 7.14688V7.35643H130.894V7.14688H130.776ZM153.691 7.14688C153.826 7.26767 153.738 7.14691 153.81 7.35643H153.691V7.14688ZM160.861 7.14688V7.35643H160.979V7.14688H160.861ZM24.0748 7.25289V7.46241H24.1933V7.25289H24.0748ZM54.1571 7.25289V7.46241H54.2756V7.25289H54.1571ZM114.324 7.25289V7.46241H114.443V7.25289H114.324ZM144.407 7.25289V7.46241H144.525V7.25289H144.407ZM61.445 7.35643C61.456 7.37861 61.6129 7.73847 61.679 7.67192V7.56594H61.7975C61.6956 7.45749 61.5937 7.42052 61.445 7.35643ZM91.7613 7.88393H91.9955V7.67439H91.7613L91.8798 7.46487C91.7614 7.43036 91.6457 7.39587 91.5273 7.3589V7.46487C91.687 7.58812 91.7063 7.65713 91.7613 7.88637V7.88393ZM60.7399 7.46241L60.8583 7.77793H60.9767C60.9051 7.5265 60.9382 7.58319 60.7426 7.46241H60.7399ZM90.8222 7.46241C90.8607 7.5684 90.8993 7.67193 90.9406 7.77793H91.0591C90.9874 7.5265 91.0205 7.58319 90.8249 7.46241H90.8222ZM93.0559 7.46241H92.8218C92.9209 7.58072 92.808 7.47721 92.9402 7.56841V7.67439H93.0587V7.46487L93.0559 7.46241ZM139.474 7.88393H139.708V7.67439H139.826C139.788 7.60537 139.749 7.53389 139.708 7.46487C139.576 7.55361 139.691 7.45256 139.59 7.57088H139.471V7.88637L139.474 7.88393ZM41.3496 7.56841C41.4846 7.6892 41.3497 7.6103 41.5838 7.67439C41.4488 7.55361 41.5838 7.6325 41.3496 7.56841ZM61.3265 7.56841V7.88393H61.445V7.56841H61.3265ZM91.4088 7.56841V7.88393H91.5273V7.56841H91.4088ZM93.6425 7.56841H93.4084C93.5075 7.68673 93.3947 7.58319 93.5269 7.67439V7.78039H93.6453V7.57088L93.6425 7.56841ZM107.273 7.56841V7.88393H107.392V7.56841H107.273ZM137.359 7.56841V7.88393H137.477V7.56841H137.359ZM18.434 7.67192V7.88147H18.5525V7.67192H18.434ZM23.9564 7.67192V7.88147H24.0748V7.67192H23.9564ZM54.0414 7.67192V7.88147H54.1598V7.67192H54.0414ZM61.9132 7.88393V7.67439C61.781 7.76313 61.8967 7.66208 61.7948 7.78039H61.6763C61.8112 7.90118 61.6763 7.82228 61.9104 7.88637L61.9132 7.88393ZM84.1237 7.67192V7.88147H84.2422V7.67192H84.1237ZM93.1716 7.67192V8.30296H93.29V7.67192H93.1716ZM108.213 7.67192V7.88147H108.331V7.67192H108.213ZM108.684 7.67192V7.88147H108.802V7.67192H108.684ZM114.206 7.67192V7.88147H114.324V7.67192H114.206ZM138.298 7.67192V7.88147H138.416V7.67192H138.298ZM138.769 7.67192V7.88147H138.887V7.67192H138.769ZM144.291 7.67192V7.88147H144.41V7.67192H144.291ZM21.0203 7.77793C21.1553 7.89871 21.0203 7.81984 21.2544 7.88393C21.1194 7.76315 21.2544 7.84202 21.0203 7.77793ZM51.1026 7.77793C51.2376 7.89871 51.1026 7.81984 51.3367 7.88393C51.2017 7.76315 51.3367 7.84202 51.1026 7.77793ZM141.352 7.77793C141.487 7.89871 141.352 7.81984 141.586 7.88393C141.451 7.76315 141.586 7.84202 141.352 7.77793ZM59.4454 7.98744L59.5638 8.30296H59.6822C59.6106 8.05154 59.6437 8.10823 59.4481 7.98744H59.4454ZM89.5304 7.98744C89.569 8.09344 89.6075 8.19697 89.6488 8.30296H89.7672C89.6956 8.05154 89.7287 8.10823 89.5332 7.98744H89.5304ZM97.168 8.09345V8.30296H97.2864V8.09345H97.168ZM22.8987 8.61849C22.8133 8.32762 22.8657 8.38431 22.5462 8.30296C22.5848 8.44347 22.6233 8.58396 22.6646 8.72446H23.0172V8.83047C23.1824 8.85019 22.9731 8.75651 23.1356 8.72446H23.6066V8.30296C23.4744 8.21423 23.5901 8.31528 23.4881 8.19696H23.254V8.30296H23.3725C23.4111 8.49277 23.0805 8.57905 22.9015 8.61849H22.8987ZM38.1768 8.19942L38.0583 8.40897C38.0583 8.40897 38.3998 8.24133 38.2924 8.19942H38.174H38.1768ZM128.426 8.19942L128.308 8.40897C128.308 8.40897 128.649 8.24133 128.542 8.19942H128.424H128.426ZM18.0815 8.72446H18.3156V8.61849C18.1834 8.52975 18.2991 8.6308 18.1972 8.51248H18.0787V8.72199L18.0815 8.72446ZM22.1936 8.51495V8.72446C22.3259 8.63572 22.2102 8.7368 22.3121 8.61849H22.4305C22.2955 8.4977 22.4305 8.57657 22.1964 8.51248L22.1936 8.51495ZM48.1638 8.72446H48.3979V8.61849C48.2657 8.52975 48.3814 8.6308 48.2795 8.51248H48.1611V8.72199L48.1638 8.72446ZM52.2787 8.51495V8.72446C52.4109 8.63572 52.2952 8.7368 52.3971 8.61849H52.5155C52.3806 8.4977 52.5156 8.57657 52.2815 8.51248L52.2787 8.51495ZM82.361 8.51495V8.72446C82.4932 8.63572 82.3775 8.7368 82.4794 8.61849H82.5978C82.4629 8.4977 82.5979 8.57657 82.3638 8.51248L82.361 8.51495ZM138.416 8.72446H138.65V8.61849C138.518 8.52975 138.634 8.6308 138.532 8.51248H138.413V8.72199L138.416 8.72446ZM142.528 8.51495V8.72446C142.661 8.63572 142.545 8.7368 142.647 8.61849H142.765C142.63 8.4977 142.765 8.57657 142.531 8.51248L142.528 8.51495ZM20.3152 9.14599V8.93644L19.9627 9.04245L20.0811 9.46395H19.9627V9.56995C19.6872 9.60446 19.4146 9.63896 19.1391 9.67593V9.88548C19.2934 9.9052 19.869 10.0136 19.9627 9.99145L20.0811 9.78194L20.4336 9.88794C20.4722 9.71293 20.5108 9.53792 20.5521 9.36291H20.6705C20.8055 9.24212 20.6705 9.32099 20.9046 9.2569V9.46642H21.4913V9.2569H21.7254C21.6482 9.04738 21.5684 8.83538 21.4913 8.62586H21.3729L21.2544 8.94138C21.0864 9.04737 20.5769 9.13117 20.3152 9.15089V9.14599ZM33.5936 8.61849V8.93398H33.712V8.61849H33.5936ZM17.8474 8.83047V9.03998H17.9658V8.83047H17.8474ZM36.1799 8.83047V9.03998H36.2983V8.83047H36.1799ZM47.9297 8.83047V9.03998H48.0481V8.83047H47.9297ZM78.012 8.83047V9.03998H78.1304V8.83047H78.012ZM112.914 8.83047C113.049 8.95125 112.914 8.87235 113.148 8.93644C113.013 8.81566 113.148 8.89456 112.914 8.83047ZM126.43 8.83047V9.03998H126.548V8.83047H126.43ZM138.179 8.83047V9.03998H138.298V8.83047H138.179ZM31.3599 8.93398C31.4949 9.05476 31.4067 8.934 31.4783 9.14352H31.3599V8.93398ZM61.3265 9.03998C61.4587 9.21992 61.4009 9.18294 61.679 9.2495C61.5771 9.14104 61.4752 9.10407 61.3265 9.03998ZM74.7234 9.2495H74.9574V9.14352C74.8252 9.05478 74.9409 9.15583 74.839 9.03752H74.7206V9.24703L74.7234 9.2495ZM31.1258 9.14599H31.3599V9.25197C31.123 9.19281 31.258 9.26431 31.1258 9.14599ZM63.9128 9.14599C64.0478 9.26677 63.9596 9.14598 64.0312 9.3555H63.9128V9.14599ZM95.5237 9.56502H95.2896V9.14352H95.1712V9.2495C95.0362 9.37028 95.1244 9.24949 95.0528 9.45901C95.1712 9.52803 95.2868 9.59954 95.4053 9.66856C95.5044 9.78688 95.3915 9.68333 95.5237 9.77453V9.56502ZM62.8551 9.2495V9.45901H62.9735V9.2495H62.8551ZM24.3089 9.46148V9.67103H24.4273V9.46148H24.3089ZM54.394 9.46148V9.67103H54.5124V9.46148H54.394ZM80.3641 9.56502C80.4991 9.6858 80.3641 9.60694 80.5982 9.67103C80.4632 9.55024 80.5983 9.62911 80.3641 9.56502ZM38.645 9.88054V9.67103C38.5128 9.75976 38.6284 9.65868 38.5265 9.777H38.4081C38.543 9.89779 38.4081 9.81892 38.6422 9.88301L38.645 9.88054ZM98.8123 9.88054V9.67103C98.6801 9.75976 98.7958 9.65868 98.6939 9.777H98.5754C98.7104 9.89779 98.5755 9.81892 98.8096 9.88301L98.8123 9.88054ZM28.187 10.0925V10.302H28.3054V10.0925H28.187ZM30.5391 10.0925V10.302H30.6576V10.0925H30.5391ZM21.7254 10.1961V10.4056H21.8438V10.1961H21.7254ZM31.1258 10.408C31.1203 10.8345 31.0707 10.8616 31.3599 11.0391V10.9331C31.1616 10.7063 31.4508 10.4253 31.594 10.1961H31.4756C31.3434 10.376 31.4012 10.339 31.123 10.4056L31.1258 10.408ZM33.241 10.1961C33.376 10.3168 33.2411 10.2379 33.4752 10.302C33.3402 10.1813 33.4752 10.2602 33.241 10.1961ZM39.3501 10.1961C39.3115 10.3021 39.2729 10.4056 39.2316 10.5116H39.3501V10.4056C39.3997 10.344 39.5429 10.3908 39.4685 10.1961H39.3501ZM51.8077 10.1961V10.4056H51.9261V10.1961H51.8077ZM91.2931 10.408C91.2876 10.8345 91.2381 10.8616 91.5273 11.0391V10.9331C91.329 10.7063 91.6181 10.4253 91.7613 10.1961H91.6429C91.5107 10.376 91.5686 10.339 91.2904 10.4056L91.2931 10.408ZM93.4084 10.1961C93.5434 10.3168 93.4084 10.2379 93.6425 10.302C93.5076 10.1813 93.6425 10.2602 93.4084 10.1961ZM40.8787 10.302V10.5116H40.9972V10.302H40.8787ZM54.0414 10.5116H54.2756V10.4056C54.1433 10.3168 54.259 10.4179 54.1571 10.2996H54.0387V10.5091L54.0414 10.5116ZM70.9637 10.302V10.5116H71.0822V10.302H70.9637ZM81.4218 10.302C81.5568 10.4228 81.4686 10.302 81.5402 10.5116H81.4218V10.302ZM55.5673 10.408C55.5287 10.4771 55.4902 10.5485 55.4489 10.6176L55.683 10.7235C55.7683 10.5978 55.4351 10.6324 55.683 10.408H55.5645H55.5673ZM41.1128 10.5116L40.9944 10.8271H41.1128V10.6176H41.2312V10.5116H41.1128ZM71.1979 10.5116L71.0795 10.7211C71.0795 10.7211 71.4209 10.5535 71.3135 10.5116H71.1951H71.1979ZM9.50188 10.9331H9.73602V10.8271C9.60382 10.7383 9.71945 10.8394 9.61754 10.7211H9.49912V10.9306L9.50188 10.9331ZM75.6626 10.9331H75.4285C75.5276 11.0514 75.4147 10.9479 75.5469 11.0391V11.1451H75.6653V10.9355L75.6626 10.9331ZM13.4984 11.1426V11.3521H13.6168V11.1426H13.4984ZM30.4207 11.1426V11.5641H30.5391V11.4581H30.6576C30.619 11.3891 30.5804 11.3176 30.5391 11.2486H30.6576C30.5226 11.1278 30.6575 11.2067 30.4234 11.1426H30.4207ZM73.6657 11.1426V11.3521H73.7841V11.1426H73.6657ZM91.4088 11.1426C91.2738 11.2634 91.4088 11.1845 91.1747 11.2486V11.3546H91.4088C91.4473 11.2856 91.4859 11.2141 91.5273 11.1451H91.4088V11.1426ZM36.6481 11.4581L36.5296 11.6676C36.5296 11.6676 36.8712 11.5 36.7638 11.4581H36.6454H36.6481ZM32.1834 11.6701V11.8796H32.3019V11.6701H32.1834ZM34.7697 11.6701V11.8796H34.8881V11.6701H34.7697ZM29.2446 11.8796H29.4787C29.3823 12.0177 29.3961 12.0029 29.2446 12.0891V12.1951H29.1262L29.2446 11.8796ZM33.3595 11.8796L33.241 12.0891C33.241 12.0891 33.5826 11.9215 33.4752 11.8796H33.3568H33.3595ZM24.3089 12.3011V12.5106H24.4273V12.3011H24.3089ZM15.2611 12.8261V13.0357H15.3795V12.8261H15.2611ZM17.8474 12.9322V13.2476H18.3184V13.4572H18.6709C18.7673 13.3192 18.7535 13.3339 18.905 13.2476V12.9322C18.4147 13.0086 18.412 12.9593 17.8474 12.9322ZM8.32855 13.1417C8.46351 13.2625 8.32858 13.1836 8.56269 13.2476C8.42773 13.1269 8.56267 13.2058 8.32855 13.1417ZM32.6544 13.2476V13.4572H32.7728V13.2476H32.6544ZM3.50855 14.9288C3.46999 15.0348 3.43145 15.1383 3.39014 15.2443H3.50855V15.0347H3.62697V14.9288H3.50855ZM18.6681 15.0347V15.2443H18.7866V15.0347H18.6681Z" fill="#FDE6AD"/>
</svg>
