<svg width="553" height="64" viewBox="0 0 553 64" fill="none" xmlns="http://www.w3.org/2000/svg">
<path fill-rule="evenodd" clip-rule="evenodd" d="M136.236 0.680042C138.153 1.09739 138.436 2.16498 140.665 2.33969C140.986 1.70881 141.467 0.767327 142.676 1.09732V1.51472C143.705 1.90295 143.129 1.09743 143.885 1.93212H144.291V3.59177L145.094 4.00905V4.83414H145.5C145.632 5.25148 145.764 5.65903 145.906 6.07638H144.291V7.31875C143.176 7.61963 143.394 7.43525 143.082 8.56111C141.675 8.91052 141.203 9.60936 139.456 9.80348C139.484 10.8905 139.616 11.2108 139.862 11.8708C138.483 11.764 136.698 11.5408 136.642 11.4534V12.2784H137.048C138.323 12.2881 135.839 12.6958 135.839 12.6958C135.329 12.0455 134.763 11.6863 133.828 11.4534C133.223 12.5793 132.43 13.2199 131.004 13.5207V12.6958L130.201 13.1131C129.965 13.7439 129.89 13.7925 129.795 14.7728C128.946 14.8408 127.359 15.1416 126.972 15.5978C126.481 16.1801 127.331 16.054 126.169 16.8402V15.1804H125.763V16.8402H124.554V16.0151C123.941 16.2577 123.893 16.3354 122.94 16.4325V15.6075L121.731 16.0248C121.466 16.7333 121.344 17.3254 121.325 18.5095H119.313C119.313 18.5095 118.907 19.1695 118.511 19.3345V19.7519H118.105V18.9268H117.302V18.5095H116.896V18.9268H115.687V19.3442C114.988 19.9848 114.837 21.2853 114.479 22.2462C112.996 22.1006 111.825 21.5183 110.852 22.6636C110.72 23.081 110.588 23.4885 110.446 23.9059C109.37 24.0417 108.293 24.1777 107.226 24.3233V24.7407L106.423 25.1579V25.9829L105.215 25.5656L104.809 26.3906H103.6C103.534 26.4294 103.128 27.0117 102.797 27.2156V27.633C102.127 27.4971 101.456 27.3611 100.786 27.2156V26.7983C100.55 26.7692 99.407 27.4971 98.7743 27.6232C98.5004 28.4094 98.2548 30.1564 97.9715 30.9328L96.763 30.5155V30.0981C96.2058 29.9914 96.9233 30.3991 96.3567 30.5155C95.3935 30.7097 95.318 30.2049 94.742 30.0981L93.9394 31.3405H92.3244V31.7579L91.1159 32.1752V33.4175H91.9184V33.8349H91.5125C91.2953 34.0291 88.2827 34.8832 88.2922 33.8349H87.8862V34.6599L85.8749 34.2425C85.8937 35.7275 85.7803 36.8534 85.0721 37.5522V37.1348H84.6661V35.4752H83.8633C83.835 36.5622 83.7028 36.8825 83.4573 37.5425C82.6169 37.2901 81.8141 37.0767 81.0398 37.9599V38.7849H80.6338V39.2021L78.2163 38.7849C78.0841 39.0566 77.9519 39.3381 77.8103 39.6098C77.272 39.7457 76.7338 39.8816 76.1955 40.0272V40.8522H74.5807V41.6772C73.6175 41.483 73.3152 41.2016 72.5692 40.8522V42.9195C71.6249 43.0554 70.69 43.1912 69.7457 43.3368V43.7542C68.5653 44.0357 68.4237 44.2103 68.1309 45.4139C68.6975 45.443 68.0742 45.346 68.5369 44.9966C69.1696 44.521 68.9146 46.0156 68.9429 46.2388C68.2536 46.7047 68.3953 46.5009 68.1404 47.4812C68.6786 47.3453 69.2169 47.2095 69.7551 47.0639L70.1611 46.2388C70.2367 46.2291 71.1054 46.6271 71.7759 46.6562V45.8313C72.182 45.9671 72.5786 46.1029 72.9847 46.2485L73.3909 45.4236C73.8819 45.1809 74.5713 45.2003 75.0056 45.0062V43.3465C75.9594 43.1815 77.2247 42.5604 78.6317 42.9292V43.3465H80.2467V42.9292H81.0492V41.2695H81.852V42.0944C83.0607 41.8227 84.2693 41.5412 85.4781 41.2695L85.8843 41.6869C86.9892 40.891 86.2524 40.2699 88.3016 40.0272C88.7643 40.5028 88.3017 40.1922 89.1044 40.4445V39.2021L91.1159 38.7849V37.9599C92.4474 38.1831 92.9477 38.484 93.5332 37.9599H93.9394C94.4494 37.3193 93.505 37.1252 94.3454 36.7175V37.1348H94.7514V35.8926C95.6391 35.747 96.8383 35.349 97.9715 35.8926C98.1037 36.1643 98.2361 36.4458 98.3777 36.7175H99.1803V35.8926C99.9924 36.1255 99.5298 35.844 99.983 36.3098L101.192 35.8926V35.4752H102.401C102.665 35.0578 102.939 34.6501 103.203 34.2328C103.874 34.3687 104.544 34.5046 105.215 34.6502V35.0675C105.507 35.1257 106.697 34.6987 108.038 34.6502L107.632 33.4078H108.435V33.8252H110.049L110.456 34.2425V33.8252L111.664 33.4078C111.636 32.3208 111.504 32.0005 111.258 31.3405H113.676C114.138 30.8649 113.676 31.1756 114.479 30.9232C114.79 29.6809 114.724 29.8361 116.093 29.6809C116.547 30.3894 116.348 30.2438 117.302 30.5058C117.708 29.4673 118.133 28.3415 118.917 28.8462H119.323V30.0884H120.126C120.418 28.9431 120.239 29.1665 121.334 28.8462V28.4288L123.752 28.0115C123.752 28.0115 123.931 28.6132 124.554 28.4288L124.96 27.6038H126.169V26.7788L126.972 27.1961V27.6135C127.501 27.8173 127.057 27.4194 127.378 27.1961C128.388 26.9147 128.03 26.9826 128.587 26.3712H128.993V25.5462L129.795 25.1288C130.268 24.6047 130.475 23.9253 131.004 23.4691V23.8865H132.213C132.345 24.4398 132.477 24.993 132.619 25.5462H133.025C134.007 23.8574 135.282 24.0127 137.454 23.4789C137.577 23.4497 137.558 22.9062 138.257 23.0615V23.4789C139.059 23.7506 139.871 24.0321 140.674 24.3038V23.8865H141.08L140.674 22.6442C140.939 22.5083 141.212 22.3724 141.477 22.2268C142.034 21.363 141.297 21.6444 142.279 20.9844V20.5671L144.291 20.1497C144.074 21.3047 143.979 20.1886 144.291 21.3921H144.697V20.5671C145.5 20.703 146.312 20.8388 147.114 20.9844V20.5671C147.549 20.1886 147.19 20.635 147.52 20.1497H147.114V19.7325H148.323C148.408 20.7127 148.493 20.7612 148.729 21.3921C149.192 20.9165 148.89 21.3921 149.135 20.5671C149.598 20.0916 149.296 20.5672 149.541 19.7422C150.75 19.3248 151.959 18.9171 153.168 18.4998L153.574 18.9172C153.706 17.5778 153.942 17.704 154.376 16.8499H155.179V17.2672H155.585V16.8499H157.2L157.606 15.6075C158.654 16.0443 159.306 16.3645 160.826 16.4325C160.694 16.1607 160.562 15.8793 160.42 15.6075C160.694 15.1513 162.686 15.0251 163.243 14.3651L162.837 13.5402H163.243V13.1228C164.311 13.6081 164.764 13.9186 166.464 13.9477V13.5305H166.058V12.2881C167.332 12.5599 166.87 12.9189 167.266 13.1131C167.738 13.0839 168.702 12.2784 169.684 12.6958L170.09 13.5207H170.893C170.505 14.8893 170.515 15.9569 171.299 17.2477H170.893C170.43 17.7233 170.892 17.4128 170.09 17.6651V19.7325H169.684C169.58 20.4216 170.061 20.4507 170.09 20.5574V22.6247C168.645 22.683 167.805 23.2168 166.87 23.4497L166.067 23.0324C165.803 23.4498 165.529 23.8573 165.264 24.2747C165.038 24.3717 163.064 23.9642 162.441 23.8574C162.195 24.9444 161.298 26.0509 160.023 25.9247C160.023 25.9247 159.806 25.4006 159.221 25.5073L159.627 26.3323H158.012C157.88 27.0214 157.747 27.7105 157.606 28.3996L155.594 27.9823L155.188 28.8073C154.102 29.0888 154.131 28.0115 153.98 27.9823L152.771 28.3996L153.177 28.817C153.196 28.982 152.818 29.7487 152.771 30.4767C151.43 30.6126 150.089 30.7485 148.738 30.8941V30.0691C147.785 29.9818 147.738 29.8944 147.124 29.6517V30.8941C147.039 31.0688 144.357 32.9808 145.915 33.7961H144.706V33.3787C144.319 32.6119 144.3 34.2038 144.3 34.2038C143.847 34.5532 144.244 34.1552 143.894 34.6211C145.027 34.2328 145.018 34.1843 146.312 34.6211V35.0385L147.52 34.6211L147.114 34.2038L147.52 32.9614C149.409 33.7088 150.656 33.2041 151.949 32.1364C152.082 31.8647 152.214 31.5831 152.355 31.3114H154.367C154.367 31.3114 154.329 31.0688 155.169 30.8941V32.1364H155.575V31.3114C157.294 31.2822 158.248 31.224 159.202 30.4864L159.608 29.6614C160.278 29.7973 160.949 29.9332 161.619 30.0788C161.157 29.6032 161.619 29.9138 160.816 29.6614V28.8365C161.223 28.9723 161.619 29.1082 162.025 29.2537V28.4288H162.828V29.2537C165.16 29.0596 166.832 27.7106 168.466 26.7691V28.0115H169.268V27.1864H172.092V26.7691H173.3V26.3517C174.103 26.4876 174.915 26.6235 175.718 26.7691C176.058 26.3033 175.671 26.7108 176.124 26.3517V24.6921C176.927 24.5562 177.739 24.4203 178.541 24.2747C178.409 24.692 178.277 25.0997 178.135 25.517H178.541V25.9344C178.995 25.585 178.598 25.9829 178.947 25.517C179.41 25.0415 179.108 25.5171 179.354 24.6921C179.986 24.7212 182.177 25.1094 182.177 25.1094V24.6921H182.583V23.4497C183.027 22.8674 184.396 23.0227 185.407 23.0324V23.4497L187.824 23.0324V22.615H188.627V22.1976H189.836L189.43 23.44H189.836C190.128 22.2947 189.949 22.5179 191.044 22.1976V23.0227C191.45 22.8868 191.847 22.7509 192.253 22.6053V22.188C193.197 22.0522 194.132 21.9162 195.077 21.7706V21.3532H196.285L196.691 20.5283C197.031 20.3924 199.345 20.965 199.912 21.3532V20.5283L201.12 20.111V19.6936C201.668 19.5189 200.96 19.9945 201.526 20.111C202.197 20.2469 202.244 19.713 202.329 19.6936C203.066 19.5383 203.887 20.2371 204.341 20.5186V20.1013C205.596 18.9269 204.435 18.3445 206.758 18.0339V18.4512H207.967L207.561 19.2763C208.08 19.946 208.316 18.82 208.769 20.5186C209.298 20.0818 209.374 19.6742 209.978 19.2763V20.5186H210.781C210.649 19.6936 210.516 18.8589 210.375 18.0339C212.263 17.374 211.735 18.3542 212.792 15.9666H213.198C213.151 16.8498 212.783 17.3836 212.792 17.6263L213.198 18.0437C213.935 17.5195 213.246 17.4807 213.604 17.2187C214.067 16.8693 213.859 17.5972 214.01 17.636C214.416 17.5001 214.813 17.3643 215.219 17.2187V16.3936C216.126 16.2286 216.768 15.7143 218.043 15.9763C218.043 15.9763 218.061 16.5198 218.845 16.3936V15.9763H220.857V16.3936C219.894 16.646 220.111 16.5296 219.648 17.2187H220.451C221.612 15.2484 223.548 15.9375 225.692 15.1514L226.098 13.909C227.25 13.909 227.826 14.0545 228.515 14.3263V12.6666H228.921C229.186 13.084 229.46 13.4916 229.724 13.909H230.13L229.724 14.734H230.13V15.1514C231.282 16.0055 231.169 14.4136 231.745 16.3936H232.547V17.2187H233.35C233.218 17.636 233.086 18.0436 232.944 18.4609H233.35C233.624 19.0821 233.633 19.1501 233.756 20.1207H234.559V20.9457C235.182 21.3145 235.399 21.5572 235.768 22.188C237.071 21.4601 236.533 21.198 238.185 21.7706L237.779 20.5283H238.582V19.7033H239.384V20.1207H239.791V19.7033L240.999 20.1207L240.593 21.363H241.396C241.689 20.2177 241.509 20.441 242.605 20.1207C243.209 19.3928 243.691 19.3344 245.022 19.2956V18.4707C245.825 18.1989 246.637 17.9175 247.44 17.6457C247.468 18.7327 247.6 19.053 247.846 19.713C248.299 19.3636 247.902 19.7615 248.252 19.2956H248.658V18.0534C249.866 18.1893 251.075 18.3251 252.284 18.4707V17.6457H253.087L253.493 16.4033C254.031 16.5392 254.569 16.6751 255.108 16.8207C255.24 16.549 255.372 16.2675 255.514 15.9958L257.525 16.413V17.238C258.554 16.5974 260.301 14.666 261.557 15.5784H262.36V16.4033H262.766V15.5784C264.702 15.4716 264.711 15.2872 266.392 15.5784C266.524 14.8892 266.657 14.2001 266.798 13.511C268.659 13.1519 270.066 13.1519 271.227 13.511V12.6861H273.645V13.1033H274.853V13.5207C275.259 13.3849 275.656 13.2489 276.062 13.1033V12.6861C275.599 12.2105 275.902 12.6861 275.656 11.8611C276.978 11.8902 276.846 12.3852 277.667 11.8611L278.074 11.036L280.491 11.8611V12.6861C281.577 12.6861 282.776 12.8219 283.314 12.2687V11.4437L284.117 11.8611V11.4437C284.92 11.3078 285.732 11.172 286.535 11.0264C286.912 11.2788 286.393 11.6184 286.941 11.4437L287.347 10.6187C287.857 10.6187 288.376 11.3563 289.358 11.036V10.6187C290.029 10.4828 290.699 10.3469 291.37 10.2013L290.964 11.4437H291.37C292.267 12.4434 292.125 12.0261 293.381 11.8611C293.334 13.1714 292.597 12.6375 293.787 13.1033C293.967 14.1322 294.155 14.6273 294.193 16.0055C293.079 16.3064 293.296 16.1219 292.984 17.2477H292.578V19.3151C291.615 19.5092 291.313 19.7906 290.567 20.14V18.8978H290.161C289.566 21.2174 289.462 19.7518 288.15 20.5574V20.9748L286.535 22.2171C286.667 21.7997 286.799 21.3922 286.941 20.9748H286.535C286.289 21.6348 286.176 21.9551 286.129 23.0421C284.608 23.3721 283.872 23.8477 281.7 23.8671V23.0421H280.897V23.8671H278.886V24.2844H279.292C279.037 24.8764 278.82 24.595 278.489 25.1094H277.686L278.093 24.2844H277.686C277.29 24.8473 277.45 25.0997 276.478 25.1094C276.478 25.1094 276.194 24.5174 275.675 24.6921C275.543 24.9638 275.41 25.2453 275.269 25.517H274.466L274.06 28.0018L272.445 28.4191V26.7594H271.643C271.35 28.0891 271.095 28.2638 269.631 28.4191L270.037 27.1767H269.631C269.48 27.6523 269.518 28.652 268.829 28.4191L268.422 27.1767C268.016 27.3126 267.62 27.4485 267.214 27.5941V28.4191C266.572 28.1667 266.26 28.0503 265.202 28.0018V26.7594H264.796V28.0018C265.259 28.4774 264.957 28.0018 265.202 28.8267C264.258 28.9626 263.323 29.0984 262.379 29.244V30.0691C260.953 30.2244 261.151 30.5835 259.961 30.8941V32.1364C258.979 31.9035 259.074 31.6996 258.347 31.3114V32.1364H257.941V33.3787H258.347V32.5537H259.149V33.3787C259.82 33.2428 260.49 33.107 261.161 32.9614V34.2038H261.963V32.9614C262.634 33.0973 263.304 33.2331 263.975 33.3787C264.164 32.3887 264.437 32.0781 264.777 31.3114C266.09 31.3211 267.686 31.127 268.404 31.7288H268.81C268.942 31.457 269.074 31.1756 269.216 30.9038H270.018V30.4864H270.821V30.0691L271.624 30.4864V30.0691H275.656C275.524 29.6518 275.392 29.2441 275.25 28.8267H276.053V28.4093H276.459V28.8267L277.667 29.244C277.696 29.8264 277.762 29.3605 277.261 29.6614C277.715 30.0982 277.261 29.8459 278.064 30.0788V29.6614H278.47V28.4191H278.876C279.226 27.8464 279.178 27.7009 279.282 26.7594C280.236 26.7109 280.302 26.6332 280.897 26.342V26.7594H281.303V27.1767L280.897 28.0018H282.106V27.1767C283.05 27.0408 283.985 26.905 284.929 26.7594V27.1767H285.335C285.789 26.8467 285.184 26.6332 285.741 26.7594V27.1767H287.356V28.0018H287.762C287.895 27.1768 288.027 26.342 288.168 25.517H288.971V26.342H289.377V25.0998C290.303 25.1386 290.425 25.4491 290.992 25.517L291.398 24.6921C291.398 24.6921 292.503 25.0802 293.013 25.1094V24.2844L293.419 24.7018C293.957 24.5659 294.495 24.43 295.034 24.2844V24.7018H297.045V23.4594H297.848V23.8768H298.254V23.4594L299.057 23.8768L299.463 22.6345C300.53 22.2268 300.303 23.5371 301.077 23.4594V23.0421C302.843 22.6151 303.296 22.023 305.11 21.7998V22.2171H304.704C303.939 22.5762 305.506 22.6345 305.506 22.6345C305.846 23.1003 305.459 22.6926 305.912 23.0517V22.2268L307.924 21.8095C308.056 21.5377 308.188 21.2562 308.33 20.9844L308.736 21.4018C311.125 21.5571 311.437 20.538 312.768 19.7422V20.9844H313.174C313.637 20.5088 313.174 20.8195 313.977 20.5671V19.7422C314.383 19.878 314.779 20.0139 315.185 20.1594L315.592 19.3345H317.206V18.9172H317.612C317.858 19.9072 317.745 19.6839 318.415 20.1594V18.9172C320.531 18.5678 320.2 18.8686 322.041 19.7422C322.249 18.7716 322.627 18.1892 323.25 17.6748C323.713 18.1504 323.25 17.8398 324.053 18.0921V17.2672H325.262V16.4422C325.932 16.5781 326.602 16.7139 327.273 16.8595V17.6846H328.076V16.4422C328.954 16.5004 329.417 16.8595 329.69 16.8595V16.4422L330.899 16.0248C331.031 16.2965 331.164 16.5781 331.305 16.8499C332.589 17.2381 334.516 15.986 335.337 15.6075L334.931 14.3651H336.14C336.386 15.3551 336.272 15.1319 336.943 15.6075C337.283 16.0734 336.896 15.6657 337.349 16.0248C337.377 14.9377 337.509 14.6174 337.755 13.9575C338.558 13.8216 339.37 13.6858 340.173 13.5402C340.512 14.006 340.125 13.5983 340.579 13.9575C340.267 14.3748 340.087 14.3652 339.776 14.7825H340.985L340.579 13.5402L340.985 13.1228C341.579 13.3169 341.627 13.5984 342.599 13.5402V13.1228H343.006V13.5402C343.544 13.6761 344.082 13.8119 344.62 13.9575V14.3749C346.263 15.0154 347.009 14.074 347.84 14.7923C349.096 15.6464 348.029 15.326 348.643 16.4519L349.446 16.8692V17.6943H349.852C350.22 18.2572 350.154 18.4222 350.258 19.3539L348.643 18.9365C348.964 20.2759 349.389 20.3633 349.446 22.2462C348.992 22.5956 349.389 22.1977 349.04 22.6636H348.634C348.511 21.4213 348.577 21.5377 347.831 21.0038V21.4212H348.237C347.972 21.9745 347.699 22.5277 347.434 23.0809C346.386 23.1003 346.046 23.1683 345.423 23.4983V23.9156C344.733 24.1582 344.724 23.5274 344.62 23.4983C343.175 23.1198 342.259 24.0224 341.797 24.7407H341.391C341.258 25.5656 341.126 26.4003 340.985 27.2253H340.182L339.776 26.4003C339.237 26.5362 338.699 26.672 338.161 26.8176C338.246 27.7979 338.331 27.8465 338.567 28.4774C337.632 28.4385 337.538 28.1473 336.952 28.06L336.546 28.8849C336.008 29.0208 335.47 29.1567 334.931 29.3023C334.639 30.4476 334.818 30.2244 333.723 30.5447C332.306 31.855 331.116 30.0205 330.899 30.1273V30.5447C330.229 30.962 329.558 31.3696 328.888 31.7869C329.105 33.2331 329.284 32.5537 328.888 33.8543H329.294V33.437H330.909V34.2619L332.117 33.8445V33.4273L333.326 33.8445V32.6023C333.732 32.7382 334.129 32.874 334.535 33.0196V32.6023L334.129 32.1849H336.546C336.678 32.6022 336.811 33.0099 336.952 33.4273C337.217 33.2914 337.755 32.6023 337.755 32.6023C338.161 32.7382 338.558 32.874 338.964 33.0196V32.6023C339.559 32.282 339.634 32.2917 340.579 32.1849V31.3599H341.381V30.535H342.996V31.3599C343.903 31.2532 344.063 31.3211 344.611 30.9425V30.5253H345.413V30.1079H346.216V29.6906C346.934 29.0985 347.179 28.7588 348.227 28.4482V29.6906H349.842C349.975 29.0015 350.107 28.3123 350.248 27.6232H351.051C350.919 28.0406 350.787 28.4483 350.645 28.8656H351.051C351.627 28.2736 353.299 27.8076 354.271 27.6232V26.7983C354.81 26.6624 355.348 26.5265 355.886 26.3809V25.1385H356.689V26.3809H357.491V25.1385H359.503C359.371 25.5559 359.238 25.9635 359.097 26.3809H359.899C360.315 25.9053 360.645 25.585 361.514 25.5559V25.9732H361.92L362.326 25.5559C362.704 24.8086 362.883 24.9055 363.129 23.8961L364.338 23.4789V23.0615L364.744 23.4789L365.952 23.0615V24.3038H366.755C366.84 23.3235 366.925 23.2751 367.161 22.6442L367.964 23.0615V22.6442C368.54 22.1298 368.587 21.4988 369.173 20.9844C369.296 21.1785 369.994 22.4888 370.382 22.2268L370.788 20.9844C372.535 20.8485 374.282 20.7127 376.029 20.5671V20.9844C374.914 21.2853 375.131 21.1009 374.82 22.2268C375.821 22.0424 376.302 21.8483 377.643 21.8095V21.3921H377.237V19.3248C377.908 19.4606 378.578 19.5966 379.249 19.7422C379.381 19.3248 379.513 18.9171 379.655 18.4998C380.117 18.9754 379.815 18.4998 380.061 19.3248L381.269 19.7422V19.3248C382.1 18.8589 381.997 18.6842 383.281 18.4998V17.2574C384.14 17.2089 384.66 16.8304 384.896 16.8402L385.302 17.2574V16.4325L387.313 16.0151V16.8402C387.578 16.7043 387.851 16.5683 388.116 16.4228V16.0055C388.758 15.9278 388.616 16.7237 388.919 16.8304H390.533C390.666 16.1413 390.798 15.4522 390.94 14.7631C391.61 14.899 392.28 15.0348 392.951 15.1804L393.357 14.3554H393.763V14.7728C394.169 14.6369 394.566 14.501 394.972 14.3554V13.5305C395.434 14.006 395.132 13.5304 395.378 14.3554H396.18C396.369 13.3654 396.643 13.0548 396.983 12.2881C398.324 12.3075 400.609 12.7055 400.609 12.7055V12.2881H401.412V11.8708H402.621C402.753 11.599 402.885 11.3175 403.027 11.0457C403.433 11.1816 403.829 11.3175 404.235 11.4631V11.8805H406.247V11.0554L407.862 10.6382V11.4631H408.664C408.919 12.5987 409.193 12.4046 409.467 13.5305H410.676C410.969 14.6757 410.789 14.4525 411.885 14.7728V15.5978C409.477 16.1025 409.798 17.2574 409.061 19.3248H411.479L411.885 17.6651C413.566 17.4031 413.027 17.2575 414.708 16.8402V17.6651C416.616 16.8401 416.332 16.8401 417.928 17.6651V16.8402C418.466 16.7043 419.005 16.5683 419.543 16.4228V15.5978H420.346V16.0151H420.752V15.5978C421.668 15.4134 421.838 15.8112 422.367 16.0151V15.5978H421.961C421.214 15.1999 422.763 15.1804 422.763 15.1804V14.3554H423.566V13.5305C424.831 13.7731 425.36 14.2001 426.786 14.3554L427.192 13.1131C427.192 13.1131 426.333 13.0452 426.786 12.6958H427.589V13.1131H430.006V11.8708C431.29 12.1426 430.799 12.4822 431.215 12.6958C431.885 12.6278 431.961 11.8805 432.018 11.8708C432.792 11.6476 432.575 12.1425 432.82 12.2881H433.226V11.8708C433.765 12.0067 434.303 12.1425 434.841 12.2881C435.134 11.1428 434.954 11.366 436.05 11.0457V11.8708H437.665C438.043 11.1235 438.222 11.2204 438.467 10.211L439.676 10.6284V10.211C439.94 10.0752 440.214 9.93935 440.479 9.79376V10.6187H441.281L440.875 9.37636C441.839 9.18225 442.141 8.90081 442.887 8.5514V10.211C444.983 9.64811 444.322 9.29877 446.919 9.79376V8.5514H448.128V8.9688C447.958 9.21144 447.467 9.02701 447.722 9.79376H448.128C448.779 7.23144 448.987 9.09487 450.545 8.134C451.461 7.57106 450.517 6.61019 452.557 6.06667V6.48407L453.765 6.06667V6.89175H454.172V6.06667C455.598 6.22196 455.399 6.58117 456.589 6.89175V7.71672C456.967 8.367 459.469 8.48348 458.204 9.78405H459.006V11.4437L458.204 11.8611C458.185 11.997 458.582 12.7831 458.61 13.5207H459.412C459.224 14.5107 458.95 14.8213 458.61 15.5881C457.892 15.6269 457.156 16.0249 456.995 16.0055V15.5881H455.38V16.0055L452.963 16.4228V17.2477C452.425 17.5195 451.886 17.8009 451.348 18.0727V17.6554H450.942V18.8978L448.118 19.7227C448.581 20.1983 448.118 19.8877 448.921 20.14V20.5574C449.629 20.8971 450.215 20.3147 450.536 20.14V19.7227H451.745V18.8978C453.624 18.8007 454.039 18.296 455.371 17.6554V17.238H458.194V17.6554H457.788C457.325 18.131 457.788 17.8203 456.986 18.0727V18.8978C458.629 18.4125 457.411 18.5192 458.194 17.6554L458.997 18.0727V17.6554H459.8V17.238H461.008C461.433 16.9857 462.009 15.1901 463.02 15.5784V15.9958H463.823V14.7534C464.229 14.8893 464.625 15.0251 465.031 15.1707V14.7534C465.834 14.6175 466.646 14.4816 467.449 14.336V15.161H468.251C468.384 15.5783 468.516 15.986 468.657 16.4033H469.064V15.5784H469.866C470.102 14.0351 470.102 14.6273 469.866 13.0937C469.989 13.1423 473.747 13.9964 473.898 13.9187V13.5013H474.304V11.8417H474.711C475.532 12.5987 476.543 11.9581 477.931 11.8417V11.0167C478.743 11.2496 478.28 10.9681 478.734 11.434C480.216 10.9972 479.838 10.5993 480.745 9.77433V9.35693C481.765 8.70665 483.927 9.32782 485.58 9.35693C485.835 8.22136 486.109 8.41547 486.382 7.2896C488.111 7.22166 487.761 7.02757 488.8 6.46464V7.707H490.415C490.5 6.72672 490.585 6.67823 490.821 6.04736L492.029 6.46464L492.436 5.63967H493.238V5.22227C493.644 5.08639 494.041 4.95058 494.447 4.80499L494.853 6.04736C495.873 5.20295 495.023 5.04763 496.865 4.80499V5.22227C496.402 5.6008 496.392 5.52324 496.062 6.04736H496.468V6.46464C497.308 6.00847 497.186 5.79496 498.479 5.63967C498.819 6.10555 498.432 5.69796 498.885 6.05707C498.413 6.84324 498.545 6.45498 497.677 6.88204V7.29932H498.479C498.347 8.12431 498.215 8.95906 498.073 9.78405H498.479V10.2013H498.073V11.0264C498.206 11.997 498.338 12.9579 498.479 13.9284H498.073C497.733 14.404 497.865 14.5107 497.271 14.7534V14.336H496.865C496.6 14.7533 496.326 15.161 496.062 15.5784H494.853L494.447 16.4033C493.909 16.5392 493.371 16.6751 492.832 16.8207C492.7 17.2381 492.568 17.6457 492.426 18.0631L491.217 18.4804L490.811 19.3053H490.405V18.8881C488.923 18.5289 488.46 20.2953 487.582 19.3053V20.1304H486.779C486.911 20.6836 487.044 21.2368 487.185 21.7901H486.779C486.326 22.4986 486.524 22.353 485.57 22.615C485.533 22.5277 484.994 21.1106 484.768 21.3727V21.7901L483.965 22.2073C483.833 22.6247 483.701 23.0324 483.559 23.4497H482.35C481 24.1291 481.821 24.5465 479.527 24.6921C479.659 25.1094 479.791 25.5171 479.933 25.9344C480.471 25.7986 481.009 25.6626 481.548 25.517V26.7594H481.954V26.342H483.568C484.796 25.8664 485.363 25.1871 487.195 25.0998V24.2747C488.337 24.0126 488.262 23.5079 488.403 23.4497H490.018V23.8671L491.633 23.4497C491.633 23.4497 491.812 23.9642 492.436 23.8671V23.4497L494.05 23.8671V23.4497C494.513 22.9741 494.211 23.4497 494.456 22.6247H494.05V23.0421C493.701 23.8283 493.644 22.2171 493.644 22.2171C495.117 22.3529 496.6 22.4889 498.073 22.6345L498.479 21.8095C498.885 21.6833 499.216 22.45 500.094 22.2268V21.8095H502.106V22.2268H502.512V21.8095H504.126L504.532 20.5671H504.939L504.532 19.7422H505.741C506.204 20.2177 505.741 19.9071 506.544 20.1594V19.3345C507.507 19.5286 507.809 19.81 508.555 20.1594V19.7422H508.149C507.403 19.3442 508.952 19.3248 508.952 19.3248V19.7422C509.415 20.2177 509.112 19.7421 509.358 20.5671C510.217 20.5186 510.727 20.1497 510.973 20.1497V20.5671H511.775C511.889 19.8295 512.181 19.7422 512.181 19.7422C512.049 19.3248 511.917 18.9171 511.775 18.4998H512.181V18.0824C513.324 18.6065 513.843 19.1501 515.402 19.3248V18.4998C517.753 17.9466 515.628 17.4516 517.819 18.4998V16.8402H518.225V17.2574C518.763 16.8401 519.302 16.4324 519.84 16.0151V17.6748H520.246C520.444 17.4807 520.133 17.0051 520.652 17.2574V17.6748H521.058C521.058 17.6748 520.945 19.1598 521.464 18.4998V18.0824C521.927 17.6068 521.625 18.0824 521.87 17.2574H520.662C520.973 16.0151 520.907 16.1704 522.276 16.0151V16.4325L523.485 16.0151V16.4325H524.694V16.8499C525.733 17.0731 526.904 15.5589 527.517 15.1901L528.726 15.6075V15.1901C529.397 14.7436 529.397 14.6272 530.341 14.3651C530.209 14.7825 530.077 15.1902 529.935 15.6075H530.341V16.0248C530.747 15.753 531.144 15.4716 531.55 15.1998V14.7825H532.352C533.08 14.4525 533.23 13.841 533.561 13.1228C534.231 13.676 534.902 14.2293 535.572 14.7825C535.818 13.9673 535.591 13.7731 536.375 13.5402C536.507 13.5887 536.498 14.3166 537.178 14.3651C538.037 13.1907 537.537 13.5304 538.793 13.9477C538.925 12.6083 539.161 12.7346 539.595 11.8805C541.002 12.1038 540.341 12.2882 541.607 11.8805V14.3651H542.013C542.466 13.6566 542.268 13.8022 543.221 13.5402C543.977 14.8407 544.714 14.7146 544.836 16.8499C545.941 16.8984 547.754 17.4225 548.056 16.8499H548.462V17.2672C549.577 17.5389 550.842 18.4221 551.286 19.3345V20.5768H551.692C552.249 21.3436 552.627 21.5377 552.901 22.6442C552.495 22.5083 552.098 22.3724 551.692 22.2268V22.6442H552.098V23.8865H552.504C552.872 24.498 552.863 24.9057 552.91 25.9539C552.447 26.4295 552.75 25.9539 552.504 26.7788C551.163 26.9147 549.822 27.0505 548.472 27.1961V26.3712C547.934 26.507 547.395 26.643 546.857 26.7886V25.9635C546.593 26.0994 546.319 26.2353 546.054 26.3809C545.922 26.1091 545.79 25.8277 545.648 25.5559C545.639 25.5559 544.459 26.1188 543.637 25.5559L543.231 24.3135C542.759 23.9738 542.542 25.5267 541.616 25.1385V24.7212C541.153 24.2456 541.456 24.7211 541.21 23.8961L540.001 24.3135V23.8961H539.595C539.728 23.4788 539.86 23.0712 540.001 22.6539C540.001 22.6539 539.501 22.5277 539.595 21.8289C539.595 21.8289 540.266 21.6444 540.001 21.0038H539.595C539.133 21.4794 539.595 21.1689 538.793 21.4212C538.66 21.8386 538.528 22.2463 538.387 22.6636C537.442 22.5471 537.386 22.5277 536.772 22.2462V21.8289C536.092 21.8775 536.092 22.6151 535.969 22.6539C535.053 22.9839 534.345 22.1394 533.958 22.2365V22.6539C532.588 23.2168 532.286 23.9447 530.737 24.3135C530.87 23.8962 531.002 23.4885 531.144 23.0712H530.341C529.746 24.197 529.104 24.9638 527.517 25.1385V23.8961H527.111C526.8 25.1385 526.866 24.9832 525.497 25.1385V24.3135C523.816 25.255 523.589 25.158 521.464 24.7309V23.9059H521.058C521.03 25.5073 521.124 25.6141 519.849 25.9732V26.3906C519.462 27.1573 519.443 25.5656 519.443 25.5656H518.641C518.509 25.8374 518.376 26.1188 518.235 26.3906C517.564 26.2547 516.894 26.1188 516.223 25.9732V26.7983H515.014V27.2156C514.552 27.6911 514.854 27.2155 514.608 28.0405L512.191 28.4579V27.633L508.159 28.0502V28.8752H506.95V29.2926C506.591 30.0691 506.544 28.4676 506.544 28.4676C505.25 28.7879 505.675 29.0888 504.126 29.2926V30.535C501.747 30.2826 501.926 29.0693 499.292 28.8752C499.282 30.2534 499.084 30.7485 498.885 31.7773H498.083C498.206 31.4182 498.857 30.8649 498.489 30.1176H498.083V30.535C497.62 31.0105 497.922 30.5349 497.677 31.3599L495.259 31.7773V32.6023C493.909 32.3499 492.719 31.4667 491.227 32.1849C490.963 32.6022 490.689 33.0099 490.424 33.4273C489.329 33.7573 489.178 32.3111 488.809 32.1849C488.082 31.9325 488.517 32.6508 488.403 33.0099C487.997 32.874 487.601 32.7382 487.195 32.5926V34.2522H486.392L485.986 35.0772C485.325 35.281 485.24 34.6696 485.183 34.6599C484.21 34.4852 484.135 35.0772 483.568 35.0772V34.6599C482.766 34.524 481.953 34.3881 481.151 34.2425V35.0675C478.478 35.3587 477.119 35.4266 475.107 35.0675L474.701 36.3098C473.946 36.106 472.775 36.1352 471.481 35.8926V35.4752C471.944 34.9996 471.642 35.4752 471.887 34.6502C470.924 34.689 470.886 34.9219 470.272 35.0675V34.6502C469.602 34.2037 469.611 34.0582 468.657 33.8252V33.0001H467.855C467.723 32.5828 467.59 32.1752 467.449 31.7579L465.031 31.3405V30.5155C465.352 30.6514 466.297 31.3599 467.043 30.9328V30.5155C465.853 29.7197 466.061 28.8656 466.24 27.6135C466.778 27.3418 466.788 26.9633 467.043 26.7886C467.307 26.9244 467.581 27.0603 467.845 27.2058V25.5462H468.251C468.119 24.7212 467.987 23.8865 467.845 23.0615C467.439 22.9256 467.043 22.7898 466.637 22.6442C466.769 22.9159 466.901 23.1974 467.043 23.4691L465.834 23.0517V23.8768H465.428C465.296 24.1486 465.164 24.43 465.022 24.7018H463.813C463.908 25.6627 464.257 24.9542 463.813 25.9442L463.01 25.5268V26.3517C462.576 27.0797 462.604 25.5268 462.604 25.5268C461.934 25.6626 461.263 25.7986 460.593 25.9442C460.593 25.9442 460.404 25.3229 459.79 25.5268C459.658 25.7985 459.526 26.08 459.384 26.3517H458.176C458.043 26.7691 457.911 27.1767 457.769 27.5941C457.146 27.2544 455.985 26.0994 454.946 26.3517C454.814 26.6235 454.681 26.9049 454.54 27.1767C453.765 27.099 453.869 26.3711 453.737 26.3517H453.331V26.7691H451.32V27.1864H452.122C451.99 28.0114 451.858 28.8462 451.716 29.6711H450.913C450.545 29.5061 450.649 28.4094 449.299 28.8462L448.893 29.6711H446.881V29.2537C446.296 28.9237 446.201 28.9626 445.266 28.8365V30.0788C444.86 29.9429 444.464 29.807 444.058 29.6614V30.0788C443.595 30.5544 443.897 30.0788 443.652 30.9038C442.15 31.3405 442.566 31.7579 441.64 32.5634V32.9808H440.432V31.7385H439.629V32.5634H437.618V32.146H437.212C436.947 32.6993 436.673 33.2526 436.409 33.8058L435.606 33.3884V33.8058L434.397 34.6308V33.3884H433.991V33.8058L432.782 33.3884V33.8058C432.216 33.7767 432.943 33.4563 432.376 33.3884L429.959 33.8058V35.0482H429.553V34.6308C428.458 34.029 427.579 35.2131 427.135 35.4557C426.909 34.1552 426.739 33.7184 425.521 33.3884C425.747 34.3978 425.946 34.3008 426.323 35.0482H425.521C424.878 35.6596 423.15 35.5043 421.894 35.4654V34.6405H421.092V35.4654C420.289 35.3296 419.477 35.1938 418.674 35.0482C418.476 34.0679 418.296 34.0678 417.872 33.3884C418.419 32.9031 418.268 33.6991 418.674 32.9711C418.145 32.6314 418.202 32.6799 417.872 32.146H418.674C418.759 31.1658 418.844 31.1173 419.08 30.4864C417.938 30.2146 417.56 29.7197 417.069 28.8267H418.278C418.542 27.7203 418.816 26.6138 419.08 25.517C418.551 25.1773 418.608 25.2259 418.278 24.6921C417.418 25.1968 417.399 25.6239 416.266 25.9344V25.1094H415.86V26.3517C414.293 26.4876 414.047 27.0215 413.037 27.5941C412.952 26.6138 412.867 26.5653 412.631 25.9344C412.177 26.2839 412.574 25.8859 412.224 26.3517H411.818L412.224 26.7691L411.818 28.0115C410.109 27.7106 409.883 27.9436 407.786 28.0115L408.192 29.2537H407.786C407.456 29.7973 407.503 29.7391 406.984 30.0788V28.4191C404.934 28.5355 405.208 29.1567 402.951 29.244C402.649 30.6514 402.092 31.1561 400.534 31.3114V30.4864H400.128V30.9038C399.778 31.69 399.722 30.0788 399.722 30.0788C399.316 29.9429 398.919 29.807 398.513 29.6614L398.919 30.4864H398.116C397.474 31.0979 397.125 31.9132 396.908 32.9711H395.699V32.146C393.111 32.2431 392.46 33.6601 390.458 34.2134C390.713 33.0778 390.987 33.2719 391.26 32.146C388.682 32.7284 386.851 34.5531 385.217 31.7288C387.03 30.6417 386.076 30.1855 385.623 28.4191H384.008C383.668 27.9532 384.055 28.3609 383.602 28.0018C383.725 27.6427 384.376 27.0894 384.008 26.342H383.602V25.9247H382.393C381.713 27.07 380.665 26.7594 379.976 27.5844L379.57 28.8267H378.361V29.244C377.955 29.3799 377.558 29.5158 377.152 29.6614V28.8365C375.896 29.1179 375.32 30.0788 374.329 30.4961H372.714V30.9135C372.308 30.7776 371.911 30.6417 371.505 30.4961V31.3211L369.088 31.7385V32.1558H367.473C367.341 32.1849 367.369 32.7284 366.67 32.5732V32.1558H365.868V31.7385L363.044 31.3211C362.751 31.9034 362.317 32.5732 361.835 32.9808V31.3211H361.429V32.146C361.023 32.0102 360.627 31.8743 360.221 31.7288C360.032 32.6993 359.55 33.0099 359.418 33.7961H359.824C359.956 34.2134 360.088 34.6211 360.23 35.0385C357.935 35.0676 357.699 34.6016 356.198 34.2134C355.603 35.3392 354.961 36.106 353.374 36.2807V35.4557H352.571V37.1155H351.769V37.5328H348.945V37.9502H348.143V38.3675C347.878 38.2316 347.604 38.0958 347.34 37.9502V38.3675H346.934C346.339 37.8725 347.274 38.0666 346.528 37.5425C346.575 38.8528 347.311 38.319 346.122 38.7849V37.9599C343.855 38.2414 344.819 38.9887 343.704 39.6195H342.902C342.769 40.0369 342.637 40.4446 342.496 40.8619H340.484V40.4445C341.485 39.6875 341.004 40.1243 340.89 38.7849H340.087V40.0272C336.584 40.0369 335.97 40.7454 332.835 40.8522V40.0272C332.297 40.299 331.758 40.5804 331.22 40.8522C331.352 41.4054 331.485 41.9586 331.626 42.5118C330.578 42.4439 330.247 42.4244 329.615 42.0944V41.6772L328.406 42.0944C328.34 42.0847 328.265 41.5122 327.603 41.6772V42.0944H326.801V42.5118H325.998V42.9292C325.441 43.3078 325.29 43.2203 324.383 43.3465V42.1042H323.977V42.5216H321.966C321.692 42.6477 321.947 43.0553 320.757 43.3465C320.625 43.7639 320.493 44.1715 320.351 44.5889H320.757C321.352 45.0936 319.293 44.9965 319.142 45.0062V44.5889C317.528 44.3171 315.922 44.0357 314.307 43.7639C314.525 42.6089 314.619 43.7251 314.307 42.5216C313.873 42.7545 313.467 43.6377 312.693 43.3465V42.9292H312.287L312.693 42.1042H312.287C311.824 41.6286 312.286 41.9392 311.484 41.6869C311.352 41.2695 311.219 40.8619 311.078 40.4445H311.88C311.748 40.0272 311.616 39.6195 311.474 39.2021H311.88V39.6195C312.23 40.4057 312.287 38.7946 312.287 38.7946H312.693V38.3772C312.428 38.2413 312.154 38.1055 311.89 37.9599C312.022 37.5425 312.154 37.1349 312.296 36.7175H311.89V36.3001H313.099V35.8828C312.57 35.5431 312.627 35.5916 312.296 35.0578C312.985 34.5919 312.844 34.7958 313.099 33.8155L314.713 33.3981C314.761 33.369 315.337 31.8646 315.516 32.1558V32.9808H316.725C317.103 32.2335 317.282 32.3305 317.527 31.3211C316.98 30.8358 316.914 30.5641 316.725 29.6614H317.527V28.8365H318.33V28.4191C317.527 28.5549 316.715 28.6909 315.913 28.8365V28.4191C315.384 28.4482 314.902 29.1276 313.901 28.8365V28.4191C313.099 28.2832 312.286 28.1474 311.484 28.0018V29.6614H310.681V30.4864C310.275 30.2146 309.879 29.9332 309.472 29.6614V28.8365L309.066 29.2537C308.604 29.7293 308.906 29.2538 308.66 30.0788H307.045V30.9038C306.243 30.7679 305.431 30.632 304.628 30.4864C304.496 31.1755 304.364 31.8646 304.222 32.5537C303.24 32.7867 303.334 32.9808 302.607 33.3787V32.9614C302.192 32.6023 302.05 32.2432 301.804 31.719C301.342 32.1946 301.644 31.719 301.398 32.544C300.596 32.6799 299.784 32.8158 298.981 32.9614V33.7864C298.027 33.8737 297.98 33.9611 297.366 34.2038V33.3787H297.772L297.366 32.1364H296.96V32.9614C296.696 32.8255 296.422 32.6896 296.157 32.544C295.695 32.874 295.997 33.5243 294.949 33.369C294.816 33.0972 294.684 32.8158 294.543 32.544H294.137V33.369L292.928 33.7864C292.72 33.7281 292.682 32.7382 292.125 32.9614C291.719 33.5146 291.322 34.0678 290.916 34.6211C290.51 34.4852 290.114 34.3494 289.708 34.2038V35.0287H288.905V35.8537C288.452 35.5043 288.848 35.9022 288.499 35.4363C288.064 35.0578 288.423 35.5043 288.093 35.019H288.499V34.6016H287.29V35.019H286.884V34.6016H285.675C285.543 34.3299 285.411 34.0484 285.269 33.7767C285.005 33.9125 284.731 34.0485 284.467 34.1941C283.919 34.3591 284.637 34.6405 284.061 34.6113V34.1941H283.258C283.249 35.4752 283.371 36.3293 283.664 37.0961H282.049V37.921H281.643V36.6787H280.84L280.434 37.921C279.981 37.5716 280.378 37.9695 280.028 37.5036H279.622L280.028 36.2614C279.622 36.3973 279.226 36.5331 278.819 36.6787V37.0961H278.017C277.885 37.3678 277.753 37.6493 277.611 37.921H275.996V38.3383H275.59C275.392 38.1539 275.703 37.6687 275.184 37.921L274.778 38.746L272.766 39.1634V38.3383H272.36L271.954 39.1634H271.548L271.142 38.3383C270.585 38.0763 270.009 38.1346 269.527 37.921C269.499 39.5225 269.594 39.6293 268.319 39.9884V39.1634H267.516V39.9884H265.505L264.702 42.0557H263.899V41.6383C263.767 41.6189 262.974 42.0072 262.284 42.0557C262.511 41.0463 262.709 41.1433 263.087 40.3959H262.284L261.878 41.6383L259.055 41.221C258.63 41.4345 258.762 42.1527 259.055 42.4633H258.252C257.903 42.8903 257.553 43.036 257.043 43.2883V42.046C255.24 42.2013 255.873 42.308 254.22 42.046V42.4633C254.683 42.9388 254.38 42.4634 254.626 43.2883H252.614C252.511 43.2689 252.482 42.7545 251.812 42.8709V43.2883H251.009C250.877 43.7057 250.745 44.1132 250.603 44.5306C250.15 44.1812 250.546 44.5792 250.197 44.1133C249.744 43.7639 250.14 44.1618 249.791 43.6959C250.32 43.3562 250.263 43.4048 250.594 42.8709H248.979C248.62 43.3077 248.271 43.4144 247.77 43.6959V44.1133L246.561 43.6959V44.1133C247.09 44.453 247.034 44.4045 247.364 44.9383H246.561C246.089 44.3753 245.825 44.3074 244.947 44.1133V44.9383C244.191 44.6471 243.37 44.5306 242.123 44.5209C241.679 43.6571 241.471 43.7834 241.32 42.4537H240.518V41.6286C240.064 41.978 240.461 41.5801 240.112 42.046H239.706V42.8709L238.903 43.2883V44.5306H238.497C238.091 43.9774 237.694 43.4242 237.288 42.8709H236.882C236.353 41.9489 237.099 41.716 236.079 40.8036C236.211 40.2504 236.344 39.6972 236.485 39.144C236.485 39.144 235.966 38.9402 236.079 38.319H236.485V36.2517C236.485 36.2517 236.731 36.2516 236.891 35.4266C238.006 35.1257 237.789 35.3102 238.1 34.1843H238.903V34.6016L240.112 34.1843V33.3593L242.123 33.7767C242.416 32.6314 242.236 32.8546 243.332 32.5343V30.8746H243.738L243.332 30.0497H243.738C244.078 29.5838 243.691 29.9914 244.144 29.6323V29.215C244.531 28.4482 244.55 30.04 244.55 30.04L245.759 30.4572V30.04H245.353C245.485 29.6226 245.617 29.2149 245.759 28.7976H248.176V29.215C249.12 29.0791 250.055 28.9432 251 28.7976V27.9726H252.614V27.1477C251.236 27.1283 249.829 26.8661 248.988 26.7303C248.724 27.1476 248.45 27.5553 248.186 27.9726L245.768 28.3899C245.995 27.3805 246.193 27.4776 246.571 26.7303H244.956V27.1477H245.362C245.825 27.798 244.37 27.5358 244.153 27.5649V28.8073H243.747V29.2247C243.077 29.3606 242.406 29.4964 241.736 29.642C241.868 28.9529 242 28.2638 242.142 27.5747C241.16 27.8076 241.245 28.0017 240.527 28.3996V28.817C239.725 28.5453 238.912 28.2638 238.11 27.9921V28.4093C237.647 28.8849 237.949 28.4093 237.704 29.2343C237.043 29.3605 235.947 30.0982 235.692 30.0594V29.642H234.483C233.926 29.5255 234.635 29.0985 234.077 29.2247L233.671 30.0497H232.869L233.275 29.2247H232.869C232.406 29.7003 232.869 29.3896 232.066 29.642V30.467C231.395 30.6028 230.725 30.7388 230.055 30.8844C229.979 30.8649 229.922 30.2923 229.252 30.467V30.8844H228.449V31.3016C228.053 31.2143 227.977 30.1855 227.646 30.4767C226.985 31.0396 228.09 31.2726 226.438 31.719V32.9614H226.032V32.1364H225.626C225.493 32.4082 225.361 32.6896 225.219 32.9614H223.605C223.123 32.0588 222.717 31.5928 221.593 31.3016V31.719H219.979L219.572 32.544L218.364 32.1267V33.369H217.561C216.57 35.1063 216.664 33.8543 215.55 34.6113C215.682 34.8831 215.814 35.1645 215.956 35.4363C215.153 35.3004 214.341 35.1646 213.538 35.019C213.5 35.0287 213.33 35.7372 212.735 35.844V35.4266H211.121L210.715 35.0093V35.4266C209.572 36.1836 209.534 36.6204 207.495 36.669C207.041 35.9604 207.24 36.106 206.286 35.844V36.669H205.483V36.2517C204.973 36.0867 204.425 37.426 204.274 37.4939C203.443 37.8724 203.122 37.1349 202.66 37.0766V37.4939C201.857 37.6298 201.045 37.7657 200.242 37.9113L199.836 36.669C198.722 36.9698 198.939 36.7855 198.627 37.9113C197.419 38.0472 196.21 38.1831 195.001 38.3287L194.595 39.1537H191.771V39.571C190.723 39.8913 189.892 39.6098 188.948 39.9884C188.721 38.979 188.523 39.0761 188.145 38.3287C187.692 38.6781 188.089 38.2801 187.739 38.746C186.323 39.7748 187.645 40.2213 185.728 40.8133V41.2307H183.716L183.31 42.0557C182.413 42.4245 182.177 41.5412 181.696 41.6383V42.0557C180.893 42.2207 181.186 41.8712 180.893 41.6383H180.487V42.4633C180.081 42.3274 179.684 42.1916 179.278 42.046V41.6286L178.069 42.046V41.6286H176.455L176.049 40.8036C175.482 40.8036 175.86 40.6775 175.642 41.221C175.142 40.7454 175.491 41.2209 175.236 40.3959H176.851V39.571H175.236C174.859 38.8236 174.679 38.9207 174.434 37.9113H175.236C175 36.2031 174.802 35.9314 174.028 34.1843C173.499 34.3979 174.141 34.3493 173.622 34.6016H172.413V35.019C173.225 35.252 172.762 34.9704 173.216 35.4363C172.063 35.3975 171.487 35.3587 170.798 35.019V35.4363C171.261 35.9119 170.959 35.4364 171.204 36.2614C169.23 36.2614 168.909 36.7369 167.578 37.0864V35.844H167.172V36.2614H166.766L165.963 35.844V37.0864H164.754V36.2614H164.348V37.0864H164.754V38.3287C163.414 38.319 162.932 38.1151 161.931 37.9113V38.7363C160.977 38.6878 160.911 38.6102 160.316 38.319V38.7363C159.853 39.2119 160.155 38.7363 159.91 39.5613C157.785 39.3186 158.985 38.6684 157.086 39.144V38.319C156.444 38.2219 156.576 39.0275 156.284 39.144C154.773 39.7263 153.526 39.3769 152.252 39.144V40.3863L151.449 39.9689V40.3863C150.637 41.0949 151.487 41.0171 151.043 41.6286H150.637C149.664 40.1339 146.869 41.3762 144.999 41.6286V42.8709C144.244 42.6574 142.799 41.3859 142.175 41.6286V42.046H141.769V43.2883C140.561 43.4242 139.352 43.56 138.143 43.7056V44.5306H138.549C138.417 44.9479 138.285 45.3556 138.143 45.773C137.189 45.7244 137.123 45.6469 136.528 45.3557V45.773H136.122V44.5306H135.32V45.773H134.914V45.3557H133.299V45.773L132.496 45.3557V45.773C131.608 46.0544 131.165 45.8992 130.485 46.1904V47.4326C128.473 47.7432 128.492 47.8015 126.859 46.6076L126.453 47.85H124.838V48.2674C124.299 48.4033 123.761 48.5391 123.223 48.6847V47.8597H122.42C122.175 49.3156 121.986 49.7621 120.409 49.9271V49.5097C120.871 49.0341 120.569 49.5097 120.815 48.6847C120.277 48.5488 119.738 48.413 119.2 48.2674V47.85C118.435 47.6074 118.643 48.083 118.397 48.2674L117.189 47.85V48.2674H117.595V49.9271H116.792V49.1021C115.687 49.7621 116.065 50.1211 114.375 50.3443C114.082 51.4896 114.261 51.2664 113.166 51.5867C112.08 52.9067 110.814 52.5864 109.133 52.4117V51.5867H110.748C110.616 51.1694 110.484 50.7617 110.342 50.3443C109.728 50.587 109.681 50.6647 108.728 50.7617C108.661 49.6359 108.595 48.2674 107.925 47.8597V47.4423C108.217 47.0056 108.236 47.8015 108.728 47.025H107.925C107.207 46.5883 108.728 46.6076 108.728 46.6076C108.501 45.5982 108.302 45.6953 107.925 44.948H109.133C109.464 45.4915 109.417 45.4333 109.936 45.773C108.954 43.5989 108.454 41.5898 111.948 41.6286C112.41 42.1042 111.948 41.7936 112.75 42.046C112.883 41.3569 113.015 40.6678 113.156 39.9787H112.354V40.8036H111.551L111.957 39.5613H111.551C111.249 40.3474 111.834 39.9884 111.145 40.3863C110.616 39.901 111.626 39.7554 110.739 39.5613V40.3863L109.936 39.9689V40.3863H110.342C110.078 40.9396 109.804 41.4928 109.539 42.046H109.133V40.8036H108.728V41.221H107.519C107.254 41.6384 106.98 42.0459 106.716 42.4633H105.913V42.8807H104.705V43.2981H103.902V43.7153C102.278 44.3074 101.06 43.1427 100.276 43.7153C99.1804 44.4433 99.001 46.006 98.6611 46.2001H95.0348C94.5721 45.7245 95.0347 46.035 94.232 45.7827V44.9577H93.826C93.9582 45.5109 94.0904 46.0641 94.232 46.6174H93.826C93.0611 47.2968 91.6919 47.0541 90.6059 47.4423V47.8597C90.011 48.0538 89.0289 47.4132 88.9912 47.4423V48.2674H86.9796C86.5736 49.238 86.1769 50.1988 85.7709 51.1694H85.3649V49.9271H84.5621C84.4771 50.9073 84.3922 50.9558 84.1561 51.5867C83.7028 51.2373 84.0995 51.6353 83.7501 51.1694C83.2874 50.6938 83.5894 51.1693 83.3439 50.3443C84.0332 49.8785 83.8917 50.0824 84.1467 49.1021H82.9379V51.5867C82.2674 51.4508 81.5971 51.315 80.9266 51.1694V50.752C81.3893 50.2764 81.0871 50.752 81.3326 49.9271H80.5298L80.936 49.1021H80.5298C80.0671 49.5777 80.53 49.267 79.7273 49.5194C79.6234 50.3249 79.3305 50.3249 79.3211 50.3443C78.6789 52.3825 79.68 52.9941 77.3097 53.2465V52.4214C76.7526 52.6252 76.4221 52.5864 75.695 52.8388V53.2561C75.2889 53.1202 74.8923 52.9844 74.4862 52.8388V53.2561H73.6835L74.0897 54.0811H71.6721V54.4984C72.1349 54.974 71.8326 54.4984 72.0781 55.3234C71.4266 55.2943 69.2546 54.9061 69.2546 54.9061C69.1224 55.1779 68.9903 55.4593 68.8486 55.7311C67.7532 56.3425 67.5642 55.8378 66.8371 55.7311V56.1485H66.0345L65.6283 56.9734C64.9578 57.1093 64.2875 57.2451 63.617 57.3907V57.8081C63.0787 57.6722 62.5405 57.5363 62.0023 57.3907C61.3318 57.5266 60.6612 57.6625 59.9907 57.8081V58.2255C58.7914 58.5749 58.3572 57.5654 57.5734 57.4004V57.8178C57.1107 58.2934 57.4127 57.8178 57.1672 58.6428H55.5524L55.1464 58.2255C54.9387 58.3226 55.033 58.9631 54.3437 59.0505V58.6331L53.1349 58.2158V58.6331C52.7288 58.769 52.3324 58.9049 51.9264 59.0505V58.2255C51.1992 58.6138 51.2935 58.7981 50.3114 59.0505V59.8755H49.9054V58.6331C47.639 58.604 45.911 57.6432 45.0705 56.1485L45.8731 55.7311C45.9014 55.1487 45.4765 55.9058 45.4671 55.3138C45.5993 54.6247 45.7314 53.9356 45.8731 53.2465H46.6759C45.7882 50.6647 47.6674 49.2282 47.8846 46.6174C49.1311 46.3844 50.5759 46.2001 52.3135 46.2001V44.9577H53.5222C53.7961 43.7445 53.966 43.5989 55.137 43.2981V42.473C57.4884 41.9198 55.3637 41.4248 57.5545 42.473V41.648C58.4516 41.4733 58.9331 41.2501 59.5658 40.823V40.4056C60.3685 40.328 59.8492 41.0365 60.3686 40.4056C60.8313 39.9301 60.5291 40.4057 60.7746 39.5807H61.5774C62.0401 37.9016 62.3989 38.7557 63.1921 37.5134C63.9948 37.7851 64.807 38.0666 65.6096 38.3383V37.921H66.0156V36.2614C63.702 36.3099 63.0598 36.6011 61.1806 36.2614C60.9539 37.562 60.784 37.9987 59.5658 38.3287V37.5036H58.7633V38.746C57.9417 39.1925 57.1768 39.969 55.9397 39.9884L55.5335 39.571C54.0793 40.6968 55.6657 41.5024 52.71 41.6383L53.116 39.9787H52.3135V40.3959H52.7194C52.7478 40.5415 52.0302 41.8906 51.9169 42.4633H51.1141V41.6383H50.3114V42.4633L49.9054 42.046C49.1027 42.3177 48.2905 42.5992 47.4878 42.8709C47.3556 43.1427 47.2235 43.4242 47.0818 43.6959C46.553 43.9289 47.1669 43.3854 46.6759 43.2786C46.2698 43.4145 45.8731 43.5503 45.4671 43.6959V43.2786H44.2583V42.8612H43.8523V43.2786C43.8523 43.2786 42.7381 42.9001 42.2376 42.8612C41.9732 43.5503 41.6992 44.2395 41.4348 44.9286C41.0854 44.8024 40.5472 44.1328 39.82 44.5113V44.9286H39.414V46.1709H39.0078V44.9286H38.6018V46.5882C38.6679 47.1706 39.0267 46.4136 39.0078 47.0056L38.6018 47.423C37.903 47.0639 38.4602 47.3744 38.1958 46.5979H37.7896V47.423L35.7783 47.8403L36.1843 47.0153H35.7783C35.155 47.7336 35.0512 47.4229 34.1635 47.8403V48.2577C33.5686 48.4906 32.6243 48.3644 32.5488 47.8403H32.1425V49.0827H31.7365V48.6653H31.3305V49.4903H30.5278V50.3153C29.5079 49.9853 28.0348 50.2862 26.0989 50.3153C25.9667 51.2859 25.8346 52.2467 25.6929 53.2173H24.8902V52.3924C24.2764 52.635 24.2292 52.7126 23.2754 52.8096V54.052C22.4727 54.3238 21.6606 54.6052 20.8579 54.877V55.2944H20.0553V55.7116C18.0817 56.4784 17.6189 55.0711 16.4291 56.954H16.0231L16.4291 57.3714C16.2968 57.7888 16.1647 58.1963 16.0231 58.6137C15.4848 58.4778 14.9463 58.342 14.4081 58.1964V59.4387C12.9821 59.594 13.1806 59.9531 11.9908 60.2637V59.4387H11.5845V60.681C10.7819 60.8169 9.96991 60.9528 9.16724 61.0984L8.76101 62.3408H7.95847C7.82627 62.7581 7.69389 63.1657 7.55225 63.583H7.14625V62.3408H6.74025L6.33426 63.1657L5.12549 62.7483V62.331C4.3417 62.1272 4.58713 62.5639 4.32272 62.7483L2.70796 62.331L3.11396 61.9136V61.4964H2.70796V60.254H3.11396V59.8366H2.31142C2.30198 58.4584 2.1035 57.9634 1.90519 56.9346H1.10265C0.384966 56.4978 1.90519 56.5173 1.90519 56.5173C2.0374 56.1 2.16977 55.6923 2.31142 55.2749C4.38894 55.372 4.30384 56.0611 4.32272 53.6153C4.9932 53.4794 5.66379 53.3435 6.33426 53.1979V51.5382L7.54302 51.1208C8.00574 50.6453 7.54289 50.9559 8.34556 50.7036V51.5285H9.14833V50.7036C9.55439 50.8394 9.95104 50.9753 10.3571 51.1208V50.2959H9.95087L10.3571 49.0535H10.7631V48.6362H11.9719C11.9624 48.0539 12.0567 48.5197 11.5656 48.2188V47.8014H12.7744V47.3842H13.1806L13.5866 48.2091C14.9276 48.4809 16.2685 48.7623 17.6189 49.0341C17.6567 47.4812 17.9871 47.1318 18.4215 46.1321C18.8275 46.268 19.2242 46.4039 19.6302 46.5495V45.7245H20.839L20.433 46.5495H20.839V46.1321H21.6418C22.0856 45.773 21.821 45.1323 22.4443 44.8897C22.8031 45.2585 22.5955 45.5886 23.2471 45.7148C23.5115 45.2974 23.7854 44.8898 24.0498 44.4724H25.2584V44.055H25.6646V42.3954H26.4671V43.2203C28.1858 43.0553 28.2898 42.3662 29.6874 41.978C30.0085 40.6386 30.4333 40.5513 30.49 38.6684H34.1163V39.0857L35.325 38.6684V38.251C35.9294 38.086 35.8726 38.9886 36.1276 39.076L37.3363 38.6587V39.4836H37.7426V38.6587C38.1958 38.3093 37.7992 38.7072 38.1486 38.2413L37.3458 38.6587V36.9989H37.752V35.3393H39.7633L39.3573 36.5816H40.5661C41.2082 35.7761 42.0297 35.4752 42.5774 34.5143C42.9929 34.8734 43.1346 35.2326 43.3802 35.7567C43.7862 35.4849 44.1829 35.2035 44.5889 34.9317V34.5143H45.3915L45.7975 33.6893C46.0619 33.8252 46.3358 33.961 46.6002 34.1066C47.1385 33.6893 46.1091 33.4078 47.0062 33.2817V33.6991C47.4123 33.8349 47.8089 33.9707 48.215 34.1163V33.2914C47.7523 32.8158 48.0545 33.2914 47.809 32.4664C48.8478 32.6605 49.5937 32.8643 51.0291 32.8837C51.6051 32.0005 52.0868 32.0491 53.0406 31.6414L52.6346 30.3991H54.2494V29.9817H54.6554V30.3991H55.4581V29.5741C57.7434 29.5062 56.9596 28.9335 58.2817 28.3317H59.8964V27.9143C60.3591 27.4388 60.0569 27.9144 60.3024 27.0894H61.5112V27.9143H62.314C62.6445 26.5847 62.786 26.7109 64.3253 26.6721V27.4971C65.2696 27.0506 65.6379 26.5459 66.7428 26.2547V25.0123H67.5453V24.1874C69.6701 24.1971 70.7278 23.7021 72.3804 23.3624C72.6731 24.5077 72.4937 24.2845 73.5892 24.6048C73.457 24.1874 73.3246 23.7797 73.1829 23.3624H73.5892C74.033 22.7801 74.9961 22.1492 75.6005 21.7027V21.2853H76.8092V21.7027H77.2152V22.945H77.6214C77.7537 21.295 78.0368 21.033 79.6328 20.8777V21.2951C80.171 21.4892 79.4816 21.033 80.0387 20.8777C81.6535 20.6059 83.259 20.3245 84.8738 20.0527C84.4677 18.7618 84.6472 19.4218 84.8738 17.9854C85.8559 17.7524 85.7614 17.5583 86.4886 17.1604V17.5778H86.8946C87.2156 18.1893 86.4886 18.4028 86.4886 18.4028L86.8946 19.2277C87.82 18.4319 87.4046 17.9854 88.9061 17.5681C89.0383 17.1507 89.1704 16.7431 89.3121 16.3257C90.4642 16.811 91.2103 17.1119 92.9384 17.1507C93.3445 16.3257 93.7411 15.4911 94.1472 14.6661H94.9497L95.3559 15.491L98.1795 14.6661V14.2487H101.003L101.409 13.4237H102.212C102.467 12.2881 102.74 12.4822 103.014 11.3564C103.553 11.4923 104.091 11.6281 104.629 11.7737V11.3564C105.073 10.9876 104.714 11.4243 105.035 10.939H104.629C104.232 10.2499 105.205 10.5896 105.432 10.5217V10.1043C105.838 10.2402 106.235 10.3761 106.641 10.5217C106.508 10.7935 106.376 11.0749 106.234 11.3467H106.641C107.906 9.85197 109.011 11.3466 110.673 11.7639C110.947 11.2204 111.173 11.3175 111.475 10.939L111.069 10.114H111.872V9.69673L112.675 9.27933C112.731 8.69698 112.59 9.34722 112.269 8.86193L112.675 8.03696C114.035 8.32814 114.223 8.93963 115.498 9.27933V8.03696C116.603 8.29902 116.414 8.58046 117.51 8.86193V7.61968C117.954 7.75556 118.303 8.35725 119.125 8.03696V7.61968H120.333V7.20228C121.136 6.51317 121.948 5.82406 122.751 5.13495V4.30999H123.553V4.72727C124.111 4.84374 123.478 4.63998 123.959 4.30999L124.762 4.72727L124.356 5.96963C126.604 6.14434 127.746 6.70729 129.191 5.14467C128.398 4.67879 128.247 4.56236 127.982 3.48502L129.191 3.06762C129.323 3.33938 129.456 3.62083 129.597 3.89259H130.4V2.23294C131.278 2.40764 131.552 2.50468 132.014 3.05791L134.432 2.23294L134.026 1.40797H136.037V0.583008L136.236 0.680042ZM132.213 6.89175V7.71672H132.619V6.89175H132.213ZM491.199 7.71672V8.54168H491.605V7.71672H491.199ZM133.422 8.95908V9.78405H133.828V8.95908H133.422ZM127.784 9.78405V10.609H128.19V9.78405H127.784ZM481.123 11.0264C481.585 11.502 481.123 11.1913 481.925 11.4437C481.463 10.9681 481.925 11.2788 481.123 11.0264ZM449.299 11.4437C449.761 11.9193 449.299 11.6087 450.101 11.8611C449.639 11.3855 450.101 11.696 449.299 11.4437ZM109.653 12.6861C109.691 14.0934 109.653 14.1905 110.456 14.7534V14.336H110.049V12.6763H109.643L109.653 12.6861ZM443.255 13.1033C443.718 13.5789 443.255 13.2684 444.058 13.5207C443.595 13.0452 444.058 13.3557 443.255 13.1033ZM399.334 13.511V14.336H399.74V13.511H399.334ZM427.541 13.9284L427.135 14.7534C427.135 14.7534 428.306 14.0934 427.938 13.9284H427.532H427.541ZM469.035 13.9284H469.838C469.498 14.3943 469.885 13.9866 469.432 14.3457V14.7631C468.969 14.2875 469.271 14.7631 469.026 13.9381L469.035 13.9284ZM112.467 14.3457C112.93 14.8213 112.467 14.5108 113.27 14.7631C112.807 14.2875 113.27 14.5981 112.467 14.3457ZM338.501 14.7534V15.5784H338.907V14.7534H338.501ZM116.905 16.413V16.8304H116.499C115.734 17.1896 117.302 17.2477 117.302 17.2477C117.642 16.7818 117.255 17.1896 117.708 16.8304C117.245 16.3549 117.708 16.6654 116.905 16.413ZM426.333 16.413V16.8304H425.927C425.162 17.1896 426.729 17.2477 426.729 17.2477C427.069 16.7818 426.682 17.1896 427.135 16.8304C426.673 16.3549 427.136 16.6654 426.333 16.413ZM529.472 16.413V16.8304H529.066C528.301 17.1896 529.869 17.2477 529.869 17.2477C530.209 16.7818 529.821 17.1896 530.275 16.8304C529.812 16.3549 530.275 16.6654 529.472 16.413ZM259.527 16.8304V17.6554H259.933V16.8304H259.527ZM160.014 17.238V18.0631H160.42V17.238H160.014ZM263.153 17.238V18.0631H263.559V17.238H263.153ZM337.689 17.238C338.369 18.1309 338.492 18.0631 338.492 18.0631C338.784 17.6652 337.793 17.3351 337.689 17.238ZM440.838 17.238C441.518 18.1309 441.64 18.0631 441.64 18.0631C441.933 17.6652 440.941 17.3351 440.838 17.238ZM469.441 17.238V18.0631H469.847V17.238H469.441ZM543.977 17.238C544.657 18.1309 544.78 18.0631 544.78 18.0631C545.072 17.6652 544.081 17.3351 543.977 17.238ZM101.588 18.0727H100.786V18.4901H101.192V18.9075H101.598V18.0824L101.588 18.0727ZM106.829 20.5574H107.632C107.5 20.0042 107.368 19.451 107.226 18.8978H106.82V20.5574H106.829ZM416.257 20.5574H417.06L416.654 18.8978H416.247V20.5574H416.257ZM519.396 20.5574H520.199L519.793 18.8978H519.387V20.5574H519.396ZM102.401 19.7227V21.3824H102.807V19.7227H102.401ZM205.54 19.7227V21.3824H205.946V19.7227H205.54ZM411.828 19.7227V21.3824H412.234V19.7227H411.828ZM471.453 20.5574V21.7998H471.859C472.265 21.0524 472.746 20.5671 473.474 20.14V19.7227H472.671C472.218 20.4313 472.416 20.2856 471.462 20.5477L471.453 20.5574ZM514.967 19.7227V21.3824H515.373V19.7227H514.967ZM284.108 20.14V20.9651H284.514V20.14H284.108ZM387.247 20.9651H388.05V20.5477C387.597 20.1983 387.993 20.5963 387.644 20.1304H387.238V20.9554L387.247 20.9651ZM162.025 20.5574V21.7998H162.431V20.5574H162.025ZM265.165 20.5574V21.7998H265.571V20.5574H265.165ZM441.64 22.2073C441.933 23.3526 441.754 23.1294 442.849 23.4497C443.104 22.3141 443.378 22.5083 443.652 21.3824H443.246C442.736 22.1686 442.84 22.0715 441.631 22.2073H441.64ZM445.266 21.3824V22.2073C446.324 22.1782 446.636 22.0424 447.278 21.7901V21.3727H445.266V21.3824ZM232.538 21.7998V23.0421H232.944V22.6247C233.397 22.2753 233.001 22.6732 233.35 22.2073L232.547 21.7901L232.538 21.7998ZM335.678 21.7998V23.0421H336.084V22.6247C336.537 22.2753 336.14 22.6732 336.49 22.2073L335.687 21.7901L335.678 21.7998ZM438.817 21.7998V23.0421H439.223V22.6247C439.676 22.2753 439.279 22.6732 439.629 22.2073L438.826 21.7901L438.817 21.7998ZM541.966 21.7998V23.0421H542.372V22.6247C542.825 22.2753 542.428 22.6732 542.778 22.2073L541.975 21.7901L541.966 21.7998ZM283.702 22.2073V23.0324H284.108V22.2073H283.702ZM470.65 22.2073C471.33 23.1003 471.453 23.0324 471.453 23.0324C471.745 22.6345 470.754 22.3044 470.65 22.2073ZM257.516 23.0421V24.2844H256.713V25.1094L257.516 24.6921L257.922 23.4497C258.375 23.1003 257.978 23.4983 258.328 23.0324H257.525L257.516 23.0421ZM274.438 23.0421V23.8671H274.844V23.0421H274.438ZM377.577 23.0421V23.8671H377.983V23.0421H377.577ZM440.838 23.8671H439.629V24.6921H440.432C440.809 23.9447 440.989 24.0418 441.234 23.0324H440.828V23.8574L440.838 23.8671ZM480.716 23.0421V23.8671H481.123V23.0421H480.716ZM224.077 24.6921V23.8671C223.624 24.2165 224.02 23.8185 223.671 24.2844H223.265C223.728 24.76 223.265 24.4494 224.067 24.7018L224.077 24.6921ZM326.008 23.8671V25.1094H326.414C326.876 24.6338 326.413 24.9444 327.216 24.6921V23.8671H326.008ZM383.215 24.6921V23.8671H382.006V24.2844H382.412C382.875 24.76 382.412 24.4494 383.215 24.7018V24.6921ZM430.356 24.6921V23.8671C429.902 24.2165 430.299 23.8185 429.949 24.2844H429.543C430.006 24.76 429.544 24.4494 430.346 24.7018L430.356 24.6921ZM462.189 23.8671V24.6921C462.642 24.3427 462.246 24.7406 462.595 24.2747H463.001C462.538 23.7991 463.001 24.1097 462.198 23.8574L462.189 23.8671ZM519.396 24.2844V25.1094H519.802V24.2844H519.396ZM252.681 25.9344H253.483C253.143 25.4686 253.53 25.8762 253.077 25.517V24.6921H252.671V25.9344H252.681ZM139.059 25.1094V25.9344H139.465V25.1094H139.059ZM242.208 25.1094V26.3517H242.614V25.1094H242.208ZM448.487 25.1094V25.9344H448.893V25.1094H448.487ZM527.055 25.1094C527.517 25.5849 527.215 25.1095 527.461 25.9344H527.055V25.1094ZM551.635 25.1094V25.9344H552.041V25.1094H551.635ZM82.6546 25.5268V26.3517H83.0608V25.5268H82.6546ZM185.794 25.5268V26.3517H186.2V25.5268H185.794ZM392.082 25.5268V26.3517H392.488V25.5268H392.082ZM495.221 25.5268V26.3517H495.627V25.5268H495.221ZM210.781 25.9344C210.819 26.0218 211.357 27.4387 211.583 27.1767V26.7594H211.99C211.64 26.3324 211.291 26.1868 210.781 25.9344ZM314.723 28.0115H315.526V27.1864H314.723L315.129 26.3614C314.723 26.2256 314.326 26.0897 313.92 25.9442V26.3614C314.468 26.8467 314.534 27.1185 314.723 28.0211V28.0115ZM208.363 26.3517L208.769 27.5941H209.175C208.93 26.6041 209.043 26.8273 208.373 26.3517H208.363ZM311.503 26.3517C311.635 26.7691 311.767 27.1767 311.909 27.5941H312.315C312.069 26.6041 312.183 26.8273 311.512 26.3517H311.503ZM319.161 26.3517H318.359C318.698 26.8176 318.311 26.41 318.765 26.7691V27.1864H319.171V26.3614L319.161 26.3517ZM478.308 28.0115H479.111V27.1864H479.517C479.385 26.9146 479.253 26.6332 479.111 26.3614C478.658 26.7109 479.055 26.313 478.705 26.7788H478.299V28.0211L478.308 28.0115ZM141.883 26.7691C142.345 27.2447 141.883 26.9341 142.685 27.1864C142.223 26.7108 142.685 27.0215 141.883 26.7691ZM210.375 26.7691V28.0115H210.781V26.7691H210.375ZM313.514 26.7691V28.0115H313.92V26.7691H313.514ZM321.173 26.7691H320.37C320.71 27.235 320.323 26.8273 320.776 27.1864V27.6038H321.182V26.7788L321.173 26.7691ZM367.907 26.7691V28.0115H368.313V26.7691H367.907ZM471.056 26.7691V28.0115H471.462V26.7691H471.056ZM63.3148 27.1767V28.0018H63.721V27.1767H63.3148ZM82.2486 27.1767V28.0018H82.6546V27.1767H82.2486ZM185.397 27.1767V28.0018H185.803V27.1767H185.397ZM212.386 28.0115V27.1864C211.933 27.5358 212.33 27.1379 211.98 27.6038H211.574C212.037 28.0794 211.574 27.7687 212.377 28.0211L212.386 28.0115ZM288.537 27.1767V28.0018H288.943V27.1767H288.537ZM319.558 27.1767V29.6614H319.964V27.1767H319.558ZM371.127 27.1767V28.0018H371.534V27.1767H371.127ZM372.742 27.1767V28.0018H373.148V27.1767H372.742ZM391.676 27.1767V28.0018H392.082V27.1767H391.676ZM474.276 27.1767V28.0018H474.682V27.1767H474.276ZM475.891 27.1767V28.0018H476.297V27.1767H475.891ZM494.825 27.1767V28.0018H495.231V27.1767H494.825ZM72.1821 27.5941C72.6448 28.0697 72.182 27.7591 72.9847 28.0115C72.5219 27.5359 72.9848 27.8464 72.1821 27.5941ZM175.321 27.5941C175.784 28.0697 175.321 27.7591 176.124 28.0115C175.661 27.5359 176.124 27.8464 175.321 27.5941ZM484.749 27.5941C485.211 28.0697 484.749 27.7591 485.552 28.0115C485.089 27.5359 485.551 27.8464 484.749 27.5941ZM203.925 28.4191L204.331 29.6614H204.737C204.492 28.6714 204.605 28.8946 203.935 28.4191H203.925ZM307.074 28.4191C307.206 28.8364 307.338 29.2441 307.48 29.6614H307.886C307.64 28.6714 307.754 28.8946 307.083 28.4191H307.074ZM333.26 28.8365V29.6614H333.666V28.8365H333.26ZM78.6223 30.9038C78.3295 29.7585 78.5091 29.9817 77.4137 29.6614C77.5459 30.2147 77.6781 30.7678 77.8197 31.3211H79.0285V31.7385C79.5951 31.8161 78.8773 31.4472 79.4345 31.3211H81.0492V29.6614C80.596 29.312 80.9926 29.7099 80.6432 29.244H79.8405V29.6614H80.2467C80.3789 30.4088 79.2455 30.7485 78.6317 30.9038H78.6223ZM131.004 29.2537L130.598 30.0788C130.598 30.0788 131.769 29.4187 131.401 29.2537H130.995H131.004ZM440.432 29.2537L440.026 30.0788C440.026 30.0788 441.196 29.4187 440.828 29.2537H440.422H440.432ZM62.106 31.3211H62.9088V30.9038C62.4555 30.5544 62.8522 30.9523 62.5028 30.4864H62.0965V31.3114L62.106 31.3211ZM76.205 30.4961V31.3211C76.6582 30.9717 76.2616 31.3697 76.611 30.9038H77.017C76.5542 30.4282 77.0171 30.7387 76.2144 30.4864L76.205 30.4961ZM165.246 31.3211H166.048V30.9038C165.595 30.5544 165.991 30.9523 165.642 30.4864H165.236V31.3114L165.246 31.3211ZM179.354 30.4961V31.3211C179.807 30.9717 179.41 31.3697 179.76 30.9038H180.166C179.703 30.4282 180.166 30.7387 179.363 30.4864L179.354 30.4961ZM282.493 30.4961V31.3211C282.946 30.9717 282.55 31.3697 282.899 30.9038H283.305C282.842 30.4282 283.305 30.7387 282.502 30.4864L282.493 30.4961ZM474.682 31.3211H475.485V30.9038C475.032 30.5544 475.428 30.9523 475.079 30.4864H474.673V31.3114L474.682 31.3211ZM488.781 30.4961V31.3211C489.234 30.9717 488.838 31.3697 489.187 30.9038H489.593C489.131 30.4282 489.593 30.7387 488.791 30.4864L488.781 30.4961ZM69.7646 32.9808V32.1558L68.5558 32.5732L68.9618 34.2328H68.5558V34.6502C67.6115 34.7861 66.6766 34.9219 65.7323 35.0675V35.8926C66.2611 35.9702 68.2348 36.3972 68.5558 36.3098L68.9618 35.4849L70.1706 35.9023C70.3028 35.2132 70.4352 34.5241 70.5768 33.8349H70.9828C71.4455 33.3594 70.9827 33.6699 71.7853 33.4175V34.2425H73.7969V33.4175H74.5994C74.335 32.5926 74.0613 31.7578 73.7969 30.9328H73.3909L72.9847 32.1752C72.4086 32.5925 70.6617 32.9225 69.7646 33.0001V32.9808ZM115.291 30.9038V32.146H115.697V30.9038H115.291ZM61.3035 31.7385V32.5634H61.7095V31.7385H61.3035ZM124.158 31.7385V32.5634H124.564V31.7385H124.158ZM164.443 31.7385V32.5634H164.849V31.7385H164.443ZM267.582 31.7385V32.5634H267.988V31.7385H267.582ZM387.247 31.7385C387.71 32.2141 387.247 31.9034 388.05 32.1558C387.587 31.6802 388.05 31.9908 387.247 31.7385ZM433.585 31.7385V32.5634H433.991V31.7385H433.585ZM473.87 31.7385V32.5634H474.276V31.7385H473.87ZM107.632 32.146C108.095 32.6216 107.793 32.1461 108.038 32.9711H107.632V32.146ZM210.375 32.5634C210.828 33.272 210.63 33.1263 211.583 33.3884C211.234 32.9613 210.885 32.8158 210.375 32.5634ZM256.307 33.3884H257.109V32.9711C256.656 32.6217 257.053 33.0196 256.703 32.5537H256.297V33.3787L256.307 33.3884ZM106.829 32.9808H107.632V33.3981C106.82 33.1652 107.283 33.4467 106.829 32.9808ZM219.242 32.9808C219.705 33.4564 219.403 32.9808 219.648 33.8058H219.242V32.9808ZM327.622 34.6308H326.82V32.9711H326.414V33.3884C325.951 33.864 326.253 33.3884 326.008 34.2134C326.414 34.4851 326.81 34.7667 327.216 35.0385C327.556 35.5043 327.169 35.0966 327.622 35.4557V34.6308ZM215.616 33.3884V34.2134H216.022V33.3884H215.616ZM83.4573 34.2231V35.0482H83.8633V34.2231H83.4573ZM186.606 34.2231V35.0482H187.012V34.2231H186.606ZM275.647 34.6308C276.109 35.1064 275.647 34.7958 276.449 35.0482C275.986 34.5726 276.449 34.8831 275.647 34.6308ZM132.61 35.8731V35.0482C132.156 35.3976 132.553 34.9996 132.203 35.4654H131.797C132.26 35.941 131.797 35.6305 132.6 35.8828L132.61 35.8731ZM338.898 35.8731V35.0482C338.444 35.3976 338.841 34.9996 338.492 35.4654H338.085C338.548 35.941 338.085 35.6305 338.888 35.8828L338.898 35.8731ZM96.7535 36.7078V37.5328H97.1595V36.7078H96.7535ZM104.818 36.7078V37.5328H105.224V36.7078H104.818ZM74.5994 37.1155V37.9405H75.0056V37.1155H74.5994ZM106.829 37.9502C106.811 39.6293 106.641 39.736 107.632 40.4348V40.0175C106.952 39.1246 107.944 38.0181 108.435 37.1155H108.029C107.575 37.824 107.774 37.6784 106.82 37.9405L106.829 37.9502ZM114.082 37.1155C114.544 37.5911 114.082 37.2804 114.885 37.5328C114.422 37.0572 114.884 37.3678 114.082 37.1155ZM135.027 37.1155C134.895 37.5328 134.762 37.9404 134.621 38.3577H135.027V37.9405C135.197 37.6978 135.688 37.8823 135.433 37.1155H135.027ZM177.739 37.1155V37.9405H178.145V37.1155H177.739ZM313.117 37.9502C313.099 39.6293 312.929 39.736 313.92 40.4348V40.0175C313.24 39.1246 314.232 38.0181 314.723 37.1155H314.317C313.863 37.824 314.062 37.6784 313.108 37.9405L313.117 37.9502ZM320.37 37.1155C320.833 37.5911 320.37 37.2804 321.173 37.5328C320.71 37.0572 321.172 37.3678 320.37 37.1155ZM140.268 37.5328V38.3577H140.674V37.5328H140.268ZM185.397 38.3577H186.2V37.9405C185.747 37.5911 186.143 37.9889 185.794 37.5231H185.388V38.348L185.397 38.3577ZM243.417 37.5328V38.3577H243.823V37.5328H243.417ZM279.273 37.5328C279.736 38.0084 279.433 37.5328 279.679 38.3577H279.273V37.5328ZM190.629 37.9502C190.497 38.2219 190.365 38.5034 190.223 38.7751L191.025 39.1924C191.318 38.6974 190.176 38.8334 191.025 37.9502H190.619H190.629ZM141.071 38.3577L140.665 39.6001H141.071V38.7751H141.477V38.3577H141.071ZM244.219 38.3577L243.813 39.1827C243.813 39.1827 244.984 38.5227 244.616 38.3577H244.21H244.219ZM32.6903 40.0175H33.4931V39.6001C33.0398 39.2507 33.4363 39.6486 33.0869 39.1827H32.6809V40.0078L32.6903 40.0175ZM259.527 40.0175H258.724C259.064 40.4834 258.677 40.0757 259.13 40.4348V40.8522H259.536V40.0272L259.527 40.0175ZM46.3925 40.8425V41.6674H46.7985V40.8425H46.3925ZM104.412 40.8425V42.5021H104.818V42.0848H105.224C105.092 41.8131 104.96 41.5315 104.818 41.2598H105.224C104.761 40.7842 105.224 41.0948 104.421 40.8425H104.412ZM252.681 40.8425V41.6674H253.087V40.8425H252.681ZM313.514 40.8425C313.051 41.3181 313.514 41.0074 312.711 41.2598V41.6772H313.514C313.646 41.4054 313.779 41.124 313.92 40.8522H313.514V40.8425ZM125.763 42.0848L125.357 42.9098C125.357 42.9098 126.528 42.2498 126.16 42.0848H125.754H125.763ZM110.456 42.9195V43.7445H110.862V42.9195H110.456ZM119.323 42.9195V43.7445H119.729V42.9195H119.323ZM100.38 43.7445H101.182C100.852 44.288 100.899 44.2298 100.38 44.5695V44.9869H99.9736L100.38 43.7445ZM114.488 43.7445L114.082 44.5695C114.082 44.5695 115.253 43.9095 114.885 43.7445H114.479H114.488ZM83.4573 45.4041V46.2291H83.8633V45.4041H83.4573ZM52.4361 47.4715V48.2964H52.8423V47.4715H52.4361ZM61.3035 47.8889V49.1311H62.9182V49.9562H64.127C64.4575 49.4127 64.4101 49.4708 64.9295 49.1311V47.8889C63.2486 48.1897 63.2393 47.9956 61.3035 47.8889ZM28.6675 48.7138C29.1302 49.1894 28.6676 48.8788 29.4703 49.1311C29.0075 48.6555 29.4702 48.9662 28.6675 48.7138ZM112.07 49.1311V49.9562H112.476V49.1311H112.07ZM12.1418 55.7505C12.0096 56.1679 11.8774 56.5755 11.7358 56.9929H12.1418V56.1678H12.5478V55.7505H12.1418ZM64.1175 56.1678V56.9929H64.5235V56.1678H64.1175Z" fill="#FDE6AD"/>
</svg>
